<svg xmlns="http://www.w3.org/2000/svg" xmlns:xlink="http://www.w3.org/1999/xlink" contentStyleType="text/css" data-diagram-type="STATE" height="681px" preserveAspectRatio="none" style="width:494px;height:681px;background:#FFFFFF;" version="1.1" viewBox="0 0 494 681" width="494px" zoomAndPan="magnify"><defs/><g><path d="M19.5,7 L446.5,7 A12.5,12.5 0 0 1 459,19.5 L459,33.2969 L7,33.2969 L7,19.5 A12.5,12.5 0 0 1 19.5,7" fill="#F1F1F1"/><rect fill="none" height="523.2969" rx="12.5" ry="12.5" style="stroke:#181818;stroke-width:0.5;" width="452" x="7" y="7"/><line style="stroke:#181818;stroke-width:0.5;" x1="7" x2="459" y1="33.2969" y2="33.2969"/><text fill="#000000" font-family="sans-serif" font-size="14" lengthAdjust="spacing" textLength="105.957" x="180.0215" y="24.9951">crearDocente()</text><g id="crearDocente.SolicitandoDatos"><rect fill="#F1F1F1" height="50" rx="12.5" ry="12.5" style="stroke:#181818;stroke-width:0.5;" width="50" x="19" y="135.2969"/><line style="stroke:#181818;stroke-width:0.5;" x1="19" x2="69" y1="161.5938" y2="161.5938"/><text fill="#000000" font-family="sans-serif" font-size="14" lengthAdjust="spacing" textLength="4.4502" x="41.7749" y="153.292">&#160;</text></g><g id="crearDocente.CreandoDocente"><rect fill="#F1F1F1" height="50" rx="12.5" ry="12.5" style="stroke:#181818;stroke-width:0.5;" width="50" x="19" y="362.2969"/><line style="stroke:#181818;stroke-width:0.5;" x1="19" x2="69" y1="388.5938" y2="388.5938"/><text fill="#000000" font-family="sans-serif" font-size="14" lengthAdjust="spacing" textLength="4.4502" x="41.7749" y="380.292">&#160;</text></g><ellipse cx="44" cy="54.2969" fill="#222222" rx="10" ry="10" style="stroke:#222222;stroke-width:1;"/><ellipse cx="44" cy="509.2969" fill="none" rx="11" ry="11" style="stroke:#222222;stroke-width:1;"/><ellipse cx="44" cy="509.2969" fill="#222222" rx="6" ry="6" style="stroke:#222222;stroke-width:1;"/><!--link *start*crearDocente to SolicitandoDatos--><g class="link" data-entity-1=".start.crearDocente" data-entity-2="SolicitandoDatos" data-source-line="8" data-uid="lnk3" id="link_.start.crearDocente_SolicitandoDatos"><path d="M44,64.5269 C44,80.2369 44,106.6569 44,129.1669" fill="none" id="*start*crearDocente-to-SolicitandoDatos" style="stroke:#008000;stroke-width:1;"/><polygon fill="#008000" points="44,135.1669,48,126.1669,44,130.1669,40,126.1669,44,135.1669" style="stroke:#008000;stroke-width:1;"/><path d="M49,87.2969 L49,112.2969 L363,112.2969 L363,97.2969 L353,87.2969 L49,87.2969" fill="#FEFFDD" style="stroke:#181818;stroke-width:0.5;"/><path d="M353,87.2969 L353,97.2969 L363,97.2969 L353,87.2969" fill="#FEFFDD" style="stroke:#181818;stroke-width:0.5;"/><text fill="#000000" font-family="sans-serif" font-size="13" font-weight="bold" lengthAdjust="spacing" textLength="104.8633" x="55" y="104.3638">Administrador</text><text fill="#000000" font-family="sans-serif" font-size="13" lengthAdjust="spacing" textLength="184.7803" x="163.9956" y="104.3638">solicita crear docente nuevo</text></g><!--link SolicitandoDatos to CreandoDocente--><g class="link" data-entity-1="SolicitandoDatos" data-entity-2="CreandoDocente" data-source-line="13" data-uid="lnk4" id="link_SolicitandoDatos_CreandoDocente"><path d="M44,185.3769 C44,228.5669 44,312.7369 44,356.0469" fill="none" id="SolicitandoDatos-to-CreandoDocente" style="stroke:#008000;stroke-width:1;"/><polygon fill="#008000" points="44,362.0469,48,353.0469,44,357.0469,40,353.0469,44,362.0469" style="stroke:#008000;stroke-width:1;"/><path d="M49,208.2969 L49,339.2969 L450,339.2969 L450,218.2969 L440,208.2969 L49,208.2969" fill="#FEFFDD" style="stroke:#181818;stroke-width:0.5;"/><path d="M440,208.2969 L440,218.2969 L450,218.2969 L440,208.2969" fill="#FEFFDD" style="stroke:#181818;stroke-width:0.5;"/><text fill="#000000" font-family="sans-serif" font-size="13" font-weight="bold" lengthAdjust="spacing" textLength="58.9063" x="55" y="225.3638">Sistema</text><text fill="#000000" font-family="sans-serif" font-size="13" lengthAdjust="spacing" textLength="317.1162" x="118.0386" y="225.3638">presenta solicitud de datos m&#237;nimos del docente</text><text fill="#000000" font-family="sans-serif" font-size="13" lengthAdjust="spacing" textLength="147.6211" x="55" y="240.4966">&#8226; Nombre (obligatorio)</text><text fill="#000000" font-family="sans-serif" font-size="13" lengthAdjust="spacing" textLength="154.6416" x="55" y="255.6294">&#8226; Apellidos (obligatorio)</text><text fill="#000000" font-family="sans-serif" font-size="13" lengthAdjust="spacing" textLength="214.0938" x="55" y="270.7622">&#8226; DNI (obligatorio - Identificador)</text><text fill="#000000" font-family="sans-serif" font-size="13" lengthAdjust="spacing" textLength="131.752" x="55" y="285.895">&#8226; Email (obligatorio)</text><text fill="#000000" font-family="sans-serif" font-size="13" lengthAdjust="spacing" textLength="157.2188" x="55" y="301.0278">&#8226; Password (obligatorio)</text><text fill="#000000" font-family="sans-serif" font-size="13" lengthAdjust="spacing" textLength="212.3545" x="55" y="316.1606">&#8226; Permite solicitar crear docente</text><text fill="#000000" font-family="sans-serif" font-size="13" lengthAdjust="spacing" textLength="236.6978" x="55" y="331.2935">&#8226; Permite solicitar cancelar creaci&#243;n</text></g><!--link CreandoDocente to *end*crearDocente--><g class="link" data-entity-1="CreandoDocente" data-entity-2=".end.crearDocente" data-source-line="25" data-uid="lnk6" id="link_CreandoDocente_.end.crearDocente"><path d="M44,412.5769 C44,438.7469 44,473.1469 44,491.9769" fill="none" id="CreandoDocente-to-*end*crearDocente" style="stroke:#008000;stroke-width:1;"/><polygon fill="#008000" points="44,497.9769,48,488.9769,44,492.9769,40,488.9769,44,497.9769" style="stroke:#008000;stroke-width:1;"/><path d="M49,435.2969 L49,475.2969 L360,475.2969 L360,445.2969 L350,435.2969 L49,435.2969" fill="#FEFFDD" style="stroke:#181818;stroke-width:0.5;"/><path d="M350,435.2969 L350,445.2969 L360,445.2969 L350,435.2969" fill="#FEFFDD" style="stroke:#181818;stroke-width:0.5;"/><text fill="#000000" font-family="sans-serif" font-size="13" font-weight="bold" lengthAdjust="spacing" textLength="104.8633" x="55" y="452.3638">Administrador</text><text fill="#000000" font-family="sans-serif" font-size="13" lengthAdjust="spacing" textLength="177.8423" x="163.9956" y="452.3638">proporciona datos m&#237;nimos</text><text fill="#000000" font-family="sans-serif" font-size="13" font-weight="bold" lengthAdjust="spacing" textLength="58.9063" x="55" y="467.4966">Sistema</text><text fill="#000000" font-family="sans-serif" font-size="13" lengthAdjust="spacing" textLength="227.2271" x="118.0386" y="467.4966">crea docente y transfiere a edici&#243;n</text></g><g id="DOCENTE_ABIERTO"><rect fill="#F1F1F1" height="50" rx="12.5" ry="12.5" style="stroke:#181818;stroke-width:0.5;" width="156.7461" x="20.63" y="625.3"/><line style="stroke:#181818;stroke-width:0.5;" x1="20.63" x2="177.3761" y1="651.5969" y2="651.5969"/><text fill="#000000" font-family="sans-serif" font-size="14" lengthAdjust="spacing" textLength="136.7461" x="30.63" y="643.2951">DOCENTE_ABIERTO</text></g><g id="DOCENTES_ABIERTO"><rect fill="#F1F1F1" height="50" rx="12.5" ry="12.5" style="stroke:#181818;stroke-width:0.5;" width="165.6328" x="284.18" y="625.3"/><line style="stroke:#181818;stroke-width:0.5;" x1="284.18" x2="449.8128" y1="651.5969" y2="651.5969"/><text fill="#000000" font-family="sans-serif" font-size="14" lengthAdjust="spacing" textLength="145.6328" x="294.18" y="643.2951">DOCENTES_ABIERTO</text></g><!--link crearDocente to DOCENTE_ABIERTO--><g class="link" data-entity-1="crearDocente" data-entity-2="DOCENTE_ABIERTO" data-source-line="32" data-uid="lnk8" id="link_crearDocente_DOCENTE_ABIERTO"><path d="M110.02,530.56 C101.38,548.88 96,560.3 96,560.3 C96,560.3 96,595.3 96,595.3 C96,595.3 96.5188,604.5491 97.3088,618.8391" fill="none" id="crearDocente-to-DOCENTE_ABIERTO" style="stroke:#008000;stroke-width:1;"/><polygon fill="#008000" points="97.64,624.83,101.1371,615.6229,97.364,619.8376,93.1493,616.0645,97.64,624.83" style="stroke:#008000;stroke-width:1;"/><path d="M101,565.3 L101,590.3 L319,590.3 L319,575.3 L309,565.3 L101,565.3" fill="#FEFFDD" style="stroke:#181818;stroke-width:0.5;"/><path d="M309,565.3 L309,575.3 L319,575.3 L309,565.3" fill="#FEFFDD" style="stroke:#181818;stroke-width:0.5;"/><text fill="#000000" font-family="sans-serif" font-size="13" lengthAdjust="spacing" textLength="197.1519" x="107" y="582.3669">editarDocente(docenteNuevo)</text></g><!--link crearDocente to DOCENTES_ABIERTO--><g class="link" data-entity-1="crearDocente" data-entity-2="DOCENTES_ABIERTO" data-source-line="37" data-uid="lnk10" id="link_crearDocente_DOCENTES_ABIERTO"><path d="M325.15,530.74 C338.8,569.41 348.8214,597.8126 356.4414,619.3826" fill="none" id="crearDocente-to-DOCENTES_ABIERTO" style="stroke:#0000FF;stroke-width:1;"/><polygon fill="#0000FF" points="358.44,625.04,359.2137,615.2216,356.7745,620.3255,351.6706,617.8863,358.44,625.04" style="stroke:#0000FF;stroke-width:1;"/><path d="M352,565.3 L352,590.3 L487,590.3 L487,575.3 L477,565.3 L352,565.3" fill="#FEFFDD" style="stroke:#181818;stroke-width:0.5;"/><path d="M477,565.3 L477,575.3 L487,575.3 L477,565.3" fill="#FEFFDD" style="stroke:#181818;stroke-width:0.5;"/><text fill="#000000" font-family="sans-serif" font-size="13" lengthAdjust="spacing" textLength="114.9624" x="358" y="582.3669">cancelar creaci&#243;n</text></g><!--SRC=[bPF1Qi9048Rl-nI3lMX1-W8YsCQ3brYgDv6ooOuokDaDkx55Ig7FqdjFVGJVf4_IIQBHc5Xe0Y6xy- -t_yxC-WsPL3gPW2Q3sIv5IAtUvGCXV2OpXDYXT86DqV10UkYSJtHx7NWJ0lWfrHr-MJIpccBAf54sa9drJSK3K_9eoIaHYzibz1StQuTeblrXWmA5obYcM9CxtXGJWsWuKWaPyfcJohh1NJG4VrXR-WTrE83PueijLg5H9OeVKNqQMvxxkV1ypSoCZM0Y2nkfGyzYUVIpLQ0GL85Ezb-64lvHg8y62yRFnoU4DeaSGjT6cjOiTsHxLN2KejQaU6bxF0WdjGZqOQ8OJokAymoTbED4ahv2UPJUlrgdheNH9SIdFsRQrLFzbqwQ6FLXGKpxRrEhoAaQzOJNQi6zyezkI9rDhOl96dcH_BQYvRQgZja1SunV4N8v9A2Y5iVlGjJkoRdJOFem3kVZvz7zPFmqdugQOyPbfzjqs3FCcxGdAdg37Uajdg5dxUoMD1-Hlm00]--></g></svg>