<svg xmlns="http://www.w3.org/2000/svg" xmlns:xlink="http://www.w3.org/1999/xlink" contentStyleType="text/css" data-diagram-type="STATE" height="665px" preserveAspectRatio="none" style="width:491px;height:665px;background:#FFFFFF;" version="1.1" viewBox="0 0 491 665" width="491px" zoomAndPan="magnify"><defs/><g><path d="M19.5,7 L446.5,7 A12.5,12.5 0 0 1 459,19.5 L459,33.2969 L7,33.2969 L7,19.5 A12.5,12.5 0 0 1 19.5,7" fill="#F1F1F1"/><rect fill="none" height="507.2969" rx="12.5" ry="12.5" style="stroke:#181818;stroke-width:0.5;" width="452" x="7" y="7"/><line style="stroke:#181818;stroke-width:0.5;" x1="7" x2="459" y1="33.2969" y2="33.2969"/><text fill="#000000" font-family="sans-serif" font-size="14" lengthAdjust="spacing" textLength="105.957" x="180.0215" y="24.9951">crearDocente()</text><g id="crearDocente.SolicitandoDatos"><rect fill="#F1F1F1" height="50" rx="12.5" ry="12.5" style="stroke:#181818;stroke-width:0.5;" width="50" x="19" y="135.2969"/><line style="stroke:#181818;stroke-width:0.5;" x1="19" x2="69" y1="161.5938" y2="161.5938"/><text fill="#000000" font-family="sans-serif" font-size="14" lengthAdjust="spacing" textLength="4.4502" x="41.7749" y="153.292">&#160;</text></g><g id="crearDocente.CreandoDocente"><rect fill="#F1F1F1" height="50" rx="12.5" ry="12.5" style="stroke:#181818;stroke-width:0.5;" width="50" x="19" y="346.2969"/><line style="stroke:#181818;stroke-width:0.5;" x1="19" x2="69" y1="372.5938" y2="372.5938"/><text fill="#000000" font-family="sans-serif" font-size="14" lengthAdjust="spacing" textLength="4.4502" x="41.7749" y="364.292">&#160;</text></g><ellipse cx="44" cy="54.2969" fill="#222222" rx="10" ry="10" style="stroke:#222222;stroke-width:1;"/><ellipse cx="44" cy="493.2969" fill="none" rx="11" ry="11" style="stroke:#222222;stroke-width:1;"/><ellipse cx="44" cy="493.2969" fill="#222222" rx="6" ry="6" style="stroke:#222222;stroke-width:1;"/><!--link *start*crearDocente to SolicitandoDatos--><g class="link" data-entity-1=".start.crearDocente" data-entity-2="SolicitandoDatos" data-source-line="8" data-uid="lnk3" id="link_.start.crearDocente_SolicitandoDatos"><path d="M44,64.5269 C44,80.2369 44,106.6569 44,129.1669" fill="none" id="*start*crearDocente-to-SolicitandoDatos" style="stroke:#008000;stroke-width:1;"/><polygon fill="#008000" points="44,135.1669,48,126.1669,44,130.1669,40,126.1669,44,135.1669" style="stroke:#008000;stroke-width:1;"/><path d="M49,87.2969 L49,112.2969 L319,112.2969 L319,97.2969 L309,87.2969 L49,87.2969" fill="#FEFFDD" style="stroke:#181818;stroke-width:0.5;"/><path d="M309,87.2969 L309,97.2969 L319,97.2969 L309,87.2969" fill="#FEFFDD" style="stroke:#181818;stroke-width:0.5;"/><text fill="#000000" font-family="sans-serif" font-size="13" font-weight="bold" lengthAdjust="spacing" textLength="60.5313" x="55" y="104.3638">Docente</text><text fill="#000000" font-family="sans-serif" font-size="13" lengthAdjust="spacing" textLength="184.7803" x="119.6636" y="104.3638">solicita crear docente nuevo</text></g><!--link SolicitandoDatos to CreandoDocente--><g class="link" data-entity-1="SolicitandoDatos" data-entity-2="CreandoDocente" data-source-line="13" data-uid="lnk4" id="link_SolicitandoDatos_CreandoDocente"><path d="M44,185.6769 C44,225.9569 44,299.8969 44,340.0669" fill="none" id="SolicitandoDatos-to-CreandoDocente" style="stroke:#008000;stroke-width:1;"/><polygon fill="#008000" points="44,346.0669,48,337.0669,44,341.0669,40,337.0669,44,346.0669" style="stroke:#008000;stroke-width:1;"/><path d="M49,208.2969 L49,323.2969 L450,323.2969 L450,218.2969 L440,208.2969 L49,208.2969" fill="#FEFFDD" style="stroke:#181818;stroke-width:0.5;"/><path d="M440,208.2969 L440,218.2969 L450,218.2969 L440,208.2969" fill="#FEFFDD" style="stroke:#181818;stroke-width:0.5;"/><text fill="#000000" font-family="sans-serif" font-size="13" font-weight="bold" lengthAdjust="spacing" textLength="58.9063" x="55" y="225.3638">Sistema</text><text fill="#000000" font-family="sans-serif" font-size="13" lengthAdjust="spacing" textLength="317.1162" x="118.0386" y="225.3638">presenta solicitud de datos m&#237;nimos del docente</text><text fill="#000000" font-family="sans-serif" font-size="13" lengthAdjust="spacing" textLength="147.6211" x="55" y="240.4966">&#8226; Nombre (obligatorio)</text><text fill="#000000" font-family="sans-serif" font-size="13" lengthAdjust="spacing" textLength="154.6416" x="55" y="255.6294">&#8226; Apellidos (obligatorio)</text><text fill="#000000" font-family="sans-serif" font-size="13" lengthAdjust="spacing" textLength="214.0938" x="55" y="270.7622">&#8226; DNI (obligatorio - Identificador)</text><text fill="#000000" font-family="sans-serif" font-size="13" lengthAdjust="spacing" textLength="157.2188" x="55" y="285.895">&#8226; Password (obligatorio)</text><text fill="#000000" font-family="sans-serif" font-size="13" lengthAdjust="spacing" textLength="212.3545" x="55" y="301.0278">&#8226; Permite solicitar crear docente</text><text fill="#000000" font-family="sans-serif" font-size="13" lengthAdjust="spacing" textLength="236.6978" x="55" y="316.1606">&#8226; Permite solicitar cancelar creaci&#243;n</text></g><!--link CreandoDocente to *end*crearDocente--><g class="link" data-entity-1="CreandoDocente" data-entity-2=".end.crearDocente" data-source-line="24" data-uid="lnk6" id="link_CreandoDocente_.end.crearDocente"><path d="M44,396.5769 C44,422.7469 44,457.1469 44,475.9769" fill="none" id="CreandoDocente-to-*end*crearDocente" style="stroke:#008000;stroke-width:1;"/><polygon fill="#008000" points="44,481.9769,48,472.9769,44,476.9769,40,472.9769,44,481.9769" style="stroke:#008000;stroke-width:1;"/><path d="M49,419.2969 L49,459.2969 L360,459.2969 L360,429.2969 L350,419.2969 L49,419.2969" fill="#FEFFDD" style="stroke:#181818;stroke-width:0.5;"/><path d="M350,419.2969 L350,429.2969 L360,429.2969 L350,419.2969" fill="#FEFFDD" style="stroke:#181818;stroke-width:0.5;"/><text fill="#000000" font-family="sans-serif" font-size="13" font-weight="bold" lengthAdjust="spacing" textLength="60.5313" x="55" y="436.3638">Docente</text><text fill="#000000" font-family="sans-serif" font-size="13" lengthAdjust="spacing" textLength="177.8423" x="119.6636" y="436.3638">proporciona datos m&#237;nimos</text><text fill="#000000" font-family="sans-serif" font-size="13" font-weight="bold" lengthAdjust="spacing" textLength="58.9063" x="55" y="451.4966">Sistema</text><text fill="#000000" font-family="sans-serif" font-size="13" lengthAdjust="spacing" textLength="227.2271" x="118.0386" y="451.4966">crea docente y transfiere a edici&#243;n</text></g><g id="DOCENTE_ABIERTO"><rect fill="#F1F1F1" height="50" rx="12.5" ry="12.5" style="stroke:#181818;stroke-width:0.5;" width="156.7461" x="20.63" y="609.3"/><line style="stroke:#181818;stroke-width:0.5;" x1="20.63" x2="177.3761" y1="635.5969" y2="635.5969"/><text fill="#000000" font-family="sans-serif" font-size="14" lengthAdjust="spacing" textLength="136.7461" x="30.63" y="627.2951">DOCENTE_ABIERTO</text></g><g id="DOCENTES_ABIERTO"><rect fill="#F1F1F1" height="50" rx="12.5" ry="12.5" style="stroke:#181818;stroke-width:0.5;" width="165.6328" x="284.18" y="609.3"/><line style="stroke:#181818;stroke-width:0.5;" x1="284.18" x2="449.8128" y1="635.5969" y2="635.5969"/><text fill="#000000" font-family="sans-serif" font-size="14" lengthAdjust="spacing" textLength="145.6328" x="294.18" y="627.2951">DOCENTES_ABIERTO</text></g><!--link crearDocente to DOCENTE_ABIERTO--><g class="link" data-entity-1="crearDocente" data-entity-2="DOCENTE_ABIERTO" data-source-line="31" data-uid="lnk8" id="link_crearDocente_DOCENTE_ABIERTO"><path d="M110.4,514.59 C101.54,532.86 96,544.3 96,544.3 C96,544.3 96,579.3 96,579.3 C96,579.3 96.5188,588.5491 97.3088,602.8391" fill="none" id="crearDocente-to-DOCENTE_ABIERTO" style="stroke:#008000;stroke-width:1;"/><polygon fill="#008000" points="97.64,608.83,101.1371,599.6229,97.364,603.8376,93.1493,600.0645,97.64,608.83" style="stroke:#008000;stroke-width:1;"/><path d="M101,549.3 L101,574.3 L319,574.3 L319,559.3 L309,549.3 L101,549.3" fill="#FEFFDD" style="stroke:#181818;stroke-width:0.5;"/><path d="M309,549.3 L309,559.3 L319,559.3 L309,549.3" fill="#FEFFDD" style="stroke:#181818;stroke-width:0.5;"/><text fill="#000000" font-family="sans-serif" font-size="13" lengthAdjust="spacing" textLength="197.1519" x="107" y="566.3669">editarDocente(docenteNuevo)</text></g><!--link crearDocente to DOCENTES_ABIERTO--><g class="link" data-entity-1="crearDocente" data-entity-2="DOCENTES_ABIERTO" data-source-line="36" data-uid="lnk10" id="link_crearDocente_DOCENTES_ABIERTO"><path d="M324.23,514.69 C338.14,553.24 348.3938,581.6961 356.1938,603.3161" fill="none" id="crearDocente-to-DOCENTES_ABIERTO" style="stroke:#0000FF;stroke-width:1;"/><polygon fill="#0000FF" points="358.23,608.96,358.9383,599.1366,356.5332,604.2567,351.4131,601.8516,358.23,608.96" style="stroke:#0000FF;stroke-width:1;"/><path d="M349,549.3 L349,574.3 L484,574.3 L484,559.3 L474,549.3 L349,549.3" fill="#FEFFDD" style="stroke:#181818;stroke-width:0.5;"/><path d="M474,549.3 L474,559.3 L484,559.3 L474,549.3" fill="#FEFFDD" style="stroke:#181818;stroke-width:0.5;"/><text fill="#000000" font-family="sans-serif" font-size="13" lengthAdjust="spacing" textLength="114.9624" x="355" y="566.3669">cancelar creaci&#243;n</text></g><!--SRC=[ZPDDRi8m48NtFiM8Rg0IwWKG4YKis0HKs25KEV60B1mxiaChL5NgMRhlgaVW9Zr99xya95Hrf2ZsF7z-UPcuWzGnjpm29JKcfnWXDkgKJXXp2KyGGelSUYP4JHFke5TVw0zwyCOOqCZLFRf8j39AXZBXMXYF9yQr5LEYfDMSaoCszriORkxs5b5lX-CM1JALDaGnEdLyo1P6mRZ0Z1w2CRXYL-uSH65T7_75P7hK8eVGODMjTLZToPNRMpPMqYKOySn6RD6Hc9T-ZW84WiZGqVbBouWU1AhIOCRu-VW4tqI1HUYRGCazoQqqWweuYL4fAMXhTztpvuqA364k22ztCkJ2s8jooPrxDLRS02tHHfBUi4pJDkFyIyTrYAhO4ChpjswaVacy6MeZR-g4Vtths9hOs50QpQ-YxVeagQ6g7qwGMAxTJYA5pG65xF3wpbYZ_-iUlSLqvgzdpvF7-UnflM0DhuHBBdz9SQQVjk20LVGMEr17hA5NtUoEW4laBm00]--></g></svg>