<svg xmlns="http://www.w3.org/2000/svg" xmlns:xlink="http://www.w3.org/1999/xlink" contentStyleType="text/css" data-diagram-type="STATE" height="826px" preserveAspectRatio="none" style="width:472px;height:826px;background:#FFFFFF;" version="1.1" viewBox="0 0 472 826" width="472px" zoomAndPan="magnify"><defs/><g><g id="DOCENTES_ABIERTO"><rect fill="#F1F1F1" height="50" rx="12.5" ry="12.5" style="stroke:#181818;stroke-width:0.5;" width="165.6328" x="150.18" y="7"/><line style="stroke:#181818;stroke-width:0.5;" x1="150.18" x2="315.8128" y1="33.2969" y2="33.2969"/><text fill="#000000" font-family="sans-serif" font-size="14" lengthAdjust="spacing" textLength="145.6328" x="160.18" y="24.9951">DOCENTES_ABIERTO</text></g><path d="M19.5,152 L446.5,152 A12.5,12.5 0 0 1 459,164.5 L459,178.2969 L7,178.2969 L7,164.5 A12.5,12.5 0 0 1 19.5,152" fill="#F1F1F1"/><rect fill="none" height="523.2969" rx="12.5" ry="12.5" style="stroke:#181818;stroke-width:0.5;" width="452" x="7" y="152"/><line style="stroke:#181818;stroke-width:0.5;" x1="7" x2="459" y1="178.2969" y2="178.2969"/><text fill="#000000" font-family="sans-serif" font-size="14" lengthAdjust="spacing" textLength="105.957" x="180.0215" y="169.9951">crearDocente()</text><g id="crearDocente.SolicitandoDatos"><rect fill="#F1F1F1" height="50" rx="12.5" ry="12.5" style="stroke:#181818;stroke-width:0.5;" width="50" x="19" y="280.2969"/><line style="stroke:#181818;stroke-width:0.5;" x1="19" x2="69" y1="306.5938" y2="306.5938"/><text fill="#000000" font-family="sans-serif" font-size="14" lengthAdjust="spacing" textLength="4.4502" x="41.7749" y="298.292">&#160;</text></g><g id="crearDocente.CreandoDocente"><rect fill="#F1F1F1" height="50" rx="12.5" ry="12.5" style="stroke:#181818;stroke-width:0.5;" width="50" x="19" y="507.2969"/><line style="stroke:#181818;stroke-width:0.5;" x1="19" x2="69" y1="533.5938" y2="533.5938"/><text fill="#000000" font-family="sans-serif" font-size="14" lengthAdjust="spacing" textLength="4.4502" x="41.7749" y="525.292">&#160;</text></g><ellipse cx="44" cy="199.2969" fill="#222222" rx="10" ry="10" style="stroke:#222222;stroke-width:1;"/><ellipse cx="44" cy="654.2969" fill="none" rx="11" ry="11" style="stroke:#222222;stroke-width:1;"/><ellipse cx="44" cy="654.2969" fill="#222222" rx="6" ry="6" style="stroke:#222222;stroke-width:1;"/><!--link *start*crearDocente to SolicitandoDatos--><g class="link" data-entity-1=".start.crearDocente" data-entity-2="SolicitandoDatos" data-source-line="18" data-uid="lnk4" id="link_.start.crearDocente_SolicitandoDatos"><path d="M44,209.5269 C44,225.2369 44,251.6569 44,274.1669" fill="none" id="*start*crearDocente-to-SolicitandoDatos" style="stroke:#008000;stroke-width:1;"/><polygon fill="#008000" points="44,280.1669,48,271.1669,44,275.1669,40,271.1669,44,280.1669" style="stroke:#008000;stroke-width:1;"/><path d="M49,232.2969 L49,257.2969 L363,257.2969 L363,242.2969 L353,232.2969 L49,232.2969" fill="#FEFFDD" style="stroke:#181818;stroke-width:0.5;"/><path d="M353,232.2969 L353,242.2969 L363,242.2969 L353,232.2969" fill="#FEFFDD" style="stroke:#181818;stroke-width:0.5;"/><text fill="#000000" font-family="sans-serif" font-size="13" font-weight="bold" lengthAdjust="spacing" textLength="104.8633" x="55" y="249.3638">Administrador</text><text fill="#000000" font-family="sans-serif" font-size="13" lengthAdjust="spacing" textLength="184.7803" x="163.9956" y="249.3638">solicita crear docente nuevo</text></g><!--link SolicitandoDatos to CreandoDocente--><g class="link" data-entity-1="SolicitandoDatos" data-entity-2="CreandoDocente" data-source-line="23" data-uid="lnk5" id="link_SolicitandoDatos_CreandoDocente"><path d="M44,330.3769 C44,373.5669 44,457.7369 44,501.0469" fill="none" id="SolicitandoDatos-to-CreandoDocente" style="stroke:#008000;stroke-width:1;"/><polygon fill="#008000" points="44,507.0469,48,498.0469,44,502.0469,40,498.0469,44,507.0469" style="stroke:#008000;stroke-width:1;"/><path d="M49,353.2969 L49,484.2969 L450,484.2969 L450,363.2969 L440,353.2969 L49,353.2969" fill="#FEFFDD" style="stroke:#181818;stroke-width:0.5;"/><path d="M440,353.2969 L440,363.2969 L450,363.2969 L440,353.2969" fill="#FEFFDD" style="stroke:#181818;stroke-width:0.5;"/><text fill="#000000" font-family="sans-serif" font-size="13" font-weight="bold" lengthAdjust="spacing" textLength="58.9063" x="55" y="370.3638">Sistema</text><text fill="#000000" font-family="sans-serif" font-size="13" lengthAdjust="spacing" textLength="317.1162" x="118.0386" y="370.3638">presenta solicitud de datos m&#237;nimos del docente</text><text fill="#000000" font-family="sans-serif" font-size="13" lengthAdjust="spacing" textLength="147.6211" x="55" y="385.4966">&#8226; Nombre (obligatorio)</text><text fill="#000000" font-family="sans-serif" font-size="13" lengthAdjust="spacing" textLength="154.6416" x="55" y="400.6294">&#8226; Apellidos (obligatorio)</text><text fill="#000000" font-family="sans-serif" font-size="13" lengthAdjust="spacing" textLength="214.0938" x="55" y="415.7622">&#8226; DNI (obligatorio - Identificador)</text><text fill="#000000" font-family="sans-serif" font-size="13" lengthAdjust="spacing" textLength="131.752" x="55" y="430.895">&#8226; Email (obligatorio)</text><text fill="#000000" font-family="sans-serif" font-size="13" lengthAdjust="spacing" textLength="157.2188" x="55" y="446.0278">&#8226; Password (obligatorio)</text><text fill="#000000" font-family="sans-serif" font-size="13" lengthAdjust="spacing" textLength="212.3545" x="55" y="461.1606">&#8226; Permite solicitar crear docente</text><text fill="#000000" font-family="sans-serif" font-size="13" lengthAdjust="spacing" textLength="236.6978" x="55" y="476.2935">&#8226; Permite solicitar cancelar creaci&#243;n</text></g><!--link CreandoDocente to *end*crearDocente--><g class="link" data-entity-1="CreandoDocente" data-entity-2=".end.crearDocente" data-source-line="35" data-uid="lnk7" id="link_CreandoDocente_.end.crearDocente"><path d="M44,557.5769 C44,583.7469 44,618.1469 44,636.9769" fill="none" id="CreandoDocente-to-*end*crearDocente" style="stroke:#008000;stroke-width:1;"/><polygon fill="#008000" points="44,642.9769,48,633.9769,44,637.9769,40,633.9769,44,642.9769" style="stroke:#008000;stroke-width:1;"/><path d="M49,580.2969 L49,620.2969 L360,620.2969 L360,590.2969 L350,580.2969 L49,580.2969" fill="#FEFFDD" style="stroke:#181818;stroke-width:0.5;"/><path d="M350,580.2969 L350,590.2969 L360,590.2969 L350,580.2969" fill="#FEFFDD" style="stroke:#181818;stroke-width:0.5;"/><text fill="#000000" font-family="sans-serif" font-size="13" font-weight="bold" lengthAdjust="spacing" textLength="104.8633" x="55" y="597.3638">Administrador</text><text fill="#000000" font-family="sans-serif" font-size="13" lengthAdjust="spacing" textLength="177.8423" x="163.9956" y="597.3638">proporciona datos m&#237;nimos</text><text fill="#000000" font-family="sans-serif" font-size="13" font-weight="bold" lengthAdjust="spacing" textLength="58.9063" x="55" y="612.4966">Sistema</text><text fill="#000000" font-family="sans-serif" font-size="13" lengthAdjust="spacing" textLength="227.2271" x="118.0386" y="612.4966">crea docente y transfiere a edici&#243;n</text></g><g id="DOCENTE_ABIERTO"><rect fill="#F1F1F1" height="50" rx="12.5" ry="12.5" style="stroke:#181818;stroke-width:0.5;" width="156.7461" x="154.63" y="770.3"/><line style="stroke:#181818;stroke-width:0.5;" x1="154.63" x2="311.3761" y1="796.5969" y2="796.5969"/><text fill="#000000" font-family="sans-serif" font-size="14" lengthAdjust="spacing" textLength="136.7461" x="164.63" y="788.2951">DOCENTE_ABIERTO</text></g><!--link DOCENTES_ABIERTO to crearDocente--><g class="link" data-entity-1="DOCENTES_ABIERTO" data-entity-2="crearDocente" data-source-line="7" data-uid="lnk2" id="link_DOCENTES_ABIERTO_crearDocente"><path d="M193.57,57.48 C170.55,71.76 146,87 146,87 C146,87 146,122 146,122 C146,122 147.6997,127.6819 153.1797,145.9919" fill="none" id="DOCENTES_ABIERTO-to-crearDocente" style="stroke:#008000;stroke-width:1;"/><polygon fill="#008000" points="154.9,151.74,156.1515,141.971,153.4664,146.9499,148.4874,144.2648,154.9,151.74" style="stroke:#008000;stroke-width:1;"/><path d="M151,92 L151,117 L270,117 L270,102 L260,92 L151,92" fill="#FEFFDD" style="stroke:#181818;stroke-width:0.5;"/><path d="M260,92 L260,102 L270,102 L260,92" fill="#FEFFDD" style="stroke:#181818;stroke-width:0.5;"/><text fill="#000000" font-family="sans-serif" font-size="13" lengthAdjust="spacing" textLength="98.3887" x="157" y="109.0669">crearDocente()</text></g><!--link crearDocente to DOCENTES_ABIERTO--><g class="link" data-entity-1="crearDocente" data-entity-2="DOCENTES_ABIERTO" data-source-line="51" data-uid="lnk10" id="link_crearDocente_DOCENTES_ABIERTO"><path d="M274.29,151.74 C277.19,133.43 279,122 279,122 C279,122 279,87 279,87 C279,87 269.9118,76.3266 257.7418,62.0466" fill="none" id="crearDocente-to-DOCENTES_ABIERTO" style="stroke:#0000FF;stroke-width:1;"/><polygon fill="#0000FF" points="253.85,57.48,256.6434,66.9244,257.0932,61.2855,262.7321,61.7353,253.85,57.48" style="stroke:#0000FF;stroke-width:1;"/><path d="M284,92 L284,117 L419,117 L419,102 L409,92 L284,92" fill="#FEFFDD" style="stroke:#181818;stroke-width:0.5;"/><path d="M409,92 L409,102 L419,102 L409,92" fill="#FEFFDD" style="stroke:#181818;stroke-width:0.5;"/><text fill="#000000" font-family="sans-serif" font-size="13" lengthAdjust="spacing" textLength="114.9624" x="290" y="109.0669">cancelar creaci&#243;n</text></g><!--link crearDocente to DOCENTE_ABIERTO--><g class="link" data-entity-1="crearDocente" data-entity-2="DOCENTE_ABIERTO" data-source-line="45" data-uid="lnk9" id="link_crearDocente_DOCENTE_ABIERTO"><path d="M233,675.74 C233,714.41 233,742.47 233,764.04" fill="none" id="crearDocente-to-DOCENTE_ABIERTO" style="stroke:#008000;stroke-width:1;"/><polygon fill="#008000" points="233,770.04,237,761.04,233,765.04,229,761.04,233,770.04" style="stroke:#008000;stroke-width:1;"/><path d="M238,710.3 L238,735.3 L456,735.3 L456,720.3 L446,710.3 L238,710.3" fill="#FEFFDD" style="stroke:#181818;stroke-width:0.5;"/><path d="M446,710.3 L446,720.3 L456,720.3 L446,710.3" fill="#FEFFDD" style="stroke:#181818;stroke-width:0.5;"/><text fill="#000000" font-family="sans-serif" font-size="13" lengthAdjust="spacing" textLength="197.1519" x="244" y="727.3669">editarDocente(docenteNuevo)</text></g><!--SRC=[bPJBYjim58RtVeh3TD6aa0ozhCeGS6qN34Con6atmr0KwqpGZ2mPMKadb4BVOTwW-wxw27cJFacFV4cYN0fD8DWvltvzEXTLZqALpB02f51eroL2gUNQlGJ1ItWzX2IRXV44RgR9vtG2lKWhYqzM0qVGHYnGzOFACeiGJw9aF4koB-67D9dE9cxzco7Cfk4uIwDqypo6E06IJCCu30xLCBXziJ28wcumWjmWCx7EaVOAb2PphHpWOx0VwVK3L1nStEtrbbYl8GgpYTldK-PWsGC3XGl32DSoAHbd7Uw-4x0ABdph2_WM142VHdr1Nn9bMefSMAQuZfdLrR4Y8XSNRU5hmUshE-zuXovGgxnpkZ-kvgEG5qA9oXh6jRcwd8-WQjSs_C3R0wWbhdIzgak9UmwsFqTRxlCSC9-3oGW42rPZb0Oh4hEEPybTG_3QkjZyKgAW1uwo0wmz_lpu2MDTp0r2Jy-bM93S2DtV1iCIfHISbfwEn-FKYy00KaxsubxaBaCxPL8m8S-utB2g-geDFnT6KmWwVPTfuwVwNpgcSfJjWbniVYkl8hjg-0dtQa6zyX_TK1fTQfCBhTX1yayLpM5jEsODvAEgUu5K3WR8nGdYxswmtWqX2w_JECneiBm9Sz6FSlcW8NaIjBj-3pDdsbY1K0NPCkeI1adhVndNWuZU97iPQ6-6xJNYPOByx6vAsxECNVFxbq535KgBHZ4hLaGMDTLfqDQmMg9qP9ACQOAvFYAQooNk0MMdYKuKlGFv2m00]--></g></svg>