<svg xmlns="http://www.w3.org/2000/svg" xmlns:xlink="http://www.w3.org/1999/xlink" contentStyleType="text/css" data-diagram-type="STATE" height="856px" preserveAspectRatio="none" style="width:481px;height:856px;background:#FFFFFF;" version="1.1" viewBox="0 0 481 856" width="481px" zoomAndPan="magnify"><defs/><g><g id="DOCENTES_ABIERTO"><rect fill="#F1F1F1" height="50" rx="12.5" ry="12.5" style="stroke:#181818;stroke-width:0.5;" width="165.6328" x="154.5" y="7"/><line style="stroke:#181818;stroke-width:0.5;" x1="154.5" x2="320.1328" y1="33.2969" y2="33.2969"/><text fill="#000000" font-family="sans-serif" font-size="14" lengthAdjust="spacing" textLength="145.6328" x="164.5" y="24.9951">DOCENTES_ABIERTO</text></g><path d="M19.5,152 L455.5,152 A12.5,12.5 0 0 1 468,164.5 L468,178.2969 L7,178.2969 L7,164.5 A12.5,12.5 0 0 1 19.5,152" fill="#F1F1F1"/><rect fill="none" height="553.2969" rx="12.5" ry="12.5" style="stroke:#181818;stroke-width:0.5;" width="461" x="7" y="152"/><line style="stroke:#181818;stroke-width:0.5;" x1="7" x2="468" y1="178.2969" y2="178.2969"/><text fill="#000000" font-family="sans-serif" font-size="14" lengthAdjust="spacing" textLength="105.957" x="184.5215" y="169.9951">crearDocente()</text><g id="crearDocente.SolicitandoDatos"><rect fill="#F1F1F1" height="50" rx="12.5" ry="12.5" style="stroke:#181818;stroke-width:0.5;" width="50" x="19" y="280.2969"/><line style="stroke:#181818;stroke-width:0.5;" x1="19" x2="69" y1="306.5938" y2="306.5938"/><text fill="#000000" font-family="sans-serif" font-size="14" lengthAdjust="spacing" textLength="4.4502" x="41.7749" y="298.292">&#160;</text></g><g id="crearDocente.CreandoDocente"><rect fill="#F1F1F1" height="50" rx="12.5" ry="12.5" style="stroke:#181818;stroke-width:0.5;" width="50" x="19" y="537.2969"/><line style="stroke:#181818;stroke-width:0.5;" x1="19" x2="69" y1="563.5938" y2="563.5938"/><text fill="#000000" font-family="sans-serif" font-size="14" lengthAdjust="spacing" textLength="4.4502" x="41.7749" y="555.292">&#160;</text></g><ellipse cx="44" cy="199.2969" fill="#222222" rx="10" ry="10" style="stroke:#222222;stroke-width:1;"/><ellipse cx="44" cy="684.2969" fill="none" rx="11" ry="11" style="stroke:#222222;stroke-width:1;"/><ellipse cx="44" cy="684.2969" fill="#222222" rx="6" ry="6" style="stroke:#222222;stroke-width:1;"/><!--link *start*crearDocente to SolicitandoDatos--><g class="link" data-entity-1=".start.crearDocente" data-entity-2="SolicitandoDatos" data-source-line="12" data-uid="lnk4" id="link_.start.crearDocente_SolicitandoDatos"><path d="M44,209.5269 C44,225.2369 44,251.6569 44,274.1669" fill="none" id="*start*crearDocente-to-SolicitandoDatos" style="stroke:#008000;stroke-width:1;"/><polygon fill="#008000" points="44,280.1669,48,271.1669,44,275.1669,40,271.1669,44,280.1669" style="stroke:#008000;stroke-width:1;"/><path d="M49,232.2969 L49,257.2969 L459,257.2969 L459,242.2969 L449,232.2969 L49,232.2969" fill="#FEFFDD" style="stroke:#181818;stroke-width:0.5;"/><path d="M449,232.2969 L449,242.2969 L459,242.2969 L449,232.2969" fill="#FEFFDD" style="stroke:#181818;stroke-width:0.5;"/><text fill="#000000" font-family="sans-serif" font-size="13" font-weight="bold" lengthAdjust="spacing" textLength="200.5542" x="55" y="249.3638">Administrador institucional</text><text fill="#000000" font-family="sans-serif" font-size="13" lengthAdjust="spacing" textLength="184.7803" x="259.6865" y="249.3638">solicita crear docente nuevo</text></g><!--link SolicitandoDatos to CreandoDocente--><g class="link" data-entity-1="SolicitandoDatos" data-entity-2="CreandoDocente" data-source-line="17" data-uid="lnk5" id="link_SolicitandoDatos_CreandoDocente"><path d="M44,330.7469 C44,379.6169 44,482.7969 44,531.2969" fill="none" id="SolicitandoDatos-to-CreandoDocente" style="stroke:#008000;stroke-width:1;"/><polygon fill="#008000" points="44,537.2969,48,528.2969,44,532.2969,40,528.2969,44,537.2969" style="stroke:#008000;stroke-width:1;"/><path d="M49,353.2969 L49,514.2969 L450,514.2969 L450,363.2969 L440,353.2969 L49,353.2969" fill="#FEFFDD" style="stroke:#181818;stroke-width:0.5;"/><path d="M440,353.2969 L440,363.2969 L450,363.2969 L440,353.2969" fill="#FEFFDD" style="stroke:#181818;stroke-width:0.5;"/><text fill="#000000" font-family="sans-serif" font-size="13" font-weight="bold" lengthAdjust="spacing" textLength="58.9063" x="55" y="370.3638">Sistema</text><text fill="#000000" font-family="sans-serif" font-size="13" lengthAdjust="spacing" textLength="317.1162" x="118.0386" y="370.3638">presenta solicitud de datos m&#237;nimos del docente</text><text fill="#000000" font-family="sans-serif" font-size="13" lengthAdjust="spacing" textLength="147.6211" x="55" y="385.4966">&#8226; Nombre (obligatorio)</text><text fill="#000000" font-family="sans-serif" font-size="13" lengthAdjust="spacing" textLength="154.6416" x="55" y="400.6294">&#8226; Apellidos (obligatorio)</text><text fill="#000000" font-family="sans-serif" font-size="13" lengthAdjust="spacing" textLength="119.2534" x="55" y="415.7622">&#8226; DNI (obligatorio)</text><text fill="#000000" font-family="sans-serif" font-size="13" lengthAdjust="spacing" textLength="220.2637" x="55" y="430.895">&#8226; Nombre de usuario (obligatorio)</text><text fill="#000000" font-family="sans-serif" font-size="13" lengthAdjust="spacing" textLength="131.752" x="55" y="446.0278">&#8226; Email (obligatorio)</text><text fill="#000000" font-family="sans-serif" font-size="13" lengthAdjust="spacing" textLength="157.2188" x="55" y="461.1606">&#8226; Password (obligatorio)</text><text fill="#000000" font-family="sans-serif" font-size="13" lengthAdjust="spacing" textLength="4.1323" x="55" y="476.2935">&#160;</text><text fill="#000000" font-family="sans-serif" font-size="13" lengthAdjust="spacing" textLength="212.3545" x="55" y="491.4263">&#8226; Permite solicitar crear docente</text><text fill="#000000" font-family="sans-serif" font-size="13" lengthAdjust="spacing" textLength="236.6978" x="55" y="506.5591">&#8226; Permite solicitar cancelar creaci&#243;n</text></g><!--link CreandoDocente to *end*crearDocente--><g class="link" data-entity-1="CreandoDocente" data-entity-2=".end.crearDocente" data-source-line="31" data-uid="lnk7" id="link_CreandoDocente_.end.crearDocente"><path d="M44,587.5769 C44,613.8769 44,648.5669 44,667.2769" fill="none" id="CreandoDocente-to-*end*crearDocente" style="stroke:#008000;stroke-width:1;"/><polygon fill="#008000" points="44,673.2769,48,664.2769,44,668.2769,40,664.2769,44,673.2769" style="stroke:#008000;stroke-width:1;"/><path d="M49,610.2969 L49,650.2969 L452,650.2969 L452,620.2969 L442,610.2969 L49,610.2969" fill="#FEFFDD" style="stroke:#181818;stroke-width:0.5;"/><path d="M442,610.2969 L442,620.2969 L452,620.2969 L442,610.2969" fill="#FEFFDD" style="stroke:#181818;stroke-width:0.5;"/><text fill="#000000" font-family="sans-serif" font-size="13" font-weight="bold" lengthAdjust="spacing" textLength="200.5542" x="55" y="627.3638">Administrador institucional</text><text fill="#000000" font-family="sans-serif" font-size="13" lengthAdjust="spacing" textLength="177.8423" x="259.6865" y="627.3638">proporciona datos m&#237;nimos</text><text fill="#000000" font-family="sans-serif" font-size="13" font-weight="bold" lengthAdjust="spacing" textLength="58.9063" x="55" y="642.4966">Sistema</text><text fill="#000000" font-family="sans-serif" font-size="13" lengthAdjust="spacing" textLength="227.2271" x="118.0386" y="642.4966">crea docente y transfiere a edici&#243;n</text></g><g id="DOCENTE_ABIERTO"><rect fill="#F1F1F1" height="50" rx="12.5" ry="12.5" style="stroke:#181818;stroke-width:0.5;" width="156.7461" x="159" y="800"/><line style="stroke:#181818;stroke-width:0.5;" x1="159" x2="315.7461" y1="826.2969" y2="826.2969"/><text fill="#000000" font-family="sans-serif" font-size="14" lengthAdjust="spacing" textLength="136.7461" x="169" y="817.9951">DOCENTE_ABIERTO</text></g><!--link DOCENTES_ABIERTO to crearDocente--><g class="link" data-entity-1="DOCENTES_ABIERTO" data-entity-2="crearDocente" data-source-line="5" data-uid="lnk2" id="link_DOCENTES_ABIERTO_crearDocente"><path d="M234.37,57.16 C232.5,71.53 230.5,87 230.5,87 C230.5,87 230.5,122 230.5,122 C230.5,122 230.6233,127.4216 231.0433,145.8516" fill="none" id="DOCENTES_ABIERTO-to-crearDocente" style="stroke:#008000;stroke-width:1;"/><polygon fill="#008000" points="231.18,151.85,234.9739,142.7612,231.0661,146.8513,226.976,142.9435,231.18,151.85" style="stroke:#008000;stroke-width:1;"/></g><!--link crearDocente to DOCENTES_ABIERTO--><g class="link" data-entity-1="crearDocente" data-entity-2="DOCENTES_ABIERTO" data-source-line="43" data-uid="lnk10" id="link_crearDocente_DOCENTES_ABIERTO"><path d="M237.5,151.55 C237.5,112.62 237.5,84.58 237.5,63.08" fill="none" id="crearDocente-to-DOCENTES_ABIERTO" style="stroke:#0000FF;stroke-width:1;"/><polygon fill="#0000FF" points="237.5,57.08,233.5,66.08,237.5,62.08,241.5,66.08,237.5,57.08" style="stroke:#0000FF;stroke-width:1;"/><path d="M242.5,92 L242.5,117 L377.5,117 L377.5,102 L367.5,92 L242.5,92" fill="#FEFFDD" style="stroke:#181818;stroke-width:0.5;"/><path d="M367.5,92 L367.5,102 L377.5,102 L367.5,92" fill="#FEFFDD" style="stroke:#181818;stroke-width:0.5;"/><text fill="#000000" font-family="sans-serif" font-size="13" lengthAdjust="spacing" textLength="114.9624" x="248.5" y="109.0669">cancelar creaci&#243;n</text></g><!--link crearDocente to DOCENTE_ABIERTO--><g class="link" data-entity-1="crearDocente" data-entity-2="DOCENTE_ABIERTO" data-source-line="38" data-uid="lnk9" id="link_crearDocente_DOCENTE_ABIERTO"><path d="M237.5,705.1 C237.5,744.1 237.5,772.22 237.5,793.78" fill="none" id="crearDocente-to-DOCENTE_ABIERTO" style="stroke:#008000;stroke-width:1;"/><polygon fill="#008000" points="237.5,799.78,241.5,790.78,237.5,794.78,233.5,790.78,237.5,799.78" style="stroke:#008000;stroke-width:1;"/><path d="M242.5,740 L242.5,765 L460.5,765 L460.5,750 L450.5,740 L242.5,740" fill="#FEFFDD" style="stroke:#181818;stroke-width:0.5;"/><path d="M450.5,740 L450.5,750 L460.5,750 L450.5,740" fill="#FEFFDD" style="stroke:#181818;stroke-width:0.5;"/><text fill="#000000" font-family="sans-serif" font-size="13" lengthAdjust="spacing" textLength="197.1519" x="248.5" y="757.0669">editarDocente(docenteNuevo)</text></g><!--SRC=[dPD1JiCm44NtFiMeR5gaYWjKbKhR1PiMqUugX9nuG2CSEx8TK8MGE0jxLXoXD-4aJD8aJTgK1OuK9JFVpzyUZtycaqed4z1aC6nJXDJgRVuZX0yo8CoMq_bYFLyzJAvlvdVhfH374HXkBfuSehaVZY5sADtCncX2ZMZ6G7heDGFzGG_UX00UUtMF7nQjhAQOWZJApcIm_bGnPKgUhHRB1PlB-vQTOmeKAcEPOas-wUSYC8h64vMG8H-SLDO16HyeP35P8_NeAXg3BqdxtO0gjsCoVB450utQWtc8-dLYeEdkQ0VdhAtO5YQoi94wz2oMbPzCWK9G1JhPVHbA-4EXhWmMZ9-FJrZO9788VHjfUcAv8pkeavCKjIR5KxlpiyNDcKo9PG-PpoIdpkZcYIHz9dShlN-rJdMa3nfq2V7HL6LmxJhyfPCcHbrEY6dtRLhbEYpJhaQhK7oj_drnKcTJwuh0KPswwfkRh2_N5fXg_2CX7x44LDJX_rs8LeCrVPUjMlTkop_Zmg4DopKN-NqUY9f-mevqXWtqgflTSUWLyXS0]--></g></svg>