<svg xmlns="http://www.w3.org/2000/svg" xmlns:xlink="http://www.w3.org/1999/xlink" contentStyleType="text/css" data-diagram-type="STATE" height="889px" preserveAspectRatio="none" style="width:974px;height:889px;background:#FFFFFF;" version="1.1" viewBox="0 0 974 889" width="974px" zoomAndPan="magnify"><defs/><g><g id="EXAMENES_CORREGIDOS2"><rect fill="#F1F1F1" height="50" rx="12.5" ry="12.5" style="stroke:#181818;stroke-width:0.5;" width="198.9033" x="151" y="833"/><line style="stroke:#181818;stroke-width:0.5;" x1="151" x2="349.9033" y1="859.2969" y2="859.2969"/><text fill="#000000" font-family="sans-serif" font-size="14" lengthAdjust="spacing" textLength="178.9033" x="161" y="850.9951">EXAMENES_CORREGIDOS</text></g><g id="EXAMENES_GENERADOS_CONTEXTUALES2"><rect fill="#F1F1F1" height="50" rx="12.5" ry="12.5" style="stroke:#181818;stroke-width:0.5;" width="312.3115" x="385.5" y="833"/><line style="stroke:#181818;stroke-width:0.5;" x1="385.5" x2="697.8115" y1="859.2969" y2="859.2969"/><text fill="#000000" font-family="sans-serif" font-size="14" lengthAdjust="spacing" textLength="292.3115" x="395.5" y="850.9951">EXAMENES_GENERADOS_CONTEXTUALES</text></g><g id="EXAMENES_GENERADOS2"><rect fill="#F1F1F1" height="50" rx="12.5" ry="12.5" style="stroke:#181818;stroke-width:0.5;" width="193.1475" x="733" y="833"/><line style="stroke:#181818;stroke-width:0.5;" x1="733" x2="926.1475" y1="859.2969" y2="859.2969"/><text fill="#000000" font-family="sans-serif" font-size="14" lengthAdjust="spacing" textLength="173.1475" x="743" y="850.9951">EXAMENES_GENERADOS</text></g><g id="EXAMENES_CORREGIDOS"><rect fill="#F1F1F1" height="50" rx="12.5" ry="12.5" style="stroke:#181818;stroke-width:0.5;" width="198.9033" x="7" y="7"/><line style="stroke:#181818;stroke-width:0.5;" x1="7" x2="205.9033" y1="33.2969" y2="33.2969"/><text fill="#000000" font-family="sans-serif" font-size="14" lengthAdjust="spacing" textLength="178.9033" x="17" y="24.9951">EXAMENES_CORREGIDOS</text></g><g id="EXAMENES_GENERADOS_CONTEXTUALES"><rect fill="#F1F1F1" height="50" rx="12.5" ry="12.5" style="stroke:#181818;stroke-width:0.5;" width="312.3115" x="241.5" y="7"/><line style="stroke:#181818;stroke-width:0.5;" x1="241.5" x2="553.8115" y1="33.2969" y2="33.2969"/><text fill="#000000" font-family="sans-serif" font-size="14" lengthAdjust="spacing" textLength="292.3115" x="251.5" y="24.9951">EXAMENES_GENERADOS_CONTEXTUALES</text></g><g id="EXAMENES_GENERADOS"><rect fill="#F1F1F1" height="50" rx="12.5" ry="12.5" style="stroke:#181818;stroke-width:0.5;" width="193.1475" x="589" y="7"/><line style="stroke:#181818;stroke-width:0.5;" x1="589" x2="782.1475" y1="33.2969" y2="33.2969"/><text fill="#000000" font-family="sans-serif" font-size="14" lengthAdjust="spacing" textLength="173.1475" x="599" y="24.9951">EXAMENES_GENERADOS</text></g><path d="M325.5,117 L757.5,117 A12.5,12.5 0 0 1 770,129.5 L770,143.2969 L313,143.2969 L313,129.5 A12.5,12.5 0 0 1 325.5,117" fill="#F1F1F1"/><rect fill="none" height="656.2969" rx="12.5" ry="12.5" style="stroke:#181818;stroke-width:0.5;" width="457" x="313" y="117"/><line style="stroke:#181818;stroke-width:0.5;" x1="313" x2="770" y1="143.2969" y2="143.2969"/><text fill="#000000" font-family="sans-serif" font-size="14" lengthAdjust="spacing" textLength="90.4121" x="496.2939" y="134.9951">verExamen()</text><g id="verExamen.MostrandoExamen"><rect fill="#F1F1F1" height="50" rx="12.5" ry="12.5" style="stroke:#181818;stroke-width:0.5;" width="50" x="325" y="245.2969"/><line style="stroke:#181818;stroke-width:0.5;" x1="325" x2="375" y1="271.5938" y2="271.5938"/><text fill="#000000" font-family="sans-serif" font-size="14" lengthAdjust="spacing" textLength="4.4502" x="347.7749" y="263.292">&#160;</text></g><g id="verExamen.FiltrandoExamen"><rect fill="#F1F1F1" height="50" rx="12.5" ry="12.5" style="stroke:#181818;stroke-width:0.5;" width="50" x="325" y="411.2969"/><line style="stroke:#181818;stroke-width:0.5;" x1="325" x2="375" y1="437.5938" y2="437.5938"/><text fill="#000000" font-family="sans-serif" font-size="14" lengthAdjust="spacing" textLength="4.4502" x="347.7749" y="429.292">&#160;</text></g><g id="verExamen.BuscandoExamen"><rect fill="#F1F1F1" height="50" rx="12.5" ry="12.5" style="stroke:#181818;stroke-width:0.5;" width="50" x="325" y="592.2969"/><line style="stroke:#181818;stroke-width:0.5;" x1="325" x2="375" y1="618.5938" y2="618.5938"/><text fill="#000000" font-family="sans-serif" font-size="14" lengthAdjust="spacing" textLength="4.4502" x="347.7749" y="610.292">&#160;</text></g><g id="verExamen.ExamenEncontrado"><rect fill="#F1F1F1" height="50" rx="12.5" ry="12.5" style="stroke:#181818;stroke-width:0.5;" width="50" x="325" y="713.2969"/><line style="stroke:#181818;stroke-width:0.5;" x1="325" x2="375" y1="739.5938" y2="739.5938"/><text fill="#000000" font-family="sans-serif" font-size="14" lengthAdjust="spacing" textLength="4.4502" x="347.7749" y="731.292">&#160;</text></g><ellipse cx="350" cy="164.2969" fill="#222222" rx="10" ry="10" style="stroke:#222222;stroke-width:1;"/><!--link *start*verExamen to MostrandoExamen--><g class="link" data-entity-1=".start.verExamen" data-entity-2="MostrandoExamen" data-source-line="19" data-uid="lnk3" id="link_.start.verExamen_MostrandoExamen"><path d="M350,174.5269 C350,190.2369 350,216.6569 350,239.1669" fill="none" id="*start*verExamen-to-MostrandoExamen" style="stroke:#008000;stroke-width:1;"/><polygon fill="#008000" points="350,245.1669,354,236.1669,350,240.1669,346,236.1669,350,245.1669" style="stroke:#008000;stroke-width:1;"/><path d="M355,197.2969 L355,222.2969 L568,222.2969 L568,207.2969 L558,197.2969 L355,197.2969" fill="#FEFFDD" style="stroke:#181818;stroke-width:0.5;"/><path d="M558,197.2969 L558,207.2969 L568,207.2969 L558,197.2969" fill="#FEFFDD" style="stroke:#181818;stroke-width:0.5;"/><text fill="#000000" font-family="sans-serif" font-size="13" font-weight="bold" lengthAdjust="spacing" textLength="60.5313" x="361" y="214.3638">Docente</text><text fill="#000000" font-family="sans-serif" font-size="13" lengthAdjust="spacing" textLength="127.6323" x="425.6636" y="214.3638">solicita ver examen</text></g><!--link MostrandoExamen to FiltrandoExamen--><g class="link" data-entity-1="MostrandoExamen" data-entity-2="FiltrandoExamen" data-source-line="24" data-uid="lnk4" id="link_MostrandoExamen_FiltrandoExamen"><path d="M350,295.4969 C350,326.5869 350,374.2469 350,405.2669" fill="none" id="MostrandoExamen-to-FiltrandoExamen" style="stroke:#008000;stroke-width:1;"/><polygon fill="#008000" points="350,411.2669,354,402.2669,350,406.2669,346,402.2669,350,411.2669" style="stroke:#008000;stroke-width:1;"/><path d="M355,318.2969 L355,388.2969 L556,388.2969 L556,328.2969 L546,318.2969 L355,318.2969" fill="#FEFFDD" style="stroke:#181818;stroke-width:0.5;"/><path d="M546,318.2969 L546,328.2969 L556,328.2969 L546,318.2969" fill="#FEFFDD" style="stroke:#181818;stroke-width:0.5;"/><text fill="#000000" font-family="sans-serif" font-size="13" font-weight="bold" lengthAdjust="spacing" textLength="58.9063" x="361" y="335.3638">Sistema</text><text fill="#000000" font-family="sans-serif" font-size="13" lengthAdjust="spacing" textLength="117.9395" x="424.0386" y="335.3638">permite introducir</text><text fill="#000000" font-family="sans-serif" font-size="13" lengthAdjust="spacing" textLength="82.1831" x="361" y="350.4966">&#8226; Asignatura</text><text fill="#000000" font-family="sans-serif" font-size="13" lengthAdjust="spacing" textLength="82.4434" x="361" y="365.6294">&#8226; Evaluaci&#243;n</text><text fill="#000000" font-family="sans-serif" font-size="13" lengthAdjust="spacing" textLength="124.0269" x="361" y="380.7622">&#8226; Curso acad&#233;mico</text></g><!--link FiltrandoExamen to BuscandoExamen--><g class="link" data-entity-1="FiltrandoExamen" data-entity-2="BuscandoExamen" data-source-line="32" data-uid="lnk5" id="link_FiltrandoExamen_BuscandoExamen"><path d="M350,461.4369 C350,495.6969 350,552.0469 350,586.2569" fill="none" id="FiltrandoExamen-to-BuscandoExamen" style="stroke:#008000;stroke-width:1;"/><polygon fill="#008000" points="350,592.2569,354,583.2569,350,587.2569,346,583.2569,350,592.2569" style="stroke:#008000;stroke-width:1;"/><path d="M355,484.2969 L355,569.2969 L761,569.2969 L761,494.2969 L751,484.2969 L355,484.2969" fill="#FEFFDD" style="stroke:#181818;stroke-width:0.5;"/><path d="M751,484.2969 L751,494.2969 L761,494.2969 L751,484.2969" fill="#FEFFDD" style="stroke:#181818;stroke-width:0.5;"/><text fill="#000000" font-family="sans-serif" font-size="13" font-weight="bold" lengthAdjust="spacing" textLength="60.5313" x="361" y="501.3638">Docente</text><text fill="#000000" font-family="sans-serif" font-size="13" lengthAdjust="spacing" textLength="61.8833" x="425.6636" y="501.3638">introduce</text><text fill="#000000" font-family="sans-serif" font-size="13" lengthAdjust="spacing" textLength="343.9351" x="361" y="516.4966">&#8226; Asignatura (solo si est&#225;s desde ALUMNO_ABIERTO)</text><text fill="#000000" font-family="sans-serif" font-size="13" lengthAdjust="spacing" textLength="82.4434" x="361" y="531.6294">&#8226; Evaluaci&#243;n</text><text fill="#000000" font-family="sans-serif" font-size="13" lengthAdjust="spacing" textLength="385.7788" x="361" y="546.7622">&#8226; Curso acad&#233;mico (solo si est&#225;s desde ALUMNO_ABIERTO)</text><text fill="#000000" font-family="sans-serif" font-size="13" lengthAdjust="spacing" textLength="317.186" x="361" y="561.895">&#8226; Alumno (si no est&#225;s desde ALUMNO_ABIERTO )</text></g><!--link BuscandoExamen to ExamenEncontrado--><g class="link" data-entity-1="BuscandoExamen" data-entity-2="ExamenEncontrado" data-source-line="41" data-uid="lnk6" id="link_BuscandoExamen_ExamenEncontrado"><path d="M350,642.3769 C350,663.0269 350,686.6169 350,707.2469" fill="none" id="BuscandoExamen-to-ExamenEncontrado" style="stroke:#008000;stroke-width:1;"/><polygon fill="#008000" points="350,713.2469,354,704.2469,350,708.2469,346,704.2469,350,713.2469" style="stroke:#008000;stroke-width:1;"/><path d="M355,665.2969 L355,690.2969 L553,690.2969 L553,675.2969 L543,665.2969 L355,665.2969" fill="#FEFFDD" style="stroke:#181818;stroke-width:0.5;"/><path d="M543,665.2969 L543,675.2969 L553,675.2969 L543,665.2969" fill="#FEFFDD" style="stroke:#181818;stroke-width:0.5;"/><text fill="#000000" font-family="sans-serif" font-size="13" font-weight="bold" lengthAdjust="spacing" textLength="58.9063" x="361" y="682.3638">Sistema</text><text fill="#000000" font-family="sans-serif" font-size="13" lengthAdjust="spacing" textLength="114.3594" x="424.0386" y="682.3638">presenta examen</text></g><g id="ALUMNO_ABIERTO"><rect fill="#F1F1F1" height="50" rx="12.5" ry="12.5" style="stroke:#181818;stroke-width:0.5;" width="149.6504" x="817.5" y="7"/><line style="stroke:#181818;stroke-width:0.5;" x1="817.5" x2="967.1504" y1="33.2969" y2="33.2969"/><text fill="#000000" font-family="sans-serif" font-size="14" lengthAdjust="spacing" textLength="129.6504" x="827.5" y="24.9951">ALUMNO_ABIERTO</text></g><!--link ALUMNO_ABIERTO to verExamen--><g class="link" data-entity-1="ALUMNO_ABIERTO" data-entity-2="verExamen" data-source-line="48" data-uid="lnk8" id="link_ALUMNO_ABIERTO_verExamen"><path d="M871.85,57.18 C849.81,82.99 816.2263,122.3073 774.2463,171.4673" fill="none" id="ALUMNO_ABIERTO-to-verExamen" style="stroke:#008000;stroke-width:1;"/><polygon fill="#008000" points="770.35,176.03,779.2363,171.7834,773.5969,172.2277,773.1527,166.5883,770.35,176.03" style="stroke:#008000;stroke-width:1;"/></g><!--link EXAMENES_CORREGIDOS to verExamen--><g class="link" data-entity-1="EXAMENES_CORREGIDOS" data-entity-2="verExamen" data-source-line="50" data-uid="lnk9" id="link_EXAMENES_CORREGIDOS_verExamen"><path d="M132.09,57.18 C168.78,91.85 235.6488,155.0193 308.5388,223.8893" fill="none" id="EXAMENES_CORREGIDOS-to-verExamen" style="stroke:#008000;stroke-width:1;"/><polygon fill="#008000" points="312.9,228.01,309.1053,218.9215,309.2657,224.5761,303.6111,224.7365,312.9,228.01" style="stroke:#008000;stroke-width:1;"/></g><!--link EXAMENES_GENERADOS_CONTEXTUALES to verExamen--><g class="link" data-entity-1="EXAMENES_GENERADOS_CONTEXTUALES" data-entity-2="verExamen" data-source-line="52" data-uid="lnk10" id="link_EXAMENES_GENERADOS_CONTEXTUALES_verExamen"><path d="M405.97,57.18 C411.15,71.97 416.4368,87.0473 424.9368,111.3173" fill="none" id="EXAMENES_GENERADOS_CONTEXTUALES-to-verExamen" style="stroke:#008000;stroke-width:1;"/><polygon fill="#008000" points="426.92,116.98,427.7203,107.1637,425.2673,112.261,420.17,109.808,426.92,116.98" style="stroke:#008000;stroke-width:1;"/></g><!--link EXAMENES_GENERADOS to verExamen--><g class="link" data-entity-1="EXAMENES_GENERADOS" data-entity-2="verExamen" data-source-line="54" data-uid="lnk11" id="link_EXAMENES_GENERADOS_verExamen"><path d="M677.03,57.18 C671.85,71.97 666.5632,87.0473 658.0632,111.3173" fill="none" id="EXAMENES_GENERADOS-to-verExamen" style="stroke:#008000;stroke-width:1;"/><polygon fill="#008000" points="656.08,116.98,662.83,109.808,657.7327,112.261,655.2797,107.1637,656.08,116.98" style="stroke:#008000;stroke-width:1;"/></g><!--link verExamen to EXAMENES_CORREGIDOS2--><g class="link" data-entity-1="verExamen" data-entity-2="EXAMENES_CORREGIDOS2" data-source-line="56" data-uid="lnk12" id="link_verExamen_EXAMENES_CORREGIDOS2"><path d="M312.93,768.83 C294.42,794.97 282.077,812.3931 270.997,828.0431" fill="none" id="verExamen-to-EXAMENES_CORREGIDOS2" style="stroke:#008000;stroke-width:1;"/><polygon fill="#008000" points="267.53,832.94,275.9951,827.9059,270.4191,828.8592,269.4658,823.2833,267.53,832.94" style="stroke:#008000;stroke-width:1;"/></g><!--link verExamen to EXAMENES_GENERADOS_CONTEXTUALES2--><g class="link" data-entity-1="verExamen" data-entity-2="EXAMENES_GENERADOS_CONTEXTUALES2" data-source-line="58" data-uid="lnk13" id="link_verExamen_EXAMENES_GENERADOS_CONTEXTUALES2"><path d="M541.5,773.33 C541.5,797.5 541.5,812.14 541.5,826.88" fill="none" id="verExamen-to-EXAMENES_GENERADOS_CONTEXTUALES2" style="stroke:#008000;stroke-width:1;"/><polygon fill="#008000" points="541.5,832.88,545.5,823.88,541.5,827.88,537.5,823.88,541.5,832.88" style="stroke:#008000;stroke-width:1;"/></g><!--link verExamen to EXAMENES_GENERADOS2--><g class="link" data-entity-1="verExamen" data-entity-2="EXAMENES_GENERADOS2" data-source-line="60" data-uid="lnk14" id="link_verExamen_EXAMENES_GENERADOS2"><path d="M770.18,772.34 C787.42,796.95 798.7166,813.0665 809.1866,828.0065" fill="none" id="verExamen-to-EXAMENES_GENERADOS2" style="stroke:#008000;stroke-width:1;"/><polygon fill="#008000" points="812.63,832.92,810.7406,823.2541,809.7605,828.8254,804.1892,827.8453,812.63,832.92" style="stroke:#008000;stroke-width:1;"/></g><!--SRC=[fLJTIiCm5BxFKnpgZHD4y5e6LUCGt0hTX878YErX1Dka9Aae8lWgUkUrZx0tyKbCM-nib-w7jH38oVUTyvslwT6FN6HCiHGIBj2yP0YPJ5wA3I546sOGwDGVqX4Tpow2CAI3wyjWV0fCW-SuyDgSWLr3tvvOq6X2fvDR_uQs-MvGTwukkjUjU4_1- -djbFjdyHCg-inI52MotXtsF7Wb1EnJuJpxMiHGQgEOY6K5MmLSyMGzu3pNqRhpAav598LD5CjAnDtHFHpV7SmLehW_xZjr26cpI57SfySoSFRGlvGH2eDd9mzzq3BX4JUiw1bmoKCHLrpxa7ffLMXKTpNfgZxcsc3AokePgfHR2BTjoJYFk2fHF- -Vu6i-5ypaYjKX-iIId4LyyItgs4Mkj0GMiNZnbV98DiGlXRV4DOGxpD_asfzUTCY5G-kf1Cq1jLbyQ8XHnmZ-pUrm5CpyysiQJeBUJatjcD9FybGK96uRMKU1NeTTJKiQRgrSnQs-iq9jpMEk6rPLVIEafUr_qVeN9CGrJ3P1EuR8rhGkv79ED1no3EYDs8x1l3tlz1S0]--></g></svg>