<svg xmlns="http://www.w3.org/2000/svg" xmlns:xlink="http://www.w3.org/1999/xlink" contentStyleType="text/css" data-diagram-type="SALT" height="381px" preserveAspectRatio="none" style="width:556px;height:381px;background:#FFFFFF;" version="1.1" viewBox="0 0 556 381" width="556px" zoomAndPan="magnify"><defs/><g><text fill="#000000" font-family="sans-serif" font-size="12" font-weight="bold" lengthAdjust="spacing" textLength="141.5449" x="6" y="17.1387">EDITAR ASIGNATURA</text><line style="stroke:#AAAAAA;stroke-width:1;" x1="6" x2="549.0313" y1="24.4688" y2="24.4688"/><line style="stroke:#AAAAAA;stroke-width:1;" x1="6" x2="549.0313" y1="26.4688" y2="26.4688"/><text fill="#000000" font-family="sans-serif" font-size="12" font-weight="bold" lengthAdjust="spacing" textLength="153.5332" x="7" y="42.1074">Datos de la asignatura</text><line style="stroke:#AAAAAA;stroke-width:1;" x1="7" x2="548.0313" y1="50.4375" y2="50.4375"/><text fill="#000000" font-family="sans-serif" font-size="12" lengthAdjust="spacing" textLength="45.6738" x="8" y="67.0762">C&#243;digo:</text><text fill="#000000" font-family="sans-serif" font-size="12" lengthAdjust="spacing" textLength="53.127" x="139.8145" y="67.0762">MAT-201</text><line style="stroke:#000000;stroke-width:1;" x1="137.8145" x2="364.8145" y1="69.9063" y2="69.9063"/><line style="stroke:#000000;stroke-width:1;" x1="137.8145" x2="137.8145" y1="66.9063" y2="68.9063"/><line style="stroke:#000000;stroke-width:1;" x1="364.8145" x2="364.8145" y1="66.9063" y2="68.9063"/><text fill="#000000" font-family="sans-serif" font-size="12" font-style="italic" lengthAdjust="spacing" textLength="177.2168" x="368.8145" y="67.0762">(generado autom&#225;ticamente)</text><text fill="#000000" font-family="sans-serif" font-size="12" lengthAdjust="spacing" textLength="56.8711" x="8" y="85.0449">T&#237;tulo (*):</text><text fill="#000000" font-family="sans-serif" font-size="12" lengthAdjust="spacing" textLength="87.9727" x="139.8145" y="85.0449">Matem&#225;ticas II</text><line style="stroke:#000000;stroke-width:1;" x1="137.8145" x2="364.8145" y1="87.875" y2="87.875"/><line style="stroke:#000000;stroke-width:1;" x1="137.8145" x2="137.8145" y1="84.875" y2="86.875"/><line style="stroke:#000000;stroke-width:1;" x1="364.8145" x2="364.8145" y1="84.875" y2="86.875"/><text fill="#000000" font-family="sans-serif" font-size="12" lengthAdjust="spacing" textLength="126.8145" x="8" y="103.0137">Curso acad&#233;mico (*):</text><rect fill="#EEEEEE" height="16.9688" style="stroke:#000000;stroke-width:1;" width="87" x="136.8145" y="91.875"/><text fill="#000000" font-family="sans-serif" font-size="12" lengthAdjust="spacing" textLength="65.1211" x="138.8145" y="105.0137">2024/2025</text><line style="stroke:#000000;stroke-width:1;" x1="212.8145" x2="212.8145" y1="91.875" y2="108.8438"/><polygon fill="#000000" points="215.8145,97.875,221.8145,97.875,218.8145,103.8438" style="stroke:#000000;stroke-width:1;"/><line style="stroke:#AAAAAA;stroke-width:1;" x1="7" x2="548.0313" y1="116.3438" y2="116.3438"/><text fill="#000000" font-family="sans-serif" font-size="12" font-weight="bold" lengthAdjust="spacing" textLength="123.6035" x="7" y="131.9824">Grados asociados:</text><text fill="#000000" font-family="sans-serif" font-size="12" lengthAdjust="spacing" textLength="132.5801" x="28" y="148.9512">Ingenier&#237;a Inform&#225;tica</text><rect fill="none" height="10" style="stroke:#000000;stroke-width:1.5;" width="10" x="10" y="139.7969"/><polygon fill="#000000" points="11,143.8125,14,146.8125,21,137.8125,14,144.8125" style="stroke:#000000;stroke-width:1.5;"/><text fill="#000000" font-family="sans-serif" font-size="12" lengthAdjust="spacing" textLength="120.1816" x="28" y="164.9199">Ingenier&#237;a Industrial</text><rect fill="none" height="10" style="stroke:#000000;stroke-width:1.5;" width="10" x="10" y="155.7656"/><polygon fill="#000000" points="11,159.7813,14,162.7813,21,153.7813,14,160.7813" style="stroke:#000000;stroke-width:1.5;"/><text fill="#000000" font-family="sans-serif" font-size="12" lengthAdjust="spacing" textLength="120.4805" x="28" y="180.8887">Ingenier&#237;a Mec&#225;nica</text><rect fill="none" height="10" style="stroke:#000000;stroke-width:1.5;" width="10" x="10" y="171.7344"/><text fill="#000000" font-family="sans-serif" font-size="12" lengthAdjust="spacing" textLength="74.9824" x="28" y="196.8574">Arquitectura</text><rect fill="none" height="10" style="stroke:#000000;stroke-width:1.5;" width="10" x="10" y="187.7031"/><line style="stroke:#AAAAAA;stroke-width:1;stroke-dasharray:1,2;" x1="8" x2="161.5801" y1="205.1875" y2="205.1875"/><line style="stroke:#000000;stroke-width:1;" x1="7" x2="161.5801" y1="136.8125" y2="136.8125"/><line style="stroke:#000000;stroke-width:1;" x1="7" x2="161.5801" y1="208.6875" y2="208.6875"/><line style="stroke:#000000;stroke-width:1;" x1="7" x2="7" y1="136.8125" y2="152.7813"/><line style="stroke:#000000;stroke-width:1;" x1="161.5801" x2="161.5801" y1="152.7813" y2="168.75"/><line style="stroke:#000000;stroke-width:1;" x1="161.5801" x2="161.5801" y1="136.8125" y2="152.7813"/><line style="stroke:#000000;stroke-width:1;" x1="7" x2="7" y1="200.6875" y2="208.6875"/><line style="stroke:#000000;stroke-width:1;" x1="7" x2="7" y1="184.7188" y2="200.6875"/><line style="stroke:#000000;stroke-width:1;" x1="161.5801" x2="161.5801" y1="200.6875" y2="208.6875"/><line style="stroke:#000000;stroke-width:1;" x1="7" x2="7" y1="168.75" y2="184.7188"/><line style="stroke:#000000;stroke-width:1;" x1="161.5801" x2="161.5801" y1="184.7188" y2="200.6875"/><line style="stroke:#000000;stroke-width:1;" x1="7" x2="7" y1="152.7813" y2="168.75"/><line style="stroke:#000000;stroke-width:1;" x1="161.5801" x2="161.5801" y1="168.75" y2="184.7188"/><rect fill="none" height="71.875" style="stroke:#000000;stroke-width:1;" width="15" x="165.5801" y="136.8125"/><line style="stroke:#000000;stroke-width:1;" x1="165.5801" x2="180.5801" y1="148.8125" y2="148.8125"/><line style="stroke:#000000;stroke-width:1;" x1="165.5801" x2="180.5801" y1="196.6875" y2="196.6875"/><path d="M172.5801,140.8125 L175.5801,145.8125 L169.5801,145.8125 L172.5801,140.8125" fill="#000000"/><path d="M172.5801,205.6875 L175.5801,200.6875 L169.5801,200.6875 L172.5801,205.6875" fill="#000000"/><line style="stroke:#AAAAAA;stroke-width:1;" x1="7" x2="548.0313" y1="214.1875" y2="214.1875"/><text fill="#000000" font-family="sans-serif" font-size="12" font-weight="bold" lengthAdjust="spacing" textLength="104.0039" x="7" y="229.8262">Observaciones:</text><text fill="#000000" font-family="sans-serif" font-size="12" lengthAdjust="spacing" textLength="223.5234" x="11" y="246.7949">Asignatura de segundo cuatrimestre.</text><line style="stroke:#000000;stroke-width:1;" x1="9" x2="460" y1="249.625" y2="249.625"/><line style="stroke:#000000;stroke-width:1;" x1="9" x2="9" y1="246.625" y2="248.625"/><line style="stroke:#000000;stroke-width:1;" x1="460" x2="460" y1="246.625" y2="248.625"/><text fill="#000000" font-family="sans-serif" font-size="12" lengthAdjust="spacing" textLength="245.7363" x="11" y="264.7637">Requiere haber aprobado Matem&#225;ticas I.</text><line style="stroke:#000000;stroke-width:1;" x1="9" x2="404" y1="267.5938" y2="267.5938"/><line style="stroke:#000000;stroke-width:1;" x1="9" x2="9" y1="264.5938" y2="266.5938"/><line style="stroke:#000000;stroke-width:1;" x1="404" x2="404" y1="264.5938" y2="266.5938"/><text fill="#000000" font-family="sans-serif" font-size="12" lengthAdjust="spacing" textLength="3.8145" x="11" y="282.7324">&#160;</text><line style="stroke:#000000;stroke-width:1;" x1="9" x2="412" y1="285.5625" y2="285.5625"/><line style="stroke:#000000;stroke-width:1;" x1="9" x2="9" y1="282.5625" y2="284.5625"/><line style="stroke:#000000;stroke-width:1;" x1="412" x2="412" y1="282.5625" y2="284.5625"/><line style="stroke:#000000;stroke-width:1;" x1="7" x2="463" y1="234.6563" y2="234.6563"/><line style="stroke:#000000;stroke-width:1;" x1="7" x2="463" y1="288.5625" y2="288.5625"/><line style="stroke:#000000;stroke-width:1;" x1="7" x2="7" y1="234.6563" y2="252.625"/><line style="stroke:#000000;stroke-width:1;" x1="463" x2="463" y1="252.625" y2="270.5938"/><line style="stroke:#000000;stroke-width:1;" x1="463" x2="463" y1="234.6563" y2="252.625"/><line style="stroke:#000000;stroke-width:1;" x1="7" x2="7" y1="270.5938" y2="288.5625"/><line style="stroke:#000000;stroke-width:1;" x1="7" x2="7" y1="252.625" y2="270.5938"/><line style="stroke:#000000;stroke-width:1;" x1="463" x2="463" y1="270.5938" y2="288.5625"/><rect fill="none" height="53.9063" style="stroke:#000000;stroke-width:1;" width="15" x="467" y="234.6563"/><line style="stroke:#000000;stroke-width:1;" x1="467" x2="482" y1="246.6563" y2="246.6563"/><line style="stroke:#000000;stroke-width:1;" x1="467" x2="482" y1="276.5625" y2="276.5625"/><path d="M474,238.6563 L477,243.6563 L471,243.6563 L474,238.6563" fill="#000000"/><path d="M474,285.5625 L477,280.5625 L471,280.5625 L474,285.5625" fill="#000000"/><line style="stroke:#AAAAAA;stroke-width:1.5;" x1="7" x2="548.0313" y1="294.0625" y2="294.0625"/><text fill="#000000" font-family="sans-serif" font-size="12" font-style="italic" lengthAdjust="spacing" textLength="142.1309" x="7" y="325.6699">(*) Campos obligatorios</text><line style="stroke:#AAAAAA;stroke-width:1.5;" x1="7" x2="548.0313" y1="334" y2="334"/><rect fill="#EEEEEE" height="17.9688" rx="5" ry="5" style="stroke:#000000;stroke-width:2.5;" width="124" x="10.5" y="357.9688"/><text fill="#000000" font-family="sans-serif" font-size="12" lengthAdjust="spacing" textLength="103.0957" x="20.9521" y="371.1074">Guardar cambios</text><rect fill="#EEEEEE" height="17.9688" rx="5" ry="5" style="stroke:#000000;stroke-width:2.5;" width="68" x="141.5" y="357.9688"/><text fill="#000000" font-family="sans-serif" font-size="12" lengthAdjust="spacing" textLength="52.9395" x="149.0303" y="371.1074">Cancelar</text><rect fill="none" height="71.875" style="stroke:#000000;stroke-width:1;" width="15" x="165.5801" y="136.8125"/><line style="stroke:#000000;stroke-width:1;" x1="165.5801" x2="180.5801" y1="148.8125" y2="148.8125"/><line style="stroke:#000000;stroke-width:1;" x1="165.5801" x2="180.5801" y1="196.6875" y2="196.6875"/><path d="M172.5801,140.8125 L175.5801,145.8125 L169.5801,145.8125 L172.5801,140.8125" fill="#000000"/><path d="M172.5801,205.6875 L175.5801,200.6875 L169.5801,200.6875 L172.5801,205.6875" fill="#000000"/><rect fill="none" height="53.9063" style="stroke:#000000;stroke-width:1;" width="15" x="467" y="234.6563"/><line style="stroke:#000000;stroke-width:1;" x1="467" x2="482" y1="246.6563" y2="246.6563"/><line style="stroke:#000000;stroke-width:1;" x1="467" x2="482" y1="276.5625" y2="276.5625"/><path d="M474,238.6563 L477,243.6563 L471,243.6563 L474,238.6563" fill="#000000"/><path d="M474,285.5625 L477,280.5625 L471,280.5625 L474,285.5625" fill="#000000"/><!--SRC=[dLJDJjj04BxxAKOv9KWnIPHMhHKYt0GYGqnGug1A2AgnFRWhERjqVo9L0Tw5Om-S-WXviQuXTUgMWjevsAFTRx_v-tRtbKQf5UOQA6NMznNBE6eZyTFXP1hEn_uqc3Wh1wprulx1C8ZyAVYpO7JYH_EftzkD-u-RUtjxZ_ydw0O-H2qKf0Gv0fRCvPd2citItHujRB3-dh9CUEN23TH2FsfsMcrupceMq6FzUaQS9AO2q6YnMDzhbk22kAP6RvVrAo6YzOCskO3wJiChGw2cpIa5GV1RZ6g6HYeR9i5q_Mt1aWtF3LnsMftkhlsykIpnjwNtNEM_zcnK9AzikqJ22i-hj6ir2oevd7-yW83RcXd9zGDQ_qh8JVwl05EZj6IOLs5GXOMKhE_v7sGMvSilXcbAYebMDbtN_O-o9x4YkSI42Kwlr5pRYhJGbgBCS3llnA2jPq6sAdAVbqYLPags0f84dp4c2NWjHLm8foe1z-y4yCzMUwapTtUbk-rW8UcT1WnmSMrL8UASPVPIIIPKHSulawpEHmPbYXBiNOZjsGihq_C1yeHob1TFkTmwjyu-yRHu3HpdD4Ukv-4ObYIL7GgqtKBHRhjLZmp1YLX2gmljbjTfUTtt4CuYAFORJdrqEWObZ4m8KbP8B3RQ4ZIS8rmYJ0tNTaWUJAw97msFVox00LyoANXnLPsZit0BUDjjVc0QPbOUTafdeJEaApJsnJhWYKWPppoOHuVDTyuOUMOmizp4dO6mlFAh1zpa-Gy0]--></g></svg>