<svg xmlns="http://www.w3.org/2000/svg" xmlns:xlink="http://www.w3.org/1999/xlink" contentStyleType="text/css" data-diagram-type="STATE" height="650px" preserveAspectRatio="none" style="width:654px;height:650px;background:#FFFFFF;" version="1.1" viewBox="0 0 654 650" width="654px" zoomAndPan="magnify"><defs/><g><path d="M102,7 L398,7 A12.5,12.5 0 0 1 410.5,19.5 L410.5,33.2969 L89.5,33.2969 L89.5,19.5 A12.5,12.5 0 0 1 102,7" fill="#F1F1F1"/><rect fill="none" height="492.2969" rx="12.5" ry="12.5" style="stroke:#181818;stroke-width:0.5;" width="321" x="89.5" y="7"/><line style="stroke:#181818;stroke-width:0.5;" x1="89.5" x2="410.5" y1="33.2969" y2="33.2969"/><text fill="#000000" font-family="sans-serif" font-size="14" lengthAdjust="spacing" textLength="83.5078" x="208.2461" y="24.9951">verGrados()</text><g id="verGrados.MostrandoGrados"><rect fill="#F1F1F1" height="50" rx="12.5" ry="12.5" style="stroke:#181818;stroke-width:0.5;" width="50" x="101.5" y="135.2969"/><line style="stroke:#181818;stroke-width:0.5;" x1="101.5" x2="151.5" y1="161.5938" y2="161.5938"/><text fill="#000000" font-family="sans-serif" font-size="14" lengthAdjust="spacing" textLength="4.4502" x="124.2749" y="153.292">&#160;</text></g><g id="verGrados.FiltrandoGrados"><rect fill="#F1F1F1" height="50" rx="12.5" ry="12.5" style="stroke:#181818;stroke-width:0.5;" width="50" x="101.5" y="346.2969"/><line style="stroke:#181818;stroke-width:0.5;" x1="101.5" x2="151.5" y1="372.5938" y2="372.5938"/><text fill="#000000" font-family="sans-serif" font-size="14" lengthAdjust="spacing" textLength="4.4502" x="124.2749" y="364.292">&#160;</text></g><ellipse cx="126.5" cy="54.2969" fill="#222222" rx="10" ry="10" style="stroke:#222222;stroke-width:1;"/><ellipse cx="126.5" cy="478.2969" fill="none" rx="11" ry="11" style="stroke:#222222;stroke-width:1;"/><ellipse cx="126.5" cy="478.2969" fill="#222222" rx="6" ry="6" style="stroke:#222222;stroke-width:1;"/><!--link *start*verGrados to MostrandoGrados--><g class="link" data-entity-1=".start.verGrados" data-entity-2="MostrandoGrados" data-source-line="8" data-uid="lnk3" id="link_.start.verGrados_MostrandoGrados"><path d="M126.5,64.5269 C126.5,80.2369 126.5,106.6569 126.5,129.1669" fill="none" id="*start*verGrados-to-MostrandoGrados" style="stroke:#008000;stroke-width:1;"/><polygon fill="#008000" points="126.5,135.1669,130.5,126.1669,126.5,130.1669,122.5,126.1669,126.5,135.1669" style="stroke:#008000;stroke-width:1;"/><path d="M131.5,87.2969 L131.5,112.2969 L336.5,112.2969 L336.5,97.2969 L326.5,87.2969 L131.5,87.2969" fill="#FEFFDD" style="stroke:#181818;stroke-width:0.5;"/><path d="M326.5,87.2969 L326.5,97.2969 L336.5,97.2969 L326.5,87.2969" fill="#FEFFDD" style="stroke:#181818;stroke-width:0.5;"/><text fill="#000000" font-family="sans-serif" font-size="13" font-weight="bold" lengthAdjust="spacing" textLength="60.5313" x="137.5" y="104.3638">Docente</text><text fill="#000000" font-family="sans-serif" font-size="13" lengthAdjust="spacing" textLength="119.6152" x="202.1636" y="104.3638">solicita ver grados</text></g><!--link MostrandoGrados to FiltrandoGrados--><g class="link" data-entity-1="MostrandoGrados" data-entity-2="FiltrandoGrados" data-source-line="13" data-uid="lnk4" id="link_MostrandoGrados_FiltrandoGrados"><path d="M126.5,185.6769 C126.5,225.9569 126.5,299.8969 126.5,340.0669" fill="none" id="MostrandoGrados-to-FiltrandoGrados" style="stroke:#008000;stroke-width:1;"/><polygon fill="#008000" points="126.5,346.0669,130.5,337.0669,126.5,341.0669,122.5,337.0669,126.5,346.0669" style="stroke:#008000;stroke-width:1;"/><path d="M131.5,208.2969 L131.5,323.2969 L401.5,323.2969 L401.5,218.2969 L391.5,208.2969 L131.5,208.2969" fill="#FEFFDD" style="stroke:#181818;stroke-width:0.5;"/><path d="M391.5,208.2969 L391.5,218.2969 L401.5,218.2969 L391.5,208.2969" fill="#FEFFDD" style="stroke:#181818;stroke-width:0.5;"/><text fill="#000000" font-family="sans-serif" font-size="13" font-weight="bold" lengthAdjust="spacing" textLength="58.9063" x="137.5" y="225.3638">Sistema</text><text fill="#000000" font-family="sans-serif" font-size="13" lengthAdjust="spacing" textLength="157.917" x="200.5386" y="225.3638">presenta lista de grados</text><text fill="#000000" font-family="sans-serif" font-size="13" lengthAdjust="spacing" textLength="249.2915" x="137.5" y="240.4966">&#8226; Nombre, c&#243;digo, alumnos enlistados</text><text fill="#000000" font-family="sans-serif" font-size="13" lengthAdjust="spacing" textLength="4.1323" x="137.5" y="255.6294">&#160;</text><text fill="#000000" font-family="sans-serif" font-size="13" lengthAdjust="spacing" textLength="188.481" x="137.5" y="270.7622">&#8226; Permite solicitar filtrar lista</text><text fill="#000000" font-family="sans-serif" font-size="13" lengthAdjust="spacing" textLength="241.6934" x="137.5" y="285.895">&#8226; Permite solicitar crear grado nuevo</text><text fill="#000000" font-family="sans-serif" font-size="13" lengthAdjust="spacing" textLength="216.6836" x="137.5" y="301.0278">&#8226; Permite solicitar eliminar grado</text><text fill="#000000" font-family="sans-serif" font-size="13" lengthAdjust="spacing" textLength="201.9063" x="137.5" y="316.1606">&#8226; Permite solicitar editar grado</text></g><!--link FiltrandoGrados to FiltrandoGrados--><g class="link" data-entity-1="FiltrandoGrados" data-entity-2="FiltrandoGrados" data-source-line="24" data-uid="lnk5" id="link_FiltrandoGrados_FiltrandoGrados"><path d="M151.68,360.0869 C161.41,359.5969 169.5,363.3269 169.5,371.2969 C169.5,379.2669 167.4024,383.2987 157.6724,382.8087" fill="none" id="FiltrandoGrados-to-FiltrandoGrados" style="stroke:#008000;stroke-width:1;"/><polygon fill="#008000" points="151.68,382.5069,160.4674,386.9545,156.6737,382.7584,160.8698,378.9646,151.68,382.5069" style="stroke:#008000;stroke-width:1;"/><path d="M174.5,351.2969 L174.5,391.2969 L397.5,391.2969 L397.5,361.2969 L387.5,351.2969 L174.5,351.2969" fill="#FEFFDD" style="stroke:#181818;stroke-width:0.5;"/><path d="M387.5,351.2969 L387.5,361.2969 L397.5,361.2969 L387.5,351.2969" fill="#FEFFDD" style="stroke:#181818;stroke-width:0.5;"/><text fill="#000000" font-family="sans-serif" font-size="13" font-weight="bold" lengthAdjust="spacing" textLength="60.5313" x="180.5" y="368.3638">Docente</text><text fill="#000000" font-family="sans-serif" font-size="13" lengthAdjust="spacing" textLength="116.6509" x="245.1636" y="368.3638">solicita filtrar lista</text><text fill="#000000" font-family="sans-serif" font-size="13" font-weight="bold" lengthAdjust="spacing" textLength="58.9063" x="180.5" y="383.4966">Sistema</text><text fill="#000000" font-family="sans-serif" font-size="13" lengthAdjust="spacing" textLength="139.4199" x="243.5386" y="383.4966">presenta lista filtrada</text></g><!--link FiltrandoGrados to *end*verGrados--><g class="link" data-entity-1="FiltrandoGrados" data-entity-2=".end.verGrados" data-source-line="30" data-uid="lnk7" id="link_FiltrandoGrados_.end.verGrados"><path d="M126.5,396.3869 C126.5,418.7869 126.5,445.0669 126.5,461.2469" fill="none" id="FiltrandoGrados-to-*end*verGrados" style="stroke:#008000;stroke-width:1;"/><polygon fill="#008000" points="126.5,467.2469,130.5,458.2469,126.5,462.2469,122.5,458.2469,126.5,467.2469" style="stroke:#008000;stroke-width:1;"/><path d="M131.5,419.2969 L131.5,444.2969 L395.5,444.2969 L395.5,429.2969 L385.5,419.2969 L131.5,419.2969" fill="#FEFFDD" style="stroke:#181818;stroke-width:0.5;"/><path d="M385.5,419.2969 L385.5,429.2969 L395.5,429.2969 L385.5,419.2969" fill="#FEFFDD" style="stroke:#181818;stroke-width:0.5;"/><text fill="#000000" font-family="sans-serif" font-size="13" font-weight="bold" lengthAdjust="spacing" textLength="60.5313" x="137.5" y="436.3638">Docente</text><text fill="#000000" font-family="sans-serif" font-size="13" lengthAdjust="spacing" textLength="179.2769" x="202.1636" y="436.3638">solicita una de las opciones</text></g><g id="SISTEMA_DISPONIBLE"><rect fill="#F1F1F1" height="50" rx="12.5" ry="12.5" style="stroke:#181818;stroke-width:0.5;" width="172.0654" x="16" y="594"/><line style="stroke:#181818;stroke-width:0.5;" x1="16" x2="188.0654" y1="620.2969" y2="620.2969"/><text fill="#000000" font-family="sans-serif" font-size="14" lengthAdjust="spacing" textLength="152.0654" x="26" y="611.9951">SISTEMA_DISPONIBLE</text></g><g id="GRADO_ABIERTO"><rect fill="#F1F1F1" height="50" rx="12.5" ry="12.5" style="stroke:#181818;stroke-width:0.5;" width="140.4082" x="246" y="594"/><line style="stroke:#181818;stroke-width:0.5;" x1="246" x2="386.4082" y1="620.2969" y2="620.2969"/><text fill="#000000" font-family="sans-serif" font-size="14" lengthAdjust="spacing" textLength="120.4082" x="256" y="611.9951">GRADO_ABIERTO</text></g><g id="GRADOS_ABIERTO"><rect fill="#F1F1F1" height="50" rx="12.5" ry="12.5" style="stroke:#181818;stroke-width:0.5;" width="149.2949" x="488.5" y="594"/><line style="stroke:#181818;stroke-width:0.5;" x1="488.5" x2="637.7949" y1="620.2969" y2="620.2969"/><text fill="#000000" font-family="sans-serif" font-size="14" lengthAdjust="spacing" textLength="129.2949" x="498.5" y="611.9951">GRADOS_ABIERTO</text></g><!--link SISTEMA_DISPONIBLE to verGrados--><g class="link" data-entity-1="SISTEMA_DISPONIBLE" data-entity-2="verGrados" data-source-line="36" data-uid="lnk9" id="link_SISTEMA_DISPONIBLE_verGrados"><path d="M132.42,593.84 C150.53,579.47 170,564 170,564 C170,564 175.4613,542.8498 185.2713,504.8198" fill="none" id="SISTEMA_DISPONIBLE-to-verGrados" style="stroke:#008000;stroke-width:1;"/><polygon fill="#008000" points="186.77,499.01,180.6488,506.7256,185.5211,503.8515,188.3952,508.7238,186.77,499.01" style="stroke:#008000;stroke-width:1;"/></g><!--link verGrados to SISTEMA_DISPONIBLE--><g class="link" data-entity-1="verGrados" data-entity-2="SISTEMA_DISPONIBLE" data-source-line="53" data-uid="lnk15" id="link_verGrados_SISTEMA_DISPONIBLE"><path d="M89.29,435.13 C43.6,486.62 6,529 6,529 C6,529 6,564 6,564 C6,564 28.2599,576.5296 53.8199,590.8996" fill="none" id="verGrados-to-SISTEMA_DISPONIBLE" style="stroke:#008000;stroke-width:1;"/><polygon fill="#008000" points="59.05,593.84,53.1651,585.9427,54.6916,591.3897,49.2446,592.9161,59.05,593.84" style="stroke:#008000;stroke-width:1;"/><path d="M11,534 L11,559 L157,559 L157,544 L147,534 L11,534" fill="#FEFFDD" style="stroke:#181818;stroke-width:0.5;"/><path d="M147,534 L147,544 L157,544 L147,534" fill="#FEFFDD" style="stroke:#181818;stroke-width:0.5;"/><text fill="#000000" font-family="sans-serif" font-size="13" lengthAdjust="spacing" textLength="125.9248" x="17" y="551.0669">completarGestion()</text></g><!--link verGrados to GRADO_ABIERTO--><g class="link" data-entity-1="verGrados" data-entity-2="GRADO_ABIERTO" data-source-line="38" data-uid="lnk11" id="link_verGrados_GRADO_ABIERTO"><path d="M247.33,499.05 C247.13,517.43 247,529 247,529 C247,529 247,564 247,564 C247,564 262.0342,575.7732 280.4042,590.1432" fill="none" id="verGrados-to-GRADO_ABIERTO" style="stroke:#008000;stroke-width:1;"/><polygon fill="#008000" points="285.13,593.84,280.5058,585.1442,281.1918,590.7593,275.5767,591.4453,285.13,593.84" style="stroke:#008000;stroke-width:1;"/><path d="M252,534 L252,559 L361,559 L361,544 L351,534 L252,534" fill="#FEFFDD" style="stroke:#181818;stroke-width:0.5;"/><path d="M351,534 L351,544 L361,544 L351,534" fill="#FEFFDD" style="stroke:#181818;stroke-width:0.5;"/><text fill="#000000" font-family="sans-serif" font-size="13" lengthAdjust="spacing" textLength="88.0039" x="258" y="551.0669">editarGrado()</text></g><!--link verGrados to GRADO_ABIERTO--><g class="link" data-entity-1="verGrados" data-entity-2="GRADO_ABIERTO" data-source-line="43" data-uid="lnk12" id="link_verGrados_GRADO_ABIERTO"><path d="M356.93,499.05 C364.95,517.43 370,529 370,529 C370,529 370,564 370,564 C370,564 358.7726,575.2274 344.4026,589.5974" fill="none" id="verGrados-to-GRADO_ABIERTO-1" style="stroke:#008000;stroke-width:1;"/><polygon fill="#008000" points="340.16,593.84,349.3524,590.3045,343.6955,590.3045,343.6955,584.6476,340.16,593.84" style="stroke:#008000;stroke-width:1;"/><path d="M375,534 L375,559 L479,559 L479,544 L469,534 L375,534" fill="#FEFFDD" style="stroke:#181818;stroke-width:0.5;"/><path d="M469,534 L469,544 L479,544 L469,534" fill="#FEFFDD" style="stroke:#181818;stroke-width:0.5;"/><text fill="#000000" font-family="sans-serif" font-size="13" lengthAdjust="spacing" textLength="83.5352" x="381" y="551.0669">crearGrado()</text></g><!--link verGrados to GRADOS_ABIERTO--><g class="link" data-entity-1="verGrados" data-entity-2="GRADOS_ABIERTO" data-source-line="48" data-uid="lnk14" id="link_verGrados_GRADOS_ABIERTO"><path d="M410.74,436.66 C455.44,487.46 492,529 492,529 C492,529 518.8383,562.6396 539.8583,588.9896" fill="none" id="verGrados-to-GRADOS_ABIERTO" style="stroke:#008000;stroke-width:1;"/><polygon fill="#008000" points="543.6,593.68,541.1145,584.1499,540.482,589.7713,534.8606,589.1388,543.6,593.68" style="stroke:#008000;stroke-width:1;"/><path d="M524,534 L524,559 L647,559 L647,544 L637,534 L524,534" fill="#FEFFDD" style="stroke:#181818;stroke-width:0.5;"/><path d="M637,534 L637,544 L647,544 L637,534" fill="#FEFFDD" style="stroke:#181818;stroke-width:0.5;"/><text fill="#000000" font-family="sans-serif" font-size="13" lengthAdjust="spacing" textLength="102.7813" x="530" y="551.0669">eliminarGrado()</text></g><!--SRC=[dPDjQi9048R_xoa6-qUBqWk8e6WbK3ym_XEHDPdAOh8RTbT1Ig5dwHLwXDwa9-bcOpwjeRg1X0tFpFlExApQCnvHIKC864TzYX0Y4PpY3I5AKurmH3cMr1SAg896jcks6l1629YLS0tp668Yb9QK-oB1Be5d5fG0IwmUrz1PFUma8bztUjKiO24kJ1R1Owjx-wExxGs5XrnZzsdR0oK2vZ5DOykmo-MH-qciMIHxLIMAybMFrzHTfZI6rAf74fMnGWrWwWKVYnP-FZvXAiAjn3Putry-suasqE0GSgECt8QaR1OmHnao8vhM9U7L-fA9H0tdIQJd5W0_u57Ki1YmaF4KhmDz-ycnjA-vwqhVxkhfdoTwMNXzznFUftVuDADucxS3jwSTcDaMaSS4n_BOaNT2NCTTZYRzpT1nvxEfCtWPbJIpMqL8VjsAm7ZH7yus_O4pMYndf6GjEHORqsoHJFJsH7PeRihZNd5qdgZ_vhfiJiMO2AC0uo9HQTFVGifV]--></g></svg>