<svg xmlns="http://www.w3.org/2000/svg" xmlns:xlink="http://www.w3.org/1999/xlink" contentStyleType="text/css" data-diagram-type="STATE" height="587px" preserveAspectRatio="none" style="width:341px;height:587px;background:#FFFFFF;" version="1.1" viewBox="0 0 341 587" width="341px" zoomAndPan="magnify"><defs/><g><path d="M19.5,117 L315.5,117 A12.5,12.5 0 0 1 328,129.5 L328,143.2969 L7,143.2969 L7,129.5 A12.5,12.5 0 0 1 19.5,117" fill="#F1F1F1"/><rect fill="none" height="354.2969" rx="12.5" ry="12.5" style="stroke:#181818;stroke-width:0.5;" width="321" x="7" y="117"/><line style="stroke:#181818;stroke-width:0.5;" x1="7" x2="328" y1="143.2969" y2="143.2969"/><text fill="#000000" font-family="sans-serif" font-size="14" lengthAdjust="spacing" textLength="83.5078" x="125.7461" y="134.9951">verGrados()</text><g id="verGrados.MostrandoGrados"><rect fill="#F1F1F1" height="50" rx="12.5" ry="12.5" style="stroke:#181818;stroke-width:0.5;" width="50" x="19" y="245.2969"/><line style="stroke:#181818;stroke-width:0.5;" x1="19" x2="69" y1="271.5938" y2="271.5938"/><text fill="#000000" font-family="sans-serif" font-size="14" lengthAdjust="spacing" textLength="4.4502" x="41.7749" y="263.292">&#160;</text></g><g id="verGrados.FiltrandoGrados"><rect fill="#F1F1F1" height="50" rx="12.5" ry="12.5" style="stroke:#181818;stroke-width:0.5;" width="50" x="19" y="411.2969"/><line style="stroke:#181818;stroke-width:0.5;" x1="19" x2="69" y1="437.5938" y2="437.5938"/><text fill="#000000" font-family="sans-serif" font-size="14" lengthAdjust="spacing" textLength="4.4502" x="41.7749" y="429.292">&#160;</text></g><ellipse cx="44" cy="164.2969" fill="#222222" rx="10" ry="10" style="stroke:#222222;stroke-width:1;"/><!--link *start*verGrados to MostrandoGrados--><g class="link" data-entity-1=".start.verGrados" data-entity-2="MostrandoGrados" data-source-line="8" data-uid="lnk3" id="link_.start.verGrados_MostrandoGrados"><path d="M44,174.5269 C44,190.2369 44,216.6569 44,239.1669" fill="none" id="*start*verGrados-to-MostrandoGrados" style="stroke:#008000;stroke-width:1;"/><polygon fill="#008000" points="44,245.1669,48,236.1669,44,240.1669,40,236.1669,44,245.1669" style="stroke:#008000;stroke-width:1;"/><path d="M49,197.2969 L49,222.2969 L254,222.2969 L254,207.2969 L244,197.2969 L49,197.2969" fill="#FEFFDD" style="stroke:#181818;stroke-width:0.5;"/><path d="M244,197.2969 L244,207.2969 L254,207.2969 L244,197.2969" fill="#FEFFDD" style="stroke:#181818;stroke-width:0.5;"/><text fill="#000000" font-family="sans-serif" font-size="13" font-weight="bold" lengthAdjust="spacing" textLength="60.5313" x="55" y="214.3638">Docente</text><text fill="#000000" font-family="sans-serif" font-size="13" lengthAdjust="spacing" textLength="119.6152" x="119.6636" y="214.3638">solicita ver grados</text></g><!--link MostrandoGrados to FiltrandoGrados--><g class="link" data-entity-1="MostrandoGrados" data-entity-2="FiltrandoGrados" data-source-line="13" data-uid="lnk4" id="link_MostrandoGrados_FiltrandoGrados"><path d="M44,295.4969 C44,326.5869 44,374.2469 44,405.2669" fill="none" id="MostrandoGrados-to-FiltrandoGrados" style="stroke:#008000;stroke-width:1;"/><polygon fill="#008000" points="44,411.2669,48,402.2669,44,406.2669,40,402.2669,44,411.2669" style="stroke:#008000;stroke-width:1;"/><path d="M49,318.2969 L49,388.2969 L319,388.2969 L319,328.2969 L309,318.2969 L49,318.2969" fill="#FEFFDD" style="stroke:#181818;stroke-width:0.5;"/><path d="M309,318.2969 L309,328.2969 L319,328.2969 L309,318.2969" fill="#FEFFDD" style="stroke:#181818;stroke-width:0.5;"/><text fill="#000000" font-family="sans-serif" font-size="13" font-weight="bold" lengthAdjust="spacing" textLength="58.9063" x="55" y="335.3638">Sistema</text><text fill="#000000" font-family="sans-serif" font-size="13" lengthAdjust="spacing" textLength="157.917" x="118.0386" y="335.3638">presenta lista de grados</text><text fill="#000000" font-family="sans-serif" font-size="13" lengthAdjust="spacing" textLength="249.2915" x="55" y="350.4966">&#8226; Nombre, c&#243;digo, alumnos enlistados</text><text fill="#000000" font-family="sans-serif" font-size="13" lengthAdjust="spacing" textLength="4.1323" x="55" y="365.6294">&#160;</text><text fill="#000000" font-family="sans-serif" font-size="13" lengthAdjust="spacing" textLength="188.481" x="55" y="380.7622">&#8226; Permite solicitar filtrar lista</text></g><!--link FiltrandoGrados to FiltrandoGrados--><g class="link" data-entity-1="FiltrandoGrados" data-entity-2="FiltrandoGrados" data-source-line="21" data-uid="lnk5" id="link_FiltrandoGrados_FiltrandoGrados"><path d="M69.18,420.9869 C78.91,420.2969 87,425.4069 87,436.2969 C87,447.1869 84.895,452.7213 75.165,452.0313" fill="none" id="FiltrandoGrados-to-FiltrandoGrados" style="stroke:#008000;stroke-width:1;"/><polygon fill="#008000" points="69.18,451.6069,77.8745,456.2335,74.1675,451.9606,78.4404,448.2535,69.18,451.6069" style="stroke:#008000;stroke-width:1;"/><path d="M92,416.2969 L92,456.2969 L315,456.2969 L315,426.2969 L305,416.2969 L92,416.2969" fill="#FEFFDD" style="stroke:#181818;stroke-width:0.5;"/><path d="M305,416.2969 L305,426.2969 L315,426.2969 L305,416.2969" fill="#FEFFDD" style="stroke:#181818;stroke-width:0.5;"/><text fill="#000000" font-family="sans-serif" font-size="13" font-weight="bold" lengthAdjust="spacing" textLength="60.5313" x="98" y="433.3638">Docente</text><text fill="#000000" font-family="sans-serif" font-size="13" lengthAdjust="spacing" textLength="116.6509" x="162.6636" y="433.3638">solicita filtrar lista</text><text fill="#000000" font-family="sans-serif" font-size="13" font-weight="bold" lengthAdjust="spacing" textLength="58.9063" x="98" y="448.4966">Sistema</text><text fill="#000000" font-family="sans-serif" font-size="13" lengthAdjust="spacing" textLength="139.4199" x="161.0386" y="448.4966">presenta lista filtrada</text></g><g id="SISTEMA_DISPONIBLE"><rect fill="#F1F1F1" height="50" rx="12.5" ry="12.5" style="stroke:#181818;stroke-width:0.5;" width="172.0654" x="81.5" y="7"/><line style="stroke:#181818;stroke-width:0.5;" x1="81.5" x2="253.5654" y1="33.2969" y2="33.2969"/><text fill="#000000" font-family="sans-serif" font-size="14" lengthAdjust="spacing" textLength="152.0654" x="91.5" y="24.9951">SISTEMA_DISPONIBLE</text></g><g id="GRADOS_ABIERTO"><rect fill="#F1F1F1" height="50" rx="12.5" ry="12.5" style="stroke:#181818;stroke-width:0.5;" width="149.2949" x="93" y="531"/><line style="stroke:#181818;stroke-width:0.5;" x1="93" x2="242.2949" y1="557.2969" y2="557.2969"/><text fill="#000000" font-family="sans-serif" font-size="14" lengthAdjust="spacing" textLength="129.2949" x="103" y="548.9951">GRADOS_ABIERTO</text></g><!--link SISTEMA_DISPONIBLE to verGrados--><g class="link" data-entity-1="SISTEMA_DISPONIBLE" data-entity-2="verGrados" data-source-line="29" data-uid="lnk7" id="link_SISTEMA_DISPONIBLE_verGrados"><path d="M167.5,57.46 C167.5,72.63 167.5,87.63 167.5,110.89" fill="none" id="SISTEMA_DISPONIBLE-to-verGrados" style="stroke:#008000;stroke-width:1;"/><polygon fill="#008000" points="167.5,116.89,171.5,107.89,167.5,111.89,163.5,107.89,167.5,116.89" style="stroke:#008000;stroke-width:1;"/></g><!--link verGrados to GRADOS_ABIERTO--><g class="link" data-entity-1="verGrados" data-entity-2="GRADOS_ABIERTO" data-source-line="31" data-uid="lnk9" id="link_verGrados_GRADOS_ABIERTO"><path d="M167.5,471.3 C167.5,494.67 167.5,509.74 167.5,524.89" fill="none" id="verGrados-to-GRADOS_ABIERTO" style="stroke:#008000;stroke-width:1;"/><polygon fill="#008000" points="167.5,530.89,171.5,521.89,167.5,525.89,163.5,521.89,167.5,530.89" style="stroke:#008000;stroke-width:1;"/></g><!--SRC=[dPBVIiCm58VlynI7UgEouGkCGaVhABXrhBiROwJDiOIrIKcYC4JmMNm57y4tyKbCMzP_KozC893mdNo_4wAFN9HKqG9oBj2SIeHIvgTgGuWsr20yereeogG6gi5fTzSt3hmG0dOqd6Ed9PPI6qK5amrs2TppV03KnEvs3zFTLQOGnNxgZc-16XBItY955VLO7ymIrvSf2eEpkyG5BNEUSaEho91rUXIigRM3jCjOqTUFC_vcZxasMD3QNYhKDWgrWEqN6FOZVBszmqeMYS89f9yVZ6To0ZH_AeGrewXBpcnRi4PLS2izzwNWiSwb6iMWjwvobFrVVVtugfVolr-WuTae9tab90xZRR3q3duOhwDLE7y81YdRFqP8z_dwm6BZ-L5yyEPXiDb6tm00]--></g></svg>