<svg xmlns="http://www.w3.org/2000/svg" xmlns:xlink="http://www.w3.org/1999/xlink" contentStyleType="text/css" data-diagram-type="SALT" height="431px" preserveAspectRatio="none" style="width:743px;height:431px;background:#FFFFFF;" version="1.1" viewBox="0 0 743 431" width="743px" zoomAndPan="magnify"><defs/><g><text fill="#000000" font-family="sans-serif" font-size="12" font-weight="bold" lengthAdjust="spacing" textLength="126.8555" x="6" y="17.1387">EDITAR PREGUNTA</text><line style="stroke:#AAAAAA;stroke-width:1;" x1="6" x2="736.3984" y1="24.4688" y2="24.4688"/><line style="stroke:#AAAAAA;stroke-width:1;" x1="6" x2="736.3984" y1="26.4688" y2="26.4688"/><text fill="#000000" font-family="sans-serif" font-size="12" font-weight="bold" lengthAdjust="spacing" textLength="142.8105" x="7" y="42.1074">Datos de la pregunta</text><line style="stroke:#AAAAAA;stroke-width:1;" x1="7" x2="735.3984" y1="50.4375" y2="50.4375"/><text fill="#000000" font-family="sans-serif" font-size="12" lengthAdjust="spacing" textLength="88.1895" x="8" y="67.0762">Asignatura (*):</text><rect fill="#EEEEEE" height="16.9688" style="stroke:#000000;stroke-width:1;" width="127" x="448" y="55.9375"/><text fill="#000000" font-family="sans-serif" font-size="12" lengthAdjust="spacing" textLength="87.9727" x="450" y="69.0762">Matem&#225;ticas II</text><line style="stroke:#000000;stroke-width:1;" x1="564" x2="564" y1="55.9375" y2="72.9063"/><polygon fill="#000000" points="567,61.9375,573,61.9375,570,67.9063" style="stroke:#000000;stroke-width:1;"/><text fill="#000000" font-family="sans-serif" font-size="12" lengthAdjust="spacing" textLength="56.9766" x="8" y="87.0449">Tema (*):</text><text fill="#000000" font-family="sans-serif" font-size="12" lengthAdjust="spacing" textLength="45.2051" x="451" y="87.0449">Tema 1</text><line style="stroke:#000000;stroke-width:1;" x1="449" x2="676" y1="89.875" y2="89.875"/><line style="stroke:#000000;stroke-width:1;" x1="449" x2="449" y1="86.875" y2="88.875"/><line style="stroke:#000000;stroke-width:1;" x1="676" x2="676" y1="86.875" y2="88.875"/><line style="stroke:#AAAAAA;stroke-width:1;stroke-dasharray:1,2;" x1="8" x2="447" y1="97.375" y2="97.375"/><text fill="#000000" font-family="sans-serif" font-size="12" font-weight="bold" lengthAdjust="spacing" textLength="91.8223" x="8" y="113.0137">Dificultad (*):</text><text fill="#000000" font-family="sans-serif" font-size="12" lengthAdjust="spacing" textLength="27.5215" x="28" y="128.9824">F&#225;cil</text><ellipse cx="15" cy="124.8281" fill="none" rx="5" ry="5" style="stroke:#000000;stroke-width:1.5;"/><text fill="#000000" font-family="sans-serif" font-size="12" lengthAdjust="spacing" textLength="36.0293" x="468" y="128.9824">Medio</text><ellipse cx="455" cy="124.8281" fill="none" rx="5" ry="5" style="stroke:#000000;stroke-width:1.5;"/><ellipse cx="455" cy="124.8281" fill="#000000" rx="2" ry="2" style="stroke:#000000;stroke-width:1.5;"/><text fill="#000000" font-family="sans-serif" font-size="12" lengthAdjust="spacing" textLength="33.3984" x="700" y="128.9824">Dif&#237;cil</text><ellipse cx="687" cy="124.8281" fill="none" rx="5" ry="5" style="stroke:#000000;stroke-width:1.5;"/><line style="stroke:#AAAAAA;stroke-width:1;stroke-dasharray:1,2;" x1="8" x2="447" y1="137.3125" y2="137.3125"/><text fill="#000000" font-family="sans-serif" font-size="12" font-weight="bold" lengthAdjust="spacing" textLength="96.2051" x="8" y="152.9512">Enunciado (*):</text><text fill="#000000" font-family="sans-serif" font-size="12" lengthAdjust="spacing" textLength="162.4102" x="12" y="169.9199">&#191;Cu&#225;l es la derivada de x&#178;?</text><line style="stroke:#000000;stroke-width:1;" x1="10" x2="405" y1="172.75" y2="172.75"/><line style="stroke:#000000;stroke-width:1;" x1="10" x2="10" y1="169.75" y2="171.75"/><line style="stroke:#000000;stroke-width:1;" x1="405" x2="405" y1="169.75" y2="171.75"/><text fill="#000000" font-family="sans-serif" font-size="12" lengthAdjust="spacing" textLength="3.8145" x="12" y="187.8887">&#160;</text><line style="stroke:#000000;stroke-width:1;" x1="10" x2="413" y1="190.7188" y2="190.7188"/><line style="stroke:#000000;stroke-width:1;" x1="10" x2="10" y1="187.7188" y2="189.7188"/><line style="stroke:#000000;stroke-width:1;" x1="413" x2="413" y1="187.7188" y2="189.7188"/><text fill="#000000" font-family="sans-serif" font-size="12" lengthAdjust="spacing" textLength="3.8145" x="12" y="205.8574">&#160;</text><line style="stroke:#000000;stroke-width:1;" x1="10" x2="413" y1="208.6875" y2="208.6875"/><line style="stroke:#000000;stroke-width:1;" x1="10" x2="10" y1="205.6875" y2="207.6875"/><line style="stroke:#000000;stroke-width:1;" x1="413" x2="413" y1="205.6875" y2="207.6875"/><line style="stroke:#000000;stroke-width:1;" x1="8" x2="416" y1="157.7813" y2="157.7813"/><line style="stroke:#000000;stroke-width:1;" x1="8" x2="416" y1="211.6875" y2="211.6875"/><line style="stroke:#000000;stroke-width:1;" x1="8" x2="8" y1="157.7813" y2="175.75"/><line style="stroke:#000000;stroke-width:1;" x1="416" x2="416" y1="175.75" y2="193.7188"/><line style="stroke:#000000;stroke-width:1;" x1="416" x2="416" y1="157.7813" y2="175.75"/><line style="stroke:#000000;stroke-width:1;" x1="8" x2="8" y1="193.7188" y2="211.6875"/><line style="stroke:#000000;stroke-width:1;" x1="8" x2="8" y1="175.75" y2="193.7188"/><line style="stroke:#000000;stroke-width:1;" x1="416" x2="416" y1="193.7188" y2="211.6875"/><rect fill="none" height="53.9063" style="stroke:#000000;stroke-width:1;" width="15" x="420" y="157.7813"/><line style="stroke:#000000;stroke-width:1;" x1="420" x2="435" y1="169.7813" y2="169.7813"/><line style="stroke:#000000;stroke-width:1;" x1="420" x2="435" y1="199.6875" y2="199.6875"/><path d="M427,161.7813 L430,166.7813 L424,166.7813 L427,161.7813" fill="#000000"/><path d="M427,208.6875 L430,203.6875 L424,203.6875 L427,208.6875" fill="#000000"/><line style="stroke:#AAAAAA;stroke-width:1;" x1="7" x2="735.3984" y1="218.1875" y2="218.1875"/><text fill="#000000" font-family="sans-serif" font-size="12" font-weight="bold" lengthAdjust="spacing" textLength="77.9121" x="7" y="233.8262">Respuestas</text><text fill="#000000" font-family="sans-serif" font-size="12" lengthAdjust="spacing" textLength="98.1328" x="8" y="250.7949">Respuesta A (*):</text><text fill="#000000" font-family="sans-serif" font-size="12" lengthAdjust="spacing" textLength="14.7363" x="152.7695" y="250.7949">2x</text><line style="stroke:#000000;stroke-width:1;" x1="150.7695" x2="441.7695" y1="253.625" y2="253.625"/><line style="stroke:#000000;stroke-width:1;" x1="150.7695" x2="150.7695" y1="250.625" y2="252.625"/><line style="stroke:#000000;stroke-width:1;" x1="441.7695" x2="441.7695" y1="250.625" y2="252.625"/><text fill="#000000" font-family="sans-serif" font-size="12" lengthAdjust="spacing" textLength="98.1563" x="8" y="268.7637">Respuesta B (*):</text><text fill="#000000" font-family="sans-serif" font-size="12" lengthAdjust="spacing" textLength="7.1016" x="152.7695" y="268.7637">x</text><line style="stroke:#000000;stroke-width:1;" x1="150.7695" x2="441.7695" y1="271.5938" y2="271.5938"/><line style="stroke:#000000;stroke-width:1;" x1="150.7695" x2="150.7695" y1="268.5938" y2="270.5938"/><line style="stroke:#000000;stroke-width:1;" x1="441.7695" x2="441.7695" y1="268.5938" y2="270.5938"/><text fill="#000000" font-family="sans-serif" font-size="12" lengthAdjust="spacing" textLength="98.3027" x="8" y="286.7324">Respuesta C (*):</text><text fill="#000000" font-family="sans-serif" font-size="12" lengthAdjust="spacing" textLength="19.5469" x="152.7695" y="286.7324">2x&#178;</text><line style="stroke:#000000;stroke-width:1;" x1="150.7695" x2="441.7695" y1="289.5625" y2="289.5625"/><line style="stroke:#000000;stroke-width:1;" x1="150.7695" x2="150.7695" y1="286.5625" y2="288.5625"/><line style="stroke:#000000;stroke-width:1;" x1="441.7695" x2="441.7695" y1="286.5625" y2="288.5625"/><text fill="#000000" font-family="sans-serif" font-size="12" lengthAdjust="spacing" textLength="99.1641" x="8" y="304.7012">Respuesta D (*):</text><text fill="#000000" font-family="sans-serif" font-size="12" lengthAdjust="spacing" textLength="11.9121" x="152.7695" y="304.7012">x&#178;</text><line style="stroke:#000000;stroke-width:1;" x1="150.7695" x2="441.7695" y1="307.5313" y2="307.5313"/><line style="stroke:#000000;stroke-width:1;" x1="150.7695" x2="150.7695" y1="304.5313" y2="306.5313"/><line style="stroke:#000000;stroke-width:1;" x1="441.7695" x2="441.7695" y1="304.5313" y2="306.5313"/><line style="stroke:#AAAAAA;stroke-width:1;stroke-dasharray:1,2;" x1="8" x2="148.7695" y1="315.0313" y2="315.0313"/><text fill="#000000" font-family="sans-serif" font-size="12" lengthAdjust="spacing" textLength="139.7695" x="8" y="330.6699">Respuesta correcta (*):</text><rect fill="#EEEEEE" height="16.9688" style="stroke:#000000;stroke-width:1;" width="23.209" x="149.7695" y="319.5313"/><text fill="#000000" font-family="sans-serif" font-size="12" lengthAdjust="spacing" textLength="8.209" x="151.7695" y="332.6699">A</text><line style="stroke:#000000;stroke-width:1;" x1="161.9785" x2="161.9785" y1="319.5313" y2="336.5"/><polygon fill="#000000" points="164.9785,325.5313,170.9785,325.5313,167.9785,331.5" style="stroke:#000000;stroke-width:1;"/><line style="stroke:#AAAAAA;stroke-width:1.5;" x1="7" x2="735.3984" y1="344" y2="344"/><text fill="#000000" font-family="sans-serif" font-size="12" font-style="italic" lengthAdjust="spacing" textLength="142.1309" x="7" y="375.6074">(*) Campos obligatorios</text><line style="stroke:#AAAAAA;stroke-width:1.5;" x1="7" x2="735.3984" y1="383.9375" y2="383.9375"/><rect fill="#EEEEEE" height="17.9688" rx="5" ry="5" style="stroke:#000000;stroke-width:2.5;" width="124" x="10.5" y="407.9063"/><text fill="#000000" font-family="sans-serif" font-size="12" lengthAdjust="spacing" textLength="103.0957" x="20.9521" y="421.0449">Guardar cambios</text><rect fill="#EEEEEE" height="17.9688" rx="5" ry="5" style="stroke:#000000;stroke-width:2.5;" width="68" x="141.5" y="407.9063"/><text fill="#000000" font-family="sans-serif" font-size="12" lengthAdjust="spacing" textLength="52.9395" x="149.0303" y="421.0449">Cancelar</text><rect fill="none" height="53.9063" style="stroke:#000000;stroke-width:1;" width="15" x="420" y="157.7813"/><line style="stroke:#000000;stroke-width:1;" x1="420" x2="435" y1="169.7813" y2="169.7813"/><line style="stroke:#000000;stroke-width:1;" x1="420" x2="435" y1="199.6875" y2="199.6875"/><path d="M427,161.7813 L430,166.7813 L424,166.7813 L427,161.7813" fill="#000000"/><path d="M427,208.6875 L430,203.6875 L424,203.6875 L427,208.6875" fill="#000000"/><!--SRC=[jLJjRjem5FtlfxZY5qo20MBJ5W5hofTWfA0GgabLcKpYHfOI6pasOgBqNNY0_UaBJ88NcmEKD2hgQAMTFxdslUVunBxsHIIna14E912FwdWeYA-On3_R0ziQzqsxEq1B11hLQRtLx3gc3KExrHbVEMRruxI-IzLgjTrtNtWeRcB98_0811Xc1zKZ8qO-VmmJOWmpeZx3KWaCsGyv0-vXOc59mkrQKXT7qErEKlKE2G-LUzn3PZTLWfF8fCY5GceO6wTtr5M1nDvEDEKvHXPoqDwkNHhebR8_Sc3fhUDnh1EQlFsjK_zOeyKKSods-EabbgCkUc5xywUXjki0I1HlgKS4dMCl3c2nUVnsph_kPk3D-0yYA_GoEjKOpnlA9j5C4TsmKMg_qhrpB0BpgNaovSLRxIKgbqUL1RnVfV7Co-RntJBDnCmPAgytUgBgSY68AvFBPavUEvs7XsEOA5PfNREXWSEPllHy6b1VNtz1kJuhMZzJP7dJKLXuM82BmwdctcetDmtCN19WSRltia8hT46O5xzP20q3pEJOwiESY8Xo1gL2kLZ-L2WLiuuYSCNdKAn0gMYKYqRbArWZ1-9y3cKxmpv4N0cNW4SZAUXKIIsGGpqyns3hrug6n831ZB1Uy_lJ1BJOd0hEGi8awbrRIS7dIlwIIXWHeQt0jOMQv0xhLqGpNEvHvXimTjhvBwYFcQ-mhxK9GmskTSKl0vWAWhy0]--></g></svg>