<svg xmlns="http://www.w3.org/2000/svg" xmlns:xlink="http://www.w3.org/1999/xlink" contentStyleType="text/css" data-diagram-type="STATE" height="741px" preserveAspectRatio="none" style="width:569px;height:741px;background:#FFFFFF;" version="1.1" viewBox="0 0 569 741" width="569px" zoomAndPan="magnify"><defs/><g><path d="M48.5,7 L533.5,7 A12.5,12.5 0 0 1 546,19.5 L546,33.2969 L36,33.2969 L36,19.5 A12.5,12.5 0 0 1 48.5,7" fill="#F1F1F1"/><rect fill="none" height="583.2969" rx="12.5" ry="12.5" style="stroke:#181818;stroke-width:0.5;" width="510" x="36" y="7"/><line style="stroke:#181818;stroke-width:0.5;" x1="36" x2="546" y1="33.2969" y2="33.2969"/><text fill="#000000" font-family="sans-serif" font-size="14" lengthAdjust="spacing" textLength="126.6836" x="227.6582" y="24.9951">eliminarDocente()</text><g id="eliminarDocente.ConfirmandoEliminacion"><rect fill="#F1F1F1" height="50" rx="12.5" ry="12.5" style="stroke:#181818;stroke-width:0.5;" width="50" x="48" y="135.2969"/><line style="stroke:#181818;stroke-width:0.5;" x1="48" x2="98" y1="161.5938" y2="161.5938"/><text fill="#000000" font-family="sans-serif" font-size="14" lengthAdjust="spacing" textLength="4.4502" x="70.7749" y="153.292">&#160;</text></g><g id="eliminarDocente.EliminandoDocente"><rect fill="#F1F1F1" height="50" rx="12.5" ry="12.5" style="stroke:#181818;stroke-width:0.5;" width="50" x="48" y="407.2969"/><line style="stroke:#181818;stroke-width:0.5;" x1="48" x2="98" y1="433.5938" y2="433.5938"/><text fill="#000000" font-family="sans-serif" font-size="14" lengthAdjust="spacing" textLength="4.4502" x="70.7749" y="425.292">&#160;</text></g><ellipse cx="73" cy="54.2969" fill="#222222" rx="10" ry="10" style="stroke:#222222;stroke-width:1;"/><ellipse cx="73" cy="569.2969" fill="none" rx="11" ry="11" style="stroke:#222222;stroke-width:1;"/><ellipse cx="73" cy="569.2969" fill="#222222" rx="6" ry="6" style="stroke:#222222;stroke-width:1;"/><!--link *start*eliminarDocente to ConfirmandoEliminacion--><g class="link" data-entity-1=".start.eliminarDocente" data-entity-2="ConfirmandoEliminacion" data-source-line="8" data-uid="lnk3" id="link_.start.eliminarDocente_ConfirmandoEliminacion"><path d="M73,64.5269 C73,80.2369 73,106.6569 73,129.1669" fill="none" id="*start*eliminarDocente-to-ConfirmandoEliminacion" style="stroke:#008000;stroke-width:1;"/><polygon fill="#008000" points="73,135.1669,77,126.1669,73,130.1669,69,126.1669,73,135.1669" style="stroke:#008000;stroke-width:1;"/><path d="M78,87.2969 L78,112.2969 L463,112.2969 L463,97.2969 L453,87.2969 L78,87.2969" fill="#FEFFDD" style="stroke:#181818;stroke-width:0.5;"/><path d="M453,87.2969 L453,97.2969 L463,97.2969 L453,87.2969" fill="#FEFFDD" style="stroke:#181818;stroke-width:0.5;"/><text fill="#000000" font-family="sans-serif" font-size="13" font-weight="bold" lengthAdjust="spacing" textLength="200.5542" x="84" y="104.3638">Administrador institucional</text><text fill="#000000" font-family="sans-serif" font-size="13" lengthAdjust="spacing" textLength="159.7705" x="288.6865" y="104.3638">solicita eliminar docente</text></g><!--link ConfirmandoEliminacion to EliminandoDocente--><g class="link" data-entity-1="ConfirmandoEliminacion" data-entity-2="EliminandoDocente" data-source-line="13" data-uid="lnk4" id="link_ConfirmandoEliminacion_EliminandoDocente"><path d="M73,185.7369 C73,237.1369 73,349.9269 73,401.1069" fill="none" id="ConfirmandoEliminacion-to-EliminandoDocente" style="stroke:#008000;stroke-width:1;"/><polygon fill="#008000" points="73,407.1069,77,398.1069,73,402.1069,69,398.1069,73,407.1069" style="stroke:#008000;stroke-width:1;"/><path d="M78,208.2969 L78,384.2969 L447,384.2969 L447,218.2969 L437,208.2969 L78,208.2969" fill="#FEFFDD" style="stroke:#181818;stroke-width:0.5;"/><path d="M437,208.2969 L437,218.2969 L447,218.2969 L437,208.2969" fill="#FEFFDD" style="stroke:#181818;stroke-width:0.5;"/><text fill="#000000" font-family="sans-serif" font-size="13" font-weight="bold" lengthAdjust="spacing" textLength="58.9063" x="84" y="225.3638">Sistema</text><text fill="#000000" font-family="sans-serif" font-size="13" lengthAdjust="spacing" textLength="285.1875" x="147.0386" y="225.3638">presenta informaci&#243;n del alumno a eliminar</text><text fill="#000000" font-family="sans-serif" font-size="13" lengthAdjust="spacing" textLength="63.7368" x="84" y="240.4966">&#8226; Nombre</text><text fill="#000000" font-family="sans-serif" font-size="13" lengthAdjust="spacing" textLength="70.7573" x="84" y="255.6294">&#8226; Apellidos</text><text fill="#000000" font-family="sans-serif" font-size="13" lengthAdjust="spacing" textLength="35.3691" x="84" y="270.7622">&#8226; DNI</text><text fill="#000000" font-family="sans-serif" font-size="13" lengthAdjust="spacing" textLength="134.894" x="84" y="285.895">&#8226; nombre de usuario</text><text fill="#000000" font-family="sans-serif" font-size="13" lengthAdjust="spacing" textLength="47.8677" x="84" y="301.0278">&#8226; Email</text><text fill="#000000" font-family="sans-serif" font-size="13" lengthAdjust="spacing" textLength="73.3345" x="84" y="316.1606">&#8226; Password</text><text fill="#000000" font-family="sans-serif" font-size="13" lengthAdjust="spacing" textLength="4.1323" x="84" y="331.2935">&#160;</text><text fill="#000000" font-family="sans-serif" font-size="13" lengthAdjust="spacing" textLength="249.6724" x="84" y="346.4263">&#8226; Presenta advertencia de eliminaci&#243;n</text><text fill="#000000" font-family="sans-serif" font-size="13" lengthAdjust="spacing" textLength="263.3706" x="84" y="361.5591">&#8226; Permite solicitar confirmar eliminaci&#243;n</text><text fill="#000000" font-family="sans-serif" font-size="13" lengthAdjust="spacing" textLength="255.9438" x="84" y="376.6919">&#8226; Permite solicitar cancelar eliminaci&#243;n</text></g><!--link EliminandoDocente to *end*eliminarDocente--><g class="link" data-entity-1="EliminandoDocente" data-entity-2=".end.eliminarDocente" data-source-line="28" data-uid="lnk6" id="link_EliminandoDocente_.end.eliminarDocente"><path d="M73,457.7469 C73,487.5269 73,530.5069 73,551.8369" fill="none" id="EliminandoDocente-to-*end*eliminarDocente" style="stroke:#008000;stroke-width:1;"/><polygon fill="#008000" points="73,557.8369,77,548.8369,73,552.8369,69,548.8369,73,557.8369" style="stroke:#008000;stroke-width:1;"/><path d="M78,480.2969 L78,535.2969 L537,535.2969 L537,490.2969 L527,480.2969 L78,480.2969" fill="#FEFFDD" style="stroke:#181818;stroke-width:0.5;"/><path d="M527,480.2969 L527,490.2969 L537,490.2969 L527,480.2969" fill="#FEFFDD" style="stroke:#181818;stroke-width:0.5;"/><text fill="#000000" font-family="sans-serif" font-size="13" font-weight="bold" lengthAdjust="spacing" textLength="200.5542" x="84" y="497.3638">Administrador institucional</text><text fill="#000000" font-family="sans-serif" font-size="13" lengthAdjust="spacing" textLength="233.5303" x="288.6865" y="497.3638">solicita confirmaci&#243;n de eliminaci&#243;n</text><text fill="#000000" font-family="sans-serif" font-size="13" font-weight="bold" lengthAdjust="spacing" textLength="58.9063" x="84" y="512.4966">Sistema</text><text fill="#000000" font-family="sans-serif" font-size="13" lengthAdjust="spacing" textLength="251.9829" x="147.0386" y="512.4966">permite solicitar confirmar eliminaci&#243;n</text><text fill="#000000" font-family="sans-serif" font-size="13" font-weight="bold" lengthAdjust="spacing" textLength="200.5542" x="84" y="527.6294">Administrador institucional</text><text fill="#000000" font-family="sans-serif" font-size="13" lengthAdjust="spacing" textLength="191.5405" x="288.6865" y="527.6294">solicita confirmar eliminaci&#243;n</text></g><g id="DOCENTES_ABIERTO"><rect fill="#F1F1F1" height="50" rx="12.5" ry="12.5" style="stroke:#181818;stroke-width:0.5;" width="165.6328" x="208.18" y="685.3"/><line style="stroke:#181818;stroke-width:0.5;" x1="208.18" x2="373.8128" y1="711.5969" y2="711.5969"/><text fill="#000000" font-family="sans-serif" font-size="14" lengthAdjust="spacing" textLength="145.6328" x="218.18" y="703.2951">DOCENTES_ABIERTO</text></g><!--link DOCENTES_ABIERTO to eliminarDocente--><g class="link" data-entity-1="DOCENTES_ABIERTO" data-entity-2="eliminarDocente" data-source-line="36" data-uid="lnk8" id="link_DOCENTES_ABIERTO_eliminarDocente"><path d="M374.15,692.73 C453.81,676.86 562,655.3 562,655.3 C562,655.3 562,620.3 562,620.3 C562,620.3 556.3425,613.613 540.8625,595.293" fill="none" id="DOCENTES_ABIERTO-to-eliminarDocente" style="stroke:#008000;stroke-width:1;"/><polygon fill="#008000" points="536.99,590.71,539.7435,600.1661,540.2171,594.5291,545.8541,595.0028,536.99,590.71" style="stroke:#008000;stroke-width:1;"/></g><!--link eliminarDocente to DOCENTES_ABIERTO--><g class="link" data-entity-1="eliminarDocente" data-entity-2="DOCENTES_ABIERTO" data-source-line="38" data-uid="lnk9" id="link_eliminarDocente_DOCENTES_ABIERTO"><path d="M35.69,586.89 C17.42,607.45 6,620.3 6,620.3 C6,620.3 6,655.3 6,655.3 C6,655.3 117.7849,676.4829 201.9049,692.4229" fill="none" id="eliminarDocente-to-DOCENTES_ABIERTO" style="stroke:#008000;stroke-width:1;"/><polygon fill="#008000" points="207.8,693.54,199.7021,687.9343,202.8874,692.6091,198.2126,695.7945,207.8,693.54" style="stroke:#008000;stroke-width:1;"/><path d="M11,625.3 L11,650.3 L243,650.3 L243,635.3 L233,625.3 L11,625.3" fill="#FEFFDD" style="stroke:#181818;stroke-width:0.5;"/><path d="M233,625.3 L233,635.3 L243,635.3 L233,625.3" fill="#FEFFDD" style="stroke:#181818;stroke-width:0.5;"/><text fill="#000000" font-family="sans-serif" font-size="13" lengthAdjust="spacing" textLength="211.1929" x="17" y="642.3669">verDocentes() - lista actualizada</text></g><!--link eliminarDocente to DOCENTES_ABIERTO--><g class="link" data-entity-1="eliminarDocente" data-entity-2="DOCENTES_ABIERTO" data-source-line="43" data-uid="lnk10" id="link_eliminarDocente_DOCENTES_ABIERTO"><path d="M284.65,590.71 C284.25,609.03 284,620.3 284,620.3 C284,620.3 284,655.3 284,655.3 C284,655.3 285.2097,664.5897 287.0597,678.8797" fill="none" id="eliminarDocente-to-DOCENTES_ABIERTO-1" style="stroke:#0000FF;stroke-width:1;"/><polygon fill="#0000FF" points="287.83,684.83,290.6414,675.3909,287.1881,679.8714,282.7076,676.418,287.83,684.83" style="stroke:#0000FF;stroke-width:1;"/><path d="M289,625.3 L289,650.3 L549,650.3 L549,635.3 L539,625.3 L289,625.3" fill="#FEFFDD" style="stroke:#181818;stroke-width:0.5;"/><path d="M539,625.3 L539,635.3 L549,635.3 L539,625.3" fill="#FEFFDD" style="stroke:#181818;stroke-width:0.5;"/><text fill="#000000" font-family="sans-serif" font-size="13" lengthAdjust="spacing" textLength="239.5605" x="295" y="642.3669">verDocentes() - cancelar eliminaci&#243;n</text></g><!--SRC=[fLDTJkD037wVKrZT5rYfsWkWIeNcWPUoMdX3QELc3BAOUAAP2GWG4cVX2XnXRy99rWbDqgOHuYSZHRBdi_tvioTUivGOi037Gkck92YzkwiDOsB2H42E2nOC2v-Jg8qH9WFVtlu47em1_TvY9deKT-JbaaE1Odts5f6pbrtS-b9XwuGDfFcT_xo0wVcFgq0a5zFPUod5QqOlTIVNZUDWDPjRXN1C0QqFm18JfwgEG7VmQpM3w1tddB3h4km60nBRPEtfZ9VVOZZUp1YvKoL61JP4oa1HmQWSBxqMoFdVYu0b1-YgGZpq59lmrwTdMFfY5QWpvoKvnzR7phDO7aDdI8FMb5352WFxxYOha5qF_8qntlfWeM-xSRSCqTvGI2GvOvsDMXsKS0-cKB1stEeR85yh5puSW9AJ6yFlZcL7yws9w0vzVq5Q_krWTcaD9_eP2Rx2v3rb7erPd1nboxFizE_yy3ZxStQo9SdW0HipVEMRu64cioMaBiCwAExjmrITiLwIF5Ne-1ujcexLM9MLg-ZpHSQNeotq7m00]--></g></svg>