<svg xmlns="http://www.w3.org/2000/svg" xmlns:xlink="http://www.w3.org/1999/xlink" contentStyleType="text/css" data-diagram-type="STATE" height="726px" preserveAspectRatio="none" style="width:530px;height:726px;background:#FFFFFF;" version="1.1" viewBox="0 0 530 726" width="530px" zoomAndPan="magnify"><defs/><g><path d="M19.5,7 L504.5,7 A12.5,12.5 0 0 1 517,19.5 L517,33.2969 L7,33.2969 L7,19.5 A12.5,12.5 0 0 1 19.5,7" fill="#F1F1F1"/><rect fill="none" height="568.2969" rx="12.5" ry="12.5" style="stroke:#181818;stroke-width:0.5;" width="510" x="7" y="7"/><line style="stroke:#181818;stroke-width:0.5;" x1="7" x2="517" y1="33.2969" y2="33.2969"/><text fill="#000000" font-family="sans-serif" font-size="14" lengthAdjust="spacing" textLength="126.6836" x="198.6582" y="24.9951">eliminarDocente()</text><g id="eliminarDocente.ConfirmandoEliminacion"><rect fill="#F1F1F1" height="50" rx="12.5" ry="12.5" style="stroke:#181818;stroke-width:0.5;" width="50" x="19" y="135.2969"/><line style="stroke:#181818;stroke-width:0.5;" x1="19" x2="69" y1="161.5938" y2="161.5938"/><text fill="#000000" font-family="sans-serif" font-size="14" lengthAdjust="spacing" textLength="4.4502" x="41.7749" y="153.292">&#160;</text></g><g id="eliminarDocente.EliminandoDocente"><rect fill="#F1F1F1" height="50" rx="12.5" ry="12.5" style="stroke:#181818;stroke-width:0.5;" width="50" x="19" y="407.2969"/><line style="stroke:#181818;stroke-width:0.5;" x1="19" x2="69" y1="433.5938" y2="433.5938"/><text fill="#000000" font-family="sans-serif" font-size="14" lengthAdjust="spacing" textLength="4.4502" x="41.7749" y="425.292">&#160;</text></g><ellipse cx="44" cy="54.2969" fill="#222222" rx="10" ry="10" style="stroke:#222222;stroke-width:1;"/><ellipse cx="44" cy="554.2969" fill="none" rx="11" ry="11" style="stroke:#222222;stroke-width:1;"/><ellipse cx="44" cy="554.2969" fill="#222222" rx="6" ry="6" style="stroke:#222222;stroke-width:1;"/><!--link *start*eliminarDocente to ConfirmandoEliminacion--><g class="link" data-entity-1=".start.eliminarDocente" data-entity-2="ConfirmandoEliminacion" data-source-line="8" data-uid="lnk3" id="link_.start.eliminarDocente_ConfirmandoEliminacion"><path d="M44,64.5269 C44,80.2369 44,106.6569 44,129.1669" fill="none" id="*start*eliminarDocente-to-ConfirmandoEliminacion" style="stroke:#008000;stroke-width:1;"/><polygon fill="#008000" points="44,135.1669,48,126.1669,44,130.1669,40,126.1669,44,135.1669" style="stroke:#008000;stroke-width:1;"/><path d="M49,87.2969 L49,112.2969 L434,112.2969 L434,97.2969 L424,87.2969 L49,87.2969" fill="#FEFFDD" style="stroke:#181818;stroke-width:0.5;"/><path d="M424,87.2969 L424,97.2969 L434,97.2969 L424,87.2969" fill="#FEFFDD" style="stroke:#181818;stroke-width:0.5;"/><text fill="#000000" font-family="sans-serif" font-size="13" font-weight="bold" lengthAdjust="spacing" textLength="200.5542" x="55" y="104.3638">Administrador institucional</text><text fill="#000000" font-family="sans-serif" font-size="13" lengthAdjust="spacing" textLength="159.7705" x="259.6865" y="104.3638">solicita eliminar docente</text></g><!--link ConfirmandoEliminacion to EliminandoDocente--><g class="link" data-entity-1="ConfirmandoEliminacion" data-entity-2="EliminandoDocente" data-source-line="13" data-uid="lnk4" id="link_ConfirmandoEliminacion_EliminandoDocente"><path d="M44,185.7369 C44,237.1369 44,349.9269 44,401.1069" fill="none" id="ConfirmandoEliminacion-to-EliminandoDocente" style="stroke:#008000;stroke-width:1;"/><polygon fill="#008000" points="44,407.1069,48,398.1069,44,402.1069,40,398.1069,44,407.1069" style="stroke:#008000;stroke-width:1;"/><path d="M49,208.2969 L49,384.2969 L422,384.2969 L422,218.2969 L412,208.2969 L49,208.2969" fill="#FEFFDD" style="stroke:#181818;stroke-width:0.5;"/><path d="M412,208.2969 L412,218.2969 L422,218.2969 L412,208.2969" fill="#FEFFDD" style="stroke:#181818;stroke-width:0.5;"/><text fill="#000000" font-family="sans-serif" font-size="13" font-weight="bold" lengthAdjust="spacing" textLength="58.9063" x="55" y="225.3638">Sistema</text><text fill="#000000" font-family="sans-serif" font-size="13" lengthAdjust="spacing" textLength="289.1992" x="118.0386" y="225.3638">presenta informaci&#243;n del docente a eliminar</text><text fill="#000000" font-family="sans-serif" font-size="13" lengthAdjust="spacing" textLength="63.7368" x="55" y="240.4966">&#8226; Nombre</text><text fill="#000000" font-family="sans-serif" font-size="13" lengthAdjust="spacing" textLength="70.7573" x="55" y="255.6294">&#8226; Apellidos</text><text fill="#000000" font-family="sans-serif" font-size="13" lengthAdjust="spacing" textLength="35.3691" x="55" y="270.7622">&#8226; DNI</text><text fill="#000000" font-family="sans-serif" font-size="13" lengthAdjust="spacing" textLength="136.3794" x="55" y="285.895">&#8226; Nombre de usuario</text><text fill="#000000" font-family="sans-serif" font-size="13" lengthAdjust="spacing" textLength="47.8677" x="55" y="301.0278">&#8226; Email</text><text fill="#000000" font-family="sans-serif" font-size="13" lengthAdjust="spacing" textLength="73.3345" x="55" y="316.1606">&#8226; Password</text><text fill="#000000" font-family="sans-serif" font-size="13" lengthAdjust="spacing" textLength="4.1323" x="55" y="331.2935">&#160;</text><text fill="#000000" font-family="sans-serif" font-size="13" lengthAdjust="spacing" textLength="249.6724" x="55" y="346.4263">&#8226; Presenta advertencia de eliminaci&#243;n</text><text fill="#000000" font-family="sans-serif" font-size="13" lengthAdjust="spacing" textLength="263.3706" x="55" y="361.5591">&#8226; Permite solicitar confirmar eliminaci&#243;n</text><text fill="#000000" font-family="sans-serif" font-size="13" lengthAdjust="spacing" textLength="255.9438" x="55" y="376.6919">&#8226; Permite solicitar cancelar eliminaci&#243;n</text></g><!--link EliminandoDocente to *end*eliminarDocente--><g class="link" data-entity-1="EliminandoDocente" data-entity-2=".end.eliminarDocente" data-source-line="28" data-uid="lnk6" id="link_EliminandoDocente_.end.eliminarDocente"><path d="M44,457.5769 C44,483.8769 44,518.5669 44,537.2769" fill="none" id="EliminandoDocente-to-*end*eliminarDocente" style="stroke:#008000;stroke-width:1;"/><polygon fill="#008000" points="44,543.2769,48,534.2769,44,538.2769,40,534.2769,44,543.2769" style="stroke:#008000;stroke-width:1;"/><path d="M49,480.2969 L49,520.2969 L508,520.2969 L508,490.2969 L498,480.2969 L49,480.2969" fill="#FEFFDD" style="stroke:#181818;stroke-width:0.5;"/><path d="M498,480.2969 L498,490.2969 L508,490.2969 L498,480.2969" fill="#FEFFDD" style="stroke:#181818;stroke-width:0.5;"/><text fill="#000000" font-family="sans-serif" font-size="13" font-weight="bold" lengthAdjust="spacing" textLength="200.5542" x="55" y="497.3638">Administrador institucional</text><text fill="#000000" font-family="sans-serif" font-size="13" lengthAdjust="spacing" textLength="233.5303" x="259.6865" y="497.3638">solicita confirmaci&#243;n de eliminaci&#243;n</text><text fill="#000000" font-family="sans-serif" font-size="13" font-weight="bold" lengthAdjust="spacing" textLength="58.9063" x="55" y="512.4966">Sistema</text><text fill="#000000" font-family="sans-serif" font-size="13" lengthAdjust="spacing" textLength="136.2905" x="118.0386" y="512.4966">confirma eliminaci&#243;n</text></g><g id="DOCENTES_ABIERTO"><rect fill="#F1F1F1" height="50" rx="12.5" ry="12.5" style="stroke:#181818;stroke-width:0.5;" width="165.6328" x="179" y="670"/><line style="stroke:#181818;stroke-width:0.5;" x1="179" x2="344.6328" y1="696.2969" y2="696.2969"/><text fill="#000000" font-family="sans-serif" font-size="14" lengthAdjust="spacing" textLength="145.6328" x="189" y="687.9951">DOCENTES_ABIERTO</text></g><!--link DOCENTES_ABIERTO to eliminarDocente--><g class="link" data-entity-1="DOCENTES_ABIERTO" data-entity-2="eliminarDocente" data-source-line="35" data-uid="lnk8" id="link_DOCENTES_ABIERTO_eliminarDocente"><path d="M336.26,669.84 C380.46,655.47 428,640 428,640 C428,640 428,605 428,605 C428,605 424.7917,598.9504 415.0417,580.5704" fill="none" id="DOCENTES_ABIERTO-to-eliminarDocente" style="stroke:#008000;stroke-width:1;"/><polygon fill="#008000" points="412.23,575.27,412.9139,585.0951,414.5731,579.687,419.9812,581.3462,412.23,575.27" style="stroke:#008000;stroke-width:1;"/></g><!--link eliminarDocente to DOCENTES_ABIERTO--><g class="link" data-entity-1="eliminarDocente" data-entity-2="DOCENTES_ABIERTO" data-source-line="37" data-uid="lnk9" id="link_eliminarDocente_DOCENTES_ABIERTO"><path d="M100,575.27 C89.49,593.65 83,605 83,605 C83,605 83,640 83,640 C83,640 128.7057,653.787 176.4357,668.187" fill="none" id="eliminarDocente-to-DOCENTES_ABIERTO" style="stroke:#008000;stroke-width:1;"/><polygon fill="#008000" points="182.18,669.92,174.719,663.4909,177.3931,668.4758,172.4082,671.15,182.18,669.92" style="stroke:#008000;stroke-width:1;"/><path d="M88,610 L88,635 L214,635 L214,620 L204,610 L88,610" fill="#FEFFDD" style="stroke:#181818;stroke-width:0.5;"/><path d="M204,610 L204,620 L214,620 L204,610" fill="#FEFFDD" style="stroke:#181818;stroke-width:0.5;"/><text fill="#000000" font-family="sans-serif" font-size="13" lengthAdjust="spacing" textLength="105.8408" x="94" y="627.0669">lista actualizada</text></g><!--link eliminarDocente to DOCENTES_ABIERTO--><g class="link" data-entity-1="eliminarDocente" data-entity-2="DOCENTES_ABIERTO" data-source-line="42" data-uid="lnk10" id="link_eliminarDocente_DOCENTES_ABIERTO"><path d="M255.66,575.27 C255.25,593.65 255,605 255,605 C255,605 255,640 255,640 C255,640 256.2257,649.5202 258.0957,663.8902" fill="none" id="eliminarDocente-to-DOCENTES_ABIERTO-1" style="stroke:#0000FF;stroke-width:1;"/><polygon fill="#0000FF" points="258.87,669.84,261.6752,660.3991,258.2248,664.8818,253.742,661.4314,258.87,669.84" style="stroke:#0000FF;stroke-width:1;"/><path d="M260,610 L260,635 L415,635 L415,620 L405,610 L260,610" fill="#FEFFDD" style="stroke:#181818;stroke-width:0.5;"/><path d="M405,610 L405,620 L415,620 L405,610" fill="#FEFFDD" style="stroke:#181818;stroke-width:0.5;"/><text fill="#000000" font-family="sans-serif" font-size="13" lengthAdjust="spacing" textLength="134.2085" x="266" y="627.0669">cancelar eliminaci&#243;n</text></g><!--SRC=[fPDHIiD048RVznH3VL51l40fL9i7Nrgnled8D3kLePlTiBjHL0JFuXKyWZVn94vZapHfg88917Rsdt-_cSc65TiSFMPWs59yoWboPvxM2wL2n4X0XZEsw2Sk9Ijh333en0wF1l2Y5CZpapEGLtJdpYxPPsYrItuoKdPsLxVP5Dd6i9IKdvlZMpYvERZtHFRsPBJFqZfnT7PToQeC31UZiHO9X-XHEmziG-HOh3FG34yN8mZESCeHwof1Rn6GrQLhWzD_V8kmlvW-kBc0KOObIEufY1Y5SUdaW9G_FoneCXKGD8nb_jVREqnTjl1KBySv6SFQXJeocLv0HosUK8G2FRjw9ycGJIEyn10UdTVGr5s6AqJK3-GZsPHnxKPL8uIu4PFFMAYh1dj8DwtpVqv0cvBfq-_EPQVfhP78J_J_FwJYhoQpYzKPQPMmX_zLgSdiF9bU9_ExyTb5SdKzQu5txfbItSkuBUuwgLQvHiXaT6aiqF0pQbGrHP_hmXJqksd_Y2hZRm00]--></g></svg>