<svg xmlns="http://www.w3.org/2000/svg" xmlns:xlink="http://www.w3.org/1999/xlink" contentStyleType="text/css" data-diagram-type="STATE" height="811px" preserveAspectRatio="none" style="width:932px;height:811px;background:#FFFFFF;" version="1.1" viewBox="0 0 932 811" width="932px" zoomAndPan="magnify"><defs/><g><g id="RESPUESTAS_ABIERTO"><rect fill="#F1F1F1" height="50" rx="12.5" ry="12.5" style="stroke:#181818;stroke-width:0.5;" width="179.3525" x="283.58" y="7"/><line style="stroke:#181818;stroke-width:0.5;" x1="283.58" x2="462.9325" y1="33.2969" y2="33.2969"/><text fill="#000000" font-family="sans-serif" font-size="14" lengthAdjust="spacing" textLength="159.3525" x="293.58" y="24.9951">RESPUESTAS_ABIERTO</text></g><g id="RESPUESTAS_CONTEXTUALES_ABIERTO"><rect fill="#F1F1F1" height="50" rx="12.5" ry="12.5" style="stroke:#181818;stroke-width:0.5;" width="298.5166" x="7" y="755.3"/><line style="stroke:#181818;stroke-width:0.5;" x1="7" x2="305.5166" y1="781.5969" y2="781.5969"/><text fill="#000000" font-family="sans-serif" font-size="14" lengthAdjust="spacing" textLength="278.5166" x="17" y="773.2951">RESPUESTAS_CONTEXTUALES_ABIERTO</text></g><path d="M183.76,152 L562.76,152 A12.5,12.5 0 0 1 575.26,164.5 L575.26,178.2969 L171.26,178.2969 L171.26,164.5 A12.5,12.5 0 0 1 183.76,152" fill="#F1F1F1"/><rect fill="none" height="508.2969" rx="12.5" ry="12.5" style="stroke:#181818;stroke-width:0.5;" width="404" x="171.26" y="152"/><line style="stroke:#181818;stroke-width:0.5;" x1="171.26" x2="575.26" y1="178.2969" y2="178.2969"/><text fill="#000000" font-family="sans-serif" font-size="14" lengthAdjust="spacing" textLength="120.6953" x="312.9123" y="169.9951">crearRespuesta()</text><g id="crearRespuesta.SolicitandoDatosRespuesta"><rect fill="#F1F1F1" height="50" rx="12.5" ry="12.5" style="stroke:#181818;stroke-width:0.5;" width="50" x="183.26" y="280.2969"/><line style="stroke:#181818;stroke-width:0.5;" x1="183.26" x2="233.26" y1="306.5938" y2="306.5938"/><text fill="#000000" font-family="sans-serif" font-size="14" lengthAdjust="spacing" textLength="4.4502" x="206.0349" y="298.292">&#160;</text></g><g id="crearRespuesta.ProcesandoCreacion"><rect fill="#F1F1F1" height="50" rx="12.5" ry="12.5" style="stroke:#181818;stroke-width:0.5;" width="50" x="183.26" y="492.2969"/><line style="stroke:#181818;stroke-width:0.5;" x1="183.26" x2="233.26" y1="518.5938" y2="518.5938"/><text fill="#000000" font-family="sans-serif" font-size="14" lengthAdjust="spacing" textLength="4.4502" x="206.0349" y="510.292">&#160;</text></g><ellipse cx="208.26" cy="199.2969" fill="#222222" rx="10" ry="10" style="stroke:#222222;stroke-width:1;"/><ellipse cx="208.26" cy="639.2969" fill="none" rx="11" ry="11" style="stroke:#222222;stroke-width:1;"/><ellipse cx="208.26" cy="639.2969" fill="#222222" rx="6" ry="6" style="stroke:#222222;stroke-width:1;"/><!--link *start*crearRespuesta to SolicitandoDatosRespuesta--><g class="link" data-entity-1=".start.crearRespuesta" data-entity-2="SolicitandoDatosRespuesta" data-source-line="14" data-uid="lnk5" id="link_.start.crearRespuesta_SolicitandoDatosRespuesta"><path d="M208.26,209.5269 C208.26,225.2369 208.26,251.6569 208.26,274.1669" fill="none" id="*start*crearRespuesta-to-SolicitandoDatosRespuesta" style="stroke:#008000;stroke-width:1;"/><polygon fill="#008000" points="208.26,280.1669,212.26,271.1669,208.26,275.1669,204.26,271.1669,208.26,280.1669" style="stroke:#008000;stroke-width:1;"/><path d="M213.26,232.2969 L213.26,257.2969 L495.26,257.2969 L495.26,242.2969 L485.26,232.2969 L213.26,232.2969" fill="#FEFFDD" style="stroke:#181818;stroke-width:0.5;"/><path d="M485.26,232.2969 L485.26,242.2969 L495.26,242.2969 L485.26,232.2969" fill="#FEFFDD" style="stroke:#181818;stroke-width:0.5;"/><text fill="#000000" font-family="sans-serif" font-size="13" font-weight="bold" lengthAdjust="spacing" textLength="60.5313" x="219.26" y="249.3638">Docente</text><text fill="#000000" font-family="sans-serif" font-size="13" lengthAdjust="spacing" textLength="196.5488" x="283.9236" y="249.3638">solicita crear nueva respuesta</text></g><!--link SolicitandoDatosRespuesta to ProcesandoCreacion--><g class="link" data-entity-1="SolicitandoDatosRespuesta" data-entity-2="ProcesandoCreacion" data-source-line="19" data-uid="lnk6" id="link_SolicitandoDatosRespuesta_ProcesandoCreacion"><path d="M208.26,330.3869 C208.26,370.6769 208.26,445.3069 208.26,485.8369" fill="none" id="SolicitandoDatosRespuesta-to-ProcesandoCreacion" style="stroke:#008000;stroke-width:1;"/><polygon fill="#008000" points="208.26,491.8369,212.26,482.8369,208.26,486.8369,204.26,482.8369,208.26,491.8369" style="stroke:#008000;stroke-width:1;"/><path d="M213.26,353.2969 L213.26,469.2969 L566.26,469.2969 L566.26,363.2969 L556.26,353.2969 L213.26,353.2969" fill="#FEFFDD" style="stroke:#181818;stroke-width:0.5;"/><path d="M556.26,353.2969 L556.26,363.2969 L566.26,363.2969 L556.26,353.2969" fill="#FEFFDD" style="stroke:#181818;stroke-width:0.5;"/><text fill="#000000" font-family="sans-serif" font-size="13" font-weight="bold" lengthAdjust="spacing" textLength="58.9063" x="219.26" y="370.3638">Sistema</text><text fill="#000000" font-family="sans-serif" font-size="13" lengthAdjust="spacing" textLength="269.2612" x="282.2986" y="370.3638">presenta una solicitud de datos m&#237;nimos:</text><line style="stroke:#181818;stroke-width:1;" x1="214.26" x2="565.5598" y1="373.4297" y2="373.4297"/><text fill="#000000" font-family="sans-serif" font-size="13" font-weight="bold" lengthAdjust="spacing" textLength="81.8657" x="219.26" y="389.4966">Respuesta:</text><text fill="#000000" font-family="sans-serif" font-size="13" lengthAdjust="spacing" textLength="162.1064" x="219.26" y="404.6294">&#8226; Contenido (obligatorio)</text><text fill="#000000" font-family="sans-serif" font-size="13" lengthAdjust="spacing" textLength="230.293" x="219.26" y="419.7622">&#8226; Correcto/no correcto (obligatorio)</text><line style="stroke:#181818;stroke-width:1;" x1="214.26" x2="565.5598" y1="426.8281" y2="426.8281"/><text fill="#000000" font-family="sans-serif" font-size="13" lengthAdjust="spacing" textLength="224.1104" x="219.26" y="442.895">&#8226; Permite solicitar crear respuesta</text><text fill="#000000" font-family="sans-serif" font-size="13" lengthAdjust="spacing" textLength="245.7559" x="219.26" y="458.0278">&#8226; Permite solicitar cancelar operaci&#243;n</text></g><!--link ProcesandoCreacion to *end*crearRespuesta--><g class="link" data-entity-1="ProcesandoCreacion" data-entity-2=".end.crearRespuesta" data-source-line="31" data-uid="lnk8" id="link_ProcesandoCreacion_.end.crearRespuesta"><path d="M208.26,542.5769 C208.26,568.7469 208.26,603.1469 208.26,621.9769" fill="none" id="ProcesandoCreacion-to-*end*crearRespuesta" style="stroke:#008000;stroke-width:1;"/><polygon fill="#008000" points="208.26,627.9769,212.26,618.9769,208.26,622.9769,204.26,618.9769,208.26,627.9769" style="stroke:#008000;stroke-width:1;"/><path d="M213.26,565.2969 L213.26,605.2969 L536.26,605.2969 L536.26,575.2969 L526.26,565.2969 L213.26,565.2969" fill="#FEFFDD" style="stroke:#181818;stroke-width:0.5;"/><path d="M526.26,565.2969 L526.26,575.2969 L536.26,575.2969 L526.26,565.2969" fill="#FEFFDD" style="stroke:#181818;stroke-width:0.5;"/><text fill="#000000" font-family="sans-serif" font-size="13" font-weight="bold" lengthAdjust="spacing" textLength="60.5313" x="219.26" y="582.3638">Docente</text><text fill="#000000" font-family="sans-serif" font-size="13" lengthAdjust="spacing" textLength="177.8423" x="283.9236" y="582.3638">proporciona datos m&#237;nimos</text><text fill="#000000" font-family="sans-serif" font-size="13" font-weight="bold" lengthAdjust="spacing" textLength="58.9063" x="219.26" y="597.4966">Sistema</text><text fill="#000000" font-family="sans-serif" font-size="13" lengthAdjust="spacing" textLength="238.9829" x="282.2986" y="597.4966">crea respuesta y transfiere a edici&#243;n</text></g><g id="RESPUESTA_ABIERTO"><rect fill="#F1F1F1" height="50" rx="12.5" ry="12.5" style="stroke:#181818;stroke-width:0.5;" width="170.4658" x="340.03" y="755.3"/><line style="stroke:#181818;stroke-width:0.5;" x1="340.03" x2="510.4958" y1="781.5969" y2="781.5969"/><text fill="#000000" font-family="sans-serif" font-size="14" lengthAdjust="spacing" textLength="150.4658" x="350.03" y="773.2951">RESPUESTA_ABIERTO</text></g><g id="RESPUESTA_CONTEXTUAL_ABIERTO"><rect fill="#F1F1F1" height="50" rx="12.5" ry="12.5" style="stroke:#181818;stroke-width:0.5;" width="271.8975" x="564.31" y="755.3"/><line style="stroke:#181818;stroke-width:0.5;" x1="564.31" x2="836.2075" y1="781.5969" y2="781.5969"/><text fill="#000000" font-family="sans-serif" font-size="14" lengthAdjust="spacing" textLength="251.8975" x="574.31" y="773.2951">RESPUESTA_CONTEXTUAL_ABIERTO</text></g><!--link RESPUESTAS_ABIERTO to crearRespuesta--><g class="link" data-entity-1="RESPUESTAS_ABIERTO" data-entity-2="crearRespuesta" data-source-line="6" data-uid="lnk2" id="link_RESPUESTAS_ABIERTO_crearRespuesta"><path d="M370.09,57.48 C368.23,71.76 366.26,87 366.26,87 C366.26,87 366.26,122 366.26,122 C366.26,122 366.3913,127.3518 366.8413,145.5018" fill="none" id="RESPUESTAS_ABIERTO-to-crearRespuesta" style="stroke:#008000;stroke-width:1;"/><polygon fill="#008000" points="366.99,151.5,370.7657,142.4036,366.8661,146.5015,362.7682,142.6019,366.99,151.5" style="stroke:#008000;stroke-width:1;"/></g><!--link crearRespuesta to RESPUESTAS_ABIERTO--><g class="link" data-entity-1="crearRespuesta" data-entity-2="RESPUESTAS_ABIERTO" data-source-line="48" data-uid="lnk13" id="link_crearRespuesta_RESPUESTAS_ABIERTO"><path d="M373.26,151.84 C373.26,113.23 373.26,85.09 373.26,63.42" fill="none" id="crearRespuesta-to-RESPUESTAS_ABIERTO" style="stroke:#0000FF;stroke-width:1;"/><polygon fill="#0000FF" points="373.26,57.42,369.26,66.42,373.26,62.42,377.26,66.42,373.26,57.42" style="stroke:#0000FF;stroke-width:1;"/><path d="M378.26,92 L378.26,117 L513.26,117 L513.26,102 L503.26,92 L378.26,92" fill="#FEFFDD" style="stroke:#181818;stroke-width:0.5;"/><path d="M503.26,92 L503.26,102 L513.26,102 L503.26,92" fill="#FEFFDD" style="stroke:#181818;stroke-width:0.5;"/><text fill="#000000" font-family="sans-serif" font-size="13" lengthAdjust="spacing" textLength="114.9624" x="384.26" y="109.0669">cancelar creaci&#243;n</text></g><!--link RESPUESTAS_CONTEXTUALES_ABIERTO to crearRespuesta--><g class="link" data-entity-1="RESPUESTAS_CONTEXTUALES_ABIERTO" data-entity-2="crearRespuesta" data-source-line="7" data-uid="lnk3" id="link_RESPUESTAS_CONTEXTUALES_ABIERTO_crearRespuesta"><path d="M228.31,754.83 C270.38,740.54 315.26,725.3 315.26,725.3 C315.26,725.3 319.0638,704.4427 325.9938,666.4327" fill="none" id="RESPUESTAS_CONTEXTUALES_ABIERTO-to-crearRespuesta" style="stroke:#008000;stroke-width:1;"/><polygon fill="#008000" points="327.07,660.53,321.5206,668.6666,326.1732,665.4489,329.3909,670.1015,327.07,660.53" style="stroke:#008000;stroke-width:1;"/></g><!--link crearRespuesta to RESPUESTAS_CONTEXTUALES_ABIERTO--><g class="link" data-entity-1="crearRespuesta" data-entity-2="RESPUESTAS_CONTEXTUALES_ABIERTO" data-source-line="53" data-uid="lnk14" id="link_crearRespuesta_RESPUESTAS_CONTEXTUALES_ABIERTO"><path d="M184.24,660.8 C170.71,678.95 162.26,690.3 162.26,690.3 C162.26,690.3 160.0721,722.6435 158.3021,748.9935" fill="none" id="crearRespuesta-to-RESPUESTAS_CONTEXTUALES_ABIERTO" style="stroke:#0000FF;stroke-width:1;"/><polygon fill="#0000FF" points="157.9,754.98,162.4942,746.2683,158.2351,749.9912,154.5122,745.7321,157.9,754.98" style="stroke:#0000FF;stroke-width:1;"/><path d="M167.26,695.3 L167.26,720.3 L302.26,720.3 L302.26,705.3 L292.26,695.3 L167.26,695.3" fill="#FEFFDD" style="stroke:#181818;stroke-width:0.5;"/><path d="M292.26,695.3 L292.26,705.3 L302.26,705.3 L292.26,695.3" fill="#FEFFDD" style="stroke:#181818;stroke-width:0.5;"/><text fill="#000000" font-family="sans-serif" font-size="13" lengthAdjust="spacing" textLength="114.9624" x="173.26" y="712.3669">cancelar creaci&#243;n</text></g><!--link crearRespuesta to RESPUESTA_ABIERTO--><g class="link" data-entity-1="crearRespuesta" data-entity-2="RESPUESTA_ABIERTO" data-source-line="38" data-uid="lnk10" id="link_crearRespuesta_RESPUESTA_ABIERTO"><path d="M396.35,660.53 C399.82,698.54 402.26,725.3 402.26,725.3 C402.26,725.3 406.3977,735.0203 412.4877,749.3103" fill="none" id="crearRespuesta-to-RESPUESTA_ABIERTO" style="stroke:#008000;stroke-width:1;"/><polygon fill="#008000" points="414.84,754.83,414.9913,744.9823,412.8797,750.2303,407.6317,748.1187,414.84,754.83" style="stroke:#008000;stroke-width:1;"/><path d="M407.26,695.3 L407.26,720.3 L652.26,720.3 L652.26,705.3 L642.26,695.3 L407.26,695.3" fill="#FEFFDD" style="stroke:#181818;stroke-width:0.5;"/><path d="M642.26,695.3 L642.26,705.3 L652.26,705.3 L642.26,695.3" fill="#FEFFDD" style="stroke:#181818;stroke-width:0.5;"/><text fill="#000000" font-family="sans-serif" font-size="13" lengthAdjust="spacing" textLength="224.8086" x="413.26" y="712.3669">editarRespuesta(nuevaRespuesta)</text></g><!--link crearRespuesta to RESPUESTA_CONTEXTUAL_ABIERTO--><g class="link" data-entity-1="crearRespuesta" data-entity-2="RESPUESTA_CONTEXTUAL_ABIERTO" data-source-line="43" data-uid="lnk12" id="link_crearRespuesta_RESPUESTA_CONTEXTUAL_ABIERTO"><path d="M575.63,606.11 C623.66,653.33 661.26,690.3 661.26,690.3 C661.26,690.3 675.6413,723.1347 687.1913,749.4847" fill="none" id="crearRespuesta-to-RESPUESTA_CONTEXTUAL_ABIERTO" style="stroke:#008000;stroke-width:1;"/><polygon fill="#008000" points="689.6,754.98,689.6504,745.1313,687.5927,750.4006,682.3234,748.3429,689.6,754.98" style="stroke:#008000;stroke-width:1;"/><path d="M680.26,695.3 L680.26,720.3 L925.26,720.3 L925.26,705.3 L915.26,695.3 L680.26,695.3" fill="#FEFFDD" style="stroke:#181818;stroke-width:0.5;"/><path d="M915.26,695.3 L915.26,705.3 L925.26,705.3 L915.26,695.3" fill="#FEFFDD" style="stroke:#181818;stroke-width:0.5;"/><text fill="#000000" font-family="sans-serif" font-size="13" lengthAdjust="spacing" textLength="224.8086" x="686.26" y="712.3669">editarRespuesta(nuevaRespuesta)</text></g><!--SRC=[hLJDQjj04BxlKmpk9Iw8t4Cmk8uEWT8Oou5226KjJSCIQKRihW8c5FeilVVKHyYRz4awAzkIDvPR1og1s9-Px_lcsnsvHqErjhg2qX3wTOrGSxaE4wMSrnvXaMRpspHRJhClqm_NwM9vSxWnk_cqJ3ylRwSVqpvA7MP2SlVkmIBIVJA1tAAs2tHrWmAe_W7tjzIje7WLj8DHl7Gs7i6pKY3F9cCahuHbN9hSU4q5NsdFhaS-29rRpj65o9b0vuPfWtVt_ZvIU1GIsd1YWMGAhZ-s2vUhoPKWayVByzK4t3PzKnDGWqyQR2GBgTZ0oAEwpt7UVNK3LHnJbHddiTAjgbeKY4GD3UcTnAQ00g48N52z_2HJiRjeavCasO5qAYu2Jhlw-_iFcB7KIwPWEEDLQHu4n1eUx-rRYxddSsB8j-E1q1rHI9cZhOnKiJFGRXsClJiIgId7KWPSenLNNdvHv7Jlyg5_aRro6KuwvTfopJQawrSE3haV2kdhW3LugybzDMWHD61X1XH_K-fLL-phx5gkwzb8iK3w_UvfRs4t7QkEvJIElgl_FzsgR31YouOvkYFEstCBVhqHTl1NToh77m00]--></g></svg>