<svg xmlns="http://www.w3.org/2000/svg" xmlns:xlink="http://www.w3.org/1999/xlink" contentStyleType="text/css" data-diagram-type="STATE" height="601px" preserveAspectRatio="none" style="width:554px;height:601px;background:#FFFFFF;" version="1.1" viewBox="0 0 554 601" width="554px" zoomAndPan="magnify"><defs/><g><g id="EXAMENES_GENERADOS2"><rect fill="#F1F1F1" height="50" rx="12.5" ry="12.5" style="stroke:#181818;stroke-width:0.5;" width="193.1475" x="7" y="545"/><line style="stroke:#181818;stroke-width:0.5;" x1="7" x2="200.1475" y1="571.2969" y2="571.2969"/><text fill="#000000" font-family="sans-serif" font-size="14" lengthAdjust="spacing" textLength="173.1475" x="17" y="562.9951">EXAMENES_GENERADOS</text></g><g id="EXAMENES_GENERADOS_CONTEXTUALES2"><rect fill="#F1F1F1" height="50" rx="12.5" ry="12.5" style="stroke:#181818;stroke-width:0.5;" width="312.3115" x="235.5" y="545"/><line style="stroke:#181818;stroke-width:0.5;" x1="235.5" x2="547.8115" y1="571.2969" y2="571.2969"/><text fill="#000000" font-family="sans-serif" font-size="14" lengthAdjust="spacing" textLength="292.3115" x="245.5" y="562.9951">EXAMENES_GENERADOS_CONTEXTUALES</text></g><path d="M50,117 L445,117 A12.5,12.5 0 0 1 457.5,129.5 L457.5,143.2969 L37.5,143.2969 L37.5,129.5 A12.5,12.5 0 0 1 50,117" fill="#F1F1F1"/><rect fill="none" height="368.2969" rx="12.5" ry="12.5" style="stroke:#181818;stroke-width:0.5;" width="420" x="37.5" y="117"/><line style="stroke:#181818;stroke-width:0.5;" x1="37.5" x2="457.5" y1="143.2969" y2="143.2969"/><text fill="#000000" font-family="sans-serif" font-size="14" lengthAdjust="spacing" textLength="131.5303" x="181.7349" y="134.9951">validarExamenes()</text><g id="validarExamenes.RequiringCancelGeneration"><rect fill="#F1F1F1" height="50" rx="12.5" ry="12.5" style="stroke:#181818;stroke-width:0.5;" width="50" x="49.5" y="245.2969"/><line style="stroke:#181818;stroke-width:0.5;" x1="49.5" x2="99.5" y1="271.5938" y2="271.5938"/><text fill="#000000" font-family="sans-serif" font-size="14" lengthAdjust="spacing" textLength="4.4502" x="72.2749" y="263.292">&#160;</text></g><g id="validarExamenes.ProvidingConfirmation"><rect fill="#F1F1F1" height="50" rx="12.5" ry="12.5" style="stroke:#181818;stroke-width:0.5;" width="50" x="49.5" y="366.2969"/><line style="stroke:#181818;stroke-width:0.5;" x1="49.5" x2="99.5" y1="392.5938" y2="392.5938"/><text fill="#000000" font-family="sans-serif" font-size="14" lengthAdjust="spacing" textLength="4.4502" x="72.2749" y="384.292">&#160;</text></g><ellipse cx="74.5" cy="164.2969" fill="#222222" rx="10" ry="10" style="stroke:#222222;stroke-width:1;"/><ellipse cx="74.5" cy="464.2969" fill="none" rx="11" ry="11" style="stroke:#222222;stroke-width:1;"/><ellipse cx="74.5" cy="464.2969" fill="#222222" rx="6" ry="6" style="stroke:#222222;stroke-width:1;"/><!--link *start*validarExamenes to RequiringCancelGeneration--><g class="link" data-entity-1=".start.validarExamenes" data-entity-2="RequiringCancelGeneration" data-source-line="11" data-uid="lnk3" id="link_.start.validarExamenes_RequiringCancelGeneration"><path d="M74.5,174.5269 C74.5,190.2369 74.5,216.6569 74.5,239.1669" fill="none" id="*start*validarExamenes-to-RequiringCancelGeneration" style="stroke:#008000;stroke-width:1;"/><polygon fill="#008000" points="74.5,245.1669,78.5,236.1669,74.5,240.1669,70.5,236.1669,74.5,245.1669" style="stroke:#008000;stroke-width:1;"/><path d="M79.5,197.2969 L79.5,222.2969 L445.5,222.2969 L445.5,207.2969 L435.5,197.2969 L79.5,197.2969" fill="#FEFFDD" style="stroke:#181818;stroke-width:0.5;"/><path d="M435.5,197.2969 L435.5,207.2969 L445.5,207.2969 L435.5,197.2969" fill="#FEFFDD" style="stroke:#181818;stroke-width:0.5;"/><text fill="#000000" font-family="sans-serif" font-size="13" font-weight="bold" lengthAdjust="spacing" textLength="60.5313" x="85.5" y="214.3638">Docente</text><text fill="#000000" font-family="sans-serif" font-size="13" lengthAdjust="spacing" textLength="280.7124" x="150.1636" y="214.3638">solicita validaci&#243;n de ex&#225;menes generados</text></g><!--link RequiringCancelGeneration to ProvidingConfirmation--><g class="link" data-entity-1="RequiringCancelGeneration" data-entity-2="ProvidingConfirmation" data-source-line="16" data-uid="lnk4" id="link_RequiringCancelGeneration_ProvidingConfirmation"><path d="M74.5,295.3769 C74.5,316.0269 74.5,339.6169 74.5,360.2469" fill="none" id="RequiringCancelGeneration-to-ProvidingConfirmation" style="stroke:#008000;stroke-width:1;"/><polygon fill="#008000" points="74.5,366.2469,78.5,357.2469,74.5,361.2469,70.5,357.2469,74.5,366.2469" style="stroke:#008000;stroke-width:1;"/><path d="M79.5,318.2969 L79.5,343.2969 L448.5,343.2969 L448.5,328.2969 L438.5,318.2969 L79.5,318.2969" fill="#FEFFDD" style="stroke:#181818;stroke-width:0.5;"/><path d="M438.5,318.2969 L438.5,328.2969 L448.5,328.2969 L438.5,318.2969" fill="#FEFFDD" style="stroke:#181818;stroke-width:0.5;"/><text fill="#000000" font-family="sans-serif" font-size="13" font-weight="bold" lengthAdjust="spacing" textLength="58.9063" x="85.5" y="335.3638">Sistema</text><text fill="#000000" font-family="sans-serif" font-size="13" lengthAdjust="spacing" textLength="285.9048" x="148.5386" y="335.3638">permite validaci&#243;n de ex&#225;menes generados</text></g><!--link ProvidingConfirmation to *end*validarExamenes--><g class="link" data-entity-1="ProvidingConfirmation" data-entity-2=".end.validarExamenes" data-source-line="21" data-uid="lnk6" id="link_ProvidingConfirmation_.end.validarExamenes"><path d="M74.5,416.3369 C74.5,428.8869 74.5,437.5769 74.5,447.1469" fill="none" id="ProvidingConfirmation-to-*end*validarExamenes" style="stroke:#008000;stroke-width:1;"/><polygon fill="#008000" points="74.5,453.1469,78.5,444.1469,74.5,448.1469,70.5,444.1469,74.5,453.1469" style="stroke:#008000;stroke-width:1;"/></g><g id="EXAMENES_GENERADOS"><rect fill="#F1F1F1" height="50" rx="12.5" ry="12.5" style="stroke:#181818;stroke-width:0.5;" width="193.1475" x="7" y="7"/><line style="stroke:#181818;stroke-width:0.5;" x1="7" x2="200.1475" y1="33.2969" y2="33.2969"/><text fill="#000000" font-family="sans-serif" font-size="14" lengthAdjust="spacing" textLength="173.1475" x="17" y="24.9951">EXAMENES_GENERADOS</text></g><g id="EXAMENES_GENERADOS_CONTEXTUALES"><rect fill="#F1F1F1" height="50" rx="12.5" ry="12.5" style="stroke:#181818;stroke-width:0.5;" width="312.3115" x="235.5" y="7"/><line style="stroke:#181818;stroke-width:0.5;" x1="235.5" x2="547.8115" y1="33.2969" y2="33.2969"/><text fill="#000000" font-family="sans-serif" font-size="14" lengthAdjust="spacing" textLength="292.3115" x="245.5" y="24.9951">EXAMENES_GENERADOS_CONTEXTUALES</text></g><!--link EXAMENES_GENERADOS to validarExamenes--><g class="link" data-entity-1="EXAMENES_GENERADOS" data-entity-2="validarExamenes" data-source-line="25" data-uid="lnk8" id="link_EXAMENES_GENERADOS_validarExamenes"><path d="M116.53,57.17 C124.7,72.31 133.2114,88.0993 145.8614,111.5493" fill="none" id="EXAMENES_GENERADOS-to-validarExamenes" style="stroke:#008000;stroke-width:1;"/><polygon fill="#008000" points="148.71,116.83,147.9575,107.0099,146.3361,112.4295,140.9166,110.8081,148.71,116.83" style="stroke:#008000;stroke-width:1;"/></g><!--link EXAMENES_GENERADOS_CONTEXTUALES to validarExamenes--><g class="link" data-entity-1="EXAMENES_GENERADOS_CONTEXTUALES" data-entity-2="validarExamenes" data-source-line="27" data-uid="lnk10" id="link_EXAMENES_GENERADOS_CONTEXTUALES_validarExamenes"><path d="M378.47,57.17 C370.3,72.31 361.7886,88.0993 349.1386,111.5493" fill="none" id="EXAMENES_GENERADOS_CONTEXTUALES-to-validarExamenes" style="stroke:#008000;stroke-width:1;"/><polygon fill="#008000" points="346.29,116.83,354.0834,110.8081,348.6639,112.4295,347.0425,107.0099,346.29,116.83" style="stroke:#008000;stroke-width:1;"/></g><!--link validarExamenes to EXAMENES_GENERADOS2--><g class="link" data-entity-1="validarExamenes" data-entity-2="EXAMENES_GENERADOS2" data-source-line="29" data-uid="lnk11" id="link_validarExamenes_EXAMENES_GENERADOS2"><path d="M148.67,485.25 C136.01,508.73 127.4894,524.5298 119.3194,539.6698" fill="none" id="validarExamenes-to-EXAMENES_GENERADOS2" style="stroke:#008000;stroke-width:1;"/><polygon fill="#008000" points="116.47,544.95,124.2642,538.9292,118.8445,540.5498,117.2239,535.13,116.47,544.95" style="stroke:#008000;stroke-width:1;"/></g><!--link validarExamenes to EXAMENES_GENERADOS_CONTEXTUALES2--><g class="link" data-entity-1="validarExamenes" data-entity-2="EXAMENES_GENERADOS_CONTEXTUALES2" data-source-line="31" data-uid="lnk12" id="link_validarExamenes_EXAMENES_GENERADOS_CONTEXTUALES2"><path d="M346.33,485.25 C358.99,508.73 367.5106,524.5298 375.6806,539.6698" fill="none" id="validarExamenes-to-EXAMENES_GENERADOS_CONTEXTUALES2" style="stroke:#008000;stroke-width:1;"/><polygon fill="#008000" points="378.53,544.95,377.7761,535.13,376.1555,540.5498,370.7358,538.9292,378.53,544.95" style="stroke:#008000;stroke-width:1;"/></g><!--SRC=[bP9VIWCn4CRVSufXVL6X23wNXQLT-gAjT2iKIYdfxhWCtKtM99OMyJ2UmIFqOgPPhTr_eWa4Clo-oJUJqHiI1LSyXum4cds1KCXiVxmmfWqt2E4yk0_7ORGQsNCQ32VHBN0DNZFkTIfMWybu5ivdZy5Ts2clGDxtyrkUKS9LkECv2jHEMujTNddmoXZOLMeykoqtnUSNKYJI0HSnPYFBAcv8YYRweEIMaYCgnHEflCGSjxXUGcznaIf4iUpvtLd1uKBQhFPYMxXnWVxQ7yeOXS7-pTe7BJEAoV2lmc8wV0X8471tU2yhJ5t6H6edHv6KEUrYfwFRnBdLzggwN4Qa3URSkInGvNJg_fzD_XXiVRfYplQrnDyOQmv31QtzTnjV6PxVnVM9EeTRXls_WkgiVm80]--></g></svg>