<svg xmlns="http://www.w3.org/2000/svg" xmlns:xlink="http://www.w3.org/1999/xlink" contentStyleType="text/css" data-diagram-type="STATE" height="696px" preserveAspectRatio="none" style="width:1910px;height:696px;background:#FFFFFF;" version="1.1" viewBox="0 0 1910 696" width="1910px" zoomAndPan="magnify"><defs/><g><path d="M654.15,7 L1175.15,7 A12.5,12.5 0 0 1 1187.65,19.5 L1187.65,33.2969 L641.65,33.2969 L641.65,19.5 A12.5,12.5 0 0 1 654.15,7" fill="#F1F1F1"/><rect fill="none" height="538.2969" rx="12.5" ry="12.5" style="stroke:#181818;stroke-width:0.5;" width="546" x="641.65" y="7"/><line style="stroke:#181818;stroke-width:0.5;" x1="641.65" x2="1187.65" y1="33.2969" y2="33.2969"/><text fill="#000000" font-family="sans-serif" font-size="14" lengthAdjust="spacing" textLength="135.6113" x="846.8443" y="24.9951">completarGestion()</text><g id="completarGestion.PresentandoOpciones"><rect fill="#F1F1F1" height="50" rx="12.5" ry="12.5" style="stroke:#181818;stroke-width:0.5;" width="50" x="653.65" y="135.2969"/><line style="stroke:#181818;stroke-width:0.5;" x1="653.65" x2="703.65" y1="161.5938" y2="161.5938"/><text fill="#000000" font-family="sans-serif" font-size="14" lengthAdjust="spacing" textLength="4.4502" x="676.4249" y="153.292">&#160;</text></g><g id="completarGestion.EsperandoSeleccion"><rect fill="#F1F1F1" height="50" rx="12.5" ry="12.5" style="stroke:#181818;stroke-width:0.5;" width="50" x="653.65" y="392.2969"/><line style="stroke:#181818;stroke-width:0.5;" x1="653.65" x2="703.65" y1="418.5938" y2="418.5938"/><text fill="#000000" font-family="sans-serif" font-size="14" lengthAdjust="spacing" textLength="4.4502" x="676.4249" y="410.292">&#160;</text></g><ellipse cx="678.65" cy="54.2969" fill="#222222" rx="10" ry="10" style="stroke:#222222;stroke-width:1;"/><ellipse cx="678.65" cy="524.2969" fill="none" rx="11" ry="11" style="stroke:#222222;stroke-width:1;"/><ellipse cx="678.65" cy="524.2969" fill="#222222" rx="6" ry="6" style="stroke:#222222;stroke-width:1;"/><!--link *start*completarGestion to PresentandoOpciones--><g class="link" data-entity-1=".start.completarGestion" data-entity-2="PresentandoOpciones" data-source-line="8" data-uid="lnk3" id="link_.start.completarGestion_PresentandoOpciones"><path d="M678.65,64.5269 C678.65,80.2369 678.65,106.6569 678.65,129.1669" fill="none" id="*start*completarGestion-to-PresentandoOpciones" style="stroke:#008000;stroke-width:1;"/><polygon fill="#008000" points="678.65,135.1669,682.65,126.1669,678.65,130.1669,674.65,126.1669,678.65,135.1669" style="stroke:#008000;stroke-width:1;"/><path d="M683.65,87.2969 L683.65,112.2969 L1178.65,112.2969 L1178.65,97.2969 L1168.65,87.2969 L683.65,87.2969" fill="#FEFFDD" style="stroke:#181818;stroke-width:0.5;"/><path d="M1168.65,87.2969 L1168.65,97.2969 L1178.65,97.2969 L1168.65,87.2969" fill="#FEFFDD" style="stroke:#181818;stroke-width:0.5;"/><text fill="#000000" font-family="sans-serif" font-size="13" font-weight="bold" lengthAdjust="spacing" textLength="279.0684" x="689.65" y="104.3638">Administrador institucional o Docente</text><text fill="#000000" font-family="sans-serif" font-size="13" lengthAdjust="spacing" textLength="190.8359" x="972.8507" y="104.3638">solicita disponibilizar sistema</text></g><!--link PresentandoOpciones to EsperandoSeleccion--><g class="link" data-entity-1="PresentandoOpciones" data-entity-2="EsperandoSeleccion" data-source-line="13" data-uid="lnk4" id="link_PresentandoOpciones_EsperandoSeleccion"><path d="M678.65,185.7469 C678.65,234.4869 678.65,337.2369 678.65,385.9169" fill="none" id="PresentandoOpciones-to-EsperandoSeleccion" style="stroke:#008000;stroke-width:1;"/><polygon fill="#008000" points="678.65,391.9169,682.65,382.9169,678.65,386.9169,674.65,382.9169,678.65,391.9169" style="stroke:#008000;stroke-width:1;"/><path d="M683.65,208.2969 L683.65,369.2969 L1076.65,369.2969 L1076.65,218.2969 L1066.65,208.2969 L683.65,208.2969" fill="#FEFFDD" style="stroke:#181818;stroke-width:0.5;"/><path d="M1066.65,208.2969 L1066.65,218.2969 L1076.65,218.2969 L1066.65,208.2969" fill="#FEFFDD" style="stroke:#181818;stroke-width:0.5;"/><text fill="#000000" font-family="sans-serif" font-size="13" font-weight="bold" lengthAdjust="spacing" textLength="58.9063" x="689.65" y="225.3638">Sistema</text><text fill="#000000" font-family="sans-serif" font-size="13" lengthAdjust="spacing" textLength="110.5952" x="752.6886" y="225.3638">permite solicitar:</text><text fill="#000000" font-family="sans-serif" font-size="13" lengthAdjust="spacing" textLength="89.3433" x="689.65" y="240.4966">&#8226; verGrados()</text><text fill="#000000" font-family="sans-serif" font-size="13" lengthAdjust="spacing" textLength="120.1357" x="689.65" y="255.6294">&#8226; verAsignaturas()</text><text fill="#000000" font-family="sans-serif" font-size="13" lengthAdjust="spacing" textLength="99.3535" x="689.65" y="270.7622">&#8226; verAlumnos()</text><text fill="#000000" font-family="sans-serif" font-size="13" lengthAdjust="spacing" textLength="108.729" x="689.65" y="285.895">&#8226; verPreguntas()</text><text fill="#000000" font-family="sans-serif" font-size="13" lengthAdjust="spacing" textLength="140.6323" x="689.65" y="301.0278">&#8226; generarExamenes()</text><text fill="#000000" font-family="sans-serif" font-size="13" lengthAdjust="spacing" textLength="140.4863" x="689.65" y="316.1606">&#8226; corregirExamenes()</text><text fill="#000000" font-family="sans-serif" font-size="13" lengthAdjust="spacing" textLength="269.8896" x="689.65" y="331.2935">&#8226; importar/exportarConfiguracionGlobal()</text><text fill="#000000" font-family="sans-serif" font-size="13" lengthAdjust="spacing" textLength="103.9175" x="689.65" y="346.4263">&#8226; cerrarSesion()</text><text fill="#000000" font-family="sans-serif" font-size="13" lengthAdjust="spacing" textLength="372.6899" x="689.65" y="361.5591">&#8226; verDocentes() [SOLO PARA Administrador institucional]</text></g><!--link EsperandoSeleccion to *end*completarGestion--><g class="link" data-entity-1="EsperandoSeleccion" data-entity-2=".end.completarGestion" data-source-line="27" data-uid="lnk6" id="link_EsperandoSeleccion_.end.completarGestion"><path d="M678.65,442.6469 C678.65,464.9469 678.65,490.8569 678.65,507.0369" fill="none" id="EsperandoSeleccion-to-*end*completarGestion" style="stroke:#008000;stroke-width:1;"/><polygon fill="#008000" points="678.65,513.0369,682.65,504.0369,678.65,508.0369,674.65,504.0369,678.65,513.0369" style="stroke:#008000;stroke-width:1;"/><path d="M683.65,465.2969 L683.65,490.2969 L1166.65,490.2969 L1166.65,475.2969 L1156.65,465.2969 L683.65,465.2969" fill="#FEFFDD" style="stroke:#181818;stroke-width:0.5;"/><path d="M1156.65,465.2969 L1156.65,475.2969 L1166.65,475.2969 L1156.65,465.2969" fill="#FEFFDD" style="stroke:#181818;stroke-width:0.5;"/><text fill="#000000" font-family="sans-serif" font-size="13" font-weight="bold" lengthAdjust="spacing" textLength="279.0684" x="689.65" y="482.3638">Administrador institucional o Docente</text><text fill="#000000" font-family="sans-serif" font-size="13" lengthAdjust="spacing" textLength="179.2769" x="972.8507" y="482.3638">solicita una de las opciones</text></g><g id="GRADOS_ABIERTO"><rect fill="#F1F1F1" height="50" rx="12.5" ry="12.5" style="stroke:#181818;stroke-width:0.5;" width="149.2949" x="7" y="640.3"/><line style="stroke:#181818;stroke-width:0.5;" x1="7" x2="156.2949" y1="666.5969" y2="666.5969"/><text fill="#000000" font-family="sans-serif" font-size="14" lengthAdjust="spacing" textLength="129.2949" x="17" y="658.2951">GRADOS_ABIERTO</text></g><g id="ASIGNATURAS_ABIERTO"><rect fill="#F1F1F1" height="50" rx="12.5" ry="12.5" style="stroke:#181818;stroke-width:0.5;" width="188.9365" x="191.18" y="640.3"/><line style="stroke:#181818;stroke-width:0.5;" x1="191.18" x2="380.1165" y1="666.5969" y2="666.5969"/><text fill="#000000" font-family="sans-serif" font-size="14" lengthAdjust="spacing" textLength="168.9365" x="201.18" y="658.2951">ASIGNATURAS_ABIERTO</text></g><g id="ALUMNOS_ABIERTO"><rect fill="#F1F1F1" height="50" rx="12.5" ry="12.5" style="stroke:#181818;stroke-width:0.5;" width="158.5371" x="415.38" y="640.3"/><line style="stroke:#181818;stroke-width:0.5;" x1="415.38" x2="573.9171" y1="666.5969" y2="666.5969"/><text fill="#000000" font-family="sans-serif" font-size="14" lengthAdjust="spacing" textLength="138.5371" x="425.38" y="658.2951">ALUMNOS_ABIERTO</text></g><g id="PREGUNTAS_ABIERTO"><rect fill="#F1F1F1" height="50" rx="12.5" ry="12.5" style="stroke:#181818;stroke-width:0.5;" width="174.0547" x="608.62" y="640.3"/><line style="stroke:#181818;stroke-width:0.5;" x1="608.62" x2="782.6747" y1="666.5969" y2="666.5969"/><text fill="#000000" font-family="sans-serif" font-size="14" lengthAdjust="spacing" textLength="154.0547" x="618.62" y="658.2951">PREGUNTAS_ABIERTO</text></g><g id="EXAMENES_GENERADOS"><rect fill="#F1F1F1" height="50" rx="12.5" ry="12.5" style="stroke:#181818;stroke-width:0.5;" width="193.1475" x="818.07" y="640.3"/><line style="stroke:#181818;stroke-width:0.5;" x1="818.07" x2="1011.2175" y1="666.5969" y2="666.5969"/><text fill="#000000" font-family="sans-serif" font-size="14" lengthAdjust="spacing" textLength="173.1475" x="828.07" y="658.2951">EXAMENES_GENERADOS</text></g><g id="EXAMENES_CORREGIDOS"><rect fill="#F1F1F1" height="50" rx="12.5" ry="12.5" style="stroke:#181818;stroke-width:0.5;" width="198.9033" x="1046.2" y="640.3"/><line style="stroke:#181818;stroke-width:0.5;" x1="1046.2" x2="1245.1033" y1="666.5969" y2="666.5969"/><text fill="#000000" font-family="sans-serif" font-size="14" lengthAdjust="spacing" textLength="178.9033" x="1056.2" y="658.2951">EXAMENES_CORREGIDOS</text></g><g id="SISTEMA_DISPONIBLE"><rect fill="#F1F1F1" height="50" rx="12.5" ry="12.5" style="stroke:#181818;stroke-width:0.5;" width="172.0654" x="1279.61" y="640.3"/><line style="stroke:#181818;stroke-width:0.5;" x1="1279.61" x2="1451.6754" y1="666.5969" y2="666.5969"/><text fill="#000000" font-family="sans-serif" font-size="14" lengthAdjust="spacing" textLength="152.0654" x="1289.61" y="658.2951">SISTEMA_DISPONIBLE</text></g><ellipse cx="1657.65" cy="665.3" fill="none" rx="11" ry="11" style="stroke:#222222;stroke-width:1;"/><ellipse cx="1657.65" cy="665.3" fill="#222222" rx="6" ry="6" style="stroke:#222222;stroke-width:1;"/><g id="DOCENTES_ABIERTO"><rect fill="#F1F1F1" height="50" rx="12.5" ry="12.5" style="stroke:#181818;stroke-width:0.5;" width="165.6328" x="1737.83" y="640.3"/><line style="stroke:#181818;stroke-width:0.5;" x1="1737.83" x2="1903.4628" y1="666.5969" y2="666.5969"/><text fill="#000000" font-family="sans-serif" font-size="14" lengthAdjust="spacing" textLength="145.6328" x="1747.83" y="658.2951">DOCENTES_ABIERTO</text></g><!--link completarGestion to GRADOS_ABIERTO--><g class="link" data-entity-1="completarGestion" data-entity-2="GRADOS_ABIERTO" data-source-line="34" data-uid="lnk8" id="link_completarGestion_GRADOS_ABIERTO"><path d="M641.5,399.07 C456.91,481.45 246.65,575.3 246.65,575.3 C246.65,575.3 180.871,610.782 132.011,637.132" fill="none" id="completarGestion-to-GRADOS_ABIERTO" style="stroke:#008000;stroke-width:1;"/><polygon fill="#008000" points="126.73,639.98,136.5502,639.2286,131.1308,637.6067,132.7528,632.1873,126.73,639.98" style="stroke:#008000;stroke-width:1;"/><path d="M251.65,580.3 L251.65,605.3 L349.65,605.3 L349.65,590.3 L339.65,580.3 L251.65,580.3" fill="#FEFFDD" style="stroke:#181818;stroke-width:0.5;"/><path d="M339.65,580.3 L339.65,590.3 L349.65,590.3 L339.65,580.3" fill="#FEFFDD" style="stroke:#181818;stroke-width:0.5;"/><text fill="#000000" font-family="sans-serif" font-size="13" lengthAdjust="spacing" textLength="77.543" x="257.65" y="597.3669">verGrados()</text></g><!--link completarGestion to ASIGNATURAS_ABIERTO--><g class="link" data-entity-1="completarGestion" data-entity-2="ASIGNATURAS_ABIERTO" data-source-line="39" data-uid="lnk10" id="link_completarGestion_ASIGNATURAS_ABIERTO"><path d="M641.28,438.22 C521.92,508.55 408.65,575.3 408.65,575.3 C408.65,575.3 360.5411,610.113 324.1211,636.463" fill="none" id="completarGestion-to-ASIGNATURAS_ABIERTO" style="stroke:#008000;stroke-width:1;"/><polygon fill="#008000" points="319.26,639.98,328.8964,637.9452,323.3109,637.0491,324.207,631.4637,319.26,639.98" style="stroke:#008000;stroke-width:1;"/><path d="M413.65,580.3 L413.65,605.3 L542.65,605.3 L542.65,590.3 L532.65,580.3 L413.65,580.3" fill="#FEFFDD" style="stroke:#181818;stroke-width:0.5;"/><path d="M532.65,580.3 L532.65,590.3 L542.65,590.3 L532.65,580.3" fill="#FEFFDD" style="stroke:#181818;stroke-width:0.5;"/><text fill="#000000" font-family="sans-serif" font-size="13" lengthAdjust="spacing" textLength="108.3354" x="419.65" y="597.3669">verAsignaturas()</text></g><!--link completarGestion to ALUMNOS_ABIERTO--><g class="link" data-entity-1="completarGestion" data-entity-2="ALUMNOS_ABIERTO" data-source-line="44" data-uid="lnk12" id="link_completarGestion_ALUMNOS_ABIERTO"><path d="M641.25,529.17 C591.98,574.58 552.252,611.2038 525.582,635.7838" fill="none" id="completarGestion-to-ALUMNOS_ABIERTO" style="stroke:#008000;stroke-width:1;"/><polygon fill="#008000" points="521.17,639.85,530.4988,636.692,524.8467,636.4615,525.0772,630.8093,521.17,639.85" style="stroke:#008000;stroke-width:1;"/><path d="M590.65,580.3 L590.65,605.3 L698.65,605.3 L698.65,590.3 L688.65,580.3 L590.65,580.3" fill="#FEFFDD" style="stroke:#181818;stroke-width:0.5;"/><path d="M688.65,580.3 L688.65,590.3 L698.65,590.3 L688.65,580.3" fill="#FEFFDD" style="stroke:#181818;stroke-width:0.5;"/><text fill="#000000" font-family="sans-serif" font-size="13" lengthAdjust="spacing" textLength="87.5532" x="596.65" y="597.3669">verAlumnos()</text></g><!--link completarGestion to PREGUNTAS_ABIERTO--><g class="link" data-entity-1="completarGestion" data-entity-2="PREGUNTAS_ABIERTO" data-source-line="49" data-uid="lnk14" id="link_completarGestion_PREGUNTAS_ABIERTO"><path d="M762.69,545.78 C740.76,584.56 724.4643,613.3578 712.2843,634.8878" fill="none" id="completarGestion-to-PREGUNTAS_ABIERTO" style="stroke:#008000;stroke-width:1;"/><polygon fill="#008000" points="709.33,640.11,717.243,634.2462,711.792,635.7581,710.28,630.3071,709.33,640.11" style="stroke:#008000;stroke-width:1;"/><path d="M748.65,580.3 L748.65,605.3 L865.65,605.3 L865.65,590.3 L855.65,580.3 L748.65,580.3" fill="#FEFFDD" style="stroke:#181818;stroke-width:0.5;"/><path d="M855.65,580.3 L855.65,590.3 L865.65,590.3 L855.65,580.3" fill="#FEFFDD" style="stroke:#181818;stroke-width:0.5;"/><text fill="#000000" font-family="sans-serif" font-size="13" lengthAdjust="spacing" textLength="96.9287" x="754.65" y="597.3669">verPreguntas()</text></g><!--link completarGestion to EXAMENES_GENERADOS--><g class="link" data-entity-1="completarGestion" data-entity-2="EXAMENES_GENERADOS" data-source-line="54" data-uid="lnk16" id="link_completarGestion_EXAMENES_GENERADOS"><path d="M914.65,545.78 C914.65,584.56 914.65,612.58 914.65,634.11" fill="none" id="completarGestion-to-EXAMENES_GENERADOS" style="stroke:#008000;stroke-width:1;"/><polygon fill="#008000" points="914.65,640.11,918.65,631.11,914.65,635.11,910.65,631.11,914.65,640.11" style="stroke:#008000;stroke-width:1;"/><path d="M919.65,580.3 L919.65,605.3 L1068.65,605.3 L1068.65,590.3 L1058.65,580.3 L919.65,580.3" fill="#FEFFDD" style="stroke:#181818;stroke-width:0.5;"/><path d="M1058.65,580.3 L1058.65,590.3 L1068.65,590.3 L1058.65,580.3" fill="#FEFFDD" style="stroke:#181818;stroke-width:0.5;"/><text fill="#000000" font-family="sans-serif" font-size="13" lengthAdjust="spacing" textLength="128.832" x="925.65" y="597.3669">generarExamenes()</text></g><!--link completarGestion to EXAMENES_CORREGIDOS--><g class="link" data-entity-1="completarGestion" data-entity-2="EXAMENES_CORREGIDOS" data-source-line="59" data-uid="lnk18" id="link_completarGestion_EXAMENES_CORREGIDOS"><path d="M1074.93,545.78 C1098.07,584.56 1115.295,613.4279 1128.145,634.9579" fill="none" id="completarGestion-to-EXAMENES_CORREGIDOS" style="stroke:#008000;stroke-width:1;"/><polygon fill="#008000" points="1131.22,640.11,1130.0422,630.3318,1128.6575,635.8166,1123.1727,634.4318,1131.22,640.11" style="stroke:#008000;stroke-width:1;"/><path d="M1117.65,580.3 L1117.65,605.3 L1266.65,605.3 L1266.65,590.3 L1256.65,580.3 L1117.65,580.3" fill="#FEFFDD" style="stroke:#181818;stroke-width:0.5;"/><path d="M1256.65,580.3 L1256.65,590.3 L1266.65,590.3 L1256.65,580.3" fill="#FEFFDD" style="stroke:#181818;stroke-width:0.5;"/><text fill="#000000" font-family="sans-serif" font-size="13" lengthAdjust="spacing" textLength="128.686" x="1123.65" y="597.3669">corregirExamenes()</text></g><!--link completarGestion to SISTEMA_DISPONIBLE--><g class="link" data-entity-1="completarGestion" data-entity-2="SISTEMA_DISPONIBLE" data-source-line="64" data-uid="lnk20" id="link_completarGestion_SISTEMA_DISPONIBLE"><path d="M1188.01,500.45 C1240.58,543.39 1279.65,575.3 1279.65,575.3 C1279.65,575.3 1312.51,609.3159 1337.98,635.6659" fill="none" id="completarGestion-to-SISTEMA_DISPONIBLE" style="stroke:#008000;stroke-width:1;"/><polygon fill="#008000" points="1342.15,639.98,1338.7711,630.7289,1338.675,636.3849,1333.019,636.2889,1342.15,639.98" style="stroke:#008000;stroke-width:1;"/><path d="M1317.65,580.3 L1317.65,605.3 L1596.65,605.3 L1596.65,590.3 L1586.65,580.3 L1317.65,580.3" fill="#FEFFDD" style="stroke:#181818;stroke-width:0.5;"/><path d="M1586.65,580.3 L1586.65,590.3 L1596.65,590.3 L1586.65,580.3" fill="#FEFFDD" style="stroke:#181818;stroke-width:0.5;"/><text fill="#000000" font-family="sans-serif" font-size="13" lengthAdjust="spacing" textLength="258.0894" x="1323.65" y="597.3669">importar/exportarConfiguracionGlobal()</text></g><!--link completarGestion to *end*--><g class="link" data-entity-1="completarGestion" data-entity-2=".end." data-source-line="69" data-uid="lnk22" id="link_completarGestion_.end."><path d="M1187.83,394.35 C1382.43,477.83 1609.65,575.3 1609.65,575.3 C1609.65,575.3 1637.5826,627.0887 1649.8426,649.8287" fill="none" id="completarGestion-to-*end*" style="stroke:#008000;stroke-width:1;"/><polygon fill="#008000" points="1652.69,655.11,1651.9398,645.2898,1650.3172,650.7089,1644.8981,649.0862,1652.69,655.11" style="stroke:#008000;stroke-width:1;"/><path d="M1633.65,580.3 L1633.65,605.3 L1746.65,605.3 L1746.65,590.3 L1736.65,580.3 L1633.65,580.3" fill="#FEFFDD" style="stroke:#181818;stroke-width:0.5;"/><path d="M1736.65,580.3 L1736.65,590.3 L1746.65,590.3 L1736.65,580.3" fill="#FEFFDD" style="stroke:#181818;stroke-width:0.5;"/><text fill="#000000" font-family="sans-serif" font-size="13" lengthAdjust="spacing" textLength="92.1172" x="1639.65" y="597.3669">cerrarSesion()</text></g><!--link completarGestion to DOCENTES_ABIERTO--><g class="link" data-entity-1="completarGestion" data-entity-2="DOCENTES_ABIERTO" data-source-line="74" data-uid="lnk24" id="link_completarGestion_DOCENTES_ABIERTO"><path d="M1188.12,373.64 C1434.96,460.74 1759.65,575.3 1759.65,575.3 C1759.65,575.3 1782.5279,608.6809 1800.5879,635.0309" fill="none" id="completarGestion-to-DOCENTES_ABIERTO" style="stroke:#008000;stroke-width:1;"/><polygon fill="#008000" points="1803.98,639.98,1802.1913,630.2949,1801.1533,635.8557,1795.5925,634.8177,1803.98,639.98" style="stroke:#008000;stroke-width:1;"/><path d="M1787.65,580.3 L1787.65,605.3 L1900.65,605.3 L1900.65,590.3 L1890.65,580.3 L1787.65,580.3" fill="#FEFFDD" style="stroke:#181818;stroke-width:0.5;"/><path d="M1890.65,580.3 L1890.65,590.3 L1900.65,590.3 L1890.65,580.3" fill="#FEFFDD" style="stroke:#181818;stroke-width:0.5;"/><text fill="#000000" font-family="sans-serif" font-size="13" lengthAdjust="spacing" textLength="92.3965" x="1793.65" y="597.3669">verDocentes()</text></g><!--SRC=[hPFHQjim58Rl_HGYksa7fVUZ1DH464DY1yk1GGX1iK-Dg2mPoHxjnc3FiaVRa-pOwL8xSO87jS7OqgzVdtp-uvwbBeKL1L5IG_LQ0YcDUcq-FCzLeWAIcg9KK0dhWwkaqKGuCZaTlBcTa1-UH_0wh9hWZSAL1GUw4ZepKPcY4DovYBaIR2FXe21jL0UdpUSjkTjyoYs0tjvDXyn8AzG6pP0CiP_RWOVzb6Q5rD9LLcJ64gaHiwgRHK8HG-OcHITukDzFYJDAfh8I99EkD5hkfPBVXIKELqCXMaFGMRjB-z4-Xc2wi0E7keJA3nkrCBYea2Zv1sM_jAe_ltwJRs3zvZJkvhOxHftCjQXgAqudL5teKpLYvpLYTuTpq8XgsOieyAqxangBUZaq9OlIMEIxXvV3oype9vaZHdDMNvczK5qdiBW51zU6fKlqLWhq9XiUBIAoeZ4bLygtlL2Hyp_UAmYcwIF3KciC3125-JNTP1-vVdgUTzOxNI0_flE8x-XZmE8aydfStLeV7Q_RKHxu8KtMCRtisS_AMEF5UXbU0NtFsKZ3LSpyTPXSuUocTAGf-qgNB6Hyv-Ep_RDzr_EG_w_nB8eHF3Xp7cYIaTOyu0bRqjqyuAie31uNhEyyiiT6xjOqG1-ytvCZRURHZ8K9kroyzuO-Mlu5]--></g></svg>