<svg xmlns="http://www.w3.org/2000/svg" xmlns:xlink="http://www.w3.org/1999/xlink" contentStyleType="text/css" data-diagram-type="STATE" height="514px" preserveAspectRatio="none" style="width:1214px;height:514px;background:#FFFFFF;" version="1.1" viewBox="0 0 1214 514" width="1214px" zoomAndPan="magnify"><defs/><g><path d="M335,117 L856,117 A12.5,12.5 0 0 1 868.5,129.5 L868.5,143.2969 L322.5,143.2969 L322.5,129.5 A12.5,12.5 0 0 1 335,117" fill="#F1F1F1"/><rect fill="none" height="281.2969" rx="12.5" ry="12.5" style="stroke:#181818;stroke-width:0.5;" width="546" x="322.5" y="117"/><line style="stroke:#181818;stroke-width:0.5;" x1="322.5" x2="868.5" y1="143.2969" y2="143.2969"/><text fill="#000000" font-family="sans-serif" font-size="14" lengthAdjust="spacing" textLength="135.6113" x="527.6943" y="134.9951">completarGestion()</text><g id="completarGestion.PresentandoOpciones"><rect fill="#F1F1F1" height="50" rx="12.5" ry="12.5" style="stroke:#181818;stroke-width:0.5;" width="50" x="334.5" y="245.2969"/><line style="stroke:#181818;stroke-width:0.5;" x1="334.5" x2="384.5" y1="271.5938" y2="271.5938"/><text fill="#000000" font-family="sans-serif" font-size="14" lengthAdjust="spacing" textLength="4.4502" x="357.2749" y="263.292">&#160;</text></g><ellipse cx="359.5" cy="164.2969" fill="#222222" rx="10" ry="10" style="stroke:#222222;stroke-width:1;"/><ellipse cx="359.5" cy="377.2969" fill="none" rx="11" ry="11" style="stroke:#222222;stroke-width:1;"/><ellipse cx="359.5" cy="377.2969" fill="#222222" rx="6" ry="6" style="stroke:#222222;stroke-width:1;"/><!--link *start*completarGestion to PresentandoOpciones--><g class="link" data-entity-1=".start.completarGestion" data-entity-2="PresentandoOpciones" data-source-line="7" data-uid="lnk3" id="link_.start.completarGestion_PresentandoOpciones"><path d="M359.5,174.5269 C359.5,190.2369 359.5,216.6569 359.5,239.1669" fill="none" id="*start*completarGestion-to-PresentandoOpciones" style="stroke:#008000;stroke-width:1;"/><polygon fill="#008000" points="359.5,245.1669,363.5,236.1669,359.5,240.1669,355.5,236.1669,359.5,245.1669" style="stroke:#008000;stroke-width:1;"/><path d="M364.5,197.2969 L364.5,222.2969 L859.5,222.2969 L859.5,207.2969 L849.5,197.2969 L364.5,197.2969" fill="#FEFFDD" style="stroke:#181818;stroke-width:0.5;"/><path d="M849.5,197.2969 L849.5,207.2969 L859.5,207.2969 L849.5,197.2969" fill="#FEFFDD" style="stroke:#181818;stroke-width:0.5;"/><text fill="#000000" font-family="sans-serif" font-size="13" font-weight="bold" lengthAdjust="spacing" textLength="279.0684" x="370.5" y="214.3638">Administrador institucional o Docente</text><text fill="#000000" font-family="sans-serif" font-size="13" lengthAdjust="spacing" textLength="190.8359" x="653.7007" y="214.3638">solicita disponibilizar sistema</text></g><!--link PresentandoOpciones to *end*completarGestion--><g class="link" data-entity-1="PresentandoOpciones" data-entity-2=".end.completarGestion" data-source-line="12" data-uid="lnk5" id="link_PresentandoOpciones_.end.completarGestion"><path d="M359.5,295.3869 C359.5,317.7869 359.5,344.0669 359.5,360.2469" fill="none" id="PresentandoOpciones-to-*end*completarGestion" style="stroke:#008000;stroke-width:1;"/><polygon fill="#008000" points="359.5,366.2469,363.5,357.2469,359.5,361.2469,355.5,357.2469,359.5,366.2469" style="stroke:#008000;stroke-width:1;"/><path d="M364.5,318.2969 L364.5,343.2969 L624.5,343.2969 L624.5,328.2969 L614.5,318.2969 L364.5,318.2969" fill="#FEFFDD" style="stroke:#181818;stroke-width:0.5;"/><path d="M614.5,318.2969 L614.5,328.2969 L624.5,328.2969 L614.5,318.2969" fill="#FEFFDD" style="stroke:#181818;stroke-width:0.5;"/><text fill="#000000" font-family="sans-serif" font-size="13" font-weight="bold" lengthAdjust="spacing" textLength="58.9063" x="370.5" y="335.3638">Sistema</text><text fill="#000000" font-family="sans-serif" font-size="13" lengthAdjust="spacing" textLength="176.1221" x="433.5386" y="335.3638">permite ser disponibilizado</text></g><g id="GRADOS_ABIERTO"><rect fill="#F1F1F1" height="50" rx="12.5" ry="12.5" style="stroke:#181818;stroke-width:0.5;" width="149.2949" x="7" y="7"/><line style="stroke:#181818;stroke-width:0.5;" x1="7" x2="156.2949" y1="33.2969" y2="33.2969"/><text fill="#000000" font-family="sans-serif" font-size="14" lengthAdjust="spacing" textLength="129.2949" x="17" y="24.9951">GRADOS_ABIERTO</text></g><g id="ASIGNATURAS_ABIERTO"><rect fill="#F1F1F1" height="50" rx="12.5" ry="12.5" style="stroke:#181818;stroke-width:0.5;" width="188.9365" x="191" y="7"/><line style="stroke:#181818;stroke-width:0.5;" x1="191" x2="379.9365" y1="33.2969" y2="33.2969"/><text fill="#000000" font-family="sans-serif" font-size="14" lengthAdjust="spacing" textLength="168.9365" x="201" y="24.9951">ASIGNATURAS_ABIERTO</text></g><g id="ALUMNOS_ABIERTO"><rect fill="#F1F1F1" height="50" rx="12.5" ry="12.5" style="stroke:#181818;stroke-width:0.5;" width="158.5371" x="415" y="7"/><line style="stroke:#181818;stroke-width:0.5;" x1="415" x2="573.5371" y1="33.2969" y2="33.2969"/><text fill="#000000" font-family="sans-serif" font-size="14" lengthAdjust="spacing" textLength="138.5371" x="425" y="24.9951">ALUMNOS_ABIERTO</text></g><g id="PREGUNTAS_ABIERTO"><rect fill="#F1F1F1" height="50" rx="12.5" ry="12.5" style="stroke:#181818;stroke-width:0.5;" width="174.0547" x="609.5" y="7"/><line style="stroke:#181818;stroke-width:0.5;" x1="609.5" x2="783.5547" y1="33.2969" y2="33.2969"/><text fill="#000000" font-family="sans-serif" font-size="14" lengthAdjust="spacing" textLength="154.0547" x="619.5" y="24.9951">PREGUNTAS_ABIERTO</text></g><g id="EXAMENES_ASIGNADOS"><rect fill="#F1F1F1" height="50" rx="12.5" ry="12.5" style="stroke:#181818;stroke-width:0.5;" width="188.3213" x="818.5" y="7"/><line style="stroke:#181818;stroke-width:0.5;" x1="818.5" x2="1006.8213" y1="33.2969" y2="33.2969"/><text fill="#000000" font-family="sans-serif" font-size="14" lengthAdjust="spacing" textLength="168.3213" x="828.5" y="24.9951">EXAMENES_ASIGNADOS</text></g><g id="DOCENTES_ABIERTO"><rect fill="#F1F1F1" height="50" rx="12.5" ry="12.5" style="stroke:#181818;stroke-width:0.5;" width="165.6328" x="1041.5" y="7"/><line style="stroke:#181818;stroke-width:0.5;" x1="1041.5" x2="1207.1328" y1="33.2969" y2="33.2969"/><text fill="#000000" font-family="sans-serif" font-size="14" lengthAdjust="spacing" textLength="145.6328" x="1051.5" y="24.9951">DOCENTES_ABIERTO</text></g><g id="SISTEMA_DISPONIBLE"><rect fill="#F1F1F1" height="50" rx="12.5" ry="12.5" style="stroke:#181818;stroke-width:0.5;" width="172.0654" x="509.5" y="458"/><line style="stroke:#181818;stroke-width:0.5;" x1="509.5" x2="681.5654" y1="484.2969" y2="484.2969"/><text fill="#000000" font-family="sans-serif" font-size="14" lengthAdjust="spacing" textLength="152.0654" x="519.5" y="475.9951">SISTEMA_DISPONIBLE</text></g><!--link GRADOS_ABIERTO to completarGestion--><g class="link" data-entity-1="GRADOS_ABIERTO" data-entity-2="completarGestion" data-source-line="19" data-uid="lnk7" id="link_GRADOS_ABIERTO_completarGestion"><path d="M137,57.13 C182.88,77.08 246.2176,104.6275 316.7076,135.2775" fill="none" id="GRADOS_ABIERTO-to-completarGestion" style="stroke:#008000;stroke-width:1;"/><polygon fill="#008000" points="322.21,137.67,315.5515,130.413,317.6247,135.6763,312.3615,137.7495,322.21,137.67" style="stroke:#008000;stroke-width:1;"/></g><!--link ASIGNATURAS_ABIERTO to completarGestion--><g class="link" data-entity-1="ASIGNATURAS_ABIERTO" data-entity-2="completarGestion" data-source-line="21" data-uid="lnk9" id="link_ASIGNATURAS_ABIERTO_completarGestion"><path d="M318.97,57.13 C340.34,72.54 365.1031,90.391 397.0731,113.441" fill="none" id="ASIGNATURAS_ABIERTO-to-completarGestion" style="stroke:#008000;stroke-width:1;"/><polygon fill="#008000" points="401.94,116.95,396.9789,108.4419,397.8842,114.0258,392.3003,114.9311,401.94,116.95" style="stroke:#008000;stroke-width:1;"/></g><!--link ALUMNOS_ABIERTO to completarGestion--><g class="link" data-entity-1="ALUMNOS_ABIERTO" data-entity-2="completarGestion" data-source-line="23" data-uid="lnk11" id="link_ALUMNOS_ABIERTO_completarGestion"><path d="M505.5,57.34 C512.45,72.73 519.5885,88.5227 529.9585,111.4627" fill="none" id="ALUMNOS_ABIERTO-to-completarGestion" style="stroke:#008000;stroke-width:1;"/><polygon fill="#008000" points="532.43,116.93,532.3676,107.0813,530.3704,112.3739,525.0779,110.3767,532.43,116.93" style="stroke:#008000;stroke-width:1;"/></g><!--link PREGUNTAS_ABIERTO to completarGestion--><g class="link" data-entity-1="PREGUNTAS_ABIERTO" data-entity-2="completarGestion" data-source-line="25" data-uid="lnk13" id="link_PREGUNTAS_ABIERTO_completarGestion"><path d="M685.5,57.34 C678.55,72.73 671.4115,88.5227 661.0415,111.4627" fill="none" id="PREGUNTAS_ABIERTO-to-completarGestion" style="stroke:#008000;stroke-width:1;"/><polygon fill="#008000" points="658.57,116.93,665.9221,110.3767,660.6296,112.3739,658.6324,107.0813,658.57,116.93" style="stroke:#008000;stroke-width:1;"/></g><!--link EXAMENES_ASIGNADOS to completarGestion--><g class="link" data-entity-1="EXAMENES_ASIGNADOS" data-entity-2="completarGestion" data-source-line="27" data-uid="lnk15" id="link_EXAMENES_ASIGNADOS_completarGestion"><path d="M878.27,57.13 C856.42,72.54 831.0236,90.4424 798.3336,113.4924" fill="none" id="EXAMENES_ASIGNADOS-to-completarGestion" style="stroke:#008000;stroke-width:1;"/><polygon fill="#008000" points="793.43,116.95,803.0904,115.0327,797.5163,114.0687,798.4803,108.4946,793.43,116.95" style="stroke:#008000;stroke-width:1;"/></g><!--link DOCENTES_ABIERTO to completarGestion--><g class="link" data-entity-1="DOCENTES_ABIERTO" data-entity-2="completarGestion" data-source-line="29" data-uid="lnk17" id="link_DOCENTES_ABIERTO_completarGestion"><path d="M1067.64,57.02 C1018.67,77.71 949.6867,106.8544 874.2267,138.7444" fill="none" id="DOCENTES_ABIERTO-to-completarGestion" style="stroke:#008000;stroke-width:1;"/><polygon fill="#008000" points="868.7,141.08,878.5472,141.261,873.3056,139.1336,875.433,133.892,868.7,141.08" style="stroke:#008000;stroke-width:1;"/></g><!--link completarGestion to SISTEMA_DISPONIBLE--><g class="link" data-entity-1="completarGestion" data-entity-2="SISTEMA_DISPONIBLE" data-source-line="31" data-uid="lnk19" id="link_completarGestion_SISTEMA_DISPONIBLE"><path d="M595.5,398.14 C595.5,421.08 595.5,436.35 595.5,451.73" fill="none" id="completarGestion-to-SISTEMA_DISPONIBLE" style="stroke:#008000;stroke-width:1;"/><polygon fill="#008000" points="595.5,457.73,599.5,448.73,595.5,452.73,591.5,448.73,595.5,457.73" style="stroke:#008000;stroke-width:1;"/></g><!--SRC=[bP7TQi8m5CVlynG7TxCDP2yWGbn3AMWhROM1YAJjOGJR92JPXHjxzntZZKvbBe503h__HuZVAMsbamFqIcFOMmHh-ltXmfWFCY2qPh0z1kbIz44P3TB3wFVmyMa4Num1hQDgH9l0fKEFEaZTcSAs1A8_Kkld3OpN3-yEKM_6qsiWH50RSgDKghIBWqapvTsWjFB1oSuuK9egX8-3IFPW834jEU7afPc2DxrgLP3GAM-DLetgrQTqu4cDWuo6gBkO4Y_nk5Rcj2oLlzcjEZh7T8jkK8HuTES5EdEU_CqOIqkU5DMMpp9HriLPtkKVCCQhBCrvlIhvFpJprIA_aN614xyiHRhAQtwdWZ7nnXSY5yJ7TlIUFmH9yIhoMjmTS34wvQkigiM2RvEiMXPvDfkB7m00]--></g></svg>