<svg xmlns="http://www.w3.org/2000/svg" xmlns:xlink="http://www.w3.org/1999/xlink" contentStyleType="text/css" data-diagram-type="STATE" height="696px" preserveAspectRatio="none" style="width:577px;height:696px;background:#FFFFFF;" version="1.1" viewBox="0 0 577 696" width="577px" zoomAndPan="magnify"><defs/><g><path d="M38.5,7 L494.5,7 A12.5,12.5 0 0 1 507,19.5 L507,33.2969 L26,33.2969 L26,19.5 A12.5,12.5 0 0 1 38.5,7" fill="#F1F1F1"/><rect fill="none" height="538.2969" rx="12.5" ry="12.5" style="stroke:#181818;stroke-width:0.5;" width="481" x="26" y="7"/><line style="stroke:#181818;stroke-width:0.5;" x1="26" x2="507" y1="33.2969" y2="33.2969"/><text fill="#000000" font-family="sans-serif" font-size="14" lengthAdjust="spacing" textLength="123.1221" x="204.939" y="24.9951">crearAsignatura()</text><g id="crearAsignatura.SolicitandoDatosAsignatura"><rect fill="#F1F1F1" height="50" rx="12.5" ry="12.5" style="stroke:#181818;stroke-width:0.5;" width="50" x="38" y="135.2969"/><line style="stroke:#181818;stroke-width:0.5;" x1="38" x2="88" y1="161.5938" y2="161.5938"/><text fill="#000000" font-family="sans-serif" font-size="14" lengthAdjust="spacing" textLength="4.4502" x="60.7749" y="153.292">&#160;</text></g><g id="crearAsignatura.CreandoAsignatura"><rect fill="#F1F1F1" height="50" rx="12.5" ry="12.5" style="stroke:#181818;stroke-width:0.5;" width="50" x="38" y="377.2969"/><line style="stroke:#181818;stroke-width:0.5;" x1="38" x2="88" y1="403.5938" y2="403.5938"/><text fill="#000000" font-family="sans-serif" font-size="14" lengthAdjust="spacing" textLength="4.4502" x="60.7749" y="395.292">&#160;</text></g><ellipse cx="63" cy="54.2969" fill="#222222" rx="10" ry="10" style="stroke:#222222;stroke-width:1;"/><ellipse cx="63" cy="524.2969" fill="none" rx="11" ry="11" style="stroke:#222222;stroke-width:1;"/><ellipse cx="63" cy="524.2969" fill="#222222" rx="6" ry="6" style="stroke:#222222;stroke-width:1;"/><!--link *start*crearAsignatura to SolicitandoDatosAsignatura--><g class="link" data-entity-1=".start.crearAsignatura" data-entity-2="SolicitandoDatosAsignatura" data-source-line="8" data-uid="lnk3" id="link_.start.crearAsignatura_SolicitandoDatosAsignatura"><path d="M63,64.5269 C63,80.2369 63,106.6569 63,129.1669" fill="none" id="*start*crearAsignatura-to-SolicitandoDatosAsignatura" style="stroke:#008000;stroke-width:1;"/><polygon fill="#008000" points="63,135.1669,67,126.1669,63,130.1669,59,126.1669,63,135.1669" style="stroke:#008000;stroke-width:1;"/><path d="M68,87.2969 L68,112.2969 L355,112.2969 L355,97.2969 L345,87.2969 L68,87.2969" fill="#FEFFDD" style="stroke:#181818;stroke-width:0.5;"/><path d="M345,87.2969 L345,97.2969 L355,97.2969 L345,87.2969" fill="#FEFFDD" style="stroke:#181818;stroke-width:0.5;"/><text fill="#000000" font-family="sans-serif" font-size="13" font-weight="bold" lengthAdjust="spacing" textLength="60.5313" x="74" y="104.3638">Docente</text><text fill="#000000" font-family="sans-serif" font-size="13" lengthAdjust="spacing" textLength="201.5635" x="138.6636" y="104.3638">solicita crear nueva asignatura</text></g><!--link SolicitandoDatosAsignatura to CreandoAsignatura--><g class="link" data-entity-1="SolicitandoDatosAsignatura" data-entity-2="CreandoAsignatura" data-source-line="13" data-uid="lnk4" id="link_SolicitandoDatosAsignatura_CreandoAsignatura"><path d="M63,185.6269 C63,231.7469 63,325.3669 63,371.2569" fill="none" id="SolicitandoDatosAsignatura-to-CreandoAsignatura" style="stroke:#008000;stroke-width:1;"/><polygon fill="#008000" points="63,377.2569,67,368.2569,63,372.2569,59,368.2569,63,377.2569" style="stroke:#008000;stroke-width:1;"/><path d="M68,208.2969 L68,354.2969 L498,354.2969 L498,218.2969 L488,208.2969 L68,208.2969" fill="#FEFFDD" style="stroke:#181818;stroke-width:0.5;"/><path d="M488,208.2969 L488,218.2969 L498,218.2969 L488,208.2969" fill="#FEFFDD" style="stroke:#181818;stroke-width:0.5;"/><text fill="#000000" font-family="sans-serif" font-size="13" font-weight="bold" lengthAdjust="spacing" textLength="58.9063" x="74" y="225.3638">Sistema</text><text fill="#000000" font-family="sans-serif" font-size="13" lengthAdjust="spacing" textLength="345.9854" x="137.0386" y="225.3638">presenta solicitud de datos m&#237;nimos de la asignatura</text><text fill="#000000" font-family="sans-serif" font-size="13" lengthAdjust="spacing" textLength="147.6211" x="74" y="240.4966">&#8226; Nombre (obligatorio)</text><text fill="#000000" font-family="sans-serif" font-size="13" lengthAdjust="spacing" textLength="140.7847" x="74" y="255.6294">&#8226; C&#243;digo (obligatorio)</text><text fill="#000000" font-family="sans-serif" font-size="13" lengthAdjust="spacing" textLength="207.9111" x="74" y="270.7622">&#8226; Curso acad&#233;mico (obligatorio)</text><text fill="#000000" font-family="sans-serif" font-size="13" lengthAdjust="spacing" textLength="156.9331" x="74" y="285.895">&#8226; Alumnos matriculados</text><text fill="#000000" font-family="sans-serif" font-size="13" lengthAdjust="spacing" textLength="126.6929" x="74" y="301.0278">&#8226; Grados asociados</text><text fill="#000000" font-family="sans-serif" font-size="13" lengthAdjust="spacing" textLength="4.1323" x="74" y="316.1606">&#160;</text><text fill="#000000" font-family="sans-serif" font-size="13" lengthAdjust="spacing" textLength="229.125" x="74" y="331.2935">&#8226; Permite solicitar crear asignatura</text><text fill="#000000" font-family="sans-serif" font-size="13" lengthAdjust="spacing" textLength="236.6978" x="74" y="346.4263">&#8226; Permite solicitar cancelar creaci&#243;n</text></g><!--link CreandoAsignatura to *end*crearAsignatura--><g class="link" data-entity-1="CreandoAsignatura" data-entity-2=".end.crearAsignatura" data-source-line="26" data-uid="lnk6" id="link_CreandoAsignatura_.end.crearAsignatura"><path d="M63,427.5769 C63,453.8769 63,488.5669 63,507.2769" fill="none" id="CreandoAsignatura-to-*end*crearAsignatura" style="stroke:#008000;stroke-width:1;"/><polygon fill="#008000" points="63,513.2769,67,504.2769,63,508.2769,59,504.2769,63,513.2769" style="stroke:#008000;stroke-width:1;"/><path d="M68,450.2969 L68,490.2969 L396,490.2969 L396,460.2969 L386,450.2969 L68,450.2969" fill="#FEFFDD" style="stroke:#181818;stroke-width:0.5;"/><path d="M386,450.2969 L386,460.2969 L396,460.2969 L386,450.2969" fill="#FEFFDD" style="stroke:#181818;stroke-width:0.5;"/><text fill="#000000" font-family="sans-serif" font-size="13" font-weight="bold" lengthAdjust="spacing" textLength="60.5313" x="74" y="467.3638">Docente</text><text fill="#000000" font-family="sans-serif" font-size="13" lengthAdjust="spacing" textLength="177.8423" x="138.6636" y="467.3638">proporciona datos m&#237;nimos</text><text fill="#000000" font-family="sans-serif" font-size="13" font-weight="bold" lengthAdjust="spacing" textLength="58.9063" x="74" y="482.4966">Sistema</text><text fill="#000000" font-family="sans-serif" font-size="13" lengthAdjust="spacing" textLength="243.9976" x="137.0386" y="482.4966">crea asignatura y transfiere a edici&#243;n</text></g><g id="ASIGNATURAS_ABIERTO"><rect fill="#F1F1F1" height="50" rx="12.5" ry="12.5" style="stroke:#181818;stroke-width:0.5;" width="188.9365" x="7" y="640"/><line style="stroke:#181818;stroke-width:0.5;" x1="7" x2="195.9365" y1="666.2969" y2="666.2969"/><text fill="#000000" font-family="sans-serif" font-size="14" lengthAdjust="spacing" textLength="168.9365" x="17" y="657.9951">ASIGNATURAS_ABIERTO</text></g><g id="ASIGNATURA_ABIERTO"><rect fill="#F1F1F1" height="50" rx="12.5" ry="12.5" style="stroke:#181818;stroke-width:0.5;" width="180.0498" x="234.5" y="640"/><line style="stroke:#181818;stroke-width:0.5;" x1="234.5" x2="414.5498" y1="666.2969" y2="666.2969"/><text fill="#000000" font-family="sans-serif" font-size="14" lengthAdjust="spacing" textLength="160.0498" x="244.5" y="657.9951">ASIGNATURA_ABIERTO</text></g><!--link ASIGNATURAS_ABIERTO to crearAsignatura--><g class="link" data-entity-1="ASIGNATURAS_ABIERTO" data-entity-2="crearAsignatura" data-source-line="33" data-uid="lnk8" id="link_ASIGNATURAS_ABIERTO_crearAsignatura"><path d="M165.47,639.84 C203.55,625.47 244.5,610 244.5,610 C244.5,610 245.8644,589.2769 248.3944,550.9869" fill="none" id="ASIGNATURAS_ABIERTO-to-crearAsignatura" style="stroke:#008000;stroke-width:1;"/><polygon fill="#008000" points="248.79,545,244.2053,553.7167,248.4603,549.9891,252.1879,554.2441,248.79,545" style="stroke:#008000;stroke-width:1;"/></g><!--link crearAsignatura to ASIGNATURAS_ABIERTO--><g class="link" data-entity-1="crearAsignatura" data-entity-2="ASIGNATURAS_ABIERTO" data-source-line="40" data-uid="lnk11" id="link_crearAsignatura_ASIGNATURAS_ABIERTO"><path d="M109.08,545.06 C98.24,563.52 91.5,575 91.5,575 C91.5,575 91.5,610 91.5,610 C91.5,610 93.2639,619.571 95.9339,633.941" fill="none" id="crearAsignatura-to-ASIGNATURAS_ABIERTO" style="stroke:#0000FF;stroke-width:1;"/><polygon fill="#0000FF" points="97.03,639.84,99.3186,630.2607,96.1166,634.9241,91.4532,631.7222,97.03,639.84" style="stroke:#0000FF;stroke-width:1;"/><path d="M96.5,580 L96.5,605 L231.5,605 L231.5,590 L221.5,580 L96.5,580" fill="#FEFFDD" style="stroke:#181818;stroke-width:0.5;"/><path d="M221.5,580 L221.5,590 L231.5,590 L221.5,580" fill="#FEFFDD" style="stroke:#181818;stroke-width:0.5;"/><text fill="#000000" font-family="sans-serif" font-size="13" lengthAdjust="spacing" textLength="114.9624" x="102.5" y="597.0669">cancelar creaci&#243;n</text></g><!--link crearAsignatura to ASIGNATURA_ABIERTO--><g class="link" data-entity-1="crearAsignatura" data-entity-2="ASIGNATURA_ABIERTO" data-source-line="35" data-uid="lnk10" id="link_crearAsignatura_ASIGNATURA_ABIERTO"><path d="M306.7,545.26 C312.52,584.1 316.7387,612.2566 319.9787,633.8266" fill="none" id="crearAsignatura-to-ASIGNATURA_ABIERTO" style="stroke:#008000;stroke-width:1;"/><polygon fill="#008000" points="320.87,639.76,323.4887,630.2657,320.1273,634.8155,315.5775,631.454,320.87,639.76" style="stroke:#008000;stroke-width:1;"/><path d="M320.5,580 L320.5,605 L570.5,605 L570.5,590 L560.5,580 L320.5,580" fill="#FEFFDD" style="stroke:#181818;stroke-width:0.5;"/><path d="M560.5,580 L560.5,590 L570.5,590 L560.5,580" fill="#FEFFDD" style="stroke:#181818;stroke-width:0.5;"/><text fill="#000000" font-family="sans-serif" font-size="13" lengthAdjust="spacing" textLength="229.874" x="326.5" y="597.0669">editarAsignatura(asignaturaNueva)</text></g><!--SRC=[ZLFDQjmm4BxhAORj9Li8UO6mu2ObvB8jSNeAeOobwJ94rXX9BYmXq6VfhOUUyWZx9dsIIjuVhtUz8J8OIVFDpFVDQC8JkmOzrc3PKLms18tOPJue5I960kq9VH5uuJ2s7W43J0xkpgOJU5OAqbhxJDANSALOrXpH6Rd6AA7tECPUfP09jmVfC0yV7-7yuSF24xd7yzaR8Q73EqaXnMKvJzt5PJMx5aqkqkL5DOEmyL_B0jVIponfm8kSMST9I-r-RsJU9tYiunIjaaEa6ZjQZQUGEEAMNsl049YS1-hLNyTrsgGRUqJstw_VC9UwyWHdKbbU91_FCjqPhrQlXXToojhw880QpUfFpVeKhB1jxJ8NZ9vrQz58s1blV3ucOgAvs_L5o-Qlv6jEyhUbzvlQZmWPWQBJP3S-cbUlRj2YFjDHtGTTIS_eNS-ZyTA8romE3we_rhNCQKy6B25wTE47K-e60XaUOVoYL57UtioB-sztHVcz-7Jx-Ux-ou3jmNWfTJY3- -0-s3QM6gXCBE9WM7l2y_pwfsf7RInFPLiQfYd7yunqQXluFm00]--></g></svg>