<svg xmlns="http://www.w3.org/2000/svg" xmlns:xlink="http://www.w3.org/1999/xlink" contentStyleType="text/css" data-diagram-type="STATE" height="696px" preserveAspectRatio="none" style="width:593px;height:696px;background:#FFFFFF;" version="1.1" viewBox="0 0 593 696" width="593px" zoomAndPan="magnify"><defs/><g><path d="M19.5,7 L545.5,7 A12.5,12.5 0 0 1 558,19.5 L558,33.2969 L7,33.2969 L7,19.5 A12.5,12.5 0 0 1 19.5,7" fill="#F1F1F1"/><rect fill="none" height="538.2969" rx="12.5" ry="12.5" style="stroke:#181818;stroke-width:0.5;" width="551" x="7" y="7"/><line style="stroke:#181818;stroke-width:0.5;" x1="7" x2="558" y1="33.2969" y2="33.2969"/><text fill="#000000" font-family="sans-serif" font-size="14" lengthAdjust="spacing" textLength="123.1221" x="220.939" y="24.9951">crearAsignatura()</text><g id="crearAsignatura.SolicitandoDatosAsignatura"><rect fill="#F1F1F1" height="50" rx="12.5" ry="12.5" style="stroke:#181818;stroke-width:0.5;" width="50" x="19" y="135.2969"/><line style="stroke:#181818;stroke-width:0.5;" x1="19" x2="69" y1="161.5938" y2="161.5938"/><text fill="#000000" font-family="sans-serif" font-size="14" lengthAdjust="spacing" textLength="4.4502" x="41.7749" y="153.292">&#160;</text></g><g id="crearAsignatura.CreandoAsignatura"><rect fill="#F1F1F1" height="50" rx="12.5" ry="12.5" style="stroke:#181818;stroke-width:0.5;" width="50" x="19" y="377.2969"/><line style="stroke:#181818;stroke-width:0.5;" x1="19" x2="69" y1="403.5938" y2="403.5938"/><text fill="#000000" font-family="sans-serif" font-size="14" lengthAdjust="spacing" textLength="4.4502" x="41.7749" y="395.292">&#160;</text></g><ellipse cx="44" cy="54.2969" fill="#222222" rx="10" ry="10" style="stroke:#222222;stroke-width:1;"/><ellipse cx="44" cy="524.2969" fill="none" rx="11" ry="11" style="stroke:#222222;stroke-width:1;"/><ellipse cx="44" cy="524.2969" fill="#222222" rx="6" ry="6" style="stroke:#222222;stroke-width:1;"/><!--link *start*crearAsignatura to SolicitandoDatosAsignatura--><g class="link" data-entity-1=".start.crearAsignatura" data-entity-2="SolicitandoDatosAsignatura" data-source-line="8" data-uid="lnk3" id="link_.start.crearAsignatura_SolicitandoDatosAsignatura"><path d="M44,64.5269 C44,80.2369 44,106.6569 44,129.1669" fill="none" id="*start*crearAsignatura-to-SolicitandoDatosAsignatura" style="stroke:#008000;stroke-width:1;"/><polygon fill="#008000" points="44,135.1669,48,126.1669,44,130.1669,40,126.1669,44,135.1669" style="stroke:#008000;stroke-width:1;"/><path d="M49,87.2969 L49,112.2969 L336,112.2969 L336,97.2969 L326,87.2969 L49,87.2969" fill="#FEFFDD" style="stroke:#181818;stroke-width:0.5;"/><path d="M326,87.2969 L326,97.2969 L336,97.2969 L326,87.2969" fill="#FEFFDD" style="stroke:#181818;stroke-width:0.5;"/><text fill="#000000" font-family="sans-serif" font-size="13" font-weight="bold" lengthAdjust="spacing" textLength="60.5313" x="55" y="104.3638">Docente</text><text fill="#000000" font-family="sans-serif" font-size="13" lengthAdjust="spacing" textLength="201.5635" x="119.6636" y="104.3638">solicita crear nueva asignatura</text></g><!--link SolicitandoDatosAsignatura to CreandoAsignatura--><g class="link" data-entity-1="SolicitandoDatosAsignatura" data-entity-2="CreandoAsignatura" data-source-line="13" data-uid="lnk4" id="link_SolicitandoDatosAsignatura_CreandoAsignatura"><path d="M44,185.6269 C44,231.7469 44,325.3669 44,371.2569" fill="none" id="SolicitandoDatosAsignatura-to-CreandoAsignatura" style="stroke:#008000;stroke-width:1;"/><polygon fill="#008000" points="44,377.2569,48,368.2569,44,372.2569,40,368.2569,44,377.2569" style="stroke:#008000;stroke-width:1;"/><path d="M49,208.2969 L49,354.2969 L479,354.2969 L479,218.2969 L469,208.2969 L49,208.2969" fill="#FEFFDD" style="stroke:#181818;stroke-width:0.5;"/><path d="M469,208.2969 L469,218.2969 L479,218.2969 L469,208.2969" fill="#FEFFDD" style="stroke:#181818;stroke-width:0.5;"/><text fill="#000000" font-family="sans-serif" font-size="13" font-weight="bold" lengthAdjust="spacing" textLength="58.9063" x="55" y="225.3638">Sistema</text><text fill="#000000" font-family="sans-serif" font-size="13" lengthAdjust="spacing" textLength="345.9854" x="118.0386" y="225.3638">presenta solicitud de datos m&#237;nimos de la asignatura</text><text fill="#000000" font-family="sans-serif" font-size="13" lengthAdjust="spacing" textLength="147.6211" x="55" y="240.4966">&#8226; Nombre (obligatorio)</text><text fill="#000000" font-family="sans-serif" font-size="13" lengthAdjust="spacing" textLength="140.7847" x="55" y="255.6294">&#8226; C&#243;digo (obligatorio)</text><text fill="#000000" font-family="sans-serif" font-size="13" lengthAdjust="spacing" textLength="207.9111" x="55" y="270.7622">&#8226; Curso acad&#233;mico (obligatorio)</text><text fill="#000000" font-family="sans-serif" font-size="13" lengthAdjust="spacing" textLength="156.9331" x="55" y="285.895">&#8226; Alumnos matriculados</text><text fill="#000000" font-family="sans-serif" font-size="13" lengthAdjust="spacing" textLength="126.6929" x="55" y="301.0278">&#8226; Grados asociados</text><text fill="#000000" font-family="sans-serif" font-size="13" lengthAdjust="spacing" textLength="4.1323" x="55" y="316.1606">&#160;</text><text fill="#000000" font-family="sans-serif" font-size="13" lengthAdjust="spacing" textLength="229.125" x="55" y="331.2935">&#8226; Permite solicitar crear asignatura</text><text fill="#000000" font-family="sans-serif" font-size="13" lengthAdjust="spacing" textLength="236.6978" x="55" y="346.4263">&#8226; Permite solicitar cancelar creaci&#243;n</text></g><!--link CreandoAsignatura to *end*crearAsignatura--><g class="link" data-entity-1="CreandoAsignatura" data-entity-2=".end.crearAsignatura" data-source-line="26" data-uid="lnk6" id="link_CreandoAsignatura_.end.crearAsignatura"><path d="M44,427.5769 C44,453.8769 44,488.5669 44,507.2769" fill="none" id="CreandoAsignatura-to-*end*crearAsignatura" style="stroke:#008000;stroke-width:1;"/><polygon fill="#008000" points="44,513.2769,48,504.2769,44,508.2769,40,504.2769,44,513.2769" style="stroke:#008000;stroke-width:1;"/><path d="M49,450.2969 L49,490.2969 L549,490.2969 L549,460.2969 L539,450.2969 L49,450.2969" fill="#FEFFDD" style="stroke:#181818;stroke-width:0.5;"/><path d="M539,450.2969 L539,460.2969 L549,460.2969 L539,450.2969" fill="#FEFFDD" style="stroke:#181818;stroke-width:0.5;"/><text fill="#000000" font-family="sans-serif" font-size="13" font-weight="bold" lengthAdjust="spacing" textLength="60.5313" x="55" y="467.3638">Docente</text><text fill="#000000" font-family="sans-serif" font-size="13" lengthAdjust="spacing" textLength="177.8423" x="119.6636" y="467.3638">proporciona datos m&#237;nimos</text><text fill="#000000" font-family="sans-serif" font-size="13" font-weight="bold" lengthAdjust="spacing" textLength="58.9063" x="55" y="482.4966">Sistema</text><text fill="#000000" font-family="sans-serif" font-size="13" lengthAdjust="spacing" textLength="416.0127" x="118.0386" y="482.4966">crea asignatura y su bater&#237;a de preguntas y transfiere a edici&#243;n</text></g><g id="ASIGNATURAS_ABIERTO"><rect fill="#F1F1F1" height="50" rx="12.5" ry="12.5" style="stroke:#181818;stroke-width:0.5;" width="188.9365" x="23" y="640"/><line style="stroke:#181818;stroke-width:0.5;" x1="23" x2="211.9365" y1="666.2969" y2="666.2969"/><text fill="#000000" font-family="sans-serif" font-size="14" lengthAdjust="spacing" textLength="168.9365" x="33" y="657.9951">ASIGNATURAS_ABIERTO</text></g><g id="ASIGNATURA_ABIERTO"><rect fill="#F1F1F1" height="50" rx="12.5" ry="12.5" style="stroke:#181818;stroke-width:0.5;" width="180.0498" x="250.5" y="640"/><line style="stroke:#181818;stroke-width:0.5;" x1="250.5" x2="430.5498" y1="666.2969" y2="666.2969"/><text fill="#000000" font-family="sans-serif" font-size="14" lengthAdjust="spacing" textLength="160.0498" x="260.5" y="657.9951">ASIGNATURA_ABIERTO</text></g><!--link ASIGNATURAS_ABIERTO to crearAsignatura--><g class="link" data-entity-1="ASIGNATURAS_ABIERTO" data-entity-2="crearAsignatura" data-source-line="33" data-uid="lnk8" id="link_ASIGNATURAS_ABIERTO_crearAsignatura"><path d="M181.47,639.84 C219.55,625.47 260.5,610 260.5,610 C260.5,610 261.8644,589.2769 264.3944,550.9869" fill="none" id="ASIGNATURAS_ABIERTO-to-crearAsignatura" style="stroke:#008000;stroke-width:1;"/><polygon fill="#008000" points="264.79,545,260.2053,553.7167,264.4603,549.9891,268.1879,554.2441,264.79,545" style="stroke:#008000;stroke-width:1;"/></g><!--link crearAsignatura to ASIGNATURAS_ABIERTO--><g class="link" data-entity-1="crearAsignatura" data-entity-2="ASIGNATURAS_ABIERTO" data-source-line="40" data-uid="lnk11" id="link_crearAsignatura_ASIGNATURAS_ABIERTO"><path d="M125.08,545.06 C114.24,563.52 107.5,575 107.5,575 C107.5,575 107.5,610 107.5,610 C107.5,610 109.2639,619.571 111.9339,633.941" fill="none" id="crearAsignatura-to-ASIGNATURAS_ABIERTO" style="stroke:#0000FF;stroke-width:1;"/><polygon fill="#0000FF" points="113.03,639.84,115.3186,630.2607,112.1166,634.9241,107.4532,631.7222,113.03,639.84" style="stroke:#0000FF;stroke-width:1;"/><path d="M112.5,580 L112.5,605 L247.5,605 L247.5,590 L237.5,580 L112.5,580" fill="#FEFFDD" style="stroke:#181818;stroke-width:0.5;"/><path d="M237.5,580 L237.5,590 L247.5,590 L237.5,580" fill="#FEFFDD" style="stroke:#181818;stroke-width:0.5;"/><text fill="#000000" font-family="sans-serif" font-size="13" lengthAdjust="spacing" textLength="114.9624" x="118.5" y="597.0669">cancelar creaci&#243;n</text></g><!--link crearAsignatura to ASIGNATURA_ABIERTO--><g class="link" data-entity-1="crearAsignatura" data-entity-2="ASIGNATURA_ABIERTO" data-source-line="35" data-uid="lnk10" id="link_crearAsignatura_ASIGNATURA_ABIERTO"><path d="M322.7,545.26 C328.52,584.1 332.7387,612.2566 335.9787,633.8266" fill="none" id="crearAsignatura-to-ASIGNATURA_ABIERTO" style="stroke:#008000;stroke-width:1;"/><polygon fill="#008000" points="336.87,639.76,339.4887,630.2657,336.1273,634.8155,331.5775,631.454,336.87,639.76" style="stroke:#008000;stroke-width:1;"/><path d="M336.5,580 L336.5,605 L586.5,605 L586.5,590 L576.5,580 L336.5,580" fill="#FEFFDD" style="stroke:#181818;stroke-width:0.5;"/><path d="M576.5,580 L576.5,590 L586.5,590 L576.5,580" fill="#FEFFDD" style="stroke:#181818;stroke-width:0.5;"/><text fill="#000000" font-family="sans-serif" font-size="13" lengthAdjust="spacing" textLength="229.874" x="342.5" y="597.0669">editarAsignatura(asignaturaNueva)</text></g><!--SRC=[ZLFDQjmm4BxhAORD9Li8UO6mu2OXvB8jSNeAeOobgH6H9QEVmb8AVPRUUiWfZ-0twPDqvFtnUjSRAeEHDD_CVD-C9hneswB71eos55SjGUlCAX-4214ZWVI4lWYwjXYJHy00iuExy_aCVWW1lDO-C_uOLpgZfOvebRl1wCBWSOozvf2CsuFqcASFpt3nT5Px8ljyiNWd9FHuwpYairdEItznLIrkd2GRwUgoMa3O-AzbWKtqFKiQyIAhrd5uYTtldSpx18zrdA9LwX2fmPvMwoamHzpoImeKWSfveEbUhMvumpVcYEpVNxzXwPhA4voxokYQVRnsyvtnkdjJkdQdhCa71oXHTNyQBK_12fCQcxbWz5ecWyg5dV7EvoCJSrBtkw5esVoPVADP_hRqVbFx2I4JKBIIpCP7wkxDZbeqP3gg-wWh_8p-wtcqthNEI-qi7bH_gckPqvuCM458KF6ZzjqhvdPnM-l4RGriYXvj-AQ96uL0Ia-8-Ib4KTxVBOl7Bmz5-RNuU7_xyFXf9EHWyeGu7Czzy11i6qkC2i0iucYE1otBF1XpiQCsbQSoYSPfokay4qtS1lu7]--></g></svg>