<svg xmlns="http://www.w3.org/2000/svg" xmlns:xlink="http://www.w3.org/1999/xlink" contentStyleType="text/css" data-diagram-type="STATE" height="837px" preserveAspectRatio="none" style="width:806px;height:837px;background:#FFFFFF;" version="1.1" viewBox="0 0 806 837" width="806px" zoomAndPan="magnify"><defs/><g><g id="DOCENTES_ABIERTO"><rect fill="#F1F1F1" height="50" rx="12.5" ry="12.5" style="stroke:#181818;stroke-width:0.5;" width="165.6328" x="219" y="7"/><line style="stroke:#181818;stroke-width:0.5;" x1="219" x2="384.6328" y1="33.2969" y2="33.2969"/><text fill="#000000" font-family="sans-serif" font-size="14" lengthAdjust="spacing" textLength="145.6328" x="229" y="24.9951">DOCENTES_ABIERTO</text></g><g id="DOCENTES_ABIERTO2"><rect fill="#F1F1F1" height="50" rx="12.5" ry="12.5" style="stroke:#181818;stroke-width:0.5;" width="156.7461" x="223.5" y="781"/><line style="stroke:#181818;stroke-width:0.5;" x1="223.5" x2="380.2461" y1="807.2969" y2="807.2969"/><text fill="#000000" font-family="sans-serif" font-size="14" lengthAdjust="spacing" textLength="136.7461" x="233.5" y="798.9951">DOCENTE_ABIERTO</text></g><g id="DOCENTE_ABIERTO"><rect fill="#F1F1F1" height="50" rx="12.5" ry="12.5" style="stroke:#181818;stroke-width:0.5;" width="156.7461" x="420.5" y="7"/><line style="stroke:#181818;stroke-width:0.5;" x1="420.5" x2="577.2461" y1="33.2969" y2="33.2969"/><text fill="#000000" font-family="sans-serif" font-size="14" lengthAdjust="spacing" textLength="136.7461" x="430.5" y="24.9951">DOCENTE_ABIERTO</text></g><path d="M19.5,118 L780.5,118 A12.5,12.5 0 0 1 793,130.5 L793,144.2969 L7,144.2969 L7,130.5 A12.5,12.5 0 0 1 19.5,118" fill="#F1F1F1"/><rect fill="none" height="568.2969" rx="12.5" ry="12.5" style="stroke:#181818;stroke-width:0.5;" width="786" x="7" y="118"/><line style="stroke:#181818;stroke-width:0.5;" x1="7" x2="793" y1="144.2969" y2="144.2969"/><text fill="#000000" font-family="sans-serif" font-size="14" lengthAdjust="spacing" textLength="110.7695" x="344.6152" y="135.9951">editarDocente()</text><g id="editarDocente.EditandoDatos"><rect fill="#F1F1F1" height="50" rx="12.5" ry="12.5" style="stroke:#181818;stroke-width:0.5;" width="50" x="193" y="246.2969"/><line style="stroke:#181818;stroke-width:0.5;" x1="193" x2="243" y1="272.5938" y2="272.5938"/><text fill="#000000" font-family="sans-serif" font-size="14" lengthAdjust="spacing" textLength="4.4502" x="215.7749" y="264.292">&#160;</text></g><g id="editarDocente.GuardandoDatos"><rect fill="#F1F1F1" height="50" rx="12.5" ry="12.5" style="stroke:#181818;stroke-width:0.5;" width="50" x="193" y="533.2969"/><line style="stroke:#181818;stroke-width:0.5;" x1="193" x2="243" y1="559.5938" y2="559.5938"/><text fill="#000000" font-family="sans-serif" font-size="14" lengthAdjust="spacing" textLength="4.4502" x="215.7749" y="551.292">&#160;</text></g><ellipse cx="218" cy="165.2969" fill="#222222" rx="10" ry="10" style="stroke:#222222;stroke-width:1;"/><ellipse cx="218" cy="665.2969" fill="none" rx="11" ry="11" style="stroke:#222222;stroke-width:1;"/><ellipse cx="218" cy="665.2969" fill="#222222" rx="6" ry="6" style="stroke:#222222;stroke-width:1;"/><!--link *start*editarDocente to EditandoDatos--><g class="link" data-entity-1=".start.editarDocente" data-entity-2="EditandoDatos" data-source-line="17" data-uid="lnk5" id="link_.start.editarDocente_EditandoDatos"><path d="M218,175.5269 C218,191.2369 218,217.6569 218,240.1669" fill="none" id="*start*editarDocente-to-EditandoDatos" style="stroke:#008000;stroke-width:1;"/><polygon fill="#008000" points="218,246.1669,222,237.1669,218,241.1669,214,237.1669,218,246.1669" style="stroke:#008000;stroke-width:1;"/><path d="M223,198.2969 L223,223.2969 L593,223.2969 L593,208.2969 L583,198.2969 L223,198.2969" fill="#FEFFDD" style="stroke:#181818;stroke-width:0.5;"/><path d="M583,198.2969 L583,208.2969 L593,208.2969 L583,198.2969" fill="#FEFFDD" style="stroke:#181818;stroke-width:0.5;"/><text fill="#000000" font-family="sans-serif" font-size="13" font-weight="bold" lengthAdjust="spacing" textLength="200.5542" x="229" y="215.3638">Administrador institucional</text><text fill="#000000" font-family="sans-serif" font-size="13" lengthAdjust="spacing" textLength="144.9932" x="433.6865" y="215.3638">solicita editar docente</text></g><!--link EditandoDatos to GuardandoDatos--><g class="link" data-entity-1="EditandoDatos" data-entity-2="GuardandoDatos" data-source-line="22" data-uid="lnk6" id="link_EditandoDatos_GuardandoDatos"><path d="M192.94,279.7069 C152.17,291.7669 76,314.2969 76,314.2969 C76,314.2969 76,515.2969 76,515.2969 C76,515.2969 146.4164,536.1249 187.1864,548.1849" fill="none" id="EditandoDatos-to-GuardandoDatos" style="stroke:#008000;stroke-width:1;"/><polygon fill="#008000" points="192.94,549.8869,185.4443,543.4983,188.1454,548.4686,183.175,551.1697,192.94,549.8869" style="stroke:#008000;stroke-width:1;"/><path d="M81,319.2969 L81,510.2969 L334,510.2969 L334,329.2969 L324,319.2969 L81,319.2969" fill="#FEFFDD" style="stroke:#181818;stroke-width:0.5;"/><path d="M324,319.2969 L324,329.2969 L334,329.2969 L324,319.2969" fill="#FEFFDD" style="stroke:#181818;stroke-width:0.5;"/><text fill="#000000" font-family="sans-serif" font-size="13" font-weight="bold" lengthAdjust="spacing" textLength="58.9063" x="87" y="336.3638">Sistema</text><text fill="#000000" font-family="sans-serif" font-size="13" lengthAdjust="spacing" textLength="169.1714" x="150.0386" y="336.3638">presenta datos de edici&#243;n</text><text fill="#000000" font-family="sans-serif" font-size="13" lengthAdjust="spacing" textLength="63.7368" x="87" y="351.4966">&#8226; Nombre</text><text fill="#000000" font-family="sans-serif" font-size="13" lengthAdjust="spacing" textLength="70.7573" x="87" y="366.6294">&#8226; Apellidos</text><text fill="#000000" font-family="sans-serif" font-size="13" lengthAdjust="spacing" textLength="35.3691" x="87" y="381.7622">&#8226; DNI</text><text fill="#000000" font-family="sans-serif" font-size="13" lengthAdjust="spacing" textLength="136.3794" x="87" y="396.895">&#8226; Nombre de usuario</text><text fill="#000000" font-family="sans-serif" font-size="13" lengthAdjust="spacing" textLength="47.8677" x="87" y="412.0278">&#8226; Email</text><text fill="#000000" font-family="sans-serif" font-size="13" lengthAdjust="spacing" textLength="73.3345" x="87" y="427.1606">&#8226; Password</text><text fill="#000000" font-family="sans-serif" font-size="13" lengthAdjust="spacing" textLength="4.1323" x="87" y="442.2935">&#160;</text><text fill="#000000" font-family="sans-serif" font-size="13" font-weight="bold" lengthAdjust="spacing" textLength="58.9063" x="87" y="457.4263">Sistema</text><text fill="#000000" font-family="sans-serif" font-size="13" lengthAdjust="spacing" textLength="110.5952" x="150.0386" y="457.4263">permite solicitar:</text><text fill="#000000" font-family="sans-serif" font-size="13" lengthAdjust="spacing" textLength="127.8164" x="87" y="472.5591">&#8226; modificar campos</text><text fill="#000000" font-family="sans-serif" font-size="13" lengthAdjust="spacing" textLength="119.9834" x="87" y="487.6919">&#8226; guardar docente</text><text fill="#000000" font-family="sans-serif" font-size="13" lengthAdjust="spacing" textLength="118.168" x="87" y="502.8247">&#8226; cancelar edici&#243;n</text></g><!--link GuardandoDatos to EditandoDatos--><g class="link" data-entity-1="GuardandoDatos" data-entity-2="EditandoDatos" data-source-line="38" data-uid="lnk7" id="link_GuardandoDatos_EditandoDatos"><path d="M243.07,548.5969 C278.51,536.2969 339,515.2969 339,515.2969 C339,515.2969 339,314.2969 339,314.2969 C339,314.2969 284.1783,295.2642 248.7383,282.9642" fill="none" id="GuardandoDatos-to-EditandoDatos" style="stroke:#008000;stroke-width:1;"/><polygon fill="#008000" points="243.07,280.9969,250.261,287.7267,247.7936,282.6363,252.884,280.1689,243.07,280.9969" style="stroke:#008000;stroke-width:1;"/><path d="M344,402.2969 L344,427.2969 L735,427.2969 L735,412.2969 L725,402.2969 L344,402.2969" fill="#FEFFDD" style="stroke:#181818;stroke-width:0.5;"/><path d="M725,402.2969 L725,412.2969 L735,412.2969 L725,402.2969" fill="#FEFFDD" style="stroke:#181818;stroke-width:0.5;"/><text fill="#000000" font-family="sans-serif" font-size="13" font-weight="bold" lengthAdjust="spacing" textLength="200.5542" x="350" y="419.3638">Administrador institucional</text><text fill="#000000" font-family="sans-serif" font-size="13" lengthAdjust="spacing" textLength="165.9214" x="554.6865" y="419.3638">solicita modificar campos</text></g><!--link GuardandoDatos to *end*editarDocente--><g class="link" data-entity-1="GuardandoDatos" data-entity-2=".end.editarDocente" data-source-line="43" data-uid="lnk9" id="link_GuardandoDatos_.end.editarDocente"><path d="M192.67,564.6169 C138.85,575.9169 18,601.2969 18,601.2969 C18,601.2969 18,636.2969 18,636.2969 C18,636.2969 159.7678,656.1458 201.3078,661.9558" fill="none" id="GuardandoDatos-to-*end*editarDocente" style="stroke:#008000;stroke-width:1;"/><polygon fill="#008000" points="207.25,662.7869,198.8908,657.5788,202.2982,662.0943,197.7827,665.5017,207.25,662.7869" style="stroke:#008000;stroke-width:1;"/><path d="M23,606.2969 L23,631.2969 L393,631.2969 L393,616.2969 L383,606.2969 L23,606.2969" fill="#FEFFDD" style="stroke:#181818;stroke-width:0.5;"/><path d="M383,606.2969 L383,616.2969 L393,616.2969 L383,606.2969" fill="#FEFFDD" style="stroke:#181818;stroke-width:0.5;"/><text fill="#000000" font-family="sans-serif" font-size="13" font-weight="bold" lengthAdjust="spacing" textLength="200.5542" x="29" y="623.3638">Administrador institucional</text><text fill="#000000" font-family="sans-serif" font-size="13" lengthAdjust="spacing" textLength="144.5361" x="233.6865" y="623.3638">solicita guardar y salir</text></g><!--link GuardandoDatos to *end*editarDocente--><g class="link" data-entity-1="GuardandoDatos" data-entity-2=".end.editarDocente" data-source-line="48" data-uid="lnk10" id="link_GuardandoDatos_.end.editarDocente"><path d="M243.03,565.1369 C292.49,576.6769 398,601.2969 398,601.2969 C398,601.2969 398,636.2969 398,636.2969 C398,636.2969 273.3986,655.6743 234.6486,661.7043" fill="none" id="GuardandoDatos-to-*end*editarDocente-1" style="stroke:#FF0000;stroke-width:1;"/><polygon fill="#FF0000" points="228.72,662.6269,238.228,665.1954,233.6605,661.8581,236.9979,657.2906,228.72,662.6269" style="stroke:#FF0000;stroke-width:1;"/><path d="M403,606.2969 L403,631.2969 L784,631.2969 L784,616.2969 L774,606.2969 L403,606.2969" fill="#FEFFDD" style="stroke:#181818;stroke-width:0.5;"/><path d="M774,606.2969 L774,616.2969 L784,616.2969 L774,606.2969" fill="#FEFFDD" style="stroke:#181818;stroke-width:0.5;"/><text fill="#000000" font-family="sans-serif" font-size="13" font-weight="bold" lengthAdjust="spacing" textLength="200.5542" x="409" y="623.3638">Administrador institucional</text><text fill="#000000" font-family="sans-serif" font-size="13" lengthAdjust="spacing" textLength="156.2729" x="613.6865" y="623.3638">solicita cancelar edici&#243;n</text></g><g id="DOCENTE_ABIERTO2"><rect fill="#F1F1F1" height="50" rx="12.5" ry="12.5" style="stroke:#181818;stroke-width:0.5;" width="165.6533" x="416" y="781"/><line style="stroke:#181818;stroke-width:0.5;" x1="416" x2="581.6533" y1="807.2969" y2="807.2969"/><text fill="#000000" font-family="sans-serif" font-size="14" lengthAdjust="spacing" textLength="145.6533" x="426" y="798.9951">DOCENTE_ABIERTO2</text></g><!--link DOCENTES_ABIERTO to editarDocente--><g class="link" data-entity-1="DOCENTES_ABIERTO" data-entity-2="editarDocente" data-source-line="8" data-uid="lnk2" id="link_DOCENTES_ABIERTO_editarDocente"><path d="M308.43,57.15 C312.43,72.18 316.5056,87.4822 323.0156,111.9222" fill="none" id="DOCENTES_ABIERTO-to-editarDocente" style="stroke:#008000;stroke-width:1;"/><polygon fill="#008000" points="324.56,117.72,326.1087,107.9937,323.273,112.8885,318.3782,110.0528,324.56,117.72" style="stroke:#008000;stroke-width:1;"/></g><!--link DOCENTE_ABIERTO to editarDocente--><g class="link" data-entity-1="DOCENTE_ABIERTO" data-entity-2="editarDocente" data-source-line="10" data-uid="lnk3" id="link_DOCENTE_ABIERTO_editarDocente"><path d="M492.5,57.15 C488.46,72.18 484.3376,87.4857 477.7676,111.9257" fill="none" id="DOCENTE_ABIERTO-to-editarDocente" style="stroke:#008000;stroke-width:1;"/><polygon fill="#008000" points="476.21,117.72,482.4093,110.067,477.508,112.8914,474.6836,107.9901,476.21,117.72" style="stroke:#008000;stroke-width:1;"/></g><!--link editarDocente to DOCENTE_ABIERTO2--><g class="link" data-entity-1="editarDocente" data-entity-2="DOCENTE_ABIERTO2" data-source-line="54" data-uid="lnk12" id="link_editarDocente_DOCENTE_ABIERTO2"><path d="M469.7,686.02 C479.33,725.15 486.3045,753.4442 491.6145,774.9942" fill="none" id="editarDocente-to-DOCENTE_ABIERTO2" style="stroke:#008000;stroke-width:1;"/><polygon fill="#008000" points="493.05,780.82,494.7806,771.1244,491.8538,775.9652,487.0129,773.0384,493.05,780.82" style="stroke:#008000;stroke-width:1;"/></g><!--link editarDocente to DOCENTES_ABIERTO2--><g class="link" data-entity-1="editarDocente" data-entity-2="DOCENTES_ABIERTO2" data-source-line="56" data-uid="lnk13" id="link_editarDocente_DOCENTES_ABIERTO2"><path d="M331.01,686.02 C321.47,725.15 314.5727,753.4411 309.3127,774.9911" fill="none" id="editarDocente-to-DOCENTES_ABIERTO2" style="stroke:#FF0000;stroke-width:1;"/><polygon fill="#FF0000" points="307.89,780.82,313.91,773.0252,309.0756,775.9626,306.1382,771.1282,307.89,780.82" style="stroke:#FF0000;stroke-width:1;"/><path d="M329,721 L329,746 L456,746 L456,731 L446,721 L329,721" fill="#FEFFDD" style="stroke:#181818;stroke-width:0.5;"/><path d="M446,721 L446,731 L456,731 L446,721" fill="#FEFFDD" style="stroke:#181818;stroke-width:0.5;"/><text fill="#000000" font-family="sans-serif" font-size="13" lengthAdjust="spacing" textLength="106.3677" x="335" y="738.0669">cancelar edici&#243;n</text></g><!--SRC=[hPJHIiCm58RlynI7UgF247OfOp1TaTriudOtXcHD78UbIKaoP8ZWi_WAFe9lufEOjckxj2jkp1OAEUVFd- -SqzQiKIPKqnW4Icwt2OT4YMsw8CHOQZaC9_VXU1PEdmTte_1fDW5g8AW7WnPnznZr8UUJZ2inQT1svXShpRbSTFh06LggXohYql9IUumqX_226O0NkRmAu8qGS5Uk3zpjL64gaamDgLMccNxOKCtAFEG6y-k5n-DvG2QHodaecKvkdGLwo_w0nIZHM4sPqe3IMBIR29MaedUpx8DH0YFdj2i5sAx0T3kNBFTq5oaV_i7xI3vtAzBKuV2OPiSdcXjt7WMMkR6ifH5-VybC_VFn2MCLBpM7SZr8k138YgBJq70yWhhUMMsC0q9LfSAOegYMZzIOLwLPLLkTZkiONG55a_HjkJTM35ymSXsBQ9pigaqJgwm9VYFJU4Hbn8LBU0KMBQuGQiDl7Vdv4pzOmab0xfqy7wDes1OC5QXzYXO2pTc_dV_7ODu9yR_o_GRKVXZT0zeTQkDtHJpe9aG1y0i0]--></g></svg>