<svg xmlns="http://www.w3.org/2000/svg" xmlns:xlink="http://www.w3.org/1999/xlink" contentStyleType="text/css" data-diagram-type="STATE" height="681px" preserveAspectRatio="none" style="width:629px;height:681px;background:#FFFFFF;" version="1.1" viewBox="0 0 629 681" width="629px" zoomAndPan="magnify"><defs/><g><path d="M19.5,7 L603.5,7 A12.5,12.5 0 0 1 616,19.5 L616,33.2969 L7,33.2969 L7,19.5 A12.5,12.5 0 0 1 19.5,7" fill="#F1F1F1"/><rect fill="none" height="523.2969" rx="12.5" ry="12.5" style="stroke:#181818;stroke-width:0.5;" width="609" x="7" y="7"/><line style="stroke:#181818;stroke-width:0.5;" x1="7" x2="616" y1="33.2969" y2="33.2969"/><text fill="#000000" font-family="sans-serif" font-size="14" lengthAdjust="spacing" textLength="167.5078" x="227.7461" y="24.9951">editarDocente(docente)</text><g id="editarDocente.EditandoDatos"><rect fill="#F1F1F1" height="50" rx="12.5" ry="12.5" style="stroke:#181818;stroke-width:0.5;" width="50" x="148" y="135.2969"/><line style="stroke:#181818;stroke-width:0.5;" x1="148" x2="198" y1="161.5938" y2="161.5938"/><text fill="#000000" font-family="sans-serif" font-size="14" lengthAdjust="spacing" textLength="4.4502" x="170.7749" y="153.292">&#160;</text></g><g id="editarDocente.GuardandoDatos"><rect fill="#F1F1F1" height="50" rx="12.5" ry="12.5" style="stroke:#181818;stroke-width:0.5;" width="50" x="148" y="377.2969"/><line style="stroke:#181818;stroke-width:0.5;" x1="148" x2="198" y1="403.5938" y2="403.5938"/><text fill="#000000" font-family="sans-serif" font-size="14" lengthAdjust="spacing" textLength="4.4502" x="170.7749" y="395.292">&#160;</text></g><ellipse cx="173" cy="54.2969" fill="#222222" rx="10" ry="10" style="stroke:#222222;stroke-width:1;"/><ellipse cx="173" cy="509.2969" fill="none" rx="11" ry="11" style="stroke:#222222;stroke-width:1;"/><ellipse cx="173" cy="509.2969" fill="#222222" rx="6" ry="6" style="stroke:#222222;stroke-width:1;"/><!--link *start*editarDocente to EditandoDatos--><g class="link" data-entity-1=".start.editarDocente" data-entity-2="EditandoDatos" data-source-line="8" data-uid="lnk3" id="link_.start.editarDocente_EditandoDatos"><path d="M173,64.5269 C173,80.2369 173,106.6569 173,129.1669" fill="none" id="*start*editarDocente-to-EditandoDatos" style="stroke:#008000;stroke-width:1;"/><polygon fill="#008000" points="173,135.1669,177,126.1669,173,130.1669,169,126.1669,173,135.1669" style="stroke:#008000;stroke-width:1;"/><path d="M178,87.2969 L178,112.2969 L452,112.2969 L452,97.2969 L442,87.2969 L178,87.2969" fill="#FEFFDD" style="stroke:#181818;stroke-width:0.5;"/><path d="M442,87.2969 L442,97.2969 L452,97.2969 L442,87.2969" fill="#FEFFDD" style="stroke:#181818;stroke-width:0.5;"/><text fill="#000000" font-family="sans-serif" font-size="13" font-weight="bold" lengthAdjust="spacing" textLength="104.8633" x="184" y="104.3638">Administrador</text><text fill="#000000" font-family="sans-serif" font-size="13" lengthAdjust="spacing" textLength="144.9932" x="292.9956" y="104.3638">solicita editar docente</text></g><!--link EditandoDatos to GuardandoDatos--><g class="link" data-entity-1="EditandoDatos" data-entity-2="GuardandoDatos" data-source-line="13" data-uid="lnk4" id="link_EditandoDatos_GuardandoDatos"><path d="M147.75,168.1369 C103.83,180.0369 18,203.2969 18,203.2969 C18,203.2969 18,359.2969 18,359.2969 C18,359.2969 98.0388,380.9878 141.9588,392.8878" fill="none" id="EditandoDatos-to-GuardandoDatos" style="stroke:#008000;stroke-width:1;"/><polygon fill="#008000" points="147.75,394.4569,140.1093,388.2424,142.924,393.1493,138.0171,395.964,147.75,394.4569" style="stroke:#008000;stroke-width:1;"/><path d="M23,208.2969 L23,354.2969 L302,354.2969 L302,218.2969 L292,208.2969 L23,208.2969" fill="#FEFFDD" style="stroke:#181818;stroke-width:0.5;"/><path d="M292,208.2969 L292,218.2969 L302,218.2969 L292,208.2969" fill="#FEFFDD" style="stroke:#181818;stroke-width:0.5;"/><text fill="#000000" font-family="sans-serif" font-size="13" font-weight="bold" lengthAdjust="spacing" textLength="58.9063" x="29" y="225.3638">Sistema</text><text fill="#000000" font-family="sans-serif" font-size="13" lengthAdjust="spacing" textLength="169.1714" x="92.0386" y="225.3638">presenta datos de edici&#243;n</text><text fill="#000000" font-family="sans-serif" font-size="13" lengthAdjust="spacing" textLength="152.9341" x="29" y="240.4966">(Recuperados de BDD):</text><text fill="#000000" font-family="sans-serif" font-size="13" lengthAdjust="spacing" textLength="258.9526" x="29" y="255.6294">&#8226; DNI (Identificador), Nombre, Apellidos</text><text fill="#000000" font-family="sans-serif" font-size="13" lengthAdjust="spacing" textLength="244.6958" x="29" y="270.7622">&#8226; [Otros datos de contacto si existen]</text><text fill="#000000" font-family="sans-serif" font-size="13" lengthAdjust="spacing" textLength="4.1323" x="29" y="285.895">&#160;</text><text fill="#000000" font-family="sans-serif" font-size="13" font-weight="bold" lengthAdjust="spacing" textLength="58.9063" x="29" y="301.0278">Sistema</text><text fill="#000000" font-family="sans-serif" font-size="13" lengthAdjust="spacing" textLength="110.5952" x="92.0386" y="301.0278">permite solicitar:</text><text fill="#000000" font-family="sans-serif" font-size="13" lengthAdjust="spacing" textLength="127.8164" x="29" y="316.1606">&#8226; modificar campos</text><text fill="#000000" font-family="sans-serif" font-size="13" lengthAdjust="spacing" textLength="119.9834" x="29" y="331.2935">&#8226; guardar docente</text><text fill="#000000" font-family="sans-serif" font-size="13" lengthAdjust="spacing" textLength="118.168" x="29" y="346.4263">&#8226; cancelar edici&#243;n</text></g><!--link GuardandoDatos to EditandoDatos--><g class="link" data-entity-1="GuardandoDatos" data-entity-2="EditandoDatos" data-source-line="27" data-uid="lnk5" id="link_GuardandoDatos_EditandoDatos"><path d="M198.2,393.3969 C237.02,381.2269 307,359.2969 307,359.2969 C307,359.2969 307,203.2969 307,203.2969 C307,203.2969 242.7453,183.1617 203.9253,170.9917" fill="none" id="GuardandoDatos-to-EditandoDatos" style="stroke:#008000;stroke-width:1;"/><polygon fill="#008000" points="198.2,169.1969,205.5913,175.706,202.971,170.6926,207.9844,168.0723,198.2,169.1969" style="stroke:#008000;stroke-width:1;"/><path d="M312,268.7969 L312,293.7969 L607,293.7969 L607,278.7969 L597,268.7969 L312,268.7969" fill="#FEFFDD" style="stroke:#181818;stroke-width:0.5;"/><path d="M597,268.7969 L597,278.7969 L607,278.7969 L597,268.7969" fill="#FEFFDD" style="stroke:#181818;stroke-width:0.5;"/><text fill="#000000" font-family="sans-serif" font-size="13" font-weight="bold" lengthAdjust="spacing" textLength="104.8633" x="318" y="285.8638">Administrador</text><text fill="#000000" font-family="sans-serif" font-size="13" lengthAdjust="spacing" textLength="165.9214" x="426.9956" y="285.8638">solicita modificar campos</text></g><!--link GuardandoDatos to *end*editarDocente--><g class="link" data-entity-1="GuardandoDatos" data-entity-2=".end.editarDocente" data-source-line="33" data-uid="lnk7" id="link_GuardandoDatos_.end.editarDocente"><path d="M147.56,410.3269 C104.29,422.2869 21,445.2969 21,445.2969 C21,445.2969 21,480.2969 21,480.2969 C21,480.2969 121.3193,498.7799 156.1693,505.1999" fill="none" id="GuardandoDatos-to-*end*editarDocente" style="stroke:#008000;stroke-width:1;"/><polygon fill="#008000" points="162.07,506.2869,153.9436,500.7225,157.1527,505.381,152.4943,508.5902,162.07,506.2869" style="stroke:#008000;stroke-width:1;"/><path d="M26,450.2969 L26,475.2969 L300,475.2969 L300,460.2969 L290,450.2969 L26,450.2969" fill="#FEFFDD" style="stroke:#181818;stroke-width:0.5;"/><path d="M290,450.2969 L290,460.2969 L300,460.2969 L290,450.2969" fill="#FEFFDD" style="stroke:#181818;stroke-width:0.5;"/><text fill="#000000" font-family="sans-serif" font-size="13" font-weight="bold" lengthAdjust="spacing" textLength="104.8633" x="32" y="467.3638">Administrador</text><text fill="#000000" font-family="sans-serif" font-size="13" lengthAdjust="spacing" textLength="144.5361" x="140.9956" y="467.3638">solicita guardar y salir</text></g><!--link GuardandoDatos to *end*editarDocente--><g class="link" data-entity-1="GuardandoDatos" data-entity-2=".end.editarDocente" data-source-line="39" data-uid="lnk8" id="link_GuardandoDatos_.end.editarDocente"><path d="M198.45,411.3969 C236.81,423.5969 305,445.2969 305,445.2969 C305,445.2969 305,480.2969 305,480.2969 C305,480.2969 221.1993,498.0715 189.6693,504.7615" fill="none" id="GuardandoDatos-to-*end*editarDocente-1" style="stroke:#FF0000;stroke-width:1;"/><polygon fill="#FF0000" points="183.8,506.0069,193.4342,508.0517,188.6911,504.9691,191.7738,500.226,183.8,506.0069" style="stroke:#FF0000;stroke-width:1;"/><path d="M310,450.2969 L310,475.2969 L596,475.2969 L596,460.2969 L586,450.2969 L310,450.2969" fill="#FEFFDD" style="stroke:#181818;stroke-width:0.5;"/><path d="M586,450.2969 L586,460.2969 L596,460.2969 L586,450.2969" fill="#FEFFDD" style="stroke:#181818;stroke-width:0.5;"/><text fill="#000000" font-family="sans-serif" font-size="13" font-weight="bold" lengthAdjust="spacing" textLength="104.8633" x="316" y="467.3638">Administrador</text><text fill="#000000" font-family="sans-serif" font-size="13" lengthAdjust="spacing" textLength="156.2729" x="424.9956" y="467.3638">solicita cancelar edici&#243;n</text></g><g id="DOCENTES_ABIERTO"><rect fill="#F1F1F1" height="50" rx="12.5" ry="12.5" style="stroke:#181818;stroke-width:0.5;" width="165.6328" x="228.68" y="625.3"/><line style="stroke:#181818;stroke-width:0.5;" x1="228.68" x2="394.3128" y1="651.5969" y2="651.5969"/><text fill="#000000" font-family="sans-serif" font-size="14" lengthAdjust="spacing" textLength="145.6328" x="238.68" y="643.2951">DOCENTES_ABIERTO</text></g><!--link editarDocente to DOCENTES_ABIERTO--><g class="link" data-entity-1="editarDocente" data-entity-2="DOCENTES_ABIERTO" data-source-line="47" data-uid="lnk10" id="link_editarDocente_DOCENTES_ABIERTO"><path d="M236.09,530.56 C230.8,548.88 227.5,560.3 227.5,560.3 C227.5,560.3 227.5,595.3 227.5,595.3 C227.5,595.3 246.1635,607.2945 268.3835,621.5845" fill="none" id="editarDocente-to-DOCENTES_ABIERTO" style="stroke:#008000;stroke-width:1;"/><polygon fill="#008000" points="273.43,624.83,268.0239,616.5975,269.2246,622.1254,263.6966,623.3261,273.43,624.83" style="stroke:#008000;stroke-width:1;"/><path d="M232.5,565.3 L232.5,590.3 L345.5,590.3 L345.5,575.3 L335.5,565.3 L232.5,565.3" fill="#FEFFDD" style="stroke:#181818;stroke-width:0.5;"/><path d="M335.5,565.3 L335.5,575.3 L345.5,575.3 L335.5,565.3" fill="#FEFFDD" style="stroke:#181818;stroke-width:0.5;"/><text fill="#000000" font-family="sans-serif" font-size="13" lengthAdjust="spacing" textLength="92.3965" x="238.5" y="582.3669">verDocentes()</text></g><!--link editarDocente to DOCENTES_ABIERTO--><g class="link" data-entity-1="editarDocente" data-entity-2="DOCENTES_ABIERTO" data-source-line="52" data-uid="lnk11" id="link_editarDocente_DOCENTES_ABIERTO"><path d="M350.1,530.56 C352.81,548.88 354.5,560.3 354.5,560.3 C354.5,560.3 354.5,595.3 354.5,595.3 C354.5,595.3 346.0957,605.8449 334.7257,620.1349" fill="none" id="editarDocente-to-DOCENTES_ABIERTO-1" style="stroke:#FF0000;stroke-width:1;"/><polygon fill="#FF0000" points="330.99,624.83,339.7237,620.2778,334.1031,620.9174,333.4635,615.2968,330.99,624.83" style="stroke:#FF0000;stroke-width:1;"/><path d="M359.5,565.3 L359.5,590.3 L486.5,590.3 L486.5,575.3 L476.5,565.3 L359.5,565.3" fill="#FEFFDD" style="stroke:#181818;stroke-width:0.5;"/><path d="M476.5,565.3 L476.5,575.3 L486.5,575.3 L476.5,565.3" fill="#FEFFDD" style="stroke:#181818;stroke-width:0.5;"/><text fill="#000000" font-family="sans-serif" font-size="13" lengthAdjust="spacing" textLength="106.3677" x="365.5" y="582.3669">cancelar edici&#243;n</text></g><!--SRC=[fPHHQXin48RVTOh1VUXkIEXx2GOdknI_s2NEcp5bB4s3oAwqI4gmAOMUfLVe4NgJdgGZhJUsuhY1T0tshZJp_z_ybktljUdGOGkDDXIs7K5dcsry4C8730IaT41NMKc6dz33A5ifLFzPZk2R4C1NtpRY5nVNiTOeMs6m_dZxqmCwzRGFlS3oR0KNotTtZiYiBiQv1gGIOrd3caXzdnOkr-E9QhNHFZXKrbr-M8_1sqPBxjtD03lKr416zIfyYQUttEeG8YSz2R5W06ensNUEFFiXgAIcKfPI__vbKdLnG_AXeuYRDg-ggloOTlxy-0dLR0h5L76__gfb7AayXvbjruxEOT9HqsYruuZbotbmKMPmafQDPR3WDT0cGfdLVipdeEHQpRCCURazHcjLydSWiUqE3EzI7dccSLsYaTJmHZRhaFOUuJtK3KWj6njn1vlK0SLd32xUJ5dPyHZwqPQfwzbvENbAtd98NXpr9V05SlO8zKQp4xx6nQVvBJH3lblmREToc1pake-SxueKcC5JOJbI_u7qobShlWinCF4FVvD8lCZ_FmwJgURNzUosNdoPN4thczkvo7WUQMZoHIdsBaTwkw7-hNRCFYZ-1G00]--></g></svg>