<svg xmlns="http://www.w3.org/2000/svg" xmlns:xlink="http://www.w3.org/1999/xlink" contentStyleType="text/css" data-diagram-type="STATE" height="726px" preserveAspectRatio="none" style="width:806px;height:726px;background:#FFFFFF;" version="1.1" viewBox="0 0 806 726" width="806px" zoomAndPan="magnify"><defs/><g><g id="DOCENTES_ABIERTO"><rect fill="#F1F1F1" height="50" rx="12.5" ry="12.5" style="stroke:#181818;stroke-width:0.5;" width="165.6328" x="317.18" y="7"/><line style="stroke:#181818;stroke-width:0.5;" x1="317.18" x2="482.8128" y1="33.2969" y2="33.2969"/><text fill="#000000" font-family="sans-serif" font-size="14" lengthAdjust="spacing" textLength="145.6328" x="327.18" y="24.9951">DOCENTES_ABIERTO</text></g><path d="M19.5,152 L780.5,152 A12.5,12.5 0 0 1 793,164.5 L793,178.2969 L7,178.2969 L7,164.5 A12.5,12.5 0 0 1 19.5,152" fill="#F1F1F1"/><rect fill="none" height="568.2969" rx="12.5" ry="12.5" style="stroke:#181818;stroke-width:0.5;" width="786" x="7" y="152"/><line style="stroke:#181818;stroke-width:0.5;" x1="7" x2="793" y1="178.2969" y2="178.2969"/><text fill="#000000" font-family="sans-serif" font-size="14" lengthAdjust="spacing" textLength="110.7695" x="344.6152" y="169.9951">editarDocente()</text><g id="editarDocente.EditandoDatos"><rect fill="#F1F1F1" height="50" rx="12.5" ry="12.5" style="stroke:#181818;stroke-width:0.5;" width="50" x="193" y="280.2969"/><line style="stroke:#181818;stroke-width:0.5;" x1="193" x2="243" y1="306.5938" y2="306.5938"/><text fill="#000000" font-family="sans-serif" font-size="14" lengthAdjust="spacing" textLength="4.4502" x="215.7749" y="298.292">&#160;</text></g><g id="editarDocente.GuardandoDatos"><rect fill="#F1F1F1" height="50" rx="12.5" ry="12.5" style="stroke:#181818;stroke-width:0.5;" width="50" x="193" y="567.2969"/><line style="stroke:#181818;stroke-width:0.5;" x1="193" x2="243" y1="593.5938" y2="593.5938"/><text fill="#000000" font-family="sans-serif" font-size="14" lengthAdjust="spacing" textLength="4.4502" x="215.7749" y="585.292">&#160;</text></g><ellipse cx="218" cy="199.2969" fill="#222222" rx="10" ry="10" style="stroke:#222222;stroke-width:1;"/><ellipse cx="218" cy="699.2969" fill="none" rx="11" ry="11" style="stroke:#222222;stroke-width:1;"/><ellipse cx="218" cy="699.2969" fill="#222222" rx="6" ry="6" style="stroke:#222222;stroke-width:1;"/><!--link *start*editarDocente to EditandoDatos--><g class="link" data-entity-1=".start.editarDocente" data-entity-2="EditandoDatos" data-source-line="12" data-uid="lnk4" id="link_.start.editarDocente_EditandoDatos"><path d="M218,209.5269 C218,225.2369 218,251.6569 218,274.1669" fill="none" id="*start*editarDocente-to-EditandoDatos" style="stroke:#008000;stroke-width:1;"/><polygon fill="#008000" points="218,280.1669,222,271.1669,218,275.1669,214,271.1669,218,280.1669" style="stroke:#008000;stroke-width:1;"/><path d="M223,232.2969 L223,257.2969 L593,257.2969 L593,242.2969 L583,232.2969 L223,232.2969" fill="#FEFFDD" style="stroke:#181818;stroke-width:0.5;"/><path d="M583,232.2969 L583,242.2969 L593,242.2969 L583,232.2969" fill="#FEFFDD" style="stroke:#181818;stroke-width:0.5;"/><text fill="#000000" font-family="sans-serif" font-size="13" font-weight="bold" lengthAdjust="spacing" textLength="200.5542" x="229" y="249.3638">Administrador institucional</text><text fill="#000000" font-family="sans-serif" font-size="13" lengthAdjust="spacing" textLength="144.9932" x="433.6865" y="249.3638">solicita editar docente</text></g><!--link EditandoDatos to GuardandoDatos--><g class="link" data-entity-1="EditandoDatos" data-entity-2="GuardandoDatos" data-source-line="17" data-uid="lnk5" id="link_EditandoDatos_GuardandoDatos"><path d="M192.61,313.8069 C151.77,325.8869 76,348.2969 76,348.2969 C76,348.2969 76,549.2969 76,549.2969 C76,549.2969 146.0164,570.005 186.8564,582.085" fill="none" id="EditandoDatos-to-GuardandoDatos" style="stroke:#008000;stroke-width:1;"/><polygon fill="#008000" points="192.61,583.7869,185.1142,577.3984,187.8153,582.3687,182.8451,585.0698,192.61,583.7869" style="stroke:#008000;stroke-width:1;"/><path d="M81,353.2969 L81,544.2969 L334,544.2969 L334,363.2969 L324,353.2969 L81,353.2969" fill="#FEFFDD" style="stroke:#181818;stroke-width:0.5;"/><path d="M324,353.2969 L324,363.2969 L334,363.2969 L324,353.2969" fill="#FEFFDD" style="stroke:#181818;stroke-width:0.5;"/><text fill="#000000" font-family="sans-serif" font-size="13" font-weight="bold" lengthAdjust="spacing" textLength="58.9063" x="87" y="370.3638">Sistema</text><text fill="#000000" font-family="sans-serif" font-size="13" lengthAdjust="spacing" textLength="169.1714" x="150.0386" y="370.3638">presenta datos de edici&#243;n</text><text fill="#000000" font-family="sans-serif" font-size="13" lengthAdjust="spacing" textLength="63.7368" x="87" y="385.4966">&#8226; Nombre</text><text fill="#000000" font-family="sans-serif" font-size="13" lengthAdjust="spacing" textLength="70.7573" x="87" y="400.6294">&#8226; Apellidos</text><text fill="#000000" font-family="sans-serif" font-size="13" lengthAdjust="spacing" textLength="35.3691" x="87" y="415.7622">&#8226; DNI</text><text fill="#000000" font-family="sans-serif" font-size="13" lengthAdjust="spacing" textLength="134.894" x="87" y="430.895">&#8226; nombre de usuario</text><text fill="#000000" font-family="sans-serif" font-size="13" lengthAdjust="spacing" textLength="47.8677" x="87" y="446.0278">&#8226; Email</text><text fill="#000000" font-family="sans-serif" font-size="13" lengthAdjust="spacing" textLength="73.3345" x="87" y="461.1606">&#8226; Password</text><text fill="#000000" font-family="sans-serif" font-size="13" lengthAdjust="spacing" textLength="4.1323" x="87" y="476.2935">&#160;</text><text fill="#000000" font-family="sans-serif" font-size="13" font-weight="bold" lengthAdjust="spacing" textLength="58.9063" x="87" y="491.4263">Sistema</text><text fill="#000000" font-family="sans-serif" font-size="13" lengthAdjust="spacing" textLength="110.5952" x="150.0386" y="491.4263">permite solicitar:</text><text fill="#000000" font-family="sans-serif" font-size="13" lengthAdjust="spacing" textLength="127.8164" x="87" y="506.5591">&#8226; modificar campos</text><text fill="#000000" font-family="sans-serif" font-size="13" lengthAdjust="spacing" textLength="119.9834" x="87" y="521.6919">&#8226; guardar docente</text><text fill="#000000" font-family="sans-serif" font-size="13" lengthAdjust="spacing" textLength="118.168" x="87" y="536.8247">&#8226; cancelar edici&#243;n</text></g><!--link GuardandoDatos to EditandoDatos--><g class="link" data-entity-1="GuardandoDatos" data-entity-2="EditandoDatos" data-source-line="33" data-uid="lnk6" id="link_GuardandoDatos_EditandoDatos"><path d="M243.37,582.4969 C278.85,570.1769 339,549.2969 339,549.2969 C339,549.2969 339,348.2969 339,348.2969 C339,348.2969 284.518,329.385 249.038,317.065" fill="none" id="GuardandoDatos-to-EditandoDatos" style="stroke:#008000;stroke-width:1;"/><polygon fill="#008000" points="243.37,315.0969,250.5599,321.8278,248.0933,316.737,253.1841,314.2704,243.37,315.0969" style="stroke:#008000;stroke-width:1;"/><path d="M344,436.2969 L344,461.2969 L735,461.2969 L735,446.2969 L725,436.2969 L344,436.2969" fill="#FEFFDD" style="stroke:#181818;stroke-width:0.5;"/><path d="M725,436.2969 L725,446.2969 L735,446.2969 L725,436.2969" fill="#FEFFDD" style="stroke:#181818;stroke-width:0.5;"/><text fill="#000000" font-family="sans-serif" font-size="13" font-weight="bold" lengthAdjust="spacing" textLength="200.5542" x="350" y="453.3638">Administrador institucional</text><text fill="#000000" font-family="sans-serif" font-size="13" lengthAdjust="spacing" textLength="165.9214" x="554.6865" y="453.3638">solicita modificar campos</text></g><!--link GuardandoDatos to *end*editarDocente--><g class="link" data-entity-1="GuardandoDatos" data-entity-2=".end.editarDocente" data-source-line="38" data-uid="lnk8" id="link_GuardandoDatos_.end.editarDocente"><path d="M192.67,598.6169 C138.85,609.9169 18,635.2969 18,635.2969 C18,635.2969 18,670.2969 18,670.2969 C18,670.2969 159.0879,690.045 201.0179,695.915" fill="none" id="GuardandoDatos-to-*end*editarDocente" style="stroke:#008000;stroke-width:1;"/><polygon fill="#008000" points="206.96,696.7469,198.6015,691.5377,202.0083,696.0537,197.4923,699.4605,206.96,696.7469" style="stroke:#008000;stroke-width:1;"/><path d="M23,640.2969 L23,665.2969 L393,665.2969 L393,650.2969 L383,640.2969 L23,640.2969" fill="#FEFFDD" style="stroke:#181818;stroke-width:0.5;"/><path d="M383,640.2969 L383,650.2969 L393,650.2969 L383,640.2969" fill="#FEFFDD" style="stroke:#181818;stroke-width:0.5;"/><text fill="#000000" font-family="sans-serif" font-size="13" font-weight="bold" lengthAdjust="spacing" textLength="200.5542" x="29" y="657.3638">Administrador institucional</text><text fill="#000000" font-family="sans-serif" font-size="13" lengthAdjust="spacing" textLength="144.5361" x="233.6865" y="657.3638">solicita guardar y salir</text></g><!--link GuardandoDatos to *end*editarDocente--><g class="link" data-entity-1="GuardandoDatos" data-entity-2=".end.editarDocente" data-source-line="43" data-uid="lnk9" id="link_GuardandoDatos_.end.editarDocente"><path d="M243.41,599.2269 C293.02,610.8069 398,635.2969 398,635.2969 C398,635.2969 398,670.2969 398,670.2969 C398,670.2969 273.9987,689.5845 234.9187,695.6645" fill="none" id="GuardandoDatos-to-*end*editarDocente-1" style="stroke:#FF0000;stroke-width:1;"/><polygon fill="#FF0000" points="228.99,696.5869,238.4979,699.1558,233.9306,695.8182,237.2681,691.2509,228.99,696.5869" style="stroke:#FF0000;stroke-width:1;"/><path d="M403,640.2969 L403,665.2969 L784,665.2969 L784,650.2969 L774,640.2969 L403,640.2969" fill="#FEFFDD" style="stroke:#181818;stroke-width:0.5;"/><path d="M774,640.2969 L774,650.2969 L784,650.2969 L774,640.2969" fill="#FEFFDD" style="stroke:#181818;stroke-width:0.5;"/><text fill="#000000" font-family="sans-serif" font-size="13" font-weight="bold" lengthAdjust="spacing" textLength="200.5542" x="409" y="657.3638">Administrador institucional</text><text fill="#000000" font-family="sans-serif" font-size="13" lengthAdjust="spacing" textLength="156.2729" x="613.6865" y="657.3638">solicita cancelar edici&#243;n</text></g><!--link DOCENTES_ABIERTO to editarDocente--><g class="link" data-entity-1="DOCENTES_ABIERTO" data-entity-2="editarDocente" data-source-line="5" data-uid="lnk2" id="link_DOCENTES_ABIERTO_editarDocente"><path d="M383.69,57.48 C374.16,71.76 364,87 364,87 C364,87 364,122 364,122 C364,122 364.6261,127.3991 366.7361,145.7891" fill="none" id="DOCENTES_ABIERTO-to-editarDocente" style="stroke:#008000;stroke-width:1;"/><polygon fill="#008000" points="367.42,151.75,370.368,142.3527,366.8501,146.7826,362.4202,143.2646,367.42,151.75" style="stroke:#008000;stroke-width:1;"/></g><!--link editarDocente to DOCENTES_ABIERTO--><g class="link" data-entity-1="editarDocente" data-entity-2="DOCENTES_ABIERTO" data-source-line="49" data-uid="lnk10" id="link_editarDocente_DOCENTES_ABIERTO"><path d="M397.28,151.75 C397.11,133.36 397,122 397,122 C397,122 397,87 397,87 C397,87 397.5186,77.7508 398.3086,63.4708" fill="none" id="editarDocente-to-DOCENTES_ABIERTO" style="stroke:#008000;stroke-width:1;"/><polygon fill="#008000" points="398.64,57.48,394.149,66.2453,398.3638,62.4724,402.1368,66.6872,398.64,57.48" style="stroke:#008000;stroke-width:1;"/><path d="M402,92 L402,117 L515,117 L515,102 L505,92 L402,92" fill="#FEFFDD" style="stroke:#181818;stroke-width:0.5;"/><path d="M505,92 L505,102 L515,102 L505,92" fill="#FEFFDD" style="stroke:#181818;stroke-width:0.5;"/><text fill="#000000" font-family="sans-serif" font-size="13" lengthAdjust="spacing" textLength="92.3965" x="408" y="109.0669">verDocentes()</text></g><!--link editarDocente to DOCENTES_ABIERTO--><g class="link" data-entity-1="editarDocente" data-entity-2="DOCENTES_ABIERTO" data-source-line="54" data-uid="lnk11" id="link_editarDocente_DOCENTES_ABIERTO"><path d="M512.22,151.75 C519.5,133.36 524,122 524,122 C524,122 524,87 524,87 C524,87 494.5012,74.1551 461.7012,59.8751" fill="none" id="editarDocente-to-DOCENTES_ABIERTO-1" style="stroke:#FF0000;stroke-width:1;"/><polygon fill="#FF0000" points="456.2,57.48,462.8552,64.7401,460.7844,59.4759,466.0486,57.4051,456.2,57.48" style="stroke:#FF0000;stroke-width:1;"/><path d="M529,92 L529,117 L656,117 L656,102 L646,92 L529,92" fill="#FEFFDD" style="stroke:#181818;stroke-width:0.5;"/><path d="M646,92 L646,102 L656,102 L646,92" fill="#FEFFDD" style="stroke:#181818;stroke-width:0.5;"/><text fill="#000000" font-family="sans-serif" font-size="13" lengthAdjust="spacing" textLength="106.3677" x="535" y="109.0669">cancelar edici&#243;n</text></g><!--SRC=[hLHRIiD05FsVLLpgJoiK_wKKgWdIdrPi_qgHQMOibyuZp4oL8e9hSGikmPsu4YVlJcCLgGa4xcFEFUVS97Q3AgM6IX2ekDkb758jTbb0Y7NKSOYcr_5a7i_kHrVZ-6u-9UGm0_t5sTfmhfRz8N26Zff89rov6YD80hNG2JBTNWUU2G5_5VqTV_kkE6jIJ4VKQTiktsofONKT2e35-JBW4s10tgAqnz0gaxp94uFLSCGaAhJEKAODeB8EtJP1hQWONAo6OBN0n2ELKe2L0hFZNB42qr-aVeI3zoc5l8zIcdawND9yV6guzVCei1oDvPOc-F6kykxFrpUOQBao7Efub78Xa5MYirGq6JU1AlezrDPwGgYRKYmfYYQyfTO-QSCQROVik97e1LGccSlwhDGC7p3nZYLKfgNQhB3EJGYDpF89LGaNlX08h2nkA1mi_-ZAJz_ujnB-HCY_awVJg0pRWQK2JSZY20F3sR_D_sKnBuI4N_c-0Qr_IC3aaLU7RBT76aqjl5BEpsXjdXNY5m00]--></g></svg>