<svg xmlns="http://www.w3.org/2000/svg" xmlns:xlink="http://www.w3.org/1999/xlink" contentStyleType="text/css" data-diagram-type="STATE" height="681px" preserveAspectRatio="none" style="width:674px;height:681px;background:#FFFFFF;" version="1.1" viewBox="0 0 674 681" width="674px" zoomAndPan="magnify"><defs/><g><path d="M19.5,7 L648.5,7 A12.5,12.5 0 0 1 661,19.5 L661,33.2969 L7,33.2969 L7,19.5 A12.5,12.5 0 0 1 19.5,7" fill="#F1F1F1"/><rect fill="none" height="523.2969" rx="12.5" ry="12.5" style="stroke:#181818;stroke-width:0.5;" width="654" x="7" y="7"/><line style="stroke:#181818;stroke-width:0.5;" x1="7" x2="661" y1="33.2969" y2="33.2969"/><text fill="#000000" font-family="sans-serif" font-size="14" lengthAdjust="spacing" textLength="167.5078" x="250.2461" y="24.9951">editarDocente(docente)</text><g id="editarDocente.EditandoDatos"><rect fill="#F1F1F1" height="50" rx="12.5" ry="12.5" style="stroke:#181818;stroke-width:0.5;" width="50" x="170" y="135.2969"/><line style="stroke:#181818;stroke-width:0.5;" x1="170" x2="220" y1="161.5938" y2="161.5938"/><text fill="#000000" font-family="sans-serif" font-size="14" lengthAdjust="spacing" textLength="4.4502" x="192.7749" y="153.292">&#160;</text></g><g id="editarDocente.GuardandoDatos"><rect fill="#F1F1F1" height="50" rx="12.5" ry="12.5" style="stroke:#181818;stroke-width:0.5;" width="50" x="170" y="377.2969"/><line style="stroke:#181818;stroke-width:0.5;" x1="170" x2="220" y1="403.5938" y2="403.5938"/><text fill="#000000" font-family="sans-serif" font-size="14" lengthAdjust="spacing" textLength="4.4502" x="192.7749" y="395.292">&#160;</text></g><ellipse cx="195" cy="54.2969" fill="#222222" rx="10" ry="10" style="stroke:#222222;stroke-width:1;"/><ellipse cx="195" cy="509.2969" fill="none" rx="11" ry="11" style="stroke:#222222;stroke-width:1;"/><ellipse cx="195" cy="509.2969" fill="#222222" rx="6" ry="6" style="stroke:#222222;stroke-width:1;"/><!--link *start*editarDocente to EditandoDatos--><g class="link" data-entity-1=".start.editarDocente" data-entity-2="EditandoDatos" data-source-line="8" data-uid="lnk3" id="link_.start.editarDocente_EditandoDatos"><path d="M195,64.5269 C195,80.2369 195,106.6569 195,129.1669" fill="none" id="*start*editarDocente-to-EditandoDatos" style="stroke:#008000;stroke-width:1;"/><polygon fill="#008000" points="195,135.1669,199,126.1669,195,130.1669,191,126.1669,195,135.1669" style="stroke:#008000;stroke-width:1;"/><path d="M200,87.2969 L200,112.2969 L474,112.2969 L474,97.2969 L464,87.2969 L200,87.2969" fill="#FEFFDD" style="stroke:#181818;stroke-width:0.5;"/><path d="M464,87.2969 L464,97.2969 L474,97.2969 L464,87.2969" fill="#FEFFDD" style="stroke:#181818;stroke-width:0.5;"/><text fill="#000000" font-family="sans-serif" font-size="13" font-weight="bold" lengthAdjust="spacing" textLength="104.8633" x="206" y="104.3638">Administrador</text><text fill="#000000" font-family="sans-serif" font-size="13" lengthAdjust="spacing" textLength="144.9932" x="314.9956" y="104.3638">solicita editar docente</text></g><!--link EditandoDatos to GuardandoDatos--><g class="link" data-entity-1="EditandoDatos" data-entity-2="GuardandoDatos" data-source-line="13" data-uid="lnk4" id="link_EditandoDatos_GuardandoDatos"><path d="M169.64,167.3169 C120.7,178.9269 18,203.2969 18,203.2969 C18,203.2969 18,359.2969 18,359.2969 C18,359.2969 114.862,382.2819 163.802,393.8919" fill="none" id="EditandoDatos-to-GuardandoDatos" style="stroke:#008000;stroke-width:1;"/><polygon fill="#008000" points="169.64,395.2769,161.8063,389.3075,164.775,394.1228,159.9597,397.0915,169.64,395.2769" style="stroke:#008000;stroke-width:1;"/><path d="M23,208.2969 L23,354.2969 L347,354.2969 L347,218.2969 L337,208.2969 L23,208.2969" fill="#FEFFDD" style="stroke:#181818;stroke-width:0.5;"/><path d="M337,208.2969 L337,218.2969 L347,218.2969 L337,208.2969" fill="#FEFFDD" style="stroke:#181818;stroke-width:0.5;"/><text fill="#000000" font-family="sans-serif" font-size="13" font-weight="bold" lengthAdjust="spacing" textLength="58.9063" x="29" y="225.3638">Sistema</text><text fill="#000000" font-family="sans-serif" font-size="13" lengthAdjust="spacing" textLength="169.1714" x="92.0386" y="225.3638">presenta datos de edici&#243;n</text><text fill="#000000" font-family="sans-serif" font-size="13" lengthAdjust="spacing" textLength="152.9341" x="29" y="240.4966">(Recuperados de BDD):</text><text fill="#000000" font-family="sans-serif" font-size="13" lengthAdjust="spacing" textLength="303.2847" x="29" y="255.6294">&#8226; DNI (Identificador), Nombre, Apellidos, Email</text><text fill="#000000" font-family="sans-serif" font-size="13" lengthAdjust="spacing" textLength="244.6958" x="29" y="270.7622">&#8226; [Otros datos de contacto si existen]</text><text fill="#000000" font-family="sans-serif" font-size="13" lengthAdjust="spacing" textLength="4.1323" x="29" y="285.895">&#160;</text><text fill="#000000" font-family="sans-serif" font-size="13" font-weight="bold" lengthAdjust="spacing" textLength="58.9063" x="29" y="301.0278">Sistema</text><text fill="#000000" font-family="sans-serif" font-size="13" lengthAdjust="spacing" textLength="110.5952" x="92.0386" y="301.0278">permite solicitar:</text><text fill="#000000" font-family="sans-serif" font-size="13" lengthAdjust="spacing" textLength="127.8164" x="29" y="316.1606">&#8226; modificar campos</text><text fill="#000000" font-family="sans-serif" font-size="13" lengthAdjust="spacing" textLength="119.9834" x="29" y="331.2935">&#8226; guardar docente</text><text fill="#000000" font-family="sans-serif" font-size="13" lengthAdjust="spacing" textLength="118.168" x="29" y="346.4263">&#8226; cancelar edici&#243;n</text></g><!--link GuardandoDatos to EditandoDatos--><g class="link" data-entity-1="GuardandoDatos" data-entity-2="EditandoDatos" data-source-line="27" data-uid="lnk5" id="link_GuardandoDatos_EditandoDatos"><path d="M220.22,394.5469 C264.61,382.6769 352,359.2969 352,359.2969 C352,359.2969 352,203.2969 352,203.2969 C352,203.2969 270.4063,181.4668 226.0163,169.5968" fill="none" id="GuardandoDatos-to-EditandoDatos" style="stroke:#008000;stroke-width:1;"/><polygon fill="#008000" points="220.22,168.0469,227.8812,174.236,225.0503,169.3385,229.9478,166.5076,220.22,168.0469" style="stroke:#008000;stroke-width:1;"/><path d="M357,268.7969 L357,293.7969 L652,293.7969 L652,278.7969 L642,268.7969 L357,268.7969" fill="#FEFFDD" style="stroke:#181818;stroke-width:0.5;"/><path d="M642,268.7969 L642,278.7969 L652,278.7969 L642,268.7969" fill="#FEFFDD" style="stroke:#181818;stroke-width:0.5;"/><text fill="#000000" font-family="sans-serif" font-size="13" font-weight="bold" lengthAdjust="spacing" textLength="104.8633" x="363" y="285.8638">Administrador</text><text fill="#000000" font-family="sans-serif" font-size="13" lengthAdjust="spacing" textLength="165.9214" x="471.9956" y="285.8638">solicita modificar campos</text></g><!--link GuardandoDatos to *end*editarDocente--><g class="link" data-entity-1="GuardandoDatos" data-entity-2=".end.editarDocente" data-source-line="33" data-uid="lnk7" id="link_GuardandoDatos_.end.editarDocente"><path d="M169.56,410.3269 C126.29,422.2869 43,445.2969 43,445.2969 C43,445.2969 43,480.2969 43,480.2969 C43,480.2969 143.3193,498.7799 178.1693,505.1999" fill="none" id="GuardandoDatos-to-*end*editarDocente" style="stroke:#008000;stroke-width:1;"/><polygon fill="#008000" points="184.07,506.2869,175.9436,500.7225,179.1527,505.381,174.4943,508.5902,184.07,506.2869" style="stroke:#008000;stroke-width:1;"/><path d="M48,450.2969 L48,475.2969 L322,475.2969 L322,460.2969 L312,450.2969 L48,450.2969" fill="#FEFFDD" style="stroke:#181818;stroke-width:0.5;"/><path d="M312,450.2969 L312,460.2969 L322,460.2969 L312,450.2969" fill="#FEFFDD" style="stroke:#181818;stroke-width:0.5;"/><text fill="#000000" font-family="sans-serif" font-size="13" font-weight="bold" lengthAdjust="spacing" textLength="104.8633" x="54" y="467.3638">Administrador</text><text fill="#000000" font-family="sans-serif" font-size="13" lengthAdjust="spacing" textLength="144.5361" x="162.9956" y="467.3638">solicita guardar y salir</text></g><!--link GuardandoDatos to *end*editarDocente--><g class="link" data-entity-1="GuardandoDatos" data-entity-2=".end.editarDocente" data-source-line="39" data-uid="lnk8" id="link_GuardandoDatos_.end.editarDocente"><path d="M220.45,411.3969 C258.81,423.5969 327,445.2969 327,445.2969 C327,445.2969 327,480.2969 327,480.2969 C327,480.2969 243.1993,498.0715 211.6693,504.7615" fill="none" id="GuardandoDatos-to-*end*editarDocente-1" style="stroke:#FF0000;stroke-width:1;"/><polygon fill="#FF0000" points="205.8,506.0069,215.4342,508.0517,210.6911,504.9691,213.7738,500.226,205.8,506.0069" style="stroke:#FF0000;stroke-width:1;"/><path d="M332,450.2969 L332,475.2969 L618,475.2969 L618,460.2969 L608,450.2969 L332,450.2969" fill="#FEFFDD" style="stroke:#181818;stroke-width:0.5;"/><path d="M608,450.2969 L608,460.2969 L618,460.2969 L608,450.2969" fill="#FEFFDD" style="stroke:#181818;stroke-width:0.5;"/><text fill="#000000" font-family="sans-serif" font-size="13" font-weight="bold" lengthAdjust="spacing" textLength="104.8633" x="338" y="467.3638">Administrador</text><text fill="#000000" font-family="sans-serif" font-size="13" lengthAdjust="spacing" textLength="156.2729" x="446.9956" y="467.3638">solicita cancelar edici&#243;n</text></g><g id="DOCENTES_ABIERTO"><rect fill="#F1F1F1" height="50" rx="12.5" ry="12.5" style="stroke:#181818;stroke-width:0.5;" width="165.6328" x="251.18" y="625.3"/><line style="stroke:#181818;stroke-width:0.5;" x1="251.18" x2="416.8128" y1="651.5969" y2="651.5969"/><text fill="#000000" font-family="sans-serif" font-size="14" lengthAdjust="spacing" textLength="145.6328" x="261.18" y="643.2951">DOCENTES_ABIERTO</text></g><!--link editarDocente to DOCENTES_ABIERTO--><g class="link" data-entity-1="editarDocente" data-entity-2="DOCENTES_ABIERTO" data-source-line="47" data-uid="lnk10" id="link_editarDocente_DOCENTES_ABIERTO"><path d="M258.59,530.56 C253.3,548.88 250,560.3 250,560.3 C250,560.3 250,595.3 250,595.3 C250,595.3 268.6635,607.2945 290.8835,621.5845" fill="none" id="editarDocente-to-DOCENTES_ABIERTO" style="stroke:#008000;stroke-width:1;"/><polygon fill="#008000" points="295.93,624.83,290.5239,616.5975,291.7246,622.1254,286.1966,623.3261,295.93,624.83" style="stroke:#008000;stroke-width:1;"/><path d="M255,565.3 L255,590.3 L368,590.3 L368,575.3 L358,565.3 L255,565.3" fill="#FEFFDD" style="stroke:#181818;stroke-width:0.5;"/><path d="M358,565.3 L358,575.3 L368,575.3 L358,565.3" fill="#FEFFDD" style="stroke:#181818;stroke-width:0.5;"/><text fill="#000000" font-family="sans-serif" font-size="13" lengthAdjust="spacing" textLength="92.3965" x="261" y="582.3669">verDocentes()</text></g><!--link editarDocente to DOCENTES_ABIERTO--><g class="link" data-entity-1="editarDocente" data-entity-2="DOCENTES_ABIERTO" data-source-line="52" data-uid="lnk11" id="link_editarDocente_DOCENTES_ABIERTO"><path d="M372.6,530.56 C375.31,548.88 377,560.3 377,560.3 C377,560.3 377,595.3 377,595.3 C377,595.3 368.5957,605.8449 357.2257,620.1349" fill="none" id="editarDocente-to-DOCENTES_ABIERTO-1" style="stroke:#FF0000;stroke-width:1;"/><polygon fill="#FF0000" points="353.49,624.83,362.2237,620.2778,356.6031,620.9174,355.9635,615.2968,353.49,624.83" style="stroke:#FF0000;stroke-width:1;"/><path d="M382,565.3 L382,590.3 L509,590.3 L509,575.3 L499,565.3 L382,565.3" fill="#FEFFDD" style="stroke:#181818;stroke-width:0.5;"/><path d="M499,565.3 L499,575.3 L509,575.3 L499,565.3" fill="#FEFFDD" style="stroke:#181818;stroke-width:0.5;"/><text fill="#000000" font-family="sans-serif" font-size="13" lengthAdjust="spacing" textLength="106.3677" x="388" y="582.3669">cancelar edici&#243;n</text></g><!--SRC=[fPHVQkCm4CRVTOeXVLYxfEpxKW9fRPQy94lJjn0MHPeMKLaoabeIbaBFibVO8-nDzYGxakEaQfeMMXlyHwFvvZUVPFixPLhkU0DQ6GoR5g6rUXDV6FE11mIKAd1NMO66thY7GJPIoEvU3k0NOq17bpQWaoRNSQwHjkB1-iFmztlkv2uEdS3YT0bdYvDRXsYMPwDS0z8KOqd3caXzbmRELwEnR9HHFZWkhJl_kXg1jre9ojts05lKb816TYfqiDqbB_KS8YSz2Z4d06nuAjywz5IFWqngCdafrDy_9iqkhb3SjnXnK_2YgiflAVBlwJTKqmaK4qdvwaQ9s58vXAbjLWw7C6vHQqLvGwWRhlGkQp4BBghr1OMb-Y9Oy0fm7TdCSj_jIrvqZQAMUjlSdgQnCc4u4Bnfj_t7m6so9RSsZWjk16eAP2ttfkyHla2jGIYXRSJjowGCA7xmuEB3X9GTjQ4UR9coNcoRevlb8tlbrLPV0vzpMW8EzLfH9VuU5stgZz3q_cx0KpcNm-GWbvtbz5Gammm_PfP3-GcaTvQMFJBMCz7tlquadkM_aUVELBFBUdfTpt-EBoRrrVMCPJmFs2VvecJxAWTwswRULZjaxnN_0m00]--></g></svg>