<svg xmlns="http://www.w3.org/2000/svg" xmlns:xlink="http://www.w3.org/1999/xlink" contentStyleType="text/css" data-diagram-type="STATE" height="837px" preserveAspectRatio="none" style="width:806px;height:837px;background:#FFFFFF;" version="1.1" viewBox="0 0 806 837" width="806px" zoomAndPan="magnify"><defs/><g><g id="DOCENTES_ABIERTO"><rect fill="#F1F1F1" height="50" rx="12.5" ry="12.5" style="stroke:#181818;stroke-width:0.5;" width="165.6328" x="317" y="7"/><line style="stroke:#181818;stroke-width:0.5;" x1="317" x2="482.6328" y1="33.2969" y2="33.2969"/><text fill="#000000" font-family="sans-serif" font-size="14" lengthAdjust="spacing" textLength="145.6328" x="327" y="24.9951">DOCENTES_ABIERTO</text></g><path d="M19.5,152 L780.5,152 A12.5,12.5 0 0 1 793,164.5 L793,178.2969 L7,178.2969 L7,164.5 A12.5,12.5 0 0 1 19.5,152" fill="#F1F1F1"/><rect fill="none" height="568.2969" rx="12.5" ry="12.5" style="stroke:#181818;stroke-width:0.5;" width="786" x="7" y="152"/><line style="stroke:#181818;stroke-width:0.5;" x1="7" x2="793" y1="178.2969" y2="178.2969"/><text fill="#000000" font-family="sans-serif" font-size="14" lengthAdjust="spacing" textLength="110.7695" x="344.6152" y="169.9951">editarDocente()</text><g id="editarDocente.EditandoDatos"><rect fill="#F1F1F1" height="50" rx="12.5" ry="12.5" style="stroke:#181818;stroke-width:0.5;" width="50" x="193" y="280.2969"/><line style="stroke:#181818;stroke-width:0.5;" x1="193" x2="243" y1="306.5938" y2="306.5938"/><text fill="#000000" font-family="sans-serif" font-size="14" lengthAdjust="spacing" textLength="4.4502" x="215.7749" y="298.292">&#160;</text></g><g id="editarDocente.GuardandoDatos"><rect fill="#F1F1F1" height="50" rx="12.5" ry="12.5" style="stroke:#181818;stroke-width:0.5;" width="50" x="193" y="567.2969"/><line style="stroke:#181818;stroke-width:0.5;" x1="193" x2="243" y1="593.5938" y2="593.5938"/><text fill="#000000" font-family="sans-serif" font-size="14" lengthAdjust="spacing" textLength="4.4502" x="215.7749" y="585.292">&#160;</text></g><ellipse cx="218" cy="199.2969" fill="#222222" rx="10" ry="10" style="stroke:#222222;stroke-width:1;"/><ellipse cx="218" cy="699.2969" fill="none" rx="11" ry="11" style="stroke:#222222;stroke-width:1;"/><ellipse cx="218" cy="699.2969" fill="#222222" rx="6" ry="6" style="stroke:#222222;stroke-width:1;"/><!--link *start*editarDocente to EditandoDatos--><g class="link" data-entity-1=".start.editarDocente" data-entity-2="EditandoDatos" data-source-line="14" data-uid="lnk6" id="link_.start.editarDocente_EditandoDatos"><path d="M218,209.5269 C218,225.2369 218,251.6569 218,274.1669" fill="none" id="*start*editarDocente-to-EditandoDatos" style="stroke:#008000;stroke-width:1;"/><polygon fill="#008000" points="218,280.1669,222,271.1669,218,275.1669,214,271.1669,218,280.1669" style="stroke:#008000;stroke-width:1;"/><path d="M223,232.2969 L223,257.2969 L593,257.2969 L593,242.2969 L583,232.2969 L223,232.2969" fill="#FEFFDD" style="stroke:#181818;stroke-width:0.5;"/><path d="M583,232.2969 L583,242.2969 L593,242.2969 L583,232.2969" fill="#FEFFDD" style="stroke:#181818;stroke-width:0.5;"/><text fill="#000000" font-family="sans-serif" font-size="13" font-weight="bold" lengthAdjust="spacing" textLength="200.5542" x="229" y="249.3638">Administrador institucional</text><text fill="#000000" font-family="sans-serif" font-size="13" lengthAdjust="spacing" textLength="144.9932" x="433.6865" y="249.3638">solicita editar docente</text></g><!--link EditandoDatos to GuardandoDatos--><g class="link" data-entity-1="EditandoDatos" data-entity-2="GuardandoDatos" data-source-line="19" data-uid="lnk7" id="link_EditandoDatos_GuardandoDatos"><path d="M192.94,313.7069 C152.17,325.7669 76,348.2969 76,348.2969 C76,348.2969 76,549.2969 76,549.2969 C76,549.2969 146.4164,570.1249 187.1864,582.1849" fill="none" id="EditandoDatos-to-GuardandoDatos" style="stroke:#008000;stroke-width:1;"/><polygon fill="#008000" points="192.94,583.8869,185.4443,577.4983,188.1454,582.4686,183.175,585.1697,192.94,583.8869" style="stroke:#008000;stroke-width:1;"/><path d="M81,353.2969 L81,544.2969 L334,544.2969 L334,363.2969 L324,353.2969 L81,353.2969" fill="#FEFFDD" style="stroke:#181818;stroke-width:0.5;"/><path d="M324,353.2969 L324,363.2969 L334,363.2969 L324,353.2969" fill="#FEFFDD" style="stroke:#181818;stroke-width:0.5;"/><text fill="#000000" font-family="sans-serif" font-size="13" font-weight="bold" lengthAdjust="spacing" textLength="58.9063" x="87" y="370.3638">Sistema</text><text fill="#000000" font-family="sans-serif" font-size="13" lengthAdjust="spacing" textLength="169.1714" x="150.0386" y="370.3638">presenta datos de edici&#243;n</text><text fill="#000000" font-family="sans-serif" font-size="13" lengthAdjust="spacing" textLength="63.7368" x="87" y="385.4966">&#8226; Nombre</text><text fill="#000000" font-family="sans-serif" font-size="13" lengthAdjust="spacing" textLength="70.7573" x="87" y="400.6294">&#8226; Apellidos</text><text fill="#000000" font-family="sans-serif" font-size="13" lengthAdjust="spacing" textLength="35.3691" x="87" y="415.7622">&#8226; DNI</text><text fill="#000000" font-family="sans-serif" font-size="13" lengthAdjust="spacing" textLength="136.3794" x="87" y="430.895">&#8226; Nombre de usuario</text><text fill="#000000" font-family="sans-serif" font-size="13" lengthAdjust="spacing" textLength="47.8677" x="87" y="446.0278">&#8226; Email</text><text fill="#000000" font-family="sans-serif" font-size="13" lengthAdjust="spacing" textLength="73.3345" x="87" y="461.1606">&#8226; Password</text><text fill="#000000" font-family="sans-serif" font-size="13" lengthAdjust="spacing" textLength="4.1323" x="87" y="476.2935">&#160;</text><text fill="#000000" font-family="sans-serif" font-size="13" font-weight="bold" lengthAdjust="spacing" textLength="58.9063" x="87" y="491.4263">Sistema</text><text fill="#000000" font-family="sans-serif" font-size="13" lengthAdjust="spacing" textLength="110.5952" x="150.0386" y="491.4263">permite solicitar:</text><text fill="#000000" font-family="sans-serif" font-size="13" lengthAdjust="spacing" textLength="127.8164" x="87" y="506.5591">&#8226; modificar campos</text><text fill="#000000" font-family="sans-serif" font-size="13" lengthAdjust="spacing" textLength="119.9834" x="87" y="521.6919">&#8226; guardar docente</text><text fill="#000000" font-family="sans-serif" font-size="13" lengthAdjust="spacing" textLength="118.168" x="87" y="536.8247">&#8226; cancelar edici&#243;n</text></g><!--link GuardandoDatos to EditandoDatos--><g class="link" data-entity-1="GuardandoDatos" data-entity-2="EditandoDatos" data-source-line="35" data-uid="lnk8" id="link_GuardandoDatos_EditandoDatos"><path d="M243.07,582.5969 C278.51,570.2969 339,549.2969 339,549.2969 C339,549.2969 339,348.2969 339,348.2969 C339,348.2969 284.1783,329.2642 248.7383,316.9642" fill="none" id="GuardandoDatos-to-EditandoDatos" style="stroke:#008000;stroke-width:1;"/><polygon fill="#008000" points="243.07,314.9969,250.261,321.7267,247.7936,316.6363,252.884,314.1689,243.07,314.9969" style="stroke:#008000;stroke-width:1;"/><path d="M344,436.2969 L344,461.2969 L735,461.2969 L735,446.2969 L725,436.2969 L344,436.2969" fill="#FEFFDD" style="stroke:#181818;stroke-width:0.5;"/><path d="M725,436.2969 L725,446.2969 L735,446.2969 L725,436.2969" fill="#FEFFDD" style="stroke:#181818;stroke-width:0.5;"/><text fill="#000000" font-family="sans-serif" font-size="13" font-weight="bold" lengthAdjust="spacing" textLength="200.5542" x="350" y="453.3638">Administrador institucional</text><text fill="#000000" font-family="sans-serif" font-size="13" lengthAdjust="spacing" textLength="165.9214" x="554.6865" y="453.3638">solicita modificar campos</text></g><!--link GuardandoDatos to *end*editarDocente--><g class="link" data-entity-1="GuardandoDatos" data-entity-2=".end.editarDocente" data-source-line="40" data-uid="lnk10" id="link_GuardandoDatos_.end.editarDocente"><path d="M192.67,598.6169 C138.85,609.9169 18,635.2969 18,635.2969 C18,635.2969 18,670.2969 18,670.2969 C18,670.2969 159.7678,690.1458 201.3078,695.9558" fill="none" id="GuardandoDatos-to-*end*editarDocente" style="stroke:#008000;stroke-width:1;"/><polygon fill="#008000" points="207.25,696.7869,198.8908,691.5788,202.2982,696.0943,197.7827,699.5017,207.25,696.7869" style="stroke:#008000;stroke-width:1;"/><path d="M23,640.2969 L23,665.2969 L393,665.2969 L393,650.2969 L383,640.2969 L23,640.2969" fill="#FEFFDD" style="stroke:#181818;stroke-width:0.5;"/><path d="M383,640.2969 L383,650.2969 L393,650.2969 L383,640.2969" fill="#FEFFDD" style="stroke:#181818;stroke-width:0.5;"/><text fill="#000000" font-family="sans-serif" font-size="13" font-weight="bold" lengthAdjust="spacing" textLength="200.5542" x="29" y="657.3638">Administrador institucional</text><text fill="#000000" font-family="sans-serif" font-size="13" lengthAdjust="spacing" textLength="144.5361" x="233.6865" y="657.3638">solicita guardar y salir</text></g><!--link GuardandoDatos to *end*editarDocente--><g class="link" data-entity-1="GuardandoDatos" data-entity-2=".end.editarDocente" data-source-line="45" data-uid="lnk11" id="link_GuardandoDatos_.end.editarDocente"><path d="M243.03,599.1369 C292.49,610.6769 398,635.2969 398,635.2969 C398,635.2969 398,670.2969 398,670.2969 C398,670.2969 273.3986,689.6743 234.6486,695.7043" fill="none" id="GuardandoDatos-to-*end*editarDocente-1" style="stroke:#FF0000;stroke-width:1;"/><polygon fill="#FF0000" points="228.72,696.6269,238.228,699.1954,233.6605,695.8581,236.9979,691.2906,228.72,696.6269" style="stroke:#FF0000;stroke-width:1;"/><path d="M403,640.2969 L403,665.2969 L784,665.2969 L784,650.2969 L774,640.2969 L403,640.2969" fill="#FEFFDD" style="stroke:#181818;stroke-width:0.5;"/><path d="M774,640.2969 L774,650.2969 L784,650.2969 L774,640.2969" fill="#FEFFDD" style="stroke:#181818;stroke-width:0.5;"/><text fill="#000000" font-family="sans-serif" font-size="13" font-weight="bold" lengthAdjust="spacing" textLength="200.5542" x="409" y="657.3638">Administrador institucional</text><text fill="#000000" font-family="sans-serif" font-size="13" lengthAdjust="spacing" textLength="156.2729" x="613.6865" y="657.3638">solicita cancelar edici&#243;n</text></g><g id="DOCENTE_ABIERTO"><rect fill="#F1F1F1" height="50" rx="12.5" ry="12.5" style="stroke:#181818;stroke-width:0.5;" width="156.7461" x="321.5" y="781"/><line style="stroke:#181818;stroke-width:0.5;" x1="321.5" x2="478.2461" y1="807.2969" y2="807.2969"/><text fill="#000000" font-family="sans-serif" font-size="14" lengthAdjust="spacing" textLength="136.7461" x="331.5" y="798.9951">DOCENTE_ABIERTO</text></g><!--link DOCENTES_ABIERTO to editarDocente--><g class="link" data-entity-1="DOCENTES_ABIERTO" data-entity-2="editarDocente" data-source-line="5" data-uid="lnk2" id="link_DOCENTES_ABIERTO_editarDocente"><path d="M396.87,57.16 C395,71.53 393,87 393,87 C393,87 393,122 393,122 C393,122 393.1162,127.3515 393.5262,145.7315" fill="none" id="DOCENTES_ABIERTO-to-editarDocente" style="stroke:#008000;stroke-width:1;"/><polygon fill="#008000" points="393.66,151.73,397.4583,142.643,393.5485,146.7312,389.4603,142.8214,393.66,151.73" style="stroke:#008000;stroke-width:1;"/></g><!--link editarDocente to DOCENTES_ABIERTO--><g class="link" data-entity-1="editarDocente" data-entity-2="DOCENTES_ABIERTO" data-source-line="53" data-uid="lnk13" id="link_editarDocente_DOCENTES_ABIERTO"><path d="M400,151.55 C400,112.64 400,84.72 400,63.24" fill="none" id="editarDocente-to-DOCENTES_ABIERTO" style="stroke:#FF0000;stroke-width:1;"/><polygon fill="#FF0000" points="400,57.24,396,66.24,400,62.24,404,66.24,400,57.24" style="stroke:#FF0000;stroke-width:1;"/><path d="M405,92 L405,117 L532,117 L532,102 L522,92 L405,92" fill="#FEFFDD" style="stroke:#181818;stroke-width:0.5;"/><path d="M522,92 L522,102 L532,102 L522,92" fill="#FEFFDD" style="stroke:#181818;stroke-width:0.5;"/><text fill="#000000" font-family="sans-serif" font-size="13" lengthAdjust="spacing" textLength="106.3677" x="411" y="109.0669">cancelar edici&#243;n</text></g><!--link DOCENTE_ABIERTO to editarDocente--><g class="link" data-entity-1="DOCENTE_ABIERTO" data-entity-2="editarDocente" data-source-line="7" data-uid="lnk4" id="link_DOCENTE_ABIERTO_editarDocente"><path d="M407.1,781 C409.03,765.92 410.2616,750.6944 411.3216,726.1044" fill="none" id="DOCENTE_ABIERTO-to-editarDocente" style="stroke:#008000;stroke-width:1;"/><polygon fill="#008000" points="411.58,720.11,407.1961,728.9294,411.3647,725.1054,415.1887,729.2739,411.58,720.11" style="stroke:#008000;stroke-width:1;"/></g><!--link editarDocente to DOCENTE_ABIERTO--><g class="link" data-entity-1="editarDocente" data-entity-2="DOCENTE_ABIERTO" data-source-line="51" data-uid="lnk12" id="link_editarDocente_DOCENTE_ABIERTO"><path d="M389.06,720.11 C390.06,744.7 390.7511,759.9632 392.5711,775.0432" fill="none" id="editarDocente-to-DOCENTE_ABIERTO" style="stroke:#008000;stroke-width:1;"/><polygon fill="#008000" points="393.29,781,396.1828,771.5856,392.6909,776.036,388.2404,772.5441,393.29,781" style="stroke:#008000;stroke-width:1;"/></g><!--SRC=[hLJRIWCn47tFLmprHONYkvH2THVfIoksRwL8ciGoD9SbIP4YWj_YB_W9_ebVOdQxbsRRebApi92Pavbppkp6hL1dr5854hNmcqn0PkGctn3YFFK2al5jEfgcayV1pJ1zc8u9QKUWEpjRMY7qlDi7mT5JcnWcj1SrzZVGRRie2DH19ugSNtJWXH08QullX2UWqXoakKceDsu_VRUcbjTvs1QONSuZFb4DA23QX1f6v-wiYa1lqHzmXHgTjvGR2wYTHxzcQ3ILlQj57voHo4AbKWhmKc1-N6Y-hHaMgLznurrACU-Zb2Q1Zb2qQ9zPuK8_2hoenWjB6Nv-w0BzzVOE8wCMLa2z7sH2IkILw3oKZ8RGneTIQnS8eMbIgQ8ec-qzTUxPMDveQxCJLc4GK9bah-kpod1yGXOSOrHbfTeyiInCY8tCuung9cH8H08hYniAhU4V7Vdf4pyeuK-4mZTvEetAi0quAj76B8umi8B_M_yV1lDAIFoNxnhGkZ0EG4kcU_TIH7cVGjN-6m00]--></g></svg>