<svg xmlns="http://www.w3.org/2000/svg" xmlns:xlink="http://www.w3.org/1999/xlink" contentStyleType="text/css" data-diagram-type="STATE" height="696px" preserveAspectRatio="none" style="width:749px;height:696px;background:#FFFFFF;" version="1.1" viewBox="0 0 749 696" width="749px" zoomAndPan="magnify"><defs/><g><g id="DOCENTES_ABIERTO"><rect fill="#F1F1F1" height="50" rx="12.5" ry="12.5" style="stroke:#181818;stroke-width:0.5;" width="165.6328" x="221.68" y="7"/><line style="stroke:#181818;stroke-width:0.5;" x1="221.68" x2="387.3128" y1="33.2969" y2="33.2969"/><text fill="#000000" font-family="sans-serif" font-size="14" lengthAdjust="spacing" textLength="145.6328" x="231.68" y="24.9951">DOCENTES_ABIERTO</text></g><path d="M19.5,167 L589.5,167 A12.5,12.5 0 0 1 602,179.5 L602,193.2969 L7,193.2969 L7,179.5 A12.5,12.5 0 0 1 19.5,167" fill="#F1F1F1"/><rect fill="none" height="523.2969" rx="12.5" ry="12.5" style="stroke:#181818;stroke-width:0.5;" width="595" x="7" y="167"/><line style="stroke:#181818;stroke-width:0.5;" x1="7" x2="602" y1="193.2969" y2="193.2969"/><text fill="#000000" font-family="sans-serif" font-size="14" lengthAdjust="spacing" textLength="167.5078" x="220.7461" y="184.9951">editarDocente(docente)</text><g id="editarDocente.EditandoDatos"><rect fill="#F1F1F1" height="50" rx="12.5" ry="12.5" style="stroke:#181818;stroke-width:0.5;" width="50" x="145" y="295.2969"/><line style="stroke:#181818;stroke-width:0.5;" x1="145" x2="195" y1="321.5938" y2="321.5938"/><text fill="#000000" font-family="sans-serif" font-size="14" lengthAdjust="spacing" textLength="4.4502" x="167.7749" y="313.292">&#160;</text></g><g id="editarDocente.GuardandoDatos"><rect fill="#F1F1F1" height="50" rx="12.5" ry="12.5" style="stroke:#181818;stroke-width:0.5;" width="50" x="145" y="537.2969"/><line style="stroke:#181818;stroke-width:0.5;" x1="145" x2="195" y1="563.5938" y2="563.5938"/><text fill="#000000" font-family="sans-serif" font-size="14" lengthAdjust="spacing" textLength="4.4502" x="167.7749" y="555.292">&#160;</text></g><ellipse cx="170" cy="214.2969" fill="#222222" rx="10" ry="10" style="stroke:#222222;stroke-width:1;"/><ellipse cx="170" cy="669.2969" fill="none" rx="11" ry="11" style="stroke:#222222;stroke-width:1;"/><ellipse cx="170" cy="669.2969" fill="#222222" rx="6" ry="6" style="stroke:#222222;stroke-width:1;"/><!--link *start*editarDocente to EditandoDatos--><g class="link" data-entity-1=".start.editarDocente" data-entity-2="EditandoDatos" data-source-line="18" data-uid="lnk4" id="link_.start.editarDocente_EditandoDatos"><path d="M170,224.5269 C170,240.2369 170,266.6569 170,289.1669" fill="none" id="*start*editarDocente-to-EditandoDatos" style="stroke:#008000;stroke-width:1;"/><polygon fill="#008000" points="170,295.1669,174,286.1669,170,290.1669,166,286.1669,170,295.1669" style="stroke:#008000;stroke-width:1;"/><path d="M175,247.2969 L175,272.2969 L449,272.2969 L449,257.2969 L439,247.2969 L175,247.2969" fill="#FEFFDD" style="stroke:#181818;stroke-width:0.5;"/><path d="M439,247.2969 L439,257.2969 L449,257.2969 L439,247.2969" fill="#FEFFDD" style="stroke:#181818;stroke-width:0.5;"/><text fill="#000000" font-family="sans-serif" font-size="13" font-weight="bold" lengthAdjust="spacing" textLength="104.8633" x="181" y="264.3638">Administrador</text><text fill="#000000" font-family="sans-serif" font-size="13" lengthAdjust="spacing" textLength="144.9932" x="289.9956" y="264.3638">solicita editar docente</text></g><!--link EditandoDatos to GuardandoDatos--><g class="link" data-entity-1="EditandoDatos" data-entity-2="GuardandoDatos" data-source-line="23" data-uid="lnk5" id="link_EditandoDatos_GuardandoDatos"><path d="M144.61,328.8069 C103.77,340.8869 28,363.2969 28,363.2969 C28,363.2969 28,519.2969 28,519.2969 C28,519.2969 98.0164,540.005 138.8564,552.085" fill="none" id="EditandoDatos-to-GuardandoDatos" style="stroke:#008000;stroke-width:1;"/><polygon fill="#008000" points="144.61,553.7869,137.1142,547.3984,139.8153,552.3687,134.8451,555.0698,144.61,553.7869" style="stroke:#008000;stroke-width:1;"/><path d="M33,368.2969 L33,514.2969 L286,514.2969 L286,378.2969 L276,368.2969 L33,368.2969" fill="#FEFFDD" style="stroke:#181818;stroke-width:0.5;"/><path d="M276,368.2969 L276,378.2969 L286,378.2969 L276,368.2969" fill="#FEFFDD" style="stroke:#181818;stroke-width:0.5;"/><text fill="#000000" font-family="sans-serif" font-size="13" font-weight="bold" lengthAdjust="spacing" textLength="58.9063" x="39" y="385.3638">Sistema</text><text fill="#000000" font-family="sans-serif" font-size="13" lengthAdjust="spacing" textLength="169.1714" x="102.0386" y="385.3638">presenta datos de edici&#243;n</text><text fill="#000000" font-family="sans-serif" font-size="13" lengthAdjust="spacing" textLength="131.5298" x="39" y="400.4966">&#8226; DNI (Identificador)</text><text fill="#000000" font-family="sans-serif" font-size="13" lengthAdjust="spacing" textLength="130.9585" x="39" y="415.6294">&#8226; Nombre, Apellidos</text><text fill="#000000" font-family="sans-serif" font-size="13" lengthAdjust="spacing" textLength="47.8677" x="39" y="430.7622">&#8226; Email</text><text fill="#000000" font-family="sans-serif" font-size="13" lengthAdjust="spacing" textLength="4.1323" x="39" y="445.895">&#160;</text><text fill="#000000" font-family="sans-serif" font-size="13" font-weight="bold" lengthAdjust="spacing" textLength="58.9063" x="39" y="461.0278">Sistema</text><text fill="#000000" font-family="sans-serif" font-size="13" lengthAdjust="spacing" textLength="110.5952" x="102.0386" y="461.0278">permite solicitar:</text><text fill="#000000" font-family="sans-serif" font-size="13" lengthAdjust="spacing" textLength="127.8164" x="39" y="476.1606">&#8226; modificar campos</text><text fill="#000000" font-family="sans-serif" font-size="13" lengthAdjust="spacing" textLength="119.9834" x="39" y="491.2935">&#8226; guardar docente</text><text fill="#000000" font-family="sans-serif" font-size="13" lengthAdjust="spacing" textLength="118.168" x="39" y="506.4263">&#8226; cancelar edici&#243;n</text></g><!--link GuardandoDatos to EditandoDatos--><g class="link" data-entity-1="GuardandoDatos" data-entity-2="EditandoDatos" data-source-line="37" data-uid="lnk6" id="link_GuardandoDatos_EditandoDatos"><path d="M195.37,552.4969 C230.85,540.1769 291,519.2969 291,519.2969 C291,519.2969 291,363.2969 291,363.2969 C291,363.2969 236.518,344.385 201.038,332.065" fill="none" id="GuardandoDatos-to-EditandoDatos" style="stroke:#008000;stroke-width:1;"/><polygon fill="#008000" points="195.37,330.0969,202.5599,336.8278,200.0933,331.737,205.1841,329.2704,195.37,330.0969" style="stroke:#008000;stroke-width:1;"/><path d="M296,428.7969 L296,453.7969 L591,453.7969 L591,438.7969 L581,428.7969 L296,428.7969" fill="#FEFFDD" style="stroke:#181818;stroke-width:0.5;"/><path d="M581,428.7969 L581,438.7969 L591,438.7969 L581,428.7969" fill="#FEFFDD" style="stroke:#181818;stroke-width:0.5;"/><text fill="#000000" font-family="sans-serif" font-size="13" font-weight="bold" lengthAdjust="spacing" textLength="104.8633" x="302" y="445.8638">Administrador</text><text fill="#000000" font-family="sans-serif" font-size="13" lengthAdjust="spacing" textLength="165.9214" x="410.9956" y="445.8638">solicita modificar campos</text></g><!--link GuardandoDatos to *end*editarDocente--><g class="link" data-entity-1="GuardandoDatos" data-entity-2=".end.editarDocente" data-source-line="43" data-uid="lnk8" id="link_GuardandoDatos_.end.editarDocente"><path d="M144.56,570.3269 C101.29,582.2869 18,605.2969 18,605.2969 C18,605.2969 18,640.2969 18,640.2969 C18,640.2969 118.3193,658.7799 153.1693,665.1999" fill="none" id="GuardandoDatos-to-*end*editarDocente" style="stroke:#008000;stroke-width:1;"/><polygon fill="#008000" points="159.07,666.2869,150.9436,660.7225,154.1527,665.381,149.4943,668.5902,159.07,666.2869" style="stroke:#008000;stroke-width:1;"/><path d="M23,610.2969 L23,635.2969 L297,635.2969 L297,620.2969 L287,610.2969 L23,610.2969" fill="#FEFFDD" style="stroke:#181818;stroke-width:0.5;"/><path d="M287,610.2969 L287,620.2969 L297,620.2969 L287,610.2969" fill="#FEFFDD" style="stroke:#181818;stroke-width:0.5;"/><text fill="#000000" font-family="sans-serif" font-size="13" font-weight="bold" lengthAdjust="spacing" textLength="104.8633" x="29" y="627.3638">Administrador</text><text fill="#000000" font-family="sans-serif" font-size="13" lengthAdjust="spacing" textLength="144.5361" x="137.9956" y="627.3638">solicita guardar y salir</text></g><!--link GuardandoDatos to *end*editarDocente--><g class="link" data-entity-1="GuardandoDatos" data-entity-2=".end.editarDocente" data-source-line="49" data-uid="lnk9" id="link_GuardandoDatos_.end.editarDocente"><path d="M195.45,571.3969 C233.81,583.5969 302,605.2969 302,605.2969 C302,605.2969 302,640.2969 302,640.2969 C302,640.2969 218.1993,658.0715 186.6693,664.7615" fill="none" id="GuardandoDatos-to-*end*editarDocente-1" style="stroke:#FF0000;stroke-width:1;"/><polygon fill="#FF0000" points="180.8,666.0069,190.4342,668.0517,185.6911,664.9691,188.7738,660.226,180.8,666.0069" style="stroke:#FF0000;stroke-width:1;"/><path d="M307,610.2969 L307,635.2969 L593,635.2969 L593,620.2969 L583,610.2969 L307,610.2969" fill="#FEFFDD" style="stroke:#181818;stroke-width:0.5;"/><path d="M583,610.2969 L583,620.2969 L593,620.2969 L583,610.2969" fill="#FEFFDD" style="stroke:#181818;stroke-width:0.5;"/><text fill="#000000" font-family="sans-serif" font-size="13" font-weight="bold" lengthAdjust="spacing" textLength="104.8633" x="313" y="627.3638">Administrador</text><text fill="#000000" font-family="sans-serif" font-size="13" lengthAdjust="spacing" textLength="156.2729" x="421.9956" y="627.3638">solicita cancelar edici&#243;n</text></g><!--link DOCENTES_ABIERTO to editarDocente--><g class="link" data-entity-1="DOCENTES_ABIERTO" data-entity-2="editarDocente" data-source-line="7" data-uid="lnk2" id="link_DOCENTES_ABIERTO_editarDocente"><path d="M221.5,52.57 C155.97,68.03 75.5,87 75.5,87 C75.5,87 75.5,137 75.5,137 C75.5,137 80.7861,143.7175 95.2161,162.0275" fill="none" id="DOCENTES_ABIERTO-to-editarDocente" style="stroke:#008000;stroke-width:1;"/><polygon fill="#008000" points="98.93,166.74,96.5008,157.1954,95.8351,162.813,90.2176,162.1472,98.93,166.74" style="stroke:#008000;stroke-width:1;"/><path d="M80.5,99.5 L80.5,124.5 L256.5,124.5 L256.5,109.5 L246.5,99.5 L80.5,99.5" fill="#FEFFDD" style="stroke:#181818;stroke-width:0.5;"/><path d="M246.5,99.5 L246.5,109.5 L256.5,109.5 L246.5,99.5" fill="#FEFFDD" style="stroke:#181818;stroke-width:0.5;"/><text fill="#000000" font-family="sans-serif" font-size="13" lengthAdjust="spacing" textLength="155.543" x="86.5" y="116.5669">editarDocente(docente)</text></g><!--link editarDocente to DOCENTES_ABIERTO--><g class="link" data-entity-1="editarDocente" data-entity-2="DOCENTES_ABIERTO" data-source-line="58" data-uid="lnk10" id="link_editarDocente_DOCENTES_ABIERTO"><path d="M301.81,166.74 C301.62,148.43 301.5,137 301.5,137 C301.5,137 301.5,87 301.5,87 C301.5,87 302.0186,77.7508 302.8086,63.4708" fill="none" id="editarDocente-to-DOCENTES_ABIERTO" style="stroke:#008000;stroke-width:1;"/><polygon fill="#008000" points="303.14,57.48,298.649,66.2453,302.8638,62.4724,306.6368,66.6872,303.14,57.48" style="stroke:#008000;stroke-width:1;"/><path d="M306.5,92 L306.5,132 L601.5,132 L601.5,102 L591.5,92 L306.5,92" fill="#FEFFDD" style="stroke:#181818;stroke-width:0.5;"/><path d="M591.5,92 L591.5,102 L601.5,102 L591.5,92" fill="#FEFFDD" style="stroke:#181818;stroke-width:0.5;"/><text fill="#000000" font-family="sans-serif" font-size="13" font-weight="bold" lengthAdjust="spacing" textLength="58.9063" x="312.5" y="109.0669">Sistema</text><text fill="#000000" font-family="sans-serif" font-size="13" lengthAdjust="spacing" textLength="211.1865" x="375.5386" y="109.0669">confirma: "Docente actualizado"</text><text fill="#000000" font-family="sans-serif" font-size="13" lengthAdjust="spacing" textLength="92.3965" x="312.5" y="124.1997">verDocentes()</text></g><!--link editarDocente to DOCENTES_ABIERTO--><g class="link" data-entity-1="editarDocente" data-entity-2="DOCENTES_ABIERTO" data-source-line="65" data-uid="lnk11" id="link_editarDocente_DOCENTES_ABIERTO"><path d="M579.19,166.74 C598.47,148.43 610.5,137 610.5,137 C610.5,137 610.5,87 610.5,87 C610.5,87 484.2287,64.7227 393.6187,48.7327" fill="none" id="editarDocente-to-DOCENTES_ABIERTO-1" style="stroke:#FF0000;stroke-width:1;"/><polygon fill="#FF0000" points="387.71,47.69,395.8779,53.1932,392.6339,48.5589,397.2682,45.3149,387.71,47.69" style="stroke:#FF0000;stroke-width:1;"/><path d="M615.5,99.5 L615.5,124.5 L742.5,124.5 L742.5,109.5 L732.5,99.5 L615.5,99.5" fill="#FEFFDD" style="stroke:#181818;stroke-width:0.5;"/><path d="M732.5,99.5 L732.5,109.5 L742.5,109.5 L732.5,99.5" fill="#FEFFDD" style="stroke:#181818;stroke-width:0.5;"/><text fill="#000000" font-family="sans-serif" font-size="13" lengthAdjust="spacing" textLength="106.3677" x="621.5" y="116.5669">cancelar edici&#243;n</text></g><!--SRC=[fPHjQjmm48R_-nJ3zaSsfTdIZrzBM51jjHXSEwpTKWYXQ2rb4R4b8piXsrBe7Ng3Ng57o4rwaexijHjvDrr8RV27PZJlCw-4wYkfAcPO2OLKejbK0YfTREoFvnt1YndGD2D10cTB-Z5COEfhrOZRHWCNe8rS2pM7IDODu-rGe7E12VMnXqCD_YS-ZJEQVYPlGhhC4blq9HQDioK92908V98c453ua2RUE1jEpf-iZH3gucG1Wik6cQs0fpHMryfYNtbEQCgxzx4d50URPqLVpL0a8r54yHrXEoY5YXsbCnzO3PFz5IVmrVC0hsxQ16zCfZPNSHsmHjUxuNVNpF0X3bs1ywSNJdDE3MXJd0xjmEbgGNWf5Rfjq6vp-dorW5eNCiUvsnvWYzfEwFkttzxmSANkGxYa3qAa221ArifNHjIenu2trNZhPIxlVgas-_Vtdn348Kn3ZbdoKkOM_7Y8nRfS6V4CI2MAGlAjg8tGaidYB_HOLfXI8bdVlPaF4qlDMnq3EIkhUnNNRNUkGtOyPoeN1GOSyc7l30X7uCkyQ7Tvhz6cm_ICDSP-X5ZMiBoHDxfhSRJq3oxuOzPxRv_xg5E6pZAWjnAL62w5fLJi825kqSTmzJPle4PXusAvI7xdF3yCPGJ_3wG3A_pDdW-lPv2IA0n82lHJHfSnIUtmoBmSHVqaVXiktnC_lFiHkqUFuz_EqUTGZpOq5hwKfcHpc0p7KDvSe_eNx6VYtOXUevww1zlOorsYhNd_vjdrg1Vv0m00]--></g></svg>