<svg xmlns="http://www.w3.org/2000/svg" xmlns:xlink="http://www.w3.org/1999/xlink" contentStyleType="text/css" data-diagram-type="STATE" height="777px" preserveAspectRatio="none" style="width:559px;height:777px;background:#FFFFFF;" version="1.1" viewBox="0 0 559 777" width="559px" zoomAndPan="magnify"><defs/><g><g id="GRADO_ABIERTO"><rect fill="#F1F1F1" height="50" rx="12.5" ry="12.5" style="stroke:#181818;stroke-width:0.5;" width="140.4082" x="116.5" y="7"/><line style="stroke:#181818;stroke-width:0.5;" x1="116.5" x2="256.9082" y1="33.2969" y2="33.2969"/><text fill="#000000" font-family="sans-serif" font-size="14" lengthAdjust="spacing" textLength="120.4082" x="126.5" y="24.9951">GRADO_ABIERTO</text></g><g id="GRADO_ABIERTO2"><rect fill="#F1F1F1" height="50" rx="12.5" ry="12.5" style="stroke:#181818;stroke-width:0.5;" width="140.4082" x="116.5" y="721"/><line style="stroke:#181818;stroke-width:0.5;" x1="116.5" x2="256.9082" y1="747.2969" y2="747.2969"/><text fill="#000000" font-family="sans-serif" font-size="14" lengthAdjust="spacing" textLength="120.4082" x="126.5" y="738.9951">GRADO_ABIERTO</text></g><g id="GRADOS_ABIERTO"><rect fill="#F1F1F1" height="50" rx="12.5" ry="12.5" style="stroke:#181818;stroke-width:0.5;" width="149.2949" x="292" y="7"/><line style="stroke:#181818;stroke-width:0.5;" x1="292" x2="441.2949" y1="33.2969" y2="33.2969"/><text fill="#000000" font-family="sans-serif" font-size="14" lengthAdjust="spacing" textLength="129.2949" x="302" y="24.9951">GRADOS_ABIERTO</text></g><g id="GRADOS_ABIERTO2"><rect fill="#F1F1F1" height="50" rx="12.5" ry="12.5" style="stroke:#181818;stroke-width:0.5;" width="149.2949" x="292" y="721"/><line style="stroke:#181818;stroke-width:0.5;" x1="292" x2="441.2949" y1="747.2969" y2="747.2969"/><text fill="#000000" font-family="sans-serif" font-size="14" lengthAdjust="spacing" textLength="129.2949" x="302" y="738.9951">GRADOS_ABIERTO</text></g><path d="M19.5,118 L533.5,118 A12.5,12.5 0 0 1 546,130.5 L546,144.2969 L7,144.2969 L7,130.5 A12.5,12.5 0 0 1 19.5,118" fill="#F1F1F1"/><rect fill="none" height="508.2969" rx="12.5" ry="12.5" style="stroke:#181818;stroke-width:0.5;" width="539" x="7" y="118"/><line style="stroke:#181818;stroke-width:0.5;" x1="7" x2="546" y1="144.2969" y2="144.2969"/><text fill="#000000" font-family="sans-serif" font-size="14" lengthAdjust="spacing" textLength="94.7734" x="229.1133" y="135.9951">editarGrado()</text><g id="editarGrado.EditandoDatos"><rect fill="#F1F1F1" height="50" rx="12.5" ry="12.5" style="stroke:#181818;stroke-width:0.5;" width="50" x="135" y="246.2969"/><line style="stroke:#181818;stroke-width:0.5;" x1="135" x2="185" y1="272.5938" y2="272.5938"/><text fill="#000000" font-family="sans-serif" font-size="14" lengthAdjust="spacing" textLength="4.4502" x="157.7749" y="264.292">&#160;</text></g><g id="editarGrado.GuardandoDatos"><rect fill="#F1F1F1" height="50" rx="12.5" ry="12.5" style="stroke:#181818;stroke-width:0.5;" width="50" x="135" y="473.2969"/><line style="stroke:#181818;stroke-width:0.5;" x1="135" x2="185" y1="499.5938" y2="499.5938"/><text fill="#000000" font-family="sans-serif" font-size="14" lengthAdjust="spacing" textLength="4.4502" x="157.7749" y="491.292">&#160;</text></g><ellipse cx="160" cy="165.2969" fill="#222222" rx="10" ry="10" style="stroke:#222222;stroke-width:1;"/><ellipse cx="160" cy="605.2969" fill="none" rx="11" ry="11" style="stroke:#222222;stroke-width:1;"/><ellipse cx="160" cy="605.2969" fill="#222222" rx="6" ry="6" style="stroke:#222222;stroke-width:1;"/><!--link *start*editarGrado to EditandoDatos--><g class="link" data-entity-1=".start.editarGrado" data-entity-2="EditandoDatos" data-source-line="13" data-uid="lnk3" id="link_.start.editarGrado_EditandoDatos"><path d="M160,175.5269 C160,191.2369 160,217.6569 160,240.1669" fill="none" id="*start*editarGrado-to-EditandoDatos" style="stroke:#008000;stroke-width:1;"/><polygon fill="#008000" points="160,246.1669,164,237.1669,160,241.1669,156,237.1669,160,246.1669" style="stroke:#008000;stroke-width:1;"/><path d="M165,198.2969 L165,223.2969 L380,223.2969 L380,208.2969 L370,198.2969 L165,198.2969" fill="#FEFFDD" style="stroke:#181818;stroke-width:0.5;"/><path d="M370,198.2969 L370,208.2969 L380,208.2969 L370,198.2969" fill="#FEFFDD" style="stroke:#181818;stroke-width:0.5;"/><text fill="#000000" font-family="sans-serif" font-size="13" font-weight="bold" lengthAdjust="spacing" textLength="60.5313" x="171" y="215.3638">Docente</text><text fill="#000000" font-family="sans-serif" font-size="13" lengthAdjust="spacing" textLength="130.0762" x="235.6636" y="215.3638">solicita editar grado</text></g><!--link EditandoDatos to GuardandoDatos--><g class="link" data-entity-1="EditandoDatos" data-entity-2="GuardandoDatos" data-source-line="18" data-uid="lnk4" id="link_EditandoDatos_GuardandoDatos"><path d="M134.94,279.7069 C94.17,291.7669 18,314.2969 18,314.2969 C18,314.2969 18,455.2969 18,455.2969 C18,455.2969 88.4164,476.1249 129.1864,488.1849" fill="none" id="EditandoDatos-to-GuardandoDatos" style="stroke:#008000;stroke-width:1;"/><polygon fill="#008000" points="134.94,489.8869,127.4443,483.4983,130.1454,488.4686,125.175,491.1697,134.94,489.8869" style="stroke:#008000;stroke-width:1;"/><path d="M23,319.2969 L23,450.2969 L276,450.2969 L276,329.2969 L266,319.2969 L23,319.2969" fill="#FEFFDD" style="stroke:#181818;stroke-width:0.5;"/><path d="M266,319.2969 L266,329.2969 L276,329.2969 L266,319.2969" fill="#FEFFDD" style="stroke:#181818;stroke-width:0.5;"/><text fill="#000000" font-family="sans-serif" font-size="13" font-weight="bold" lengthAdjust="spacing" textLength="58.9063" x="29" y="336.3638">Sistema</text><text fill="#000000" font-family="sans-serif" font-size="13" lengthAdjust="spacing" textLength="169.1714" x="92.0386" y="336.3638">presenta datos de edici&#243;n</text><text fill="#000000" font-family="sans-serif" font-size="13" lengthAdjust="spacing" textLength="115.1719" x="29" y="351.4966">&#8226; Nombre, c&#243;digo</text><text fill="#000000" font-family="sans-serif" font-size="13" lengthAdjust="spacing" textLength="192.8608" x="29" y="366.6294">&#8226; Lista de alumnos enlistados</text><text fill="#000000" font-family="sans-serif" font-size="13" lengthAdjust="spacing" textLength="4.1323" x="29" y="381.7622">&#160;</text><text fill="#000000" font-family="sans-serif" font-size="13" font-weight="bold" lengthAdjust="spacing" textLength="58.9063" x="29" y="396.895">Sistema</text><text fill="#000000" font-family="sans-serif" font-size="13" lengthAdjust="spacing" textLength="110.5952" x="92.0386" y="396.895">permite solicitar:</text><text fill="#000000" font-family="sans-serif" font-size="13" lengthAdjust="spacing" textLength="127.8164" x="29" y="412.0278">&#8226; modificar campos</text><text fill="#000000" font-family="sans-serif" font-size="13" lengthAdjust="spacing" textLength="105.0664" x="29" y="427.1606">&#8226; guardar grado</text><text fill="#000000" font-family="sans-serif" font-size="13" lengthAdjust="spacing" textLength="118.168" x="29" y="442.2935">&#8226; cancelar edici&#243;n</text></g><!--link GuardandoDatos to EditandoDatos--><g class="link" data-entity-1="GuardandoDatos" data-entity-2="EditandoDatos" data-source-line="30" data-uid="lnk5" id="link_GuardandoDatos_EditandoDatos"><path d="M185.07,488.5969 C220.51,476.2969 281,455.2969 281,455.2969 C281,455.2969 281,314.2969 281,314.2969 C281,314.2969 226.1783,295.2642 190.7383,282.9642" fill="none" id="GuardandoDatos-to-EditandoDatos" style="stroke:#008000;stroke-width:1;"/><polygon fill="#008000" points="185.07,280.9969,192.261,287.7267,189.7936,282.6363,194.884,280.1689,185.07,280.9969" style="stroke:#008000;stroke-width:1;"/><path d="M286,372.2969 L286,397.2969 L537,397.2969 L537,382.2969 L527,372.2969 L286,372.2969" fill="#FEFFDD" style="stroke:#181818;stroke-width:0.5;"/><path d="M527,372.2969 L527,382.2969 L537,382.2969 L527,372.2969" fill="#FEFFDD" style="stroke:#181818;stroke-width:0.5;"/><text fill="#000000" font-family="sans-serif" font-size="13" font-weight="bold" lengthAdjust="spacing" textLength="60.5313" x="292" y="389.3638">Docente</text><text fill="#000000" font-family="sans-serif" font-size="13" lengthAdjust="spacing" textLength="165.9214" x="356.6636" y="389.3638">solicita modificar campos</text></g><!--link GuardandoDatos to *end*editarGrado--><g class="link" data-entity-1="GuardandoDatos" data-entity-2=".end.editarGrado" data-source-line="35" data-uid="lnk7" id="link_GuardandoDatos_.end.editarGrado"><path d="M134.93,507.3969 C97.16,519.5969 30,541.2969 30,541.2969 C30,541.2969 30,576.2969 30,576.2969 C30,576.2969 112.4446,594.0531 143.4946,600.7431" fill="none" id="GuardandoDatos-to-*end*editarGrado" style="stroke:#008000;stroke-width:1;"/><polygon fill="#008000" points="149.36,602.0069,141.4044,596.201,144.4722,600.9537,139.7194,604.0215,149.36,602.0069" style="stroke:#008000;stroke-width:1;"/><path d="M35,546.2969 L35,571.2969 L265,571.2969 L265,556.2969 L255,546.2969 L35,546.2969" fill="#FEFFDD" style="stroke:#181818;stroke-width:0.5;"/><path d="M255,546.2969 L255,556.2969 L265,556.2969 L255,546.2969" fill="#FEFFDD" style="stroke:#181818;stroke-width:0.5;"/><text fill="#000000" font-family="sans-serif" font-size="13" font-weight="bold" lengthAdjust="spacing" textLength="60.5313" x="41" y="563.3638">Docente</text><text fill="#000000" font-family="sans-serif" font-size="13" lengthAdjust="spacing" textLength="144.5361" x="105.6636" y="563.3638">solicita guardar y salir</text></g><!--link GuardandoDatos to *end*editarGrado--><g class="link" data-entity-1="GuardandoDatos" data-entity-2=".end.editarGrado" data-source-line="40" data-uid="lnk8" id="link_GuardandoDatos_.end.editarGrado"><path d="M185.24,508.9369 C217.71,521.3369 270,541.2969 270,541.2969 C270,541.2969 270,576.2969 270,576.2969 C270,576.2969 203.8945,593.1263 176.3645,600.1363" fill="none" id="GuardandoDatos-to-*end*editarGrado-1" style="stroke:#FF0000;stroke-width:1;"/><polygon fill="#FF0000" points="170.55,601.6169,180.2587,603.2724,175.3954,600.3831,178.2847,595.5197,170.55,601.6169" style="stroke:#FF0000;stroke-width:1;"/><path d="M275,546.2969 L275,571.2969 L516,571.2969 L516,556.2969 L506,546.2969 L275,546.2969" fill="#FEFFDD" style="stroke:#181818;stroke-width:0.5;"/><path d="M506,546.2969 L506,556.2969 L516,556.2969 L506,546.2969" fill="#FEFFDD" style="stroke:#181818;stroke-width:0.5;"/><text fill="#000000" font-family="sans-serif" font-size="13" font-weight="bold" lengthAdjust="spacing" textLength="60.5313" x="281" y="563.3638">Docente</text><text fill="#000000" font-family="sans-serif" font-size="13" lengthAdjust="spacing" textLength="156.2729" x="345.6636" y="563.3638">solicita cancelar edici&#243;n</text></g><!--link GRADO_ABIERTO to editarGrado--><g class="link" data-entity-1="GRADO_ABIERTO" data-entity-2="editarGrado" data-source-line="47" data-uid="lnk9" id="link_GRADO_ABIERTO_editarGrado"><path d="M192.9,57.04 C196.94,72.19 201.0662,87.702 207.5762,112.152" fill="none" id="GRADO_ABIERTO-to-editarGrado" style="stroke:#008000;stroke-width:1;"/><polygon fill="#008000" points="209.12,117.95,210.6697,108.2238,207.8335,113.1183,202.939,110.2822,209.12,117.95" style="stroke:#008000;stroke-width:1;"/></g><!--link GRADOS_ABIERTO to editarGrado--><g class="link" data-entity-1="GRADOS_ABIERTO" data-entity-2="editarGrado" data-source-line="49" data-uid="lnk10" id="link_GRADOS_ABIERTO_editarGrado"><path d="M360.1,57.04 C356.06,72.19 351.9338,87.702 345.4238,112.152" fill="none" id="GRADOS_ABIERTO-to-editarGrado" style="stroke:#008000;stroke-width:1;"/><polygon fill="#008000" points="343.88,117.95,350.061,110.2822,345.1665,113.1183,342.3303,108.2238,343.88,117.95" style="stroke:#008000;stroke-width:1;"/></g><!--link editarGrado to GRADO_ABIERTO2--><g class="link" data-entity-1="editarGrado" data-entity-2="GRADO_ABIERTO2" data-source-line="51" data-uid="lnk11" id="link_editarGrado_GRADO_ABIERTO2"><path d="M215.29,626.02 C205.93,664.68 199.0715,693.0584 193.8215,714.7484" fill="none" id="editarGrado-to-GRADO_ABIERTO2" style="stroke:#008000;stroke-width:1;"/><polygon fill="#008000" points="192.41,720.58,198.415,712.7736,193.5863,715.7203,190.6395,710.8916,192.41,720.58" style="stroke:#008000;stroke-width:1;"/></g><!--link editarGrado to GRADOS_ABIERTO2--><g class="link" data-entity-1="editarGrado" data-entity-2="GRADOS_ABIERTO2" data-source-line="53" data-uid="lnk12" id="link_editarGrado_GRADOS_ABIERTO2"><path d="M337.71,626.02 C347.07,664.68 353.9285,693.0584 359.1785,714.7484" fill="none" id="editarGrado-to-GRADOS_ABIERTO2" style="stroke:#FF0000;stroke-width:1;"/><polygon fill="#FF0000" points="360.59,720.58,362.3605,710.8916,359.4137,715.7203,354.585,712.7736,360.59,720.58" style="stroke:#FF0000;stroke-width:1;"/><path d="M355.5,661 L355.5,686 L482.5,686 L482.5,671 L472.5,661 L355.5,661" fill="#FEFFDD" style="stroke:#181818;stroke-width:0.5;"/><path d="M472.5,661 L472.5,671 L482.5,671 L472.5,661" fill="#FEFFDD" style="stroke:#181818;stroke-width:0.5;"/><text fill="#000000" font-family="sans-serif" font-size="13" lengthAdjust="spacing" textLength="106.3677" x="361.5" y="678.0669">cancelar edici&#243;n</text></g><!--SRC=[dLJTIiCm5BxFKnpgZOf3sAMCWR8n176mUZU6PCcnXBL9IRgB8OBFuYli4VOcFeb9rjPcxHmpXK9EllDztpdvCIiXSwff1gcGM6noX5ob6pSXn1IqG9ZCxaVJr_k7n_7iPGhKG1H4eYvO_mGkRlF5VmFxdSWIYbmKL4yqvSh36lFBgmZU2G4xzjZ8VXOpTX39rOWMohIN9skgURqEUuBvzG9wyuj48yf5RnXoW8T8PJcKTDrS-S1WEHmfXhB0mUro24QbWjciqZ8apgC7ekJxR3j8_GibckAXmwFYiJ05PjIBvngDTKA1UpRk6yV4RYiz-llp2vvLjjHu0sotvI9HTVp9qb2NGTDr9cqoojI5U2dTAOSw4zPHLRE-g-aonSMROBO1Z6PvoU4M4bzLioykogXacDfmuBVgsA-1WrqxkbVdRLMdsRF4xS4vJx9gmmOCJOKE5O-eQUJ_qZhHNF91IFW4D2jhtBGI5f_6DQzhSAI39wI5AmiyU1T8K6YxcAgG7m00]--></g></svg>