<svg xmlns="http://www.w3.org/2000/svg" xmlns:xlink="http://www.w3.org/1999/xlink" contentStyleType="text/css" data-diagram-type="STATE" height="666px" preserveAspectRatio="none" style="width:559px;height:666px;background:#FFFFFF;" version="1.1" viewBox="0 0 559 666" width="559px" zoomAndPan="magnify"><defs/><g><path d="M19.5,7 L533.5,7 A12.5,12.5 0 0 1 546,19.5 L546,33.2969 L7,33.2969 L7,19.5 A12.5,12.5 0 0 1 19.5,7" fill="#F1F1F1"/><rect fill="none" height="508.2969" rx="12.5" ry="12.5" style="stroke:#181818;stroke-width:0.5;" width="539" x="7" y="7"/><line style="stroke:#181818;stroke-width:0.5;" x1="7" x2="546" y1="33.2969" y2="33.2969"/><text fill="#000000" font-family="sans-serif" font-size="14" lengthAdjust="spacing" textLength="94.7734" x="229.1133" y="24.9951">editarGrado()</text><g id="editarGrado.EditandoDatos"><rect fill="#F1F1F1" height="50" rx="12.5" ry="12.5" style="stroke:#181818;stroke-width:0.5;" width="50" x="135" y="135.2969"/><line style="stroke:#181818;stroke-width:0.5;" x1="135" x2="185" y1="161.5938" y2="161.5938"/><text fill="#000000" font-family="sans-serif" font-size="14" lengthAdjust="spacing" textLength="4.4502" x="157.7749" y="153.292">&#160;</text></g><g id="editarGrado.GuardandoDatos"><rect fill="#F1F1F1" height="50" rx="12.5" ry="12.5" style="stroke:#181818;stroke-width:0.5;" width="50" x="135" y="362.2969"/><line style="stroke:#181818;stroke-width:0.5;" x1="135" x2="185" y1="388.5938" y2="388.5938"/><text fill="#000000" font-family="sans-serif" font-size="14" lengthAdjust="spacing" textLength="4.4502" x="157.7749" y="380.292">&#160;</text></g><ellipse cx="160" cy="54.2969" fill="#222222" rx="10" ry="10" style="stroke:#222222;stroke-width:1;"/><ellipse cx="160" cy="494.2969" fill="none" rx="11" ry="11" style="stroke:#222222;stroke-width:1;"/><ellipse cx="160" cy="494.2969" fill="#222222" rx="6" ry="6" style="stroke:#222222;stroke-width:1;"/><!--link *start*editarGrado to EditandoDatos--><g class="link" data-entity-1=".start.editarGrado" data-entity-2="EditandoDatos" data-source-line="8" data-uid="lnk3" id="link_.start.editarGrado_EditandoDatos"><path d="M160,64.5269 C160,80.2369 160,106.6569 160,129.1669" fill="none" id="*start*editarGrado-to-EditandoDatos" style="stroke:#008000;stroke-width:1;"/><polygon fill="#008000" points="160,135.1669,164,126.1669,160,130.1669,156,126.1669,160,135.1669" style="stroke:#008000;stroke-width:1;"/><path d="M165,87.2969 L165,112.2969 L380,112.2969 L380,97.2969 L370,87.2969 L165,87.2969" fill="#FEFFDD" style="stroke:#181818;stroke-width:0.5;"/><path d="M370,87.2969 L370,97.2969 L380,97.2969 L370,87.2969" fill="#FEFFDD" style="stroke:#181818;stroke-width:0.5;"/><text fill="#000000" font-family="sans-serif" font-size="13" font-weight="bold" lengthAdjust="spacing" textLength="60.5313" x="171" y="104.3638">Docente</text><text fill="#000000" font-family="sans-serif" font-size="13" lengthAdjust="spacing" textLength="130.0762" x="235.6636" y="104.3638">solicita editar grado</text></g><!--link EditandoDatos to GuardandoDatos--><g class="link" data-entity-1="EditandoDatos" data-entity-2="GuardandoDatos" data-source-line="13" data-uid="lnk4" id="link_EditandoDatos_GuardandoDatos"><path d="M134.94,168.7069 C94.17,180.7669 18,203.2969 18,203.2969 C18,203.2969 18,344.2969 18,344.2969 C18,344.2969 88.4164,365.1249 129.1864,377.1849" fill="none" id="EditandoDatos-to-GuardandoDatos" style="stroke:#008000;stroke-width:1;"/><polygon fill="#008000" points="134.94,378.8869,127.4443,372.4983,130.1454,377.4686,125.175,380.1697,134.94,378.8869" style="stroke:#008000;stroke-width:1;"/><path d="M23,208.2969 L23,339.2969 L276,339.2969 L276,218.2969 L266,208.2969 L23,208.2969" fill="#FEFFDD" style="stroke:#181818;stroke-width:0.5;"/><path d="M266,208.2969 L266,218.2969 L276,218.2969 L266,208.2969" fill="#FEFFDD" style="stroke:#181818;stroke-width:0.5;"/><text fill="#000000" font-family="sans-serif" font-size="13" font-weight="bold" lengthAdjust="spacing" textLength="58.9063" x="29" y="225.3638">Sistema</text><text fill="#000000" font-family="sans-serif" font-size="13" lengthAdjust="spacing" textLength="169.1714" x="92.0386" y="225.3638">presenta datos de edici&#243;n</text><text fill="#000000" font-family="sans-serif" font-size="13" lengthAdjust="spacing" textLength="115.1719" x="29" y="240.4966">&#8226; Nombre, c&#243;digo</text><text fill="#000000" font-family="sans-serif" font-size="13" lengthAdjust="spacing" textLength="192.8608" x="29" y="255.6294">&#8226; Lista de alumnos enlistados</text><text fill="#000000" font-family="sans-serif" font-size="13" lengthAdjust="spacing" textLength="4.1323" x="29" y="270.7622">&#160;</text><text fill="#000000" font-family="sans-serif" font-size="13" font-weight="bold" lengthAdjust="spacing" textLength="58.9063" x="29" y="285.895">Sistema</text><text fill="#000000" font-family="sans-serif" font-size="13" lengthAdjust="spacing" textLength="110.5952" x="92.0386" y="285.895">permite solicitar:</text><text fill="#000000" font-family="sans-serif" font-size="13" lengthAdjust="spacing" textLength="127.8164" x="29" y="301.0278">&#8226; modificar campos</text><text fill="#000000" font-family="sans-serif" font-size="13" lengthAdjust="spacing" textLength="105.0664" x="29" y="316.1606">&#8226; guardar grado</text><text fill="#000000" font-family="sans-serif" font-size="13" lengthAdjust="spacing" textLength="118.168" x="29" y="331.2935">&#8226; cancelar edici&#243;n</text></g><!--link GuardandoDatos to EditandoDatos--><g class="link" data-entity-1="GuardandoDatos" data-entity-2="EditandoDatos" data-source-line="25" data-uid="lnk5" id="link_GuardandoDatos_EditandoDatos"><path d="M185.07,377.5969 C220.51,365.2969 281,344.2969 281,344.2969 C281,344.2969 281,203.2969 281,203.2969 C281,203.2969 226.1783,184.2642 190.7383,171.9642" fill="none" id="GuardandoDatos-to-EditandoDatos" style="stroke:#008000;stroke-width:1;"/><polygon fill="#008000" points="185.07,169.9969,192.261,176.7267,189.7936,171.6363,194.884,169.1689,185.07,169.9969" style="stroke:#008000;stroke-width:1;"/><path d="M286,261.2969 L286,286.2969 L537,286.2969 L537,271.2969 L527,261.2969 L286,261.2969" fill="#FEFFDD" style="stroke:#181818;stroke-width:0.5;"/><path d="M527,261.2969 L527,271.2969 L537,271.2969 L527,261.2969" fill="#FEFFDD" style="stroke:#181818;stroke-width:0.5;"/><text fill="#000000" font-family="sans-serif" font-size="13" font-weight="bold" lengthAdjust="spacing" textLength="60.5313" x="292" y="278.3638">Docente</text><text fill="#000000" font-family="sans-serif" font-size="13" lengthAdjust="spacing" textLength="165.9214" x="356.6636" y="278.3638">solicita modificar campos</text></g><!--link GuardandoDatos to *end*editarGrado--><g class="link" data-entity-1="GuardandoDatos" data-entity-2=".end.editarGrado" data-source-line="30" data-uid="lnk7" id="link_GuardandoDatos_.end.editarGrado"><path d="M134.93,396.3969 C97.16,408.5969 30,430.2969 30,430.2969 C30,430.2969 30,465.2969 30,465.2969 C30,465.2969 112.4446,483.0531 143.4946,489.7431" fill="none" id="GuardandoDatos-to-*end*editarGrado" style="stroke:#008000;stroke-width:1;"/><polygon fill="#008000" points="149.36,491.0069,141.4044,485.201,144.4722,489.9537,139.7194,493.0215,149.36,491.0069" style="stroke:#008000;stroke-width:1;"/><path d="M35,435.2969 L35,460.2969 L265,460.2969 L265,445.2969 L255,435.2969 L35,435.2969" fill="#FEFFDD" style="stroke:#181818;stroke-width:0.5;"/><path d="M255,435.2969 L255,445.2969 L265,445.2969 L255,435.2969" fill="#FEFFDD" style="stroke:#181818;stroke-width:0.5;"/><text fill="#000000" font-family="sans-serif" font-size="13" font-weight="bold" lengthAdjust="spacing" textLength="60.5313" x="41" y="452.3638">Docente</text><text fill="#000000" font-family="sans-serif" font-size="13" lengthAdjust="spacing" textLength="144.5361" x="105.6636" y="452.3638">solicita guardar y salir</text></g><!--link GuardandoDatos to *end*editarGrado--><g class="link" data-entity-1="GuardandoDatos" data-entity-2=".end.editarGrado" data-source-line="35" data-uid="lnk8" id="link_GuardandoDatos_.end.editarGrado"><path d="M185.24,397.9369 C217.71,410.3369 270,430.2969 270,430.2969 C270,430.2969 270,465.2969 270,465.2969 C270,465.2969 203.8945,482.1263 176.3645,489.1363" fill="none" id="GuardandoDatos-to-*end*editarGrado-1" style="stroke:#FF0000;stroke-width:1;"/><polygon fill="#FF0000" points="170.55,490.6169,180.2587,492.2724,175.3954,489.3831,178.2847,484.5197,170.55,490.6169" style="stroke:#FF0000;stroke-width:1;"/><path d="M275,435.2969 L275,460.2969 L516,460.2969 L516,445.2969 L506,435.2969 L275,435.2969" fill="#FEFFDD" style="stroke:#181818;stroke-width:0.5;"/><path d="M506,435.2969 L506,445.2969 L516,445.2969 L506,435.2969" fill="#FEFFDD" style="stroke:#181818;stroke-width:0.5;"/><text fill="#000000" font-family="sans-serif" font-size="13" font-weight="bold" lengthAdjust="spacing" textLength="60.5313" x="281" y="452.3638">Docente</text><text fill="#000000" font-family="sans-serif" font-size="13" lengthAdjust="spacing" textLength="156.2729" x="345.6636" y="452.3638">solicita cancelar edici&#243;n</text></g><g id="GRADO_ABIERTO"><rect fill="#F1F1F1" height="50" rx="12.5" ry="12.5" style="stroke:#181818;stroke-width:0.5;" width="140.4082" x="169.5" y="610"/><line style="stroke:#181818;stroke-width:0.5;" x1="169.5" x2="309.9082" y1="636.2969" y2="636.2969"/><text fill="#000000" font-family="sans-serif" font-size="14" lengthAdjust="spacing" textLength="120.4082" x="179.5" y="627.9951">GRADO_ABIERTO</text></g><g id="GRADOS_ABIERTO"><rect fill="#F1F1F1" height="50" rx="12.5" ry="12.5" style="stroke:#181818;stroke-width:0.5;" width="149.2949" x="372" y="610"/><line style="stroke:#181818;stroke-width:0.5;" x1="372" x2="521.2949" y1="636.2969" y2="636.2969"/><text fill="#000000" font-family="sans-serif" font-size="14" lengthAdjust="spacing" textLength="129.2949" x="382" y="627.9951">GRADOS_ABIERTO</text></g><!--link GRADO_ABIERTO to editarGrado--><g class="link" data-entity-1="GRADO_ABIERTO" data-entity-2="editarGrado" data-source-line="42" data-uid="lnk10" id="link_GRADO_ABIERTO_editarGrado"><path d="M249.05,609.58 C253.94,587.89 258.4577,559.6339 263.2777,520.9739" fill="none" id="GRADO_ABIERTO-to-editarGrado" style="stroke:#008000;stroke-width:1;"/><polygon fill="#008000" points="264.02,515.02,258.9373,523.456,263.4014,519.9816,266.8758,524.4457,264.02,515.02" style="stroke:#008000;stroke-width:1;"/></g><!--link editarGrado to GRADO_ABIERTO--><g class="link" data-entity-1="editarGrado" data-entity-2="GRADO_ABIERTO" data-source-line="46" data-uid="lnk13" id="link_editarGrado_GRADO_ABIERTO"><path d="M239.35,515.02 C236.43,553.68 234.6638,581.8911 235.0838,603.5811" fill="none" id="editarGrado-to-GRADO_ABIERTO" style="stroke:#008000;stroke-width:1;"/><polygon fill="#008000" points="235.2,609.58,239.025,600.5042,235.1032,604.5809,231.0265,600.6591,235.2,609.58" style="stroke:#008000;stroke-width:1;"/></g><!--link GRADOS_ABIERTO to editarGrado--><g class="link" data-entity-1="GRADOS_ABIERTO" data-entity-2="editarGrado" data-source-line="44" data-uid="lnk12" id="link_GRADOS_ABIERTO_editarGrado"><path d="M449.18,609.84 C450.78,595.47 452.5,580 452.5,580 C452.5,580 452.5,545 452.5,545 C452.5,545 448.5485,538.6452 437.1685,520.3452" fill="none" id="GRADOS_ABIERTO-to-editarGrado" style="stroke:#008000;stroke-width:1;"/><polygon fill="#008000" points="434,515.25,435.3559,525.0051,436.6404,519.496,442.1495,520.7804,434,515.25" style="stroke:#008000;stroke-width:1;"/></g><!--link editarGrado to GRADOS_ABIERTO--><g class="link" data-entity-1="editarGrado" data-entity-2="GRADOS_ABIERTO" data-source-line="48" data-uid="lnk14" id="link_editarGrado_GRADOS_ABIERTO"><path d="M301.19,515.26 C304.89,553.25 307.5,580 307.5,580 C307.5,580 341.7168,593.2983 378.7268,607.6683" fill="none" id="editarGrado-to-GRADOS_ABIERTO" style="stroke:#FF0000;stroke-width:1;"/><polygon fill="#FF0000" points="384.32,609.84,377.378,602.8537,379.659,608.0303,374.4824,610.3113,384.32,609.84" style="stroke:#FF0000;stroke-width:1;"/><path d="M312.5,550 L312.5,575 L439.5,575 L439.5,560 L429.5,550 L312.5,550" fill="#FEFFDD" style="stroke:#181818;stroke-width:0.5;"/><path d="M429.5,550 L429.5,560 L439.5,560 L429.5,550" fill="#FEFFDD" style="stroke:#181818;stroke-width:0.5;"/><text fill="#000000" font-family="sans-serif" font-size="13" lengthAdjust="spacing" textLength="106.3677" x="318.5" y="567.0669">cancelar edici&#243;n</text></g><!--SRC=[dLDHQW8n4FtFAGRxqvPA_ui8BOeKIWNjdqWPa-aIp2PBidv8AVGilO97y2OzIPEukzrKHMmM5ZBpvhqtayGjfIxGOWvAQYhN1K5Xr3fi67CbbWGaP8bsP54OG0UTrlxogWFlZ85VEsp7Vnup310jp01Bu_RJenLQqUHXHp2xdaDtTf5P8ZtlzbCEY11jF8VHmUeo1dgB_i1mqYNrRXTzS4P9xgigov05Zn58Mkog_MBDBvLeYwSEZufFfIifnoXUM7BU2OA8R28EZiljHaVqz-SNF9jyOUa6-7OZP6QQ-9EdmL21QfLhNqnQXP2ef0_AaSsbTrJtREyQkjm8-IQv7m37lAWuGYABNRNd4g8SDIVbmudVUcA_1lwSsj6pEk-e3fezIznVdFCawp6imQ6IDbKyecP9_4lhn73P1sEZoVrW_7h_y3YSl8oJpbelhO9DJ-FQppMvqcsPFLZLNoh2aZRtMwdR-040]--></g></svg>