<svg xmlns="http://www.w3.org/2000/svg" xmlns:xlink="http://www.w3.org/1999/xlink" contentStyleType="text/css" data-diagram-type="STATE" height="910px" preserveAspectRatio="none" style="width:463px;height:910px;background:#FFFFFF;" version="1.1" viewBox="0 0 463 910" width="463px" zoomAndPan="magnify"><defs/><g><g id="PREGUNTAS_ABIERTO"><rect fill="#F1F1F1" height="50" rx="12.5" ry="12.5" style="stroke:#181818;stroke-width:0.5;" width="174.0547" x="136.97" y="7"/><line style="stroke:#181818;stroke-width:0.5;" x1="136.97" x2="311.0247" y1="33.2969" y2="33.2969"/><text fill="#000000" font-family="sans-serif" font-size="14" lengthAdjust="spacing" textLength="154.0547" x="146.97" y="24.9951">PREGUNTAS_ABIERTO</text></g><path d="M19.5,152 L428.5,152 A12.5,12.5 0 0 1 441,164.5 L441,178.2969 L7,178.2969 L7,164.5 A12.5,12.5 0 0 1 19.5,152" fill="#F1F1F1"/><rect fill="none" height="607.2969" rx="12.5" ry="12.5" style="stroke:#181818;stroke-width:0.5;" width="434" x="7" y="152"/><line style="stroke:#181818;stroke-width:0.5;" x1="7" x2="441" y1="178.2969" y2="178.2969"/><text fill="#000000" font-family="sans-serif" font-size="14" lengthAdjust="spacing" textLength="110.8379" x="168.5811" y="169.9951">crearPregunta()</text><g id="crearPregunta.SolicitandoDatosPregunta"><rect fill="#F1F1F1" height="50" rx="12.5" ry="12.5" style="stroke:#181818;stroke-width:0.5;" width="50" x="19" y="280.2969"/><line style="stroke:#181818;stroke-width:0.5;" x1="19" x2="69" y1="306.5938" y2="306.5938"/><text fill="#000000" font-family="sans-serif" font-size="14" lengthAdjust="spacing" textLength="4.4502" x="41.7749" y="298.292">&#160;</text></g><g id="crearPregunta.ProcesandoCreacion"><rect fill="#F1F1F1" height="50" rx="12.5" ry="12.5" style="stroke:#181818;stroke-width:0.5;" width="50" x="19" y="576.2969"/><line style="stroke:#181818;stroke-width:0.5;" x1="19" x2="69" y1="602.5938" y2="602.5938"/><text fill="#000000" font-family="sans-serif" font-size="14" lengthAdjust="spacing" textLength="4.4502" x="41.7749" y="594.292">&#160;</text></g><ellipse cx="44" cy="199.2969" fill="#222222" rx="10" ry="10" style="stroke:#222222;stroke-width:1;"/><ellipse cx="44" cy="738.2969" fill="none" rx="11" ry="11" style="stroke:#222222;stroke-width:1;"/><ellipse cx="44" cy="738.2969" fill="#222222" rx="6" ry="6" style="stroke:#222222;stroke-width:1;"/><!--link *start*crearPregunta to SolicitandoDatosPregunta--><g class="link" data-entity-1=".start.crearPregunta" data-entity-2="SolicitandoDatosPregunta" data-source-line="18" data-uid="lnk4" id="link_.start.crearPregunta_SolicitandoDatosPregunta"><path d="M44,209.5269 C44,225.2369 44,251.6569 44,274.1669" fill="none" id="*start*crearPregunta-to-SolicitandoDatosPregunta" style="stroke:#008000;stroke-width:1;"/><polygon fill="#008000" points="44,280.1669,48,271.1669,44,275.1669,40,271.1669,44,280.1669" style="stroke:#008000;stroke-width:1;"/><path d="M49,232.2969 L49,257.2969 L326,257.2969 L326,242.2969 L316,232.2969 L49,232.2969" fill="#FEFFDD" style="stroke:#181818;stroke-width:0.5;"/><path d="M316,232.2969 L316,242.2969 L326,242.2969 L316,232.2969" fill="#FEFFDD" style="stroke:#181818;stroke-width:0.5;"/><text fill="#000000" font-family="sans-serif" font-size="13" font-weight="bold" lengthAdjust="spacing" textLength="60.5313" x="55" y="249.3638">Docente</text><text fill="#000000" font-family="sans-serif" font-size="13" lengthAdjust="spacing" textLength="191.4961" x="119.6636" y="249.3638">solicita crear nueva pregunta</text></g><!--link SolicitandoDatosPregunta to ProcesandoCreacion--><g class="link" data-entity-1="SolicitandoDatosPregunta" data-entity-2="ProcesandoCreacion" data-source-line="23" data-uid="lnk5" id="link_SolicitandoDatosPregunta_ProcesandoCreacion"><path d="M44,330.6069 C44,385.9069 44,514.6269 44,569.9569" fill="none" id="SolicitandoDatosPregunta-to-ProcesandoCreacion" style="stroke:#008000;stroke-width:1;"/><polygon fill="#008000" points="44,575.9569,48,566.9569,44,570.9569,40,566.9569,44,575.9569" style="stroke:#008000;stroke-width:1;"/><path d="M49,353.2969 L49,553.2969 L407,553.2969 L407,363.2969 L397,353.2969 L49,353.2969" fill="#FEFFDD" style="stroke:#181818;stroke-width:0.5;"/><path d="M397,353.2969 L397,363.2969 L407,363.2969 L397,353.2969" fill="#FEFFDD" style="stroke:#181818;stroke-width:0.5;"/><text fill="#000000" font-family="sans-serif" font-size="13" font-weight="bold" lengthAdjust="spacing" textLength="58.9063" x="55" y="370.3638">Sistema</text><text fill="#000000" font-family="sans-serif" font-size="13" lengthAdjust="spacing" textLength="269.2612" x="118.0386" y="370.3638">presenta una solicitud de datos m&#237;nimos:</text><line style="stroke:#181818;stroke-width:1;" x1="50" x2="406.3398" y1="373.4297" y2="373.4297"/><text fill="#000000" font-family="sans-serif" font-size="13" font-weight="bold" lengthAdjust="spacing" textLength="72.7568" x="55" y="389.4966">Pregunta:</text><text fill="#000000" font-family="sans-serif" font-size="13" lengthAdjust="spacing" textLength="166.0674" x="55" y="404.6294">&#8226; Asignatura (obligatorio)</text><text fill="#000000" font-family="sans-serif" font-size="13" lengthAdjust="spacing" textLength="163.5474" x="55" y="419.7622">&#8226; Enunciado (obligatorio)</text><text fill="#000000" font-family="sans-serif" font-size="13" lengthAdjust="spacing" textLength="132.2534" x="55" y="434.895">&#8226; Tema (obligatorio)</text><text fill="#000000" font-family="sans-serif" font-size="13" lengthAdjust="spacing" textLength="337.3398" x="55" y="450.0278">&#8226; Dificultad (ENUM: BAJA, MEDIA, ALTA)(obligatorio)</text><line style="stroke:#181818;stroke-width:1;" x1="50" x2="406.3398" y1="457.0938" y2="457.0938"/><text fill="#000000" font-family="sans-serif" font-size="13" font-weight="bold" lengthAdjust="spacing" textLength="188.1445" x="55" y="473.1606">Respuestas (Obligatoria):</text><text fill="#000000" font-family="sans-serif" font-size="13" lengthAdjust="spacing" textLength="182.8887" x="55" y="488.2935">&#8226; Contenido de la respuesta</text><text fill="#000000" font-family="sans-serif" font-size="13" lengthAdjust="spacing" textLength="179.5435" x="55" y="503.4263">&#8226; Correcta/incorrecta (Flag)</text><line style="stroke:#181818;stroke-width:1;" x1="50" x2="406.3398" y1="510.4922" y2="510.4922"/><text fill="#000000" font-family="sans-serif" font-size="13" lengthAdjust="spacing" textLength="188.8745" x="55" y="526.5591">&#8226; Permite confirmar creaci&#243;n</text><text fill="#000000" font-family="sans-serif" font-size="13" lengthAdjust="spacing" textLength="190.5059" x="55" y="541.6919">&#8226; Permite cancelar operaci&#243;n</text></g><!--link ProcesandoCreacion to *end*crearPregunta--><g class="link" data-entity-1="ProcesandoCreacion" data-entity-2=".end.crearPregunta" data-source-line="41" data-uid="lnk7" id="link_ProcesandoCreacion_.end.crearPregunta"><path d="M44,626.7469 C44,656.5269 44,699.5069 44,720.8369" fill="none" id="ProcesandoCreacion-to-*end*crearPregunta" style="stroke:#008000;stroke-width:1;"/><polygon fill="#008000" points="44,726.8369,48,717.8369,44,721.8369,40,717.8369,44,726.8369" style="stroke:#008000;stroke-width:1;"/><path d="M49,649.2969 L49,704.2969 L432,704.2969 L432,659.2969 L422,649.2969 L49,649.2969" fill="#FEFFDD" style="stroke:#181818;stroke-width:0.5;"/><path d="M422,649.2969 L422,659.2969 L432,659.2969 L422,649.2969" fill="#FEFFDD" style="stroke:#181818;stroke-width:0.5;"/><text fill="#000000" font-family="sans-serif" font-size="13" font-weight="bold" lengthAdjust="spacing" textLength="56.1196" x="55" y="666.3638">Usuario</text><text fill="#000000" font-family="sans-serif" font-size="13" lengthAdjust="spacing" textLength="258.8574" x="115.252" y="666.3638">proporciona todos los datos requeridos.</text><text fill="#000000" font-family="sans-serif" font-size="13" font-weight="bold" lengthAdjust="spacing" textLength="58.9063" x="55" y="681.4966">Sistema</text><text fill="#000000" font-family="sans-serif" font-size="13" lengthAdjust="spacing" textLength="238.2974" x="118.0386" y="681.4966">valida integridad (campos no nulos).</text><text fill="#000000" font-family="sans-serif" font-size="13" font-weight="bold" lengthAdjust="spacing" textLength="58.9063" x="55" y="696.6294">Sistema</text><text fill="#000000" font-family="sans-serif" font-size="13" lengthAdjust="spacing" textLength="298.981" x="118.0386" y="696.6294">persiste Pregunta + Respuesta (Transacci&#243;n).</text></g><g id="PREGUNTA_ABIERTO"><rect fill="#F1F1F1" height="50" rx="12.5" ry="12.5" style="stroke:#181818;stroke-width:0.5;" width="165.168" x="141.42" y="854.3"/><line style="stroke:#181818;stroke-width:0.5;" x1="141.42" x2="306.588" y1="880.5969" y2="880.5969"/><text fill="#000000" font-family="sans-serif" font-size="14" lengthAdjust="spacing" textLength="145.168" x="151.42" y="872.2951">PREGUNTA_ABIERTO</text></g><!--link PREGUNTAS_ABIERTO to crearPregunta--><g class="link" data-entity-1="PREGUNTAS_ABIERTO" data-entity-2="crearPregunta" data-source-line="7" data-uid="lnk2" id="link_PREGUNTAS_ABIERTO_crearPregunta"><path d="M183.67,57.48 C160.12,71.76 135,87 135,87 C135,87 135,122 135,122 C135,122 136.4481,127.4242 141.3481,145.7242" fill="none" id="PREGUNTAS_ABIERTO-to-crearPregunta" style="stroke:#008000;stroke-width:1;"/><polygon fill="#008000" points="142.9,151.52,144.4361,141.7917,141.6068,146.6901,136.7083,143.8608,142.9,151.52" style="stroke:#008000;stroke-width:1;"/><path d="M140,92 L140,117 L263,117 L263,102 L253,92 L140,92" fill="#FEFFDD" style="stroke:#181818;stroke-width:0.5;"/><path d="M253,92 L253,102 L263,102 L253,92" fill="#FEFFDD" style="stroke:#181818;stroke-width:0.5;"/><text fill="#000000" font-family="sans-serif" font-size="13" lengthAdjust="spacing" textLength="102.9209" x="146" y="109.0669">crearPregunta()</text></g><!--link crearPregunta to PREGUNTAS_ABIERTO--><g class="link" data-entity-1="crearPregunta" data-entity-2="PREGUNTAS_ABIERTO" data-source-line="58" data-uid="lnk10" id="link_crearPregunta_PREGUNTAS_ABIERTO"><path d="M267.74,151.52 C270.38,133.22 272,122 272,122 C272,122 272,87 272,87 C272,87 262.4374,76.2434 249.7374,61.9634" fill="none" id="crearPregunta-to-PREGUNTAS_ABIERTO" style="stroke:#0000FF;stroke-width:1;"/><polygon fill="#0000FF" points="245.75,57.48,248.7421,66.8634,249.0728,61.2162,254.72,61.5469,245.75,57.48" style="stroke:#0000FF;stroke-width:1;"/><path d="M277,92 L277,117 L412,117 L412,102 L402,92 L277,92" fill="#FEFFDD" style="stroke:#181818;stroke-width:0.5;"/><path d="M402,92 L402,102 L412,102 L402,92" fill="#FEFFDD" style="stroke:#181818;stroke-width:0.5;"/><text fill="#000000" font-family="sans-serif" font-size="13" lengthAdjust="spacing" textLength="114.9624" x="283" y="109.0669">cancelar creaci&#243;n</text></g><!--link crearPregunta to PREGUNTA_ABIERTO--><g class="link" data-entity-1="crearPregunta" data-entity-2="PREGUNTA_ABIERTO" data-source-line="52" data-uid="lnk9" id="link_crearPregunta_PREGUNTA_ABIERTO"><path d="M224,759.73 C224,798.74 224,826.51 224,847.92" fill="none" id="crearPregunta-to-PREGUNTA_ABIERTO" style="stroke:#008000;stroke-width:1;"/><polygon fill="#008000" points="224,853.92,228,844.92,224,848.92,220,844.92,224,853.92" style="stroke:#008000;stroke-width:1;"/><path d="M229,794.3 L229,819.3 L456,819.3 L456,804.3 L446,794.3 L229,794.3" fill="#FEFFDD" style="stroke:#181818;stroke-width:0.5;"/><path d="M446,794.3 L446,804.3 L456,804.3 L446,794.3" fill="#FEFFDD" style="stroke:#181818;stroke-width:0.5;"/><text fill="#000000" font-family="sans-serif" font-size="13" lengthAdjust="spacing" textLength="206.502" x="235" y="811.3669">editarPregunta(nuevaPregunta)</text></g><!--SRC=[TLJDRjf04BxxAKRfeQODHFqveIYIWvsAAW648PSegWPxOssotgMxQvIegjHtw1EqznwgFW9lqYVfh8qTN024MUz-C_FDpind7hXSeiOS19VCFYqPB9LuSY-UznBUz22APq4uXiaqkXwEmHyeQTcZLP0oK9fdJFRX76LIRamqomffqNGyOz4oP_LXFfe5yQVWV1XDPsFdz6qFPjDW50y7m_Nt4OGHH2FQ20Dl1mxTcnUPPapUTiyWqGnr7SAJYlmhwNW_UAqZl-CncO83k73lA8TB60Jns8MQnou9l4UGBDD8h2qAWIdMb5kk00qS_UVy2Bvu7j2dmX_Hbr2n4ZpX5cMgGhJAD3nta1Ej4cOSS42E4wvavUxcrMqhtKCUeKItqdSRfukpa1nJTKvF5cTWDjPLFY0Bja9ORfEgxyYjlUPnCEesjJqf7E8KSsDPZYKd2c-OyrL8h0aMgMkSr8M2VFrByboPVcdSxNPh9pM9ldDJRlxzzXC2mpE9jg0g-ceXU4PED5UT1X39GYOSKtNWV4R43Xo5_8udXR2OWX-DvbVKvC77u1Yked18Vy7bBEZiMcvHdZApB1WLte0_Rd3OQQTGJfFaQJaz0a7NLbi8hLbYyOJJZ5LBy2y4Pks83ZfXEkUkWvMyupgdgYTbTTP_v2w6HfO9WgWbqrkOPd2QXjYjTQiLg6iFrdvk2gIxsTHUBPLsvWXMfLHjGR-gxffzBfYcMp2zVMspGi5J14vNbH7AbIJ1V4c6Kb5Zav_ENZlApBZNHfRWDJHb0N-cKHfCojmt3fhilphXUD-3EBWSXa5Cmj5I47Tw8Ofx1T4ZfmnK7wv9AyH6JKX3ILB1K5IkWQNLE86Fwz-Oqaw-_c6UIssEWTCEAIcZ9RD9hzFMi_ReRIIo4TJMnPUndhMgdFhwhQsA5Vr0MAPfXlYAKXXKFG5Fi2gOM36NqAAMzbewp2wtXIZODhLuFxUcvPwxiYRq3m00]--></g></svg>