<svg xmlns="http://www.w3.org/2000/svg" xmlns:xlink="http://www.w3.org/1999/xlink" contentStyleType="text/css" data-diagram-type="STATE" height="857px" preserveAspectRatio="none" style="width:895px;height:857px;background:#FFFFFF;" version="1.1" viewBox="0 0 895 857" width="895px" zoomAndPan="magnify"><defs/><g><g id="PREGUNTAS_ABIERTO"><rect fill="#F1F1F1" height="50" rx="12.5" ry="12.5" style="stroke:#181818;stroke-width:0.5;" width="174.0547" x="285.5" y="7"/><line style="stroke:#181818;stroke-width:0.5;" x1="285.5" x2="459.5547" y1="33.2969" y2="33.2969"/><text fill="#000000" font-family="sans-serif" font-size="14" lengthAdjust="spacing" textLength="154.0547" x="295.5" y="24.9951">PREGUNTAS_ABIERTO</text></g><g id="PREGUNTAS_CONTEXTUALES_ABIERTO"><rect fill="#F1F1F1" height="50" rx="12.5" ry="12.5" style="stroke:#181818;stroke-width:0.5;" width="293.2188" x="7" y="801"/><line style="stroke:#181818;stroke-width:0.5;" x1="7" x2="300.2188" y1="827.2969" y2="827.2969"/><text fill="#000000" font-family="sans-serif" font-size="14" lengthAdjust="spacing" textLength="273.2188" x="17" y="818.9951">PREGUNTAS_CONTEXTUALES_ABIERTO</text></g><g id="PREGUNTA_ABIERTO"><rect fill="#F1F1F1" height="50" rx="12.5" ry="12.5" style="stroke:#181818;stroke-width:0.5;" width="165.168" x="335" y="801"/><line style="stroke:#181818;stroke-width:0.5;" x1="335" x2="500.168" y1="827.2969" y2="827.2969"/><text fill="#000000" font-family="sans-serif" font-size="14" lengthAdjust="spacing" textLength="145.168" x="345" y="818.9951">PREGUNTA_ABIERTO</text></g><g id="PREGUNTA_CONTEXTUAL_ABIERTO"><rect fill="#F1F1F1" height="50" rx="12.5" ry="12.5" style="stroke:#181818;stroke-width:0.5;" width="266.5996" x="548" y="801"/><line style="stroke:#181818;stroke-width:0.5;" x1="548" x2="814.5996" y1="827.2969" y2="827.2969"/><text fill="#000000" font-family="sans-serif" font-size="14" lengthAdjust="spacing" textLength="246.5996" x="558" y="818.9951">PREGUNTA_CONTEXTUAL_ABIERTO</text></g><path d="M180.5,152 L564.5,152 A12.5,12.5 0 0 1 577,164.5 L577,178.2969 L168,178.2969 L168,164.5 A12.5,12.5 0 0 1 180.5,152" fill="#F1F1F1"/><rect fill="none" height="554.2969" rx="12.5" ry="12.5" style="stroke:#181818;stroke-width:0.5;" width="409" x="168" y="152"/><line style="stroke:#181818;stroke-width:0.5;" x1="168" x2="577" y1="178.2969" y2="178.2969"/><text fill="#000000" font-family="sans-serif" font-size="14" lengthAdjust="spacing" textLength="110.8379" x="317.0811" y="169.9951">crearPregunta()</text><g id="crearPregunta.SolicitandoDatosPregunta"><rect fill="#F1F1F1" height="50" rx="12.5" ry="12.5" style="stroke:#181818;stroke-width:0.5;" width="50" x="180" y="280.2969"/><line style="stroke:#181818;stroke-width:0.5;" x1="180" x2="230" y1="306.5938" y2="306.5938"/><text fill="#000000" font-family="sans-serif" font-size="14" lengthAdjust="spacing" textLength="4.4502" x="202.7749" y="298.292">&#160;</text></g><g id="crearPregunta.ProcesandoCreacion"><rect fill="#F1F1F1" height="50" rx="12.5" ry="12.5" style="stroke:#181818;stroke-width:0.5;" width="50" x="180" y="538.2969"/><line style="stroke:#181818;stroke-width:0.5;" x1="180" x2="230" y1="564.5938" y2="564.5938"/><text fill="#000000" font-family="sans-serif" font-size="14" lengthAdjust="spacing" textLength="4.4502" x="202.7749" y="556.292">&#160;</text></g><ellipse cx="205" cy="199.2969" fill="#222222" rx="10" ry="10" style="stroke:#222222;stroke-width:1;"/><ellipse cx="205" cy="685.2969" fill="none" rx="11" ry="11" style="stroke:#222222;stroke-width:1;"/><ellipse cx="205" cy="685.2969" fill="#222222" rx="6" ry="6" style="stroke:#222222;stroke-width:1;"/><!--link *start*crearPregunta to SolicitandoDatosPregunta--><g class="link" data-entity-1=".start.crearPregunta" data-entity-2="SolicitandoDatosPregunta" data-source-line="18" data-uid="lnk5" id="link_.start.crearPregunta_SolicitandoDatosPregunta"><path d="M205,209.5269 C205,225.2369 205,251.6569 205,274.1669" fill="none" id="*start*crearPregunta-to-SolicitandoDatosPregunta" style="stroke:#008000;stroke-width:1;"/><polygon fill="#008000" points="205,280.1669,209,271.1669,205,275.1669,201,271.1669,205,280.1669" style="stroke:#008000;stroke-width:1;"/><path d="M210,232.2969 L210,257.2969 L487,257.2969 L487,242.2969 L477,232.2969 L210,232.2969" fill="#FEFFDD" style="stroke:#181818;stroke-width:0.5;"/><path d="M477,232.2969 L477,242.2969 L487,242.2969 L477,232.2969" fill="#FEFFDD" style="stroke:#181818;stroke-width:0.5;"/><text fill="#000000" font-family="sans-serif" font-size="13" font-weight="bold" lengthAdjust="spacing" textLength="60.5313" x="216" y="249.3638">Docente</text><text fill="#000000" font-family="sans-serif" font-size="13" lengthAdjust="spacing" textLength="191.4961" x="280.6636" y="249.3638">solicita crear nueva pregunta</text></g><!--link SolicitandoDatosPregunta to ProcesandoCreacion--><g class="link" data-entity-1="SolicitandoDatosPregunta" data-entity-2="ProcesandoCreacion" data-source-line="23" data-uid="lnk6" id="link_SolicitandoDatosPregunta_ProcesandoCreacion"><path d="M205,330.3769 C205,379.1769 205,483.1969 205,532.0869" fill="none" id="SolicitandoDatosPregunta-to-ProcesandoCreacion" style="stroke:#008000;stroke-width:1;"/><polygon fill="#008000" points="205,538.0869,209,529.0869,205,533.0869,201,529.0869,205,538.0869" style="stroke:#008000;stroke-width:1;"/><path d="M210,353.2969 L210,515.2969 L568,515.2969 L568,363.2969 L558,353.2969 L210,353.2969" fill="#FEFFDD" style="stroke:#181818;stroke-width:0.5;"/><path d="M558,353.2969 L558,363.2969 L568,363.2969 L558,353.2969" fill="#FEFFDD" style="stroke:#181818;stroke-width:0.5;"/><text fill="#000000" font-family="sans-serif" font-size="13" font-weight="bold" lengthAdjust="spacing" textLength="58.9063" x="216" y="370.3638">Sistema</text><text fill="#000000" font-family="sans-serif" font-size="13" lengthAdjust="spacing" textLength="240.6841" x="279.0386" y="370.3638">presenta solicitud de datos m&#237;nimos:</text><line style="stroke:#181818;stroke-width:1;" x1="211" x2="567.3398" y1="373.4297" y2="373.4297"/><text fill="#000000" font-family="sans-serif" font-size="13" font-weight="bold" lengthAdjust="spacing" textLength="72.7568" x="216" y="389.4966">Pregunta:</text><text fill="#000000" font-family="sans-serif" font-size="13" lengthAdjust="spacing" textLength="166.0674" x="216" y="404.6294">&#8226; Asignatura (obligatorio)</text><text fill="#000000" font-family="sans-serif" font-size="13" lengthAdjust="spacing" textLength="163.5474" x="216" y="419.7622">&#8226; Enunciado (obligatorio)</text><text fill="#000000" font-family="sans-serif" font-size="13" lengthAdjust="spacing" textLength="132.2534" x="216" y="434.895">&#8226; Tema (obligatorio)</text><text fill="#000000" font-family="sans-serif" font-size="13" lengthAdjust="spacing" textLength="337.3398" x="216" y="450.0278">&#8226; Dificultad (ENUM: BAJA, MEDIA, ALTA)(obligatorio)</text><text fill="#000000" font-family="sans-serif" font-size="13" lengthAdjust="spacing" textLength="4.1323" x="216" y="465.1606">&#160;</text><line style="stroke:#181818;stroke-width:1;" x1="211" x2="567.3398" y1="472.2266" y2="472.2266"/><text fill="#000000" font-family="sans-serif" font-size="13" lengthAdjust="spacing" textLength="219.0576" x="216" y="488.2935">&#8226; Permite solicitar crear pregunta</text><text fill="#000000" font-family="sans-serif" font-size="13" lengthAdjust="spacing" textLength="245.7559" x="216" y="503.4263">&#8226; Permite solicitar cancelar operaci&#243;n</text></g><!--link ProcesandoCreacion to *end*crearPregunta--><g class="link" data-entity-1="ProcesandoCreacion" data-entity-2=".end.crearPregunta" data-source-line="38" data-uid="lnk8" id="link_ProcesandoCreacion_.end.crearPregunta"><path d="M205,588.5769 C205,614.8769 205,649.5669 205,668.2769" fill="none" id="ProcesandoCreacion-to-*end*crearPregunta" style="stroke:#008000;stroke-width:1;"/><polygon fill="#008000" points="205,674.2769,209,665.2769,205,669.2769,201,665.2769,205,674.2769" style="stroke:#008000;stroke-width:1;"/><path d="M210,611.2969 L210,651.2969 L527,651.2969 L527,621.2969 L517,611.2969 L210,611.2969" fill="#FEFFDD" style="stroke:#181818;stroke-width:0.5;"/><path d="M517,611.2969 L517,621.2969 L527,621.2969 L517,611.2969" fill="#FEFFDD" style="stroke:#181818;stroke-width:0.5;"/><text fill="#000000" font-family="sans-serif" font-size="13" font-weight="bold" lengthAdjust="spacing" textLength="60.5313" x="216" y="628.3638">Docente</text><text fill="#000000" font-family="sans-serif" font-size="13" lengthAdjust="spacing" textLength="177.8423" x="280.6636" y="628.3638">proporciona datos m&#237;nimos</text><text fill="#000000" font-family="sans-serif" font-size="13" font-weight="bold" lengthAdjust="spacing" textLength="58.9063" x="216" y="643.4966">Sistema</text><text fill="#000000" font-family="sans-serif" font-size="13" lengthAdjust="spacing" textLength="233.9302" x="279.0386" y="643.4966">crea pregunta y transfiere a edici&#243;n</text></g><!--link PREGUNTAS_ABIERTO to crearPregunta--><g class="link" data-entity-1="PREGUNTAS_ABIERTO" data-entity-2="crearPregunta" data-source-line="10" data-uid="lnk2" id="link_PREGUNTAS_ABIERTO_crearPregunta"><path d="M369.37,57.16 C367.5,71.53 365.5,87 365.5,87 C365.5,87 365.5,122 365.5,122 C365.5,122 365.6235,127.4416 366.0435,145.9016" fill="none" id="PREGUNTAS_ABIERTO-to-crearPregunta" style="stroke:#008000;stroke-width:1;"/><polygon fill="#008000" points="366.18,151.9,369.9743,142.8113,366.0663,146.9013,361.9763,142.9933,366.18,151.9" style="stroke:#008000;stroke-width:1;"/></g><!--link crearPregunta to PREGUNTAS_ABIERTO--><g class="link" data-entity-1="crearPregunta" data-entity-2="PREGUNTAS_ABIERTO" data-source-line="57" data-uid="lnk11" id="link_crearPregunta_PREGUNTAS_ABIERTO"><path d="M372.5,151.7 C372.5,112.72 372.5,84.64 372.5,63.11" fill="none" id="crearPregunta-to-PREGUNTAS_ABIERTO" style="stroke:#0000FF;stroke-width:1;"/><polygon fill="#0000FF" points="372.5,57.11,368.5,66.11,372.5,62.11,376.5,66.11,372.5,57.11" style="stroke:#0000FF;stroke-width:1;"/><path d="M377.5,92 L377.5,117 L512.5,117 L512.5,102 L502.5,92 L377.5,92" fill="#FEFFDD" style="stroke:#181818;stroke-width:0.5;"/><path d="M502.5,92 L502.5,102 L512.5,102 L502.5,92" fill="#FEFFDD" style="stroke:#181818;stroke-width:0.5;"/><text fill="#000000" font-family="sans-serif" font-size="13" lengthAdjust="spacing" textLength="114.9624" x="383.5" y="109.0669">cancelar creaci&#243;n</text></g><!--link PREGUNTAS_CONTEXTUALES_ABIERTO to crearPregunta--><g class="link" data-entity-1="PREGUNTAS_CONTEXTUALES_ABIERTO" data-entity-2="crearPregunta" data-source-line="11" data-uid="lnk3" id="link_PREGUNTAS_CONTEXTUALES_ABIERTO_crearPregunta"><path d="M225.08,800.84 C267.68,786.47 313.5,771 313.5,771 C313.5,771 317.0761,750.312 323.7161,711.972" fill="none" id="PREGUNTAS_CONTEXTUALES_ABIERTO-to-crearPregunta" style="stroke:#008000;stroke-width:1;"/><polygon fill="#008000" points="324.74,706.06,319.2628,714.2454,323.8868,710.9867,327.1455,715.6106,324.74,706.06" style="stroke:#008000;stroke-width:1;"/></g><!--link crearPregunta to PREGUNTAS_CONTEXTUALES_ABIERTO--><g class="link" data-entity-1="crearPregunta" data-entity-2="PREGUNTAS_CONTEXTUALES_ABIERTO" data-source-line="62" data-uid="lnk12" id="link_crearPregunta_PREGUNTAS_CONTEXTUALES_ABIERTO"><path d="M181.21,706.1 C168.43,724.56 160.5,736 160.5,736 C160.5,736 157.9622,768.3486 155.8822,794.6986" fill="none" id="crearPregunta-to-PREGUNTAS_CONTEXTUALES_ABIERTO" style="stroke:#0000FF;stroke-width:1;"/><polygon fill="#0000FF" points="155.41,800.68,160.1058,792.0227,155.8035,795.6955,152.1306,791.3931,155.41,800.68" style="stroke:#0000FF;stroke-width:1;"/><path d="M165.5,741 L165.5,766 L300.5,766 L300.5,751 L290.5,741 L165.5,741" fill="#FEFFDD" style="stroke:#181818;stroke-width:0.5;"/><path d="M290.5,741 L290.5,751 L300.5,751 L290.5,741" fill="#FEFFDD" style="stroke:#181818;stroke-width:0.5;"/><text fill="#000000" font-family="sans-serif" font-size="13" lengthAdjust="spacing" textLength="114.9624" x="171.5" y="758.0669">cancelar creaci&#243;n</text></g><!--link crearPregunta to PREGUNTA_ABIERTO--><g class="link" data-entity-1="crearPregunta" data-entity-2="PREGUNTA_ABIERTO" data-source-line="47" data-uid="lnk9" id="link_crearPregunta_PREGUNTA_ABIERTO"><path d="M395.98,706.06 C399.24,744.4 401.5,771 401.5,771 C401.5,771 404.3747,780.7175 408.6347,795.0875" fill="none" id="crearPregunta-to-PREGUNTA_ABIERTO" style="stroke:#008000;stroke-width:1;"/><polygon fill="#008000" points="410.34,800.84,411.617,791.0743,408.9189,796.0462,403.9469,793.3481,410.34,800.84" style="stroke:#008000;stroke-width:1;"/><path d="M406.5,741 L406.5,766 L633.5,766 L633.5,751 L623.5,741 L406.5,741" fill="#FEFFDD" style="stroke:#181818;stroke-width:0.5;"/><path d="M623.5,741 L623.5,751 L633.5,751 L623.5,741" fill="#FEFFDD" style="stroke:#181818;stroke-width:0.5;"/><text fill="#000000" font-family="sans-serif" font-size="13" lengthAdjust="spacing" textLength="206.502" x="412.5" y="758.0669">editarPregunta(nuevaPregunta)</text></g><!--link crearPregunta to PREGUNTA_CONTEXTUAL_ABIERTO--><g class="link" data-entity-1="crearPregunta" data-entity-2="PREGUNTA_CONTEXTUAL_ABIERTO" data-source-line="52" data-uid="lnk10" id="link_crearPregunta_PREGUNTA_CONTEXTUAL_ABIERTO"><path d="M577.14,661.93 C614.8,704.6 642.5,736 642.5,736 C642.5,736 656.893,768.834 668.433,795.184" fill="none" id="crearPregunta-to-PREGUNTA_CONTEXTUAL_ABIERTO" style="stroke:#008000;stroke-width:1;"/><polygon fill="#008000" points="670.84,800.68,670.8935,790.8313,668.8342,796.1,663.5655,794.0406,670.84,800.68" style="stroke:#008000;stroke-width:1;"/><path d="M661.5,741 L661.5,766 L888.5,766 L888.5,751 L878.5,741 L661.5,741" fill="#FEFFDD" style="stroke:#181818;stroke-width:0.5;"/><path d="M878.5,741 L878.5,751 L888.5,751 L878.5,741" fill="#FEFFDD" style="stroke:#181818;stroke-width:0.5;"/><text fill="#000000" font-family="sans-serif" font-size="13" lengthAdjust="spacing" textLength="206.502" x="667.5" y="758.0669">editarPregunta(nuevaPregunta)</text></g><!--SRC=[hLJHQjim57tNLroobsJCx3sKWDkOqT6ceN5WK4gviM-3g7rb97aGnc3VilSzxHFw9_kIIKxYHerTCfWCjdLrxhb7EfBCa-GADPPGI2QxgGWgLMnyHmXXB5g2-MtoQJbBuyL3V7wPtAOtH_6BcrcQV4cNyLNI1-eBlwIs226EAa9qzswjYVW-ca2c2VLSqxfcY-9j5MyaxfG4GK03Wo0o70tWcn3WsXO_S8z3BLGXCscHSpL5gqnBUuISQvMHyS0BHvn9nLkwk_VtWRe-HcZGh1oZOc_JKnCuMqscZfWjdNrSJS3iihVp0QxfAq9rA8eutxAu9jfNRzL3QHrJwDEqaCPIYOqcLzwGvzg9gtF82N9V1ihdNonBPSPDOXH5UuAzWB6dQ89_Vlo4sCWrewqrmb2j2hbs95ggKGj8kEPCOgvwnbCdgcTeAXzbLXSMSnWci-Nr6CxZp_47k4wcb-uJNwNnACmCD7kAEUbIkiNOkw1tDWG6z02HCohSZwf8kxLz_is1NIzM7RiGcEJsqqaxfTAgKjgduoilkZpqysYd0Hkm6jayIj8429JB3i7VtGaMuR4ADjFh6o4Gx2ZjmUbhzl6-Dn9jZLFuEwwM_rDgLTHqM6dHpTywcpLs-NNw9zBEM_NK2dy1]--></g></svg>