<svg xmlns="http://www.w3.org/2000/svg" xmlns:xlink="http://www.w3.org/1999/xlink" contentStyleType="text/css" data-diagram-type="STATE" height="765px" preserveAspectRatio="none" style="width:492px;height:765px;background:#FFFFFF;" version="1.1" viewBox="0 0 492 765" width="492px" zoomAndPan="magnify"><defs/><g><path d="M23.08,7 L432.08,7 A12.5,12.5 0 0 1 444.58,19.5 L444.58,33.2969 L10.58,33.2969 L10.58,19.5 A12.5,12.5 0 0 1 23.08,7" fill="#F1F1F1"/><rect fill="none" height="607.2969" rx="12.5" ry="12.5" style="stroke:#181818;stroke-width:0.5;" width="434" x="10.58" y="7"/><line style="stroke:#181818;stroke-width:0.5;" x1="10.58" x2="444.58" y1="33.2969" y2="33.2969"/><text fill="#000000" font-family="sans-serif" font-size="14" lengthAdjust="spacing" textLength="110.8379" x="172.1611" y="24.9951">crearPregunta()</text><g id="crearPregunta.SolicitandoDatosPregunta"><rect fill="#F1F1F1" height="50" rx="12.5" ry="12.5" style="stroke:#181818;stroke-width:0.5;" width="50" x="22.58" y="135.2969"/><line style="stroke:#181818;stroke-width:0.5;" x1="22.58" x2="72.58" y1="161.5938" y2="161.5938"/><text fill="#000000" font-family="sans-serif" font-size="14" lengthAdjust="spacing" textLength="4.4502" x="45.3549" y="153.292">&#160;</text></g><g id="crearPregunta.ProcesandoCreacion"><rect fill="#F1F1F1" height="50" rx="12.5" ry="12.5" style="stroke:#181818;stroke-width:0.5;" width="50" x="22.58" y="431.2969"/><line style="stroke:#181818;stroke-width:0.5;" x1="22.58" x2="72.58" y1="457.5938" y2="457.5938"/><text fill="#000000" font-family="sans-serif" font-size="14" lengthAdjust="spacing" textLength="4.4502" x="45.3549" y="449.292">&#160;</text></g><ellipse cx="47.58" cy="54.2969" fill="#222222" rx="10" ry="10" style="stroke:#222222;stroke-width:1;"/><ellipse cx="47.58" cy="593.2969" fill="none" rx="11" ry="11" style="stroke:#222222;stroke-width:1;"/><ellipse cx="47.58" cy="593.2969" fill="#222222" rx="6" ry="6" style="stroke:#222222;stroke-width:1;"/><!--link *start*crearPregunta to SolicitandoDatosPregunta--><g class="link" data-entity-1=".start.crearPregunta" data-entity-2="SolicitandoDatosPregunta" data-source-line="8" data-uid="lnk3" id="link_.start.crearPregunta_SolicitandoDatosPregunta"><path d="M47.58,64.5269 C47.58,80.2369 47.58,106.6569 47.58,129.1669" fill="none" id="*start*crearPregunta-to-SolicitandoDatosPregunta" style="stroke:#008000;stroke-width:1;"/><polygon fill="#008000" points="47.58,135.1669,51.58,126.1669,47.58,130.1669,43.58,126.1669,47.58,135.1669" style="stroke:#008000;stroke-width:1;"/><path d="M52.58,87.2969 L52.58,112.2969 L329.58,112.2969 L329.58,97.2969 L319.58,87.2969 L52.58,87.2969" fill="#FEFFDD" style="stroke:#181818;stroke-width:0.5;"/><path d="M319.58,87.2969 L319.58,97.2969 L329.58,97.2969 L319.58,87.2969" fill="#FEFFDD" style="stroke:#181818;stroke-width:0.5;"/><text fill="#000000" font-family="sans-serif" font-size="13" font-weight="bold" lengthAdjust="spacing" textLength="60.5313" x="58.58" y="104.3638">Docente</text><text fill="#000000" font-family="sans-serif" font-size="13" lengthAdjust="spacing" textLength="191.4961" x="123.2436" y="104.3638">solicita crear nueva pregunta</text></g><!--link SolicitandoDatosPregunta to ProcesandoCreacion--><g class="link" data-entity-1="SolicitandoDatosPregunta" data-entity-2="ProcesandoCreacion" data-source-line="13" data-uid="lnk4" id="link_SolicitandoDatosPregunta_ProcesandoCreacion"><path d="M47.58,185.6069 C47.58,240.9069 47.58,369.6269 47.58,424.9569" fill="none" id="SolicitandoDatosPregunta-to-ProcesandoCreacion" style="stroke:#008000;stroke-width:1;"/><polygon fill="#008000" points="47.58,430.9569,51.58,421.9569,47.58,425.9569,43.58,421.9569,47.58,430.9569" style="stroke:#008000;stroke-width:1;"/><path d="M52.58,208.2969 L52.58,408.2969 L410.58,408.2969 L410.58,218.2969 L400.58,208.2969 L52.58,208.2969" fill="#FEFFDD" style="stroke:#181818;stroke-width:0.5;"/><path d="M400.58,208.2969 L400.58,218.2969 L410.58,218.2969 L400.58,208.2969" fill="#FEFFDD" style="stroke:#181818;stroke-width:0.5;"/><text fill="#000000" font-family="sans-serif" font-size="13" font-weight="bold" lengthAdjust="spacing" textLength="58.9063" x="58.58" y="225.3638">Sistema</text><text fill="#000000" font-family="sans-serif" font-size="13" lengthAdjust="spacing" textLength="269.2612" x="121.6186" y="225.3638">presenta una solicitud de datos minimos:</text><line style="stroke:#181818;stroke-width:1;" x1="53.58" x2="409.9198" y1="228.4297" y2="228.4297"/><text fill="#000000" font-family="sans-serif" font-size="13" font-weight="bold" lengthAdjust="spacing" textLength="72.7568" x="58.58" y="244.4966">Pregunta:</text><text fill="#000000" font-family="sans-serif" font-size="13" lengthAdjust="spacing" textLength="166.0674" x="58.58" y="259.6294">&#8226; Asignatura (obligatorio)</text><text fill="#000000" font-family="sans-serif" font-size="13" lengthAdjust="spacing" textLength="163.5474" x="58.58" y="274.7622">&#8226; Enunciado (obligatorio)</text><text fill="#000000" font-family="sans-serif" font-size="13" lengthAdjust="spacing" textLength="132.2534" x="58.58" y="289.895">&#8226; Tema (obligatorio)</text><text fill="#000000" font-family="sans-serif" font-size="13" lengthAdjust="spacing" textLength="337.3398" x="58.58" y="305.0278">&#8226; Dificultad (ENUM: BAJA, MEDIA, ALTA)(obligatorio)</text><line style="stroke:#181818;stroke-width:1;" x1="53.58" x2="409.9198" y1="312.0938" y2="312.0938"/><text fill="#000000" font-family="sans-serif" font-size="13" font-weight="bold" lengthAdjust="spacing" textLength="188.1445" x="58.58" y="328.1606">Respuestas (Obligatoria):</text><text fill="#000000" font-family="sans-serif" font-size="13" lengthAdjust="spacing" textLength="182.8887" x="58.58" y="343.2935">&#8226; Contenido de la respuesta</text><text fill="#000000" font-family="sans-serif" font-size="13" lengthAdjust="spacing" textLength="137.96" x="58.58" y="358.4263">&#8226; Correcta/incorrecta</text><line style="stroke:#181818;stroke-width:1;" x1="53.58" x2="409.9198" y1="365.4922" y2="365.4922"/><text fill="#000000" font-family="sans-serif" font-size="13" lengthAdjust="spacing" textLength="188.8745" x="58.58" y="381.5591">&#8226; Permite confirmar creaci&#243;n</text><text fill="#000000" font-family="sans-serif" font-size="13" lengthAdjust="spacing" textLength="190.5059" x="58.58" y="396.6919">&#8226; Permite cancelar operaci&#243;n</text></g><!--link ProcesandoCreacion to *end*crearPregunta--><g class="link" data-entity-1="ProcesandoCreacion" data-entity-2=".end.crearPregunta" data-source-line="31" data-uid="lnk6" id="link_ProcesandoCreacion_.end.crearPregunta"><path d="M47.58,481.7469 C47.58,511.5269 47.58,554.5069 47.58,575.8369" fill="none" id="ProcesandoCreacion-to-*end*crearPregunta" style="stroke:#008000;stroke-width:1;"/><polygon fill="#008000" points="47.58,581.8369,51.58,572.8369,47.58,576.8369,43.58,572.8369,47.58,581.8369" style="stroke:#008000;stroke-width:1;"/><path d="M52.58,504.2969 L52.58,559.2969 L435.58,559.2969 L435.58,514.2969 L425.58,504.2969 L52.58,504.2969" fill="#FEFFDD" style="stroke:#181818;stroke-width:0.5;"/><path d="M425.58,504.2969 L425.58,514.2969 L435.58,514.2969 L425.58,504.2969" fill="#FEFFDD" style="stroke:#181818;stroke-width:0.5;"/><text fill="#000000" font-family="sans-serif" font-size="13" font-weight="bold" lengthAdjust="spacing" textLength="56.1196" x="58.58" y="521.3638">Usuario</text><text fill="#000000" font-family="sans-serif" font-size="13" lengthAdjust="spacing" textLength="258.8574" x="118.832" y="521.3638">proporciona todos los datos requeridos.</text><text fill="#000000" font-family="sans-serif" font-size="13" font-weight="bold" lengthAdjust="spacing" textLength="58.9063" x="58.58" y="536.4966">Sistema</text><text fill="#000000" font-family="sans-serif" font-size="13" lengthAdjust="spacing" textLength="238.2974" x="121.6186" y="536.4966">valida integridad (campos no nulos).</text><text fill="#000000" font-family="sans-serif" font-size="13" font-weight="bold" lengthAdjust="spacing" textLength="58.9063" x="58.58" y="551.6294">Sistema</text><text fill="#000000" font-family="sans-serif" font-size="13" lengthAdjust="spacing" textLength="298.981" x="121.6186" y="551.6294">persiste Pregunta + Respuesta (Transacci&#243;n).</text></g><g id="PREGUNTA_ABIERTO"><rect fill="#F1F1F1" height="50" rx="12.5" ry="12.5" style="stroke:#181818;stroke-width:0.5;" width="165.168" x="7" y="709.3"/><line style="stroke:#181818;stroke-width:0.5;" x1="7" x2="172.168" y1="735.5969" y2="735.5969"/><text fill="#000000" font-family="sans-serif" font-size="14" lengthAdjust="spacing" textLength="145.168" x="17" y="727.2951">PREGUNTA_ABIERTO</text></g><g id="PREGUNTAS_ABIERTO"><rect fill="#F1F1F1" height="50" rx="12.5" ry="12.5" style="stroke:#181818;stroke-width:0.5;" width="174.0547" x="279.56" y="709.3"/><line style="stroke:#181818;stroke-width:0.5;" x1="279.56" x2="453.6147" y1="735.5969" y2="735.5969"/><text fill="#000000" font-family="sans-serif" font-size="14" lengthAdjust="spacing" textLength="154.0547" x="289.56" y="727.2951">PREGUNTAS_ABIERTO</text></g><!--link crearPregunta to PREGUNTA_ABIERTO--><g class="link" data-entity-1="crearPregunta" data-entity-2="PREGUNTA_ABIERTO" data-source-line="39" data-uid="lnk8" id="link_crearPregunta_PREGUNTA_ABIERTO"><path d="M99.1,614.78 C91.34,633.09 86.58,644.3 86.58,644.3 C86.58,644.3 86.58,679.3 86.58,679.3 C86.58,679.3 87.0988,688.5491 87.8888,702.8391" fill="none" id="crearPregunta-to-PREGUNTA_ABIERTO" style="stroke:#008000;stroke-width:1;"/><polygon fill="#008000" points="88.22,708.83,91.7171,699.6229,87.944,703.8376,83.7293,700.0645,88.22,708.83" style="stroke:#008000;stroke-width:1;"/><path d="M91.58,649.3 L91.58,674.3 L318.58,674.3 L318.58,659.3 L308.58,649.3 L91.58,649.3" fill="#FEFFDD" style="stroke:#181818;stroke-width:0.5;"/><path d="M308.58,649.3 L308.58,659.3 L318.58,659.3 L308.58,649.3" fill="#FEFFDD" style="stroke:#181818;stroke-width:0.5;"/><text fill="#000000" font-family="sans-serif" font-size="13" lengthAdjust="spacing" textLength="206.502" x="97.58" y="666.3669">editarPregunta(nuevaPregunta)</text></g><!--link crearPregunta to PREGUNTAS_ABIERTO--><g class="link" data-entity-1="crearPregunta" data-entity-2="PREGUNTAS_ABIERTO" data-source-line="44" data-uid="lnk10" id="link_crearPregunta_PREGUNTAS_ABIERTO"><path d="M327.49,614.73 C340.36,653.74 349.611,681.8118 356.671,703.2218" fill="none" id="crearPregunta-to-PREGUNTAS_ABIERTO" style="stroke:#0000FF;stroke-width:1;"/><polygon fill="#0000FF" points="358.55,708.92,359.5303,699.1201,356.9842,704.1715,351.9327,701.6254,358.55,708.92" style="stroke:#0000FF;stroke-width:1;"/><path d="M350.58,649.3 L350.58,674.3 L485.58,674.3 L485.58,659.3 L475.58,649.3 L350.58,649.3" fill="#FEFFDD" style="stroke:#181818;stroke-width:0.5;"/><path d="M475.58,649.3 L475.58,659.3 L485.58,659.3 L475.58,649.3" fill="#FEFFDD" style="stroke:#181818;stroke-width:0.5;"/><text fill="#000000" font-family="sans-serif" font-size="13" lengthAdjust="spacing" textLength="114.9624" x="356.58" y="666.3669">cancelar creaci&#243;n</text></g><!--SRC=[TLJRQjj047tNLmpfYzNMpRi91YKs9QL9Z2zF8PJnQcAMIBFgNWAX5Fej_OL-Gl-aNz9PsP8bR4deigipPyxicPLxqLoXnH8ApUJVAeBA56zna2JEeoTGbj0kBEq2UmHqSD6R6QKNy2D9G8uz_a9EGQrCePNsoBcPeJUkmPyY5zOeSX5u8yHA6zxJFRv_Wl7ZkvqbugVnT90HQZGROJGSwtYf9wwsqvaGiwUho-qKt25wNmzme5U4gYkAED-po96qjy6iNMbdIXZIjDBEKucr9adlA785naPWo24do6CgA3NhqhX97JiUZnkEHiCaijIJ_txzXipf7QCF5c5ajeNU2OVL9cq1SmwiDEPcuFjQT0ryckbdhKBXCOVH_7vpDu7hx4ls4UxcirjvP5_NMNeQsP6y95S54jyTZ1vQ7ARz4cwCsCLQ5CeQ50YsYUeWh2NbyLApEhpsKaNCWcofO-SQVjQs5BTLxShVFtoAGLPK2CHKP3kOfXcEZN3gSQy5f5i7FT-uWB8e1yzDPMmCH_0c5vSBkVP-M_eUo4hvxjEvTdd5GkS8MjPe9wZeXSAoaa0sqj32avwDayfS74BRkn-WzGD6QuliKDMr7mZQwdycIN__zxf-EV-ykLzdtxBhs_bo_P3qQgTSTitnDr5lk6QK9cs6K_vj4QXBlphFtpftDBSX_Gy0]--></g></svg>