<svg xmlns="http://www.w3.org/2000/svg" xmlns:xlink="http://www.w3.org/1999/xlink" contentStyleType="text/css" data-diagram-type="STATE" height="765px" preserveAspectRatio="none" style="width:502px;height:765px;background:#FFFFFF;" version="1.1" viewBox="0 0 502 765" width="502px" zoomAndPan="magnify"><defs/><g><path d="M32.91,7 L441.91,7 A12.5,12.5 0 0 1 454.41,19.5 L454.41,33.2969 L20.41,33.2969 L20.41,19.5 A12.5,12.5 0 0 1 32.91,7" fill="#F1F1F1"/><rect fill="none" height="607.2969" rx="12.5" ry="12.5" style="stroke:#181818;stroke-width:0.5;" width="434" x="20.41" y="7"/><line style="stroke:#181818;stroke-width:0.5;" x1="20.41" x2="454.41" y1="33.2969" y2="33.2969"/><text fill="#000000" font-family="sans-serif" font-size="14" lengthAdjust="spacing" textLength="110.8379" x="181.9911" y="24.9951">crearPregunta()</text><g id="crearPregunta.SolicitandoDatosPregunta"><rect fill="#F1F1F1" height="50" rx="12.5" ry="12.5" style="stroke:#181818;stroke-width:0.5;" width="50" x="32.41" y="150.2969"/><line style="stroke:#181818;stroke-width:0.5;" x1="32.41" x2="82.41" y1="176.5938" y2="176.5938"/><text fill="#000000" font-family="sans-serif" font-size="14" lengthAdjust="spacing" textLength="4.4502" x="55.1849" y="168.292">&#160;</text></g><g id="crearPregunta.ProcesandoCreacion"><rect fill="#F1F1F1" height="50" rx="12.5" ry="12.5" style="stroke:#181818;stroke-width:0.5;" width="50" x="32.41" y="431.2969"/><line style="stroke:#181818;stroke-width:0.5;" x1="32.41" x2="82.41" y1="457.5938" y2="457.5938"/><text fill="#000000" font-family="sans-serif" font-size="14" lengthAdjust="spacing" textLength="4.4502" x="55.1849" y="449.292">&#160;</text></g><ellipse cx="57.41" cy="54.2969" fill="#222222" rx="10" ry="10" style="stroke:#222222;stroke-width:1;"/><ellipse cx="57.41" cy="593.2969" fill="none" rx="11" ry="11" style="stroke:#222222;stroke-width:1;"/><ellipse cx="57.41" cy="593.2969" fill="#222222" rx="6" ry="6" style="stroke:#222222;stroke-width:1;"/><!--link *start*crearPregunta to SolicitandoDatosPregunta--><g class="link" data-entity-1=".start.crearPregunta" data-entity-2="SolicitandoDatosPregunta" data-source-line="8" data-uid="lnk3" id="link_.start.crearPregunta_SolicitandoDatosPregunta"><path d="M57.41,64.6369 C57.41,82.8269 57.41,117.5369 57.41,143.9069" fill="none" id="*start*crearPregunta-to-SolicitandoDatosPregunta" style="stroke:#008000;stroke-width:1;"/><polygon fill="#008000" points="57.41,149.9069,61.41,140.9069,57.41,144.9069,53.41,140.9069,57.41,149.9069" style="stroke:#008000;stroke-width:1;"/><path d="M62.41,87.2969 L62.41,127.2969 L339.41,127.2969 L339.41,97.2969 L329.41,87.2969 L62.41,87.2969" fill="#FEFFDD" style="stroke:#181818;stroke-width:0.5;"/><path d="M329.41,87.2969 L329.41,97.2969 L339.41,97.2969 L329.41,87.2969" fill="#FEFFDD" style="stroke:#181818;stroke-width:0.5;"/><text fill="#000000" font-family="sans-serif" font-size="13" font-weight="bold" lengthAdjust="spacing" textLength="60.5313" x="68.41" y="104.3638">Docente</text><text fill="#000000" font-family="sans-serif" font-size="13" lengthAdjust="spacing" textLength="191.4961" x="133.0736" y="104.3638">solicita crear nueva pregunta</text><text fill="#000000" font-family="sans-serif" font-size="13" lengthAdjust="spacing" textLength="145.9453" x="68.41" y="119.4966">al banco de preguntas</text></g><!--link SolicitandoDatosPregunta to ProcesandoCreacion--><g class="link" data-entity-1="SolicitandoDatosPregunta" data-entity-2="ProcesandoCreacion" data-source-line="14" data-uid="lnk4" id="link_SolicitandoDatosPregunta_ProcesandoCreacion"><path d="M57.41,200.5669 C57.41,253.3369 57.41,371.9869 57.41,424.8869" fill="none" id="SolicitandoDatosPregunta-to-ProcesandoCreacion" style="stroke:#008000;stroke-width:1;"/><polygon fill="#008000" points="57.41,430.8869,61.41,421.8869,57.41,425.8869,53.41,421.8869,57.41,430.8869" style="stroke:#008000;stroke-width:1;"/><path d="M62.41,223.2969 L62.41,408.2969 L420.41,408.2969 L420.41,233.2969 L410.41,223.2969 L62.41,223.2969" fill="#FEFFDD" style="stroke:#181818;stroke-width:0.5;"/><path d="M410.41,223.2969 L410.41,233.2969 L420.41,233.2969 L410.41,223.2969" fill="#FEFFDD" style="stroke:#181818;stroke-width:0.5;"/><text fill="#000000" font-family="sans-serif" font-size="13" font-weight="bold" lengthAdjust="spacing" textLength="58.9063" x="68.41" y="240.3638">Sistema</text><text fill="#000000" font-family="sans-serif" font-size="13" lengthAdjust="spacing" textLength="274.5171" x="131.4486" y="240.3638">presenta formulario de datos obligatorios:</text><line style="stroke:#181818;stroke-width:1;" x1="63.41" x2="419.9657" y1="243.4297" y2="243.4297"/><text fill="#000000" font-family="sans-serif" font-size="13" font-weight="bold" lengthAdjust="spacing" textLength="72.7568" x="68.41" y="259.4966">Pregunta:</text><text fill="#000000" font-family="sans-serif" font-size="13" lengthAdjust="spacing" textLength="166.0674" x="68.41" y="274.6294">&#8226; Asignatura (obligatorio)</text><text fill="#000000" font-family="sans-serif" font-size="13" lengthAdjust="spacing" textLength="163.5474" x="68.41" y="289.7622">&#8226; Enunciado (obligatorio)</text><text fill="#000000" font-family="sans-serif" font-size="13" lengthAdjust="spacing" textLength="132.2534" x="68.41" y="304.895">&#8226; Tema (obligatorio)</text><text fill="#000000" font-family="sans-serif" font-size="13" lengthAdjust="spacing" textLength="337.3398" x="68.41" y="320.0278">&#8226; Dificultad (ENUM: BAJA, MEDIA, ALTA)(obligatorio)</text><line style="stroke:#181818;stroke-width:1;" x1="63.41" x2="419.9657" y1="327.0938" y2="327.0938"/><text fill="#000000" font-family="sans-serif" font-size="13" font-weight="bold" lengthAdjust="spacing" textLength="180.4067" x="68.41" y="343.1606">Respuesta (Obligatoria):</text><text fill="#000000" font-family="sans-serif" font-size="13" lengthAdjust="spacing" textLength="241.0205" x="68.41" y="358.2935">&#8226; Contenido de la respuesta correcta</text><line style="stroke:#181818;stroke-width:1;" x1="63.41" x2="419.9657" y1="365.3594" y2="365.3594"/><text fill="#000000" font-family="sans-serif" font-size="13" lengthAdjust="spacing" textLength="188.8745" x="68.41" y="381.4263">&#8226; Permite confirmar creaci&#243;n</text><text fill="#000000" font-family="sans-serif" font-size="13" lengthAdjust="spacing" textLength="190.5059" x="68.41" y="396.5591">&#8226; Permite cancelar operaci&#243;n</text></g><!--link ProcesandoCreacion to *end*crearPregunta--><g class="link" data-entity-1="ProcesandoCreacion" data-entity-2=".end.crearPregunta" data-source-line="31" data-uid="lnk6" id="link_ProcesandoCreacion_.end.crearPregunta"><path d="M57.41,481.7469 C57.41,511.5269 57.41,554.5069 57.41,575.8369" fill="none" id="ProcesandoCreacion-to-*end*crearPregunta" style="stroke:#008000;stroke-width:1;"/><polygon fill="#008000" points="57.41,581.8369,61.41,572.8369,57.41,576.8369,53.41,572.8369,57.41,581.8369" style="stroke:#008000;stroke-width:1;"/><path d="M62.41,504.2969 L62.41,559.2969 L445.41,559.2969 L445.41,514.2969 L435.41,504.2969 L62.41,504.2969" fill="#FEFFDD" style="stroke:#181818;stroke-width:0.5;"/><path d="M435.41,504.2969 L435.41,514.2969 L445.41,514.2969 L435.41,504.2969" fill="#FEFFDD" style="stroke:#181818;stroke-width:0.5;"/><text fill="#000000" font-family="sans-serif" font-size="13" font-weight="bold" lengthAdjust="spacing" textLength="56.1196" x="68.41" y="521.3638">Usuario</text><text fill="#000000" font-family="sans-serif" font-size="13" lengthAdjust="spacing" textLength="258.8574" x="128.662" y="521.3638">proporciona todos los datos requeridos.</text><text fill="#000000" font-family="sans-serif" font-size="13" font-weight="bold" lengthAdjust="spacing" textLength="58.9063" x="68.41" y="536.4966">Sistema</text><text fill="#000000" font-family="sans-serif" font-size="13" lengthAdjust="spacing" textLength="238.2974" x="131.4486" y="536.4966">valida integridad (campos no nulos).</text><text fill="#000000" font-family="sans-serif" font-size="13" font-weight="bold" lengthAdjust="spacing" textLength="58.9063" x="68.41" y="551.6294">Sistema</text><text fill="#000000" font-family="sans-serif" font-size="13" lengthAdjust="spacing" textLength="298.981" x="131.4486" y="551.6294">persiste Pregunta + Respuesta (Transacci&#243;n).</text></g><g id="PREGUNTA_GUARDADA"><rect fill="#F1F1F1" height="50" rx="12.5" ry="12.5" style="stroke:#181818;stroke-width:0.5;" width="184.8281" x="7" y="709.3"/><line style="stroke:#181818;stroke-width:0.5;" x1="7" x2="191.8281" y1="735.5969" y2="735.5969"/><text fill="#000000" font-family="sans-serif" font-size="14" lengthAdjust="spacing" textLength="164.8281" x="17" y="727.2951">PREGUNTA_GUARDADA</text></g><g id="BANCO_PREGUNTAS"><rect fill="#F1F1F1" height="50" rx="12.5" ry="12.5" style="stroke:#181818;stroke-width:0.5;" width="163.0488" x="294.89" y="709.3"/><line style="stroke:#181818;stroke-width:0.5;" x1="294.89" x2="457.9388" y1="735.5969" y2="735.5969"/><text fill="#000000" font-family="sans-serif" font-size="14" lengthAdjust="spacing" textLength="143.0488" x="304.89" y="727.2951">BANCO_PREGUNTAS</text></g><!--link crearPregunta to PREGUNTA_GUARDADA--><g class="link" data-entity-1="crearPregunta" data-entity-2="PREGUNTA_GUARDADA" data-source-line="39" data-uid="lnk8" id="link_crearPregunta_PREGUNTA_GUARDADA"><path d="M108.93,614.78 C101.17,633.09 96.41,644.3 96.41,644.3 C96.41,644.3 96.41,679.3 96.41,679.3 C96.41,679.3 96.9288,688.5491 97.7188,702.8391" fill="none" id="crearPregunta-to-PREGUNTA_GUARDADA" style="stroke:#008000;stroke-width:1;"/><polygon fill="#008000" points="98.05,708.83,101.5471,699.6229,97.774,703.8376,93.5593,700.0645,98.05,708.83" style="stroke:#008000;stroke-width:1;"/><path d="M101.41,649.3 L101.41,674.3 L328.41,674.3 L328.41,659.3 L318.41,649.3 L101.41,649.3" fill="#FEFFDD" style="stroke:#181818;stroke-width:0.5;"/><path d="M318.41,649.3 L318.41,659.3 L328.41,659.3 L318.41,649.3" fill="#FEFFDD" style="stroke:#181818;stroke-width:0.5;"/><text fill="#000000" font-family="sans-serif" font-size="13" lengthAdjust="spacing" textLength="206.502" x="107.41" y="666.3669">editarPregunta(nuevaPregunta)</text></g><!--link crearPregunta to BANCO_PREGUNTAS--><g class="link" data-entity-1="crearPregunta" data-entity-2="BANCO_PREGUNTAS" data-source-line="44" data-uid="lnk10" id="link_crearPregunta_BANCO_PREGUNTAS"><path d="M337.32,614.73 C350.19,653.74 359.441,681.8118 366.501,703.2218" fill="none" id="crearPregunta-to-BANCO_PREGUNTAS" style="stroke:#0000FF;stroke-width:1;"/><polygon fill="#0000FF" points="368.38,708.92,369.3603,699.1201,366.8142,704.1715,361.7627,701.6254,368.38,708.92" style="stroke:#0000FF;stroke-width:1;"/><path d="M360.41,649.3 L360.41,674.3 L495.41,674.3 L495.41,659.3 L485.41,649.3 L360.41,649.3" fill="#FEFFDD" style="stroke:#181818;stroke-width:0.5;"/><path d="M485.41,649.3 L485.41,659.3 L495.41,659.3 L485.41,649.3" fill="#FEFFDD" style="stroke:#181818;stroke-width:0.5;"/><text fill="#000000" font-family="sans-serif" font-size="13" lengthAdjust="spacing" textLength="114.9624" x="366.41" y="666.3669">cancelar creaci&#243;n</text></g><!--SRC=[TLHjYjim4FtlKmpfdxXjslzX2NZZiBHqio4VlvPb6SkJ85QMNCbUM4gXP-aLUeJUf2VfI8aTcyGESIBfpPjvyyPsBrANQB409JLLRoL1QTIRNqIHgx0Y49RGhYmTQbqXe8DHRsSSZ-17505VH_o8FupQ62M5h53d9iNAk0P_YLnP8yXvu9o9XJJwIFVu_WacZ-yEbaW_JMQ3Z13GsZ2ZqLx7IzYuoMOf4-kARZvdCt2dwACUq3Mz8fJTeb11XbeOoAazSE64T7xavojgRuFrT8k-8cweserq5HKOgkNyZZpNtjYYLcXbA2ltUS1aIXxu7s-wQOYUJ2ODIrF5rFE4pN-_VaFYv45ZLLk4SISyRW4BNMiXCJS3vrkkRE0ebNifQbLX3kF5SdS_XTlaQ_8HxXVf5_v9lcsJ-3AoK_AQN5aJpmIC7reOndq5SyDEQfc7FYW4smO9Oos9auaDhGzPaIsads2Zzz8MxBe87lpzeoynx3nndy6KP3kOnlgpxPUEzWpdgHrqUETgx-J9OLCQwyCHAfEphOg_HuCjVQ_9ibRtwTfmlAAIEOBaXXmOvViki2WvK1iUREQ9hyQnCkUNq4xg1-ZqVcjHEnH1-ucWLVypYlhlWTwChnTtk-KsURxR9UiqIPEe9vvoVaZExulmv3MhE6fJN2R8L4sU_pPPpX-UcooRFdjhtDdRXl8_]--></g></svg>