<svg xmlns="http://www.w3.org/2000/svg" xmlns:xlink="http://www.w3.org/1999/xlink" contentStyleType="text/css" data-diagram-type="STATE" height="872px" preserveAspectRatio="none" style="width:450px;height:872px;background:#FFFFFF;" version="1.1" viewBox="0 0 450 872" width="450px" zoomAndPan="magnify"><defs/><g><g id="PREGUNTAS_ABIERTO"><rect fill="#F1F1F1" height="50" rx="12.5" ry="12.5" style="stroke:#181818;stroke-width:0.5;" width="174.0547" x="124.47" y="7"/><line style="stroke:#181818;stroke-width:0.5;" x1="124.47" x2="298.5247" y1="33.2969" y2="33.2969"/><text fill="#000000" font-family="sans-serif" font-size="14" lengthAdjust="spacing" textLength="154.0547" x="134.47" y="24.9951">PREGUNTAS_ABIERTO</text></g><path d="M19.5,152 L403.5,152 A12.5,12.5 0 0 1 416,164.5 L416,178.2969 L7,178.2969 L7,164.5 A12.5,12.5 0 0 1 19.5,152" fill="#F1F1F1"/><rect fill="none" height="569.2969" rx="12.5" ry="12.5" style="stroke:#181818;stroke-width:0.5;" width="409" x="7" y="152"/><line style="stroke:#181818;stroke-width:0.5;" x1="7" x2="416" y1="178.2969" y2="178.2969"/><text fill="#000000" font-family="sans-serif" font-size="14" lengthAdjust="spacing" textLength="110.8379" x="156.0811" y="169.9951">crearPregunta()</text><g id="crearPregunta.SolicitandoDatosPregunta"><rect fill="#F1F1F1" height="50" rx="12.5" ry="12.5" style="stroke:#181818;stroke-width:0.5;" width="50" x="19" y="280.2969"/><line style="stroke:#181818;stroke-width:0.5;" x1="19" x2="69" y1="306.5938" y2="306.5938"/><text fill="#000000" font-family="sans-serif" font-size="14" lengthAdjust="spacing" textLength="4.4502" x="41.7749" y="298.292">&#160;</text></g><g id="crearPregunta.ProcesandoCreacion"><rect fill="#F1F1F1" height="50" rx="12.5" ry="12.5" style="stroke:#181818;stroke-width:0.5;" width="50" x="19" y="568.2969"/><line style="stroke:#181818;stroke-width:0.5;" x1="19" x2="69" y1="594.5938" y2="594.5938"/><text fill="#000000" font-family="sans-serif" font-size="14" lengthAdjust="spacing" textLength="4.4502" x="41.7749" y="586.292">&#160;</text></g><ellipse cx="44" cy="199.2969" fill="#222222" rx="10" ry="10" style="stroke:#222222;stroke-width:1;"/><ellipse cx="44" cy="700.2969" fill="none" rx="11" ry="11" style="stroke:#222222;stroke-width:1;"/><ellipse cx="44" cy="700.2969" fill="#222222" rx="6" ry="6" style="stroke:#222222;stroke-width:1;"/><!--link *start*crearPregunta to SolicitandoDatosPregunta--><g class="link" data-entity-1=".start.crearPregunta" data-entity-2="SolicitandoDatosPregunta" data-source-line="18" data-uid="lnk4" id="link_.start.crearPregunta_SolicitandoDatosPregunta"><path d="M44,209.5269 C44,225.2369 44,251.6569 44,274.1669" fill="none" id="*start*crearPregunta-to-SolicitandoDatosPregunta" style="stroke:#008000;stroke-width:1;"/><polygon fill="#008000" points="44,280.1669,48,271.1669,44,275.1669,40,271.1669,44,280.1669" style="stroke:#008000;stroke-width:1;"/><path d="M49,232.2969 L49,257.2969 L326,257.2969 L326,242.2969 L316,232.2969 L49,232.2969" fill="#FEFFDD" style="stroke:#181818;stroke-width:0.5;"/><path d="M316,232.2969 L316,242.2969 L326,242.2969 L316,232.2969" fill="#FEFFDD" style="stroke:#181818;stroke-width:0.5;"/><text fill="#000000" font-family="sans-serif" font-size="13" font-weight="bold" lengthAdjust="spacing" textLength="60.5313" x="55" y="249.3638">Docente</text><text fill="#000000" font-family="sans-serif" font-size="13" lengthAdjust="spacing" textLength="191.4961" x="119.6636" y="249.3638">solicita crear nueva pregunta</text></g><!--link SolicitandoDatosPregunta to ProcesandoCreacion--><g class="link" data-entity-1="SolicitandoDatosPregunta" data-entity-2="ProcesandoCreacion" data-source-line="23" data-uid="lnk5" id="link_SolicitandoDatosPregunta_ProcesandoCreacion"><path d="M44,330.6769 C44,384.7169 44,507.9969 44,561.9769" fill="none" id="SolicitandoDatosPregunta-to-ProcesandoCreacion" style="stroke:#008000;stroke-width:1;"/><polygon fill="#008000" points="44,567.9769,48,558.9769,44,562.9769,40,558.9769,44,567.9769" style="stroke:#008000;stroke-width:1;"/><path d="M49,353.2969 L49,545.2969 L407,545.2969 L407,363.2969 L397,353.2969 L49,353.2969" fill="#FEFFDD" style="stroke:#181818;stroke-width:0.5;"/><path d="M397,353.2969 L397,363.2969 L407,363.2969 L397,353.2969" fill="#FEFFDD" style="stroke:#181818;stroke-width:0.5;"/><text fill="#000000" font-family="sans-serif" font-size="13" font-weight="bold" lengthAdjust="spacing" textLength="58.9063" x="55" y="370.3638">Sistema</text><text fill="#000000" font-family="sans-serif" font-size="13" lengthAdjust="spacing" textLength="269.2612" x="118.0386" y="370.3638">presenta una solicitud de datos m&#237;nimos:</text><line style="stroke:#181818;stroke-width:1;" x1="50" x2="406.3398" y1="373.4297" y2="373.4297"/><text fill="#000000" font-family="sans-serif" font-size="13" font-weight="bold" lengthAdjust="spacing" textLength="72.7568" x="55" y="389.4966">Pregunta:</text><text fill="#000000" font-family="sans-serif" font-size="13" lengthAdjust="spacing" textLength="166.0674" x="55" y="404.6294">&#8226; Asignatura (obligatorio)</text><text fill="#000000" font-family="sans-serif" font-size="13" lengthAdjust="spacing" textLength="163.5474" x="55" y="419.7622">&#8226; Enunciado (obligatorio)</text><text fill="#000000" font-family="sans-serif" font-size="13" lengthAdjust="spacing" textLength="132.2534" x="55" y="434.895">&#8226; Tema (obligatorio)</text><text fill="#000000" font-family="sans-serif" font-size="13" lengthAdjust="spacing" textLength="337.3398" x="55" y="450.0278">&#8226; Dificultad (ENUM: BAJA, MEDIA, ALTA)(obligatorio)</text><text fill="#000000" font-family="sans-serif" font-size="13" font-weight="bold" lengthAdjust="spacing" textLength="188.1445" x="55" y="465.1606">Respuestas (Obligatoria):</text><text fill="#000000" font-family="sans-serif" font-size="13" lengthAdjust="spacing" textLength="182.8887" x="55" y="480.2935">&#8226; Contenido de la respuesta</text><text fill="#000000" font-family="sans-serif" font-size="13" lengthAdjust="spacing" textLength="137.96" x="55" y="495.4263">&#8226; Correcta/incorrecta</text><line style="stroke:#181818;stroke-width:1;" x1="50" x2="406.3398" y1="502.4922" y2="502.4922"/><text fill="#000000" font-family="sans-serif" font-size="13" lengthAdjust="spacing" textLength="188.8745" x="55" y="518.5591">&#8226; Permite confirmar creaci&#243;n</text><text fill="#000000" font-family="sans-serif" font-size="13" lengthAdjust="spacing" textLength="190.5059" x="55" y="533.6919">&#8226; Permite cancelar operaci&#243;n</text></g><!--link ProcesandoCreacion to *end*crearPregunta--><g class="link" data-entity-1="ProcesandoCreacion" data-entity-2=".end.crearPregunta" data-source-line="40" data-uid="lnk7" id="link_ProcesandoCreacion_.end.crearPregunta"><path d="M44,618.6469 C44,640.9469 44,666.8569 44,683.0369" fill="none" id="ProcesandoCreacion-to-*end*crearPregunta" style="stroke:#008000;stroke-width:1;"/><polygon fill="#008000" points="44,689.0369,48,680.0369,44,684.0369,40,680.0369,44,689.0369" style="stroke:#008000;stroke-width:1;"/><path d="M49,641.2969 L49,666.2969 L389,666.2969 L389,651.2969 L379,641.2969 L49,641.2969" fill="#FEFFDD" style="stroke:#181818;stroke-width:0.5;"/><path d="M379,641.2969 L379,651.2969 L389,651.2969 L379,641.2969" fill="#FEFFDD" style="stroke:#181818;stroke-width:0.5;"/><text fill="#000000" font-family="sans-serif" font-size="13" font-weight="bold" lengthAdjust="spacing" textLength="56.1196" x="55" y="658.3638">Usuario</text><text fill="#000000" font-family="sans-serif" font-size="13" lengthAdjust="spacing" textLength="258.8574" x="115.252" y="658.3638">proporciona todos los datos requeridos.</text></g><g id="PREGUNTA_ABIERTO"><rect fill="#F1F1F1" height="50" rx="12.5" ry="12.5" style="stroke:#181818;stroke-width:0.5;" width="165.168" x="128.92" y="816.3"/><line style="stroke:#181818;stroke-width:0.5;" x1="128.92" x2="294.088" y1="842.5969" y2="842.5969"/><text fill="#000000" font-family="sans-serif" font-size="14" lengthAdjust="spacing" textLength="145.168" x="138.92" y="834.2951">PREGUNTA_ABIERTO</text></g><!--link PREGUNTAS_ABIERTO to crearPregunta--><g class="link" data-entity-1="PREGUNTAS_ABIERTO" data-entity-2="crearPregunta" data-source-line="7" data-uid="lnk2" id="link_PREGUNTAS_ABIERTO_crearPregunta"><path d="M171.17,57.48 C147.62,71.76 122.5,87 122.5,87 C122.5,87 122.5,122 122.5,122 C122.5,122 124.0517,127.488 129.2317,145.738" fill="none" id="PREGUNTAS_ABIERTO-to-crearPregunta" style="stroke:#008000;stroke-width:1;"/><polygon fill="#008000" points="130.87,151.51,132.2606,141.7598,129.5048,146.7,124.5646,143.9442,130.87,151.51" style="stroke:#008000;stroke-width:1;"/><path d="M127.5,92 L127.5,117 L250.5,117 L250.5,102 L240.5,92 L127.5,92" fill="#FEFFDD" style="stroke:#181818;stroke-width:0.5;"/><path d="M240.5,92 L240.5,102 L250.5,102 L240.5,92" fill="#FEFFDD" style="stroke:#181818;stroke-width:0.5;"/><text fill="#000000" font-family="sans-serif" font-size="13" lengthAdjust="spacing" textLength="102.9209" x="133.5" y="109.0669">crearPregunta()</text></g><!--link crearPregunta to PREGUNTAS_ABIERTO--><g class="link" data-entity-1="crearPregunta" data-entity-2="PREGUNTAS_ABIERTO" data-source-line="55" data-uid="lnk10" id="link_crearPregunta_PREGUNTAS_ABIERTO"><path d="M254.98,151.51 C257.78,133.26 259.5,122 259.5,122 C259.5,122 259.5,87 259.5,87 C259.5,87 249.9374,76.2434 237.2374,61.9634" fill="none" id="crearPregunta-to-PREGUNTAS_ABIERTO" style="stroke:#0000FF;stroke-width:1;"/><polygon fill="#0000FF" points="233.25,57.48,236.2421,66.8634,236.5728,61.2162,242.22,61.5469,233.25,57.48" style="stroke:#0000FF;stroke-width:1;"/><path d="M264.5,92 L264.5,117 L399.5,117 L399.5,102 L389.5,92 L264.5,92" fill="#FEFFDD" style="stroke:#181818;stroke-width:0.5;"/><path d="M389.5,92 L389.5,102 L399.5,102 L389.5,92" fill="#FEFFDD" style="stroke:#181818;stroke-width:0.5;"/><text fill="#000000" font-family="sans-serif" font-size="13" lengthAdjust="spacing" textLength="114.9624" x="270.5" y="109.0669">cancelar creaci&#243;n</text></g><!--link crearPregunta to PREGUNTA_ABIERTO--><g class="link" data-entity-1="crearPregunta" data-entity-2="PREGUNTA_ABIERTO" data-source-line="49" data-uid="lnk9" id="link_crearPregunta_PREGUNTA_ABIERTO"><path d="M211.5,721.67 C211.5,760.71 211.5,788.73 211.5,810.21" fill="none" id="crearPregunta-to-PREGUNTA_ABIERTO" style="stroke:#008000;stroke-width:1;"/><polygon fill="#008000" points="211.5,816.21,215.5,807.21,211.5,811.21,207.5,807.21,211.5,816.21" style="stroke:#008000;stroke-width:1;"/><path d="M216.5,756.3 L216.5,781.3 L443.5,781.3 L443.5,766.3 L433.5,756.3 L216.5,756.3" fill="#FEFFDD" style="stroke:#181818;stroke-width:0.5;"/><path d="M433.5,756.3 L433.5,766.3 L443.5,766.3 L433.5,756.3" fill="#FEFFDD" style="stroke:#181818;stroke-width:0.5;"/><text fill="#000000" font-family="sans-serif" font-size="13" lengthAdjust="spacing" textLength="206.502" x="222.5" y="773.3669">editarPregunta(nuevaPregunta)</text></g><!--SRC=[TLJDRjf04BxxAKRfeL05elwSK1HfWzsAAW648PSegXPxWZPPxxgxQvIegjHtw1EqznwgFW9lqYVfh8qTN088CBlVVlFDVZDZxuNAkU4PIA7GFUO8kPQF_ayGl8JNVOZYEGidC9r5LwC9T8PQENnm6b84RSGArG3EkKhAXQd1LQ4Sjzt0EkxGd_gm6CzP_8cTZwBPVE99t_HXFcFZU3GSRRwF8OmW6jD2o88zEFIkNwmCehhfdK5Ya9iwHA0qyMlbTTy7hQrEDq2LWWVuS6yfXmiOidZYGorYdmI_uw1mPJYfTbnAdl9QSeiAk8MZ_yYFu4iG0Bqg_16z2HLhAHBXk4fro9ssZSuzvDJe1Aq73eau4LfLTDUlRbhf7cA44jrAto-SBiz28YPtJa-MPs2tfwjyG1Muvf3lYghlo3y7pTV1gBlIdadXaAPOM8SPBpLHU8kUgr2y5bYald1I7mgopIybCcq7vU5UhrUJr286dgPS_Flj9p0hLegxWbpiwAKKAo8nGdSRGAGAbGYUwWFxSn9sO2iKjo8ffECfTABnufAAd7rant0PXIFwOHTprjq_IL9dQFC2oN0BdKcppxjjwMKNAP6MNICvcFhK3i8OJ1m_4THRrMFhLZncYYOJlcIrkXKc8vkJqexD7xMFeHv5IH2Tezd1D9tILC2-kItlgKmFchsm1QVBs9gjSstySGvEfsIlf4zbjC7F1HfAt_RR8hxwXdtNXvXTZ48MKyEsEjVllfV5dOReGH2H7i0LzQZSTZ7DBXfbOAbOX05CgpA63j_yvYcjP9iVzkcgxJ48Mg49XlI8BkbtstEaNVBRqTGCibR-PQod6L5sM_slFOqg-KmwD5IxOaqf32jhu17M1Ser-eIMzKYjMzRkQrlA0dUbnSzhQvn_AevQq3y0]--></g></svg>