<svg xmlns="http://www.w3.org/2000/svg" xmlns:xlink="http://www.w3.org/1999/xlink" contentStyleType="text/css" data-diagram-type="STATE" height="857px" preserveAspectRatio="none" style="width:532px;height:857px;background:#FFFFFF;" version="1.1" viewBox="0 0 532 857" width="532px" zoomAndPan="magnify"><defs/><g><g id="PREGUNTAS_ABIERTO"><rect fill="#F1F1F1" height="50" rx="12.5" ry="12.5" style="stroke:#181818;stroke-width:0.5;" width="174.0547" x="175.97" y="7"/><line style="stroke:#181818;stroke-width:0.5;" x1="175.97" x2="350.0247" y1="33.2969" y2="33.2969"/><text fill="#000000" font-family="sans-serif" font-size="14" lengthAdjust="spacing" textLength="154.0547" x="185.97" y="24.9951">PREGUNTAS_ABIERTO</text></g><path d="M19.5,152 L506.5,152 A12.5,12.5 0 0 1 519,164.5 L519,178.2969 L7,178.2969 L7,164.5 A12.5,12.5 0 0 1 19.5,152" fill="#F1F1F1"/><rect fill="none" height="554.2969" rx="12.5" ry="12.5" style="stroke:#181818;stroke-width:0.5;" width="512" x="7" y="152"/><line style="stroke:#181818;stroke-width:0.5;" x1="7" x2="519" y1="178.2969" y2="178.2969"/><text fill="#000000" font-family="sans-serif" font-size="14" lengthAdjust="spacing" textLength="110.8379" x="207.5811" y="169.9951">crearPregunta()</text><g id="crearPregunta.SolicitandoDatosPregunta"><rect fill="#F1F1F1" height="50" rx="12.5" ry="12.5" style="stroke:#181818;stroke-width:0.5;" width="50" x="19" y="280.2969"/><line style="stroke:#181818;stroke-width:0.5;" x1="19" x2="69" y1="306.5938" y2="306.5938"/><text fill="#000000" font-family="sans-serif" font-size="14" lengthAdjust="spacing" textLength="4.4502" x="41.7749" y="298.292">&#160;</text></g><g id="crearPregunta.ProcesandoCreacion"><rect fill="#F1F1F1" height="50" rx="12.5" ry="12.5" style="stroke:#181818;stroke-width:0.5;" width="50" x="19" y="538.2969"/><line style="stroke:#181818;stroke-width:0.5;" x1="19" x2="69" y1="564.5938" y2="564.5938"/><text fill="#000000" font-family="sans-serif" font-size="14" lengthAdjust="spacing" textLength="4.4502" x="41.7749" y="556.292">&#160;</text></g><ellipse cx="44" cy="199.2969" fill="#222222" rx="10" ry="10" style="stroke:#222222;stroke-width:1;"/><ellipse cx="44" cy="685.2969" fill="none" rx="11" ry="11" style="stroke:#222222;stroke-width:1;"/><ellipse cx="44" cy="685.2969" fill="#222222" rx="6" ry="6" style="stroke:#222222;stroke-width:1;"/><!--link *start*crearPregunta to SolicitandoDatosPregunta--><g class="link" data-entity-1=".start.crearPregunta" data-entity-2="SolicitandoDatosPregunta" data-source-line="12" data-uid="lnk4" id="link_.start.crearPregunta_SolicitandoDatosPregunta"><path d="M44,209.5269 C44,225.2369 44,251.6569 44,274.1669" fill="none" id="*start*crearPregunta-to-SolicitandoDatosPregunta" style="stroke:#008000;stroke-width:1;"/><polygon fill="#008000" points="44,280.1669,48,271.1669,44,275.1669,40,271.1669,44,280.1669" style="stroke:#008000;stroke-width:1;"/><path d="M49,232.2969 L49,257.2969 L326,257.2969 L326,242.2969 L316,232.2969 L49,232.2969" fill="#FEFFDD" style="stroke:#181818;stroke-width:0.5;"/><path d="M316,232.2969 L316,242.2969 L326,242.2969 L316,232.2969" fill="#FEFFDD" style="stroke:#181818;stroke-width:0.5;"/><text fill="#000000" font-family="sans-serif" font-size="13" font-weight="bold" lengthAdjust="spacing" textLength="60.5313" x="55" y="249.3638">Docente</text><text fill="#000000" font-family="sans-serif" font-size="13" lengthAdjust="spacing" textLength="191.4961" x="119.6636" y="249.3638">solicita crear nueva pregunta</text></g><!--link SolicitandoDatosPregunta to ProcesandoCreacion--><g class="link" data-entity-1="SolicitandoDatosPregunta" data-entity-2="ProcesandoCreacion" data-source-line="17" data-uid="lnk5" id="link_SolicitandoDatosPregunta_ProcesandoCreacion"><path d="M44,330.3769 C44,379.1769 44,483.1969 44,532.0869" fill="none" id="SolicitandoDatosPregunta-to-ProcesandoCreacion" style="stroke:#008000;stroke-width:1;"/><polygon fill="#008000" points="44,538.0869,48,529.0869,44,533.0869,40,529.0869,44,538.0869" style="stroke:#008000;stroke-width:1;"/><path d="M49,353.2969 L49,515.2969 L510,515.2969 L510,363.2969 L500,353.2969 L49,353.2969" fill="#FEFFDD" style="stroke:#181818;stroke-width:0.5;"/><path d="M500,353.2969 L500,363.2969 L510,363.2969 L500,353.2969" fill="#FEFFDD" style="stroke:#181818;stroke-width:0.5;"/><text fill="#000000" font-family="sans-serif" font-size="13" font-weight="bold" lengthAdjust="spacing" textLength="58.9063" x="55" y="370.3638">Sistema</text><text fill="#000000" font-family="sans-serif" font-size="13" lengthAdjust="spacing" textLength="269.2612" x="118.0386" y="370.3638">presenta una solicitud de datos m&#237;nimos:</text><line style="stroke:#181818;stroke-width:1;" x1="50" x2="509.2925" y1="373.4297" y2="373.4297"/><text fill="#000000" font-family="sans-serif" font-size="13" font-weight="bold" lengthAdjust="spacing" textLength="72.7568" x="55" y="389.4966">Pregunta:</text><text fill="#000000" font-family="sans-serif" font-size="13" lengthAdjust="spacing" textLength="166.0674" x="55" y="404.6294">&#8226; Asignatura (obligatorio)</text><text fill="#000000" font-family="sans-serif" font-size="13" lengthAdjust="spacing" textLength="163.5474" x="55" y="419.7622">&#8226; Enunciado (obligatorio)</text><text fill="#000000" font-family="sans-serif" font-size="13" lengthAdjust="spacing" textLength="132.2534" x="55" y="434.895">&#8226; Tema (obligatorio)</text><text fill="#000000" font-family="sans-serif" font-size="13" lengthAdjust="spacing" textLength="337.3398" x="55" y="450.0278">&#8226; Dificultad (ENUM: BAJA, MEDIA, ALTA)(obligatorio)</text><text fill="#000000" font-family="sans-serif" font-size="13" lengthAdjust="spacing" textLength="440.2925" x="55" y="465.1606">&#8226; Respuestas con contenido y si es correcta/incorrecta (obligatorio)</text><line style="stroke:#181818;stroke-width:1;" x1="50" x2="509.2925" y1="472.2266" y2="472.2266"/><text fill="#000000" font-family="sans-serif" font-size="13" lengthAdjust="spacing" textLength="219.0576" x="55" y="488.2935">&#8226; Permite solicitar crear pregunta</text><text fill="#000000" font-family="sans-serif" font-size="13" lengthAdjust="spacing" textLength="245.7559" x="55" y="503.4263">&#8226; Permite solicitar cancelar operaci&#243;n</text></g><!--link ProcesandoCreacion to *end*crearPregunta--><g class="link" data-entity-1="ProcesandoCreacion" data-entity-2=".end.crearPregunta" data-source-line="32" data-uid="lnk7" id="link_ProcesandoCreacion_.end.crearPregunta"><path d="M44,588.5769 C44,614.7469 44,649.1469 44,667.9769" fill="none" id="ProcesandoCreacion-to-*end*crearPregunta" style="stroke:#008000;stroke-width:1;"/><polygon fill="#008000" points="44,673.9769,48,664.9769,44,668.9769,40,664.9769,44,673.9769" style="stroke:#008000;stroke-width:1;"/><path d="M49,611.2969 L49,651.2969 L366,651.2969 L366,621.2969 L356,611.2969 L49,611.2969" fill="#FEFFDD" style="stroke:#181818;stroke-width:0.5;"/><path d="M356,611.2969 L356,621.2969 L366,621.2969 L356,611.2969" fill="#FEFFDD" style="stroke:#181818;stroke-width:0.5;"/><text fill="#000000" font-family="sans-serif" font-size="13" font-weight="bold" lengthAdjust="spacing" textLength="60.5313" x="55" y="628.3638">Docente</text><text fill="#000000" font-family="sans-serif" font-size="13" lengthAdjust="spacing" textLength="177.8423" x="119.6636" y="628.3638">proporciona datos m&#237;nimos</text><text fill="#000000" font-family="sans-serif" font-size="13" font-weight="bold" lengthAdjust="spacing" textLength="58.9063" x="55" y="643.4966">Sistema</text><text fill="#000000" font-family="sans-serif" font-size="13" lengthAdjust="spacing" textLength="233.9302" x="118.0386" y="643.4966">crea pregunta y transfiere a edici&#243;n</text></g><g id="PREGUNTA_ABIERTO"><rect fill="#F1F1F1" height="50" rx="12.5" ry="12.5" style="stroke:#181818;stroke-width:0.5;" width="165.168" x="180.42" y="801.3"/><line style="stroke:#181818;stroke-width:0.5;" x1="180.42" x2="345.588" y1="827.5969" y2="827.5969"/><text fill="#000000" font-family="sans-serif" font-size="14" lengthAdjust="spacing" textLength="145.168" x="190.42" y="819.2951">PREGUNTA_ABIERTO</text></g><!--link PREGUNTAS_ABIERTO to crearPregunta--><g class="link" data-entity-1="PREGUNTAS_ABIERTO" data-entity-2="crearPregunta" data-source-line="5" data-uid="lnk2" id="link_PREGUNTAS_ABIERTO_crearPregunta"><path d="M259.83,57.48 C257.98,71.76 256,87 256,87 C256,87 256,122 256,122 C256,122 256.1224,127.3316 256.5424,145.6416" fill="none" id="PREGUNTAS_ABIERTO-to-crearPregunta" style="stroke:#008000;stroke-width:1;"/><polygon fill="#008000" points="256.68,151.64,260.4726,142.5506,256.5653,146.6413,252.4747,142.7341,256.68,151.64" style="stroke:#008000;stroke-width:1;"/></g><!--link crearPregunta to PREGUNTAS_ABIERTO--><g class="link" data-entity-1="crearPregunta" data-entity-2="PREGUNTAS_ABIERTO" data-source-line="44" data-uid="lnk10" id="link_crearPregunta_PREGUNTAS_ABIERTO"><path d="M263,151.69 C263,112.9 263,84.96 263,63.42" fill="none" id="crearPregunta-to-PREGUNTAS_ABIERTO" style="stroke:#0000FF;stroke-width:1;"/><polygon fill="#0000FF" points="263,57.42,259,66.42,263,62.42,267,66.42,263,57.42" style="stroke:#0000FF;stroke-width:1;"/><path d="M268,92 L268,117 L403,117 L403,102 L393,92 L268,92" fill="#FEFFDD" style="stroke:#181818;stroke-width:0.5;"/><path d="M393,92 L393,102 L403,102 L393,92" fill="#FEFFDD" style="stroke:#181818;stroke-width:0.5;"/><text fill="#000000" font-family="sans-serif" font-size="13" lengthAdjust="spacing" textLength="114.9624" x="274" y="109.0669">cancelar creaci&#243;n</text></g><!--link crearPregunta to PREGUNTA_ABIERTO--><g class="link" data-entity-1="crearPregunta" data-entity-2="PREGUNTA_ABIERTO" data-source-line="39" data-uid="lnk9" id="link_crearPregunta_PREGUNTA_ABIERTO"><path d="M263,706.74 C263,745.65 263,773.67 263,795.17" fill="none" id="crearPregunta-to-PREGUNTA_ABIERTO" style="stroke:#008000;stroke-width:1;"/><polygon fill="#008000" points="263,801.17,267,792.17,263,796.17,259,792.17,263,801.17" style="stroke:#008000;stroke-width:1;"/><path d="M268,741.3 L268,766.3 L495,766.3 L495,751.3 L485,741.3 L268,741.3" fill="#FEFFDD" style="stroke:#181818;stroke-width:0.5;"/><path d="M485,741.3 L485,751.3 L495,751.3 L485,741.3" fill="#FEFFDD" style="stroke:#181818;stroke-width:0.5;"/><text fill="#000000" font-family="sans-serif" font-size="13" lengthAdjust="spacing" textLength="206.502" x="274" y="758.3669">editarPregunta(nuevaPregunta)</text></g><!--SRC=[ZPJFQjj04CRl-nI3Ux5BHUuc69HQX9GcDRPp2Y6CLnEpH9uLkwk2AOK-I-yzzH7o9dsIpigMQjKIHCRwCvhzxJVpxSg_62xHuGuAmnJs9K5fYtryKCe730IBPNPzVxTELq_frKssN7zHwYm4oSExhIFYnsG6sX6wXQDjnG4RIYS8w67KYOmd8_Yc5CXno1_9Jx9MjZ3Q1EJSpZ5OtsBFCXVEQl8nyQE0jR5ym3syV-oe6o92dSrMY9PZDrxgmELcDXSm1xgysCp07qSVwW6kw2j2UIgAE3zGv53jQN3MKsaz9GnfMXaVQ8Ur9fdUKsHLZ8t0AeUS88zJmUxr5vkTzTDwS98a3QGHCOsOElZdnqz8lTaoXieXZEscC5k1E6CdRKB65Mk3kHrulnPX0w_cvjdegWYOmpYxkx-TmbNwAVq0jzdyHYxfvtKwwH-v95zM98vxqD8B-GTY8nhsu0rGZ3f7Ek25uUQsHqHJVKGkoEsCjBRnr1rDxTWva8YigP0RMv8Jfrv_SyVyVyQVUzgnN5RdczPTwMnfNHoE_xdQjo9Y7MqPqg7WaFsp8KU0GBdf4VnTgUuMxIpCutvllm0TkG8C9pkvtXFDqqIrCvppDqL5f_XLFxzjjgux6AKtqBy0]--></g></svg>