<svg xmlns="http://www.w3.org/2000/svg" xmlns:xlink="http://www.w3.org/1999/xlink" contentStyleType="text/css" data-diagram-type="STATE" height="872px" preserveAspectRatio="none" style="width:900px;height:872px;background:#FFFFFF;" version="1.1" viewBox="0 0 900 872" width="900px" zoomAndPan="magnify"><defs/><g><g id="PREGUNTAS_ABIERTO"><rect fill="#F1F1F1" height="50" rx="12.5" ry="12.5" style="stroke:#181818;stroke-width:0.5;" width="174.0547" x="285.58" y="7"/><line style="stroke:#181818;stroke-width:0.5;" x1="285.58" x2="459.6347" y1="33.2969" y2="33.2969"/><text fill="#000000" font-family="sans-serif" font-size="14" lengthAdjust="spacing" textLength="154.0547" x="295.58" y="24.9951">PREGUNTAS_ABIERTO</text></g><g id="PREGUNTAS_CONTEXTUALES_ABIERTO"><rect fill="#F1F1F1" height="50" rx="12.5" ry="12.5" style="stroke:#181818;stroke-width:0.5;" width="293.2188" x="7" y="816.3"/><line style="stroke:#181818;stroke-width:0.5;" x1="7" x2="300.2188" y1="842.5969" y2="842.5969"/><text fill="#000000" font-family="sans-serif" font-size="14" lengthAdjust="spacing" textLength="273.2188" x="17" y="834.2951">PREGUNTAS_CONTEXTUALES_ABIERTO</text></g><g id="PREGUNTA_ABIERTO"><rect fill="#F1F1F1" height="50" rx="12.5" ry="12.5" style="stroke:#181818;stroke-width:0.5;" width="165.168" x="335.03" y="816.3"/><line style="stroke:#181818;stroke-width:0.5;" x1="335.03" x2="500.198" y1="842.5969" y2="842.5969"/><text fill="#000000" font-family="sans-serif" font-size="14" lengthAdjust="spacing" textLength="145.168" x="345.03" y="834.2951">PREGUNTA_ABIERTO</text></g><g id="PREGUNTA_CONTEXTUAL_ABIERTO"><rect fill="#F1F1F1" height="50" rx="12.5" ry="12.5" style="stroke:#181818;stroke-width:0.5;" width="266.5996" x="548.31" y="816.3"/><line style="stroke:#181818;stroke-width:0.5;" x1="548.31" x2="814.9096" y1="842.5969" y2="842.5969"/><text fill="#000000" font-family="sans-serif" font-size="14" lengthAdjust="spacing" textLength="246.5996" x="558.31" y="834.2951">PREGUNTA_CONTEXTUAL_ABIERTO</text></g><path d="M140.11,152 L605.11,152 A12.5,12.5 0 0 1 617.61,164.5 L617.61,178.2969 L127.61,178.2969 L127.61,164.5 A12.5,12.5 0 0 1 140.11,152" fill="#F1F1F1"/><rect fill="none" height="554.2969" rx="12.5" ry="12.5" style="stroke:#181818;stroke-width:0.5;" width="490" x="127.61" y="152"/><line style="stroke:#181818;stroke-width:0.5;" x1="127.61" x2="617.61" y1="178.2969" y2="178.2969"/><text fill="#000000" font-family="sans-serif" font-size="14" lengthAdjust="spacing" textLength="110.8379" x="317.1911" y="169.9951">crearPregunta()</text><g id="crearPregunta.SolicitandoDatosPregunta"><rect fill="#F1F1F1" height="50" rx="12.5" ry="12.5" style="stroke:#181818;stroke-width:0.5;" width="50" x="139.61" y="280.2969"/><line style="stroke:#181818;stroke-width:0.5;" x1="139.61" x2="189.61" y1="306.5938" y2="306.5938"/><text fill="#000000" font-family="sans-serif" font-size="14" lengthAdjust="spacing" textLength="4.4502" x="162.3849" y="298.292">&#160;</text></g><g id="crearPregunta.ProcesandoCreacion"><rect fill="#F1F1F1" height="50" rx="12.5" ry="12.5" style="stroke:#181818;stroke-width:0.5;" width="50" x="139.61" y="538.2969"/><line style="stroke:#181818;stroke-width:0.5;" x1="139.61" x2="189.61" y1="564.5938" y2="564.5938"/><text fill="#000000" font-family="sans-serif" font-size="14" lengthAdjust="spacing" textLength="4.4502" x="162.3849" y="556.292">&#160;</text></g><ellipse cx="164.61" cy="199.2969" fill="#222222" rx="10" ry="10" style="stroke:#222222;stroke-width:1;"/><ellipse cx="164.61" cy="685.2969" fill="none" rx="11" ry="11" style="stroke:#222222;stroke-width:1;"/><ellipse cx="164.61" cy="685.2969" fill="#222222" rx="6" ry="6" style="stroke:#222222;stroke-width:1;"/><!--link *start*crearPregunta to SolicitandoDatosPregunta--><g class="link" data-entity-1=".start.crearPregunta" data-entity-2="SolicitandoDatosPregunta" data-source-line="18" data-uid="lnk5" id="link_.start.crearPregunta_SolicitandoDatosPregunta"><path d="M164.61,209.5269 C164.61,225.2369 164.61,251.6569 164.61,274.1669" fill="none" id="*start*crearPregunta-to-SolicitandoDatosPregunta" style="stroke:#008000;stroke-width:1;"/><polygon fill="#008000" points="164.61,280.1669,168.61,271.1669,164.61,275.1669,160.61,271.1669,164.61,280.1669" style="stroke:#008000;stroke-width:1;"/><path d="M169.61,232.2969 L169.61,257.2969 L446.61,257.2969 L446.61,242.2969 L436.61,232.2969 L169.61,232.2969" fill="#FEFFDD" style="stroke:#181818;stroke-width:0.5;"/><path d="M436.61,232.2969 L436.61,242.2969 L446.61,242.2969 L436.61,232.2969" fill="#FEFFDD" style="stroke:#181818;stroke-width:0.5;"/><text fill="#000000" font-family="sans-serif" font-size="13" font-weight="bold" lengthAdjust="spacing" textLength="60.5313" x="175.61" y="249.3638">Docente</text><text fill="#000000" font-family="sans-serif" font-size="13" lengthAdjust="spacing" textLength="191.4961" x="240.2736" y="249.3638">solicita crear nueva pregunta</text></g><!--link SolicitandoDatosPregunta to ProcesandoCreacion--><g class="link" data-entity-1="SolicitandoDatosPregunta" data-entity-2="ProcesandoCreacion" data-source-line="23" data-uid="lnk6" id="link_SolicitandoDatosPregunta_ProcesandoCreacion"><path d="M164.61,330.3769 C164.61,379.1769 164.61,483.1969 164.61,532.0869" fill="none" id="SolicitandoDatosPregunta-to-ProcesandoCreacion" style="stroke:#008000;stroke-width:1;"/><polygon fill="#008000" points="164.61,538.0869,168.61,529.0869,164.61,533.0869,160.61,529.0869,164.61,538.0869" style="stroke:#008000;stroke-width:1;"/><path d="M169.61,353.2969 L169.61,515.2969 L608.61,515.2969 L608.61,363.2969 L598.61,353.2969 L169.61,353.2969" fill="#FEFFDD" style="stroke:#181818;stroke-width:0.5;"/><path d="M598.61,353.2969 L598.61,363.2969 L608.61,363.2969 L598.61,353.2969" fill="#FEFFDD" style="stroke:#181818;stroke-width:0.5;"/><text fill="#000000" font-family="sans-serif" font-size="13" font-weight="bold" lengthAdjust="spacing" textLength="58.9063" x="175.61" y="370.3638">Sistema</text><text fill="#000000" font-family="sans-serif" font-size="13" lengthAdjust="spacing" textLength="240.6841" x="238.6486" y="370.3638">presenta solicitud de datos m&#237;nimos:</text><line style="stroke:#181818;stroke-width:1;" x1="170.61" x2="608.4411" y1="373.4297" y2="373.4297"/><text fill="#000000" font-family="sans-serif" font-size="13" font-weight="bold" lengthAdjust="spacing" textLength="72.7568" x="175.61" y="389.4966">Pregunta:</text><text fill="#000000" font-family="sans-serif" font-size="13" lengthAdjust="spacing" textLength="166.0674" x="175.61" y="404.6294">&#8226; Asignatura (obligatorio)</text><text fill="#000000" font-family="sans-serif" font-size="13" lengthAdjust="spacing" textLength="163.5474" x="175.61" y="419.7622">&#8226; Enunciado (obligatorio)</text><text fill="#000000" font-family="sans-serif" font-size="13" lengthAdjust="spacing" textLength="132.2534" x="175.61" y="434.895">&#8226; Tema (obligatorio)</text><text fill="#000000" font-family="sans-serif" font-size="13" lengthAdjust="spacing" textLength="337.3398" x="175.61" y="450.0278">&#8226; Dificultad (ENUM: BAJA, MEDIA, ALTA)(obligatorio)</text><text fill="#000000" font-family="sans-serif" font-size="13" lengthAdjust="spacing" textLength="418.8311" x="175.61" y="465.1606">&#8226; Respuestas (contenido y si es correcta/incorrecta)(obligatorio)</text><line style="stroke:#181818;stroke-width:1;" x1="170.61" x2="608.4411" y1="472.2266" y2="472.2266"/><text fill="#000000" font-family="sans-serif" font-size="13" lengthAdjust="spacing" textLength="219.0576" x="175.61" y="488.2935">&#8226; Permite solicitar crear pregunta</text><text fill="#000000" font-family="sans-serif" font-size="13" lengthAdjust="spacing" textLength="245.7559" x="175.61" y="503.4263">&#8226; Permite solicitar cancelar operaci&#243;n</text></g><!--link ProcesandoCreacion to *end*crearPregunta--><g class="link" data-entity-1="ProcesandoCreacion" data-entity-2=".end.crearPregunta" data-source-line="38" data-uid="lnk8" id="link_ProcesandoCreacion_.end.crearPregunta"><path d="M164.61,588.5769 C164.61,614.7469 164.61,649.1469 164.61,667.9769" fill="none" id="ProcesandoCreacion-to-*end*crearPregunta" style="stroke:#008000;stroke-width:1;"/><polygon fill="#008000" points="164.61,673.9769,168.61,664.9769,164.61,668.9769,160.61,664.9769,164.61,673.9769" style="stroke:#008000;stroke-width:1;"/><path d="M169.61,611.2969 L169.61,651.2969 L486.61,651.2969 L486.61,621.2969 L476.61,611.2969 L169.61,611.2969" fill="#FEFFDD" style="stroke:#181818;stroke-width:0.5;"/><path d="M476.61,611.2969 L476.61,621.2969 L486.61,621.2969 L476.61,611.2969" fill="#FEFFDD" style="stroke:#181818;stroke-width:0.5;"/><text fill="#000000" font-family="sans-serif" font-size="13" font-weight="bold" lengthAdjust="spacing" textLength="60.5313" x="175.61" y="628.3638">Docente</text><text fill="#000000" font-family="sans-serif" font-size="13" lengthAdjust="spacing" textLength="177.8423" x="240.2736" y="628.3638">proporciona datos m&#237;nimos</text><text fill="#000000" font-family="sans-serif" font-size="13" font-weight="bold" lengthAdjust="spacing" textLength="58.9063" x="175.61" y="643.4966">Sistema</text><text fill="#000000" font-family="sans-serif" font-size="13" lengthAdjust="spacing" textLength="233.9302" x="238.6486" y="643.4966">crea pregunta y transfiere a edici&#243;n</text></g><!--link PREGUNTAS_ABIERTO to crearPregunta--><g class="link" data-entity-1="PREGUNTAS_ABIERTO" data-entity-2="crearPregunta" data-source-line="10" data-uid="lnk2" id="link_PREGUNTAS_ABIERTO_crearPregunta"><path d="M369.44,57.48 C367.58,71.76 365.61,87 365.61,87 C365.61,87 365.61,122 365.61,122 C365.61,122 365.7324,127.3316 366.1524,145.6416" fill="none" id="PREGUNTAS_ABIERTO-to-crearPregunta" style="stroke:#008000;stroke-width:1;"/><polygon fill="#008000" points="366.29,151.64,370.0826,142.5506,366.1753,146.6413,362.0847,142.7341,366.29,151.64" style="stroke:#008000;stroke-width:1;"/></g><!--link crearPregunta to PREGUNTAS_ABIERTO--><g class="link" data-entity-1="crearPregunta" data-entity-2="PREGUNTAS_ABIERTO" data-source-line="61" data-uid="lnk11" id="link_crearPregunta_PREGUNTAS_ABIERTO"><path d="M372.61,151.69 C372.61,112.9 372.61,84.96 372.61,63.42" fill="none" id="crearPregunta-to-PREGUNTAS_ABIERTO" style="stroke:#0000FF;stroke-width:1;"/><polygon fill="#0000FF" points="372.61,57.42,368.61,66.42,372.61,62.42,376.61,66.42,372.61,57.42" style="stroke:#0000FF;stroke-width:1;"/><path d="M377.61,92 L377.61,117 L512.61,117 L512.61,102 L502.61,92 L377.61,92" fill="#FEFFDD" style="stroke:#181818;stroke-width:0.5;"/><path d="M502.61,92 L502.61,102 L512.61,102 L502.61,92" fill="#FEFFDD" style="stroke:#181818;stroke-width:0.5;"/><text fill="#000000" font-family="sans-serif" font-size="13" lengthAdjust="spacing" textLength="114.9624" x="383.61" y="109.0669">cancelar creaci&#243;n</text></g><!--link PREGUNTAS_CONTEXTUALES_ABIERTO to crearPregunta--><g class="link" data-entity-1="PREGUNTAS_CONTEXTUALES_ABIERTO" data-entity-2="crearPregunta" data-source-line="11" data-uid="lnk3" id="link_PREGUNTAS_CONTEXTUALES_ABIERTO_crearPregunta"><path d="M226.12,815.83 C268.45,801.54 313.61,786.3 313.61,786.3 C313.61,786.3 318.1798,758.7294 325.8698,712.2894" fill="none" id="PREGUNTAS_CONTEXTUALES_ABIERTO-to-crearPregunta" style="stroke:#008000;stroke-width:1;"/><polygon fill="#008000" points="326.85,706.37,321.4334,714.5956,326.0332,711.3028,329.326,715.9026,326.85,706.37" style="stroke:#008000;stroke-width:1;"/></g><!--link crearPregunta to PREGUNTAS_CONTEXTUALES_ABIERTO--><g class="link" data-entity-1="crearPregunta" data-entity-2="PREGUNTAS_CONTEXTUALES_ABIERTO" data-source-line="66" data-uid="lnk12" id="link_crearPregunta_PREGUNTAS_CONTEXTUALES_ABIERTO"><path d="M181.13,706.67 C168.46,724.97 160.61,736.3 160.61,736.3 C160.61,736.3 157.7231,779.1936 155.6531,809.9336" fill="none" id="crearPregunta-to-PREGUNTAS_CONTEXTUALES_ABIERTO" style="stroke:#0000FF;stroke-width:1;"/><polygon fill="#0000FF" points="155.25,815.92,159.8456,807.2091,155.5859,810.9313,151.8637,806.6716,155.25,815.92" style="stroke:#0000FF;stroke-width:1;"/><path d="M165.61,748.8 L165.61,773.8 L300.61,773.8 L300.61,758.8 L290.61,748.8 L165.61,748.8" fill="#FEFFDD" style="stroke:#181818;stroke-width:0.5;"/><path d="M290.61,748.8 L290.61,758.8 L300.61,758.8 L290.61,748.8" fill="#FEFFDD" style="stroke:#181818;stroke-width:0.5;"/><text fill="#000000" font-family="sans-serif" font-size="13" lengthAdjust="spacing" textLength="114.9624" x="171.61" y="765.8669">cancelar creaci&#243;n</text></g><!--link crearPregunta to PREGUNTA_ABIERTO--><g class="link" data-entity-1="crearPregunta" data-entity-2="PREGUNTA_ABIERTO" data-source-line="47" data-uid="lnk9" id="link_crearPregunta_PREGUNTA_ABIERTO"><path d="M395.1,706.37 C398.88,752.81 401.61,786.3 401.61,786.3 C401.61,786.3 404.427,795.7868 408.657,810.0768" fill="none" id="crearPregunta-to-PREGUNTA_ABIERTO" style="stroke:#008000;stroke-width:1;"/><polygon fill="#008000" points="410.36,815.83,411.641,806.0648,408.9408,811.0356,403.97,808.3355,410.36,815.83" style="stroke:#008000;stroke-width:1;"/><path d="M406.61,741.3 L406.61,781.3 L633.61,781.3 L633.61,751.3 L623.61,741.3 L406.61,741.3" fill="#FEFFDD" style="stroke:#181818;stroke-width:0.5;"/><path d="M623.61,741.3 L623.61,751.3 L633.61,751.3 L623.61,741.3" fill="#FEFFDD" style="stroke:#181818;stroke-width:0.5;"/><text fill="#000000" font-family="sans-serif" font-size="13" lengthAdjust="spacing" textLength="206.502" x="412.61" y="758.3669">editarPregunta(nuevaPregunta)</text><text fill="#000000" font-family="sans-serif" font-size="13" lengthAdjust="spacing" textLength="103.8984" x="412.61" y="773.4997">(Caso Est&#225;ndar)</text></g><!--link crearPregunta to PREGUNTA_CONTEXTUAL_ABIERTO--><g class="link" data-entity-1="crearPregunta" data-entity-2="PREGUNTA_CONTEXTUAL_ABIERTO" data-source-line="53" data-uid="lnk10" id="link_crearPregunta_PREGUNTA_CONTEXTUAL_ABIERTO"><path d="M616.48,706.67 C632.62,724.97 642.61,736.3 642.61,736.3 C642.61,736.3 658.8329,779.5622 670.3629,810.3022" fill="none" id="crearPregunta-to-PREGUNTA_CONTEXTUAL_ABIERTO" style="stroke:#008000;stroke-width:1;"/><polygon fill="#008000" points="672.47,815.92,673.0545,806.0885,670.714,811.2385,665.5641,808.898,672.47,815.92" style="stroke:#008000;stroke-width:1;"/><path d="M666.61,741.3 L666.61,781.3 L893.61,781.3 L893.61,751.3 L883.61,741.3 L666.61,741.3" fill="#FEFFDD" style="stroke:#181818;stroke-width:0.5;"/><path d="M883.61,741.3 L883.61,751.3 L893.61,751.3 L883.61,741.3" fill="#FEFFDD" style="stroke:#181818;stroke-width:0.5;"/><text fill="#000000" font-family="sans-serif" font-size="13" lengthAdjust="spacing" textLength="206.502" x="672.61" y="758.3669">editarPregunta(nuevaPregunta)</text><text fill="#000000" font-family="sans-serif" font-size="13" lengthAdjust="spacing" textLength="117.019" x="672.61" y="773.4997">(Caso Contextual)</text></g><!--SRC=[bLJ1Qjj04BtlLmpEnIurkPjWK6nHKXB7s38KGYZZrSGiaNR5xghKb49_fRttr4_md-HBkYjRYXL9nf71aaOpxxtPDxlcMSWCDQQG24bscn5aAjdw5yQOiMW9velmqseM1SklmVLDk8Zk6_79_ImAlqIhu3RiIkeAlvPM6Omr667uSB7HHF9nE0Qk2VLSqoQN5jbf5ISA3qfgGK03lLgaF-Z13yR0NVlydlkvhALA11SMPQocQ9MfO1kPSwqu6PyuSS1SABc7U_ZmM5FNXGX5jbGEKKblqtCHk5gFfmvOMhgwN8_17Aht_O3CwHj2TYoAPBn7SHUh_ZfPZwMrjD2bQIcCfHGBJOxUaCSwYCjZY0bYJmFfxgyKgJAZed0u79O0fO2HXoY2Bx_-G634HgBDDK9VhHEnSI1Qg46L4CfSSe6nwlWUEL4TdwRYIV0yiHX3FvojxaPm7NmEFi9TEBrnj-0s2WRjbGioMKxERGDzhfmLKZW1Mp02o01NMXEtU2ba-TY2KxRkyUQaK-7Mj3HJ7zoi-TYHY99JuXvKHjfPjFidQww_Ejuqi-Qr6ykp1YxJAbFQb-CRIzj6mVTHjU5Mo6gKvacG9a2WMBG8_kaE0bRVdRMPV7kmr0GxI7kqYOljKBuDM7-2Ha5exEwtZ54FM4Lw3c7BaVLkxecVbkysn-IOl8L-dUHqpBvivwpivuMdVZ5FzDG4RJt1psNu3m00]--></g></svg>