<svg xmlns="http://www.w3.org/2000/svg" xmlns:xlink="http://www.w3.org/1999/xlink" contentStyleType="text/css" data-diagram-type="CLASS" height="843px" preserveAspectRatio="none" style="width:449px;height:843px;background:#1B1B1B;" version="1.1" viewBox="0 0 449 843" width="449px" zoomAndPan="magnify"><defs/><g><rect fill="#1B1B1B" height="843" style="stroke:none;stroke-width:1;" width="449" x="0" y="0"/><!--class Universidad--><g class="entity" data-entity="Universidad" data-source-line="1" data-uid="ent0002" id="entity_Universidad"><rect fill="#313139" height="48" rx="2.5" ry="2.5" style="stroke:#E7E7E7;stroke-width:0.5;" width="115.2002" x="253.09" y="7"/><ellipse cx="268.09" cy="23" fill="#2E5233" rx="11" ry="11" style="stroke:#E7E7E7;stroke-width:1;"/><path d="M271.0588,28.6406 Q270.4806,28.9375 269.84,29.0781 Q269.1994,29.2344 268.4963,29.2344 Q265.9963,29.2344 264.6681,27.5938 Q263.3556,25.9375 263.3556,22.8125 Q263.3556,19.6875 264.6681,18.0313 Q265.9963,16.375 268.4963,16.375 Q269.1994,16.375 269.84,16.5313 Q270.4963,16.6875 271.0588,16.9844 L271.0588,19.7031 Q270.4338,19.125 269.84,18.8594 Q269.2463,18.5781 268.6213,18.5781 Q267.2775,18.5781 266.59,19.6563 Q265.9025,20.7188 265.9025,22.8125 Q265.9025,24.9063 266.59,25.9844 Q267.2775,27.0469 268.6213,27.0469 Q269.2463,27.0469 269.84,26.7813 Q270.4338,26.5 271.0588,25.9219 L271.0588,28.6406 Z " fill="#FFFFFF"/><text fill="#FFFFFF" font-family="sans-serif" font-size="14" lengthAdjust="spacing" textLength="83.2002" x="282.09" y="27.8467">Universidad</text><line style="stroke:#E7E7E7;stroke-width:0.5;" x1="254.09" x2="367.2902" y1="39" y2="39"/><line style="stroke:#E7E7E7;stroke-width:0.5;" x1="254.09" x2="367.2902" y1="47" y2="47"/></g><!--class Profesor--><g class="entity" data-entity="Profesor" data-source-line="2" data-uid="ent0003" id="entity_Profesor"><rect fill="#313139" height="48" rx="2.5" ry="2.5" style="stroke:#E7E7E7;stroke-width:0.5;" width="89.9209" x="352.73" y="382"/><ellipse cx="367.73" cy="398" fill="#2E5233" rx="11" ry="11" style="stroke:#E7E7E7;stroke-width:1;"/><path d="M370.6988,403.6406 Q370.1206,403.9375 369.48,404.0781 Q368.8394,404.2344 368.1363,404.2344 Q365.6363,404.2344 364.3081,402.5938 Q362.9956,400.9375 362.9956,397.8125 Q362.9956,394.6875 364.3081,393.0313 Q365.6363,391.375 368.1363,391.375 Q368.8394,391.375 369.48,391.5313 Q370.1363,391.6875 370.6988,391.9844 L370.6988,394.7031 Q370.0738,394.125 369.48,393.8594 Q368.8863,393.5781 368.2613,393.5781 Q366.9175,393.5781 366.23,394.6563 Q365.5425,395.7188 365.5425,397.8125 Q365.5425,399.9063 366.23,400.9844 Q366.9175,402.0469 368.2613,402.0469 Q368.8863,402.0469 369.48,401.7813 Q370.0738,401.5 370.6988,400.9219 L370.6988,403.6406 Z " fill="#FFFFFF"/><text fill="#FFFFFF" font-family="sans-serif" font-size="14" lengthAdjust="spacing" textLength="57.9209" x="381.73" y="402.8467">Profesor</text><line style="stroke:#E7E7E7;stroke-width:0.5;" x1="353.73" x2="441.6509" y1="414" y2="414"/><line style="stroke:#E7E7E7;stroke-width:0.5;" x1="353.73" x2="441.6509" y1="422" y2="422"/></g><!--class Grado--><g class="entity" data-entity="Grado" data-source-line="3" data-uid="ent0004" id="entity_Grado"><rect fill="#313139" height="48" rx="2.5" ry="2.5" style="stroke:#E7E7E7;stroke-width:0.5;" width="74.6357" x="171.37" y="132"/><ellipse cx="186.37" cy="148" fill="#2E5233" rx="11" ry="11" style="stroke:#E7E7E7;stroke-width:1;"/><path d="M189.3388,153.6406 Q188.7606,153.9375 188.12,154.0781 Q187.4794,154.2344 186.7763,154.2344 Q184.2763,154.2344 182.9481,152.5938 Q181.6356,150.9375 181.6356,147.8125 Q181.6356,144.6875 182.9481,143.0313 Q184.2763,141.375 186.7763,141.375 Q187.4794,141.375 188.12,141.5313 Q188.7763,141.6875 189.3388,141.9844 L189.3388,144.7031 Q188.7138,144.125 188.12,143.8594 Q187.5263,143.5781 186.9013,143.5781 Q185.5575,143.5781 184.87,144.6563 Q184.1825,145.7188 184.1825,147.8125 Q184.1825,149.9063 184.87,150.9844 Q185.5575,152.0469 186.9013,152.0469 Q187.5263,152.0469 188.12,151.7813 Q188.7138,151.5 189.3388,150.9219 L189.3388,153.6406 Z " fill="#FFFFFF"/><text fill="#FFFFFF" font-family="sans-serif" font-size="14" lengthAdjust="spacing" textLength="42.6357" x="200.37" y="152.8467">Grado</text><line style="stroke:#E7E7E7;stroke-width:0.5;" x1="172.37" x2="245.0057" y1="164" y2="164"/><line style="stroke:#E7E7E7;stroke-width:0.5;" x1="172.37" x2="245.0057" y1="172" y2="172"/></g><!--class Asignatura--><g class="entity" data-entity="Asignatura" data-source-line="4" data-uid="ent0005" id="entity_Asignatura"><rect fill="#313139" height="48" rx="2.5" ry="2.5" style="stroke:#E7E7E7;stroke-width:0.5;" width="107.7969" x="154.79" y="257"/><ellipse cx="169.79" cy="273" fill="#2E5233" rx="11" ry="11" style="stroke:#E7E7E7;stroke-width:1;"/><path d="M172.7588,278.6406 Q172.1806,278.9375 171.54,279.0781 Q170.8994,279.2344 170.1963,279.2344 Q167.6963,279.2344 166.3681,277.5938 Q165.0556,275.9375 165.0556,272.8125 Q165.0556,269.6875 166.3681,268.0313 Q167.6963,266.375 170.1963,266.375 Q170.8994,266.375 171.54,266.5313 Q172.1963,266.6875 172.7588,266.9844 L172.7588,269.7031 Q172.1338,269.125 171.54,268.8594 Q170.9463,268.5781 170.3213,268.5781 Q168.9775,268.5781 168.29,269.6563 Q167.6025,270.7188 167.6025,272.8125 Q167.6025,274.9063 168.29,275.9844 Q168.9775,277.0469 170.3213,277.0469 Q170.9463,277.0469 171.54,276.7813 Q172.1338,276.5 172.7588,275.9219 L172.7588,278.6406 Z " fill="#FFFFFF"/><text fill="#FFFFFF" font-family="sans-serif" font-size="14" lengthAdjust="spacing" textLength="75.7969" x="183.79" y="277.8467">Asignatura</text><line style="stroke:#E7E7E7;stroke-width:0.5;" x1="155.79" x2="261.5869" y1="289" y2="289"/><line style="stroke:#E7E7E7;stroke-width:0.5;" x1="155.79" x2="261.5869" y1="297" y2="297"/></g><!--class Alumno--><g class="entity" data-entity="Alumno" data-source-line="5" data-uid="ent0006" id="entity_Alumno"><rect fill="#313139" height="48" rx="2.5" ry="2.5" style="stroke:#E7E7E7;stroke-width:0.5;" width="85.416" x="95.98" y="382"/><ellipse cx="110.98" cy="398" fill="#2E5233" rx="11" ry="11" style="stroke:#E7E7E7;stroke-width:1;"/><path d="M113.9488,403.6406 Q113.3706,403.9375 112.73,404.0781 Q112.0894,404.2344 111.3863,404.2344 Q108.8863,404.2344 107.5581,402.5938 Q106.2456,400.9375 106.2456,397.8125 Q106.2456,394.6875 107.5581,393.0313 Q108.8863,391.375 111.3863,391.375 Q112.0894,391.375 112.73,391.5313 Q113.3863,391.6875 113.9488,391.9844 L113.9488,394.7031 Q113.3238,394.125 112.73,393.8594 Q112.1363,393.5781 111.5113,393.5781 Q110.1675,393.5781 109.48,394.6563 Q108.7925,395.7188 108.7925,397.8125 Q108.7925,399.9063 109.48,400.9844 Q110.1675,402.0469 111.5113,402.0469 Q112.1363,402.0469 112.73,401.7813 Q113.3238,401.5 113.9488,400.9219 L113.9488,403.6406 Z " fill="#FFFFFF"/><text fill="#FFFFFF" font-family="sans-serif" font-size="14" lengthAdjust="spacing" textLength="53.416" x="124.98" y="402.8467">Alumno</text><line style="stroke:#E7E7E7;stroke-width:0.5;" x1="96.98" x2="180.396" y1="414" y2="414"/><line style="stroke:#E7E7E7;stroke-width:0.5;" x1="96.98" x2="180.396" y1="422" y2="422"/></g><!--class Pregunta--><g class="entity" data-entity="Pregunta" data-source-line="6" data-uid="ent0007" id="entity_Pregunta"><rect fill="#313139" height="48" rx="2.5" ry="2.5" style="stroke:#E7E7E7;stroke-width:0.5;" width="95.5127" x="241.93" y="788"/><ellipse cx="256.93" cy="804" fill="#2E5233" rx="11" ry="11" style="stroke:#E7E7E7;stroke-width:1;"/><path d="M259.8988,809.6406 Q259.3206,809.9375 258.68,810.0781 Q258.0394,810.2344 257.3363,810.2344 Q254.8363,810.2344 253.5081,808.5938 Q252.1956,806.9375 252.1956,803.8125 Q252.1956,800.6875 253.5081,799.0313 Q254.8363,797.375 257.3363,797.375 Q258.0394,797.375 258.68,797.5313 Q259.3363,797.6875 259.8988,797.9844 L259.8988,800.7031 Q259.2738,800.125 258.68,799.8594 Q258.0863,799.5781 257.4613,799.5781 Q256.1175,799.5781 255.43,800.6563 Q254.7425,801.7188 254.7425,803.8125 Q254.7425,805.9063 255.43,806.9844 Q256.1175,808.0469 257.4613,808.0469 Q258.0863,808.0469 258.68,807.7813 Q259.2738,807.5 259.8988,806.9219 L259.8988,809.6406 Z " fill="#FFFFFF"/><text fill="#FFFFFF" font-family="sans-serif" font-size="14" lengthAdjust="spacing" textLength="63.5127" x="270.93" y="808.8467">Pregunta</text><line style="stroke:#E7E7E7;stroke-width:0.5;" x1="242.93" x2="336.4427" y1="820" y2="820"/><line style="stroke:#E7E7E7;stroke-width:0.5;" x1="242.93" x2="336.4427" y1="828" y2="828"/></g><!--class Evaluacion--><g class="entity" data-entity="Evaluacion" data-source-line="7" data-uid="ent0008" id="entity_Evaluacion"><rect fill="#313139" height="48" rx="2.5" ry="2.5" style="stroke:#E7E7E7;stroke-width:0.5;" width="108.0771" x="107.65" y="538"/><ellipse cx="122.65" cy="554" fill="#2E5233" rx="11" ry="11" style="stroke:#E7E7E7;stroke-width:1;"/><path d="M125.6188,559.6406 Q125.0406,559.9375 124.4,560.0781 Q123.7594,560.2344 123.0563,560.2344 Q120.5563,560.2344 119.2281,558.5938 Q117.9156,556.9375 117.9156,553.8125 Q117.9156,550.6875 119.2281,549.0313 Q120.5563,547.375 123.0563,547.375 Q123.7594,547.375 124.4,547.5313 Q125.0563,547.6875 125.6188,547.9844 L125.6188,550.7031 Q124.9938,550.125 124.4,549.8594 Q123.8063,549.5781 123.1813,549.5781 Q121.8375,549.5781 121.15,550.6563 Q120.4625,551.7188 120.4625,553.8125 Q120.4625,555.9063 121.15,556.9844 Q121.8375,558.0469 123.1813,558.0469 Q123.8063,558.0469 124.4,557.7813 Q124.9938,557.5 125.6188,556.9219 L125.6188,559.6406 Z " fill="#FFFFFF"/><text fill="#FFFFFF" font-family="sans-serif" font-size="14" lengthAdjust="spacing" textLength="76.0771" x="136.65" y="558.8467">Evaluacion</text><line style="stroke:#E7E7E7;stroke-width:0.5;" x1="108.65" x2="214.7271" y1="570" y2="570"/><line style="stroke:#E7E7E7;stroke-width:0.5;" x1="108.65" x2="214.7271" y1="578" y2="578"/></g><!--class Examen--><g class="entity" data-entity="Examen" data-source-line="8" data-uid="ent0009" id="entity_Examen"><rect fill="#313139" height="48" rx="2.5" ry="2.5" style="stroke:#E7E7E7;stroke-width:0.5;" width="88.834" x="110.27" y="663"/><ellipse cx="125.27" cy="679" fill="#2E5233" rx="11" ry="11" style="stroke:#E7E7E7;stroke-width:1;"/><path d="M128.2387,684.6406 Q127.6606,684.9375 127.02,685.0781 Q126.3794,685.2344 125.6763,685.2344 Q123.1763,685.2344 121.8481,683.5938 Q120.5356,681.9375 120.5356,678.8125 Q120.5356,675.6875 121.8481,674.0313 Q123.1763,672.375 125.6763,672.375 Q126.3794,672.375 127.02,672.5313 Q127.6763,672.6875 128.2387,672.9844 L128.2387,675.7031 Q127.6138,675.125 127.02,674.8594 Q126.4263,674.5781 125.8013,674.5781 Q124.4575,674.5781 123.77,675.6563 Q123.0825,676.7188 123.0825,678.8125 Q123.0825,680.9063 123.77,681.9844 Q124.4575,683.0469 125.8013,683.0469 Q126.4263,683.0469 127.02,682.7813 Q127.6138,682.5 128.2387,681.9219 L128.2387,684.6406 Z " fill="#FFFFFF"/><text fill="#FFFFFF" font-family="sans-serif" font-size="14" lengthAdjust="spacing" textLength="56.834" x="139.27" y="683.8467">Examen</text><line style="stroke:#E7E7E7;stroke-width:0.5;" x1="111.27" x2="198.104" y1="695" y2="695"/><line style="stroke:#E7E7E7;stroke-width:0.5;" x1="111.27" x2="198.104" y1="703" y2="703"/></g><!--class Tema--><g class="entity" data-entity="Tema" data-source-line="9" data-uid="ent0010" id="entity_Tema"><rect fill="#313139" height="48" rx="2.5" ry="2.5" style="stroke:#E7E7E7;stroke-width:0.5;" width="71.3818" x="7" y="460"/><ellipse cx="22" cy="476" fill="#2E5233" rx="11" ry="11" style="stroke:#E7E7E7;stroke-width:1;"/><path d="M24.9688,481.6406 Q24.3906,481.9375 23.75,482.0781 Q23.1094,482.2344 22.4063,482.2344 Q19.9063,482.2344 18.5781,480.5938 Q17.2656,478.9375 17.2656,475.8125 Q17.2656,472.6875 18.5781,471.0313 Q19.9063,469.375 22.4063,469.375 Q23.1094,469.375 23.75,469.5313 Q24.4063,469.6875 24.9688,469.9844 L24.9688,472.7031 Q24.3438,472.125 23.75,471.8594 Q23.1563,471.5781 22.5313,471.5781 Q21.1875,471.5781 20.5,472.6563 Q19.8125,473.7188 19.8125,475.8125 Q19.8125,477.9063 20.5,478.9844 Q21.1875,480.0469 22.5313,480.0469 Q23.1563,480.0469 23.75,479.7813 Q24.3438,479.5 24.9688,478.9219 L24.9688,481.6406 Z " fill="#FFFFFF"/><text fill="#FFFFFF" font-family="sans-serif" font-size="14" lengthAdjust="spacing" textLength="39.3818" x="36" y="480.8467">Tema</text><line style="stroke:#E7E7E7;stroke-width:0.5;" x1="8" x2="77.3818" y1="492" y2="492"/><line style="stroke:#E7E7E7;stroke-width:0.5;" x1="8" x2="77.3818" y1="500" y2="500"/></g><!--class BateriaDePreguntas--><g class="entity" data-entity="BateriaDePreguntas" data-source-line="10" data-uid="ent0011" id="entity_BateriaDePreguntas"><rect fill="#313139" height="48" rx="2.5" ry="2.5" style="stroke:#E7E7E7;stroke-width:0.5;" width="172.7109" x="234.34" y="663"/><ellipse cx="249.34" cy="679" fill="#2E5233" rx="11" ry="11" style="stroke:#E7E7E7;stroke-width:1;"/><path d="M252.3088,684.6406 Q251.7306,684.9375 251.09,685.0781 Q250.4494,685.2344 249.7463,685.2344 Q247.2463,685.2344 245.9181,683.5938 Q244.6056,681.9375 244.6056,678.8125 Q244.6056,675.6875 245.9181,674.0313 Q247.2463,672.375 249.7463,672.375 Q250.4494,672.375 251.09,672.5313 Q251.7463,672.6875 252.3088,672.9844 L252.3088,675.7031 Q251.6838,675.125 251.09,674.8594 Q250.4963,674.5781 249.8713,674.5781 Q248.5275,674.5781 247.84,675.6563 Q247.1525,676.7188 247.1525,678.8125 Q247.1525,680.9063 247.84,681.9844 Q248.5275,683.0469 249.8713,683.0469 Q250.4963,683.0469 251.09,682.7813 Q251.6838,682.5 252.3088,681.9219 L252.3088,684.6406 Z " fill="#FFFFFF"/><text fill="#FFFFFF" font-family="sans-serif" font-size="14" lengthAdjust="spacing" textLength="140.7109" x="263.34" y="683.8467">BateriaDePreguntas</text><line style="stroke:#E7E7E7;stroke-width:0.5;" x1="235.34" x2="406.0509" y1="695" y2="695"/><line style="stroke:#E7E7E7;stroke-width:0.5;" x1="235.34" x2="406.0509" y1="703" y2="703"/></g><!--class ModeloCorrecci?n--><g class="entity" data-entity="ModeloCorrecci.n" data-source-line="11" data-uid="ent0012" id="entity_ModeloCorrecci.n"><rect fill="#313139" height="48" rx="2.5" ry="2.5" style="stroke:#E7E7E7;stroke-width:0.5;" width="157.7881" x="48.8" y="788"/><ellipse cx="63.8" cy="804" fill="#2E5233" rx="11" ry="11" style="stroke:#E7E7E7;stroke-width:1;"/><path d="M66.7688,809.6406 Q66.1906,809.9375 65.55,810.0781 Q64.9094,810.2344 64.2063,810.2344 Q61.7063,810.2344 60.3781,808.5938 Q59.0656,806.9375 59.0656,803.8125 Q59.0656,800.6875 60.3781,799.0313 Q61.7063,797.375 64.2063,797.375 Q64.9094,797.375 65.55,797.5313 Q66.2063,797.6875 66.7688,797.9844 L66.7688,800.7031 Q66.1438,800.125 65.55,799.8594 Q64.9563,799.5781 64.3313,799.5781 Q62.9875,799.5781 62.3,800.6563 Q61.6125,801.7188 61.6125,803.8125 Q61.6125,805.9063 62.3,806.9844 Q62.9875,808.0469 64.3313,808.0469 Q64.9563,808.0469 65.55,807.7813 Q66.1438,807.5 66.7688,806.9219 L66.7688,809.6406 Z " fill="#FFFFFF"/><text fill="#FFFFFF" font-family="sans-serif" font-size="14" lengthAdjust="spacing" textLength="125.7881" x="77.8" y="808.8467">ModeloCorrecci&#243;n</text><line style="stroke:#E7E7E7;stroke-width:0.5;" x1="49.8" x2="205.5881" y1="820" y2="820"/><line style="stroke:#E7E7E7;stroke-width:0.5;" x1="49.8" x2="205.5881" y1="828" y2="828"/></g><!--reverse link Universidad to Grado--><g class="link" data-entity-1="Universidad" data-entity-2="Grado" data-source-line="14" data-uid="lnk13" id="link_Universidad_Grado"><path codeLine="14" d="M283.6106,64.6577 C265.4606,86.5477 246.17,109.8 228.04,131.66" fill="none" id="Universidad-backto-Grado" style="stroke:#E7E7E7;stroke-width:1;"/><polygon fill="#E7E7E7" points="291.27,55.42,284.3611,57.4857,283.6106,64.6577,290.5195,62.5919,291.27,55.42" style="stroke:#E7E7E7;stroke-width:1;"/><text fill="#FFFFFF" font-family="sans-serif" font-size="13" lengthAdjust="spacing" textLength="32.9443" x="266.69" y="98.0669">tiene</text><text fill="#FFFFFF" font-family="sans-serif" font-size="13" lengthAdjust="spacing" textLength="8.271" x="277.8854" y="74.8838">1</text><text fill="#FFFFFF" font-family="sans-serif" font-size="13" lengthAdjust="spacing" textLength="36.5625" x="192.4381" y="120.9821">many</text></g><!--reverse link Universidad to Profesor--><g class="link" data-entity-1="Universidad" data-entity-2="Profesor" data-source-line="15" data-uid="lnk14" id="link_Universidad_Profesor"><path codeLine="15" d="M325.788,66.3607 C347.338,116.3807 391.68,227.14 408.69,335 C411.14,350.55 408.39,368.05 405.03,381.67" fill="none" id="Universidad-backto-Profesor" style="stroke:#E7E7E7;stroke-width:1;"/><polygon fill="none" points="321.04,55.34,319.7404,62.433,325.788,66.3607,327.0876,59.2677,321.04,55.34" style="stroke:#E7E7E7;stroke-width:1;"/><text fill="#FFFFFF" font-family="sans-serif" font-size="13" lengthAdjust="spacing" textLength="54.812" x="382.69" y="223.0669">contrata</text><text fill="#FFFFFF" font-family="sans-serif" font-size="13" lengthAdjust="spacing" textLength="36.5625" x="328.0188" y="75.1841">many</text><text fill="#FFFFFF" font-family="sans-serif" font-size="13" lengthAdjust="spacing" textLength="36.5625" x="366.5001" y="370.9945">many</text></g><!--reverse link Grado to Alumno--><g class="link" data-entity-1="Grado" data-entity-2="Alumno" data-source-line="16" data-uid="lnk15" id="link_Grado_Alumno"><path codeLine="16" d="M160.3109,178.4545 C128.1209,194.5045 94.67,217.17 74.69,257 C55.71,294.84 61.96,314.54 81.69,352 C87.61,363.24 96.87,373.37 106.21,381.69" fill="none" id="Grado-backto-Alumno" style="stroke:#E7E7E7;stroke-width:1;"/><polygon fill="none" points="171.05,173.1,163.8956,172.1976,160.3109,178.4545,167.4653,179.357,171.05,173.1" style="stroke:#E7E7E7;stroke-width:1;"/><text fill="#FFFFFF" font-family="sans-serif" font-size="13" lengthAdjust="spacing" textLength="61.6484" x="75.69" y="285.5669">matricula</text><text fill="#FFFFFF" font-family="sans-serif" font-size="13" lengthAdjust="spacing" textLength="8.271" x="155.1386" y="172.0096">1</text><text fill="#FFFFFF" font-family="sans-serif" font-size="13" lengthAdjust="spacing" textLength="36.5625" x="57.9745" y="371.0194">many</text></g><!--reverse link Grado to Asignatura--><g class="link" data-entity-1="Grado" data-entity-2="Asignatura" data-source-line="17" data-uid="lnk16" id="link_Grado_Asignatura"><path codeLine="17" d="M208.69,192.42 C208.69,214.31 208.69,234.8 208.69,256.66" fill="none" id="Grado-backto-Asignatura" style="stroke:#E7E7E7;stroke-width:1;"/><polygon fill="none" points="208.69,180.42,204.69,186.42,208.69,192.42,212.69,186.42,208.69,180.42" style="stroke:#E7E7E7;stroke-width:1;"/><text fill="#FFFFFF" font-family="sans-serif" font-size="13" lengthAdjust="spacing" textLength="56.2847" x="209.69" y="223.0669">contiene</text><text fill="#FFFFFF" font-family="sans-serif" font-size="13" lengthAdjust="spacing" textLength="36.5625" x="168.593" y="199.8838">many</text><text fill="#FFFFFF" font-family="sans-serif" font-size="13" lengthAdjust="spacing" textLength="36.5625" x="168.3714" y="245.9821">many</text></g><!--reverse link Asignatura to Profesor--><g class="link" data-entity-1="Asignatura" data-entity-2="Profesor" data-source-line="18" data-uid="lnk17" id="link_Asignatura_Profesor"><path codeLine="18" d="M249.6204,312.5652 C268.6204,326.5252 283.86,337.24 306.69,352 C322.35,362.12 339.98,372.59 355.52,381.53" fill="none" id="Asignatura-backto-Profesor" style="stroke:#E7E7E7;stroke-width:1;"/><polygon fill="none" points="239.95,305.46,242.4168,312.2361,249.6204,312.5652,247.1536,305.7891,239.95,305.46" style="stroke:#E7E7E7;stroke-width:1;"/><text fill="#FFFFFF" font-family="sans-serif" font-size="13" lengthAdjust="spacing" textLength="96.0908" x="307.69" y="348.0669">tiene asignado</text><text fill="#FFFFFF" font-family="sans-serif" font-size="13" lengthAdjust="spacing" textLength="36.5625" x="207.0818" y="324.933">many</text><text fill="#FFFFFF" font-family="sans-serif" font-size="13" lengthAdjust="spacing" textLength="8.271" x="336.299" y="370.8204">1</text></g><!--reverse link Asignatura to Alumno--><g class="link" data-entity-1="Asignatura" data-entity-2="Alumno" data-source-line="19" data-uid="lnk18" id="link_Asignatura_Alumno"><path codeLine="19" d="M189.4238,315.8489 C176.9638,337.7389 164.41,359.8 151.97,381.66" fill="none" id="Asignatura-backto-Alumno" style="stroke:#E7E7E7;stroke-width:1;"/><polygon fill="none" points="195.36,305.42,188.9156,308.6557,189.4238,315.8489,195.8682,312.6132,195.36,305.42" style="stroke:#E7E7E7;stroke-width:1;"/><text fill="#FFFFFF" font-family="sans-serif" font-size="13" lengthAdjust="spacing" textLength="35.4707" x="179.69" y="348.0669">cursa</text><text fill="#FFFFFF" font-family="sans-serif" font-size="13" lengthAdjust="spacing" textLength="36.5625" x="152.1803" y="324.8838">many</text><text fill="#FFFFFF" font-family="sans-serif" font-size="13" lengthAdjust="spacing" textLength="36.5625" x="114.8885" y="370.9821">many</text></g><!--reverse link Asignatura to Evaluacion--><g class="link" data-entity-1="Asignatura" data-entity-2="Evaluacion" data-source-line="20" data-uid="lnk19" id="link_Asignatura_Evaluacion"><path codeLine="20" d="M220.3129,316.9334 C223.0729,326.0334 222.32,325.15 223.69,335 C224.73,342.48 224.36,344.47 223.69,352 C217.44,422.16 221.43,442.43 195.69,508 C191.66,518.28 185.51,528.7 179.55,537.54" fill="none" id="Asignatura-backto-Evaluacion" style="stroke:#E7E7E7;stroke-width:1;"/><polygon fill="#E7E7E7" points="216.83,305.45,214.7436,312.3527,220.3129,316.9334,222.3993,310.0308,216.83,305.45" style="stroke:#E7E7E7;stroke-width:1;"/><text fill="#FFFFFF" font-family="sans-serif" font-size="13" lengthAdjust="spacing" textLength="32.9443" x="222.69" y="410.5669">tiene</text><text fill="#FFFFFF" font-family="sans-serif" font-size="13" lengthAdjust="spacing" textLength="8.271" x="214.4971" y="325.0636">1</text><text fill="#FFFFFF" font-family="sans-serif" font-size="13" lengthAdjust="spacing" textLength="36.5625" x="143.5848" y="526.8328">many</text></g><!--reverse link Evaluacion to Examen--><g class="link" data-entity-1="Evaluacion" data-entity-2="Examen" data-source-line="21" data-uid="lnk20" id="link_Evaluacion_Examen"><path codeLine="21" d="M159.6759,598.4005 C158.4259,620.2905 157.26,640.8 156.02,662.66" fill="none" id="Evaluacion-backto-Examen" style="stroke:#E7E7E7;stroke-width:1;"/><polygon fill="#E7E7E7" points="160.36,586.42,156.0244,592.1822,159.6759,598.4005,164.0114,592.6383,160.36,586.42" style="stroke:#E7E7E7;stroke-width:1;"/><text fill="#FFFFFF" font-family="sans-serif" font-size="13" lengthAdjust="spacing" textLength="35.3818" x="159.69" y="629.0669">es un</text></g><!--reverse link Examen to Pregunta--><g class="link" data-entity-1="Examen" data-entity-2="Pregunta" data-source-line="22" data-uid="lnk21" id="link_Examen_Pregunta"><path codeLine="22" d="M189.2694,719.5029 C213.2894,741.3929 240.09,765.8 264.08,787.66" fill="none" id="Examen-backto-Pregunta" style="stroke:#E7E7E7;stroke-width:1;"/><polygon fill="none" points="180.4,711.42,182.1404,718.4179,189.2694,719.5029,187.529,712.505,180.4,711.42" style="stroke:#E7E7E7;stroke-width:1;"/><text fill="#FFFFFF" font-family="sans-serif" font-size="13" lengthAdjust="spacing" textLength="56.2847" x="231.69" y="754.0669">contiene</text><text fill="#FFFFFF" font-family="sans-serif" font-size="13" lengthAdjust="spacing" textLength="36.5625" x="146.2487" y="730.8838">many</text><text fill="#FFFFFF" font-family="sans-serif" font-size="13" lengthAdjust="spacing" textLength="36.5625" x="217.5195" y="776.9821">many</text></g><!--reverse link Asignatura to Tema--><g class="link" data-entity-1="Asignatura" data-entity-2="Tema" data-source-line="23" data-uid="lnk22" id="link_Asignatura_Tema"><path codeLine="23" d="M143.5474,306.7495 C125.8674,315.0495 117.99,321 103.69,335 C68.44,369.51 52.75,427.31 46.44,459.52" fill="none" id="Asignatura-backto-Tema" style="stroke:#E7E7E7;stroke-width:1;"/><polygon fill="#E7E7E7" points="154.41,301.65,147.2789,300.5789,143.5474,306.7495,150.6786,307.8206,154.41,301.65" style="stroke:#E7E7E7;stroke-width:1;"/><text fill="#FFFFFF" font-family="sans-serif" font-size="13" lengthAdjust="spacing" textLength="56.2847" x="104.69" y="348.0669">contiene</text><text fill="#FFFFFF" font-family="sans-serif" font-size="13" lengthAdjust="spacing" textLength="8.271" x="138.597" y="300.4928">1</text><text fill="#FFFFFF" font-family="sans-serif" font-size="13" lengthAdjust="spacing" textLength="36.5625" x="7.0349" y="448.808">many</text></g><!--reverse link Tema to Pregunta--><g class="link" data-entity-1="Tema" data-entity-2="Pregunta" data-source-line="24" data-uid="lnk23" id="link_Tema_Pregunta"><path codeLine="24" d="M40.716,520.231 C38.616,574.501 42.47,697.52 121.69,758 C159.25,786.67 178.7,773.55 223.69,788 C229.47,789.85 235.51,791.86 241.48,793.89" fill="none" id="Tema-backto-Pregunta" style="stroke:#E7E7E7;stroke-width:1;"/><polygon fill="#E7E7E7" points="41.18,508.24,36.951,514.0808,40.716,520.231,44.945,514.3902,41.18,508.24" style="stroke:#E7E7E7;stroke-width:1;"/><text fill="#FFFFFF" font-family="sans-serif" font-size="13" lengthAdjust="spacing" textLength="77.2954" x="52.69" y="629.0669">forma parte</text><text fill="#FFFFFF" font-family="sans-serif" font-size="13" lengthAdjust="spacing" textLength="8.271" x="31.8697" y="528.0597">1</text><text fill="#FFFFFF" font-family="sans-serif" font-size="13" lengthAdjust="spacing" textLength="36.5625" x="214.7768" y="802.3431">many</text></g><!--reverse link Alumno to Evaluacion--><g class="link" data-entity-1="Alumno" data-entity-2="Evaluacion" data-source-line="25" data-uid="lnk24" id="link_Alumno_Evaluacion"><path codeLine="25" d="M143.9543,442.2581 C148.2943,471.2881 153.87,508.63 158.2,537.64" fill="none" id="Alumno-backto-Evaluacion" style="stroke:#E7E7E7;stroke-width:1;"/><polygon fill="none" points="142.18,430.39,139.1111,436.9155,143.9543,442.2581,147.0232,435.7326,142.18,430.39" style="stroke:#E7E7E7;stroke-width:1;"/><text fill="#FFFFFF" font-family="sans-serif" font-size="13" lengthAdjust="spacing" textLength="32.9443" x="154.69" y="488.5669">tiene</text><text fill="#FFFFFF" font-family="sans-serif" font-size="13" lengthAdjust="spacing" textLength="36.5625" x="102.7122" y="450.2463">many</text><text fill="#FFFFFF" font-family="sans-serif" font-size="13" lengthAdjust="spacing" textLength="36.5625" x="117.0307" y="526.9572">many</text></g><!--reverse link BateriaDePreguntas to Pregunta--><g class="link" data-entity-1="BateriaDePreguntas" data-entity-2="Pregunta" data-source-line="26" data-uid="lnk25" id="link_BateriaDePreguntas_Pregunta"><path codeLine="26" d="M311.8558,723.0557 C306.3358,744.9457 301.08,765.8 295.57,787.66" fill="none" id="BateriaDePreguntas-backto-Pregunta" style="stroke:#E7E7E7;stroke-width:1;"/><polygon fill="#E7E7E7" points="314.79,711.42,309.4443,716.2598,311.8558,723.0557,317.2015,718.2159,314.79,711.42" style="stroke:#E7E7E7;stroke-width:1;"/><text fill="#FFFFFF" font-family="sans-serif" font-size="13" lengthAdjust="spacing" textLength="77.2954" x="307.69" y="754.0669">forma parte</text><text fill="#FFFFFF" font-family="sans-serif" font-size="13" lengthAdjust="spacing" textLength="8.271" x="304.5307" y="730.8838">1</text><text fill="#FFFFFF" font-family="sans-serif" font-size="13" lengthAdjust="spacing" textLength="36.5625" x="301.4602" y="776.9821">many</text></g><!--reverse link Examen to ModeloCorrecci?n--><g class="link" data-entity-1="Examen" data-entity-2="ModeloCorrecci.n" data-source-line="27" data-uid="lnk26" id="link_Examen_ModeloCorrecci.n"><path codeLine="27" d="M137.4043,722.2915 C133.2543,731.3115 134.08,730.95 131.69,741 C128.06,756.28 127.07,773.93 126.99,787.69" fill="none" id="Examen-backto-ModeloCorrecci&#243;n" style="stroke:#E7E7E7;stroke-width:1;"/><polygon fill="#E7E7E7" points="142.42,711.39,136.2783,715.1689,137.4043,722.2915,143.546,718.5126,142.42,711.39" style="stroke:#E7E7E7;stroke-width:1;"/><text fill="#FFFFFF" font-family="sans-serif" font-size="13" lengthAdjust="spacing" textLength="32.9443" x="132.69" y="754.0669">tiene</text><text fill="#FFFFFF" font-family="sans-serif" font-size="13" lengthAdjust="spacing" textLength="8.271" x="130.4879" y="731.2463">1</text><text fill="#FFFFFF" font-family="sans-serif" font-size="13" lengthAdjust="spacing" textLength="8.271" x="117.8764" y="777.0194">1</text></g><!--SRC=[ZPB1JiCm38RlUOgeHwGTTkK60t52uW0FOANU52c9aPDCy5my0Yz6cZHjicuIfzRsP_kt7MN0U_dXz1dPwn56ALHslJ4TqHFFvWl3IFF_WzSd1o4oL8U9rj6IYAVeGeqzdy54K9fSTNo1nMgyewtW8mHa3KzO2tXno85N6j7GWPXHAVtxuuGGhU1XFyYxtKuE5jptK9JAUnaqEkp10j3ArY4JhiW5XYIxv4z56x1Cc30BWRMAPk4sDTVjp5MpZiRRfkmx3HcLaD6qxHiv5ufKP0yTs-zZFS2obCOrWUKYAOfUHYTcyzgsoc5kpTNtdKxRajc-O9gAH-8K_mGEgMYPRQlWoYpRP_FF9dNC2gVlvgNLBdy0]--></g></svg>