<svg xmlns="http://www.w3.org/2000/svg" xmlns:xlink="http://www.w3.org/1999/xlink" contentStyleType="text/css" data-diagram-type="CLASS" height="491px" preserveAspectRatio="none" style="width:923px;height:491px;background:#FFFFFF;" version="1.1" viewBox="0 0 923 491" width="923px" zoomAndPan="magnify"><defs/><g><!--class Examen--><g class="entity" data-entity="Examen" data-source-line="1" data-uid="ent0002" id="entity_Examen"><rect fill="#F1F1F1" height="80.5938" rx="2.5" ry="2.5" style="stroke:#181818;stroke-width:0.5;" width="140.625" x="375.9" y="7"/><ellipse cx="414.206" cy="23" fill="#ADD1B2" rx="11" ry="11" style="stroke:#181818;stroke-width:1;"/><path d="M417.1747,28.6406 Q416.5966,28.9375 415.956,29.0781 Q415.3153,29.2344 414.6122,29.2344 Q412.1122,29.2344 410.7841,27.5938 Q409.4716,25.9375 409.4716,22.8125 Q409.4716,19.6875 410.7841,18.0313 Q412.1122,16.375 414.6122,16.375 Q415.3153,16.375 415.956,16.5313 Q416.6122,16.6875 417.1747,16.9844 L417.1747,19.7031 Q416.5497,19.125 415.956,18.8594 Q415.3622,18.5781 414.7372,18.5781 Q413.3935,18.5781 412.706,19.6563 Q412.0185,20.7188 412.0185,22.8125 Q412.0185,24.9063 412.706,25.9844 Q413.3935,27.0469 414.7372,27.0469 Q415.3622,27.0469 415.956,26.7813 Q416.5497,26.5 417.1747,25.9219 L417.1747,28.6406 Z " fill="#000000"/><text fill="#000000" font-family="sans-serif" font-size="14" lengthAdjust="spacing" textLength="56.834" x="433.3851" y="27.8467">Examen</text><line style="stroke:#181818;stroke-width:0.5;" x1="376.9" x2="515.525" y1="39" y2="39"/><rect fill="none" height="6" style="stroke:#C82930;stroke-width:1;" width="6" x="383.9" y="49.6484"/><text fill="#000000" font-family="sans-serif" font-size="14" lengthAdjust="spacing" textLength="75.8447" x="395.9" y="55.9951">evaluaci&#243;n</text><rect fill="none" height="6" style="stroke:#C82930;stroke-width:1;" width="6" x="383.9" y="65.9453"/><text fill="#000000" font-family="sans-serif" font-size="14" lengthAdjust="spacing" textLength="114.625" x="395.9" y="72.292">clave correcci&#243;n</text><line style="stroke:#181818;stroke-width:0.5;" x1="376.9" x2="515.525" y1="79.5938" y2="79.5938"/></g><!--class Asignatura--><g class="entity" data-entity="Asignatura" data-source-line="5" data-uid="ent0003" id="entity_Asignatura"><rect fill="#F1F1F1" height="80.5938" rx="2.5" ry="2.5" style="stroke:#181818;stroke-width:0.5;" width="107.7969" x="392.31" y="197.19"/><ellipse cx="407.31" cy="213.19" fill="#ADD1B2" rx="11" ry="11" style="stroke:#181818;stroke-width:1;"/><path d="M410.2788,218.8306 Q409.7006,219.1275 409.06,219.2681 Q408.4194,219.4244 407.7163,219.4244 Q405.2163,219.4244 403.8881,217.7838 Q402.5756,216.1275 402.5756,213.0025 Q402.5756,209.8775 403.8881,208.2213 Q405.2163,206.565 407.7163,206.565 Q408.4194,206.565 409.06,206.7213 Q409.7163,206.8775 410.2788,207.1744 L410.2788,209.8931 Q409.6538,209.315 409.06,209.0494 Q408.4663,208.7681 407.8413,208.7681 Q406.4975,208.7681 405.81,209.8463 Q405.1225,210.9088 405.1225,213.0025 Q405.1225,215.0963 405.81,216.1744 Q406.4975,217.2369 407.8413,217.2369 Q408.4663,217.2369 409.06,216.9713 Q409.6538,216.69 410.2788,216.1119 L410.2788,218.8306 Z " fill="#000000"/><text fill="#000000" font-family="sans-serif" font-size="14" lengthAdjust="spacing" textLength="75.7969" x="421.31" y="218.0367">Asignatura</text><line style="stroke:#181818;stroke-width:0.5;" x1="393.31" x2="499.1069" y1="229.19" y2="229.19"/><rect fill="none" height="6" style="stroke:#C82930;stroke-width:1;" width="6" x="400.31" y="239.8384"/><text fill="#000000" font-family="sans-serif" font-size="14" lengthAdjust="spacing" textLength="36.1963" x="412.31" y="246.1851">t&#237;tulo</text><rect fill="none" height="6" style="stroke:#C82930;stroke-width:1;" width="6" x="400.31" y="256.1353"/><text fill="#000000" font-family="sans-serif" font-size="14" lengthAdjust="spacing" textLength="46.4912" x="412.31" y="262.482">c&#243;digo</text><line style="stroke:#181818;stroke-width:0.5;" x1="393.31" x2="499.1069" y1="269.7838" y2="269.7838"/></g><!--class Pregunta--><g class="entity" data-entity="Pregunta" data-source-line="9" data-uid="ent0004" id="entity_Pregunta"><rect fill="#F1F1F1" height="145.7813" rx="2.5" ry="2.5" style="stroke:#181818;stroke-width:0.5;" width="162.2334" x="7.09" y="164.6"/><ellipse cx="52.2004" cy="180.6" fill="#ADD1B2" rx="11" ry="11" style="stroke:#181818;stroke-width:1;"/><path d="M55.1691,186.2406 Q54.591,186.5375 53.9504,186.6781 Q53.3097,186.8344 52.6066,186.8344 Q50.1066,186.8344 48.7785,185.1937 Q47.466,183.5375 47.466,180.4125 Q47.466,177.2875 48.7785,175.6312 Q50.1066,173.975 52.6066,173.975 Q53.3097,173.975 53.9504,174.1312 Q54.6066,174.2875 55.1691,174.5844 L55.1691,177.3031 Q54.5441,176.725 53.9504,176.4594 Q53.3566,176.1781 52.7316,176.1781 Q51.3879,176.1781 50.7004,177.2562 Q50.0129,178.3187 50.0129,180.4125 Q50.0129,182.5062 50.7004,183.5844 Q51.3879,184.6469 52.7316,184.6469 Q53.3566,184.6469 53.9504,184.3812 Q54.5441,184.1 55.1691,183.5219 L55.1691,186.2406 Z " fill="#000000"/><text fill="#000000" font-family="sans-serif" font-size="14" lengthAdjust="spacing" textLength="63.5127" x="72.7004" y="185.4467">Pregunta</text><line style="stroke:#181818;stroke-width:0.5;" x1="8.09" x2="168.3234" y1="196.6" y2="196.6"/><rect fill="none" height="6" style="stroke:#C82930;stroke-width:1;" width="6" x="15.09" y="207.2484"/><text fill="#000000" font-family="sans-serif" font-size="14" lengthAdjust="spacing" textLength="74.7988" x="27.09" y="213.5951">asignatura</text><rect fill="none" height="6" style="stroke:#C82930;stroke-width:1;" width="6" x="15.09" y="223.5453"/><text fill="#000000" font-family="sans-serif" font-size="14" lengthAdjust="spacing" textLength="36.3193" x="27.09" y="229.892">tema</text><rect fill="none" height="6" style="stroke:#C82930;stroke-width:1;" width="6" x="15.09" y="239.8422"/><text fill="#000000" font-family="sans-serif" font-size="14" lengthAdjust="spacing" textLength="72.8506" x="27.09" y="246.1889">enunciado</text><rect fill="none" height="6" style="stroke:#C82930;stroke-width:1;" width="6" x="15.09" y="256.1391"/><text fill="#000000" font-family="sans-serif" font-size="14" lengthAdjust="spacing" textLength="136.2334" x="27.09" y="262.4857">opciones respuesta</text><rect fill="none" height="6" style="stroke:#C82930;stroke-width:1;" width="6" x="15.09" y="272.4359"/><text fill="#000000" font-family="sans-serif" font-size="14" lengthAdjust="spacing" textLength="132.002" x="27.09" y="278.7826">respuesta correcta</text><rect fill="none" height="6" style="stroke:#C82930;stroke-width:1;" width="6" x="15.09" y="288.7328"/><text fill="#000000" font-family="sans-serif" font-size="14" lengthAdjust="spacing" textLength="65.0098" x="27.09" y="295.0795">dificultad</text><line style="stroke:#181818;stroke-width:0.5;" x1="8.09" x2="168.3234" y1="302.3812" y2="302.3812"/></g><!--class BateriaDePreguntas--><g class="entity" data-entity="BateriaDePreguntas" data-source-line="17" data-uid="ent0005" id="entity_BateriaDePreguntas"><rect fill="#F1F1F1" height="48" rx="2.5" ry="2.5" style="stroke:#181818;stroke-width:0.5;" width="172.7109" x="242.85" y="411.82"/><ellipse cx="257.85" cy="427.82" fill="#ADD1B2" rx="11" ry="11" style="stroke:#181818;stroke-width:1;"/><path d="M260.8188,433.4606 Q260.2406,433.7575 259.6,433.8981 Q258.9594,434.0544 258.2563,434.0544 Q255.7563,434.0544 254.4281,432.4138 Q253.1156,430.7575 253.1156,427.6325 Q253.1156,424.5075 254.4281,422.8513 Q255.7563,421.195 258.2563,421.195 Q258.9594,421.195 259.6,421.3513 Q260.2563,421.5075 260.8188,421.8044 L260.8188,424.5231 Q260.1938,423.945 259.6,423.6794 Q259.0063,423.3981 258.3813,423.3981 Q257.0375,423.3981 256.35,424.4763 Q255.6625,425.5388 255.6625,427.6325 Q255.6625,429.7263 256.35,430.8044 Q257.0375,431.8669 258.3813,431.8669 Q259.0063,431.8669 259.6,431.6013 Q260.1938,431.32 260.8188,430.7419 L260.8188,433.4606 Z " fill="#000000"/><text fill="#000000" font-family="sans-serif" font-size="14" lengthAdjust="spacing" textLength="140.7109" x="271.85" y="432.6667">BateriaDePreguntas</text><line style="stroke:#181818;stroke-width:0.5;" x1="243.85" x2="414.5609" y1="443.82" y2="443.82"/><line style="stroke:#181818;stroke-width:0.5;" x1="243.85" x2="414.5609" y1="451.82" y2="451.82"/></g><!--class ModeloCorrecci?n--><g class="entity" data-entity="ModeloCorrecci.n" data-source-line="19" data-uid="ent0006" id="entity_ModeloCorrecci.n"><rect fill="#F1F1F1" height="64.2969" rx="2.5" ry="2.5" style="stroke:#181818;stroke-width:0.5;" width="232.3564" x="617.03" y="15.15"/><ellipse cx="666.0642" cy="31.15" fill="#ADD1B2" rx="11" ry="11" style="stroke:#181818;stroke-width:1;"/><path d="M669.0329,36.7906 Q668.4548,37.0875 667.8142,37.2281 Q667.1736,37.3844 666.4704,37.3844 Q663.9704,37.3844 662.6423,35.7437 Q661.3298,34.0875 661.3298,30.9625 Q661.3298,27.8375 662.6423,26.1812 Q663.9704,24.525 666.4704,24.525 Q667.1736,24.525 667.8142,24.6812 Q668.4704,24.8375 669.0329,25.1344 L669.0329,27.8531 Q668.4079,27.275 667.8142,27.0094 Q667.2204,26.7281 666.5954,26.7281 Q665.2517,26.7281 664.5642,27.8062 Q663.8767,28.8687 663.8767,30.9625 Q663.8767,33.0562 664.5642,34.1344 Q665.2517,35.1969 666.5954,35.1969 Q667.2204,35.1969 667.8142,34.9312 Q668.4079,34.65 669.0329,34.0719 L669.0329,36.7906 Z " fill="#000000"/><text fill="#000000" font-family="sans-serif" font-size="14" lengthAdjust="spacing" textLength="125.7881" x="686.5642" y="35.9967">ModeloCorrecci&#243;n</text><line style="stroke:#181818;stroke-width:0.5;" x1="618.03" x2="848.3864" y1="47.15" y2="47.15"/><rect fill="none" height="6" style="stroke:#C82930;stroke-width:1;" width="6" x="625.03" y="57.7984"/><text fill="#000000" font-family="sans-serif" font-size="14" lengthAdjust="spacing" textLength="206.3564" x="637.03" y="64.1451">orden concreto de soluciones</text><line style="stroke:#181818;stroke-width:0.5;" x1="618.03" x2="848.3864" y1="71.4469" y2="71.4469"/></g><!--class Grado--><g class="entity" data-entity="Grado" data-source-line="22" data-uid="ent0007" id="entity_Grado"><rect fill="#F1F1F1" height="80.5938" rx="2.5" ry="2.5" style="stroke:#181818;stroke-width:0.5;" width="74.6357" x="536.89" y="395.53"/><ellipse cx="551.89" cy="411.53" fill="#ADD1B2" rx="11" ry="11" style="stroke:#181818;stroke-width:1;"/><path d="M554.8588,417.1706 Q554.2806,417.4675 553.64,417.6081 Q552.9994,417.7644 552.2963,417.7644 Q549.7963,417.7644 548.4681,416.1238 Q547.1556,414.4675 547.1556,411.3425 Q547.1556,408.2175 548.4681,406.5613 Q549.7963,404.905 552.2963,404.905 Q552.9994,404.905 553.64,405.0613 Q554.2963,405.2175 554.8588,405.5144 L554.8588,408.2331 Q554.2338,407.655 553.64,407.3894 Q553.0463,407.1081 552.4213,407.1081 Q551.0775,407.1081 550.39,408.1863 Q549.7025,409.2488 549.7025,411.3425 Q549.7025,413.4363 550.39,414.5144 Q551.0775,415.5769 552.4213,415.5769 Q553.0463,415.5769 553.64,415.3113 Q554.2338,415.03 554.8588,414.4519 L554.8588,417.1706 Z " fill="#000000"/><text fill="#000000" font-family="sans-serif" font-size="14" lengthAdjust="spacing" textLength="42.6357" x="565.89" y="416.3767">Grado</text><line style="stroke:#181818;stroke-width:0.5;" x1="537.89" x2="610.5257" y1="427.53" y2="427.53"/><rect fill="none" height="6" style="stroke:#C82930;stroke-width:1;" width="6" x="544.89" y="438.1784"/><text fill="#000000" font-family="sans-serif" font-size="14" lengthAdjust="spacing" textLength="36.1963" x="556.89" y="444.5251">t&#237;tulo</text><rect fill="none" height="6" style="stroke:#C82930;stroke-width:1;" width="6" x="544.89" y="454.4753"/><text fill="#000000" font-family="sans-serif" font-size="14" lengthAdjust="spacing" textLength="46.4912" x="556.89" y="460.822">c&#243;digo</text><line style="stroke:#181818;stroke-width:0.5;" x1="537.89" x2="610.5257" y1="468.1238" y2="468.1238"/></g><!--class Profesor--><g class="entity" data-entity="Profesor" data-source-line="26" data-uid="ent0008" id="entity_Profesor"><rect fill="#F1F1F1" height="96.8906" rx="2.5" ry="2.5" style="stroke:#181818;stroke-width:0.5;" width="89.9209" x="234.25" y="189.04"/><ellipse cx="249.25" cy="205.04" fill="#ADD1B2" rx="11" ry="11" style="stroke:#181818;stroke-width:1;"/><path d="M252.2188,210.6806 Q251.6406,210.9775 251,211.1181 Q250.3594,211.2744 249.6563,211.2744 Q247.1563,211.2744 245.8281,209.6337 Q244.5156,207.9775 244.5156,204.8525 Q244.5156,201.7275 245.8281,200.0712 Q247.1563,198.415 249.6563,198.415 Q250.3594,198.415 251,198.5712 Q251.6563,198.7275 252.2188,199.0244 L252.2188,201.7431 Q251.5938,201.165 251,200.8994 Q250.4063,200.6181 249.7813,200.6181 Q248.4375,200.6181 247.75,201.6962 Q247.0625,202.7587 247.0625,204.8525 Q247.0625,206.9462 247.75,208.0244 Q248.4375,209.0869 249.7813,209.0869 Q250.4063,209.0869 251,208.8212 Q251.5938,208.54 252.2188,207.9619 L252.2188,210.6806 Z " fill="#000000"/><text fill="#000000" font-family="sans-serif" font-size="14" lengthAdjust="spacing" textLength="57.9209" x="263.25" y="209.8867">Profesor</text><line style="stroke:#181818;stroke-width:0.5;" x1="235.25" x2="323.1709" y1="221.04" y2="221.04"/><rect fill="none" height="6" style="stroke:#C82930;stroke-width:1;" width="6" x="242.25" y="231.6884"/><text fill="#000000" font-family="sans-serif" font-size="14" lengthAdjust="spacing" textLength="54.332" x="254.25" y="238.0351">nombre</text><rect fill="none" height="6" style="stroke:#C82930;stroke-width:1;" width="6" x="242.25" y="247.9853"/><text fill="#000000" font-family="sans-serif" font-size="14" lengthAdjust="spacing" textLength="62.4941" x="254.25" y="254.332">apellidos</text><rect fill="none" height="6" style="stroke:#C82930;stroke-width:1;" width="6" x="242.25" y="264.2822"/><text fill="#000000" font-family="sans-serif" font-size="14" lengthAdjust="spacing" textLength="25.3818" x="254.25" y="270.6289">DNI</text><line style="stroke:#181818;stroke-width:0.5;" x1="235.25" x2="323.1709" y1="277.9306" y2="277.9306"/></g><!--class Alumno--><g class="entity" data-entity="Alumno" data-source-line="31" data-uid="ent0009" id="entity_Alumno"><rect fill="#F1F1F1" height="96.8906" rx="2.5" ry="2.5" style="stroke:#181818;stroke-width:0.5;" width="88.4941" x="605.96" y="189.04"/><ellipse cx="622.3452" cy="205.04" fill="#ADD1B2" rx="11" ry="11" style="stroke:#181818;stroke-width:1;"/><path d="M625.3139,210.6806 Q624.7358,210.9775 624.0952,211.1181 Q623.4545,211.2744 622.7514,211.2744 Q620.2514,211.2744 618.9233,209.6337 Q617.6108,207.9775 617.6108,204.8525 Q617.6108,201.7275 618.9233,200.0712 Q620.2514,198.415 622.7514,198.415 Q623.4545,198.415 624.0952,198.5712 Q624.7514,198.7275 625.3139,199.0244 L625.3139,201.7431 Q624.6889,201.165 624.0952,200.8994 Q623.5014,200.6181 622.8764,200.6181 Q621.5327,200.6181 620.8452,201.6962 Q620.1577,202.7587 620.1577,204.8525 Q620.1577,206.9462 620.8452,208.0244 Q621.5327,209.0869 622.8764,209.0869 Q623.5014,209.0869 624.0952,208.8212 Q624.6889,208.54 625.3139,207.9619 L625.3139,210.6806 Z " fill="#000000"/><text fill="#000000" font-family="sans-serif" font-size="14" lengthAdjust="spacing" textLength="53.416" x="636.653" y="209.8867">Alumno</text><line style="stroke:#181818;stroke-width:0.5;" x1="606.96" x2="693.4541" y1="221.04" y2="221.04"/><rect fill="none" height="6" style="stroke:#C82930;stroke-width:1;" width="6" x="613.96" y="231.6884"/><text fill="#000000" font-family="sans-serif" font-size="14" lengthAdjust="spacing" textLength="54.332" x="625.96" y="238.0351">nombre</text><rect fill="none" height="6" style="stroke:#C82930;stroke-width:1;" width="6" x="613.96" y="247.9853"/><text fill="#000000" font-family="sans-serif" font-size="14" lengthAdjust="spacing" textLength="62.4941" x="625.96" y="254.332">apellidos</text><rect fill="none" height="6" style="stroke:#C82930;stroke-width:1;" width="6" x="613.96" y="264.2822"/><text fill="#000000" font-family="sans-serif" font-size="14" lengthAdjust="spacing" textLength="25.3818" x="625.96" y="270.6289">DNI</text><line style="stroke:#181818;stroke-width:0.5;" x1="606.96" x2="693.4541" y1="277.9306" y2="277.9306"/></g><!--class Evaluaci?nExamen--><g class="entity" data-entity="Evaluaci.nExamen" data-source-line="36" data-uid="ent0010" id="entity_Evaluaci.nExamen"><rect fill="#F1F1F1" height="129.4844" rx="2.5" ry="2.5" style="stroke:#181818;stroke-width:0.5;" width="186.7676" x="729.82" y="172.75"/><ellipse cx="754.6554" cy="188.75" fill="#EB937F" rx="11" ry="11" style="stroke:#181818;stroke-width:1;"/><path d="M758.7648,194.75 L751.046,194.75 L751.046,182.3594 L758.7648,182.3594 L758.7648,184.5156 L753.4992,184.5156 L753.4992,187.1875 L758.2648,187.1875 L758.2648,189.3438 L753.4992,189.3438 L753.4992,192.5938 L758.7648,192.5938 L758.7648,194.75 Z " fill="#000000"/><text fill="#000000" font-family="sans-serif" font-size="14" lengthAdjust="spacing" textLength="132.9111" x="770.841" y="193.5967">Evaluaci&#243;nExamen</text><line style="stroke:#181818;stroke-width:0.5;" x1="730.82" x2="915.5876" y1="204.75" y2="204.75"/><rect fill="none" height="6" style="stroke:#C82930;stroke-width:1;" width="6" x="737.82" y="215.3984"/><text fill="#000000" font-family="sans-serif" font-size="14" lengthAdjust="spacing" textLength="60.1904" x="749.82" y="221.7451">Parcial 1</text><rect fill="none" height="6" style="stroke:#C82930;stroke-width:1;" width="6" x="737.82" y="231.6953"/><text fill="#000000" font-family="sans-serif" font-size="14" lengthAdjust="spacing" textLength="60.1904" x="749.82" y="238.042">Parcial 2</text><rect fill="none" height="6" style="stroke:#C82930;stroke-width:1;" width="6" x="737.82" y="247.9922"/><text fill="#000000" font-family="sans-serif" font-size="14" lengthAdjust="spacing" textLength="60.1904" x="749.82" y="254.3389">Parcial 3</text><rect fill="none" height="6" style="stroke:#C82930;stroke-width:1;" width="6" x="737.82" y="264.2891"/><text fill="#000000" font-family="sans-serif" font-size="14" lengthAdjust="spacing" textLength="91.4443" x="749.82" y="270.6357">Examen final</text><rect fill="none" height="6" style="stroke:#C82930;stroke-width:1;" width="6" x="737.82" y="280.5859"/><text fill="#000000" font-family="sans-serif" font-size="14" lengthAdjust="spacing" textLength="160.7676" x="749.82" y="286.9326">Examen extraordinario</text><line style="stroke:#181818;stroke-width:0.5;" x1="730.82" x2="915.5876" y1="294.2344" y2="294.2344"/></g><!--class DificultadPregunta--><g class="entity" data-entity="DificultadPregunta" data-source-line="43" data-uid="ent0011" id="entity_DificultadPregunta"><rect fill="#F1F1F1" height="96.8906" rx="2.5" ry="2.5" style="stroke:#181818;stroke-width:0.5;" width="162.416" x="7" y="387.38"/><ellipse cx="22" cy="403.38" fill="#EB937F" rx="11" ry="11" style="stroke:#181818;stroke-width:1;"/><path d="M26.1094,409.38 L18.3906,409.38 L18.3906,396.9894 L26.1094,396.9894 L26.1094,399.1456 L20.8438,399.1456 L20.8438,401.8175 L25.6094,401.8175 L25.6094,403.9738 L20.8438,403.9738 L20.8438,407.2238 L26.1094,407.2238 L26.1094,409.38 Z " fill="#000000"/><text fill="#000000" font-family="sans-serif" font-size="14" lengthAdjust="spacing" textLength="130.416" x="36" y="408.2267">DificultadPregunta</text><line style="stroke:#181818;stroke-width:0.5;" x1="8" x2="168.416" y1="419.38" y2="419.38"/><rect fill="none" height="6" style="stroke:#C82930;stroke-width:1;" width="6" x="15" y="430.0284"/><text fill="#000000" font-family="sans-serif" font-size="14" lengthAdjust="spacing" textLength="28.9844" x="27" y="436.3751">facil</text><rect fill="none" height="6" style="stroke:#C82930;stroke-width:1;" width="6" x="15" y="446.3253"/><text fill="#000000" font-family="sans-serif" font-size="14" lengthAdjust="spacing" textLength="43.5928" x="27" y="452.672">medio</text><rect fill="none" height="6" style="stroke:#C82930;stroke-width:1;" width="6" x="15" y="462.6222"/><text fill="#000000" font-family="sans-serif" font-size="14" lengthAdjust="spacing" textLength="37.0713" x="27" y="468.9689">dificil</text><line style="stroke:#181818;stroke-width:0.5;" x1="8" x2="168.416" y1="476.2706" y2="476.2706"/></g><!--link Examen to Evaluaci?nExamen--><g class="link" data-entity-1="Examen" data-entity-2="Evaluaci.nExamen" data-source-line="49" data-uid="lnk12" id="link_Examen_Evaluaci.nExamen"><path codeLine="49" d="M516.85,75.52 C571.32,97.38 647.96,130.04 712.21,164.6 C717.87,167.64 723.62,170.88 729.37,174.24" fill="none" id="Examen-Evaluaci&#243;nExamen" style="stroke:#181818;stroke-width:1;stroke-dasharray:7,7;"/></g><!--reverse link Examen to Pregunta--><g class="link" data-entity-1="Examen" data-entity-2="Pregunta" data-source-line="50" data-uid="lnk14" id="link_Examen_Pregunta"><path codeLine="50" d="M364.8379,88.3786 C319.3279,111.0386 269.79,136.22 217.21,164.6 C201.75,172.94 185.33,181.96 169.57,190.71" fill="none" id="Examen-backto-Pregunta" style="stroke:#181818;stroke-width:1;"/><polygon fill="#181818" points="375.58,83.03,368.4261,82.1236,364.8379,88.3786,371.9918,89.285,375.58,83.03" style="stroke:#181818;stroke-width:1;"/><text fill="#000000" font-family="sans-serif" font-size="13" lengthAdjust="spacing" textLength="56.2847" x="306.21" y="130.6669">contiene</text></g><!--link Pregunta to DificultadPregunta--><g class="link" data-entity-1="Pregunta" data-entity-2="DificultadPregunta" data-source-line="51" data-uid="lnk15" id="link_Pregunta_DificultadPregunta"><path codeLine="51" d="M88.21,310.76 C88.21,336.24 88.21,364.22 88.21,387.15" fill="none" id="Pregunta-DificultadPregunta" style="stroke:#181818;stroke-width:1;stroke-dasharray:7,7;"/></g><!--reverse link Examen to ModeloCorrecci?n--><g class="link" data-entity-1="Examen" data-entity-2="ModeloCorrecci.n" data-source-line="52" data-uid="lnk16" id="link_Examen_ModeloCorrecci.n"><path codeLine="52" d="M528.78,47.3 C558.91,47.3 582.87,47.3 616.75,47.3" fill="none" id="Examen-backto-ModeloCorrecci&#243;n" style="stroke:#181818;stroke-width:1;"/><polygon fill="#181818" points="516.78,47.3,522.78,51.3,528.78,47.3,522.78,43.3,516.78,47.3" style="stroke:#181818;stroke-width:1;"/><text fill="#000000" font-family="sans-serif" font-size="13" lengthAdjust="spacing" textLength="64.5557" x="534.78" y="40.3669">se corrige</text></g><!--link Pregunta to Profesor--><g class="link" data-entity-1="Pregunta" data-entity-2="Profesor" data-source-line="53" data-uid="lnk18" id="link_Pregunta_Profesor"><path codeLine="53" d="M169.76,237.49 C191.77,237.49 202.78,237.49 221.99,237.49" fill="none" id="Pregunta-to-Profesor" style="stroke:#181818;stroke-width:1;"/><polygon fill="none" points="233.99,237.49,227.99,233.49,221.99,237.49,227.99,241.49,233.99,237.49" style="stroke:#181818;stroke-width:1;"/><text fill="#000000" font-family="sans-serif" font-size="13" lengthAdjust="spacing" textLength="28.4565" x="187.79" y="230.5569">crea</text></g><!--link Examen to Profesor--><g class="link" data-entity-1="Examen" data-entity-2="Profesor" data-source-line="54" data-uid="lnk20" id="link_Examen_Profesor"><path codeLine="54" d="M411.2,87.75 C385.09,117.18 357.2661,148.5355 329.5361,179.7755" fill="none" id="Examen-to-Profesor" style="stroke:#181818;stroke-width:1;"/><polygon fill="#181818" points="321.57,188.75,328.5445,186.9181,329.5361,179.7755,322.5616,181.6074,321.57,188.75" style="stroke:#181818;stroke-width:1;"/><text fill="#000000" font-family="sans-serif" font-size="13" lengthAdjust="spacing" textLength="28.4565" x="384.21" y="130.6669">crea</text></g><!--reverse link Asignatura to BateriaDePreguntas--><g class="link" data-entity-1="Asignatura" data-entity-2="BateriaDePreguntas" data-source-line="55" data-uid="lnk21" id="link_Asignatura_BateriaDePreguntas"><path codeLine="55" d="M416.3864,288.5281 C392.5464,328.5281 362.73,378.58 343.13,411.46" fill="none" id="Asignatura-backto-BateriaDePreguntas" style="stroke:#181818;stroke-width:1;"/><polygon fill="#181818" points="422.53,278.22,416.0222,281.3262,416.3864,288.5281,422.8942,285.4219,422.53,278.22" style="stroke:#181818;stroke-width:1;"/><text fill="#000000" font-family="sans-serif" font-size="13" lengthAdjust="spacing" textLength="32.9443" x="385.21" y="353.4469">tiene</text></g><!--link Pregunta to BateriaDePreguntas--><g class="link" data-entity-1="Pregunta" data-entity-2="BateriaDePreguntas" data-source-line="56" data-uid="lnk23" id="link_Pregunta_BateriaDePreguntas"><path codeLine="56" d="M169.8,304.96 C215,341.78 259.0775,377.6895 291.1675,403.8395" fill="none" id="Pregunta-to-BateriaDePreguntas" style="stroke:#181818;stroke-width:1;"/><polygon fill="#181818" points="300.47,411.42,298.3456,404.5289,291.1675,403.8395,293.2919,410.7306,300.47,411.42" style="stroke:#181818;stroke-width:1;"/><text fill="#000000" font-family="sans-serif" font-size="13" lengthAdjust="spacing" textLength="56.2847" x="232.21" y="353.4469">contiene</text></g><!--link Examen to Asignatura--><g class="link" data-entity-1="Examen" data-entity-2="Asignatura" data-source-line="57" data-uid="lnk25" id="link_Examen_Asignatura"><path codeLine="57" d="M446.21,87.75 C446.21,119.76 446.21,152.68 446.21,184.77" fill="none" id="Examen-to-Asignatura" style="stroke:#181818;stroke-width:1;"/><polygon fill="#181818" points="446.21,196.77,450.21,190.77,446.21,184.77,442.21,190.77,446.21,196.77" style="stroke:#181818;stroke-width:1;"/><text fill="#000000" font-family="sans-serif" font-size="13" lengthAdjust="spacing" textLength="32.9443" x="447.21" y="130.6669">tiene</text></g><!--link Profesor to Asignatura--><g class="link" data-entity-1="Profesor" data-entity-2="Asignatura" data-source-line="58" data-uid="lnk27" id="link_Profesor_Asignatura"><path codeLine="58" d="M324.4,237.49 C345.27,237.49 358.2,237.49 380.07,237.49" fill="none" id="Profesor-to-Asignatura" style="stroke:#181818;stroke-width:1;"/><polygon fill="none" points="392.07,237.49,386.07,233.49,380.07,237.49,386.07,241.49,392.07,237.49" style="stroke:#181818;stroke-width:1;"/><text fill="#000000" font-family="sans-serif" font-size="13" lengthAdjust="spacing" textLength="32.9443" x="342.24" y="230.5569">tiene</text></g><!--link Asignatura to Grado--><g class="link" data-entity-1="Asignatura" data-entity-2="Grado" data-source-line="59" data-uid="lnk29" id="link_Asignatura_Grado"><path codeLine="59" d="M472.11,278.22 C494.32,312.28 519.5969,351.0573 541.7869,385.0973" fill="none" id="Asignatura-to-Grado" style="stroke:#181818;stroke-width:1;"/><polygon fill="#181818" points="548.34,395.15,548.4143,387.9393,541.7869,385.0973,541.7125,392.308,548.34,395.15" style="stroke:#181818;stroke-width:1;"/><text fill="#000000" font-family="sans-serif" font-size="13" lengthAdjust="spacing" textLength="56.2847" x="523.21" y="353.4469">contiene</text></g><!--link Examen to Alumno--><g class="link" data-entity-1="Examen" data-entity-2="Alumno" data-source-line="60" data-uid="lnk31" id="link_Examen_Alumno"><path codeLine="60" d="M488.97,87.75 C523.21,119.33 562.2383,155.3451 596.9183,187.3251" fill="none" id="Examen-to-Alumno" style="stroke:#181818;stroke-width:1;"/><polygon fill="none" points="605.74,195.46,604.0408,188.452,596.9183,187.3251,598.6175,194.3331,605.74,195.46" style="stroke:#181818;stroke-width:1;"/><text fill="#000000" font-family="sans-serif" font-size="13" lengthAdjust="spacing" textLength="43.3228" x="537.21" y="130.6669">realiza</text></g><!--reverse link Asignatura to Alumno--><g class="link" data-entity-1="Asignatura" data-entity-2="Alumno" data-source-line="61" data-uid="lnk32" id="link_Asignatura_Alumno"><path codeLine="61" d="M512.34,237.49 C545.16,237.49 574.52,237.49 605.47,237.49" fill="none" id="Asignatura-backto-Alumno" style="stroke:#181818;stroke-width:1;"/><polygon fill="#181818" points="500.34,237.49,506.34,241.49,512.34,237.49,506.34,233.49,500.34,237.49" style="stroke:#181818;stroke-width:1;"/><text fill="#000000" font-family="sans-serif" font-size="13" lengthAdjust="spacing" textLength="69.8369" x="518.53" y="230.5569">se imparte</text></g><!--link Alumno to Grado--><g class="link" data-entity-1="Alumno" data-entity-2="Grado" data-source-line="62" data-uid="lnk34" id="link_Alumno_Grado"><path codeLine="62" d="M631.71,286.27 C618.8,319.64 606.0818,352.4791 593.9118,383.9191" fill="none" id="Alumno-to-Grado" style="stroke:#181818;stroke-width:1;"/><polygon fill="#181818" points="589.58,395.11,595.4762,390.9585,593.9118,383.9191,588.0156,388.0706,589.58,395.11" style="stroke:#181818;stroke-width:1;"/><text fill="#000000" font-family="sans-serif" font-size="13" lengthAdjust="spacing" textLength="54.374" x="611.21" y="353.4469">se cursa</text></g><!--SRC=[XLBDIWCn4BxlK-HSM46zULChua7n5SPaMWBPJ9aaHInz94y-Gb_CsMGtcrB1KvZCV3_pens4e9u-OK1_w5IlS0ykWRQd7p-6si4UbIPcrENpsEcCkGzswo4cXeoBf- -O76NCwSVOBTNATyPjyh7KGOLb50xvHP-yjc0oddRQaiUW6CCkOOYvf0QJc_9hxCRgv2AOAlS04Td26cVTSAYvLpBew75f9tiYDkY5rcl6ICgW2kHICL6Xpops_c-LDXY8SvsduOCnDxr3vwoXC0RhjvTbY2uDdlwlblaCwcbPJREmTs2Pd5FNRN3J1hTZK11gOpsu9iRFo23zopTRcfNMTQfdkzk8U0OFQ2pLySlViUicmgkhIv_TpABwrAzcwRjnuj6YnoKlw4ljcNhLSt-vGU49vKBjTcGg2r3KkxvUtgZ524js9KOQ7sDkkMV9zdzSaHGMjt-aCb-hDdTsnjfgvhHgyvFZoU5SeRfyU0MzL2yImf6FIF0jlxJax1UeSmSomAawJyqEE-28vnfDNYSEy0i0]--></g></svg>