<svg xmlns="http://www.w3.org/2000/svg" xmlns:xlink="http://www.w3.org/1999/xlink" contentStyleType="text/css" data-diagram-type="CLASS" height="491px" preserveAspectRatio="none" style="width:935px;height:491px;background:#FFFFFF;" version="1.1" viewBox="0 0 935 491" width="935px" zoomAndPan="magnify"><defs/><g><!--class Examen--><g class="entity" data-entity="Examen" data-source-line="1" data-uid="ent0002" id="entity_Examen"><rect fill="#F1F1F1" height="80.5938" rx="2.5" ry="2.5" style="stroke:#181818;stroke-width:0.5;" width="140.625" x="387.9" y="7"/><ellipse cx="426.206" cy="23" fill="#ADD1B2" rx="11" ry="11" style="stroke:#181818;stroke-width:1;"/><path d="M429.1747,28.6406 Q428.5966,28.9375 427.956,29.0781 Q427.3153,29.2344 426.6122,29.2344 Q424.1122,29.2344 422.7841,27.5938 Q421.4716,25.9375 421.4716,22.8125 Q421.4716,19.6875 422.7841,18.0313 Q424.1122,16.375 426.6122,16.375 Q427.3153,16.375 427.956,16.5313 Q428.6122,16.6875 429.1747,16.9844 L429.1747,19.7031 Q428.5497,19.125 427.956,18.8594 Q427.3622,18.5781 426.7372,18.5781 Q425.3935,18.5781 424.706,19.6563 Q424.0185,20.7188 424.0185,22.8125 Q424.0185,24.9063 424.706,25.9844 Q425.3935,27.0469 426.7372,27.0469 Q427.3622,27.0469 427.956,26.7813 Q428.5497,26.5 429.1747,25.9219 L429.1747,28.6406 Z " fill="#000000"/><text fill="#000000" font-family="sans-serif" font-size="14" lengthAdjust="spacing" textLength="56.834" x="445.3851" y="27.8467">Examen</text><line style="stroke:#181818;stroke-width:0.5;" x1="388.9" x2="527.525" y1="39" y2="39"/><rect fill="none" height="6" style="stroke:#C82930;stroke-width:1;" width="6" x="395.9" y="49.6484"/><text fill="#000000" font-family="sans-serif" font-size="14" lengthAdjust="spacing" textLength="75.8447" x="407.9" y="55.9951">evaluaci&#243;n</text><rect fill="none" height="6" style="stroke:#C82930;stroke-width:1;" width="6" x="395.9" y="65.9453"/><text fill="#000000" font-family="sans-serif" font-size="14" lengthAdjust="spacing" textLength="114.625" x="407.9" y="72.292">clave correcci&#243;n</text><line style="stroke:#181818;stroke-width:0.5;" x1="388.9" x2="527.525" y1="79.5938" y2="79.5938"/></g><!--class Asignatura--><g class="entity" data-entity="Asignatura" data-source-line="5" data-uid="ent0003" id="entity_Asignatura"><rect fill="#F1F1F1" height="96.8906" rx="2.5" ry="2.5" style="stroke:#181818;stroke-width:0.5;" width="107.7969" x="404.31" y="189.04"/><ellipse cx="419.31" cy="205.04" fill="#ADD1B2" rx="11" ry="11" style="stroke:#181818;stroke-width:1;"/><path d="M422.2788,210.6806 Q421.7006,210.9775 421.06,211.1181 Q420.4194,211.2744 419.7163,211.2744 Q417.2163,211.2744 415.8881,209.6337 Q414.5756,207.9775 414.5756,204.8525 Q414.5756,201.7275 415.8881,200.0712 Q417.2163,198.415 419.7163,198.415 Q420.4194,198.415 421.06,198.5712 Q421.7163,198.7275 422.2788,199.0244 L422.2788,201.7431 Q421.6538,201.165 421.06,200.8994 Q420.4663,200.6181 419.8413,200.6181 Q418.4975,200.6181 417.81,201.6962 Q417.1225,202.7587 417.1225,204.8525 Q417.1225,206.9462 417.81,208.0244 Q418.4975,209.0869 419.8413,209.0869 Q420.4663,209.0869 421.06,208.8212 Q421.6538,208.54 422.2788,207.9619 L422.2788,210.6806 Z " fill="#000000"/><text fill="#000000" font-family="sans-serif" font-size="14" lengthAdjust="spacing" textLength="75.7969" x="433.31" y="209.8867">Asignatura</text><line style="stroke:#181818;stroke-width:0.5;" x1="405.31" x2="511.1069" y1="221.04" y2="221.04"/><rect fill="none" height="6" style="stroke:#C82930;stroke-width:1;" width="6" x="412.31" y="231.6884"/><text fill="#000000" font-family="sans-serif" font-size="14" lengthAdjust="spacing" textLength="36.1963" x="424.31" y="238.0351">t&#237;tulo</text><rect fill="none" height="6" style="stroke:#C82930;stroke-width:1;" width="6" x="412.31" y="247.9853"/><text fill="#000000" font-family="sans-serif" font-size="14" lengthAdjust="spacing" textLength="43.6133" x="424.31" y="254.332">temas</text><rect fill="none" height="6" style="stroke:#C82930;stroke-width:1;" width="6" x="412.31" y="264.2822"/><text fill="#000000" font-family="sans-serif" font-size="14" lengthAdjust="spacing" textLength="46.4912" x="424.31" y="270.6289">c&#243;digo</text><line style="stroke:#181818;stroke-width:0.5;" x1="405.31" x2="511.1069" y1="277.9306" y2="277.9306"/></g><!--class Pregunta--><g class="entity" data-entity="Pregunta" data-source-line="10" data-uid="ent0004" id="entity_Pregunta"><rect fill="#F1F1F1" height="145.7813" rx="2.5" ry="2.5" style="stroke:#181818;stroke-width:0.5;" width="162.2334" x="19.09" y="164.6"/><ellipse cx="64.2004" cy="180.6" fill="#ADD1B2" rx="11" ry="11" style="stroke:#181818;stroke-width:1;"/><path d="M67.1691,186.2406 Q66.591,186.5375 65.9504,186.6781 Q65.3097,186.8344 64.6066,186.8344 Q62.1066,186.8344 60.7785,185.1937 Q59.466,183.5375 59.466,180.4125 Q59.466,177.2875 60.7785,175.6312 Q62.1066,173.975 64.6066,173.975 Q65.3097,173.975 65.9504,174.1312 Q66.6066,174.2875 67.1691,174.5844 L67.1691,177.3031 Q66.5441,176.725 65.9504,176.4594 Q65.3566,176.1781 64.7316,176.1781 Q63.3879,176.1781 62.7004,177.2562 Q62.0129,178.3187 62.0129,180.4125 Q62.0129,182.5062 62.7004,183.5844 Q63.3879,184.6469 64.7316,184.6469 Q65.3566,184.6469 65.9504,184.3812 Q66.5441,184.1 67.1691,183.5219 L67.1691,186.2406 Z " fill="#000000"/><text fill="#000000" font-family="sans-serif" font-size="14" lengthAdjust="spacing" textLength="63.5127" x="84.7004" y="185.4467">Pregunta</text><line style="stroke:#181818;stroke-width:0.5;" x1="20.09" x2="180.3234" y1="196.6" y2="196.6"/><rect fill="none" height="6" style="stroke:#C82930;stroke-width:1;" width="6" x="27.09" y="207.2484"/><text fill="#000000" font-family="sans-serif" font-size="14" lengthAdjust="spacing" textLength="74.7988" x="39.09" y="213.5951">asignatura</text><rect fill="none" height="6" style="stroke:#C82930;stroke-width:1;" width="6" x="27.09" y="223.5453"/><text fill="#000000" font-family="sans-serif" font-size="14" lengthAdjust="spacing" textLength="36.3193" x="39.09" y="229.892">tema</text><rect fill="none" height="6" style="stroke:#C82930;stroke-width:1;" width="6" x="27.09" y="239.8422"/><text fill="#000000" font-family="sans-serif" font-size="14" lengthAdjust="spacing" textLength="72.8506" x="39.09" y="246.1889">enunciado</text><rect fill="none" height="6" style="stroke:#C82930;stroke-width:1;" width="6" x="27.09" y="256.1391"/><text fill="#000000" font-family="sans-serif" font-size="14" lengthAdjust="spacing" textLength="136.2334" x="39.09" y="262.4857">opciones respuesta</text><rect fill="none" height="6" style="stroke:#C82930;stroke-width:1;" width="6" x="27.09" y="272.4359"/><text fill="#000000" font-family="sans-serif" font-size="14" lengthAdjust="spacing" textLength="132.002" x="39.09" y="278.7826">respuesta correcta</text><rect fill="none" height="6" style="stroke:#C82930;stroke-width:1;" width="6" x="27.09" y="288.7328"/><text fill="#000000" font-family="sans-serif" font-size="14" lengthAdjust="spacing" textLength="65.0098" x="39.09" y="295.0795">dificultad</text><line style="stroke:#181818;stroke-width:0.5;" x1="20.09" x2="180.3234" y1="302.3812" y2="302.3812"/></g><!--class BateriaDePreguntas--><g class="entity" data-entity="BateriaDePreguntas" data-source-line="18" data-uid="ent0005" id="entity_BateriaDePreguntas"><rect fill="#F1F1F1" height="48" rx="2.5" ry="2.5" style="stroke:#181818;stroke-width:0.5;" width="172.7109" x="204.85" y="411.82"/><ellipse cx="219.85" cy="427.82" fill="#ADD1B2" rx="11" ry="11" style="stroke:#181818;stroke-width:1;"/><path d="M222.8188,433.4606 Q222.2406,433.7575 221.6,433.8981 Q220.9594,434.0544 220.2563,434.0544 Q217.7563,434.0544 216.4281,432.4138 Q215.1156,430.7575 215.1156,427.6325 Q215.1156,424.5075 216.4281,422.8513 Q217.7563,421.195 220.2563,421.195 Q220.9594,421.195 221.6,421.3513 Q222.2563,421.5075 222.8188,421.8044 L222.8188,424.5231 Q222.1938,423.945 221.6,423.6794 Q221.0063,423.3981 220.3813,423.3981 Q219.0375,423.3981 218.35,424.4763 Q217.6625,425.5388 217.6625,427.6325 Q217.6625,429.7263 218.35,430.8044 Q219.0375,431.8669 220.3813,431.8669 Q221.0063,431.8669 221.6,431.6013 Q222.1938,431.32 222.8188,430.7419 L222.8188,433.4606 Z " fill="#000000"/><text fill="#000000" font-family="sans-serif" font-size="14" lengthAdjust="spacing" textLength="140.7109" x="233.85" y="432.6667">BateriaDePreguntas</text><line style="stroke:#181818;stroke-width:0.5;" x1="205.85" x2="376.5609" y1="443.82" y2="443.82"/><line style="stroke:#181818;stroke-width:0.5;" x1="205.85" x2="376.5609" y1="451.82" y2="451.82"/></g><!--class ModeloCorrecci?n--><g class="entity" data-entity="ModeloCorrecci.n" data-source-line="20" data-uid="ent0006" id="entity_ModeloCorrecci.n"><rect fill="#F1F1F1" height="64.2969" rx="2.5" ry="2.5" style="stroke:#181818;stroke-width:0.5;" width="232.3564" x="629.03" y="15.15"/><ellipse cx="678.0642" cy="31.15" fill="#ADD1B2" rx="11" ry="11" style="stroke:#181818;stroke-width:1;"/><path d="M681.0329,36.7906 Q680.4548,37.0875 679.8142,37.2281 Q679.1736,37.3844 678.4704,37.3844 Q675.9704,37.3844 674.6423,35.7437 Q673.3298,34.0875 673.3298,30.9625 Q673.3298,27.8375 674.6423,26.1812 Q675.9704,24.525 678.4704,24.525 Q679.1736,24.525 679.8142,24.6812 Q680.4704,24.8375 681.0329,25.1344 L681.0329,27.8531 Q680.4079,27.275 679.8142,27.0094 Q679.2204,26.7281 678.5954,26.7281 Q677.2517,26.7281 676.5642,27.8062 Q675.8767,28.8687 675.8767,30.9625 Q675.8767,33.0562 676.5642,34.1344 Q677.2517,35.1969 678.5954,35.1969 Q679.2204,35.1969 679.8142,34.9312 Q680.4079,34.65 681.0329,34.0719 L681.0329,36.7906 Z " fill="#000000"/><text fill="#000000" font-family="sans-serif" font-size="14" lengthAdjust="spacing" textLength="125.7881" x="698.5642" y="35.9967">ModeloCorrecci&#243;n</text><line style="stroke:#181818;stroke-width:0.5;" x1="630.03" x2="860.3864" y1="47.15" y2="47.15"/><rect fill="none" height="6" style="stroke:#C82930;stroke-width:1;" width="6" x="637.03" y="57.7984"/><text fill="#000000" font-family="sans-serif" font-size="14" lengthAdjust="spacing" textLength="206.3564" x="649.03" y="64.1451">orden concreto de soluciones</text><line style="stroke:#181818;stroke-width:0.5;" x1="630.03" x2="860.3864" y1="71.4469" y2="71.4469"/></g><!--class Grado--><g class="entity" data-entity="Grado" data-source-line="23" data-uid="ent0007" id="entity_Grado"><rect fill="#F1F1F1" height="80.5938" rx="2.5" ry="2.5" style="stroke:#181818;stroke-width:0.5;" width="74.6357" x="522.89" y="395.53"/><ellipse cx="537.89" cy="411.53" fill="#ADD1B2" rx="11" ry="11" style="stroke:#181818;stroke-width:1;"/><path d="M540.8588,417.1706 Q540.2806,417.4675 539.64,417.6081 Q538.9994,417.7644 538.2963,417.7644 Q535.7963,417.7644 534.4681,416.1238 Q533.1556,414.4675 533.1556,411.3425 Q533.1556,408.2175 534.4681,406.5613 Q535.7963,404.905 538.2963,404.905 Q538.9994,404.905 539.64,405.0613 Q540.2963,405.2175 540.8588,405.5144 L540.8588,408.2331 Q540.2338,407.655 539.64,407.3894 Q539.0463,407.1081 538.4213,407.1081 Q537.0775,407.1081 536.39,408.1863 Q535.7025,409.2488 535.7025,411.3425 Q535.7025,413.4363 536.39,414.5144 Q537.0775,415.5769 538.4213,415.5769 Q539.0463,415.5769 539.64,415.3113 Q540.2338,415.03 540.8588,414.4519 L540.8588,417.1706 Z " fill="#000000"/><text fill="#000000" font-family="sans-serif" font-size="14" lengthAdjust="spacing" textLength="42.6357" x="551.89" y="416.3767">Grado</text><line style="stroke:#181818;stroke-width:0.5;" x1="523.89" x2="596.5257" y1="427.53" y2="427.53"/><rect fill="none" height="6" style="stroke:#C82930;stroke-width:1;" width="6" x="530.89" y="438.1784"/><text fill="#000000" font-family="sans-serif" font-size="14" lengthAdjust="spacing" textLength="36.1963" x="542.89" y="444.5251">t&#237;tulo</text><rect fill="none" height="6" style="stroke:#C82930;stroke-width:1;" width="6" x="530.89" y="454.4753"/><text fill="#000000" font-family="sans-serif" font-size="14" lengthAdjust="spacing" textLength="46.4912" x="542.89" y="460.822">c&#243;digo</text><line style="stroke:#181818;stroke-width:0.5;" x1="523.89" x2="596.5257" y1="468.1238" y2="468.1238"/></g><!--class Profesor--><g class="entity" data-entity="Profesor" data-source-line="27" data-uid="ent0008" id="entity_Profesor"><rect fill="#F1F1F1" height="96.8906" rx="2.5" ry="2.5" style="stroke:#181818;stroke-width:0.5;" width="89.9209" x="246.25" y="189.04"/><ellipse cx="261.25" cy="205.04" fill="#ADD1B2" rx="11" ry="11" style="stroke:#181818;stroke-width:1;"/><path d="M264.2188,210.6806 Q263.6406,210.9775 263,211.1181 Q262.3594,211.2744 261.6563,211.2744 Q259.1563,211.2744 257.8281,209.6337 Q256.5156,207.9775 256.5156,204.8525 Q256.5156,201.7275 257.8281,200.0712 Q259.1563,198.415 261.6563,198.415 Q262.3594,198.415 263,198.5712 Q263.6563,198.7275 264.2188,199.0244 L264.2188,201.7431 Q263.5938,201.165 263,200.8994 Q262.4063,200.6181 261.7813,200.6181 Q260.4375,200.6181 259.75,201.6962 Q259.0625,202.7587 259.0625,204.8525 Q259.0625,206.9462 259.75,208.0244 Q260.4375,209.0869 261.7813,209.0869 Q262.4063,209.0869 263,208.8212 Q263.5938,208.54 264.2188,207.9619 L264.2188,210.6806 Z " fill="#000000"/><text fill="#000000" font-family="sans-serif" font-size="14" lengthAdjust="spacing" textLength="57.9209" x="275.25" y="209.8867">Profesor</text><line style="stroke:#181818;stroke-width:0.5;" x1="247.25" x2="335.1709" y1="221.04" y2="221.04"/><rect fill="none" height="6" style="stroke:#C82930;stroke-width:1;" width="6" x="254.25" y="231.6884"/><text fill="#000000" font-family="sans-serif" font-size="14" lengthAdjust="spacing" textLength="54.332" x="266.25" y="238.0351">nombre</text><rect fill="none" height="6" style="stroke:#C82930;stroke-width:1;" width="6" x="254.25" y="247.9853"/><text fill="#000000" font-family="sans-serif" font-size="14" lengthAdjust="spacing" textLength="62.4941" x="266.25" y="254.332">apellidos</text><rect fill="none" height="6" style="stroke:#C82930;stroke-width:1;" width="6" x="254.25" y="264.2822"/><text fill="#000000" font-family="sans-serif" font-size="14" lengthAdjust="spacing" textLength="25.3818" x="266.25" y="270.6289">DNI</text><line style="stroke:#181818;stroke-width:0.5;" x1="247.25" x2="335.1709" y1="277.9306" y2="277.9306"/></g><!--class Alumno--><g class="entity" data-entity="Alumno" data-source-line="32" data-uid="ent0009" id="entity_Alumno"><rect fill="#F1F1F1" height="96.8906" rx="2.5" ry="2.5" style="stroke:#181818;stroke-width:0.5;" width="88.4941" x="617.96" y="189.04"/><ellipse cx="634.3452" cy="205.04" fill="#ADD1B2" rx="11" ry="11" style="stroke:#181818;stroke-width:1;"/><path d="M637.3139,210.6806 Q636.7358,210.9775 636.0952,211.1181 Q635.4545,211.2744 634.7514,211.2744 Q632.2514,211.2744 630.9233,209.6337 Q629.6108,207.9775 629.6108,204.8525 Q629.6108,201.7275 630.9233,200.0712 Q632.2514,198.415 634.7514,198.415 Q635.4545,198.415 636.0952,198.5712 Q636.7514,198.7275 637.3139,199.0244 L637.3139,201.7431 Q636.6889,201.165 636.0952,200.8994 Q635.5014,200.6181 634.8764,200.6181 Q633.5327,200.6181 632.8452,201.6962 Q632.1577,202.7587 632.1577,204.8525 Q632.1577,206.9462 632.8452,208.0244 Q633.5327,209.0869 634.8764,209.0869 Q635.5014,209.0869 636.0952,208.8212 Q636.6889,208.54 637.3139,207.9619 L637.3139,210.6806 Z " fill="#000000"/><text fill="#000000" font-family="sans-serif" font-size="14" lengthAdjust="spacing" textLength="53.416" x="648.653" y="209.8867">Alumno</text><line style="stroke:#181818;stroke-width:0.5;" x1="618.96" x2="705.4541" y1="221.04" y2="221.04"/><rect fill="none" height="6" style="stroke:#C82930;stroke-width:1;" width="6" x="625.96" y="231.6884"/><text fill="#000000" font-family="sans-serif" font-size="14" lengthAdjust="spacing" textLength="54.332" x="637.96" y="238.0351">nombre</text><rect fill="none" height="6" style="stroke:#C82930;stroke-width:1;" width="6" x="625.96" y="247.9853"/><text fill="#000000" font-family="sans-serif" font-size="14" lengthAdjust="spacing" textLength="62.4941" x="637.96" y="254.332">apellidos</text><rect fill="none" height="6" style="stroke:#C82930;stroke-width:1;" width="6" x="625.96" y="264.2822"/><text fill="#000000" font-family="sans-serif" font-size="14" lengthAdjust="spacing" textLength="25.3818" x="637.96" y="270.6289">DNI</text><line style="stroke:#181818;stroke-width:0.5;" x1="618.96" x2="705.4541" y1="277.9306" y2="277.9306"/></g><!--class Evaluaci?nExamen--><g class="entity" data-entity="Evaluaci.nExamen" data-source-line="37" data-uid="ent0010" id="entity_Evaluaci.nExamen"><rect fill="#F1F1F1" height="129.4844" rx="2.5" ry="2.5" style="stroke:#181818;stroke-width:0.5;" width="186.7676" x="741.82" y="172.75"/><ellipse cx="766.6554" cy="188.75" fill="#EB937F" rx="11" ry="11" style="stroke:#181818;stroke-width:1;"/><path d="M770.7648,194.75 L763.046,194.75 L763.046,182.3594 L770.7648,182.3594 L770.7648,184.5156 L765.4992,184.5156 L765.4992,187.1875 L770.2648,187.1875 L770.2648,189.3438 L765.4992,189.3438 L765.4992,192.5938 L770.7648,192.5938 L770.7648,194.75 Z " fill="#000000"/><text fill="#000000" font-family="sans-serif" font-size="14" lengthAdjust="spacing" textLength="132.9111" x="782.841" y="193.5967">Evaluaci&#243;nExamen</text><line style="stroke:#181818;stroke-width:0.5;" x1="742.82" x2="927.5876" y1="204.75" y2="204.75"/><rect fill="none" height="6" style="stroke:#C82930;stroke-width:1;" width="6" x="749.82" y="215.3984"/><text fill="#000000" font-family="sans-serif" font-size="14" lengthAdjust="spacing" textLength="60.1904" x="761.82" y="221.7451">Parcial 1</text><rect fill="none" height="6" style="stroke:#C82930;stroke-width:1;" width="6" x="749.82" y="231.6953"/><text fill="#000000" font-family="sans-serif" font-size="14" lengthAdjust="spacing" textLength="60.1904" x="761.82" y="238.042">Parcial 2</text><rect fill="none" height="6" style="stroke:#C82930;stroke-width:1;" width="6" x="749.82" y="247.9922"/><text fill="#000000" font-family="sans-serif" font-size="14" lengthAdjust="spacing" textLength="60.1904" x="761.82" y="254.3389">Parcial 3</text><rect fill="none" height="6" style="stroke:#C82930;stroke-width:1;" width="6" x="749.82" y="264.2891"/><text fill="#000000" font-family="sans-serif" font-size="14" lengthAdjust="spacing" textLength="91.4443" x="761.82" y="270.6357">Examen final</text><rect fill="none" height="6" style="stroke:#C82930;stroke-width:1;" width="6" x="749.82" y="280.5859"/><text fill="#000000" font-family="sans-serif" font-size="14" lengthAdjust="spacing" textLength="160.7676" x="761.82" y="286.9326">Examen extraordinario</text><line style="stroke:#181818;stroke-width:0.5;" x1="742.82" x2="927.5876" y1="294.2344" y2="294.2344"/></g><!--class DificultadPregunta--><g class="entity" data-entity="DificultadPregunta" data-source-line="44" data-uid="ent0011" id="entity_DificultadPregunta"><rect fill="#F1F1F1" height="96.8906" rx="2.5" ry="2.5" style="stroke:#181818;stroke-width:0.5;" width="162.416" x="7" y="387.38"/><ellipse cx="22" cy="403.38" fill="#EB937F" rx="11" ry="11" style="stroke:#181818;stroke-width:1;"/><path d="M26.1094,409.38 L18.3906,409.38 L18.3906,396.9894 L26.1094,396.9894 L26.1094,399.1456 L20.8438,399.1456 L20.8438,401.8175 L25.6094,401.8175 L25.6094,403.9738 L20.8438,403.9738 L20.8438,407.2238 L26.1094,407.2238 L26.1094,409.38 Z " fill="#000000"/><text fill="#000000" font-family="sans-serif" font-size="14" lengthAdjust="spacing" textLength="130.416" x="36" y="408.2267">DificultadPregunta</text><line style="stroke:#181818;stroke-width:0.5;" x1="8" x2="168.416" y1="419.38" y2="419.38"/><rect fill="none" height="6" style="stroke:#C82930;stroke-width:1;" width="6" x="15" y="430.0284"/><text fill="#000000" font-family="sans-serif" font-size="14" lengthAdjust="spacing" textLength="28.9844" x="27" y="436.3751">facil</text><rect fill="none" height="6" style="stroke:#C82930;stroke-width:1;" width="6" x="15" y="446.3253"/><text fill="#000000" font-family="sans-serif" font-size="14" lengthAdjust="spacing" textLength="43.5928" x="27" y="452.672">medio</text><rect fill="none" height="6" style="stroke:#C82930;stroke-width:1;" width="6" x="15" y="462.6222"/><text fill="#000000" font-family="sans-serif" font-size="14" lengthAdjust="spacing" textLength="37.0713" x="27" y="468.9689">dificil</text><line style="stroke:#181818;stroke-width:0.5;" x1="8" x2="168.416" y1="476.2706" y2="476.2706"/></g><!--link Examen to Evaluaci?nExamen--><g class="link" data-entity-1="Examen" data-entity-2="Evaluaci.nExamen" data-source-line="50" data-uid="lnk12" id="link_Examen_Evaluaci.nExamen"><path codeLine="50" d="M528.85,75.52 C583.32,97.38 659.96,130.04 724.21,164.6 C729.87,167.64 735.62,170.88 741.37,174.24" fill="none" id="Examen-Evaluaci&#243;nExamen" style="stroke:#181818;stroke-width:1;stroke-dasharray:7,7;"/></g><!--reverse link Examen to Pregunta--><g class="link" data-entity-1="Examen" data-entity-2="Pregunta" data-source-line="51" data-uid="lnk14" id="link_Examen_Pregunta"><path codeLine="51" d="M376.8379,88.3786 C331.3279,111.0386 281.79,136.22 229.21,164.6 C213.75,172.94 197.33,181.96 181.57,190.71" fill="none" id="Examen-backto-Pregunta" style="stroke:#181818;stroke-width:1;"/><polygon fill="#181818" points="387.58,83.03,380.4261,82.1236,376.8379,88.3786,383.9918,89.285,387.58,83.03" style="stroke:#181818;stroke-width:1;"/><text fill="#000000" font-family="sans-serif" font-size="13" lengthAdjust="spacing" textLength="56.2847" x="318.21" y="130.6669">contiene</text></g><!--link Pregunta to DificultadPregunta--><g class="link" data-entity-1="Pregunta" data-entity-2="DificultadPregunta" data-source-line="52" data-uid="lnk15" id="link_Pregunta_DificultadPregunta"><path codeLine="52" d="M95.79,310.76 C94.23,336.24 92.52,364.22 91.12,387.15" fill="none" id="Pregunta-DificultadPregunta" style="stroke:#181818;stroke-width:1;stroke-dasharray:7,7;"/></g><!--reverse link Examen to ModeloCorrecci?n--><g class="link" data-entity-1="Examen" data-entity-2="ModeloCorrecci.n" data-source-line="53" data-uid="lnk16" id="link_Examen_ModeloCorrecci.n"><path codeLine="53" d="M540.78,47.3 C570.91,47.3 594.87,47.3 628.75,47.3" fill="none" id="Examen-backto-ModeloCorrecci&#243;n" style="stroke:#181818;stroke-width:1;"/><polygon fill="#181818" points="528.78,47.3,534.78,51.3,540.78,47.3,534.78,43.3,528.78,47.3" style="stroke:#181818;stroke-width:1;"/><text fill="#000000" font-family="sans-serif" font-size="13" lengthAdjust="spacing" textLength="64.5557" x="546.78" y="40.3669">se corrige</text></g><!--link Pregunta to Profesor--><g class="link" data-entity-1="Pregunta" data-entity-2="Profesor" data-source-line="54" data-uid="lnk18" id="link_Pregunta_Profesor"><path codeLine="54" d="M181.76,237.49 C203.77,237.49 214.78,237.49 233.99,237.49" fill="none" id="Pregunta-to-Profesor" style="stroke:#181818;stroke-width:1;"/><polygon fill="none" points="245.99,237.49,239.99,233.49,233.99,237.49,239.99,241.49,245.99,237.49" style="stroke:#181818;stroke-width:1;"/><text fill="#000000" font-family="sans-serif" font-size="13" lengthAdjust="spacing" textLength="28.4565" x="199.79" y="230.5569">crea</text></g><!--link Examen to Profesor--><g class="link" data-entity-1="Examen" data-entity-2="Profesor" data-source-line="55" data-uid="lnk20" id="link_Examen_Profesor"><path codeLine="55" d="M423.2,87.75 C397.09,117.18 369.2661,148.5355 341.5361,179.7755" fill="none" id="Examen-to-Profesor" style="stroke:#181818;stroke-width:1;"/><polygon fill="#181818" points="333.57,188.75,340.5445,186.9181,341.5361,179.7755,334.5616,181.6074,333.57,188.75" style="stroke:#181818;stroke-width:1;"/><text fill="#000000" font-family="sans-serif" font-size="13" lengthAdjust="spacing" textLength="28.4565" x="396.21" y="130.6669">crea</text></g><!--reverse link Profesor to BateriaDePreguntas--><g class="link" data-entity-1="Profesor" data-entity-2="BateriaDePreguntas" data-source-line="56" data-uid="lnk21" id="link_Profesor_BateriaDePreguntas"><path codeLine="56" d="M291.21,298.27 C291.21,337.99 291.21,380.83 291.21,411.55" fill="none" id="Profesor-backto-BateriaDePreguntas" style="stroke:#181818;stroke-width:1;"/><polygon fill="#181818" points="291.21,286.27,287.21,292.27,291.21,298.27,295.21,292.27,291.21,286.27" style="stroke:#181818;stroke-width:1;"/><text fill="#000000" font-family="sans-serif" font-size="13" lengthAdjust="spacing" textLength="32.9443" x="292.21" y="353.4469">tiene</text></g><!--link Pregunta to BateriaDePreguntas--><g class="link" data-entity-1="Pregunta" data-entity-2="BateriaDePreguntas" data-source-line="57" data-uid="lnk23" id="link_Pregunta_BateriaDePreguntas"><path codeLine="57" d="M170.52,310.76 C205.19,346.41 236.2701,378.3608 260.3601,403.1108" fill="none" id="Pregunta-to-BateriaDePreguntas" style="stroke:#181818;stroke-width:1;"/><polygon fill="#181818" points="268.73,411.71,267.4115,404.6205,260.3601,403.1108,261.6787,410.2004,268.73,411.71" style="stroke:#181818;stroke-width:1;"/><text fill="#000000" font-family="sans-serif" font-size="13" lengthAdjust="spacing" textLength="56.2847" x="214.21" y="353.4469">contiene</text></g><!--link Examen to Asignatura--><g class="link" data-entity-1="Examen" data-entity-2="Asignatura" data-source-line="58" data-uid="lnk25" id="link_Examen_Asignatura"><path codeLine="58" d="M458.21,87.75 C458.21,117.18 458.21,145.51 458.21,176.75" fill="none" id="Examen-to-Asignatura" style="stroke:#181818;stroke-width:1;"/><polygon fill="#181818" points="458.21,188.75,462.21,182.75,458.21,176.75,454.21,182.75,458.21,188.75" style="stroke:#181818;stroke-width:1;"/><text fill="#000000" font-family="sans-serif" font-size="13" lengthAdjust="spacing" textLength="32.9443" x="459.21" y="130.6669">tiene</text></g><!--link Profesor to Asignatura--><g class="link" data-entity-1="Profesor" data-entity-2="Asignatura" data-source-line="59" data-uid="lnk27" id="link_Profesor_Asignatura"><path codeLine="59" d="M336.4,237.49 C357.27,237.49 370.2,237.49 392.07,237.49" fill="none" id="Profesor-to-Asignatura" style="stroke:#181818;stroke-width:1;"/><polygon fill="none" points="404.07,237.49,398.07,233.49,392.07,237.49,398.07,241.49,404.07,237.49" style="stroke:#181818;stroke-width:1;"/><text fill="#000000" font-family="sans-serif" font-size="13" lengthAdjust="spacing" textLength="32.9443" x="354.24" y="230.5569">tiene</text></g><!--link Asignatura to Grado--><g class="link" data-entity-1="Asignatura" data-entity-2="Grado" data-source-line="60" data-uid="lnk29" id="link_Asignatura_Grado"><path codeLine="60" d="M483.03,286.27 C500.37,319.64 517.7061,353.0222 534.0461,384.4622" fill="none" id="Asignatura-to-Grado" style="stroke:#181818;stroke-width:1;"/><polygon fill="#181818" points="539.58,395.11,540.3623,387.9415,534.0461,384.4622,533.2638,391.6307,539.58,395.11" style="stroke:#181818;stroke-width:1;"/><text fill="#000000" font-family="sans-serif" font-size="13" lengthAdjust="spacing" textLength="56.2847" x="520.21" y="353.4469">contiene</text></g><!--link Examen to Alumno--><g class="link" data-entity-1="Examen" data-entity-2="Alumno" data-source-line="61" data-uid="lnk31" id="link_Examen_Alumno"><path codeLine="61" d="M500.97,87.75 C535.21,119.33 574.2383,155.3451 608.9183,187.3251" fill="none" id="Examen-to-Alumno" style="stroke:#181818;stroke-width:1;"/><polygon fill="none" points="617.74,195.46,616.0408,188.452,608.9183,187.3251,610.6175,194.3331,617.74,195.46" style="stroke:#181818;stroke-width:1;"/><text fill="#000000" font-family="sans-serif" font-size="13" lengthAdjust="spacing" textLength="43.3228" x="548.21" y="130.6669">realiza</text></g><!--reverse link Asignatura to Alumno--><g class="link" data-entity-1="Asignatura" data-entity-2="Alumno" data-source-line="62" data-uid="lnk32" id="link_Asignatura_Alumno"><path codeLine="62" d="M524.34,237.49 C557.16,237.49 586.52,237.49 617.47,237.49" fill="none" id="Asignatura-backto-Alumno" style="stroke:#181818;stroke-width:1;"/><polygon fill="#181818" points="512.34,237.49,518.34,241.49,524.34,237.49,518.34,233.49,512.34,237.49" style="stroke:#181818;stroke-width:1;"/><text fill="#000000" font-family="sans-serif" font-size="13" lengthAdjust="spacing" textLength="69.8369" x="530.53" y="230.5569">se imparte</text></g><!--link Alumno to Grado--><g class="link" data-entity-1="Alumno" data-entity-2="Grado" data-source-line="63" data-uid="lnk34" id="link_Alumno_Grado"><path codeLine="63" d="M637.39,286.27 C620.05,319.64 602.7139,353.0222 586.3739,384.4622" fill="none" id="Alumno-to-Grado" style="stroke:#181818;stroke-width:1;"/><polygon fill="#181818" points="580.84,395.11,587.1562,391.6307,586.3739,384.4622,580.0577,387.9415,580.84,395.11" style="stroke:#181818;stroke-width:1;"/><text fill="#000000" font-family="sans-serif" font-size="13" lengthAdjust="spacing" textLength="54.374" x="608.21" y="353.4469">se cursa</text></g><!--SRC=[XLFDJiCm3BxtANAUL2JWnWqOGXn0l899l2bI6azECY4GZyI9HzYBaJfjccr8tEhOtuz_gXs4e1xUOK3_sQbUuHvS0cqFFtuCjOCzAatCgClZLwS5SnliraDC38ABX- -O7Cad3X04VFWnTaiLyiguJJuM05JyZ15vdxosO8I8TjgInw0OmovXY59IWybMUJLsOtLo4KoLkuE8R66DisxuhBbdCkZeVkbBF14Rz9dMQyP8og0Av58nKQ6FdEsTzdpUAcqm44kTf-6DKPhUeNFMa8nd_VAqJDEbmTF_rNa-WtfOTjHixXKuJywfopQuQeFhCIW8jR4UN1FZUsJ8_UTdjZGhhUjKZtQtoU827j1OgkFFRrzTDn5UN9pxx6OMrQT-DKlVZ1EF5Zqk-Om-rvwfLpttvnlCFA6SgjsEJ6K1YdhNryiRjHXXoQwoaSR7IQx_uuPoMV7wHqhOMgsvh-LdEL6Kj6hpaz_9mroXEZcxWbwg5udC8IUKyIr_RiZP3r373lBufcgPcHrsm16FDPgyJXpW5m00]--></g></svg>