<svg xmlns="http://www.w3.org/2000/svg" xmlns:xlink="http://www.w3.org/1999/xlink" contentStyleType="text/css" data-diagram-type="CLASS" height="632px" preserveAspectRatio="none" style="width:702px;height:632px;background:#FFFFFF;" version="1.1" viewBox="0 0 702 632" width="702px" zoomAndPan="magnify"><defs/><g><!--class Examen--><g class="entity" data-entity="Examen" data-source-line="1" data-uid="ent0002" id="entity_Examen"><rect fill="#F1F1F1" height="80.5938" rx="2.5" ry="2.5" style="stroke:#181818;stroke-width:0.5;" width="140.625" x="284.65" y="180.89"/><ellipse cx="322.956" cy="196.89" fill="#ADD1B2" rx="11" ry="11" style="stroke:#181818;stroke-width:1;"/><path d="M325.9247,202.5306 Q325.3466,202.8275 324.706,202.9681 Q324.0653,203.1244 323.3622,203.1244 Q320.8622,203.1244 319.5341,201.4838 Q318.2216,199.8275 318.2216,196.7025 Q318.2216,193.5775 319.5341,191.9213 Q320.8622,190.265 323.3622,190.265 Q324.0653,190.265 324.706,190.4213 Q325.3622,190.5775 325.9247,190.8744 L325.9247,193.5931 Q325.2997,193.015 324.706,192.7494 Q324.1122,192.4681 323.4872,192.4681 Q322.1435,192.4681 321.456,193.5463 Q320.7685,194.6088 320.7685,196.7025 Q320.7685,198.7963 321.456,199.8744 Q322.1435,200.9369 323.4872,200.9369 Q324.1122,200.9369 324.706,200.6713 Q325.2997,200.39 325.9247,199.8119 L325.9247,202.5306 Z " fill="#000000"/><text fill="#000000" font-family="sans-serif" font-size="14" lengthAdjust="spacing" textLength="56.834" x="342.1351" y="201.7367">Examen</text><line style="stroke:#181818;stroke-width:0.5;" x1="285.65" x2="424.275" y1="212.89" y2="212.89"/><g data-visibility-modifier="PRIVATE_FIELD"><rect fill="none" height="6" style="stroke:#C82930;stroke-width:1;" width="6" x="292.65" y="223.5384"/></g><text fill="#000000" font-family="sans-serif" font-size="14" lengthAdjust="spacing" textLength="75.8447" x="304.65" y="229.8851">evaluaci&#243;n</text><g data-visibility-modifier="PRIVATE_FIELD"><rect fill="none" height="6" style="stroke:#C82930;stroke-width:1;" width="6" x="292.65" y="239.8353"/></g><text fill="#000000" font-family="sans-serif" font-size="14" lengthAdjust="spacing" textLength="114.625" x="304.65" y="246.182">clave correcci&#243;n</text><line style="stroke:#181818;stroke-width:0.5;" x1="285.65" x2="424.275" y1="253.4838" y2="253.4838"/></g><!--class Asignatura--><g class="entity" data-entity="Asignatura" data-source-line="5" data-uid="ent0003" id="entity_Asignatura"><rect fill="#F1F1F1" height="96.8906" rx="2.5" ry="2.5" style="stroke:#181818;stroke-width:0.5;" width="144.7813" x="165.57" y="7"/><ellipse cx="197.213" cy="23" fill="#ADD1B2" rx="11" ry="11" style="stroke:#181818;stroke-width:1;"/><path d="M200.1817,28.6406 Q199.6036,28.9375 198.963,29.0781 Q198.3223,29.2344 197.6192,29.2344 Q195.1192,29.2344 193.7911,27.5938 Q192.4786,25.9375 192.4786,22.8125 Q192.4786,19.6875 193.7911,18.0313 Q195.1192,16.375 197.6192,16.375 Q198.3223,16.375 198.963,16.5313 Q199.6192,16.6875 200.1817,16.9844 L200.1817,19.7031 Q199.5567,19.125 198.963,18.8594 Q198.3692,18.5781 197.7442,18.5781 Q196.4005,18.5781 195.713,19.6563 Q195.0255,20.7188 195.0255,22.8125 Q195.0255,24.9063 195.713,25.9844 Q196.4005,27.0469 197.7442,27.0469 Q198.3692,27.0469 198.963,26.7813 Q199.5567,26.5 200.1817,25.9219 L200.1817,28.6406 Z " fill="#000000"/><text fill="#000000" font-family="sans-serif" font-size="14" lengthAdjust="spacing" textLength="75.7969" x="214.9114" y="27.8467">Asignatura</text><line style="stroke:#181818;stroke-width:0.5;" x1="166.57" x2="309.3513" y1="39" y2="39"/><g data-visibility-modifier="PRIVATE_FIELD"><rect fill="none" height="6" style="stroke:#C82930;stroke-width:1;" width="6" x="173.57" y="49.6484"/></g><text fill="#000000" font-family="sans-serif" font-size="14" lengthAdjust="spacing" textLength="36.1963" x="185.57" y="55.9951">t&#237;tulo</text><g data-visibility-modifier="PRIVATE_FIELD"><rect fill="none" height="6" style="stroke:#C82930;stroke-width:1;" width="6" x="173.57" y="65.9453"/></g><text fill="#000000" font-family="sans-serif" font-size="14" lengthAdjust="spacing" textLength="46.4912" x="185.57" y="72.292">c&#243;digo</text><g data-visibility-modifier="PRIVATE_FIELD"><rect fill="none" height="6" style="stroke:#C82930;stroke-width:1;" width="6" x="173.57" y="82.2422"/></g><text fill="#000000" font-family="sans-serif" font-size="14" lengthAdjust="spacing" textLength="118.7813" x="185.57" y="88.5889">curso acad&#233;mico</text><line style="stroke:#181818;stroke-width:0.5;" x1="166.57" x2="309.3513" y1="95.8906" y2="95.8906"/></g><!--class Pregunta--><g class="entity" data-entity="Pregunta" data-source-line="10" data-uid="ent0004" id="entity_Pregunta"><rect fill="#F1F1F1" height="113.1875" rx="2.5" ry="2.5" style="stroke:#181818;stroke-width:0.5;" width="100.7988" x="486.56" y="346.63"/><ellipse cx="503.9388" cy="362.63" fill="#ADD1B2" rx="11" ry="11" style="stroke:#181818;stroke-width:1;"/><path d="M506.9075,368.2706 Q506.3294,368.5675 505.6888,368.7081 Q505.0481,368.8644 504.345,368.8644 Q501.845,368.8644 500.5169,367.2238 Q499.2044,365.5675 499.2044,362.4425 Q499.2044,359.3175 500.5169,357.6613 Q501.845,356.005 504.345,356.005 Q505.0481,356.005 505.6888,356.1613 Q506.345,356.3175 506.9075,356.6144 L506.9075,359.3331 Q506.2825,358.755 505.6888,358.4894 Q505.095,358.2081 504.47,358.2081 Q503.1263,358.2081 502.4388,359.2863 Q501.7513,360.3488 501.7513,362.4425 Q501.7513,364.5363 502.4388,365.6144 Q503.1263,366.6769 504.47,366.6769 Q505.095,366.6769 505.6888,366.4113 Q506.2825,366.13 506.9075,365.5519 L506.9075,368.2706 Z " fill="#000000"/><text fill="#000000" font-family="sans-serif" font-size="14" lengthAdjust="spacing" textLength="63.5127" x="518.4674" y="367.4767">Pregunta</text><line style="stroke:#181818;stroke-width:0.5;" x1="487.56" x2="586.3588" y1="378.63" y2="378.63"/><g data-visibility-modifier="PRIVATE_FIELD"><rect fill="none" height="6" style="stroke:#C82930;stroke-width:1;" width="6" x="494.56" y="389.2784"/></g><text fill="#000000" font-family="sans-serif" font-size="14" lengthAdjust="spacing" textLength="74.7988" x="506.56" y="395.6251">asignatura</text><g data-visibility-modifier="PRIVATE_FIELD"><rect fill="none" height="6" style="stroke:#C82930;stroke-width:1;" width="6" x="494.56" y="405.5753"/></g><text fill="#000000" font-family="sans-serif" font-size="14" lengthAdjust="spacing" textLength="72.8506" x="506.56" y="411.922">enunciado</text><g data-visibility-modifier="PRIVATE_FIELD"><rect fill="none" height="6" style="stroke:#C82930;stroke-width:1;" width="6" x="494.56" y="421.8722"/></g><text fill="#000000" font-family="sans-serif" font-size="14" lengthAdjust="spacing" textLength="36.3193" x="506.56" y="428.2189">tema</text><g data-visibility-modifier="PRIVATE_FIELD"><rect fill="none" height="6" style="stroke:#C82930;stroke-width:1;" width="6" x="494.56" y="438.1691"/></g><text fill="#000000" font-family="sans-serif" font-size="14" lengthAdjust="spacing" textLength="65.0098" x="506.56" y="444.5157">dificultad</text><line style="stroke:#181818;stroke-width:0.5;" x1="487.56" x2="586.3588" y1="451.8175" y2="451.8175"/></g><!--class BateriaDePreguntas--><g class="entity" data-entity="BateriaDePreguntas" data-source-line="16" data-uid="ent0005" id="entity_BateriaDePreguntas"><rect fill="#F1F1F1" height="48" rx="2.5" ry="2.5" style="stroke:#181818;stroke-width:0.5;" width="172.7109" x="460.6" y="197.19"/><ellipse cx="475.6" cy="213.19" fill="#ADD1B2" rx="11" ry="11" style="stroke:#181818;stroke-width:1;"/><path d="M478.5688,218.8306 Q477.9906,219.1275 477.35,219.2681 Q476.7094,219.4244 476.0063,219.4244 Q473.5063,219.4244 472.1781,217.7838 Q470.8656,216.1275 470.8656,213.0025 Q470.8656,209.8775 472.1781,208.2213 Q473.5063,206.565 476.0063,206.565 Q476.7094,206.565 477.35,206.7213 Q478.0063,206.8775 478.5688,207.1744 L478.5688,209.8931 Q477.9438,209.315 477.35,209.0494 Q476.7563,208.7681 476.1313,208.7681 Q474.7875,208.7681 474.1,209.8463 Q473.4125,210.9088 473.4125,213.0025 Q473.4125,215.0963 474.1,216.1744 Q474.7875,217.2369 476.1313,217.2369 Q476.7563,217.2369 477.35,216.9713 Q477.9438,216.69 478.5688,216.1119 L478.5688,218.8306 Z " fill="#000000"/><text fill="#000000" font-family="sans-serif" font-size="14" lengthAdjust="spacing" textLength="140.7109" x="489.6" y="218.0367">BateriaDePreguntas</text><line style="stroke:#181818;stroke-width:0.5;" x1="461.6" x2="632.3109" y1="229.19" y2="229.19"/><line style="stroke:#181818;stroke-width:0.5;" x1="461.6" x2="632.3109" y1="237.19" y2="237.19"/></g><!--class Grado--><g class="entity" data-entity="Grado" data-source-line="18" data-uid="ent0006" id="entity_Grado"><rect fill="#F1F1F1" height="80.5938" rx="2.5" ry="2.5" style="stroke:#181818;stroke-width:0.5;" width="74.6357" x="34.64" y="180.89"/><ellipse cx="49.64" cy="196.89" fill="#ADD1B2" rx="11" ry="11" style="stroke:#181818;stroke-width:1;"/><path d="M52.6088,202.5306 Q52.0306,202.8275 51.39,202.9681 Q50.7494,203.1244 50.0463,203.1244 Q47.5463,203.1244 46.2181,201.4838 Q44.9056,199.8275 44.9056,196.7025 Q44.9056,193.5775 46.2181,191.9213 Q47.5463,190.265 50.0463,190.265 Q50.7494,190.265 51.39,190.4213 Q52.0463,190.5775 52.6088,190.8744 L52.6088,193.5931 Q51.9838,193.015 51.39,192.7494 Q50.7963,192.4681 50.1713,192.4681 Q48.8275,192.4681 48.14,193.5463 Q47.4525,194.6088 47.4525,196.7025 Q47.4525,198.7963 48.14,199.8744 Q48.8275,200.9369 50.1713,200.9369 Q50.7963,200.9369 51.39,200.6713 Q51.9838,200.39 52.6088,199.8119 L52.6088,202.5306 Z " fill="#000000"/><text fill="#000000" font-family="sans-serif" font-size="14" lengthAdjust="spacing" textLength="42.6357" x="63.64" y="201.7367">Grado</text><line style="stroke:#181818;stroke-width:0.5;" x1="35.64" x2="108.2757" y1="212.89" y2="212.89"/><g data-visibility-modifier="PRIVATE_FIELD"><rect fill="none" height="6" style="stroke:#C82930;stroke-width:1;" width="6" x="42.64" y="223.5384"/></g><text fill="#000000" font-family="sans-serif" font-size="14" lengthAdjust="spacing" textLength="36.1963" x="54.64" y="229.8851">t&#237;tulo</text><g data-visibility-modifier="PRIVATE_FIELD"><rect fill="none" height="6" style="stroke:#C82930;stroke-width:1;" width="6" x="42.64" y="239.8353"/></g><text fill="#000000" font-family="sans-serif" font-size="14" lengthAdjust="spacing" textLength="46.4912" x="54.64" y="246.182">c&#243;digo</text><line style="stroke:#181818;stroke-width:0.5;" x1="35.64" x2="108.2757" y1="253.4838" y2="253.4838"/></g><!--class Profesor--><g class="entity" data-entity="Profesor" data-source-line="22" data-uid="ent0007" id="entity_Profesor"><rect fill="#F1F1F1" height="96.8906" rx="2.5" ry="2.5" style="stroke:#181818;stroke-width:0.5;" width="89.9209" x="7" y="7"/><ellipse cx="22" cy="23" fill="#ADD1B2" rx="11" ry="11" style="stroke:#181818;stroke-width:1;"/><path d="M24.9688,28.6406 Q24.3906,28.9375 23.75,29.0781 Q23.1094,29.2344 22.4063,29.2344 Q19.9063,29.2344 18.5781,27.5938 Q17.2656,25.9375 17.2656,22.8125 Q17.2656,19.6875 18.5781,18.0313 Q19.9063,16.375 22.4063,16.375 Q23.1094,16.375 23.75,16.5313 Q24.4063,16.6875 24.9688,16.9844 L24.9688,19.7031 Q24.3438,19.125 23.75,18.8594 Q23.1563,18.5781 22.5313,18.5781 Q21.1875,18.5781 20.5,19.6563 Q19.8125,20.7188 19.8125,22.8125 Q19.8125,24.9063 20.5,25.9844 Q21.1875,27.0469 22.5313,27.0469 Q23.1563,27.0469 23.75,26.7813 Q24.3438,26.5 24.9688,25.9219 L24.9688,28.6406 Z " fill="#000000"/><text fill="#000000" font-family="sans-serif" font-size="14" lengthAdjust="spacing" textLength="57.9209" x="36" y="27.8467">Profesor</text><line style="stroke:#181818;stroke-width:0.5;" x1="8" x2="95.9209" y1="39" y2="39"/><g data-visibility-modifier="PRIVATE_FIELD"><rect fill="none" height="6" style="stroke:#C82930;stroke-width:1;" width="6" x="15" y="49.6484"/></g><text fill="#000000" font-family="sans-serif" font-size="14" lengthAdjust="spacing" textLength="54.332" x="27" y="55.9951">nombre</text><g data-visibility-modifier="PRIVATE_FIELD"><rect fill="none" height="6" style="stroke:#C82930;stroke-width:1;" width="6" x="15" y="65.9453"/></g><text fill="#000000" font-family="sans-serif" font-size="14" lengthAdjust="spacing" textLength="62.4941" x="27" y="72.292">apellidos</text><g data-visibility-modifier="PRIVATE_FIELD"><rect fill="none" height="6" style="stroke:#C82930;stroke-width:1;" width="6" x="15" y="82.2422"/></g><text fill="#000000" font-family="sans-serif" font-size="14" lengthAdjust="spacing" textLength="25.3818" x="27" y="88.5889">DNI</text><line style="stroke:#181818;stroke-width:0.5;" x1="8" x2="95.9209" y1="95.8906" y2="95.8906"/></g><!--class Alumno--><g class="entity" data-entity="Alumno" data-source-line="27" data-uid="ent0008" id="entity_Alumno"><rect fill="#F1F1F1" height="96.8906" rx="2.5" ry="2.5" style="stroke:#181818;stroke-width:0.5;" width="88.4941" x="134.71" y="354.78"/><ellipse cx="151.0952" cy="370.78" fill="#ADD1B2" rx="11" ry="11" style="stroke:#181818;stroke-width:1;"/><path d="M154.0639,376.4206 Q153.4858,376.7175 152.8452,376.8581 Q152.2045,377.0144 151.5014,377.0144 Q149.0014,377.0144 147.6733,375.3738 Q146.3608,373.7175 146.3608,370.5925 Q146.3608,367.4675 147.6733,365.8113 Q149.0014,364.155 151.5014,364.155 Q152.2045,364.155 152.8452,364.3113 Q153.5014,364.4675 154.0639,364.7644 L154.0639,367.4831 Q153.4389,366.905 152.8452,366.6394 Q152.2514,366.3581 151.6264,366.3581 Q150.2827,366.3581 149.5952,367.4363 Q148.9077,368.4988 148.9077,370.5925 Q148.9077,372.6863 149.5952,373.7644 Q150.2827,374.8269 151.6264,374.8269 Q152.2514,374.8269 152.8452,374.5613 Q153.4389,374.28 154.0639,373.7019 L154.0639,376.4206 Z " fill="#000000"/><text fill="#000000" font-family="sans-serif" font-size="14" lengthAdjust="spacing" textLength="53.416" x="165.403" y="375.6267">Alumno</text><line style="stroke:#181818;stroke-width:0.5;" x1="135.71" x2="222.2041" y1="386.78" y2="386.78"/><g data-visibility-modifier="PRIVATE_FIELD"><rect fill="none" height="6" style="stroke:#C82930;stroke-width:1;" width="6" x="142.71" y="397.4284"/></g><text fill="#000000" font-family="sans-serif" font-size="14" lengthAdjust="spacing" textLength="54.332" x="154.71" y="403.7751">nombre</text><g data-visibility-modifier="PRIVATE_FIELD"><rect fill="none" height="6" style="stroke:#C82930;stroke-width:1;" width="6" x="142.71" y="413.7253"/></g><text fill="#000000" font-family="sans-serif" font-size="14" lengthAdjust="spacing" textLength="62.4941" x="154.71" y="420.072">apellidos</text><g data-visibility-modifier="PRIVATE_FIELD"><rect fill="none" height="6" style="stroke:#C82930;stroke-width:1;" width="6" x="142.71" y="430.0222"/></g><text fill="#000000" font-family="sans-serif" font-size="14" lengthAdjust="spacing" textLength="25.3818" x="154.71" y="436.3689">DNI</text><line style="stroke:#181818;stroke-width:0.5;" x1="135.71" x2="222.2041" y1="443.6706" y2="443.6706"/></g><!--class Evaluaci?nExamen--><g class="entity" data-entity="Evaluaci.nExamen" data-source-line="32" data-uid="ent0009" id="entity_Evaluaci.nExamen"><rect fill="#F1F1F1" height="129.4844" rx="2.5" ry="2.5" style="stroke:#181818;stroke-width:0.5;" width="186.7676" x="261.58" y="338.49"/><ellipse cx="286.4154" cy="354.49" fill="#EB937F" rx="11" ry="11" style="stroke:#181818;stroke-width:1;"/><path d="M290.5248,360.49 L282.806,360.49 L282.806,348.0994 L290.5248,348.0994 L290.5248,350.2556 L285.2592,350.2556 L285.2592,352.9275 L290.0248,352.9275 L290.0248,355.0838 L285.2592,355.0838 L285.2592,358.3338 L290.5248,358.3338 L290.5248,360.49 Z " fill="#000000"/><text fill="#000000" font-family="sans-serif" font-size="14" lengthAdjust="spacing" textLength="132.9111" x="302.601" y="359.3367">Evaluaci&#243;nExamen</text><line style="stroke:#181818;stroke-width:0.5;" x1="262.58" x2="447.3476" y1="370.49" y2="370.49"/><g data-visibility-modifier="PRIVATE_FIELD"><rect fill="none" height="6" style="stroke:#C82930;stroke-width:1;" width="6" x="269.58" y="381.1384"/></g><text fill="#000000" font-family="sans-serif" font-size="14" lengthAdjust="spacing" textLength="60.1904" x="281.58" y="387.4851">Parcial 1</text><g data-visibility-modifier="PRIVATE_FIELD"><rect fill="none" height="6" style="stroke:#C82930;stroke-width:1;" width="6" x="269.58" y="397.4353"/></g><text fill="#000000" font-family="sans-serif" font-size="14" lengthAdjust="spacing" textLength="60.1904" x="281.58" y="403.782">Parcial 2</text><g data-visibility-modifier="PRIVATE_FIELD"><rect fill="none" height="6" style="stroke:#C82930;stroke-width:1;" width="6" x="269.58" y="413.7322"/></g><text fill="#000000" font-family="sans-serif" font-size="14" lengthAdjust="spacing" textLength="60.1904" x="281.58" y="420.0789">Parcial 3</text><g data-visibility-modifier="PRIVATE_FIELD"><rect fill="none" height="6" style="stroke:#C82930;stroke-width:1;" width="6" x="269.58" y="430.0291"/></g><text fill="#000000" font-family="sans-serif" font-size="14" lengthAdjust="spacing" textLength="91.4443" x="281.58" y="436.3757">Examen final</text><g data-visibility-modifier="PRIVATE_FIELD"><rect fill="none" height="6" style="stroke:#C82930;stroke-width:1;" width="6" x="269.58" y="446.3259"/></g><text fill="#000000" font-family="sans-serif" font-size="14" lengthAdjust="spacing" textLength="160.7676" x="281.58" y="452.6726">Examen extraordinario</text><line style="stroke:#181818;stroke-width:0.5;" x1="262.58" x2="447.3476" y1="459.9744" y2="459.9744"/></g><!--class DificultadPregunta--><g class="entity" data-entity="DificultadPregunta" data-source-line="39" data-uid="ent0010" id="entity_DificultadPregunta"><rect fill="#F1F1F1" height="96.8906" rx="2.5" ry="2.5" style="stroke:#181818;stroke-width:0.5;" width="162.416" x="286.75" y="528.97"/><ellipse cx="301.75" cy="544.97" fill="#EB937F" rx="11" ry="11" style="stroke:#181818;stroke-width:1;"/><path d="M305.8594,550.97 L298.1406,550.97 L298.1406,538.5794 L305.8594,538.5794 L305.8594,540.7356 L300.5938,540.7356 L300.5938,543.4075 L305.3594,543.4075 L305.3594,545.5638 L300.5938,545.5638 L300.5938,548.8138 L305.8594,548.8138 L305.8594,550.97 Z " fill="#000000"/><text fill="#000000" font-family="sans-serif" font-size="14" lengthAdjust="spacing" textLength="130.416" x="315.75" y="549.8167">DificultadPregunta</text><line style="stroke:#181818;stroke-width:0.5;" x1="287.75" x2="448.166" y1="560.97" y2="560.97"/><g data-visibility-modifier="PRIVATE_FIELD"><rect fill="none" height="6" style="stroke:#C82930;stroke-width:1;" width="6" x="294.75" y="571.6184"/></g><text fill="#000000" font-family="sans-serif" font-size="14" lengthAdjust="spacing" textLength="28.9844" x="306.75" y="577.9651">facil</text><g data-visibility-modifier="PRIVATE_FIELD"><rect fill="none" height="6" style="stroke:#C82930;stroke-width:1;" width="6" x="294.75" y="587.9153"/></g><text fill="#000000" font-family="sans-serif" font-size="14" lengthAdjust="spacing" textLength="43.5928" x="306.75" y="594.262">medio</text><g data-visibility-modifier="PRIVATE_FIELD"><rect fill="none" height="6" style="stroke:#C82930;stroke-width:1;" width="6" x="294.75" y="604.2122"/></g><text fill="#000000" font-family="sans-serif" font-size="14" lengthAdjust="spacing" textLength="37.0713" x="306.75" y="610.5589">dificil</text><line style="stroke:#181818;stroke-width:0.5;" x1="287.75" x2="448.166" y1="617.8606" y2="617.8606"/></g><!--class Respuesta--><g class="entity" data-entity="Respuesta" data-source-line="45" data-uid="ent0011" id="entity_Respuesta"><rect fill="#F1F1F1" height="80.5938" rx="2.5" ry="2.5" style="stroke:#181818;stroke-width:0.5;" width="105.3701" x="484.28" y="537.12"/><ellipse cx="499.28" cy="553.12" fill="#ADD1B2" rx="11" ry="11" style="stroke:#181818;stroke-width:1;"/><path d="M502.2488,558.7606 Q501.6706,559.0575 501.03,559.1981 Q500.3894,559.3544 499.6863,559.3544 Q497.1863,559.3544 495.8581,557.7138 Q494.5456,556.0575 494.5456,552.9325 Q494.5456,549.8075 495.8581,548.1513 Q497.1863,546.495 499.6863,546.495 Q500.3894,546.495 501.03,546.6513 Q501.6863,546.8075 502.2488,547.1044 L502.2488,549.8231 Q501.6238,549.245 501.03,548.9794 Q500.4363,548.6981 499.8113,548.6981 Q498.4675,548.6981 497.78,549.7763 Q497.0925,550.8388 497.0925,552.9325 Q497.0925,555.0263 497.78,556.1044 Q498.4675,557.1669 499.8113,557.1669 Q500.4363,557.1669 501.03,556.9013 Q501.6238,556.62 502.2488,556.0419 L502.2488,558.7606 Z " fill="#000000"/><text fill="#000000" font-family="sans-serif" font-size="14" lengthAdjust="spacing" textLength="73.3701" x="513.28" y="557.9667">Respuesta</text><line style="stroke:#181818;stroke-width:0.5;" x1="485.28" x2="588.6501" y1="569.12" y2="569.12"/><g data-visibility-modifier="PRIVATE_FIELD"><rect fill="none" height="6" style="stroke:#C82930;stroke-width:1;" width="6" x="492.28" y="579.7684"/></g><text fill="#000000" font-family="sans-serif" font-size="14" lengthAdjust="spacing" textLength="46.4775" x="504.28" y="586.1151">opci&#243;n</text><g data-visibility-modifier="PRIVATE_FIELD"><rect fill="none" height="6" style="stroke:#C82930;stroke-width:1;" width="6" x="492.28" y="596.0653"/></g><text fill="#000000" font-family="sans-serif" font-size="14" lengthAdjust="spacing" textLength="76.1387" x="504.28" y="602.412">esCorrecta</text><line style="stroke:#181818;stroke-width:0.5;" x1="485.28" x2="588.6501" y1="609.7138" y2="609.7138"/></g><!--class Tema--><g class="entity" data-entity="Tema" data-source-line="50" data-uid="ent0012" id="entity_Tema"><rect fill="#F1F1F1" height="48" rx="2.5" ry="2.5" style="stroke:#181818;stroke-width:0.5;" width="71.3818" x="624.27" y="553.41"/><ellipse cx="639.27" cy="569.41" fill="#EB937F" rx="11" ry="11" style="stroke:#181818;stroke-width:1;"/><path d="M643.3794,575.41 L635.6606,575.41 L635.6606,563.0194 L643.3794,563.0194 L643.3794,565.1756 L638.1138,565.1756 L638.1138,567.8475 L642.8794,567.8475 L642.8794,570.0038 L638.1138,570.0038 L638.1138,573.2538 L643.3794,573.2538 L643.3794,575.41 Z " fill="#000000"/><text fill="#000000" font-family="sans-serif" font-size="14" lengthAdjust="spacing" textLength="39.3818" x="653.27" y="574.2567">Tema</text><line style="stroke:#181818;stroke-width:0.5;" x1="625.27" x2="694.6518" y1="585.41" y2="585.41"/><line style="stroke:#181818;stroke-width:0.5;" x1="625.27" x2="694.6518" y1="593.41" y2="593.41"/></g><!--reverse link Pregunta to Respuesta--><g class="link" data-entity-1="Pregunta" data-entity-2="Respuesta" data-source-line="53" data-uid="lnk14" id="link_Pregunta_Respuesta"><path codeLine="53" d="M536.96,472.13 C536.96,497.17 536.96,514.11 536.96,536.86" fill="none" id="Pregunta-backto-Respuesta" style="stroke:#181818;stroke-width:1;"/><polygon fill="#181818" points="536.96,460.13,532.96,466.13,536.96,472.13,540.96,466.13,536.96,460.13" style="stroke:#181818;stroke-width:1;"/></g><!--link Pregunta to DificultadPregunta--><g class="link" data-entity-1="Pregunta" data-entity-2="DificultadPregunta" data-source-line="54" data-uid="lnk15" id="link_Pregunta_DificultadPregunta"><path codeLine="54" d="M486.25,455.89 C463.6,478.97 437.07,506 414.88,528.61" fill="none" id="Pregunta-DificultadPregunta" style="stroke:#181818;stroke-width:1;stroke-dasharray:7,7;"/></g><!--reverse link Examen to Pregunta--><g class="link" data-entity-1="Examen" data-entity-2="Pregunta" data-source-line="55" data-uid="lnk17" id="link_Examen_Pregunta"><path codeLine="55" d="M403.4312,270.1392 C430.3212,296.7392 457.48,323.6 486.36,352.17" fill="none" id="Examen-backto-Pregunta" style="stroke:#181818;stroke-width:1;"/><polygon fill="none" points="394.9,261.7,396.3525,268.7633,403.4312,270.1392,401.9786,263.0759,394.9,261.7" style="stroke:#181818;stroke-width:1;"/><text fill="#000000" font-family="sans-serif" font-size="13" lengthAdjust="spacing" textLength="56.2847" x="440.96" y="304.5569">contiene</text></g><!--reverse link BateriaDePreguntas to Pregunta--><g class="link" data-entity-1="BateriaDePreguntas" data-entity-2="Pregunta" data-source-line="56" data-uid="lnk19" id="link_BateriaDePreguntas_Pregunta"><path codeLine="56" d="M545.0083,257.3417 C543.6083,282.6917 541.96,312.28 540.07,346.26" fill="none" id="BateriaDePreguntas-backto-Pregunta" style="stroke:#181818;stroke-width:1;"/><polygon fill="#181818" points="545.67,245.36,541.3452,251.1303,545.0083,257.3417,549.3331,251.5714,545.67,245.36" style="stroke:#181818;stroke-width:1;"/><text fill="#000000" font-family="sans-serif" font-size="13" lengthAdjust="spacing" textLength="56.2847" x="542.96" y="304.5569">contiene</text></g><!--link Examen to Evaluaci?nExamen--><g class="link" data-entity-1="Examen" data-entity-2="Evaluaci.nExamen" data-source-line="57" data-uid="lnk20" id="link_Examen_Evaluaci.nExamen"><path codeLine="57" d="M354.96,261.7 C354.96,284.06 354.96,312.56 354.96,338.05" fill="none" id="Examen-Evaluaci&#243;nExamen" style="stroke:#181818;stroke-width:1;stroke-dasharray:7,7;"/></g><!--reverse link Asignatura to BateriaDePreguntas--><g class="link" data-entity-1="Asignatura" data-entity-2="BateriaDePreguntas" data-source-line="58" data-uid="lnk22" id="link_Asignatura_BateriaDePreguntas"><path codeLine="58" d="M321.4031,100.6591 C380.9931,132.2391 452.73,170.26 502.78,196.78" fill="none" id="Asignatura-backto-BateriaDePreguntas" style="stroke:#181818;stroke-width:1;"/><polygon fill="#181818" points="310.8,95.04,314.2285,101.3839,321.4031,100.6591,317.9746,94.3152,310.8,95.04" style="stroke:#181818;stroke-width:1;"/><text fill="#000000" font-family="sans-serif" font-size="13" lengthAdjust="spacing" textLength="32.9443" x="411.96" y="146.9569">tiene</text></g><!--reverse link Asignatura to Examen--><g class="link" data-entity-1="Asignatura" data-entity-2="Examen" data-source-line="59" data-uid="lnk24" id="link_Asignatura_Examen"><path codeLine="59" d="M279.0952,114.0145 C296.4252,138.2745 310.26,157.62 326.68,180.61" fill="none" id="Asignatura-backto-Examen" style="stroke:#181818;stroke-width:1;"/><polygon fill="#181818" points="272.12,104.25,272.3528,111.4573,279.0952,114.0145,278.8625,106.8072,272.12,104.25" style="stroke:#181818;stroke-width:1;"/><text fill="#000000" font-family="sans-serif" font-size="13" lengthAdjust="spacing" textLength="32.9443" x="303.96" y="146.9569">tiene</text></g><!--reverse link Profesor to Asignatura--><g class="link" data-entity-1="Profesor" data-entity-2="Asignatura" data-source-line="60" data-uid="lnk25" id="link_Profesor_Asignatura"><path codeLine="60" d="M108.99,55.45 C129.52,55.45 142.35,55.45 165.42,55.45" fill="none" id="Profesor-backto-Asignatura" style="stroke:#181818;stroke-width:1;"/><polygon fill="none" points="96.99,55.45,102.99,59.45,108.99,55.45,102.99,51.45,96.99,55.45" style="stroke:#181818;stroke-width:1;"/><text fill="#000000" font-family="sans-serif" font-size="13" lengthAdjust="spacing" textLength="32.9443" x="115.25" y="48.5169">tiene</text></g><!--link Asignatura to Grado--><g class="link" data-entity-1="Asignatura" data-entity-2="Grado" data-source-line="61" data-uid="lnk26" id="link_Asignatura_Grado"><path codeLine="61" d="M165.44,81.72 C139.88,93.89 113.05,110.94 94.96,133.89 C84.5,147.16 81.1048,153.0074 77.9748,168.8574" fill="none" id="Asignatura-to-Grado" style="stroke:#181818;stroke-width:1;"/><polygon fill="#181818" points="75.65,180.63,80.7366,175.5186,77.9748,168.8574,72.8882,173.9687,75.65,180.63" style="stroke:#181818;stroke-width:1;"/><text fill="#000000" font-family="sans-serif" font-size="13" lengthAdjust="spacing" textLength="56.2847" x="95.96" y="146.9569">contiene</text></g><!--reverse link Examen to Alumno--><g class="link" data-entity-1="Examen" data-entity-2="Alumno" data-source-line="62" data-uid="lnk28" id="link_Examen_Alumno"><path codeLine="62" d="M307.9501,270.2796 C280.5201,298.3296 252.03,327.48 223.39,356.78" fill="none" id="Examen-backto-Alumno" style="stroke:#181818;stroke-width:1;"/><polygon fill="none" points="316.34,261.7,309.2852,263.1931,307.9501,270.2796,315.0049,268.7864,316.34,261.7" style="stroke:#181818;stroke-width:1;"/><text fill="#000000" font-family="sans-serif" font-size="13" lengthAdjust="spacing" textLength="43.3228" x="282.96" y="304.5569">realiza</text></g><!--reverse link Asignatura to Alumno--><g class="link" data-entity-1="Asignatura" data-entity-2="Alumno" data-source-line="63" data-uid="lnk30" id="link_Asignatura_Alumno"><path codeLine="63" d="M214.6195,115.4031 C206.2195,138.2531 201.24,154.97 195.96,180.89 C183.91,239.99 180.24,309.55 179.21,354.69" fill="none" id="Asignatura-backto-Alumno" style="stroke:#181818;stroke-width:1;"/><polygon fill="#181818" points="218.76,104.14,212.9354,108.3914,214.6195,115.4031,220.4441,111.1517,218.76,104.14" style="stroke:#181818;stroke-width:1;"/><text fill="#000000" font-family="sans-serif" font-size="13" lengthAdjust="spacing" textLength="69.8369" x="196.96" y="225.7569">se imparte</text></g><!--reverse link Grado to Alumno--><g class="link" data-entity-1="Grado" data-entity-2="Alumno" data-source-line="64" data-uid="lnk32" id="link_Grado_Alumno"><path codeLine="64" d="M82.5779,273.4621 C86.4779,288.6321 89.1,294.11 96.96,308.49 C106.92,326.7 120.94,344.43 134.57,359.49" fill="none" id="Grado-backto-Alumno" style="stroke:#181818;stroke-width:1;"/><polygon fill="#181818" points="79.59,261.84,77.2099,268.647,82.5779,273.4621,84.958,266.6551,79.59,261.84" style="stroke:#181818;stroke-width:1;"/><text fill="#000000" font-family="sans-serif" font-size="13" lengthAdjust="spacing" textLength="54.374" x="97.96" y="304.5569">se cursa</text></g><!--link Pregunta to Tema--><g class="link" data-entity-1="Pregunta" data-entity-2="Tema" data-source-line="65" data-uid="lnk33" id="link_Pregunta_Tema"><path codeLine="65" d="M576.9,460.13 C599.48,491.75 626.51,529.59 643.46,553.32" fill="none" id="Pregunta-Tema" style="stroke:#181818;stroke-width:1;stroke-dasharray:7,7;"/></g><!--SRC=[XLDBJiCm4Dtd55uZfHAmOmUqGcnGXRZ0O4yhI_v4Oxkgg7eW5gnwX5mCnsaSfwHYv_cyDpDlnbo1Ssor1utcKB6QuGvK02xRa-bChc27Z5iYvBtpMF64UNHoQy07WeJpxOyFoYPCUn9ospy3ESk0WsY_jUGsezU4ss1yZuLCbJemmN098X5urCafv4Roe3o8JF447ad24WSkTyYn5uhuQtsDFTWDEaifprZzIPYwQL0fAQphZENRwpYn2jhO_xFZ09gjHXqBTTT0SJJ5RalZhZJkEwD7i8qqe0eRzvx0aeXkadQejCpIJ4JTnE89h558cpMClcDr7kWTNHFGdG6soLj7zvmsxg5BJbK-uY8wVQiCOdMeR_8Yg-715ekPbiPmHDbXe8TuMSPBD3Y9typijimzesEXFofNCyZ4E9vhP9hGN0iFvy5iJVLSGk6g8qMwkRBD_buk1YO49R-W25uKTyYaRe0yJd86zXZkFjLKxsuvlm00]--></g></svg>