<svg xmlns="http://www.w3.org/2000/svg" xmlns:xlink="http://www.w3.org/1999/xlink" contentStyleType="text/css" data-diagram-type="CLASS" height="962px" preserveAspectRatio="none" style="width:964px;height:962px;background:#FFFFFF;" version="1.1" viewBox="0 0 964 962" width="964px" zoomAndPan="magnify"><defs/><g><!--class Examen--><g class="entity" data-entity="Examen" data-source-line="1" data-uid="ent0002" id="entity_Examen"><rect fill="#F1F1F1" height="80.5938" rx="2.5" ry="2.5" style="stroke:#181818;stroke-width:0.5;" width="140.625" x="617.04" y="132"/><ellipse cx="655.346" cy="148" fill="#ADD1B2" rx="11" ry="11" style="stroke:#181818;stroke-width:1;"/><path d="M658.3147,153.6406 Q657.7366,153.9375 657.096,154.0781 Q656.4553,154.2344 655.7522,154.2344 Q653.2522,154.2344 651.9241,152.5938 Q650.6116,150.9375 650.6116,147.8125 Q650.6116,144.6875 651.9241,143.0313 Q653.2522,141.375 655.7522,141.375 Q656.4553,141.375 657.096,141.5313 Q657.7522,141.6875 658.3147,141.9844 L658.3147,144.7031 Q657.6897,144.125 657.096,143.8594 Q656.5022,143.5781 655.8772,143.5781 Q654.5335,143.5781 653.846,144.6563 Q653.1585,145.7188 653.1585,147.8125 Q653.1585,149.9063 653.846,150.9844 Q654.5335,152.0469 655.8772,152.0469 Q656.5022,152.0469 657.096,151.7813 Q657.6897,151.5 658.3147,150.9219 L658.3147,153.6406 Z " fill="#000000"/><text fill="#000000" font-family="sans-serif" font-size="14" lengthAdjust="spacing" textLength="56.834" x="674.5251" y="152.8467">Examen</text><line style="stroke:#181818;stroke-width:0.5;" x1="618.04" x2="756.665" y1="164" y2="164"/><rect fill="none" height="6" style="stroke:#C82930;stroke-width:1;" width="6" x="625.04" y="174.6484"/><text fill="#000000" font-family="sans-serif" font-size="14" lengthAdjust="spacing" textLength="75.8447" x="637.04" y="180.9951">evaluaci&#243;n</text><rect fill="none" height="6" style="stroke:#C82930;stroke-width:1;" width="6" x="625.04" y="190.9453"/><text fill="#000000" font-family="sans-serif" font-size="14" lengthAdjust="spacing" textLength="114.625" x="637.04" y="197.292">clave correcci&#243;n</text><line style="stroke:#181818;stroke-width:0.5;" x1="618.04" x2="756.665" y1="204.5938" y2="204.5938"/></g><!--class Asignatura--><g class="entity" data-entity="Asignatura" data-source-line="5" data-uid="ent0003" id="entity_Asignatura"><rect fill="#F1F1F1" height="80.5938" rx="2.5" ry="2.5" style="stroke:#181818;stroke-width:0.5;" width="107.7969" x="280.46" y="289.59"/><ellipse cx="295.46" cy="305.59" fill="#ADD1B2" rx="11" ry="11" style="stroke:#181818;stroke-width:1;"/><path d="M298.4288,311.2306 Q297.8506,311.5275 297.21,311.6681 Q296.5694,311.8244 295.8663,311.8244 Q293.3663,311.8244 292.0381,310.1838 Q290.7256,308.5275 290.7256,305.4025 Q290.7256,302.2775 292.0381,300.6213 Q293.3663,298.965 295.8663,298.965 Q296.5694,298.965 297.21,299.1213 Q297.8663,299.2775 298.4288,299.5744 L298.4288,302.2931 Q297.8038,301.715 297.21,301.4494 Q296.6163,301.1681 295.9913,301.1681 Q294.6475,301.1681 293.96,302.2463 Q293.2725,303.3088 293.2725,305.4025 Q293.2725,307.4963 293.96,308.5744 Q294.6475,309.6369 295.9913,309.6369 Q296.6163,309.6369 297.21,309.3713 Q297.8038,309.09 298.4288,308.5119 L298.4288,311.2306 Z " fill="#000000"/><text fill="#000000" font-family="sans-serif" font-size="14" lengthAdjust="spacing" textLength="75.7969" x="309.46" y="310.4367">Asignatura</text><line style="stroke:#181818;stroke-width:0.5;" x1="281.46" x2="387.2569" y1="321.59" y2="321.59"/><rect fill="none" height="6" style="stroke:#C82930;stroke-width:1;" width="6" x="288.46" y="332.2384"/><text fill="#000000" font-family="sans-serif" font-size="14" lengthAdjust="spacing" textLength="36.1963" x="300.46" y="338.5851">t&#237;tulo</text><rect fill="none" height="6" style="stroke:#C82930;stroke-width:1;" width="6" x="288.46" y="348.5353"/><text fill="#000000" font-family="sans-serif" font-size="14" lengthAdjust="spacing" textLength="46.4912" x="300.46" y="354.882">c&#243;digo</text><line style="stroke:#181818;stroke-width:0.5;" x1="281.46" x2="387.2569" y1="362.1838" y2="362.1838"/></g><!--class Tema--><g class="entity" data-entity="Tema" data-source-line="9" data-uid="ent0004" id="entity_Tema"><rect fill="#F1F1F1" height="64.2969" rx="2.5" ry="2.5" style="stroke:#181818;stroke-width:0.5;" width="71.3818" x="302.66" y="574.07"/><ellipse cx="317.66" cy="590.07" fill="#ADD1B2" rx="11" ry="11" style="stroke:#181818;stroke-width:1;"/><path d="M320.6288,595.7106 Q320.0506,596.0075 319.41,596.1481 Q318.7694,596.3044 318.0663,596.3044 Q315.5663,596.3044 314.2381,594.6638 Q312.9256,593.0075 312.9256,589.8825 Q312.9256,586.7575 314.2381,585.1013 Q315.5663,583.445 318.0663,583.445 Q318.7694,583.445 319.41,583.6013 Q320.0663,583.7575 320.6288,584.0544 L320.6288,586.7731 Q320.0038,586.195 319.41,585.9294 Q318.8163,585.6481 318.1913,585.6481 Q316.8475,585.6481 316.16,586.7263 Q315.4725,587.7888 315.4725,589.8825 Q315.4725,591.9763 316.16,593.0544 Q316.8475,594.1169 318.1913,594.1169 Q318.8163,594.1169 319.41,593.8513 Q320.0038,593.57 320.6288,592.9919 L320.6288,595.7106 Z " fill="#000000"/><text fill="#000000" font-family="sans-serif" font-size="14" lengthAdjust="spacing" textLength="39.3818" x="331.66" y="594.9167">Tema</text><line style="stroke:#181818;stroke-width:0.5;" x1="303.66" x2="373.0418" y1="606.07" y2="606.07"/><rect fill="none" height="6" style="stroke:#C82930;stroke-width:1;" width="6" x="310.66" y="616.7184"/><text fill="#000000" font-family="sans-serif" font-size="14" lengthAdjust="spacing" textLength="36.1963" x="322.66" y="623.0651">t&#237;tulo</text><line style="stroke:#181818;stroke-width:0.5;" x1="303.66" x2="373.0418" y1="630.3669" y2="630.3669"/></g><!--class Pregunta--><g class="entity" data-entity="Pregunta" data-source-line="12" data-uid="ent0005" id="entity_Pregunta"><rect fill="#F1F1F1" height="145.7813" rx="2.5" ry="2.5" style="stroke:#181818;stroke-width:0.5;" width="162.2334" x="218.24" y="809.67"/><ellipse cx="263.3504" cy="825.67" fill="#ADD1B2" rx="11" ry="11" style="stroke:#181818;stroke-width:1;"/><path d="M266.3191,831.3106 Q265.741,831.6075 265.1004,831.7481 Q264.4597,831.9044 263.7566,831.9044 Q261.2566,831.9044 259.9285,830.2638 Q258.616,828.6075 258.616,825.4825 Q258.616,822.3575 259.9285,820.7013 Q261.2566,819.045 263.7566,819.045 Q264.4597,819.045 265.1004,819.2013 Q265.7566,819.3575 266.3191,819.6544 L266.3191,822.3731 Q265.6941,821.795 265.1004,821.5294 Q264.5066,821.2481 263.8816,821.2481 Q262.5379,821.2481 261.8504,822.3263 Q261.1629,823.3888 261.1629,825.4825 Q261.1629,827.5763 261.8504,828.6544 Q262.5379,829.7169 263.8816,829.7169 Q264.5066,829.7169 265.1004,829.4513 Q265.6941,829.17 266.3191,828.5919 L266.3191,831.3106 Z " fill="#000000"/><text fill="#000000" font-family="sans-serif" font-size="14" lengthAdjust="spacing" textLength="63.5127" x="283.8504" y="830.5167">Pregunta</text><line style="stroke:#181818;stroke-width:0.5;" x1="219.24" x2="379.4734" y1="841.67" y2="841.67"/><rect fill="none" height="6" style="stroke:#C82930;stroke-width:1;" width="6" x="226.24" y="852.3184"/><text fill="#000000" font-family="sans-serif" font-size="14" lengthAdjust="spacing" textLength="74.7988" x="238.24" y="858.6651">asignatura</text><rect fill="none" height="6" style="stroke:#C82930;stroke-width:1;" width="6" x="226.24" y="868.6153"/><text fill="#000000" font-family="sans-serif" font-size="14" lengthAdjust="spacing" textLength="36.3193" x="238.24" y="874.962">tema</text><rect fill="none" height="6" style="stroke:#C82930;stroke-width:1;" width="6" x="226.24" y="884.9122"/><text fill="#000000" font-family="sans-serif" font-size="14" lengthAdjust="spacing" textLength="72.8506" x="238.24" y="891.2589">enunciado</text><rect fill="none" height="6" style="stroke:#C82930;stroke-width:1;" width="6" x="226.24" y="901.2091"/><text fill="#000000" font-family="sans-serif" font-size="14" lengthAdjust="spacing" textLength="136.2334" x="238.24" y="907.5557">opciones respuesta</text><rect fill="none" height="6" style="stroke:#C82930;stroke-width:1;" width="6" x="226.24" y="917.5059"/><text fill="#000000" font-family="sans-serif" font-size="14" lengthAdjust="spacing" textLength="132.002" x="238.24" y="923.8526">respuesta correcta</text><rect fill="none" height="6" style="stroke:#C82930;stroke-width:1;" width="6" x="226.24" y="933.8028"/><text fill="#000000" font-family="sans-serif" font-size="14" lengthAdjust="spacing" textLength="65.0098" x="238.24" y="940.1495">dificultad</text><line style="stroke:#181818;stroke-width:0.5;" x1="219.24" x2="379.4734" y1="947.4513" y2="947.4513"/></g><!--class BateriaDePreguntas--><g class="entity" data-entity="BateriaDePreguntas" data-source-line="20" data-uid="ent0006" id="entity_BateriaDePreguntas"><rect fill="#F1F1F1" height="64.2969" rx="2.5" ry="2.5" style="stroke:#181818;stroke-width:0.5;" width="172.7109" x="7" y="668.37"/><ellipse cx="22" cy="684.37" fill="#ADD1B2" rx="11" ry="11" style="stroke:#181818;stroke-width:1;"/><path d="M24.9688,690.0106 Q24.3906,690.3075 23.75,690.4481 Q23.1094,690.6044 22.4063,690.6044 Q19.9063,690.6044 18.5781,688.9638 Q17.2656,687.3075 17.2656,684.1825 Q17.2656,681.0575 18.5781,679.4013 Q19.9063,677.745 22.4063,677.745 Q23.1094,677.745 23.75,677.9013 Q24.4063,678.0575 24.9688,678.3544 L24.9688,681.0731 Q24.3438,680.495 23.75,680.2294 Q23.1563,679.9481 22.5313,679.9481 Q21.1875,679.9481 20.5,681.0263 Q19.8125,682.0888 19.8125,684.1825 Q19.8125,686.2763 20.5,687.3544 Q21.1875,688.4169 22.5313,688.4169 Q23.1563,688.4169 23.75,688.1513 Q24.3438,687.87 24.9688,687.2919 L24.9688,690.0106 Z " fill="#000000"/><text fill="#000000" font-family="sans-serif" font-size="14" lengthAdjust="spacing" textLength="140.7109" x="36" y="689.2167">BateriaDePreguntas</text><line style="stroke:#181818;stroke-width:0.5;" x1="8" x2="178.7109" y1="700.37" y2="700.37"/><rect fill="none" height="6" style="stroke:#C82930;stroke-width:1;" width="6" x="15" y="711.0184"/><text fill="#000000" font-family="sans-serif" font-size="14" lengthAdjust="spacing" textLength="71.251" x="27" y="717.3651">preguntas</text><line style="stroke:#181818;stroke-width:0.5;" x1="8" x2="178.7109" y1="724.6669" y2="724.6669"/></g><!--class ModeloCorrecci?n--><g class="entity" data-entity="ModeloCorrecci.n" data-source-line="23" data-uid="ent0007" id="entity_ModeloCorrecci.n"><rect fill="#F1F1F1" height="64.2969" rx="2.5" ry="2.5" style="stroke:#181818;stroke-width:0.5;" width="157.7881" x="688.46" y="297.74"/><ellipse cx="703.46" cy="313.74" fill="#ADD1B2" rx="11" ry="11" style="stroke:#181818;stroke-width:1;"/><path d="M706.4288,319.3806 Q705.8506,319.6775 705.21,319.8181 Q704.5694,319.9744 703.8663,319.9744 Q701.3663,319.9744 700.0381,318.3338 Q698.7256,316.6775 698.7256,313.5525 Q698.7256,310.4275 700.0381,308.7713 Q701.3663,307.115 703.8663,307.115 Q704.5694,307.115 705.21,307.2713 Q705.8663,307.4275 706.4288,307.7244 L706.4288,310.4431 Q705.8038,309.865 705.21,309.5994 Q704.6163,309.3181 703.9913,309.3181 Q702.6475,309.3181 701.96,310.3963 Q701.2725,311.4588 701.2725,313.5525 Q701.2725,315.6463 701.96,316.7244 Q702.6475,317.7869 703.9913,317.7869 Q704.6163,317.7869 705.21,317.5213 Q705.8038,317.24 706.4288,316.6619 L706.4288,319.3806 Z " fill="#000000"/><text fill="#000000" font-family="sans-serif" font-size="14" lengthAdjust="spacing" textLength="125.7881" x="717.46" y="318.5867">ModeloCorrecci&#243;n</text><line style="stroke:#181818;stroke-width:0.5;" x1="689.46" x2="845.2481" y1="329.74" y2="329.74"/><rect fill="none" height="6" style="stroke:#C82930;stroke-width:1;" width="6" x="696.46" y="340.3884"/><text fill="#000000" font-family="sans-serif" font-size="14" lengthAdjust="spacing" textLength="73.5547" x="708.46" y="346.7351">soluciones</text><line style="stroke:#181818;stroke-width:0.5;" x1="689.46" x2="845.2481" y1="354.0369" y2="354.0369"/></g><!--class Grado--><g class="entity" data-entity="Grado" data-source-line="26" data-uid="ent0008" id="entity_Grado"><rect fill="#F1F1F1" height="80.5938" rx="2.5" ry="2.5" style="stroke:#181818;stroke-width:0.5;" width="74.6357" x="297.04" y="132"/><ellipse cx="312.04" cy="148" fill="#ADD1B2" rx="11" ry="11" style="stroke:#181818;stroke-width:1;"/><path d="M315.0088,153.6406 Q314.4306,153.9375 313.79,154.0781 Q313.1494,154.2344 312.4463,154.2344 Q309.9463,154.2344 308.6181,152.5938 Q307.3056,150.9375 307.3056,147.8125 Q307.3056,144.6875 308.6181,143.0313 Q309.9463,141.375 312.4463,141.375 Q313.1494,141.375 313.79,141.5313 Q314.4463,141.6875 315.0088,141.9844 L315.0088,144.7031 Q314.3838,144.125 313.79,143.8594 Q313.1963,143.5781 312.5713,143.5781 Q311.2275,143.5781 310.54,144.6563 Q309.8525,145.7188 309.8525,147.8125 Q309.8525,149.9063 310.54,150.9844 Q311.2275,152.0469 312.5713,152.0469 Q313.1963,152.0469 313.79,151.7813 Q314.3838,151.5 315.0088,150.9219 L315.0088,153.6406 Z " fill="#000000"/><text fill="#000000" font-family="sans-serif" font-size="14" lengthAdjust="spacing" textLength="42.6357" x="326.04" y="152.8467">Grado</text><line style="stroke:#181818;stroke-width:0.5;" x1="298.04" x2="370.6757" y1="164" y2="164"/><rect fill="none" height="6" style="stroke:#C82930;stroke-width:1;" width="6" x="305.04" y="174.6484"/><text fill="#000000" font-family="sans-serif" font-size="14" lengthAdjust="spacing" textLength="36.1963" x="317.04" y="180.9951">t&#237;tulo</text><rect fill="none" height="6" style="stroke:#C82930;stroke-width:1;" width="6" x="305.04" y="190.9453"/><text fill="#000000" font-family="sans-serif" font-size="14" lengthAdjust="spacing" textLength="46.4912" x="317.04" y="197.292">c&#243;digo</text><line style="stroke:#181818;stroke-width:0.5;" x1="298.04" x2="370.6757" y1="204.5938" y2="204.5938"/></g><!--class Universidad--><g class="entity" data-entity="Universidad" data-source-line="30" data-uid="ent0009" id="entity_Universidad"><rect fill="#F1F1F1" height="48" rx="2.5" ry="2.5" style="stroke:#181818;stroke-width:0.5;" width="115.2002" x="101.76" y="7"/><ellipse cx="116.76" cy="23" fill="#ADD1B2" rx="11" ry="11" style="stroke:#181818;stroke-width:1;"/><path d="M119.7288,28.6406 Q119.1506,28.9375 118.51,29.0781 Q117.8694,29.2344 117.1663,29.2344 Q114.6663,29.2344 113.3381,27.5938 Q112.0256,25.9375 112.0256,22.8125 Q112.0256,19.6875 113.3381,18.0313 Q114.6663,16.375 117.1663,16.375 Q117.8694,16.375 118.51,16.5313 Q119.1663,16.6875 119.7288,16.9844 L119.7288,19.7031 Q119.1038,19.125 118.51,18.8594 Q117.9163,18.5781 117.2913,18.5781 Q115.9475,18.5781 115.26,19.6563 Q114.5725,20.7188 114.5725,22.8125 Q114.5725,24.9063 115.26,25.9844 Q115.9475,27.0469 117.2913,27.0469 Q117.9163,27.0469 118.51,26.7813 Q119.1038,26.5 119.7288,25.9219 L119.7288,28.6406 Z " fill="#000000"/><text fill="#000000" font-family="sans-serif" font-size="14" lengthAdjust="spacing" textLength="83.2002" x="130.76" y="27.8467">Universidad</text><line style="stroke:#181818;stroke-width:0.5;" x1="102.76" x2="215.9602" y1="39" y2="39"/><line style="stroke:#181818;stroke-width:0.5;" x1="102.76" x2="215.9602" y1="47" y2="47"/></g><!--class Profesor--><g class="entity" data-entity="Profesor" data-source-line="31" data-uid="ent0010" id="entity_Profesor"><rect fill="#F1F1F1" height="96.8906" rx="2.5" ry="2.5" style="stroke:#181818;stroke-width:0.5;" width="89.9209" x="114.4" y="447.18"/><ellipse cx="129.4" cy="463.18" fill="#ADD1B2" rx="11" ry="11" style="stroke:#181818;stroke-width:1;"/><path d="M132.3688,468.8206 Q131.7906,469.1175 131.15,469.2581 Q130.5094,469.4144 129.8063,469.4144 Q127.3063,469.4144 125.9781,467.7738 Q124.6656,466.1175 124.6656,462.9925 Q124.6656,459.8675 125.9781,458.2113 Q127.3063,456.555 129.8063,456.555 Q130.5094,456.555 131.15,456.7113 Q131.8063,456.8675 132.3688,457.1644 L132.3688,459.8831 Q131.7438,459.305 131.15,459.0394 Q130.5563,458.7581 129.9313,458.7581 Q128.5875,458.7581 127.9,459.8363 Q127.2125,460.8988 127.2125,462.9925 Q127.2125,465.0863 127.9,466.1644 Q128.5875,467.2269 129.9313,467.2269 Q130.5563,467.2269 131.15,466.9613 Q131.7438,466.68 132.3688,466.1019 L132.3688,468.8206 Z " fill="#000000"/><text fill="#000000" font-family="sans-serif" font-size="14" lengthAdjust="spacing" textLength="57.9209" x="143.4" y="468.0267">Profesor</text><line style="stroke:#181818;stroke-width:0.5;" x1="115.4" x2="203.3209" y1="479.18" y2="479.18"/><rect fill="none" height="6" style="stroke:#C82930;stroke-width:1;" width="6" x="122.4" y="489.8284"/><text fill="#000000" font-family="sans-serif" font-size="14" lengthAdjust="spacing" textLength="54.332" x="134.4" y="496.1751">nombre</text><rect fill="none" height="6" style="stroke:#C82930;stroke-width:1;" width="6" x="122.4" y="506.1253"/><text fill="#000000" font-family="sans-serif" font-size="14" lengthAdjust="spacing" textLength="62.4941" x="134.4" y="512.472">apellidos</text><rect fill="none" height="6" style="stroke:#C82930;stroke-width:1;" width="6" x="122.4" y="522.4222"/><text fill="#000000" font-family="sans-serif" font-size="14" lengthAdjust="spacing" textLength="25.3818" x="134.4" y="528.7689">DNI</text><line style="stroke:#181818;stroke-width:0.5;" x1="115.4" x2="203.3209" y1="536.0706" y2="536.0706"/></g><!--class Alumno--><g class="entity" data-entity="Alumno" data-source-line="36" data-uid="ent0011" id="entity_Alumno"><rect fill="#F1F1F1" height="96.8906" rx="2.5" ry="2.5" style="stroke:#181818;stroke-width:0.5;" width="88.4941" x="440.11" y="447.18"/><ellipse cx="456.4952" cy="463.18" fill="#ADD1B2" rx="11" ry="11" style="stroke:#181818;stroke-width:1;"/><path d="M459.4639,468.8206 Q458.8858,469.1175 458.2452,469.2581 Q457.6045,469.4144 456.9014,469.4144 Q454.4014,469.4144 453.0733,467.7738 Q451.7608,466.1175 451.7608,462.9925 Q451.7608,459.8675 453.0733,458.2113 Q454.4014,456.555 456.9014,456.555 Q457.6045,456.555 458.2452,456.7113 Q458.9014,456.8675 459.4639,457.1644 L459.4639,459.8831 Q458.8389,459.305 458.2452,459.0394 Q457.6514,458.7581 457.0264,458.7581 Q455.6827,458.7581 454.9952,459.8363 Q454.3077,460.8988 454.3077,462.9925 Q454.3077,465.0863 454.9952,466.1644 Q455.6827,467.2269 457.0264,467.2269 Q457.6514,467.2269 458.2452,466.9613 Q458.8389,466.68 459.4639,466.1019 L459.4639,468.8206 Z " fill="#000000"/><text fill="#000000" font-family="sans-serif" font-size="14" lengthAdjust="spacing" textLength="53.416" x="470.803" y="468.0267">Alumno</text><line style="stroke:#181818;stroke-width:0.5;" x1="441.11" x2="527.6041" y1="479.18" y2="479.18"/><rect fill="none" height="6" style="stroke:#C82930;stroke-width:1;" width="6" x="448.11" y="489.8284"/><text fill="#000000" font-family="sans-serif" font-size="14" lengthAdjust="spacing" textLength="54.332" x="460.11" y="496.1751">nombre</text><rect fill="none" height="6" style="stroke:#C82930;stroke-width:1;" width="6" x="448.11" y="506.1253"/><text fill="#000000" font-family="sans-serif" font-size="14" lengthAdjust="spacing" textLength="62.4941" x="460.11" y="512.472">apellidos</text><rect fill="none" height="6" style="stroke:#C82930;stroke-width:1;" width="6" x="448.11" y="522.4222"/><text fill="#000000" font-family="sans-serif" font-size="14" lengthAdjust="spacing" textLength="25.3818" x="460.11" y="528.7689">DNI</text><line style="stroke:#181818;stroke-width:0.5;" x1="441.11" x2="527.6041" y1="536.0706" y2="536.0706"/></g><!--link Universidad to Grado--><g class="link" data-entity-1="Universidad" data-entity-2="Grado" data-source-line="42" data-uid="lnk12" id="link_Universidad_Grado"><path codeLine="42" d="M188.65,55.31 C218.32,78.93 254.9604,108.0977 287.3304,133.8577" fill="none" id="Universidad-to-Grado" style="stroke:#181818;stroke-width:1;"/><polygon fill="#181818" points="296.72,141.33,294.5159,134.464,287.3304,133.8577,289.5344,140.7237,296.72,141.33" style="stroke:#181818;stroke-width:1;"/><text fill="#000000" font-family="sans-serif" font-size="13" lengthAdjust="spacing" textLength="32.9443" x="248.36" y="98.0669">tiene</text></g><!--link Universidad to Profesor--><g class="link" data-entity-1="Universidad" data-entity-2="Profesor" data-source-line="43" data-uid="lnk13" id="link_Universidad_Profesor"><path codeLine="43" d="M159.36,55.26 C159.36,127.45 159.36,336.72 159.36,434.88" fill="none" id="Universidad-to-Profesor" style="stroke:#181818;stroke-width:1;"/><polygon fill="none" points="159.36,446.88,163.36,440.88,159.36,434.88,155.36,440.88,159.36,446.88" style="stroke:#181818;stroke-width:1;"/><text fill="#000000" font-family="sans-serif" font-size="13" lengthAdjust="spacing" textLength="32.9443" x="160.36" y="255.6569">tiene</text></g><!--reverse link Grado to Alumno--><g class="link" data-entity-1="Grado" data-entity-2="Alumno" data-source-line="44" data-uid="lnk14" id="link_Grado_Alumno"><path codeLine="44" d="M380.1725,215.4157 C390.4825,226.0757 392.6,229.81 400.36,242.59 C439.97,307.84 463.47,394.06 475.14,446.87" fill="none" id="Grado-backto-Alumno" style="stroke:#181818;stroke-width:1;"/><polygon fill="#181818" points="371.83,206.79,373.126,213.8837,380.1725,215.4157,378.8765,208.322,371.83,206.79" style="stroke:#181818;stroke-width:1;"/><text fill="#000000" font-family="sans-serif" font-size="13" lengthAdjust="spacing" textLength="61.6484" x="455.36" y="334.4569">matricula</text></g><!--link Grado to Asignatura--><g class="link" data-entity-1="Grado" data-entity-2="Asignatura" data-source-line="45" data-uid="lnk15" id="link_Grado_Asignatura"><path codeLine="45" d="M334.36,212.96 C334.36,236.37 334.36,253.9 334.36,277.29" fill="none" id="Grado-to-Asignatura" style="stroke:#181818;stroke-width:1;"/><polygon fill="none" points="334.36,289.29,338.36,283.29,334.36,277.29,330.36,283.29,334.36,289.29" style="stroke:#181818;stroke-width:1;"/><text fill="#000000" font-family="sans-serif" font-size="13" lengthAdjust="spacing" textLength="56.2847" x="335.36" y="255.6569">contiene</text></g><!--link Asignatura to Profesor--><g class="link" data-entity-1="Asignatura" data-entity-2="Profesor" data-source-line="46" data-uid="lnk16" id="link_Asignatura_Profesor"><path codeLine="46" d="M280.1,343.79 C248.23,354.04 209.58,371.54 185.36,400.18 C174.26,413.3 170.5097,419.0617 166.8397,435.4017" fill="none" id="Asignatura-to-Profesor" style="stroke:#181818;stroke-width:1;"/><polygon fill="none" points="164.21,447.11,169.4276,442.1324,166.8397,435.4017,161.6221,440.3793,164.21,447.11" style="stroke:#181818;stroke-width:1;"/><text fill="#000000" font-family="sans-serif" font-size="13" lengthAdjust="spacing" textLength="96.0908" x="186.36" y="413.2469">tiene asignado</text></g><!--reverse link Asignatura to Alumno--><g class="link" data-entity-1="Asignatura" data-entity-2="Alumno" data-source-line="47" data-uid="lnk17" id="link_Asignatura_Alumno"><path codeLine="47" d="M378.7759,379.3684 C399.8459,402.3684 418.41,422.65 440.63,446.9" fill="none" id="Asignatura-backto-Alumno" style="stroke:#181818;stroke-width:1;"/><polygon fill="#181818" points="370.67,370.52,371.7735,377.6462,378.7759,379.3684,377.6724,372.2422,370.67,370.52" style="stroke:#181818;stroke-width:1;"/><text fill="#000000" font-family="sans-serif" font-size="13" lengthAdjust="spacing" textLength="35.4707" x="410.36" y="413.2469">cursa</text></g><!--reverse link Examen to Asignatura--><g class="link" data-entity-1="Examen" data-entity-2="Asignatura" data-source-line="48" data-uid="lnk18" id="link_Examen_Asignatura"><path codeLine="48" d="M605.7894,209.25 C538.5894,238.87 449.86,277.98 388.66,304.95" fill="none" id="Examen-backto-Asignatura" style="stroke:#181818;stroke-width:1;"/><polygon fill="#181818" points="616.77,204.41,609.6664,203.1698,605.7894,209.25,612.893,210.4902,616.77,204.41" style="stroke:#181818;stroke-width:1;"/><text fill="#000000" font-family="sans-serif" font-size="13" lengthAdjust="spacing" textLength="32.9443" x="523.36" y="255.6569">tiene</text></g><!--link Examen to Pregunta--><g class="link" data-entity-1="Examen" data-entity-2="Pregunta" data-source-line="49" data-uid="lnk19" id="link_Examen_Pregunta"><path codeLine="49" d="M757.95,192.95 C819.62,214.93 899.36,257.21 899.36,328.89 C899.36,328.89 899.36,328.89 899.36,701.52 C899.36,808.51 556.8869,856.161 392.8369,873.051" fill="none" id="Examen-to-Pregunta" style="stroke:#181818;stroke-width:1;"/><polygon fill="#181818" points="380.9,874.28,387.2781,877.6445,392.8369,873.051,386.4588,869.6865,380.9,874.28" style="stroke:#181818;stroke-width:1;"/><text fill="#000000" font-family="sans-serif" font-size="13" lengthAdjust="spacing" textLength="56.2847" x="900.36" y="500.1969">contiene</text></g><!--link Asignatura to Tema--><g class="link" data-entity-1="Asignatura" data-entity-2="Tema" data-source-line="50" data-uid="lnk20" id="link_Asignatura_Tema"><path codeLine="50" d="M334.78,370.41 C334.94,385.1 335.15,401.9 335.36,417.18 C336.11,472.19 336.9645,524.2518 337.6045,561.6218" fill="none" id="Asignatura-to-Tema" style="stroke:#181818;stroke-width:1;"/><polygon fill="#181818" points="337.81,573.62,341.7067,567.5524,337.6045,561.6218,333.7078,567.6894,337.81,573.62" style="stroke:#181818;stroke-width:1;"/><text fill="#000000" font-family="sans-serif" font-size="13" lengthAdjust="spacing" textLength="56.2847" x="336.36" y="413.2469">contiene</text></g><!--reverse link Tema to Pregunta--><g class="link" data-entity-1="Tema" data-entity-2="Pregunta" data-source-line="51" data-uid="lnk21" id="link_Tema_Pregunta"><path codeLine="51" d="M332.1918,650.5707 C326.3218,691.8807 317.52,753.76 309.64,809.19" fill="none" id="Tema-backto-Pregunta" style="stroke:#181818;stroke-width:1;"/><polygon fill="#181818" points="333.88,638.69,329.0757,644.0676,332.1918,650.5707,336.9961,645.1931,333.88,638.69" style="stroke:#181818;stroke-width:1;"/><text fill="#000000" font-family="sans-serif" font-size="13" lengthAdjust="spacing" textLength="77.2954" x="330.36" y="705.0869">forma parte</text></g><!--link Alumno to Examen--><g class="link" data-entity-1="Alumno" data-entity-2="Examen" data-source-line="52" data-uid="lnk22" id="link_Alumno_Examen"><path codeLine="52" d="M514.51,446.9 C554.64,383.38 618.4612,282.3553 655.8512,223.1653" fill="none" id="Alumno-to-Examen" style="stroke:#181818;stroke-width:1;"/><polygon fill="none" points="662.26,213.02,655.6738,215.9564,655.8512,223.1653,662.4374,220.2289,662.26,213.02" style="stroke:#181818;stroke-width:1;"/><text fill="#000000" font-family="sans-serif" font-size="13" lengthAdjust="spacing" textLength="43.3228" x="614.36" y="334.4569">realiza</text></g><!--reverse link BateriaDePreguntas to Pregunta--><g class="link" data-entity-1="BateriaDePreguntas" data-entity-2="Pregunta" data-source-line="53" data-uid="lnk23" id="link_BateriaDePreguntas_Pregunta"><path codeLine="53" d="M115.9265,743.3278 C124.8465,758.5178 130.75,766.01 144.36,779.67 C165.84,801.22 192.58,820.75 217.77,836.81" fill="none" id="BateriaDePreguntas-backto-Pregunta" style="stroke:#181818;stroke-width:1;"/><polygon fill="#181818" points="109.85,732.98,109.439,740.1794,115.9265,743.3278,116.3375,736.1284,109.85,732.98" style="stroke:#181818;stroke-width:1;"/><text fill="#000000" font-family="sans-serif" font-size="13" lengthAdjust="spacing" textLength="77.2954" x="145.36" y="775.7369">forma parte</text></g><!--link Examen to ModeloCorrecci?n--><g class="link" data-entity-1="Examen" data-entity-2="ModeloCorrecci.n" data-source-line="54" data-uid="lnk24" id="link_Examen_ModeloCorrecci.n"><path codeLine="54" d="M707.75,212.96 C721.22,239.16 733.1393,262.3598 745.6693,286.7098" fill="none" id="Examen-to-ModeloCorrecci&#243;n" style="stroke:#181818;stroke-width:1;"/><polygon fill="#181818" points="751.16,297.38,751.9714,290.2147,745.6693,286.7098,744.8579,293.8751,751.16,297.38" style="stroke:#181818;stroke-width:1;"/><text fill="#000000" font-family="sans-serif" font-size="13" lengthAdjust="spacing" textLength="32.9443" x="730.36" y="255.6569">tiene</text></g><!--link Profesor to BateriaDePreguntas--><g class="link" data-entity-1="Profesor" data-entity-2="BateriaDePreguntas" data-source-line="55" data-uid="lnk25" id="link_Profesor_BateriaDePreguntas"><path codeLine="55" d="M143.8,544.46 C131.37,582.65 118.0318,623.6585 107.2818,656.7085" fill="none" id="Profesor-to-BateriaDePreguntas" style="stroke:#181818;stroke-width:1;"/><polygon fill="#181818" points="103.57,668.12,109.2297,663.6515,107.2818,656.7085,101.622,661.177,103.57,668.12" style="stroke:#181818;stroke-width:1;"/><text fill="#000000" font-family="sans-serif" font-size="13" lengthAdjust="spacing" textLength="32.9443" x="133.36" y="610.7869">tiene</text></g><!--link Profesor to Pregunta--><g class="link" data-entity-1="Profesor" data-entity-2="Pregunta" data-source-line="56" data-uid="lnk26" id="link_Profesor_Pregunta"><path codeLine="56" d="M176.66,544.22 C200.84,610.7 240.8284,720.6327 269.0484,798.2227" fill="none" id="Profesor-to-Pregunta" style="stroke:#181818;stroke-width:1;"/><polygon fill="none" points="273.15,809.5,274.8583,802.4942,269.0484,798.2227,267.3401,805.2286,273.15,809.5" style="stroke:#181818;stroke-width:1;"/><text fill="#000000" font-family="sans-serif" font-size="13" lengthAdjust="spacing" textLength="28.4565" x="244.36" y="705.0869">crea</text></g><!--SRC=[XL9BJWCn3DtFARAkD1Ve3YX2B40ioW5CubQHCl78IIe4uaYiUeHUZ7ncqfGMkhJzdj_pHnfmJjo_mu3sinEzm1sO058VzZQ5qi0EXIHcb2NvrSdCkN5wQy47XippXsyV36NEOQ_qbYfoZSCfPYwyC6w3zQK8jL-6HawsOuEL6bHkJAFKPD49HZS6T3v3QZ3PB5cbDre6uq5LkLlmo1fMEEkwB3pEKGK-aK93TyUXCywH2KM_0XyuEhis_glLEsIdLRGopqqRTCIPQMbuOymR6D4OhSYbOFNyU5or2OEbw-YkaH9zloZ-n59uZHP_LQdQg802N_Jzf1WB0tXEUuIfc7Z7oqU095l8JVPIy-c-yP0Dy4HA1dRGbLSibLQdY4pLDDjyn3yzBFBZjUKSfyuDTqCSaoEmZ_HY9TcVX9Rnky3e3-ZEd-U_JetFisUgmzGL9TY5_XTmT39szFO3]--></g></svg>