<svg xmlns="http://www.w3.org/2000/svg" xmlns:xlink="http://www.w3.org/1999/xlink" contentStyleType="text/css" data-diagram-type="CLASS" height="823px" preserveAspectRatio="none" style="width:664px;height:823px;background:#FFFFFF;" version="1.1" viewBox="0 0 664 823" width="664px" zoomAndPan="magnify"><defs/><g><!--class Examen--><g class="entity" data-entity="Examen" data-source-line="1" data-uid="ent0002" id="entity_Examen"><rect fill="#F1F1F1" height="80.5938" rx="2.5" ry="2.5" style="stroke:#181818;stroke-width:0.5;" width="140.625" x="307.9" y="354.78"/><ellipse cx="346.206" cy="370.78" fill="#ADD1B2" rx="11" ry="11" style="stroke:#181818;stroke-width:1;"/><path d="M349.1747,376.4206 Q348.5966,376.7175 347.956,376.8581 Q347.3153,377.0144 346.6122,377.0144 Q344.1122,377.0144 342.7841,375.3738 Q341.4716,373.7175 341.4716,370.5925 Q341.4716,367.4675 342.7841,365.8113 Q344.1122,364.155 346.6122,364.155 Q347.3153,364.155 347.956,364.3113 Q348.6122,364.4675 349.1747,364.7644 L349.1747,367.4831 Q348.5497,366.905 347.956,366.6394 Q347.3622,366.3581 346.7372,366.3581 Q345.3935,366.3581 344.706,367.4363 Q344.0185,368.4988 344.0185,370.5925 Q344.0185,372.6863 344.706,373.7644 Q345.3935,374.8269 346.7372,374.8269 Q347.3622,374.8269 347.956,374.5613 Q348.5497,374.28 349.1747,373.7019 L349.1747,376.4206 Z " fill="#000000"/><text fill="#000000" font-family="sans-serif" font-size="14" lengthAdjust="spacing" textLength="56.834" x="365.3851" y="375.6267">Examen</text><line style="stroke:#181818;stroke-width:0.5;" x1="308.9" x2="447.525" y1="386.78" y2="386.78"/><g data-visibility-modifier="PRIVATE_FIELD"><rect fill="none" height="6" style="stroke:#C82930;stroke-width:1;" width="6" x="315.9" y="397.4284"/></g><text fill="#000000" font-family="sans-serif" font-size="14" lengthAdjust="spacing" textLength="75.8447" x="327.9" y="403.7751">evaluaci&#243;n</text><g data-visibility-modifier="PRIVATE_FIELD"><rect fill="none" height="6" style="stroke:#C82930;stroke-width:1;" width="6" x="315.9" y="413.7253"/></g><text fill="#000000" font-family="sans-serif" font-size="14" lengthAdjust="spacing" textLength="114.625" x="327.9" y="420.072">clave correcci&#243;n</text><line style="stroke:#181818;stroke-width:0.5;" x1="308.9" x2="447.525" y1="427.3738" y2="427.3738"/></g><!--class Asignatura--><g class="entity" data-entity="Asignatura" data-source-line="5" data-uid="ent0003" id="entity_Asignatura"><rect fill="#F1F1F1" height="113.1875" rx="2.5" ry="2.5" style="stroke:#181818;stroke-width:0.5;" width="144.7813" x="382.82" y="164.6"/><ellipse cx="414.463" cy="180.6" fill="#ADD1B2" rx="11" ry="11" style="stroke:#181818;stroke-width:1;"/><path d="M417.4317,186.2406 Q416.8536,186.5375 416.213,186.6781 Q415.5723,186.8344 414.8692,186.8344 Q412.3692,186.8344 411.0411,185.1937 Q409.7286,183.5375 409.7286,180.4125 Q409.7286,177.2875 411.0411,175.6312 Q412.3692,173.975 414.8692,173.975 Q415.5723,173.975 416.213,174.1312 Q416.8692,174.2875 417.4317,174.5844 L417.4317,177.3031 Q416.8067,176.725 416.213,176.4594 Q415.6192,176.1781 414.9942,176.1781 Q413.6505,176.1781 412.963,177.2562 Q412.2755,178.3187 412.2755,180.4125 Q412.2755,182.5062 412.963,183.5844 Q413.6505,184.6469 414.9942,184.6469 Q415.6192,184.6469 416.213,184.3812 Q416.8067,184.1 417.4317,183.5219 L417.4317,186.2406 Z " fill="#000000"/><text fill="#000000" font-family="sans-serif" font-size="14" lengthAdjust="spacing" textLength="75.7969" x="432.1614" y="185.4467">Asignatura</text><line style="stroke:#181818;stroke-width:0.5;" x1="383.82" x2="526.6012" y1="196.6" y2="196.6"/><g data-visibility-modifier="PRIVATE_FIELD"><rect fill="none" height="6" style="stroke:#C82930;stroke-width:1;" width="6" x="390.82" y="207.2484"/></g><text fill="#000000" font-family="sans-serif" font-size="14" lengthAdjust="spacing" textLength="36.1963" x="402.82" y="213.5951">t&#237;tulo</text><g data-visibility-modifier="PRIVATE_FIELD"><rect fill="none" height="6" style="stroke:#C82930;stroke-width:1;" width="6" x="390.82" y="223.5453"/></g><text fill="#000000" font-family="sans-serif" font-size="14" lengthAdjust="spacing" textLength="46.4912" x="402.82" y="229.892">c&#243;digo</text><g data-visibility-modifier="PRIVATE_FIELD"><rect fill="none" height="6" style="stroke:#C82930;stroke-width:1;" width="6" x="390.82" y="239.8422"/></g><text fill="#000000" font-family="sans-serif" font-size="14" lengthAdjust="spacing" textLength="118.7813" x="402.82" y="246.1889">curso acad&#233;mico</text><g data-visibility-modifier="PRIVATE_FIELD"><rect fill="none" height="6" style="stroke:#C82930;stroke-width:1;" width="6" x="390.82" y="256.1391"/></g><text fill="#000000" font-family="sans-serif" font-size="14" lengthAdjust="spacing" textLength="74.7988" x="402.82" y="262.4857">asignatura</text><line style="stroke:#181818;stroke-width:0.5;" x1="383.82" x2="526.6012" y1="269.7875" y2="269.7875"/></g><!--class Pregunta--><g class="entity" data-entity="Pregunta" data-source-line="11" data-uid="ent0004" id="entity_Pregunta"><rect fill="#F1F1F1" height="145.7813" rx="2.5" ry="2.5" style="stroke:#181818;stroke-width:0.5;" width="162.2334" x="91.09" y="512.38"/><ellipse cx="136.2004" cy="528.38" fill="#ADD1B2" rx="11" ry="11" style="stroke:#181818;stroke-width:1;"/><path d="M139.1691,534.0206 Q138.591,534.3175 137.9504,534.4581 Q137.3097,534.6144 136.6066,534.6144 Q134.1066,534.6144 132.7785,532.9737 Q131.466,531.3175 131.466,528.1925 Q131.466,525.0675 132.7785,523.4112 Q134.1066,521.755 136.6066,521.755 Q137.3097,521.755 137.9504,521.9112 Q138.6066,522.0675 139.1691,522.3644 L139.1691,525.0831 Q138.5441,524.505 137.9504,524.2394 Q137.3566,523.9581 136.7316,523.9581 Q135.3879,523.9581 134.7004,525.0362 Q134.0129,526.0987 134.0129,528.1925 Q134.0129,530.2862 134.7004,531.3644 Q135.3879,532.4269 136.7316,532.4269 Q137.3566,532.4269 137.9504,532.1612 Q138.5441,531.88 139.1691,531.3019 L139.1691,534.0206 Z " fill="#000000"/><text fill="#000000" font-family="sans-serif" font-size="14" lengthAdjust="spacing" textLength="63.5127" x="156.7004" y="533.2267">Pregunta</text><line style="stroke:#181818;stroke-width:0.5;" x1="92.09" x2="252.3234" y1="544.38" y2="544.38"/><g data-visibility-modifier="PRIVATE_FIELD"><rect fill="none" height="6" style="stroke:#C82930;stroke-width:1;" width="6" x="99.09" y="555.0284"/></g><text fill="#000000" font-family="sans-serif" font-size="14" lengthAdjust="spacing" textLength="74.7988" x="111.09" y="561.3751">asignatura</text><g data-visibility-modifier="PRIVATE_FIELD"><rect fill="none" height="6" style="stroke:#C82930;stroke-width:1;" width="6" x="99.09" y="571.3253"/></g><text fill="#000000" font-family="sans-serif" font-size="14" lengthAdjust="spacing" textLength="36.3193" x="111.09" y="577.672">tema</text><g data-visibility-modifier="PRIVATE_FIELD"><rect fill="none" height="6" style="stroke:#C82930;stroke-width:1;" width="6" x="99.09" y="587.6222"/></g><text fill="#000000" font-family="sans-serif" font-size="14" lengthAdjust="spacing" textLength="72.8506" x="111.09" y="593.9689">enunciado</text><g data-visibility-modifier="PRIVATE_FIELD"><rect fill="none" height="6" style="stroke:#C82930;stroke-width:1;" width="6" x="99.09" y="603.9191"/></g><text fill="#000000" font-family="sans-serif" font-size="14" lengthAdjust="spacing" textLength="136.2334" x="111.09" y="610.2657">opciones respuesta</text><g data-visibility-modifier="PRIVATE_FIELD"><rect fill="none" height="6" style="stroke:#C82930;stroke-width:1;" width="6" x="99.09" y="620.2159"/></g><text fill="#000000" font-family="sans-serif" font-size="14" lengthAdjust="spacing" textLength="132.002" x="111.09" y="626.5626">respuesta correcta</text><g data-visibility-modifier="PRIVATE_FIELD"><rect fill="none" height="6" style="stroke:#C82930;stroke-width:1;" width="6" x="99.09" y="636.5128"/></g><text fill="#000000" font-family="sans-serif" font-size="14" lengthAdjust="spacing" textLength="65.0098" x="111.09" y="642.8595">dificultad</text><line style="stroke:#181818;stroke-width:0.5;" x1="92.09" x2="252.3234" y1="650.1612" y2="650.1612"/></g><!--class BateriaDePreguntas--><g class="entity" data-entity="BateriaDePreguntas" data-source-line="19" data-uid="ent0005" id="entity_BateriaDePreguntas"><rect fill="#F1F1F1" height="48" rx="2.5" ry="2.5" style="stroke:#181818;stroke-width:0.5;" width="172.7109" x="93.85" y="371.08"/><ellipse cx="108.85" cy="387.08" fill="#ADD1B2" rx="11" ry="11" style="stroke:#181818;stroke-width:1;"/><path d="M111.8188,392.7206 Q111.2406,393.0175 110.6,393.1581 Q109.9594,393.3144 109.2563,393.3144 Q106.7563,393.3144 105.4281,391.6737 Q104.1156,390.0175 104.1156,386.8925 Q104.1156,383.7675 105.4281,382.1112 Q106.7563,380.455 109.2563,380.455 Q109.9594,380.455 110.6,380.6112 Q111.2563,380.7675 111.8188,381.0644 L111.8188,383.7831 Q111.1938,383.205 110.6,382.9394 Q110.0063,382.6581 109.3813,382.6581 Q108.0375,382.6581 107.35,383.7362 Q106.6625,384.7987 106.6625,386.8925 Q106.6625,388.9862 107.35,390.0644 Q108.0375,391.1269 109.3813,391.1269 Q110.0063,391.1269 110.6,390.8612 Q111.1938,390.58 111.8188,390.0019 L111.8188,392.7206 Z " fill="#000000"/><text fill="#000000" font-family="sans-serif" font-size="14" lengthAdjust="spacing" textLength="140.7109" x="122.85" y="391.9267">BateriaDePreguntas</text><line style="stroke:#181818;stroke-width:0.5;" x1="94.85" x2="265.5609" y1="403.08" y2="403.08"/><line style="stroke:#181818;stroke-width:0.5;" x1="94.85" x2="265.5609" y1="411.08" y2="411.08"/></g><!--class Grado--><g class="entity" data-entity="Grado" data-source-line="21" data-uid="ent0006" id="entity_Grado"><rect fill="#F1F1F1" height="80.5938" rx="2.5" ry="2.5" style="stroke:#181818;stroke-width:0.5;" width="74.6357" x="493.89" y="7"/><ellipse cx="508.89" cy="23" fill="#ADD1B2" rx="11" ry="11" style="stroke:#181818;stroke-width:1;"/><path d="M511.8588,28.6406 Q511.2806,28.9375 510.64,29.0781 Q509.9994,29.2344 509.2963,29.2344 Q506.7963,29.2344 505.4681,27.5938 Q504.1556,25.9375 504.1556,22.8125 Q504.1556,19.6875 505.4681,18.0313 Q506.7963,16.375 509.2963,16.375 Q509.9994,16.375 510.64,16.5313 Q511.2963,16.6875 511.8588,16.9844 L511.8588,19.7031 Q511.2338,19.125 510.64,18.8594 Q510.0463,18.5781 509.4213,18.5781 Q508.0775,18.5781 507.39,19.6563 Q506.7025,20.7188 506.7025,22.8125 Q506.7025,24.9063 507.39,25.9844 Q508.0775,27.0469 509.4213,27.0469 Q510.0463,27.0469 510.64,26.7813 Q511.2338,26.5 511.8588,25.9219 L511.8588,28.6406 Z " fill="#000000"/><text fill="#000000" font-family="sans-serif" font-size="14" lengthAdjust="spacing" textLength="42.6357" x="522.89" y="27.8467">Grado</text><line style="stroke:#181818;stroke-width:0.5;" x1="494.89" x2="567.5257" y1="39" y2="39"/><g data-visibility-modifier="PRIVATE_FIELD"><rect fill="none" height="6" style="stroke:#C82930;stroke-width:1;" width="6" x="501.89" y="49.6484"/></g><text fill="#000000" font-family="sans-serif" font-size="14" lengthAdjust="spacing" textLength="36.1963" x="513.89" y="55.9951">t&#237;tulo</text><g data-visibility-modifier="PRIVATE_FIELD"><rect fill="none" height="6" style="stroke:#C82930;stroke-width:1;" width="6" x="501.89" y="65.9453"/></g><text fill="#000000" font-family="sans-serif" font-size="14" lengthAdjust="spacing" textLength="46.4912" x="513.89" y="72.292">c&#243;digo</text><line style="stroke:#181818;stroke-width:0.5;" x1="494.89" x2="567.5257" y1="79.5938" y2="79.5938"/></g><!--class Profesor--><g class="entity" data-entity="Profesor" data-source-line="25" data-uid="ent0007" id="entity_Profesor"><rect fill="#F1F1F1" height="96.8906" rx="2.5" ry="2.5" style="stroke:#181818;stroke-width:0.5;" width="89.9209" x="224.25" y="172.75"/><ellipse cx="239.25" cy="188.75" fill="#ADD1B2" rx="11" ry="11" style="stroke:#181818;stroke-width:1;"/><path d="M242.2188,194.3906 Q241.6406,194.6875 241,194.8281 Q240.3594,194.9844 239.6563,194.9844 Q237.1563,194.9844 235.8281,193.3438 Q234.5156,191.6875 234.5156,188.5625 Q234.5156,185.4375 235.8281,183.7813 Q237.1563,182.125 239.6563,182.125 Q240.3594,182.125 241,182.2813 Q241.6563,182.4375 242.2188,182.7344 L242.2188,185.4531 Q241.5938,184.875 241,184.6094 Q240.4063,184.3281 239.7813,184.3281 Q238.4375,184.3281 237.75,185.4063 Q237.0625,186.4688 237.0625,188.5625 Q237.0625,190.6563 237.75,191.7344 Q238.4375,192.7969 239.7813,192.7969 Q240.4063,192.7969 241,192.5313 Q241.5938,192.25 242.2188,191.6719 L242.2188,194.3906 Z " fill="#000000"/><text fill="#000000" font-family="sans-serif" font-size="14" lengthAdjust="spacing" textLength="57.9209" x="253.25" y="193.5967">Profesor</text><line style="stroke:#181818;stroke-width:0.5;" x1="225.25" x2="313.1709" y1="204.75" y2="204.75"/><g data-visibility-modifier="PRIVATE_FIELD"><rect fill="none" height="6" style="stroke:#C82930;stroke-width:1;" width="6" x="232.25" y="215.3984"/></g><text fill="#000000" font-family="sans-serif" font-size="14" lengthAdjust="spacing" textLength="54.332" x="244.25" y="221.7451">nombre</text><g data-visibility-modifier="PRIVATE_FIELD"><rect fill="none" height="6" style="stroke:#C82930;stroke-width:1;" width="6" x="232.25" y="231.6953"/></g><text fill="#000000" font-family="sans-serif" font-size="14" lengthAdjust="spacing" textLength="62.4941" x="244.25" y="238.042">apellidos</text><g data-visibility-modifier="PRIVATE_FIELD"><rect fill="none" height="6" style="stroke:#C82930;stroke-width:1;" width="6" x="232.25" y="247.9922"/></g><text fill="#000000" font-family="sans-serif" font-size="14" lengthAdjust="spacing" textLength="25.3818" x="244.25" y="254.3389">DNI</text><line style="stroke:#181818;stroke-width:0.5;" x1="225.25" x2="313.1709" y1="261.6406" y2="261.6406"/></g><!--class Alumno--><g class="entity" data-entity="Alumno" data-source-line="30" data-uid="ent0008" id="entity_Alumno"><rect fill="#F1F1F1" height="96.8906" rx="2.5" ry="2.5" style="stroke:#181818;stroke-width:0.5;" width="88.4941" x="510.96" y="536.82"/><ellipse cx="527.3452" cy="552.82" fill="#ADD1B2" rx="11" ry="11" style="stroke:#181818;stroke-width:1;"/><path d="M530.3139,558.4606 Q529.7358,558.7575 529.0952,558.8981 Q528.4545,559.0544 527.7514,559.0544 Q525.2514,559.0544 523.9233,557.4137 Q522.6108,555.7575 522.6108,552.6325 Q522.6108,549.5075 523.9233,547.8512 Q525.2514,546.195 527.7514,546.195 Q528.4545,546.195 529.0952,546.3512 Q529.7514,546.5075 530.3139,546.8044 L530.3139,549.5231 Q529.6889,548.945 529.0952,548.6794 Q528.5014,548.3981 527.8764,548.3981 Q526.5327,548.3981 525.8452,549.4762 Q525.1577,550.5387 525.1577,552.6325 Q525.1577,554.7262 525.8452,555.8044 Q526.5327,556.8669 527.8764,556.8669 Q528.5014,556.8669 529.0952,556.6012 Q529.6889,556.32 530.3139,555.7419 L530.3139,558.4606 Z " fill="#000000"/><text fill="#000000" font-family="sans-serif" font-size="14" lengthAdjust="spacing" textLength="53.416" x="541.653" y="557.6667">Alumno</text><line style="stroke:#181818;stroke-width:0.5;" x1="511.96" x2="598.4541" y1="568.82" y2="568.82"/><g data-visibility-modifier="PRIVATE_FIELD"><rect fill="none" height="6" style="stroke:#C82930;stroke-width:1;" width="6" x="518.96" y="579.4684"/></g><text fill="#000000" font-family="sans-serif" font-size="14" lengthAdjust="spacing" textLength="54.332" x="530.96" y="585.8151">nombre</text><g data-visibility-modifier="PRIVATE_FIELD"><rect fill="none" height="6" style="stroke:#C82930;stroke-width:1;" width="6" x="518.96" y="595.7653"/></g><text fill="#000000" font-family="sans-serif" font-size="14" lengthAdjust="spacing" textLength="62.4941" x="530.96" y="602.112">apellidos</text><g data-visibility-modifier="PRIVATE_FIELD"><rect fill="none" height="6" style="stroke:#C82930;stroke-width:1;" width="6" x="518.96" y="612.0622"/></g><text fill="#000000" font-family="sans-serif" font-size="14" lengthAdjust="spacing" textLength="25.3818" x="530.96" y="618.4089">DNI</text><line style="stroke:#181818;stroke-width:0.5;" x1="511.96" x2="598.4541" y1="625.7106" y2="625.7106"/></g><!--class Evaluaci?nExamen--><g class="entity" data-entity="Evaluaci.nExamen" data-source-line="35" data-uid="ent0009" id="entity_Evaluaci.nExamen"><rect fill="#F1F1F1" height="129.4844" rx="2.5" ry="2.5" style="stroke:#181818;stroke-width:0.5;" width="186.7676" x="288.82" y="520.53"/><ellipse cx="313.6554" cy="536.53" fill="#EB937F" rx="11" ry="11" style="stroke:#181818;stroke-width:1;"/><path d="M317.7648,542.53 L310.046,542.53 L310.046,530.1394 L317.7648,530.1394 L317.7648,532.2956 L312.4992,532.2956 L312.4992,534.9675 L317.2648,534.9675 L317.2648,537.1238 L312.4992,537.1238 L312.4992,540.3738 L317.7648,540.3738 L317.7648,542.53 Z " fill="#000000"/><text fill="#000000" font-family="sans-serif" font-size="14" lengthAdjust="spacing" textLength="132.9111" x="329.841" y="541.3767">Evaluaci&#243;nExamen</text><line style="stroke:#181818;stroke-width:0.5;" x1="289.82" x2="474.5876" y1="552.53" y2="552.53"/><g data-visibility-modifier="PRIVATE_FIELD"><rect fill="none" height="6" style="stroke:#C82930;stroke-width:1;" width="6" x="296.82" y="563.1784"/></g><text fill="#000000" font-family="sans-serif" font-size="14" lengthAdjust="spacing" textLength="60.1904" x="308.82" y="569.5251">Parcial 1</text><g data-visibility-modifier="PRIVATE_FIELD"><rect fill="none" height="6" style="stroke:#C82930;stroke-width:1;" width="6" x="296.82" y="579.4753"/></g><text fill="#000000" font-family="sans-serif" font-size="14" lengthAdjust="spacing" textLength="60.1904" x="308.82" y="585.822">Parcial 2</text><g data-visibility-modifier="PRIVATE_FIELD"><rect fill="none" height="6" style="stroke:#C82930;stroke-width:1;" width="6" x="296.82" y="595.7722"/></g><text fill="#000000" font-family="sans-serif" font-size="14" lengthAdjust="spacing" textLength="60.1904" x="308.82" y="602.1189">Parcial 3</text><g data-visibility-modifier="PRIVATE_FIELD"><rect fill="none" height="6" style="stroke:#C82930;stroke-width:1;" width="6" x="296.82" y="612.0691"/></g><text fill="#000000" font-family="sans-serif" font-size="14" lengthAdjust="spacing" textLength="91.4443" x="308.82" y="618.4157">Examen final</text><g data-visibility-modifier="PRIVATE_FIELD"><rect fill="none" height="6" style="stroke:#C82930;stroke-width:1;" width="6" x="296.82" y="628.3659"/></g><text fill="#000000" font-family="sans-serif" font-size="14" lengthAdjust="spacing" textLength="160.7676" x="308.82" y="634.7126">Examen extraordinario</text><line style="stroke:#181818;stroke-width:0.5;" x1="289.82" x2="474.5876" y1="642.0144" y2="642.0144"/></g><!--class DificultadPregunta--><g class="entity" data-entity="DificultadPregunta" data-source-line="42" data-uid="ent0010" id="entity_DificultadPregunta"><rect fill="#F1F1F1" height="96.8906" rx="2.5" ry="2.5" style="stroke:#181818;stroke-width:0.5;" width="162.416" x="7" y="719.16"/><ellipse cx="22" cy="735.16" fill="#EB937F" rx="11" ry="11" style="stroke:#181818;stroke-width:1;"/><path d="M26.1094,741.16 L18.3906,741.16 L18.3906,728.7694 L26.1094,728.7694 L26.1094,730.9256 L20.8438,730.9256 L20.8438,733.5975 L25.6094,733.5975 L25.6094,735.7538 L20.8438,735.7538 L20.8438,739.0038 L26.1094,739.0038 L26.1094,741.16 Z " fill="#000000"/><text fill="#000000" font-family="sans-serif" font-size="14" lengthAdjust="spacing" textLength="130.416" x="36" y="740.0067">DificultadPregunta</text><line style="stroke:#181818;stroke-width:0.5;" x1="8" x2="168.416" y1="751.16" y2="751.16"/><g data-visibility-modifier="PRIVATE_FIELD"><rect fill="none" height="6" style="stroke:#C82930;stroke-width:1;" width="6" x="15" y="761.8084"/></g><text fill="#000000" font-family="sans-serif" font-size="14" lengthAdjust="spacing" textLength="28.9844" x="27" y="768.1551">facil</text><g data-visibility-modifier="PRIVATE_FIELD"><rect fill="none" height="6" style="stroke:#C82930;stroke-width:1;" width="6" x="15" y="778.1053"/></g><text fill="#000000" font-family="sans-serif" font-size="14" lengthAdjust="spacing" textLength="43.5928" x="27" y="784.452">medio</text><g data-visibility-modifier="PRIVATE_FIELD"><rect fill="none" height="6" style="stroke:#C82930;stroke-width:1;" width="6" x="15" y="794.4022"/></g><text fill="#000000" font-family="sans-serif" font-size="14" lengthAdjust="spacing" textLength="37.0713" x="27" y="800.7489">dificil</text><line style="stroke:#181818;stroke-width:0.5;" x1="8" x2="168.416" y1="808.0506" y2="808.0506"/></g><!--class Respuesta--><g class="entity" data-entity="Respuesta" data-source-line="48" data-uid="ent0011" id="entity_Respuesta"><rect fill="#F1F1F1" height="80.5938" rx="2.5" ry="2.5" style="stroke:#181818;stroke-width:0.5;" width="105.3701" x="204.52" y="727.31"/><ellipse cx="219.52" cy="743.31" fill="#ADD1B2" rx="11" ry="11" style="stroke:#181818;stroke-width:1;"/><path d="M222.4888,748.9506 Q221.9106,749.2475 221.27,749.3881 Q220.6294,749.5444 219.9263,749.5444 Q217.4263,749.5444 216.0981,747.9038 Q214.7856,746.2475 214.7856,743.1225 Q214.7856,739.9975 216.0981,738.3413 Q217.4263,736.685 219.9263,736.685 Q220.6294,736.685 221.27,736.8413 Q221.9263,736.9975 222.4888,737.2944 L222.4888,740.0131 Q221.8638,739.435 221.27,739.1694 Q220.6763,738.8881 220.0513,738.8881 Q218.7075,738.8881 218.02,739.9663 Q217.3325,741.0288 217.3325,743.1225 Q217.3325,745.2163 218.02,746.2944 Q218.7075,747.3569 220.0513,747.3569 Q220.6763,747.3569 221.27,747.0913 Q221.8638,746.81 222.4888,746.2319 L222.4888,748.9506 Z " fill="#000000"/><text fill="#000000" font-family="sans-serif" font-size="14" lengthAdjust="spacing" textLength="73.3701" x="233.52" y="748.1567">Respuesta</text><line style="stroke:#181818;stroke-width:0.5;" x1="205.52" x2="308.8901" y1="759.31" y2="759.31"/><g data-visibility-modifier="PRIVATE_FIELD"><rect fill="none" height="6" style="stroke:#C82930;stroke-width:1;" width="6" x="212.52" y="769.9584"/></g><text fill="#000000" font-family="sans-serif" font-size="14" lengthAdjust="spacing" textLength="46.4775" x="224.52" y="776.3051">opci&#243;n</text><g data-visibility-modifier="PRIVATE_FIELD"><rect fill="none" height="6" style="stroke:#C82930;stroke-width:1;" width="6" x="212.52" y="786.2553"/></g><text fill="#000000" font-family="sans-serif" font-size="14" lengthAdjust="spacing" textLength="76.1387" x="224.52" y="792.602">esCorrecta</text><line style="stroke:#181818;stroke-width:0.5;" x1="205.52" x2="308.8901" y1="799.9038" y2="799.9038"/></g><!--reverse link Pregunta to Respuesta--><g class="link" data-entity-1="Pregunta" data-entity-2="Respuesta" data-source-line="53" data-uid="lnk13" id="link_Pregunta_Respuesta"><path codeLine="53" d="M211.4056,669.435 C222.3956,692.755 229.06,706.88 238.51,726.94" fill="none" id="Pregunta-backto-Respuesta" style="stroke:#181818;stroke-width:1;"/><polygon fill="#181818" points="206.29,658.58,205.2295,665.7127,211.4056,669.435,212.4661,662.3023,206.29,658.58" style="stroke:#181818;stroke-width:1;"/></g><!--link Pregunta to DificultadPregunta--><g class="link" data-entity-1="Pregunta" data-entity-2="DificultadPregunta" data-source-line="54" data-uid="lnk14" id="link_Pregunta_DificultadPregunta"><path codeLine="54" d="M138.53,658.58 C129.08,678.86 119.04,700.4 110.44,718.87" fill="none" id="Pregunta-DificultadPregunta" style="stroke:#181818;stroke-width:1;stroke-dasharray:7,7;"/></g><!--reverse link Examen to Pregunta--><g class="link" data-entity-1="Examen" data-entity-2="Pregunta" data-source-line="55" data-uid="lnk16" id="link_Examen_Pregunta"><path codeLine="55" d="M325.9108,443.8541 C301.7108,465.9641 279.69,486.08 251.36,511.96" fill="none" id="Examen-backto-Pregunta" style="stroke:#181818;stroke-width:1;"/><polygon fill="none" points="334.77,435.76,327.6424,436.854,325.9108,443.8541,333.0384,442.7601,334.77,435.76" style="stroke:#181818;stroke-width:1;"/><text fill="#000000" font-family="sans-serif" font-size="13" lengthAdjust="spacing" textLength="56.2847" x="301.21" y="478.4469">contiene</text></g><!--reverse link BateriaDePreguntas to Pregunta--><g class="link" data-entity-1="BateriaDePreguntas" data-entity-2="Pregunta" data-source-line="56" data-uid="lnk18" id="link_BateriaDePreguntas_Pregunta"><path codeLine="56" d="M178.7027,431.5193 C177.7227,454.6793 176.67,479.29 175.28,512.12" fill="none" id="BateriaDePreguntas-backto-Pregunta" style="stroke:#181818;stroke-width:1;"/><polygon fill="#181818" points="179.21,419.53,174.9599,425.3555,178.7027,431.5193,182.9528,425.6937,179.21,419.53" style="stroke:#181818;stroke-width:1;"/><text fill="#000000" font-family="sans-serif" font-size="13" lengthAdjust="spacing" textLength="56.2847" x="178.21" y="478.4469">contiene</text></g><!--link Examen to Evaluaci?nExamen--><g class="link" data-entity-1="Examen" data-entity-2="Evaluaci.nExamen" data-source-line="57" data-uid="lnk19" id="link_Examen_Evaluaci.nExamen"><path codeLine="57" d="M379.05,435.53 C379.57,460 380.25,492.01 380.84,520.06" fill="none" id="Examen-Evaluaci&#243;nExamen" style="stroke:#181818;stroke-width:1;stroke-dasharray:7,7;"/></g><!--reverse link Asignatura to BateriaDePreguntas--><g class="link" data-entity-1="Asignatura" data-entity-2="BateriaDePreguntas" data-source-line="58" data-uid="lnk21" id="link_Asignatura_BateriaDePreguntas"><path codeLine="58" d="M372.4241,273.9402 C319.4341,307.0602 259.93,344.25 217.69,370.65" fill="none" id="Asignatura-backto-BateriaDePreguntas" style="stroke:#181818;stroke-width:1;"/><polygon fill="#181818" points="382.6,267.58,375.392,267.3681,372.4241,273.9402,379.6321,274.152,382.6,267.58" style="stroke:#181818;stroke-width:1;"/><text fill="#000000" font-family="sans-serif" font-size="13" lengthAdjust="spacing" textLength="32.9443" x="319.21" y="320.8469">tiene</text></g><!--reverse link Asignatura to Examen--><g class="link" data-entity-1="Asignatura" data-entity-2="Examen" data-source-line="59" data-uid="lnk23" id="link_Asignatura_Examen"><path codeLine="59" d="M425.3021,288.9505 C414.1421,313.8505 406.17,331.66 396.02,354.33" fill="none" id="Asignatura-backto-Examen" style="stroke:#181818;stroke-width:1;"/><polygon fill="#181818" points="430.21,278,424.1059,281.8393,425.3021,288.9505,431.4062,285.1112,430.21,278" style="stroke:#181818;stroke-width:1;"/><text fill="#000000" font-family="sans-serif" font-size="13" lengthAdjust="spacing" textLength="32.9443" x="417.21" y="320.8469">tiene</text></g><!--link Profesor to Asignatura--><g class="link" data-entity-1="Profesor" data-entity-2="Asignatura" data-source-line="60" data-uid="lnk24" id="link_Profesor_Asignatura"><path codeLine="60" d="M314.23,221.19 C334.77,221.19 347.6,221.19 370.67,221.19" fill="none" id="Profesor-to-Asignatura" style="stroke:#181818;stroke-width:1;"/><polygon fill="none" points="382.67,221.19,376.67,217.19,370.67,221.19,376.67,225.19,382.67,221.19" style="stroke:#181818;stroke-width:1;"/><text fill="#000000" font-family="sans-serif" font-size="13" lengthAdjust="spacing" textLength="32.9443" x="332.49" y="214.2569">tiene</text></g><!--reverse link Grado to Asignatura--><g class="link" data-entity-1="Grado" data-entity-2="Asignatura" data-source-line="61" data-uid="lnk26" id="link_Grado_Asignatura"><path codeLine="61" d="M508.9183,98.7155 C498.8883,121.4055 490.96,139.32 479.91,164.33" fill="none" id="Grado-backto-Asignatura" style="stroke:#181818;stroke-width:1;"/><polygon fill="#181818" points="513.77,87.74,507.6857,91.6105,508.9183,98.7155,515.0027,94.845,513.77,87.74" style="stroke:#181818;stroke-width:1;"/><text fill="#000000" font-family="sans-serif" font-size="13" lengthAdjust="spacing" textLength="56.2847" x="500.21" y="130.6669">contiene</text></g><!--reverse link Examen to Alumno--><g class="link" data-entity-1="Examen" data-entity-2="Alumno" data-source-line="62" data-uid="lnk28" id="link_Examen_Alumno"><path codeLine="62" d="M412.938,445.2862 C424.718,460.7962 432.01,468.58 447.21,482.38 C465.28,498.78 474.83,496.31 493.21,512.38 C501.52,519.65 509.73,528.04 517.32,536.46" fill="none" id="Examen-backto-Alumno" style="stroke:#181818;stroke-width:1;"/><polygon fill="none" points="405.68,435.73,406.1236,442.9274,412.938,445.2862,412.4944,438.0888,405.68,435.73" style="stroke:#181818;stroke-width:1;"/><text fill="#000000" font-family="sans-serif" font-size="13" lengthAdjust="spacing" textLength="43.3228" x="448.21" y="478.4469">realiza</text></g><!--reverse link Asignatura to Alumno--><g class="link" data-entity-1="Asignatura" data-entity-2="Alumno" data-source-line="63" data-uid="lnk30" id="link_Asignatura_Alumno"><path codeLine="63" d="M473.8047,289.5369 C493.3647,360.3569 523.58,469.77 542.02,536.52" fill="none" id="Asignatura-backto-Alumno" style="stroke:#181818;stroke-width:1;"/><polygon fill="#181818" points="470.61,277.97,468.3517,284.8184,473.8047,289.5369,476.063,282.6886,470.61,277.97" style="stroke:#181818;stroke-width:1;"/><text fill="#000000" font-family="sans-serif" font-size="13" lengthAdjust="spacing" textLength="69.8369" x="514.21" y="399.6469">se imparte</text></g><!--reverse link Grado to Alumno--><g class="link" data-entity-1="Grado" data-entity-2="Alumno" data-source-line="64" data-uid="lnk32" id="link_Grado_Alumno"><path codeLine="64" d="M558.7437,98.8722 C563.2437,108.3122 562.31,107.69 565.21,117.6 C605.03,253.63 609.43,294.68 592.21,435.38 C588,469.75 578.53,507.61 570.22,536.55" fill="none" id="Grado-backto-Alumno" style="stroke:#181818;stroke-width:1;"/><polygon fill="#181818" points="553.58,88.04,552.5511,95.1773,558.7437,98.8722,559.7726,91.7349,553.58,88.04" style="stroke:#181818;stroke-width:1;"/><text fill="#000000" font-family="sans-serif" font-size="13" lengthAdjust="spacing" textLength="54.374" x="602.21" y="320.8469">se cursa</text></g><!--SRC=[XLDBJiCm4Dtd55vNIYLWnmveXTYWYXiCpgIovDZHsAuggXw81QiU8HV3SMB7AQbOnJFptfjlk0HZsFO83QfJmKg61v0EkEWkgZUvX0CohecG3yvpmGFdoOYz0ki80izsFzP97JZTfHBxuUd8Q0OSgkwx4Jpu816JrevmxvGTbB9uhujD-A9oYWkeWeHkkT0A3ICqhKDZ0oGPOxs3jnAru4vQg5AwPx180ZOOyvfJYhsIpt6hewbUNQFH571ADv-4eV8MfHILDhsnUN-RPYLTe_J_QDzamxRJ1hAzx81y-vBTvSPzRZpqni1WjL0WCnkFba1JvTqaTCoqIQEPBQ3soGEvmKheD4FlEnTZGnznrAUuZl5UqBp4sNjmWh7IbQkqvY8-s7gzKCGKzYmTMtZqMrLMeC9PVBMmpHmxidsYFtCj5fX1SJfjhpIJkHME1y5AyXKl039Nq0XdbjSvdCXLnuGWnHTamQli1fbeMY2BCqnKz-7-3uHV]--></g></svg>