<svg xmlns="http://www.w3.org/2000/svg" xmlns:xlink="http://www.w3.org/1999/xlink" contentStyleType="text/css" data-diagram-type="CLASS" height="632px" preserveAspectRatio="none" style="width:725px;height:632px;background:#FFFFFF;" version="1.1" viewBox="0 0 725 632" width="725px" zoomAndPan="magnify"><defs/><g><!--class Examen--><g class="entity" data-entity="Examen" data-source-line="1" data-uid="ent0002" id="entity_Examen"><rect fill="#F1F1F1" height="80.5938" rx="2.5" ry="2.5" style="stroke:#181818;stroke-width:0.5;" width="140.625" x="285.5" y="181"/><ellipse cx="323.806" cy="197" fill="#ADD1B2" rx="11" ry="11" style="stroke:#181818;stroke-width:1;"/><path d="M326.7747,202.6406 Q326.1966,202.9375 325.556,203.0781 Q324.9153,203.2344 324.2122,203.2344 Q321.7122,203.2344 320.3841,201.5938 Q319.0716,199.9375 319.0716,196.8125 Q319.0716,193.6875 320.3841,192.0313 Q321.7122,190.375 324.2122,190.375 Q324.9153,190.375 325.556,190.5313 Q326.2122,190.6875 326.7747,190.9844 L326.7747,193.7031 Q326.1497,193.125 325.556,192.8594 Q324.9622,192.5781 324.3372,192.5781 Q322.9935,192.5781 322.306,193.6563 Q321.6185,194.7188 321.6185,196.8125 Q321.6185,198.9063 322.306,199.9844 Q322.9935,201.0469 324.3372,201.0469 Q324.9622,201.0469 325.556,200.7813 Q326.1497,200.5 326.7747,199.9219 L326.7747,202.6406 Z " fill="#000000"/><text fill="#000000" font-family="sans-serif" font-size="14" lengthAdjust="spacing" textLength="56.834" x="342.9851" y="201.8467">Examen</text><line style="stroke:#181818;stroke-width:0.5;" x1="286.5" x2="425.125" y1="213" y2="213"/><rect fill="none" height="6" style="stroke:#C82930;stroke-width:1;" width="6" x="293.5" y="223.6484"/><text fill="#000000" font-family="sans-serif" font-size="14" lengthAdjust="spacing" textLength="75.8447" x="305.5" y="229.9951">evaluaci&#243;n</text><rect fill="none" height="6" style="stroke:#C82930;stroke-width:1;" width="6" x="293.5" y="239.9453"/><text fill="#000000" font-family="sans-serif" font-size="14" lengthAdjust="spacing" textLength="114.625" x="305.5" y="246.292">clave correcci&#243;n</text><line style="stroke:#181818;stroke-width:0.5;" x1="286.5" x2="425.125" y1="253.5938" y2="253.5938"/></g><!--class Asignatura--><g class="entity" data-entity="Asignatura" data-source-line="5" data-uid="ent0003" id="entity_Asignatura"><rect fill="#F1F1F1" height="96.8906" rx="2.5" ry="2.5" style="stroke:#181818;stroke-width:0.5;" width="144.7813" x="165.5" y="7"/><ellipse cx="197.143" cy="23" fill="#ADD1B2" rx="11" ry="11" style="stroke:#181818;stroke-width:1;"/><path d="M200.1117,28.6406 Q199.5336,28.9375 198.893,29.0781 Q198.2523,29.2344 197.5492,29.2344 Q195.0492,29.2344 193.7211,27.5938 Q192.4086,25.9375 192.4086,22.8125 Q192.4086,19.6875 193.7211,18.0313 Q195.0492,16.375 197.5492,16.375 Q198.2523,16.375 198.893,16.5313 Q199.5492,16.6875 200.1117,16.9844 L200.1117,19.7031 Q199.4867,19.125 198.893,18.8594 Q198.2992,18.5781 197.6742,18.5781 Q196.3305,18.5781 195.643,19.6563 Q194.9555,20.7188 194.9555,22.8125 Q194.9555,24.9063 195.643,25.9844 Q196.3305,27.0469 197.6742,27.0469 Q198.2992,27.0469 198.893,26.7813 Q199.4867,26.5 200.1117,25.9219 L200.1117,28.6406 Z " fill="#000000"/><text fill="#000000" font-family="sans-serif" font-size="14" lengthAdjust="spacing" textLength="75.7969" x="214.8414" y="27.8467">Asignatura</text><line style="stroke:#181818;stroke-width:0.5;" x1="166.5" x2="309.2813" y1="39" y2="39"/><rect fill="none" height="6" style="stroke:#C82930;stroke-width:1;" width="6" x="173.5" y="49.6484"/><text fill="#000000" font-family="sans-serif" font-size="14" lengthAdjust="spacing" textLength="36.1963" x="185.5" y="55.9951">t&#237;tulo</text><rect fill="none" height="6" style="stroke:#C82930;stroke-width:1;" width="6" x="173.5" y="65.9453"/><text fill="#000000" font-family="sans-serif" font-size="14" lengthAdjust="spacing" textLength="46.4912" x="185.5" y="72.292">c&#243;digo</text><rect fill="none" height="6" style="stroke:#C82930;stroke-width:1;" width="6" x="173.5" y="82.2422"/><text fill="#000000" font-family="sans-serif" font-size="14" lengthAdjust="spacing" textLength="118.7813" x="185.5" y="88.5889">curso acad&#233;mico</text><line style="stroke:#181818;stroke-width:0.5;" x1="166.5" x2="309.2813" y1="95.8906" y2="95.8906"/></g><!--class Pregunta--><g class="entity" data-entity="Pregunta" data-source-line="10" data-uid="ent0004" id="entity_Pregunta"><rect fill="#F1F1F1" height="129.4844" rx="2.5" ry="2.5" style="stroke:#181818;stroke-width:0.5;" width="162.2334" x="479" y="339"/><ellipse cx="524.1104" cy="355" fill="#ADD1B2" rx="11" ry="11" style="stroke:#181818;stroke-width:1;"/><path d="M527.0791,360.6406 Q526.501,360.9375 525.8604,361.0781 Q525.2197,361.2344 524.5166,361.2344 Q522.0166,361.2344 520.6885,359.5938 Q519.376,357.9375 519.376,354.8125 Q519.376,351.6875 520.6885,350.0313 Q522.0166,348.375 524.5166,348.375 Q525.2197,348.375 525.8604,348.5313 Q526.5166,348.6875 527.0791,348.9844 L527.0791,351.7031 Q526.4541,351.125 525.8604,350.8594 Q525.2666,350.5781 524.6416,350.5781 Q523.2979,350.5781 522.6104,351.6563 Q521.9229,352.7188 521.9229,354.8125 Q521.9229,356.9063 522.6104,357.9844 Q523.2979,359.0469 524.6416,359.0469 Q525.2666,359.0469 525.8604,358.7813 Q526.4541,358.5 527.0791,357.9219 L527.0791,360.6406 Z " fill="#000000"/><text fill="#000000" font-family="sans-serif" font-size="14" lengthAdjust="spacing" textLength="63.5127" x="544.6104" y="359.8467">Pregunta</text><line style="stroke:#181818;stroke-width:0.5;" x1="480" x2="640.2334" y1="371" y2="371"/><rect fill="none" height="6" style="stroke:#C82930;stroke-width:1;" width="6" x="487" y="381.6484"/><text fill="#000000" font-family="sans-serif" font-size="14" lengthAdjust="spacing" textLength="74.7988" x="499" y="387.9951">asignatura</text><rect fill="none" height="6" style="stroke:#C82930;stroke-width:1;" width="6" x="487" y="397.9453"/><text fill="#000000" font-family="sans-serif" font-size="14" lengthAdjust="spacing" textLength="72.8506" x="499" y="404.292">enunciado</text><rect fill="none" height="6" style="stroke:#C82930;stroke-width:1;" width="6" x="487" y="414.2422"/><text fill="#000000" font-family="sans-serif" font-size="14" lengthAdjust="spacing" textLength="136.2334" x="499" y="420.5889">opciones respuesta</text><rect fill="none" height="6" style="stroke:#C82930;stroke-width:1;" width="6" x="487" y="430.5391"/><text fill="#000000" font-family="sans-serif" font-size="14" lengthAdjust="spacing" textLength="132.002" x="499" y="436.8857">respuesta correcta</text><rect fill="none" height="6" style="stroke:#C82930;stroke-width:1;" width="6" x="487" y="446.8359"/><text fill="#000000" font-family="sans-serif" font-size="14" lengthAdjust="spacing" textLength="65.0098" x="499" y="453.1826">dificultad</text><line style="stroke:#181818;stroke-width:0.5;" x1="480" x2="640.2334" y1="460.4844" y2="460.4844"/></g><!--class BateriaDePreguntas--><g class="entity" data-entity="BateriaDePreguntas" data-source-line="17" data-uid="ent0005" id="entity_BateriaDePreguntas"><rect fill="#F1F1F1" height="48" rx="2.5" ry="2.5" style="stroke:#181818;stroke-width:0.5;" width="172.7109" x="468.5" y="197.5"/><ellipse cx="483.5" cy="213.5" fill="#ADD1B2" rx="11" ry="11" style="stroke:#181818;stroke-width:1;"/><path d="M486.4688,219.1406 Q485.8906,219.4375 485.25,219.5781 Q484.6094,219.7344 483.9063,219.7344 Q481.4063,219.7344 480.0781,218.0938 Q478.7656,216.4375 478.7656,213.3125 Q478.7656,210.1875 480.0781,208.5313 Q481.4063,206.875 483.9063,206.875 Q484.6094,206.875 485.25,207.0313 Q485.9063,207.1875 486.4688,207.4844 L486.4688,210.2031 Q485.8438,209.625 485.25,209.3594 Q484.6563,209.0781 484.0313,209.0781 Q482.6875,209.0781 482,210.1563 Q481.3125,211.2188 481.3125,213.3125 Q481.3125,215.4063 482,216.4844 Q482.6875,217.5469 484.0313,217.5469 Q484.6563,217.5469 485.25,217.2813 Q485.8438,217 486.4688,216.4219 L486.4688,219.1406 Z " fill="#000000"/><text fill="#000000" font-family="sans-serif" font-size="14" lengthAdjust="spacing" textLength="140.7109" x="497.5" y="218.3467">BateriaDePreguntas</text><line style="stroke:#181818;stroke-width:0.5;" x1="469.5" x2="640.2109" y1="229.5" y2="229.5"/><line style="stroke:#181818;stroke-width:0.5;" x1="469.5" x2="640.2109" y1="237.5" y2="237.5"/></g><!--class Grado--><g class="entity" data-entity="Grado" data-source-line="19" data-uid="ent0006" id="entity_Grado"><rect fill="#F1F1F1" height="80.5938" rx="2.5" ry="2.5" style="stroke:#181818;stroke-width:0.5;" width="74.6357" x="33.5" y="181"/><ellipse cx="48.5" cy="197" fill="#ADD1B2" rx="11" ry="11" style="stroke:#181818;stroke-width:1;"/><path d="M51.4688,202.6406 Q50.8906,202.9375 50.25,203.0781 Q49.6094,203.2344 48.9063,203.2344 Q46.4063,203.2344 45.0781,201.5938 Q43.7656,199.9375 43.7656,196.8125 Q43.7656,193.6875 45.0781,192.0313 Q46.4063,190.375 48.9063,190.375 Q49.6094,190.375 50.25,190.5313 Q50.9063,190.6875 51.4688,190.9844 L51.4688,193.7031 Q50.8438,193.125 50.25,192.8594 Q49.6563,192.5781 49.0313,192.5781 Q47.6875,192.5781 47,193.6563 Q46.3125,194.7188 46.3125,196.8125 Q46.3125,198.9063 47,199.9844 Q47.6875,201.0469 49.0313,201.0469 Q49.6563,201.0469 50.25,200.7813 Q50.8438,200.5 51.4688,199.9219 L51.4688,202.6406 Z " fill="#000000"/><text fill="#000000" font-family="sans-serif" font-size="14" lengthAdjust="spacing" textLength="42.6357" x="62.5" y="201.8467">Grado</text><line style="stroke:#181818;stroke-width:0.5;" x1="34.5" x2="107.1357" y1="213" y2="213"/><rect fill="none" height="6" style="stroke:#C82930;stroke-width:1;" width="6" x="41.5" y="223.6484"/><text fill="#000000" font-family="sans-serif" font-size="14" lengthAdjust="spacing" textLength="36.1963" x="53.5" y="229.9951">t&#237;tulo</text><rect fill="none" height="6" style="stroke:#C82930;stroke-width:1;" width="6" x="41.5" y="239.9453"/><text fill="#000000" font-family="sans-serif" font-size="14" lengthAdjust="spacing" textLength="46.4912" x="53.5" y="246.292">c&#243;digo</text><line style="stroke:#181818;stroke-width:0.5;" x1="34.5" x2="107.1357" y1="253.5938" y2="253.5938"/></g><!--class Profesor--><g class="entity" data-entity="Profesor" data-source-line="23" data-uid="ent0007" id="entity_Profesor"><rect fill="#F1F1F1" height="96.8906" rx="2.5" ry="2.5" style="stroke:#181818;stroke-width:0.5;" width="89.9209" x="7" y="7"/><ellipse cx="22" cy="23" fill="#ADD1B2" rx="11" ry="11" style="stroke:#181818;stroke-width:1;"/><path d="M24.9688,28.6406 Q24.3906,28.9375 23.75,29.0781 Q23.1094,29.2344 22.4063,29.2344 Q19.9063,29.2344 18.5781,27.5938 Q17.2656,25.9375 17.2656,22.8125 Q17.2656,19.6875 18.5781,18.0313 Q19.9063,16.375 22.4063,16.375 Q23.1094,16.375 23.75,16.5313 Q24.4063,16.6875 24.9688,16.9844 L24.9688,19.7031 Q24.3438,19.125 23.75,18.8594 Q23.1563,18.5781 22.5313,18.5781 Q21.1875,18.5781 20.5,19.6563 Q19.8125,20.7188 19.8125,22.8125 Q19.8125,24.9063 20.5,25.9844 Q21.1875,27.0469 22.5313,27.0469 Q23.1563,27.0469 23.75,26.7813 Q24.3438,26.5 24.9688,25.9219 L24.9688,28.6406 Z " fill="#000000"/><text fill="#000000" font-family="sans-serif" font-size="14" lengthAdjust="spacing" textLength="57.9209" x="36" y="27.8467">Profesor</text><line style="stroke:#181818;stroke-width:0.5;" x1="8" x2="95.9209" y1="39" y2="39"/><rect fill="none" height="6" style="stroke:#C82930;stroke-width:1;" width="6" x="15" y="49.6484"/><text fill="#000000" font-family="sans-serif" font-size="14" lengthAdjust="spacing" textLength="54.332" x="27" y="55.9951">nombre</text><rect fill="none" height="6" style="stroke:#C82930;stroke-width:1;" width="6" x="15" y="65.9453"/><text fill="#000000" font-family="sans-serif" font-size="14" lengthAdjust="spacing" textLength="62.4941" x="27" y="72.292">apellidos</text><rect fill="none" height="6" style="stroke:#C82930;stroke-width:1;" width="6" x="15" y="82.2422"/><text fill="#000000" font-family="sans-serif" font-size="14" lengthAdjust="spacing" textLength="25.3818" x="27" y="88.5889">DNI</text><line style="stroke:#181818;stroke-width:0.5;" x1="8" x2="95.9209" y1="95.8906" y2="95.8906"/></g><!--class Alumno--><g class="entity" data-entity="Alumno" data-source-line="28" data-uid="ent0008" id="entity_Alumno"><rect fill="#F1F1F1" height="96.8906" rx="2.5" ry="2.5" style="stroke:#181818;stroke-width:0.5;" width="88.4941" x="133" y="355"/><ellipse cx="149.3852" cy="371" fill="#ADD1B2" rx="11" ry="11" style="stroke:#181818;stroke-width:1;"/><path d="M152.3539,376.6406 Q151.7758,376.9375 151.1352,377.0781 Q150.4945,377.2344 149.7914,377.2344 Q147.2914,377.2344 145.9633,375.5938 Q144.6508,373.9375 144.6508,370.8125 Q144.6508,367.6875 145.9633,366.0313 Q147.2914,364.375 149.7914,364.375 Q150.4945,364.375 151.1352,364.5313 Q151.7914,364.6875 152.3539,364.9844 L152.3539,367.7031 Q151.7289,367.125 151.1352,366.8594 Q150.5414,366.5781 149.9164,366.5781 Q148.5727,366.5781 147.8852,367.6563 Q147.1977,368.7188 147.1977,370.8125 Q147.1977,372.9063 147.8852,373.9844 Q148.5727,375.0469 149.9164,375.0469 Q150.5414,375.0469 151.1352,374.7813 Q151.7289,374.5 152.3539,373.9219 L152.3539,376.6406 Z " fill="#000000"/><text fill="#000000" font-family="sans-serif" font-size="14" lengthAdjust="spacing" textLength="53.416" x="163.693" y="375.8467">Alumno</text><line style="stroke:#181818;stroke-width:0.5;" x1="134" x2="220.4941" y1="387" y2="387"/><rect fill="none" height="6" style="stroke:#C82930;stroke-width:1;" width="6" x="141" y="397.6484"/><text fill="#000000" font-family="sans-serif" font-size="14" lengthAdjust="spacing" textLength="54.332" x="153" y="403.9951">nombre</text><rect fill="none" height="6" style="stroke:#C82930;stroke-width:1;" width="6" x="141" y="413.9453"/><text fill="#000000" font-family="sans-serif" font-size="14" lengthAdjust="spacing" textLength="62.4941" x="153" y="420.292">apellidos</text><rect fill="none" height="6" style="stroke:#C82930;stroke-width:1;" width="6" x="141" y="430.2422"/><text fill="#000000" font-family="sans-serif" font-size="14" lengthAdjust="spacing" textLength="25.3818" x="153" y="436.5889">DNI</text><line style="stroke:#181818;stroke-width:0.5;" x1="134" x2="220.4941" y1="443.8906" y2="443.8906"/></g><!--class Evaluaci?nExamen--><g class="entity" data-entity="Evaluaci.nExamen" data-source-line="33" data-uid="ent0009" id="entity_Evaluaci.nExamen"><rect fill="#F1F1F1" height="129.4844" rx="2.5" ry="2.5" style="stroke:#181818;stroke-width:0.5;" width="186.7676" x="256.5" y="339"/><ellipse cx="281.3354" cy="355" fill="#EB937F" rx="11" ry="11" style="stroke:#181818;stroke-width:1;"/><path d="M285.4448,361 L277.726,361 L277.726,348.6094 L285.4448,348.6094 L285.4448,350.7656 L280.1792,350.7656 L280.1792,353.4375 L284.9448,353.4375 L284.9448,355.5938 L280.1792,355.5938 L280.1792,358.8438 L285.4448,358.8438 L285.4448,361 Z " fill="#000000"/><text fill="#000000" font-family="sans-serif" font-size="14" lengthAdjust="spacing" textLength="132.9111" x="297.521" y="359.8467">Evaluaci&#243;nExamen</text><line style="stroke:#181818;stroke-width:0.5;" x1="257.5" x2="442.2676" y1="371" y2="371"/><rect fill="none" height="6" style="stroke:#C82930;stroke-width:1;" width="6" x="264.5" y="381.6484"/><text fill="#000000" font-family="sans-serif" font-size="14" lengthAdjust="spacing" textLength="60.1904" x="276.5" y="387.9951">Parcial 1</text><rect fill="none" height="6" style="stroke:#C82930;stroke-width:1;" width="6" x="264.5" y="397.9453"/><text fill="#000000" font-family="sans-serif" font-size="14" lengthAdjust="spacing" textLength="60.1904" x="276.5" y="404.292">Parcial 2</text><rect fill="none" height="6" style="stroke:#C82930;stroke-width:1;" width="6" x="264.5" y="414.2422"/><text fill="#000000" font-family="sans-serif" font-size="14" lengthAdjust="spacing" textLength="60.1904" x="276.5" y="420.5889">Parcial 3</text><rect fill="none" height="6" style="stroke:#C82930;stroke-width:1;" width="6" x="264.5" y="430.5391"/><text fill="#000000" font-family="sans-serif" font-size="14" lengthAdjust="spacing" textLength="91.4443" x="276.5" y="436.8857">Examen final</text><rect fill="none" height="6" style="stroke:#C82930;stroke-width:1;" width="6" x="264.5" y="446.8359"/><text fill="#000000" font-family="sans-serif" font-size="14" lengthAdjust="spacing" textLength="160.7676" x="276.5" y="453.1826">Examen extraordinario</text><line style="stroke:#181818;stroke-width:0.5;" x1="257.5" x2="442.2676" y1="460.4844" y2="460.4844"/></g><!--class DificultadPregunta--><g class="entity" data-entity="DificultadPregunta" data-source-line="40" data-uid="ent0010" id="entity_DificultadPregunta"><rect fill="#F1F1F1" height="96.8906" rx="2.5" ry="2.5" style="stroke:#181818;stroke-width:0.5;" width="162.416" x="310" y="529"/><ellipse cx="325" cy="545" fill="#EB937F" rx="11" ry="11" style="stroke:#181818;stroke-width:1;"/><path d="M329.1094,551 L321.3906,551 L321.3906,538.6094 L329.1094,538.6094 L329.1094,540.7656 L323.8438,540.7656 L323.8438,543.4375 L328.6094,543.4375 L328.6094,545.5938 L323.8438,545.5938 L323.8438,548.8438 L329.1094,548.8438 L329.1094,551 Z " fill="#000000"/><text fill="#000000" font-family="sans-serif" font-size="14" lengthAdjust="spacing" textLength="130.416" x="339" y="549.8467">DificultadPregunta</text><line style="stroke:#181818;stroke-width:0.5;" x1="311" x2="471.416" y1="561" y2="561"/><rect fill="none" height="6" style="stroke:#C82930;stroke-width:1;" width="6" x="318" y="571.6484"/><text fill="#000000" font-family="sans-serif" font-size="14" lengthAdjust="spacing" textLength="28.9844" x="330" y="577.9951">facil</text><rect fill="none" height="6" style="stroke:#C82930;stroke-width:1;" width="6" x="318" y="587.9453"/><text fill="#000000" font-family="sans-serif" font-size="14" lengthAdjust="spacing" textLength="43.5928" x="330" y="594.292">medio</text><rect fill="none" height="6" style="stroke:#C82930;stroke-width:1;" width="6" x="318" y="604.2422"/><text fill="#000000" font-family="sans-serif" font-size="14" lengthAdjust="spacing" textLength="37.0713" x="330" y="610.5889">dificil</text><line style="stroke:#181818;stroke-width:0.5;" x1="311" x2="471.416" y1="617.8906" y2="617.8906"/></g><!--class Respuesta--><g class="entity" data-entity="Respuesta" data-source-line="46" data-uid="ent0011" id="entity_Respuesta"><rect fill="#F1F1F1" height="80.5938" rx="2.5" ry="2.5" style="stroke:#181818;stroke-width:0.5;" width="105.3701" x="507.5" y="537"/><ellipse cx="522.5" cy="553" fill="#ADD1B2" rx="11" ry="11" style="stroke:#181818;stroke-width:1;"/><path d="M525.4688,558.6406 Q524.8906,558.9375 524.25,559.0781 Q523.6094,559.2344 522.9063,559.2344 Q520.4063,559.2344 519.0781,557.5938 Q517.7656,555.9375 517.7656,552.8125 Q517.7656,549.6875 519.0781,548.0313 Q520.4063,546.375 522.9063,546.375 Q523.6094,546.375 524.25,546.5313 Q524.9063,546.6875 525.4688,546.9844 L525.4688,549.7031 Q524.8438,549.125 524.25,548.8594 Q523.6563,548.5781 523.0313,548.5781 Q521.6875,548.5781 521,549.6563 Q520.3125,550.7188 520.3125,552.8125 Q520.3125,554.9063 521,555.9844 Q521.6875,557.0469 523.0313,557.0469 Q523.6563,557.0469 524.25,556.7813 Q524.8438,556.5 525.4688,555.9219 L525.4688,558.6406 Z " fill="#000000"/><text fill="#000000" font-family="sans-serif" font-size="14" lengthAdjust="spacing" textLength="73.3701" x="536.5" y="557.8467">Respuesta</text><line style="stroke:#181818;stroke-width:0.5;" x1="508.5" x2="611.8701" y1="569" y2="569"/><rect fill="none" height="6" style="stroke:#C82930;stroke-width:1;" width="6" x="515.5" y="579.6484"/><text fill="#000000" font-family="sans-serif" font-size="14" lengthAdjust="spacing" textLength="46.4775" x="527.5" y="585.9951">opci&#243;n</text><rect fill="none" height="6" style="stroke:#C82930;stroke-width:1;" width="6" x="515.5" y="595.9453"/><text fill="#000000" font-family="sans-serif" font-size="14" lengthAdjust="spacing" textLength="76.1387" x="527.5" y="602.292">esCorrecta</text><line style="stroke:#181818;stroke-width:0.5;" x1="508.5" x2="611.8701" y1="609.5938" y2="609.5938"/></g><!--class Tema--><g class="entity" data-entity="Tema" data-source-line="51" data-uid="ent0012" id="entity_Tema"><rect fill="#F1F1F1" height="48" rx="2.5" ry="2.5" style="stroke:#181818;stroke-width:0.5;" width="71.3818" x="647.5" y="553.5"/><ellipse cx="662.5" cy="569.5" fill="#EB937F" rx="11" ry="11" style="stroke:#181818;stroke-width:1;"/><path d="M666.6094,575.5 L658.8906,575.5 L658.8906,563.1094 L666.6094,563.1094 L666.6094,565.2656 L661.3438,565.2656 L661.3438,567.9375 L666.1094,567.9375 L666.1094,570.0938 L661.3438,570.0938 L661.3438,573.3438 L666.6094,573.3438 L666.6094,575.5 Z " fill="#000000"/><text fill="#000000" font-family="sans-serif" font-size="14" lengthAdjust="spacing" textLength="39.3818" x="676.5" y="574.3467">Tema</text><line style="stroke:#181818;stroke-width:0.5;" x1="648.5" x2="717.8818" y1="585.5" y2="585.5"/><line style="stroke:#181818;stroke-width:0.5;" x1="648.5" x2="717.8818" y1="593.5" y2="593.5"/></g><!--reverse link Pregunta to Respuesta--><g class="link" data-entity-1="Pregunta" data-entity-2="Respuesta" data-source-line="54" data-uid="lnk14" id="link_Pregunta_Respuesta"><path codeLine="54" d="M560,480.06 C560,503.12 560,516.5 560,536.9" fill="none" id="Pregunta-backto-Respuesta" style="stroke:#181818;stroke-width:1;"/><polygon fill="#181818" points="560,468.06,556,474.06,560,480.06,564,474.06,560,468.06" style="stroke:#181818;stroke-width:1;"/></g><!--link Pregunta to DificultadPregunta--><g class="link" data-entity-1="Pregunta" data-entity-2="DificultadPregunta" data-source-line="55" data-uid="lnk15" id="link_Pregunta_DificultadPregunta"><path codeLine="55" d="M497.55,468.06 C477.81,488.15 456.33,510.01 437.87,528.8" fill="none" id="Pregunta-DificultadPregunta" style="stroke:#181818;stroke-width:1;stroke-dasharray:7,7;"/></g><!--reverse link Examen to Pregunta--><g class="link" data-entity-1="Examen" data-entity-2="Pregunta" data-source-line="56" data-uid="lnk17" id="link_Examen_Pregunta"><path codeLine="56" d="M409.7673,269.9403 C435.2173,292.4003 458.7,313.12 487.68,338.69" fill="none" id="Examen-backto-Pregunta" style="stroke:#181818;stroke-width:1;"/><polygon fill="none" points="400.77,262,402.6219,268.9692,409.7673,269.9403,407.9154,262.971,400.77,262" style="stroke:#181818;stroke-width:1;"/><text fill="#000000" font-family="sans-serif" font-size="13" lengthAdjust="spacing" textLength="56.2847" x="452" y="305.0669">contiene</text></g><!--reverse link BateriaDePreguntas to Pregunta--><g class="link" data-entity-1="BateriaDePreguntas" data-entity-2="Pregunta" data-source-line="57" data-uid="lnk19" id="link_BateriaDePreguntas_Pregunta"><path codeLine="57" d="M555.9724,257.6554 C556.6224,281.1154 557.33,306.44 558.23,338.8" fill="none" id="BateriaDePreguntas-backto-Pregunta" style="stroke:#181818;stroke-width:1;"/><polygon fill="#181818" points="555.64,245.66,551.8077,251.7685,555.9724,257.6554,559.8046,251.5469,555.64,245.66" style="stroke:#181818;stroke-width:1;"/><text fill="#000000" font-family="sans-serif" font-size="13" lengthAdjust="spacing" textLength="56.2847" x="558" y="305.0669">contiene</text></g><!--link Examen to Evaluaci?nExamen--><g class="link" data-entity-1="Examen" data-entity-2="Evaluaci.nExamen" data-source-line="58" data-uid="lnk20" id="link_Examen_Evaluaci.nExamen"><path codeLine="58" d="M354.68,262 C353.93,284.46 352.98,313.12 352.13,338.69" fill="none" id="Examen-Evaluaci&#243;nExamen" style="stroke:#181818;stroke-width:1;stroke-dasharray:7,7;"/></g><!--reverse link Asignatura to BateriaDePreguntas--><g class="link" data-entity-1="Asignatura" data-entity-2="BateriaDePreguntas" data-source-line="59" data-uid="lnk22" id="link_Asignatura_BateriaDePreguntas"><path codeLine="59" d="M321.3881,99.6342 C382.9881,131.5042 458.66,170.66 510.49,197.47" fill="none" id="Asignatura-backto-BateriaDePreguntas" style="stroke:#181818;stroke-width:1;"/><polygon fill="#181818" points="310.73,94.12,314.221,100.4298,321.3881,99.6342,317.8971,93.3244,310.73,94.12" style="stroke:#181818;stroke-width:1;"/><text fill="#000000" font-family="sans-serif" font-size="13" lengthAdjust="spacing" textLength="32.9443" x="416" y="147.0669">tiene</text></g><!--reverse link Asignatura to Examen--><g class="link" data-entity-1="Asignatura" data-entity-2="Examen" data-source-line="60" data-uid="lnk24" id="link_Asignatura_Examen"><path codeLine="60" d="M279.4593,114.1201 C296.9393,138.4101 310.91,157.84 327.48,180.86" fill="none" id="Asignatura-backto-Examen" style="stroke:#181818;stroke-width:1;"/><polygon fill="#181818" points="272.45,104.38,272.708,111.5865,279.4593,114.1201,279.2014,106.9136,272.45,104.38" style="stroke:#181818;stroke-width:1;"/><text fill="#000000" font-family="sans-serif" font-size="13" lengthAdjust="spacing" textLength="32.9443" x="305" y="147.0669">tiene</text></g><!--reverse link Profesor to Asignatura--><g class="link" data-entity-1="Profesor" data-entity-2="Asignatura" data-source-line="61" data-uid="lnk25" id="link_Profesor_Asignatura"><path codeLine="61" d="M109.03,55.5 C129.56,55.5 142.39,55.5 165.46,55.5" fill="none" id="Profesor-backto-Asignatura" style="stroke:#181818;stroke-width:1;"/><polygon fill="none" points="97.03,55.5,103.03,59.5,109.03,55.5,103.03,51.5,97.03,55.5" style="stroke:#181818;stroke-width:1;"/><text fill="#000000" font-family="sans-serif" font-size="13" lengthAdjust="spacing" textLength="32.9443" x="115.25" y="48.5669">tiene</text></g><!--link Asignatura to Grado--><g class="link" data-entity-1="Asignatura" data-entity-2="Grado" data-source-line="62" data-uid="lnk26" id="link_Asignatura_Grado"><path codeLine="62" d="M165.23,82.08 C139.8,94.26 113.12,111.25 95,134 C84.42,147.29 80.9457,153.1919 77.6357,169.0919" fill="none" id="Asignatura-to-Grado" style="stroke:#181818;stroke-width:1;"/><polygon fill="#181818" points="75.19,180.84,80.3289,175.7812,77.6357,169.0919,72.4968,174.1507,75.19,180.84" style="stroke:#181818;stroke-width:1;"/><text fill="#000000" font-family="sans-serif" font-size="13" lengthAdjust="spacing" textLength="56.2847" x="96" y="147.0669">contiene</text></g><!--reverse link Examen to Alumno--><g class="link" data-entity-1="Examen" data-entity-2="Alumno" data-source-line="63" data-uid="lnk28" id="link_Examen_Alumno"><path codeLine="63" d="M307.269,270.7095 C284.629,293.1595 264.41,313.34 239,339 C233.25,344.8 227.23,350.92 221.29,356.98" fill="none" id="Examen-backto-Alumno" style="stroke:#181818;stroke-width:1;"/><polygon fill="none" points="315.79,262.26,308.713,263.6444,307.269,270.7095,314.346,269.325,315.79,262.26" style="stroke:#181818;stroke-width:1;"/><text fill="#000000" font-family="sans-serif" font-size="13" lengthAdjust="spacing" textLength="43.3228" x="284" y="305.0669">realiza</text></g><!--reverse link Asignatura to Alumno--><g class="link" data-entity-1="Asignatura" data-entity-2="Alumno" data-source-line="64" data-uid="lnk30" id="link_Asignatura_Alumno"><path codeLine="64" d="M215.3974,115.5921 C207.2374,138.4621 202.35,155.15 197,181 C184.75,240.17 180.01,309.78 178.17,354.94" fill="none" id="Asignatura-backto-Alumno" style="stroke:#181818;stroke-width:1;"/><polygon fill="#181818" points="219.43,104.29,213.6463,108.5969,215.3974,115.5921,221.1811,111.2853,219.43,104.29" style="stroke:#181818;stroke-width:1;"/><text fill="#000000" font-family="sans-serif" font-size="13" lengthAdjust="spacing" textLength="69.8369" x="198" y="226.0669">se imparte</text></g><!--reverse link Grado to Alumno--><g class="link" data-entity-1="Grado" data-entity-2="Alumno" data-source-line="65" data-uid="lnk32" id="link_Grado_Alumno"><path codeLine="65" d="M82.348,273.7878 C86.438,288.9878 89.11,294.55 97,309 C106.52,326.44 119.68,343.54 132.58,358.26" fill="none" id="Grado-backto-Alumno" style="stroke:#181818;stroke-width:1;"/><polygon fill="#181818" points="79.23,262.2,76.9264,269.0333,82.348,273.7878,84.6516,266.9546,79.23,262.2" style="stroke:#181818;stroke-width:1;"/><text fill="#000000" font-family="sans-serif" font-size="13" lengthAdjust="spacing" textLength="54.374" x="98" y="305.0669">se cursa</text></g><!--link Pregunta to Tema--><g class="link" data-entity-1="Pregunta" data-entity-2="Tema" data-source-line="66" data-uid="lnk33" id="link_Pregunta_Tema"><path codeLine="66" d="M605.45,468.06 C626.8,497.91 650.93,531.65 666.52,553.45" fill="none" id="Pregunta-Tema" style="stroke:#181818;stroke-width:1;stroke-dasharray:7,7;"/></g><!--SRC=[XLDBJiCm4Dtd55uZfHAmOmUqGcnGXRZ0O4ygIuuTZUsgekg1MB3g4N8n72TsafAAdUVpvisy6NC5rhBD0MhKnuAL3FUWF73PddLdSWLxPDmG8U-Tfu97pAELEmtE4qISQt-SLoPYshEGk_xfoHe674JxNKjkCdfBkFFQzLZ8fM87scikGSG2fk7IQBICq3OUhOifsHWwwxr2Lf9xvK1acYTmI1BMcFZiCSTUA71SwttiqrHe3SKyRUfFmjXnWqf9OMndhDzUHrMKhxNvFpiCMRFDgFLa0rkWCBvYjrFZRchSTqQFO9NKe2Os7Xo18H7S94rYMcTfPi9NWJo2QnJIP0s3xrGC0xqdgOzf7SDbe7rEseVaoFA1DNJw5Xd4Ib_Uv6KNwS5MguMMnd10cJJGGzYnTX8rpk8t2xkTvWxeGFH7vM816IkE9nqgpSfS2wVpOAQaSYbXuYf3YNXpqpRxUxaOc12K_899y8BS8fDr0-HmbfEgXt3tyUPwTylv1G00]--></g></svg>