<svg xmlns="http://www.w3.org/2000/svg" xmlns:xlink="http://www.w3.org/1999/xlink" contentStyleType="text/css" data-diagram-type="CLASS" height="946px" preserveAspectRatio="none" style="width:964px;height:946px;background:#FFFFFF;" version="1.1" viewBox="0 0 964 946" width="964px" zoomAndPan="magnify"><defs/><g><!--class Examen--><g class="entity" data-entity="Examen" data-source-line="1" data-uid="ent0002" id="entity_Examen"><rect fill="#F1F1F1" height="64.2969" rx="2.5" ry="2.5" style="stroke:#181818;stroke-width:0.5;" width="101.8447" x="636.43" y="140.15"/><ellipse cx="657.2848" cy="156.15" fill="#ADD1B2" rx="11" ry="11" style="stroke:#181818;stroke-width:1;"/><path d="M660.2536,161.7906 Q659.6755,162.0875 659.0348,162.2281 Q658.3942,162.3844 657.6911,162.3844 Q655.1911,162.3844 653.863,160.7437 Q652.5505,159.0875 652.5505,155.9625 Q652.5505,152.8375 653.863,151.1812 Q655.1911,149.525 657.6911,149.525 Q658.3942,149.525 659.0348,149.6812 Q659.6911,149.8375 660.2536,150.1344 L660.2536,152.8531 Q659.6286,152.275 659.0348,152.0094 Q658.4411,151.7281 657.8161,151.7281 Q656.4723,151.7281 655.7848,152.8062 Q655.0973,153.8687 655.0973,155.9625 Q655.0973,158.0562 655.7848,159.1344 Q656.4723,160.1969 657.8161,160.1969 Q658.4411,160.1969 659.0348,159.9312 Q659.6286,159.65 660.2536,159.0719 L660.2536,161.7906 Z " fill="#000000"/><text fill="#000000" font-family="sans-serif" font-size="14" lengthAdjust="spacing" textLength="56.834" x="672.5859" y="160.9967">Examen</text><line style="stroke:#181818;stroke-width:0.5;" x1="637.43" x2="737.2747" y1="172.15" y2="172.15"/><rect fill="none" height="6" style="stroke:#C82930;stroke-width:1;" width="6" x="644.43" y="182.7984"/><text fill="#000000" font-family="sans-serif" font-size="14" lengthAdjust="spacing" textLength="75.8447" x="656.43" y="189.1451">evaluaci&#243;n</text><line style="stroke:#181818;stroke-width:0.5;" x1="637.43" x2="737.2747" y1="196.4469" y2="196.4469"/></g><!--class Asignatura--><g class="entity" data-entity="Asignatura" data-source-line="4" data-uid="ent0003" id="entity_Asignatura"><rect fill="#F1F1F1" height="80.5938" rx="2.5" ry="2.5" style="stroke:#181818;stroke-width:0.5;" width="107.7969" x="280.46" y="289.6"/><ellipse cx="295.46" cy="305.6" fill="#ADD1B2" rx="11" ry="11" style="stroke:#181818;stroke-width:1;"/><path d="M298.4288,311.2406 Q297.8506,311.5375 297.21,311.6781 Q296.5694,311.8344 295.8663,311.8344 Q293.3663,311.8344 292.0381,310.1938 Q290.7256,308.5375 290.7256,305.4125 Q290.7256,302.2875 292.0381,300.6313 Q293.3663,298.975 295.8663,298.975 Q296.5694,298.975 297.21,299.1313 Q297.8663,299.2875 298.4288,299.5844 L298.4288,302.3031 Q297.8038,301.725 297.21,301.4594 Q296.6163,301.1781 295.9913,301.1781 Q294.6475,301.1781 293.96,302.2563 Q293.2725,303.3188 293.2725,305.4125 Q293.2725,307.5063 293.96,308.5844 Q294.6475,309.6469 295.9913,309.6469 Q296.6163,309.6469 297.21,309.3813 Q297.8038,309.1 298.4288,308.5219 L298.4288,311.2406 Z " fill="#000000"/><text fill="#000000" font-family="sans-serif" font-size="14" lengthAdjust="spacing" textLength="75.7969" x="309.46" y="310.4467">Asignatura</text><line style="stroke:#181818;stroke-width:0.5;" x1="281.46" x2="387.2569" y1="321.6" y2="321.6"/><rect fill="none" height="6" style="stroke:#C82930;stroke-width:1;" width="6" x="288.46" y="332.2484"/><text fill="#000000" font-family="sans-serif" font-size="14" lengthAdjust="spacing" textLength="36.1963" x="300.46" y="338.5951">t&#237;tulo</text><rect fill="none" height="6" style="stroke:#C82930;stroke-width:1;" width="6" x="288.46" y="348.5453"/><text fill="#000000" font-family="sans-serif" font-size="14" lengthAdjust="spacing" textLength="46.4912" x="300.46" y="354.892">c&#243;digo</text><line style="stroke:#181818;stroke-width:0.5;" x1="281.46" x2="387.2569" y1="362.1938" y2="362.1938"/></g><!--class Tema--><g class="entity" data-entity="Tema" data-source-line="8" data-uid="ent0004" id="entity_Tema"><rect fill="#F1F1F1" height="64.2969" rx="2.5" ry="2.5" style="stroke:#181818;stroke-width:0.5;" width="71.3818" x="302.66" y="574.08"/><ellipse cx="317.66" cy="590.08" fill="#ADD1B2" rx="11" ry="11" style="stroke:#181818;stroke-width:1;"/><path d="M320.6288,595.7206 Q320.0506,596.0175 319.41,596.1581 Q318.7694,596.3144 318.0663,596.3144 Q315.5663,596.3144 314.2381,594.6738 Q312.9256,593.0175 312.9256,589.8925 Q312.9256,586.7675 314.2381,585.1113 Q315.5663,583.455 318.0663,583.455 Q318.7694,583.455 319.41,583.6113 Q320.0663,583.7675 320.6288,584.0644 L320.6288,586.7831 Q320.0038,586.205 319.41,585.9394 Q318.8163,585.6581 318.1913,585.6581 Q316.8475,585.6581 316.16,586.7363 Q315.4725,587.7988 315.4725,589.8925 Q315.4725,591.9863 316.16,593.0644 Q316.8475,594.1269 318.1913,594.1269 Q318.8163,594.1269 319.41,593.8613 Q320.0038,593.58 320.6288,593.0019 L320.6288,595.7206 Z " fill="#000000"/><text fill="#000000" font-family="sans-serif" font-size="14" lengthAdjust="spacing" textLength="39.3818" x="331.66" y="594.9267">Tema</text><line style="stroke:#181818;stroke-width:0.5;" x1="303.66" x2="373.0418" y1="606.08" y2="606.08"/><rect fill="none" height="6" style="stroke:#C82930;stroke-width:1;" width="6" x="310.66" y="616.7284"/><text fill="#000000" font-family="sans-serif" font-size="14" lengthAdjust="spacing" textLength="36.1963" x="322.66" y="623.0751">t&#237;tulo</text><line style="stroke:#181818;stroke-width:0.5;" x1="303.66" x2="373.0418" y1="630.3769" y2="630.3769"/></g><!--class Pregunta--><g class="entity" data-entity="Pregunta" data-source-line="11" data-uid="ent0005" id="entity_Pregunta"><rect fill="#F1F1F1" height="129.4844" rx="2.5" ry="2.5" style="stroke:#181818;stroke-width:0.5;" width="162.2334" x="218.24" y="809.68"/><ellipse cx="263.3504" cy="825.68" fill="#ADD1B2" rx="11" ry="11" style="stroke:#181818;stroke-width:1;"/><path d="M266.3191,831.3206 Q265.741,831.6175 265.1004,831.7581 Q264.4597,831.9144 263.7566,831.9144 Q261.2566,831.9144 259.9285,830.2738 Q258.616,828.6175 258.616,825.4925 Q258.616,822.3675 259.9285,820.7113 Q261.2566,819.055 263.7566,819.055 Q264.4597,819.055 265.1004,819.2113 Q265.7566,819.3675 266.3191,819.6644 L266.3191,822.3831 Q265.6941,821.805 265.1004,821.5394 Q264.5066,821.2581 263.8816,821.2581 Q262.5379,821.2581 261.8504,822.3363 Q261.1629,823.3988 261.1629,825.4925 Q261.1629,827.5863 261.8504,828.6644 Q262.5379,829.7269 263.8816,829.7269 Q264.5066,829.7269 265.1004,829.4613 Q265.6941,829.18 266.3191,828.6019 L266.3191,831.3206 Z " fill="#000000"/><text fill="#000000" font-family="sans-serif" font-size="14" lengthAdjust="spacing" textLength="63.5127" x="283.8504" y="830.5267">Pregunta</text><line style="stroke:#181818;stroke-width:0.5;" x1="219.24" x2="379.4734" y1="841.68" y2="841.68"/><rect fill="none" height="6" style="stroke:#C82930;stroke-width:1;" width="6" x="226.24" y="852.3284"/><text fill="#000000" font-family="sans-serif" font-size="14" lengthAdjust="spacing" textLength="74.7988" x="238.24" y="858.6751">asignatura</text><rect fill="none" height="6" style="stroke:#C82930;stroke-width:1;" width="6" x="226.24" y="868.6253"/><text fill="#000000" font-family="sans-serif" font-size="14" lengthAdjust="spacing" textLength="72.8506" x="238.24" y="874.972">enunciado</text><rect fill="none" height="6" style="stroke:#C82930;stroke-width:1;" width="6" x="226.24" y="884.9222"/><text fill="#000000" font-family="sans-serif" font-size="14" lengthAdjust="spacing" textLength="136.2334" x="238.24" y="891.2689">opciones respuesta</text><rect fill="none" height="6" style="stroke:#C82930;stroke-width:1;" width="6" x="226.24" y="901.2191"/><text fill="#000000" font-family="sans-serif" font-size="14" lengthAdjust="spacing" textLength="132.002" x="238.24" y="907.5657">respuesta correcta</text><rect fill="none" height="6" style="stroke:#C82930;stroke-width:1;" width="6" x="226.24" y="917.5159"/><text fill="#000000" font-family="sans-serif" font-size="14" lengthAdjust="spacing" textLength="65.0098" x="238.24" y="923.8626">dificultad</text><line style="stroke:#181818;stroke-width:0.5;" x1="219.24" x2="379.4734" y1="931.1644" y2="931.1644"/></g><!--class BateriaDePreguntas--><g class="entity" data-entity="BateriaDePreguntas" data-source-line="18" data-uid="ent0006" id="entity_BateriaDePreguntas"><rect fill="#F1F1F1" height="64.2969" rx="2.5" ry="2.5" style="stroke:#181818;stroke-width:0.5;" width="172.7109" x="7" y="668.38"/><ellipse cx="22" cy="684.38" fill="#ADD1B2" rx="11" ry="11" style="stroke:#181818;stroke-width:1;"/><path d="M24.9688,690.0206 Q24.3906,690.3175 23.75,690.4581 Q23.1094,690.6144 22.4063,690.6144 Q19.9063,690.6144 18.5781,688.9738 Q17.2656,687.3175 17.2656,684.1925 Q17.2656,681.0675 18.5781,679.4113 Q19.9063,677.755 22.4063,677.755 Q23.1094,677.755 23.75,677.9113 Q24.4063,678.0675 24.9688,678.3644 L24.9688,681.0831 Q24.3438,680.505 23.75,680.2394 Q23.1563,679.9581 22.5313,679.9581 Q21.1875,679.9581 20.5,681.0363 Q19.8125,682.0988 19.8125,684.1925 Q19.8125,686.2863 20.5,687.3644 Q21.1875,688.4269 22.5313,688.4269 Q23.1563,688.4269 23.75,688.1613 Q24.3438,687.88 24.9688,687.3019 L24.9688,690.0206 Z " fill="#000000"/><text fill="#000000" font-family="sans-serif" font-size="14" lengthAdjust="spacing" textLength="140.7109" x="36" y="689.2267">BateriaDePreguntas</text><line style="stroke:#181818;stroke-width:0.5;" x1="8" x2="178.7109" y1="700.38" y2="700.38"/><rect fill="none" height="6" style="stroke:#C82930;stroke-width:1;" width="6" x="15" y="711.0284"/><text fill="#000000" font-family="sans-serif" font-size="14" lengthAdjust="spacing" textLength="71.251" x="27" y="717.3751">preguntas</text><line style="stroke:#181818;stroke-width:0.5;" x1="8" x2="178.7109" y1="724.6769" y2="724.6769"/></g><!--class ModeloCorrecci?n--><g class="entity" data-entity="ModeloCorrecci.n" data-source-line="21" data-uid="ent0007" id="entity_ModeloCorrecci.n"><rect fill="#F1F1F1" height="64.2969" rx="2.5" ry="2.5" style="stroke:#181818;stroke-width:0.5;" width="157.7881" x="688.46" y="297.75"/><ellipse cx="703.46" cy="313.75" fill="#ADD1B2" rx="11" ry="11" style="stroke:#181818;stroke-width:1;"/><path d="M706.4288,319.3906 Q705.8506,319.6875 705.21,319.8281 Q704.5694,319.9844 703.8663,319.9844 Q701.3663,319.9844 700.0381,318.3438 Q698.7256,316.6875 698.7256,313.5625 Q698.7256,310.4375 700.0381,308.7813 Q701.3663,307.125 703.8663,307.125 Q704.5694,307.125 705.21,307.2813 Q705.8663,307.4375 706.4288,307.7344 L706.4288,310.4531 Q705.8038,309.875 705.21,309.6094 Q704.6163,309.3281 703.9913,309.3281 Q702.6475,309.3281 701.96,310.4063 Q701.2725,311.4688 701.2725,313.5625 Q701.2725,315.6563 701.96,316.7344 Q702.6475,317.7969 703.9913,317.7969 Q704.6163,317.7969 705.21,317.5313 Q705.8038,317.25 706.4288,316.6719 L706.4288,319.3906 Z " fill="#000000"/><text fill="#000000" font-family="sans-serif" font-size="14" lengthAdjust="spacing" textLength="125.7881" x="717.46" y="318.5967">ModeloCorrecci&#243;n</text><line style="stroke:#181818;stroke-width:0.5;" x1="689.46" x2="845.2481" y1="329.75" y2="329.75"/><rect fill="none" height="6" style="stroke:#C82930;stroke-width:1;" width="6" x="696.46" y="340.3984"/><text fill="#000000" font-family="sans-serif" font-size="14" lengthAdjust="spacing" textLength="73.5547" x="708.46" y="346.7451">soluciones</text><line style="stroke:#181818;stroke-width:0.5;" x1="689.46" x2="845.2481" y1="354.0469" y2="354.0469"/></g><!--class Grado--><g class="entity" data-entity="Grado" data-source-line="24" data-uid="ent0008" id="entity_Grado"><rect fill="#F1F1F1" height="80.5938" rx="2.5" ry="2.5" style="stroke:#181818;stroke-width:0.5;" width="74.6357" x="297.04" y="132"/><ellipse cx="312.04" cy="148" fill="#ADD1B2" rx="11" ry="11" style="stroke:#181818;stroke-width:1;"/><path d="M315.0088,153.6406 Q314.4306,153.9375 313.79,154.0781 Q313.1494,154.2344 312.4463,154.2344 Q309.9463,154.2344 308.6181,152.5938 Q307.3056,150.9375 307.3056,147.8125 Q307.3056,144.6875 308.6181,143.0313 Q309.9463,141.375 312.4463,141.375 Q313.1494,141.375 313.79,141.5313 Q314.4463,141.6875 315.0088,141.9844 L315.0088,144.7031 Q314.3838,144.125 313.79,143.8594 Q313.1963,143.5781 312.5713,143.5781 Q311.2275,143.5781 310.54,144.6563 Q309.8525,145.7188 309.8525,147.8125 Q309.8525,149.9063 310.54,150.9844 Q311.2275,152.0469 312.5713,152.0469 Q313.1963,152.0469 313.79,151.7813 Q314.3838,151.5 315.0088,150.9219 L315.0088,153.6406 Z " fill="#000000"/><text fill="#000000" font-family="sans-serif" font-size="14" lengthAdjust="spacing" textLength="42.6357" x="326.04" y="152.8467">Grado</text><line style="stroke:#181818;stroke-width:0.5;" x1="298.04" x2="370.6757" y1="164" y2="164"/><rect fill="none" height="6" style="stroke:#C82930;stroke-width:1;" width="6" x="305.04" y="174.6484"/><text fill="#000000" font-family="sans-serif" font-size="14" lengthAdjust="spacing" textLength="36.1963" x="317.04" y="180.9951">t&#237;tulo</text><rect fill="none" height="6" style="stroke:#C82930;stroke-width:1;" width="6" x="305.04" y="190.9453"/><text fill="#000000" font-family="sans-serif" font-size="14" lengthAdjust="spacing" textLength="46.4912" x="317.04" y="197.292">c&#243;digo</text><line style="stroke:#181818;stroke-width:0.5;" x1="298.04" x2="370.6757" y1="204.5938" y2="204.5938"/></g><!--class Universidad--><g class="entity" data-entity="Universidad" data-source-line="28" data-uid="ent0009" id="entity_Universidad"><rect fill="#F1F1F1" height="48" rx="2.5" ry="2.5" style="stroke:#181818;stroke-width:0.5;" width="115.2002" x="101.76" y="7"/><ellipse cx="116.76" cy="23" fill="#ADD1B2" rx="11" ry="11" style="stroke:#181818;stroke-width:1;"/><path d="M119.7288,28.6406 Q119.1506,28.9375 118.51,29.0781 Q117.8694,29.2344 117.1663,29.2344 Q114.6663,29.2344 113.3381,27.5938 Q112.0256,25.9375 112.0256,22.8125 Q112.0256,19.6875 113.3381,18.0313 Q114.6663,16.375 117.1663,16.375 Q117.8694,16.375 118.51,16.5313 Q119.1663,16.6875 119.7288,16.9844 L119.7288,19.7031 Q119.1038,19.125 118.51,18.8594 Q117.9163,18.5781 117.2913,18.5781 Q115.9475,18.5781 115.26,19.6563 Q114.5725,20.7188 114.5725,22.8125 Q114.5725,24.9063 115.26,25.9844 Q115.9475,27.0469 117.2913,27.0469 Q117.9163,27.0469 118.51,26.7813 Q119.1038,26.5 119.7288,25.9219 L119.7288,28.6406 Z " fill="#000000"/><text fill="#000000" font-family="sans-serif" font-size="14" lengthAdjust="spacing" textLength="83.2002" x="130.76" y="27.8467">Universidad</text><line style="stroke:#181818;stroke-width:0.5;" x1="102.76" x2="215.9602" y1="39" y2="39"/><line style="stroke:#181818;stroke-width:0.5;" x1="102.76" x2="215.9602" y1="47" y2="47"/></g><!--class Profesor--><g class="entity" data-entity="Profesor" data-source-line="29" data-uid="ent0010" id="entity_Profesor"><rect fill="#F1F1F1" height="96.8906" rx="2.5" ry="2.5" style="stroke:#181818;stroke-width:0.5;" width="89.9209" x="114.4" y="447.19"/><ellipse cx="129.4" cy="463.19" fill="#ADD1B2" rx="11" ry="11" style="stroke:#181818;stroke-width:1;"/><path d="M132.3688,468.8306 Q131.7906,469.1275 131.15,469.2681 Q130.5094,469.4244 129.8063,469.4244 Q127.3063,469.4244 125.9781,467.7837 Q124.6656,466.1275 124.6656,463.0025 Q124.6656,459.8775 125.9781,458.2212 Q127.3063,456.565 129.8063,456.565 Q130.5094,456.565 131.15,456.7212 Q131.8063,456.8775 132.3688,457.1744 L132.3688,459.8931 Q131.7438,459.315 131.15,459.0494 Q130.5563,458.7681 129.9313,458.7681 Q128.5875,458.7681 127.9,459.8462 Q127.2125,460.9087 127.2125,463.0025 Q127.2125,465.0962 127.9,466.1744 Q128.5875,467.2369 129.9313,467.2369 Q130.5563,467.2369 131.15,466.9712 Q131.7438,466.69 132.3688,466.1119 L132.3688,468.8306 Z " fill="#000000"/><text fill="#000000" font-family="sans-serif" font-size="14" lengthAdjust="spacing" textLength="57.9209" x="143.4" y="468.0367">Profesor</text><line style="stroke:#181818;stroke-width:0.5;" x1="115.4" x2="203.3209" y1="479.19" y2="479.19"/><rect fill="none" height="6" style="stroke:#C82930;stroke-width:1;" width="6" x="122.4" y="489.8384"/><text fill="#000000" font-family="sans-serif" font-size="14" lengthAdjust="spacing" textLength="54.332" x="134.4" y="496.1851">nombre</text><rect fill="none" height="6" style="stroke:#C82930;stroke-width:1;" width="6" x="122.4" y="506.1353"/><text fill="#000000" font-family="sans-serif" font-size="14" lengthAdjust="spacing" textLength="62.4941" x="134.4" y="512.482">apellidos</text><rect fill="none" height="6" style="stroke:#C82930;stroke-width:1;" width="6" x="122.4" y="522.4322"/><text fill="#000000" font-family="sans-serif" font-size="14" lengthAdjust="spacing" textLength="25.3818" x="134.4" y="528.7789">DNI</text><line style="stroke:#181818;stroke-width:0.5;" x1="115.4" x2="203.3209" y1="536.0806" y2="536.0806"/></g><!--class Alumno--><g class="entity" data-entity="Alumno" data-source-line="34" data-uid="ent0011" id="entity_Alumno"><rect fill="#F1F1F1" height="96.8906" rx="2.5" ry="2.5" style="stroke:#181818;stroke-width:0.5;" width="88.4941" x="440.11" y="447.19"/><ellipse cx="456.4952" cy="463.19" fill="#ADD1B2" rx="11" ry="11" style="stroke:#181818;stroke-width:1;"/><path d="M459.4639,468.8306 Q458.8858,469.1275 458.2452,469.2681 Q457.6045,469.4244 456.9014,469.4244 Q454.4014,469.4244 453.0733,467.7837 Q451.7608,466.1275 451.7608,463.0025 Q451.7608,459.8775 453.0733,458.2212 Q454.4014,456.565 456.9014,456.565 Q457.6045,456.565 458.2452,456.7212 Q458.9014,456.8775 459.4639,457.1744 L459.4639,459.8931 Q458.8389,459.315 458.2452,459.0494 Q457.6514,458.7681 457.0264,458.7681 Q455.6827,458.7681 454.9952,459.8462 Q454.3077,460.9087 454.3077,463.0025 Q454.3077,465.0962 454.9952,466.1744 Q455.6827,467.2369 457.0264,467.2369 Q457.6514,467.2369 458.2452,466.9712 Q458.8389,466.69 459.4639,466.1119 L459.4639,468.8306 Z " fill="#000000"/><text fill="#000000" font-family="sans-serif" font-size="14" lengthAdjust="spacing" textLength="53.416" x="470.803" y="468.0367">Alumno</text><line style="stroke:#181818;stroke-width:0.5;" x1="441.11" x2="527.6041" y1="479.19" y2="479.19"/><rect fill="none" height="6" style="stroke:#C82930;stroke-width:1;" width="6" x="448.11" y="489.8384"/><text fill="#000000" font-family="sans-serif" font-size="14" lengthAdjust="spacing" textLength="54.332" x="460.11" y="496.1851">nombre</text><rect fill="none" height="6" style="stroke:#C82930;stroke-width:1;" width="6" x="448.11" y="506.1353"/><text fill="#000000" font-family="sans-serif" font-size="14" lengthAdjust="spacing" textLength="62.4941" x="460.11" y="512.482">apellidos</text><rect fill="none" height="6" style="stroke:#C82930;stroke-width:1;" width="6" x="448.11" y="522.4322"/><text fill="#000000" font-family="sans-serif" font-size="14" lengthAdjust="spacing" textLength="25.3818" x="460.11" y="528.7789">DNI</text><line style="stroke:#181818;stroke-width:0.5;" x1="441.11" x2="527.6041" y1="536.0806" y2="536.0806"/></g><!--link Universidad to Grado--><g class="link" data-entity-1="Universidad" data-entity-2="Grado" data-source-line="40" data-uid="lnk12" id="link_Universidad_Grado"><path codeLine="40" d="M188.65,55.32 C218.32,78.94 254.9604,108.1077 287.3304,133.8677" fill="none" id="Universidad-to-Grado" style="stroke:#181818;stroke-width:1;"/><polygon fill="#181818" points="296.72,141.34,294.5159,134.474,287.3304,133.8677,289.5344,140.7337,296.72,141.34" style="stroke:#181818;stroke-width:1;"/><text fill="#000000" font-family="sans-serif" font-size="13" lengthAdjust="spacing" textLength="32.9443" x="248.36" y="98.0669">tiene</text></g><!--link Universidad to Profesor--><g class="link" data-entity-1="Universidad" data-entity-2="Profesor" data-source-line="41" data-uid="lnk13" id="link_Universidad_Profesor"><path codeLine="41" d="M159.36,55.26 C159.36,127.46 159.36,336.73 159.36,434.88" fill="none" id="Universidad-to-Profesor" style="stroke:#181818;stroke-width:1;"/><polygon fill="none" points="159.36,446.88,163.36,440.88,159.36,434.88,155.36,440.88,159.36,446.88" style="stroke:#181818;stroke-width:1;"/><text fill="#000000" font-family="sans-serif" font-size="13" lengthAdjust="spacing" textLength="32.9443" x="160.36" y="255.6669">tiene</text></g><!--reverse link Grado to Alumno--><g class="link" data-entity-1="Grado" data-entity-2="Alumno" data-source-line="42" data-uid="lnk14" id="link_Grado_Alumno"><path codeLine="42" d="M380.1725,215.4257 C390.4825,226.0857 392.6,229.82 400.36,242.6 C439.97,307.85 463.47,394.07 475.14,446.88" fill="none" id="Grado-backto-Alumno" style="stroke:#181818;stroke-width:1;"/><polygon fill="#181818" points="371.83,206.8,373.126,213.8937,380.1725,215.4257,378.8765,208.332,371.83,206.8" style="stroke:#181818;stroke-width:1;"/><text fill="#000000" font-family="sans-serif" font-size="13" lengthAdjust="spacing" textLength="61.6484" x="455.36" y="334.4569">matricula</text></g><!--link Grado to Asignatura--><g class="link" data-entity-1="Grado" data-entity-2="Asignatura" data-source-line="43" data-uid="lnk15" id="link_Grado_Asignatura"><path codeLine="43" d="M334.36,212.97 C334.36,236.38 334.36,253.9 334.36,277.3" fill="none" id="Grado-to-Asignatura" style="stroke:#181818;stroke-width:1;"/><polygon fill="none" points="334.36,289.3,338.36,283.3,334.36,277.3,330.36,283.3,334.36,289.3" style="stroke:#181818;stroke-width:1;"/><text fill="#000000" font-family="sans-serif" font-size="13" lengthAdjust="spacing" textLength="56.2847" x="335.36" y="255.6669">contiene</text></g><!--link Asignatura to Profesor--><g class="link" data-entity-1="Asignatura" data-entity-2="Profesor" data-source-line="44" data-uid="lnk16" id="link_Asignatura_Profesor"><path codeLine="44" d="M280.1,343.8 C248.23,354.05 209.58,371.55 185.36,400.19 C174.26,413.31 170.5082,419.0613 166.8382,435.4113" fill="none" id="Asignatura-to-Profesor" style="stroke:#181818;stroke-width:1;"/><polygon fill="none" points="164.21,447.12,169.427,442.1417,166.8382,435.4113,161.6212,440.3896,164.21,447.12" style="stroke:#181818;stroke-width:1;"/><text fill="#000000" font-family="sans-serif" font-size="13" lengthAdjust="spacing" textLength="96.0908" x="186.36" y="413.2569">tiene asignado</text></g><!--reverse link Asignatura to Alumno--><g class="link" data-entity-1="Asignatura" data-entity-2="Alumno" data-source-line="45" data-uid="lnk17" id="link_Asignatura_Alumno"><path codeLine="45" d="M378.7759,379.3784 C399.8459,402.3784 418.41,422.65 440.63,446.91" fill="none" id="Asignatura-backto-Alumno" style="stroke:#181818;stroke-width:1;"/><polygon fill="#181818" points="370.67,370.53,371.7735,377.6562,378.7759,379.3784,377.6724,372.2522,370.67,370.53" style="stroke:#181818;stroke-width:1;"/><text fill="#000000" font-family="sans-serif" font-size="13" lengthAdjust="spacing" textLength="35.4707" x="410.36" y="413.2569">cursa</text></g><!--reverse link Examen to Asignatura--><g class="link" data-entity-1="Examen" data-entity-2="Asignatura" data-source-line="46" data-uid="lnk18" id="link_Examen_Asignatura"><path codeLine="46" d="M625.0489,200.7689 C559.0789,229.8389 456.02,275.27 388.65,304.96" fill="none" id="Examen-backto-Asignatura" style="stroke:#181818;stroke-width:1;"/><polygon fill="#181818" points="636.03,195.93,628.9265,194.6891,625.0489,200.7689,632.1524,202.0098,636.03,195.93" style="stroke:#181818;stroke-width:1;"/><text fill="#000000" font-family="sans-serif" font-size="13" lengthAdjust="spacing" textLength="32.9443" x="523.36" y="255.6669">tiene</text></g><!--link Examen to Pregunta--><g class="link" data-entity-1="Examen" data-entity-2="Pregunta" data-source-line="47" data-uid="lnk19" id="link_Examen_Pregunta"><path codeLine="47" d="M738.67,186.51 C801.42,206.12 899.36,249.46 899.36,328.89 C899.36,328.89 899.36,328.89 899.36,701.53 C899.36,808.12 556.9015,851.3225 392.8515,866.1125" fill="none" id="Examen-to-Pregunta" style="stroke:#181818;stroke-width:1;"/><polygon fill="#181818" points="380.9,867.19,387.2349,870.6351,392.8515,866.1125,386.5166,862.6674,380.9,867.19" style="stroke:#181818;stroke-width:1;"/><text fill="#000000" font-family="sans-serif" font-size="13" lengthAdjust="spacing" textLength="56.2847" x="900.36" y="500.2069">contiene</text></g><!--link Asignatura to Tema--><g class="link" data-entity-1="Asignatura" data-entity-2="Tema" data-source-line="48" data-uid="lnk20" id="link_Asignatura_Tema"><path codeLine="48" d="M334.78,370.42 C334.94,385.11 335.15,401.91 335.36,417.19 C336.11,472.2 336.9645,524.2618 337.6045,561.6218" fill="none" id="Asignatura-to-Tema" style="stroke:#181818;stroke-width:1;"/><polygon fill="#181818" points="337.81,573.62,341.7066,567.5524,337.6045,561.6218,333.7078,567.6894,337.81,573.62" style="stroke:#181818;stroke-width:1;"/><text fill="#000000" font-family="sans-serif" font-size="13" lengthAdjust="spacing" textLength="56.2847" x="336.36" y="413.2569">contiene</text></g><!--reverse link Tema to Pregunta--><g class="link" data-entity-1="Tema" data-entity-2="Pregunta" data-source-line="49" data-uid="lnk21" id="link_Tema_Pregunta"><path codeLine="49" d="M331.9888,650.683 C325.8588,692.483 316.66,755.29 308.77,809.18" fill="none" id="Tema-backto-Pregunta" style="stroke:#181818;stroke-width:1;"/><polygon fill="#181818" points="333.73,638.81,328.9017,644.1661,331.9888,650.683,336.8171,645.3269,333.73,638.81" style="stroke:#181818;stroke-width:1;"/><text fill="#000000" font-family="sans-serif" font-size="13" lengthAdjust="spacing" textLength="77.2954" x="330.36" y="705.0969">forma parte</text></g><!--link Alumno to Examen--><g class="link" data-entity-1="Alumno" data-entity-2="Examen" data-source-line="50" data-uid="lnk22" id="link_Alumno_Examen"><path codeLine="50" d="M514.58,446.79 C556.7,380.13 625.4511,271.2953 661.1111,214.8453" fill="none" id="Alumno-to-Examen" style="stroke:#181818;stroke-width:1;"/><polygon fill="none" points="667.52,204.7,660.9338,207.6363,661.1111,214.8453,667.6973,211.9089,667.52,204.7" style="stroke:#181818;stroke-width:1;"/><text fill="#000000" font-family="sans-serif" font-size="13" lengthAdjust="spacing" textLength="43.3228" x="614.36" y="334.4569">realiza</text></g><!--reverse link BateriaDePreguntas to Pregunta--><g class="link" data-entity-1="BateriaDePreguntas" data-entity-2="Pregunta" data-source-line="51" data-uid="lnk23" id="link_BateriaDePreguntas_Pregunta"><path codeLine="51" d="M115.4299,743.2008 C124.3199,758.5308 130.37,766.17 144.36,779.68 C165.84,800.44 192.72,818.7 218.04,833.46" fill="none" id="BateriaDePreguntas-backto-Pregunta" style="stroke:#181818;stroke-width:1;"/><polygon fill="#181818" points="109.41,732.82,108.9597,740.017,115.4299,743.2008,115.8802,736.0038,109.41,732.82" style="stroke:#181818;stroke-width:1;"/><text fill="#000000" font-family="sans-serif" font-size="13" lengthAdjust="spacing" textLength="77.2954" x="145.36" y="775.7469">forma parte</text></g><!--link Examen to ModeloCorrecci?n--><g class="link" data-entity-1="Examen" data-entity-2="ModeloCorrecci.n" data-source-line="52" data-uid="lnk24" id="link_Examen_ModeloCorrecci.n"><path codeLine="52" d="M703.54,204.79 C717.42,231.78 731.8335,259.7977 745.7035,286.7777" fill="none" id="Examen-to-ModeloCorrecci&#243;n" style="stroke:#181818;stroke-width:1;"/><polygon fill="#181818" points="751.19,297.45,752.0042,290.285,745.7035,286.7777,744.8893,293.9427,751.19,297.45" style="stroke:#181818;stroke-width:1;"/><text fill="#000000" font-family="sans-serif" font-size="13" lengthAdjust="spacing" textLength="32.9443" x="730.36" y="255.6669">tiene</text></g><!--link Profesor to BateriaDePreguntas--><g class="link" data-entity-1="Profesor" data-entity-2="BateriaDePreguntas" data-source-line="53" data-uid="lnk25" id="link_Profesor_BateriaDePreguntas"><path codeLine="53" d="M143.8,544.46 C131.37,582.65 118.0328,623.6688 107.2828,656.7088" fill="none" id="Profesor-to-BateriaDePreguntas" style="stroke:#181818;stroke-width:1;"/><polygon fill="#181818" points="103.57,668.12,109.2301,663.652,107.2828,656.7088,101.6227,661.1768,103.57,668.12" style="stroke:#181818;stroke-width:1;"/><text fill="#000000" font-family="sans-serif" font-size="13" lengthAdjust="spacing" textLength="32.9443" x="133.36" y="610.7969">tiene</text></g><!--link Profesor to Pregunta--><g class="link" data-entity-1="Profesor" data-entity-2="Pregunta" data-source-line="54" data-uid="lnk26" id="link_Profesor_Pregunta"><path codeLine="54" d="M177.09,544.36 C202.07,611.58 243.5,723.0915 271.4,798.1715" fill="none" id="Profesor-to-Pregunta" style="stroke:#181818;stroke-width:1;"/><polygon fill="none" points="275.58,809.42,277.2395,802.4024,271.4,798.1715,269.7405,805.1891,275.58,809.42" style="stroke:#181818;stroke-width:1;"/><text fill="#000000" font-family="sans-serif" font-size="13" lengthAdjust="spacing" textLength="28.4565" x="247.36" y="705.0969">crea</text></g><!--SRC=[XL9BJWCn3DtFARAkD1Ve3YX2B40ioW5CubQHCl78IIe4uaYiUeHUZ7ncqfGMkelpdlsUFzA0S-B-7GQqdvte1Ux0193wiBVTLoSpVEFqre8F39dY3zy-64fFUTWhlQNANEDmofc15yPjiBw0KEjbHHkirA1oGHgb9ejECBeneFEPKWCXYHbb-LLwesKm7bILkGMFh665ivxBWkCSLU8JAJHqbwlbPZFFaGb5ln8VE3gxrlQhrJjafrMqClTB6tJ4ETFIyCQOEn_H6At8fM3r_7WSiGc3fUlihf4IVRye_iHIU8qMVw5KRLH2eI_wVbACm02UqnnX0bFUSUEH8CcMvERtKl5fht6H3V54IWPsq9LhAqYhKqGcDFKsB_5F3ujyS2sSurIvoTqGnyyHsCVqOYNPduIMyRh0w0_epe_dlqgDpxDZgitK4INQXVeNU7JITlJs0m00]--></g></svg>