<svg xmlns="http://www.w3.org/2000/svg" xmlns:xlink="http://www.w3.org/1999/xlink" contentStyleType="text/css" data-diagram-type="CLASS" height="788px" preserveAspectRatio="none" style="width:1006px;height:788px;background:#FFFFFF;" version="1.1" viewBox="0 0 1006 788" width="1006px" zoomAndPan="magnify"><defs/><g><!--class Examen--><g class="entity" data-entity="Examen" data-source-line="1" data-uid="ent0002" id="entity_Examen"><rect fill="#F1F1F1" height="80.5938" rx="2.5" ry="2.5" style="stroke:#181818;stroke-width:0.5;" width="140.625" x="669.38" y="7"/><ellipse cx="707.686" cy="23" fill="#ADD1B2" rx="11" ry="11" style="stroke:#181818;stroke-width:1;"/><path d="M710.6547,28.6406 Q710.0766,28.9375 709.436,29.0781 Q708.7953,29.2344 708.0922,29.2344 Q705.5922,29.2344 704.2641,27.5938 Q702.9516,25.9375 702.9516,22.8125 Q702.9516,19.6875 704.2641,18.0313 Q705.5922,16.375 708.0922,16.375 Q708.7953,16.375 709.436,16.5313 Q710.0922,16.6875 710.6547,16.9844 L710.6547,19.7031 Q710.0297,19.125 709.436,18.8594 Q708.8422,18.5781 708.2172,18.5781 Q706.8735,18.5781 706.186,19.6563 Q705.4985,20.7188 705.4985,22.8125 Q705.4985,24.9063 706.186,25.9844 Q706.8735,27.0469 708.2172,27.0469 Q708.8422,27.0469 709.436,26.7813 Q710.0297,26.5 710.6547,25.9219 L710.6547,28.6406 Z " fill="#000000"/><text fill="#000000" font-family="sans-serif" font-size="14" lengthAdjust="spacing" textLength="56.834" x="726.8651" y="27.8467">Examen</text><line style="stroke:#181818;stroke-width:0.5;" x1="670.38" x2="809.005" y1="39" y2="39"/><rect fill="none" height="6" style="stroke:#C82930;stroke-width:1;" width="6" x="677.38" y="49.6484"/><text fill="#000000" font-family="sans-serif" font-size="14" lengthAdjust="spacing" textLength="75.8447" x="689.38" y="55.9951">evaluaci&#243;n</text><rect fill="none" height="6" style="stroke:#C82930;stroke-width:1;" width="6" x="677.38" y="65.9453"/><text fill="#000000" font-family="sans-serif" font-size="14" lengthAdjust="spacing" textLength="114.625" x="689.38" y="72.292">clave correcci&#243;n</text><line style="stroke:#181818;stroke-width:0.5;" x1="670.38" x2="809.005" y1="79.5938" y2="79.5938"/></g><!--class AsignaturaGrado--><g class="entity" data-entity="AsignaturaGrado" data-source-line="5" data-uid="ent0003" id="entity_AsignaturaGrado"><rect fill="#F1F1F1" height="48" rx="2.5" ry="2.5" style="stroke:#181818;stroke-width:0.5;" width="150.4326" x="291.47" y="346.63"/><ellipse cx="306.47" cy="362.63" fill="#ADD1B2" rx="11" ry="11" style="stroke:#181818;stroke-width:1;"/><path d="M309.4388,368.2706 Q308.8606,368.5675 308.22,368.7081 Q307.5794,368.8644 306.8763,368.8644 Q304.3763,368.8644 303.0481,367.2237 Q301.7356,365.5675 301.7356,362.4425 Q301.7356,359.3175 303.0481,357.6612 Q304.3763,356.005 306.8763,356.005 Q307.5794,356.005 308.22,356.1612 Q308.8763,356.3175 309.4388,356.6144 L309.4388,359.3331 Q308.8138,358.755 308.22,358.4894 Q307.6263,358.2081 307.0013,358.2081 Q305.6575,358.2081 304.97,359.2862 Q304.2825,360.3487 304.2825,362.4425 Q304.2825,364.5362 304.97,365.6144 Q305.6575,366.6769 307.0013,366.6769 Q307.6263,366.6769 308.22,366.4112 Q308.8138,366.13 309.4388,365.5519 L309.4388,368.2706 Z " fill="#000000"/><text fill="#000000" font-family="sans-serif" font-size="14" lengthAdjust="spacing" textLength="118.4326" x="320.47" y="367.4767">AsignaturaGrado</text><line style="stroke:#181818;stroke-width:0.5;" x1="292.47" x2="440.9026" y1="378.63" y2="378.63"/><line style="stroke:#181818;stroke-width:0.5;" x1="292.47" x2="440.9026" y1="386.63" y2="386.63"/></g><!--class Asignatura--><g class="entity" data-entity="Asignatura" data-source-line="7" data-uid="ent0004" id="entity_Asignatura"><rect fill="#F1F1F1" height="80.5938" rx="2.5" ry="2.5" style="stroke:#181818;stroke-width:0.5;" width="107.7969" x="224.79" y="164.59"/><ellipse cx="239.79" cy="180.59" fill="#ADD1B2" rx="11" ry="11" style="stroke:#181818;stroke-width:1;"/><path d="M242.7588,186.2306 Q242.1806,186.5275 241.54,186.6681 Q240.8994,186.8244 240.1963,186.8244 Q237.6963,186.8244 236.3681,185.1837 Q235.0556,183.5275 235.0556,180.4025 Q235.0556,177.2775 236.3681,175.6212 Q237.6963,173.965 240.1963,173.965 Q240.8994,173.965 241.54,174.1212 Q242.1963,174.2775 242.7588,174.5744 L242.7588,177.2931 Q242.1338,176.715 241.54,176.4494 Q240.9463,176.1681 240.3213,176.1681 Q238.9775,176.1681 238.29,177.2462 Q237.6025,178.3087 237.6025,180.4025 Q237.6025,182.4962 238.29,183.5744 Q238.9775,184.6369 240.3213,184.6369 Q240.9463,184.6369 241.54,184.3712 Q242.1338,184.09 242.7588,183.5119 L242.7588,186.2306 Z " fill="#000000"/><text fill="#000000" font-family="sans-serif" font-size="14" lengthAdjust="spacing" textLength="75.7969" x="253.79" y="185.4367">Asignatura</text><line style="stroke:#181818;stroke-width:0.5;" x1="225.79" x2="331.5869" y1="196.59" y2="196.59"/><rect fill="none" height="6" style="stroke:#C82930;stroke-width:1;" width="6" x="232.79" y="207.2384"/><text fill="#000000" font-family="sans-serif" font-size="14" lengthAdjust="spacing" textLength="36.1963" x="244.79" y="213.5851">t&#237;tulo</text><rect fill="none" height="6" style="stroke:#C82930;stroke-width:1;" width="6" x="232.79" y="223.5353"/><text fill="#000000" font-family="sans-serif" font-size="14" lengthAdjust="spacing" textLength="46.4912" x="244.79" y="229.882">c&#243;digo</text><line style="stroke:#181818;stroke-width:0.5;" x1="225.79" x2="331.5869" y1="237.1837" y2="237.1837"/></g><!--class Tema--><g class="entity" data-entity="Tema" data-source-line="11" data-uid="ent0005" id="entity_Tema"><rect fill="#F1F1F1" height="64.2969" rx="2.5" ry="2.5" style="stroke:#181818;stroke-width:0.5;" width="71.3818" x="7" y="449.08"/><ellipse cx="22" cy="465.08" fill="#ADD1B2" rx="11" ry="11" style="stroke:#181818;stroke-width:1;"/><path d="M24.9688,470.7206 Q24.3906,471.0175 23.75,471.1581 Q23.1094,471.3144 22.4063,471.3144 Q19.9063,471.3144 18.5781,469.6737 Q17.2656,468.0175 17.2656,464.8925 Q17.2656,461.7675 18.5781,460.1112 Q19.9063,458.455 22.4063,458.455 Q23.1094,458.455 23.75,458.6112 Q24.4063,458.7675 24.9688,459.0644 L24.9688,461.7831 Q24.3438,461.205 23.75,460.9394 Q23.1563,460.6581 22.5313,460.6581 Q21.1875,460.6581 20.5,461.7362 Q19.8125,462.7987 19.8125,464.8925 Q19.8125,466.9862 20.5,468.0644 Q21.1875,469.1269 22.5313,469.1269 Q23.1563,469.1269 23.75,468.8612 Q24.3438,468.58 24.9688,468.0019 L24.9688,470.7206 Z " fill="#000000"/><text fill="#000000" font-family="sans-serif" font-size="14" lengthAdjust="spacing" textLength="39.3818" x="36" y="469.9267">Tema</text><line style="stroke:#181818;stroke-width:0.5;" x1="8" x2="77.3818" y1="481.08" y2="481.08"/><rect fill="none" height="6" style="stroke:#C82930;stroke-width:1;" width="6" x="15" y="491.7284"/><text fill="#000000" font-family="sans-serif" font-size="14" lengthAdjust="spacing" textLength="36.1963" x="27" y="498.0751">t&#237;tulo</text><line style="stroke:#181818;stroke-width:0.5;" x1="8" x2="77.3818" y1="505.3769" y2="505.3769"/></g><!--class Pregunta--><g class="entity" data-entity="Pregunta" data-source-line="14" data-uid="ent0006" id="entity_Pregunta"><rect fill="#F1F1F1" height="113.1875" rx="2.5" ry="2.5" style="stroke:#181818;stroke-width:0.5;" width="162.2334" x="140.57" y="668.37"/><ellipse cx="185.6804" cy="684.37" fill="#ADD1B2" rx="11" ry="11" style="stroke:#181818;stroke-width:1;"/><path d="M188.6491,690.0106 Q188.071,690.3075 187.4304,690.4481 Q186.7897,690.6044 186.0866,690.6044 Q183.5866,690.6044 182.2585,688.9637 Q180.946,687.3075 180.946,684.1825 Q180.946,681.0575 182.2585,679.4012 Q183.5866,677.745 186.0866,677.745 Q186.7897,677.745 187.4304,677.9012 Q188.0866,678.0575 188.6491,678.3544 L188.6491,681.0731 Q188.0241,680.495 187.4304,680.2294 Q186.8366,679.9481 186.2116,679.9481 Q184.8679,679.9481 184.1804,681.0262 Q183.4929,682.0887 183.4929,684.1825 Q183.4929,686.2762 184.1804,687.3544 Q184.8679,688.4169 186.2116,688.4169 Q186.8366,688.4169 187.4304,688.1512 Q188.0241,687.87 188.6491,687.2919 L188.6491,690.0106 Z " fill="#000000"/><text fill="#000000" font-family="sans-serif" font-size="14" lengthAdjust="spacing" textLength="63.5127" x="206.1804" y="689.2167">Pregunta</text><line style="stroke:#181818;stroke-width:0.5;" x1="141.57" x2="301.8034" y1="700.37" y2="700.37"/><rect fill="none" height="6" style="stroke:#C82930;stroke-width:1;" width="6" x="148.57" y="711.0184"/><text fill="#000000" font-family="sans-serif" font-size="14" lengthAdjust="spacing" textLength="72.8506" x="160.57" y="717.3651">enunciado</text><rect fill="none" height="6" style="stroke:#C82930;stroke-width:1;" width="6" x="148.57" y="727.3153"/><text fill="#000000" font-family="sans-serif" font-size="14" lengthAdjust="spacing" textLength="136.2334" x="160.57" y="733.662">opciones respuesta</text><rect fill="none" height="6" style="stroke:#C82930;stroke-width:1;" width="6" x="148.57" y="743.6122"/><text fill="#000000" font-family="sans-serif" font-size="14" lengthAdjust="spacing" textLength="132.002" x="160.57" y="749.9589">respuesta correcta</text><rect fill="none" height="6" style="stroke:#C82930;stroke-width:1;" width="6" x="148.57" y="759.9091"/><text fill="#000000" font-family="sans-serif" font-size="14" lengthAdjust="spacing" textLength="65.0098" x="160.57" y="766.2557">dificultad</text><line style="stroke:#181818;stroke-width:0.5;" x1="141.57" x2="301.8034" y1="773.5575" y2="773.5575"/></g><!--class BateriaDePreguntas--><g class="entity" data-entity="BateriaDePreguntas" data-source-line="20" data-uid="ent0007" id="entity_BateriaDePreguntas"><rect fill="#F1F1F1" height="48" rx="2.5" ry="2.5" style="stroke:#181818;stroke-width:0.5;" width="172.7109" x="211.34" y="543.37"/><ellipse cx="226.34" cy="559.37" fill="#ADD1B2" rx="11" ry="11" style="stroke:#181818;stroke-width:1;"/><path d="M229.3088,565.0106 Q228.7306,565.3075 228.09,565.4481 Q227.4494,565.6044 226.7463,565.6044 Q224.2463,565.6044 222.9181,563.9637 Q221.6056,562.3075 221.6056,559.1825 Q221.6056,556.0575 222.9181,554.4012 Q224.2463,552.745 226.7463,552.745 Q227.4494,552.745 228.09,552.9012 Q228.7463,553.0575 229.3088,553.3544 L229.3088,556.0731 Q228.6838,555.495 228.09,555.2294 Q227.4963,554.9481 226.8713,554.9481 Q225.5275,554.9481 224.84,556.0262 Q224.1525,557.0887 224.1525,559.1825 Q224.1525,561.2762 224.84,562.3544 Q225.5275,563.4169 226.8713,563.4169 Q227.4963,563.4169 228.09,563.1512 Q228.6838,562.87 229.3088,562.2919 L229.3088,565.0106 Z " fill="#000000"/><text fill="#000000" font-family="sans-serif" font-size="14" lengthAdjust="spacing" textLength="140.7109" x="240.34" y="564.2167">BateriaDePreguntas</text><line style="stroke:#181818;stroke-width:0.5;" x1="212.34" x2="383.0509" y1="575.37" y2="575.37"/><line style="stroke:#181818;stroke-width:0.5;" x1="212.34" x2="383.0509" y1="583.37" y2="583.37"/></g><!--class ModeloCorrecci?n--><g class="entity" data-entity="ModeloCorrecci.n" data-source-line="22" data-uid="ent0008" id="entity_ModeloCorrecci.n"><rect fill="#F1F1F1" height="64.2969" rx="2.5" ry="2.5" style="stroke:#181818;stroke-width:0.5;" width="157.7881" x="841.8" y="172.74"/><ellipse cx="856.8" cy="188.74" fill="#ADD1B2" rx="11" ry="11" style="stroke:#181818;stroke-width:1;"/><path d="M859.7688,194.3806 Q859.1906,194.6775 858.55,194.8181 Q857.9094,194.9744 857.2063,194.9744 Q854.7063,194.9744 853.3781,193.3337 Q852.0656,191.6775 852.0656,188.5525 Q852.0656,185.4275 853.3781,183.7712 Q854.7063,182.115 857.2063,182.115 Q857.9094,182.115 858.55,182.2712 Q859.2063,182.4275 859.7688,182.7244 L859.7688,185.4431 Q859.1438,184.865 858.55,184.5994 Q857.9563,184.3181 857.3313,184.3181 Q855.9875,184.3181 855.3,185.3962 Q854.6125,186.4587 854.6125,188.5525 Q854.6125,190.6462 855.3,191.7244 Q855.9875,192.7869 857.3313,192.7869 Q857.9563,192.7869 858.55,192.5212 Q859.1438,192.24 859.7688,191.6619 L859.7688,194.3806 Z " fill="#000000"/><text fill="#000000" font-family="sans-serif" font-size="14" lengthAdjust="spacing" textLength="125.7881" x="870.8" y="193.5867">ModeloCorrecci&#243;n</text><line style="stroke:#181818;stroke-width:0.5;" x1="842.8" x2="998.5881" y1="204.74" y2="204.74"/><rect fill="none" height="6" style="stroke:#C82930;stroke-width:1;" width="6" x="849.8" y="215.3884"/><text fill="#000000" font-family="sans-serif" font-size="14" lengthAdjust="spacing" textLength="73.5547" x="861.8" y="221.7351">soluciones</text><line style="stroke:#181818;stroke-width:0.5;" x1="842.8" x2="998.5881" y1="229.0369" y2="229.0369"/></g><!--class Grado--><g class="entity" data-entity="Grado" data-source-line="25" data-uid="ent0009" id="entity_Grado"><rect fill="#F1F1F1" height="80.5938" rx="2.5" ry="2.5" style="stroke:#181818;stroke-width:0.5;" width="74.6357" x="498.37" y="164.59"/><ellipse cx="513.37" cy="180.59" fill="#ADD1B2" rx="11" ry="11" style="stroke:#181818;stroke-width:1;"/><path d="M516.3388,186.2306 Q515.7606,186.5275 515.12,186.6681 Q514.4794,186.8244 513.7763,186.8244 Q511.2763,186.8244 509.9481,185.1837 Q508.6356,183.5275 508.6356,180.4025 Q508.6356,177.2775 509.9481,175.6212 Q511.2763,173.965 513.7763,173.965 Q514.4794,173.965 515.12,174.1212 Q515.7763,174.2775 516.3388,174.5744 L516.3388,177.2931 Q515.7138,176.715 515.12,176.4494 Q514.5263,176.1681 513.9013,176.1681 Q512.5575,176.1681 511.87,177.2462 Q511.1825,178.3087 511.1825,180.4025 Q511.1825,182.4962 511.87,183.5744 Q512.5575,184.6369 513.9013,184.6369 Q514.5263,184.6369 515.12,184.3712 Q515.7138,184.09 516.3388,183.5119 L516.3388,186.2306 Z " fill="#000000"/><text fill="#000000" font-family="sans-serif" font-size="14" lengthAdjust="spacing" textLength="42.6357" x="527.37" y="185.4367">Grado</text><line style="stroke:#181818;stroke-width:0.5;" x1="499.37" x2="572.0057" y1="196.59" y2="196.59"/><rect fill="none" height="6" style="stroke:#C82930;stroke-width:1;" width="6" x="506.37" y="207.2384"/><text fill="#000000" font-family="sans-serif" font-size="14" lengthAdjust="spacing" textLength="36.1963" x="518.37" y="213.5851">t&#237;tulo</text><rect fill="none" height="6" style="stroke:#C82930;stroke-width:1;" width="6" x="506.37" y="223.5353"/><text fill="#000000" font-family="sans-serif" font-size="14" lengthAdjust="spacing" textLength="46.4912" x="518.37" y="229.882">c&#243;digo</text><line style="stroke:#181818;stroke-width:0.5;" x1="499.37" x2="572.0057" y1="237.1837" y2="237.1837"/></g><!--class Profesor--><g class="entity" data-entity="Profesor" data-source-line="29" data-uid="ent0010" id="entity_Profesor"><rect fill="#F1F1F1" height="96.8906" rx="2.5" ry="2.5" style="stroke:#181818;stroke-width:0.5;" width="89.9209" x="101.73" y="322.18"/><ellipse cx="116.73" cy="338.18" fill="#ADD1B2" rx="11" ry="11" style="stroke:#181818;stroke-width:1;"/><path d="M119.6988,343.8206 Q119.1206,344.1175 118.48,344.2581 Q117.8394,344.4144 117.1363,344.4144 Q114.6363,344.4144 113.3081,342.7737 Q111.9956,341.1175 111.9956,337.9925 Q111.9956,334.8675 113.3081,333.2112 Q114.6363,331.555 117.1363,331.555 Q117.8394,331.555 118.48,331.7112 Q119.1363,331.8675 119.6988,332.1644 L119.6988,334.8831 Q119.0738,334.305 118.48,334.0394 Q117.8863,333.7581 117.2613,333.7581 Q115.9175,333.7581 115.23,334.8362 Q114.5425,335.8987 114.5425,337.9925 Q114.5425,340.0862 115.23,341.1644 Q115.9175,342.2269 117.2613,342.2269 Q117.8863,342.2269 118.48,341.9612 Q119.0738,341.68 119.6988,341.1019 L119.6988,343.8206 Z " fill="#000000"/><text fill="#000000" font-family="sans-serif" font-size="14" lengthAdjust="spacing" textLength="57.9209" x="130.73" y="343.0267">Profesor</text><line style="stroke:#181818;stroke-width:0.5;" x1="102.73" x2="190.6509" y1="354.18" y2="354.18"/><rect fill="none" height="6" style="stroke:#C82930;stroke-width:1;" width="6" x="109.73" y="364.8284"/><text fill="#000000" font-family="sans-serif" font-size="14" lengthAdjust="spacing" textLength="54.332" x="121.73" y="371.1751">nombre</text><rect fill="none" height="6" style="stroke:#C82930;stroke-width:1;" width="6" x="109.73" y="381.1253"/><text fill="#000000" font-family="sans-serif" font-size="14" lengthAdjust="spacing" textLength="62.4941" x="121.73" y="387.472">apellidos</text><rect fill="none" height="6" style="stroke:#C82930;stroke-width:1;" width="6" x="109.73" y="397.4222"/><text fill="#000000" font-family="sans-serif" font-size="14" lengthAdjust="spacing" textLength="25.3818" x="121.73" y="403.7689">DNI</text><line style="stroke:#181818;stroke-width:0.5;" x1="102.73" x2="190.6509" y1="411.0706" y2="411.0706"/></g><!--class Alumno--><g class="entity" data-entity="Alumno" data-source-line="34" data-uid="ent0011" id="entity_Alumno"><rect fill="#F1F1F1" height="96.8906" rx="2.5" ry="2.5" style="stroke:#181818;stroke-width:0.5;" width="88.4941" x="541.44" y="322.18"/><ellipse cx="557.8252" cy="338.18" fill="#ADD1B2" rx="11" ry="11" style="stroke:#181818;stroke-width:1;"/><path d="M560.7939,343.8206 Q560.2158,344.1175 559.5752,344.2581 Q558.9345,344.4144 558.2314,344.4144 Q555.7314,344.4144 554.4033,342.7737 Q553.0908,341.1175 553.0908,337.9925 Q553.0908,334.8675 554.4033,333.2112 Q555.7314,331.555 558.2314,331.555 Q558.9345,331.555 559.5752,331.7112 Q560.2314,331.8675 560.7939,332.1644 L560.7939,334.8831 Q560.1689,334.305 559.5752,334.0394 Q558.9814,333.7581 558.3564,333.7581 Q557.0127,333.7581 556.3252,334.8362 Q555.6377,335.8987 555.6377,337.9925 Q555.6377,340.0862 556.3252,341.1644 Q557.0127,342.2269 558.3564,342.2269 Q558.9814,342.2269 559.5752,341.9612 Q560.1689,341.68 560.7939,341.1019 L560.7939,343.8206 Z " fill="#000000"/><text fill="#000000" font-family="sans-serif" font-size="14" lengthAdjust="spacing" textLength="53.416" x="572.133" y="343.0267">Alumno</text><line style="stroke:#181818;stroke-width:0.5;" x1="542.44" x2="628.9341" y1="354.18" y2="354.18"/><rect fill="none" height="6" style="stroke:#C82930;stroke-width:1;" width="6" x="549.44" y="364.8284"/><text fill="#000000" font-family="sans-serif" font-size="14" lengthAdjust="spacing" textLength="54.332" x="561.44" y="371.1751">nombre</text><rect fill="none" height="6" style="stroke:#C82930;stroke-width:1;" width="6" x="549.44" y="381.1253"/><text fill="#000000" font-family="sans-serif" font-size="14" lengthAdjust="spacing" textLength="62.4941" x="561.44" y="387.472">apellidos</text><rect fill="none" height="6" style="stroke:#C82930;stroke-width:1;" width="6" x="549.44" y="397.4222"/><text fill="#000000" font-family="sans-serif" font-size="14" lengthAdjust="spacing" textLength="25.3818" x="561.44" y="403.7689">DNI</text><line style="stroke:#181818;stroke-width:0.5;" x1="542.44" x2="628.9341" y1="411.0706" y2="411.0706"/></g><!--reverse link Grado to Alumno--><g class="link" data-entity-1="Grado" data-entity-2="Alumno" data-source-line="40" data-uid="lnk12" id="link_Grado_Alumno"><path codeLine="40" d="M551.2976,257.0059 C558.3276,280.0059 563.71,297.65 571.12,321.9" fill="none" id="Grado-backto-Alumno" style="stroke:#181818;stroke-width:1;"/><polygon fill="#181818" points="547.79,245.53,545.7185,252.4372,551.2976,257.0059,553.3691,250.0987,547.79,245.53" style="stroke:#181818;stroke-width:1;"/><text fill="#000000" font-family="sans-serif" font-size="13" lengthAdjust="spacing" textLength="80.5518" x="561.69" y="288.2469">se matricula</text></g><!--link Grado to AsignaturaGrado--><g class="link" data-entity-1="Grado" data-entity-2="AsignaturaGrado" data-source-line="41" data-uid="lnk13" id="link_Grado_AsignaturaGrado"><path codeLine="41" d="M498.2,243.47 C482.93,258.68 465.05,276.35 448.69,292.18 C429.7,310.57 416.687,322.8954 400.357,338.1954" fill="none" id="Grado-to-AsignaturaGrado" style="stroke:#181818;stroke-width:1;"/><polygon fill="#181818" points="391.6,346.4,398.7133,345.2167,400.357,338.1954,393.2436,339.3787,391.6,346.4" style="stroke:#181818;stroke-width:1;"/><text fill="#000000" font-family="sans-serif" font-size="13" lengthAdjust="spacing" textLength="56.2847" x="466.69" y="288.2469">contiene</text></g><!--link Asignatura to AsignaturaGrado--><g class="link" data-entity-1="Asignatura" data-entity-2="AsignaturaGrado" data-source-line="42" data-uid="lnk14" id="link_Asignatura_AsignaturaGrado"><path codeLine="42" d="M269.9,245.63 C268.41,260.81 269.09,277.9 275.69,292.18 C286.13,314.78 296.929,326.3574 315.919,339.5674" fill="none" id="Asignatura-to-AsignaturaGrado" style="stroke:#181818;stroke-width:1;"/><polygon fill="#181818" points="325.77,346.42,323.1287,339.71,315.919,339.5674,318.5603,346.2773,325.77,346.42" style="stroke:#181818;stroke-width:1;"/><text fill="#000000" font-family="sans-serif" font-size="13" lengthAdjust="spacing" textLength="56.2847" x="276.69" y="288.2469">contiene</text></g><!--reverse link Asignatura to Profesor--><g class="link" data-entity-1="Asignatura" data-entity-2="Profesor" data-source-line="43" data-uid="lnk15" id="link_Asignatura_Profesor"><path codeLine="43" d="M213.852,233.1027 C192.452,244.2727 180.18,254.43 165.69,275.18 C156.21,288.76 151.22,305.96 148.67,321.95" fill="none" id="Asignatura-backto-Profesor" style="stroke:#181818;stroke-width:1;"/><polygon fill="#181818" points="224.49,227.55,217.3201,226.7803,213.852,233.1027,221.0219,233.8723,224.49,227.55" style="stroke:#181818;stroke-width:1;"/><text fill="#000000" font-family="sans-serif" font-size="13" lengthAdjust="spacing" textLength="96.0908" x="166.69" y="288.2469">tiene asignado</text></g><!--reverse link Asignatura to Alumno--><g class="link" data-entity-1="Asignatura" data-entity-2="Alumno" data-source-line="44" data-uid="lnk16" id="link_Asignatura_Alumno"><path codeLine="44" d="M321.6335,254.2156 C337.4735,270.4756 348.97,279.75 369.69,292.18 C405.85,313.87 419.95,308.09 459.69,322.18 C486.9,331.84 517.18,343.22 541.23,352.41" fill="none" id="Asignatura-backto-Alumno" style="stroke:#181818;stroke-width:1;"/><polygon fill="#181818" points="313.26,245.62,314.5816,252.709,321.6335,254.2156,320.312,247.1266,313.26,245.62" style="stroke:#181818;stroke-width:1;"/><text fill="#000000" font-family="sans-serif" font-size="13" lengthAdjust="spacing" textLength="69.8369" x="370.69" y="288.2469">se imparte</text></g><!--link Examen to Asignatura--><g class="link" data-entity-1="Examen" data-entity-2="Asignatura" data-source-line="45" data-uid="lnk17" id="link_Examen_Asignatura"><path codeLine="45" d="M668.92,72.18 C576.42,103.4 427.7597,153.572 344.2797,181.752" fill="none" id="Examen-to-Asignatura" style="stroke:#181818;stroke-width:1;"/><polygon fill="#181818" points="332.91,185.59,339.8742,187.4609,344.2797,181.752,337.3155,179.8811,332.91,185.59" style="stroke:#181818;stroke-width:1;"/><text fill="#000000" font-family="sans-serif" font-size="13" lengthAdjust="spacing" textLength="32.9443" x="524.69" y="130.6569">tiene</text></g><!--reverse link Examen to Pregunta--><g class="link" data-entity-1="Examen" data-entity-2="Pregunta" data-source-line="46" data-uid="lnk18" id="link_Examen_Pregunta"><path codeLine="46" d="M764.3232,98.8192 C777.9232,129.6492 788.69,162.96 788.69,203.89 C788.69,203.89 788.69,203.89 788.69,568.37 C788.69,667.83 460.13,706.03 303.23,718.6" fill="none" id="Examen-backto-Pregunta" style="stroke:#181818;stroke-width:1;"/><polygon fill="#181818" points="759.48,87.84,758.2419,94.944,764.3232,98.8192,765.5614,91.7152,759.48,87.84" style="stroke:#181818;stroke-width:1;"/><text fill="#000000" font-family="sans-serif" font-size="13" lengthAdjust="spacing" textLength="56.2847" x="789.69" y="375.1969">contiene</text></g><!--reverse link Asignatura to Tema--><g class="link" data-entity-1="Asignatura" data-entity-2="Tema" data-source-line="47" data-uid="lnk19" id="link_Asignatura_Tema"><path codeLine="47" d="M212.8452,214.2455 C170.6752,221.9455 125.57,236.97 91.69,275.18 C48.36,324.07 41.63,404.47 41.53,448.67" fill="none" id="Asignatura-backto-Tema" style="stroke:#181818;stroke-width:1;"/><polygon fill="#181818" points="224.65,212.09,218.0291,209.2328,212.8452,214.2455,219.4661,217.1027,224.65,212.09" style="stroke:#181818;stroke-width:1;"/><text fill="#000000" font-family="sans-serif" font-size="13" lengthAdjust="spacing" textLength="56.2847" x="92.69" y="288.2469">contiene</text></g><!--reverse link Tema to Pregunta--><g class="link" data-entity-1="Tema" data-entity-2="Pregunta" data-source-line="48" data-uid="lnk20" id="link_Tema_Pregunta"><path codeLine="48" d="M47.2645,525.5726 C50.4845,548.4226 55.57,567.52 69.69,591.37 C87.35,621.21 114.08,647.8 140.23,669.19" fill="none" id="Tema-backto-Pregunta" style="stroke:#181818;stroke-width:1;"/><polygon fill="#181818" points="45.59,513.69,42.4664,520.1895,47.2645,525.5726,50.3881,519.0731,45.59,513.69" style="stroke:#181818;stroke-width:1;"/><text fill="#000000" font-family="sans-serif" font-size="13" lengthAdjust="spacing" textLength="32.9443" x="70.69" y="571.9369">tiene</text></g><!--reverse link Alumno to Examen--><g class="link" data-entity-1="Alumno" data-entity-2="Examen" data-source-line="49" data-uid="lnk21" id="link_Alumno_Examen"><path codeLine="49" d="M637.506,312.5754 C645.016,303.1254 644.81,302.37 650.69,292.18 C689.6,224.87 716.48,137.53 729.88,87.72" fill="none" id="Alumno-backto-Examen" style="stroke:#181818;stroke-width:1;"/><polygon fill="none" points="630.04,321.97,636.9045,319.7614,637.506,312.5754,630.6415,314.784,630.04,321.97" style="stroke:#181818;stroke-width:1;"/><text fill="#000000" font-family="sans-serif" font-size="13" lengthAdjust="spacing" textLength="43.3228" x="707.69" y="209.4569">realiza</text></g><!--reverse link BateriaDePreguntas to Pregunta--><g class="link" data-entity-1="BateriaDePreguntas" data-entity-2="Pregunta" data-source-line="50" data-uid="lnk22" id="link_BateriaDePreguntas_Pregunta"><path codeLine="50" d="M281.0442,602.4529 C271.1942,622.6229 261.8,641.85 248.94,668.19" fill="none" id="BateriaDePreguntas-backto-Pregunta" style="stroke:#181818;stroke-width:1;"/><polygon fill="#181818" points="286.31,591.67,280.0828,595.3062,281.0442,602.4529,287.2714,598.8167,286.31,591.67" style="stroke:#181818;stroke-width:1;"/><text fill="#000000" font-family="sans-serif" font-size="13" lengthAdjust="spacing" textLength="56.2847" x="272.69" y="634.4369">contiene</text></g><!--reverse link Examen to ModeloCorrecci?n--><g class="link" data-entity-1="Examen" data-entity-2="ModeloCorrecci.n" data-source-line="51" data-uid="lnk23" id="link_Examen_ModeloCorrecci.n"><path codeLine="51" d="M794.9301,95.7823 C825.4101,121.9823 855.71,148.03 884.04,172.38" fill="none" id="Examen-backto-ModeloCorrecci&#243;n" style="stroke:#181818;stroke-width:1;"/><polygon fill="#181818" points="785.83,87.96,787.7726,94.9045,794.9301,95.7823,792.9875,88.8378,785.83,87.96" style="stroke:#181818;stroke-width:1;"/><text fill="#000000" font-family="sans-serif" font-size="13" lengthAdjust="spacing" textLength="64.5557" x="836.69" y="130.6569">se corrige</text></g><!--reverse link Profesor to BateriaDePreguntas--><g class="link" data-entity-1="Profesor" data-entity-2="BateriaDePreguntas" data-source-line="52" data-uid="lnk24" id="link_Profesor_BateriaDePreguntas"><path codeLine="52" d="M190.9827,428.7535 C221.4527,468.0535 256.03,512.64 279.64,543.09" fill="none" id="Profesor-backto-BateriaDePreguntas" style="stroke:#181818;stroke-width:1;"/><polygon fill="#181818" points="183.63,419.27,184.1452,426.4627,190.9827,428.7535,190.4675,421.5608,183.63,419.27" style="stroke:#181818;stroke-width:1;"/><text fill="#000000" font-family="sans-serif" font-size="13" lengthAdjust="spacing" textLength="32.9443" x="254.69" y="485.7869">tiene</text></g><!--reverse link Profesor to Pregunta--><g class="link" data-entity-1="Profesor" data-entity-2="Pregunta" data-source-line="53" data-uid="lnk25" id="link_Profesor_Pregunta"><path codeLine="53" d="M145.8893,431.5098 C146.1493,476.5298 149.23,533.46 163.69,591.37 C170.21,617.46 181.41,644.9 192.24,668.01" fill="none" id="Profesor-backto-Pregunta" style="stroke:#181818;stroke-width:1;"/><polygon fill="none" points="145.82,419.51,141.8547,425.533,145.8893,431.5098,149.8546,425.4868,145.82,419.51" style="stroke:#181818;stroke-width:1;"/><text fill="#000000" font-family="sans-serif" font-size="13" lengthAdjust="spacing" textLength="28.4565" x="164.69" y="571.9369">crea</text></g><!--SRC=[bL9BJWCn3Dtd55bNcWjq1nGX5g0kUW6JSKUMCl4edmfHSIHMFS9SZ7pcKwQbY5tiz-pt75jfS4u-laEBvYXa9V40Ee2Y_cHIg3GSK2gs5bL9VWgLQ-uSDGPyiF1aeURZ5I0tzFsN3vfpi_vKKyCJSuVjJyu8R2qsmVW2eWb6KPH80NUAsA2J5bqNq7b8sIaOd9PiJNjIGNkefyRtuD4IR71KSBFl5wvHyyCyQbPth4EHd8Z3lBTdsrhUesERUORRDulf1HrgJJMx56nUd-TVqw4r_3TRP7MvgggXHAwbGzc2jsbO6F2gMYqt58cAZISqA6Re7yoaEOuLAHcNaF6ud0Nnt1or7LYFefpPGd7iDA95fMpdXf5qE-TmZXUrGs5nmX4R9DRnO43J1uZBU_XL_ypUnQMKCTFjKODY-gF4lQ8m6fjul92Cxhu1]--></g></svg>