<svg xmlns="http://www.w3.org/2000/svg" xmlns:xlink="http://www.w3.org/1999/xlink" contentStyleType="text/css" data-diagram-type="STATE" height="896px" preserveAspectRatio="none" style="width:975px;height:896px;background:#FFFFFF;" version="1.1" viewBox="0 0 975 896" width="975px" zoomAndPan="magnify"><defs/><g><g id="ASIGNATURAS_ABIERTO2"><rect fill="#F1F1F1" height="50" rx="12.5" ry="12.5" style="stroke:#181818;stroke-width:0.5;" width="188.9365" x="390" y="840"/><line style="stroke:#181818;stroke-width:0.5;" x1="390" x2="578.9365" y1="866.2969" y2="866.2969"/><text fill="#000000" font-family="sans-serif" font-size="14" lengthAdjust="spacing" textLength="168.9365" x="400" y="857.9951">ASIGNATURAS_ABIERTO</text></g><path d="M19.5,117 L949.4361,117 A12.5,12.5 0 0 1 961.9361,129.5 L961.9361,143.2969 L7,143.2969 L7,129.5 A12.5,12.5 0 0 1 19.5,117" fill="#F1F1F1"/><rect fill="none" height="663.2969" rx="12.5" ry="12.5" style="stroke:#181818;stroke-width:0.5;" width="954.9361" x="7" y="117"/><line style="stroke:#181818;stroke-width:0.5;" x1="7" x2="961.9361" y1="143.2969" y2="143.2969"/><text fill="#000000" font-family="sans-serif" font-size="14" lengthAdjust="spacing" textLength="153.9453" x="407.4954" y="134.9951">exportarAsignaturas()</text><g id="exportarAsignaturas.RequiringExport"><rect fill="#F1F1F1" height="50" rx="12.5" ry="12.5" style="stroke:#181818;stroke-width:0.5;" width="50" x="321.9361" y="245.2969"/><line style="stroke:#181818;stroke-width:0.5;" x1="321.9361" x2="371.9361" y1="271.5938" y2="271.5938"/><text fill="#000000" font-family="sans-serif" font-size="14" lengthAdjust="spacing" textLength="4.4502" x="344.711" y="263.292">&#160;</text></g><g id="exportarAsignaturas.ProvidingAsignaturas"><rect fill="#F1F1F1" height="50" rx="12.5" ry="12.5" style="stroke:#181818;stroke-width:0.5;" width="50" x="321.9361" y="381.2969"/><line style="stroke:#181818;stroke-width:0.5;" x1="321.9361" x2="371.9361" y1="407.5938" y2="407.5938"/><text fill="#000000" font-family="sans-serif" font-size="14" lengthAdjust="spacing" textLength="4.4502" x="344.711" y="399.292">&#160;</text></g><g id="exportarAsignaturas.ProvidingConfirmation"><rect fill="#F1F1F1" height="50" rx="12.5" ry="12.5" style="stroke:#181818;stroke-width:0.5;" width="50" x="28.9361" y="502.2969"/><line style="stroke:#181818;stroke-width:0.5;" x1="28.9361" x2="78.9361" y1="528.5938" y2="528.5938"/><text fill="#000000" font-family="sans-serif" font-size="14" lengthAdjust="spacing" textLength="4.4502" x="51.711" y="520.292">&#160;</text></g><g class="entity" data-entity="c" data-uid="ent0007" id="entity_c"><polygon fill="#F1F1F1" points="346.9361,653.2969,358.9361,665.2969,346.9361,677.2969,334.9361,665.2969,346.9361,653.2969" style="stroke:#181818;stroke-width:0.5;"/></g><ellipse cx="346.9361" cy="164.2969" fill="#222222" rx="10" ry="10" style="stroke:#222222;stroke-width:1;"/><ellipse cx="346.9361" cy="759.2969" fill="none" rx="11" ry="11" style="stroke:#222222;stroke-width:1;"/><ellipse cx="346.9361" cy="759.2969" fill="#222222" rx="6" ry="6" style="stroke:#222222;stroke-width:1;"/><!--link *start*exportarAsignaturas to RequiringExport--><g class="link" data-entity-1=".start.exportarAsignaturas" data-entity-2="RequiringExport" data-source-line="12" data-uid="lnk3" id="link_.start.exportarAsignaturas_RequiringExport"><path d="M346.9361,174.5269 C346.9361,190.2369 346.9361,216.6569 346.9361,239.1669" fill="none" id="*start*exportarAsignaturas-to-RequiringExport" style="stroke:#008000;stroke-width:1;"/><polygon fill="#008000" points="346.9361,245.1669,350.9361,236.1669,346.9361,240.1669,342.9361,236.1669,346.9361,245.1669" style="stroke:#008000;stroke-width:1;"/><path d="M351.9361,197.2969 L351.9361,222.2969 L622.9361,222.2969 L622.9361,207.2969 L612.9361,197.2969 L351.9361,197.2969" fill="#FEFFDD" style="stroke:#181818;stroke-width:0.5;"/><path d="M612.9361,197.2969 L612.9361,207.2969 L622.9361,207.2969 L612.9361,197.2969" fill="#FEFFDD" style="stroke:#181818;stroke-width:0.5;"/><text fill="#000000" font-family="sans-serif" font-size="13" font-weight="bold" lengthAdjust="spacing" textLength="60.5313" x="357.9361" y="214.3638">Docente</text><text fill="#000000" font-family="sans-serif" font-size="13" lengthAdjust="spacing" textLength="185.9165" x="422.5997" y="214.3638">solicita exportar asignaturas</text></g><!--link RequiringExport to ProvidingAsignaturas--><g class="link" data-entity-1="RequiringExport" data-entity-2="ProvidingAsignaturas" data-source-line="17" data-uid="lnk4" id="link_RequiringExport_ProvidingAsignaturas"><path d="M346.9361,295.5669 C346.9361,319.8469 346.9361,350.9869 346.9361,375.2069" fill="none" id="RequiringExport-to-ProvidingAsignaturas" style="stroke:#008000;stroke-width:1;"/><polygon fill="#008000" points="346.9361,381.2069,350.9361,372.2069,346.9361,376.2069,342.9361,372.2069,346.9361,381.2069" style="stroke:#008000;stroke-width:1;"/><path d="M351.9361,318.2969 L351.9361,358.2969 L552.9361,358.2969 L552.9361,328.2969 L542.9361,318.2969 L351.9361,318.2969" fill="#FEFFDD" style="stroke:#181818;stroke-width:0.5;"/><path d="M542.9361,318.2969 L542.9361,328.2969 L552.9361,328.2969 L542.9361,318.2969" fill="#FEFFDD" style="stroke:#181818;stroke-width:0.5;"/><text fill="#000000" font-family="sans-serif" font-size="13" font-weight="bold" lengthAdjust="spacing" textLength="58.9063" x="357.9361" y="335.3638">Sistema</text><text fill="#000000" font-family="sans-serif" font-size="13" lengthAdjust="spacing" textLength="117.9395" x="420.9747" y="335.3638">permite introducir</text><text fill="#000000" font-family="sans-serif" font-size="13" lengthAdjust="spacing" textLength="159.9102" x="357.9361" y="350.4966">&#8226; asignaturas a exportar</text></g><!--link ProvidingAsignaturas to ProvidingConfirmation--><g class="link" data-entity-1="ProvidingAsignaturas" data-entity-2="ProvidingConfirmation" data-source-line="23" data-uid="lnk5" id="link_ProvidingAsignaturas_ProvidingConfirmation"><path d="M321.8561,410.5569 C245.9661,420.4269 23.9361,449.2969 23.9361,449.2969 C23.9361,449.2969 23.9361,484.2969 23.9361,484.2969 C23.9361,484.2969 26.3986,487.7445 32.9986,496.9845" fill="none" id="ProvidingAsignaturas-to-ProvidingConfirmation" style="stroke:#008000;stroke-width:1;"/><polygon fill="#008000" points="36.4861,501.8669,34.5099,492.2183,33.5799,497.7982,28,496.8682,36.4861,501.8669" style="stroke:#008000;stroke-width:1;"/><path d="M28.9361,454.2969 L28.9361,479.2969 L327.9361,479.2969 L327.9361,464.2969 L317.9361,454.2969 L28.9361,454.2969" fill="#FEFFDD" style="stroke:#181818;stroke-width:0.5;"/><path d="M317.9361,454.2969 L317.9361,464.2969 L327.9361,464.2969 L317.9361,454.2969" fill="#FEFFDD" style="stroke:#181818;stroke-width:0.5;"/><text fill="#000000" font-family="sans-serif" font-size="13" font-weight="bold" lengthAdjust="spacing" textLength="60.5313" x="34.9361" y="471.3638">Docente</text><text fill="#000000" font-family="sans-serif" font-size="13" lengthAdjust="spacing" textLength="214.1255" x="99.5997" y="471.3638">introduce asignaturas a exportar</text></g><!--link ProvidingConfirmation to c--><g class="link" data-entity-1="ProvidingConfirmation" data-entity-2="c" data-source-line="28" data-uid="lnk6" id="link_ProvidingConfirmation_c"><path d="M74.5861,552.3069 C101.7061,583.8569 145.9361,635.2969 145.9361,635.2969 C145.9361,635.2969 291.1475,656.2507 331.3075,662.0407" fill="none" id="ProvidingConfirmation-to-c" style="stroke:#008000;stroke-width:1;"/><polygon fill="#008000" points="337.2461,662.8969,328.909,657.6535,332.2972,662.1834,327.7674,665.5717,337.2461,662.8969" style="stroke:#008000;stroke-width:1;"/><path d="M150.9361,575.2969 L150.9361,630.2969 L327.9361,630.2969 L327.9361,585.2969 L317.9361,575.2969 L150.9361,575.2969" fill="#FEFFDD" style="stroke:#181818;stroke-width:0.5;"/><path d="M317.9361,575.2969 L317.9361,585.2969 L327.9361,585.2969 L317.9361,575.2969" fill="#FEFFDD" style="stroke:#181818;stroke-width:0.5;"/><text fill="#000000" font-family="sans-serif" font-size="13" font-weight="bold" lengthAdjust="spacing" textLength="60.5313" x="156.9361" y="592.3638">Docente</text><text fill="#000000" font-family="sans-serif" font-size="13" lengthAdjust="spacing" textLength="45.7729" x="221.5997" y="592.3638">solicita</text><text fill="#000000" font-family="sans-serif" font-size="13" lengthAdjust="spacing" textLength="156.0381" x="156.9361" y="607.4966">&#8226; confirmar exportaci&#243;n</text><text fill="#000000" font-family="sans-serif" font-size="13" lengthAdjust="spacing" textLength="148.6113" x="156.9361" y="622.6294">&#8226; cancelar exportaci&#243;n</text></g><!--link c to ProvidingAsignaturas--><g class="link" data-entity-1="c" data-entity-2="ProvidingAsignaturas" data-source-line="35" data-uid="lnk7" id="link_c_ProvidingAsignaturas"><path d="M346.9361,653.2469 C346.9361,614.6869 346.9361,491.5769 346.9361,437.4769" fill="none" id="c-to-ProvidingAsignaturas" style="stroke:#FF0000;stroke-width:1;"/><polygon fill="#FF0000" points="346.9361,431.4769,342.9361,440.4769,346.9361,436.4769,350.9361,440.4769,346.9361,431.4769" style="stroke:#FF0000;stroke-width:1;"/><path d="M351.9361,514.7969 L351.9361,539.7969 L562.9361,539.7969 L562.9361,524.7969 L552.9361,514.7969 L351.9361,514.7969" fill="#FEFFDD" style="stroke:#181818;stroke-width:0.5;"/><path d="M552.9361,514.7969 L552.9361,524.7969 L562.9361,524.7969 L552.9361,514.7969" fill="#FEFFDD" style="stroke:#181818;stroke-width:0.5;"/><text fill="#000000" font-family="sans-serif" font-size="13" lengthAdjust="spacing" textLength="190.0425" x="357.9361" y="531.8638">Docente cancela exportaci&#243;n</text></g><!--link c to ProvidingAsignaturas--><g class="link" data-entity-1="c" data-entity-2="ProvidingAsignaturas" data-source-line="40" data-uid="lnk8" id="link_c_ProvidingAsignaturas"><path d="M354.4261,660.5669 C393.4661,641.1369 571.9361,552.2969 571.9361,552.2969 C571.9361,552.2969 571.9361,502.2969 571.9361,502.2969 C571.9361,502.2969 436.6835,445.1909 377.8335,420.3409" fill="none" id="c-to-ProvidingAsignaturas-1" style="stroke:#FF0000;stroke-width:1;"/><polygon fill="#FF0000" points="372.3061,418.0069,379.0412,425.1928,376.9123,419.9519,382.1532,417.8229,372.3061,418.0069" style="stroke:#FF0000;stroke-width:1;"/><path d="M576.9361,514.7969 L576.9361,539.7969 L952.9361,539.7969 L952.9361,524.7969 L942.9361,514.7969 L576.9361,514.7969" fill="#FEFFDD" style="stroke:#181818;stroke-width:0.5;"/><path d="M942.9361,514.7969 L942.9361,524.7969 L952.9361,524.7969 L942.9361,514.7969" fill="#FEFFDD" style="stroke:#181818;stroke-width:0.5;"/><text fill="#000000" font-family="sans-serif" font-size="13" lengthAdjust="spacing" textLength="355.437" x="582.9361" y="531.8638">Docente confirma exportaci&#243;n: error en la exportaci&#243;n</text></g><!--link c to *end*exportarAsignaturas--><g class="link" data-entity-1="c" data-entity-2=".end.exportarAsignaturas" data-source-line="45" data-uid="lnk10" id="link_c_.end.exportarAsignaturas"><path d="M346.9361,677.5769 C346.9361,695.6169 346.9361,724.6969 346.9361,742.0569" fill="none" id="c-to-*end*exportarAsignaturas" style="stroke:#008000;stroke-width:1;"/><polygon fill="#008000" points="346.9361,748.0569,350.9361,739.0569,346.9361,743.0569,342.9361,739.0569,346.9361,748.0569" style="stroke:#008000;stroke-width:1;"/><path d="M351.9361,700.2969 L351.9361,725.2969 L706.9361,725.2969 L706.9361,710.2969 L696.9361,700.2969 L351.9361,700.2969" fill="#FEFFDD" style="stroke:#181818;stroke-width:0.5;"/><path d="M696.9361,700.2969 L696.9361,710.2969 L706.9361,710.2969 L696.9361,700.2969" fill="#FEFFDD" style="stroke:#181818;stroke-width:0.5;"/><text fill="#000000" font-family="sans-serif" font-size="13" lengthAdjust="spacing" textLength="334.4644" x="357.9361" y="717.3638">Docente confirma exportaci&#243;n: exportaci&#243;n exitosa</text></g><g id="ASIGNATURAS_ABIERTO"><rect fill="#F1F1F1" height="50" rx="12.5" ry="12.5" style="stroke:#181818;stroke-width:0.5;" width="188.9365" x="390" y="7"/><line style="stroke:#181818;stroke-width:0.5;" x1="390" x2="578.9365" y1="33.2969" y2="33.2969"/><text fill="#000000" font-family="sans-serif" font-size="14" lengthAdjust="spacing" textLength="168.9365" x="400" y="24.9951">ASIGNATURAS_ABIERTO</text></g><!--link ASIGNATURAS_ABIERTO to exportarAsignaturas--><g class="link" data-entity-1="ASIGNATURAS_ABIERTO" data-entity-2="exportarAsignaturas" data-source-line="51" data-uid="lnk12" id="link_ASIGNATURAS_ABIERTO_exportarAsignaturas"><path d="M484.5,57.08 C484.5,71.85 484.5,86.58 484.5,110.86" fill="none" id="ASIGNATURAS_ABIERTO-to-exportarAsignaturas" style="stroke:#008000;stroke-width:1;"/><polygon fill="#008000" points="484.5,116.86,488.5,107.86,484.5,111.86,480.5,107.86,484.5,116.86" style="stroke:#008000;stroke-width:1;"/></g><!--link exportarAsignaturas to ASIGNATURAS_ABIERTO2--><g class="link" data-entity-1="exportarAsignaturas" data-entity-2="ASIGNATURAS_ABIERTO2" data-source-line="52" data-uid="lnk13" id="link_exportarAsignaturas_ASIGNATURAS_ABIERTO2"><path d="M484.5,780.12 C484.5,804.36 484.5,819.06 484.5,833.83" fill="none" id="exportarAsignaturas-to-ASIGNATURAS_ABIERTO2" style="stroke:#008000;stroke-width:1;"/><polygon fill="#008000" points="484.5,839.83,488.5,830.83,484.5,834.83,480.5,830.83,484.5,839.83" style="stroke:#008000;stroke-width:1;"/></g><!--SRC=[jPJVIiCm5CRlynIXtgWm12-b5AeEsOtADg_6a2mzpeDjKaypSOZWi_WAFe9lufEOjklMkFXd0zEh9D-NxvSJUeexLBaWaV4K5PXv3ZpNwRoSC5OOOO37WzxPUJoywiU3w_Yur-qFBmwvA7ZWsGWQ4ppcceoWkC2f4cP6rb1wFEkxUm5_OepRKNi3-rbj7-vdIAYctSgpBhWa_O295RGE-q5rejKDKYOCQjMIIHw6ybQZX2YgAKRxOzuPxKm9G8qxaHT4QMlLggpQNRKGJg9JBK4P20yc4IzqYXADM1R2ehYGe9Bw53lgt2yv3iEtT_M13B0ma8aA90VAq4fG6TB9J29Lge-NrpOHNu4wS3MOBznFjrRZt-hKOC4MDEqm1qTkz4JBUiZ5UTIaItn_KwjjeIIalbsNJvOi1CbcpxOWQrB-EMHnKoVbY0EHjjUpXh_bBmjk_vZj0bipEq6Z2-66FJFcQJDEkAUbC5_xQNjyFUqJ]--></g></svg>