<svg xmlns="http://www.w3.org/2000/svg" xmlns:xlink="http://www.w3.org/1999/xlink" contentStyleType="text/css" data-diagram-type="SALT" height="332px" preserveAspectRatio="none" style="width:311px;height:332px;background:#FFFFFF;" version="1.1" viewBox="0 0 311 332" width="311px" zoomAndPan="magnify"><defs/><g><text fill="#000000" font-family="sans-serif" font-size="12" font-weight="bold" lengthAdjust="spacing" textLength="192.8145" x="6" y="17.1387">EDITAR DATOS DEL ALUMNO</text><line style="stroke:#AAAAAA;stroke-width:1;" x1="6" x2="304" y1="24.4688" y2="24.4688"/><line style="stroke:#AAAAAA;stroke-width:1;" x1="6" x2="304" y1="26.4688" y2="26.4688"/><text fill="#000000" font-family="sans-serif" font-size="12" font-weight="bold" lengthAdjust="spacing" textLength="212.584" x="6" y="41.1074">1. Datos Personales (Editables)</text><text fill="#000000" font-family="sans-serif" font-size="12" font-style="italic" lengthAdjust="spacing" textLength="198.4688" x="6" y="57.0762">Modifique los campos necesarios</text><text fill="#000000" font-family="sans-serif" font-size="12" lengthAdjust="spacing" textLength="44.9766" x="7" y="90.0137">DNI (*):</text><text fill="#000000" font-family="sans-serif" font-size="12" lengthAdjust="spacing" textLength="69.2988" x="89.6426" y="90.0137">12345678Z</text><line style="stroke:#000000;stroke-width:1;" x1="87.6426" x2="266.6426" y1="92.8438" y2="92.8438"/><line style="stroke:#000000;stroke-width:1;" x1="87.6426" x2="87.6426" y1="89.8438" y2="91.8438"/><line style="stroke:#000000;stroke-width:1;" x1="266.6426" x2="266.6426" y1="89.8438" y2="91.8438"/><text fill="#000000" font-family="sans-serif" font-size="12" lengthAdjust="spacing" textLength="71.1621" x="7" y="107.9824">Nombre (*):</text><text fill="#000000" font-family="sans-serif" font-size="12" lengthAdjust="spacing" textLength="26.1035" x="89.6426" y="107.9824">Juan</text><line style="stroke:#000000;stroke-width:1;" x1="87.6426" x2="266.6426" y1="110.8125" y2="110.8125"/><line style="stroke:#000000;stroke-width:1;" x1="87.6426" x2="87.6426" y1="107.8125" y2="109.8125"/><line style="stroke:#000000;stroke-width:1;" x1="266.6426" x2="266.6426" y1="107.8125" y2="109.8125"/><text fill="#000000" font-family="sans-serif" font-size="12" lengthAdjust="spacing" textLength="77.6426" x="7" y="125.9512">Apellidos (*):</text><text fill="#000000" font-family="sans-serif" font-size="12" lengthAdjust="spacing" textLength="75.9199" x="89.6426" y="125.9512">P&#233;rez Garc&#237;a</text><line style="stroke:#000000;stroke-width:1;" x1="87.6426" x2="266.6426" y1="128.7813" y2="128.7813"/><line style="stroke:#000000;stroke-width:1;" x1="87.6426" x2="87.6426" y1="125.7813" y2="127.7813"/><line style="stroke:#000000;stroke-width:1;" x1="266.6426" x2="266.6426" y1="125.7813" y2="127.7813"/><line style="stroke:#AAAAAA;stroke-width:1;" x1="6" x2="304" y1="153.25" y2="153.25"/><text fill="#000000" font-family="sans-serif" font-size="12" font-weight="bold" lengthAdjust="spacing" textLength="155.6543" x="6" y="184.8574">2. Contexto Acad&#233;mico</text><text fill="#000000" font-family="sans-serif" font-size="12" font-style="italic" lengthAdjust="spacing" textLength="210.6211" x="6" y="200.8262">Informaci&#243;n asociada (No editable)</text><text fill="#000000" font-family="sans-serif" font-size="12" lengthAdjust="spacing" textLength="82.207" x="7" y="233.7637">Grado Actual:</text><text fill="#000000" font-family="sans-serif" font-size="12" lengthAdjust="spacing" textLength="132.5801" x="94.207" y="233.7637">Ingenier&#237;a Inform&#225;tica</text><line style="stroke:#000000;stroke-width:1;" x1="92.207" x2="271.207" y1="236.5938" y2="236.5938"/><line style="stroke:#000000;stroke-width:1;" x1="92.207" x2="92.207" y1="233.5938" y2="235.5938"/><line style="stroke:#000000;stroke-width:1;" x1="271.207" x2="271.207" y1="233.5938" y2="235.5938"/><text fill="#000000" font-family="sans-serif" font-size="12" lengthAdjust="spacing" textLength="75.2637" x="7" y="251.7324">Asignaturas:</text><text fill="#000000" font-family="sans-serif" font-size="12" lengthAdjust="spacing" textLength="90.6914" x="94.207" y="251.7324">Programaci&#243;n I</text><line style="stroke:#000000;stroke-width:1;" x1="92.207" x2="207.207" y1="254.5625" y2="254.5625"/><line style="stroke:#000000;stroke-width:1;" x1="92.207" x2="92.207" y1="251.5625" y2="253.5625"/><line style="stroke:#000000;stroke-width:1;" x1="207.207" x2="207.207" y1="251.5625" y2="253.5625"/><line style="stroke:#AAAAAA;stroke-width:1.5;" x1="6" x2="304" y1="279.0313" y2="279.0313"/><rect fill="#EEEEEE" height="17.9688" rx="5" ry="5" style="stroke:#000000;stroke-width:2.5;" width="124" x="9.5" y="303"/><text fill="#000000" font-family="sans-serif" font-size="12" lengthAdjust="spacing" textLength="104.877" x="19.0615" y="316.1387">Guardar Cambios</text><rect fill="#EEEEEE" height="17.9688" rx="5" ry="5" style="stroke:#000000;stroke-width:2.5;" width="84" x="140.5" y="303"/><text fill="#000000" font-family="sans-serif" font-size="12" lengthAdjust="spacing" textLength="49.166" x="157.917" y="316.1387">Eliminar</text><rect fill="#EEEEEE" height="17.9688" rx="5" ry="5" style="stroke:#000000;stroke-width:2.5;" width="68" x="231.5" y="303"/><text fill="#000000" font-family="sans-serif" font-size="12" lengthAdjust="spacing" textLength="52.9395" x="239.0303" y="316.1387">Cancelar</text><line style="stroke:#000000;stroke-width:1;" x1="5" x2="304" y1="5" y2="5"/><line style="stroke:#000000;stroke-width:1;" x1="5" x2="304" y1="325.4688" y2="325.4688"/><line style="stroke:#000000;stroke-width:1;" x1="5" x2="5" y1="5" y2="20.9688"/><line style="stroke:#000000;stroke-width:1;" x1="304" x2="304" y1="5" y2="20.9688"/><line style="stroke:#000000;stroke-width:1;" x1="5" x2="5" y1="282.5313" y2="298.5"/><line style="stroke:#000000;stroke-width:1;" x1="304" x2="304" y1="282.5313" y2="298.5"/><line style="stroke:#000000;stroke-width:1;" x1="5" x2="5" y1="204.6563" y2="220.625"/><line style="stroke:#000000;stroke-width:1;" x1="304" x2="304" y1="204.6563" y2="220.625"/><line style="stroke:#000000;stroke-width:1;" x1="5" x2="5" y1="148.75" y2="156.75"/><line style="stroke:#000000;stroke-width:1;" x1="304" x2="304" y1="148.75" y2="156.75"/><line style="stroke:#000000;stroke-width:1;" x1="5" x2="5" y1="44.9375" y2="60.9063"/><line style="stroke:#000000;stroke-width:1;" x1="304" x2="304" y1="44.9375" y2="60.9063"/><line style="stroke:#000000;stroke-width:1;" x1="5" x2="5" y1="274.5313" y2="282.5313"/><line style="stroke:#000000;stroke-width:1;" x1="304" x2="304" y1="274.5313" y2="282.5313"/><line style="stroke:#000000;stroke-width:1;" x1="5" x2="5" y1="188.6875" y2="204.6563"/><line style="stroke:#000000;stroke-width:1;" x1="304" x2="304" y1="188.6875" y2="204.6563"/><line style="stroke:#000000;stroke-width:1;" x1="5" x2="5" y1="132.7813" y2="148.75"/><line style="stroke:#000000;stroke-width:1;" x1="304" x2="304" y1="132.7813" y2="148.75"/><line style="stroke:#000000;stroke-width:1;" x1="5" x2="5" y1="28.9688" y2="44.9375"/><line style="stroke:#000000;stroke-width:1;" x1="304" x2="304" y1="28.9688" y2="44.9375"/><line style="stroke:#000000;stroke-width:1;" x1="5" x2="5" y1="258.5625" y2="274.5313"/><line style="stroke:#000000;stroke-width:1;" x1="304" x2="304" y1="258.5625" y2="274.5313"/><line style="stroke:#000000;stroke-width:1;" x1="5" x2="5" y1="172.7188" y2="188.6875"/><line style="stroke:#000000;stroke-width:1;" x1="304" x2="304" y1="172.7188" y2="188.6875"/><line style="stroke:#000000;stroke-width:1;" x1="5" x2="5" y1="76.875" y2="132.7813"/><line style="stroke:#000000;stroke-width:1;" x1="304" x2="304" y1="76.875" y2="132.7813"/><line style="stroke:#000000;stroke-width:1;" x1="5" x2="5" y1="20.9688" y2="28.9688"/><line style="stroke:#000000;stroke-width:1;" x1="304" x2="304" y1="20.9688" y2="28.9688"/><line style="stroke:#000000;stroke-width:1;" x1="5" x2="5" y1="298.5" y2="325.4688"/><line style="stroke:#000000;stroke-width:1;" x1="304" x2="304" y1="298.5" y2="325.4688"/><line style="stroke:#000000;stroke-width:1;" x1="5" x2="5" y1="220.625" y2="258.5625"/><line style="stroke:#000000;stroke-width:1;" x1="304" x2="304" y1="220.625" y2="258.5625"/><line style="stroke:#000000;stroke-width:1;" x1="5" x2="5" y1="156.75" y2="172.7188"/><line style="stroke:#000000;stroke-width:1;" x1="304" x2="304" y1="156.75" y2="172.7188"/><line style="stroke:#000000;stroke-width:1;" x1="5" x2="5" y1="60.9063" y2="76.875"/><line style="stroke:#000000;stroke-width:1;" x1="304" x2="304" y1="60.9063" y2="76.875"/><!--SRC=[TLDDRzf04BtxLunoWbOGe2HDBK1niOjCCI0-ScWKLMDxiLQoP-dk6hLDa__IOmuzzIVmnxesXLYDEeVrpdhUsxTlPw-LHgaLfXfOpCtSIVECnEVXRB7mHhuxi-vVMs2Y5muyrryv2t2TrMm9hZS1Px8EfhFUUJWeI_hz_h6qtGGNjL0mPr89mfGfg7d51g6Pra-G7Xy48kOR_YLda9hw2BEj-H2Bc4B9XUgTyqDfinplox48T-f3xLNT_fl-WBDsvqttulBjrIUenja9CHLPADa9P13Z70bUn3F2sR8qvR4HL88COhv_akmxZ516-r_uB-QXehJHg2J6aauJXe8q-we5E176-wUCHwBgX4yR8JEC-Fut0IeHSOmHQbDnk1hZNFs_RemanWMlpZ4jXVgKCE9C5YeFnFkVcaTOEPpY2Q7E9IgxT6CkHIBnAC1_UQJ7n-hUS3lAKSOeOOXPQAxgpf3SWfVoZ9DPBTCXKiHIb7U6wC6wPXGNlMPPynH9huC9x4o3S47GRdPQdOjckrLRcLQOYXsqkj1ksPsMtNq7mN85nV-wLHlD9w14BYC6CLTQyZ3NXg1kZN67iCX9yupPCDio6hiVZmlWqOvBGHaZROrlWkU2osxZFTUmPD98WPl0Sja6S_CUF8fCQr9YmthreN5bJP2I71F3pSWQ2iChlzb0UPh-0G00]--></g></svg>