<svg xmlns="http://www.w3.org/2000/svg" xmlns:xlink="http://www.w3.org/1999/xlink" contentStyleType="text/css" data-diagram-type="STATE" height="481px" preserveAspectRatio="none" style="width:349px;height:481px;background:#FFFFFF;" version="1.1" viewBox="0 0 349 481" width="349px" zoomAndPan="magnify"><title>Diagrama de Estados - Entidad Pregunta</title><defs/><g><g class="title" data-source-line="1"><text fill="#000000" font-family="sans-serif" font-size="14" font-weight="bold" lengthAdjust="spacing" textLength="321.248" x="10" y="22.9951">Diagrama de Estados - Entidad Pregunta</text></g><g id="no_creado"><rect fill="#F1F1F1" height="50" rx="12.5" ry="12.5" style="stroke:#181818;stroke-width:0.5;" width="93.6641" x="169.4111" y="44.2969"/><line style="stroke:#181818;stroke-width:0.5;" x1="169.4111" x2="263.0752" y1="70.5938" y2="70.5938"/><text fill="#000000" font-family="sans-serif" font-size="14" lengthAdjust="spacing" textLength="73.6641" x="179.4111" y="62.292">No Creado</text></g><g id="construccion"><rect fill="#F1F1F1" height="50" rx="12.5" ry="12.5" style="stroke:#181818;stroke-width:0.5;" width="133.5176" x="149.4111" y="171.2969"/><line style="stroke:#181818;stroke-width:0.5;" x1="149.4111" x2="282.9287" y1="197.5938" y2="197.5938"/><text fill="#000000" font-family="sans-serif" font-size="14" lengthAdjust="spacing" textLength="113.5176" x="159.4111" y="189.292">En Construcci&#243;n</text></g><g id="habilitada"><rect fill="#F1F1F1" height="50" rx="12.5" ry="12.5" style="stroke:#181818;stroke-width:0.5;" width="91.1963" x="95.9111" y="298.2969"/><line style="stroke:#181818;stroke-width:0.5;" x1="95.9111" x2="187.1074" y1="324.5938" y2="324.5938"/><text fill="#000000" font-family="sans-serif" font-size="14" lengthAdjust="spacing" textLength="71.1963" x="105.9111" y="316.292">Habilitada</text></g><g id="inhabilitada"><rect fill="#F1F1F1" height="50" rx="12.5" ry="12.5" style="stroke:#181818;stroke-width:0.5;" width="102.5439" x="147.9111" y="425.2969"/><line style="stroke:#181818;stroke-width:0.5;" x1="147.9111" x2="250.455" y1="451.5938" y2="451.5938"/><text fill="#000000" font-family="sans-serif" font-size="14" lengthAdjust="spacing" textLength="82.5439" x="157.9111" y="443.292">Inhabilitada</text></g><!--link no_creado to construccion--><g class="link" data-entity-1="no_creado" data-entity-2="construccion" data-source-line="8" data-uid="lnk2" id="link_no_creado_construccion"><path d="M216.4111,94.3969 C216.4111,116.5369 216.4111,143.1569 216.4111,165.2669" fill="none" id="no_creado-to-construccion" style="stroke:#181818;stroke-width:1;"/><polygon fill="#181818" points="216.4111,171.2669,220.4111,162.2669,216.4111,166.2669,212.4111,162.2669,216.4111,171.2669" style="stroke:#181818;stroke-width:1;"/><text fill="#000000" font-family="sans-serif" font-size="13" lengthAdjust="spacing" textLength="35.731" x="217.4111" y="137.3638">Crear</text></g><!--link construccion to habilitada--><g class="link" data-entity-1="construccion" data-entity-2="habilitada" data-source-line="9" data-uid="lnk3" id="link_construccion_habilitada"><path d="M149.2611,220.5969 C136.1811,228.2969 124.1411,238.3369 116.4111,251.2969 C107.7011,265.8869 111.1967,278.8264 119.7867,293.0964" fill="none" id="construccion-to-habilitada" style="stroke:#181818;stroke-width:1;"/><polygon fill="#181818" points="122.8811,298.2369,121.6665,288.4632,120.3024,293.9531,114.8125,292.589,122.8811,298.2369" style="stroke:#181818;stroke-width:1;"/><text fill="#000000" font-family="sans-serif" font-size="13" lengthAdjust="spacing" textLength="55.2373" x="117.4111" y="264.3638">Habilitar</text></g><!--link habilitada to construccion--><g class="link" data-entity-1="habilitada" data-entity-2="construccion" data-source-line="14" data-uid="lnk6" id="link_habilitada_construccion"><path d="M158.1711,298.1169 C164.3911,288.8969 171.3911,278.2169 177.4111,268.2969 C186.6711,253.0269 193.5182,240.7313 200.9082,226.8713" fill="none" id="habilitada-to-construccion" style="stroke:#181818;stroke-width:1;"/><polygon fill="#181818" points="203.7311,221.5769,195.9671,227.6366,201.3787,225.9889,203.0263,231.4005,203.7311,221.5769" style="stroke:#181818;stroke-width:1;"/><text fill="#000000" font-family="sans-serif" font-size="13" lengthAdjust="spacing" textLength="38.4858" x="187.4111" y="264.3638">Editar</text></g><!--link habilitada to inhabilitada--><g class="link" data-entity-1="habilitada" data-entity-2="inhabilitada" data-source-line="11" data-uid="lnk4" id="link_habilitada_inhabilitada"><path d="M97.0211,348.5769 C79.2711,361.5769 65.3511,378.3669 76.4111,395.2969 C92.2211,419.5069 115.7997,431.2964 141.8697,438.7064" fill="none" id="habilitada-to-inhabilitada" style="stroke:#181818;stroke-width:1;"/><polygon fill="#181818" points="147.6411,440.3469,140.0776,434.0386,142.8316,438.9798,137.8904,441.7338,147.6411,440.3469" style="stroke:#181818;stroke-width:1;"/><text fill="#000000" font-family="sans-serif" font-size="13" lengthAdjust="spacing" textLength="78.4824" x="77.4111" y="391.3638">Deshabilitar</text></g><!--link inhabilitada to habilitada--><g class="link" data-entity-1="inhabilitada" data-entity-2="habilitada" data-source-line="12" data-uid="lnk5" id="link_inhabilitada_habilitada"><path d="M188.2611,425.2669 C178.0011,403.1569 165.3859,375.9798 155.1159,353.8398" fill="none" id="inhabilitada-to-habilitada" style="stroke:#181818;stroke-width:1;"/><polygon fill="#181818" points="152.5911,348.3969,152.7497,358.2445,154.6951,352.9326,160.0069,354.8781,152.5911,348.3969" style="stroke:#181818;stroke-width:1;"/><text fill="#000000" font-family="sans-serif" font-size="13" lengthAdjust="spacing" textLength="55.2373" x="175.4111" y="391.3638">Habilitar</text></g><!--link inhabilitada to construccion--><g class="link" data-entity-1="inhabilitada" data-entity-2="construccion" data-source-line="15" data-uid="lnk7" id="link_inhabilitada_construccion"><path d="M222.4311,425.1169 C229.2611,416.3969 235.8611,406.0469 239.4111,395.2969 C259.3111,334.9969 240.8273,265.0756 227.6573,227.1056" fill="none" id="inhabilitada-to-construccion" style="stroke:#181818;stroke-width:1;"/><polygon fill="#181818" points="225.6911,221.4369,224.8613,231.2507,227.3296,226.1608,232.4195,228.6291,225.6911,221.4369" style="stroke:#181818;stroke-width:1;"/><text fill="#000000" font-family="sans-serif" font-size="13" lengthAdjust="spacing" textLength="38.4858" x="249.4111" y="327.8638">Editar</text></g><!--SRC=[bOun2iCm54Dtdq9apmKoT4aCxL9wW_9hcyIGVeFjdAn7wCNg6EB69Kj7IGz9qSRPOB0qUdeIj84CaRGBQ24vMaqQDs_6XIC9aQ9eq5mTUcyIrO02sDrLLjXooUWTX-WNfUpxnHbJnN5So3Czx6pJ86LcAd83BZpLYDqP4E8xthQdUgFB9xsep9NQ5NJO7dWXTlwALKiT1XEcmbRP7vq_1wK-RZl4FW00]--></g></svg>