<svg xmlns="http://www.w3.org/2000/svg" xmlns:xlink="http://www.w3.org/1999/xlink" contentStyleType="text/css" data-diagram-type="STATE" height="660px" preserveAspectRatio="none" style="width:349px;height:660px;background:#FFFFFF;" version="1.1" viewBox="0 0 349 660" width="349px" zoomAndPan="magnify"><title>Diagrama de Estados - Entidad Pregunta</title><defs/><g><g class="title" data-source-line="1"><text fill="#000000" font-family="sans-serif" font-size="14" font-weight="bold" lengthAdjust="spacing" textLength="321.248" x="10" y="22.9951">Diagrama de Estados - Entidad Pregunta</text></g><g id="no_creado"><rect fill="#F1F1F1" height="50" rx="12.5" ry="12.5" style="stroke:#181818;stroke-width:0.5;" width="93.6641" x="133.7124" y="124.2969"/><line style="stroke:#181818;stroke-width:0.5;" x1="133.7124" x2="227.3764" y1="150.5938" y2="150.5938"/><text fill="#000000" font-family="sans-serif" font-size="14" lengthAdjust="spacing" textLength="73.6641" x="143.7124" y="142.292">No Creado</text></g><g id="construccion"><rect fill="#F1F1F1" height="50" rx="12.5" ry="12.5" style="stroke:#181818;stroke-width:0.5;" width="133.5176" x="113.7124" y="251.2969"/><line style="stroke:#181818;stroke-width:0.5;" x1="113.7124" x2="247.2299" y1="277.5938" y2="277.5938"/><text fill="#000000" font-family="sans-serif" font-size="14" lengthAdjust="spacing" textLength="113.5176" x="123.7124" y="269.292">En Construcci&#243;n</text></g><g id="habilitada"><rect fill="#F1F1F1" height="50" rx="12.5" ry="12.5" style="stroke:#181818;stroke-width:0.5;" width="91.1963" x="135.2124" y="378.2969"/><line style="stroke:#181818;stroke-width:0.5;" x1="135.2124" x2="226.4087" y1="404.5938" y2="404.5938"/><text fill="#000000" font-family="sans-serif" font-size="14" lengthAdjust="spacing" textLength="71.1963" x="145.2124" y="396.292">Habilitada</text></g><g id="inhabilitada"><rect fill="#F1F1F1" height="50" rx="12.5" ry="12.5" style="stroke:#181818;stroke-width:0.5;" width="102.5439" x="87.2124" y="505.2969"/><line style="stroke:#181818;stroke-width:0.5;" x1="87.2124" x2="189.7563" y1="531.5938" y2="531.5938"/><text fill="#000000" font-family="sans-serif" font-size="14" lengthAdjust="spacing" textLength="82.5439" x="97.2124" y="523.292">Inhabilitada</text></g><ellipse cx="180.7124" cy="53.2969" fill="#222222" rx="10" ry="10" style="stroke:#222222;stroke-width:1;"/><ellipse cx="199.7124" cy="643.2969" fill="none" rx="11" ry="11" style="stroke:#222222;stroke-width:1;"/><ellipse cx="199.7124" cy="643.2969" fill="#222222" rx="6" ry="6" style="stroke:#222222;stroke-width:1;"/><!--link *start* to no_creado--><g class="link" data-entity-1=".start." data-entity-2="no_creado" data-source-line="8" data-uid="lnk3" id="link_.start._no_creado"><path d="M180.7124,63.3069 C180.7124,77.1869 180.7124,98.2669 180.7124,118.1369" fill="none" id="*start*-to-no_creado" style="stroke:#181818;stroke-width:1;"/><polygon fill="#181818" points="180.7124,124.1369,184.7124,115.1369,180.7124,119.1369,176.7124,115.1369,180.7124,124.1369" style="stroke:#181818;stroke-width:1;"/></g><!--link no_creado to construccion--><g class="link" data-entity-1="no_creado" data-entity-2="construccion" data-source-line="10" data-uid="lnk4" id="link_no_creado_construccion"><path d="M180.7124,174.3969 C180.7124,196.5369 180.7124,223.1569 180.7124,245.2669" fill="none" id="no_creado-to-construccion" style="stroke:#181818;stroke-width:1;"/><polygon fill="#181818" points="180.7124,251.2669,184.7124,242.2669,180.7124,246.2669,176.7124,242.2669,180.7124,251.2669" style="stroke:#181818;stroke-width:1;"/><text fill="#000000" font-family="sans-serif" font-size="13" lengthAdjust="spacing" textLength="35.731" x="181.7124" y="217.3638">Crear</text></g><!--link construccion to habilitada--><g class="link" data-entity-1="construccion" data-entity-2="habilitada" data-source-line="11" data-uid="lnk5" id="link_construccion_habilitada"><path d="M180.7124,301.3969 C180.7124,323.5369 180.7124,350.1569 180.7124,372.2669" fill="none" id="construccion-to-habilitada" style="stroke:#181818;stroke-width:1;"/><polygon fill="#181818" points="180.7124,378.2669,184.7124,369.2669,180.7124,373.2669,176.7124,369.2669,180.7124,378.2669" style="stroke:#181818;stroke-width:1;"/><text fill="#000000" font-family="sans-serif" font-size="13" lengthAdjust="spacing" textLength="55.2373" x="181.7124" y="344.3638">Habilitar</text></g><!--link habilitada to inhabilitada--><g class="link" data-entity-1="habilitada" data-entity-2="inhabilitada" data-source-line="13" data-uid="lnk6" id="link_habilitada_inhabilitada"><path d="M135.1824,411.5769 C107.7024,418.5669 74.8024,432.1369 57.7124,458.2969 C44.8824,477.9469 58.8522,492.4924 81.7722,505.1724" fill="none" id="habilitada-to-inhabilitada" style="stroke:#181818;stroke-width:1;"/><polygon fill="#181818" points="87.0224,508.0769,81.0835,500.22,82.6473,505.6564,77.2108,507.2202,87.0224,508.0769" style="stroke:#181818;stroke-width:1;"/><text fill="#000000" font-family="sans-serif" font-size="13" lengthAdjust="spacing" textLength="78.4824" x="58.7124" y="471.3638">Deshabilitar</text></g><!--link inhabilitada to habilitada--><g class="link" data-entity-1="inhabilitada" data-entity-2="habilitada" data-source-line="14" data-uid="lnk7" id="link_inhabilitada_habilitada"><path d="M146.7924,505.2669 C154.2224,483.1569 163.2711,456.2243 170.7111,434.0843" fill="none" id="inhabilitada-to-habilitada" style="stroke:#181818;stroke-width:1;"/><polygon fill="#181818" points="172.6224,428.3969,165.9639,435.6539,171.0297,433.1364,173.5472,438.2022,172.6224,428.3969" style="stroke:#181818;stroke-width:1;"/><text fill="#000000" font-family="sans-serif" font-size="13" lengthAdjust="spacing" textLength="55.2373" x="163.7124" y="471.3638">Habilitar</text></g><!--link habilitada to *end*--><g class="link" data-entity-1="habilitada" data-entity-2=".end." data-source-line="16" data-uid="lnk9" id="link_habilitada_.end."><path d="M207.3824,428.3369 C215.2824,436.9769 223.0524,447.3169 227.7124,458.2969 C252.7924,517.3869 262.9024,542.8469 238.7124,602.2969 C232.6524,617.2069 222.916,626.0834 213.406,632.9534" fill="none" id="habilitada-to-*end*" style="stroke:#181818;stroke-width:1;"/><polygon fill="#181818" points="208.5424,636.4669,218.1802,634.4391,212.5954,633.539,213.4955,627.9542,208.5424,636.4669" style="stroke:#181818;stroke-width:1;"/><text fill="#000000" font-family="sans-serif" font-size="13" lengthAdjust="spacing" textLength="54.6533" x="253.7124" y="534.8638">Finalizar</text></g><!--link inhabilitada to *end*--><g class="link" data-entity-1="inhabilitada" data-entity-2=".end." data-source-line="17" data-uid="lnk10" id="link_inhabilitada_.end."><path d="M151.9524,555.3869 C165.4024,579.8669 182.6519,611.259 191.8819,628.049" fill="none" id="inhabilitada-to-*end*" style="stroke:#181818;stroke-width:1;"/><polygon fill="#181818" points="194.7724,633.3069,193.942,623.4931,192.3637,628.9253,186.9315,627.347,194.7724,633.3069" style="stroke:#181818;stroke-width:1;"/><text fill="#000000" font-family="sans-serif" font-size="13" lengthAdjust="spacing" textLength="54.6533" x="177.7124" y="598.3638">Finalizar</text></g><!--SRC=[bO-z2i9048JxVOh1KiWBfB198jg8lOYioP4in3sukpI-be_WYva4ydDYOxap7pEpGK9ha0lNZX-Cog3mWIlhaQ3G81LNE3jJTngOgBU2mUPaaJdJKnkmXzfRELwO_4AHMVN1TMKfxvUEM3ahLcVom7TffI_aaMdcSmAEsiI8h0GGNRPN9Cbk6K6qx1cCg3OTTpkAn85QPQQOHZcYbJvWKNcAtFXcPYFlZypXWnHxKMxb-Ild2_W0]--></g></svg>