<svg xmlns="http://www.w3.org/2000/svg" xmlns:xlink="http://www.w3.org/1999/xlink" contentStyleType="text/css" data-diagram-type="STATE" height="696px" preserveAspectRatio="none" style="width:852px;height:696px;background:#FFFFFF;" version="1.1" viewBox="0 0 852 696" width="852px" zoomAndPan="magnify"><defs/><g><path d="M19.5,7 L826.5,7 A12.5,12.5 0 0 1 839,19.5 L839,33.2969 L7,33.2969 L7,19.5 A12.5,12.5 0 0 1 19.5,7" fill="#F1F1F1"/><rect fill="none" height="573.2969" rx="12.5" ry="12.5" style="stroke:#181818;stroke-width:0.5;" width="832" x="7" y="7"/><line style="stroke:#181818;stroke-width:0.5;" x1="7" x2="839" y1="33.2969" y2="33.2969"/><text fill="#000000" font-family="sans-serif" font-size="14" lengthAdjust="spacing" textLength="212.666" x="316.667" y="24.9951">exportarConfiguracionGlobal()</text><g id="exportarConfiguracionGlobal.RequiringGlobalConfigurationExport"><rect fill="#F1F1F1" height="50" rx="12.5" ry="12.5" style="stroke:#181818;stroke-width:0.5;" width="50" x="202" y="166.2969"/><line style="stroke:#181818;stroke-width:0.5;" x1="202" x2="252" y1="192.5938" y2="192.5938"/><text fill="#000000" font-family="sans-serif" font-size="14" lengthAdjust="spacing" textLength="4.4502" x="224.7749" y="184.292">&#160;</text></g><g id="exportarConfiguracionGlobal.ProvidingGlobalConfiguration"><rect fill="#F1F1F1" height="50" rx="12.5" ry="12.5" style="stroke:#181818;stroke-width:0.5;" width="50" x="202" y="302.2969"/><line style="stroke:#181818;stroke-width:0.5;" x1="202" x2="252" y1="328.5938" y2="328.5938"/><text fill="#000000" font-family="sans-serif" font-size="14" lengthAdjust="spacing" textLength="4.4502" x="224.7749" y="320.292">&#160;</text></g><g id="exportarConfiguracionGlobal.ProvidingConfirmation"><rect fill="#F1F1F1" height="50" rx="12.5" ry="12.5" style="stroke:#181818;stroke-width:0.5;" width="50" x="255" y="45.2969"/><line style="stroke:#181818;stroke-width:0.5;" x1="255" x2="305" y1="71.5938" y2="71.5938"/><text fill="#000000" font-family="sans-serif" font-size="14" lengthAdjust="spacing" textLength="4.4502" x="277.7749" y="63.292">&#160;</text></g><g class="entity" data-entity="c" data-uid="ent0006" id="entity_c"><polygon fill="#F1F1F1" points="227,453.2969,239,465.2969,227,477.2969,215,465.2969,227,453.2969" style="stroke:#181818;stroke-width:0.5;"/></g><ellipse cx="227" cy="70.2969" fill="#222222" rx="10" ry="10" style="stroke:#222222;stroke-width:1;"/><ellipse cx="227" cy="559.2969" fill="none" rx="11" ry="11" style="stroke:#222222;stroke-width:1;"/><ellipse cx="227" cy="559.2969" fill="#222222" rx="6" ry="6" style="stroke:#222222;stroke-width:1;"/><!--link *start*exportarConfiguracionGlobal to RequiringGlobalConfigurationExport--><g class="link" data-entity-1=".start.exportarConfiguracionGlobal" data-entity-2="RequiringGlobalConfigurationExport" data-source-line="10" data-uid="lnk3" id="link_.start.exportarConfiguracionGlobal_RequiringGlobalConfigurationExport"><path d="M227,80.6369 C227,98.8269 227,133.5369 227,159.9069" fill="none" id="*start*exportarConfiguracionGlobal-to-RequiringGlobalConfigurationExport" style="stroke:#008000;stroke-width:1;"/><polygon fill="#008000" points="227,165.9069,231,156.9069,227,160.9069,223,156.9069,227,165.9069" style="stroke:#008000;stroke-width:1;"/><path d="M232,118.2969 L232,143.2969 L559,143.2969 L559,128.2969 L549,118.2969 L232,118.2969" fill="#FEFFDD" style="stroke:#181818;stroke-width:0.5;"/><path d="M549,118.2969 L549,128.2969 L559,128.2969 L549,118.2969" fill="#FEFFDD" style="stroke:#181818;stroke-width:0.5;"/><text fill="#000000" font-family="sans-serif" font-size="13" font-weight="bold" lengthAdjust="spacing" textLength="60.5313" x="238" y="135.3638">Docente</text><text fill="#000000" font-family="sans-serif" font-size="13" lengthAdjust="spacing" textLength="241.7505" x="302.6636" y="135.3638">solicita exportar configuraci&#243;n global</text></g><!--link RequiringGlobalConfigurationExport to ProvidingGlobalConfiguration--><g class="link" data-entity-1="RequiringGlobalConfigurationExport" data-entity-2="ProvidingGlobalConfiguration" data-source-line="15" data-uid="lnk4" id="link_RequiringGlobalConfigurationExport_ProvidingGlobalConfiguration"><path d="M227,216.5669 C227,240.8469 227,271.9869 227,296.2069" fill="none" id="RequiringGlobalConfigurationExport-to-ProvidingGlobalConfiguration" style="stroke:#008000;stroke-width:1;"/><polygon fill="#008000" points="227,302.2069,231,293.2069,227,297.2069,223,293.2069,227,302.2069" style="stroke:#008000;stroke-width:1;"/><path d="M232,239.2969 L232,279.2969 L426,279.2969 L426,249.2969 L416,239.2969 L232,239.2969" fill="#FEFFDD" style="stroke:#181818;stroke-width:0.5;"/><path d="M416,239.2969 L416,249.2969 L426,249.2969 L416,239.2969" fill="#FEFFDD" style="stroke:#181818;stroke-width:0.5;"/><text fill="#000000" font-family="sans-serif" font-size="13" font-weight="bold" lengthAdjust="spacing" textLength="58.9063" x="238" y="256.3638">Sistema</text><text fill="#000000" font-family="sans-serif" font-size="13" lengthAdjust="spacing" textLength="110.7476" x="301.0386" y="256.3638">permite exportar</text><text fill="#000000" font-family="sans-serif" font-size="13" lengthAdjust="spacing" textLength="143.8633" x="238" y="271.4966">&#8226; configuraci&#243;n global</text></g><!--link ProvidingGlobalConfiguration to c--><g class="link" data-entity-1="ProvidingGlobalConfiguration" data-entity-2="c" data-source-line="21" data-uid="lnk5" id="link_ProvidingGlobalConfiguration_c"><path d="M201.79,333.3669 C146.2,344.5369 18,370.2969 18,370.2969 C18,370.2969 18,435.2969 18,435.2969 C18,435.2969 169.9369,456.3827 211.2569,462.1127" fill="none" id="ProvidingGlobalConfiguration-to-c" style="stroke:#008000;stroke-width:1;"/><polygon fill="#008000" points="217.2,462.9369,208.8347,457.7386,212.2474,462.2501,207.7359,465.6627,217.2,462.9369" style="stroke:#008000;stroke-width:1;"/><path d="M23,375.2969 L23,430.2969 L200,430.2969 L200,385.2969 L190,375.2969 L23,375.2969" fill="#FEFFDD" style="stroke:#181818;stroke-width:0.5;"/><path d="M190,375.2969 L190,385.2969 L200,385.2969 L190,375.2969" fill="#FEFFDD" style="stroke:#181818;stroke-width:0.5;"/><text fill="#000000" font-family="sans-serif" font-size="13" font-weight="bold" lengthAdjust="spacing" textLength="60.5313" x="29" y="392.3638">Docente</text><text fill="#000000" font-family="sans-serif" font-size="13" lengthAdjust="spacing" textLength="45.7729" x="93.6636" y="392.3638">solicita</text><text fill="#000000" font-family="sans-serif" font-size="13" lengthAdjust="spacing" textLength="156.0381" x="29" y="407.4966">&#8226; confirmar exportaci&#243;n</text><text fill="#000000" font-family="sans-serif" font-size="13" lengthAdjust="spacing" textLength="148.6113" x="29" y="422.6294">&#8226; cancelar exportaci&#243;n</text></g><!--link c to ProvidingGlobalConfiguration--><g class="link" data-entity-1="c" data-entity-2="ProvidingGlobalConfiguration" data-source-line="28" data-uid="lnk6" id="link_c_ProvidingGlobalConfiguration"><path d="M227,452.9769 C227,430.9469 227,387.8869 227,358.2969" fill="none" id="c-to-ProvidingGlobalConfiguration" style="stroke:#FF0000;stroke-width:1;"/><polygon fill="#FF0000" points="227,352.2969,223,361.2969,227,357.2969,231,361.2969,227,352.2969" style="stroke:#FF0000;stroke-width:1;"/><path d="M232,390.2969 L232,415.2969 L443,415.2969 L443,400.2969 L433,390.2969 L232,390.2969" fill="#FEFFDD" style="stroke:#181818;stroke-width:0.5;"/><path d="M433,390.2969 L433,400.2969 L443,400.2969 L433,390.2969" fill="#FEFFDD" style="stroke:#181818;stroke-width:0.5;"/><text fill="#000000" font-family="sans-serif" font-size="13" lengthAdjust="spacing" textLength="190.0425" x="238" y="407.3638">Docente cancela exportaci&#243;n</text></g><!--link c to ProvidingGlobalConfiguration--><g class="link" data-entity-1="c" data-entity-2="ProvidingGlobalConfiguration" data-source-line="33" data-uid="lnk7" id="link_c_ProvidingGlobalConfiguration"><path d="M236.83,463.0169 C279.79,457.3969 449,435.2969 449,435.2969 C449,435.2969 449,370.2969 449,370.2969 C449,370.2969 315.9855,345.1318 257.9255,334.1518" fill="none" id="c-to-ProvidingGlobalConfiguration-1" style="stroke:#FF0000;stroke-width:1;"/><polygon fill="#FF0000" points="252.03,333.0369,260.13,338.6396,256.9429,333.966,261.6165,330.7789,252.03,333.0369" style="stroke:#FF0000;stroke-width:1;"/><path d="M454,390.2969 L454,415.2969 L830,415.2969 L830,400.2969 L820,390.2969 L454,390.2969" fill="#FEFFDD" style="stroke:#181818;stroke-width:0.5;"/><path d="M820,390.2969 L820,400.2969 L830,400.2969 L820,390.2969" fill="#FEFFDD" style="stroke:#181818;stroke-width:0.5;"/><text fill="#000000" font-family="sans-serif" font-size="13" lengthAdjust="spacing" textLength="355.437" x="460" y="407.3638">Docente confirma exportaci&#243;n: error en la exportaci&#243;n</text></g><!--link c to *end*exportarConfiguracionGlobal--><g class="link" data-entity-1="c" data-entity-2=".end.exportarConfiguracionGlobal" data-source-line="38" data-uid="lnk9" id="link_c_.end.exportarConfiguracionGlobal"><path d="M227,477.5769 C227,495.6169 227,524.6969 227,542.0569" fill="none" id="c-to-*end*exportarConfiguracionGlobal" style="stroke:#008000;stroke-width:1;"/><polygon fill="#008000" points="227,548.0569,231,539.0569,227,543.0569,223,539.0569,227,548.0569" style="stroke:#008000;stroke-width:1;"/><path d="M232,500.2969 L232,525.2969 L587,525.2969 L587,510.2969 L577,500.2969 L232,500.2969" fill="#FEFFDD" style="stroke:#181818;stroke-width:0.5;"/><path d="M577,500.2969 L577,510.2969 L587,510.2969 L577,500.2969" fill="#FEFFDD" style="stroke:#181818;stroke-width:0.5;"/><text fill="#000000" font-family="sans-serif" font-size="13" lengthAdjust="spacing" textLength="334.4644" x="238" y="517.3638">Docente confirma exportaci&#243;n: exportaci&#243;n exitosa</text></g><g id="SISTEMA_DISPONIBLE"><rect fill="#F1F1F1" height="50" rx="12.5" ry="12.5" style="stroke:#181818;stroke-width:0.5;" width="172.0654" x="337" y="640"/><line style="stroke:#181818;stroke-width:0.5;" x1="337" x2="509.0654" y1="666.2969" y2="666.2969"/><text fill="#000000" font-family="sans-serif" font-size="14" lengthAdjust="spacing" textLength="152.0654" x="347" y="657.9951">SISTEMA_DISPONIBLE</text></g><!--link SISTEMA_DISPONIBLE to exportarConfiguracionGlobal--><g class="link" data-entity-1="SISTEMA_DISPONIBLE" data-entity-2="exportarConfiguracionGlobal" data-source-line="44" data-uid="lnk11" id="link_SISTEMA_DISPONIBLE_exportarConfiguracionGlobal"><path d="M430.09,639.97 C431.99,625.12 433.2093,610.2843 434.2593,586.1443" fill="none" id="SISTEMA_DISPONIBLE-to-exportarConfiguracionGlobal" style="stroke:#008000;stroke-width:1;"/><polygon fill="#008000" points="434.52,580.15,430.1327,588.9677,434.3027,585.1453,438.1251,589.3153,434.52,580.15" style="stroke:#008000;stroke-width:1;"/></g><!--link exportarConfiguracionGlobal to SISTEMA_DISPONIBLE--><g class="link" data-entity-1="exportarConfiguracionGlobal" data-entity-2="SISTEMA_DISPONIBLE" data-source-line="46" data-uid="lnk12" id="link_exportarConfiguracionGlobal_SISTEMA_DISPONIBLE"><path d="M412.12,580.15 C413.11,604.29 413.792,619.1631 415.582,634.0131" fill="none" id="exportarConfiguracionGlobal-to-SISTEMA_DISPONIBLE" style="stroke:#008000;stroke-width:1;"/><polygon fill="#008000" points="416.3,639.97,419.1942,630.556,415.7016,635.0059,411.2517,631.5134,416.3,639.97" style="stroke:#008000;stroke-width:1;"/></g><!--SRC=[hPHVIiD04CRVznH3VL6X-2uXeBP8mJ_5-5QARBVJE3JPYPkjM4JmB5x18tWJJ-9sqwQDBMajRY0mcVdc- -ris7nCEfD6ff2GHZlD439EfhD0YDnAYu0l6HihpGNh4SKJ8nMnlanu81EGEJHgyeT73NWL0jmgUZNSupHt-3GXGpekoagbTSgsRxUkwHf-fk5cJKsrhpFfxp85GQ0UcHI6OG7OE-v3itSG6qJTRuQxCcfstLZFnZVs7u91s6A5sc9mCWWXvuGKMLcE4THoJb-V6cBVtajH3uj-RedojHsamhrrJfk88yejfj8JPsXIMZbtN_Fz_h43-1AwZgA2g_uqnIgBErQpmFHCoxJK2fDDsNLKDUCnEDnlU7FAXMEDuN-QpNTVSJi5D8RTbfrWDuxo4Do_lv_XIkG2ifpBgjcR454dkczVdpsqEb7tzgPpVjMkUDTS7qBKtJshJTOzVW00]--></g></svg>