<svg xmlns="http://www.w3.org/2000/svg" xmlns:xlink="http://www.w3.org/1999/xlink" contentStyleType="text/css" data-diagram-type="STATE" height="851px" preserveAspectRatio="none" style="width:852px;height:851px;background:#FFFFFF;" version="1.1" viewBox="0 0 852 851" width="852px" zoomAndPan="magnify"><defs/><g><g id="SISTEMA_DISPONIBLE2"><rect fill="#F1F1F1" height="50" rx="12.5" ry="12.5" style="stroke:#181818;stroke-width:0.5;" width="172.0654" x="337" y="795"/><line style="stroke:#181818;stroke-width:0.5;" x1="337" x2="509.0654" y1="821.2969" y2="821.2969"/><text fill="#000000" font-family="sans-serif" font-size="14" lengthAdjust="spacing" textLength="152.0654" x="347" y="812.9951">SISTEMA_DISPONIBLE</text></g><path d="M19.5,117 L826.5,117 A12.5,12.5 0 0 1 839,129.5 L839,143.2969 L7,143.2969 L7,129.5 A12.5,12.5 0 0 1 19.5,117" fill="#F1F1F1"/><rect fill="none" height="618.2969" rx="12.5" ry="12.5" style="stroke:#181818;stroke-width:0.5;" width="832" x="7" y="117"/><line style="stroke:#181818;stroke-width:0.5;" x1="7" x2="839" y1="143.2969" y2="143.2969"/><text fill="#000000" font-family="sans-serif" font-size="14" lengthAdjust="spacing" textLength="212.666" x="316.667" y="134.9951">exportarConfiguracionGlobal()</text><g id="exportarConfiguracionGlobal.RequiringGlobalConfigurationExport"><rect fill="#F1F1F1" height="50" rx="12.5" ry="12.5" style="stroke:#181818;stroke-width:0.5;" width="50" x="202" y="276.2969"/><line style="stroke:#181818;stroke-width:0.5;" x1="202" x2="252" y1="302.5938" y2="302.5938"/><text fill="#000000" font-family="sans-serif" font-size="14" lengthAdjust="spacing" textLength="4.4502" x="224.7749" y="294.292">&#160;</text></g><g id="exportarConfiguracionGlobal.ProvidingGlobalConfiguration"><rect fill="#F1F1F1" height="50" rx="12.5" ry="12.5" style="stroke:#181818;stroke-width:0.5;" width="50" x="202" y="457.2969"/><line style="stroke:#181818;stroke-width:0.5;" x1="202" x2="252" y1="483.5938" y2="483.5938"/><text fill="#000000" font-family="sans-serif" font-size="14" lengthAdjust="spacing" textLength="4.4502" x="224.7749" y="475.292">&#160;</text></g><g id="exportarConfiguracionGlobal.ProvidingConfirmation"><rect fill="#F1F1F1" height="50" rx="12.5" ry="12.5" style="stroke:#181818;stroke-width:0.5;" width="50" x="255" y="155.2969"/><line style="stroke:#181818;stroke-width:0.5;" x1="255" x2="305" y1="181.5938" y2="181.5938"/><text fill="#000000" font-family="sans-serif" font-size="14" lengthAdjust="spacing" textLength="4.4502" x="277.7749" y="173.292">&#160;</text></g><g class="entity" data-entity="c" data-uid="ent0007" id="entity_c"><polygon fill="#F1F1F1" points="227,608.2969,239,620.2969,227,632.2969,215,620.2969,227,608.2969" style="stroke:#181818;stroke-width:0.5;"/></g><ellipse cx="227" cy="180.2969" fill="#222222" rx="10" ry="10" style="stroke:#222222;stroke-width:1;"/><ellipse cx="227" cy="714.2969" fill="none" rx="11" ry="11" style="stroke:#222222;stroke-width:1;"/><ellipse cx="227" cy="714.2969" fill="#222222" rx="6" ry="6" style="stroke:#222222;stroke-width:1;"/><!--link *start*exportarConfiguracionGlobal to RequiringGlobalConfigurationExport--><g class="link" data-entity-1=".start.exportarConfiguracionGlobal" data-entity-2="RequiringGlobalConfigurationExport" data-source-line="12" data-uid="lnk3" id="link_.start.exportarConfiguracionGlobal_RequiringGlobalConfigurationExport"><path d="M227,190.6369 C227,208.8269 227,243.5369 227,269.9069" fill="none" id="*start*exportarConfiguracionGlobal-to-RequiringGlobalConfigurationExport" style="stroke:#008000;stroke-width:1;"/><polygon fill="#008000" points="227,275.9069,231,266.9069,227,270.9069,223,266.9069,227,275.9069" style="stroke:#008000;stroke-width:1;"/><path d="M232,228.2969 L232,253.2969 L559,253.2969 L559,238.2969 L549,228.2969 L232,228.2969" fill="#FEFFDD" style="stroke:#181818;stroke-width:0.5;"/><path d="M549,228.2969 L549,238.2969 L559,238.2969 L549,228.2969" fill="#FEFFDD" style="stroke:#181818;stroke-width:0.5;"/><text fill="#000000" font-family="sans-serif" font-size="13" font-weight="bold" lengthAdjust="spacing" textLength="60.5313" x="238" y="245.3638">Docente</text><text fill="#000000" font-family="sans-serif" font-size="13" lengthAdjust="spacing" textLength="241.7505" x="302.6636" y="245.3638">solicita exportar configuraci&#243;n global</text></g><!--link RequiringGlobalConfigurationExport to ProvidingGlobalConfiguration--><g class="link" data-entity-1="RequiringGlobalConfigurationExport" data-entity-2="ProvidingGlobalConfiguration" data-source-line="17" data-uid="lnk4" id="link_RequiringGlobalConfigurationExport_ProvidingGlobalConfiguration"><path d="M227,326.4369 C227,360.6969 227,417.0469 227,451.2569" fill="none" id="RequiringGlobalConfigurationExport-to-ProvidingGlobalConfiguration" style="stroke:#008000;stroke-width:1;"/><polygon fill="#008000" points="227,457.2569,231,448.2569,227,452.2569,223,448.2569,227,457.2569" style="stroke:#008000;stroke-width:1;"/><path d="M232,349.2969 L232,434.2969 L426,434.2969 L426,359.2969 L416,349.2969 L232,349.2969" fill="#FEFFDD" style="stroke:#181818;stroke-width:0.5;"/><path d="M416,349.2969 L416,359.2969 L426,359.2969 L416,349.2969" fill="#FEFFDD" style="stroke:#181818;stroke-width:0.5;"/><text fill="#000000" font-family="sans-serif" font-size="13" font-weight="bold" lengthAdjust="spacing" textLength="58.9063" x="238" y="366.3638">Sistema</text><text fill="#000000" font-family="sans-serif" font-size="13" lengthAdjust="spacing" textLength="110.7476" x="301.0386" y="366.3638">permite exportar</text><text fill="#000000" font-family="sans-serif" font-size="13" lengthAdjust="spacing" textLength="67.2471" x="238" y="381.4966">&#8226; alumnos</text><text fill="#000000" font-family="sans-serif" font-size="13" lengthAdjust="spacing" textLength="56.3418" x="238" y="396.6294">&#8226; grados</text><text fill="#000000" font-family="sans-serif" font-size="13" lengthAdjust="spacing" textLength="88.0293" x="238" y="411.7622">&#8226; asignaturas</text><text fill="#000000" font-family="sans-serif" font-size="13" lengthAdjust="spacing" textLength="77.9619" x="238" y="426.895">&#8226; preguntas</text></g><!--link ProvidingGlobalConfiguration to c--><g class="link" data-entity-1="ProvidingGlobalConfiguration" data-entity-2="c" data-source-line="26" data-uid="lnk5" id="link_ProvidingGlobalConfiguration_c"><path d="M201.79,488.3669 C146.2,499.5369 18,525.2969 18,525.2969 C18,525.2969 18,590.2969 18,590.2969 C18,590.2969 169.9369,611.3827 211.2569,617.1127" fill="none" id="ProvidingGlobalConfiguration-to-c" style="stroke:#008000;stroke-width:1;"/><polygon fill="#008000" points="217.2,617.9369,208.8347,612.7386,212.2474,617.2501,207.7359,620.6627,217.2,617.9369" style="stroke:#008000;stroke-width:1;"/><path d="M23,530.2969 L23,585.2969 L200,585.2969 L200,540.2969 L190,530.2969 L23,530.2969" fill="#FEFFDD" style="stroke:#181818;stroke-width:0.5;"/><path d="M190,530.2969 L190,540.2969 L200,540.2969 L190,530.2969" fill="#FEFFDD" style="stroke:#181818;stroke-width:0.5;"/><text fill="#000000" font-family="sans-serif" font-size="13" font-weight="bold" lengthAdjust="spacing" textLength="60.5313" x="29" y="547.3638">Docente</text><text fill="#000000" font-family="sans-serif" font-size="13" lengthAdjust="spacing" textLength="45.7729" x="93.6636" y="547.3638">solicita</text><text fill="#000000" font-family="sans-serif" font-size="13" lengthAdjust="spacing" textLength="156.0381" x="29" y="562.4966">&#8226; confirmar exportaci&#243;n</text><text fill="#000000" font-family="sans-serif" font-size="13" lengthAdjust="spacing" textLength="148.6113" x="29" y="577.6294">&#8226; cancelar exportaci&#243;n</text></g><!--link c to ProvidingGlobalConfiguration--><g class="link" data-entity-1="c" data-entity-2="ProvidingGlobalConfiguration" data-source-line="33" data-uid="lnk6" id="link_c_ProvidingGlobalConfiguration"><path d="M227,607.9769 C227,585.9469 227,542.8869 227,513.2969" fill="none" id="c-to-ProvidingGlobalConfiguration" style="stroke:#FF0000;stroke-width:1;"/><polygon fill="#FF0000" points="227,507.2969,223,516.2969,227,512.2969,231,516.2969,227,507.2969" style="stroke:#FF0000;stroke-width:1;"/><path d="M232,545.2969 L232,570.2969 L443,570.2969 L443,555.2969 L433,545.2969 L232,545.2969" fill="#FEFFDD" style="stroke:#181818;stroke-width:0.5;"/><path d="M433,545.2969 L433,555.2969 L443,555.2969 L433,545.2969" fill="#FEFFDD" style="stroke:#181818;stroke-width:0.5;"/><text fill="#000000" font-family="sans-serif" font-size="13" lengthAdjust="spacing" textLength="190.0425" x="238" y="562.3638">Docente cancela exportaci&#243;n</text></g><!--link c to ProvidingGlobalConfiguration--><g class="link" data-entity-1="c" data-entity-2="ProvidingGlobalConfiguration" data-source-line="38" data-uid="lnk7" id="link_c_ProvidingGlobalConfiguration"><path d="M236.83,618.0169 C279.79,612.3969 449,590.2969 449,590.2969 C449,590.2969 449,525.2969 449,525.2969 C449,525.2969 315.9855,500.1318 257.9255,489.1518" fill="none" id="c-to-ProvidingGlobalConfiguration-1" style="stroke:#FF0000;stroke-width:1;"/><polygon fill="#FF0000" points="252.03,488.0369,260.13,493.6396,256.9429,488.966,261.6165,485.7789,252.03,488.0369" style="stroke:#FF0000;stroke-width:1;"/><path d="M454,545.2969 L454,570.2969 L830,570.2969 L830,555.2969 L820,545.2969 L454,545.2969" fill="#FEFFDD" style="stroke:#181818;stroke-width:0.5;"/><path d="M820,545.2969 L820,555.2969 L830,555.2969 L820,545.2969" fill="#FEFFDD" style="stroke:#181818;stroke-width:0.5;"/><text fill="#000000" font-family="sans-serif" font-size="13" lengthAdjust="spacing" textLength="355.437" x="460" y="562.3638">Docente confirma exportaci&#243;n: error en la exportaci&#243;n</text></g><!--link c to *end*exportarConfiguracionGlobal--><g class="link" data-entity-1="c" data-entity-2=".end.exportarConfiguracionGlobal" data-source-line="43" data-uid="lnk9" id="link_c_.end.exportarConfiguracionGlobal"><path d="M227,632.5769 C227,650.6169 227,679.6969 227,697.0569" fill="none" id="c-to-*end*exportarConfiguracionGlobal" style="stroke:#008000;stroke-width:1;"/><polygon fill="#008000" points="227,703.0569,231,694.0569,227,698.0569,223,694.0569,227,703.0569" style="stroke:#008000;stroke-width:1;"/><path d="M232,655.2969 L232,680.2969 L587,680.2969 L587,665.2969 L577,655.2969 L232,655.2969" fill="#FEFFDD" style="stroke:#181818;stroke-width:0.5;"/><path d="M577,655.2969 L577,665.2969 L587,665.2969 L577,655.2969" fill="#FEFFDD" style="stroke:#181818;stroke-width:0.5;"/><text fill="#000000" font-family="sans-serif" font-size="13" lengthAdjust="spacing" textLength="334.4644" x="238" y="672.3638">Docente confirma exportaci&#243;n: exportaci&#243;n exitosa</text></g><g id="SISTEMA_DISPONIBLE"><rect fill="#F1F1F1" height="50" rx="12.5" ry="12.5" style="stroke:#181818;stroke-width:0.5;" width="172.0654" x="337" y="7"/><line style="stroke:#181818;stroke-width:0.5;" x1="337" x2="509.0654" y1="33.2969" y2="33.2969"/><text fill="#000000" font-family="sans-serif" font-size="14" lengthAdjust="spacing" textLength="152.0654" x="347" y="24.9951">SISTEMA_DISPONIBLE</text></g><!--link SISTEMA_DISPONIBLE to exportarConfiguracionGlobal--><g class="link" data-entity-1="SISTEMA_DISPONIBLE" data-entity-2="exportarConfiguracionGlobal" data-source-line="49" data-uid="lnk11" id="link_SISTEMA_DISPONIBLE_exportarConfiguracionGlobal"><path d="M423,57.23 C423,72 423,86.65 423,110.71" fill="none" id="SISTEMA_DISPONIBLE-to-exportarConfiguracionGlobal" style="stroke:#008000;stroke-width:1;"/><polygon fill="#008000" points="423,116.71,427,107.71,423,111.71,419,107.71,423,116.71" style="stroke:#008000;stroke-width:1;"/></g><!--link exportarConfiguracionGlobal to SISTEMA_DISPONIBLE2--><g class="link" data-entity-1="exportarConfiguracionGlobal" data-entity-2="SISTEMA_DISPONIBLE2" data-source-line="51" data-uid="lnk12" id="link_exportarConfiguracionGlobal_SISTEMA_DISPONIBLE2"><path d="M423,735.39 C423,759.42 423,774.05 423,788.81" fill="none" id="exportarConfiguracionGlobal-to-SISTEMA_DISPONIBLE2" style="stroke:#008000;stroke-width:1;"/><polygon fill="#008000" points="423,794.81,427,785.81,423,789.81,419,785.81,423,794.81" style="stroke:#008000;stroke-width:1;"/></g><!--SRC=[hLJRIiGm47tFLuJwei8Y-2YbeEuY2ruMwzkoI3OTQzWsgKagBYBuBVw2d-2V-2McwTsMxhhOGc4cS-QSEQ6ZLemdH98OHuo3NYU04n6jim0XfOa6x4_zkydLwVruwizkhgTdbvDZJ1HskdcdXC1B8gGcybpm1nQcab0c-4KabYIoq87p_GC7loA4pPFtSinhCBVmb3B9U9YNLKXja1FRhekPIV7CWdxCGBMja_7lCefTbpuAHi7pSe7pmmKUpVT22S0N8szRZLoORe9dZgzimbrwOq61Qt2FbXvM8cAKQLBPY6djqzSdnw5jRw70WxoVUL3rsIoafNkZJtsAVQOqnCGgJa36h77ljkRx_GEJA8svK5KSIX8qGg9Oo8asL7KkaH2cN1UPShvwjY6nhQdedyok-6bn-xASndfU7nDE8UexxKgbcHu9mMuU5ofBnW72_oGhfc-ndM2GKfYH3M0x7TKbc5zaDy96P0AcXI9jiZU4kXkenJsmPH0QMb7D9ZtRxmS0]--></g></svg>