<svg xmlns="http://www.w3.org/2000/svg" xmlns:xlink="http://www.w3.org/1999/xlink" contentStyleType="text/css" data-diagram-type="STATE" height="786px" preserveAspectRatio="none" style="width:968px;height:786px;background:#FFFFFF;" version="1.1" viewBox="0 0 968 786" width="968px" zoomAndPan="magnify"><defs/><g><path d="M19.5,7 L942.1105,7 A12.5,12.5 0 0 1 954.6105,19.5 L954.6105,33.2969 L7,33.2969 L7,19.5 A12.5,12.5 0 0 1 19.5,7" fill="#F1F1F1"/><rect fill="none" height="663.2969" rx="12.5" ry="12.5" style="stroke:#181818;stroke-width:0.5;" width="947.6105" x="7" y="7"/><line style="stroke:#181818;stroke-width:0.5;" x1="7" x2="954.6105" y1="33.2969" y2="33.2969"/><text fill="#000000" font-family="sans-serif" font-size="14" lengthAdjust="spacing" textLength="142.29" x="409.6602" y="24.9951">importarPreguntas()</text><g id="importarPreguntas.RequiringImport"><rect fill="#F1F1F1" height="50" rx="12.5" ry="12.5" style="stroke:#181818;stroke-width:0.5;" width="50" x="313.6105" y="135.2969"/><line style="stroke:#181818;stroke-width:0.5;" x1="313.6105" x2="363.6105" y1="161.5938" y2="161.5938"/><text fill="#000000" font-family="sans-serif" font-size="14" lengthAdjust="spacing" textLength="4.4502" x="336.3854" y="153.292">&#160;</text></g><g id="importarPreguntas.ProvidingPreguntas"><rect fill="#F1F1F1" height="50" rx="12.5" ry="12.5" style="stroke:#181818;stroke-width:0.5;" width="50" x="313.6105" y="271.2969"/><line style="stroke:#181818;stroke-width:0.5;" x1="313.6105" x2="363.6105" y1="297.5938" y2="297.5938"/><text fill="#000000" font-family="sans-serif" font-size="14" lengthAdjust="spacing" textLength="4.4502" x="336.3854" y="289.292">&#160;</text></g><g id="importarPreguntas.ProvidingConfirmation"><rect fill="#F1F1F1" height="50" rx="12.5" ry="12.5" style="stroke:#181818;stroke-width:0.5;" width="50" x="27.6105" y="392.2969"/><line style="stroke:#181818;stroke-width:0.5;" x1="27.6105" x2="77.6105" y1="418.5938" y2="418.5938"/><text fill="#000000" font-family="sans-serif" font-size="14" lengthAdjust="spacing" textLength="4.4502" x="50.3854" y="410.292">&#160;</text></g><g class="entity" data-entity="c" data-uid="ent0006" id="entity_c"><polygon fill="#F1F1F1" points="338.6105,543.2969,350.6105,555.2969,338.6105,567.2969,326.6105,555.2969,338.6105,543.2969" style="stroke:#181818;stroke-width:0.5;"/></g><ellipse cx="338.6105" cy="54.2969" fill="#222222" rx="10" ry="10" style="stroke:#222222;stroke-width:1;"/><ellipse cx="338.6105" cy="649.2969" fill="none" rx="11" ry="11" style="stroke:#222222;stroke-width:1;"/><ellipse cx="338.6105" cy="649.2969" fill="#222222" rx="6" ry="6" style="stroke:#222222;stroke-width:1;"/><!--link *start*importarPreguntas to RequiringImport--><g class="link" data-entity-1=".start.importarPreguntas" data-entity-2="RequiringImport" data-source-line="10" data-uid="lnk3" id="link_.start.importarPreguntas_RequiringImport"><path d="M338.6105,64.5269 C338.6105,80.2369 338.6105,106.6569 338.6105,129.1669" fill="none" id="*start*importarPreguntas-to-RequiringImport" style="stroke:#008000;stroke-width:1;"/><polygon fill="#008000" points="338.6105,135.1669,342.6105,126.1669,338.6105,130.1669,334.6105,126.1669,338.6105,135.1669" style="stroke:#008000;stroke-width:1;"/><path d="M343.6105,87.2969 L343.6105,112.2969 L605.6105,112.2969 L605.6105,97.2969 L595.6105,87.2969 L343.6105,87.2969" fill="#FEFFDD" style="stroke:#181818;stroke-width:0.5;"/><path d="M595.6105,87.2969 L595.6105,97.2969 L605.6105,97.2969 L595.6105,87.2969" fill="#FEFFDD" style="stroke:#181818;stroke-width:0.5;"/><text fill="#000000" font-family="sans-serif" font-size="13" font-weight="bold" lengthAdjust="spacing" textLength="60.5313" x="349.6105" y="104.3638">Docente</text><text fill="#000000" font-family="sans-serif" font-size="13" lengthAdjust="spacing" textLength="176.4331" x="414.2741" y="104.3638">solicita importar preguntas</text></g><!--link RequiringImport to ProvidingPreguntas--><g class="link" data-entity-1="RequiringImport" data-entity-2="ProvidingPreguntas" data-source-line="15" data-uid="lnk4" id="link_RequiringImport_ProvidingPreguntas"><path d="M338.6105,185.5669 C338.6105,209.8469 338.6105,240.9869 338.6105,265.2069" fill="none" id="RequiringImport-to-ProvidingPreguntas" style="stroke:#008000;stroke-width:1;"/><polygon fill="#008000" points="338.6105,271.2069,342.6105,262.2069,338.6105,266.2069,334.6105,262.2069,338.6105,271.2069" style="stroke:#008000;stroke-width:1;"/><path d="M343.6105,208.2969 L343.6105,248.2969 L544.6105,248.2969 L544.6105,218.2969 L534.6105,208.2969 L343.6105,208.2969" fill="#FEFFDD" style="stroke:#181818;stroke-width:0.5;"/><path d="M534.6105,208.2969 L534.6105,218.2969 L544.6105,218.2969 L534.6105,208.2969" fill="#FEFFDD" style="stroke:#181818;stroke-width:0.5;"/><text fill="#000000" font-family="sans-serif" font-size="13" font-weight="bold" lengthAdjust="spacing" textLength="58.9063" x="349.6105" y="225.3638">Sistema</text><text fill="#000000" font-family="sans-serif" font-size="13" lengthAdjust="spacing" textLength="117.9395" x="412.6491" y="225.3638">permite introducir</text><text fill="#000000" font-family="sans-serif" font-size="13" lengthAdjust="spacing" textLength="150.4268" x="349.6105" y="240.4966">&#8226; preguntas a importar</text></g><!--link ProvidingPreguntas to ProvidingConfirmation--><g class="link" data-entity-1="ProvidingPreguntas" data-entity-2="ProvidingConfirmation" data-source-line="21" data-uid="lnk5" id="link_ProvidingPreguntas_ProvidingConfirmation"><path d="M313.1805,300.6969 C238.4305,310.6969 24.6105,339.2969 24.6105,339.2969 C24.6105,339.2969 24.6105,374.2969 24.6105,374.2969 C24.6105,374.2969 26.8323,377.6346 32.9923,386.8746" fill="none" id="ProvidingPreguntas-to-ProvidingConfirmation" style="stroke:#008000;stroke-width:1;"/><polygon fill="#008000" points="36.3205,391.8669,34.6564,382.1596,33.547,387.7066,28,386.5972,36.3205,391.8669" style="stroke:#008000;stroke-width:1;"/><path d="M29.6105,344.2969 L29.6105,369.2969 L319.6105,369.2969 L319.6105,354.2969 L309.6105,344.2969 L29.6105,344.2969" fill="#FEFFDD" style="stroke:#181818;stroke-width:0.5;"/><path d="M309.6105,344.2969 L309.6105,354.2969 L319.6105,354.2969 L309.6105,344.2969" fill="#FEFFDD" style="stroke:#181818;stroke-width:0.5;"/><text fill="#000000" font-family="sans-serif" font-size="13" font-weight="bold" lengthAdjust="spacing" textLength="60.5313" x="35.6105" y="361.3638">Docente</text><text fill="#000000" font-family="sans-serif" font-size="13" lengthAdjust="spacing" textLength="204.6421" x="100.2741" y="361.3638">introduce preguntas a importar</text></g><!--link ProvidingConfirmation to c--><g class="link" data-entity-1="ProvidingConfirmation" data-entity-2="c" data-source-line="26" data-uid="lnk6" id="link_ProvidingConfirmation_c"><path d="M71.9005,442.5769 C96.9805,474.1469 137.6105,525.2969 137.6105,525.2969 C137.6105,525.2969 282.142,546.1504 322.702,552.0004" fill="none" id="ProvidingConfirmation-to-c" style="stroke:#008000;stroke-width:1;"/><polygon fill="#008000" points="328.6405,552.8569,320.3037,547.6131,323.6917,552.1431,319.1617,555.5311,328.6405,552.8569" style="stroke:#008000;stroke-width:1;"/><path d="M142.6105,465.2969 L142.6105,520.2969 L319.6105,520.2969 L319.6105,475.2969 L309.6105,465.2969 L142.6105,465.2969" fill="#FEFFDD" style="stroke:#181818;stroke-width:0.5;"/><path d="M309.6105,465.2969 L309.6105,475.2969 L319.6105,475.2969 L309.6105,465.2969" fill="#FEFFDD" style="stroke:#181818;stroke-width:0.5;"/><text fill="#000000" font-family="sans-serif" font-size="13" font-weight="bold" lengthAdjust="spacing" textLength="60.5313" x="148.6105" y="482.3638">Docente</text><text fill="#000000" font-family="sans-serif" font-size="13" lengthAdjust="spacing" textLength="45.7729" x="213.2741" y="482.3638">solicita</text><text fill="#000000" font-family="sans-serif" font-size="13" lengthAdjust="spacing" textLength="156.6221" x="148.6105" y="497.4966">&#8226; confirmar importaci&#243;n</text><text fill="#000000" font-family="sans-serif" font-size="13" lengthAdjust="spacing" textLength="149.1953" x="148.6105" y="512.6294">&#8226; cancelar importaci&#243;n</text></g><!--link c to ProvidingPreguntas--><g class="link" data-entity-1="c" data-entity-2="ProvidingPreguntas" data-source-line="33" data-uid="lnk7" id="link_c_ProvidingPreguntas"><path d="M338.6105,542.7069 C338.6105,503.4969 338.6105,381.3269 338.6105,327.4769" fill="none" id="c-to-ProvidingPreguntas" style="stroke:#FF0000;stroke-width:1;"/><polygon fill="#FF0000" points="338.6105,321.4769,334.6105,330.4769,338.6105,326.4769,342.6105,330.4769,338.6105,321.4769" style="stroke:#FF0000;stroke-width:1;"/><path d="M343.6105,404.7969 L343.6105,429.7969 L554.6105,429.7969 L554.6105,414.7969 L544.6105,404.7969 L343.6105,404.7969" fill="#FEFFDD" style="stroke:#181818;stroke-width:0.5;"/><path d="M544.6105,404.7969 L544.6105,414.7969 L554.6105,414.7969 L544.6105,404.7969" fill="#FEFFDD" style="stroke:#181818;stroke-width:0.5;"/><text fill="#000000" font-family="sans-serif" font-size="13" lengthAdjust="spacing" textLength="190.6265" x="349.6105" y="421.8638">Docente cancela importaci&#243;n</text></g><!--link c to ProvidingPreguntas--><g class="link" data-entity-1="c" data-entity-2="ProvidingPreguntas" data-source-line="38" data-uid="lnk8" id="link_c_ProvidingPreguntas"><path d="M346.3605,550.4369 C385.9205,530.7469 563.6105,442.2969 563.6105,442.2969 C563.6105,442.2969 563.6105,392.2969 563.6105,392.2969 C563.6105,392.2969 428.3579,335.1909 369.5079,310.3409" fill="none" id="c-to-ProvidingPreguntas-1" style="stroke:#FF0000;stroke-width:1;"/><polygon fill="#FF0000" points="363.9805,308.0069,370.7156,315.1928,368.5867,309.9519,373.8276,307.8229,363.9805,308.0069" style="stroke:#FF0000;stroke-width:1;"/><path d="M568.6105,404.7969 L568.6105,429.7969 L945.6105,429.7969 L945.6105,414.7969 L935.6105,404.7969 L568.6105,404.7969" fill="#FEFFDD" style="stroke:#181818;stroke-width:0.5;"/><path d="M935.6105,404.7969 L935.6105,414.7969 L945.6105,414.7969 L935.6105,404.7969" fill="#FEFFDD" style="stroke:#181818;stroke-width:0.5;"/><text fill="#000000" font-family="sans-serif" font-size="13" lengthAdjust="spacing" textLength="356.605" x="574.6105" y="421.8638">Docente confirma importaci&#243;n: error en la importaci&#243;n</text></g><!--link c to *end*importarPreguntas--><g class="link" data-entity-1="c" data-entity-2=".end.importarPreguntas" data-source-line="43" data-uid="lnk10" id="link_c_.end.importarPreguntas"><path d="M338.6105,567.9469 C338.6105,586.0369 338.6105,614.5669 338.6105,631.8769" fill="none" id="c-to-*end*importarPreguntas" style="stroke:#008000;stroke-width:1;"/><polygon fill="#008000" points="338.6105,637.8769,342.6105,628.8769,338.6105,632.8769,334.6105,628.8769,338.6105,637.8769" style="stroke:#008000;stroke-width:1;"/><path d="M343.6105,590.2969 L343.6105,615.2969 L699.6105,615.2969 L699.6105,600.2969 L689.6105,590.2969 L343.6105,590.2969" fill="#FEFFDD" style="stroke:#181818;stroke-width:0.5;"/><path d="M689.6105,590.2969 L689.6105,600.2969 L699.6105,600.2969 L689.6105,590.2969" fill="#FEFFDD" style="stroke:#181818;stroke-width:0.5;"/><text fill="#000000" font-family="sans-serif" font-size="13" lengthAdjust="spacing" textLength="335.6323" x="349.6105" y="607.3638">Docente confirma importaci&#243;n: importaci&#243;n exitosa</text></g><g id="PREGUNTAS_ABIERTO"><rect fill="#F1F1F1" height="50" rx="12.5" ry="12.5" style="stroke:#181818;stroke-width:0.5;" width="174.0547" x="393.78" y="730.3"/><line style="stroke:#181818;stroke-width:0.5;" x1="393.78" x2="567.8347" y1="756.5969" y2="756.5969"/><text fill="#000000" font-family="sans-serif" font-size="14" lengthAdjust="spacing" textLength="154.0547" x="403.78" y="748.2951">PREGUNTAS_ABIERTO</text></g><!--link PREGUNTAS_ABIERTO to importarPreguntas--><g class="link" data-entity-1="PREGUNTAS_ABIERTO" data-entity-2="importarPreguntas" data-source-line="49" data-uid="lnk12" id="link_PREGUNTAS_ABIERTO_importarPreguntas"><path d="M487.57,730.12 C489.38,715.34 490.553,700.6341 491.633,676.3841" fill="none" id="PREGUNTAS_ABIERTO-to-importarPreguntas" style="stroke:#008000;stroke-width:1;"/><polygon fill="#008000" points="491.9,670.39,487.5035,679.2031,491.6775,675.385,495.4956,679.5591,491.9,670.39" style="stroke:#008000;stroke-width:1;"/></g><!--link importarPreguntas to PREGUNTAS_ABIERTO--><g class="link" data-entity-1="importarPreguntas" data-entity-2="PREGUNTAS_ABIERTO" data-source-line="50" data-uid="lnk13" id="link_importarPreguntas_PREGUNTAS_ABIERTO"><path d="M470.32,670.39 C471.34,694.64 472.0204,709.3798 473.7304,724.1598" fill="none" id="importarPreguntas-to-PREGUNTAS_ABIERTO" style="stroke:#008000;stroke-width:1;"/><polygon fill="#008000" points="474.42,730.12,477.3591,720.7199,473.8453,725.1531,469.4121,721.6394,474.42,730.12" style="stroke:#008000;stroke-width:1;"/></g><!--SRC=[jPHBJiCm443tFiMeR02fOe-YI0Kgr0rKRLbL5JBEK4PDx31n4HL2uYnSWIDm4qw2axHftOHFaN2oiJsUzpnEdCr8fv9b0Z5fj8iK8JNn8ky8aLbf4IX93Ll9VSRfN5kPWNjRjT7zWnOy2G6kbUjQxd6H0xoV4vEUzeeLzO0-cmUAN42LwfkOKwDlYHDfoUYDC0L1eEuCAGp3qc5yE87sU6_AY7hI3Xirj75BZSwtFYi6Wflmp2ZK5eEZcn0o4vCYAwiIGEefeexA7AwLr2sAP_35FfiaXfHPJ6GXaI8db1-3jcoYkI8keZvUNjSsi5Rqn4gfEhZPgrRRd-gpKiATJJPHdepQwM2gIgXbFbxH5Rs_wVMqr0hZfbdVJ-KkZD4knxNqMZ7-5R7SfSSu1cGsx33mItfLRFUF_0cusGDy96iowSEUXUWFkkTN5wFEyBfpqkiEHfSUkdPzYFerutsasza-0G00]--></g></svg>