<svg xmlns="http://www.w3.org/2000/svg" xmlns:xlink="http://www.w3.org/1999/xlink" contentStyleType="text/css" data-diagram-type="STATE" height="896px" preserveAspectRatio="none" style="width:968px;height:896px;background:#FFFFFF;" version="1.1" viewBox="0 0 968 896" width="968px" zoomAndPan="magnify"><defs/><g><g id="PREGUNTAS_CONTEXTUALES_ABIERTO"><rect fill="#F1F1F1" height="50" rx="12.5" ry="12.5" style="stroke:#181818;stroke-width:0.5;" width="293.2188" x="200.5" y="7"/><line style="stroke:#181818;stroke-width:0.5;" x1="200.5" x2="493.7188" y1="33.2969" y2="33.2969"/><text fill="#000000" font-family="sans-serif" font-size="14" lengthAdjust="spacing" textLength="273.2188" x="210.5" y="24.9951">PREGUNTAS_CONTEXTUALES_ABIERTO</text></g><g id="PREGUNTAS_CONTEXTUALES_ABIERTO2"><rect fill="#F1F1F1" height="50" rx="12.5" ry="12.5" style="stroke:#181818;stroke-width:0.5;" width="293.2188" x="200.5" y="840"/><line style="stroke:#181818;stroke-width:0.5;" x1="200.5" x2="493.7188" y1="866.2969" y2="866.2969"/><text fill="#000000" font-family="sans-serif" font-size="14" lengthAdjust="spacing" textLength="273.2188" x="210.5" y="857.9951">PREGUNTAS_CONTEXTUALES_ABIERTO</text></g><g id="PREGUNTAS_ABIERTO2"><rect fill="#F1F1F1" height="50" rx="12.5" ry="12.5" style="stroke:#181818;stroke-width:0.5;" width="174.0547" x="529" y="840"/><line style="stroke:#181818;stroke-width:0.5;" x1="529" x2="703.0547" y1="866.2969" y2="866.2969"/><text fill="#000000" font-family="sans-serif" font-size="14" lengthAdjust="spacing" textLength="154.0547" x="539" y="857.9951">PREGUNTAS_ABIERTO</text></g><path d="M19.5,117 L942.1105,117 A12.5,12.5 0 0 1 954.6105,129.5 L954.6105,143.2969 L7,143.2969 L7,129.5 A12.5,12.5 0 0 1 19.5,117" fill="#F1F1F1"/><rect fill="none" height="663.2969" rx="12.5" ry="12.5" style="stroke:#181818;stroke-width:0.5;" width="947.6105" x="7" y="117"/><line style="stroke:#181818;stroke-width:0.5;" x1="7" x2="954.6105" y1="143.2969" y2="143.2969"/><text fill="#000000" font-family="sans-serif" font-size="14" lengthAdjust="spacing" textLength="142.29" x="409.6602" y="134.9951">importarPreguntas()</text><g id="importarPreguntas.RequiringImport"><rect fill="#F1F1F1" height="50" rx="12.5" ry="12.5" style="stroke:#181818;stroke-width:0.5;" width="50" x="313.6105" y="245.2969"/><line style="stroke:#181818;stroke-width:0.5;" x1="313.6105" x2="363.6105" y1="271.5938" y2="271.5938"/><text fill="#000000" font-family="sans-serif" font-size="14" lengthAdjust="spacing" textLength="4.4502" x="336.3854" y="263.292">&#160;</text></g><g id="importarPreguntas.ProvidingPreguntas"><rect fill="#F1F1F1" height="50" rx="12.5" ry="12.5" style="stroke:#181818;stroke-width:0.5;" width="50" x="313.6105" y="381.2969"/><line style="stroke:#181818;stroke-width:0.5;" x1="313.6105" x2="363.6105" y1="407.5938" y2="407.5938"/><text fill="#000000" font-family="sans-serif" font-size="14" lengthAdjust="spacing" textLength="4.4502" x="336.3854" y="399.292">&#160;</text></g><g id="importarPreguntas.ProvidingConfirmation"><rect fill="#F1F1F1" height="50" rx="12.5" ry="12.5" style="stroke:#181818;stroke-width:0.5;" width="50" x="27.6105" y="502.2969"/><line style="stroke:#181818;stroke-width:0.5;" x1="27.6105" x2="77.6105" y1="528.5938" y2="528.5938"/><text fill="#000000" font-family="sans-serif" font-size="14" lengthAdjust="spacing" textLength="4.4502" x="50.3854" y="520.292">&#160;</text></g><g class="entity" data-entity="c" data-uid="ent0009" id="entity_c"><polygon fill="#F1F1F1" points="338.6105,653.2969,350.6105,665.2969,338.6105,677.2969,326.6105,665.2969,338.6105,653.2969" style="stroke:#181818;stroke-width:0.5;"/></g><ellipse cx="338.6105" cy="164.2969" fill="#222222" rx="10" ry="10" style="stroke:#222222;stroke-width:1;"/><ellipse cx="338.6105" cy="759.2969" fill="none" rx="11" ry="11" style="stroke:#222222;stroke-width:1;"/><ellipse cx="338.6105" cy="759.2969" fill="#222222" rx="6" ry="6" style="stroke:#222222;stroke-width:1;"/><!--link *start*importarPreguntas to RequiringImport--><g class="link" data-entity-1=".start.importarPreguntas" data-entity-2="RequiringImport" data-source-line="14" data-uid="lnk3" id="link_.start.importarPreguntas_RequiringImport"><path d="M338.6105,174.5269 C338.6105,190.2369 338.6105,216.6569 338.6105,239.1669" fill="none" id="*start*importarPreguntas-to-RequiringImport" style="stroke:#008000;stroke-width:1;"/><polygon fill="#008000" points="338.6105,245.1669,342.6105,236.1669,338.6105,240.1669,334.6105,236.1669,338.6105,245.1669" style="stroke:#008000;stroke-width:1;"/><path d="M343.6105,197.2969 L343.6105,222.2969 L605.6105,222.2969 L605.6105,207.2969 L595.6105,197.2969 L343.6105,197.2969" fill="#FEFFDD" style="stroke:#181818;stroke-width:0.5;"/><path d="M595.6105,197.2969 L595.6105,207.2969 L605.6105,207.2969 L595.6105,197.2969" fill="#FEFFDD" style="stroke:#181818;stroke-width:0.5;"/><text fill="#000000" font-family="sans-serif" font-size="13" font-weight="bold" lengthAdjust="spacing" textLength="60.5313" x="349.6105" y="214.3638">Docente</text><text fill="#000000" font-family="sans-serif" font-size="13" lengthAdjust="spacing" textLength="176.4331" x="414.2741" y="214.3638">solicita importar preguntas</text></g><!--link RequiringImport to ProvidingPreguntas--><g class="link" data-entity-1="RequiringImport" data-entity-2="ProvidingPreguntas" data-source-line="19" data-uid="lnk4" id="link_RequiringImport_ProvidingPreguntas"><path d="M338.6105,295.5669 C338.6105,319.8469 338.6105,350.9869 338.6105,375.2069" fill="none" id="RequiringImport-to-ProvidingPreguntas" style="stroke:#008000;stroke-width:1;"/><polygon fill="#008000" points="338.6105,381.2069,342.6105,372.2069,338.6105,376.2069,334.6105,372.2069,338.6105,381.2069" style="stroke:#008000;stroke-width:1;"/><path d="M343.6105,318.2969 L343.6105,358.2969 L544.6105,358.2969 L544.6105,328.2969 L534.6105,318.2969 L343.6105,318.2969" fill="#FEFFDD" style="stroke:#181818;stroke-width:0.5;"/><path d="M534.6105,318.2969 L534.6105,328.2969 L544.6105,328.2969 L534.6105,318.2969" fill="#FEFFDD" style="stroke:#181818;stroke-width:0.5;"/><text fill="#000000" font-family="sans-serif" font-size="13" font-weight="bold" lengthAdjust="spacing" textLength="58.9063" x="349.6105" y="335.3638">Sistema</text><text fill="#000000" font-family="sans-serif" font-size="13" lengthAdjust="spacing" textLength="117.9395" x="412.6491" y="335.3638">permite introducir</text><text fill="#000000" font-family="sans-serif" font-size="13" lengthAdjust="spacing" textLength="150.4268" x="349.6105" y="350.4966">&#8226; preguntas a importar</text></g><!--link ProvidingPreguntas to ProvidingConfirmation--><g class="link" data-entity-1="ProvidingPreguntas" data-entity-2="ProvidingConfirmation" data-source-line="25" data-uid="lnk5" id="link_ProvidingPreguntas_ProvidingConfirmation"><path d="M313.4405,410.6669 C238.9305,420.6269 24.6105,449.2969 24.6105,449.2969 C24.6105,449.2969 24.6105,484.2969 24.6105,484.2969 C24.6105,484.2969 26.8323,487.6346 32.9923,496.8746" fill="none" id="ProvidingPreguntas-to-ProvidingConfirmation" style="stroke:#008000;stroke-width:1;"/><polygon fill="#008000" points="36.3205,501.8669,34.6564,492.1596,33.547,497.7066,28,496.5972,36.3205,501.8669" style="stroke:#008000;stroke-width:1;"/><path d="M29.6105,454.2969 L29.6105,479.2969 L319.6105,479.2969 L319.6105,464.2969 L309.6105,454.2969 L29.6105,454.2969" fill="#FEFFDD" style="stroke:#181818;stroke-width:0.5;"/><path d="M309.6105,454.2969 L309.6105,464.2969 L319.6105,464.2969 L309.6105,454.2969" fill="#FEFFDD" style="stroke:#181818;stroke-width:0.5;"/><text fill="#000000" font-family="sans-serif" font-size="13" font-weight="bold" lengthAdjust="spacing" textLength="60.5313" x="35.6105" y="471.3638">Docente</text><text fill="#000000" font-family="sans-serif" font-size="13" lengthAdjust="spacing" textLength="204.6421" x="100.2741" y="471.3638">introduce preguntas a importar</text></g><!--link ProvidingConfirmation to c--><g class="link" data-entity-1="ProvidingConfirmation" data-entity-2="c" data-source-line="30" data-uid="lnk6" id="link_ProvidingConfirmation_c"><path d="M71.6905,552.3069 C96.7505,583.8569 137.6105,635.2969 137.6105,635.2969 C137.6105,635.2969 282.8219,656.2507 322.9819,662.0407" fill="none" id="ProvidingConfirmation-to-c" style="stroke:#008000;stroke-width:1;"/><polygon fill="#008000" points="328.9205,662.8969,320.5834,657.6535,323.9717,662.1834,319.4418,665.5717,328.9205,662.8969" style="stroke:#008000;stroke-width:1;"/><path d="M142.6105,575.2969 L142.6105,630.2969 L319.6105,630.2969 L319.6105,585.2969 L309.6105,575.2969 L142.6105,575.2969" fill="#FEFFDD" style="stroke:#181818;stroke-width:0.5;"/><path d="M309.6105,575.2969 L309.6105,585.2969 L319.6105,585.2969 L309.6105,575.2969" fill="#FEFFDD" style="stroke:#181818;stroke-width:0.5;"/><text fill="#000000" font-family="sans-serif" font-size="13" font-weight="bold" lengthAdjust="spacing" textLength="60.5313" x="148.6105" y="592.3638">Docente</text><text fill="#000000" font-family="sans-serif" font-size="13" lengthAdjust="spacing" textLength="45.7729" x="213.2741" y="592.3638">solicita</text><text fill="#000000" font-family="sans-serif" font-size="13" lengthAdjust="spacing" textLength="156.6221" x="148.6105" y="607.4966">&#8226; confirmar importaci&#243;n</text><text fill="#000000" font-family="sans-serif" font-size="13" lengthAdjust="spacing" textLength="149.1953" x="148.6105" y="622.6294">&#8226; cancelar importaci&#243;n</text></g><!--link c to ProvidingPreguntas--><g class="link" data-entity-1="c" data-entity-2="ProvidingPreguntas" data-source-line="37" data-uid="lnk7" id="link_c_ProvidingPreguntas"><path d="M338.6105,653.2469 C338.6105,614.6869 338.6105,491.5769 338.6105,437.4769" fill="none" id="c-to-ProvidingPreguntas" style="stroke:#FF0000;stroke-width:1;"/><polygon fill="#FF0000" points="338.6105,431.4769,334.6105,440.4769,338.6105,436.4769,342.6105,440.4769,338.6105,431.4769" style="stroke:#FF0000;stroke-width:1;"/><path d="M343.6105,514.7969 L343.6105,539.7969 L554.6105,539.7969 L554.6105,524.7969 L544.6105,514.7969 L343.6105,514.7969" fill="#FEFFDD" style="stroke:#181818;stroke-width:0.5;"/><path d="M544.6105,514.7969 L544.6105,524.7969 L554.6105,524.7969 L544.6105,514.7969" fill="#FEFFDD" style="stroke:#181818;stroke-width:0.5;"/><text fill="#000000" font-family="sans-serif" font-size="13" lengthAdjust="spacing" textLength="190.6265" x="349.6105" y="531.8638">Docente cancela importaci&#243;n</text></g><!--link c to ProvidingPreguntas--><g class="link" data-entity-1="c" data-entity-2="ProvidingPreguntas" data-source-line="42" data-uid="lnk8" id="link_c_ProvidingPreguntas"><path d="M346.1005,660.5669 C385.1405,641.1369 563.6105,552.2969 563.6105,552.2969 C563.6105,552.2969 563.6105,502.2969 563.6105,502.2969 C563.6105,502.2969 428.3579,445.1909 369.5079,420.3409" fill="none" id="c-to-ProvidingPreguntas-1" style="stroke:#FF0000;stroke-width:1;"/><polygon fill="#FF0000" points="363.9805,418.0069,370.7156,425.1928,368.5867,419.9519,373.8276,417.8229,363.9805,418.0069" style="stroke:#FF0000;stroke-width:1;"/><path d="M568.6105,514.7969 L568.6105,539.7969 L945.6105,539.7969 L945.6105,524.7969 L935.6105,514.7969 L568.6105,514.7969" fill="#FEFFDD" style="stroke:#181818;stroke-width:0.5;"/><path d="M935.6105,514.7969 L935.6105,524.7969 L945.6105,524.7969 L935.6105,514.7969" fill="#FEFFDD" style="stroke:#181818;stroke-width:0.5;"/><text fill="#000000" font-family="sans-serif" font-size="13" lengthAdjust="spacing" textLength="356.605" x="574.6105" y="531.8638">Docente confirma importaci&#243;n: error en la importaci&#243;n</text></g><!--link c to *end*importarPreguntas--><g class="link" data-entity-1="c" data-entity-2=".end.importarPreguntas" data-source-line="47" data-uid="lnk10" id="link_c_.end.importarPreguntas"><path d="M338.6105,677.5769 C338.6105,695.6169 338.6105,724.6969 338.6105,742.0569" fill="none" id="c-to-*end*importarPreguntas" style="stroke:#008000;stroke-width:1;"/><polygon fill="#008000" points="338.6105,748.0569,342.6105,739.0569,338.6105,743.0569,334.6105,739.0569,338.6105,748.0569" style="stroke:#008000;stroke-width:1;"/><path d="M343.6105,700.2969 L343.6105,725.2969 L699.6105,725.2969 L699.6105,710.2969 L689.6105,700.2969 L343.6105,700.2969" fill="#FEFFDD" style="stroke:#181818;stroke-width:0.5;"/><path d="M689.6105,700.2969 L689.6105,710.2969 L699.6105,710.2969 L689.6105,700.2969" fill="#FEFFDD" style="stroke:#181818;stroke-width:0.5;"/><text fill="#000000" font-family="sans-serif" font-size="13" lengthAdjust="spacing" textLength="335.6323" x="349.6105" y="717.3638">Docente confirma importaci&#243;n: importaci&#243;n exitosa</text></g><g id="PREGUNTAS_ABIERTO"><rect fill="#F1F1F1" height="50" rx="12.5" ry="12.5" style="stroke:#181818;stroke-width:0.5;" width="174.0547" x="529" y="7"/><line style="stroke:#181818;stroke-width:0.5;" x1="529" x2="703.0547" y1="33.2969" y2="33.2969"/><text fill="#000000" font-family="sans-serif" font-size="14" lengthAdjust="spacing" textLength="154.0547" x="539" y="24.9951">PREGUNTAS_ABIERTO</text></g><!--link PREGUNTAS_ABIERTO to importarPreguntas--><g class="link" data-entity-1="PREGUNTAS_ABIERTO" data-entity-2="importarPreguntas" data-source-line="54" data-uid="lnk12" id="link_PREGUNTAS_ABIERTO_importarPreguntas"><path d="M608.16,57.08 C603.35,71.85 598.4586,86.8751 590.5486,111.1551" fill="none" id="PREGUNTAS_ABIERTO-to-importarPreguntas" style="stroke:#008000;stroke-width:1;"/><polygon fill="#008000" points="588.69,116.86,595.2811,109.5417,590.2388,112.1059,587.6746,107.0636,588.69,116.86" style="stroke:#008000;stroke-width:1;"/></g><!--link importarPreguntas to PREGUNTAS_ABIERTO2--><g class="link" data-entity-1="importarPreguntas" data-entity-2="PREGUNTAS_ABIERTO2" data-source-line="55" data-uid="lnk13" id="link_importarPreguntas_PREGUNTAS_ABIERTO2"><path d="M588.68,780.12 C596.57,804.36 601.4621,819.3549 606.2721,834.1249" fill="none" id="importarPreguntas-to-PREGUNTAS_ABIERTO2" style="stroke:#008000;stroke-width:1;"/><polygon fill="#008000" points="608.13,839.83,609.1465,830.0337,606.5817,835.0758,601.5397,832.511,608.13,839.83" style="stroke:#008000;stroke-width:1;"/></g><!--link PREGUNTAS_CONTEXTUALES_ABIERTO to importarPreguntas--><g class="link" data-entity-1="PREGUNTAS_CONTEXTUALES_ABIERTO" data-entity-2="importarPreguntas" data-source-line="58" data-uid="lnk14" id="link_PREGUNTAS_CONTEXTUALES_ABIERTO_importarPreguntas"><path d="M354.78,57.08 C359.56,71.85 364.4142,86.871 372.2642,111.151" fill="none" id="PREGUNTAS_CONTEXTUALES_ABIERTO-to-importarPreguntas" style="stroke:#008000;stroke-width:1;"/><polygon fill="#008000" points="374.11,116.86,375.1473,107.0659,372.5718,112.1025,367.5353,109.527,374.11,116.86" style="stroke:#008000;stroke-width:1;"/></g><!--link importarPreguntas to PREGUNTAS_CONTEXTUALES_ABIERTO2--><g class="link" data-entity-1="importarPreguntas" data-entity-2="PREGUNTAS_CONTEXTUALES_ABIERTO2" data-source-line="59" data-uid="lnk15" id="link_importarPreguntas_PREGUNTAS_CONTEXTUALES_ABIERTO2"><path d="M374.12,780.12 C366.28,804.36 361.4374,819.3515 356.6574,834.1215" fill="none" id="importarPreguntas-to-PREGUNTAS_CONTEXTUALES_ABIERTO2" style="stroke:#008000;stroke-width:1;"/><polygon fill="#008000" points="354.81,839.83,361.3868,832.4989,356.3495,835.0729,353.7755,830.0356,354.81,839.83" style="stroke:#008000;stroke-width:1;"/></g><!--SRC=[jPJjIiCm58R_voeEyuSVC0H_oYXCBJAGEVOXmXYIPSSPR9EQPAA8uBLu2rw2T-ALcBPRjopTt4HRA2HvptcVdjCUVSz5GXMD8U82pNE2aCZeELqGeWqr2ArsUDvhTkkTczFBPZUyxlRg5s7dfdxI2DlTour4Hq0rLDPhAbwc5S65VXh0uqGgGrLBuNWYZ1MdUcztRxy2BuI0lVAuYhsjieqF4wwu63Uo25_GKlAHZwoWIBL6Soh5BLSnDLoA1Hc3MetTISum27A6_i40glsTiK8KWsfGYY6a3PKYRSrzjb4R1cUIeJ1OEnm6e6N46JUqA04a3YAAKPx3Nhdhaej3iE8zoo0wN1kCQGQHe8fvsWPXb1nD65UPwkljVKu3SqG7B8VoZSkvlDh-L9yP4cvDicZbmB2j6bDKWatpgPaxuvyVOdvC1SEexDJbOocBmj4sxPfopJp-rMBwbex7CQ1IKbaRsD2zABRzHtvbkBW2VE96QkgQlHAo2xR9zj0-T2goNxHDgOatQ1maRwmGV_mu7wytpPQScxtmgjw1FRjbyCbCQ8HwdwmVbNz4L3gflm40]--></g></svg>