<svg xmlns="http://www.w3.org/2000/svg" xmlns:xlink="http://www.w3.org/1999/xlink" contentStyleType="text/css" data-diagram-type="STATE" height="896px" preserveAspectRatio="none" style="width:968px;height:896px;background:#FFFFFF;" version="1.1" viewBox="0 0 968 896" width="968px" zoomAndPan="magnify"><defs/><g><g id="PREGUNTAS_CONTEXTUALES_ABIERTO"><rect fill="#F1F1F1" height="50" rx="12.5" ry="12.5" style="stroke:#181818;stroke-width:0.5;" width="293.2188" x="334.2" y="7"/><line style="stroke:#181818;stroke-width:0.5;" x1="334.2" x2="627.4188" y1="33.2969" y2="33.2969"/><text fill="#000000" font-family="sans-serif" font-size="14" lengthAdjust="spacing" textLength="273.2188" x="344.2" y="24.9951">PREGUNTAS_CONTEXTUALES_ABIERTO</text></g><path d="M19.5,117 L942.1105,117 A12.5,12.5 0 0 1 954.6105,129.5 L954.6105,143.2969 L7,143.2969 L7,129.5 A12.5,12.5 0 0 1 19.5,117" fill="#F1F1F1"/><rect fill="none" height="663.2969" rx="12.5" ry="12.5" style="stroke:#181818;stroke-width:0.5;" width="947.6105" x="7" y="117"/><line style="stroke:#181818;stroke-width:0.5;" x1="7" x2="954.6105" y1="143.2969" y2="143.2969"/><text fill="#000000" font-family="sans-serif" font-size="14" lengthAdjust="spacing" textLength="142.29" x="409.6602" y="134.9951">importarPreguntas()</text><g id="importarPreguntas.RequiringImport"><rect fill="#F1F1F1" height="50" rx="12.5" ry="12.5" style="stroke:#181818;stroke-width:0.5;" width="50" x="313.6105" y="245.2969"/><line style="stroke:#181818;stroke-width:0.5;" x1="313.6105" x2="363.6105" y1="271.5938" y2="271.5938"/><text fill="#000000" font-family="sans-serif" font-size="14" lengthAdjust="spacing" textLength="4.4502" x="336.3854" y="263.292">&#160;</text></g><g id="importarPreguntas.ProvidingPreguntas"><rect fill="#F1F1F1" height="50" rx="12.5" ry="12.5" style="stroke:#181818;stroke-width:0.5;" width="50" x="313.6105" y="381.2969"/><line style="stroke:#181818;stroke-width:0.5;" x1="313.6105" x2="363.6105" y1="407.5938" y2="407.5938"/><text fill="#000000" font-family="sans-serif" font-size="14" lengthAdjust="spacing" textLength="4.4502" x="336.3854" y="399.292">&#160;</text></g><g id="importarPreguntas.ProvidingConfirmation"><rect fill="#F1F1F1" height="50" rx="12.5" ry="12.5" style="stroke:#181818;stroke-width:0.5;" width="50" x="27.6105" y="502.2969"/><line style="stroke:#181818;stroke-width:0.5;" x1="27.6105" x2="77.6105" y1="528.5938" y2="528.5938"/><text fill="#000000" font-family="sans-serif" font-size="14" lengthAdjust="spacing" textLength="4.4502" x="50.3854" y="520.292">&#160;</text></g><g class="entity" data-entity="c" data-uid="ent0007" id="entity_c"><polygon fill="#F1F1F1" points="338.6105,653.2969,350.6105,665.2969,338.6105,677.2969,326.6105,665.2969,338.6105,653.2969" style="stroke:#181818;stroke-width:0.5;"/></g><ellipse cx="338.6105" cy="164.2969" fill="#222222" rx="10" ry="10" style="stroke:#222222;stroke-width:1;"/><ellipse cx="338.6105" cy="759.2969" fill="none" rx="11" ry="11" style="stroke:#222222;stroke-width:1;"/><ellipse cx="338.6105" cy="759.2969" fill="#222222" rx="6" ry="6" style="stroke:#222222;stroke-width:1;"/><!--link *start*importarPreguntas to RequiringImport--><g class="link" data-entity-1=".start.importarPreguntas" data-entity-2="RequiringImport" data-source-line="12" data-uid="lnk3" id="link_.start.importarPreguntas_RequiringImport"><path d="M338.6105,174.5269 C338.6105,190.2369 338.6105,216.6569 338.6105,239.1669" fill="none" id="*start*importarPreguntas-to-RequiringImport" style="stroke:#008000;stroke-width:1;"/><polygon fill="#008000" points="338.6105,245.1669,342.6105,236.1669,338.6105,240.1669,334.6105,236.1669,338.6105,245.1669" style="stroke:#008000;stroke-width:1;"/><path d="M343.6105,197.2969 L343.6105,222.2969 L605.6105,222.2969 L605.6105,207.2969 L595.6105,197.2969 L343.6105,197.2969" fill="#FEFFDD" style="stroke:#181818;stroke-width:0.5;"/><path d="M595.6105,197.2969 L595.6105,207.2969 L605.6105,207.2969 L595.6105,197.2969" fill="#FEFFDD" style="stroke:#181818;stroke-width:0.5;"/><text fill="#000000" font-family="sans-serif" font-size="13" font-weight="bold" lengthAdjust="spacing" textLength="60.5313" x="349.6105" y="214.3638">Docente</text><text fill="#000000" font-family="sans-serif" font-size="13" lengthAdjust="spacing" textLength="176.4331" x="414.2741" y="214.3638">solicita importar preguntas</text></g><!--link RequiringImport to ProvidingPreguntas--><g class="link" data-entity-1="RequiringImport" data-entity-2="ProvidingPreguntas" data-source-line="17" data-uid="lnk4" id="link_RequiringImport_ProvidingPreguntas"><path d="M338.6105,295.5669 C338.6105,319.8469 338.6105,350.9869 338.6105,375.2069" fill="none" id="RequiringImport-to-ProvidingPreguntas" style="stroke:#008000;stroke-width:1;"/><polygon fill="#008000" points="338.6105,381.2069,342.6105,372.2069,338.6105,376.2069,334.6105,372.2069,338.6105,381.2069" style="stroke:#008000;stroke-width:1;"/><path d="M343.6105,318.2969 L343.6105,358.2969 L544.6105,358.2969 L544.6105,328.2969 L534.6105,318.2969 L343.6105,318.2969" fill="#FEFFDD" style="stroke:#181818;stroke-width:0.5;"/><path d="M534.6105,318.2969 L534.6105,328.2969 L544.6105,328.2969 L534.6105,318.2969" fill="#FEFFDD" style="stroke:#181818;stroke-width:0.5;"/><text fill="#000000" font-family="sans-serif" font-size="13" font-weight="bold" lengthAdjust="spacing" textLength="58.9063" x="349.6105" y="335.3638">Sistema</text><text fill="#000000" font-family="sans-serif" font-size="13" lengthAdjust="spacing" textLength="117.9395" x="412.6491" y="335.3638">permite introducir</text><text fill="#000000" font-family="sans-serif" font-size="13" lengthAdjust="spacing" textLength="150.4268" x="349.6105" y="350.4966">&#8226; preguntas a importar</text></g><!--link ProvidingPreguntas to ProvidingConfirmation--><g class="link" data-entity-1="ProvidingPreguntas" data-entity-2="ProvidingConfirmation" data-source-line="23" data-uid="lnk5" id="link_ProvidingPreguntas_ProvidingConfirmation"><path d="M313.1805,410.6969 C238.4305,420.6969 24.6105,449.2969 24.6105,449.2969 C24.6105,449.2969 24.6105,484.2969 24.6105,484.2969 C24.6105,484.2969 26.8323,487.6346 32.9923,496.8746" fill="none" id="ProvidingPreguntas-to-ProvidingConfirmation" style="stroke:#008000;stroke-width:1;"/><polygon fill="#008000" points="36.3205,501.8669,34.6564,492.1596,33.547,497.7066,28,496.5972,36.3205,501.8669" style="stroke:#008000;stroke-width:1;"/><path d="M29.6105,454.2969 L29.6105,479.2969 L319.6105,479.2969 L319.6105,464.2969 L309.6105,454.2969 L29.6105,454.2969" fill="#FEFFDD" style="stroke:#181818;stroke-width:0.5;"/><path d="M309.6105,454.2969 L309.6105,464.2969 L319.6105,464.2969 L309.6105,454.2969" fill="#FEFFDD" style="stroke:#181818;stroke-width:0.5;"/><text fill="#000000" font-family="sans-serif" font-size="13" font-weight="bold" lengthAdjust="spacing" textLength="60.5313" x="35.6105" y="471.3638">Docente</text><text fill="#000000" font-family="sans-serif" font-size="13" lengthAdjust="spacing" textLength="204.6421" x="100.2741" y="471.3638">introduce preguntas a importar</text></g><!--link ProvidingConfirmation to c--><g class="link" data-entity-1="ProvidingConfirmation" data-entity-2="c" data-source-line="28" data-uid="lnk6" id="link_ProvidingConfirmation_c"><path d="M71.9005,552.5769 C96.9805,584.1469 137.6105,635.2969 137.6105,635.2969 C137.6105,635.2969 282.142,656.1504 322.702,662.0004" fill="none" id="ProvidingConfirmation-to-c" style="stroke:#008000;stroke-width:1;"/><polygon fill="#008000" points="328.6405,662.8569,320.3037,657.6131,323.6917,662.1431,319.1617,665.5311,328.6405,662.8569" style="stroke:#008000;stroke-width:1;"/><path d="M142.6105,575.2969 L142.6105,630.2969 L319.6105,630.2969 L319.6105,585.2969 L309.6105,575.2969 L142.6105,575.2969" fill="#FEFFDD" style="stroke:#181818;stroke-width:0.5;"/><path d="M309.6105,575.2969 L309.6105,585.2969 L319.6105,585.2969 L309.6105,575.2969" fill="#FEFFDD" style="stroke:#181818;stroke-width:0.5;"/><text fill="#000000" font-family="sans-serif" font-size="13" font-weight="bold" lengthAdjust="spacing" textLength="60.5313" x="148.6105" y="592.3638">Docente</text><text fill="#000000" font-family="sans-serif" font-size="13" lengthAdjust="spacing" textLength="45.7729" x="213.2741" y="592.3638">solicita</text><text fill="#000000" font-family="sans-serif" font-size="13" lengthAdjust="spacing" textLength="156.6221" x="148.6105" y="607.4966">&#8226; confirmar importaci&#243;n</text><text fill="#000000" font-family="sans-serif" font-size="13" lengthAdjust="spacing" textLength="149.1953" x="148.6105" y="622.6294">&#8226; cancelar importaci&#243;n</text></g><!--link c to ProvidingPreguntas--><g class="link" data-entity-1="c" data-entity-2="ProvidingPreguntas" data-source-line="35" data-uid="lnk7" id="link_c_ProvidingPreguntas"><path d="M338.6105,652.7069 C338.6105,613.4969 338.6105,491.3269 338.6105,437.4769" fill="none" id="c-to-ProvidingPreguntas" style="stroke:#FF0000;stroke-width:1;"/><polygon fill="#FF0000" points="338.6105,431.4769,334.6105,440.4769,338.6105,436.4769,342.6105,440.4769,338.6105,431.4769" style="stroke:#FF0000;stroke-width:1;"/><path d="M343.6105,514.7969 L343.6105,539.7969 L554.6105,539.7969 L554.6105,524.7969 L544.6105,514.7969 L343.6105,514.7969" fill="#FEFFDD" style="stroke:#181818;stroke-width:0.5;"/><path d="M544.6105,514.7969 L544.6105,524.7969 L554.6105,524.7969 L544.6105,514.7969" fill="#FEFFDD" style="stroke:#181818;stroke-width:0.5;"/><text fill="#000000" font-family="sans-serif" font-size="13" lengthAdjust="spacing" textLength="190.6265" x="349.6105" y="531.8638">Docente cancela importaci&#243;n</text></g><!--link c to ProvidingPreguntas--><g class="link" data-entity-1="c" data-entity-2="ProvidingPreguntas" data-source-line="40" data-uid="lnk8" id="link_c_ProvidingPreguntas"><path d="M346.3605,660.4369 C385.9205,640.7469 563.6105,552.2969 563.6105,552.2969 C563.6105,552.2969 563.6105,502.2969 563.6105,502.2969 C563.6105,502.2969 428.3579,445.1909 369.5079,420.3409" fill="none" id="c-to-ProvidingPreguntas-1" style="stroke:#FF0000;stroke-width:1;"/><polygon fill="#FF0000" points="363.9805,418.0069,370.7156,425.1928,368.5867,419.9519,373.8276,417.8229,363.9805,418.0069" style="stroke:#FF0000;stroke-width:1;"/><path d="M568.6105,514.7969 L568.6105,539.7969 L945.6105,539.7969 L945.6105,524.7969 L935.6105,514.7969 L568.6105,514.7969" fill="#FEFFDD" style="stroke:#181818;stroke-width:0.5;"/><path d="M935.6105,514.7969 L935.6105,524.7969 L945.6105,524.7969 L935.6105,514.7969" fill="#FEFFDD" style="stroke:#181818;stroke-width:0.5;"/><text fill="#000000" font-family="sans-serif" font-size="13" lengthAdjust="spacing" textLength="356.605" x="574.6105" y="531.8638">Docente confirma importaci&#243;n: error en la importaci&#243;n</text></g><!--link c to *end*importarPreguntas--><g class="link" data-entity-1="c" data-entity-2=".end.importarPreguntas" data-source-line="45" data-uid="lnk10" id="link_c_.end.importarPreguntas"><path d="M338.6105,677.9469 C338.6105,696.0369 338.6105,724.5669 338.6105,741.8769" fill="none" id="c-to-*end*importarPreguntas" style="stroke:#008000;stroke-width:1;"/><polygon fill="#008000" points="338.6105,747.8769,342.6105,738.8769,338.6105,742.8769,334.6105,738.8769,338.6105,747.8769" style="stroke:#008000;stroke-width:1;"/><path d="M343.6105,700.2969 L343.6105,725.2969 L699.6105,725.2969 L699.6105,710.2969 L689.6105,700.2969 L343.6105,700.2969" fill="#FEFFDD" style="stroke:#181818;stroke-width:0.5;"/><path d="M689.6105,700.2969 L689.6105,710.2969 L699.6105,710.2969 L689.6105,700.2969" fill="#FEFFDD" style="stroke:#181818;stroke-width:0.5;"/><text fill="#000000" font-family="sans-serif" font-size="13" lengthAdjust="spacing" textLength="335.6323" x="349.6105" y="717.3638">Docente confirma importaci&#243;n: importaci&#243;n exitosa</text></g><g id="PREGUNTAS_ABIERTO"><rect fill="#F1F1F1" height="50" rx="12.5" ry="12.5" style="stroke:#181818;stroke-width:0.5;" width="174.0547" x="393.78" y="840.3"/><line style="stroke:#181818;stroke-width:0.5;" x1="393.78" x2="567.8347" y1="866.5969" y2="866.5969"/><text fill="#000000" font-family="sans-serif" font-size="14" lengthAdjust="spacing" textLength="154.0547" x="403.78" y="858.2951">PREGUNTAS_ABIERTO</text></g><!--link PREGUNTAS_ABIERTO to importarPreguntas--><g class="link" data-entity-1="PREGUNTAS_ABIERTO" data-entity-2="importarPreguntas" data-source-line="52" data-uid="lnk12" id="link_PREGUNTAS_ABIERTO_importarPreguntas"><path d="M487.57,840.12 C489.38,825.34 490.553,810.6341 491.633,786.3841" fill="none" id="PREGUNTAS_ABIERTO-to-importarPreguntas" style="stroke:#008000;stroke-width:1;"/><polygon fill="#008000" points="491.9,780.39,487.5035,789.2031,491.6775,785.385,495.4956,789.5591,491.9,780.39" style="stroke:#008000;stroke-width:1;"/></g><!--link importarPreguntas to PREGUNTAS_ABIERTO--><g class="link" data-entity-1="importarPreguntas" data-entity-2="PREGUNTAS_ABIERTO" data-source-line="53" data-uid="lnk13" id="link_importarPreguntas_PREGUNTAS_ABIERTO"><path d="M470.32,780.39 C471.34,804.64 472.0204,819.3798 473.7304,834.1598" fill="none" id="importarPreguntas-to-PREGUNTAS_ABIERTO" style="stroke:#008000;stroke-width:1;"/><polygon fill="#008000" points="474.42,840.12,477.3591,830.7199,473.8453,835.1531,469.4121,831.6394,474.42,840.12" style="stroke:#008000;stroke-width:1;"/></g><!--link PREGUNTAS_CONTEXTUALES_ABIERTO to importarPreguntas--><g class="link" data-entity-1="PREGUNTAS_CONTEXTUALES_ABIERTO" data-entity-2="importarPreguntas" data-source-line="56" data-uid="lnk14" id="link_PREGUNTAS_CONTEXTUALES_ABIERTO_importarPreguntas"><path d="M474.39,57.39 C472.7,72.15 471.591,86.7653 470.581,110.8853" fill="none" id="PREGUNTAS_CONTEXTUALES_ABIERTO-to-importarPreguntas" style="stroke:#008000;stroke-width:1;"/><polygon fill="#008000" points="470.33,116.88,474.703,108.0552,470.5392,111.8844,466.71,107.7205,470.33,116.88" style="stroke:#008000;stroke-width:1;"/></g><!--link importarPreguntas to PREGUNTAS_CONTEXTUALES_ABIERTO--><g class="link" data-entity-1="importarPreguntas" data-entity-2="PREGUNTAS_CONTEXTUALES_ABIERTO" data-source-line="57" data-uid="lnk15" id="link_importarPreguntas_PREGUNTAS_CONTEXTUALES_ABIERTO"><path d="M491.9,116.88 C490.83,92.76 490.1163,78.1059 488.3163,63.3459" fill="none" id="importarPreguntas-to-PREGUNTAS_CONTEXTUALES_ABIERTO" style="stroke:#008000;stroke-width:1;"/><polygon fill="#008000" points="487.59,57.39,484.7089,66.808,488.1953,62.3532,492.6501,65.8396,487.59,57.39" style="stroke:#008000;stroke-width:1;"/></g><!--SRC=[jPJjIiCm58R_voh2_E4c3FzBASnPP23Rs8S8OumiFSwmDgb99XiYU2tUWfVWdNWbfb_hijQFYQQbaEJDUP-Sf4Sj6O-8924E60UzYG178jZ47OIK9XfmV-1TZhkZrd3MxdL7tiretBhoXhFMUSSRZ7gvYeMHa9h8leJ5YckYi7bhfT5weuOV4SAcfUjgvZ7A0Tolc6HyqKbMb0LzAHwORmJRK5zeseBVCXaIpGJVaL7iEFHEC0gkcp9CJgQuEJbQI00-RRgL65oOfOB72Lec0yxSlH0Kk0RdTEvY9G96cIRR5E38GWJkfp5CIrttN2o2J_PP1J5aIaD84eW8PCZYO-1Q2dz5cKnKxyyl1Gqk42sm5AfiNCrLokrt-ScHu62INIiBXXvqCDjCq2oUpDqfUtlbnJJX58AgMPkFnYmI_4EEA-FAFVxL8jkbvN66GKeXZGt-eVissUOV-PNXRW_3cccXY6tsXD0nDeTi9ir7nI9peqr8XOgYazKP2wbKLb2v_5YNTp_Qdd5tx5stXhXkXZIizOe4e1hewyBtHq1LeJy0]--></g></svg>