<svg xmlns="http://www.w3.org/2000/svg" xmlns:xlink="http://www.w3.org/1999/xlink" contentStyleType="text/css" data-diagram-type="SALT" height="447px" preserveAspectRatio="none" style="width:491px;height:447px;background:#FFFFFF;" version="1.1" viewBox="0 0 491 447" width="491px" zoomAndPan="magnify"><defs/><g><text fill="#000000" font-family="sans-serif" font-size="12" font-weight="bold" lengthAdjust="spacing" textLength="107.8125" x="6" y="17.1387">CREAR ALUMNO</text><line style="stroke:#AAAAAA;stroke-width:1;" x1="6" x2="484.0254" y1="24.4688" y2="24.4688"/><line style="stroke:#AAAAAA;stroke-width:1;" x1="6" x2="484.0254" y1="26.4688" y2="26.4688"/><text fill="#000000" font-family="sans-serif" font-size="12" font-weight="bold" lengthAdjust="spacing" textLength="179.7656" x="7" y="42.1074">Datos m&#237;nimos del alumno</text><line style="stroke:#AAAAAA;stroke-width:1;" x1="7" x2="483.0254" y1="50.4375" y2="50.4375"/><text fill="#000000" font-family="sans-serif" font-size="12" lengthAdjust="spacing" textLength="135.7441" x="8" y="67.0762">C&#243;digo del alumno (*):</text><text fill="#000000" font-family="sans-serif" font-size="12" lengthAdjust="spacing" textLength="3.8145" x="254.0254" y="67.0762">&#160;</text><line style="stroke:#000000;stroke-width:1;" x1="252.0254" x2="479.0254" y1="69.9063" y2="69.9063"/><line style="stroke:#000000;stroke-width:1;" x1="252.0254" x2="252.0254" y1="66.9063" y2="68.9063"/><line style="stroke:#000000;stroke-width:1;" x1="479.0254" x2="479.0254" y1="66.9063" y2="68.9063"/><text fill="#000000" font-family="sans-serif" font-size="12" font-style="italic" lengthAdjust="spacing" textLength="241.0254" x="8" y="101.0137">El c&#243;digo se generar&#225; autom&#225;ticamente</text><line style="stroke:#AAAAAA;stroke-width:1;stroke-dasharray:1,2;" x1="8" x2="250.0254" y1="109.3438" y2="109.3438"/><text fill="#000000" font-family="sans-serif" font-size="12" lengthAdjust="spacing" textLength="77.4141" x="8" y="124.9824">Nombres (*):</text><text fill="#000000" font-family="sans-serif" font-size="12" lengthAdjust="spacing" textLength="3.8145" x="254.0254" y="124.9824">&#160;</text><line style="stroke:#000000;stroke-width:1;" x1="252.0254" x2="479.0254" y1="127.8125" y2="127.8125"/><line style="stroke:#000000;stroke-width:1;" x1="252.0254" x2="252.0254" y1="124.8125" y2="126.8125"/><line style="stroke:#000000;stroke-width:1;" x1="479.0254" x2="479.0254" y1="124.8125" y2="126.8125"/><text fill="#000000" font-family="sans-serif" font-size="12" lengthAdjust="spacing" textLength="77.6426" x="8" y="142.9512">Apellidos (*):</text><text fill="#000000" font-family="sans-serif" font-size="12" lengthAdjust="spacing" textLength="3.8145" x="254.0254" y="142.9512">&#160;</text><line style="stroke:#000000;stroke-width:1;" x1="252.0254" x2="479.0254" y1="145.7813" y2="145.7813"/><line style="stroke:#000000;stroke-width:1;" x1="252.0254" x2="252.0254" y1="142.7813" y2="144.7813"/><line style="stroke:#000000;stroke-width:1;" x1="479.0254" x2="479.0254" y1="142.7813" y2="144.7813"/><text fill="#000000" font-family="sans-serif" font-size="12" lengthAdjust="spacing" textLength="44.9766" x="8" y="160.9199">DNI (*):</text><text fill="#000000" font-family="sans-serif" font-size="12" lengthAdjust="spacing" textLength="3.8145" x="254.0254" y="160.9199">&#160;</text><line style="stroke:#000000;stroke-width:1;" x1="252.0254" x2="479.0254" y1="163.75" y2="163.75"/><line style="stroke:#000000;stroke-width:1;" x1="252.0254" x2="252.0254" y1="160.75" y2="162.75"/><line style="stroke:#000000;stroke-width:1;" x1="479.0254" x2="479.0254" y1="160.75" y2="162.75"/><line style="stroke:#AAAAAA;stroke-width:1;stroke-dasharray:1,2;" x1="8" x2="250.0254" y1="171.25" y2="171.25"/><text fill="#000000" font-family="sans-serif" font-size="12" lengthAdjust="spacing" textLength="114.7266" x="8" y="186.8887">Correo electr&#243;nico:</text><text fill="#000000" font-family="sans-serif" font-size="12" lengthAdjust="spacing" textLength="3.8145" x="254.0254" y="186.8887">&#160;</text><line style="stroke:#000000;stroke-width:1;" x1="252.0254" x2="479.0254" y1="189.7188" y2="189.7188"/><line style="stroke:#000000;stroke-width:1;" x1="252.0254" x2="252.0254" y1="186.7188" y2="188.7188"/><line style="stroke:#000000;stroke-width:1;" x1="479.0254" x2="479.0254" y1="186.7188" y2="188.7188"/><text fill="#000000" font-family="sans-serif" font-size="12" lengthAdjust="spacing" textLength="55.9863" x="8" y="204.8574">Tel&#233;fono:</text><text fill="#000000" font-family="sans-serif" font-size="12" lengthAdjust="spacing" textLength="3.8145" x="254.0254" y="204.8574">&#160;</text><line style="stroke:#000000;stroke-width:1;" x1="252.0254" x2="479.0254" y1="207.6875" y2="207.6875"/><line style="stroke:#000000;stroke-width:1;" x1="252.0254" x2="252.0254" y1="204.6875" y2="206.6875"/><line style="stroke:#000000;stroke-width:1;" x1="479.0254" x2="479.0254" y1="204.6875" y2="206.6875"/><line style="stroke:#AAAAAA;stroke-width:1;" x1="7" x2="483.0254" y1="216.1875" y2="216.1875"/><text fill="#000000" font-family="sans-serif" font-size="12" font-weight="bold" lengthAdjust="spacing" textLength="122.9707" x="7" y="231.8262">Asignaci&#243;n inicial:</text><text fill="#000000" font-family="sans-serif" font-size="12" lengthAdjust="spacing" textLength="40.5879" x="8" y="248.7949">Grado:</text><rect fill="#EEEEEE" height="16.9688" style="stroke:#000000;stroke-width:1;" width="191" x="152.6914" y="237.6563"/><text fill="#000000" font-family="sans-serif" font-size="12" lengthAdjust="spacing" textLength="132.5801" x="154.6914" y="250.7949">Ingenier&#237;a Inform&#225;tica</text><line style="stroke:#000000;stroke-width:1;" x1="332.6914" x2="332.6914" y1="237.6563" y2="254.625"/><polygon fill="#000000" points="335.6914,243.6563,341.6914,243.6563,338.6914,249.625" style="stroke:#000000;stroke-width:1;"/><line style="stroke:#AAAAAA;stroke-width:1;stroke-dasharray:1,2;" x1="8" x2="151.6914" y1="261.125" y2="261.125"/><text fill="#000000" font-family="sans-serif" font-size="12" lengthAdjust="spacing" textLength="75.2637" x="8" y="276.7637">Asignaturas:</text><text fill="#000000" font-family="sans-serif" font-size="12" lengthAdjust="spacing" textLength="87.9727" x="29" y="293.7324">Matem&#225;ticas II</text><rect fill="none" height="10" style="stroke:#000000;stroke-width:1.5;" width="10" x="11" y="284.5781"/><text fill="#000000" font-family="sans-serif" font-size="12" lengthAdjust="spacing" textLength="41.127" x="29" y="309.7012">F&#237;sica I</text><rect fill="none" height="10" style="stroke:#000000;stroke-width:1.5;" width="10" x="11" y="300.5469"/><text fill="#000000" font-family="sans-serif" font-size="12" lengthAdjust="spacing" textLength="90.6914" x="29" y="325.6699">Programaci&#243;n I</text><rect fill="none" height="10" style="stroke:#000000;stroke-width:1.5;" width="10" x="11" y="316.5156"/><line style="stroke:#AAAAAA;stroke-width:1;stroke-dasharray:1,2;" x1="9" x2="120.6914" y1="334" y2="334"/><line style="stroke:#000000;stroke-width:1;" x1="8" x2="120.6914" y1="281.5938" y2="281.5938"/><line style="stroke:#000000;stroke-width:1;" x1="8" x2="120.6914" y1="337.5" y2="337.5"/><line style="stroke:#000000;stroke-width:1;" x1="8" x2="8" y1="281.5938" y2="297.5625"/><line style="stroke:#000000;stroke-width:1;" x1="120.6914" x2="120.6914" y1="297.5625" y2="313.5313"/><line style="stroke:#000000;stroke-width:1;" x1="120.6914" x2="120.6914" y1="281.5938" y2="297.5625"/><line style="stroke:#000000;stroke-width:1;" x1="8" x2="8" y1="329.5" y2="337.5"/><line style="stroke:#000000;stroke-width:1;" x1="8" x2="8" y1="313.5313" y2="329.5"/><line style="stroke:#000000;stroke-width:1;" x1="120.6914" x2="120.6914" y1="329.5" y2="337.5"/><line style="stroke:#000000;stroke-width:1;" x1="8" x2="8" y1="297.5625" y2="313.5313"/><line style="stroke:#000000;stroke-width:1;" x1="120.6914" x2="120.6914" y1="313.5313" y2="329.5"/><rect fill="none" height="55.9063" style="stroke:#000000;stroke-width:1;" width="15" x="124.6914" y="281.5938"/><line style="stroke:#000000;stroke-width:1;" x1="124.6914" x2="139.6914" y1="293.5938" y2="293.5938"/><line style="stroke:#000000;stroke-width:1;" x1="124.6914" x2="139.6914" y1="325.5" y2="325.5"/><path d="M131.6914,285.5938 L134.6914,290.5938 L128.6914,290.5938 L131.6914,285.5938" fill="#000000"/><path d="M131.6914,334.5 L134.6914,329.5 L128.6914,329.5 L131.6914,334.5" fill="#000000"/><line style="stroke:#AAAAAA;stroke-width:1.5;" x1="7" x2="483.0254" y1="344" y2="344"/><text fill="#000000" font-family="sans-serif" font-size="12" font-style="italic" lengthAdjust="spacing" textLength="142.1309" x="7" y="375.6074">(*) Campos obligatorios</text><text fill="#000000" font-family="sans-serif" font-size="12" font-style="italic" lengthAdjust="spacing" textLength="325.2715" x="7" y="391.5762">Las asignaciones se pueden modificar posteriormente</text><line style="stroke:#AAAAAA;stroke-width:1.5;" x1="7" x2="483.0254" y1="399.9063" y2="399.9063"/><rect fill="#EEEEEE" height="17.9688" rx="5" ry="5" style="stroke:#000000;stroke-width:2.5;" width="100" x="10.5" y="423.875"/><text fill="#000000" font-family="sans-serif" font-size="12" lengthAdjust="spacing" textLength="81.7266" x="19.6367" y="437.0137">Crear alumno</text><rect fill="#EEEEEE" height="17.9688" rx="5" ry="5" style="stroke:#000000;stroke-width:2.5;" width="68" x="117.5" y="423.875"/><text fill="#000000" font-family="sans-serif" font-size="12" lengthAdjust="spacing" textLength="52.9395" x="125.0303" y="437.0137">Cancelar</text><rect fill="none" height="55.9063" style="stroke:#000000;stroke-width:1;" width="15" x="124.6914" y="281.5938"/><line style="stroke:#000000;stroke-width:1;" x1="124.6914" x2="139.6914" y1="293.5938" y2="293.5938"/><line style="stroke:#000000;stroke-width:1;" x1="124.6914" x2="139.6914" y1="325.5" y2="325.5"/><path d="M131.6914,285.5938 L134.6914,290.5938 L128.6914,290.5938 L131.6914,285.5938" fill="#000000"/><path d="M131.6914,334.5 L134.6914,329.5 L128.6914,329.5 L131.6914,334.5" fill="#000000"/><!--SRC=[bLJ1Rk8m4BtxAqOzjIj1QTLTxKOKbGsqeakWej0BeYkJ394bnqQsWrInz5zwt4DF_OJys0wGqgP5Q9bB7C_Cyvln6rzOnuspN3e83N9JbscYzE_BRYyOjEkzLfVD6P1LnpM_rwpteDuU19rkzNXSM-sVdv-llkkeFBB1dRQGPCzA9BI8K09VuMxIbbOgRPPlsKlpivT8nFfT7Xn-EVBW3np03ZieW9GBVrLHQqe8Ss2B4AD2mqts13nrEicUd0XvWifXzLZKYaX5g8vEnWRjcXBPNgpgKvHIHFerVQ_aHgUrENNlapzKuMjZK0DA39t9NfG8zPuDxgFC_awqqjwxpVz6M6nMs_JmNanrAsB5Gq4aGH1FmQLNq55HF5U6HwjIxbkABbcWoPuvjDH4c_oMxtVrPNsQImstNi4nlssnZ-KCOGG1TvW3MsXjZxdCdYtvORltnkZOy2GlyNDC-GF5nQucFZwopnD0wYVTWC-JAIbFZwM8QKADqBOWTWfhKn4yRxXMf78QbMcA4If8T2GcL8K10d58sURplEpcCH_wopSc7-eHNTBGvof4oSreNSk2BTW5gcZv835s8xboWw0DCpIM-C19-RHo-hLyKZdifqYJE8FA6PnKlDEAT_O3Wji-BFr7xF3gfWrMfoP4Y8HrHenJHm17x9hFEFHIvKI27dIdgAuRlruteAbcmcYrh8jTtmLl0T_EIZ-5WriqH0Nk0jR02K_fqMogaFgYOWy6_SlITzRcAavvJDYecAy9rpnue58f_m40]--></g></svg>