<svg xmlns="http://www.w3.org/2000/svg" xmlns:xlink="http://www.w3.org/1999/xlink" contentStyleType="text/css" data-diagram-type="STATE" height="995px" preserveAspectRatio="none" style="width:1331px;height:995px;background:#FFFFFF;" version="1.1" viewBox="0 0 1331 995" width="1331px" zoomAndPan="magnify"><defs/><g><g id="NoAuth"><rect fill="#F1F1F1" height="50" rx="12.5" ry="12.5" style="stroke:#181818;stroke-width:0.5;" width="147.251" x="87" y="500"/><line style="stroke:#181818;stroke-width:0.5;" x1="87" x2="234.251" y1="526.2969" y2="526.2969"/><text fill="#000000" font-family="sans-serif" font-size="14" lengthAdjust="spacing" textLength="127.251" x="97" y="517.9951">SESION_CERRADA</text></g><g id="Menu"><rect fill="#F1F1F1" height="50" rx="12.5" ry="12.5" style="stroke:#181818;stroke-width:0.5;" width="172.0654" x="388" y="500"/><line style="stroke:#181818;stroke-width:0.5;" x1="388" x2="560.0654" y1="526.2969" y2="526.2969"/><text fill="#000000" font-family="sans-serif" font-size="14" lengthAdjust="spacing" textLength="152.0654" x="398" y="517.9951">SISTEMA_DISPONIBLE</text></g><g id="ListGrados"><rect fill="#F1F1F1" height="50" rx="12.5" ry="12.5" style="stroke:#181818;stroke-width:0.5;" width="149.2949" x="775" y="107"/><line style="stroke:#181818;stroke-width:0.5;" x1="775" x2="924.2949" y1="133.2969" y2="133.2969"/><text fill="#000000" font-family="sans-serif" font-size="14" lengthAdjust="spacing" textLength="129.2949" x="785" y="124.9951">GRADOS_ABIERTO</text></g><g id="EditGrado"><rect fill="#F1F1F1" height="50" rx="12.5" ry="12.5" style="stroke:#181818;stroke-width:0.5;" width="140.4082" x="1160" y="68"/><line style="stroke:#181818;stroke-width:0.5;" x1="1160" x2="1300.4082" y1="94.2969" y2="94.2969"/><text fill="#000000" font-family="sans-serif" font-size="14" lengthAdjust="spacing" textLength="120.4082" x="1170" y="85.9951">GRADO_ABIERTO</text></g><g id="ListAsignaturas"><rect fill="#F1F1F1" height="50" rx="12.5" ry="12.5" style="stroke:#181818;stroke-width:0.5;" width="188.9365" x="755" y="237"/><line style="stroke:#181818;stroke-width:0.5;" x1="755" x2="943.9365" y1="263.2969" y2="263.2969"/><text fill="#000000" font-family="sans-serif" font-size="14" lengthAdjust="spacing" textLength="168.9365" x="765" y="254.9951">ASIGNATURAS_ABIERTO</text></g><g id="EditAsignatura"><rect fill="#F1F1F1" height="50" rx="12.5" ry="12.5" style="stroke:#181818;stroke-width:0.5;" width="180.0498" x="1140" y="239"/><line style="stroke:#181818;stroke-width:0.5;" x1="1140" x2="1320.0498" y1="265.2969" y2="265.2969"/><text fill="#000000" font-family="sans-serif" font-size="14" lengthAdjust="spacing" textLength="160.0498" x="1150" y="256.9951">ASIGNATURA_ABIERTO</text></g><g id="ListAlumnos"><rect fill="#F1F1F1" height="50" rx="12.5" ry="12.5" style="stroke:#181818;stroke-width:0.5;" width="158.5371" x="770" y="412"/><line style="stroke:#181818;stroke-width:0.5;" x1="770" x2="928.5371" y1="438.2969" y2="438.2969"/><text fill="#000000" font-family="sans-serif" font-size="14" lengthAdjust="spacing" textLength="138.5371" x="780" y="429.9951">ALUMNOS_ABIERTO</text></g><g id="EditAlumno"><rect fill="#F1F1F1" height="50" rx="12.5" ry="12.5" style="stroke:#181818;stroke-width:0.5;" width="149.6504" x="1155" y="412"/><line style="stroke:#181818;stroke-width:0.5;" x1="1155" x2="1304.6504" y1="438.2969" y2="438.2969"/><text fill="#000000" font-family="sans-serif" font-size="14" lengthAdjust="spacing" textLength="129.6504" x="1165" y="429.9951">ALUMNO_ABIERTO</text></g><g id="ListPreguntas"><rect fill="#F1F1F1" height="50" rx="12.5" ry="12.5" style="stroke:#181818;stroke-width:0.5;" width="174.0547" x="762.5" y="632"/><line style="stroke:#181818;stroke-width:0.5;" x1="762.5" x2="936.5547" y1="658.2969" y2="658.2969"/><text fill="#000000" font-family="sans-serif" font-size="14" lengthAdjust="spacing" textLength="154.0547" x="772.5" y="649.9951">PREGUNTAS_ABIERTO</text></g><g id="EditPregunta"><rect fill="#F1F1F1" height="50" rx="12.5" ry="12.5" style="stroke:#181818;stroke-width:0.5;" width="165.168" x="1147.5" y="632"/><line style="stroke:#181818;stroke-width:0.5;" x1="1147.5" x2="1312.668" y1="658.2969" y2="658.2969"/><text fill="#000000" font-family="sans-serif" font-size="14" lengthAdjust="spacing" textLength="145.168" x="1157.5" y="649.9951">PREGUNTA_ABIERTO</text></g><g id="ExamenesGenerados"><rect fill="#F1F1F1" height="50" rx="12.5" ry="12.5" style="stroke:#181818;stroke-width:0.5;" width="193.1475" x="753" y="717"/><line style="stroke:#181818;stroke-width:0.5;" x1="753" x2="946.1475" y1="743.2969" y2="743.2969"/><text fill="#000000" font-family="sans-serif" font-size="14" lengthAdjust="spacing" textLength="173.1475" x="763" y="734.9951">EXAMENES_GENERADOS</text></g><g id="ExamenesAsignados"><rect fill="#F1F1F1" height="50" rx="12.5" ry="12.5" style="stroke:#181818;stroke-width:0.5;" width="188.3213" x="1136" y="845"/><line style="stroke:#181818;stroke-width:0.5;" x1="1136" x2="1324.3213" y1="871.2969" y2="871.2969"/><text fill="#000000" font-family="sans-serif" font-size="14" lengthAdjust="spacing" textLength="168.3213" x="1146" y="862.9951">EXAMENES_ASIGNADOS</text></g><g id="ExamenesCorregidos"><rect fill="#F1F1F1" height="50" rx="12.5" ry="12.5" style="stroke:#181818;stroke-width:0.5;" width="198.9033" x="750" y="802"/><line style="stroke:#181818;stroke-width:0.5;" x1="750" x2="948.9033" y1="828.2969" y2="828.2969"/><text fill="#000000" font-family="sans-serif" font-size="14" lengthAdjust="spacing" textLength="178.9033" x="760" y="819.9951">EXAMENES_CORREGIDOS</text></g><ellipse cx="16" cy="525" fill="#222222" rx="10" ry="10" style="stroke:#222222;stroke-width:1;"/><!--link *start* to NoAuth--><g class="link" data-entity-1=".start." data-entity-2="NoAuth" data-source-line="27" data-uid="lnk3" id="link_.start._NoAuth"><path d="M26.35,525 C39.04,525 56.92,525 80.98,525" fill="none" id="*start*-to-NoAuth" style="stroke:#181818;stroke-width:1;"/><polygon fill="#181818" points="86.98,525,77.98,521,81.98,525,77.98,529,86.98,525" style="stroke:#181818;stroke-width:1;"/></g><!--link NoAuth to Menu--><g class="link" data-entity-1="NoAuth" data-entity-2="Menu" data-source-line="31" data-uid="lnk4" id="link_NoAuth_Menu"><path d="M234.14,525 C280.07,525 333.64,525 381.8,525" fill="none" id="NoAuth-to-Menu" style="stroke:#181818;stroke-width:1;"/><polygon fill="#181818" points="387.8,525,378.8,521,382.8,525,378.8,529,387.8,525" style="stroke:#181818;stroke-width:1;"/><text fill="#000000" font-family="sans-serif" font-size="13" lengthAdjust="spacing" textLength="92.5044" x="265" y="521.0669">iniciarSesion()</text></g><!--link Menu to NoAuth--><g class="link" data-entity-1="Menu" data-entity-2="NoAuth" data-source-line="32" data-uid="lnk5" id="link_Menu_NoAuth"><path d="M387.92,545.62 C377.89,547.42 367.75,548.96 358,550 C316.46,554.47 305.48,554.99 264,550 C254.27,548.83 250.0042,548.2821 240.0542,546.2121" fill="none" id="Menu-to-NoAuth" style="stroke:#181818;stroke-width:1;"/><polygon fill="#181818" points="234.18,544.99,242.1766,550.7393,239.0752,546.0084,243.8061,542.907,234.18,544.99" style="stroke:#181818;stroke-width:1;"/><text fill="#000000" font-family="sans-serif" font-size="13" lengthAdjust="spacing" textLength="92.1172" x="265" y="546.0669">cerrarSesion()</text></g><!--link Menu to ListGrados--><g class="link" data-entity-1="Menu" data-entity-2="ListGrados" data-source-line="36" data-uid="lnk6" id="link_Menu_ListGrados"><path d="M475.24,499.97 C477.29,435.93 492.14,265.2 590,180 C640.44,136.1 711.8,126.7179 768.76,126.7379" fill="none" id="Menu-to-ListGrados" style="stroke:#181818;stroke-width:1;"/><polygon fill="#181818" points="774.76,126.74,765.76,122.74,769.76,126.74,765.76,130.74,774.76,126.74" style="stroke:#181818;stroke-width:1;"/><text fill="#000000" font-family="sans-serif" font-size="13" lengthAdjust="spacing" textLength="77.543" x="616.5" y="126.0669">verGrados()</text></g><!--link ListGrados to Menu--><g class="link" data-entity-1="ListGrados" data-entity-2="Menu" data-source-line="42" data-uid="lnk12" id="link_ListGrados_Menu"><path d="M779.86,157.05 C769.48,162.02 759.19,167.68 750,174 C734.2,184.87 736.2,194.75 720,205 C668.45,237.61 634.58,207.37 590,249 C514.88,319.15 488.1273,439.9669 479.4273,493.7969" fill="none" id="ListGrados-to-Menu" style="stroke:#181818;stroke-width:1;"/><polygon fill="#181818" points="478.47,499.72,483.8547,491.4735,479.2677,494.7841,475.9572,490.1971,478.47,499.72" style="stroke:#181818;stroke-width:1;"/><text fill="#000000" font-family="sans-serif" font-size="13" lengthAdjust="spacing" textLength="125.9248" x="592.5" y="201.0669">completarGestion()</text></g><!--link ListGrados to ListGrados--><g class="link" data-entity-1="ListGrados" data-entity-2="ListGrados" data-source-line="37" data-uid="lnk7" id="link_ListGrados_ListGrados"><path d="M817.02,106.73 C807.17,89.23 818,72 849.5,72 C881,72 894.773,84.0013 884.923,101.5013" fill="none" id="ListGrados-to-ListGrados" style="stroke:#181818;stroke-width:1;"/><polygon fill="#181818" points="881.98,106.73,889.8802,100.849,884.4325,102.3728,882.9087,96.925,881.98,106.73" style="stroke:#181818;stroke-width:1;"/><text fill="#000000" font-family="sans-serif" font-size="13" lengthAdjust="spacing" textLength="102.7813" x="798.5" y="63.0669">eliminarGrado()</text></g><!--link ListGrados to EditGrado--><g class="link" data-entity-1="ListGrados" data-entity-2="EditGrado" data-source-line="38" data-uid="lnk8" id="link_ListGrados_EditGrado"><path d="M894.73,106.87 C918.82,94.63 949.63,81.22 979,75 C1039.24,62.24 1103.3462,68.0765 1153.9362,76.7465" fill="none" id="ListGrados-to-EditGrado" style="stroke:#181818;stroke-width:1;"/><polygon fill="#181818" points="1159.85,77.76,1151.655,72.2972,1154.9218,76.9154,1150.3037,80.1823,1159.85,77.76" style="stroke:#181818;stroke-width:1;"/><text fill="#000000" font-family="sans-serif" font-size="13" lengthAdjust="spacing" textLength="83.5352" x="1001" y="64.0669">crearGrado()</text></g><!--link ListGrados to EditGrado--><g class="link" data-entity-1="ListGrados" data-entity-2="EditGrado" data-source-line="39" data-uid="lnk9" id="link_ListGrados_EditGrado"><path d="M924.38,124.39 C992.58,117.36 1087.1316,107.6249 1153.8116,100.7549" fill="none" id="ListGrados-to-EditGrado-1" style="stroke:#181818;stroke-width:1;"/><polygon fill="#181818" points="1159.78,100.14,1150.4174,97.0834,1154.8063,100.6524,1151.2373,105.0413,1159.78,100.14" style="stroke:#181818;stroke-width:1;"/><text fill="#000000" font-family="sans-serif" font-size="13" lengthAdjust="spacing" textLength="88.0039" x="998.5" y="103.0669">editarGrado()</text></g><!--link EditGrado to ListGrados--><g class="link" data-entity-1="EditGrado" data-entity-2="ListGrados" data-source-line="41" data-uid="lnk11" id="link_EditGrado_ListGrados"><path d="M1181.01,118.06 C1158.83,128.27 1131.73,138.88 1106,144 C1045.57,156.03 981.54,152.273 930.12,145.593" fill="none" id="EditGrado-to-ListGrados" style="stroke:#181818;stroke-width:1;"/><polygon fill="#181818" points="924.17,144.82,932.5797,149.9461,929.1283,145.4641,933.6103,142.0128,924.17,144.82" style="stroke:#181818;stroke-width:1;"/><text fill="#000000" font-family="sans-serif" font-size="13" lengthAdjust="spacing" textLength="77.543" x="1004" y="140.0669">verGrados()</text></g><!--link EditGrado to EditGrado--><g class="link" data-entity-1="EditGrado" data-entity-2="EditGrado" data-source-line="40" data-uid="lnk10" id="link_EditGrado_EditGrado"><path d="M1198.53,67.73 C1188.99,50.23 1199.48,33 1230,33 C1260.52,33 1273.8818,44.9619 1264.3418,62.4619" fill="none" id="EditGrado-to-EditGrado" style="stroke:#181818;stroke-width:1;"/><polygon fill="#181818" points="1261.47,67.73,1269.2898,61.7425,1263.8632,63.3399,1262.2657,57.9133,1261.47,67.73" style="stroke:#181818;stroke-width:1;"/><text fill="#000000" font-family="sans-serif" font-size="13" lengthAdjust="spacing" textLength="88.0039" x="1186" y="24.0669">editarGrado()</text></g><!--link Menu to ListAsignaturas--><g class="link" data-entity-1="Menu" data-entity-2="ListAsignaturas" data-source-line="46" data-uid="lnk13" id="link_Menu_ListAsignaturas"><path d="M482.29,499.74 C495.99,456.88 529.78,370.21 590,325 C637.28,289.5 695.9602,274.5242 748.7602,267.6542" fill="none" id="Menu-to-ListAsignaturas" style="stroke:#181818;stroke-width:1;"/><polygon fill="#181818" points="754.71,266.88,745.2691,264.0747,749.7518,267.5251,746.3013,272.0078,754.71,266.88" style="stroke:#181818;stroke-width:1;"/><text fill="#000000" font-family="sans-serif" font-size="13" lengthAdjust="spacing" textLength="108.3354" x="601" y="270.0669">verAsignaturas()</text></g><!--link ListAsignaturas to Menu--><g class="link" data-entity-1="ListAsignaturas" data-entity-2="Menu" data-source-line="52" data-uid="lnk19" id="link_ListAsignaturas_Menu"><path d="M775.67,287.13 C766.52,291.95 757.69,297.55 750,304 C731.3,319.69 737.63,333.12 720,350 C671.5,396.45 644.64,387.97 590,427 C558.2,449.72 528.8919,475.1455 506.2419,495.8155" fill="none" id="ListAsignaturas-to-Menu" style="stroke:#181818;stroke-width:1;"/><polygon fill="#181818" points="501.81,499.86,511.1542,496.7479,505.5033,496.4896,505.7616,490.8386,501.81,499.86" style="stroke:#181818;stroke-width:1;"/><text fill="#000000" font-family="sans-serif" font-size="13" lengthAdjust="spacing" textLength="125.9248" x="592.5" y="346.0669">completarGestion()</text></g><!--link ListAsignaturas to EditAsignatura--><g class="link" data-entity-1="ListAsignaturas" data-entity-2="EditAsignatura" data-source-line="47" data-uid="lnk14" id="link_ListAsignaturas_EditAsignatura"><path d="M944.07,248.98 C955.81,247.75 967.67,246.71 979,246 C1035.34,242.51 1049.7,241.91 1106,246 C1116.98,246.8 1122.5051,247.2661 1133.8651,248.6661" fill="none" id="ListAsignaturas-to-EditAsignatura" style="stroke:#181818;stroke-width:1;"/><polygon fill="#181818" points="1139.82,249.4,1131.3768,244.3292,1134.8575,248.7884,1130.3983,252.2691,1139.82,249.4" style="stroke:#181818;stroke-width:1;"/><text fill="#000000" font-family="sans-serif" font-size="13" lengthAdjust="spacing" textLength="114.3276" x="985.5" y="240.0669">crearAsignatura()</text></g><!--link EditAsignatura to ListAsignaturas--><g class="link" data-entity-1="EditAsignatura" data-entity-2="ListAsignaturas" data-source-line="50" data-uid="lnk17" id="link_EditAsignatura_ListAsignaturas"><path d="M1189.45,289.03 C1166.14,302.28 1135.52,317.19 1106,324 C1051,336.7 1033.02,340.36 979,324 C963.66,319.36 963.1,311.62 949,304 C937.96,298.04 931.3863,294.7291 919.5963,289.5091" fill="none" id="EditAsignatura-to-ListAsignaturas" style="stroke:#181818;stroke-width:1;"/><polygon fill="#181818" points="914.11,287.08,920.7201,294.3811,918.6819,289.1042,923.9588,287.066,914.11,287.08" style="stroke:#181818;stroke-width:1;"/><text fill="#000000" font-family="sans-serif" font-size="13" lengthAdjust="spacing" textLength="108.3354" x="988.5" y="320.0669">verAsignaturas()</text></g><!--link ListAsignaturas to EditAsignatura--><g class="link" data-entity-1="ListAsignaturas" data-entity-2="EditAsignatura" data-source-line="51" data-uid="lnk18" id="link_ListAsignaturas_EditAsignatura"><path d="M944.15,269.33 C955.88,270.02 967.71,270.61 979,271 C1035.41,272.98 1049.58,272.61 1106,271 C1116.9,270.69 1122.347,270.5207 1133.687,269.9707" fill="none" id="ListAsignaturas-to-EditAsignatura-1" style="stroke:#181818;stroke-width:1;"/><polygon fill="#181818" points="1139.68,269.68,1130.4968,266.1207,1134.6859,269.9222,1130.8843,274.1113,1139.68,269.68" style="stroke:#181818;stroke-width:1;"/><text fill="#000000" font-family="sans-serif" font-size="13" lengthAdjust="spacing" textLength="118.7964" x="983.5" y="267.0669">editarAsignatura()</text></g><!--link ListAsignaturas to ListAsignaturas--><g class="link" data-entity-1="ListAsignaturas" data-entity-2="ListAsignaturas" data-source-line="48" data-uid="lnk15" id="link_ListAsignaturas_ListAsignaturas"><path d="M817.02,236.73 C807.17,219.23 818,202 849.5,202 C881,202 894.773,214.0013 884.923,231.5013" fill="none" id="ListAsignaturas-to-ListAsignaturas" style="stroke:#181818;stroke-width:1;"/><polygon fill="#181818" points="881.98,236.73,889.8802,230.849,884.4325,232.3728,882.9087,226.925,881.98,236.73" style="stroke:#181818;stroke-width:1;"/><text fill="#000000" font-family="sans-serif" font-size="13" lengthAdjust="spacing" textLength="133.5737" x="783" y="193.0669">eliminarAsignatura()</text></g><!--link EditAsignatura to EditAsignatura--><g class="link" data-entity-1="EditAsignatura" data-entity-2="EditAsignatura" data-source-line="49" data-uid="lnk16" id="link_EditAsignatura_EditAsignatura"><path d="M1198.53,238.73 C1188.99,221.23 1199.48,204 1230,204 C1260.52,204 1273.8818,215.9619 1264.3418,233.4619" fill="none" id="EditAsignatura-to-EditAsignatura" style="stroke:#181818;stroke-width:1;"/><polygon fill="#181818" points="1261.47,238.73,1269.2898,232.7425,1263.8632,234.3399,1262.2657,228.9133,1261.47,238.73" style="stroke:#181818;stroke-width:1;"/><text fill="#000000" font-family="sans-serif" font-size="13" lengthAdjust="spacing" textLength="118.7964" x="1171" y="195.0669">editarAsignatura()</text></g><!--link Menu to ListAlumnos--><g class="link" data-entity-1="Menu" data-entity-2="ListAlumnos" data-source-line="56" data-uid="lnk20" id="link_Menu_ListAlumnos"><path d="M527.58,499.91 C546.85,491.56 569.07,482.9 590,477 C649.23,460.33 712.2191,450.7837 764.0091,444.8437" fill="none" id="Menu-to-ListAlumnos" style="stroke:#181818;stroke-width:1;"/><polygon fill="#181818" points="769.97,444.16,760.5728,441.2116,765.0026,444.7297,761.4844,449.1595,769.97,444.16" style="stroke:#181818;stroke-width:1;"/><text fill="#000000" font-family="sans-serif" font-size="13" lengthAdjust="spacing" textLength="87.5532" x="611.5" y="448.0669">verAlumnos()</text></g><!--link ListAlumnos to Menu--><g class="link" data-entity-1="ListAlumnos" data-entity-2="Menu" data-source-line="63" data-uid="lnk27" id="link_ListAlumnos_Menu"><path d="M783.25,462.08 C771.92,467.2 760.43,472.91 750,479 C735.49,487.48 735.64,495.87 720,502 C669.39,521.86 614.5592,527.5596 566.1692,528.3696" fill="none" id="ListAlumnos-to-Menu" style="stroke:#181818;stroke-width:1;"/><polygon fill="#181818" points="560.17,528.47,569.2357,532.3188,565.1693,528.3863,569.1018,524.3199,560.17,528.47" style="stroke:#181818;stroke-width:1;"/><text fill="#000000" font-family="sans-serif" font-size="13" lengthAdjust="spacing" textLength="125.9248" x="592.5" y="498.0669">completarGestion()</text></g><!--link ListAlumnos to EditAlumno--><g class="link" data-entity-1="ListAlumnos" data-entity-2="EditAlumno" data-source-line="57" data-uid="lnk21" id="link_ListAlumnos_EditAlumno"><path d="M929.15,424.22 C945.58,422.05 962.82,420.13 979,419 C1035.31,415.08 1049.7,414.91 1106,419 C1121.82,420.15 1132.7573,421.3028 1148.7773,423.5328" fill="none" id="ListAlumnos-to-EditAlumno" style="stroke:#181818;stroke-width:1;"/><polygon fill="#181818" points="1154.72,424.36,1146.3574,419.1574,1149.7677,423.6706,1145.2545,427.081,1154.72,424.36" style="stroke:#181818;stroke-width:1;"/><text fill="#000000" font-family="sans-serif" font-size="13" lengthAdjust="spacing" textLength="93.5454" x="996" y="412.0669">crearAlumno()</text></g><!--link ListAlumnos to EditAlumno--><g class="link" data-entity-1="ListAlumnos" data-entity-2="EditAlumno" data-source-line="58" data-uid="lnk22" id="link_ListAlumnos_EditAlumno"><path d="M929.3,441.98 C945.72,442.82 962.92,443.57 979,444 C1035.42,445.54 1049.58,445.61 1106,444 C1121.82,443.55 1132.7789,443.1073 1148.8889,442.2273" fill="none" id="ListAlumnos-to-EditAlumno-1" style="stroke:#181818;stroke-width:1;"/><polygon fill="#181818" points="1154.88,441.9,1145.6752,438.3968,1149.8874,442.1727,1146.1116,446.3849,1154.88,441.9" style="stroke:#181818;stroke-width:1;"/><text fill="#000000" font-family="sans-serif" font-size="13" lengthAdjust="spacing" textLength="98.0142" x="993.5" y="440.0669">editarAlumno()</text></g><!--link EditAlumno to ListAlumnos--><g class="link" data-entity-1="EditAlumno" data-entity-2="ListAlumnos" data-source-line="62" data-uid="lnk26" id="link_EditAlumno_ListAlumnos"><path d="M1154.87,460.95 C1138.91,465.13 1122.03,468.83 1106,471 C1050.07,478.59 1034.97,478.28 979,471 C962.64,468.88 951.2125,466.7285 934.8525,462.6585" fill="none" id="EditAlumno-to-ListAlumnos" style="stroke:#181818;stroke-width:1;"/><polygon fill="#181818" points="929.03,461.21,936.7981,467.2645,933.8821,462.4171,938.7295,459.5011,929.03,461.21" style="stroke:#181818;stroke-width:1;"/><text fill="#000000" font-family="sans-serif" font-size="13" lengthAdjust="spacing" textLength="87.5532" x="999" y="467.0669">verAlumnos()</text></g><!--link ListAlumnos to ListAlumnos--><g class="link" data-entity-1="ListAlumnos" data-entity-2="ListAlumnos" data-source-line="59" data-uid="lnk23" id="link_ListAlumnos_ListAlumnos"><path d="M833.26,411.73 C828.34,394.23 833.75,377 849.5,377 C865.25,377 872.2839,388.4539 867.3639,405.9539" fill="none" id="ListAlumnos-to-ListAlumnos" style="stroke:#181818;stroke-width:1;"/><polygon fill="#181818" points="865.74,411.73,872.0266,404.1485,867.0932,406.9166,864.3251,401.9833,865.74,411.73" style="stroke:#181818;stroke-width:1;"/><text fill="#000000" font-family="sans-serif" font-size="13" lengthAdjust="spacing" textLength="112.7915" x="793.5" y="368.0669">eliminarAlumno()</text></g><!--link ListAlumnos to ListAlumnos--><g class="link" data-entity-1="ListAlumnos" data-entity-2="ListAlumnos" data-source-line="60" data-uid="lnk24" id="link_ListAlumnos_ListAlumnos"><path d="M824.27,411.71 C803.96,379.89 812.38,342 849.5,342 C886.62,342 898.2681,374.8324 877.9581,406.6524" fill="none" id="ListAlumnos-to-ListAlumnos-1" style="stroke:#181818;stroke-width:1;"/><polygon fill="#181818" points="874.73,411.71,882.9439,406.2757,877.4201,407.4954,876.2005,401.9715,874.73,411.71" style="stroke:#181818;stroke-width:1;"/><text fill="#000000" font-family="sans-serif" font-size="13" lengthAdjust="spacing" textLength="122.751" x="788.5" y="333.0669">importarAlumnos()</text></g><!--link EditAlumno to EditAlumno--><g class="link" data-entity-1="EditAlumno" data-entity-2="EditAlumno" data-source-line="61" data-uid="lnk25" id="link_EditAlumno_EditAlumno"><path d="M1198.53,411.73 C1188.99,394.23 1199.48,377 1230,377 C1260.52,377 1273.8818,388.9619 1264.3418,406.4619" fill="none" id="EditAlumno-to-EditAlumno" style="stroke:#181818;stroke-width:1;"/><polygon fill="#181818" points="1261.47,411.73,1269.2898,405.7425,1263.8632,407.3399,1262.2657,401.9133,1261.47,411.73" style="stroke:#181818;stroke-width:1;"/><text fill="#000000" font-family="sans-serif" font-size="13" lengthAdjust="spacing" textLength="98.0142" x="1181" y="368.0669">editarAlumno()</text></g><!--link Menu to ListPreguntas--><g class="link" data-entity-1="Menu" data-entity-2="ListPreguntas" data-source-line="67" data-uid="lnk28" id="link_Menu_ListPreguntas"><path d="M560.26,543.84 C607.99,555.49 668.15,572.03 720,592 C748.93,603.15 774.6998,615.8905 799.0298,629.0205" fill="none" id="Menu-to-ListPreguntas" style="stroke:#181818;stroke-width:1;"/><polygon fill="#181818" points="804.31,631.87,798.2894,624.0756,799.9099,629.4954,794.4901,631.1158,804.31,631.87" style="stroke:#181818;stroke-width:1;"/><text fill="#000000" font-family="sans-serif" font-size="13" lengthAdjust="spacing" textLength="96.9287" x="607" y="548.0669">verPreguntas()</text></g><!--link ListPreguntas to Menu--><g class="link" data-entity-1="ListPreguntas" data-entity-2="Menu" data-source-line="75" data-uid="lnk36" id="link_ListPreguntas_Menu"><path d="M762.5,648.51 C699.61,641.4 620.24,630.3 590,617 C554.19,601.26 524.3733,575.6919 502.7433,554.2719" fill="none" id="ListPreguntas-to-Menu" style="stroke:#181818;stroke-width:1;"/><polygon fill="#181818" points="498.48,550.05,502.0603,559.225,502.0327,553.5682,507.6895,553.5407,498.48,550.05" style="stroke:#181818;stroke-width:1;"/><text fill="#000000" font-family="sans-serif" font-size="13" lengthAdjust="spacing" textLength="125.9248" x="592.5" y="613.0669">completarGestion()</text></g><!--link ListPreguntas to EditPregunta--><g class="link" data-entity-1="ListPreguntas" data-entity-2="EditPregunta" data-source-line="68" data-uid="lnk29" id="link_ListPreguntas_EditPregunta"><path d="M936.73,643.25 C950.82,641.48 965.29,639.96 979,639 C1035.31,635.08 1049.7,634.91 1106,639 C1119.45,639.98 1127.7215,640.7755 1141.5215,642.5955" fill="none" id="ListPreguntas-to-EditPregunta" style="stroke:#181818;stroke-width:1;"/><polygon fill="#181818" points="1147.47,643.38,1139.0703,638.2376,1142.5129,642.7262,1138.0243,646.1689,1147.47,643.38" style="stroke:#181818;stroke-width:1;"/><text fill="#000000" font-family="sans-serif" font-size="13" lengthAdjust="spacing" textLength="102.9209" x="991.5" y="631.0669">crearPregunta()</text></g><!--link ListPreguntas to EditPregunta--><g class="link" data-entity-1="ListPreguntas" data-entity-2="EditPregunta" data-source-line="69" data-uid="lnk30" id="link_ListPreguntas_EditPregunta"><path d="M936.53,662.34 C950.71,663.03 965.26,663.63 979,664 C1035.42,665.54 1049.58,665.61 1106,664 C1119.36,663.62 1127.5379,663.3185 1141.3279,662.6085" fill="none" id="ListPreguntas-to-EditPregunta-1" style="stroke:#181818;stroke-width:1;"/><polygon fill="#181818" points="1147.32,662.3,1138.1262,658.7681,1142.3266,662.5571,1138.5376,666.7575,1147.32,662.3" style="stroke:#181818;stroke-width:1;"/><text fill="#000000" font-family="sans-serif" font-size="13" lengthAdjust="spacing" textLength="107.3896" x="989" y="660.0669">editarPregunta()</text></g><!--link EditPregunta to ListPreguntas--><g class="link" data-entity-1="EditPregunta" data-entity-2="ListPreguntas" data-source-line="74" data-uid="lnk35" id="link_EditPregunta_ListPreguntas"><path d="M1147.56,682.05 C1133.81,685.35 1119.59,688.21 1106,690 C1050.04,697.38 1035,697.08 979,690 C964.83,688.21 955.8376,686.6938 941.4776,683.3938" fill="none" id="EditPregunta-to-ListPreguntas" style="stroke:#181818;stroke-width:1;"/><polygon fill="#181818" points="935.63,682.05,943.5055,687.9641,940.503,683.1698,945.2972,680.1673,935.63,682.05" style="stroke:#181818;stroke-width:1;"/><text fill="#000000" font-family="sans-serif" font-size="13" lengthAdjust="spacing" textLength="96.9287" x="994.5" y="686.0669">verPreguntas()</text></g><!--link ListPreguntas to ListPreguntas--><g class="link" data-entity-1="ListPreguntas" data-entity-2="ListPreguntas" data-source-line="70" data-uid="lnk31" id="link_ListPreguntas_ListPreguntas"><path d="M838.67,631.73 C835.39,614.23 839,597 849.5,597 C860,597 864.7153,608.3327 861.4353,625.8327" fill="none" id="ListPreguntas-to-ListPreguntas" style="stroke:#181818;stroke-width:1;"/><polygon fill="#181818" points="860.33,631.73,865.9195,623.6209,861.2511,626.8156,858.0564,622.1472,860.33,631.73" style="stroke:#181818;stroke-width:1;"/><text fill="#000000" font-family="sans-serif" font-size="13" lengthAdjust="spacing" textLength="122.167" x="788.5" y="588.0669">eliminarPregunta()</text></g><!--link ListPreguntas to ListPreguntas--><g class="link" data-entity-1="ListPreguntas" data-entity-2="ListPreguntas" data-source-line="71" data-uid="lnk32" id="link_ListPreguntas_ListPreguntas"><path d="M832.68,631.71 C819.14,599.89 824.75,562 849.5,562 C874.25,562 882.2093,594.369 868.6693,626.189" fill="none" id="ListPreguntas-to-ListPreguntas-1" style="stroke:#181818;stroke-width:1;"/><polygon fill="#181818" points="866.32,631.71,873.5245,624.9947,868.2777,627.1092,866.1633,621.8624,866.32,631.71" style="stroke:#181818;stroke-width:1;"/><text fill="#000000" font-family="sans-serif" font-size="13" lengthAdjust="spacing" textLength="132.1265" x="783.5" y="553.0669">importarPreguntas()</text></g><!--link ListPreguntas to ListPreguntas--><g class="link" data-entity-1="ListPreguntas" data-entity-2="ListPreguntas" data-source-line="72" data-uid="lnk33" id="link_ListPreguntas_ListPreguntas"><path d="M829.19,631.8 C802.89,586.72 809.66,527 849.5,527 C889.34,527 899.1335,581.5375 872.8335,626.6175" fill="none" id="ListPreguntas-to-ListPreguntas-2" style="stroke:#181818;stroke-width:1;"/><polygon fill="#181818" points="869.81,631.8,877.8003,626.0419,872.3296,627.4812,870.8903,622.0106,869.81,631.8" style="stroke:#181818;stroke-width:1;"/><text fill="#000000" font-family="sans-serif" font-size="13" lengthAdjust="spacing" textLength="131.5425" x="784" y="518.0669">exportarPreguntas()</text></g><!--link EditPregunta to EditPregunta--><g class="link" data-entity-1="EditPregunta" data-entity-2="EditPregunta" data-source-line="73" data-uid="lnk34" id="link_EditPregunta_EditPregunta"><path d="M1198.53,631.73 C1188.99,614.23 1199.48,597 1230,597 C1260.52,597 1273.8818,608.9619 1264.3418,626.4619" fill="none" id="EditPregunta-to-EditPregunta" style="stroke:#181818;stroke-width:1;"/><polygon fill="#181818" points="1261.47,631.73,1269.2898,625.7425,1263.8632,627.3399,1262.2657,621.9133,1261.47,631.73" style="stroke:#181818;stroke-width:1;"/><text fill="#000000" font-family="sans-serif" font-size="13" lengthAdjust="spacing" textLength="107.3896" x="1176.5" y="588.0669">editarPregunta()</text></g><!--link Menu to Menu--><g class="link" data-entity-1="Menu" data-entity-2="Menu" data-source-line="79" data-uid="lnk37" id="link_Menu_Menu"><path d="M460.3,499.73 C456.14,482.23 460.71,465 474,465 C487.29,465 493.2476,476.3927 489.0876,493.8927" fill="none" id="Menu-to-Menu" style="stroke:#181818;stroke-width:1;"/><polygon fill="#181818" points="487.7,499.73,493.673,491.8991,488.8563,494.8656,485.8899,490.0489,487.7,499.73" style="stroke:#181818;stroke-width:1;"/><text fill="#000000" font-family="sans-serif" font-size="13" lengthAdjust="spacing" textLength="198.0596" x="375" y="456.0669">importarConfiguracionGlobal()</text></g><!--link Menu to Menu--><g class="link" data-entity-1="Menu" data-entity-2="Menu" data-source-line="80" data-uid="lnk38" id="link_Menu_Menu"><path d="M452.71,499.71 C435.58,467.89 442.68,430 474,430 C505.32,430 515.2641,462.6069 498.1341,494.4269" fill="none" id="Menu-to-Menu-1" style="stroke:#181818;stroke-width:1;"/><polygon fill="#181818" points="495.29,499.71,503.0782,493.6814,497.6601,495.3074,496.0341,489.8893,495.29,499.71" style="stroke:#181818;stroke-width:1;"/><text fill="#000000" font-family="sans-serif" font-size="13" lengthAdjust="spacing" textLength="197.4756" x="375.5" y="421.0669">exportarConfiguracionGlobal()</text></g><!--link Menu to ExamenesGenerados--><g class="link" data-entity-1="Menu" data-entity-2="ExamenesGenerados" data-source-line="84" data-uid="lnk39" id="link_Menu_ExamenesGenerados"><path d="M488.62,550.18 C507.29,582.3 543.82,637.34 590,668 C604.1,677.36 679.3565,698.3371 746.9965,716.0871" fill="none" id="Menu-to-ExamenesGenerados" style="stroke:#181818;stroke-width:1;"/><polygon fill="#181818" points="752.8,717.61,745.11,711.4566,747.9637,716.3409,743.0794,719.1946,752.8,717.61" style="stroke:#181818;stroke-width:1;"/><text fill="#000000" font-family="sans-serif" font-size="13" lengthAdjust="spacing" textLength="128.832" x="591" y="664.0669">generarExamenes()</text></g><!--link ExamenesGenerados to ExamenesAsignados--><g class="link" data-entity-1="ExamenesGenerados" data-entity-2="ExamenesAsignados" data-source-line="85" data-uid="lnk40" id="link_ExamenesGenerados_ExamenesAsignados"><path d="M924.83,767.14 C991.35,789.64 1082.686,820.5285 1149.156,842.9985" fill="none" id="ExamenesGenerados-to-ExamenesAsignados" style="stroke:#181818;stroke-width:1;"/><polygon fill="#181818" points="1154.84,844.92,1147.595,838.2485,1150.1033,843.3188,1145.033,845.8271,1154.84,844.92" style="stroke:#181818;stroke-width:1;"/><text fill="#000000" font-family="sans-serif" font-size="13" lengthAdjust="spacing" textLength="125.8423" x="980" y="783.0669">asignarExamenes()</text></g><!--link ExamenesAsignados to Menu--><g class="link" data-entity-1="ExamenesAsignados" data-entity-2="Menu" data-source-line="86" data-uid="lnk41" id="link_ExamenesAsignados_Menu"><path d="M1152.88,895.07 C1020.2,933.47 745.89,988.61 590,848 C500.27,767.07 480.9649,617.3749 476.6349,556.3849" fill="none" id="ExamenesAsignados-to-Menu" style="stroke:#181818;stroke-width:1;"/><polygon fill="#181818" points="476.21,550.4,472.8574,559.6607,476.5641,555.3874,480.8373,559.0941,476.21,550.4" style="stroke:#181818;stroke-width:1;"/><text fill="#000000" font-family="sans-serif" font-size="13" lengthAdjust="spacing" textLength="125.9248" x="787" y="923.0669">completarGestion()</text></g><!--link Menu to ExamenesCorregidos--><g class="link" data-entity-1="Menu" data-entity-2="ExamenesCorregidos" data-source-line="90" data-uid="lnk42" id="link_Menu_ExamenesCorregidos"><path d="M482.43,550.15 C496.44,593.39 530.82,681.97 590,732 C636.8,771.58 662.47,756.86 720,778 C740.73,785.62 757.6561,791.9861 777.9661,799.7561" fill="none" id="Menu-to-ExamenesCorregidos" style="stroke:#181818;stroke-width:1;"/><polygon fill="#181818" points="783.57,801.9,776.5934,794.9482,778.9001,800.1134,773.7349,802.4201,783.57,801.9" style="stroke:#181818;stroke-width:1;"/><text fill="#000000" font-family="sans-serif" font-size="13" lengthAdjust="spacing" textLength="128.686" x="591" y="728.0669">corregirExamenes()</text></g><!--link ExamenesCorregidos to Menu--><g class="link" data-entity-1="ExamenesCorregidos" data-entity-2="Menu" data-source-line="91" data-uid="lnk43" id="link_ExamenesCorregidos_Menu"><path d="M749.7,840.88 C697.53,842.9 635.16,836.31 590,803 C505.94,740.99 483.6691,612.1659 477.6691,556.1559" fill="none" id="ExamenesCorregidos-to-Menu" style="stroke:#181818;stroke-width:1;"/><polygon fill="#181818" points="477.03,550.19,474.0114,559.5649,477.5626,555.1616,481.9659,558.7127,477.03,550.19" style="stroke:#181818;stroke-width:1;"/><text fill="#000000" font-family="sans-serif" font-size="13" lengthAdjust="spacing" textLength="125.9248" x="592.5" y="799.0669">completarGestion()</text></g><!--SRC=[hPNHYgCm58RlVOemDvrTc1VenKAc4qIejcWB2yjI79jn0jQK90xpNli8-s8R4vEeSQg5lH4JltFEdpynfy9l0WWA62dV1JWJXWj1Q1q4AyH5VgPy5GJoHM3maA4isYMd3KfJ-08VGCv1Gc4ZtYqGPGSKmzDBbErtIVIyHGgASTtO9A6CtMKd-1oXzB1JtxU4Yv2rjGRGW45deXcR26PHcC33COL-DiX9MUUYOJdtSI-lertoxJ5E9cJ2ghdKJgV6_8IAiidsAGgFoM52vvxXigc5KsbGBwKXRLBq4yOeGTafb4_bgMO_ymkkCG_bOs2fvRKHOrvxqF9Um6QNIbNHE693cTH4LCZgmFAQaq8U7DmUc5_VVuEdfn_cU0Ihc9wRYWAEkKGae3yefZqTO0r8BSDpbYdYyLkWfbqEIHIOiHvWavQiEwOsn1seDVZ0JB_A43VlORWY5rBdclLHU_oa38QNO5Y-Eiv-k0TRk8nssL8MlLmhtER2N8mSojtlCBQfzwUe8hrnLwatOyMxkSuFD_55b5VB63w87EQUBASDculwFqkRg3KLjc03zBNXcQ-djJhzRaheaLEbniPiDPWXE-rVeOFoTYyMqUHofSpcvcO3r6XEneXSRiAynrTpbuvTjfUiAc57NH4xjjBDJEUs6IxWzM9l1em46UVlYJ7-trx9kD2d7zGNlsGr7d-lk_ERMD3wZPJopsfR2IXL4wlw6wfJ60isVJoiw6jUzLk7XitIfs5R6dTzhL_DwwRhJXCpNrfRnj0Wr3RMTNSDJuLQQDQcltywdsJpBGhTJ3svhZMlDLcIgQeEkrds7m00]--></g></svg>