<svg xmlns="http://www.w3.org/2000/svg" xmlns:xlink="http://www.w3.org/1999/xlink" contentStyleType="text/css" data-diagram-type="STATE" height="1029px" preserveAspectRatio="none" style="width:1331px;height:1029px;background:#FFFFFF;" version="1.1" viewBox="0 0 1331 1029" width="1331px" zoomAndPan="magnify"><defs/><g><g id="NoAuth"><rect fill="#F1F1F1" height="50" rx="12.5" ry="12.5" style="stroke:#181818;stroke-width:0.5;" width="147.251" x="87" y="527"/><line style="stroke:#181818;stroke-width:0.5;" x1="87" x2="234.251" y1="553.2969" y2="553.2969"/><text fill="#000000" font-family="sans-serif" font-size="14" lengthAdjust="spacing" textLength="127.251" x="97" y="544.9951">SESION_CERRADA</text></g><g id="Menu"><rect fill="#F1F1F1" height="50" rx="12.5" ry="12.5" style="stroke:#181818;stroke-width:0.5;" width="172.0654" x="388.25" y="527"/><line style="stroke:#181818;stroke-width:0.5;" x1="388.25" x2="560.3154" y1="553.2969" y2="553.2969"/><text fill="#000000" font-family="sans-serif" font-size="14" lengthAdjust="spacing" textLength="152.0654" x="398.25" y="544.9951">SISTEMA_DISPONIBLE</text></g><g id="ListGrados"><rect fill="#F1F1F1" height="50" rx="12.5" ry="12.5" style="stroke:#181818;stroke-width:0.5;" width="149.2949" x="775.12" y="88"/><line style="stroke:#181818;stroke-width:0.5;" x1="775.12" x2="924.4149" y1="114.2969" y2="114.2969"/><text fill="#000000" font-family="sans-serif" font-size="14" lengthAdjust="spacing" textLength="129.2949" x="785.12" y="105.9951">GRADOS_ABIERTO</text></g><g id="EditGrado"><rect fill="#F1F1F1" height="50" rx="12.5" ry="12.5" style="stroke:#181818;stroke-width:0.5;" width="140.4082" x="1160.18" y="68"/><line style="stroke:#181818;stroke-width:0.5;" x1="1160.18" x2="1300.5882" y1="94.2969" y2="94.2969"/><text fill="#000000" font-family="sans-serif" font-size="14" lengthAdjust="spacing" textLength="120.4082" x="1170.18" y="85.9951">GRADO_ABIERTO</text></g><g id="ListAsignaturas"><rect fill="#F1F1F1" height="50" rx="12.5" ry="12.5" style="stroke:#181818;stroke-width:0.5;" width="188.9365" x="755.3" y="218"/><line style="stroke:#181818;stroke-width:0.5;" x1="755.3" x2="944.2365" y1="244.2969" y2="244.2969"/><text fill="#000000" font-family="sans-serif" font-size="14" lengthAdjust="spacing" textLength="168.9365" x="765.3" y="235.9951">ASIGNATURAS_ABIERTO</text></g><g id="EditAsignatura"><rect fill="#F1F1F1" height="50" rx="12.5" ry="12.5" style="stroke:#181818;stroke-width:0.5;" width="180.0498" x="1140.36" y="239"/><line style="stroke:#181818;stroke-width:0.5;" x1="1140.36" x2="1320.4098" y1="265.2969" y2="265.2969"/><text fill="#000000" font-family="sans-serif" font-size="14" lengthAdjust="spacing" textLength="160.0498" x="1150.36" y="256.9951">ASIGNATURA_ABIERTO</text></g><g id="ListAlumnos"><rect fill="#F1F1F1" height="50" rx="12.5" ry="12.5" style="stroke:#181818;stroke-width:0.5;" width="158.5371" x="770.5" y="438"/><line style="stroke:#181818;stroke-width:0.5;" x1="770.5" x2="929.0371" y1="464.2969" y2="464.2969"/><text fill="#000000" font-family="sans-serif" font-size="14" lengthAdjust="spacing" textLength="138.5371" x="780.5" y="455.9951">ALUMNOS_ABIERTO</text></g><g id="EditAlumno"><rect fill="#F1F1F1" height="50" rx="12.5" ry="12.5" style="stroke:#181818;stroke-width:0.5;" width="149.6504" x="1155.56" y="438"/><line style="stroke:#181818;stroke-width:0.5;" x1="1155.56" x2="1305.2104" y1="464.2969" y2="464.2969"/><text fill="#000000" font-family="sans-serif" font-size="14" lengthAdjust="spacing" textLength="129.6504" x="1165.56" y="455.9951">ALUMNO_ABIERTO</text></g><g id="ListPreguntas"><rect fill="#F1F1F1" height="50" rx="12.5" ry="12.5" style="stroke:#181818;stroke-width:0.5;" width="174.0547" x="762.74" y="658"/><line style="stroke:#181818;stroke-width:0.5;" x1="762.74" x2="936.7947" y1="684.2969" y2="684.2969"/><text fill="#000000" font-family="sans-serif" font-size="14" lengthAdjust="spacing" textLength="154.0547" x="772.74" y="675.9951">PREGUNTAS_ABIERTO</text></g><g id="EditPregunta"><rect fill="#F1F1F1" height="50" rx="12.5" ry="12.5" style="stroke:#181818;stroke-width:0.5;" width="165.168" x="1147.8" y="658"/><line style="stroke:#181818;stroke-width:0.5;" x1="1147.8" x2="1312.968" y1="684.2969" y2="684.2969"/><text fill="#000000" font-family="sans-serif" font-size="14" lengthAdjust="spacing" textLength="145.168" x="1157.8" y="675.9951">PREGUNTA_ABIERTO</text></g><g id="ExamenesGenerados"><rect fill="#F1F1F1" height="50" rx="12.5" ry="12.5" style="stroke:#181818;stroke-width:0.5;" width="193.1475" x="753.19" y="743"/><line style="stroke:#181818;stroke-width:0.5;" x1="753.19" x2="946.3375" y1="769.2969" y2="769.2969"/><text fill="#000000" font-family="sans-serif" font-size="14" lengthAdjust="spacing" textLength="173.1475" x="763.19" y="760.9951">EXAMENES_GENERADOS</text></g><g id="ExamenesAsignados"><rect fill="#F1F1F1" height="50" rx="12.5" ry="12.5" style="stroke:#181818;stroke-width:0.5;" width="188.3213" x="1136.22" y="857"/><line style="stroke:#181818;stroke-width:0.5;" x1="1136.22" x2="1324.5413" y1="883.2969" y2="883.2969"/><text fill="#000000" font-family="sans-serif" font-size="14" lengthAdjust="spacing" textLength="168.3213" x="1146.22" y="874.9951">EXAMENES_ASIGNADOS</text></g><g id="ExamenesCorregidos"><rect fill="#F1F1F1" height="50" rx="12.5" ry="12.5" style="stroke:#181818;stroke-width:0.5;" width="198.9033" x="750.32" y="828"/><line style="stroke:#181818;stroke-width:0.5;" x1="750.32" x2="949.2233" y1="854.2969" y2="854.2969"/><text fill="#000000" font-family="sans-serif" font-size="14" lengthAdjust="spacing" textLength="178.9033" x="760.32" y="845.9951">EXAMENES_CORREGIDOS</text></g><ellipse cx="16" cy="552" fill="#222222" rx="10" ry="10" style="stroke:#222222;stroke-width:1;"/><!--link *start* to NoAuth--><g class="link" data-entity-1=".start." data-entity-2="NoAuth" data-source-line="27" data-uid="lnk3" id="link_.start._NoAuth"><path d="M26.36,552 C39,552 56.73,552 80.69,552" fill="none" id="*start*-to-NoAuth" style="stroke:#181818;stroke-width:1;"/><polygon fill="#181818" points="86.69,552,77.69,548,81.69,552,77.69,556,86.69,552" style="stroke:#181818;stroke-width:1;"/></g><!--link NoAuth to Menu--><g class="link" data-entity-1="NoAuth" data-entity-2="Menu" data-source-line="31" data-uid="lnk4" id="link_NoAuth_Menu"><path d="M234.7,552 C280.57,552 333.94,552 381.97,552" fill="none" id="NoAuth-to-Menu" style="stroke:#181818;stroke-width:1;"/><polygon fill="#181818" points="387.97,552,378.97,548,382.97,552,378.97,556,387.97,552" style="stroke:#181818;stroke-width:1;"/><text fill="#000000" font-family="sans-serif" font-size="13" lengthAdjust="spacing" textLength="92.5044" x="265.25" y="548.0669">iniciarSesion()</text></g><!--link Menu to NoAuth--><g class="link" data-entity-1="Menu" data-entity-2="NoAuth" data-source-line="32" data-uid="lnk5" id="link_Menu_NoAuth"><path d="M387.87,572.68 C377.93,574.45 367.9,575.97 358.25,577 C316.71,581.47 305.73,581.98 264.25,577 C254.6,575.85 250.4249,575.319 240.5449,573.269" fill="none" id="Menu-to-NoAuth" style="stroke:#181818;stroke-width:1;"/><polygon fill="#181818" points="234.67,572.05,242.6697,577.795,239.5657,573.0658,244.295,569.9619,234.67,572.05" style="stroke:#181818;stroke-width:1;"/><text fill="#000000" font-family="sans-serif" font-size="13" lengthAdjust="spacing" textLength="92.1172" x="265.25" y="573.0669">cerrarSesion()</text></g><!--link Menu to ListGrados--><g class="link" data-entity-1="Menu" data-entity-2="ListGrados" data-source-line="36" data-uid="lnk6" id="link_Menu_ListGrados"><path d="M474.63,526.58 C474.33,457.52 483.61,265.07 590.32,167 C639.85,121.49 711.5213,110.5326 768.7913,109.3626" fill="none" id="Menu-to-ListGrados" style="stroke:#181818;stroke-width:1;"/><polygon fill="#181818" points="774.79,109.24,765.7102,105.4247,769.791,109.3421,765.8736,113.423,774.79,109.24" style="stroke:#181818;stroke-width:1;"/><text fill="#000000" font-family="sans-serif" font-size="13" lengthAdjust="spacing" textLength="77.543" x="616.82" y="110.0669">verGrados()</text></g><!--link ListGrados to Menu--><g class="link" data-entity-1="ListGrados" data-entity-2="Menu" data-source-line="42" data-uid="lnk12" id="link_ListGrados_Menu"><path d="M779.23,138.47 C769.09,143.55 759.12,149.4 750.32,156 C733.66,168.51 737.25,179.88 720.32,192 C669.99,228.05 633.83,197.97 590.32,242 C509.21,324.08 485.2511,462.4111 478.4011,520.6311" fill="none" id="ListGrados-to-Menu" style="stroke:#181818;stroke-width:1;"/><polygon fill="#181818" points="477.7,526.59,482.7243,518.1191,478.2843,521.6243,474.7791,517.1843,477.7,526.59" style="stroke:#181818;stroke-width:1;"/><text fill="#000000" font-family="sans-serif" font-size="13" lengthAdjust="spacing" textLength="125.9248" x="592.82" y="188.0669">completarGestion()</text></g><!--link ListGrados to ListGrados--><g class="link" data-entity-1="ListGrados" data-entity-2="ListGrados" data-source-line="37" data-uid="lnk7" id="link_ListGrados_ListGrados"><path d="M817.12,87.73 C807.23,70.23 818.11,53 849.77,53 C881.42,53 895.2643,65.0077 885.3643,82.5077" fill="none" id="ListGrados-to-ListGrados" style="stroke:#181818;stroke-width:1;"/><polygon fill="#181818" points="882.41,87.73,890.323,81.8661,884.8719,83.3781,883.36,77.9271,882.41,87.73" style="stroke:#181818;stroke-width:1;"/><text fill="#000000" font-family="sans-serif" font-size="13" lengthAdjust="spacing" textLength="102.7813" x="798.77" y="44.0669">eliminarGrado()</text></g><!--link ListGrados to EditGrado--><g class="link" data-entity-1="ListGrados" data-entity-2="EditGrado" data-source-line="38" data-uid="lnk8" id="link_ListGrados_EditGrado"><path d="M923.32,87.6 C941.36,82.38 960.81,77.67 979.22,75 C1039.87,66.22 1103.5148,71.6608 1153.8748,79.1208" fill="none" id="ListGrados-to-EditGrado" style="stroke:#181818;stroke-width:1;"/><polygon fill="#181818" points="1159.81,80,1151.4933,74.7244,1154.864,79.2673,1150.321,82.638,1159.81,80" style="stroke:#181818;stroke-width:1;"/><text fill="#000000" font-family="sans-serif" font-size="13" lengthAdjust="spacing" textLength="83.5352" x="1001.22" y="67.0669">crearGrado()</text></g><!--link ListGrados to EditGrado--><g class="link" data-entity-1="ListGrados" data-entity-2="EditGrado" data-source-line="39" data-uid="lnk9" id="link_ListGrados_EditGrado"><path d="M924.83,109.35 C975.83,106.81 1045.14,103.29 1106.22,100 C1123.54,99.07 1136.2396,98.3697 1153.6996,97.3797" fill="none" id="ListGrados-to-EditGrado-1" style="stroke:#181818;stroke-width:1;"/><polygon fill="#181818" points="1159.69,97.04,1150.478,93.5559,1154.698,97.3231,1150.9309,101.5431,1159.69,97.04" style="stroke:#181818;stroke-width:1;"/><text fill="#000000" font-family="sans-serif" font-size="13" lengthAdjust="spacing" textLength="88.0039" x="998.72" y="96.0669">editarGrado()</text></g><!--link EditGrado to ListGrados--><g class="link" data-entity-1="EditGrado" data-entity-2="ListGrados" data-source-line="41" data-uid="lnk11" id="link_EditGrado_ListGrados"><path d="M1161.87,118.47 C1144.03,124.06 1124.62,129.16 1106.22,132 C1045.57,141.38 982.0124,136.0183 930.8324,128.2683" fill="none" id="EditGrado-to-ListGrados" style="stroke:#181818;stroke-width:1;"/><polygon fill="#181818" points="924.9,127.37,933.1997,132.6724,929.8436,128.1186,934.3974,124.7626,924.9,127.37" style="stroke:#181818;stroke-width:1;"/><text fill="#000000" font-family="sans-serif" font-size="13" lengthAdjust="spacing" textLength="77.543" x="1004.22" y="128.0669">verGrados()</text></g><!--link EditGrado to EditGrado--><g class="link" data-entity-1="EditGrado" data-entity-2="EditGrado" data-source-line="40" data-uid="lnk10" id="link_EditGrado_EditGrado"><path d="M1198.63,67.73 C1189.01,50.23 1199.59,33 1230.38,33 C1261.17,33 1274.6404,44.9721 1265.0204,62.4721" fill="none" id="EditGrado-to-EditGrado" style="stroke:#181818;stroke-width:1;"/><polygon fill="#181818" points="1262.13,67.73,1269.9708,61.77,1264.5386,63.3484,1262.9603,57.9162,1262.13,67.73" style="stroke:#181818;stroke-width:1;"/><text fill="#000000" font-family="sans-serif" font-size="13" lengthAdjust="spacing" textLength="88.0039" x="1186.38" y="24.0669">editarGrado()</text></g><!--link Menu to ListAsignaturas--><g class="link" data-entity-1="Menu" data-entity-2="ListAsignaturas" data-source-line="46" data-uid="lnk13" id="link_Menu_ListAsignaturas"><path d="M481.54,526.64 C494.18,480.61 527.1,383.11 590.32,329 C636.57,289.41 695.8075,269.1672 749.0975,257.5572" fill="none" id="Menu-to-ListAsignaturas" style="stroke:#181818;stroke-width:1;"/><polygon fill="#181818" points="754.96,256.28,745.3148,254.2875,750.0746,257.3444,747.0178,262.1042,754.96,256.28" style="stroke:#181818;stroke-width:1;"/><text fill="#000000" font-family="sans-serif" font-size="13" lengthAdjust="spacing" textLength="108.3354" x="601.32" y="263.0669">verAsignaturas()</text></g><!--link ListAsignaturas to Menu--><g class="link" data-entity-1="ListAsignaturas" data-entity-2="Menu" data-source-line="52" data-uid="lnk19" id="link_ListAsignaturas_Menu"><path d="M773.94,268.36 C765.33,273.32 757.19,279.16 750.32,286 C726.92,309.32 740.77,328.07 720.32,354 C675.35,411.03 646.75,407.3 590.32,453 C560.22,477.38 531.2628,502.4446 508.2228,522.7346" fill="none" id="ListAsignaturas-to-Menu" style="stroke:#181818;stroke-width:1;"/><polygon fill="#181818" points="503.72,526.7,513.1179,523.7538,507.4724,523.3955,507.8307,517.75,503.72,526.7" style="stroke:#181818;stroke-width:1;"/><text fill="#000000" font-family="sans-serif" font-size="13" lengthAdjust="spacing" textLength="125.9248" x="592.82" y="350.0669">completarGestion()</text></g><!--link ListAsignaturas to EditAsignatura--><g class="link" data-entity-1="ListAsignaturas" data-entity-2="EditAsignatura" data-source-line="47" data-uid="lnk14" id="link_ListAsignaturas_EditAsignatura"><path d="M944.63,241.12 C992.97,240.9 1052.83,241.81 1106.22,246 C1117.21,246.87 1122.7463,247.3564 1134.1163,248.7764" fill="none" id="ListAsignaturas-to-EditAsignatura" style="stroke:#181818;stroke-width:1;"/><polygon fill="#181818" points="1140.07,249.52,1131.6351,244.4355,1135.1085,248.9004,1130.6437,252.3738,1140.07,249.52" style="stroke:#181818;stroke-width:1;"/><text fill="#000000" font-family="sans-serif" font-size="13" lengthAdjust="spacing" textLength="114.3276" x="985.72" y="238.0669">crearAsignatura()</text></g><!--link EditAsignatura to ListAsignaturas--><g class="link" data-entity-1="EditAsignatura" data-entity-2="ListAsignaturas" data-source-line="50" data-uid="lnk17" id="link_EditAsignatura_ListAsignaturas"><path d="M1189.47,289.46 C1138.55,318.45 1048.75,357.7 979.22,324 C959.86,314.62 966.26,299.15 949.22,286 C940.58,279.34 936.1026,276.181 926.0726,271.101" fill="none" id="EditAsignatura-to-ListAsignaturas" style="stroke:#181818;stroke-width:1;"/><polygon fill="#181818" points="920.72,268.39,926.9416,276.0249,925.1805,270.6492,930.5563,268.8881,920.72,268.39" style="stroke:#181818;stroke-width:1;"/><text fill="#000000" font-family="sans-serif" font-size="13" lengthAdjust="spacing" textLength="108.3354" x="988.72" y="320.0669">verAsignaturas()</text></g><!--link ListAsignaturas to EditAsignatura--><g class="link" data-entity-1="ListAsignaturas" data-entity-2="EditAsignatura" data-source-line="51" data-uid="lnk18" id="link_ListAsignaturas_EditAsignatura"><path d="M944.39,265.84 C956.06,267.97 967.87,269.78 979.22,271 C1032.35,276.73 1086.1918,275.7157 1134.0118,272.7157" fill="none" id="ListAsignaturas-to-EditAsignatura-1" style="stroke:#181818;stroke-width:1;"/><polygon fill="#181818" points="1140,272.34,1130.7672,268.9114,1135.0098,272.6531,1131.2681,276.8957,1140,272.34" style="stroke:#181818;stroke-width:1;"/><text fill="#000000" font-family="sans-serif" font-size="13" lengthAdjust="spacing" textLength="118.7964" x="983.72" y="267.0669">editarAsignatura()</text></g><!--link ListAsignaturas to ListAsignaturas--><g class="link" data-entity-1="ListAsignaturas" data-entity-2="ListAsignaturas" data-source-line="48" data-uid="lnk15" id="link_ListAsignaturas_ListAsignaturas"><path d="M817.12,217.73 C807.23,200.23 818.11,183 849.77,183 C881.42,183 895.2643,195.0077 885.3643,212.5077" fill="none" id="ListAsignaturas-to-ListAsignaturas" style="stroke:#181818;stroke-width:1;"/><polygon fill="#181818" points="882.41,217.73,890.323,211.8661,884.8719,213.3781,883.36,207.9271,882.41,217.73" style="stroke:#181818;stroke-width:1;"/><text fill="#000000" font-family="sans-serif" font-size="13" lengthAdjust="spacing" textLength="133.5737" x="783.27" y="174.0669">eliminarAsignatura()</text></g><!--link EditAsignatura to EditAsignatura--><g class="link" data-entity-1="EditAsignatura" data-entity-2="EditAsignatura" data-source-line="49" data-uid="lnk16" id="link_EditAsignatura_EditAsignatura"><path d="M1198.63,238.73 C1189.01,221.23 1199.59,204 1230.38,204 C1261.17,204 1274.6404,215.9721 1265.0204,233.4721" fill="none" id="EditAsignatura-to-EditAsignatura" style="stroke:#181818;stroke-width:1;"/><polygon fill="#181818" points="1262.13,238.73,1269.9708,232.77,1264.5386,234.3484,1262.9603,228.9162,1262.13,238.73" style="stroke:#181818;stroke-width:1;"/><text fill="#000000" font-family="sans-serif" font-size="13" lengthAdjust="spacing" textLength="118.7964" x="1171.38" y="195.0669">editarAsignatura()</text></g><!--link Menu to ListAlumnos--><g class="link" data-entity-1="Menu" data-entity-2="ListAlumnos" data-source-line="56" data-uid="lnk20" id="link_Menu_ListAlumnos"><path d="M527.26,526.61 C546.66,518.01 569.13,509.05 590.32,503 C649.48,486.11 712.4583,476.5769 764.2483,470.6969" fill="none" id="Menu-to-ListAlumnos" style="stroke:#181818;stroke-width:1;"/><polygon fill="#181818" points="770.21,470.02,760.8162,467.0608,765.2419,470.5841,761.7187,475.0098,770.21,470.02" style="stroke:#181818;stroke-width:1;"/><text fill="#000000" font-family="sans-serif" font-size="13" lengthAdjust="spacing" textLength="87.5532" x="611.82" y="474.0669">verAlumnos()</text></g><!--link ListAlumnos to Menu--><g class="link" data-entity-1="ListAlumnos" data-entity-2="Menu" data-source-line="64" data-uid="lnk28" id="link_ListAlumnos_Menu"><path d="M784.99,488.4 C773.23,493.77 761.23,499.72 750.32,506 C735.99,514.25 735.76,522.1 720.32,528 C669.61,547.39 614.9082,553.3035 566.6082,554.4835" fill="none" id="ListAlumnos-to-Menu" style="stroke:#181818;stroke-width:1;"/><polygon fill="#181818" points="560.61,554.63,569.705,558.409,565.6085,554.5079,569.5096,550.4114,560.61,554.63" style="stroke:#181818;stroke-width:1;"/><text fill="#000000" font-family="sans-serif" font-size="13" lengthAdjust="spacing" textLength="125.9248" x="592.82" y="524.0669">completarGestion()</text></g><!--link ListAlumnos to EditAlumno--><g class="link" data-entity-1="ListAlumnos" data-entity-2="EditAlumno" data-source-line="57" data-uid="lnk21" id="link_ListAlumnos_EditAlumno"><path d="M929.39,450.22 C945.81,448.05 963.05,446.13 979.22,445 C1035.53,441.08 1049.92,440.91 1106.22,445 C1122.17,446.16 1133.247,447.3352 1149.387,449.5752" fill="none" id="ListAlumnos-to-EditAlumno" style="stroke:#181818;stroke-width:1;"/><polygon fill="#181818" points="1155.33,450.4,1146.9653,445.2008,1150.3775,449.7127,1145.8656,453.1248,1155.33,450.4" style="stroke:#181818;stroke-width:1;"/><text fill="#000000" font-family="sans-serif" font-size="13" lengthAdjust="spacing" textLength="93.5454" x="996.22" y="438.0669">crearAlumno()</text></g><!--link ListAlumnos to EditAlumno--><g class="link" data-entity-1="ListAlumnos" data-entity-2="EditAlumno" data-source-line="58" data-uid="lnk22" id="link_ListAlumnos_EditAlumno"><path d="M929.2,467.96 C945.71,468.81 963.03,469.56 979.22,470 C1035.64,471.54 1049.8,471.61 1106.22,470 C1122.06,469.55 1133.0487,469.1034 1149.1687,468.2334" fill="none" id="ListAlumnos-to-EditAlumno-1" style="stroke:#181818;stroke-width:1;"/><polygon fill="#181818" points="1155.16,467.91,1145.9575,464.4008,1150.1673,468.1795,1146.3886,472.3892,1155.16,467.91" style="stroke:#181818;stroke-width:1;"/><text fill="#000000" font-family="sans-serif" font-size="13" lengthAdjust="spacing" textLength="98.0142" x="993.72" y="466.0669">editarAlumno()</text></g><!--link EditAlumno to ListAlumnos--><g class="link" data-entity-1="EditAlumno" data-entity-2="ListAlumnos" data-source-line="63" data-uid="lnk27" id="link_EditAlumno_ListAlumnos"><path d="M1155.15,486.95 C1139.18,491.13 1122.27,494.83 1106.22,497 C1050.29,504.58 1035.19,504.29 979.22,497 C962.86,494.88 951.4423,492.7293 935.0923,488.6593" fill="none" id="EditAlumno-to-ListAlumnos" style="stroke:#181818;stroke-width:1;"/><polygon fill="#181818" points="929.27,487.21,937.0372,493.2656,934.1219,488.4178,938.9697,485.5025,929.27,487.21" style="stroke:#181818;stroke-width:1;"/><text fill="#000000" font-family="sans-serif" font-size="13" lengthAdjust="spacing" textLength="87.5532" x="999.22" y="493.0669">verAlumnos()</text></g><!--link ListAlumnos to ListAlumnos--><g class="link" data-entity-1="ListAlumnos" data-entity-2="ListAlumnos" data-source-line="59" data-uid="lnk23" id="link_ListAlumnos_ListAlumnos"><path d="M838.89,437.73 C835.59,420.23 839.22,403 849.77,403 C860.32,403 865.0618,414.3339 861.7618,431.8339" fill="none" id="ListAlumnos-to-ListAlumnos" style="stroke:#181818;stroke-width:1;"/><polygon fill="#181818" points="860.65,437.73,866.2485,429.6271,861.5765,432.8166,858.387,428.1446,860.65,437.73" style="stroke:#181818;stroke-width:1;"/><text fill="#000000" font-family="sans-serif" font-size="13" lengthAdjust="spacing" textLength="112.7915" x="793.77" y="394.0669">eliminarAlumno()</text></g><!--link ListAlumnos to ListAlumnos--><g class="link" data-entity-1="ListAlumnos" data-entity-2="ListAlumnos" data-source-line="60" data-uid="lnk24" id="link_ListAlumnos_ListAlumnos"><path d="M832.86,437.71 C819.26,405.89 824.9,368 849.77,368 C874.64,368 882.6395,400.3734 869.0295,432.1934" fill="none" id="ListAlumnos-to-ListAlumnos-1" style="stroke:#181818;stroke-width:1;"/><polygon fill="#181818" points="866.67,437.71,873.887,431.0082,868.6363,433.1129,866.5316,427.8621,866.67,437.71" style="stroke:#181818;stroke-width:1;"/><text fill="#000000" font-family="sans-serif" font-size="13" lengthAdjust="spacing" textLength="122.167" x="788.77" y="359.0669">exportarAlumnos()</text></g><!--link ListAlumnos to ListAlumnos--><g class="link" data-entity-1="ListAlumnos" data-entity-2="ListAlumnos" data-source-line="61" data-uid="lnk25" id="link_ListAlumnos_ListAlumnos"><path d="M829.36,437.8 C802.92,392.72 809.73,333 849.77,333 C889.81,333 899.6446,387.544 873.2146,432.624" fill="none" id="ListAlumnos-to-ListAlumnos-2" style="stroke:#181818;stroke-width:1;"/><polygon fill="#181818" points="870.18,437.8,878.1826,432.0591,872.7089,433.4867,871.2813,428.0129,870.18,437.8" style="stroke:#181818;stroke-width:1;"/><text fill="#000000" font-family="sans-serif" font-size="13" lengthAdjust="spacing" textLength="122.751" x="788.77" y="324.0669">importarAlumnos()</text></g><!--link EditAlumno to EditAlumno--><g class="link" data-entity-1="EditAlumno" data-entity-2="EditAlumno" data-source-line="62" data-uid="lnk26" id="link_EditAlumno_EditAlumno"><path d="M1198.63,437.73 C1189.01,420.23 1199.59,403 1230.38,403 C1261.17,403 1274.6404,414.9721 1265.0204,432.4721" fill="none" id="EditAlumno-to-EditAlumno" style="stroke:#181818;stroke-width:1;"/><polygon fill="#181818" points="1262.13,437.73,1269.9708,431.77,1264.5386,433.3484,1262.9603,427.9162,1262.13,437.73" style="stroke:#181818;stroke-width:1;"/><text fill="#000000" font-family="sans-serif" font-size="13" lengthAdjust="spacing" textLength="98.0142" x="1181.38" y="394.0669">editarAlumno()</text></g><!--link Menu to ListPreguntas--><g class="link" data-entity-1="Menu" data-entity-2="ListPreguntas" data-source-line="68" data-uid="lnk29" id="link_Menu_ListPreguntas"><path d="M560.79,571.03 C608.47,582.72 668.5,599.23 720.32,619 C748.6,629.8 773.666,641.9551 797.776,654.7051" fill="none" id="Menu-to-ListPreguntas" style="stroke:#181818;stroke-width:1;"/><polygon fill="#181818" points="803.08,657.51,796.9939,649.7666,798.66,655.1726,793.254,656.8387,803.08,657.51" style="stroke:#181818;stroke-width:1;"/><text fill="#000000" font-family="sans-serif" font-size="13" lengthAdjust="spacing" textLength="96.9287" x="607.32" y="575.0669">verPreguntas()</text></g><!--link ListPreguntas to Menu--><g class="link" data-entity-1="ListPreguntas" data-entity-2="Menu" data-source-line="76" data-uid="lnk37" id="link_ListPreguntas_Menu"><path d="M762.45,681.18 C710.68,677.4 644.58,667.73 590.32,644 C554.47,628.33 524.6413,602.7539 503.0113,581.3139" fill="none" id="ListPreguntas-to-Menu" style="stroke:#181818;stroke-width:1;"/><polygon fill="#181818" points="498.75,577.09,502.3261,586.2667,502.3011,580.6099,507.9579,580.5849,498.75,577.09" style="stroke:#181818;stroke-width:1;"/><text fill="#000000" font-family="sans-serif" font-size="13" lengthAdjust="spacing" textLength="125.9248" x="592.82" y="640.0669">completarGestion()</text></g><!--link ListPreguntas to EditPregunta--><g class="link" data-entity-1="ListPreguntas" data-entity-2="EditPregunta" data-source-line="69" data-uid="lnk30" id="link_ListPreguntas_EditPregunta"><path d="M936.96,669.25 C951.05,667.48 965.52,665.96 979.22,665 C1035.53,661.08 1049.92,660.91 1106.22,665 C1119.58,665.98 1127.7511,666.749 1141.4611,668.549" fill="none" id="ListPreguntas-to-EditPregunta" style="stroke:#181818;stroke-width:1;"/><polygon fill="#181818" points="1147.41,669.33,1139.0073,664.1925,1142.4525,668.6791,1137.9659,672.1244,1147.41,669.33" style="stroke:#181818;stroke-width:1;"/><text fill="#000000" font-family="sans-serif" font-size="13" lengthAdjust="spacing" textLength="102.9209" x="991.72" y="657.0669">crearPregunta()</text></g><!--link ListPreguntas to EditPregunta--><g class="link" data-entity-1="ListPreguntas" data-entity-2="EditPregunta" data-source-line="70" data-uid="lnk31" id="link_ListPreguntas_EditPregunta"><path d="M937.11,688.36 C951.18,689.04 965.6,689.63 979.22,690 C1035.64,691.54 1049.8,691.61 1106.22,690 C1119.6,689.62 1127.7979,689.3183 1141.5979,688.6083" fill="none" id="ListPreguntas-to-EditPregunta-1" style="stroke:#181818;stroke-width:1;"/><polygon fill="#181818" points="1147.59,688.3,1138.3964,684.7677,1142.5966,688.5569,1138.8074,692.7571,1147.59,688.3" style="stroke:#181818;stroke-width:1;"/><text fill="#000000" font-family="sans-serif" font-size="13" lengthAdjust="spacing" textLength="107.3896" x="989.22" y="686.0669">editarPregunta()</text></g><!--link EditPregunta to ListPreguntas--><g class="link" data-entity-1="EditPregunta" data-entity-2="ListPreguntas" data-source-line="75" data-uid="lnk36" id="link_EditPregunta_ListPreguntas"><path d="M1147.5,708.13 C1133.84,711.4 1119.72,714.23 1106.22,716 C1050.26,723.37 1035.22,723.08 979.22,716 C965.51,714.27 957.0302,712.8723 943.1102,709.7023" fill="none" id="EditPregunta-to-ListPreguntas" style="stroke:#181818;stroke-width:1;"/><polygon fill="#181818" points="937.26,708.37,945.1471,714.2686,942.1352,709.4802,946.9235,706.4683,937.26,708.37" style="stroke:#181818;stroke-width:1;"/><text fill="#000000" font-family="sans-serif" font-size="13" lengthAdjust="spacing" textLength="96.9287" x="994.72" y="712.0669">verPreguntas()</text></g><!--link ListPreguntas to ListPreguntas--><g class="link" data-entity-1="ListPreguntas" data-entity-2="ListPreguntas" data-source-line="71" data-uid="lnk32" id="link_ListPreguntas_ListPreguntas"><path d="M838.89,657.73 C835.59,640.23 839.22,623 849.77,623 C860.32,623 865.0618,634.3339 861.7618,651.8339" fill="none" id="ListPreguntas-to-ListPreguntas" style="stroke:#181818;stroke-width:1;"/><polygon fill="#181818" points="860.65,657.73,866.2485,649.6271,861.5765,652.8166,858.387,648.1446,860.65,657.73" style="stroke:#181818;stroke-width:1;"/><text fill="#000000" font-family="sans-serif" font-size="13" lengthAdjust="spacing" textLength="122.167" x="788.77" y="614.0669">eliminarPregunta()</text></g><!--link ListPreguntas to ListPreguntas--><g class="link" data-entity-1="ListPreguntas" data-entity-2="ListPreguntas" data-source-line="72" data-uid="lnk33" id="link_ListPreguntas_ListPreguntas"><path d="M832.86,657.71 C819.26,625.89 824.9,588 849.77,588 C874.64,588 882.6395,620.3734 869.0295,652.1934" fill="none" id="ListPreguntas-to-ListPreguntas-1" style="stroke:#181818;stroke-width:1;"/><polygon fill="#181818" points="866.67,657.71,873.887,651.0082,868.6363,653.1129,866.5316,647.8621,866.67,657.71" style="stroke:#181818;stroke-width:1;"/><text fill="#000000" font-family="sans-serif" font-size="13" lengthAdjust="spacing" textLength="132.1265" x="783.77" y="579.0669">importarPreguntas()</text></g><!--link ListPreguntas to ListPreguntas--><g class="link" data-entity-1="ListPreguntas" data-entity-2="ListPreguntas" data-source-line="73" data-uid="lnk34" id="link_ListPreguntas_ListPreguntas"><path d="M829.36,657.8 C802.92,612.72 809.73,553 849.77,553 C889.81,553 899.6446,607.544 873.2146,652.624" fill="none" id="ListPreguntas-to-ListPreguntas-2" style="stroke:#181818;stroke-width:1;"/><polygon fill="#181818" points="870.18,657.8,878.1826,652.0591,872.7089,653.4867,871.2813,648.0129,870.18,657.8" style="stroke:#181818;stroke-width:1;"/><text fill="#000000" font-family="sans-serif" font-size="13" lengthAdjust="spacing" textLength="131.5425" x="784.27" y="544.0669">exportarPreguntas()</text></g><!--link EditPregunta to EditPregunta--><g class="link" data-entity-1="EditPregunta" data-entity-2="EditPregunta" data-source-line="74" data-uid="lnk35" id="link_EditPregunta_EditPregunta"><path d="M1198.63,657.73 C1189.01,640.23 1199.59,623 1230.38,623 C1261.17,623 1274.6404,634.9721 1265.0204,652.4721" fill="none" id="EditPregunta-to-EditPregunta" style="stroke:#181818;stroke-width:1;"/><polygon fill="#181818" points="1262.13,657.73,1269.9708,651.77,1264.5386,653.3484,1262.9603,647.9162,1262.13,657.73" style="stroke:#181818;stroke-width:1;"/><text fill="#000000" font-family="sans-serif" font-size="13" lengthAdjust="spacing" textLength="107.3896" x="1176.88" y="614.0669">editarPregunta()</text></g><!--link Menu to Menu--><g class="link" data-entity-1="Menu" data-entity-2="Menu" data-source-line="80" data-uid="lnk38" id="link_Menu_Menu"><path d="M460.49,526.73 C456.31,509.23 460.91,492 474.28,492 C487.66,492 493.6408,503.3934 489.4708,520.8934" fill="none" id="Menu-to-Menu" style="stroke:#181818;stroke-width:1;"/><polygon fill="#181818" points="488.08,526.73,494.0572,518.9023,489.239,521.8662,486.2751,517.0479,488.08,526.73" style="stroke:#181818;stroke-width:1;"/><text fill="#000000" font-family="sans-serif" font-size="13" lengthAdjust="spacing" textLength="198.0596" x="375.28" y="483.0669">importarConfiguracionGlobal()</text></g><!--link Menu to Menu--><g class="link" data-entity-1="Menu" data-entity-2="Menu" data-source-line="81" data-uid="lnk39" id="link_Menu_Menu"><path d="M452.86,526.71 C435.62,494.89 442.76,457 474.28,457 C505.81,457 515.8082,489.6145 498.5682,521.4345" fill="none" id="Menu-to-Menu-1" style="stroke:#181818;stroke-width:1;"/><polygon fill="#181818" points="495.71,526.71,503.5143,520.7023,498.0919,522.3138,496.4804,516.8913,495.71,526.71" style="stroke:#181818;stroke-width:1;"/><text fill="#000000" font-family="sans-serif" font-size="13" lengthAdjust="spacing" textLength="197.4756" x="375.78" y="448.0669">exportarConfiguracionGlobal()</text></g><!--link Menu to ExamenesGenerados--><g class="link" data-entity-1="Menu" data-entity-2="ExamenesGenerados" data-source-line="85" data-uid="lnk40" id="link_Menu_ExamenesGenerados"><path d="M487.9,577.28 C505.95,610.77 542.32,669.32 590.32,701 C617.2,718.75 685.2171,735.7517 747.1371,748.7017" fill="none" id="Menu-to-ExamenesGenerados" style="stroke:#181818;stroke-width:1;"/><polygon fill="#181818" points="753.01,749.93,745.0194,744.1723,748.1159,748.9064,743.3818,752.0029,753.01,749.93" style="stroke:#181818;stroke-width:1;"/><text fill="#000000" font-family="sans-serif" font-size="13" lengthAdjust="spacing" textLength="128.832" x="591.32" y="697.0669">generarExamenes()</text></g><!--link ExamenesGenerados to ExamenesAsignados--><g class="link" data-entity-1="ExamenesGenerados" data-entity-2="ExamenesAsignados" data-source-line="86" data-uid="lnk41" id="link_ExamenesGenerados_ExamenesAsignados"><path d="M935.26,793.45 C997.7,812.25 1076.6146,836.0107 1139.0746,854.8107" fill="none" id="ExamenesGenerados-to-ExamenesAsignados" style="stroke:#181818;stroke-width:1;"/><polygon fill="#181818" points="1144.82,856.54,1137.3548,850.1158,1140.0322,855.0989,1135.049,857.7763,1144.82,856.54" style="stroke:#181818;stroke-width:1;"/><text fill="#000000" font-family="sans-serif" font-size="13" lengthAdjust="spacing" textLength="125.8423" x="980.22" y="804.0669">asignarExamenes()</text></g><!--link ExamenesAsignados to Menu--><g class="link" data-entity-1="ExamenesAsignados" data-entity-2="Menu" data-source-line="87" data-uid="lnk42" id="link_ExamenesAsignados_Menu"><path d="M1161.88,907.45 C1033.62,950.96 753.01,1022.23 590.32,883 C496.02,802.31 479.2511,646.0229 476.2111,583.4329" fill="none" id="ExamenesAsignados-to-Menu" style="stroke:#181818;stroke-width:1;"/><polygon fill="#181818" points="475.92,577.44,472.3613,586.6235,476.1626,582.4341,480.3519,586.2354,475.92,577.44" style="stroke:#181818;stroke-width:1;"/><text fill="#000000" font-family="sans-serif" font-size="13" lengthAdjust="spacing" textLength="125.9248" x="787.27" y="953.0669">completarGestion()</text></g><!--link Menu to ExamenesCorregidos--><g class="link" data-entity-1="Menu" data-entity-2="ExamenesCorregidos" data-source-line="91" data-uid="lnk43" id="link_Menu_ExamenesCorregidos"><path d="M482.02,577.17 C495.24,621.84 528.82,715.16 590.32,767 C615.17,787.96 682.1046,809.6197 744.0946,826.6597" fill="none" id="Menu-to-ExamenesCorregidos" style="stroke:#181818;stroke-width:1;"/><polygon fill="#181818" points="749.88,828.25,742.2621,822.0076,745.0588,826.9247,740.1417,829.7215,749.88,828.25" style="stroke:#181818;stroke-width:1;"/><text fill="#000000" font-family="sans-serif" font-size="13" lengthAdjust="spacing" textLength="128.686" x="591.32" y="763.0669">corregirExamenes()</text></g><!--link ExamenesCorregidos to Menu--><g class="link" data-entity-1="ExamenesCorregidos" data-entity-2="Menu" data-source-line="92" data-uid="lnk44" id="link_ExamenesCorregidos_Menu"><path d="M750.04,873.42 C698.05,878.56 635.84,875.26 590.32,843 C501,779.71 481.4767,641.7526 477.0167,583.3326" fill="none" id="ExamenesCorregidos-to-Menu" style="stroke:#181818;stroke-width:1;"/><polygon fill="#181818" points="476.56,577.35,473.2567,586.6284,476.9406,582.3355,481.2335,586.0194,476.56,577.35" style="stroke:#181818;stroke-width:1;"/><text fill="#000000" font-family="sans-serif" font-size="13" lengthAdjust="spacing" textLength="125.9248" x="592.82" y="839.0669">completarGestion()</text></g><!--SRC=[hPNHYgCm58RlVOemDzrTc1VenKAc4qIejcWB2yjI79jn0jQK92vzhts4VR6DYKdKEDN2teY9tpddpv-OK-5t0GG5Z9GV0fm9muKWj0w25U8YFrE-2WBv8Z1uob0MxPBJ1gKfV8LF8ESWeR0H7nQ8iWEAuUarolQx97hP8WN5k6viab36xh8JV8bGUjYfxrl2HSZQMWDemA0pqOnD1BCeJE3Xc48_6-Iah7FHi9pxk9VNqIxvzXWd4p9XrLngfrDZVa95sMJx58N7v32XSyzmsTJ2gJIebzAGDYdw0MEKeEmKogVoLBEt_89hp4Fv65XgUMt4cDSUjBmNiDcbKbKqZjXG9ZKH5R8wiBpcf9071xS7vkUtN-3v-Riv7i4gfkUcee1ZBX49w0-AQKy7M0DIo_2SPOhuyZLGqow790hCM0-mIKlM7LCRuWxK6lp6JB_A43VlORWY5rBdclLHU_oa38QNO5Y-Eiv-U0HRk8nssL8MlLmhtER2N8mSojtlCBQfzwUe8hrnLwatOyMxkSuFD_59b5VB63w87EQUBASDculwFqkRg3KLjc03zBNXcQ-djJhzRaheaLEbniPiDPWXE-sVeOFoTY-MqRShPJOtdyF9POmxcNEgH-Hop-Qtv6gktl6cs3jPbR2ZheWTM-bcfjiSCrp0wyNU3HW9CXlrI8pn__vAneLkVb1V_9BLUFoZxivlOa7hTrBA7x7jFA1KFQ_gRwXEOIpOzF6meczvrUyq6ZPBduPjQTormNurh_ckEqtCV6bj6KE3KDk7rzsjFHLgeLcR_lxfV9AzkYXqx_Nakaw-rcH9fgewx6xPVm00]--></g></svg>