<svg xmlns="http://www.w3.org/2000/svg" xmlns:xlink="http://www.w3.org/1999/xlink" contentStyleType="text/css" data-diagram-type="STATE" height="765px" preserveAspectRatio="none" style="width:762px;height:765px;background:#FFFFFF;" version="1.1" viewBox="0 0 762 765" width="762px" zoomAndPan="magnify"><defs/><g><path d="M19.97,7 L568.97,7 A12.5,12.5 0 0 1 581.47,19.5 L581.47,33.2969 L7.47,33.2969 L7.47,19.5 A12.5,12.5 0 0 1 19.97,7" fill="#F1F1F1"/><rect fill="none" height="607.2969" rx="12.5" ry="12.5" style="stroke:#181818;stroke-width:0.5;" width="574" x="7.47" y="7"/><line style="stroke:#181818;stroke-width:0.5;" x1="7.47" x2="581.47" y1="33.2969" y2="33.2969"/><text fill="#000000" font-family="sans-serif" font-size="14" lengthAdjust="spacing" textLength="202.7334" x="193.1033" y="24.9951">editarAsignatura(asignatura)</text><g id="editarAsignatura.EditandoDatos"><rect fill="#F1F1F1" height="50" rx="12.5" ry="12.5" style="stroke:#181818;stroke-width:0.5;" width="50" x="152.47" y="150.2969"/><line style="stroke:#181818;stroke-width:0.5;" x1="152.47" x2="202.47" y1="176.5938" y2="176.5938"/><text fill="#000000" font-family="sans-serif" font-size="14" lengthAdjust="spacing" textLength="4.4502" x="175.2449" y="168.292">&#160;</text></g><g id="editarAsignatura.GuardandoDatos"><rect fill="#F1F1F1" height="50" rx="12.5" ry="12.5" style="stroke:#181818;stroke-width:0.5;" width="50" x="152.47" y="461.2969"/><line style="stroke:#181818;stroke-width:0.5;" x1="152.47" x2="202.47" y1="487.5938" y2="487.5938"/><text fill="#000000" font-family="sans-serif" font-size="14" lengthAdjust="spacing" textLength="4.4502" x="175.2449" y="479.292">&#160;</text></g><ellipse cx="177.47" cy="54.2969" fill="#222222" rx="10" ry="10" style="stroke:#222222;stroke-width:1;"/><ellipse cx="177.47" cy="593.2969" fill="none" rx="11" ry="11" style="stroke:#222222;stroke-width:1;"/><ellipse cx="177.47" cy="593.2969" fill="#222222" rx="6" ry="6" style="stroke:#222222;stroke-width:1;"/><!--link *start*editarAsignatura to EditandoDatos--><g class="link" data-entity-1=".start.editarAsignatura" data-entity-2="EditandoDatos" data-source-line="8" data-uid="lnk3" id="link_.start.editarAsignatura_EditandoDatos"><path d="M177.47,64.6369 C177.47,82.8269 177.47,117.5369 177.47,143.9069" fill="none" id="*start*editarAsignatura-to-EditandoDatos" style="stroke:#008000;stroke-width:1;"/><polygon fill="#008000" points="177.47,149.9069,181.47,140.9069,177.47,144.9069,173.47,140.9069,177.47,149.9069" style="stroke:#008000;stroke-width:1;"/><path d="M182.47,87.2969 L182.47,127.2969 L458.47,127.2969 L458.47,97.2969 L448.47,87.2969 L182.47,87.2969" fill="#FEFFDD" style="stroke:#181818;stroke-width:0.5;"/><path d="M448.47,87.2969 L448.47,97.2969 L458.47,97.2969 L448.47,87.2969" fill="#FEFFDD" style="stroke:#181818;stroke-width:0.5;"/><text fill="#000000" font-family="sans-serif" font-size="13" font-weight="bold" lengthAdjust="spacing" textLength="60.5313" x="188.47" y="104.3638">Docente</text><text fill="#000000" font-family="sans-serif" font-size="13" lengthAdjust="spacing" textLength="190.3408" x="253.1336" y="104.3638">solicita editar una asignatura</text><text fill="#000000" font-family="sans-serif" font-size="13" lengthAdjust="spacing" textLength="60.5059" x="188.47" y="119.4966">existente</text></g><!--link EditandoDatos to GuardandoDatos--><g class="link" data-entity-1="EditandoDatos" data-entity-2="GuardandoDatos" data-source-line="14" data-uid="lnk4" id="link_EditandoDatos_GuardandoDatos"><path d="M152.28,182.9569 C107.44,194.7969 18.47,218.2969 18.47,218.2969 C18.47,218.2969 18.47,443.2969 18.47,443.2969 C18.47,443.2969 101.6388,465.2651 146.4788,477.1051" fill="none" id="EditandoDatos-to-GuardandoDatos" style="stroke:#008000;stroke-width:1;"/><polygon fill="#008000" points="152.28,478.6369,144.5994,472.4717,147.4457,477.3604,142.557,480.2066,152.28,478.6369" style="stroke:#008000;stroke-width:1;"/><path d="M23.47,223.2969 L23.47,438.2969 L311.47,438.2969 L311.47,233.2969 L301.47,223.2969 L23.47,223.2969" fill="#FEFFDD" style="stroke:#181818;stroke-width:0.5;"/><path d="M301.47,223.2969 L301.47,233.2969 L311.47,233.2969 L301.47,223.2969" fill="#FEFFDD" style="stroke:#181818;stroke-width:0.5;"/><text fill="#000000" font-family="sans-serif" font-size="13" font-weight="bold" lengthAdjust="spacing" textLength="58.9063" x="29.47" y="240.3638">Sistema</text><text fill="#000000" font-family="sans-serif" font-size="13" lengthAdjust="spacing" textLength="204.7754" x="92.5086" y="240.3638">presenta formulario de edici&#243;n:</text><line style="stroke:#181818;stroke-width:1;" x1="24.47" x2="311.284" y1="243.4297" y2="243.4297"/><text fill="#000000" font-family="sans-serif" font-size="13" font-weight="bold" lengthAdjust="spacing" textLength="132.4121" x="29.47" y="259.4966">Datos Asignatura:</text><text fill="#000000" font-family="sans-serif" font-size="13" lengthAdjust="spacing" textLength="141.3877" x="29.47" y="274.6294">&#8226; T&#237;tulo [Valor Actual]</text><text fill="#000000" font-family="sans-serif" font-size="13" lengthAdjust="spacing" textLength="150.0332" x="29.47" y="289.7622">&#8226; C&#243;digo [Valor Actual]</text><text fill="#000000" font-family="sans-serif" font-size="13" lengthAdjust="spacing" textLength="218.0864" x="29.47" y="304.895">&#8226; Curso Acad&#233;mico [Valor Actual]</text><line style="stroke:#181818;stroke-width:1;" x1="24.47" x2="311.284" y1="311.9609" y2="311.9609"/><text fill="#000000" font-family="sans-serif" font-size="13" font-weight="bold" lengthAdjust="spacing" textLength="263.269" x="29.47" y="328.0278">Opciones de Navegaci&#243;n (V&#237;nculos):</text><text fill="#000000" font-family="sans-serif" font-size="13" lengthAdjust="spacing" textLength="223.2661" x="29.47" y="343.1606">&#8226; Acceso a ver listado de Alumnos</text><text fill="#000000" font-family="sans-serif" font-size="13" lengthAdjust="spacing" textLength="214.0049" x="29.47" y="358.2935">&#8226; Acceso a ver Grados asociados</text><line style="stroke:#181818;stroke-width:1;" x1="24.47" x2="311.284" y1="365.3594" y2="365.3594"/><text fill="#000000" font-family="sans-serif" font-size="13" font-weight="bold" lengthAdjust="spacing" textLength="58.9063" x="29.47" y="381.4263">Sistema</text><text fill="#000000" font-family="sans-serif" font-size="13" lengthAdjust="spacing" textLength="110.5952" x="92.5086" y="381.4263">permite solicitar:</text><text fill="#000000" font-family="sans-serif" font-size="13" lengthAdjust="spacing" textLength="127.8164" x="29.47" y="396.5591">&#8226; modificar campos</text><text fill="#000000" font-family="sans-serif" font-size="13" lengthAdjust="spacing" textLength="136.7539" x="29.47" y="411.6919">&#8226; guardar asignatura</text><text fill="#000000" font-family="sans-serif" font-size="13" lengthAdjust="spacing" textLength="118.168" x="29.47" y="426.8247">&#8226; cancelar edici&#243;n</text></g><!--link GuardandoDatos to EditandoDatos--><g class="link" data-entity-1="GuardandoDatos" data-entity-2="EditandoDatos" data-source-line="34" data-uid="lnk5" id="link_GuardandoDatos_EditandoDatos"><path d="M202.96,477.5969 C243.09,465.4669 316.47,443.2969 316.47,443.2969 C316.47,443.2969 316.47,218.2969 316.47,218.2969 C316.47,218.2969 248.8334,197.8629 208.7034,185.7329" fill="none" id="GuardandoDatos-to-EditandoDatos" style="stroke:#008000;stroke-width:1;"/><polygon fill="#008000" points="202.96,183.9969,210.4177,190.4298,207.7461,185.4436,212.7324,182.772,202.96,183.9969" style="stroke:#008000;stroke-width:1;"/><path d="M321.47,310.7969 L321.47,350.7969 L572.47,350.7969 L572.47,320.7969 L562.47,310.7969 L321.47,310.7969" fill="#FEFFDD" style="stroke:#181818;stroke-width:0.5;"/><path d="M562.47,310.7969 L562.47,320.7969 L572.47,320.7969 L562.47,310.7969" fill="#FEFFDD" style="stroke:#181818;stroke-width:0.5;"/><text fill="#000000" font-family="sans-serif" font-size="13" font-weight="bold" lengthAdjust="spacing" textLength="60.5313" x="327.47" y="327.8638">Docente</text><text fill="#000000" font-family="sans-serif" font-size="13" lengthAdjust="spacing" textLength="165.9214" x="392.1336" y="327.8638">solicita modificar campos</text><text fill="#000000" font-family="sans-serif" font-size="13" lengthAdjust="spacing" textLength="161.7256" x="327.47" y="342.9966">(Corrige o cambia datos)</text></g><!--link GuardandoDatos to *end*editarAsignatura--><g class="link" data-entity-1="GuardandoDatos" data-entity-2=".end.editarAsignatura" data-source-line="41" data-uid="lnk7" id="link_GuardandoDatos_.end.editarAsignatura"><path d="M152.1,495.4969 C114.26,507.7169 47.47,529.2969 47.47,529.2969 C47.47,529.2969 47.47,564.2969 47.47,564.2969 C47.47,564.2969 129.9146,582.0531 160.9646,588.7431" fill="none" id="GuardandoDatos-to-*end*editarAsignatura" style="stroke:#008000;stroke-width:1;"/><polygon fill="#008000" points="166.83,590.0069,158.8744,584.201,161.9422,588.9537,157.1894,592.0215,166.83,590.0069" style="stroke:#008000;stroke-width:1;"/><path d="M52.47,534.2969 L52.47,559.2969 L282.47,559.2969 L282.47,544.2969 L272.47,534.2969 L52.47,534.2969" fill="#FEFFDD" style="stroke:#181818;stroke-width:0.5;"/><path d="M272.47,534.2969 L272.47,544.2969 L282.47,544.2969 L272.47,534.2969" fill="#FEFFDD" style="stroke:#181818;stroke-width:0.5;"/><text fill="#000000" font-family="sans-serif" font-size="13" font-weight="bold" lengthAdjust="spacing" textLength="60.5313" x="58.47" y="551.3638">Docente</text><text fill="#000000" font-family="sans-serif" font-size="13" lengthAdjust="spacing" textLength="144.5361" x="123.1336" y="551.3638">solicita guardar y salir</text></g><!--link GuardandoDatos to *end*editarAsignatura--><g class="link" data-entity-1="GuardandoDatos" data-entity-2=".end.editarAsignatura" data-source-line="47" data-uid="lnk8" id="link_GuardandoDatos_.end.editarAsignatura"><path d="M202.71,496.9369 C235.18,509.3369 287.47,529.2969 287.47,529.2969 C287.47,529.2969 287.47,564.2969 287.47,564.2969 C287.47,564.2969 221.3645,581.1263 193.8345,588.1363" fill="none" id="GuardandoDatos-to-*end*editarAsignatura-1" style="stroke:#FF0000;stroke-width:1;"/><polygon fill="#FF0000" points="188.02,589.6169,197.7287,591.2724,192.8654,588.3831,195.7547,583.5197,188.02,589.6169" style="stroke:#FF0000;stroke-width:1;"/><path d="M292.47,534.2969 L292.47,559.2969 L533.47,559.2969 L533.47,544.2969 L523.47,534.2969 L292.47,534.2969" fill="#FEFFDD" style="stroke:#181818;stroke-width:0.5;"/><path d="M523.47,534.2969 L523.47,544.2969 L533.47,544.2969 L523.47,534.2969" fill="#FEFFDD" style="stroke:#181818;stroke-width:0.5;"/><text fill="#000000" font-family="sans-serif" font-size="13" font-weight="bold" lengthAdjust="spacing" textLength="60.5313" x="298.47" y="551.3638">Docente</text><text fill="#000000" font-family="sans-serif" font-size="13" lengthAdjust="spacing" textLength="156.2729" x="363.1336" y="551.3638">solicita cancelar edici&#243;n</text></g><g id="ASIGNATURAS_ABIERTO"><rect fill="#F1F1F1" height="50" rx="12.5" ry="12.5" style="stroke:#181818;stroke-width:0.5;" width="188.9365" x="7" y="709.3"/><line style="stroke:#181818;stroke-width:0.5;" x1="7" x2="195.9365" y1="735.5969" y2="735.5969"/><text fill="#000000" font-family="sans-serif" font-size="14" lengthAdjust="spacing" textLength="168.9365" x="17" y="727.2951">ASIGNATURAS_ABIERTO</text></g><g id="LISTADO_ALUMNOS"><rect fill="#F1F1F1" height="50" rx="12.5" ry="12.5" style="stroke:#181818;stroke-width:0.5;" width="157.8262" x="304.56" y="709.3"/><line style="stroke:#181818;stroke-width:0.5;" x1="304.56" x2="462.3862" y1="735.5969" y2="735.5969"/><text fill="#000000" font-family="sans-serif" font-size="14" lengthAdjust="spacing" textLength="137.8262" x="314.56" y="727.2951">LISTADO_ALUMNOS</text></g><g id="LISTADO_GRADOS"><rect fill="#F1F1F1" height="50" rx="12.5" ry="12.5" style="stroke:#181818;stroke-width:0.5;" width="148.584" x="537.18" y="709.3"/><line style="stroke:#181818;stroke-width:0.5;" x1="537.18" x2="685.764" y1="735.5969" y2="735.5969"/><text fill="#000000" font-family="sans-serif" font-size="14" lengthAdjust="spacing" textLength="128.584" x="547.18" y="727.2951">LISTADO_GRADOS</text></g><!--link editarAsignatura to ASIGNATURAS_ABIERTO--><g class="link" data-entity-1="editarAsignatura" data-entity-2="ASIGNATURAS_ABIERTO" data-source-line="56" data-uid="lnk10" id="link_editarAsignatura_ASIGNATURAS_ABIERTO"><path d="M48.43,614.78 C33.57,633.09 24.47,644.3 24.47,644.3 C24.47,644.3 24.47,679.3 24.47,679.3 C24.47,679.3 41.2881,691.0942 61.6581,705.3842" fill="none" id="editarAsignatura-to-ASIGNATURAS_ABIERTO" style="stroke:#008000;stroke-width:1;"/><polygon fill="#008000" points="66.57,708.83,61.4994,700.3867,62.4768,705.9585,56.905,706.9359,66.57,708.83" style="stroke:#008000;stroke-width:1;"/><path d="M29.47,649.3 L29.47,674.3 L158.47,674.3 L158.47,659.3 L148.47,649.3 L29.47,649.3" fill="#FEFFDD" style="stroke:#181818;stroke-width:0.5;"/><path d="M148.47,649.3 L148.47,659.3 L158.47,659.3 L148.47,649.3" fill="#FEFFDD" style="stroke:#181818;stroke-width:0.5;"/><text fill="#000000" font-family="sans-serif" font-size="13" lengthAdjust="spacing" textLength="108.3354" x="35.47" y="666.3669">verAsignaturas()</text></g><!--link editarAsignatura to ASIGNATURAS_ABIERTO--><g class="link" data-entity-1="editarAsignatura" data-entity-2="ASIGNATURAS_ABIERTO" data-source-line="62" data-uid="lnk11" id="link_editarAsignatura_ASIGNATURAS_ABIERTO"><path d="M189.88,614.42 C176.56,652.98 167.47,679.3 167.47,679.3 C167.47,679.3 153.4832,690.7398 136.0232,705.0298" fill="none" id="editarAsignatura-to-ASIGNATURAS_ABIERTO-1" style="stroke:#FF0000;stroke-width:1;"/><polygon fill="#FF0000" points="131.38,708.83,140.8782,706.2252,135.2493,705.6632,135.8113,700.0343,131.38,708.83" style="stroke:#FF0000;stroke-width:1;"/><path d="M183.47,649.3 L183.47,674.3 L310.47,674.3 L310.47,659.3 L300.47,649.3 L183.47,649.3" fill="#FEFFDD" style="stroke:#181818;stroke-width:0.5;"/><path d="M300.47,649.3 L300.47,659.3 L310.47,659.3 L300.47,649.3" fill="#FEFFDD" style="stroke:#181818;stroke-width:0.5;"/><text fill="#000000" font-family="sans-serif" font-size="13" lengthAdjust="spacing" textLength="106.3677" x="189.47" y="666.3669">cancelar edici&#243;n</text></g><!--link editarAsignatura to LISTADO_ALUMNOS--><g class="link" data-entity-1="editarAsignatura" data-entity-2="LISTADO_ALUMNOS" data-source-line="68" data-uid="lnk13" id="link_editarAsignatura_LISTADO_ALUMNOS"><path d="M358.44,614.73 C366.68,653.74 372.5606,681.6394 377.0806,703.0494" fill="none" id="editarAsignatura-to-LISTADO_ALUMNOS" style="stroke:#FFA500;stroke-width:1;"/><polygon fill="#FFA500" points="378.32,708.92,380.3747,699.2878,377.2872,704.0278,372.5472,700.9404,378.32,708.92" style="stroke:#FFA500;stroke-width:1;"/><path d="M375.47,649.3 L375.47,674.3 L553.47,674.3 L553.47,659.3 L543.47,649.3 L375.47,649.3" fill="#FEFFDD" style="stroke:#181818;stroke-width:0.5;"/><path d="M543.47,649.3 L543.47,659.3 L553.47,659.3 L543.47,649.3" fill="#FEFFDD" style="stroke:#181818;stroke-width:0.5;"/><text fill="#000000" font-family="sans-serif" font-size="13" lengthAdjust="spacing" textLength="157.0093" x="381.47" y="666.3669">verAlumnos(asignatura)</text></g><!--link editarAsignatura to LISTADO_GRADOS--><g class="link" data-entity-1="editarAsignatura" data-entity-2="LISTADO_GRADOS" data-source-line="73" data-uid="lnk15" id="link_editarAsignatura_LISTADO_GRADOS"><path d="M542.33,614.78 C557.3,633.09 566.47,644.3 566.47,644.3 C566.47,644.3 583.1432,677.2753 596.4632,703.6253" fill="none" id="editarAsignatura-to-LISTADO_GRADOS" style="stroke:#FFA500;stroke-width:1;"/><polygon fill="#FFA500" points="599.17,708.98,598.6796,699.1434,596.9143,704.5177,591.5399,702.7525,599.17,708.98" style="stroke:#FFA500;stroke-width:1;"/><path d="M588.47,649.3 L588.47,674.3 L755.47,674.3 L755.47,659.3 L745.47,649.3 L588.47,649.3" fill="#FEFFDD" style="stroke:#181818;stroke-width:0.5;"/><path d="M745.47,649.3 L745.47,659.3 L755.47,659.3 L745.47,649.3" fill="#FEFFDD" style="stroke:#181818;stroke-width:0.5;"/><text fill="#000000" font-family="sans-serif" font-size="13" lengthAdjust="spacing" textLength="146.999" x="594.47" y="666.3669">verGrados(asignatura)</text></g><!--SRC=[dLNDQjj04BxhAORq4BdWbBOt4m9guXf3QXV_v1926AysOflLhhehXOHIoBFqraDEUGI_IP-aiojPbln3cifWLhipttpppSpAtWgLeS4Kf50yVyWuP5e-k9SWi3dc77WiSZIH5Od2l308QE5WSpF4UjavW1z10FIK_WVq8vU-yr2nFiDSs-tZGO4chi-X1BXyUmNTopU9uLnTTK_Q6E1Db2OChHpzMxznl3Wvquohd1-_Mvo0rL8myghIW4Av15PSlGU_5pPt3kMRYajGUeBwhnsvoQbDV2-dgOkHekUK6Muf7iADDcaXqGWDiHUQYUMpwdcVRhTRv-E3hiNkEHH_-EVn5yoMJtaXDLnUeDG68fONAA_guzFbSooI_SU5iPfsCLx-JWNRQTUWCiwOq8fRntU4Tpn1Jnd2Y-MJOaJ3Tjhi8iOu1K2uuuO4ePh7Fjb85gcgzDgo6nYoibGdpOHRRR9eYSbDAaZlLQ5DhyPCTInk1AEgCqopHh34ryniDe8xOgWOfvBKrMWrnReX3g4lWGacVJQhI9KONp4tRZ6afZB8Sd6dEzvheyltzlRhMdjddk6fDaOaXE1s5m8XTiYTlVbCKOeOeNylo0mXBBcQ5udJaBwExahz1x0KqhG9jScSbjMWLUYrfE7jGhJGnesopfouJl5z70sF_ulX2qtmCmWENJjMB2rbqfo5_dt5b1gM3DyVmMTPVDCmecb7sOCBBLsJerpDGx1rnJRrZQR3mIYQpIVHz3hwDEnFPkEWbGc1hLrjs0dMOXx2XrNqIieodLq1Ax5U3BSjJZFUnwEM5gw4LllhOaxZFV4CjFBZ7Pvh-5xG1uU0Q9uxErbfWohXZjZvS3gBpiRNqVdyosWytTQWl56QNw86it_37apeVnkwl8zs8ly5]--></g></svg>