<svg xmlns="http://www.w3.org/2000/svg" xmlns:xlink="http://www.w3.org/1999/xlink" contentStyleType="text/css" data-diagram-type="STATE" height="852px" preserveAspectRatio="none" style="width:573px;height:852px;background:#FFFFFF;" version="1.1" viewBox="0 0 573 852" width="573px" zoomAndPan="magnify"><defs/><g><g id="PREGUNTAS_CONTEXTUALES_ABIERTO"><rect fill="#F1F1F1" height="50" rx="12.5" ry="12.5" style="stroke:#181818;stroke-width:0.5;" width="293.2188" x="143.86" y="7"/><line style="stroke:#181818;stroke-width:0.5;" x1="143.86" x2="437.0788" y1="33.2969" y2="33.2969"/><text fill="#000000" font-family="sans-serif" font-size="14" lengthAdjust="spacing" textLength="273.2188" x="153.86" y="24.9951">PREGUNTAS_CONTEXTUALES_ABIERTO</text></g><g id="ASIGNATURAS_ABIERTO"><rect fill="#F1F1F1" height="50" rx="12.5" ry="12.5" style="stroke:#181818;stroke-width:0.5;" width="188.9365" x="7" y="796.3"/><line style="stroke:#181818;stroke-width:0.5;" x1="7" x2="195.9365" y1="822.5969" y2="822.5969"/><text fill="#000000" font-family="sans-serif" font-size="14" lengthAdjust="spacing" textLength="168.9365" x="17" y="814.2951">ASIGNATURAS_ABIERTO</text></g><g id="ASIGNATURA_ABIERTO"><rect fill="#F1F1F1" height="50" rx="12.5" ry="12.5" style="stroke:#181818;stroke-width:0.5;" width="180.0498" x="230.44" y="796.3"/><line style="stroke:#181818;stroke-width:0.5;" x1="230.44" x2="410.4898" y1="822.5969" y2="822.5969"/><text fill="#000000" font-family="sans-serif" font-size="14" lengthAdjust="spacing" textLength="160.0498" x="240.44" y="814.2951">ASIGNATURA_ABIERTO</text></g><path d="M33.47,118 L547.47,118 A12.5,12.5 0 0 1 559.97,130.5 L559.97,144.2969 L20.97,144.2969 L20.97,130.5 A12.5,12.5 0 0 1 33.47,118" fill="#F1F1F1"/><rect fill="none" height="583.2969" rx="12.5" ry="12.5" style="stroke:#181818;stroke-width:0.5;" width="539" x="20.97" y="118"/><line style="stroke:#181818;stroke-width:0.5;" x1="20.97" x2="559.97" y1="144.2969" y2="144.2969"/><text fill="#000000" font-family="sans-serif" font-size="14" lengthAdjust="spacing" textLength="127.9346" x="226.5027" y="135.9951">editarAsignatura()</text><g id="editarAsignatura.EditandoDatos"><rect fill="#F1F1F1" height="50" rx="12.5" ry="12.5" style="stroke:#181818;stroke-width:0.5;" width="50" x="148.97" y="246.2969"/><line style="stroke:#181818;stroke-width:0.5;" x1="148.97" x2="198.97" y1="272.5938" y2="272.5938"/><text fill="#000000" font-family="sans-serif" font-size="14" lengthAdjust="spacing" textLength="4.4502" x="171.7449" y="264.292">&#160;</text></g><g id="editarAsignatura.GuardandoDatos"><rect fill="#F1F1F1" height="50" rx="12.5" ry="12.5" style="stroke:#181818;stroke-width:0.5;" width="50" x="148.97" y="548.2969"/><line style="stroke:#181818;stroke-width:0.5;" x1="148.97" x2="198.97" y1="574.5938" y2="574.5938"/><text fill="#000000" font-family="sans-serif" font-size="14" lengthAdjust="spacing" textLength="4.4502" x="171.7449" y="566.292">&#160;</text></g><ellipse cx="173.97" cy="165.2969" fill="#222222" rx="10" ry="10" style="stroke:#222222;stroke-width:1;"/><ellipse cx="173.97" cy="680.2969" fill="none" rx="11" ry="11" style="stroke:#222222;stroke-width:1;"/><ellipse cx="173.97" cy="680.2969" fill="#222222" rx="6" ry="6" style="stroke:#222222;stroke-width:1;"/><!--link *start*editarAsignatura to EditandoDatos--><g class="link" data-entity-1=".start.editarAsignatura" data-entity-2="EditandoDatos" data-source-line="18" data-uid="lnk6" id="link_.start.editarAsignatura_EditandoDatos"><path d="M173.97,175.5269 C173.97,191.2369 173.97,217.6569 173.97,240.1669" fill="none" id="*start*editarAsignatura-to-EditandoDatos" style="stroke:#008000;stroke-width:1;"/><polygon fill="#008000" points="173.97,246.1669,177.97,237.1669,173.97,241.1669,169.97,237.1669,173.97,246.1669" style="stroke:#008000;stroke-width:1;"/><path d="M178.97,198.2969 L178.97,223.2969 L425.97,223.2969 L425.97,208.2969 L415.97,198.2969 L178.97,198.2969" fill="#FEFFDD" style="stroke:#181818;stroke-width:0.5;"/><path d="M415.97,198.2969 L415.97,208.2969 L425.97,208.2969 L415.97,198.2969" fill="#FEFFDD" style="stroke:#181818;stroke-width:0.5;"/><text fill="#000000" font-family="sans-serif" font-size="13" font-weight="bold" lengthAdjust="spacing" textLength="60.5313" x="184.97" y="215.3638">Docente</text><text fill="#000000" font-family="sans-serif" font-size="13" lengthAdjust="spacing" textLength="161.7637" x="249.6336" y="215.3638">solicita editar asignatura</text></g><!--link EditandoDatos to GuardandoDatos--><g class="link" data-entity-1="EditandoDatos" data-entity-2="GuardandoDatos" data-source-line="23" data-uid="lnk7" id="link_EditandoDatos_GuardandoDatos"><path d="M148.58,279.8069 C107.74,291.8869 31.97,314.2969 31.97,314.2969 C31.97,314.2969 31.97,530.2969 31.97,530.2969 C31.97,530.2969 101.9864,551.005 142.8264,563.085" fill="none" id="EditandoDatos-to-GuardandoDatos" style="stroke:#008000;stroke-width:1;"/><polygon fill="#008000" points="148.58,564.7869,141.0842,558.3984,143.7853,563.3687,138.8151,566.0698,148.58,564.7869" style="stroke:#008000;stroke-width:1;"/><path d="M36.97,319.2969 L36.97,525.2969 L289.97,525.2969 L289.97,329.2969 L279.97,319.2969 L36.97,319.2969" fill="#FEFFDD" style="stroke:#181818;stroke-width:0.5;"/><path d="M279.97,319.2969 L279.97,329.2969 L289.97,329.2969 L279.97,319.2969" fill="#FEFFDD" style="stroke:#181818;stroke-width:0.5;"/><text fill="#000000" font-family="sans-serif" font-size="13" font-weight="bold" lengthAdjust="spacing" textLength="58.9063" x="42.97" y="336.3638">Sistema</text><text fill="#000000" font-family="sans-serif" font-size="13" lengthAdjust="spacing" textLength="169.1714" x="106.0086" y="336.3638">presenta datos de edici&#243;n</text><text fill="#000000" font-family="sans-serif" font-size="13" lengthAdjust="spacing" textLength="4.1323" x="42.97" y="351.4966">&#160;</text><text fill="#000000" font-family="sans-serif" font-size="13" font-weight="bold" lengthAdjust="spacing" textLength="132.4121" x="42.97" y="366.6294">Datos Asignatura:</text><text fill="#000000" font-family="sans-serif" font-size="13" lengthAdjust="spacing" textLength="48.2549" x="42.97" y="381.7622">&#8226; T&#237;tulo</text><text fill="#000000" font-family="sans-serif" font-size="13" lengthAdjust="spacing" textLength="56.9004" x="42.97" y="396.895">&#8226; C&#243;digo</text><text fill="#000000" font-family="sans-serif" font-size="13" lengthAdjust="spacing" textLength="124.9536" x="42.97" y="412.0278">&#8226; Curso Acad&#233;mico</text><text fill="#000000" font-family="sans-serif" font-size="13" lengthAdjust="spacing" textLength="156.9331" x="42.97" y="427.1606">&#8226; Alumnos matriculados</text><text fill="#000000" font-family="sans-serif" font-size="13" lengthAdjust="spacing" textLength="126.6929" x="42.97" y="442.2935">&#8226; Grados asociados</text><text fill="#000000" font-family="sans-serif" font-size="13" lengthAdjust="spacing" textLength="4.1323" x="42.97" y="457.4263">&#160;</text><text fill="#000000" font-family="sans-serif" font-size="13" font-weight="bold" lengthAdjust="spacing" textLength="58.9063" x="42.97" y="472.5591">Sistema</text><text fill="#000000" font-family="sans-serif" font-size="13" lengthAdjust="spacing" textLength="110.5952" x="106.0086" y="472.5591">permite solicitar:</text><text fill="#000000" font-family="sans-serif" font-size="13" lengthAdjust="spacing" textLength="127.8164" x="42.97" y="487.6919">&#8226; modificar campos</text><text fill="#000000" font-family="sans-serif" font-size="13" lengthAdjust="spacing" textLength="136.7539" x="42.97" y="502.8247">&#8226; guardar asignatura</text><text fill="#000000" font-family="sans-serif" font-size="13" lengthAdjust="spacing" textLength="118.168" x="42.97" y="517.9575">&#8226; cancelar edici&#243;n</text></g><!--link GuardandoDatos to EditandoDatos--><g class="link" data-entity-1="GuardandoDatos" data-entity-2="EditandoDatos" data-source-line="40" data-uid="lnk8" id="link_GuardandoDatos_EditandoDatos"><path d="M199.34,563.4969 C234.82,551.1769 294.97,530.2969 294.97,530.2969 C294.97,530.2969 294.97,314.2969 294.97,314.2969 C294.97,314.2969 240.488,295.385 205.008,283.065" fill="none" id="GuardandoDatos-to-EditandoDatos" style="stroke:#008000;stroke-width:1;"/><polygon fill="#008000" points="199.34,281.0969,206.5299,287.8278,204.0633,282.737,209.1541,280.2704,199.34,281.0969" style="stroke:#008000;stroke-width:1;"/><path d="M299.97,409.7969 L299.97,434.7969 L550.97,434.7969 L550.97,419.7969 L540.97,409.7969 L299.97,409.7969" fill="#FEFFDD" style="stroke:#181818;stroke-width:0.5;"/><path d="M540.97,409.7969 L540.97,419.7969 L550.97,419.7969 L540.97,409.7969" fill="#FEFFDD" style="stroke:#181818;stroke-width:0.5;"/><text fill="#000000" font-family="sans-serif" font-size="13" font-weight="bold" lengthAdjust="spacing" textLength="60.5313" x="305.97" y="426.8638">Docente</text><text fill="#000000" font-family="sans-serif" font-size="13" lengthAdjust="spacing" textLength="165.9214" x="370.6336" y="426.8638">solicita modificar campos</text></g><!--link GuardandoDatos to *end*editarAsignatura--><g class="link" data-entity-1="GuardandoDatos" data-entity-2=".end.editarAsignatura" data-source-line="45" data-uid="lnk10" id="link_GuardandoDatos_.end.editarAsignatura"><path d="M148.6,582.4969 C110.76,594.7169 43.97,616.2969 43.97,616.2969 C43.97,616.2969 43.97,651.2969 43.97,651.2969 C43.97,651.2969 126.4146,669.0531 157.4646,675.7431" fill="none" id="GuardandoDatos-to-*end*editarAsignatura" style="stroke:#008000;stroke-width:1;"/><polygon fill="#008000" points="163.33,677.0069,155.3744,671.201,158.4422,675.9537,153.6894,679.0215,163.33,677.0069" style="stroke:#008000;stroke-width:1;"/><path d="M48.97,621.2969 L48.97,646.2969 L278.97,646.2969 L278.97,631.2969 L268.97,621.2969 L48.97,621.2969" fill="#FEFFDD" style="stroke:#181818;stroke-width:0.5;"/><path d="M268.97,621.2969 L268.97,631.2969 L278.97,631.2969 L268.97,621.2969" fill="#FEFFDD" style="stroke:#181818;stroke-width:0.5;"/><text fill="#000000" font-family="sans-serif" font-size="13" font-weight="bold" lengthAdjust="spacing" textLength="60.5313" x="54.97" y="638.3638">Docente</text><text fill="#000000" font-family="sans-serif" font-size="13" lengthAdjust="spacing" textLength="144.5361" x="119.6336" y="638.3638">solicita guardar y salir</text></g><!--link GuardandoDatos to *end*editarAsignatura--><g class="link" data-entity-1="GuardandoDatos" data-entity-2=".end.editarAsignatura" data-source-line="50" data-uid="lnk11" id="link_GuardandoDatos_.end.editarAsignatura"><path d="M199.21,583.9369 C231.68,596.3369 283.97,616.2969 283.97,616.2969 C283.97,616.2969 283.97,651.2969 283.97,651.2969 C283.97,651.2969 217.8645,668.1263 190.3345,675.1363" fill="none" id="GuardandoDatos-to-*end*editarAsignatura-1" style="stroke:#FF0000;stroke-width:1;"/><polygon fill="#FF0000" points="184.52,676.6169,194.2287,678.2724,189.3654,675.3831,192.2547,670.5197,184.52,676.6169" style="stroke:#FF0000;stroke-width:1;"/><path d="M288.97,621.2969 L288.97,646.2969 L529.97,646.2969 L529.97,631.2969 L519.97,621.2969 L288.97,621.2969" fill="#FEFFDD" style="stroke:#181818;stroke-width:0.5;"/><path d="M519.97,621.2969 L519.97,631.2969 L529.97,631.2969 L519.97,621.2969" fill="#FEFFDD" style="stroke:#181818;stroke-width:0.5;"/><text fill="#000000" font-family="sans-serif" font-size="13" font-weight="bold" lengthAdjust="spacing" textLength="60.5313" x="294.97" y="638.3638">Docente</text><text fill="#000000" font-family="sans-serif" font-size="13" lengthAdjust="spacing" textLength="156.2729" x="359.6336" y="638.3638">solicita cancelar edici&#243;n</text></g><!--link PREGUNTAS_CONTEXTUALES_ABIERTO to editarAsignatura--><g class="link" data-entity-1="PREGUNTAS_CONTEXTUALES_ABIERTO" data-entity-2="editarAsignatura" data-source-line="9" data-uid="lnk2" id="link_PREGUNTAS_CONTEXTUALES_ABIERTO_editarAsignatura"><path d="M290.47,57.36 C290.47,72.32 290.47,87.24 290.47,111.51" fill="none" id="PREGUNTAS_CONTEXTUALES_ABIERTO-to-editarAsignatura" style="stroke:#008000;stroke-width:1;"/><polygon fill="#008000" points="290.47,117.51,294.47,108.51,290.47,112.51,286.47,108.51,290.47,117.51" style="stroke:#008000;stroke-width:1;"/></g><!--link ASIGNATURAS_ABIERTO to editarAsignatura--><g class="link" data-entity-1="ASIGNATURAS_ABIERTO" data-entity-2="editarAsignatura" data-source-line="10" data-uid="lnk3" id="link_ASIGNATURAS_ABIERTO_editarAsignatura"><path d="M164.01,795.83 C200.52,781.54 239.47,766.3 239.47,766.3 C239.47,766.3 242.3982,745.8392 247.9082,707.4192" fill="none" id="ASIGNATURAS_ABIERTO-to-editarAsignatura" style="stroke:#008000;stroke-width:1;"/><polygon fill="#008000" points="248.76,701.48,243.5229,709.821,248.0502,706.4294,251.4418,710.9567,248.76,701.48" style="stroke:#008000;stroke-width:1;"/></g><!--link editarAsignatura to ASIGNATURAS_ABIERTO--><g class="link" data-entity-1="editarAsignatura" data-entity-2="ASIGNATURAS_ABIERTO" data-source-line="63" data-uid="lnk13" id="link_editarAsignatura_ASIGNATURAS_ABIERTO"><path d="M112.56,701.71 C101.36,720.03 94.47,731.3 94.47,731.3 C94.47,731.3 94.47,766.3 94.47,766.3 C94.47,766.3 95.6656,775.5902 97.5256,789.8802" fill="none" id="editarAsignatura-to-ASIGNATURAS_ABIERTO" style="stroke:#FF0000;stroke-width:1;"/><polygon fill="#FF0000" points="98.3,795.83,101.1049,786.389,97.6546,790.8718,93.1718,787.4216,98.3,795.83" style="stroke:#FF0000;stroke-width:1;"/><path d="M99.47,736.3 L99.47,761.3 L226.47,761.3 L226.47,746.3 L216.47,736.3 L99.47,736.3" fill="#FEFFDD" style="stroke:#181818;stroke-width:0.5;"/><path d="M216.47,736.3 L216.47,746.3 L226.47,746.3 L216.47,736.3" fill="#FEFFDD" style="stroke:#181818;stroke-width:0.5;"/><text fill="#000000" font-family="sans-serif" font-size="13" lengthAdjust="spacing" textLength="106.3677" x="105.47" y="753.3669">cancelar edici&#243;n</text></g><!--link ASIGNATURA_ABIERTO to editarAsignatura--><g class="link" data-entity-1="ASIGNATURA_ABIERTO" data-entity-2="editarAsignatura" data-source-line="11" data-uid="lnk4" id="link_ASIGNATURA_ABIERTO_editarAsignatura"><path d="M325.49,796.23 C326.57,774.75 326.2139,746.7037 324.4239,707.5337" fill="none" id="ASIGNATURA_ABIERTO-to-editarAsignatura" style="stroke:#008000;stroke-width:1;"/><polygon fill="#008000" points="324.15,701.54,320.565,710.7132,324.3783,706.5348,328.5567,710.348,324.15,701.54" style="stroke:#008000;stroke-width:1;"/></g><!--link editarAsignatura to ASIGNATURA_ABIERTO--><g class="link" data-entity-1="editarAsignatura" data-entity-2="ASIGNATURA_ABIERTO" data-source-line="58" data-uid="lnk12" id="link_editarAsignatura_ASIGNATURA_ABIERTO"><path d="M300.08,701.54 C303.97,740.71 307.1004,768.8554 311.1804,790.3354" fill="none" id="editarAsignatura-to-ASIGNATURA_ABIERTO" style="stroke:#008000;stroke-width:1;"/><polygon fill="#008000" points="312.3,796.23,314.5503,786.6417,311.367,791.3178,306.6908,788.1345,312.3,796.23" style="stroke:#008000;stroke-width:1;"/></g><!--SRC=[dLJRQXin47tVhnZIXrveNDg-cM3Onejh24wnrr088OnNOrUDLd8bRQafWNvBt_BGfto2_wHVqj7QNj_MRLmRRAGpcZbpT3JkLkefMin1IKr-DYMO6ZKBYoXw2gyRqAQnr3AJymSDWa0P1-GyYl3_pPFLnaMyzWGV-abds4lZmStvPIzDFgR3-28PtCJlkaa_lLm6nODkfnUdmtvy6Aa0Pl2c0Qb5xPY1qUIWdK3II_jnEuPFc4a44jAZZPsSQFI5nUZlDE3qwid44kdhqzR-sHfsZptmkFXbhxlxW0vETZUVFJ-1xr44_5cSEk4l1oOXJWlJHi_Qxy6T0gseS5Wak7fnlKLiAmUK8Tfm3gE34MxBZRDHgsqoqfxENerQu8pYI_0hnRbKrLM89YqMAVWJLJ_RTJOPRDCyo60WdQSSImPJIuxf88WocoXrB9qPLOHBPArXCnmimTy_Va8w_-KBPQhr-Vn1oCd6kh3EG9oXcD_dCbi3iIfoDZhawAtC2XNiNu4TMxu6T8Rzk09g-PFD9RUuKj8sgnov4N8iCvOrmtowaNnIohIdTe0or1afnYeLDkzXpMB740TjS9mBQXaVLPmzULp9bHOpSAYatQvue9ebyL-r_Y7kNPXDR_Tdqo2-wF9e4kG4rRp-lNU_gKVz0EmPZqruJ-mz9gcbCA0gUeknl1Y4lAlOR2mJQRAeNWAVPiiPS38ydR4aVZ_mfI10jUxFOpwIytiDNt76SwY6nI9HGTnKkEkH3AgeqAENsW2EyBDfrBQs5BzkvczTnBxOAw7_0000]--></g></svg>