<svg xmlns="http://www.w3.org/2000/svg" xmlns:xlink="http://www.w3.org/1999/xlink" contentStyleType="text/css" data-diagram-type="STATE" height="867px" preserveAspectRatio="none" style="width:574px;height:867px;background:#FFFFFF;" version="1.1" viewBox="0 0 574 867" width="574px" zoomAndPan="magnify"><defs/><g><g id="PREGUNTAS_CONTEXTUALES_ABIERTO"><rect fill="#F1F1F1" height="50" rx="12.5" ry="12.5" style="stroke:#181818;stroke-width:0.5;" width="293.2188" x="145" y="7"/><line style="stroke:#181818;stroke-width:0.5;" x1="145" x2="438.2188" y1="33.2969" y2="33.2969"/><text fill="#000000" font-family="sans-serif" font-size="14" lengthAdjust="spacing" textLength="273.2188" x="155" y="24.9951">PREGUNTAS_CONTEXTUALES_ABIERTO</text></g><g id="ASIGNATURAS_ABIERTO"><rect fill="#F1F1F1" height="50" rx="12.5" ry="12.5" style="stroke:#181818;stroke-width:0.5;" width="188.9365" x="7" y="811"/><line style="stroke:#181818;stroke-width:0.5;" x1="7" x2="195.9365" y1="837.2969" y2="837.2969"/><text fill="#000000" font-family="sans-serif" font-size="14" lengthAdjust="spacing" textLength="168.9365" x="17" y="828.9951">ASIGNATURAS_ABIERTO</text></g><g id="ASIGNATURA_ABIERTO"><rect fill="#F1F1F1" height="50" rx="12.5" ry="12.5" style="stroke:#181818;stroke-width:0.5;" width="180.0498" x="231.5" y="811"/><line style="stroke:#181818;stroke-width:0.5;" x1="231.5" x2="411.5498" y1="837.2969" y2="837.2969"/><text fill="#000000" font-family="sans-serif" font-size="14" lengthAdjust="spacing" textLength="160.0498" x="241.5" y="828.9951">ASIGNATURA_ABIERTO</text></g><path d="M34.5,118 L548.5,118 A12.5,12.5 0 0 1 561,130.5 L561,144.2969 L22,144.2969 L22,130.5 A12.5,12.5 0 0 1 34.5,118" fill="#F1F1F1"/><rect fill="none" height="598.2969" rx="12.5" ry="12.5" style="stroke:#181818;stroke-width:0.5;" width="539" x="22" y="118"/><line style="stroke:#181818;stroke-width:0.5;" x1="22" x2="561" y1="144.2969" y2="144.2969"/><text fill="#000000" font-family="sans-serif" font-size="14" lengthAdjust="spacing" textLength="127.9346" x="227.5327" y="135.9951">editarAsignatura()</text><g id="editarAsignatura.EditandoDatos"><rect fill="#F1F1F1" height="50" rx="12.5" ry="12.5" style="stroke:#181818;stroke-width:0.5;" width="50" x="150" y="246.2969"/><line style="stroke:#181818;stroke-width:0.5;" x1="150" x2="200" y1="272.5938" y2="272.5938"/><text fill="#000000" font-family="sans-serif" font-size="14" lengthAdjust="spacing" textLength="4.4502" x="172.7749" y="264.292">&#160;</text></g><g id="editarAsignatura.GuardandoDatos"><rect fill="#F1F1F1" height="50" rx="12.5" ry="12.5" style="stroke:#181818;stroke-width:0.5;" width="50" x="150" y="563.2969"/><line style="stroke:#181818;stroke-width:0.5;" x1="150" x2="200" y1="589.5938" y2="589.5938"/><text fill="#000000" font-family="sans-serif" font-size="14" lengthAdjust="spacing" textLength="4.4502" x="172.7749" y="581.292">&#160;</text></g><ellipse cx="175" cy="165.2969" fill="#222222" rx="10" ry="10" style="stroke:#222222;stroke-width:1;"/><ellipse cx="175" cy="695.2969" fill="none" rx="11" ry="11" style="stroke:#222222;stroke-width:1;"/><ellipse cx="175" cy="695.2969" fill="#222222" rx="6" ry="6" style="stroke:#222222;stroke-width:1;"/><!--link *start*editarAsignatura to EditandoDatos--><g class="link" data-entity-1=".start.editarAsignatura" data-entity-2="EditandoDatos" data-source-line="18" data-uid="lnk6" id="link_.start.editarAsignatura_EditandoDatos"><path d="M175,175.5269 C175,191.2369 175,217.6569 175,240.1669" fill="none" id="*start*editarAsignatura-to-EditandoDatos" style="stroke:#008000;stroke-width:1;"/><polygon fill="#008000" points="175,246.1669,179,237.1669,175,241.1669,171,237.1669,175,246.1669" style="stroke:#008000;stroke-width:1;"/><path d="M180,198.2969 L180,223.2969 L427,223.2969 L427,208.2969 L417,198.2969 L180,198.2969" fill="#FEFFDD" style="stroke:#181818;stroke-width:0.5;"/><path d="M417,198.2969 L417,208.2969 L427,208.2969 L417,198.2969" fill="#FEFFDD" style="stroke:#181818;stroke-width:0.5;"/><text fill="#000000" font-family="sans-serif" font-size="13" font-weight="bold" lengthAdjust="spacing" textLength="60.5313" x="186" y="215.3638">Docente</text><text fill="#000000" font-family="sans-serif" font-size="13" lengthAdjust="spacing" textLength="161.7637" x="250.6636" y="215.3638">solicita editar asignatura</text></g><!--link EditandoDatos to GuardandoDatos--><g class="link" data-entity-1="EditandoDatos" data-entity-2="GuardandoDatos" data-source-line="23" data-uid="lnk7" id="link_EditandoDatos_GuardandoDatos"><path d="M149.94,279.7069 C109.17,291.7669 33,314.2969 33,314.2969 C33,314.2969 33,545.2969 33,545.2969 C33,545.2969 103.4164,566.1249 144.1864,578.1849" fill="none" id="EditandoDatos-to-GuardandoDatos" style="stroke:#008000;stroke-width:1;"/><polygon fill="#008000" points="149.94,579.8869,142.4443,573.4983,145.1454,578.4686,140.175,581.1697,149.94,579.8869" style="stroke:#008000;stroke-width:1;"/><path d="M38,319.2969 L38,540.2969 L291,540.2969 L291,329.2969 L281,319.2969 L38,319.2969" fill="#FEFFDD" style="stroke:#181818;stroke-width:0.5;"/><path d="M281,319.2969 L281,329.2969 L291,329.2969 L281,319.2969" fill="#FEFFDD" style="stroke:#181818;stroke-width:0.5;"/><text fill="#000000" font-family="sans-serif" font-size="13" font-weight="bold" lengthAdjust="spacing" textLength="58.9063" x="44" y="336.3638">Sistema</text><text fill="#000000" font-family="sans-serif" font-size="13" lengthAdjust="spacing" textLength="169.1714" x="107.0386" y="336.3638">presenta datos de edici&#243;n</text><text fill="#000000" font-family="sans-serif" font-size="13" lengthAdjust="spacing" textLength="4.1323" x="44" y="351.4966">&#160;</text><text fill="#000000" font-family="sans-serif" font-size="13" font-weight="bold" lengthAdjust="spacing" textLength="132.4121" x="44" y="366.6294">Datos Asignatura:</text><text fill="#000000" font-family="sans-serif" font-size="13" lengthAdjust="spacing" textLength="48.2549" x="44" y="381.7622">&#8226; T&#237;tulo</text><text fill="#000000" font-family="sans-serif" font-size="13" lengthAdjust="spacing" textLength="56.9004" x="44" y="396.895">&#8226; C&#243;digo</text><text fill="#000000" font-family="sans-serif" font-size="13" lengthAdjust="spacing" textLength="124.9536" x="44" y="412.0278">&#8226; Curso Acad&#233;mico</text><text fill="#000000" font-family="sans-serif" font-size="13" lengthAdjust="spacing" textLength="156.9331" x="44" y="427.1606">&#8226; Alumnos matriculados</text><text fill="#000000" font-family="sans-serif" font-size="13" lengthAdjust="spacing" textLength="126.6929" x="44" y="442.2935">&#8226; Grados asociados</text><text fill="#000000" font-family="sans-serif" font-size="13" lengthAdjust="spacing" textLength="149.3794" x="44" y="457.4263">&#8226; Bater&#237;a de preguntas</text><text fill="#000000" font-family="sans-serif" font-size="13" lengthAdjust="spacing" textLength="4.1323" x="44" y="472.5591">&#160;</text><text fill="#000000" font-family="sans-serif" font-size="13" font-weight="bold" lengthAdjust="spacing" textLength="58.9063" x="44" y="487.6919">Sistema</text><text fill="#000000" font-family="sans-serif" font-size="13" lengthAdjust="spacing" textLength="110.5952" x="107.0386" y="487.6919">permite solicitar:</text><text fill="#000000" font-family="sans-serif" font-size="13" lengthAdjust="spacing" textLength="127.8164" x="44" y="502.8247">&#8226; modificar campos</text><text fill="#000000" font-family="sans-serif" font-size="13" lengthAdjust="spacing" textLength="136.7539" x="44" y="517.9575">&#8226; guardar asignatura</text><text fill="#000000" font-family="sans-serif" font-size="13" lengthAdjust="spacing" textLength="118.168" x="44" y="533.0903">&#8226; cancelar edici&#243;n</text></g><!--link GuardandoDatos to EditandoDatos--><g class="link" data-entity-1="GuardandoDatos" data-entity-2="EditandoDatos" data-source-line="41" data-uid="lnk8" id="link_GuardandoDatos_EditandoDatos"><path d="M200.07,578.5969 C235.51,566.2969 296,545.2969 296,545.2969 C296,545.2969 296,314.2969 296,314.2969 C296,314.2969 241.1783,295.2642 205.7383,282.9642" fill="none" id="GuardandoDatos-to-EditandoDatos" style="stroke:#008000;stroke-width:1;"/><polygon fill="#008000" points="200.07,280.9969,207.261,287.7267,204.7936,282.6363,209.884,280.1689,200.07,280.9969" style="stroke:#008000;stroke-width:1;"/><path d="M301,417.2969 L301,442.2969 L552,442.2969 L552,427.2969 L542,417.2969 L301,417.2969" fill="#FEFFDD" style="stroke:#181818;stroke-width:0.5;"/><path d="M542,417.2969 L542,427.2969 L552,427.2969 L542,417.2969" fill="#FEFFDD" style="stroke:#181818;stroke-width:0.5;"/><text fill="#000000" font-family="sans-serif" font-size="13" font-weight="bold" lengthAdjust="spacing" textLength="60.5313" x="307" y="434.3638">Docente</text><text fill="#000000" font-family="sans-serif" font-size="13" lengthAdjust="spacing" textLength="165.9214" x="371.6636" y="434.3638">solicita modificar campos</text></g><!--link GuardandoDatos to *end*editarAsignatura--><g class="link" data-entity-1="GuardandoDatos" data-entity-2=".end.editarAsignatura" data-source-line="46" data-uid="lnk10" id="link_GuardandoDatos_.end.editarAsignatura"><path d="M149.93,597.3969 C112.16,609.5969 45,631.2969 45,631.2969 C45,631.2969 45,666.2969 45,666.2969 C45,666.2969 127.4446,684.0531 158.4946,690.7431" fill="none" id="GuardandoDatos-to-*end*editarAsignatura" style="stroke:#008000;stroke-width:1;"/><polygon fill="#008000" points="164.36,692.0069,156.4044,686.201,159.4722,690.9537,154.7194,694.0215,164.36,692.0069" style="stroke:#008000;stroke-width:1;"/><path d="M50,636.2969 L50,661.2969 L280,661.2969 L280,646.2969 L270,636.2969 L50,636.2969" fill="#FEFFDD" style="stroke:#181818;stroke-width:0.5;"/><path d="M270,636.2969 L270,646.2969 L280,646.2969 L270,636.2969" fill="#FEFFDD" style="stroke:#181818;stroke-width:0.5;"/><text fill="#000000" font-family="sans-serif" font-size="13" font-weight="bold" lengthAdjust="spacing" textLength="60.5313" x="56" y="653.3638">Docente</text><text fill="#000000" font-family="sans-serif" font-size="13" lengthAdjust="spacing" textLength="144.5361" x="120.6636" y="653.3638">solicita guardar y salir</text></g><!--link GuardandoDatos to *end*editarAsignatura--><g class="link" data-entity-1="GuardandoDatos" data-entity-2=".end.editarAsignatura" data-source-line="51" data-uid="lnk11" id="link_GuardandoDatos_.end.editarAsignatura"><path d="M200.24,598.9369 C232.71,611.3369 285,631.2969 285,631.2969 C285,631.2969 285,666.2969 285,666.2969 C285,666.2969 218.8945,683.1263 191.3645,690.1363" fill="none" id="GuardandoDatos-to-*end*editarAsignatura-1" style="stroke:#FF0000;stroke-width:1;"/><polygon fill="#FF0000" points="185.55,691.6169,195.2587,693.2724,190.3954,690.3831,193.2847,685.5197,185.55,691.6169" style="stroke:#FF0000;stroke-width:1;"/><path d="M290,636.2969 L290,661.2969 L531,661.2969 L531,646.2969 L521,636.2969 L290,636.2969" fill="#FEFFDD" style="stroke:#181818;stroke-width:0.5;"/><path d="M521,636.2969 L521,646.2969 L531,646.2969 L521,636.2969" fill="#FEFFDD" style="stroke:#181818;stroke-width:0.5;"/><text fill="#000000" font-family="sans-serif" font-size="13" font-weight="bold" lengthAdjust="spacing" textLength="60.5313" x="296" y="653.3638">Docente</text><text fill="#000000" font-family="sans-serif" font-size="13" lengthAdjust="spacing" textLength="156.2729" x="360.6636" y="653.3638">solicita cancelar edici&#243;n</text></g><!--link PREGUNTAS_CONTEXTUALES_ABIERTO to editarAsignatura--><g class="link" data-entity-1="PREGUNTAS_CONTEXTUALES_ABIERTO" data-entity-2="editarAsignatura" data-source-line="9" data-uid="lnk2" id="link_PREGUNTAS_CONTEXTUALES_ABIERTO_editarAsignatura"><path d="M291.5,57.25 C291.5,72.29 291.5,87.42 291.5,111.97" fill="none" id="PREGUNTAS_CONTEXTUALES_ABIERTO-to-editarAsignatura" style="stroke:#008000;stroke-width:1;"/><polygon fill="#008000" points="291.5,117.97,295.5,108.97,291.5,112.97,287.5,108.97,291.5,117.97" style="stroke:#008000;stroke-width:1;"/></g><!--link ASIGNATURAS_ABIERTO to editarAsignatura--><g class="link" data-entity-1="ASIGNATURAS_ABIERTO" data-entity-2="editarAsignatura" data-source-line="10" data-uid="lnk3" id="link_ASIGNATURAS_ABIERTO_editarAsignatura"><path d="M163.68,810.84 C200.69,796.47 240.5,781 240.5,781 C240.5,781 243.3757,760.5717 248.7857,722.0417" fill="none" id="ASIGNATURAS_ABIERTO-to-editarAsignatura" style="stroke:#008000;stroke-width:1;"/><polygon fill="#008000" points="249.62,716.1,244.4074,724.4564,248.9248,721.0514,252.3297,725.5688,249.62,716.1" style="stroke:#008000;stroke-width:1;"/></g><!--link editarAsignatura to ASIGNATURAS_ABIERTO--><g class="link" data-entity-1="editarAsignatura" data-entity-2="ASIGNATURAS_ABIERTO" data-source-line="64" data-uid="lnk13" id="link_editarAsignatura_ASIGNATURAS_ABIERTO"><path d="M113.41,716.02 C102.32,734.59 95.5,746 95.5,746 C95.5,746 95.5,781 95.5,781 C95.5,781 96.556,790.5068 98.156,804.8768" fill="none" id="editarAsignatura-to-ASIGNATURAS_ABIERTO" style="stroke:#FF0000;stroke-width:1;"/><polygon fill="#FF0000" points="98.82,810.84,101.7995,801.4526,98.2667,805.8707,93.8486,802.3379,98.82,810.84" style="stroke:#FF0000;stroke-width:1;"/><path d="M100.5,751 L100.5,776 L227.5,776 L227.5,761 L217.5,751 L100.5,751" fill="#FEFFDD" style="stroke:#181818;stroke-width:0.5;"/><path d="M217.5,751 L217.5,761 L227.5,761 L217.5,751" fill="#FEFFDD" style="stroke:#181818;stroke-width:0.5;"/><text fill="#000000" font-family="sans-serif" font-size="13" lengthAdjust="spacing" textLength="106.3677" x="106.5" y="768.0669">cancelar edici&#243;n</text></g><!--link ASIGNATURA_ABIERTO to editarAsignatura--><g class="link" data-entity-1="ASIGNATURA_ABIERTO" data-entity-2="editarAsignatura" data-source-line="11" data-uid="lnk4" id="link_ASIGNATURA_ABIERTO_editarAsignatura"><path d="M326.5,810.94 C327.59,789.46 327.2637,761.3842 325.5337,722.0542" fill="none" id="ASIGNATURA_ABIERTO-to-editarAsignatura" style="stroke:#008000;stroke-width:1;"/><polygon fill="#008000" points="325.27,716.06,321.6694,725.2271,325.4897,721.0552,329.6616,724.8755,325.27,716.06" style="stroke:#008000;stroke-width:1;"/></g><!--link editarAsignatura to ASIGNATURA_ABIERTO--><g class="link" data-entity-1="editarAsignatura" data-entity-2="ASIGNATURA_ABIERTO" data-source-line="59" data-uid="lnk12" id="link_editarAsignatura_ASIGNATURA_ABIERTO"><path d="M301.3,716.06 C305.17,755.39 308.2736,783.5629 312.3036,805.0429" fill="none" id="editarAsignatura-to-ASIGNATURA_ABIERTO" style="stroke:#008000;stroke-width:1;"/><polygon fill="#008000" points="313.41,810.94,315.6818,801.3567,312.488,806.0257,307.819,802.8319,313.41,810.94" style="stroke:#008000;stroke-width:1;"/></g><!--SRC=[dLJDQXin4BxhAGRdq1-Qzcw2OPCODr2SOgyX448OIughHYkvahPWIg7FqbiEEUKHzatw91sjxVMklKxZhi6BzCtCzysdMVbxPUReC0EjZ0oBkOIvrOkuO8pvW472vr5_C1ccoVZsx7AOzg_IIVAfFxvDJY_we_Ho5PICBmR399sCalr81J3sV4qulZwQEIdDpN4Ff501NUBLp6387R8MgfScl2n-9Nnx7z13PtlpzPiE_60Cw5bcTUX7WVqOPuGzns3zBZp8qOaAXsM1wxSt3M6D6b2664irh8cdTLzkd4nxvvPB4-J9XsaFlDMAKzPAF55LNSLeQSIo13si-clor1KqPUvLC5O-o0nB1NCdFSb146KrKVh8LV5aM2MuH3OUTcDY2VxvzHlIuZ7asbRhi-99g5bjdJjl8U4eYeTCyGsGw3mpL3Z3u1JFDOgLv0WEN5oI7vQh1d1Af-AAHunAIVii9-r-uyrsTz9bYWnO- -owLQ7C2dMdE9dECPlN66QbYJjd4I6EXajDMELH_PGsAhR6PU-G73OZhOeF8gU9FOnoxSK2F6hbcenxs9mK_yNr3tD_qZN4ThxnUdTjDzSh6Dg0NVWeQSw8qYXXGLTa9GzyeJV6NKsZGqrB8ntgTq3PD40Ml8gZTgSaVIlmBPU0UgCsO3PLnOE1xxYWEwT5nR9GBWLbynWTUzGqm3ueOm6d-DM-RsrjPMNRPTsmTTUwjMr_0G00]--></g></svg>