<svg xmlns="http://www.w3.org/2000/svg" xmlns:xlink="http://www.w3.org/1999/xlink" contentStyleType="text/css" data-diagram-type="STATE" height="913px" preserveAspectRatio="none" style="width:1544px;height:913px;background:#FFFFFF;" version="1.1" viewBox="0 0 1544 913" width="1544px" zoomAndPan="magnify"><defs/><g><g id="EXAMENES_ASIGNADOS_CONTEXTUALES"><rect fill="#F1F1F1" height="50" rx="12.5" ry="12.5" style="stroke:#181818;stroke-width:0.5;" width="307.4854" x="7" y="7"/><line style="stroke:#181818;stroke-width:0.5;" x1="7" x2="314.4854" y1="33.2969" y2="33.2969"/><text fill="#000000" font-family="sans-serif" font-size="14" lengthAdjust="spacing" textLength="287.4854" x="17" y="24.9951">EXAMENES_ASIGNADOS_CONTEXTUALES</text></g><g id="PREGUNTAS_CONTEXTUALES_ABIERTO"><rect fill="#F1F1F1" height="50" rx="12.5" ry="12.5" style="stroke:#181818;stroke-width:0.5;" width="293.2188" x="349" y="7"/><line style="stroke:#181818;stroke-width:0.5;" x1="349" x2="642.2188" y1="33.2969" y2="33.2969"/><text fill="#000000" font-family="sans-serif" font-size="14" lengthAdjust="spacing" textLength="273.2188" x="359" y="24.9951">PREGUNTAS_CONTEXTUALES_ABIERTO</text></g><g id="ASIGNATURAS_ABIERTO"><rect fill="#F1F1F1" height="50" rx="12.5" ry="12.5" style="stroke:#181818;stroke-width:0.5;" width="188.9365" x="677" y="7"/><line style="stroke:#181818;stroke-width:0.5;" x1="677" x2="865.9365" y1="33.2969" y2="33.2969"/><text fill="#000000" font-family="sans-serif" font-size="14" lengthAdjust="spacing" textLength="168.9365" x="687" y="24.9951">ASIGNATURAS_ABIERTO</text></g><g id="ASIGNATURAS_ABIERTO1"><rect fill="#F1F1F1" height="50" rx="12.5" ry="12.5" style="stroke:#181818;stroke-width:0.5;" width="188.9365" x="233" y="857"/><line style="stroke:#181818;stroke-width:0.5;" x1="233" x2="421.9365" y1="883.2969" y2="883.2969"/><text fill="#000000" font-family="sans-serif" font-size="14" lengthAdjust="spacing" textLength="168.9365" x="243" y="874.9951">ASIGNATURAS_ABIERTO</text></g><g id="ASIGNATURA_ABIERTO"><rect fill="#F1F1F1" height="50" rx="12.5" ry="12.5" style="stroke:#181818;stroke-width:0.5;" width="180.0498" x="901.5" y="7"/><line style="stroke:#181818;stroke-width:0.5;" x1="901.5" x2="1081.5498" y1="33.2969" y2="33.2969"/><text fill="#000000" font-family="sans-serif" font-size="14" lengthAdjust="spacing" textLength="160.0498" x="911.5" y="24.9951">ASIGNATURA_ABIERTO</text></g><g id="ASIGNATURAS_ABIERTO2"><rect fill="#F1F1F1" height="50" rx="12.5" ry="12.5" style="stroke:#181818;stroke-width:0.5;" width="188.9365" x="457" y="857"/><line style="stroke:#181818;stroke-width:0.5;" x1="457" x2="645.9365" y1="883.2969" y2="883.2969"/><text fill="#000000" font-family="sans-serif" font-size="14" lengthAdjust="spacing" textLength="168.9365" x="467" y="874.9951">ASIGNATURAS_ABIERTO</text></g><g id="ASIGNATURA_ABIERTO2"><rect fill="#F1F1F1" height="50" rx="12.5" ry="12.5" style="stroke:#181818;stroke-width:0.5;" width="180.0498" x="681.5" y="857"/><line style="stroke:#181818;stroke-width:0.5;" x1="681.5" x2="861.5498" y1="883.2969" y2="883.2969"/><text fill="#000000" font-family="sans-serif" font-size="14" lengthAdjust="spacing" textLength="160.0498" x="691.5" y="874.9951">ASIGNATURA_ABIERTO</text></g><g id="PREGUNTAS_CONTEXTUALES_ABIERTO1"><rect fill="#F1F1F1" height="50" rx="12.5" ry="12.5" style="stroke:#181818;stroke-width:0.5;" width="293.2188" x="897" y="857"/><line style="stroke:#181818;stroke-width:0.5;" x1="897" x2="1190.2188" y1="883.2969" y2="883.2969"/><text fill="#000000" font-family="sans-serif" font-size="14" lengthAdjust="spacing" textLength="273.2188" x="907" y="874.9951">PREGUNTAS_CONTEXTUALES_ABIERTO</text></g><g id="EXAMENES_CORREGIDOS"><rect fill="#F1F1F1" height="50" rx="12.5" ry="12.5" style="stroke:#181818;stroke-width:0.5;" width="198.9033" x="1117" y="7"/><line style="stroke:#181818;stroke-width:0.5;" x1="1117" x2="1315.9033" y1="33.2969" y2="33.2969"/><text fill="#000000" font-family="sans-serif" font-size="14" lengthAdjust="spacing" textLength="178.9033" x="1127" y="24.9951">EXAMENES_CORREGIDOS</text></g><path d="M162.5,118 L1380.5,118 A12.5,12.5 0 0 1 1393,130.5 L1393,144.2969 L150,144.2969 L150,130.5 A12.5,12.5 0 0 1 162.5,118" fill="#F1F1F1"/><rect fill="none" height="644.2969" rx="12.5" ry="12.5" style="stroke:#181818;stroke-width:0.5;" width="1243" x="150" y="118"/><line style="stroke:#181818;stroke-width:0.5;" x1="150" x2="1393" y1="144.2969" y2="144.2969"/><text fill="#000000" font-family="sans-serif" font-size="14" lengthAdjust="spacing" textLength="127.9346" x="707.5327" y="135.9951">editarAsignatura()</text><g id="editarAsignatura.EditandoDatos"><rect fill="#F1F1F1" height="50" rx="12.5" ry="12.5" style="stroke:#181818;stroke-width:0.5;" width="50" x="672" y="246.2969"/><line style="stroke:#181818;stroke-width:0.5;" x1="672" x2="722" y1="272.5938" y2="272.5938"/><text fill="#000000" font-family="sans-serif" font-size="14" lengthAdjust="spacing" textLength="4.4502" x="694.7749" y="264.292">&#160;</text></g><g id="editarAsignatura.GuardandoDatos"><rect fill="#F1F1F1" height="50" rx="12.5" ry="12.5" style="stroke:#181818;stroke-width:0.5;" width="50" x="672" y="609.2969"/><line style="stroke:#181818;stroke-width:0.5;" x1="672" x2="722" y1="635.5938" y2="635.5938"/><text fill="#000000" font-family="sans-serif" font-size="14" lengthAdjust="spacing" textLength="4.4502" x="694.7749" y="627.292">&#160;</text></g><ellipse cx="697" cy="165.2969" fill="#222222" rx="10" ry="10" style="stroke:#222222;stroke-width:1;"/><ellipse cx="697" cy="741.2969" fill="none" rx="11" ry="11" style="stroke:#222222;stroke-width:1;"/><ellipse cx="697" cy="741.2969" fill="#222222" rx="6" ry="6" style="stroke:#222222;stroke-width:1;"/><!--link *start*editarAsignatura to EditandoDatos--><g class="link" data-entity-1=".start.editarAsignatura" data-entity-2="EditandoDatos" data-source-line="24" data-uid="lnk8" id="link_.start.editarAsignatura_EditandoDatos"><path d="M697,175.5269 C697,191.2369 697,217.6569 697,240.1669" fill="none" id="*start*editarAsignatura-to-EditandoDatos" style="stroke:#008000;stroke-width:1;"/><polygon fill="#008000" points="697,246.1669,701,237.1669,697,241.1669,693,237.1669,697,246.1669" style="stroke:#008000;stroke-width:1;"/><path d="M702,198.2969 L702,223.2969 L949,223.2969 L949,208.2969 L939,198.2969 L702,198.2969" fill="#FEFFDD" style="stroke:#181818;stroke-width:0.5;"/><path d="M939,198.2969 L939,208.2969 L949,208.2969 L939,198.2969" fill="#FEFFDD" style="stroke:#181818;stroke-width:0.5;"/><text fill="#000000" font-family="sans-serif" font-size="13" font-weight="bold" lengthAdjust="spacing" textLength="60.5313" x="708" y="215.3638">Docente</text><text fill="#000000" font-family="sans-serif" font-size="13" lengthAdjust="spacing" textLength="161.7637" x="772.6636" y="215.3638">solicita editar asignatura</text></g><!--link EditandoDatos to GuardandoDatos--><g class="link" data-entity-1="EditandoDatos" data-entity-2="GuardandoDatos" data-source-line="29" data-uid="lnk9" id="link_EditandoDatos_GuardandoDatos"><path d="M671.94,279.7069 C631.17,291.7669 555,314.2969 555,314.2969 C555,314.2969 555,591.2969 555,591.2969 C555,591.2969 625.4164,612.1249 666.1864,624.1849" fill="none" id="EditandoDatos-to-GuardandoDatos" style="stroke:#008000;stroke-width:1;"/><polygon fill="#008000" points="671.94,625.8869,664.4443,619.4983,667.1454,624.4686,662.175,627.1697,671.94,625.8869" style="stroke:#008000;stroke-width:1;"/><path d="M560,319.2969 L560,586.2969 L813,586.2969 L813,329.2969 L803,319.2969 L560,319.2969" fill="#FEFFDD" style="stroke:#181818;stroke-width:0.5;"/><path d="M803,319.2969 L803,329.2969 L813,329.2969 L803,319.2969" fill="#FEFFDD" style="stroke:#181818;stroke-width:0.5;"/><text fill="#000000" font-family="sans-serif" font-size="13" font-weight="bold" lengthAdjust="spacing" textLength="58.9063" x="566" y="336.3638">Sistema</text><text fill="#000000" font-family="sans-serif" font-size="13" lengthAdjust="spacing" textLength="169.1714" x="629.0386" y="336.3638">presenta datos de edici&#243;n</text><text fill="#000000" font-family="sans-serif" font-size="13" lengthAdjust="spacing" textLength="4.1323" x="566" y="351.4966">&#160;</text><text fill="#000000" font-family="sans-serif" font-size="13" font-weight="bold" lengthAdjust="spacing" textLength="132.4121" x="566" y="366.6294">Datos Asignatura:</text><text fill="#000000" font-family="sans-serif" font-size="13" lengthAdjust="spacing" textLength="48.2549" x="566" y="381.7622">&#8226; T&#237;tulo</text><text fill="#000000" font-family="sans-serif" font-size="13" lengthAdjust="spacing" textLength="56.9004" x="566" y="396.895">&#8226; C&#243;digo</text><text fill="#000000" font-family="sans-serif" font-size="13" lengthAdjust="spacing" textLength="124.9536" x="566" y="412.0278">&#8226; Curso Acad&#233;mico</text><text fill="#000000" font-family="sans-serif" font-size="13" lengthAdjust="spacing" textLength="156.9331" x="566" y="427.1606">&#8226; Alumnos matriculados</text><text fill="#000000" font-family="sans-serif" font-size="13" lengthAdjust="spacing" textLength="126.6929" x="566" y="442.2935">&#8226; Grados asociados</text><text fill="#000000" font-family="sans-serif" font-size="13" lengthAdjust="spacing" textLength="149.3794" x="566" y="457.4263">&#8226; Bater&#237;a de preguntas</text><text fill="#000000" font-family="sans-serif" font-size="13" lengthAdjust="spacing" textLength="4.1323" x="566" y="472.5591">&#160;</text><text fill="#000000" font-family="sans-serif" font-size="13" font-weight="bold" lengthAdjust="spacing" textLength="58.9063" x="566" y="487.6919">Sistema</text><text fill="#000000" font-family="sans-serif" font-size="13" lengthAdjust="spacing" textLength="110.5952" x="629.0386" y="487.6919">permite solicitar:</text><text fill="#000000" font-family="sans-serif" font-size="13" lengthAdjust="spacing" textLength="127.8164" x="566" y="502.8247">&#8226; modificar campos</text><text fill="#000000" font-family="sans-serif" font-size="13" lengthAdjust="spacing" textLength="136.7539" x="566" y="517.9575">&#8226; guardar asignatura</text><text fill="#000000" font-family="sans-serif" font-size="13" lengthAdjust="spacing" textLength="118.168" x="566" y="533.0903">&#8226; cancelar edici&#243;n</text><text fill="#000000" font-family="sans-serif" font-size="13" lengthAdjust="spacing" textLength="103.1304" x="566" y="548.2231">&#8226; ver preguntas</text><text fill="#000000" font-family="sans-serif" font-size="13" lengthAdjust="spacing" textLength="119.6343" x="566" y="563.356">&#8226; generar examen</text><text fill="#000000" font-family="sans-serif" font-size="13" lengthAdjust="spacing" textLength="64.8477" x="566" y="578.4888">&#8226; eliminar</text></g><!--link GuardandoDatos to EditandoDatos--><g class="link" data-entity-1="GuardandoDatos" data-entity-2="EditandoDatos" data-source-line="50" data-uid="lnk10" id="link_GuardandoDatos_EditandoDatos"><path d="M722.07,624.5969 C757.51,612.2969 818,591.2969 818,591.2969 C818,591.2969 818,314.2969 818,314.2969 C818,314.2969 763.1783,295.2642 727.7383,282.9642" fill="none" id="GuardandoDatos-to-EditandoDatos" style="stroke:#008000;stroke-width:1;"/><polygon fill="#008000" points="722.07,280.9969,729.261,287.7267,726.7936,282.6363,731.884,280.1689,722.07,280.9969" style="stroke:#008000;stroke-width:1;"/><path d="M823,440.2969 L823,465.2969 L1074,465.2969 L1074,450.2969 L1064,440.2969 L823,440.2969" fill="#FEFFDD" style="stroke:#181818;stroke-width:0.5;"/><path d="M1064,440.2969 L1064,450.2969 L1074,450.2969 L1064,440.2969" fill="#FEFFDD" style="stroke:#181818;stroke-width:0.5;"/><text fill="#000000" font-family="sans-serif" font-size="13" font-weight="bold" lengthAdjust="spacing" textLength="60.5313" x="829" y="457.3638">Docente</text><text fill="#000000" font-family="sans-serif" font-size="13" lengthAdjust="spacing" textLength="165.9214" x="893.6636" y="457.3638">solicita modificar campos</text></g><!--link GuardandoDatos to *end*editarAsignatura--><g class="link" data-entity-1="GuardandoDatos" data-entity-2=".end.editarAsignatura" data-source-line="55" data-uid="lnk12" id="link_GuardandoDatos_.end.editarAsignatura"><path d="M671.87,637.2669 C565.9,645.5669 161,677.2969 161,677.2969 C161,677.2969 161,712.2969 161,712.2969 C161,712.2969 602.8382,735.3732 679.8082,739.4032" fill="none" id="GuardandoDatos-to-*end*editarAsignatura" style="stroke:#008000;stroke-width:1;"/><polygon fill="#008000" points="685.8,739.7169,677.0215,735.2518,680.8068,739.4554,676.6032,743.2408,685.8,739.7169" style="stroke:#008000;stroke-width:1;"/><path d="M166,682.2969 L166,707.2969 L396,707.2969 L396,692.2969 L386,682.2969 L166,682.2969" fill="#FEFFDD" style="stroke:#181818;stroke-width:0.5;"/><path d="M386,682.2969 L386,692.2969 L396,692.2969 L386,682.2969" fill="#FEFFDD" style="stroke:#181818;stroke-width:0.5;"/><text fill="#000000" font-family="sans-serif" font-size="13" font-weight="bold" lengthAdjust="spacing" textLength="60.5313" x="172" y="699.3638">Docente</text><text fill="#000000" font-family="sans-serif" font-size="13" lengthAdjust="spacing" textLength="144.5361" x="236.6636" y="699.3638">solicita guardar y salir</text></g><!--link GuardandoDatos to *end*editarAsignatura--><g class="link" data-entity-1="GuardandoDatos" data-entity-2=".end.editarAsignatura" data-source-line="60" data-uid="lnk13" id="link_GuardandoDatos_.end.editarAsignatura"><path d="M671.81,639.1769 C604.22,649.5669 424,677.2969 424,677.2969 C424,677.2969 424,712.2969 424,712.2969 C424,712.2969 628.9213,733.3145 679.9913,738.5545" fill="none" id="GuardandoDatos-to-*end*editarAsignatura-1" style="stroke:#FF0000;stroke-width:1;"/><polygon fill="#FF0000" points="685.96,739.1669,677.4153,734.2691,680.9861,738.6565,676.5987,742.2274,685.96,739.1669" style="stroke:#FF0000;stroke-width:1;"/><path d="M429,682.2969 L429,707.2969 L670,707.2969 L670,692.2969 L660,682.2969 L429,682.2969" fill="#FEFFDD" style="stroke:#181818;stroke-width:0.5;"/><path d="M660,682.2969 L660,692.2969 L670,692.2969 L660,682.2969" fill="#FEFFDD" style="stroke:#181818;stroke-width:0.5;"/><text fill="#000000" font-family="sans-serif" font-size="13" font-weight="bold" lengthAdjust="spacing" textLength="60.5313" x="435" y="699.3638">Docente</text><text fill="#000000" font-family="sans-serif" font-size="13" lengthAdjust="spacing" textLength="156.2729" x="499.6636" y="699.3638">solicita cancelar edici&#243;n</text></g><!--link GuardandoDatos to *end*editarAsignatura--><g class="link" data-entity-1="GuardandoDatos" data-entity-2=".end.editarAsignatura" data-source-line="65" data-uid="lnk14" id="link_GuardandoDatos_.end.editarAsignatura"><path d="M697,659.3869 C697,681.7869 697,708.0669 697,724.2469" fill="none" id="GuardandoDatos-to-*end*editarAsignatura-2" style="stroke:#0000FF;stroke-width:1;"/><polygon fill="#0000FF" points="697,730.2469,701,721.2469,697,725.2469,693,721.2469,697,730.2469" style="stroke:#0000FF;stroke-width:1;"/><path d="M702,682.2969 L702,707.2969 L928,707.2969 L928,692.2969 L918,682.2969 L702,682.2969" fill="#FEFFDD" style="stroke:#181818;stroke-width:0.5;"/><path d="M918,682.2969 L918,692.2969 L928,692.2969 L918,682.2969" fill="#FEFFDD" style="stroke:#181818;stroke-width:0.5;"/><text fill="#000000" font-family="sans-serif" font-size="13" font-weight="bold" lengthAdjust="spacing" textLength="60.5313" x="708" y="699.3638">Docente</text><text fill="#000000" font-family="sans-serif" font-size="13" lengthAdjust="spacing" textLength="141.2354" x="772.6636" y="699.3638">solicita ver preguntas</text></g><!--link GuardandoDatos to *end*editarAsignatura--><g class="link" data-entity-1="GuardandoDatos" data-entity-2=".end.editarAsignatura" data-source-line="70" data-uid="lnk15" id="link_GuardandoDatos_.end.editarAsignatura"><path d="M722.36,639.7869 C783.5,650.6269 934,677.2969 934,677.2969 C934,677.2969 934,712.2969 934,712.2969 C934,712.2969 760.1187,732.8438 713.7587,738.3138" fill="none" id="GuardandoDatos-to-*end*editarAsignatura-3" style="stroke:#FFFF00;stroke-width:1;"/><polygon fill="#FFFF00" points="707.8,739.0169,717.2067,741.9347,712.7656,738.431,716.2693,733.9898,707.8,739.0169" style="stroke:#FFFF00;stroke-width:1;"/><path d="M939,682.2969 L939,707.2969 L1182,707.2969 L1182,692.2969 L1172,682.2969 L939,682.2969" fill="#FEFFDD" style="stroke:#181818;stroke-width:0.5;"/><path d="M1172,682.2969 L1172,692.2969 L1182,692.2969 L1172,682.2969" fill="#FEFFDD" style="stroke:#181818;stroke-width:0.5;"/><text fill="#000000" font-family="sans-serif" font-size="13" font-weight="bold" lengthAdjust="spacing" textLength="60.5313" x="945" y="699.3638">Docente</text><text fill="#000000" font-family="sans-serif" font-size="13" lengthAdjust="spacing" textLength="157.7393" x="1009.6636" y="699.3638">solicita generar examen</text></g><!--link GuardandoDatos to *end*editarAsignatura--><g class="link" data-entity-1="GuardandoDatos" data-entity-2=".end.editarAsignatura" data-source-line="75" data-uid="lnk16" id="link_GuardandoDatos_.end.editarAsignatura"><path d="M722.18,637.4369 C822.84,645.9969 1191,677.2969 1191,677.2969 C1191,677.2969 1191,712.2969 1191,712.2969 C1191,712.2969 787.7704,735.1472 714.2404,739.3172" fill="none" id="GuardandoDatos-to-*end*editarAsignatura-4" style="stroke:#FFA500;stroke-width:1;"/><polygon fill="#FFA500" points="708.25,739.6569,717.462,743.1409,713.242,739.3738,717.0091,735.1537,708.25,739.6569" style="stroke:#FFA500;stroke-width:1;"/><path d="M1196,682.2969 L1196,707.2969 L1384,707.2969 L1384,692.2969 L1374,682.2969 L1196,682.2969" fill="#FEFFDD" style="stroke:#181818;stroke-width:0.5;"/><path d="M1374,682.2969 L1374,692.2969 L1384,692.2969 L1374,682.2969" fill="#FEFFDD" style="stroke:#181818;stroke-width:0.5;"/><text fill="#000000" font-family="sans-serif" font-size="13" font-weight="bold" lengthAdjust="spacing" textLength="60.5313" x="1202" y="699.3638">Docente</text><text fill="#000000" font-family="sans-serif" font-size="13" lengthAdjust="spacing" textLength="102.9526" x="1266.6636" y="699.3638">solicita eliminar</text></g><g id="EXAMENES_GENERADOS_CONTEXTUALES"><rect fill="#F1F1F1" height="50" rx="12.5" ry="12.5" style="stroke:#181818;stroke-width:0.5;" width="312.3115" x="1225.5" y="857"/><line style="stroke:#181818;stroke-width:0.5;" x1="1225.5" x2="1537.8115" y1="883.2969" y2="883.2969"/><text fill="#000000" font-family="sans-serif" font-size="14" lengthAdjust="spacing" textLength="292.3115" x="1235.5" y="874.9951">EXAMENES_GENERADOS_CONTEXTUALES</text></g><!--link EXAMENES_CORREGIDOS to editarAsignatura--><g class="link" data-entity-1="EXAMENES_CORREGIDOS" data-entity-2="editarAsignatura" data-source-line="13" data-uid="lnk2" id="link_EXAMENES_CORREGIDOS_editarAsignatura"><path d="M1190,57.18 C1173.62,72.12 1155.0519,89.0555 1128.1719,113.5855" fill="none" id="EXAMENES_CORREGIDOS-to-editarAsignatura" style="stroke:#008000;stroke-width:1;"/><polygon fill="#008000" points="1123.74,117.63,1133.0842,114.5179,1127.4333,114.2596,1127.6916,108.6086,1123.74,117.63" style="stroke:#008000;stroke-width:1;"/></g><!--link EXAMENES_ASIGNADOS_CONTEXTUALES to editarAsignatura--><g class="link" data-entity-1="EXAMENES_ASIGNADOS_CONTEXTUALES" data-entity-2="editarAsignatura" data-source-line="14" data-uid="lnk3" id="link_EXAMENES_ASIGNADOS_CONTEXTUALES_editarAsignatura"><path d="M196.89,57.18 C219.43,72.16 246.1327,89.8993 283.1827,114.5193" fill="none" id="EXAMENES_ASIGNADOS_CONTEXTUALES-to-editarAsignatura" style="stroke:#008000;stroke-width:1;"/><polygon fill="#008000" points="288.18,117.84,282.8979,109.5274,284.0156,115.0727,278.4703,116.1904,288.18,117.84" style="stroke:#008000;stroke-width:1;"/></g><!--link PREGUNTAS_CONTEXTUALES_ABIERTO to editarAsignatura--><g class="link" data-entity-1="PREGUNTAS_CONTEXTUALES_ABIERTO" data-entity-2="editarAsignatura" data-source-line="15" data-uid="lnk4" id="link_PREGUNTAS_CONTEXTUALES_ABIERTO_editarAsignatura"><path d="M511.94,57.18 C522.09,72.12 532.9876,88.1375 549.6576,112.6675" fill="none" id="PREGUNTAS_CONTEXTUALES_ABIERTO-to-editarAsignatura" style="stroke:#008000;stroke-width:1;"/><polygon fill="#008000" points="553.03,117.63,551.2797,107.9379,550.2196,113.4946,544.663,112.4345,553.03,117.63" style="stroke:#008000;stroke-width:1;"/></g><!--link ASIGNATURAS_ABIERTO to editarAsignatura--><g class="link" data-entity-1="ASIGNATURAS_ABIERTO" data-entity-2="editarAsignatura" data-source-line="16" data-uid="lnk5" id="link_ASIGNATURAS_ABIERTO_editarAsignatura"><path d="M771.5,57.18 C771.5,72.12 771.5,87.1 771.5,111.63" fill="none" id="ASIGNATURAS_ABIERTO-to-editarAsignatura" style="stroke:#008000;stroke-width:1;"/><polygon fill="#008000" points="771.5,117.63,775.5,108.63,771.5,112.63,767.5,108.63,771.5,117.63" style="stroke:#008000;stroke-width:1;"/></g><!--link ASIGNATURA_ABIERTO to editarAsignatura--><g class="link" data-entity-1="ASIGNATURA_ABIERTO" data-entity-2="editarAsignatura" data-source-line="17" data-uid="lnk6" id="link_ASIGNATURA_ABIERTO_editarAsignatura"><path d="M978.4,57.18 C970.3,72.12 961.7882,87.8245 948.4982,112.3545" fill="none" id="ASIGNATURA_ABIERTO-to-editarAsignatura" style="stroke:#008000;stroke-width:1;"/><polygon fill="#008000" points="945.64,117.63,953.4443,111.6222,948.0218,113.2338,946.4103,107.8113,945.64,117.63" style="stroke:#008000;stroke-width:1;"/></g><!--link editarAsignatura to ASIGNATURA_ABIERTO2--><g class="link" data-entity-1="editarAsignatura" data-entity-2="ASIGNATURA_ABIERTO2" data-source-line="81" data-uid="lnk17" id="link_editarAsignatura_ASIGNATURA_ABIERTO2"><path d="M771.5,762.22 C771.5,801.52 771.5,829.31 771.5,850.69" fill="none" id="editarAsignatura-to-ASIGNATURA_ABIERTO2" style="stroke:#008000;stroke-width:1;"/><polygon fill="#008000" points="771.5,856.69,775.5,847.69,771.5,851.69,767.5,847.69,771.5,856.69" style="stroke:#008000;stroke-width:1;"/><path d="M776.5,797 L776.5,822 L850.5,822 L850.5,807 L840.5,797 L776.5,797" fill="#FEFFDD" style="stroke:#181818;stroke-width:0.5;"/><path d="M840.5,797 L840.5,807 L850.5,807 L840.5,797" fill="#FEFFDD" style="stroke:#181818;stroke-width:0.5;"/><text fill="#000000" font-family="sans-serif" font-size="13" lengthAdjust="spacing" textLength="53.187" x="782.5" y="814.0669">Guardar</text></g><!--link editarAsignatura to ASIGNATURAS_ABIERTO2--><g class="link" data-entity-1="editarAsignatura" data-entity-2="ASIGNATURAS_ABIERTO2" data-source-line="88" data-uid="lnk18" id="link_editarAsignatura_ASIGNATURAS_ABIERTO2"><path d="M610.89,762.22 C591.24,801.52 577.0233,829.9434 566.3333,851.3234" fill="none" id="editarAsignatura-to-ASIGNATURAS_ABIERTO2" style="stroke:#FF0000;stroke-width:1;"/><polygon fill="#FF0000" points="563.65,856.69,571.2526,850.429,565.8861,852.2179,564.0972,846.8513,563.65,856.69" style="stroke:#FF0000;stroke-width:1;"/><path d="M599.5,797 L599.5,822 L726.5,822 L726.5,807 L716.5,797 L599.5,797" fill="#FEFFDD" style="stroke:#181818;stroke-width:0.5;"/><path d="M716.5,797 L716.5,807 L726.5,807 L716.5,797" fill="#FEFFDD" style="stroke:#181818;stroke-width:0.5;"/><text fill="#000000" font-family="sans-serif" font-size="13" lengthAdjust="spacing" textLength="106.3677" x="605.5" y="814.0669">cancelar edici&#243;n</text></g><!--link editarAsignatura to EXAMENES_GENERADOS_CONTEXTUALES--><g class="link" data-entity-1="editarAsignatura" data-entity-2="EXAMENES_GENERADOS_CONTEXTUALES" data-source-line="93" data-uid="lnk20" id="link_editarAsignatura_EXAMENES_GENERADOS_CONTEXTUALES"><path d="M1216.83,762.22 C1271.5,801.65 1313.6036,832.0302 1343.2336,853.4002" fill="none" id="editarAsignatura-to-EXAMENES_GENERADOS_CONTEXTUALES" style="stroke:#FFFF00;stroke-width:1;"/><polygon fill="#FFFF00" points="1348.1,856.91,1343.1403,848.4011,1344.0447,853.9852,1338.4606,854.8896,1348.1,856.91" style="stroke:#FFFF00;stroke-width:1;"/><path d="M1310.5,797 L1310.5,822 L1438.5,822 L1438.5,807 L1428.5,797 L1310.5,797" fill="#FEFFDD" style="stroke:#181818;stroke-width:0.5;"/><path d="M1428.5,797 L1428.5,807 L1438.5,807 L1428.5,797" fill="#FEFFDD" style="stroke:#181818;stroke-width:0.5;"/><text fill="#000000" font-family="sans-serif" font-size="13" lengthAdjust="spacing" textLength="107.834" x="1316.5" y="814.0669">generar examen</text></g><!--link editarAsignatura to PREGUNTAS_CONTEXTUALES_ABIERTO1--><g class="link" data-entity-1="editarAsignatura" data-entity-2="PREGUNTAS_CONTEXTUALES_ABIERTO1" data-source-line="98" data-uid="lnk21" id="link_editarAsignatura_PREGUNTAS_CONTEXTUALES_ABIERTO1"><path d="M970.07,762.22 C994.37,801.52 1012.1062,830.2057 1025.3162,851.5857" fill="none" id="editarAsignatura-to-PREGUNTAS_CONTEXTUALES_ABIERTO1" style="stroke:#0000FF;stroke-width:1;"/><polygon fill="#0000FF" points="1028.47,856.69,1027.1422,846.9311,1025.8419,852.4364,1020.3365,851.1361,1028.47,856.69" style="stroke:#0000FF;stroke-width:1;"/><path d="M1015.5,797 L1015.5,822 L1127.5,822 L1127.5,807 L1117.5,797 L1015.5,797" fill="#FEFFDD" style="stroke:#181818;stroke-width:0.5;"/><path d="M1117.5,797 L1117.5,807 L1127.5,807 L1117.5,797" fill="#FEFFDD" style="stroke:#181818;stroke-width:0.5;"/><text fill="#000000" font-family="sans-serif" font-size="13" lengthAdjust="spacing" textLength="91.3301" x="1021.5" y="814.0669">ver preguntas</text></g><!--link editarAsignatura to ASIGNATURAS_ABIERTO1--><g class="link" data-entity-1="editarAsignatura" data-entity-2="ASIGNATURAS_ABIERTO1" data-source-line="103" data-uid="lnk22" id="link_editarAsignatura_ASIGNATURAS_ABIERTO1"><path d="M447.36,762.22 C407.7,801.52 377.8614,831.0862 356.2914,852.4662" fill="none" id="editarAsignatura-to-ASIGNATURAS_ABIERTO1" style="stroke:#FFA500;stroke-width:1;"/><polygon fill="#FFA500" points="352.03,856.69,361.2379,853.1952,355.5811,853.1701,355.6062,847.5133,352.03,856.69" style="stroke:#FFA500;stroke-width:1;"/><path d="M417.5,797 L417.5,822 L491.5,822 L491.5,807 L481.5,797 L417.5,797" fill="#FEFFDD" style="stroke:#181818;stroke-width:0.5;"/><path d="M481.5,797 L481.5,807 L491.5,807 L481.5,797" fill="#FEFFDD" style="stroke:#181818;stroke-width:0.5;"/><text fill="#000000" font-family="sans-serif" font-size="13" lengthAdjust="spacing" textLength="53.0474" x="423.5" y="814.0669">eliminar</text></g><!--SRC=[dLRDQjj04BxlKopkeJyqBUqnX80I2pVGsiLs811266itxZQhNNUrIcj2eS_IMmuvvH7y9dsIpagsP4bhnROCChipyyqttuoaJMw5ce61c4gXk9tFE9rfENSBGX8BbjFm8lWIziFHTJ0ww_M3xc1qVJheZyEByNdmEHmjlRuEmzvvVnnKZTV1oLau70-MJZd2-7mOR67vG26X7O-XquXv7kpZxc3ra7f4UyKv-tQVJbtXqy4G0yvGuYpQizyXnETzSFbYQZXNLmV7b3DXmGI9c2gmgG7oJ0FRWzihQ8_roBrjm7R-I_tg-vbuzSrNhplqdX2ALnxLmHywXivFCTq5gvEckPU2OOMTvW2NRwugn2eOD7DH6Z6qSe_LRRPnD3dkweWhou_UJuvfegM8C6f97bCLLJblhbWEWHSfRjKywmogD3So68d4yXWo1ZF34wG3b6LeBDCn4eidHGh2cQNKyD05PiP_V_xIyUBHfb8NwzF54nFJjNLg4as32DZY8HPHQGXa6Yi4Zi4Q4QKIs9AoC_QCMw8UEX8LmmbsnImUmJ55xjCKkIUbDlNgk8a52h3IsHmMGB5cuaP4A7e4yMmjmpGJiT4BPuf0HLoYhT1ePRdZfaOdW-AA6-V-2s9UEdCfOg70L7fSrb0RjeqZjjk4UUlTAJdE-sufLqhEQG9IrChTaCrmjbSkVsksgMyYKxvNocRFjqatvrBgd_lfsHodRJ9g0sgwNud-IVrDIEDbkpuedgyegQJCEHfI8BwaVMtXa7xY-3f05aemJMNHrQoXz1l-WzkL-8Ilr91lAKRZSwvf8bmxRWJ7LnhzaN8AiXmB2_54B1uKlOCvVXey77EWb3ECZfotKrhYUoQnGcaA4_YkttaBNywixy1HhRivfENZu0CkPwNuUlVmFcmUloffQdFIdcCr_iySPAePggFVdg0SFz_nhefRpDiAyZy0]--></g></svg>