<svg xmlns="http://www.w3.org/2000/svg" xmlns:xlink="http://www.w3.org/1999/xlink" contentStyleType="text/css" data-diagram-type="STATE" height="765px" preserveAspectRatio="none" style="width:794px;height:765px;background:#FFFFFF;" version="1.1" viewBox="0 0 794 765" width="794px" zoomAndPan="magnify"><defs/><g><path d="M19.5,7 L633.5,7 A12.5,12.5 0 0 1 646,19.5 L646,33.2969 L7,33.2969 L7,19.5 A12.5,12.5 0 0 1 19.5,7" fill="#F1F1F1"/><rect fill="none" height="607.2969" rx="12.5" ry="12.5" style="stroke:#181818;stroke-width:0.5;" width="639" x="7" y="7"/><line style="stroke:#181818;stroke-width:0.5;" x1="7" x2="646" y1="33.2969" y2="33.2969"/><text fill="#000000" font-family="sans-serif" font-size="14" lengthAdjust="spacing" textLength="202.7334" x="225.1333" y="24.9951">editarAsignatura(asignatura)</text><g id="editarAsignatura.EditandoDatos"><rect fill="#F1F1F1" height="50" rx="12.5" ry="12.5" style="stroke:#181818;stroke-width:0.5;" width="50" x="185" y="150.2969"/><line style="stroke:#181818;stroke-width:0.5;" x1="185" x2="235" y1="176.5938" y2="176.5938"/><text fill="#000000" font-family="sans-serif" font-size="14" lengthAdjust="spacing" textLength="4.4502" x="207.7749" y="168.292">&#160;</text></g><g id="editarAsignatura.GuardandoDatos"><rect fill="#F1F1F1" height="50" rx="12.5" ry="12.5" style="stroke:#181818;stroke-width:0.5;" width="50" x="185" y="461.2969"/><line style="stroke:#181818;stroke-width:0.5;" x1="185" x2="235" y1="487.5938" y2="487.5938"/><text fill="#000000" font-family="sans-serif" font-size="14" lengthAdjust="spacing" textLength="4.4502" x="207.7749" y="479.292">&#160;</text></g><ellipse cx="210" cy="54.2969" fill="#222222" rx="10" ry="10" style="stroke:#222222;stroke-width:1;"/><ellipse cx="210" cy="593.2969" fill="none" rx="11" ry="11" style="stroke:#222222;stroke-width:1;"/><ellipse cx="210" cy="593.2969" fill="#222222" rx="6" ry="6" style="stroke:#222222;stroke-width:1;"/><!--link *start*editarAsignatura to EditandoDatos--><g class="link" data-entity-1=".start.editarAsignatura" data-entity-2="EditandoDatos" data-source-line="8" data-uid="lnk3" id="link_.start.editarAsignatura_EditandoDatos"><path d="M210,64.6369 C210,82.8269 210,117.5369 210,143.9069" fill="none" id="*start*editarAsignatura-to-EditandoDatos" style="stroke:#008000;stroke-width:1;"/><polygon fill="#008000" points="210,149.9069,214,140.9069,210,144.9069,206,140.9069,210,149.9069" style="stroke:#008000;stroke-width:1;"/><path d="M215,87.2969 L215,127.2969 L491,127.2969 L491,97.2969 L481,87.2969 L215,87.2969" fill="#FEFFDD" style="stroke:#181818;stroke-width:0.5;"/><path d="M481,87.2969 L481,97.2969 L491,97.2969 L481,87.2969" fill="#FEFFDD" style="stroke:#181818;stroke-width:0.5;"/><text fill="#000000" font-family="sans-serif" font-size="13" font-weight="bold" lengthAdjust="spacing" textLength="60.5313" x="221" y="104.3638">Docente</text><text fill="#000000" font-family="sans-serif" font-size="13" lengthAdjust="spacing" textLength="190.3408" x="285.6636" y="104.3638">solicita editar una asignatura</text><text fill="#000000" font-family="sans-serif" font-size="13" lengthAdjust="spacing" textLength="60.5059" x="221" y="119.4966">existente</text></g><!--link EditandoDatos to GuardandoDatos--><g class="link" data-entity-1="EditandoDatos" data-entity-2="GuardandoDatos" data-source-line="14" data-uid="lnk4" id="link_EditandoDatos_GuardandoDatos"><path d="M184.5,181.8769 C132.28,193.2969 18,218.2969 18,218.2969 C18,218.2969 18,443.2969 18,443.2969 C18,443.2969 126.4185,467.015 178.6385,478.435" fill="none" id="EditandoDatos-to-GuardandoDatos" style="stroke:#008000;stroke-width:1;"/><polygon fill="#008000" points="184.5,479.7169,176.5624,473.8865,179.6154,478.6487,174.8532,481.7018,184.5,479.7169" style="stroke:#008000;stroke-width:1;"/><path d="M23,223.2969 L23,438.2969 L376,438.2969 L376,233.2969 L366,223.2969 L23,223.2969" fill="#FEFFDD" style="stroke:#181818;stroke-width:0.5;"/><path d="M366,223.2969 L366,233.2969 L376,233.2969 L366,223.2969" fill="#FEFFDD" style="stroke:#181818;stroke-width:0.5;"/><text fill="#000000" font-family="sans-serif" font-size="13" font-weight="bold" lengthAdjust="spacing" textLength="58.9063" x="29" y="240.3638">Sistema</text><text fill="#000000" font-family="sans-serif" font-size="13" lengthAdjust="spacing" textLength="269.2612" x="92.0386" y="240.3638">presenta una solicitud de datos minimos:</text><line style="stroke:#181818;stroke-width:1;" x1="24" x2="375.2998" y1="243.4297" y2="243.4297"/><text fill="#000000" font-family="sans-serif" font-size="13" font-weight="bold" lengthAdjust="spacing" textLength="132.4121" x="29" y="259.4966">Datos Asignatura:</text><text fill="#000000" font-family="sans-serif" font-size="13" lengthAdjust="spacing" textLength="48.2549" x="29" y="274.6294">&#8226; T&#237;tulo</text><text fill="#000000" font-family="sans-serif" font-size="13" lengthAdjust="spacing" textLength="56.9004" x="29" y="289.7622">&#8226; C&#243;digo</text><text fill="#000000" font-family="sans-serif" font-size="13" lengthAdjust="spacing" textLength="124.9536" x="29" y="304.895">&#8226; Curso Acad&#233;mico</text><line style="stroke:#181818;stroke-width:1;" x1="24" x2="375.2998" y1="311.9609" y2="311.9609"/><text fill="#000000" font-family="sans-serif" font-size="13" font-weight="bold" lengthAdjust="spacing" textLength="263.269" x="29" y="328.0278">Opciones de Navegaci&#243;n (V&#237;nculos):</text><text fill="#000000" font-family="sans-serif" font-size="13" lengthAdjust="spacing" textLength="223.2661" x="29" y="343.1606">&#8226; Acceso a ver listado de Alumnos</text><text fill="#000000" font-family="sans-serif" font-size="13" lengthAdjust="spacing" textLength="214.0049" x="29" y="358.2935">&#8226; Acceso a ver Grados asociados</text><line style="stroke:#181818;stroke-width:1;" x1="24" x2="375.2998" y1="365.3594" y2="365.3594"/><text fill="#000000" font-family="sans-serif" font-size="13" font-weight="bold" lengthAdjust="spacing" textLength="58.9063" x="29" y="381.4263">Sistema</text><text fill="#000000" font-family="sans-serif" font-size="13" lengthAdjust="spacing" textLength="110.5952" x="92.0386" y="381.4263">permite solicitar:</text><text fill="#000000" font-family="sans-serif" font-size="13" lengthAdjust="spacing" textLength="127.8164" x="29" y="396.5591">&#8226; modificar campos</text><text fill="#000000" font-family="sans-serif" font-size="13" lengthAdjust="spacing" textLength="136.7539" x="29" y="411.6919">&#8226; guardar asignatura</text><text fill="#000000" font-family="sans-serif" font-size="13" lengthAdjust="spacing" textLength="118.168" x="29" y="426.8247">&#8226; cancelar edici&#243;n</text></g><!--link GuardandoDatos to EditandoDatos--><g class="link" data-entity-1="GuardandoDatos" data-entity-2="EditandoDatos" data-source-line="34" data-uid="lnk5" id="link_GuardandoDatos_EditandoDatos"><path d="M235.23,479.0969 C282.8,467.4169 381,443.2969 381,443.2969 C381,443.2969 381,218.2969 381,218.2969 C381,218.2969 288.6269,195.6076 241.0569,183.9276" fill="none" id="GuardandoDatos-to-EditandoDatos" style="stroke:#008000;stroke-width:1;"/><polygon fill="#008000" points="235.23,182.4969,243.0166,188.5275,240.0858,183.6891,244.9242,180.7583,235.23,182.4969" style="stroke:#008000;stroke-width:1;"/><path d="M386,310.7969 L386,350.7969 L637,350.7969 L637,320.7969 L627,310.7969 L386,310.7969" fill="#FEFFDD" style="stroke:#181818;stroke-width:0.5;"/><path d="M627,310.7969 L627,320.7969 L637,320.7969 L627,310.7969" fill="#FEFFDD" style="stroke:#181818;stroke-width:0.5;"/><text fill="#000000" font-family="sans-serif" font-size="13" font-weight="bold" lengthAdjust="spacing" textLength="60.5313" x="392" y="327.8638">Docente</text><text fill="#000000" font-family="sans-serif" font-size="13" lengthAdjust="spacing" textLength="165.9214" x="456.6636" y="327.8638">solicita modificar campos</text><text fill="#000000" font-family="sans-serif" font-size="13" lengthAdjust="spacing" textLength="161.7256" x="392" y="342.9966">(Corrige o cambia datos)</text></g><!--link GuardandoDatos to *end*editarAsignatura--><g class="link" data-entity-1="GuardandoDatos" data-entity-2=".end.editarAsignatura" data-source-line="41" data-uid="lnk7" id="link_GuardandoDatos_.end.editarAsignatura"><path d="M184.63,495.4969 C146.79,507.7169 80,529.2969 80,529.2969 C80,529.2969 80,564.2969 80,564.2969 C80,564.2969 162.4446,582.0531 193.4946,588.7431" fill="none" id="GuardandoDatos-to-*end*editarAsignatura" style="stroke:#008000;stroke-width:1;"/><polygon fill="#008000" points="199.36,590.0069,191.4044,584.201,194.4722,588.9537,189.7194,592.0215,199.36,590.0069" style="stroke:#008000;stroke-width:1;"/><path d="M85,534.2969 L85,559.2969 L315,559.2969 L315,544.2969 L305,534.2969 L85,534.2969" fill="#FEFFDD" style="stroke:#181818;stroke-width:0.5;"/><path d="M305,534.2969 L305,544.2969 L315,544.2969 L305,534.2969" fill="#FEFFDD" style="stroke:#181818;stroke-width:0.5;"/><text fill="#000000" font-family="sans-serif" font-size="13" font-weight="bold" lengthAdjust="spacing" textLength="60.5313" x="91" y="551.3638">Docente</text><text fill="#000000" font-family="sans-serif" font-size="13" lengthAdjust="spacing" textLength="144.5361" x="155.6636" y="551.3638">solicita guardar y salir</text></g><!--link GuardandoDatos to *end*editarAsignatura--><g class="link" data-entity-1="GuardandoDatos" data-entity-2=".end.editarAsignatura" data-source-line="47" data-uid="lnk8" id="link_GuardandoDatos_.end.editarAsignatura"><path d="M235.24,496.9369 C267.71,509.3369 320,529.2969 320,529.2969 C320,529.2969 320,564.2969 320,564.2969 C320,564.2969 253.8945,581.1263 226.3645,588.1363" fill="none" id="GuardandoDatos-to-*end*editarAsignatura-1" style="stroke:#FF0000;stroke-width:1;"/><polygon fill="#FF0000" points="220.55,589.6169,230.2587,591.2724,225.3954,588.3831,228.2847,583.5197,220.55,589.6169" style="stroke:#FF0000;stroke-width:1;"/><path d="M325,534.2969 L325,559.2969 L566,559.2969 L566,544.2969 L556,534.2969 L325,534.2969" fill="#FEFFDD" style="stroke:#181818;stroke-width:0.5;"/><path d="M556,534.2969 L556,544.2969 L566,544.2969 L556,534.2969" fill="#FEFFDD" style="stroke:#181818;stroke-width:0.5;"/><text fill="#000000" font-family="sans-serif" font-size="13" font-weight="bold" lengthAdjust="spacing" textLength="60.5313" x="331" y="551.3638">Docente</text><text fill="#000000" font-family="sans-serif" font-size="13" lengthAdjust="spacing" textLength="156.2729" x="395.6636" y="551.3638">solicita cancelar edici&#243;n</text></g><g id="ASIGNATURAS_ABIERTO"><rect fill="#F1F1F1" height="50" rx="12.5" ry="12.5" style="stroke:#181818;stroke-width:0.5;" width="188.9365" x="39.03" y="709.3"/><line style="stroke:#181818;stroke-width:0.5;" x1="39.03" x2="227.9665" y1="735.5969" y2="735.5969"/><text fill="#000000" font-family="sans-serif" font-size="14" lengthAdjust="spacing" textLength="168.9365" x="49.03" y="727.2951">ASIGNATURAS_ABIERTO</text></g><g id="ALUMNOS_ABIERTO"><rect fill="#F1F1F1" height="50" rx="12.5" ry="12.5" style="stroke:#181818;stroke-width:0.5;" width="158.5371" x="336.23" y="709.3"/><line style="stroke:#181818;stroke-width:0.5;" x1="336.23" x2="494.7671" y1="735.5969" y2="735.5969"/><text fill="#000000" font-family="sans-serif" font-size="14" lengthAdjust="spacing" textLength="138.5371" x="346.23" y="727.2951">ALUMNOS_ABIERTO</text></g><g id="GRADOS_ABIERTO"><rect fill="#F1F1F1" height="50" rx="12.5" ry="12.5" style="stroke:#181818;stroke-width:0.5;" width="149.2949" x="568.85" y="709.3"/><line style="stroke:#181818;stroke-width:0.5;" x1="568.85" x2="718.1449" y1="735.5969" y2="735.5969"/><text fill="#000000" font-family="sans-serif" font-size="14" lengthAdjust="spacing" textLength="129.2949" x="578.85" y="727.2951">GRADOS_ABIERTO</text></g><!--link editarAsignatura to ASIGNATURAS_ABIERTO--><g class="link" data-entity-1="editarAsignatura" data-entity-2="ASIGNATURAS_ABIERTO" data-source-line="56" data-uid="lnk10" id="link_editarAsignatura_ASIGNATURAS_ABIERTO"><path d="M80.46,614.78 C65.6,633.09 56.5,644.3 56.5,644.3 C56.5,644.3 56.5,679.3 56.5,679.3 C56.5,679.3 73.3181,691.0942 93.6881,705.3842" fill="none" id="editarAsignatura-to-ASIGNATURAS_ABIERTO" style="stroke:#008000;stroke-width:1;"/><polygon fill="#008000" points="98.6,708.83,93.5294,700.3867,94.5068,705.9585,88.935,706.9359,98.6,708.83" style="stroke:#008000;stroke-width:1;"/><path d="M61.5,649.3 L61.5,674.3 L190.5,674.3 L190.5,659.3 L180.5,649.3 L61.5,649.3" fill="#FEFFDD" style="stroke:#181818;stroke-width:0.5;"/><path d="M180.5,649.3 L180.5,659.3 L190.5,659.3 L180.5,649.3" fill="#FEFFDD" style="stroke:#181818;stroke-width:0.5;"/><text fill="#000000" font-family="sans-serif" font-size="13" lengthAdjust="spacing" textLength="108.3354" x="67.5" y="666.3669">verAsignaturas()</text></g><!--link editarAsignatura to ASIGNATURAS_ABIERTO--><g class="link" data-entity-1="editarAsignatura" data-entity-2="ASIGNATURAS_ABIERTO" data-source-line="62" data-uid="lnk11" id="link_editarAsignatura_ASIGNATURAS_ABIERTO"><path d="M221.91,614.42 C208.59,652.98 199.5,679.3 199.5,679.3 C199.5,679.3 185.5132,690.7398 168.0532,705.0298" fill="none" id="editarAsignatura-to-ASIGNATURAS_ABIERTO-1" style="stroke:#FF0000;stroke-width:1;"/><polygon fill="#FF0000" points="163.41,708.83,172.9082,706.2252,167.2793,705.6632,167.8413,700.0343,163.41,708.83" style="stroke:#FF0000;stroke-width:1;"/><path d="M215.5,649.3 L215.5,674.3 L342.5,674.3 L342.5,659.3 L332.5,649.3 L215.5,649.3" fill="#FEFFDD" style="stroke:#181818;stroke-width:0.5;"/><path d="M332.5,649.3 L332.5,659.3 L342.5,659.3 L332.5,649.3" fill="#FEFFDD" style="stroke:#181818;stroke-width:0.5;"/><text fill="#000000" font-family="sans-serif" font-size="13" lengthAdjust="spacing" textLength="106.3677" x="221.5" y="666.3669">cancelar edici&#243;n</text></g><!--link editarAsignatura to ALUMNOS_ABIERTO--><g class="link" data-entity-1="editarAsignatura" data-entity-2="ALUMNOS_ABIERTO" data-source-line="68" data-uid="lnk13" id="link_editarAsignatura_ALUMNOS_ABIERTO"><path d="M390.47,614.73 C398.71,653.74 404.5906,681.6394 409.1106,703.0494" fill="none" id="editarAsignatura-to-ALUMNOS_ABIERTO" style="stroke:#FFA500;stroke-width:1;"/><polygon fill="#FFA500" points="410.35,708.92,412.4047,699.2878,409.3172,704.0278,404.5772,700.9404,410.35,708.92" style="stroke:#FFA500;stroke-width:1;"/><path d="M408.5,649.3 L408.5,674.3 L586.5,674.3 L586.5,659.3 L576.5,649.3 L408.5,649.3" fill="#FEFFDD" style="stroke:#181818;stroke-width:0.5;"/><path d="M576.5,649.3 L576.5,659.3 L586.5,659.3 L576.5,649.3" fill="#FEFFDD" style="stroke:#181818;stroke-width:0.5;"/><text fill="#000000" font-family="sans-serif" font-size="13" lengthAdjust="spacing" textLength="157.0093" x="414.5" y="666.3669">verAlumnos(asignatura)</text></g><!--link editarAsignatura to GRADOS_ABIERTO--><g class="link" data-entity-1="editarAsignatura" data-entity-2="GRADOS_ABIERTO" data-source-line="73" data-uid="lnk15" id="link_editarAsignatura_GRADOS_ABIERTO"><path d="M575.27,614.78 C590.3,633.09 599.5,644.3 599.5,644.3 C599.5,644.3 615.7904,677.2517 628.8204,703.6017" fill="none" id="editarAsignatura-to-GRADOS_ABIERTO" style="stroke:#FFA500;stroke-width:1;"/><polygon fill="#FFA500" points="631.48,708.98,631.0762,699.1394,629.2637,704.498,623.9051,702.6855,631.48,708.98" style="stroke:#FFA500;stroke-width:1;"/><path d="M620.5,649.3 L620.5,674.3 L787.5,674.3 L787.5,659.3 L777.5,649.3 L620.5,649.3" fill="#FEFFDD" style="stroke:#181818;stroke-width:0.5;"/><path d="M777.5,649.3 L777.5,659.3 L787.5,659.3 L777.5,649.3" fill="#FEFFDD" style="stroke:#181818;stroke-width:0.5;"/><text fill="#000000" font-family="sans-serif" font-size="13" lengthAdjust="spacing" textLength="146.999" x="626.5" y="666.3669">verGrados(asignatura)</text></g><!--SRC=[dLNDRjim3BxxAOZkK6T0Ecox1KK1hys20bqw96alHJ4macPebILFiei4mu0zosuxzDH7o9liIKR9JcBdfqNd085aYXy_VYHbToTrZXOpK5ABOfuBo8sQ-qqKkG8B0OBB0ctYPAgnA2q2EZZOV1dZQjavW1zH1FHK_WVq8vU-zz3Sd65XtBPvKABbApjK03UlRw5xyogrGkZRxaaR0y8HRGZ3Q4__BhmudfwS6IPq8OxVJ4_06IKPUTLfGAbz0akkmKFCf2kyGxNJl0Ab9rhzjICtERM9x-KqzZ4o39noAnp5mq2c9bXou09uWC-abfbnlU3RxNPNUGNhMlIUHml6lxz-msJnK9JAhFQdYqSkqyQ-jCv0mf0l_cIIcKtqovn9euNpF8PuBr9aSl6e8RvUF6X6oAxJ3fWm9WWHuLvOofNAoOrtJbIPwLgAhNC3IwSSbS0mwLURB5ew2Pj9ad9PGzjROMQ6ow-IKK4PPdaZM1hAOJThx4qCDHEARDGA8RLMlTUrFeI-0YQP2jai8zLYVCR2-iKvzOj5LiXxqmbU6msyjsrVrhKxyunFZRKo9GJ_TYgnwflEtdp6g2H7wCya7KE8AwxsMU8qVo-ZkrH_3ev2sZQXDfdJgXgqYeEMD0fTIAR6-YarkHVNAxwFenNylnW-qmG_e-ZGjsFDqb4cpLdepsgcrB1qyEqHV5JbDmD3OpDKFRWsoZSvgkKyH5ktPrFVP7m-62QJgr4o_f9yEE-F9fTHAnC2Mxkwk1EjnJo4TylejPHLEhi2rc8z6svRd6QyzqSjBNm9dGdNnHMDzoWmC3gCTtnXu7j9tn82eddkx6HbBEfK168NLv-6bqzeKDqepOzCWzdJs8DHSlO4T7KVxKJ-1m00]--></g></svg>