<svg xmlns="http://www.w3.org/2000/svg" xmlns:xlink="http://www.w3.org/1999/xlink" contentStyleType="text/css" data-diagram-type="STATE" height="867px" preserveAspectRatio="none" style="width:1088px;height:867px;background:#FFFFFF;" version="1.1" viewBox="0 0 1088 867" width="1088px" zoomAndPan="magnify"><defs/><g><g id="EXAMENES_ASIGNADOS_CONTEXTUALES"><rect fill="#F1F1F1" height="50" rx="12.5" ry="12.5" style="stroke:#181818;stroke-width:0.5;" width="307.4854" x="7" y="7"/><line style="stroke:#181818;stroke-width:0.5;" x1="7" x2="314.4854" y1="33.2969" y2="33.2969"/><text fill="#000000" font-family="sans-serif" font-size="14" lengthAdjust="spacing" textLength="287.4854" x="17" y="24.9951">EXAMENES_ASIGNADOS_CONTEXTUALES</text></g><g id="PREGUNTAS_CONTEXTUALES_ABIERTO"><rect fill="#F1F1F1" height="50" rx="12.5" ry="12.5" style="stroke:#181818;stroke-width:0.5;" width="293.2188" x="349" y="7"/><line style="stroke:#181818;stroke-width:0.5;" x1="349" x2="642.2188" y1="33.2969" y2="33.2969"/><text fill="#000000" font-family="sans-serif" font-size="14" lengthAdjust="spacing" textLength="273.2188" x="359" y="24.9951">PREGUNTAS_CONTEXTUALES_ABIERTO</text></g><g id="ASIGNATURAS_ABIERTO"><rect fill="#F1F1F1" height="50" rx="12.5" ry="12.5" style="stroke:#181818;stroke-width:0.5;" width="188.9365" x="677" y="7"/><line style="stroke:#181818;stroke-width:0.5;" x1="677" x2="865.9365" y1="33.2969" y2="33.2969"/><text fill="#000000" font-family="sans-serif" font-size="14" lengthAdjust="spacing" textLength="168.9365" x="687" y="24.9951">ASIGNATURAS_ABIERTO</text></g><g id="ASIGNATURA_ABIERTO"><rect fill="#F1F1F1" height="50" rx="12.5" ry="12.5" style="stroke:#181818;stroke-width:0.5;" width="180.0498" x="901.5" y="7"/><line style="stroke:#181818;stroke-width:0.5;" x1="901.5" x2="1081.5498" y1="33.2969" y2="33.2969"/><text fill="#000000" font-family="sans-serif" font-size="14" lengthAdjust="spacing" textLength="160.0498" x="911.5" y="24.9951">ASIGNATURA_ABIERTO</text></g><g id="ASIGNATURAS_ABIERTO2"><rect fill="#F1F1F1" height="50" rx="12.5" ry="12.5" style="stroke:#181818;stroke-width:0.5;" width="188.9365" x="429" y="811"/><line style="stroke:#181818;stroke-width:0.5;" x1="429" x2="617.9365" y1="837.2969" y2="837.2969"/><text fill="#000000" font-family="sans-serif" font-size="14" lengthAdjust="spacing" textLength="168.9365" x="439" y="828.9951">ASIGNATURAS_ABIERTO</text></g><g id="ASIGNATURA_ABIERTO2"><rect fill="#F1F1F1" height="50" rx="12.5" ry="12.5" style="stroke:#181818;stroke-width:0.5;" width="180.0498" x="653.5" y="811"/><line style="stroke:#181818;stroke-width:0.5;" x1="653.5" x2="833.5498" y1="837.2969" y2="837.2969"/><text fill="#000000" font-family="sans-serif" font-size="14" lengthAdjust="spacing" textLength="160.0498" x="663.5" y="828.9951">ASIGNATURA_ABIERTO</text></g><path d="M376.5,118 L890.5,118 A12.5,12.5 0 0 1 903,130.5 L903,144.2969 L364,144.2969 L364,130.5 A12.5,12.5 0 0 1 376.5,118" fill="#F1F1F1"/><rect fill="none" height="598.2969" rx="12.5" ry="12.5" style="stroke:#181818;stroke-width:0.5;" width="539" x="364" y="118"/><line style="stroke:#181818;stroke-width:0.5;" x1="364" x2="903" y1="144.2969" y2="144.2969"/><text fill="#000000" font-family="sans-serif" font-size="14" lengthAdjust="spacing" textLength="127.9346" x="569.5327" y="135.9951">editarAsignatura()</text><g id="editarAsignatura.EditandoDatos"><rect fill="#F1F1F1" height="50" rx="12.5" ry="12.5" style="stroke:#181818;stroke-width:0.5;" width="50" x="492" y="246.2969"/><line style="stroke:#181818;stroke-width:0.5;" x1="492" x2="542" y1="272.5938" y2="272.5938"/><text fill="#000000" font-family="sans-serif" font-size="14" lengthAdjust="spacing" textLength="4.4502" x="514.7749" y="264.292">&#160;</text></g><g id="editarAsignatura.GuardandoDatos"><rect fill="#F1F1F1" height="50" rx="12.5" ry="12.5" style="stroke:#181818;stroke-width:0.5;" width="50" x="492" y="563.2969"/><line style="stroke:#181818;stroke-width:0.5;" x1="492" x2="542" y1="589.5938" y2="589.5938"/><text fill="#000000" font-family="sans-serif" font-size="14" lengthAdjust="spacing" textLength="4.4502" x="514.7749" y="581.292">&#160;</text></g><ellipse cx="517" cy="165.2969" fill="#222222" rx="10" ry="10" style="stroke:#222222;stroke-width:1;"/><ellipse cx="517" cy="695.2969" fill="none" rx="11" ry="11" style="stroke:#222222;stroke-width:1;"/><ellipse cx="517" cy="695.2969" fill="#222222" rx="6" ry="6" style="stroke:#222222;stroke-width:1;"/><!--link *start*editarAsignatura to EditandoDatos--><g class="link" data-entity-1=".start.editarAsignatura" data-entity-2="EditandoDatos" data-source-line="20" data-uid="lnk7" id="link_.start.editarAsignatura_EditandoDatos"><path d="M517,175.5269 C517,191.2369 517,217.6569 517,240.1669" fill="none" id="*start*editarAsignatura-to-EditandoDatos" style="stroke:#008000;stroke-width:1;"/><polygon fill="#008000" points="517,246.1669,521,237.1669,517,241.1669,513,237.1669,517,246.1669" style="stroke:#008000;stroke-width:1;"/><path d="M522,198.2969 L522,223.2969 L769,223.2969 L769,208.2969 L759,198.2969 L522,198.2969" fill="#FEFFDD" style="stroke:#181818;stroke-width:0.5;"/><path d="M759,198.2969 L759,208.2969 L769,208.2969 L759,198.2969" fill="#FEFFDD" style="stroke:#181818;stroke-width:0.5;"/><text fill="#000000" font-family="sans-serif" font-size="13" font-weight="bold" lengthAdjust="spacing" textLength="60.5313" x="528" y="215.3638">Docente</text><text fill="#000000" font-family="sans-serif" font-size="13" lengthAdjust="spacing" textLength="161.7637" x="592.6636" y="215.3638">solicita editar asignatura</text></g><!--link EditandoDatos to GuardandoDatos--><g class="link" data-entity-1="EditandoDatos" data-entity-2="GuardandoDatos" data-source-line="25" data-uid="lnk8" id="link_EditandoDatos_GuardandoDatos"><path d="M491.94,279.7069 C451.17,291.7669 375,314.2969 375,314.2969 C375,314.2969 375,545.2969 375,545.2969 C375,545.2969 445.4164,566.1249 486.1864,578.1849" fill="none" id="EditandoDatos-to-GuardandoDatos" style="stroke:#008000;stroke-width:1;"/><polygon fill="#008000" points="491.94,579.8869,484.4443,573.4983,487.1454,578.4686,482.175,581.1697,491.94,579.8869" style="stroke:#008000;stroke-width:1;"/><path d="M380,319.2969 L380,540.2969 L633,540.2969 L633,329.2969 L623,319.2969 L380,319.2969" fill="#FEFFDD" style="stroke:#181818;stroke-width:0.5;"/><path d="M623,319.2969 L623,329.2969 L633,329.2969 L623,319.2969" fill="#FEFFDD" style="stroke:#181818;stroke-width:0.5;"/><text fill="#000000" font-family="sans-serif" font-size="13" font-weight="bold" lengthAdjust="spacing" textLength="58.9063" x="386" y="336.3638">Sistema</text><text fill="#000000" font-family="sans-serif" font-size="13" lengthAdjust="spacing" textLength="169.1714" x="449.0386" y="336.3638">presenta datos de edici&#243;n</text><text fill="#000000" font-family="sans-serif" font-size="13" lengthAdjust="spacing" textLength="4.1323" x="386" y="351.4966">&#160;</text><text fill="#000000" font-family="sans-serif" font-size="13" font-weight="bold" lengthAdjust="spacing" textLength="132.4121" x="386" y="366.6294">Datos Asignatura:</text><text fill="#000000" font-family="sans-serif" font-size="13" lengthAdjust="spacing" textLength="48.2549" x="386" y="381.7622">&#8226; T&#237;tulo</text><text fill="#000000" font-family="sans-serif" font-size="13" lengthAdjust="spacing" textLength="56.9004" x="386" y="396.895">&#8226; C&#243;digo</text><text fill="#000000" font-family="sans-serif" font-size="13" lengthAdjust="spacing" textLength="124.9536" x="386" y="412.0278">&#8226; Curso Acad&#233;mico</text><text fill="#000000" font-family="sans-serif" font-size="13" lengthAdjust="spacing" textLength="156.9331" x="386" y="427.1606">&#8226; Alumnos matriculados</text><text fill="#000000" font-family="sans-serif" font-size="13" lengthAdjust="spacing" textLength="126.6929" x="386" y="442.2935">&#8226; Grados asociados</text><text fill="#000000" font-family="sans-serif" font-size="13" lengthAdjust="spacing" textLength="149.3794" x="386" y="457.4263">&#8226; Bater&#237;a de preguntas</text><text fill="#000000" font-family="sans-serif" font-size="13" lengthAdjust="spacing" textLength="4.1323" x="386" y="472.5591">&#160;</text><text fill="#000000" font-family="sans-serif" font-size="13" font-weight="bold" lengthAdjust="spacing" textLength="58.9063" x="386" y="487.6919">Sistema</text><text fill="#000000" font-family="sans-serif" font-size="13" lengthAdjust="spacing" textLength="110.5952" x="449.0386" y="487.6919">permite solicitar:</text><text fill="#000000" font-family="sans-serif" font-size="13" lengthAdjust="spacing" textLength="127.8164" x="386" y="502.8247">&#8226; modificar campos</text><text fill="#000000" font-family="sans-serif" font-size="13" lengthAdjust="spacing" textLength="136.7539" x="386" y="517.9575">&#8226; guardar asignatura</text><text fill="#000000" font-family="sans-serif" font-size="13" lengthAdjust="spacing" textLength="118.168" x="386" y="533.0903">&#8226; cancelar edici&#243;n</text></g><!--link GuardandoDatos to EditandoDatos--><g class="link" data-entity-1="GuardandoDatos" data-entity-2="EditandoDatos" data-source-line="43" data-uid="lnk9" id="link_GuardandoDatos_EditandoDatos"><path d="M542.07,578.5969 C577.51,566.2969 638,545.2969 638,545.2969 C638,545.2969 638,314.2969 638,314.2969 C638,314.2969 583.1783,295.2642 547.7383,282.9642" fill="none" id="GuardandoDatos-to-EditandoDatos" style="stroke:#008000;stroke-width:1;"/><polygon fill="#008000" points="542.07,280.9969,549.261,287.7267,546.7936,282.6363,551.884,280.1689,542.07,280.9969" style="stroke:#008000;stroke-width:1;"/><path d="M643,417.2969 L643,442.2969 L894,442.2969 L894,427.2969 L884,417.2969 L643,417.2969" fill="#FEFFDD" style="stroke:#181818;stroke-width:0.5;"/><path d="M884,417.2969 L884,427.2969 L894,427.2969 L884,417.2969" fill="#FEFFDD" style="stroke:#181818;stroke-width:0.5;"/><text fill="#000000" font-family="sans-serif" font-size="13" font-weight="bold" lengthAdjust="spacing" textLength="60.5313" x="649" y="434.3638">Docente</text><text fill="#000000" font-family="sans-serif" font-size="13" lengthAdjust="spacing" textLength="165.9214" x="713.6636" y="434.3638">solicita modificar campos</text></g><!--link GuardandoDatos to *end*editarAsignatura--><g class="link" data-entity-1="GuardandoDatos" data-entity-2=".end.editarAsignatura" data-source-line="48" data-uid="lnk11" id="link_GuardandoDatos_.end.editarAsignatura"><path d="M491.93,597.3969 C454.16,609.5969 387,631.2969 387,631.2969 C387,631.2969 387,666.2969 387,666.2969 C387,666.2969 469.4446,684.0531 500.4946,690.7431" fill="none" id="GuardandoDatos-to-*end*editarAsignatura" style="stroke:#008000;stroke-width:1;"/><polygon fill="#008000" points="506.36,692.0069,498.4044,686.201,501.4722,690.9537,496.7194,694.0215,506.36,692.0069" style="stroke:#008000;stroke-width:1;"/><path d="M392,636.2969 L392,661.2969 L622,661.2969 L622,646.2969 L612,636.2969 L392,636.2969" fill="#FEFFDD" style="stroke:#181818;stroke-width:0.5;"/><path d="M612,636.2969 L612,646.2969 L622,646.2969 L612,636.2969" fill="#FEFFDD" style="stroke:#181818;stroke-width:0.5;"/><text fill="#000000" font-family="sans-serif" font-size="13" font-weight="bold" lengthAdjust="spacing" textLength="60.5313" x="398" y="653.3638">Docente</text><text fill="#000000" font-family="sans-serif" font-size="13" lengthAdjust="spacing" textLength="144.5361" x="462.6636" y="653.3638">solicita guardar y salir</text></g><!--link GuardandoDatos to *end*editarAsignatura--><g class="link" data-entity-1="GuardandoDatos" data-entity-2=".end.editarAsignatura" data-source-line="53" data-uid="lnk12" id="link_GuardandoDatos_.end.editarAsignatura"><path d="M542.24,598.9369 C574.71,611.3369 627,631.2969 627,631.2969 C627,631.2969 627,666.2969 627,666.2969 C627,666.2969 560.8945,683.1263 533.3645,690.1363" fill="none" id="GuardandoDatos-to-*end*editarAsignatura-1" style="stroke:#FF0000;stroke-width:1;"/><polygon fill="#FF0000" points="527.55,691.6169,537.2587,693.2724,532.3954,690.3831,535.2847,685.5197,527.55,691.6169" style="stroke:#FF0000;stroke-width:1;"/><path d="M632,636.2969 L632,661.2969 L873,661.2969 L873,646.2969 L863,636.2969 L632,636.2969" fill="#FEFFDD" style="stroke:#181818;stroke-width:0.5;"/><path d="M863,636.2969 L863,646.2969 L873,646.2969 L863,636.2969" fill="#FEFFDD" style="stroke:#181818;stroke-width:0.5;"/><text fill="#000000" font-family="sans-serif" font-size="13" font-weight="bold" lengthAdjust="spacing" textLength="60.5313" x="638" y="653.3638">Docente</text><text fill="#000000" font-family="sans-serif" font-size="13" lengthAdjust="spacing" textLength="156.2729" x="702.6636" y="653.3638">solicita cancelar edici&#243;n</text></g><!--link EXAMENES_ASIGNADOS_CONTEXTUALES to editarAsignatura--><g class="link" data-entity-1="EXAMENES_ASIGNADOS_CONTEXTUALES" data-entity-2="editarAsignatura" data-source-line="10" data-uid="lnk2" id="link_EXAMENES_ASIGNADOS_CONTEXTUALES_editarAsignatura"><path d="M190.45,57.25 C227.25,87.05 288.8673,136.9339 359.1273,193.8339" fill="none" id="EXAMENES_ASIGNADOS_CONTEXTUALES-to-editarAsignatura" style="stroke:#008000;stroke-width:1;"/><polygon fill="#008000" points="363.79,197.61,359.3133,188.8374,359.9044,194.4632,354.2785,195.0543,363.79,197.61" style="stroke:#008000;stroke-width:1;"/></g><!--link PREGUNTAS_CONTEXTUALES_ABIERTO to editarAsignatura--><g class="link" data-entity-1="PREGUNTAS_CONTEXTUALES_ABIERTO" data-entity-2="editarAsignatura" data-source-line="11" data-uid="lnk3" id="link_PREGUNTAS_CONTEXTUALES_ABIERTO_editarAsignatura"><path d="M504.24,57.25 C509.66,72.29 515.2352,87.7756 524.0852,112.3256" fill="none" id="PREGUNTAS_CONTEXTUALES_ABIERTO-to-editarAsignatura" style="stroke:#008000;stroke-width:1;"/><polygon fill="#008000" points="526.12,117.97,526.8308,108.1468,524.4244,113.2663,519.3049,110.8598,526.12,117.97" style="stroke:#008000;stroke-width:1;"/></g><!--link ASIGNATURAS_ABIERTO to editarAsignatura--><g class="link" data-entity-1="ASIGNATURAS_ABIERTO" data-entity-2="editarAsignatura" data-source-line="12" data-uid="lnk4" id="link_ASIGNATURAS_ABIERTO_editarAsignatura"><path d="M762.76,57.25 C757.34,72.29 751.7648,87.7756 742.9148,112.3256" fill="none" id="ASIGNATURAS_ABIERTO-to-editarAsignatura" style="stroke:#008000;stroke-width:1;"/><polygon fill="#008000" points="740.88,117.97,747.6951,110.8598,742.5756,113.2663,740.1692,108.1468,740.88,117.97" style="stroke:#008000;stroke-width:1;"/></g><!--link ASIGNATURA_ABIERTO to editarAsignatura--><g class="link" data-entity-1="ASIGNATURA_ABIERTO" data-entity-2="editarAsignatura" data-source-line="13" data-uid="lnk5" id="link_ASIGNATURA_ABIERTO_editarAsignatura"><path d="M968.83,57.25 C953,74.19 934.0675,94.447 907.3675,123.007" fill="none" id="ASIGNATURA_ABIERTO-to-editarAsignatura" style="stroke:#008000;stroke-width:1;"/><polygon fill="#008000" points="903.27,127.39,912.3382,123.5472,906.6846,123.7375,906.4943,118.0839,903.27,127.39" style="stroke:#008000;stroke-width:1;"/></g><!--link editarAsignatura to ASIGNATURA_ABIERTO2--><g class="link" data-entity-1="editarAsignatura" data-entity-2="ASIGNATURA_ABIERTO2" data-source-line="61" data-uid="lnk13" id="link_editarAsignatura_ASIGNATURA_ABIERTO2"><path d="M712.13,716.06 C722.5,755.39 729.9612,783.658 735.6212,805.138" fill="none" id="editarAsignatura-to-ASIGNATURA_ABIERTO2" style="stroke:#008000;stroke-width:1;"/><polygon fill="#008000" points="737.15,810.94,738.7247,801.2179,735.876,806.105,730.9888,803.2563,737.15,810.94" style="stroke:#008000;stroke-width:1;"/></g><!--link editarAsignatura to ASIGNATURAS_ABIERTO2--><g class="link" data-entity-1="editarAsignatura" data-entity-2="ASIGNATURAS_ABIERTO2" data-source-line="66" data-uid="lnk14" id="link_editarAsignatura_ASIGNATURAS_ABIERTO2"><path d="M554.87,716.06 C544.5,755.39 537.0388,783.658 531.3788,805.138" fill="none" id="editarAsignatura-to-ASIGNATURAS_ABIERTO2" style="stroke:#FF0000;stroke-width:1;"/><polygon fill="#FF0000" points="529.85,810.94,536.0112,803.2563,531.124,806.105,528.2753,801.2179,529.85,810.94" style="stroke:#FF0000;stroke-width:1;"/><path d="M550.5,751 L550.5,776 L677.5,776 L677.5,761 L667.5,751 L550.5,751" fill="#FEFFDD" style="stroke:#181818;stroke-width:0.5;"/><path d="M667.5,751 L667.5,761 L677.5,761 L667.5,751" fill="#FEFFDD" style="stroke:#181818;stroke-width:0.5;"/><text fill="#000000" font-family="sans-serif" font-size="13" lengthAdjust="spacing" textLength="106.3677" x="556.5" y="768.0669">cancelar edici&#243;n</text></g><!--SRC=[dLNDQjj04BxhAGRtq1-Q5deqmQ34mWsqTebb28HWnjgDkyrgrzrT5Kmfz5bwoo6dF8BUf4_IMLcMB5kEuwx1PlURcU-RRqUolHDgWGPJa49njrnmM6Yvz9iWi0uTX-Wg_1mDe_4q75yCXc5_D9wUZuPnT1LFma_Hk8pwSXaD9iCuR8BJyEmYken7PT2gGZov3FSZXrC-05hej02TlSMsK-gCu41xS7BzOcuuLpSdFU1CE3IX5NE5BZCOFDtrqxaj3JmtuNdnfHlRvuKLsuUlNdVWPn00hLLMXpuK6FaunNGVdRQxy213moeSLWMktzmqX3LgG16YDDNGoW_TNN5mEklrTSALuwVlPpsmMeg4iahnH5LrvQEvOgiIj8BggycpgQ0fSw-2iR2EfrWeM1XkIGu2AwgnmiT4v8ygg0GNIErXroSMuD_VVo3E7rmcTRK_pn-Pc6_iCsCrX0co_3uLIGs4CaiL5KxH6P5a4bafsOC3uxVaXqv40pYZMp7v0tgbf7sUaNPRUxFT7JUf80FMFfjkLIZLJDoAX4nFC5riCCmB4tVkmaC9geHBmYgFDc-fLh4rBdk7vBWPQLLy53bDx76KQo-MO54AqsJSmsOu-o-k0-R-2cZjFEERtRMy3eFW9Gormovyv3HenAa4qo0hje88lj8l-bD9iqDTSyKDohT0sJH16gpmitOhE3qiy3tZWBAMwp2TYVnUmGzSqakdHSQgKCOPPIS-sZSfQOAj4qe3pl2RVjVQM-bbsvz3q31srxorSVy0]--></g></svg>