<svg xmlns="http://www.w3.org/2000/svg" xmlns:xlink="http://www.w3.org/1999/xlink" contentStyleType="text/css" data-diagram-type="STATE" height="741px" preserveAspectRatio="none" style="width:559px;height:741px;background:#FFFFFF;" version="1.1" viewBox="0 0 559 741" width="559px" zoomAndPan="magnify"><defs/><g><g id="ASIGNATURAS_ABIERTO"><rect fill="#F1F1F1" height="50" rx="12.5" ry="12.5" style="stroke:#181818;stroke-width:0.5;" width="188.9365" x="182.03" y="7"/><line style="stroke:#181818;stroke-width:0.5;" x1="182.03" x2="370.9665" y1="33.2969" y2="33.2969"/><text fill="#000000" font-family="sans-serif" font-size="14" lengthAdjust="spacing" textLength="168.9365" x="192.03" y="24.9951">ASIGNATURAS_ABIERTO</text></g><path d="M19.5,152 L533.5,152 A12.5,12.5 0 0 1 546,164.5 L546,178.2969 L7,178.2969 L7,164.5 A12.5,12.5 0 0 1 19.5,152" fill="#F1F1F1"/><rect fill="none" height="583.2969" rx="12.5" ry="12.5" style="stroke:#181818;stroke-width:0.5;" width="539" x="7" y="152"/><line style="stroke:#181818;stroke-width:0.5;" x1="7" x2="546" y1="178.2969" y2="178.2969"/><text fill="#000000" font-family="sans-serif" font-size="14" lengthAdjust="spacing" textLength="127.9346" x="212.5327" y="169.9951">editarAsignatura()</text><g id="editarAsignatura.EditandoDatos"><rect fill="#F1F1F1" height="50" rx="12.5" ry="12.5" style="stroke:#181818;stroke-width:0.5;" width="50" x="135" y="280.2969"/><line style="stroke:#181818;stroke-width:0.5;" x1="135" x2="185" y1="306.5938" y2="306.5938"/><text fill="#000000" font-family="sans-serif" font-size="14" lengthAdjust="spacing" textLength="4.4502" x="157.7749" y="298.292">&#160;</text></g><g id="editarAsignatura.GuardandoDatos"><rect fill="#F1F1F1" height="50" rx="12.5" ry="12.5" style="stroke:#181818;stroke-width:0.5;" width="50" x="135" y="582.2969"/><line style="stroke:#181818;stroke-width:0.5;" x1="135" x2="185" y1="608.5938" y2="608.5938"/><text fill="#000000" font-family="sans-serif" font-size="14" lengthAdjust="spacing" textLength="4.4502" x="157.7749" y="600.292">&#160;</text></g><ellipse cx="160" cy="199.2969" fill="#222222" rx="10" ry="10" style="stroke:#222222;stroke-width:1;"/><ellipse cx="160" cy="714.2969" fill="none" rx="11" ry="11" style="stroke:#222222;stroke-width:1;"/><ellipse cx="160" cy="714.2969" fill="#222222" rx="6" ry="6" style="stroke:#222222;stroke-width:1;"/><!--link *start*editarAsignatura to EditandoDatos--><g class="link" data-entity-1=".start.editarAsignatura" data-entity-2="EditandoDatos" data-source-line="12" data-uid="lnk4" id="link_.start.editarAsignatura_EditandoDatos"><path d="M160,209.5269 C160,225.2369 160,251.6569 160,274.1669" fill="none" id="*start*editarAsignatura-to-EditandoDatos" style="stroke:#008000;stroke-width:1;"/><polygon fill="#008000" points="160,280.1669,164,271.1669,160,275.1669,156,271.1669,160,280.1669" style="stroke:#008000;stroke-width:1;"/><path d="M165,232.2969 L165,257.2969 L412,257.2969 L412,242.2969 L402,232.2969 L165,232.2969" fill="#FEFFDD" style="stroke:#181818;stroke-width:0.5;"/><path d="M402,232.2969 L402,242.2969 L412,242.2969 L402,232.2969" fill="#FEFFDD" style="stroke:#181818;stroke-width:0.5;"/><text fill="#000000" font-family="sans-serif" font-size="13" font-weight="bold" lengthAdjust="spacing" textLength="60.5313" x="171" y="249.3638">Docente</text><text fill="#000000" font-family="sans-serif" font-size="13" lengthAdjust="spacing" textLength="161.7637" x="235.6636" y="249.3638">solicita editar asignatura</text></g><!--link EditandoDatos to GuardandoDatos--><g class="link" data-entity-1="EditandoDatos" data-entity-2="GuardandoDatos" data-source-line="17" data-uid="lnk5" id="link_EditandoDatos_GuardandoDatos"><path d="M134.61,313.8069 C93.77,325.8869 18,348.2969 18,348.2969 C18,348.2969 18,564.2969 18,564.2969 C18,564.2969 88.0164,585.005 128.8564,597.085" fill="none" id="EditandoDatos-to-GuardandoDatos" style="stroke:#008000;stroke-width:1;"/><polygon fill="#008000" points="134.61,598.7869,127.1142,592.3984,129.8153,597.3687,124.8451,600.0698,134.61,598.7869" style="stroke:#008000;stroke-width:1;"/><path d="M23,353.2969 L23,559.2969 L276,559.2969 L276,363.2969 L266,353.2969 L23,353.2969" fill="#FEFFDD" style="stroke:#181818;stroke-width:0.5;"/><path d="M266,353.2969 L266,363.2969 L276,363.2969 L266,353.2969" fill="#FEFFDD" style="stroke:#181818;stroke-width:0.5;"/><text fill="#000000" font-family="sans-serif" font-size="13" font-weight="bold" lengthAdjust="spacing" textLength="58.9063" x="29" y="370.3638">Sistema</text><text fill="#000000" font-family="sans-serif" font-size="13" lengthAdjust="spacing" textLength="169.1714" x="92.0386" y="370.3638">presenta datos de edici&#243;n</text><text fill="#000000" font-family="sans-serif" font-size="13" lengthAdjust="spacing" textLength="4.1323" x="29" y="385.4966">&#160;</text><text fill="#000000" font-family="sans-serif" font-size="13" font-weight="bold" lengthAdjust="spacing" textLength="132.4121" x="29" y="400.6294">Datos Asignatura:</text><text fill="#000000" font-family="sans-serif" font-size="13" lengthAdjust="spacing" textLength="48.2549" x="29" y="415.7622">&#8226; T&#237;tulo</text><text fill="#000000" font-family="sans-serif" font-size="13" lengthAdjust="spacing" textLength="56.9004" x="29" y="430.895">&#8226; C&#243;digo</text><text fill="#000000" font-family="sans-serif" font-size="13" lengthAdjust="spacing" textLength="124.9536" x="29" y="446.0278">&#8226; Curso Acad&#233;mico</text><text fill="#000000" font-family="sans-serif" font-size="13" lengthAdjust="spacing" textLength="156.9331" x="29" y="461.1606">&#8226; Alumnos matriculados</text><text fill="#000000" font-family="sans-serif" font-size="13" lengthAdjust="spacing" textLength="126.6929" x="29" y="476.2935">&#8226; Grados asociados</text><text fill="#000000" font-family="sans-serif" font-size="13" lengthAdjust="spacing" textLength="4.1323" x="29" y="491.4263">&#160;</text><text fill="#000000" font-family="sans-serif" font-size="13" font-weight="bold" lengthAdjust="spacing" textLength="58.9063" x="29" y="506.5591">Sistema</text><text fill="#000000" font-family="sans-serif" font-size="13" lengthAdjust="spacing" textLength="110.5952" x="92.0386" y="506.5591">permite solicitar:</text><text fill="#000000" font-family="sans-serif" font-size="13" lengthAdjust="spacing" textLength="127.8164" x="29" y="521.6919">&#8226; modificar campos</text><text fill="#000000" font-family="sans-serif" font-size="13" lengthAdjust="spacing" textLength="136.7539" x="29" y="536.8247">&#8226; guardar asignatura</text><text fill="#000000" font-family="sans-serif" font-size="13" lengthAdjust="spacing" textLength="118.168" x="29" y="551.9575">&#8226; cancelar edici&#243;n</text></g><!--link GuardandoDatos to EditandoDatos--><g class="link" data-entity-1="GuardandoDatos" data-entity-2="EditandoDatos" data-source-line="34" data-uid="lnk6" id="link_GuardandoDatos_EditandoDatos"><path d="M185.37,597.4969 C220.85,585.1769 281,564.2969 281,564.2969 C281,564.2969 281,348.2969 281,348.2969 C281,348.2969 226.518,329.385 191.038,317.065" fill="none" id="GuardandoDatos-to-EditandoDatos" style="stroke:#008000;stroke-width:1;"/><polygon fill="#008000" points="185.37,315.0969,192.5599,321.8278,190.0933,316.737,195.1841,314.2704,185.37,315.0969" style="stroke:#008000;stroke-width:1;"/><path d="M286,443.7969 L286,468.7969 L537,468.7969 L537,453.7969 L527,443.7969 L286,443.7969" fill="#FEFFDD" style="stroke:#181818;stroke-width:0.5;"/><path d="M527,443.7969 L527,453.7969 L537,453.7969 L527,443.7969" fill="#FEFFDD" style="stroke:#181818;stroke-width:0.5;"/><text fill="#000000" font-family="sans-serif" font-size="13" font-weight="bold" lengthAdjust="spacing" textLength="60.5313" x="292" y="460.8638">Docente</text><text fill="#000000" font-family="sans-serif" font-size="13" lengthAdjust="spacing" textLength="165.9214" x="356.6636" y="460.8638">solicita modificar campos</text></g><!--link GuardandoDatos to *end*editarAsignatura--><g class="link" data-entity-1="GuardandoDatos" data-entity-2=".end.editarAsignatura" data-source-line="39" data-uid="lnk8" id="link_GuardandoDatos_.end.editarAsignatura"><path d="M134.63,616.4969 C96.79,628.7169 30,650.2969 30,650.2969 C30,650.2969 30,685.2969 30,685.2969 C30,685.2969 112.4446,703.0531 143.4946,709.7431" fill="none" id="GuardandoDatos-to-*end*editarAsignatura" style="stroke:#008000;stroke-width:1;"/><polygon fill="#008000" points="149.36,711.0069,141.4044,705.201,144.4722,709.9537,139.7194,713.0215,149.36,711.0069" style="stroke:#008000;stroke-width:1;"/><path d="M35,655.2969 L35,680.2969 L265,680.2969 L265,665.2969 L255,655.2969 L35,655.2969" fill="#FEFFDD" style="stroke:#181818;stroke-width:0.5;"/><path d="M255,655.2969 L255,665.2969 L265,665.2969 L255,655.2969" fill="#FEFFDD" style="stroke:#181818;stroke-width:0.5;"/><text fill="#000000" font-family="sans-serif" font-size="13" font-weight="bold" lengthAdjust="spacing" textLength="60.5313" x="41" y="672.3638">Docente</text><text fill="#000000" font-family="sans-serif" font-size="13" lengthAdjust="spacing" textLength="144.5361" x="105.6636" y="672.3638">solicita guardar y salir</text></g><!--link GuardandoDatos to *end*editarAsignatura--><g class="link" data-entity-1="GuardandoDatos" data-entity-2=".end.editarAsignatura" data-source-line="44" data-uid="lnk9" id="link_GuardandoDatos_.end.editarAsignatura"><path d="M185.24,617.9369 C217.71,630.3369 270,650.2969 270,650.2969 C270,650.2969 270,685.2969 270,685.2969 C270,685.2969 203.8945,702.1263 176.3645,709.1363" fill="none" id="GuardandoDatos-to-*end*editarAsignatura-1" style="stroke:#FF0000;stroke-width:1;"/><polygon fill="#FF0000" points="170.55,710.6169,180.2587,712.2724,175.3954,709.3831,178.2847,704.5197,170.55,710.6169" style="stroke:#FF0000;stroke-width:1;"/><path d="M275,655.2969 L275,680.2969 L516,680.2969 L516,665.2969 L506,655.2969 L275,655.2969" fill="#FEFFDD" style="stroke:#181818;stroke-width:0.5;"/><path d="M506,655.2969 L506,665.2969 L516,665.2969 L506,655.2969" fill="#FEFFDD" style="stroke:#181818;stroke-width:0.5;"/><text fill="#000000" font-family="sans-serif" font-size="13" font-weight="bold" lengthAdjust="spacing" textLength="60.5313" x="281" y="672.3638">Docente</text><text fill="#000000" font-family="sans-serif" font-size="13" lengthAdjust="spacing" textLength="156.2729" x="345.6636" y="672.3638">solicita cancelar edici&#243;n</text></g><!--link ASIGNATURAS_ABIERTO to editarAsignatura--><g class="link" data-entity-1="ASIGNATURAS_ABIERTO" data-entity-2="editarAsignatura" data-source-line="5" data-uid="lnk2" id="link_ASIGNATURAS_ABIERTO_editarAsignatura"><path d="M260.19,57.48 C250.66,71.76 240.5,87 240.5,87 C240.5,87 240.5,122 240.5,122 C240.5,122 241.1024,127.3173 243.1524,145.6273" fill="none" id="ASIGNATURAS_ABIERTO-to-editarAsignatura" style="stroke:#008000;stroke-width:1;"/><polygon fill="#008000" points="243.82,151.59,246.7938,142.2008,243.2637,146.621,238.8434,143.0909,243.82,151.59" style="stroke:#008000;stroke-width:1;"/></g><!--link editarAsignatura to ASIGNATURAS_ABIERTO--><g class="link" data-entity-1="editarAsignatura" data-entity-2="ASIGNATURAS_ABIERTO" data-source-line="50" data-uid="lnk10" id="link_editarAsignatura_ASIGNATURAS_ABIERTO"><path d="M273.78,151.59 C273.61,133.28 273.5,122 273.5,122 C273.5,122 273.5,87 273.5,87 C273.5,87 274.0186,77.7508 274.8086,63.4708" fill="none" id="editarAsignatura-to-ASIGNATURAS_ABIERTO" style="stroke:#008000;stroke-width:1;"/><polygon fill="#008000" points="275.14,57.48,270.649,66.2453,274.8638,62.4724,278.6368,66.6872,275.14,57.48" style="stroke:#008000;stroke-width:1;"/><path d="M278.5,92 L278.5,117 L407.5,117 L407.5,102 L397.5,92 L278.5,92" fill="#FEFFDD" style="stroke:#181818;stroke-width:0.5;"/><path d="M397.5,92 L397.5,102 L407.5,102 L397.5,92" fill="#FEFFDD" style="stroke:#181818;stroke-width:0.5;"/><text fill="#000000" font-family="sans-serif" font-size="13" lengthAdjust="spacing" textLength="108.3354" x="284.5" y="109.0669">verAsignaturas()</text></g><!--link editarAsignatura to ASIGNATURAS_ABIERTO--><g class="link" data-entity-1="editarAsignatura" data-entity-2="ASIGNATURAS_ABIERTO" data-source-line="55" data-uid="lnk11" id="link_editarAsignatura_ASIGNATURAS_ABIERTO"><path d="M403.58,151.59 C411.58,133.28 416.5,122 416.5,122 C416.5,122 416.5,87 416.5,87 C416.5,87 382.5884,73.9183 345.5484,59.6383" fill="none" id="editarAsignatura-to-ASIGNATURAS_ABIERTO-1" style="stroke:#FF0000;stroke-width:1;"/><polygon fill="#FF0000" points="339.95,57.48,346.9087,64.4497,344.6153,59.2786,349.7864,56.9853,339.95,57.48" style="stroke:#FF0000;stroke-width:1;"/><path d="M421.5,92 L421.5,117 L548.5,117 L548.5,102 L538.5,92 L421.5,92" fill="#FEFFDD" style="stroke:#181818;stroke-width:0.5;"/><path d="M538.5,92 L538.5,102 L548.5,102 L538.5,92" fill="#FEFFDD" style="stroke:#181818;stroke-width:0.5;"/><text fill="#000000" font-family="sans-serif" font-size="13" lengthAdjust="spacing" textLength="106.3677" x="427.5" y="109.0669">cancelar edici&#243;n</text></g><!--SRC=[dLJ1Qi904BtlLopseWNfNKH8guYN5jIUHCgukmsBsTsmkob8AVHRUkkX9pyXVz8lwIQQJM8YOXC8pBoPDszUDZ5RBcFG87349RExcE5OHRiiGCXOi0m7YzdqCLW-puF5It0_cyoNJmYr975_THDgnkIwFyACSWiwC3oKO1CD1Tbf7eF1dTDajzV1xmXXTnswEkvsXPEiJb8r1gjC4vuceAd7yO5WTRkk2QjnuBn4AiUXPER0DayCDwEn8anQDhpRZB1H4IUkwoZUZV9RPTLCqWE5kv1_rETK5THbdbMmuCOo0Rc2M3FZv02cEHlDVIGytKla1UT8wU4WQyp1tyyll4n_R18f7p-aUyh3Ifneet10WARVWfCI2A94I4Sim6fEaWZeKN86JdKMEZyKuHverS-qu6x5maazy1n2KVxAYRELW8Whv65kKyFj328W2OiSvbseleTInSc1E7iChZi5hOgl6kxEv7KZ2ozss434TNtYcMcQqN_Dkc3k1qADRxYwMzlVeZRxZLLQJRU7oaNQY8zhNAHjoYvu_m00]--></g></svg>