<svg xmlns="http://www.w3.org/2000/svg" xmlns:xlink="http://www.w3.org/1999/xlink" contentStyleType="text/css" data-diagram-type="STATE" height="940px" preserveAspectRatio="none" style="width:751px;height:940px;background:#FFFFFF;" version="1.1" viewBox="0 0 751 940" width="751px" zoomAndPan="magnify"><defs/><g><g id="ASIGNATURAS_ABIERTO"><rect fill="#F1F1F1" height="50" rx="12.5" ry="12.5" style="stroke:#181818;stroke-width:0.5;" width="188.9365" x="195.53" y="7"/><line style="stroke:#181818;stroke-width:0.5;" x1="195.53" x2="384.4665" y1="33.2969" y2="33.2969"/><text fill="#000000" font-family="sans-serif" font-size="14" lengthAdjust="spacing" textLength="168.9365" x="205.53" y="24.9951">ASIGNATURAS_ABIERTO</text></g><path d="M19.5,167 L560.5,167 A12.5,12.5 0 0 1 573,179.5 L573,193.2969 L7,193.2969 L7,179.5 A12.5,12.5 0 0 1 19.5,167" fill="#F1F1F1"/><rect fill="none" height="622.2969" rx="12.5" ry="12.5" style="stroke:#181818;stroke-width:0.5;" width="566" x="7" y="167"/><line style="stroke:#181818;stroke-width:0.5;" x1="7" x2="573" y1="193.2969" y2="193.2969"/><text fill="#000000" font-family="sans-serif" font-size="14" lengthAdjust="spacing" textLength="202.7334" x="188.6333" y="184.9951">editarAsignatura(asignatura)</text><g id="editarAsignatura.EditandoDatos"><rect fill="#F1F1F1" height="50" rx="12.5" ry="12.5" style="stroke:#181818;stroke-width:0.5;" width="50" x="150" y="310.2969"/><line style="stroke:#181818;stroke-width:0.5;" x1="150" x2="200" y1="336.5938" y2="336.5938"/><text fill="#000000" font-family="sans-serif" font-size="14" lengthAdjust="spacing" textLength="4.4502" x="172.7749" y="328.292">&#160;</text></g><g id="editarAsignatura.GuardandoDatos"><rect fill="#F1F1F1" height="50" rx="12.5" ry="12.5" style="stroke:#181818;stroke-width:0.5;" width="50" x="150" y="636.2969"/><line style="stroke:#181818;stroke-width:0.5;" x1="150" x2="200" y1="662.5938" y2="662.5938"/><text fill="#000000" font-family="sans-serif" font-size="14" lengthAdjust="spacing" textLength="4.4502" x="172.7749" y="654.292">&#160;</text></g><ellipse cx="175" cy="214.2969" fill="#222222" rx="10" ry="10" style="stroke:#222222;stroke-width:1;"/><ellipse cx="175" cy="768.2969" fill="none" rx="11" ry="11" style="stroke:#222222;stroke-width:1;"/><ellipse cx="175" cy="768.2969" fill="#222222" rx="6" ry="6" style="stroke:#222222;stroke-width:1;"/><!--link *start*editarAsignatura to EditandoDatos--><g class="link" data-entity-1=".start.editarAsignatura" data-entity-2="EditandoDatos" data-source-line="18" data-uid="lnk4" id="link_.start.editarAsignatura_EditandoDatos"><path d="M175,224.6369 C175,242.8269 175,277.5369 175,303.9069" fill="none" id="*start*editarAsignatura-to-EditandoDatos" style="stroke:#008000;stroke-width:1;"/><polygon fill="#008000" points="175,309.9069,179,300.9069,175,304.9069,171,300.9069,175,309.9069" style="stroke:#008000;stroke-width:1;"/><path d="M180,247.2969 L180,287.2969 L507,287.2969 L507,257.2969 L497,247.2969 L180,247.2969" fill="#FEFFDD" style="stroke:#181818;stroke-width:0.5;"/><path d="M497,247.2969 L497,257.2969 L507,257.2969 L497,247.2969" fill="#FEFFDD" style="stroke:#181818;stroke-width:0.5;"/><text fill="#000000" font-family="sans-serif" font-size="13" font-weight="bold" lengthAdjust="spacing" textLength="111.9028" x="186" y="264.3638">Docente/Admin</text><text fill="#000000" font-family="sans-serif" font-size="13" lengthAdjust="spacing" textLength="190.3408" x="302.0352" y="264.3638">solicita editar una asignatura</text><text fill="#000000" font-family="sans-serif" font-size="13" lengthAdjust="spacing" textLength="60.5059" x="186" y="279.4966">existente</text></g><!--link EditandoDatos to GuardandoDatos--><g class="link" data-entity-1="EditandoDatos" data-entity-2="GuardandoDatos" data-source-line="24" data-uid="lnk5" id="link_EditandoDatos_GuardandoDatos"><path d="M149.78,343.0469 C105.39,354.9169 18,378.2969 18,378.2969 C18,378.2969 18,618.2969 18,618.2969 C18,618.2969 99.5937,640.1269 143.9837,651.9969" fill="none" id="EditandoDatos-to-GuardandoDatos" style="stroke:#008000;stroke-width:1;"/><polygon fill="#008000" points="149.78,653.5469,142.1188,647.3577,144.9497,652.2552,140.0522,655.0862,149.78,653.5469" style="stroke:#008000;stroke-width:1;"/><path d="M23,383.2969 L23,613.2969 L307,613.2969 L307,393.2969 L297,383.2969 L23,383.2969" fill="#FEFFDD" style="stroke:#181818;stroke-width:0.5;"/><path d="M297,383.2969 L297,393.2969 L307,393.2969 L297,383.2969" fill="#FEFFDD" style="stroke:#181818;stroke-width:0.5;"/><text fill="#000000" font-family="sans-serif" font-size="13" font-weight="bold" lengthAdjust="spacing" textLength="58.9063" x="29" y="400.3638">Sistema</text><text fill="#000000" font-family="sans-serif" font-size="13" lengthAdjust="spacing" textLength="169.1714" x="92.0386" y="400.3638">presenta datos de edici&#243;n</text><text fill="#000000" font-family="sans-serif" font-size="13" lengthAdjust="spacing" textLength="152.9341" x="29" y="415.4966">(Recuperados de BDD):</text><line style="stroke:#181818;stroke-width:1;" x1="24" x2="306.269" y1="418.5625" y2="418.5625"/><text fill="#000000" font-family="sans-serif" font-size="13" font-weight="bold" lengthAdjust="spacing" textLength="132.4121" x="29" y="434.6294">Datos Asignatura:</text><text fill="#000000" font-family="sans-serif" font-size="13" lengthAdjust="spacing" textLength="141.3877" x="29" y="449.7622">&#8226; T&#237;tulo [Valor Actual]</text><text fill="#000000" font-family="sans-serif" font-size="13" lengthAdjust="spacing" textLength="150.0332" x="29" y="464.895">&#8226; C&#243;digo [Valor Actual]</text><text fill="#000000" font-family="sans-serif" font-size="13" lengthAdjust="spacing" textLength="218.0864" x="29" y="480.0278">&#8226; Curso Acad&#233;mico [Valor Actual]</text><line style="stroke:#181818;stroke-width:1;" x1="24" x2="306.269" y1="487.0938" y2="487.0938"/><text fill="#000000" font-family="sans-serif" font-size="13" font-weight="bold" lengthAdjust="spacing" textLength="263.269" x="29" y="503.1606">Opciones de Navegaci&#243;n (V&#237;nculos):</text><text fill="#000000" font-family="sans-serif" font-size="13" lengthAdjust="spacing" textLength="223.2661" x="29" y="518.2935">&#8226; Acceso a ver listado de Alumnos</text><text fill="#000000" font-family="sans-serif" font-size="13" lengthAdjust="spacing" textLength="214.0049" x="29" y="533.4263">&#8226; Acceso a ver Grados asociados</text><line style="stroke:#181818;stroke-width:1;" x1="24" x2="306.269" y1="540.4922" y2="540.4922"/><text fill="#000000" font-family="sans-serif" font-size="13" font-weight="bold" lengthAdjust="spacing" textLength="58.9063" x="29" y="556.5591">Sistema</text><text fill="#000000" font-family="sans-serif" font-size="13" lengthAdjust="spacing" textLength="110.5952" x="92.0386" y="556.5591">permite solicitar:</text><text fill="#000000" font-family="sans-serif" font-size="13" lengthAdjust="spacing" textLength="127.8164" x="29" y="571.6919">&#8226; modificar campos</text><text fill="#000000" font-family="sans-serif" font-size="13" lengthAdjust="spacing" textLength="136.7539" x="29" y="586.8247">&#8226; guardar asignatura</text><text fill="#000000" font-family="sans-serif" font-size="13" lengthAdjust="spacing" textLength="118.168" x="29" y="601.9575">&#8226; cancelar edici&#243;n</text></g><!--link GuardandoDatos to EditandoDatos--><g class="link" data-entity-1="GuardandoDatos" data-entity-2="EditandoDatos" data-source-line="45" data-uid="lnk6" id="link_GuardandoDatos_EditandoDatos"><path d="M200.45,652.4969 C240.07,640.3469 312,618.2969 312,618.2969 C312,618.2969 312,378.2969 312,378.2969 C312,378.2969 245.8063,358.006 206.1863,345.856" fill="none" id="GuardandoDatos-to-EditandoDatos" style="stroke:#008000;stroke-width:1;"/><polygon fill="#008000" points="200.45,344.0969,207.8817,350.5598,205.2303,345.5628,210.2272,342.9113,200.45,344.0969" style="stroke:#008000;stroke-width:1;"/><path d="M317,478.2969 L317,518.2969 L564,518.2969 L564,488.2969 L554,478.2969 L317,478.2969" fill="#FEFFDD" style="stroke:#181818;stroke-width:0.5;"/><path d="M554,478.2969 L554,488.2969 L564,488.2969 L554,478.2969" fill="#FEFFDD" style="stroke:#181818;stroke-width:0.5;"/><text fill="#000000" font-family="sans-serif" font-size="13" font-weight="bold" lengthAdjust="spacing" textLength="56.1196" x="323" y="495.3638">Usuario</text><text fill="#000000" font-family="sans-serif" font-size="13" lengthAdjust="spacing" textLength="165.9214" x="383.252" y="495.3638">solicita modificar campos</text><text fill="#000000" font-family="sans-serif" font-size="13" lengthAdjust="spacing" textLength="161.7256" x="323" y="510.4966">(Corrige o cambia datos)</text></g><!--link GuardandoDatos to *end*editarAsignatura--><g class="link" data-entity-1="GuardandoDatos" data-entity-2=".end.editarAsignatura" data-source-line="52" data-uid="lnk8" id="link_GuardandoDatos_.end.editarAsignatura"><path d="M149.71,670.5969 C112.41,682.8369 47,704.2969 47,704.2969 C47,704.2969 47,739.2969 47,739.2969 C47,739.2969 127.2685,756.8551 158.2285,763.6251" fill="none" id="GuardandoDatos-to-*end*editarAsignatura" style="stroke:#008000;stroke-width:1;"/><polygon fill="#008000" points="164.09,764.9069,156.1522,759.0766,159.2054,763.8388,154.4433,766.8919,164.09,764.9069" style="stroke:#008000;stroke-width:1;"/><path d="M52,709.2969 L52,734.2969 L277,734.2969 L277,719.2969 L267,709.2969 L52,709.2969" fill="#FEFFDD" style="stroke:#181818;stroke-width:0.5;"/><path d="M267,709.2969 L267,719.2969 L277,719.2969 L267,709.2969" fill="#FEFFDD" style="stroke:#181818;stroke-width:0.5;"/><text fill="#000000" font-family="sans-serif" font-size="13" font-weight="bold" lengthAdjust="spacing" textLength="56.1196" x="58" y="726.3638">Usuario</text><text fill="#000000" font-family="sans-serif" font-size="13" lengthAdjust="spacing" textLength="144.5361" x="118.252" y="726.3638">solicita guardar y salir</text></g><!--link GuardandoDatos to *end*editarAsignatura--><g class="link" data-entity-1="GuardandoDatos" data-entity-2=".end.editarAsignatura" data-source-line="58" data-uid="lnk9" id="link_GuardandoDatos_.end.editarAsignatura"><path d="M200.36,672.2469 C232,684.6669 282,704.2969 282,704.2969 C282,704.2969 282,739.2969 282,739.2969 C282,739.2969 218.5247,755.9087 191.4547,762.9887" fill="none" id="GuardandoDatos-to-*end*editarAsignatura-1" style="stroke:#FF0000;stroke-width:1;"/><polygon fill="#FF0000" points="185.65,764.5069,195.3693,766.0994,190.4873,763.2417,193.345,758.3597,185.65,764.5069" style="stroke:#FF0000;stroke-width:1;"/><path d="M287,709.2969 L287,734.2969 L524,734.2969 L524,719.2969 L514,709.2969 L287,709.2969" fill="#FEFFDD" style="stroke:#181818;stroke-width:0.5;"/><path d="M514,709.2969 L514,719.2969 L524,719.2969 L514,709.2969" fill="#FEFFDD" style="stroke:#181818;stroke-width:0.5;"/><text fill="#000000" font-family="sans-serif" font-size="13" font-weight="bold" lengthAdjust="spacing" textLength="56.1196" x="293" y="726.3638">Usuario</text><text fill="#000000" font-family="sans-serif" font-size="13" lengthAdjust="spacing" textLength="156.2729" x="353.252" y="726.3638">solicita cancelar edici&#243;n</text></g><g id="ALUMNOS_ABIERTO"><rect fill="#F1F1F1" height="50" rx="12.5" ry="12.5" style="stroke:#181818;stroke-width:0.5;" width="158.5371" x="96.73" y="884.3"/><line style="stroke:#181818;stroke-width:0.5;" x1="96.73" x2="255.2671" y1="910.5969" y2="910.5969"/><text fill="#000000" font-family="sans-serif" font-size="14" lengthAdjust="spacing" textLength="138.5371" x="106.73" y="902.2951">ALUMNOS_ABIERTO</text></g><g id="GRADOS_ABIERTO"><rect fill="#F1F1F1" height="50" rx="12.5" ry="12.5" style="stroke:#181818;stroke-width:0.5;" width="149.2949" x="329.35" y="884.3"/><line style="stroke:#181818;stroke-width:0.5;" x1="329.35" x2="478.6449" y1="910.5969" y2="910.5969"/><text fill="#000000" font-family="sans-serif" font-size="14" lengthAdjust="spacing" textLength="129.2949" x="339.35" y="902.2951">GRADOS_ABIERTO</text></g><!--link ASIGNATURAS_ABIERTO to editarAsignatura--><g class="link" data-entity-1="ASIGNATURAS_ABIERTO" data-entity-2="editarAsignatura" data-source-line="7" data-uid="lnk2" id="link_ASIGNATURAS_ABIERTO_editarAsignatura"><path d="M195.04,52.57 C120.06,68.03 28,87 28,87 C28,87 28,137 28,137 C28,137 32.9774,143.4776 47.1274,161.8376" fill="none" id="ASIGNATURAS_ABIERTO-to-editarAsignatura" style="stroke:#008000;stroke-width:1;"/><polygon fill="#008000" points="50.79,166.59,48.4643,157.0197,47.7378,162.6297,42.1278,161.9032,50.79,166.59" style="stroke:#008000;stroke-width:1;"/><path d="M33,99.5 L33,124.5 L242,124.5 L242,109.5 L232,99.5 L33,99.5" fill="#FEFFDD" style="stroke:#181818;stroke-width:0.5;"/><path d="M232,99.5 L232,109.5 L242,109.5 L232,99.5" fill="#FEFFDD" style="stroke:#181818;stroke-width:0.5;"/><text fill="#000000" font-family="sans-serif" font-size="13" lengthAdjust="spacing" textLength="188.2524" x="39" y="116.5669">editarAsignatura(asignatura)</text></g><!--link editarAsignatura to ASIGNATURAS_ABIERTO--><g class="link" data-entity-1="editarAsignatura" data-entity-2="ASIGNATURAS_ABIERTO" data-source-line="67" data-uid="lnk10" id="link_editarAsignatura_ASIGNATURAS_ABIERTO"><path d="M287.26,166.59 C287.1,148.23 287,137 287,137 C287,137 287,87 287,87 C287,87 287.5186,77.7508 288.3086,63.4708" fill="none" id="editarAsignatura-to-ASIGNATURAS_ABIERTO" style="stroke:#008000;stroke-width:1;"/><polygon fill="#008000" points="288.64,57.48,284.149,66.2453,288.3638,62.4724,292.1368,66.6872,288.64,57.48" style="stroke:#008000;stroke-width:1;"/><path d="M292,92 L292,132 L603,132 L603,102 L593,92 L292,92" fill="#FEFFDD" style="stroke:#181818;stroke-width:0.5;"/><path d="M593,92 L593,102 L603,102 L593,92" fill="#FEFFDD" style="stroke:#181818;stroke-width:0.5;"/><text fill="#000000" font-family="sans-serif" font-size="13" font-weight="bold" lengthAdjust="spacing" textLength="58.9063" x="298" y="109.0669">Sistema</text><text fill="#000000" font-family="sans-serif" font-size="13" lengthAdjust="spacing" textLength="227.1382" x="361.0386" y="109.0669">confirma: "Asignatura actualizada"</text><text fill="#000000" font-family="sans-serif" font-size="13" lengthAdjust="spacing" textLength="108.3354" x="298" y="124.1997">verAsignaturas()</text></g><!--link editarAsignatura to ASIGNATURAS_ABIERTO--><g class="link" data-entity-1="editarAsignatura" data-entity-2="ASIGNATURAS_ABIERTO" data-source-line="74" data-uid="lnk11" id="link_editarAsignatura_ASIGNATURAS_ABIERTO"><path d="M573.48,177.7 C597,152.85 612,137 612,137 C612,137 612,87 612,87 C612,87 485.7674,65.8325 390.7874,49.9025" fill="none" id="editarAsignatura-to-ASIGNATURAS_ABIERTO-1" style="stroke:#FF0000;stroke-width:1;"/><polygon fill="#FF0000" points="384.87,48.91,393.0844,54.3436,389.8011,49.737,394.4077,46.4538,384.87,48.91" style="stroke:#FF0000;stroke-width:1;"/><path d="M617,99.5 L617,124.5 L744,124.5 L744,109.5 L734,99.5 L617,99.5" fill="#FEFFDD" style="stroke:#181818;stroke-width:0.5;"/><path d="M734,99.5 L734,109.5 L744,109.5 L734,99.5" fill="#FEFFDD" style="stroke:#181818;stroke-width:0.5;"/><text fill="#000000" font-family="sans-serif" font-size="13" lengthAdjust="spacing" textLength="106.3677" x="623" y="116.5669">cancelar edici&#243;n</text></g><!--link editarAsignatura to ALUMNOS_ABIERTO--><g class="link" data-entity-1="editarAsignatura" data-entity-2="ALUMNOS_ABIERTO" data-source-line="80" data-uid="lnk13" id="link_editarAsignatura_ALUMNOS_ABIERTO"><path d="M183.18,789.71 C176.86,808.08 173,819.3 173,819.3 C173,819.3 173,854.3 173,854.3 C173,854.3 173.5188,863.5491 174.3088,877.8391" fill="none" id="editarAsignatura-to-ALUMNOS_ABIERTO" style="stroke:#FFA500;stroke-width:1;"/><polygon fill="#FFA500" points="174.64,883.83,178.1371,874.6229,174.364,878.8376,170.1493,875.0645,174.64,883.83" style="stroke:#FFA500;stroke-width:1;"/><path d="M178,824.3 L178,849.3 L356,849.3 L356,834.3 L346,824.3 L178,824.3" fill="#FEFFDD" style="stroke:#181818;stroke-width:0.5;"/><path d="M346,824.3 L346,834.3 L356,834.3 L346,824.3" fill="#FEFFDD" style="stroke:#181818;stroke-width:0.5;"/><text fill="#000000" font-family="sans-serif" font-size="13" lengthAdjust="spacing" textLength="157.0093" x="184" y="841.3669">verAlumnos(asignatura)</text></g><!--link editarAsignatura to GRADOS_ABIERTO--><g class="link" data-entity-1="editarAsignatura" data-entity-2="GRADOS_ABIERTO" data-source-line="85" data-uid="lnk15" id="link_editarAsignatura_GRADOS_ABIERTO"><path d="M372.47,789.61 C382.87,828.76 390.2982,856.7415 395.9882,878.1415" fill="none" id="editarAsignatura-to-GRADOS_ABIERTO" style="stroke:#FFA500;stroke-width:1;"/><polygon fill="#FFA500" points="397.53,883.94,399.083,874.2144,396.2452,879.1079,391.3517,876.27,397.53,883.94" style="stroke:#FFA500;stroke-width:1;"/><path d="M393,824.3 L393,849.3 L560,849.3 L560,834.3 L550,824.3 L393,824.3" fill="#FEFFDD" style="stroke:#181818;stroke-width:0.5;"/><path d="M550,824.3 L550,834.3 L560,834.3 L550,824.3" fill="#FEFFDD" style="stroke:#181818;stroke-width:0.5;"/><text fill="#000000" font-family="sans-serif" font-size="13" lengthAdjust="spacing" textLength="146.999" x="399" y="841.3669">verGrados(asignatura)</text></g><!--SRC=[dLNDQjj04BxhAGRt4BjWX_vTJ0XiBDKON2b8jYc4K3QhZLaYxPgL59AMGj-XRz1R3pdb4VmcVPBEhXJ5aksOrWPRsjdvvfjlPcUp6o5NLDCK4Y5vVh_Yi5B9lNbnd2DuCm0lcX4tWFFGMqm2w8wKpFbThY3ceBHOSZc4gSXo6jibaecbf7cXQTPpS3N7fMWozibi7fBe2pcRUE4iCD1l4TgVXSGbGAOm8b40hWVpA71sE43_ujLISoul-wV0Ov5J_Hp9aGh3A6bIk77QrYwj7tiEbp6OtOR0km46d97frCF_AIOOZ3oCNf9kem3DeFCIT0U-EGxWf_Jlu1TTFECXO-NIN6NRvd51TLpReGIuU7tPIBU10NPB8s6pS79rwYh6iJJ794w5F3c-EeLC9OAXRvKC5DAaKQjc_FWTbiwubM-LEkRPgN-QyJUPDUdlPHQP62crd5QQPnYFGcpHOgiq4-j7QNTtGywA5TVOJTPuvhgzeRNq-_qwK-lwN8QXGRR6Fpz-mMpza1U9Wei5JPG6mlA29fUrURH-ZCLolxdGcS9L6gz_fuBjtBT19LWneIItN7rwovVKvWBTnVf1CgIHzPhi26CS0r2uvHf5UZutIP7AIiEjVUDI3vef9inJcqL3OAvJWJLuAhuUrfYfYiMrODW9ZAQhZM1BMqVTRWvZObGodg2jKQRw6DLDSWGZmHARobEOIebpcclpCC4kqvJbubRrh4kh-VUs_Dw-ccU885IprtScYLDBcra5ognUYQhzUdkJYMWYOWhUdS1j5BgMlAG7YUFP_JUwJzBVGuOXTPDGayoeB4Lyc8xcyN-HEL3ixsPglXz0HAOJbqJWVPvveKyYizmIZ66uKU1_d8IVo6Yo_kblZUM6RBkkY0RhLfCZ_BNGAHr2PtD4spCglg947GVFpSPTr6sE_hQYEzbLAXxajgtQPgWF0_39mXkNCW1UU7wqy4BK4Bf8eng2hBfLUpkPA4tbabioq_adFzX3nAHSZf4zTzxBs6EyYr-0BeVGJkI_]--></g></svg>