<svg xmlns="http://www.w3.org/2000/svg" xmlns:xlink="http://www.w3.org/1999/xlink" contentStyleType="text/css" data-diagram-type="STATE" height="795px" preserveAspectRatio="none" style="width:468px;height:795px;background:#FFFFFF;" version="1.1" viewBox="0 0 468 795" width="468px" zoomAndPan="magnify"><defs/><g><g id="ALUMNOS_ABIERTO"><rect fill="#F1F1F1" height="50" rx="12.5" ry="12.5" style="stroke:#181818;stroke-width:0.5;" width="158.5371" x="151.73" y="7"/><line style="stroke:#181818;stroke-width:0.5;" x1="151.73" x2="310.2671" y1="33.2969" y2="33.2969"/><text fill="#000000" font-family="sans-serif" font-size="14" lengthAdjust="spacing" textLength="138.5371" x="161.73" y="24.9951">ALUMNOS_ABIERTO</text></g><path d="M19.5,152 L442.5,152 A12.5,12.5 0 0 1 455,164.5 L455,178.2969 L7,178.2969 L7,164.5 A12.5,12.5 0 0 1 19.5,152" fill="#F1F1F1"/><rect fill="none" height="492.2969" rx="12.5" ry="12.5" style="stroke:#181818;stroke-width:0.5;" width="448" x="7" y="152"/><line style="stroke:#181818;stroke-width:0.5;" x1="7" x2="455" y1="178.2969" y2="178.2969"/><text fill="#000000" font-family="sans-serif" font-size="14" lengthAdjust="spacing" textLength="100.7412" x="180.6294" y="169.9951">crearAlumno()</text><g id="crearAlumno.SolicitandoDatos"><rect fill="#F1F1F1" height="50" rx="12.5" ry="12.5" style="stroke:#181818;stroke-width:0.5;" width="50" x="19" y="280.2969"/><line style="stroke:#181818;stroke-width:0.5;" x1="19" x2="69" y1="306.5938" y2="306.5938"/><text fill="#000000" font-family="sans-serif" font-size="14" lengthAdjust="spacing" textLength="4.4502" x="41.7749" y="298.292">&#160;</text></g><g id="crearAlumno.CreandoAlumno"><rect fill="#F1F1F1" height="50" rx="12.5" ry="12.5" style="stroke:#181818;stroke-width:0.5;" width="50" x="19" y="476.2969"/><line style="stroke:#181818;stroke-width:0.5;" x1="19" x2="69" y1="502.5938" y2="502.5938"/><text fill="#000000" font-family="sans-serif" font-size="14" lengthAdjust="spacing" textLength="4.4502" x="41.7749" y="494.292">&#160;</text></g><ellipse cx="44" cy="199.2969" fill="#222222" rx="10" ry="10" style="stroke:#222222;stroke-width:1;"/><ellipse cx="44" cy="623.2969" fill="none" rx="11" ry="11" style="stroke:#222222;stroke-width:1;"/><ellipse cx="44" cy="623.2969" fill="#222222" rx="6" ry="6" style="stroke:#222222;stroke-width:1;"/><!--link *start*crearAlumno to SolicitandoDatos--><g class="link" data-entity-1=".start.crearAlumno" data-entity-2="SolicitandoDatos" data-source-line="18" data-uid="lnk4" id="link_.start.crearAlumno_SolicitandoDatos"><path d="M44,209.5269 C44,225.2369 44,251.6569 44,274.1669" fill="none" id="*start*crearAlumno-to-SolicitandoDatos" style="stroke:#008000;stroke-width:1;"/><polygon fill="#008000" points="44,280.1669,48,271.1669,44,275.1669,40,271.1669,44,280.1669" style="stroke:#008000;stroke-width:1;"/><path d="M49,232.2969 L49,257.2969 L315,257.2969 L315,242.2969 L305,232.2969 L49,232.2969" fill="#FEFFDD" style="stroke:#181818;stroke-width:0.5;"/><path d="M305,232.2969 L305,242.2969 L315,242.2969 L305,232.2969" fill="#FEFFDD" style="stroke:#181818;stroke-width:0.5;"/><text fill="#000000" font-family="sans-serif" font-size="13" font-weight="bold" lengthAdjust="spacing" textLength="60.5313" x="55" y="249.3638">Docente</text><text fill="#000000" font-family="sans-serif" font-size="13" lengthAdjust="spacing" textLength="180.7686" x="119.6636" y="249.3638">solicita crear alumno nuevo</text></g><!--link SolicitandoDatos to CreandoAlumno--><g class="link" data-entity-1="SolicitandoDatos" data-entity-2="CreandoAlumno" data-source-line="23" data-uid="lnk5" id="link_SolicitandoDatos_CreandoAlumno"><path d="M44,330.4769 C44,367.6469 44,432.4569 44,469.8169" fill="none" id="SolicitandoDatos-to-CreandoAlumno" style="stroke:#008000;stroke-width:1;"/><polygon fill="#008000" points="44,475.8169,48,466.8169,44,470.8169,40,466.8169,44,475.8169" style="stroke:#008000;stroke-width:1;"/><path d="M49,353.2969 L49,453.2969 L446,453.2969 L446,363.2969 L436,353.2969 L49,353.2969" fill="#FEFFDD" style="stroke:#181818;stroke-width:0.5;"/><path d="M436,353.2969 L436,363.2969 L446,363.2969 L436,353.2969" fill="#FEFFDD" style="stroke:#181818;stroke-width:0.5;"/><text fill="#000000" font-family="sans-serif" font-size="13" font-weight="bold" lengthAdjust="spacing" textLength="58.9063" x="55" y="370.3638">Sistema</text><text fill="#000000" font-family="sans-serif" font-size="13" lengthAdjust="spacing" textLength="313.1045" x="118.0386" y="370.3638">presenta solicitud de datos m&#237;nimos del alumno</text><text fill="#000000" font-family="sans-serif" font-size="13" lengthAdjust="spacing" textLength="147.6211" x="55" y="385.4966">&#8226; Nombre (obligatorio)</text><text fill="#000000" font-family="sans-serif" font-size="13" lengthAdjust="spacing" textLength="154.6416" x="55" y="400.6294">&#8226; Apellidos (obligatorio)</text><text fill="#000000" font-family="sans-serif" font-size="13" lengthAdjust="spacing" textLength="119.2534" x="55" y="415.7622">&#8226; DNI (obligatorio)</text><text fill="#000000" font-family="sans-serif" font-size="13" lengthAdjust="spacing" textLength="208.3428" x="55" y="430.895">&#8226; Permite solicitar crear alumno</text><text fill="#000000" font-family="sans-serif" font-size="13" lengthAdjust="spacing" textLength="236.6978" x="55" y="446.0278">&#8226; Permite solicitar cancelar creaci&#243;n</text></g><!--link CreandoAlumno to *end*crearAlumno--><g class="link" data-entity-1="CreandoAlumno" data-entity-2=".end.crearAlumno" data-source-line="33" data-uid="lnk7" id="link_CreandoAlumno_.end.crearAlumno"><path d="M44,526.5769 C44,552.7469 44,587.1469 44,605.9769" fill="none" id="CreandoAlumno-to-*end*crearAlumno" style="stroke:#008000;stroke-width:1;"/><polygon fill="#008000" points="44,611.9769,48,602.9769,44,606.9769,40,602.9769,44,611.9769" style="stroke:#008000;stroke-width:1;"/><path d="M49,549.2969 L49,589.2969 L356,589.2969 L356,559.2969 L346,549.2969 L49,549.2969" fill="#FEFFDD" style="stroke:#181818;stroke-width:0.5;"/><path d="M346,549.2969 L346,559.2969 L356,559.2969 L346,549.2969" fill="#FEFFDD" style="stroke:#181818;stroke-width:0.5;"/><text fill="#000000" font-family="sans-serif" font-size="13" font-weight="bold" lengthAdjust="spacing" textLength="60.5313" x="55" y="566.3638">Docente</text><text fill="#000000" font-family="sans-serif" font-size="13" lengthAdjust="spacing" textLength="177.8423" x="119.6636" y="566.3638">proporciona datos m&#237;nimos</text><text fill="#000000" font-family="sans-serif" font-size="13" font-weight="bold" lengthAdjust="spacing" textLength="58.9063" x="55" y="581.4966">Sistema</text><text fill="#000000" font-family="sans-serif" font-size="13" lengthAdjust="spacing" textLength="223.2153" x="118.0386" y="581.4966">crea alumno y transfiere a edici&#243;n</text></g><g id="ALUMNO_ABIERTO"><rect fill="#F1F1F1" height="50" rx="12.5" ry="12.5" style="stroke:#181818;stroke-width:0.5;" width="149.6504" x="156.17" y="739.3"/><line style="stroke:#181818;stroke-width:0.5;" x1="156.17" x2="305.8204" y1="765.5969" y2="765.5969"/><text fill="#000000" font-family="sans-serif" font-size="14" lengthAdjust="spacing" textLength="129.6504" x="166.17" y="757.2951">ALUMNO_ABIERTO</text></g><!--link ALUMNOS_ABIERTO to crearAlumno--><g class="link" data-entity-1="ALUMNOS_ABIERTO" data-entity-2="crearAlumno" data-source-line="7" data-uid="lnk2" id="link_ALUMNOS_ABIERTO_crearAlumno"><path d="M192.48,57.48 C169.99,71.76 146,87 146,87 C146,87 146,122 146,122 C146,122 147.7675,127.7378 153.4075,145.9778" fill="none" id="ALUMNOS_ABIERTO-to-crearAlumno" style="stroke:#008000;stroke-width:1;"/><polygon fill="#008000" points="155.18,151.71,156.3428,141.93,153.7029,146.9331,148.6998,144.2933,155.18,151.71" style="stroke:#008000;stroke-width:1;"/><path d="M151,92 L151,117 L265,117 L265,102 L255,92 L151,92" fill="#FEFFDD" style="stroke:#181818;stroke-width:0.5;"/><path d="M255,92 L255,102 L265,102 L255,92" fill="#FEFFDD" style="stroke:#181818;stroke-width:0.5;"/><text fill="#000000" font-family="sans-serif" font-size="13" lengthAdjust="spacing" textLength="93.5454" x="157" y="109.0669">crearAlumno()</text></g><!--link crearAlumno to ALUMNOS_ABIERTO--><g class="link" data-entity-1="crearAlumno" data-entity-2="ALUMNOS_ABIERTO" data-source-line="49" data-uid="lnk10" id="link_crearAlumno_ALUMNOS_ABIERTO"><path d="M269.36,151.71 C272.21,133.47 274,122 274,122 C274,122 274,87 274,87 C274,87 265.5973,76.4539 254.2273,62.1739" fill="none" id="crearAlumno-to-ALUMNOS_ABIERTO" style="stroke:#0000FF;stroke-width:1;"/><polygon fill="#0000FF" points="250.49,57.48,252.9668,67.0123,253.6044,61.3915,259.2252,62.0292,250.49,57.48" style="stroke:#0000FF;stroke-width:1;"/><path d="M279,92 L279,117 L414,117 L414,102 L404,92 L279,92" fill="#FEFFDD" style="stroke:#181818;stroke-width:0.5;"/><path d="M404,92 L404,102 L414,102 L404,92" fill="#FEFFDD" style="stroke:#181818;stroke-width:0.5;"/><text fill="#000000" font-family="sans-serif" font-size="13" lengthAdjust="spacing" textLength="114.9624" x="285" y="109.0669">cancelar creaci&#243;n</text></g><!--link crearAlumno to ALUMNO_ABIERTO--><g class="link" data-entity-1="crearAlumno" data-entity-2="ALUMNO_ABIERTO" data-source-line="43" data-uid="lnk9" id="link_crearAlumno_ALUMNO_ABIERTO"><path d="M231,644.57 C231,683.03 231,711.18 231,732.87" fill="none" id="crearAlumno-to-ALUMNO_ABIERTO" style="stroke:#008000;stroke-width:1;"/><polygon fill="#008000" points="231,738.87,235,729.87,231,733.87,227,729.87,231,738.87" style="stroke:#008000;stroke-width:1;"/><path d="M236,679.3 L236,704.3 L445,704.3 L445,689.3 L435,679.3 L236,679.3" fill="#FEFFDD" style="stroke:#181818;stroke-width:0.5;"/><path d="M435,679.3 L435,689.3 L445,689.3 L435,679.3" fill="#FEFFDD" style="stroke:#181818;stroke-width:0.5;"/><text fill="#000000" font-family="sans-serif" font-size="13" lengthAdjust="spacing" textLength="188.2969" x="242" y="696.3669">editarAlumno(alumnoNuevo)</text></g><!--SRC=[ZPJDQjj04CVlUeh1FTGknAKVfn8CggM2mPM3vUGIGXbBKxF9QbUiLYQc5FeEUOFUU-eZ-4tw99sLBCVhEAKM64apE_ER_yoekXEgH8C5IA78Rag2KikDUmY2b_1c276w2ACPNCpZgyaC-cEjBDrR3Jc1Dc95QX1K5Yr1EBtydCpIB-77IJnVpDpnjqDOpCCadOmdsuS4eXZYX5z4ON3a36VNBrQ6IDsSZI0pX2QKTQ5qe3H7rihHtGK7XluW89M3Cxj4xvXp2kCmdRaabwa3nLi4HIk3Z6fHIionGpq815X1pmlSWsz10FnhVNjyiK-gfSY4HPNh2AskddgCEGXRT-2D_VhLZLVPSH1elBmQtOlpvIZI6R7Gvw-N8wXsfrfim9PRrRJMZNidXBiFzdzFSXs2-ApFGQIYibHW0r4QgfW8EvewTnEGDv6BxIyb2hx9IUxmcX1_Vlo4H1TBGz3NIobMx6s47koDOKbIYfnFdhP7oUGPomMPGZ1nfutnnFcN6wgCvCu_4zlVojFmKJzF8ayyxkf_zQqqkjGc4rhXaL2d17OyNMytO0sgwgiWbWw1Sd62zBiR_FT3ICFf90fJ7dnl0vprawnlDSJtWfFh3t3b4kosWVUSrnugMjN2k0pDf1okc5Tpkw_xtVPARmvtwzDMaBZXz5UqPGcb9QFGYZNpZDjUSBdhckIQ79raIJ3NpRT5A9J7H4jPqoDGUfheH9CxbBy0]--></g></svg>