<svg xmlns="http://www.w3.org/2000/svg" xmlns:xlink="http://www.w3.org/1999/xlink" contentStyleType="text/css" data-diagram-type="STATE" height="650px" preserveAspectRatio="none" style="width:486px;height:650px;background:#FFFFFF;" version="1.1" viewBox="0 0 486 650" width="486px" zoomAndPan="magnify"><defs/><g><path d="M19.5,7 L442.5,7 A12.5,12.5 0 0 1 455,19.5 L455,33.2969 L7,33.2969 L7,19.5 A12.5,12.5 0 0 1 19.5,7" fill="#F1F1F1"/><rect fill="none" height="492.2969" rx="12.5" ry="12.5" style="stroke:#181818;stroke-width:0.5;" width="448" x="7" y="7"/><line style="stroke:#181818;stroke-width:0.5;" x1="7" x2="455" y1="33.2969" y2="33.2969"/><text fill="#000000" font-family="sans-serif" font-size="14" lengthAdjust="spacing" textLength="100.7412" x="180.6294" y="24.9951">crearAlumno()</text><g id="crearAlumno.SolicitandoDatos"><rect fill="#F1F1F1" height="50" rx="12.5" ry="12.5" style="stroke:#181818;stroke-width:0.5;" width="50" x="19" y="135.2969"/><line style="stroke:#181818;stroke-width:0.5;" x1="19" x2="69" y1="161.5938" y2="161.5938"/><text fill="#000000" font-family="sans-serif" font-size="14" lengthAdjust="spacing" textLength="4.4502" x="41.7749" y="153.292">&#160;</text></g><g id="crearAlumno.CreandoAlumno"><rect fill="#F1F1F1" height="50" rx="12.5" ry="12.5" style="stroke:#181818;stroke-width:0.5;" width="50" x="19" y="331.2969"/><line style="stroke:#181818;stroke-width:0.5;" x1="19" x2="69" y1="357.5938" y2="357.5938"/><text fill="#000000" font-family="sans-serif" font-size="14" lengthAdjust="spacing" textLength="4.4502" x="41.7749" y="349.292">&#160;</text></g><ellipse cx="44" cy="54.2969" fill="#222222" rx="10" ry="10" style="stroke:#222222;stroke-width:1;"/><ellipse cx="44" cy="478.2969" fill="none" rx="11" ry="11" style="stroke:#222222;stroke-width:1;"/><ellipse cx="44" cy="478.2969" fill="#222222" rx="6" ry="6" style="stroke:#222222;stroke-width:1;"/><!--link *start*crearAlumno to SolicitandoDatos--><g class="link" data-entity-1=".start.crearAlumno" data-entity-2="SolicitandoDatos" data-source-line="8" data-uid="lnk3" id="link_.start.crearAlumno_SolicitandoDatos"><path d="M44,64.5269 C44,80.2369 44,106.6569 44,129.1669" fill="none" id="*start*crearAlumno-to-SolicitandoDatos" style="stroke:#008000;stroke-width:1;"/><polygon fill="#008000" points="44,135.1669,48,126.1669,44,130.1669,40,126.1669,44,135.1669" style="stroke:#008000;stroke-width:1;"/><path d="M49,87.2969 L49,112.2969 L315,112.2969 L315,97.2969 L305,87.2969 L49,87.2969" fill="#FEFFDD" style="stroke:#181818;stroke-width:0.5;"/><path d="M305,87.2969 L305,97.2969 L315,97.2969 L305,87.2969" fill="#FEFFDD" style="stroke:#181818;stroke-width:0.5;"/><text fill="#000000" font-family="sans-serif" font-size="13" font-weight="bold" lengthAdjust="spacing" textLength="60.5313" x="55" y="104.3638">Docente</text><text fill="#000000" font-family="sans-serif" font-size="13" lengthAdjust="spacing" textLength="180.7686" x="119.6636" y="104.3638">solicita crear alumno nuevo</text></g><!--link SolicitandoDatos to CreandoAlumno--><g class="link" data-entity-1="SolicitandoDatos" data-entity-2="CreandoAlumno" data-source-line="13" data-uid="lnk4" id="link_SolicitandoDatos_CreandoAlumno"><path d="M44,185.4769 C44,222.6469 44,287.4569 44,324.8169" fill="none" id="SolicitandoDatos-to-CreandoAlumno" style="stroke:#008000;stroke-width:1;"/><polygon fill="#008000" points="44,330.8169,48,321.8169,44,325.8169,40,321.8169,44,330.8169" style="stroke:#008000;stroke-width:1;"/><path d="M49,208.2969 L49,308.2969 L446,308.2969 L446,218.2969 L436,208.2969 L49,208.2969" fill="#FEFFDD" style="stroke:#181818;stroke-width:0.5;"/><path d="M436,208.2969 L436,218.2969 L446,218.2969 L436,208.2969" fill="#FEFFDD" style="stroke:#181818;stroke-width:0.5;"/><text fill="#000000" font-family="sans-serif" font-size="13" font-weight="bold" lengthAdjust="spacing" textLength="58.9063" x="55" y="225.3638">Sistema</text><text fill="#000000" font-family="sans-serif" font-size="13" lengthAdjust="spacing" textLength="313.1045" x="118.0386" y="225.3638">presenta solicitud de datos m&#237;nimos del alumno</text><text fill="#000000" font-family="sans-serif" font-size="13" lengthAdjust="spacing" textLength="147.6211" x="55" y="240.4966">&#8226; Nombre (obligatorio)</text><text fill="#000000" font-family="sans-serif" font-size="13" lengthAdjust="spacing" textLength="154.6416" x="55" y="255.6294">&#8226; Apellidos (obligatorio)</text><text fill="#000000" font-family="sans-serif" font-size="13" lengthAdjust="spacing" textLength="119.2534" x="55" y="270.7622">&#8226; DNI (obligatorio)</text><text fill="#000000" font-family="sans-serif" font-size="13" lengthAdjust="spacing" textLength="208.3428" x="55" y="285.895">&#8226; Permite solicitar crear alumno</text><text fill="#000000" font-family="sans-serif" font-size="13" lengthAdjust="spacing" textLength="236.6978" x="55" y="301.0278">&#8226; Permite solicitar cancelar creaci&#243;n</text></g><!--link CreandoAlumno to *end*crearAlumno--><g class="link" data-entity-1="CreandoAlumno" data-entity-2=".end.crearAlumno" data-source-line="23" data-uid="lnk6" id="link_CreandoAlumno_.end.crearAlumno"><path d="M44,381.5769 C44,407.7469 44,442.1469 44,460.9769" fill="none" id="CreandoAlumno-to-*end*crearAlumno" style="stroke:#008000;stroke-width:1;"/><polygon fill="#008000" points="44,466.9769,48,457.9769,44,461.9769,40,457.9769,44,466.9769" style="stroke:#008000;stroke-width:1;"/><path d="M49,404.2969 L49,444.2969 L356,444.2969 L356,414.2969 L346,404.2969 L49,404.2969" fill="#FEFFDD" style="stroke:#181818;stroke-width:0.5;"/><path d="M346,404.2969 L346,414.2969 L356,414.2969 L346,404.2969" fill="#FEFFDD" style="stroke:#181818;stroke-width:0.5;"/><text fill="#000000" font-family="sans-serif" font-size="13" font-weight="bold" lengthAdjust="spacing" textLength="60.5313" x="55" y="421.3638">Docente</text><text fill="#000000" font-family="sans-serif" font-size="13" lengthAdjust="spacing" textLength="177.8423" x="119.6636" y="421.3638">proporciona datos m&#237;nimos</text><text fill="#000000" font-family="sans-serif" font-size="13" font-weight="bold" lengthAdjust="spacing" textLength="58.9063" x="55" y="436.4966">Sistema</text><text fill="#000000" font-family="sans-serif" font-size="13" lengthAdjust="spacing" textLength="223.2153" x="118.0386" y="436.4966">crea alumno y transfiere a edici&#243;n</text></g><g id="ALUMNO_ABIERTO"><rect fill="#F1F1F1" height="50" rx="12.5" ry="12.5" style="stroke:#181818;stroke-width:0.5;" width="149.6504" x="27.17" y="594.3"/><line style="stroke:#181818;stroke-width:0.5;" x1="27.17" x2="176.8204" y1="620.5969" y2="620.5969"/><text fill="#000000" font-family="sans-serif" font-size="14" lengthAdjust="spacing" textLength="129.6504" x="37.17" y="612.2951">ALUMNO_ABIERTO</text></g><g id="ALUMNOS_ABIERTO"><rect fill="#F1F1F1" height="50" rx="12.5" ry="12.5" style="stroke:#181818;stroke-width:0.5;" width="158.5371" x="281.73" y="594.3"/><line style="stroke:#181818;stroke-width:0.5;" x1="281.73" x2="440.2671" y1="620.5969" y2="620.5969"/><text fill="#000000" font-family="sans-serif" font-size="14" lengthAdjust="spacing" textLength="138.5371" x="291.73" y="612.2951">ALUMNOS_ABIERTO</text></g><!--link crearAlumno to ALUMNO_ABIERTO--><g class="link" data-entity-1="crearAlumno" data-entity-2="ALUMNO_ABIERTO" data-source-line="30" data-uid="lnk8" id="link_crearAlumno_ALUMNO_ABIERTO"><path d="M113.25,499.59 C104.5,517.84 99,529.3 99,529.3 C99,529.3 99,564.3 99,564.3 C99,564.3 99.5188,573.5491 100.3088,587.8391" fill="none" id="crearAlumno-to-ALUMNO_ABIERTO" style="stroke:#008000;stroke-width:1;"/><polygon fill="#008000" points="100.64,593.83,104.1371,584.6229,100.364,588.8376,96.1493,585.0645,100.64,593.83" style="stroke:#008000;stroke-width:1;"/><path d="M104,534.3 L104,559.3 L313,559.3 L313,544.3 L303,534.3 L104,534.3" fill="#FEFFDD" style="stroke:#181818;stroke-width:0.5;"/><path d="M303,534.3 L303,544.3 L313,544.3 L303,534.3" fill="#FEFFDD" style="stroke:#181818;stroke-width:0.5;"/><text fill="#000000" font-family="sans-serif" font-size="13" lengthAdjust="spacing" textLength="188.2969" x="110" y="551.3669">editarAlumno(alumnoNuevo)</text></g><!--link crearAlumno to ALUMNOS_ABIERTO--><g class="link" data-entity-1="crearAlumno" data-entity-2="ALUMNOS_ABIERTO" data-source-line="35" data-uid="lnk10" id="link_crearAlumno_ALUMNOS_ABIERTO"><path d="M318.61,499.57 C332.34,538.03 342.5235,566.529 350.2635,588.219" fill="none" id="crearAlumno-to-ALUMNOS_ABIERTO" style="stroke:#0000FF;stroke-width:1;"/><polygon fill="#0000FF" points="352.28,593.87,353.0225,584.0492,350.5996,589.1608,345.4879,586.7379,352.28,593.87" style="stroke:#0000FF;stroke-width:1;"/><path d="M344,534.3 L344,559.3 L479,559.3 L479,544.3 L469,534.3 L344,534.3" fill="#FEFFDD" style="stroke:#181818;stroke-width:0.5;"/><path d="M469,534.3 L469,544.3 L479,544.3 L469,534.3" fill="#FEFFDD" style="stroke:#181818;stroke-width:0.5;"/><text fill="#000000" font-family="sans-serif" font-size="13" lengthAdjust="spacing" textLength="114.9624" x="350" y="551.3669">cancelar creaci&#243;n</text></g><!--SRC=[ZPBHIiCm58RlynI7URC9mnSOW-fsCT1Ed5wD8Mbp767fIKbIOOZWitZlbO-mD_59JDkrQxTEJA4qFN_-VFpds8sab1kUW9A4RfiYf5fjymrZrd6741la9b1PGXguXLvZtn_qu8qnyAlKzlpZDGkjP2mT9w4dt6bxghZn9hvQsfGEoyiL39SNQuD8g-7un0GA5MbleYd7tHG_Hj5uecCaXwEhQ0nsVwh41bvoKuQlkf0ZYTB3BrQ_JkvgWhHPpq4if7MOy08YDMWz4QzeCW42GHJEoUwBPE8_1AezNc7ny_49eKuYWz3NaP9hhpPI3-fYaA9IKlYJtVL9E3jJkKUJI4zSPMDQuVmbunIZskjZkVkcLeQ7_5eHjSBpNVrNtrAZKsrYgOaV1TKLSCvJzNOBpd2oBn9zT1nGo0xITyQQSzma36wVxiBvSt0zcpuypbaBr9kvUjZB-y9yb0QiTZxsZLI61zj5jsz7i9NXBm00]--></g></svg>