<svg xmlns="http://www.w3.org/2000/svg" xmlns:xlink="http://www.w3.org/1999/xlink" contentStyleType="text/css" data-diagram-type="STATE" height="810px" preserveAspectRatio="none" style="width:468px;height:810px;background:#FFFFFF;" version="1.1" viewBox="0 0 468 810" width="468px" zoomAndPan="magnify"><defs/><g><g id="ALUMNOS_ABIERTO"><rect fill="#F1F1F1" height="50" rx="12.5" ry="12.5" style="stroke:#181818;stroke-width:0.5;" width="158.5371" x="151.73" y="7"/><line style="stroke:#181818;stroke-width:0.5;" x1="151.73" x2="310.2671" y1="33.2969" y2="33.2969"/><text fill="#000000" font-family="sans-serif" font-size="14" lengthAdjust="spacing" textLength="138.5371" x="161.73" y="24.9951">ALUMNOS_ABIERTO</text></g><path d="M19.5,152 L442.5,152 A12.5,12.5 0 0 1 455,164.5 L455,178.2969 L7,178.2969 L7,164.5 A12.5,12.5 0 0 1 19.5,152" fill="#F1F1F1"/><rect fill="none" height="507.2969" rx="12.5" ry="12.5" style="stroke:#181818;stroke-width:0.5;" width="448" x="7" y="152"/><line style="stroke:#181818;stroke-width:0.5;" x1="7" x2="455" y1="178.2969" y2="178.2969"/><text fill="#000000" font-family="sans-serif" font-size="14" lengthAdjust="spacing" textLength="100.7412" x="180.6294" y="169.9951">crearAlumno()</text><g id="crearAlumno.SolicitandoDatos"><rect fill="#F1F1F1" height="50" rx="12.5" ry="12.5" style="stroke:#181818;stroke-width:0.5;" width="50" x="19" y="280.2969"/><line style="stroke:#181818;stroke-width:0.5;" x1="19" x2="69" y1="306.5938" y2="306.5938"/><text fill="#000000" font-family="sans-serif" font-size="14" lengthAdjust="spacing" textLength="4.4502" x="41.7749" y="298.292">&#160;</text></g><g id="crearAlumno.CreandoAlumno"><rect fill="#F1F1F1" height="50" rx="12.5" ry="12.5" style="stroke:#181818;stroke-width:0.5;" width="50" x="19" y="491.2969"/><line style="stroke:#181818;stroke-width:0.5;" x1="19" x2="69" y1="517.5938" y2="517.5938"/><text fill="#000000" font-family="sans-serif" font-size="14" lengthAdjust="spacing" textLength="4.4502" x="41.7749" y="509.292">&#160;</text></g><ellipse cx="44" cy="199.2969" fill="#222222" rx="10" ry="10" style="stroke:#222222;stroke-width:1;"/><ellipse cx="44" cy="638.2969" fill="none" rx="11" ry="11" style="stroke:#222222;stroke-width:1;"/><ellipse cx="44" cy="638.2969" fill="#222222" rx="6" ry="6" style="stroke:#222222;stroke-width:1;"/><!--link *start*crearAlumno to SolicitandoDatos--><g class="link" data-entity-1=".start.crearAlumno" data-entity-2="SolicitandoDatos" data-source-line="12" data-uid="lnk4" id="link_.start.crearAlumno_SolicitandoDatos"><path d="M44,209.5269 C44,225.2369 44,251.6569 44,274.1669" fill="none" id="*start*crearAlumno-to-SolicitandoDatos" style="stroke:#008000;stroke-width:1;"/><polygon fill="#008000" points="44,280.1669,48,271.1669,44,275.1669,40,271.1669,44,280.1669" style="stroke:#008000;stroke-width:1;"/><path d="M49,232.2969 L49,257.2969 L315,257.2969 L315,242.2969 L305,232.2969 L49,232.2969" fill="#FEFFDD" style="stroke:#181818;stroke-width:0.5;"/><path d="M305,232.2969 L305,242.2969 L315,242.2969 L305,232.2969" fill="#FEFFDD" style="stroke:#181818;stroke-width:0.5;"/><text fill="#000000" font-family="sans-serif" font-size="13" font-weight="bold" lengthAdjust="spacing" textLength="60.5313" x="55" y="249.3638">Docente</text><text fill="#000000" font-family="sans-serif" font-size="13" lengthAdjust="spacing" textLength="180.7686" x="119.6636" y="249.3638">solicita crear alumno nuevo</text></g><!--link SolicitandoDatos to CreandoAlumno--><g class="link" data-entity-1="SolicitandoDatos" data-entity-2="CreandoAlumno" data-source-line="17" data-uid="lnk5" id="link_SolicitandoDatos_CreandoAlumno"><path d="M44,330.6769 C44,370.9569 44,444.8969 44,485.0669" fill="none" id="SolicitandoDatos-to-CreandoAlumno" style="stroke:#008000;stroke-width:1;"/><polygon fill="#008000" points="44,491.0669,48,482.0669,44,486.0669,40,482.0669,44,491.0669" style="stroke:#008000;stroke-width:1;"/><path d="M49,353.2969 L49,468.2969 L446,468.2969 L446,363.2969 L436,353.2969 L49,353.2969" fill="#FEFFDD" style="stroke:#181818;stroke-width:0.5;"/><path d="M436,353.2969 L436,363.2969 L446,363.2969 L436,353.2969" fill="#FEFFDD" style="stroke:#181818;stroke-width:0.5;"/><text fill="#000000" font-family="sans-serif" font-size="13" font-weight="bold" lengthAdjust="spacing" textLength="58.9063" x="55" y="370.3638">Sistema</text><text fill="#000000" font-family="sans-serif" font-size="13" lengthAdjust="spacing" textLength="313.1045" x="118.0386" y="370.3638">presenta solicitud de datos m&#237;nimos del alumno</text><text fill="#000000" font-family="sans-serif" font-size="13" lengthAdjust="spacing" textLength="147.6211" x="55" y="385.4966">&#8226; Nombre (obligatorio)</text><text fill="#000000" font-family="sans-serif" font-size="13" lengthAdjust="spacing" textLength="154.6416" x="55" y="400.6294">&#8226; Apellidos (obligatorio)</text><text fill="#000000" font-family="sans-serif" font-size="13" lengthAdjust="spacing" textLength="119.2534" x="55" y="415.7622">&#8226; DNI (obligatorio)</text><text fill="#000000" font-family="sans-serif" font-size="13" lengthAdjust="spacing" textLength="4.1323" x="55" y="430.895">&#160;</text><text fill="#000000" font-family="sans-serif" font-size="13" lengthAdjust="spacing" textLength="208.3428" x="55" y="446.0278">&#8226; Permite solicitar crear alumno</text><text fill="#000000" font-family="sans-serif" font-size="13" lengthAdjust="spacing" textLength="236.6978" x="55" y="461.1606">&#8226; Permite solicitar cancelar creaci&#243;n</text></g><!--link CreandoAlumno to *end*crearAlumno--><g class="link" data-entity-1="CreandoAlumno" data-entity-2=".end.crearAlumno" data-source-line="28" data-uid="lnk7" id="link_CreandoAlumno_.end.crearAlumno"><path d="M44,541.5769 C44,567.7469 44,602.1469 44,620.9769" fill="none" id="CreandoAlumno-to-*end*crearAlumno" style="stroke:#008000;stroke-width:1;"/><polygon fill="#008000" points="44,626.9769,48,617.9769,44,621.9769,40,617.9769,44,626.9769" style="stroke:#008000;stroke-width:1;"/><path d="M49,564.2969 L49,604.2969 L356,604.2969 L356,574.2969 L346,564.2969 L49,564.2969" fill="#FEFFDD" style="stroke:#181818;stroke-width:0.5;"/><path d="M346,564.2969 L346,574.2969 L356,574.2969 L346,564.2969" fill="#FEFFDD" style="stroke:#181818;stroke-width:0.5;"/><text fill="#000000" font-family="sans-serif" font-size="13" font-weight="bold" lengthAdjust="spacing" textLength="60.5313" x="55" y="581.3638">Docente</text><text fill="#000000" font-family="sans-serif" font-size="13" lengthAdjust="spacing" textLength="177.8423" x="119.6636" y="581.3638">proporciona datos m&#237;nimos</text><text fill="#000000" font-family="sans-serif" font-size="13" font-weight="bold" lengthAdjust="spacing" textLength="58.9063" x="55" y="596.4966">Sistema</text><text fill="#000000" font-family="sans-serif" font-size="13" lengthAdjust="spacing" textLength="223.2153" x="118.0386" y="596.4966">crea alumno y transfiere a edici&#243;n</text></g><g id="ALUMNO_ABIERTO"><rect fill="#F1F1F1" height="50" rx="12.5" ry="12.5" style="stroke:#181818;stroke-width:0.5;" width="149.6504" x="156.17" y="754.3"/><line style="stroke:#181818;stroke-width:0.5;" x1="156.17" x2="305.8204" y1="780.5969" y2="780.5969"/><text fill="#000000" font-family="sans-serif" font-size="14" lengthAdjust="spacing" textLength="129.6504" x="166.17" y="772.2951">ALUMNO_ABIERTO</text></g><!--link ALUMNOS_ABIERTO to crearAlumno--><g class="link" data-entity-1="ALUMNOS_ABIERTO" data-entity-2="crearAlumno" data-source-line="5" data-uid="lnk2" id="link_ALUMNOS_ABIERTO_crearAlumno"><path d="M227.83,57.48 C225.98,71.76 224,87 224,87 C224,87 224,122 224,122 C224,122 224.1291,127.4419 224.5891,145.7219" fill="none" id="ALUMNOS_ABIERTO-to-crearAlumno" style="stroke:#008000;stroke-width:1;"/><polygon fill="#008000" points="224.74,151.72,228.5123,142.6222,224.6142,146.7216,220.5149,142.8235,224.74,151.72" style="stroke:#008000;stroke-width:1;"/></g><!--link crearAlumno to ALUMNOS_ABIERTO--><g class="link" data-entity-1="crearAlumno" data-entity-2="ALUMNOS_ABIERTO" data-source-line="40" data-uid="lnk10" id="link_crearAlumno_ALUMNOS_ABIERTO"><path d="M231,151.68 C231,113.13 231,85.03 231,63.39" fill="none" id="crearAlumno-to-ALUMNOS_ABIERTO" style="stroke:#0000FF;stroke-width:1;"/><polygon fill="#0000FF" points="231,57.39,227,66.39,231,62.39,235,66.39,231,57.39" style="stroke:#0000FF;stroke-width:1;"/><path d="M236,92 L236,117 L371,117 L371,102 L361,92 L236,92" fill="#FEFFDD" style="stroke:#181818;stroke-width:0.5;"/><path d="M361,92 L361,102 L371,102 L361,92" fill="#FEFFDD" style="stroke:#181818;stroke-width:0.5;"/><text fill="#000000" font-family="sans-serif" font-size="13" lengthAdjust="spacing" textLength="114.9624" x="242" y="109.0669">cancelar creaci&#243;n</text></g><!--link crearAlumno to ALUMNO_ABIERTO--><g class="link" data-entity-1="crearAlumno" data-entity-2="ALUMNO_ABIERTO" data-source-line="35" data-uid="lnk9" id="link_crearAlumno_ALUMNO_ABIERTO"><path d="M231,659.69 C231,698.24 231,726.34 231,747.96" fill="none" id="crearAlumno-to-ALUMNO_ABIERTO" style="stroke:#008000;stroke-width:1;"/><polygon fill="#008000" points="231,753.96,235,744.96,231,748.96,227,744.96,231,753.96" style="stroke:#008000;stroke-width:1;"/><path d="M236,694.3 L236,719.3 L445,719.3 L445,704.3 L435,694.3 L236,694.3" fill="#FEFFDD" style="stroke:#181818;stroke-width:0.5;"/><path d="M435,694.3 L435,704.3 L445,704.3 L435,694.3" fill="#FEFFDD" style="stroke:#181818;stroke-width:0.5;"/><text fill="#000000" font-family="sans-serif" font-size="13" lengthAdjust="spacing" textLength="188.2969" x="242" y="711.3669">editarAlumno(alumnoNuevo)</text></g><!--SRC=[ZPFHIiCm58RlynI7URC9mnSOW-cy66WdLg_6aBGvZh0qfoIfC4JmMRptoaVOc_WafktQjLqLKoXDpfy_N_yaTYjroWrFG4cDRfSYfAHsUOSnwxX3cDqytWRBy6bskRY-VrWorXc0yUfiOn3rUZo5s20tCvKbcghvZI7W5WQD_d0qW5V6mBTIE_2FruIaP2mTruBct94zLLnv4r-jLihhg_Dr2wLh0eLAapSXdV_kjXYOHDCvnQWTJYwYATZ3h18RUCcjCtoXGevQb1w-iVfribOJfCtw6qGehSE45n2fGUk9U4MJ2H08ed1EzfzQ9lv3e3hW5HRVxnyGK18PX255IcwysaWQrSLPYaf9uMVsr-V1egTIb-_G9D9ZLm6PLa9_oRYEKHtqiTn_wLQGnrLQERKIz5lxhyrB3QLaOacQTzBgIpddgJPu1yvmRPyb-lmue90zf6-CDGzpax2y4_KTQO5wCrUV-7Az83zF8rOxTtqZbU7HDkptxGcsClm1]--></g></svg>