<svg xmlns="http://www.w3.org/2000/svg" xmlns:xlink="http://www.w3.org/1999/xlink" contentStyleType="text/css" data-diagram-type="SALT" height="418px" preserveAspectRatio="none" style="width:597px;height:418px;background:#FFFFFF;" version="1.1" viewBox="0 0 597 418" width="597px" zoomAndPan="magnify"><defs/><g><text fill="#000000" font-family="sans-serif" font-size="12" font-weight="bold" lengthAdjust="spacing" textLength="155.9824" x="6" y="17.1387">BANCO DE PREGUNTAS</text><line style="stroke:#AAAAAA;stroke-width:1;" x1="6" x2="590.752" y1="24.4688" y2="24.4688"/><line style="stroke:#AAAAAA;stroke-width:1;" x1="6" x2="590.752" y1="26.4688" y2="26.4688"/><text fill="#000000" font-family="sans-serif" font-size="12" font-weight="bold" lengthAdjust="spacing" textLength="143.5195" x="6" y="41.1074">1. Filtros y B&#250;squeda</text><text fill="#000000" font-family="sans-serif" font-size="12" font-style="italic" lengthAdjust="spacing" textLength="229.0898" x="6" y="57.0762">Utilice los filtros para refinar el listado</text><text fill="#000000" font-family="sans-serif" font-size="12" lengthAdjust="spacing" textLength="136.752" x="7" y="90.0137">Asignatura (Contexto):</text><rect fill="#EEEEEE" height="16.9688" style="stroke:#000000;stroke-width:1;" width="303" x="145.752" y="78.875"/><text fill="#000000" font-family="sans-serif" font-size="12" lengthAdjust="spacing" textLength="216.8086" x="147.752" y="92.0137">Todas las Asignaturas (Vista Global)</text><line style="stroke:#000000;stroke-width:1;" x1="437.752" x2="437.752" y1="78.875" y2="95.8438"/><polygon fill="#000000" points="440.752,84.875,446.752,84.875,443.752,90.8438" style="stroke:#000000;stroke-width:1;"/><text fill="#000000" font-family="sans-serif" font-size="12" lengthAdjust="spacing" textLength="37.7988" x="7" y="109.9824">Tema:</text><rect fill="#EEEEEE" height="16.9688" style="stroke:#000000;stroke-width:1;" width="135" x="145.752" y="98.8438"/><text fill="#000000" font-family="sans-serif" font-size="12" lengthAdjust="spacing" textLength="97.8223" x="147.752" y="111.9824">Todos los temas</text><line style="stroke:#000000;stroke-width:1;" x1="269.752" x2="269.752" y1="98.8438" y2="115.8125"/><polygon fill="#000000" points="272.752,104.8438,278.752,104.8438,275.752,110.8125" style="stroke:#000000;stroke-width:1;"/><text fill="#000000" font-family="sans-serif" font-size="12" lengthAdjust="spacing" textLength="61.3887" x="7" y="129.9512">Dificultad:</text><rect fill="#EEEEEE" height="16.9688" style="stroke:#000000;stroke-width:1;" width="95" x="145.752" y="118.8125"/><text fill="#000000" font-family="sans-serif" font-size="12" lengthAdjust="spacing" textLength="64.8984" x="147.752" y="131.9512">Cualquiera</text><line style="stroke:#000000;stroke-width:1;" x1="229.752" x2="229.752" y1="118.8125" y2="135.7813"/><polygon fill="#000000" points="232.752,124.8125,238.752,124.8125,235.752,130.7813" style="stroke:#000000;stroke-width:1;"/><text fill="#000000" font-family="sans-serif" font-size="12" lengthAdjust="spacing" textLength="122.4668" x="7" y="149.9199">B&#250;squeda por texto:</text><text fill="#000000" font-family="sans-serif" font-size="12" lengthAdjust="spacing" textLength="3.8145" x="148.752" y="149.9199">&#160;</text><line style="stroke:#000000;stroke-width:1;" x1="146.752" x2="429.752" y1="152.75" y2="152.75"/><line style="stroke:#000000;stroke-width:1;" x1="146.752" x2="146.752" y1="149.75" y2="151.75"/><line style="stroke:#000000;stroke-width:1;" x1="429.752" x2="429.752" y1="149.75" y2="151.75"/><rect fill="#EEEEEE" height="17.9688" rx="5" ry="5" style="stroke:#000000;stroke-width:2.5;" width="132" x="454.252" y="141.2813"/><text fill="#000000" font-family="sans-serif" font-size="12" lengthAdjust="spacing" textLength="88.1426" x="476.1807" y="154.4199">Buscar / Filtrar</text><line style="stroke:#AAAAAA;stroke-width:1;" x1="6" x2="590.752" y1="184.2188" y2="184.2188"/><text fill="#000000" font-family="sans-serif" font-size="12" font-weight="bold" lengthAdjust="spacing" textLength="200.3379" x="6" y="215.8262">2. Resultados de la B&#250;squeda</text><text fill="#000000" font-family="sans-serif" font-size="12" font-weight="bold" lengthAdjust="spacing" textLength="14.4258" x="7" y="248.7637">ID</text><text fill="#000000" font-family="sans-serif" font-size="12" font-weight="bold" lengthAdjust="spacing" textLength="74.0684" x="54.8027" y="248.7637">Asignatura</text><text fill="#000000" font-family="sans-serif" font-size="12" font-weight="bold" lengthAdjust="spacing" textLength="166.3652" x="141.2363" y="248.7637">Enunciado (Vista previa)</text><text fill="#000000" font-family="sans-serif" font-size="12" font-weight="bold" lengthAdjust="spacing" textLength="36.9258" x="309.6016" y="248.7637">Tema</text><text fill="#000000" font-family="sans-serif" font-size="12" font-weight="bold" lengthAdjust="spacing" textLength="65.6016" x="364.4121" y="248.7637">Dificultad</text><text fill="#000000" font-family="sans-serif" font-size="12" font-weight="bold" lengthAdjust="spacing" textLength="59.6953" x="432.0137" y="248.7637">Acciones</text><text fill="#000000" font-family="sans-serif" font-size="12" lengthAdjust="spacing" textLength="11.4492" x="7" y="264.7324">1.</text><text fill="#000000" font-family="sans-serif" font-size="12" lengthAdjust="spacing" textLength="30.5391" x="22.2637" y="264.7324">4029</text><text fill="#000000" font-family="sans-serif" font-size="12" lengthAdjust="spacing" textLength="79.7637" x="54.8027" y="264.7324">Ing. Software</text><text fill="#000000" font-family="sans-serif" font-size="12" lengthAdjust="spacing" textLength="163.8281" x="141.2363" y="264.7324">&#191;Cu&#225;l patr&#243;n pertenece a...</text><text fill="#000000" font-family="sans-serif" font-size="12" lengthAdjust="spacing" textLength="52.8105" x="309.6016" y="264.7324">Patrones</text><text fill="#000000" font-family="sans-serif" font-size="12" lengthAdjust="spacing" textLength="36.0293" x="364.4121" y="264.7324">Medio</text><rect fill="#EEEEEE" height="17.9688" rx="5" ry="5" style="stroke:#000000;stroke-width:2.5;" width="100" x="434.5137" y="256.0938"/><text fill="#000000" font-family="sans-serif" font-size="12" lengthAdjust="spacing" textLength="67.7227" x="450.6523" y="269.2324">Ver / Editar</text><text fill="#000000" font-family="sans-serif" font-size="12" lengthAdjust="spacing" textLength="11.4492" x="7" y="289.7012">1.</text><text fill="#000000" font-family="sans-serif" font-size="12" lengthAdjust="spacing" textLength="30.5391" x="22.2637" y="289.7012">4030</text><text fill="#000000" font-family="sans-serif" font-size="12" lengthAdjust="spacing" textLength="84.4336" x="54.8027" y="289.7012">Matem&#225;ticas I</text><text fill="#000000" font-family="sans-serif" font-size="12" lengthAdjust="spacing" textLength="150.1582" x="141.2363" y="289.7012">Calcular la derivada de...</text><text fill="#000000" font-family="sans-serif" font-size="12" lengthAdjust="spacing" textLength="43.9453" x="309.6016" y="289.7012">C&#225;lculo</text><text fill="#000000" font-family="sans-serif" font-size="12" lengthAdjust="spacing" textLength="27.5215" x="364.4121" y="289.7012">F&#225;cil</text><rect fill="#EEEEEE" height="17.9688" rx="5" ry="5" style="stroke:#000000;stroke-width:2.5;" width="100" x="434.5137" y="281.0625"/><text fill="#000000" font-family="sans-serif" font-size="12" lengthAdjust="spacing" textLength="67.7227" x="450.6523" y="294.2012">Ver / Editar</text><text fill="#000000" font-family="sans-serif" font-size="12" lengthAdjust="spacing" textLength="11.4492" x="7" y="314.6699">1.</text><text fill="#000000" font-family="sans-serif" font-size="12" lengthAdjust="spacing" textLength="30.5391" x="22.2637" y="314.6699">4105</text><text fill="#000000" font-family="sans-serif" font-size="12" lengthAdjust="spacing" textLength="79.7637" x="54.8027" y="314.6699">Ing. Software</text><text fill="#000000" font-family="sans-serif" font-size="12" lengthAdjust="spacing" textLength="166.1016" x="141.2363" y="314.6699">Diagrama que representa...</text><text fill="#000000" font-family="sans-serif" font-size="12" lengthAdjust="spacing" textLength="25.8223" x="309.6016" y="314.6699">UML</text><text fill="#000000" font-family="sans-serif" font-size="12" lengthAdjust="spacing" textLength="33.3984" x="364.4121" y="314.6699">Dif&#237;cil</text><rect fill="#EEEEEE" height="17.9688" rx="5" ry="5" style="stroke:#000000;stroke-width:2.5;" width="100" x="434.5137" y="306.0313"/><text fill="#000000" font-family="sans-serif" font-size="12" lengthAdjust="spacing" textLength="67.7227" x="450.6523" y="319.1699">Ver / Editar</text><line style="stroke:#000000;stroke-width:1;" x1="6" x2="53.8027" y1="236.625" y2="236.625"/><line style="stroke:#000000;stroke-width:1;" x1="363.4121" x2="431.0137" y1="327.5" y2="327.5"/><line style="stroke:#000000;stroke-width:1;" x1="53.8027" x2="140.2363" y1="236.625" y2="236.625"/><line style="stroke:#000000;stroke-width:1;" x1="431.0137" x2="538.0137" y1="327.5" y2="327.5"/><line style="stroke:#000000;stroke-width:1;" x1="140.2363" x2="308.6016" y1="236.625" y2="236.625"/><line style="stroke:#000000;stroke-width:1;" x1="308.6016" x2="363.4121" y1="236.625" y2="236.625"/><line style="stroke:#000000;stroke-width:1;" x1="363.4121" x2="431.0137" y1="236.625" y2="236.625"/><line style="stroke:#000000;stroke-width:1;" x1="431.0137" x2="538.0137" y1="236.625" y2="236.625"/><line style="stroke:#000000;stroke-width:1;" x1="6" x2="53.8027" y1="302.5313" y2="302.5313"/><line style="stroke:#000000;stroke-width:1;" x1="53.8027" x2="140.2363" y1="302.5313" y2="302.5313"/><line style="stroke:#000000;stroke-width:1;" x1="140.2363" x2="308.6016" y1="302.5313" y2="302.5313"/><line style="stroke:#000000;stroke-width:1;" x1="308.6016" x2="363.4121" y1="302.5313" y2="302.5313"/><line style="stroke:#000000;stroke-width:1;" x1="363.4121" x2="431.0137" y1="302.5313" y2="302.5313"/><line style="stroke:#000000;stroke-width:1;" x1="431.0137" x2="538.0137" y1="302.5313" y2="302.5313"/><line style="stroke:#000000;stroke-width:1;" x1="6" x2="53.8027" y1="277.5625" y2="277.5625"/><line style="stroke:#000000;stroke-width:1;" x1="53.8027" x2="140.2363" y1="277.5625" y2="277.5625"/><line style="stroke:#000000;stroke-width:1;" x1="140.2363" x2="308.6016" y1="277.5625" y2="277.5625"/><line style="stroke:#000000;stroke-width:1;" x1="308.6016" x2="363.4121" y1="277.5625" y2="277.5625"/><line style="stroke:#000000;stroke-width:1;" x1="363.4121" x2="431.0137" y1="277.5625" y2="277.5625"/><line style="stroke:#000000;stroke-width:1;" x1="431.0137" x2="538.0137" y1="277.5625" y2="277.5625"/><line style="stroke:#000000;stroke-width:1;" x1="6" x2="53.8027" y1="343.4688" y2="343.4688"/><line style="stroke:#000000;stroke-width:1;" x1="53.8027" x2="140.2363" y1="343.4688" y2="343.4688"/><line style="stroke:#000000;stroke-width:1;" x1="140.2363" x2="308.6016" y1="343.4688" y2="343.4688"/><line style="stroke:#000000;stroke-width:1;" x1="308.6016" x2="363.4121" y1="343.4688" y2="343.4688"/><line style="stroke:#000000;stroke-width:1;" x1="363.4121" x2="431.0137" y1="343.4688" y2="343.4688"/><line style="stroke:#000000;stroke-width:1;" x1="6" x2="53.8027" y1="252.5938" y2="252.5938"/><line style="stroke:#000000;stroke-width:1;" x1="431.0137" x2="538.0137" y1="343.4688" y2="343.4688"/><line style="stroke:#000000;stroke-width:1;" x1="53.8027" x2="140.2363" y1="252.5938" y2="252.5938"/><line style="stroke:#000000;stroke-width:1;" x1="140.2363" x2="308.6016" y1="252.5938" y2="252.5938"/><line style="stroke:#000000;stroke-width:1;" x1="308.6016" x2="363.4121" y1="252.5938" y2="252.5938"/><line style="stroke:#000000;stroke-width:1;" x1="363.4121" x2="431.0137" y1="252.5938" y2="252.5938"/><line style="stroke:#000000;stroke-width:1;" x1="431.0137" x2="538.0137" y1="252.5938" y2="252.5938"/><line style="stroke:#000000;stroke-width:1;" x1="6" x2="53.8027" y1="327.5" y2="327.5"/><line style="stroke:#000000;stroke-width:1;" x1="53.8027" x2="140.2363" y1="327.5" y2="327.5"/><line style="stroke:#000000;stroke-width:1;" x1="140.2363" x2="308.6016" y1="327.5" y2="327.5"/><line style="stroke:#000000;stroke-width:1;" x1="308.6016" x2="363.4121" y1="327.5" y2="327.5"/><line style="stroke:#000000;stroke-width:1;" x1="6" x2="6" y1="236.625" y2="252.5938"/><line style="stroke:#000000;stroke-width:1;" x1="363.4121" x2="363.4121" y1="327.5" y2="343.4688"/><line style="stroke:#000000;stroke-width:1;" x1="53.8027" x2="53.8027" y1="236.625" y2="252.5938"/><line style="stroke:#000000;stroke-width:1;" x1="431.0137" x2="431.0137" y1="327.5" y2="343.4688"/><line style="stroke:#000000;stroke-width:1;" x1="538.0137" x2="538.0137" y1="327.5" y2="343.4688"/><line style="stroke:#000000;stroke-width:1;" x1="140.2363" x2="140.2363" y1="236.625" y2="252.5938"/><line style="stroke:#000000;stroke-width:1;" x1="308.6016" x2="308.6016" y1="236.625" y2="252.5938"/><line style="stroke:#000000;stroke-width:1;" x1="363.4121" x2="363.4121" y1="236.625" y2="252.5938"/><line style="stroke:#000000;stroke-width:1;" x1="431.0137" x2="431.0137" y1="236.625" y2="252.5938"/><line style="stroke:#000000;stroke-width:1;" x1="538.0137" x2="538.0137" y1="236.625" y2="252.5938"/><line style="stroke:#000000;stroke-width:1;" x1="6" x2="6" y1="302.5313" y2="327.5"/><line style="stroke:#000000;stroke-width:1;" x1="53.8027" x2="53.8027" y1="302.5313" y2="327.5"/><line style="stroke:#000000;stroke-width:1;" x1="140.2363" x2="140.2363" y1="302.5313" y2="327.5"/><line style="stroke:#000000;stroke-width:1;" x1="308.6016" x2="308.6016" y1="302.5313" y2="327.5"/><line style="stroke:#000000;stroke-width:1;" x1="363.4121" x2="363.4121" y1="302.5313" y2="327.5"/><line style="stroke:#000000;stroke-width:1;" x1="431.0137" x2="431.0137" y1="302.5313" y2="327.5"/><line style="stroke:#000000;stroke-width:1;" x1="538.0137" x2="538.0137" y1="302.5313" y2="327.5"/><line style="stroke:#000000;stroke-width:1;" x1="6" x2="6" y1="277.5625" y2="302.5313"/><line style="stroke:#000000;stroke-width:1;" x1="53.8027" x2="53.8027" y1="277.5625" y2="302.5313"/><line style="stroke:#000000;stroke-width:1;" x1="140.2363" x2="140.2363" y1="277.5625" y2="302.5313"/><line style="stroke:#000000;stroke-width:1;" x1="308.6016" x2="308.6016" y1="277.5625" y2="302.5313"/><line style="stroke:#000000;stroke-width:1;" x1="363.4121" x2="363.4121" y1="277.5625" y2="302.5313"/><line style="stroke:#000000;stroke-width:1;" x1="431.0137" x2="431.0137" y1="277.5625" y2="302.5313"/><line style="stroke:#000000;stroke-width:1;" x1="538.0137" x2="538.0137" y1="277.5625" y2="302.5313"/><line style="stroke:#000000;stroke-width:1;" x1="6" x2="6" y1="252.5938" y2="277.5625"/><line style="stroke:#000000;stroke-width:1;" x1="53.8027" x2="53.8027" y1="252.5938" y2="277.5625"/><line style="stroke:#000000;stroke-width:1;" x1="140.2363" x2="140.2363" y1="252.5938" y2="277.5625"/><line style="stroke:#000000;stroke-width:1;" x1="308.6016" x2="308.6016" y1="252.5938" y2="277.5625"/><line style="stroke:#000000;stroke-width:1;" x1="363.4121" x2="363.4121" y1="252.5938" y2="277.5625"/><line style="stroke:#000000;stroke-width:1;" x1="431.0137" x2="431.0137" y1="252.5938" y2="277.5625"/><line style="stroke:#000000;stroke-width:1;" x1="538.0137" x2="538.0137" y1="252.5938" y2="277.5625"/><line style="stroke:#000000;stroke-width:1;" x1="6" x2="6" y1="327.5" y2="343.4688"/><line style="stroke:#000000;stroke-width:1;" x1="53.8027" x2="53.8027" y1="327.5" y2="343.4688"/><line style="stroke:#000000;stroke-width:1;" x1="140.2363" x2="140.2363" y1="327.5" y2="343.4688"/><line style="stroke:#000000;stroke-width:1;" x1="308.6016" x2="308.6016" y1="327.5" y2="343.4688"/><line style="stroke:#AAAAAA;stroke-width:1.5;" x1="6" x2="590.752" y1="364.9375" y2="364.9375"/><rect fill="#EEEEEE" height="17.9688" rx="5" ry="5" style="stroke:#000000;stroke-width:2.5;" width="196" x="9.5" y="388.9063"/><text fill="#000000" font-family="sans-serif" font-size="12" lengthAdjust="spacing" textLength="147.3398" x="33.8301" y="402.0449">+ Crear Nueva Pregunta</text><rect fill="#EEEEEE" height="17.9688" rx="5" ry="5" style="stroke:#000000;stroke-width:2.5;" width="68" x="212.5" y="388.9063"/><text fill="#000000" font-family="sans-serif" font-size="12" lengthAdjust="spacing" textLength="52.1133" x="220.4434" y="402.0449">Importar</text><rect fill="#EEEEEE" height="17.9688" rx="5" ry="5" style="stroke:#000000;stroke-width:2.5;" width="68" x="287.5" y="388.9063"/><text fill="#000000" font-family="sans-serif" font-size="12" lengthAdjust="spacing" textLength="51.5684" x="295.7158" y="402.0449">Exportar</text><rect fill="#EEEEEE" height="17.9688" rx="5" ry="5" style="stroke:#000000;stroke-width:2.5;" width="68" x="362.5" y="388.9063"/><text fill="#000000" font-family="sans-serif" font-size="12" lengthAdjust="spacing" textLength="38.3027" x="377.3486" y="402.0449">Volver</text><line style="stroke:#000000;stroke-width:1;" x1="5" x2="590.752" y1="5" y2="5"/><line style="stroke:#000000;stroke-width:1;" x1="5" x2="590.752" y1="411.375" y2="411.375"/><line style="stroke:#000000;stroke-width:1;" x1="5" x2="5" y1="5" y2="20.9688"/><line style="stroke:#000000;stroke-width:1;" x1="590.752" x2="590.752" y1="5" y2="20.9688"/><line style="stroke:#000000;stroke-width:1;" x1="5" x2="5" y1="384.4063" y2="411.375"/><line style="stroke:#000000;stroke-width:1;" x1="590.752" x2="590.752" y1="384.4063" y2="411.375"/><line style="stroke:#000000;stroke-width:1;" x1="5" x2="5" y1="235.625" y2="344.4688"/><line style="stroke:#000000;stroke-width:1;" x1="590.752" x2="590.752" y1="235.625" y2="344.4688"/><line style="stroke:#000000;stroke-width:1;" x1="5" x2="5" y1="179.7188" y2="187.7188"/><line style="stroke:#000000;stroke-width:1;" x1="590.752" x2="590.752" y1="179.7188" y2="187.7188"/><line style="stroke:#000000;stroke-width:1;" x1="5" x2="5" y1="44.9375" y2="60.9063"/><line style="stroke:#000000;stroke-width:1;" x1="590.752" x2="590.752" y1="44.9375" y2="60.9063"/><line style="stroke:#000000;stroke-width:1;" x1="5" x2="5" y1="368.4375" y2="384.4063"/><line style="stroke:#000000;stroke-width:1;" x1="590.752" x2="590.752" y1="368.4375" y2="384.4063"/><line style="stroke:#000000;stroke-width:1;" x1="5" x2="5" y1="219.6563" y2="235.625"/><line style="stroke:#000000;stroke-width:1;" x1="590.752" x2="590.752" y1="219.6563" y2="235.625"/><line style="stroke:#000000;stroke-width:1;" x1="5" x2="5" y1="163.75" y2="179.7188"/><line style="stroke:#000000;stroke-width:1;" x1="590.752" x2="590.752" y1="163.75" y2="179.7188"/><line style="stroke:#000000;stroke-width:1;" x1="5" x2="5" y1="28.9688" y2="44.9375"/><line style="stroke:#000000;stroke-width:1;" x1="590.752" x2="590.752" y1="28.9688" y2="44.9375"/><line style="stroke:#000000;stroke-width:1;" x1="5" x2="5" y1="360.4375" y2="368.4375"/><line style="stroke:#000000;stroke-width:1;" x1="590.752" x2="590.752" y1="360.4375" y2="368.4375"/><line style="stroke:#000000;stroke-width:1;" x1="5" x2="5" y1="203.6875" y2="219.6563"/><line style="stroke:#000000;stroke-width:1;" x1="590.752" x2="590.752" y1="203.6875" y2="219.6563"/><line style="stroke:#000000;stroke-width:1;" x1="5" x2="5" y1="76.875" y2="163.75"/><line style="stroke:#000000;stroke-width:1;" x1="590.752" x2="590.752" y1="76.875" y2="163.75"/><line style="stroke:#000000;stroke-width:1;" x1="5" x2="5" y1="20.9688" y2="28.9688"/><line style="stroke:#000000;stroke-width:1;" x1="590.752" x2="590.752" y1="20.9688" y2="28.9688"/><line style="stroke:#000000;stroke-width:1;" x1="5" x2="5" y1="344.4688" y2="360.4375"/><line style="stroke:#000000;stroke-width:1;" x1="590.752" x2="590.752" y1="344.4688" y2="360.4375"/><line style="stroke:#000000;stroke-width:1;" x1="5" x2="5" y1="187.7188" y2="203.6875"/><line style="stroke:#000000;stroke-width:1;" x1="590.752" x2="590.752" y1="187.7188" y2="203.6875"/><line style="stroke:#000000;stroke-width:1;" x1="5" x2="5" y1="60.9063" y2="76.875"/><line style="stroke:#000000;stroke-width:1;" x1="590.752" x2="590.752" y1="60.9063" y2="76.875"/><!--SRC=[XLHTRzem57tFhxXgNq0LQM1qMYDQ5KAeO8KYllPGjTCbCSYISQZji5PT-r_w0_QqjxrC6dzirr08MglEKYBRzzpZutDlSgODAgDH65WmrLLicag3-kkNPYzizAhjq7auS816PNnQgtQ2IwY7qEs5vyFEeDgl78vFLz6JavCDgkX2WmkZ4WttK5l-qhSfYt6BhF3JeU62Hmm4GIOlq3ag1CKcNA829a1m4XOdbKE-JdDNxuVLsuwgvbE99gMiN918m-vCalVXEzmCaXWr27eoZ8RSo1B2kKZ6AF8tMvu1cw4FhyQQXtHPZOOmEakfymcFKa7o_7zIWXJ5RSgPmWozTG3cYOALJdyDtuF_Zpt2NTLI7P4hXsjVKLslo1ztV2aKTXPKWv8BFQPN6ab_J5RZ6wLuyNH_gvKoctKRfbDfdlcNxOKobH4dsesZSyKM7FCPmZgQhJApTdYZY2UIwQqGE_RBNkcOuaqvTQ6VJCmtL8pMVtu7wV9PK8COjVmfOSwKOP9H-w3hkWJeKi2oqRJDOfvOnqRCsXN6t6pSUZdYWsTXI1LTFXiUKMCqQID0GHh9Oh8fPeelCBQJDNz0frFKyZQMpn4NxnrGz8xUk4ETurJX387yfoOdopIZhspDFsnVh22JvOztoItsrVEg4vwUTaiBLt00WM9qjKxA5WYR3nokxK7D6VMaFSGkmhjiGKiO9OB-20HyT1wTCoPZ-vDmdAv0QQnc2ceg8nJTabSwSejURa2twoGByCfGzFoIvvUFeTqVW8tddTnvzm9qaYegNKoje_WuDKIGTrf8odeaYy-O3vTp9blrpviD2EM2Ku5dv9ZJ6hKpmCToeSODz9coEaTjfyucIAr66L4ISpdrOJXe53uv5oYdAKw9cqadI8XNtViWKo7-0W00]--></g></svg>