<svg xmlns="http://www.w3.org/2000/svg" xmlns:xlink="http://www.w3.org/1999/xlink" contentStyleType="text/css" data-diagram-type="DESCRIPTION" height="3386px" preserveAspectRatio="none" style="width:534px;height:3386px;background:#FFFFFF;" version="1.1" viewBox="0 0 534 3386" width="534px" zoomAndPan="magnify"><defs/><g><!--cluster M?dulo Grado--><g class="cluster" data-entity="M.dulo Grado" data-source-line="7" data-uid="ent0005" id="cluster_M.dulo Grado"><path d="M301.22,6 L412.5315,6 A3.75,3.75 0 0 1 415.0315,8.5 L422.0315,28.2969 L465.15,28.2969 A2.5,2.5 0 0 1 467.65,30.7969 L467.65,280.5 A2.5,2.5 0 0 1 465.15,283 L301.22,283 A2.5,2.5 0 0 1 298.72,280.5 L298.72,8.5 A2.5,2.5 0 0 1 301.22,6" fill="none" style="stroke:#000000;stroke-width:1.5;"/><line style="stroke:#000000;stroke-width:1.5;" x1="298.72" x2="422.0315" y1="28.2969" y2="28.2969"/><text fill="#000000" font-family="sans-serif" font-size="14" font-weight="bold" lengthAdjust="spacing" textLength="110.3115" x="302.72" y="20.9951">M&#243;dulo Grado</text></g><!--cluster M?dulo Asignatura--><g class="cluster" data-entity="M.dulo Asignatura" data-source-line="14" data-uid="ent0010" id="cluster_M.dulo Asignatura"><path d="M287.15,307 L437.3922,307 A3.75,3.75 0 0 1 439.8922,309.5 L446.8922,329.2969 L479.22,329.2969 A2.5,2.5 0 0 1 481.72,331.7969 L481.72,601.5 A2.5,2.5 0 0 1 479.22,604 L287.15,604 A2.5,2.5 0 0 1 284.65,601.5 L284.65,309.5 A2.5,2.5 0 0 1 287.15,307" fill="none" style="stroke:#000000;stroke-width:1.5;"/><line style="stroke:#000000;stroke-width:1.5;" x1="284.65" x2="446.8922" y1="329.2969" y2="329.2969"/><text fill="#000000" font-family="sans-serif" font-size="14" font-weight="bold" lengthAdjust="spacing" textLength="149.2422" x="288.65" y="321.9951">M&#243;dulo Asignatura</text></g><!--cluster M?dulo Alumno--><g class="cluster" data-entity="M.dulo Alumno" data-source-line="21" data-uid="ent0015" id="cluster_M.dulo Alumno"><path d="M292.1,628 L415.7025,628 A3.75,3.75 0 0 1 418.2025,630.5 L425.2025,650.2969 L474.28,650.2969 A2.5,2.5 0 0 1 476.78,652.7969 L476.78,979.5 A2.5,2.5 0 0 1 474.28,982 L292.1,982 A2.5,2.5 0 0 1 289.6,979.5 L289.6,630.5 A2.5,2.5 0 0 1 292.1,628" fill="none" style="stroke:#000000;stroke-width:1.5;"/><line style="stroke:#000000;stroke-width:1.5;" x1="289.6" x2="425.2025" y1="650.2969" y2="650.2969"/><text fill="#000000" font-family="sans-serif" font-size="14" font-weight="bold" lengthAdjust="spacing" textLength="122.6025" x="293.6" y="642.9951">M&#243;dulo Alumno</text></g><!--cluster M?dulo Asignaciones--><g class="cluster" data-entity="M.dulo Asignaciones" data-source-line="29" data-uid="ent0021" id="cluster_M.dulo Asignaciones"><path d="M241.56,1006 L409.3022,1006 A3.75,3.75 0 0 1 411.8022,1008.5 L418.8022,1028.2969 L524.81,1028.2969 A2.5,2.5 0 0 1 527.31,1030.7969 L527.31,1530.5 A2.5,2.5 0 0 1 524.81,1533 L241.56,1533 A2.5,2.5 0 0 1 239.06,1530.5 L239.06,1008.5 A2.5,2.5 0 0 1 241.56,1006" fill="none" style="stroke:#000000;stroke-width:1.5;"/><line style="stroke:#000000;stroke-width:1.5;" x1="239.06" x2="418.8022" y1="1028.2969" y2="1028.2969"/><text fill="#000000" font-family="sans-serif" font-size="14" font-weight="bold" lengthAdjust="spacing" textLength="166.7422" x="243.06" y="1020.9951">M&#243;dulo Asignaciones</text></g><!--cluster M?dulo Gesti?n de Preguntas--><g class="cluster" data-entity="M.dulo Gesti.n de Preguntas" data-source-line="38" data-uid="ent0028" id="cluster_M.dulo Gesti.n de Preguntas"><path d="M261.2,1557 L495.7771,1557 A3.75,3.75 0 0 1 498.2771,1559.5 L505.2771,1579.2969 L505.17,1579.2969 A2.5,2.5 0 0 1 507.67,1581.7969 L507.67,1990.5 A2.5,2.5 0 0 1 505.17,1993 L261.2,1993 A2.5,2.5 0 0 1 258.7,1990.5 L258.7,1559.5 A2.5,2.5 0 0 1 261.2,1557" fill="none" style="stroke:#000000;stroke-width:1.5;"/><line style="stroke:#000000;stroke-width:1.5;" x1="258.7" x2="505.2771" y1="1579.2969" y2="1579.2969"/><text fill="#000000" font-family="sans-serif" font-size="14" font-weight="bold" lengthAdjust="spacing" textLength="233.5771" x="262.7" y="1571.9951">M&#243;dulo Gesti&#243;n de Preguntas</text></g><!--cluster M?dulo Configuraci?n General--><g class="cluster" data-entity="M.dulo Configuraci.n General" data-source-line="47" data-uid="ent0035" id="cluster_M.dulo Configuraci.n General"><path d="M255.24,2017 L495.3132,2017 A3.75,3.75 0 0 1 497.8132,2019.5 L504.8132,2039.2969 L511.14,2039.2969 A2.5,2.5 0 0 1 513.64,2041.7969 L513.64,2201.5 A2.5,2.5 0 0 1 511.14,2204 L255.24,2204 A2.5,2.5 0 0 1 252.74,2201.5 L252.74,2019.5 A2.5,2.5 0 0 1 255.24,2017" fill="none" style="stroke:#000000;stroke-width:1.5;"/><line style="stroke:#000000;stroke-width:1.5;" x1="252.74" x2="504.8132" y1="2039.2969" y2="2039.2969"/><text fill="#000000" font-family="sans-serif" font-size="14" font-weight="bold" lengthAdjust="spacing" textLength="239.0732" x="256.74" y="2031.9951">M&#243;dulo Configuraci&#243;n General</text></g><!--cluster M?dulo Examen--><g class="cluster" data-entity="M.dulo Examen" data-source-line="52" data-uid="ent0038" id="cluster_M.dulo Examen"><path d="M290.05,2228 L415.9699,2228 A3.75,3.75 0 0 1 418.4699,2230.5 L425.4699,2250.2969 L476.32,2250.2969 A2.5,2.5 0 0 1 478.82,2252.7969 L478.82,2381.5 A2.5,2.5 0 0 1 476.32,2384 L290.05,2384 A2.5,2.5 0 0 1 287.55,2381.5 L287.55,2230.5 A2.5,2.5 0 0 1 290.05,2228" fill="none" style="stroke:#000000;stroke-width:1.5;"/><line style="stroke:#000000;stroke-width:1.5;" x1="287.55" x2="425.4699" y1="2250.2969" y2="2250.2969"/><text fill="#000000" font-family="sans-serif" font-size="14" font-weight="bold" lengthAdjust="spacing" textLength="124.9199" x="291.55" y="2242.9951">M&#243;dulo Examen</text></g><!--cluster M?dulo Correcci?n--><g class="cluster" data-entity="M.dulo Correcci.n" data-source-line="57" data-uid="ent0041" id="cluster_M.dulo Correcci.n"><path d="M288.29,2408 L436.2968,2408 A3.75,3.75 0 0 1 438.7968,2410.5 L445.7968,2430.2969 L478.08,2430.2969 A2.5,2.5 0 0 1 480.58,2432.7969 L480.58,2494.5 A2.5,2.5 0 0 1 478.08,2497 L288.29,2497 A2.5,2.5 0 0 1 285.79,2494.5 L285.79,2410.5 A2.5,2.5 0 0 1 288.29,2408" fill="none" style="stroke:#000000;stroke-width:1.5;"/><line style="stroke:#000000;stroke-width:1.5;" x1="285.79" x2="445.7968" y1="2430.2969" y2="2430.2969"/><text fill="#000000" font-family="sans-serif" font-size="14" font-weight="bold" lengthAdjust="spacing" textLength="147.0068" x="289.79" y="2422.9951">M&#243;dulo Correcci&#243;n</text></g><!--cluster M?dulo Usuarios Docentes--><g class="cluster" data-entity="M.dulo Usuarios Docentes" data-source-line="61" data-uid="ent0043" id="cluster_M.dulo Usuarios Docentes"><path d="M274.09,2781 L485.0832,2781 A3.75,3.75 0 0 1 487.5832,2783.5 L494.5832,2803.2969 L493.28,2803.2969 A2.5,2.5 0 0 1 495.78,2805.7969 L495.78,3066.5 A2.5,2.5 0 0 1 493.28,3069 L274.09,3069 A2.5,2.5 0 0 1 271.59,3066.5 L271.59,2783.5 A2.5,2.5 0 0 1 274.09,2781" fill="none" style="stroke:#000000;stroke-width:1.5;"/><line style="stroke:#000000;stroke-width:1.5;" x1="271.59" x2="494.5832" y1="2803.2969" y2="2803.2969"/><text fill="#000000" font-family="sans-serif" font-size="14" font-weight="bold" lengthAdjust="spacing" textLength="209.9932" x="275.59" y="2795.9951">M&#243;dulo Usuarios Docentes</text></g><!--cluster M?dulo Gesti?n Licencias--><g class="cluster" data-entity="M.dulo Gesti.n Licencias" data-source-line="68" data-uid="ent0048" id="cluster_M.dulo Gesti.n Licencias"><path d="M278.24,3093 L479.697,3093 A3.75,3.75 0 0 1 482.197,3095.5 L489.197,3115.2969 L489.13,3115.2969 A2.5,2.5 0 0 1 491.63,3117.7969 L491.63,3376.5 A2.5,2.5 0 0 1 489.13,3379 L278.24,3379 A2.5,2.5 0 0 1 275.74,3376.5 L275.74,3095.5 A2.5,2.5 0 0 1 278.24,3093" fill="none" style="stroke:#000000;stroke-width:1.5;"/><line style="stroke:#000000;stroke-width:1.5;" x1="275.74" x2="489.197" y1="3115.2969" y2="3115.2969"/><text fill="#000000" font-family="sans-serif" font-size="14" font-weight="bold" lengthAdjust="spacing" textLength="200.457" x="279.74" y="3107.9951">M&#243;dulo Gesti&#243;n Licencias</text></g><!--cluster M?dulo Sesi?n--><g class="cluster" data-entity="M.dulo Sesi.n" data-source-line="75" data-uid="ent0053" id="cluster_M.dulo Sesi.n"><path d="M248.32,2521 L364.444,2521 A3.75,3.75 0 0 1 366.944,2523.5 L373.944,2543.2969 L518.05,2543.2969 A2.5,2.5 0 0 1 520.55,2545.7969 L520.55,2754.5 A2.5,2.5 0 0 1 518.05,2757 L248.32,2757 A2.5,2.5 0 0 1 245.82,2754.5 L245.82,2523.5 A2.5,2.5 0 0 1 248.32,2521" fill="none" style="stroke:#000000;stroke-width:1.5;"/><line style="stroke:#000000;stroke-width:1.5;" x1="245.82" x2="373.944" y1="2543.2969" y2="2543.2969"/><text fill="#000000" font-family="sans-serif" font-size="14" font-weight="bold" lengthAdjust="spacing" textLength="115.124" x="249.82" y="2535.9951">M&#243;dulo Sesi&#243;n</text></g><!--entity UC1--><g class="entity" data-entity="UC1" data-source-line="8" data-uid="ent0006" id="entity_UC1"><ellipse cx="383.1922" cy="120.0044" fill="#F1F1F1" rx="61.3722" ry="14.6744" style="stroke:#181818;stroke-width:0.5;"/><text fill="#000000" font-family="sans-serif" font-size="14" lengthAdjust="spacing" textLength="83.6035" x="341.3904" y="124.6529">Crear grado</text></g><!--entity UC2--><g class="entity" data-entity="UC2" data-source-line="9" data-uid="ent0007" id="entity_UC2"><ellipse cx="383.1877" cy="56.0036" fill="#F1F1F1" rx="56.9977" ry="14.5236" style="stroke:#181818;stroke-width:0.5;"/><text fill="#000000" font-family="sans-serif" font-size="14" lengthAdjust="spacing" textLength="76.3643" x="345.0056" y="60.6521">Ver grados</text></g><!--entity UC3--><g class="entity" data-entity="UC3" data-source-line="10" data-uid="ent0008" id="entity_UC3"><ellipse cx="383.1935" cy="251.9987" fill="#F1F1F1" rx="62.4435" ry="14.8887" style="stroke:#181818;stroke-width:0.5;"/><text fill="#000000" font-family="sans-serif" font-size="14" lengthAdjust="spacing" textLength="86.5703" x="339.9084" y="256.6471">Editar grado</text></g><!--entity UC4--><g class="entity" data-entity="UC4" data-source-line="11" data-uid="ent0009" id="entity_UC4"><ellipse cx="383.1852" cy="186.003" fill="#F1F1F1" rx="68.4652" ry="16.093" style="stroke:#181818;stroke-width:0.5;"/><text fill="#000000" font-family="sans-serif" font-size="14" lengthAdjust="spacing" textLength="102.4844" x="331.943" y="190.6515">Eliminar grado</text></g><!--entity UC5--><g class="entity" data-entity="UC5" data-source-line="15" data-uid="ent0011" id="entity_UC5"><ellipse cx="383.1886" cy="427.9977" fill="#F1F1F1" rx="74.5886" ry="17.3177" style="stroke:#181818;stroke-width:0.5;"/><text fill="#000000" font-family="sans-serif" font-size="14" lengthAdjust="spacing" textLength="117.7285" x="324.3243" y="432.6462">Crear asignatura</text></g><!--entity UC6--><g class="entity" data-entity="UC6" data-source-line="16" data-uid="ent0012" id="entity_UC6"><ellipse cx="383.1932" cy="358.9986" fill="#F1F1F1" rx="71.6432" ry="16.7286" style="stroke:#181818;stroke-width:0.5;"/><text fill="#000000" font-family="sans-serif" font-size="14" lengthAdjust="spacing" textLength="110.4893" x="327.9486" y="363.6471">Ver asignaturas</text></g><!--entity UC7--><g class="entity" data-entity="UC7" data-source-line="17" data-uid="ent0013" id="entity_UC7"><ellipse cx="383.1932" cy="570.0026" fill="#F1F1F1" rx="75.8132" ry="17.5626" style="stroke:#181818;stroke-width:0.5;"/><text fill="#000000" font-family="sans-serif" font-size="14" lengthAdjust="spacing" textLength="120.6953" x="322.8456" y="574.6511">Editar asignatura</text></g><!--entity UC8--><g class="entity" data-entity="UC8" data-source-line="18" data-uid="ent0014" id="entity_UC8"><ellipse cx="383.1927" cy="498.9965" fill="#F1F1F1" rx="82.5327" ry="18.9065" style="stroke:#181818;stroke-width:0.5;"/><text fill="#000000" font-family="sans-serif" font-size="14" lengthAdjust="spacing" textLength="136.6094" x="314.888" y="503.645">Eliminar asignatura</text></g><!--entity UC9--><g class="entity" data-entity="UC9" data-source-line="22" data-uid="ent0016" id="entity_UC9"><ellipse cx="383.1914" cy="744.0023" fill="#F1F1F1" rx="65.7114" ry="15.5423" style="stroke:#181818;stroke-width:0.5;"/><text fill="#000000" font-family="sans-serif" font-size="14" lengthAdjust="spacing" textLength="95.3477" x="335.5176" y="748.6507">Crear alumno</text></g><!--entity UC10--><g class="entity" data-entity="UC10" data-source-line="23" data-uid="ent0017" id="entity_UC10"><ellipse cx="383.1858" cy="678.0012" fill="#F1F1F1" rx="63.0058" ry="15.0012" style="stroke:#181818;stroke-width:0.5;"/><text fill="#000000" font-family="sans-serif" font-size="14" lengthAdjust="spacing" textLength="88.1084" x="339.1316" y="682.6496">Ver alumnos</text></g><!--entity UC11--><g class="entity" data-entity="UC11" data-source-line="24" data-uid="ent0018" id="entity_UC11"><ellipse cx="383.1864" cy="949.9993" fill="#F1F1F1" rx="66.8464" ry="15.7693" style="stroke:#181818;stroke-width:0.5;"/><text fill="#000000" font-family="sans-serif" font-size="14" lengthAdjust="spacing" textLength="98.3145" x="334.0291" y="954.6477">Editar alumno</text></g><!--entity UC12--><g class="entity" data-entity="UC12" data-source-line="25" data-uid="ent0019" id="entity_UC12"><ellipse cx="383.1867" cy="882.0013" fill="#F1F1F1" rx="73.1567" ry="17.0313" style="stroke:#181818;stroke-width:0.5;"/><text fill="#000000" font-family="sans-serif" font-size="14" lengthAdjust="spacing" textLength="114.2285" x="326.0725" y="886.6498">Eliminar alumno</text></g><!--entity UC19--><g class="entity" data-entity="UC19" data-source-line="26" data-uid="ent0020" id="entity_UC19"><ellipse cx="383.1904" cy="811.9981" fill="#F1F1F1" rx="77.5904" ry="17.9181" style="stroke:#181818;stroke-width:0.5;"/><text fill="#000000" font-family="sans-serif" font-size="14" lengthAdjust="spacing" textLength="124.9609" x="320.71" y="816.6465">Importar alumnos</text></g><!--entity UC13--><g class="entity" data-entity="UC13" data-source-line="30" data-uid="ent0022" id="entity_UC13"><ellipse cx="383.1938" cy="1319.0008" fill="#F1F1F1" rx="96.3038" ry="21.6608" style="stroke:#181818;stroke-width:0.5;"/><text fill="#000000" font-family="sans-serif" font-size="14" lengthAdjust="spacing" textLength="167.877" x="299.2553" y="1323.6492">Asignar alumno a grado</text></g><!--entity UC14--><g class="entity" data-entity="UC14" data-source-line="31" data-uid="ent0023" id="entity_UC14"><ellipse cx="383.1939" cy="1237.9968" fill="#F1F1F1" rx="112.1339" ry="24.8268" style="stroke:#181818;stroke-width:0.5;"/><text fill="#000000" font-family="sans-serif" font-size="14" lengthAdjust="spacing" textLength="202.4873" x="281.9502" y="1242.6452">Desasignar alumno de grado</text></g><!--entity UC15--><g class="entity" data-entity="UC15" data-source-line="32" data-uid="ent0024" id="entity_UC15"><ellipse cx="383.1864" cy="1153.9973" fill="#F1F1F1" rx="106.4864" ry="23.6973" style="stroke:#181818;stroke-width:0.5;"/><text fill="#000000" font-family="sans-serif" font-size="14" lengthAdjust="spacing" textLength="190.2578" x="288.0575" y="1158.6457">Asignar grado a asignatura</text></g><!--entity UC16--><g class="entity" data-entity="UC16" data-source-line="33" data-uid="ent0025" id="entity_UC16"><ellipse cx="383.1882" cy="1067.9976" fill="#F1F1F1" rx="122.5882" ry="26.9176" style="stroke:#181818;stroke-width:0.5;"/><text fill="#000000" font-family="sans-serif" font-size="14" lengthAdjust="spacing" textLength="224.8682" x="270.7542" y="1072.6461">Desasignar grado de asignatura</text></g><!--entity UC17--><g class="entity" data-entity="UC17" data-source-line="34" data-uid="ent0026" id="entity_UC17"><ellipse cx="383.1888" cy="1492.0018" fill="#F1F1F1" rx="111.9088" ry="24.7818" style="stroke:#181818;stroke-width:0.5;"/><text fill="#000000" font-family="sans-serif" font-size="14" lengthAdjust="spacing" textLength="202.002" x="282.1878" y="1496.6502">Asignar alumno a asignatura</text></g><!--entity UC18--><g class="entity" data-entity="UC18" data-source-line="35" data-uid="ent0027" id="entity_UC18"><ellipse cx="383.185" cy="1404.005" fill="#F1F1F1" rx="128.125" ry="28.025" style="stroke:#181818;stroke-width:0.5;"/><text fill="#000000" font-family="sans-serif" font-size="14" lengthAdjust="spacing" textLength="236.6123" x="264.8789" y="1408.6534">Desasignar alumno de asignatura</text></g><!--entity UC20--><g class="entity" data-entity="UC20" data-source-line="39" data-uid="ent0029" id="entity_UC20"><ellipse cx="383.1921" cy="1815.0004" fill="#F1F1F1" rx="70.2021" ry="16.4404" style="stroke:#181818;stroke-width:0.5;"/><text fill="#000000" font-family="sans-serif" font-size="14" lengthAdjust="spacing" textLength="106.8867" x="329.7487" y="1819.6489">Crear pregunta</text></g><!--entity UC21--><g class="entity" data-entity="UC21" data-source-line="40" data-uid="ent0030" id="entity_UC21"><ellipse cx="383.1909" cy="1748.0022" fill="#F1F1F1" rx="67.3609" ry="15.8722" style="stroke:#181818;stroke-width:0.5;"/><text fill="#000000" font-family="sans-serif" font-size="14" lengthAdjust="spacing" textLength="99.6475" x="333.3672" y="1752.6506">Ver preguntas</text></g><!--entity UC22--><g class="entity" data-entity="UC22" data-source-line="41" data-uid="ent0031" id="entity_UC22"><ellipse cx="383.1877" cy="1679.9975" fill="#F1F1F1" rx="71.3877" ry="16.6775" style="stroke:#181818;stroke-width:0.5;"/><text fill="#000000" font-family="sans-serif" font-size="14" lengthAdjust="spacing" textLength="109.8535" x="328.2609" y="1684.646">Editar pregunta</text></g><!--entity UC23--><g class="entity" data-entity="UC23" data-source-line="42" data-uid="ent0032" id="entity_UC23"><ellipse cx="383.1886" cy="1609.9957" fill="#F1F1F1" rx="77.9286" ry="17.9857" style="stroke:#181818;stroke-width:0.5;"/><text fill="#000000" font-family="sans-serif" font-size="14" lengthAdjust="spacing" textLength="125.7676" x="320.3048" y="1614.6442">Eliminar pregunta</text></g><!--entity UC24--><g class="entity" data-entity="UC24" data-source-line="43" data-uid="ent0033" id="entity_UC24"><ellipse cx="383.1858" cy="1957.9972" fill="#F1F1F1" rx="82.4858" ry="18.8972" style="stroke:#181818;stroke-width:0.5;"/><text fill="#000000" font-family="sans-serif" font-size="14" lengthAdjust="spacing" textLength="136.5" x="314.9358" y="1962.6456">Importar preguntas</text></g><!--entity UC25--><g class="entity" data-entity="UC25" data-source-line="44" data-uid="ent0034" id="entity_UC25"><ellipse cx="383.193" cy="1885.0026" fill="#F1F1F1" rx="82.213" ry="18.8426" style="stroke:#181818;stroke-width:0.5;"/><text fill="#000000" font-family="sans-serif" font-size="14" lengthAdjust="spacing" textLength="135.8643" x="315.2609" y="1889.651">Exportar preguntas</text></g><!--entity UC26--><g class="entity" data-entity="UC26" data-source-line="48" data-uid="ent0036" id="entity_UC26"><ellipse cx="383.1935" cy="2163.0007" fill="#F1F1F1" rx="114.1535" ry="25.2307" style="stroke:#181818;stroke-width:0.5;"/><text fill="#000000" font-family="sans-serif" font-size="14" lengthAdjust="spacing" textLength="206.835" x="279.776" y="2167.6491">Exportar configuraci&#243;n global</text></g><!--entity UC27--><g class="entity" data-entity="UC27" data-source-line="49" data-uid="ent0037" id="entity_UC27"><ellipse cx="383.1893" cy="2076.9999" fill="#F1F1F1" rx="114.4493" ry="25.2899" style="stroke:#181818;stroke-width:0.5;"/><text fill="#000000" font-family="sans-serif" font-size="14" lengthAdjust="spacing" textLength="207.4707" x="279.454" y="2081.6483">Importar configuraci&#243;n global</text></g><!--entity UC28--><g class="entity" data-entity="UC28" data-source-line="53" data-uid="ent0039" id="entity_UC28"><ellipse cx="383.1901" cy="2351" fill="#F1F1F1" rx="73.6501" ry="17.13" style="stroke:#181818;stroke-width:0.5;"/><text fill="#000000" font-family="sans-serif" font-size="14" lengthAdjust="spacing" textLength="115.4385" x="325.4709" y="2355.6485">Crear examenes</text></g><!--entity UC29--><g class="entity" data-entity="UC29" data-source-line="54" data-uid="ent0040" id="entity_UC29"><ellipse cx="383.1947" cy="2280.9969" fill="#F1F1F1" rx="79.6347" ry="18.3269" style="stroke:#181818;stroke-width:0.5;"/><text fill="#000000" font-family="sans-serif" font-size="14" lengthAdjust="spacing" textLength="129.8145" x="318.2875" y="2285.6454">Asignar examenes</text></g><!--entity UC31--><g class="entity" data-entity="UC31" data-source-line="58" data-uid="ent0042" id="entity_UC31"><ellipse cx="383.1867" cy="2461.9993" fill="#F1F1F1" rx="81.3967" ry="18.6793" style="stroke:#181818;stroke-width:0.5;"/><text fill="#000000" font-family="sans-serif" font-size="14" lengthAdjust="spacing" textLength="133.957" x="316.2082" y="2466.6478">Corregir ex&#225;menes</text></g><!--entity UC32--><g class="entity" data-entity="UC32" data-source-line="62" data-uid="ent0044" id="entity_UC32"><ellipse cx="383.1907" cy="2899.0001" fill="#F1F1F1" rx="68.0007" ry="16.0001" style="stroke:#181818;stroke-width:0.5;"/><text fill="#000000" font-family="sans-serif" font-size="14" lengthAdjust="spacing" textLength="101.2949" x="332.5432" y="2903.6486">Crear profesor</text></g><!--entity UC33--><g class="entity" data-entity="UC33" data-source-line="63" data-uid="ent0045" id="entity_UC33"><ellipse cx="383.1874" cy="2831.9975" fill="#F1F1F1" rx="68.5374" ry="16.1075" style="stroke:#181818;stroke-width:0.5;"/><text fill="#000000" font-family="sans-serif" font-size="14" lengthAdjust="spacing" textLength="102.6689" x="331.853" y="2836.6459">Ver profesores</text></g><!--entity UC34--><g class="entity" data-entity="UC34" data-source-line="64" data-uid="ent0046" id="entity_UC34"><ellipse cx="383.1931" cy="3037.0026" fill="#F1F1F1" rx="69.1631" ry="16.2326" style="stroke:#181818;stroke-width:0.5;"/><text fill="#000000" font-family="sans-serif" font-size="14" lengthAdjust="spacing" textLength="104.2617" x="331.0622" y="3041.6511">Editar profesor</text></g><!--entity UC35--><g class="entity" data-entity="UC35" data-source-line="65" data-uid="ent0047" id="entity_UC35"><ellipse cx="383.1881" cy="2967.9996" fill="#F1F1F1" rx="75.5981" ry="17.5196" style="stroke:#181818;stroke-width:0.5;"/><text fill="#000000" font-family="sans-serif" font-size="14" lengthAdjust="spacing" textLength="120.1758" x="323.1002" y="2972.6481">Eliminar profesor</text></g><!--entity UC36--><g class="entity" data-entity="UC36" data-source-line="69" data-uid="ent0049" id="entity_UC36"><ellipse cx="383.1856" cy="3209.9991" fill="#F1F1F1" rx="72.6956" ry="16.9391" style="stroke:#181818;stroke-width:0.5;"/><text fill="#000000" font-family="sans-serif" font-size="14" lengthAdjust="spacing" textLength="113.0938" x="326.6387" y="3214.6476">Adquirir licencia</text></g><!--entity UC37--><g class="entity" data-entity="UC37" data-source-line="70" data-uid="ent0050" id="entity_UC37"><ellipse cx="383.1873" cy="3143.0035" fill="#F1F1F1" rx="63.2673" ry="15.0535" style="stroke:#181818;stroke-width:0.5;"/><text fill="#000000" font-family="sans-serif" font-size="14" lengthAdjust="spacing" textLength="88.8193" x="338.7776" y="3147.6519">Ver licencias</text></g><!--entity UC38--><g class="entity" data-entity="UC38" data-source-line="71" data-uid="ent0051" id="entity_UC38"><ellipse cx="383.1905" cy="3347.0041" fill="#F1F1F1" rx="67.1205" ry="15.8241" style="stroke:#181818;stroke-width:0.5;"/><text fill="#000000" font-family="sans-serif" font-size="14" lengthAdjust="spacing" textLength="99.0254" x="333.6778" y="3351.6525">Editar licencia</text></g><!--entity UC39--><g class="entity" data-entity="UC39" data-source-line="72" data-uid="ent0052" id="entity_UC39"><ellipse cx="383.1864" cy="3278.9993" fill="#F1F1F1" rx="73.4464" ry="17.0893" style="stroke:#181818;stroke-width:0.5;"/><text fill="#000000" font-family="sans-serif" font-size="14" lengthAdjust="spacing" textLength="114.9395" x="325.7167" y="3283.6477">Eliminar licencia</text></g><!--entity UC40--><g class="entity" data-entity="UC40" data-source-line="76" data-uid="ent0054" id="entity_UC40"><ellipse cx="383.1879" cy="2714.0036" fill="#F1F1F1" rx="121.3679" ry="26.6736" style="stroke:#181818;stroke-width:0.5;"/><text fill="#000000" font-family="sans-serif" font-size="14" lengthAdjust="spacing" textLength="222.2705" x="272.0527" y="2718.652">Cerrar sesi&#243;n autom&#225;ticamente</text></g><!--entity UC41--><g class="entity" data-entity="UC41" data-source-line="77" data-uid="ent0055" id="entity_UC41"><ellipse cx="383.1911" cy="2637.0042" fill="#F1F1F1" rx="64.3711" ry="15.2742" style="stroke:#181818;stroke-width:0.5;"/><text fill="#000000" font-family="sans-serif" font-size="14" lengthAdjust="spacing" textLength="91.793" x="337.2946" y="2641.6527">Iniciar sesi&#243;n</text></g><!--entity UC42--><g class="entity" data-entity="UC42" data-source-line="78" data-uid="ent0056" id="entity_UC42"><ellipse cx="383.1946" cy="2571.0009" fill="#F1F1F1" rx="64.9046" ry="15.3809" style="stroke:#181818;stroke-width:0.5;"/><text fill="#000000" font-family="sans-serif" font-size="14" lengthAdjust="spacing" textLength="93.2148" x="336.5872" y="2575.6494">Cerrar sesi&#243;n</text></g><!--entity doc--><g class="entity" data-entity="doc" data-source-line="3" data-uid="ent0002" id="entity_doc"><ellipse cx="100.5259" cy="1249.35" fill="#F1F1F1" rx="8" ry="8" style="stroke:#181818;stroke-width:0.5;"/><path d="M100.5259,1257.35 L100.5259,1284.35 M87.5259,1265.35 L113.5259,1265.35 M100.5259,1284.35 L87.5259,1299.35 M100.5259,1284.35 L113.5259,1299.35" fill="none" style="stroke:#181818;stroke-width:0.5;"/><text fill="#000000" font-family="sans-serif" font-size="14" lengthAdjust="spacing" textLength="58.6318" x="71.21" y="1313.8451">Docente</text></g><!--entity admin--><g class="entity" data-entity="admin" data-source-line="4" data-uid="ent0003" id="entity_admin"><ellipse cx="100.5308" cy="2972.35" fill="#F1F1F1" rx="8" ry="8" style="stroke:#181818;stroke-width:0.5;"/><path d="M100.5308,2980.35 L100.5308,3007.35 M87.5308,2988.35 L113.5308,2988.35 M100.5308,3007.35 L87.5308,3022.35 M100.5308,3007.35 L113.5308,3022.35" fill="none" style="stroke:#181818;stroke-width:0.5;"/><text fill="#000000" font-family="sans-serif" font-size="14" lengthAdjust="spacing" textLength="189.0615" x="6" y="3036.8451">Administrador Institucional</text></g><!--entity tiempo--><g class="entity" data-entity="tiempo" data-source-line="5" data-uid="ent0004" id="entity_tiempo"><ellipse cx="100.5323" cy="2684.35" fill="#F1F1F1" rx="8" ry="8" style="stroke:#181818;stroke-width:0.5;"/><path d="M100.5323,2692.35 L100.5323,2719.35 M87.5323,2700.35 L113.5323,2700.35 M100.5323,2719.35 L87.5323,2734.35 M100.5323,2719.35 L113.5323,2734.35" fill="none" style="stroke:#181818;stroke-width:0.5;"/><text fill="#000000" font-family="sans-serif" font-size="14" lengthAdjust="spacing" textLength="52.1445" x="74.46" y="2748.8451">Tiempo</text></g><!--link doc to UC1--><g class="link" data-entity-1="doc" data-entity-2="UC1" data-source-line="81" data-uid="lnk57" id="link_doc_UC1"><path d="M103.32,1240.53 C112.41,1052.33 156.05,234.44 231.06,152 C253.89,126.91 285.0694,119.1357 316.8294,117.3557" fill="none" id="doc-to-UC1" style="stroke:#181818;stroke-width:1;"/><polygon fill="#181818" points="322.82,117.02,313.6103,113.5299,317.8278,117.2998,314.0579,121.5174,322.82,117.02" style="stroke:#181818;stroke-width:1;"/></g><!--link doc to UC2--><g class="link" data-entity-1="doc" data-entity-2="UC2" data-source-line="82" data-uid="lnk58" id="link_doc_UC2"><path d="M103.07,1240.63 C111.19,1046.2 151.8,175.64 231.06,88 C254.9,61.64 288.5443,54.2273 321.2543,52.9873" fill="none" id="doc-to-UC2" style="stroke:#181818;stroke-width:1;"/><polygon fill="#181818" points="327.25,52.76,318.1049,49.1038,322.2536,52.9494,318.408,57.0981,327.25,52.76" style="stroke:#181818;stroke-width:1;"/></g><!--link doc to UC3--><g class="link" data-entity-1="doc" data-entity-2="UC3" data-source-line="83" data-uid="lnk59" id="link_doc_UC3"><path d="M102.05,1240.45 C104.88,1081.22 122.7,476.1 231.06,326 C256.03,291.42 295.911,273.8934 330.531,263.7734" fill="none" id="doc-to-UC3" style="stroke:#181818;stroke-width:1;"/><polygon fill="#181818" points="336.29,262.09,326.5292,260.7758,331.4908,263.4929,328.7738,268.4545,336.29,262.09" style="stroke:#181818;stroke-width:1;"/></g><!--link doc to UC4--><g class="link" data-entity-1="doc" data-entity-2="UC4" data-source-line="84" data-uid="lnk60" id="link_doc_UC4"><path d="M103.64,1240.48 C113.91,1059.29 161.03,297.38 231.06,220 C251.99,196.87 279.022,188.3384 308.842,185.2484" fill="none" id="doc-to-UC4" style="stroke:#181818;stroke-width:1;"/><polygon fill="#181818" points="314.81,184.63,305.4457,181.5789,309.8366,185.1453,306.2702,189.5363,314.81,184.63" style="stroke:#181818;stroke-width:1;"/></g><!--link doc to UC5--><g class="link" data-entity-1="doc" data-entity-2="UC5" data-source-line="85" data-uid="lnk61" id="link_doc_UC5"><path d="M102.14,1240.49 C105.27,1094.56 123.84,578.02 231.06,463 C250.71,441.92 274.4011,433.2039 302.2211,429.2039" fill="none" id="doc-to-UC5" style="stroke:#181818;stroke-width:1;"/><polygon fill="#181818" points="308.16,428.35,298.6823,425.6716,303.2109,429.0616,299.8209,433.5901,308.16,428.35" style="stroke:#181818;stroke-width:1;"/></g><!--link doc to UC6--><g class="link" data-entity-1="doc" data-entity-2="UC6" data-source-line="86" data-uid="lnk62" id="link_doc_UC6"><path d="M101.59,1240.39 C102.63,1086.46 114.44,518.86 231.06,393 C251.35,371.1 276.5043,362.5276 305.2343,359.0176" fill="none" id="doc-to-UC6" style="stroke:#181818;stroke-width:1;"/><polygon fill="#181818" points="311.19,358.29,301.7713,355.411,306.2269,358.8964,302.7415,363.3519,311.19,358.29" style="stroke:#181818;stroke-width:1;"/></g><!--link doc to UC7--><g class="link" data-entity-1="doc" data-entity-2="UC7" data-source-line="87" data-uid="lnk63" id="link_doc_UC7"><path d="M105.07,1240.39 C116.92,1118.16 158.62,742.12 231.06,647 C255.77,614.55 292.2997,596.6124 325.8397,585.2024" fill="none" id="doc-to-UC7" style="stroke:#181818;stroke-width:1;"/><polygon fill="#181818" points="331.52,583.27,321.7113,582.3817,326.7864,584.8803,324.2878,589.9555,331.52,583.27" style="stroke:#181818;stroke-width:1;"/></g><!--link doc to UC8--><g class="link" data-entity-1="doc" data-entity-2="UC8" data-source-line="88" data-uid="lnk64" id="link_doc_UC8"><path d="M102.81,1240.63 C108.18,1103.29 133.39,638.87 231.06,535 C249.08,515.84 269.3923,507.1634 294.9423,502.3834" fill="none" id="doc-to-UC8" style="stroke:#181818;stroke-width:1;"/><polygon fill="#181818" points="300.84,501.28,291.2579,499.0033,295.9253,502.1995,292.7291,506.8668,300.84,501.28" style="stroke:#181818;stroke-width:1;"/></g><!--link doc to UC9--><g class="link" data-entity-1="doc" data-entity-2="UC9" data-source-line="89" data-uid="lnk65" id="link_doc_UC9"><path d="M106.22,1240.67 C119.96,1134.85 163.4,842.17 231.06,777 C253.79,755.11 281.5214,746.9727 311.3314,743.9127" fill="none" id="doc-to-UC9" style="stroke:#181818;stroke-width:1;"/><polygon fill="#181818" points="317.3,743.3,307.9386,740.2399,312.3261,743.8106,308.7555,748.1981,317.3,743.3" style="stroke:#181818;stroke-width:1;"/></g><!--link doc to UC10--><g class="link" data-entity-1="doc" data-entity-2="UC10" data-source-line="90" data-uid="lnk66" id="link_doc_UC10"><path d="M104.98,1240.71 C116.14,1125.67 154.99,786.37 231.06,711 C254.24,688.03 283.483,679.9553 314.093,677.2653" fill="none" id="doc-to-UC10" style="stroke:#181818;stroke-width:1;"/><polygon fill="#181818" points="320.07,676.74,310.7544,673.5432,315.0892,677.1777,311.4547,681.5125,320.07,676.74" style="stroke:#181818;stroke-width:1;"/></g><!--link doc to UC11--><g class="link" data-entity-1="doc" data-entity-2="UC11" data-source-line="91" data-uid="lnk67" id="link_doc_UC11"><path d="M112.54,1240.8 C129.84,1186.67 168.07,1087.31 231.06,1025 C261.88,994.52 301.9236,976.2112 334.9936,964.5112" fill="none" id="doc-to-UC11" style="stroke:#181818;stroke-width:1;"/><polygon fill="#181818" points="340.65,962.51,330.8312,961.7409,335.9363,964.1777,333.4995,969.2828,340.65,962.51" style="stroke:#181818;stroke-width:1;"/></g><!--link doc to UC12--><g class="link" data-entity-1="doc" data-entity-2="UC12" data-source-line="92" data-uid="lnk68" id="link_doc_UC12"><path d="M103.65,1240.45 C109.89,1166.17 134.46,1002.99 231.06,917 C252.69,897.75 276.8699,889.4133 304.5299,885.1533" fill="none" id="doc-to-UC12" style="stroke:#181818;stroke-width:1;"/><polygon fill="#181818" points="310.46,884.24,300.956,881.6566,305.5183,885.0011,302.1738,889.5634,310.46,884.24" style="stroke:#181818;stroke-width:1;"/></g><!--link doc to UC13--><g class="link" data-entity-1="doc" data-entity-2="UC13" data-source-line="93" data-uid="lnk69" id="link_doc_UC13"><path d="M130.25,1283.09 C170.06,1288.77 237.68,1298.4034 295.07,1306.5834" fill="none" id="doc-to-UC13" style="stroke:#181818;stroke-width:1;"/><polygon fill="#181818" points="301.01,1307.43,292.6645,1302.2001,296.06,1306.7245,291.5356,1310.12,301.01,1307.43" style="stroke:#181818;stroke-width:1;"/></g><!--link doc to UC14--><g class="link" data-entity-1="doc" data-entity-2="UC14" data-source-line="94" data-uid="lnk70" id="link_doc_UC14"><path d="M130.25,1274.8 C167.27,1269.4 227.523,1260.5972 282.773,1252.5272" fill="none" id="doc-to-UC14" style="stroke:#181818;stroke-width:1;"/><polygon fill="#181818" points="288.71,1251.66,279.2264,1249.0028,283.7625,1252.3826,280.3826,1256.9188,288.71,1251.66" style="stroke:#181818;stroke-width:1;"/></g><!--link doc to UC15--><g class="link" data-entity-1="doc" data-entity-2="UC15" data-source-line="95" data-uid="lnk71" id="link_doc_UC15"><path d="M130.2,1257.06 C155.54,1238.55 194.12,1212.52 231.06,1196 C254.55,1185.5 275.5029,1178.5673 299.8929,1172.0573" fill="none" id="doc-to-UC15" style="stroke:#181818;stroke-width:1;"/><polygon fill="#181818" points="305.69,1170.51,295.9629,1168.9663,300.8591,1171.7994,298.026,1176.6957,305.69,1170.51" style="stroke:#181818;stroke-width:1;"/></g><!--link doc to UC16--><g class="link" data-entity-1="doc" data-entity-2="UC16" data-source-line="96" data-uid="lnk72" id="link_doc_UC16"><path d="M122.13,1240.38 C144.23,1202.57 182.75,1145.97 231.06,1113 C248.59,1101.04 263.6338,1094.0234 284.0738,1087.5034" fill="none" id="doc-to-UC16" style="stroke:#181818;stroke-width:1;"/><polygon fill="#181818" points="289.79,1085.68,280.0001,1084.6042,285.0265,1087.1995,282.4312,1092.2259,289.79,1085.68" style="stroke:#181818;stroke-width:1;"/></g><!--link doc to UC17--><g class="link" data-entity-1="doc" data-entity-2="UC17" data-source-line="97" data-uid="lnk73" id="link_doc_UC17"><path d="M120.91,1317.52 C142.54,1356.62 181.16,1416.09 231.06,1450 C249.19,1462.32 265.11,1469.3601 286.3,1475.5401" fill="none" id="doc-to-UC17" style="stroke:#181818;stroke-width:1;"/><polygon fill="#181818" points="292.06,1477.22,284.5399,1470.8601,287.26,1475.8201,282.3,1478.5402,292.06,1477.22" style="stroke:#181818;stroke-width:1;"/></g><!--link doc to UC18--><g class="link" data-entity-1="doc" data-entity-2="UC18" data-source-line="98" data-uid="lnk74" id="link_doc_UC18"><path d="M130.21,1299.41 C155.71,1316.84 194.53,1341.62 231.06,1358 C252.33,1367.54 270.4007,1374.0607 292.7107,1380.8607" fill="none" id="doc-to-UC18" style="stroke:#181818;stroke-width:1;"/><polygon fill="#181818" points="298.45,1382.61,291.0072,1376.1598,293.6672,1381.1522,288.6748,1383.8122,298.45,1382.61" style="stroke:#181818;stroke-width:1;"/></g><!--link doc to UC19--><g class="link" data-entity-1="doc" data-entity-2="UC19" data-source-line="99" data-uid="lnk75" id="link_doc_UC19"><path d="M101.03,1240.46 C102.15,1156.02 117.29,953.75 231.06,847 C251.19,828.11 273.5121,819.7289 300.1421,815.2789" fill="none" id="doc-to-UC19" style="stroke:#181818;stroke-width:1;"/><polygon fill="#181818" points="306.06,814.29,296.5238,811.8281,301.1284,815.1141,297.8424,819.7187,306.06,814.29" style="stroke:#181818;stroke-width:1;"/></g><!--link doc to UC20--><g class="link" data-entity-1="doc" data-entity-2="UC20" data-source-line="100" data-uid="lnk76" id="link_doc_UC20"><path d="M106.25,1317.31 C120.03,1423.07 163.6,1715.62 231.06,1781 C252.59,1801.87 278.0887,1810.2471 306.7187,1813.9171" fill="none" id="doc-to-UC20" style="stroke:#181818;stroke-width:1;"/><polygon fill="#181818" points="312.67,1814.68,304.2516,1809.5681,307.7106,1814.0443,303.2345,1817.5032,312.67,1814.68" style="stroke:#181818;stroke-width:1;"/></g><!--link doc to UC21--><g class="link" data-entity-1="doc" data-entity-2="UC21" data-source-line="101" data-uid="lnk77" id="link_doc_UC21"><path d="M100.89,1317.53 C101.69,1402.46 116.18,1606.69 231.06,1714 C253.66,1735.11 280.4927,1743.4056 309.7627,1746.9156" fill="none" id="doc-to-UC21" style="stroke:#181818;stroke-width:1;"/><polygon fill="#181818" points="315.72,1747.63,307.2603,1742.5869,310.7556,1747.0347,306.3078,1750.53,315.72,1747.63" style="stroke:#181818;stroke-width:1;"/></g><!--link doc to UC22--><g class="link" data-entity-1="doc" data-entity-2="UC22" data-source-line="102" data-uid="lnk78" id="link_doc_UC22"><path d="M103.46,1317.39 C109.38,1392.19 133.42,1557.77 231.06,1645 C253.05,1664.65 277.9442,1673.0148 306.0242,1677.1548" fill="none" id="doc-to-UC22" style="stroke:#181818;stroke-width:1;"/><polygon fill="#181818" points="311.96,1678.03,303.6397,1672.76,307.0135,1677.3007,302.4728,1680.6745,311.96,1678.03" style="stroke:#181818;stroke-width:1;"/></g><!--link doc to UC23--><g class="link" data-entity-1="doc" data-entity-2="UC23" data-source-line="103" data-uid="lnk79" id="link_doc_UC23"><path d="M112.78,1317.57 C130.25,1371.69 168.57,1470.53 231.06,1533 C260.53,1562.46 297.9796,1580.7531 330.6096,1593.1231" fill="none" id="doc-to-UC23" style="stroke:#181818;stroke-width:1;"/><polygon fill="#181818" points="336.22,1595.25,329.2224,1588.3194,331.5447,1593.4776,326.3865,1595.7999,336.22,1595.25" style="stroke:#181818;stroke-width:1;"/></g><!--link doc to UC24--><g class="link" data-entity-1="doc" data-entity-2="UC24" data-source-line="104" data-uid="lnk80" id="link_doc_UC24"><path d="M104.01,1317.64 C112.82,1442.66 146.72,1833.12 231.06,1921 C249.39,1940.1 269.9382,1948.8657 295.5982,1953.8057" fill="none" id="doc-to-UC24" style="stroke:#181818;stroke-width:1;"/><polygon fill="#181818" points="301.49,1954.94,293.4085,1949.3107,296.5802,1953.9948,291.8961,1957.1665,301.49,1954.94" style="stroke:#181818;stroke-width:1;"/></g><!--link doc to UC25--><g class="link" data-entity-1="doc" data-entity-2="UC25" data-source-line="105" data-uid="lnk81" id="link_doc_UC25"><path d="M105.03,1317.36 C116.31,1432.62 155.48,1772.63 231.06,1849 C249.56,1867.69 269.9939,1876.2583 295.5039,1881.0683" fill="none" id="doc-to-UC25" style="stroke:#181818;stroke-width:1;"/><polygon fill="#181818" points="301.4,1882.18,293.297,1876.5817,296.4866,1881.2536,291.8147,1884.4431,301.4,1882.18" style="stroke:#181818;stroke-width:1;"/></g><!--link doc to UC26--><g class="link" data-entity-1="doc" data-entity-2="UC26" data-source-line="106" data-uid="lnk82" id="link_doc_UC26"><path d="M102.13,1317.49 C105.2,1465.85 123.64,1998.31 231.06,2120 C244.24,2134.93 256.5189,2142.8807 275.4489,2149.4207" fill="none" id="doc-to-UC26" style="stroke:#181818;stroke-width:1;"/><polygon fill="#181818" points="281.12,2151.38,273.9195,2144.6604,276.3941,2149.7473,271.3072,2152.2218,281.12,2151.38" style="stroke:#181818;stroke-width:1;"/></g><!--link doc to UC27--><g class="link" data-entity-1="doc" data-entity-2="UC27" data-source-line="107" data-uid="lnk83" id="link_doc_UC27"><path d="M104.19,1317.29 C114,1449.12 151.75,1882.25 231.06,1993 C252.12,2022.41 281.3296,2040.3661 312.1796,2053.6561" fill="none" id="doc-to-UC27" style="stroke:#181818;stroke-width:1;"/><polygon fill="#181818" points="317.69,2056.03,311.0069,2048.7956,313.098,2054.0518,307.8418,2056.1428,317.69,2056.03" style="stroke:#181818;stroke-width:1;"/></g><!--link doc to UC28--><g class="link" data-entity-1="doc" data-entity-2="UC28" data-source-line="108" data-uid="lnk84" id="link_doc_UC28"><path d="M103.75,1317.65 C114.38,1496.85 162.42,2241.34 231.06,2317 C250.76,2338.71 275.1284,2347.3395 303.4584,2350.9595" fill="none" id="doc-to-UC28" style="stroke:#181818;stroke-width:1;"/><polygon fill="#181818" points="309.41,2351.72,300.9896,2346.6115,304.4503,2351.0863,299.9756,2354.547,309.41,2351.72" style="stroke:#181818;stroke-width:1;"/></g><!--link doc to UC29--><g class="link" data-entity-1="doc" data-entity-2="UC29" data-source-line="109" data-uid="lnk85" id="link_doc_UC29"><path d="M102.29,1317.43 C106.04,1473.42 126.93,2057.93 231.06,2204 C254.14,2236.37 289.2189,2254.08 322.5989,2265.42" fill="none" id="doc-to-UC29" style="stroke:#181818;stroke-width:1;"/><polygon fill="#181818" points="328.28,2267.35,321.045,2260.6676,323.5457,2265.7417,318.4717,2268.2424,328.28,2267.35" style="stroke:#181818;stroke-width:1;"/></g><!--link doc to UC31--><g class="link" data-entity-1="doc" data-entity-2="UC31" data-source-line="110" data-uid="lnk86" id="link_doc_UC31"><path d="M101.33,1317.56 C101.09,1491.93 107.79,2205.93 231.06,2384 C253.66,2416.65 288.557,2434.5662 321.977,2446.0762" fill="none" id="doc-to-UC31" style="stroke:#181818;stroke-width:1;"/><polygon fill="#181818" points="327.65,2448.03,320.4431,2441.3173,322.9225,2446.4018,317.838,2448.8813,327.65,2448.03" style="stroke:#181818;stroke-width:1;"/></g><!--link doc to UC41--><g class="link" data-entity-1="doc" data-entity-2="UC41" data-source-line="111" data-uid="lnk87" id="link_doc_UC41"><path d="M102.64,1317.48 C108.94,1525.04 143.25,2505.21 231.06,2604 C252.83,2628.49 282.187,2636.679 313.227,2639.019" fill="none" id="doc-to-UC41" style="stroke:#181818;stroke-width:1;"/><polygon fill="#181818" points="319.21,2639.47,310.5362,2634.8048,314.2241,2639.0941,309.9348,2642.7821,319.21,2639.47" style="stroke:#181818;stroke-width:1;"/></g><!--link doc to UC42--><g class="link" data-entity-1="doc" data-entity-2="UC42" data-source-line="112" data-uid="lnk88" id="link_doc_UC42"><path d="M103.43,1317.57 C113.38,1514.01 161.74,2397.97 231.06,2497 C255.1,2531.34 293.9235,2548.7479 328.4535,2558.8979" fill="none" id="doc-to-UC42" style="stroke:#181818;stroke-width:1;"/><polygon fill="#181818" points="334.21,2560.59,326.7034,2554.2142,329.413,2559.1799,324.4472,2561.8895,334.21,2560.59" style="stroke:#181818;stroke-width:1;"/></g><!--link admin to UC32--><g class="link" data-entity-1="admin" data-entity-2="UC32" data-source-line="114" data-uid="lnk89" id="link_admin_UC32"><path d="M165.84,2963.37 C186.18,2952.36 209.08,2941.16 231.06,2933 C261.57,2921.68 291.1063,2914.5845 319.9863,2909.0745" fill="none" id="admin-to-UC32" style="stroke:#181818;stroke-width:1;"/><polygon fill="#181818" points="325.88,2907.95,316.2898,2905.7076,320.9686,2908.887,317.7891,2913.5658,325.88,2907.95" style="stroke:#181818;stroke-width:1;"/></g><!--link admin to UC33--><g class="link" data-entity-1="admin" data-entity-2="UC33" data-source-line="115" data-uid="lnk90" id="link_admin_UC33"><path d="M127.78,2963.41 C151.19,2932.03 188.31,2889.15 231.06,2865 C257.48,2850.07 284.1048,2842.8443 312.2148,2838.3643" fill="none" id="admin-to-UC33" style="stroke:#181818;stroke-width:1;"/><polygon fill="#181818" points="318.14,2837.42,308.6226,2834.8863,313.2023,2838.2069,309.8817,2842.7866,318.14,2837.42" style="stroke:#181818;stroke-width:1;"/></g><!--link admin to UC34--><g class="link" data-entity-1="admin" data-entity-2="UC34" data-source-line="116" data-uid="lnk91" id="link_admin_UC34"><path d="M195.38,3013.7 C236.97,3018.89 278.7461,3024.0974 315.5461,3028.6874" fill="none" id="admin-to-UC34" style="stroke:#181818;stroke-width:1;"/><polygon fill="#181818" points="321.5,3029.43,313.0643,3024.3468,316.5384,3028.8112,312.0741,3032.2853,321.5,3029.43" style="stroke:#181818;stroke-width:1;"/></g><!--link admin to UC35--><g class="link" data-entity-1="admin" data-entity-2="UC35" data-source-line="117" data-uid="lnk92" id="link_admin_UC35"><path d="M195.38,2990.63 C234.74,2985.86 273.6436,2981.1519 309.5336,2976.8019" fill="none" id="admin-to-UC35" style="stroke:#181818;stroke-width:1;"/><polygon fill="#181818" points="315.49,2976.08,306.0741,2973.192,310.5263,2976.6816,307.0367,2981.1338,315.49,2976.08" style="stroke:#181818;stroke-width:1;"/></g><!--link admin to UC36--><g class="link" data-entity-1="admin" data-entity-2="UC36" data-source-line="118" data-uid="lnk93" id="link_admin_UC36"><path d="M119.82,3040.6 C140.91,3080.79 179.43,3142.46 231.06,3176 C255.42,3191.82 280.2016,3199.3636 307.5616,3203.9236" fill="none" id="admin-to-UC36" style="stroke:#181818;stroke-width:1;"/><polygon fill="#181818" points="313.48,3204.91,305.2601,3199.4848,308.548,3204.088,303.9449,3207.376,313.48,3204.91" style="stroke:#181818;stroke-width:1;"/></g><!--link admin to UC37--><g class="link" data-entity-1="admin" data-entity-2="UC37" data-source-line="119" data-uid="lnk94" id="link_admin_UC37"><path d="M175.37,3040.55 C193.54,3049.93 212.97,3059.89 231.06,3069 C273.59,3090.41 317.8274,3111.9501 348.2774,3126.6601" fill="none" id="admin-to-UC37" style="stroke:#181818;stroke-width:1;"/><polygon fill="#181818" points="353.68,3129.27,347.316,3121.7534,349.1778,3127.0951,343.8361,3128.9568,353.68,3129.27" style="stroke:#181818;stroke-width:1;"/></g><!--link admin to UC38--><g class="link" data-entity-1="admin" data-entity-2="UC38" data-source-line="120" data-uid="lnk95" id="link_admin_UC38"><path d="M106.07,3040.58 C116.02,3107.09 146.12,3243.01 231.06,3314 C254.55,3333.63 281.1361,3341.5776 310.0061,3345.1776" fill="none" id="admin-to-UC38" style="stroke:#181818;stroke-width:1;"/><polygon fill="#181818" points="315.96,3345.92,307.5241,3340.8371,310.9984,3345.3013,306.5342,3348.7756,315.96,3345.92" style="stroke:#181818;stroke-width:1;"/></g><!--link admin to UC39--><g class="link" data-entity-1="admin" data-entity-2="UC39" data-source-line="121" data-uid="lnk96" id="link_admin_UC39"><path d="M111.26,3040.44 C126.99,3094.49 163.33,3192.14 231.06,3244 C253.94,3261.52 278.1806,3269.5296 305.5306,3274.0596" fill="none" id="admin-to-UC39" style="stroke:#181818;stroke-width:1;"/><polygon fill="#181818" points="311.45,3275.04,303.2246,3269.6231,306.5172,3274.223,301.9173,3277.5156,311.45,3275.04" style="stroke:#181818;stroke-width:1;"/></g><!--link admin to UC41--><g class="link" data-entity-1="admin" data-entity-2="UC41" data-source-line="122" data-uid="lnk97" id="link_admin_UC41"><path d="M117.53,2963.59 C136.52,2917.72 168.91,2838.57 195.06,2770 C211.9,2725.86 195.55,2701.15 231.06,2670 C254.88,2649.1 282.8856,2641.1127 312.5856,2637.8627" fill="none" id="admin-to-UC41" style="stroke:#181818;stroke-width:1;"/><polygon fill="#181818" points="318.55,2637.21,309.1683,2634.2127,313.5797,2637.7539,310.0385,2642.1653,318.55,2637.21" style="stroke:#181818;stroke-width:1;"/></g><!--link admin to UC42--><g class="link" data-entity-1="admin" data-entity-2="UC42" data-source-line="123" data-uid="lnk98" id="link_admin_UC42"><path d="M119.3,2963.73 C139.84,2918.32 173.55,2839.94 195.06,2770 C217.25,2697.84 177.72,2657.42 231.06,2604 C253.64,2581.39 281.9168,2573.2361 312.0968,2570.3761" fill="none" id="admin-to-UC42" style="stroke:#181818;stroke-width:1;"/><polygon fill="#181818" points="318.07,2569.81,308.7328,2566.6769,313.0923,2570.2817,309.4875,2574.6412,318.07,2569.81" style="stroke:#181818;stroke-width:1;"/></g><!--link tiempo to UC40--><g class="link" data-entity-1="tiempo" data-entity-2="UC40" data-source-line="125" data-uid="lnk99" id="link_tiempo_UC40"><path d="M126.93,2714 C157.56,2714 205.21,2714 255.44,2714" fill="none" id="tiempo-to-UC40" style="stroke:#181818;stroke-width:1;"/><polygon fill="#181818" points="261.44,2714,252.44,2710,256.44,2714,252.44,2718,261.44,2714" style="stroke:#181818;stroke-width:1;"/></g><!--SRC=[XLRRYjim47ttLuYyBqJoBNafX6m8WHOAxVPTjHLNrB5IIOQ5fH-ptx2Va1-hV8j7zZXzc_4vS-P86jaknTaIguYMnIzBSgb5PgMgWe1dLccoUbQPgAnO4Mv8hhBXyIw_o4eQgtdkqbDbhBHrvWfvsL9vWm_axr9ShgfzRjim2Auy-yqBGLPVRXzvNIfoR9HMv2qWf3OYuyPXUosu9aM7kEANFONm3z63faSPH0-vj9FgqCDBwInE657m5_6sCxAekAqrHmro0BSgyTJbo1Yi9eZLcKwA-ftHDhZfihvK-8xo7cghjpEpBJeOfMlCAHIW5BVfSRoZERaHqAFElTNsmUutioNCP3aTDEWGxi-ATzpFmd2VdGkV7c7ABSC9ppQTnWlgNOKJdvSa3xtF-Ub_5p2lmOVXADm5lNrKJSrNBOgwijoWit7jqU5AhQVZSHtBEmP51cIgmj0HcR92T4Xc3Rs3EhmkqM9q9_QgEil2RLZMxiTHL48txwmtL3JpsKMfVlOlEDSWGUq-B4bHJuTNVX4LUXoYXSHzKHjiXAQaxSBAjNkvjwwchHgaa8tGxHqgXHHLUZ4rrr8PqdySbYP9dOLHUj1Yyqdg26Ex41qbNoPQ62MV5J- -1f-bCvx9sHtOvNzggTrEb3rXq4kcvijHeMEaYFUfoWRrFcNXn_TD6EpeXDPEmdGWuRLLbzkxbLap4VrdsttMl5jyggJhTYyQE7HPTw2mnfdx2o1FJv_Qh_4OCn2788v078Cu0N4AuWs8jx3N6YQmCuMjAUnDONCAkrFOdiB-51gWq0633fYtTkY0GGSCEc3G0OCE67J0e0C67OImQUGbpFsmDRzS0vFvQUYdaP_6VfhuQUgd6p_TUgapvQNELlV7DpnO_mC0]--></g></svg>