<svg xmlns="http://www.w3.org/2000/svg" xmlns:xlink="http://www.w3.org/1999/xlink" contentStyleType="text/css" data-diagram-type="DESCRIPTION" height="118px" preserveAspectRatio="none" style="width:383px;height:118px;background:#FFFFFF;" version="1.1" viewBox="0 0 383 118" width="383px" zoomAndPan="magnify"><defs/><g><!--cluster M?dulo Sesi?n--><g class="cluster" data-entity="M.dulo Sesi.n" data-source-line="5" data-uid="ent0003" id="cluster_M.dulo Sesi.n"><path d="M104.64,6 L220.764,6 A3.75,3.75 0 0 1 223.264,8.5 L230.264,28.2969 L374.38,28.2969 A2.5,2.5 0 0 1 376.88,30.7969 L376.88,108.5 A2.5,2.5 0 0 1 374.38,111 L104.64,111 A2.5,2.5 0 0 1 102.14,108.5 L102.14,8.5 A2.5,2.5 0 0 1 104.64,6" fill="none" style="stroke:#000000;stroke-width:1.5;"/><line style="stroke:#000000;stroke-width:1.5;" x1="102.14" x2="230.264" y1="28.2969" y2="28.2969"/><text fill="#000000" font-family="sans-serif" font-size="14" font-weight="bold" lengthAdjust="spacing" textLength="115.124" x="106.14" y="20.9951">M&#243;dulo Sesi&#243;n</text></g><!--entity UC40--><g class="entity" data-entity="UC40" data-source-line="6" data-uid="ent0004" id="entity_UC40"><ellipse cx="239.5079" cy="68.0036" fill="#F1F1F1" rx="121.3679" ry="26.6736" style="stroke:#181818;stroke-width:0.5;"/><text fill="#000000" font-family="sans-serif" font-size="14" lengthAdjust="spacing" textLength="222.2705" x="128.3727" y="72.652">Cerrar sesi&#243;n autom&#225;ticamente</text></g><!--entity tiempo--><g class="entity" data-entity="tiempo" data-source-line="3" data-uid="ent0002" id="entity_tiempo"><ellipse cx="32.0723" cy="38.35" fill="#F1F1F1" rx="8" ry="8" style="stroke:#181818;stroke-width:0.5;"/><path d="M32.0723,46.35 L32.0723,73.35 M19.0723,54.35 L45.0723,54.35 M32.0723,73.35 L19.0723,88.35 M32.0723,73.35 L45.0723,88.35" fill="none" style="stroke:#181818;stroke-width:0.5;"/><text fill="#000000" font-family="sans-serif" font-size="14" lengthAdjust="spacing" textLength="52.1445" x="6" y="102.8451">Tiempo</text></g><!--link tiempo to UC40--><g class="link" data-entity-1="tiempo" data-entity-2="UC40" data-source-line="9" data-uid="lnk5" id="link_tiempo_UC40"><path d="M58.26,68 C73.91,68 89.29,68 111.86,68" fill="none" id="tiempo-to-UC40" style="stroke:#181818;stroke-width:1;"/><polygon fill="#181818" points="117.86,68,108.86,64,112.86,68,108.86,72,117.86,68" style="stroke:#181818;stroke-width:1;"/></g><!--SRC=[9Oon3S8m44Nxc-BBVIGAQfhKLC009-S85h4liiyLoZ3Ca16y6CZfdjwJtY9FWoboc5-6AMJn5ZGHiJVDSFSWSLK7Bh2EH2lxDyy2TstxL1V5JKfeUtBu452BU2x_EahEd56E2AwciNqjU8wIJFhoCPvFj14TQmp3fQiV]--></g></svg>