<svg xmlns="http://www.w3.org/2000/svg" xmlns:xlink="http://www.w3.org/1999/xlink" contentStyleType="text/css" data-diagram-type="SALT" height="475px" preserveAspectRatio="none" style="width:311px;height:475px;background:#FFFFFF;" version="1.1" viewBox="0 0 311 475" width="311px" zoomAndPan="magnify"><defs/><g><text fill="#000000" font-family="sans-serif" font-size="12" font-weight="bold" lengthAdjust="spacing" textLength="133.7578" x="6" y="17.1387">EXPORTAR GRADOS</text><line style="stroke:#AAAAAA;stroke-width:1;" x1="6" x2="304" y1="24.4688" y2="24.4688"/><line style="stroke:#AAAAAA;stroke-width:1;" x1="6" x2="304" y1="26.4688" y2="26.4688"/><text fill="#000000" font-family="sans-serif" font-size="12" font-weight="bold" lengthAdjust="spacing" textLength="128.3145" x="6" y="57.0762">1. Selecci&#243;n Actual</text><text fill="#000000" font-family="sans-serif" font-size="12" font-style="italic" lengthAdjust="spacing" textLength="273.2168" x="6" y="73.0449">Ha seleccionado 3 titulaciones para exportar.</text><text fill="#000000" font-family="sans-serif" font-size="12" font-weight="bold" lengthAdjust="spacing" textLength="46.5879" x="7" y="105.9824">C&#243;digo</text><text fill="#000000" font-family="sans-serif" font-size="12" font-weight="bold" lengthAdjust="spacing" textLength="38.9355" x="55.5879" y="105.9824">T&#237;tulo</text><text fill="#000000" font-family="sans-serif" font-size="12" font-weight="bold" lengthAdjust="spacing" textLength="26.0742" x="211.8184" y="105.9824">A&#241;o</text><text fill="#000000" font-family="sans-serif" font-size="12" lengthAdjust="spacing" textLength="33.0469" x="7" y="121.9512">G-INF</text><text fill="#000000" font-family="sans-serif" font-size="12" lengthAdjust="spacing" textLength="154.2305" x="55.5879" y="121.9512">Grado en Ing. Inform&#225;tica</text><text fill="#000000" font-family="sans-serif" font-size="12" lengthAdjust="spacing" textLength="65.4082" x="211.8184" y="121.9512">2024-2025</text><text fill="#000000" font-family="sans-serif" font-size="12" lengthAdjust="spacing" textLength="40.8047" x="7" y="137.9199">G-MED</text><text fill="#000000" font-family="sans-serif" font-size="12" lengthAdjust="spacing" textLength="112.7402" x="55.5879" y="137.9199">Grado en Medicina</text><text fill="#000000" font-family="sans-serif" font-size="12" lengthAdjust="spacing" textLength="65.4082" x="211.8184" y="137.9199">2024-2025</text><text fill="#000000" font-family="sans-serif" font-size="12" lengthAdjust="spacing" textLength="31.541" x="7" y="153.8887">M-DS</text><text fill="#000000" font-family="sans-serif" font-size="12" lengthAdjust="spacing" textLength="142.582" x="55.5879" y="153.8887">M&#225;ster en Data Science</text><text fill="#000000" font-family="sans-serif" font-size="12" lengthAdjust="spacing" textLength="65.4082" x="211.8184" y="153.8887">2024-2025</text><line style="stroke:#000000;stroke-width:1;" x1="6" x2="54.5879" y1="93.8438" y2="93.8438"/><line style="stroke:#000000;stroke-width:1;" x1="210.8184" x2="278.2266" y1="125.7813" y2="125.7813"/><line style="stroke:#000000;stroke-width:1;" x1="54.5879" x2="210.8184" y1="93.8438" y2="93.8438"/><line style="stroke:#000000;stroke-width:1;" x1="210.8184" x2="278.2266" y1="93.8438" y2="93.8438"/><line style="stroke:#000000;stroke-width:1;" x1="6" x2="54.5879" y1="141.75" y2="141.75"/><line style="stroke:#000000;stroke-width:1;" x1="54.5879" x2="210.8184" y1="141.75" y2="141.75"/><line style="stroke:#000000;stroke-width:1;" x1="6" x2="54.5879" y1="109.8125" y2="109.8125"/><line style="stroke:#000000;stroke-width:1;" x1="210.8184" x2="278.2266" y1="141.75" y2="141.75"/><line style="stroke:#000000;stroke-width:1;" x1="54.5879" x2="210.8184" y1="109.8125" y2="109.8125"/><line style="stroke:#000000;stroke-width:1;" x1="210.8184" x2="278.2266" y1="109.8125" y2="109.8125"/><line style="stroke:#000000;stroke-width:1;" x1="6" x2="54.5879" y1="157.7188" y2="157.7188"/><line style="stroke:#000000;stroke-width:1;" x1="54.5879" x2="210.8184" y1="157.7188" y2="157.7188"/><line style="stroke:#000000;stroke-width:1;" x1="210.8184" x2="278.2266" y1="157.7188" y2="157.7188"/><line style="stroke:#000000;stroke-width:1;" x1="6" x2="54.5879" y1="125.7813" y2="125.7813"/><line style="stroke:#000000;stroke-width:1;" x1="54.5879" x2="210.8184" y1="125.7813" y2="125.7813"/><line style="stroke:#000000;stroke-width:1;" x1="6" x2="6" y1="93.8438" y2="109.8125"/><line style="stroke:#000000;stroke-width:1;" x1="210.8184" x2="210.8184" y1="125.7813" y2="141.75"/><line style="stroke:#000000;stroke-width:1;" x1="278.2266" x2="278.2266" y1="125.7813" y2="141.75"/><line style="stroke:#000000;stroke-width:1;" x1="54.5879" x2="54.5879" y1="93.8438" y2="109.8125"/><line style="stroke:#000000;stroke-width:1;" x1="210.8184" x2="210.8184" y1="93.8438" y2="109.8125"/><line style="stroke:#000000;stroke-width:1;" x1="278.2266" x2="278.2266" y1="93.8438" y2="109.8125"/><line style="stroke:#000000;stroke-width:1;" x1="6" x2="6" y1="141.75" y2="157.7188"/><line style="stroke:#000000;stroke-width:1;" x1="54.5879" x2="54.5879" y1="141.75" y2="157.7188"/><line style="stroke:#000000;stroke-width:1;" x1="6" x2="6" y1="109.8125" y2="125.7813"/><line style="stroke:#000000;stroke-width:1;" x1="210.8184" x2="210.8184" y1="141.75" y2="157.7188"/><line style="stroke:#000000;stroke-width:1;" x1="278.2266" x2="278.2266" y1="141.75" y2="157.7188"/><line style="stroke:#000000;stroke-width:1;" x1="54.5879" x2="54.5879" y1="109.8125" y2="125.7813"/><line style="stroke:#000000;stroke-width:1;" x1="210.8184" x2="210.8184" y1="109.8125" y2="125.7813"/><line style="stroke:#000000;stroke-width:1;" x1="278.2266" x2="278.2266" y1="109.8125" y2="125.7813"/><line style="stroke:#000000;stroke-width:1;" x1="6" x2="6" y1="125.7813" y2="141.75"/><line style="stroke:#000000;stroke-width:1;" x1="54.5879" x2="54.5879" y1="125.7813" y2="141.75"/><rect fill="#EEEEEE" height="17.9688" rx="5" ry="5" style="stroke:#000000;stroke-width:2.5;" width="292" x="8.5" y="178.1875"/><path d="M64.0625,183.1563 L63.0625,184.1563 L65.0625,186.1563 L66.0625,185.1563 L64.0625,183.1563 M62.0625,185.1563 L58.0625,189.1563 L58.0625,191.1563 L60.0625,191.1563 L64.0625,187.1563 L62.0625,185.1563" fill="#000000"/><text fill="#000000" font-family="sans-serif" font-size="12" lengthAdjust="spacing" textLength="181.0605" x="70.877" y="191.3262">Editar selecci&#243;n (Volver atr&#225;s)</text><line style="stroke:#AAAAAA;stroke-width:1;" x1="6" x2="304" y1="220.125" y2="220.125"/><text fill="#000000" font-family="sans-serif" font-size="12" font-weight="bold" lengthAdjust="spacing" textLength="216.7969" x="6" y="251.7324">2. Configuraci&#243;n de Exportaci&#243;n</text><text fill="#000000" font-family="sans-serif" font-size="12" lengthAdjust="spacing" textLength="112.1836" x="6" y="267.7012">Formato de salida:</text><text fill="#000000" font-family="sans-serif" font-size="12" lengthAdjust="spacing" textLength="182.4902" x="6" y="283.6699">(o) Excel (.xlsx) - Estructurado</text><text fill="#000000" font-family="sans-serif" font-size="12" lengthAdjust="spacing" textLength="108.3105" x="26" y="299.6387">CSV (Texto plano)</text><ellipse cx="13" cy="295.4844" fill="none" rx="5" ry="5" style="stroke:#000000;stroke-width:1.5;"/><text fill="#000000" font-family="sans-serif" font-size="12" lengthAdjust="spacing" textLength="223.2363" x="26" y="315.6074">XML (Integraci&#243;n con otros sistemas)</text><ellipse cx="13" cy="311.4531" fill="none" rx="5" ry="5" style="stroke:#000000;stroke-width:1.5;"/><text fill="#000000" font-family="sans-serif" font-size="12" lengthAdjust="spacing" textLength="115.5176" x="6" y="347.5449">Opciones de datos:</text><text fill="#000000" font-family="sans-serif" font-size="12" lengthAdjust="spacing" textLength="195.832" x="26" y="363.5137">Incluir estructura de asignaturas</text><rect fill="none" height="10" style="stroke:#000000;stroke-width:1.5;" width="10" x="8" y="354.3594"/><polygon fill="#000000" points="9,358.375,12,361.375,19,352.375,12,359.375" style="stroke:#000000;stroke-width:1.5;"/><text fill="#000000" font-family="sans-serif" font-size="12" lengthAdjust="spacing" textLength="213.4453" x="26" y="379.4824">Incluir metadatos de coordinadores</text><rect fill="none" height="10" style="stroke:#000000;stroke-width:1.5;" width="10" x="8" y="370.3281"/><line style="stroke:#AAAAAA;stroke-width:1;" x1="6" x2="304" y1="402.7813" y2="402.7813"/><line style="stroke:#AAAAAA;stroke-width:1;" x1="6" x2="304" y1="404.7813" y2="404.7813"/><text fill="#000000" font-family="sans-serif" font-size="12" lengthAdjust="spacing" textLength="157.2129" x="9" y="435.3887">Confirmaci&#243;n del proceso:</text><line style="stroke:#000000;stroke-width:1;" x1="7" x2="210" y1="438.2188" y2="438.2188"/><line style="stroke:#000000;stroke-width:1;" x1="7" x2="7" y1="435.2188" y2="437.2188"/><line style="stroke:#000000;stroke-width:1;" x1="210" x2="210" y1="435.2188" y2="437.2188"/><rect fill="#EEEEEE" height="17.9688" rx="5" ry="5" style="stroke:#000000;stroke-width:2.5;" width="100" x="9.5" y="445.7188"/><text fill="#000000" font-family="sans-serif" font-size="12" lengthAdjust="spacing" textLength="64.9746" x="27.0127" y="458.8574">X Cancelar</text><rect fill="#EEEEEE" height="17.9688" rx="5" ry="5" style="stroke:#000000;stroke-width:2.5;" width="156" x="116.5" y="445.7188"/><text fill="#000000" font-family="sans-serif" font-size="12" lengthAdjust="spacing" textLength="118.2891" x="135.3555" y="458.8574">^Exportar Grados^</text><line style="stroke:#000000;stroke-width:1;" x1="5" x2="304" y1="5" y2="5"/><line style="stroke:#000000;stroke-width:1;" x1="5" x2="304" y1="468.1875" y2="468.1875"/><line style="stroke:#000000;stroke-width:1;" x1="5" x2="5" y1="5" y2="20.9688"/><line style="stroke:#000000;stroke-width:1;" x1="304" x2="304" y1="5" y2="20.9688"/><line style="stroke:#000000;stroke-width:1;" x1="5" x2="5" y1="223.625" y2="239.5938"/><line style="stroke:#000000;stroke-width:1;" x1="304" x2="304" y1="223.625" y2="239.5938"/><line style="stroke:#000000;stroke-width:1;" x1="5" x2="5" y1="399.2813" y2="407.2813"/><line style="stroke:#000000;stroke-width:1;" x1="304" x2="304" y1="399.2813" y2="407.2813"/><line style="stroke:#000000;stroke-width:1;" x1="5" x2="5" y1="44.9375" y2="60.9063"/><line style="stroke:#000000;stroke-width:1;" x1="304" x2="304" y1="44.9375" y2="60.9063"/><line style="stroke:#000000;stroke-width:1;" x1="5" x2="5" y1="271.5313" y2="287.5"/><line style="stroke:#000000;stroke-width:1;" x1="304" x2="304" y1="271.5313" y2="287.5"/><line style="stroke:#000000;stroke-width:1;" x1="5" x2="5" y1="441.2188" y2="468.1875"/><line style="stroke:#000000;stroke-width:1;" x1="304" x2="304" y1="441.2188" y2="468.1875"/><line style="stroke:#000000;stroke-width:1;" x1="5" x2="5" y1="92.8438" y2="158.7188"/><line style="stroke:#000000;stroke-width:1;" x1="304" x2="304" y1="92.8438" y2="158.7188"/><line style="stroke:#000000;stroke-width:1;" x1="5" x2="5" y1="319.4375" y2="335.4063"/><line style="stroke:#000000;stroke-width:1;" x1="304" x2="304" y1="319.4375" y2="335.4063"/><line style="stroke:#000000;stroke-width:1;" x1="5" x2="5" y1="199.6563" y2="215.625"/><line style="stroke:#000000;stroke-width:1;" x1="304" x2="304" y1="199.6563" y2="215.625"/><line style="stroke:#000000;stroke-width:1;" x1="5" x2="5" y1="367.3438" y2="383.3125"/><line style="stroke:#000000;stroke-width:1;" x1="304" x2="304" y1="367.3438" y2="383.3125"/><line style="stroke:#000000;stroke-width:1;" x1="5" x2="5" y1="20.9688" y2="28.9688"/><line style="stroke:#000000;stroke-width:1;" x1="304" x2="304" y1="20.9688" y2="28.9688"/><line style="stroke:#000000;stroke-width:1;" x1="5" x2="5" y1="239.5938" y2="255.5625"/><line style="stroke:#000000;stroke-width:1;" x1="304" x2="304" y1="239.5938" y2="255.5625"/><line style="stroke:#000000;stroke-width:1;" x1="5" x2="5" y1="407.2813" y2="423.25"/><line style="stroke:#000000;stroke-width:1;" x1="304" x2="304" y1="407.2813" y2="423.25"/><line style="stroke:#000000;stroke-width:1;" x1="5" x2="5" y1="60.9063" y2="76.875"/><line style="stroke:#000000;stroke-width:1;" x1="304" x2="304" y1="60.9063" y2="76.875"/><line style="stroke:#000000;stroke-width:1;" x1="5" x2="5" y1="287.5" y2="303.4688"/><line style="stroke:#000000;stroke-width:1;" x1="304" x2="304" y1="287.5" y2="303.4688"/><line style="stroke:#000000;stroke-width:1;" x1="5" x2="5" y1="158.7188" y2="174.6875"/><line style="stroke:#000000;stroke-width:1;" x1="304" x2="304" y1="158.7188" y2="174.6875"/><line style="stroke:#000000;stroke-width:1;" x1="5" x2="5" y1="335.4063" y2="351.375"/><line style="stroke:#000000;stroke-width:1;" x1="304" x2="304" y1="335.4063" y2="351.375"/><line style="stroke:#000000;stroke-width:1;" x1="5" x2="5" y1="215.625" y2="223.625"/><line style="stroke:#000000;stroke-width:1;" x1="304" x2="304" y1="215.625" y2="223.625"/><line style="stroke:#000000;stroke-width:1;" x1="5" x2="5" y1="383.3125" y2="399.2813"/><line style="stroke:#000000;stroke-width:1;" x1="304" x2="304" y1="383.3125" y2="399.2813"/><line style="stroke:#000000;stroke-width:1;" x1="5" x2="5" y1="28.9688" y2="44.9375"/><line style="stroke:#000000;stroke-width:1;" x1="304" x2="304" y1="28.9688" y2="44.9375"/><line style="stroke:#000000;stroke-width:1;" x1="5" x2="5" y1="255.5625" y2="271.5313"/><line style="stroke:#000000;stroke-width:1;" x1="304" x2="304" y1="255.5625" y2="271.5313"/><line style="stroke:#000000;stroke-width:1;" x1="5" x2="5" y1="423.25" y2="441.2188"/><line style="stroke:#000000;stroke-width:1;" x1="304" x2="304" y1="423.25" y2="441.2188"/><line style="stroke:#000000;stroke-width:1;" x1="5" x2="5" y1="76.875" y2="92.8438"/><line style="stroke:#000000;stroke-width:1;" x1="304" x2="304" y1="76.875" y2="92.8438"/><line style="stroke:#000000;stroke-width:1;" x1="5" x2="5" y1="303.4688" y2="319.4375"/><line style="stroke:#000000;stroke-width:1;" x1="304" x2="304" y1="303.4688" y2="319.4375"/><line style="stroke:#000000;stroke-width:1;" x1="5" x2="5" y1="174.6875" y2="199.6563"/><line style="stroke:#000000;stroke-width:1;" x1="304" x2="304" y1="174.6875" y2="199.6563"/><line style="stroke:#000000;stroke-width:1;" x1="5" x2="5" y1="351.375" y2="367.3438"/><line style="stroke:#000000;stroke-width:1;" x1="304" x2="304" y1="351.375" y2="367.3438"/><!--SRC=[RLJXRjem4FwVfpXrqfHeIWgCJbi4g0m2XJLj1PGXLUta9cvaoTZ8TX1JruVf0-p7r4VWnNPEWARQ_CEHxxxxxlpTEQVQ46KquGRePYKLdeQAf5B_-3wQH8D9DuwSnmyEu6hTTwB5rULarft0SDBjNqvRn_UTmjLkjujli0VM0vXIJfE4RLy4T1EJ4tv0jrZdZ80k_L9WDlW8XfcS4tkc6bP4aKCzGUkOTIhqZ- -ApovJR_kIianQSlXb3RFjRsIg6BhRF_AGswwXFxeOeA-uA5018v45k3r8jTm-6vOGT3PgZQQFsqabB8xwrR2OfYnXul_esEzF0JtnzbaRgYo-Jmo1QSAeIEW_CK-L6zv0w_qAKOnt84ePQh1NowhfpYLV8oCn2hazkAr4-lxRFZG2w4dnmB9SaJ8wfH2LmXRdWp03l3mnqlfn6bXAmiBiIW_n2UNW1XkkDnxu46cZScofrQ44WGUzwHpS6TqWnOeJ8Rs3Pn6VWpiIXcRx6X8fG1ebDMY6uYo9zYfbNwvsKu2bf5YIBYkvMTnYZnAUCnJpK8454SqoGUn9x-HxHIwf8GM91IPIgfJPWLDKLpAstyxlKI4Poh5NZCDAoOHg6HwL4uWf5j0Zs4UElRd5Pjx0tKvMLGw8laFxa_Fad5AHslVbE5UeYxb6DR1x6gy8zS2sFwZNt5bEuKAkeTQ4UYrirCBc5uYdCpiZ9vxZ3g_EGSjSuToag9XYzxb10iyPapM1IIuCMz8GbQDYtF-sDq0aran9iQJ2EEDv_0hurFI_CeDFLDb1ciTEdpwG7Fy1aKWaAfI5S3qR-9-TSoAod6J8JONJayYhVeOWSix_0W00]--></g></svg>