<svg xmlns="http://www.w3.org/2000/svg" xmlns:xlink="http://www.w3.org/1999/xlink" contentStyleType="text/css" data-diagram-type="STATE" height="896px" preserveAspectRatio="none" style="width:958px;height:896px;background:#FFFFFF;" version="1.1" viewBox="0 0 958 896" width="958px" zoomAndPan="magnify"><defs/><g><g id="ALUMNOS_ABIERTO2"><rect fill="#F1F1F1" height="50" rx="12.5" ry="12.5" style="stroke:#181818;stroke-width:0.5;" width="158.5371" x="396.5" y="840"/><line style="stroke:#181818;stroke-width:0.5;" x1="396.5" x2="555.0371" y1="866.2969" y2="866.2969"/><text fill="#000000" font-family="sans-serif" font-size="14" lengthAdjust="spacing" textLength="138.5371" x="406.5" y="857.9951">ALUMNOS_ABIERTO</text></g><path d="M19.5,117 L932.0805,117 A12.5,12.5 0 0 1 944.5805,129.5 L944.5805,143.2969 L7,143.2969 L7,129.5 A12.5,12.5 0 0 1 19.5,117" fill="#F1F1F1"/><rect fill="none" height="663.2969" rx="12.5" ry="12.5" style="stroke:#181818;stroke-width:0.5;" width="937.5805" x="7" y="117"/><line style="stroke:#181818;stroke-width:0.5;" x1="7" x2="944.5805" y1="143.2969" y2="143.2969"/><text fill="#000000" font-family="sans-serif" font-size="14" lengthAdjust="spacing" textLength="132.1934" x="409.6936" y="134.9951">importarAlumnos()</text><g id="importarAlumnos.RequiringImport"><rect fill="#F1F1F1" height="50" rx="12.5" ry="12.5" style="stroke:#181818;stroke-width:0.5;" width="50" x="303.5805" y="245.2969"/><line style="stroke:#181818;stroke-width:0.5;" x1="303.5805" x2="353.5805" y1="271.5938" y2="271.5938"/><text fill="#000000" font-family="sans-serif" font-size="14" lengthAdjust="spacing" textLength="4.4502" x="326.3554" y="263.292">&#160;</text></g><g id="importarAlumnos.ProvidingAlumnos"><rect fill="#F1F1F1" height="50" rx="12.5" ry="12.5" style="stroke:#181818;stroke-width:0.5;" width="50" x="303.5805" y="381.2969"/><line style="stroke:#181818;stroke-width:0.5;" x1="303.5805" x2="353.5805" y1="407.5938" y2="407.5938"/><text fill="#000000" font-family="sans-serif" font-size="14" lengthAdjust="spacing" textLength="4.4502" x="326.3554" y="399.292">&#160;</text></g><g id="importarAlumnos.ProvidingConfirmation"><rect fill="#F1F1F1" height="50" rx="12.5" ry="12.5" style="stroke:#181818;stroke-width:0.5;" width="50" x="25.5805" y="502.2969"/><line style="stroke:#181818;stroke-width:0.5;" x1="25.5805" x2="75.5805" y1="528.5938" y2="528.5938"/><text fill="#000000" font-family="sans-serif" font-size="14" lengthAdjust="spacing" textLength="4.4502" x="48.3554" y="520.292">&#160;</text></g><g class="entity" data-entity="c" data-uid="ent0007" id="entity_c"><polygon fill="#F1F1F1" points="328.5805,653.2969,340.5805,665.2969,328.5805,677.2969,316.5805,665.2969,328.5805,653.2969" style="stroke:#181818;stroke-width:0.5;"/></g><ellipse cx="328.5805" cy="164.2969" fill="#222222" rx="10" ry="10" style="stroke:#222222;stroke-width:1;"/><ellipse cx="328.5805" cy="759.2969" fill="none" rx="11" ry="11" style="stroke:#222222;stroke-width:1;"/><ellipse cx="328.5805" cy="759.2969" fill="#222222" rx="6" ry="6" style="stroke:#222222;stroke-width:1;"/><!--link *start*importarAlumnos to RequiringImport--><g class="link" data-entity-1=".start.importarAlumnos" data-entity-2="RequiringImport" data-source-line="12" data-uid="lnk3" id="link_.start.importarAlumnos_RequiringImport"><path d="M328.5805,174.5269 C328.5805,190.2369 328.5805,216.6569 328.5805,239.1669" fill="none" id="*start*importarAlumnos-to-RequiringImport" style="stroke:#008000;stroke-width:1;"/><polygon fill="#008000" points="328.5805,245.1669,332.5805,236.1669,328.5805,240.1669,324.5805,236.1669,328.5805,245.1669" style="stroke:#008000;stroke-width:1;"/><path d="M333.5805,197.2969 L333.5805,222.2969 L584.5805,222.2969 L584.5805,207.2969 L574.5805,197.2969 L333.5805,197.2969" fill="#FEFFDD" style="stroke:#181818;stroke-width:0.5;"/><path d="M574.5805,197.2969 L574.5805,207.2969 L584.5805,207.2969 L574.5805,197.2969" fill="#FEFFDD" style="stroke:#181818;stroke-width:0.5;"/><text fill="#000000" font-family="sans-serif" font-size="13" font-weight="bold" lengthAdjust="spacing" textLength="60.5313" x="339.5805" y="214.3638">Docente</text><text fill="#000000" font-family="sans-serif" font-size="13" lengthAdjust="spacing" textLength="165.7183" x="404.2441" y="214.3638">solicita importar alumnos</text></g><!--link RequiringImport to ProvidingAlumnos--><g class="link" data-entity-1="RequiringImport" data-entity-2="ProvidingAlumnos" data-source-line="17" data-uid="lnk4" id="link_RequiringImport_ProvidingAlumnos"><path d="M328.5805,295.5669 C328.5805,319.8469 328.5805,350.9869 328.5805,375.2069" fill="none" id="RequiringImport-to-ProvidingAlumnos" style="stroke:#008000;stroke-width:1;"/><polygon fill="#008000" points="328.5805,381.2069,332.5805,372.2069,328.5805,376.2069,324.5805,372.2069,328.5805,381.2069" style="stroke:#008000;stroke-width:1;"/><path d="M333.5805,318.2969 L333.5805,358.2969 L534.5805,358.2969 L534.5805,328.2969 L524.5805,318.2969 L333.5805,318.2969" fill="#FEFFDD" style="stroke:#181818;stroke-width:0.5;"/><path d="M524.5805,318.2969 L524.5805,328.2969 L534.5805,328.2969 L524.5805,318.2969" fill="#FEFFDD" style="stroke:#181818;stroke-width:0.5;"/><text fill="#000000" font-family="sans-serif" font-size="13" font-weight="bold" lengthAdjust="spacing" textLength="58.9063" x="339.5805" y="335.3638">Sistema</text><text fill="#000000" font-family="sans-serif" font-size="13" lengthAdjust="spacing" textLength="117.9395" x="402.6191" y="335.3638">permite introducir</text><text fill="#000000" font-family="sans-serif" font-size="13" lengthAdjust="spacing" textLength="139.7119" x="339.5805" y="350.4966">&#8226; alumnos a importar</text></g><!--link ProvidingAlumnos to ProvidingConfirmation--><g class="link" data-entity-1="ProvidingAlumnos" data-entity-2="ProvidingConfirmation" data-source-line="23" data-uid="lnk5" id="link_ProvidingAlumnos_ProvidingConfirmation"><path d="M303.5305,410.7669 C230.9305,420.8369 25.5805,449.2969 25.5805,449.2969 C25.5805,449.2969 25.5805,484.2969 25.5805,484.2969 C25.5805,484.2969 27.4716,487.4711 32.9716,496.7111" fill="none" id="ProvidingAlumnos-to-ProvidingConfirmation" style="stroke:#008000;stroke-width:1;"/><polygon fill="#008000" points="36.0405,501.8669,34.8743,492.0873,33.4831,497.5704,28,496.1792,36.0405,501.8669" style="stroke:#008000;stroke-width:1;"/><path d="M30.5805,454.2969 L30.5805,479.2969 L309.5805,479.2969 L309.5805,464.2969 L299.5805,454.2969 L30.5805,454.2969" fill="#FEFFDD" style="stroke:#181818;stroke-width:0.5;"/><path d="M299.5805,454.2969 L299.5805,464.2969 L309.5805,464.2969 L299.5805,454.2969" fill="#FEFFDD" style="stroke:#181818;stroke-width:0.5;"/><text fill="#000000" font-family="sans-serif" font-size="13" font-weight="bold" lengthAdjust="spacing" textLength="60.5313" x="36.5805" y="471.3638">Docente</text><text fill="#000000" font-family="sans-serif" font-size="13" lengthAdjust="spacing" textLength="193.9272" x="101.2441" y="471.3638">introduce alumnos a importar</text></g><!--link ProvidingConfirmation to c--><g class="link" data-entity-1="ProvidingConfirmation" data-entity-2="c" data-source-line="28" data-uid="lnk6" id="link_ProvidingConfirmation_c"><path d="M67.8605,552.3069 C90.5605,583.8569 127.5805,635.2969 127.5805,635.2969 C127.5805,635.2969 272.7919,656.2507 312.9519,662.0407" fill="none" id="ProvidingConfirmation-to-c" style="stroke:#008000;stroke-width:1;"/><polygon fill="#008000" points="318.8905,662.8969,310.5534,657.6535,313.9417,662.1834,309.4118,665.5717,318.8905,662.8969" style="stroke:#008000;stroke-width:1;"/><path d="M132.5805,575.2969 L132.5805,630.2969 L309.5805,630.2969 L309.5805,585.2969 L299.5805,575.2969 L132.5805,575.2969" fill="#FEFFDD" style="stroke:#181818;stroke-width:0.5;"/><path d="M299.5805,575.2969 L299.5805,585.2969 L309.5805,585.2969 L299.5805,575.2969" fill="#FEFFDD" style="stroke:#181818;stroke-width:0.5;"/><text fill="#000000" font-family="sans-serif" font-size="13" font-weight="bold" lengthAdjust="spacing" textLength="60.5313" x="138.5805" y="592.3638">Docente</text><text fill="#000000" font-family="sans-serif" font-size="13" lengthAdjust="spacing" textLength="45.7729" x="203.2441" y="592.3638">solicita</text><text fill="#000000" font-family="sans-serif" font-size="13" lengthAdjust="spacing" textLength="156.6221" x="138.5805" y="607.4966">&#8226; confirmar importaci&#243;n</text><text fill="#000000" font-family="sans-serif" font-size="13" lengthAdjust="spacing" textLength="149.1953" x="138.5805" y="622.6294">&#8226; cancelar importaci&#243;n</text></g><!--link c to ProvidingAlumnos--><g class="link" data-entity-1="c" data-entity-2="ProvidingAlumnos" data-source-line="35" data-uid="lnk7" id="link_c_ProvidingAlumnos"><path d="M328.5805,653.2469 C328.5805,614.6869 328.5805,491.5769 328.5805,437.4769" fill="none" id="c-to-ProvidingAlumnos" style="stroke:#FF0000;stroke-width:1;"/><polygon fill="#FF0000" points="328.5805,431.4769,324.5805,440.4769,328.5805,436.4769,332.5805,440.4769,328.5805,431.4769" style="stroke:#FF0000;stroke-width:1;"/><path d="M333.5805,514.7969 L333.5805,539.7969 L544.5805,539.7969 L544.5805,524.7969 L534.5805,514.7969 L333.5805,514.7969" fill="#FEFFDD" style="stroke:#181818;stroke-width:0.5;"/><path d="M534.5805,514.7969 L534.5805,524.7969 L544.5805,524.7969 L534.5805,514.7969" fill="#FEFFDD" style="stroke:#181818;stroke-width:0.5;"/><text fill="#000000" font-family="sans-serif" font-size="13" lengthAdjust="spacing" textLength="190.6265" x="339.5805" y="531.8638">Docente cancela importaci&#243;n</text></g><!--link c to ProvidingAlumnos--><g class="link" data-entity-1="c" data-entity-2="ProvidingAlumnos" data-source-line="40" data-uid="lnk8" id="link_c_ProvidingAlumnos"><path d="M336.0705,660.5669 C375.1105,641.1369 553.5805,552.2969 553.5805,552.2969 C553.5805,552.2969 553.5805,502.2969 553.5805,502.2969 C553.5805,502.2969 418.3279,445.1909 359.4779,420.3409" fill="none" id="c-to-ProvidingAlumnos-1" style="stroke:#FF0000;stroke-width:1;"/><polygon fill="#FF0000" points="353.9505,418.0069,360.6857,425.1928,358.5567,419.9519,363.7977,417.8229,353.9505,418.0069" style="stroke:#FF0000;stroke-width:1;"/><path d="M558.5805,514.7969 L558.5805,539.7969 L935.5805,539.7969 L935.5805,524.7969 L925.5805,514.7969 L558.5805,514.7969" fill="#FEFFDD" style="stroke:#181818;stroke-width:0.5;"/><path d="M925.5805,514.7969 L925.5805,524.7969 L935.5805,524.7969 L925.5805,514.7969" fill="#FEFFDD" style="stroke:#181818;stroke-width:0.5;"/><text fill="#000000" font-family="sans-serif" font-size="13" lengthAdjust="spacing" textLength="356.605" x="564.5805" y="531.8638">Docente confirma importaci&#243;n: error en la importaci&#243;n</text></g><!--link c to *end*importarAlumnos--><g class="link" data-entity-1="c" data-entity-2=".end.importarAlumnos" data-source-line="45" data-uid="lnk10" id="link_c_.end.importarAlumnos"><path d="M328.5805,677.5769 C328.5805,695.6169 328.5805,724.6969 328.5805,742.0569" fill="none" id="c-to-*end*importarAlumnos" style="stroke:#008000;stroke-width:1;"/><polygon fill="#008000" points="328.5805,748.0569,332.5805,739.0569,328.5805,743.0569,324.5805,739.0569,328.5805,748.0569" style="stroke:#008000;stroke-width:1;"/><path d="M333.5805,700.2969 L333.5805,725.2969 L689.5805,725.2969 L689.5805,710.2969 L679.5805,700.2969 L333.5805,700.2969" fill="#FEFFDD" style="stroke:#181818;stroke-width:0.5;"/><path d="M679.5805,700.2969 L679.5805,710.2969 L689.5805,710.2969 L679.5805,700.2969" fill="#FEFFDD" style="stroke:#181818;stroke-width:0.5;"/><text fill="#000000" font-family="sans-serif" font-size="13" lengthAdjust="spacing" textLength="335.6323" x="339.5805" y="717.3638">Docente confirma importaci&#243;n: importaci&#243;n exitosa</text></g><g id="ALUMNOS_ABIERTO"><rect fill="#F1F1F1" height="50" rx="12.5" ry="12.5" style="stroke:#181818;stroke-width:0.5;" width="158.5371" x="396.5" y="7"/><line style="stroke:#181818;stroke-width:0.5;" x1="396.5" x2="555.0371" y1="33.2969" y2="33.2969"/><text fill="#000000" font-family="sans-serif" font-size="14" lengthAdjust="spacing" textLength="138.5371" x="406.5" y="24.9951">ALUMNOS_ABIERTO</text></g><!--link ALUMNOS_ABIERTO to importarAlumnos--><g class="link" data-entity-1="ALUMNOS_ABIERTO" data-entity-2="importarAlumnos" data-source-line="51" data-uid="lnk12" id="link_ALUMNOS_ABIERTO_importarAlumnos"><path d="M476,57.08 C476,71.85 476,86.58 476,110.86" fill="none" id="ALUMNOS_ABIERTO-to-importarAlumnos" style="stroke:#008000;stroke-width:1;"/><polygon fill="#008000" points="476,116.86,480,107.86,476,111.86,472,107.86,476,116.86" style="stroke:#008000;stroke-width:1;"/></g><!--link importarAlumnos to ALUMNOS_ABIERTO2--><g class="link" data-entity-1="importarAlumnos" data-entity-2="ALUMNOS_ABIERTO2" data-source-line="52" data-uid="lnk13" id="link_importarAlumnos_ALUMNOS_ABIERTO2"><path d="M476,780.12 C476,804.36 476,819.06 476,833.83" fill="none" id="importarAlumnos-to-ALUMNOS_ABIERTO2" style="stroke:#008000;stroke-width:1;"/><polygon fill="#008000" points="476,839.83,480,830.83,476,834.83,472,830.83,476,839.83" style="stroke:#008000;stroke-width:1;"/></g><!--SRC=[jPJTIiCm5CVl-nI7UQF24BoKKfWV5mDrikdL4CdIupoiJUff9WuHV1PVmKVmJNmIqw-jpOfkWkbLad_o- -M49fsHIWIB629IQ1O9GgAZHTRnlDG8Wz0xlxcu78pkUiVzi-7ru1142Xrdi5E5AKuq6y6zQ1uhdUPPPsnthmCldWUs5MiwzhEv8JxEYKbD-tb-FN35-eb26oWt-Y5nejKzSImCQLMBIV1z-Q19OX0K1kFzM-YETwQCg6wxGQk4qdQfLbc5Plc0FmbEjKHbq3-O193gY2GPiJmyY9eWgh3OmRQ2wJ0Q_DOpjWcCA3KOYrmWGOufAxuohCEv9CvJNs_lbGciv1fIXP0BRJTQg-blTQbqS4kBEgYX8hUwZcKDPBaVLtH9dnzgDIsKnAXjjkadCnV6SFDhAgqgmZy2oXCs24U0p9ej13PaBmjj_ue_0Uizm6SoEXLDsAldEKz70-my5PxxdDIpxhlq3G00]--></g></svg>