<svg xmlns="http://www.w3.org/2000/svg" xmlns:xlink="http://www.w3.org/1999/xlink" contentStyleType="text/css" data-diagram-type="STATE" height="822px" preserveAspectRatio="none" style="width:683px;height:822px;background:#FFFFFF;" version="1.1" viewBox="0 0 683 822" width="683px" zoomAndPan="magnify"><defs/><g><g id="ASIGNATURA_ABIERTO"><rect fill="#F1F1F1" height="50" rx="12.5" ry="12.5" style="stroke:#181818;stroke-width:0.5;" width="180.0498" x="125.5" y="7"/><line style="stroke:#181818;stroke-width:0.5;" x1="125.5" x2="305.5498" y1="33.2969" y2="33.2969"/><text fill="#000000" font-family="sans-serif" font-size="14" lengthAdjust="spacing" textLength="160.0498" x="135.5" y="24.9951">ASIGNATURA_ABIERTO</text></g><g id="ASIGNATURAS_ABIERTO2"><rect fill="#F1F1F1" height="50" rx="12.5" ry="12.5" style="stroke:#181818;stroke-width:0.5;" width="188.9365" x="7" y="766"/><line style="stroke:#181818;stroke-width:0.5;" x1="7" x2="195.9365" y1="792.2969" y2="792.2969"/><text fill="#000000" font-family="sans-serif" font-size="14" lengthAdjust="spacing" textLength="168.9365" x="17" y="783.9951">ASIGNATURAS_ABIERTO</text></g><g id="ASIGNATURAS_ABIERTO3"><rect fill="#F1F1F1" height="50" rx="12.5" ry="12.5" style="stroke:#181818;stroke-width:0.5;" width="188.9365" x="231" y="766"/><line style="stroke:#181818;stroke-width:0.5;" x1="231" x2="419.9365" y1="792.2969" y2="792.2969"/><text fill="#000000" font-family="sans-serif" font-size="14" lengthAdjust="spacing" textLength="168.9365" x="241" y="783.9951">ASIGNATURAS_ABIERTO</text></g><g id="ASIGNATURAS_ABIERTO4"><rect fill="#F1F1F1" height="50" rx="12.5" ry="12.5" style="stroke:#181818;stroke-width:0.5;" width="188.9365" x="455" y="766"/><line style="stroke:#181818;stroke-width:0.5;" x1="455" x2="643.9365" y1="792.2969" y2="792.2969"/><text fill="#000000" font-family="sans-serif" font-size="14" lengthAdjust="spacing" textLength="168.9365" x="465" y="783.9951">ASIGNATURAS_ABIERTO</text></g><path d="M111.5,118 L539.5,118 A12.5,12.5 0 0 1 552,130.5 L552,144.2969 L99,144.2969 L99,130.5 A12.5,12.5 0 0 1 111.5,118" fill="#F1F1F1"/><rect fill="none" height="553.2969" rx="12.5" ry="12.5" style="stroke:#181818;stroke-width:0.5;" width="453" x="99" y="118"/><line style="stroke:#181818;stroke-width:0.5;" x1="99" x2="552" y1="144.2969" y2="144.2969"/><text fill="#000000" font-family="sans-serif" font-size="14" lengthAdjust="spacing" textLength="143.8486" x="253.5757" y="135.9951">eliminarAsignatura()</text><g id="eliminarAsignatura.ConfirmandoEliminacion"><rect fill="#F1F1F1" height="50" rx="12.5" ry="12.5" style="stroke:#181818;stroke-width:0.5;" width="50" x="111" y="246.2969"/><line style="stroke:#181818;stroke-width:0.5;" x1="111" x2="161" y1="272.5938" y2="272.5938"/><text fill="#000000" font-family="sans-serif" font-size="14" lengthAdjust="spacing" textLength="4.4502" x="133.7749" y="264.292">&#160;</text></g><g id="eliminarAsignatura.EliminandoAsignatura"><rect fill="#F1F1F1" height="50" rx="12.5" ry="12.5" style="stroke:#181818;stroke-width:0.5;" width="50" x="111" y="503.2969"/><line style="stroke:#181818;stroke-width:0.5;" x1="111" x2="161" y1="529.5938" y2="529.5938"/><text fill="#000000" font-family="sans-serif" font-size="14" lengthAdjust="spacing" textLength="4.4502" x="133.7749" y="521.292">&#160;</text></g><ellipse cx="136" cy="165.2969" fill="#222222" rx="10" ry="10" style="stroke:#222222;stroke-width:1;"/><ellipse cx="136" cy="650.2969" fill="none" rx="11" ry="11" style="stroke:#222222;stroke-width:1;"/><ellipse cx="136" cy="650.2969" fill="#222222" rx="6" ry="6" style="stroke:#222222;stroke-width:1;"/><!--link *start*eliminarAsignatura to ConfirmandoEliminacion--><g class="link" data-entity-1=".start.eliminarAsignatura" data-entity-2="ConfirmandoEliminacion" data-source-line="13" data-uid="lnk3" id="link_.start.eliminarAsignatura_ConfirmandoEliminacion"><path d="M136,175.5269 C136,191.2369 136,217.6569 136,240.1669" fill="none" id="*start*eliminarAsignatura-to-ConfirmandoEliminacion" style="stroke:#008000;stroke-width:1;"/><polygon fill="#008000" points="136,246.1669,140,237.1669,136,241.1669,132,237.1669,136,246.1669" style="stroke:#008000;stroke-width:1;"/><path d="M141,198.2969 L141,223.2969 L403,223.2969 L403,208.2969 L393,198.2969 L141,198.2969" fill="#FEFFDD" style="stroke:#181818;stroke-width:0.5;"/><path d="M393,198.2969 L393,208.2969 L403,208.2969 L393,198.2969" fill="#FEFFDD" style="stroke:#181818;stroke-width:0.5;"/><text fill="#000000" font-family="sans-serif" font-size="13" font-weight="bold" lengthAdjust="spacing" textLength="60.5313" x="147" y="215.3638">Docente</text><text fill="#000000" font-family="sans-serif" font-size="13" lengthAdjust="spacing" textLength="176.541" x="211.6636" y="215.3638">solicita eliminar asignatura</text></g><!--link ConfirmandoEliminacion to EliminandoAsignatura--><g class="link" data-entity-1="ConfirmandoEliminacion" data-entity-2="EliminandoAsignatura" data-source-line="18" data-uid="lnk4" id="link_ConfirmandoEliminacion_EliminandoAsignatura"><path d="M136,296.7469 C136,345.6169 136,448.7969 136,497.2969" fill="none" id="ConfirmandoEliminacion-to-EliminandoAsignatura" style="stroke:#008000;stroke-width:1;"/><polygon fill="#008000" points="136,503.2969,140,494.2969,136,498.2969,132,494.2969,136,503.2969" style="stroke:#008000;stroke-width:1;"/><path d="M141,319.2969 L141,480.2969 L543,480.2969 L543,329.2969 L533,319.2969 L141,319.2969" fill="#FEFFDD" style="stroke:#181818;stroke-width:0.5;"/><path d="M533,319.2969 L533,329.2969 L543,329.2969 L533,319.2969" fill="#FEFFDD" style="stroke:#181818;stroke-width:0.5;"/><text fill="#000000" font-family="sans-serif" font-size="13" font-weight="bold" lengthAdjust="spacing" textLength="58.9063" x="147" y="336.3638">Sistema</text><text fill="#000000" font-family="sans-serif" font-size="13" lengthAdjust="spacing" textLength="318.0684" x="210.0386" y="336.3638">presenta informaci&#243;n de la asignatura a eliminar</text><text fill="#000000" font-family="sans-serif" font-size="13" lengthAdjust="spacing" textLength="63.7368" x="147" y="351.4966">&#8226; Nombre</text><text fill="#000000" font-family="sans-serif" font-size="13" lengthAdjust="spacing" textLength="56.9004" x="147" y="366.6294">&#8226; C&#243;digo</text><text fill="#000000" font-family="sans-serif" font-size="13" lengthAdjust="spacing" textLength="124.0269" x="147" y="381.7622">&#8226; Curso acad&#233;mico</text><text fill="#000000" font-family="sans-serif" font-size="13" lengthAdjust="spacing" textLength="156.9331" x="147" y="396.895">&#8226; Alumnos matriculados</text><text fill="#000000" font-family="sans-serif" font-size="13" lengthAdjust="spacing" textLength="149.3794" x="147" y="412.0278">&#8226; Bater&#237;a de preguntas</text><text fill="#000000" font-family="sans-serif" font-size="13" lengthAdjust="spacing" textLength="4.1323" x="147" y="427.1606">&#160;</text><text fill="#000000" font-family="sans-serif" font-size="13" lengthAdjust="spacing" textLength="249.6724" x="147" y="442.2935">&#8226; Presenta advertencia de eliminaci&#243;n</text><text fill="#000000" font-family="sans-serif" font-size="13" lengthAdjust="spacing" textLength="263.3706" x="147" y="457.4263">&#8226; Permite solicitar confirmar eliminaci&#243;n</text><text fill="#000000" font-family="sans-serif" font-size="13" lengthAdjust="spacing" textLength="255.9438" x="147" y="472.5591">&#8226; Permite solicitar cancelar eliminaci&#243;n</text></g><!--link EliminandoAsignatura to *end*eliminarAsignatura--><g class="link" data-entity-1="EliminandoAsignatura" data-entity-2=".end.eliminarAsignatura" data-source-line="32" data-uid="lnk6" id="link_EliminandoAsignatura_.end.eliminarAsignatura"><path d="M136,553.5769 C136,579.8769 136,614.5669 136,633.2769" fill="none" id="EliminandoAsignatura-to-*end*eliminarAsignatura" style="stroke:#008000;stroke-width:1;"/><polygon fill="#008000" points="136,639.2769,140,630.2769,136,634.2769,132,630.2769,136,639.2769" style="stroke:#008000;stroke-width:1;"/><path d="M141,576.2969 L141,616.2969 L460,616.2969 L460,586.2969 L450,576.2969 L141,576.2969" fill="#FEFFDD" style="stroke:#181818;stroke-width:0.5;"/><path d="M450,576.2969 L450,586.2969 L460,586.2969 L450,576.2969" fill="#FEFFDD" style="stroke:#181818;stroke-width:0.5;"/><text fill="#000000" font-family="sans-serif" font-size="13" font-weight="bold" lengthAdjust="spacing" textLength="60.5313" x="147" y="593.3638">Docente</text><text fill="#000000" font-family="sans-serif" font-size="13" lengthAdjust="spacing" textLength="233.5303" x="211.6636" y="593.3638">solicita confirmaci&#243;n de eliminaci&#243;n</text><text fill="#000000" font-family="sans-serif" font-size="13" font-weight="bold" lengthAdjust="spacing" textLength="58.9063" x="147" y="608.4966">Sistema</text><text fill="#000000" font-family="sans-serif" font-size="13" lengthAdjust="spacing" textLength="136.2905" x="210.0386" y="608.4966">confirma eliminaci&#243;n</text></g><g id="ASIGNATURAS_ABIERTO"><rect fill="#F1F1F1" height="50" rx="12.5" ry="12.5" style="stroke:#181818;stroke-width:0.5;" width="188.9365" x="341" y="7"/><line style="stroke:#181818;stroke-width:0.5;" x1="341" x2="529.9365" y1="33.2969" y2="33.2969"/><text fill="#000000" font-family="sans-serif" font-size="14" lengthAdjust="spacing" textLength="168.9365" x="351" y="24.9951">ASIGNATURAS_ABIERTO</text></g><!--link ASIGNATURAS_ABIERTO to eliminarAsignatura--><g class="link" data-entity-1="ASIGNATURAS_ABIERTO" data-entity-2="eliminarAsignatura" data-source-line="39" data-uid="lnk8" id="link_ASIGNATURAS_ABIERTO_eliminarAsignatura"><path d="M428.11,57.21 C423.51,72.29 418.8116,87.7014 411.3516,112.1414" fill="none" id="ASIGNATURAS_ABIERTO-to-eliminarAsignatura" style="stroke:#008000;stroke-width:1;"/><polygon fill="#008000" points="409.6,117.88,416.0532,110.4398,411.0597,113.0978,408.4017,108.1043,409.6,117.88" style="stroke:#008000;stroke-width:1;"/></g><!--link ASIGNATURA_ABIERTO to eliminarAsignatura--><g class="link" data-entity-1="ASIGNATURA_ABIERTO" data-entity-2="eliminarAsignatura" data-source-line="40" data-uid="lnk9" id="link_ASIGNATURA_ABIERTO_eliminarAsignatura"><path d="M222.89,57.21 C227.49,72.29 232.1884,87.7014 239.6484,112.1414" fill="none" id="ASIGNATURA_ABIERTO-to-eliminarAsignatura" style="stroke:#008000;stroke-width:1;"/><polygon fill="#008000" points="241.4,117.88,242.5983,108.1043,239.9403,113.0978,234.9468,110.4398,241.4,117.88" style="stroke:#008000;stroke-width:1;"/></g><!--link eliminarAsignatura to ASIGNATURAS_ABIERTO2--><g class="link" data-entity-1="eliminarAsignatura" data-entity-2="ASIGNATURAS_ABIERTO2" data-source-line="42" data-uid="lnk10" id="link_eliminarAsignatura_ASIGNATURAS_ABIERTO2"><path d="M169.01,671.1 C146.87,710.1 130.4641,739.0033 118.2141,760.5633" fill="none" id="eliminarAsignatura-to-ASIGNATURAS_ABIERTO2" style="stroke:#008000;stroke-width:1;"/><polygon fill="#008000" points="115.25,765.78,123.1739,759.9309,117.72,761.4327,116.2183,755.9789,115.25,765.78" style="stroke:#008000;stroke-width:1;"/><path d="M155.5,706 L155.5,731 L281.5,731 L281.5,716 L271.5,706 L155.5,706" fill="#FEFFDD" style="stroke:#181818;stroke-width:0.5;"/><path d="M271.5,706 L271.5,716 L281.5,716 L271.5,706" fill="#FEFFDD" style="stroke:#181818;stroke-width:0.5;"/><text fill="#000000" font-family="sans-serif" font-size="13" lengthAdjust="spacing" textLength="105.8408" x="161.5" y="723.0669">lista actualizada</text></g><!--link eliminarAsignatura to ASIGNATURAS_ABIERTO3--><g class="link" data-entity-1="eliminarAsignatura" data-entity-2="ASIGNATURAS_ABIERTO3" data-source-line="47" data-uid="lnk11" id="link_eliminarAsignatura_ASIGNATURAS_ABIERTO3"><path d="M325.5,671.1 C325.5,710.1 325.5,738.22 325.5,759.78" fill="none" id="eliminarAsignatura-to-ASIGNATURAS_ABIERTO3" style="stroke:#0000FF;stroke-width:1;"/><polygon fill="#0000FF" points="325.5,765.78,329.5,756.78,325.5,760.78,321.5,756.78,325.5,765.78" style="stroke:#0000FF;stroke-width:1;"/><path d="M330.5,706 L330.5,731 L485.5,731 L485.5,716 L475.5,706 L330.5,706" fill="#FEFFDD" style="stroke:#181818;stroke-width:0.5;"/><path d="M475.5,706 L475.5,716 L485.5,716 L475.5,706" fill="#FEFFDD" style="stroke:#181818;stroke-width:0.5;"/><text fill="#000000" font-family="sans-serif" font-size="13" lengthAdjust="spacing" textLength="134.2085" x="336.5" y="723.0669">cancelar eliminaci&#243;n</text></g><!--link eliminarAsignatura to ASIGNATURAS_ABIERTO4--><g class="link" data-entity-1="eliminarAsignatura" data-entity-2="ASIGNATURAS_ABIERTO4" data-source-line="52" data-uid="lnk12" id="link_eliminarAsignatura_ASIGNATURAS_ABIERTO4"><path d="M481.99,671.1 C504.13,710.1 520.5359,739.0033 532.7859,760.5633" fill="none" id="eliminarAsignatura-to-ASIGNATURAS_ABIERTO4" style="stroke:#0000FF;stroke-width:1;"/><polygon fill="#0000FF" points="535.75,765.78,534.7817,755.9789,533.28,761.4327,527.8261,759.9309,535.75,765.78" style="stroke:#0000FF;stroke-width:1;"/><path d="M521.5,706 L521.5,731 L676.5,731 L676.5,716 L666.5,706 L521.5,706" fill="#FEFFDD" style="stroke:#181818;stroke-width:0.5;"/><path d="M666.5,706 L666.5,716 L676.5,716 L666.5,706" fill="#FEFFDD" style="stroke:#181818;stroke-width:0.5;"/><text fill="#000000" font-family="sans-serif" font-size="13" lengthAdjust="spacing" textLength="134.2085" x="527.5" y="723.0669">cancelar eliminaci&#243;n</text></g><!--SRC=[fLJDQXin4BxhAGRdqXP2eCan63O_X5pI4gUd4CfOEp53f96Hj8Kq1FeilVNGKnx1Rz8dgRpshhrPER-x9ytCzysd-II56vOfUhHWM2ZUJWccpjpE5qg5Y96W69sUd1KNtywBxyN1wV7vnPTUOjHaFWC666GIWysOtJTWzZPZbY0oR5dG5u4dWh7oM4FwuGyV1t2d5AHlWHoaFvKUEhbcRr5ATxm0QNRIhricKzcASq5t-UaAjY-t9fv8hhQ7Jp6AIuHEvYRSr87zyV38QP98-plZ8GHdM7F4TbkfSzjiNazIrYIBplbE7J5PsPkaZ3X4ibXBcNeAIHS2oxLBFJJF7WHA0eDhec0bjIRvz-itd3axzWJj-d3sKFB4hGKg7noWndBsnx9UonIcik82M8oUTMMmTA5D7YGt_EmlpaKaTPCggGkgJNzj16FvWtmaqLoNKZEPf7zLJDvo6a0pS0zwEKl_OW2A9fEhxvgKSw1ZKJe_hpiSZTJMafw2HrusW2UatYkLkMOTdVqxfVflndC8bRcmwv3SOwCwap5fOyba7Iiq_1DBLAjvvyd7fg8DtBjTxhodx-3VUmt_Vm00]--></g></svg>