<svg xmlns="http://www.w3.org/2000/svg" xmlns:xlink="http://www.w3.org/1999/xlink" contentStyleType="text/css" data-diagram-type="STATE" height="726px" preserveAspectRatio="none" style="width:601px;height:726px;background:#FFFFFF;" version="1.1" viewBox="0 0 601 726" width="601px" zoomAndPan="magnify"><defs/><g><path d="M93,7 L521,7 A12.5,12.5 0 0 1 533.5,19.5 L533.5,33.2969 L80.5,33.2969 L80.5,19.5 A12.5,12.5 0 0 1 93,7" fill="#F1F1F1"/><rect fill="none" height="568.2969" rx="12.5" ry="12.5" style="stroke:#181818;stroke-width:0.5;" width="453" x="80.5" y="7"/><line style="stroke:#181818;stroke-width:0.5;" x1="80.5" x2="533.5" y1="33.2969" y2="33.2969"/><text fill="#000000" font-family="sans-serif" font-size="14" lengthAdjust="spacing" textLength="143.8486" x="235.0757" y="24.9951">eliminarAsignatura()</text><g id="eliminarAsignatura.ConfirmandoEliminacion"><rect fill="#F1F1F1" height="50" rx="12.5" ry="12.5" style="stroke:#181818;stroke-width:0.5;" width="50" x="92.5" y="135.2969"/><line style="stroke:#181818;stroke-width:0.5;" x1="92.5" x2="142.5" y1="161.5938" y2="161.5938"/><text fill="#000000" font-family="sans-serif" font-size="14" lengthAdjust="spacing" textLength="4.4502" x="115.2749" y="153.292">&#160;</text></g><g id="eliminarAsignatura.EliminandoAsignatura"><rect fill="#F1F1F1" height="50" rx="12.5" ry="12.5" style="stroke:#181818;stroke-width:0.5;" width="50" x="92.5" y="392.2969"/><line style="stroke:#181818;stroke-width:0.5;" x1="92.5" x2="142.5" y1="418.5938" y2="418.5938"/><text fill="#000000" font-family="sans-serif" font-size="14" lengthAdjust="spacing" textLength="4.4502" x="115.2749" y="410.292">&#160;</text></g><ellipse cx="117.5" cy="54.2969" fill="#222222" rx="10" ry="10" style="stroke:#222222;stroke-width:1;"/><ellipse cx="117.5" cy="554.2969" fill="none" rx="11" ry="11" style="stroke:#222222;stroke-width:1;"/><ellipse cx="117.5" cy="554.2969" fill="#222222" rx="6" ry="6" style="stroke:#222222;stroke-width:1;"/><!--link *start*eliminarAsignatura to ConfirmandoEliminacion--><g class="link" data-entity-1=".start.eliminarAsignatura" data-entity-2="ConfirmandoEliminacion" data-source-line="8" data-uid="lnk3" id="link_.start.eliminarAsignatura_ConfirmandoEliminacion"><path d="M117.5,64.5269 C117.5,80.2369 117.5,106.6569 117.5,129.1669" fill="none" id="*start*eliminarAsignatura-to-ConfirmandoEliminacion" style="stroke:#008000;stroke-width:1;"/><polygon fill="#008000" points="117.5,135.1669,121.5,126.1669,117.5,130.1669,113.5,126.1669,117.5,135.1669" style="stroke:#008000;stroke-width:1;"/><path d="M122.5,87.2969 L122.5,112.2969 L384.5,112.2969 L384.5,97.2969 L374.5,87.2969 L122.5,87.2969" fill="#FEFFDD" style="stroke:#181818;stroke-width:0.5;"/><path d="M374.5,87.2969 L374.5,97.2969 L384.5,97.2969 L374.5,87.2969" fill="#FEFFDD" style="stroke:#181818;stroke-width:0.5;"/><text fill="#000000" font-family="sans-serif" font-size="13" font-weight="bold" lengthAdjust="spacing" textLength="60.5313" x="128.5" y="104.3638">Docente</text><text fill="#000000" font-family="sans-serif" font-size="13" lengthAdjust="spacing" textLength="176.541" x="193.1636" y="104.3638">solicita eliminar asignatura</text></g><!--link ConfirmandoEliminacion to EliminandoAsignatura--><g class="link" data-entity-1="ConfirmandoEliminacion" data-entity-2="EliminandoAsignatura" data-source-line="13" data-uid="lnk4" id="link_ConfirmandoEliminacion_EliminandoAsignatura"><path d="M117.5,185.7469 C117.5,234.4869 117.5,337.2369 117.5,385.9169" fill="none" id="ConfirmandoEliminacion-to-EliminandoAsignatura" style="stroke:#008000;stroke-width:1;"/><polygon fill="#008000" points="117.5,391.9169,121.5,382.9169,117.5,386.9169,113.5,382.9169,117.5,391.9169" style="stroke:#008000;stroke-width:1;"/><path d="M122.5,208.2969 L122.5,369.2969 L524.5,369.2969 L524.5,218.2969 L514.5,208.2969 L122.5,208.2969" fill="#FEFFDD" style="stroke:#181818;stroke-width:0.5;"/><path d="M514.5,208.2969 L514.5,218.2969 L524.5,218.2969 L514.5,208.2969" fill="#FEFFDD" style="stroke:#181818;stroke-width:0.5;"/><text fill="#000000" font-family="sans-serif" font-size="13" font-weight="bold" lengthAdjust="spacing" textLength="58.9063" x="128.5" y="225.3638">Sistema</text><text fill="#000000" font-family="sans-serif" font-size="13" lengthAdjust="spacing" textLength="318.0684" x="191.5386" y="225.3638">presenta informaci&#243;n de la asignatura a eliminar</text><text fill="#000000" font-family="sans-serif" font-size="13" lengthAdjust="spacing" textLength="63.7368" x="128.5" y="240.4966">&#8226; Nombre</text><text fill="#000000" font-family="sans-serif" font-size="13" lengthAdjust="spacing" textLength="56.9004" x="128.5" y="255.6294">&#8226; C&#243;digo</text><text fill="#000000" font-family="sans-serif" font-size="13" lengthAdjust="spacing" textLength="124.0269" x="128.5" y="270.7622">&#8226; Curso acad&#233;mico</text><text fill="#000000" font-family="sans-serif" font-size="13" lengthAdjust="spacing" textLength="156.9331" x="128.5" y="285.895">&#8226; Alumnos matriculados</text><text fill="#000000" font-family="sans-serif" font-size="13" lengthAdjust="spacing" textLength="126.6929" x="128.5" y="301.0278">&#8226; Grados asociados</text><text fill="#000000" font-family="sans-serif" font-size="13" lengthAdjust="spacing" textLength="4.1323" x="128.5" y="316.1606">&#160;</text><text fill="#000000" font-family="sans-serif" font-size="13" lengthAdjust="spacing" textLength="249.6724" x="128.5" y="331.2935">&#8226; Presenta advertencia de eliminaci&#243;n</text><text fill="#000000" font-family="sans-serif" font-size="13" lengthAdjust="spacing" textLength="263.3706" x="128.5" y="346.4263">&#8226; Permite solicitar confirmar eliminaci&#243;n</text><text fill="#000000" font-family="sans-serif" font-size="13" lengthAdjust="spacing" textLength="255.9438" x="128.5" y="361.5591">&#8226; Permite solicitar cancelar eliminaci&#243;n</text></g><!--link EliminandoAsignatura to *end*eliminarAsignatura--><g class="link" data-entity-1="EliminandoAsignatura" data-entity-2=".end.eliminarAsignatura" data-source-line="27" data-uid="lnk6" id="link_EliminandoAsignatura_.end.eliminarAsignatura"><path d="M117.5,442.7469 C117.5,472.5269 117.5,515.5069 117.5,536.8369" fill="none" id="EliminandoAsignatura-to-*end*eliminarAsignatura" style="stroke:#008000;stroke-width:1;"/><polygon fill="#008000" points="117.5,542.8369,121.5,533.8369,117.5,537.8369,113.5,533.8369,117.5,542.8369" style="stroke:#008000;stroke-width:1;"/><path d="M122.5,465.2969 L122.5,520.2969 L458.5,520.2969 L458.5,475.2969 L448.5,465.2969 L122.5,465.2969" fill="#FEFFDD" style="stroke:#181818;stroke-width:0.5;"/><path d="M448.5,465.2969 L448.5,475.2969 L458.5,475.2969 L448.5,465.2969" fill="#FEFFDD" style="stroke:#181818;stroke-width:0.5;"/><text fill="#000000" font-family="sans-serif" font-size="13" font-weight="bold" lengthAdjust="spacing" textLength="60.5313" x="128.5" y="482.3638">Docente</text><text fill="#000000" font-family="sans-serif" font-size="13" lengthAdjust="spacing" textLength="233.5303" x="193.1636" y="482.3638">solicita confirmaci&#243;n de eliminaci&#243;n</text><text fill="#000000" font-family="sans-serif" font-size="13" font-weight="bold" lengthAdjust="spacing" textLength="58.9063" x="128.5" y="497.4966">Sistema</text><text fill="#000000" font-family="sans-serif" font-size="13" lengthAdjust="spacing" textLength="251.9829" x="191.5386" y="497.4966">permite solicitar confirmar eliminaci&#243;n</text><text fill="#000000" font-family="sans-serif" font-size="13" font-weight="bold" lengthAdjust="spacing" textLength="69.4624" x="128.5" y="512.6294">Doocente</text><text fill="#000000" font-family="sans-serif" font-size="13" lengthAdjust="spacing" textLength="191.5405" x="202.0947" y="512.6294">solicita confirmar eliminaci&#243;n</text></g><g id="ASIGNATURAS_ABIERTO"><rect fill="#F1F1F1" height="50" rx="12.5" ry="12.5" style="stroke:#181818;stroke-width:0.5;" width="188.9365" x="212.53" y="670.3"/><line style="stroke:#181818;stroke-width:0.5;" x1="212.53" x2="401.4665" y1="696.5969" y2="696.5969"/><text fill="#000000" font-family="sans-serif" font-size="14" lengthAdjust="spacing" textLength="168.9365" x="222.53" y="688.2951">ASIGNATURAS_ABIERTO</text></g><!--link ASIGNATURAS_ABIERTO to eliminarAsignatura--><g class="link" data-entity-1="ASIGNATURAS_ABIERTO" data-entity-2="eliminarAsignatura" data-source-line="35" data-uid="lnk8" id="link_ASIGNATURAS_ABIERTO_eliminarAsignatura"><path d="M401.77,676.47 C485.37,660.74 594,640.3 594,640.3 C594,640.3 594,605.3 594,605.3 C594,605.3 573.0938,582.4835 537.8938,544.0735" fill="none" id="ASIGNATURAS_ABIERTO-to-eliminarAsignatura" style="stroke:#008000;stroke-width:1;"/><polygon fill="#008000" points="533.84,539.65,536.9717,548.9877,537.2181,543.3362,542.8696,543.5827,533.84,539.65" style="stroke:#008000;stroke-width:1;"/></g><!--link eliminarAsignatura to ASIGNATURAS_ABIERTO--><g class="link" data-entity-1="eliminarAsignatura" data-entity-2="ASIGNATURAS_ABIERTO" data-source-line="37" data-uid="lnk9" id="link_eliminarAsignatura_ASIGNATURAS_ABIERTO"><path d="M80.02,528.29 C37.45,572.58 6,605.3 6,605.3 C6,605.3 6,640.3 6,640.3 C6,640.3 118.0443,660.4003 206.2643,676.2303" fill="none" id="eliminarAsignatura-to-ASIGNATURAS_ABIERTO" style="stroke:#008000;stroke-width:1;"/><polygon fill="#008000" points="212.17,677.29,204.018,671.7633,207.2486,676.4069,202.605,679.6376,212.17,677.29" style="stroke:#008000;stroke-width:1;"/><path d="M11,610.3 L11,635.3 L259,635.3 L259,620.3 L249,610.3 L11,610.3" fill="#FEFFDD" style="stroke:#181818;stroke-width:0.5;"/><path d="M249,610.3 L249,620.3 L259,620.3 L249,610.3" fill="#FEFFDD" style="stroke:#181818;stroke-width:0.5;"/><text fill="#000000" font-family="sans-serif" font-size="13" lengthAdjust="spacing" textLength="227.1318" x="17" y="627.3669">verAsignaturas() - lista actualizada</text></g><!--link eliminarAsignatura to ASIGNATURAS_ABIERTO--><g class="link" data-entity-1="eliminarAsignatura" data-entity-2="ASIGNATURAS_ABIERTO" data-source-line="42" data-uid="lnk10" id="link_eliminarAsignatura_ASIGNATURAS_ABIERTO"><path d="M300.66,575.56 C300.25,593.94 300,605.3 300,605.3 C300,605.3 300,640.3 300,640.3 C300,640.3 301.2097,649.5897 303.0597,663.8797" fill="none" id="eliminarAsignatura-to-ASIGNATURAS_ABIERTO-1" style="stroke:#0000FF;stroke-width:1;"/><polygon fill="#0000FF" points="303.83,669.83,306.6414,660.3909,303.1881,664.8714,298.7076,661.418,303.83,669.83" style="stroke:#0000FF;stroke-width:1;"/><path d="M305,610.3 L305,635.3 L581,635.3 L581,620.3 L571,610.3 L305,610.3" fill="#FEFFDD" style="stroke:#181818;stroke-width:0.5;"/><path d="M571,610.3 L571,620.3 L581,620.3 L571,610.3" fill="#FEFFDD" style="stroke:#181818;stroke-width:0.5;"/><text fill="#000000" font-family="sans-serif" font-size="13" lengthAdjust="spacing" textLength="255.4995" x="311" y="627.3669">verAsignaturas() - cancelar eliminaci&#243;n</text></g><!--SRC=[dLDBJiCm4Dtx5AEo0QIA2w1AuIF41X255K9ewWpL27jSsGuI82JEmeurH-XDE0bEIfA6XWg8D_7CctblFWvtB3FqQC6mK7oO4SoSUIWlIeM8aO0CMnRqMU2fO2my0WOOh9etjmRmf1IaRn4vI2T1zvtSihSekJjS16bsiehxSYPOctEHxchx6ePN6rDF9DV3qRgCub929sKvTvLXTp8wS9eaqkxEP0J16TOSiIahCJTa9Puahv8icFkPEc9wPVyaPSmXaiLAoinJIBeGM6vTuj0yVnV82GmkYO9MQfNau-KLJfoTU8BclZz_ptdgbWo53mvGOpv_iwoNF9afhBW05gDdNHZCNMYSHxwy9dAdkVfJZUki5elvFVb8aX2bLggxahItOFAMK_5riptehpxwNmUWQ39z-Ew0-hhV6K_QdRyjHYsr6SUAWkzp_4kr5UiwsdKLFokLZO-FJhABo_DiV9Fj7H-UNvnsobrzbahrlE3ba9wKgjEjDF0sD6nkmJ3PGxaBEXPe-15pLErO-kacfg3_ilKlGytu2G00]--></g></svg>