<svg xmlns="http://www.w3.org/2000/svg" xmlns:xlink="http://www.w3.org/1999/xlink" contentStyleType="text/css" data-diagram-type="STATE" height="711px" preserveAspectRatio="none" style="width:473px;height:711px;background:#FFFFFF;" version="1.1" viewBox="0 0 473 711" width="473px" zoomAndPan="magnify"><defs/><g><path d="M19.5,7 L447.5,7 A12.5,12.5 0 0 1 460,19.5 L460,33.2969 L7,33.2969 L7,19.5 A12.5,12.5 0 0 1 19.5,7" fill="#F1F1F1"/><rect fill="none" height="553.2969" rx="12.5" ry="12.5" style="stroke:#181818;stroke-width:0.5;" width="453" x="7" y="7"/><line style="stroke:#181818;stroke-width:0.5;" x1="7" x2="460" y1="33.2969" y2="33.2969"/><text fill="#000000" font-family="sans-serif" font-size="14" lengthAdjust="spacing" textLength="143.8486" x="161.5757" y="24.9951">eliminarAsignatura()</text><g id="eliminarAsignatura.ConfirmandoEliminacion"><rect fill="#F1F1F1" height="50" rx="12.5" ry="12.5" style="stroke:#181818;stroke-width:0.5;" width="50" x="19" y="135.2969"/><line style="stroke:#181818;stroke-width:0.5;" x1="19" x2="69" y1="161.5938" y2="161.5938"/><text fill="#000000" font-family="sans-serif" font-size="14" lengthAdjust="spacing" textLength="4.4502" x="41.7749" y="153.292">&#160;</text></g><g id="eliminarAsignatura.EliminandoAsignatura"><rect fill="#F1F1F1" height="50" rx="12.5" ry="12.5" style="stroke:#181818;stroke-width:0.5;" width="50" x="19" y="392.2969"/><line style="stroke:#181818;stroke-width:0.5;" x1="19" x2="69" y1="418.5938" y2="418.5938"/><text fill="#000000" font-family="sans-serif" font-size="14" lengthAdjust="spacing" textLength="4.4502" x="41.7749" y="410.292">&#160;</text></g><ellipse cx="44" cy="54.2969" fill="#222222" rx="10" ry="10" style="stroke:#222222;stroke-width:1;"/><ellipse cx="44" cy="539.2969" fill="none" rx="11" ry="11" style="stroke:#222222;stroke-width:1;"/><ellipse cx="44" cy="539.2969" fill="#222222" rx="6" ry="6" style="stroke:#222222;stroke-width:1;"/><!--link *start*eliminarAsignatura to ConfirmandoEliminacion--><g class="link" data-entity-1=".start.eliminarAsignatura" data-entity-2="ConfirmandoEliminacion" data-source-line="8" data-uid="lnk3" id="link_.start.eliminarAsignatura_ConfirmandoEliminacion"><path d="M44,64.5269 C44,80.2369 44,106.6569 44,129.1669" fill="none" id="*start*eliminarAsignatura-to-ConfirmandoEliminacion" style="stroke:#008000;stroke-width:1;"/><polygon fill="#008000" points="44,135.1669,48,126.1669,44,130.1669,40,126.1669,44,135.1669" style="stroke:#008000;stroke-width:1;"/><path d="M49,87.2969 L49,112.2969 L311,112.2969 L311,97.2969 L301,87.2969 L49,87.2969" fill="#FEFFDD" style="stroke:#181818;stroke-width:0.5;"/><path d="M301,87.2969 L301,97.2969 L311,97.2969 L301,87.2969" fill="#FEFFDD" style="stroke:#181818;stroke-width:0.5;"/><text fill="#000000" font-family="sans-serif" font-size="13" font-weight="bold" lengthAdjust="spacing" textLength="60.5313" x="55" y="104.3638">Docente</text><text fill="#000000" font-family="sans-serif" font-size="13" lengthAdjust="spacing" textLength="176.541" x="119.6636" y="104.3638">solicita eliminar asignatura</text></g><!--link ConfirmandoEliminacion to EliminandoAsignatura--><g class="link" data-entity-1="ConfirmandoEliminacion" data-entity-2="EliminandoAsignatura" data-source-line="13" data-uid="lnk4" id="link_ConfirmandoEliminacion_EliminandoAsignatura"><path d="M44,185.7469 C44,234.6169 44,337.7969 44,386.2969" fill="none" id="ConfirmandoEliminacion-to-EliminandoAsignatura" style="stroke:#008000;stroke-width:1;"/><polygon fill="#008000" points="44,392.2969,48,383.2969,44,387.2969,40,383.2969,44,392.2969" style="stroke:#008000;stroke-width:1;"/><path d="M49,208.2969 L49,369.2969 L451,369.2969 L451,218.2969 L441,208.2969 L49,208.2969" fill="#FEFFDD" style="stroke:#181818;stroke-width:0.5;"/><path d="M441,208.2969 L441,218.2969 L451,218.2969 L441,208.2969" fill="#FEFFDD" style="stroke:#181818;stroke-width:0.5;"/><text fill="#000000" font-family="sans-serif" font-size="13" font-weight="bold" lengthAdjust="spacing" textLength="58.9063" x="55" y="225.3638">Sistema</text><text fill="#000000" font-family="sans-serif" font-size="13" lengthAdjust="spacing" textLength="318.0684" x="118.0386" y="225.3638">presenta informaci&#243;n de la asignatura a eliminar</text><text fill="#000000" font-family="sans-serif" font-size="13" lengthAdjust="spacing" textLength="63.7368" x="55" y="240.4966">&#8226; Nombre</text><text fill="#000000" font-family="sans-serif" font-size="13" lengthAdjust="spacing" textLength="56.9004" x="55" y="255.6294">&#8226; C&#243;digo</text><text fill="#000000" font-family="sans-serif" font-size="13" lengthAdjust="spacing" textLength="124.0269" x="55" y="270.7622">&#8226; Curso acad&#233;mico</text><text fill="#000000" font-family="sans-serif" font-size="13" lengthAdjust="spacing" textLength="156.9331" x="55" y="285.895">&#8226; Alumnos matriculados</text><text fill="#000000" font-family="sans-serif" font-size="13" lengthAdjust="spacing" textLength="149.3794" x="55" y="301.0278">&#8226; Bater&#237;a de preguntas</text><text fill="#000000" font-family="sans-serif" font-size="13" lengthAdjust="spacing" textLength="4.1323" x="55" y="316.1606">&#160;</text><text fill="#000000" font-family="sans-serif" font-size="13" lengthAdjust="spacing" textLength="249.6724" x="55" y="331.2935">&#8226; Presenta advertencia de eliminaci&#243;n</text><text fill="#000000" font-family="sans-serif" font-size="13" lengthAdjust="spacing" textLength="263.3706" x="55" y="346.4263">&#8226; Permite solicitar confirmar eliminaci&#243;n</text><text fill="#000000" font-family="sans-serif" font-size="13" lengthAdjust="spacing" textLength="255.9438" x="55" y="361.5591">&#8226; Permite solicitar cancelar eliminaci&#243;n</text></g><!--link EliminandoAsignatura to *end*eliminarAsignatura--><g class="link" data-entity-1="EliminandoAsignatura" data-entity-2=".end.eliminarAsignatura" data-source-line="27" data-uid="lnk6" id="link_EliminandoAsignatura_.end.eliminarAsignatura"><path d="M44,442.5769 C44,468.8769 44,503.5669 44,522.2769" fill="none" id="EliminandoAsignatura-to-*end*eliminarAsignatura" style="stroke:#008000;stroke-width:1;"/><polygon fill="#008000" points="44,528.2769,48,519.2769,44,523.2769,40,519.2769,44,528.2769" style="stroke:#008000;stroke-width:1;"/><path d="M49,465.2969 L49,505.2969 L368,505.2969 L368,475.2969 L358,465.2969 L49,465.2969" fill="#FEFFDD" style="stroke:#181818;stroke-width:0.5;"/><path d="M358,465.2969 L358,475.2969 L368,475.2969 L358,465.2969" fill="#FEFFDD" style="stroke:#181818;stroke-width:0.5;"/><text fill="#000000" font-family="sans-serif" font-size="13" font-weight="bold" lengthAdjust="spacing" textLength="60.5313" x="55" y="482.3638">Docente</text><text fill="#000000" font-family="sans-serif" font-size="13" lengthAdjust="spacing" textLength="233.5303" x="119.6636" y="482.3638">solicita confirmaci&#243;n de eliminaci&#243;n</text><text fill="#000000" font-family="sans-serif" font-size="13" font-weight="bold" lengthAdjust="spacing" textLength="58.9063" x="55" y="497.4966">Sistema</text><text fill="#000000" font-family="sans-serif" font-size="13" lengthAdjust="spacing" textLength="136.2905" x="118.0386" y="497.4966">confirma eliminaci&#243;n</text></g><g id="ASIGNATURAS_ABIERTO"><rect fill="#F1F1F1" height="50" rx="12.5" ry="12.5" style="stroke:#181818;stroke-width:0.5;" width="188.9365" x="139" y="655"/><line style="stroke:#181818;stroke-width:0.5;" x1="139" x2="327.9365" y1="681.2969" y2="681.2969"/><text fill="#000000" font-family="sans-serif" font-size="14" lengthAdjust="spacing" textLength="168.9365" x="149" y="672.9951">ASIGNATURAS_ABIERTO</text></g><!--link ASIGNATURAS_ABIERTO to eliminarAsignatura--><g class="link" data-entity-1="ASIGNATURAS_ABIERTO" data-entity-2="eliminarAsignatura" data-source-line="34" data-uid="lnk8" id="link_ASIGNATURAS_ABIERTO_eliminarAsignatura"><path d="M307.76,654.84 C351.96,640.47 399.5,625 399.5,625 C399.5,625 399.5,590 399.5,590 C399.5,590 396.1537,583.8525 386.1437,565.4225" fill="none" id="ASIGNATURAS_ABIERTO-to-eliminarAsignatura" style="stroke:#008000;stroke-width:1;"/><polygon fill="#008000" points="383.28,560.15,384.0605,569.9679,385.6664,564.5438,391.0905,566.1496,383.28,560.15" style="stroke:#008000;stroke-width:1;"/></g><!--link eliminarAsignatura to ASIGNATURAS_ABIERTO--><g class="link" data-entity-1="eliminarAsignatura" data-entity-2="ASIGNATURAS_ABIERTO" data-source-line="36" data-uid="lnk9" id="link_eliminarAsignatura_ASIGNATURAS_ABIERTO"><path d="M71.99,560.15 C61.19,578.58 54.5,590 54.5,590 C54.5,590 54.5,625 54.5,625 C54.5,625 100.2057,638.787 147.9357,653.187" fill="none" id="eliminarAsignatura-to-ASIGNATURAS_ABIERTO" style="stroke:#008000;stroke-width:1;"/><polygon fill="#008000" points="153.68,654.92,146.219,648.4909,148.8931,653.4758,143.9082,656.15,153.68,654.92" style="stroke:#008000;stroke-width:1;"/><path d="M59.5,595 L59.5,620 L185.5,620 L185.5,605 L175.5,595 L59.5,595" fill="#FEFFDD" style="stroke:#181818;stroke-width:0.5;"/><path d="M175.5,595 L175.5,605 L185.5,605 L175.5,595" fill="#FEFFDD" style="stroke:#181818;stroke-width:0.5;"/><text fill="#000000" font-family="sans-serif" font-size="13" lengthAdjust="spacing" textLength="105.8408" x="65.5" y="612.0669">lista actualizada</text></g><!--link eliminarAsignatura to ASIGNATURAS_ABIERTO--><g class="link" data-entity-1="eliminarAsignatura" data-entity-2="ASIGNATURAS_ABIERTO" data-source-line="41" data-uid="lnk10" id="link_eliminarAsignatura_ASIGNATURAS_ABIERTO"><path d="M227.18,560.15 C226.76,578.58 226.5,590 226.5,590 C226.5,590 226.5,625 226.5,625 C226.5,625 227.7257,634.5202 229.5957,648.8902" fill="none" id="eliminarAsignatura-to-ASIGNATURAS_ABIERTO-1" style="stroke:#0000FF;stroke-width:1;"/><polygon fill="#0000FF" points="230.37,654.84,233.1752,645.3991,229.7248,649.8818,225.242,646.4314,230.37,654.84" style="stroke:#0000FF;stroke-width:1;"/><path d="M231.5,595 L231.5,620 L386.5,620 L386.5,605 L376.5,595 L231.5,595" fill="#FEFFDD" style="stroke:#181818;stroke-width:0.5;"/><path d="M376.5,595 L376.5,605 L386.5,605 L376.5,595" fill="#FEFFDD" style="stroke:#181818;stroke-width:0.5;"/><text fill="#000000" font-family="sans-serif" font-size="13" lengthAdjust="spacing" textLength="134.2085" x="237.5" y="612.0669">cancelar eliminaci&#243;n</text></g><!--SRC=[bPF1IWCn48RlUOgXNbGGNq0AsohIYuhLKn6PPiSoD9cK92ke23wBDm-UV8I-YKzYkdMtNRjAtJqbC_FFb_cJC6MPeKSBXeNYmunWvip3Og5KY1W9oB1bGPy5dWZ6mYDWWCxczkvU1vwKWlGjAplfJwbz9tViBKhkJfP5cfrivdq7KzfASoatsh-1Wz7En1F9pK7tBqLnIT39uZZJSkDet3rscYJIqU6u2y4PrXonFbRgN3TRv9FafSYoStkd1amhzcyeGmwHB9OeCqyXSI6mtBdKG_FyGo0dCBW61IlKKkJpvHNEd1rxWdhTdt_aF75h6uKF3b1ZFd-phDSYcIcik00MesTT6CnTg8Ezv8QVl-C28j5DYaGNL1s-g80nloSVIJINgLHD9l6laibRJWEe1kv1Vy_IRrs0eicqvJTDQdEWOL6wF_-x71LgRSa6mGylgu8_K9-LoeQ3qxFiwleo6zvclS79vTLvWtFpJIdLylpMIreaLUEO9b4cntGiqF0ZvgXMmslN7fk2jf9kzwUI_m80]--></g></svg>