<svg xmlns="http://www.w3.org/2000/svg" xmlns:xlink="http://www.w3.org/1999/xlink" contentStyleType="text/css" data-diagram-type="SALT" height="475px" preserveAspectRatio="none" style="width:790px;height:475px;background:#FFFFFF;" version="1.1" viewBox="0 0 790 475" width="790px" zoomAndPan="magnify"><defs/><g><text fill="#000000" font-family="sans-serif" font-size="12" font-weight="bold" lengthAdjust="spacing" textLength="172.207" x="6" y="17.1387">IMPORTAR ASIGNATURAS</text><text fill="#000000" font-family="sans-serif" font-size="12" lengthAdjust="spacing" textLength="97.5527" x="685.3262" y="17.1387">ASISTENTE&lt;/b&gt;</text><line style="stroke:#AAAAAA;stroke-width:1;" x1="6" x2="684.3262" y1="24.4688" y2="24.4688"/><line style="stroke:#AAAAAA;stroke-width:1;" x1="6" x2="684.3262" y1="26.4688" y2="26.4688"/><text fill="#000000" font-family="sans-serif" font-size="12" font-weight="bold" lengthAdjust="spacing" textLength="294.1523" x="6" y="57.0762">PASO 1: Selecci&#243;n de Fichero (Completado)</text><text fill="#000000" font-family="sans-serif" font-size="12" lengthAdjust="spacing" textLength="300.9844" x="6" y="89.0137">Archivo cargado: "plan_estudios_2025_vFinal.csv"</text><text fill="#000000" font-family="sans-serif" font-size="12" lengthAdjust="spacing" textLength="44.8945" x="6" y="104.9824">Estado:</text><text fill="#008000" font-family="sans-serif" font-size="12" lengthAdjust="spacing" textLength="189.7734" x="54.709" y="104.9824">Validaci&#243;n de formato correcta.</text><rect fill="#EEEEEE" height="17.9688" rx="5" ry="5" style="stroke:#000000;stroke-width:2.5;" width="348" x="8.5" y="128.2813"/><text fill="#000000" font-family="sans-serif" font-size="12" lengthAdjust="spacing" textLength="245.6602" x="59.6699" y="141.4199">Cambiar fichero (Volver al paso anterior)</text><line style="stroke:#AAAAAA;stroke-width:1;" x1="6" x2="684.3262" y1="170.2188" y2="170.2188"/><text fill="#000000" font-family="sans-serif" font-size="12" font-weight="bold" lengthAdjust="spacing" textLength="245.5078" x="6" y="201.8262">PASO 2: Confirmaci&#243;n y Vista Previa</text><text fill="#000000" font-family="sans-serif" font-size="12" font-style="italic" lengthAdjust="spacing" textLength="677.3262" x="6" y="233.7637">El sistema ha detectado las siguientes asignaturas para importar. Por favor, revise los datos antes de confirmar.</text><text fill="#000000" font-family="sans-serif" font-size="12" font-weight="bold" lengthAdjust="spacing" textLength="67.0488" x="6" y="265.7012">Resumen:</text><text fill="#000000" font-family="sans-serif" font-size="12" lengthAdjust="spacing" textLength="279.9375" x="76.8633" y="265.7012">4 asignaturas nuevas detectadas. 0 conflictos.</text><text fill="#000000" font-family="sans-serif" font-size="12" font-weight="bold" lengthAdjust="spacing" textLength="46.5879" x="7" y="298.6387">C&#243;digo</text><text fill="#000000" font-family="sans-serif" font-size="12" font-weight="bold" lengthAdjust="spacing" textLength="131.6836" x="64.3945" y="298.6387">Nombre Asignatura</text><text fill="#000000" font-family="sans-serif" font-size="12" font-weight="bold" lengthAdjust="spacing" textLength="97.7051" x="198.0781" y="298.6387">Departamento</text><text fill="#000000" font-family="sans-serif" font-size="12" font-weight="bold" lengthAdjust="spacing" textLength="94.6992" x="297.7832" y="298.6387">Cr&#233;ditos ECTS</text><text fill="#000000" font-family="sans-serif" font-size="12" lengthAdjust="spacing" textLength="49.0488" x="7" y="314.6074">ING-101</text><text fill="#000000" font-family="sans-serif" font-size="12" lengthAdjust="spacing" textLength="116.0566" x="64.3945" y="314.6074">Introducci&#243;n a la IA</text><text fill="#000000" font-family="sans-serif" font-size="12" lengthAdjust="spacing" textLength="68.6777" x="198.0781" y="314.6074">Inform&#225;tica</text><text fill="#000000" font-family="sans-serif" font-size="12" lengthAdjust="spacing" textLength="19.084" x="297.7832" y="314.6074">6.0</text><text fill="#000000" font-family="sans-serif" font-size="12" lengthAdjust="spacing" textLength="53.127" x="7" y="330.5762">MAT-204</text><text fill="#000000" font-family="sans-serif" font-size="12" lengthAdjust="spacing" textLength="127.793" x="64.3945" y="330.5762">Estad&#237;stica Avanzada</text><text fill="#000000" font-family="sans-serif" font-size="12" lengthAdjust="spacing" textLength="77.0801" x="198.0781" y="330.5762">Matem&#225;ticas</text><text fill="#000000" font-family="sans-serif" font-size="12" lengthAdjust="spacing" textLength="19.084" x="297.7832" y="330.5762">4.5</text><text fill="#000000" font-family="sans-serif" font-size="12" lengthAdjust="spacing" textLength="45.293" x="7" y="346.5449">FIS-301</text><text fill="#000000" font-family="sans-serif" font-size="12" lengthAdjust="spacing" textLength="124.2188" x="64.3945" y="346.5449">Mec&#225;nica Cu&#225;ntica II</text><text fill="#000000" font-family="sans-serif" font-size="12" lengthAdjust="spacing" textLength="33.7734" x="198.0781" y="346.5449">F&#237;sica</text><text fill="#000000" font-family="sans-serif" font-size="12" lengthAdjust="spacing" textLength="19.084" x="297.7832" y="346.5449">6.0</text><text fill="#000000" font-family="sans-serif" font-size="12" lengthAdjust="spacing" textLength="55.3945" x="7" y="362.5137">HUM-105</text><text fill="#000000" font-family="sans-serif" font-size="12" lengthAdjust="spacing" textLength="109.541" x="64.3945" y="362.5137">&#201;tica y Tecnolog&#237;a</text><text fill="#000000" font-family="sans-serif" font-size="12" lengthAdjust="spacing" textLength="82.834" x="198.0781" y="362.5137">Humanidades</text><text fill="#000000" font-family="sans-serif" font-size="12" lengthAdjust="spacing" textLength="19.084" x="297.7832" y="362.5137">3.0</text><line style="stroke:#000000;stroke-width:1;" x1="6" x2="63.3945" y1="286.5" y2="286.5"/><line style="stroke:#000000;stroke-width:1;" x1="197.0781" x2="296.7832" y1="318.4375" y2="318.4375"/><line style="stroke:#000000;stroke-width:1;" x1="63.3945" x2="197.0781" y1="286.5" y2="286.5"/><line style="stroke:#000000;stroke-width:1;" x1="296.7832" x2="393.4824" y1="318.4375" y2="318.4375"/><line style="stroke:#000000;stroke-width:1;" x1="197.0781" x2="296.7832" y1="286.5" y2="286.5"/><line style="stroke:#000000;stroke-width:1;" x1="296.7832" x2="393.4824" y1="286.5" y2="286.5"/><line style="stroke:#000000;stroke-width:1;" x1="6" x2="63.3945" y1="366.3438" y2="366.3438"/><line style="stroke:#000000;stroke-width:1;" x1="63.3945" x2="197.0781" y1="366.3438" y2="366.3438"/><line style="stroke:#000000;stroke-width:1;" x1="197.0781" x2="296.7832" y1="366.3438" y2="366.3438"/><line style="stroke:#000000;stroke-width:1;" x1="6" x2="63.3945" y1="334.4063" y2="334.4063"/><line style="stroke:#000000;stroke-width:1;" x1="296.7832" x2="393.4824" y1="366.3438" y2="366.3438"/><line style="stroke:#000000;stroke-width:1;" x1="63.3945" x2="197.0781" y1="334.4063" y2="334.4063"/><line style="stroke:#000000;stroke-width:1;" x1="6" x2="63.3945" y1="302.4688" y2="302.4688"/><line style="stroke:#000000;stroke-width:1;" x1="197.0781" x2="296.7832" y1="334.4063" y2="334.4063"/><line style="stroke:#000000;stroke-width:1;" x1="63.3945" x2="197.0781" y1="302.4688" y2="302.4688"/><line style="stroke:#000000;stroke-width:1;" x1="296.7832" x2="393.4824" y1="334.4063" y2="334.4063"/><line style="stroke:#000000;stroke-width:1;" x1="197.0781" x2="296.7832" y1="302.4688" y2="302.4688"/><line style="stroke:#000000;stroke-width:1;" x1="296.7832" x2="393.4824" y1="302.4688" y2="302.4688"/><line style="stroke:#000000;stroke-width:1;" x1="6" x2="63.3945" y1="350.375" y2="350.375"/><line style="stroke:#000000;stroke-width:1;" x1="63.3945" x2="197.0781" y1="350.375" y2="350.375"/><line style="stroke:#000000;stroke-width:1;" x1="6" x2="63.3945" y1="318.4375" y2="318.4375"/><line style="stroke:#000000;stroke-width:1;" x1="197.0781" x2="296.7832" y1="350.375" y2="350.375"/><line style="stroke:#000000;stroke-width:1;" x1="63.3945" x2="197.0781" y1="318.4375" y2="318.4375"/><line style="stroke:#000000;stroke-width:1;" x1="296.7832" x2="393.4824" y1="350.375" y2="350.375"/><line style="stroke:#000000;stroke-width:1;" x1="6" x2="6" y1="286.5" y2="302.4688"/><line style="stroke:#000000;stroke-width:1;" x1="393.4824" x2="393.4824" y1="350.375" y2="366.3438"/><line style="stroke:#000000;stroke-width:1;" x1="63.3945" x2="63.3945" y1="286.5" y2="302.4688"/><line style="stroke:#000000;stroke-width:1;" x1="197.0781" x2="197.0781" y1="286.5" y2="302.4688"/><line style="stroke:#000000;stroke-width:1;" x1="296.7832" x2="296.7832" y1="286.5" y2="302.4688"/><line style="stroke:#000000;stroke-width:1;" x1="393.4824" x2="393.4824" y1="286.5" y2="302.4688"/><line style="stroke:#000000;stroke-width:1;" x1="6" x2="6" y1="334.4063" y2="350.375"/><line style="stroke:#000000;stroke-width:1;" x1="63.3945" x2="63.3945" y1="334.4063" y2="350.375"/><line style="stroke:#000000;stroke-width:1;" x1="197.0781" x2="197.0781" y1="334.4063" y2="350.375"/><line style="stroke:#000000;stroke-width:1;" x1="296.7832" x2="296.7832" y1="334.4063" y2="350.375"/><line style="stroke:#000000;stroke-width:1;" x1="393.4824" x2="393.4824" y1="334.4063" y2="350.375"/><line style="stroke:#000000;stroke-width:1;" x1="6" x2="6" y1="318.4375" y2="334.4063"/><line style="stroke:#000000;stroke-width:1;" x1="63.3945" x2="63.3945" y1="318.4375" y2="334.4063"/><line style="stroke:#000000;stroke-width:1;" x1="197.0781" x2="197.0781" y1="318.4375" y2="334.4063"/><line style="stroke:#000000;stroke-width:1;" x1="296.7832" x2="296.7832" y1="318.4375" y2="334.4063"/><line style="stroke:#000000;stroke-width:1;" x1="393.4824" x2="393.4824" y1="318.4375" y2="334.4063"/><line style="stroke:#000000;stroke-width:1;" x1="6" x2="6" y1="302.4688" y2="318.4375"/><line style="stroke:#000000;stroke-width:1;" x1="63.3945" x2="63.3945" y1="302.4688" y2="318.4375"/><line style="stroke:#000000;stroke-width:1;" x1="197.0781" x2="197.0781" y1="302.4688" y2="318.4375"/><line style="stroke:#000000;stroke-width:1;" x1="296.7832" x2="296.7832" y1="302.4688" y2="318.4375"/><line style="stroke:#000000;stroke-width:1;" x1="393.4824" x2="393.4824" y1="302.4688" y2="318.4375"/><line style="stroke:#000000;stroke-width:1;" x1="6" x2="6" y1="350.375" y2="366.3438"/><line style="stroke:#000000;stroke-width:1;" x1="63.3945" x2="63.3945" y1="350.375" y2="366.3438"/><line style="stroke:#000000;stroke-width:1;" x1="197.0781" x2="197.0781" y1="350.375" y2="366.3438"/><line style="stroke:#000000;stroke-width:1;" x1="296.7832" x2="296.7832" y1="350.375" y2="366.3438"/><line style="stroke:#AAAAAA;stroke-width:1;" x1="6" x2="684.3262" y1="402.7813" y2="402.7813"/><line style="stroke:#AAAAAA;stroke-width:1;" x1="6" x2="684.3262" y1="404.7813" y2="404.7813"/><text fill="#000000" font-family="sans-serif" font-size="12" lengthAdjust="spacing" textLength="103.3418" x="9" y="435.3887">Acciones Finales:</text><line style="stroke:#000000;stroke-width:1;" x1="7" x2="146" y1="438.2188" y2="438.2188"/><line style="stroke:#000000;stroke-width:1;" x1="7" x2="7" y1="435.2188" y2="437.2188"/><line style="stroke:#000000;stroke-width:1;" x1="146" x2="146" y1="435.2188" y2="437.2188"/><rect fill="#EEEEEE" height="17.9688" rx="5" ry="5" style="stroke:#000000;stroke-width:2.5;" width="196" x="9.5" y="445.7188"/><text fill="#000000" font-family="sans-serif" font-size="12" lengthAdjust="spacing" textLength="140.8477" x="37.0762" y="458.8574">X Cancelar Importaci&#243;n</text><rect fill="#EEEEEE" height="17.9688" rx="5" ry="5" style="stroke:#000000;stroke-width:2.5;" width="244" x="212.5" y="445.7188"/><text fill="#000000" font-family="sans-serif" font-size="12" lengthAdjust="spacing" textLength="179.4961" x="244.752" y="458.8574">&#10003; Confirmar e Importar Datos</text><line style="stroke:#000000;stroke-width:1;" x1="5" x2="684.3262" y1="5" y2="5"/><line style="stroke:#000000;stroke-width:1;" x1="684.3262" x2="783.8789" y1="5" y2="5"/><line style="stroke:#000000;stroke-width:1;" x1="5" x2="684.3262" y1="468.1875" y2="468.1875"/><line style="stroke:#000000;stroke-width:1;" x1="684.3262" x2="783.8789" y1="468.1875" y2="468.1875"/><line style="stroke:#000000;stroke-width:1;" x1="5" x2="5" y1="5" y2="20.9688"/><line style="stroke:#000000;stroke-width:1;" x1="783.8789" x2="783.8789" y1="5" y2="20.9688"/><line style="stroke:#000000;stroke-width:1;" x1="5" x2="5" y1="173.7188" y2="189.6875"/><line style="stroke:#000000;stroke-width:1;" x1="783.8789" x2="783.8789" y1="173.7188" y2="189.6875"/><line style="stroke:#000000;stroke-width:1;" x1="5" x2="5" y1="407.2813" y2="423.25"/><line style="stroke:#000000;stroke-width:1;" x1="783.8789" x2="783.8789" y1="407.2813" y2="423.25"/><line style="stroke:#000000;stroke-width:1;" x1="5" x2="5" y1="44.9375" y2="60.9063"/><line style="stroke:#000000;stroke-width:1;" x1="783.8789" x2="783.8789" y1="44.9375" y2="60.9063"/><line style="stroke:#000000;stroke-width:1;" x1="5" x2="5" y1="221.625" y2="237.5938"/><line style="stroke:#000000;stroke-width:1;" x1="783.8789" x2="783.8789" y1="221.625" y2="237.5938"/><line style="stroke:#000000;stroke-width:1;" x1="5" x2="5" y1="92.8438" y2="108.8125"/><line style="stroke:#000000;stroke-width:1;" x1="783.8789" x2="783.8789" y1="92.8438" y2="108.8125"/><line style="stroke:#000000;stroke-width:1;" x1="5" x2="5" y1="269.5313" y2="285.5"/><line style="stroke:#000000;stroke-width:1;" x1="783.8789" x2="783.8789" y1="269.5313" y2="285.5"/><line style="stroke:#000000;stroke-width:1;" x1="5" x2="5" y1="149.75" y2="165.7188"/><line style="stroke:#000000;stroke-width:1;" x1="783.8789" x2="783.8789" y1="149.75" y2="165.7188"/><line style="stroke:#000000;stroke-width:1;" x1="5" x2="5" y1="383.3125" y2="399.2813"/><line style="stroke:#000000;stroke-width:1;" x1="783.8789" x2="783.8789" y1="383.3125" y2="399.2813"/><line style="stroke:#000000;stroke-width:1;" x1="5" x2="5" y1="20.9688" y2="28.9688"/><line style="stroke:#000000;stroke-width:1;" x1="783.8789" x2="783.8789" y1="20.9688" y2="28.9688"/><line style="stroke:#000000;stroke-width:1;" x1="5" x2="5" y1="189.6875" y2="205.6563"/><line style="stroke:#000000;stroke-width:1;" x1="783.8789" x2="783.8789" y1="189.6875" y2="205.6563"/><line style="stroke:#000000;stroke-width:1;" x1="5" x2="5" y1="423.25" y2="441.2188"/><line style="stroke:#000000;stroke-width:1;" x1="783.8789" x2="783.8789" y1="423.25" y2="441.2188"/><line style="stroke:#000000;stroke-width:1;" x1="5" x2="5" y1="60.9063" y2="76.875"/><line style="stroke:#000000;stroke-width:1;" x1="783.8789" x2="783.8789" y1="60.9063" y2="76.875"/><line style="stroke:#000000;stroke-width:1;" x1="5" x2="5" y1="237.5938" y2="253.5625"/><line style="stroke:#000000;stroke-width:1;" x1="783.8789" x2="783.8789" y1="237.5938" y2="253.5625"/><line style="stroke:#000000;stroke-width:1;" x1="5" x2="5" y1="108.8125" y2="124.7813"/><line style="stroke:#000000;stroke-width:1;" x1="783.8789" x2="783.8789" y1="108.8125" y2="124.7813"/><line style="stroke:#000000;stroke-width:1;" x1="5" x2="5" y1="285.5" y2="367.3438"/><line style="stroke:#000000;stroke-width:1;" x1="783.8789" x2="783.8789" y1="285.5" y2="367.3438"/><line style="stroke:#000000;stroke-width:1;" x1="5" x2="5" y1="165.7188" y2="173.7188"/><line style="stroke:#000000;stroke-width:1;" x1="783.8789" x2="783.8789" y1="165.7188" y2="173.7188"/><line style="stroke:#000000;stroke-width:1;" x1="5" x2="5" y1="399.2813" y2="407.2813"/><line style="stroke:#000000;stroke-width:1;" x1="783.8789" x2="783.8789" y1="399.2813" y2="407.2813"/><line style="stroke:#000000;stroke-width:1;" x1="5" x2="5" y1="28.9688" y2="44.9375"/><line style="stroke:#000000;stroke-width:1;" x1="783.8789" x2="783.8789" y1="28.9688" y2="44.9375"/><line style="stroke:#000000;stroke-width:1;" x1="5" x2="5" y1="205.6563" y2="221.625"/><line style="stroke:#000000;stroke-width:1;" x1="783.8789" x2="783.8789" y1="205.6563" y2="221.625"/><line style="stroke:#000000;stroke-width:1;" x1="5" x2="5" y1="441.2188" y2="468.1875"/><line style="stroke:#000000;stroke-width:1;" x1="783.8789" x2="783.8789" y1="441.2188" y2="468.1875"/><line style="stroke:#000000;stroke-width:1;" x1="5" x2="5" y1="76.875" y2="92.8438"/><line style="stroke:#000000;stroke-width:1;" x1="783.8789" x2="783.8789" y1="76.875" y2="92.8438"/><line style="stroke:#000000;stroke-width:1;" x1="5" x2="5" y1="253.5625" y2="269.5313"/><line style="stroke:#000000;stroke-width:1;" x1="783.8789" x2="783.8789" y1="253.5625" y2="269.5313"/><line style="stroke:#000000;stroke-width:1;" x1="5" x2="5" y1="124.7813" y2="149.75"/><line style="stroke:#000000;stroke-width:1;" x1="783.8789" x2="783.8789" y1="124.7813" y2="149.75"/><line style="stroke:#000000;stroke-width:1;" x1="5" x2="5" y1="367.3438" y2="383.3125"/><line style="stroke:#000000;stroke-width:1;" x1="783.8789" x2="783.8789" y1="367.3438" y2="383.3125"/><!--SRC=[RLJ1RjDC4BxxAKRbqWfYaf0YiD88aph5fKwZn0s_XAfgOc_TbUpTQ7TjgHGUW3DNBXmvSE8HyYOy2RER9Wtm-sBlxiptVJFxZLzfWyfeB0tmQYaLhKBD2u6cLgYltiNJQ3GDayYxU-m1FVt584ucvzCqd48uYq_6ONen3MVmqQvcQJHEe_xJnS357XqTkRU_oPo4itFe131Z9Siollef86SmujaDKnBsXx9QbinWBW-s6ElSK6Ktl96GeIheE82zPOdYYcbJvrpggswxUtZLZBZ0qizqi-UI8crSR3-JfLH1eHWJWpcMFCSjzxLK5He2bagnpA3VV-gYTydVmn2h1KS5rnkbSrasJ06Mi4Gj0OLXYajr09SxUQtM_rJV3M0enJKdshM8MvXp4WeJnHgEVzNTvuEe14q1h4AuGP9ihCnSGecQ3egQCoBNW0-NHfeKRc_JXuaavTX8zGGiXsPGIWqvbQsTScqRaTsBKjG1FlXJ-9Jfkc8YiEAWzmULg5c3UYiBjGzjXrNoZF3z7Q2xH-vrZpbS_Snv8HtaHxinbjL2CNWmtyFHCQEA3984ivCmLAllERT5HCDqjcsSVUBnIQlJxb1SB8oIUNrlDgIkGHowVNlpgs-6PqZBvtvxcvo4QQlRxj6kCz3gXtP1OOFY0rL8-mdITQnpDIrx_k4sUHJFMiySSyAorJTXCuSrVJYCEAQ34I7-o_hc8Y79XxIx-knYRo5bcI0l5giVDlXDNQ4Ww-RCSZwxJ_sqqs1_CtIxKxSNKkrIK9AR3gQ3zN3SaQt_8sEBZ9Nax7ZjbdMRBedWFVpw-cLhLGLi4wBWs3ddahW_UQ-OoEtFm_CcD93c8Za36WnDZD3nxLJwdVP-MZCOomQegPrsq6q7lPUGp5AmvmVU_ida3BIiLSOW9wShlgWD0HnufzWWJ6lgNSK2E5yoSNhyThC1aMYuaiAwmZkT9my1ptkjrzpGJqRP6PqdtZ6xnff-S978PCv54S15EcgzyCvG53KMXCs4DvI4gsu3idHP_WO0]--></g></svg>