<svg xmlns="http://www.w3.org/2000/svg" xmlns:xlink="http://www.w3.org/1999/xlink" contentStyleType="text/css" data-diagram-type="STATE" height="786px" preserveAspectRatio="none" style="width:957px;height:786px;background:#FFFFFF;" version="1.1" viewBox="0 0 957 786" width="957px" zoomAndPan="magnify"><defs/><g><path d="M19.5,7 L931.0805,7 A12.5,12.5 0 0 1 943.5805,19.5 L943.5805,33.2969 L7,33.2969 L7,19.5 A12.5,12.5 0 0 1 19.5,7" fill="#F1F1F1"/><rect fill="none" height="663.2969" rx="12.5" ry="12.5" style="stroke:#181818;stroke-width:0.5;" width="936.5805" x="7" y="7"/><line style="stroke:#181818;stroke-width:0.5;" x1="7" x2="943.5805" y1="33.2969" y2="33.2969"/><text fill="#000000" font-family="sans-serif" font-size="14" lengthAdjust="spacing" textLength="131.5645" x="409.508" y="24.9951">exportarAlumnos()</text><g id="exportarAlumnos.RequiringExport"><rect fill="#F1F1F1" height="50" rx="12.5" ry="12.5" style="stroke:#181818;stroke-width:0.5;" width="50" x="303.5805" y="135.2969"/><line style="stroke:#181818;stroke-width:0.5;" x1="303.5805" x2="353.5805" y1="161.5938" y2="161.5938"/><text fill="#000000" font-family="sans-serif" font-size="14" lengthAdjust="spacing" textLength="4.4502" x="326.3554" y="153.292">&#160;</text></g><g id="exportarAlumnos.ProvidingAlumnos"><rect fill="#F1F1F1" height="50" rx="12.5" ry="12.5" style="stroke:#181818;stroke-width:0.5;" width="50" x="303.5805" y="271.2969"/><line style="stroke:#181818;stroke-width:0.5;" x1="303.5805" x2="353.5805" y1="297.5938" y2="297.5938"/><text fill="#000000" font-family="sans-serif" font-size="14" lengthAdjust="spacing" textLength="4.4502" x="326.3554" y="289.292">&#160;</text></g><g id="exportarAlumnos.ProvidingConfirmation"><rect fill="#F1F1F1" height="50" rx="12.5" ry="12.5" style="stroke:#181818;stroke-width:0.5;" width="50" x="25.5805" y="392.2969"/><line style="stroke:#181818;stroke-width:0.5;" x1="25.5805" x2="75.5805" y1="418.5938" y2="418.5938"/><text fill="#000000" font-family="sans-serif" font-size="14" lengthAdjust="spacing" textLength="4.4502" x="48.3554" y="410.292">&#160;</text></g><g class="entity" data-entity="c" data-uid="ent0006" id="entity_c"><polygon fill="#F1F1F1" points="328.5805,543.2969,340.5805,555.2969,328.5805,567.2969,316.5805,555.2969,328.5805,543.2969" style="stroke:#181818;stroke-width:0.5;"/></g><ellipse cx="328.5805" cy="54.2969" fill="#222222" rx="10" ry="10" style="stroke:#222222;stroke-width:1;"/><ellipse cx="328.5805" cy="649.2969" fill="none" rx="11" ry="11" style="stroke:#222222;stroke-width:1;"/><ellipse cx="328.5805" cy="649.2969" fill="#222222" rx="6" ry="6" style="stroke:#222222;stroke-width:1;"/><!--link *start*exportarAlumnos to RequiringExport--><g class="link" data-entity-1=".start.exportarAlumnos" data-entity-2="RequiringExport" data-source-line="10" data-uid="lnk3" id="link_.start.exportarAlumnos_RequiringExport"><path d="M328.5805,64.5269 C328.5805,80.2369 328.5805,106.6569 328.5805,129.1669" fill="none" id="*start*exportarAlumnos-to-RequiringExport" style="stroke:#008000;stroke-width:1;"/><polygon fill="#008000" points="328.5805,135.1669,332.5805,126.1669,328.5805,130.1669,324.5805,126.1669,328.5805,135.1669" style="stroke:#008000;stroke-width:1;"/><path d="M333.5805,87.2969 L333.5805,112.2969 L583.5805,112.2969 L583.5805,97.2969 L573.5805,87.2969 L333.5805,87.2969" fill="#FEFFDD" style="stroke:#181818;stroke-width:0.5;"/><path d="M573.5805,87.2969 L573.5805,97.2969 L583.5805,97.2969 L573.5805,87.2969" fill="#FEFFDD" style="stroke:#181818;stroke-width:0.5;"/><text fill="#000000" font-family="sans-serif" font-size="13" font-weight="bold" lengthAdjust="spacing" textLength="60.5313" x="339.5805" y="104.3638">Docente</text><text fill="#000000" font-family="sans-serif" font-size="13" lengthAdjust="spacing" textLength="165.1343" x="404.2441" y="104.3638">solicita exportar alumnos</text></g><!--link RequiringExport to ProvidingAlumnos--><g class="link" data-entity-1="RequiringExport" data-entity-2="ProvidingAlumnos" data-source-line="15" data-uid="lnk4" id="link_RequiringExport_ProvidingAlumnos"><path d="M328.5805,185.5669 C328.5805,209.8469 328.5805,240.9869 328.5805,265.2069" fill="none" id="RequiringExport-to-ProvidingAlumnos" style="stroke:#008000;stroke-width:1;"/><polygon fill="#008000" points="328.5805,271.2069,332.5805,262.2069,328.5805,266.2069,324.5805,262.2069,328.5805,271.2069" style="stroke:#008000;stroke-width:1;"/><path d="M333.5805,208.2969 L333.5805,248.2969 L534.5805,248.2969 L534.5805,218.2969 L524.5805,208.2969 L333.5805,208.2969" fill="#FEFFDD" style="stroke:#181818;stroke-width:0.5;"/><path d="M524.5805,208.2969 L524.5805,218.2969 L534.5805,218.2969 L524.5805,208.2969" fill="#FEFFDD" style="stroke:#181818;stroke-width:0.5;"/><text fill="#000000" font-family="sans-serif" font-size="13" font-weight="bold" lengthAdjust="spacing" textLength="58.9063" x="339.5805" y="225.3638">Sistema</text><text fill="#000000" font-family="sans-serif" font-size="13" lengthAdjust="spacing" textLength="117.9395" x="402.6191" y="225.3638">permite introducir</text><text fill="#000000" font-family="sans-serif" font-size="13" lengthAdjust="spacing" textLength="139.1279" x="339.5805" y="240.4966">&#8226; alumnos a exportar</text></g><!--link ProvidingAlumnos to ProvidingConfirmation--><g class="link" data-entity-1="ProvidingAlumnos" data-entity-2="ProvidingConfirmation" data-source-line="21" data-uid="lnk5" id="link_ProvidingAlumnos_ProvidingConfirmation"><path d="M303.2705,300.8069 C230.4405,310.8969 25.5805,339.2969 25.5805,339.2969 C25.5805,339.2969 25.5805,374.2969 25.5805,374.2969 C25.5805,374.2969 27.4716,377.4711 32.9716,386.7111" fill="none" id="ProvidingAlumnos-to-ProvidingConfirmation" style="stroke:#008000;stroke-width:1;"/><polygon fill="#008000" points="36.0405,391.8669,34.8743,382.0873,33.4831,387.5704,28,386.1792,36.0405,391.8669" style="stroke:#008000;stroke-width:1;"/><path d="M30.5805,344.2969 L30.5805,369.2969 L309.5805,369.2969 L309.5805,354.2969 L299.5805,344.2969 L30.5805,344.2969" fill="#FEFFDD" style="stroke:#181818;stroke-width:0.5;"/><path d="M299.5805,344.2969 L299.5805,354.2969 L309.5805,354.2969 L299.5805,344.2969" fill="#FEFFDD" style="stroke:#181818;stroke-width:0.5;"/><text fill="#000000" font-family="sans-serif" font-size="13" font-weight="bold" lengthAdjust="spacing" textLength="60.5313" x="36.5805" y="361.3638">Docente</text><text fill="#000000" font-family="sans-serif" font-size="13" lengthAdjust="spacing" textLength="193.3433" x="101.2441" y="361.3638">introduce alumnos a exportar</text></g><!--link ProvidingConfirmation to c--><g class="link" data-entity-1="ProvidingConfirmation" data-entity-2="c" data-source-line="26" data-uid="lnk6" id="link_ProvidingConfirmation_c"><path d="M68.0505,442.5769 C90.7705,474.1469 127.5805,525.2969 127.5805,525.2969 C127.5805,525.2969 272.112,546.1504 312.672,552.0004" fill="none" id="ProvidingConfirmation-to-c" style="stroke:#008000;stroke-width:1;"/><polygon fill="#008000" points="318.6105,552.8569,310.2737,547.6131,313.6617,552.1431,309.1317,555.5311,318.6105,552.8569" style="stroke:#008000;stroke-width:1;"/><path d="M132.5805,465.2969 L132.5805,520.2969 L309.5805,520.2969 L309.5805,475.2969 L299.5805,465.2969 L132.5805,465.2969" fill="#FEFFDD" style="stroke:#181818;stroke-width:0.5;"/><path d="M299.5805,465.2969 L299.5805,475.2969 L309.5805,475.2969 L299.5805,465.2969" fill="#FEFFDD" style="stroke:#181818;stroke-width:0.5;"/><text fill="#000000" font-family="sans-serif" font-size="13" font-weight="bold" lengthAdjust="spacing" textLength="60.5313" x="138.5805" y="482.3638">Docente</text><text fill="#000000" font-family="sans-serif" font-size="13" lengthAdjust="spacing" textLength="45.7729" x="203.2441" y="482.3638">solicita</text><text fill="#000000" font-family="sans-serif" font-size="13" lengthAdjust="spacing" textLength="156.0381" x="138.5805" y="497.4966">&#8226; confirmar exportaci&#243;n</text><text fill="#000000" font-family="sans-serif" font-size="13" lengthAdjust="spacing" textLength="148.6113" x="138.5805" y="512.6294">&#8226; cancelar exportaci&#243;n</text></g><!--link c to ProvidingAlumnos--><g class="link" data-entity-1="c" data-entity-2="ProvidingAlumnos" data-source-line="33" data-uid="lnk7" id="link_c_ProvidingAlumnos"><path d="M328.5805,542.7069 C328.5805,503.4969 328.5805,381.3269 328.5805,327.4769" fill="none" id="c-to-ProvidingAlumnos" style="stroke:#FF0000;stroke-width:1;"/><polygon fill="#FF0000" points="328.5805,321.4769,324.5805,330.4769,328.5805,326.4769,332.5805,330.4769,328.5805,321.4769" style="stroke:#FF0000;stroke-width:1;"/><path d="M333.5805,404.7969 L333.5805,429.7969 L544.5805,429.7969 L544.5805,414.7969 L534.5805,404.7969 L333.5805,404.7969" fill="#FEFFDD" style="stroke:#181818;stroke-width:0.5;"/><path d="M534.5805,404.7969 L534.5805,414.7969 L544.5805,414.7969 L534.5805,404.7969" fill="#FEFFDD" style="stroke:#181818;stroke-width:0.5;"/><text fill="#000000" font-family="sans-serif" font-size="13" lengthAdjust="spacing" textLength="190.0425" x="339.5805" y="421.8638">Docente cancela exportaci&#243;n</text></g><!--link c to ProvidingAlumnos--><g class="link" data-entity-1="c" data-entity-2="ProvidingAlumnos" data-source-line="38" data-uid="lnk8" id="link_c_ProvidingAlumnos"><path d="M336.3305,550.4369 C375.8905,530.7469 553.5805,442.2969 553.5805,442.2969 C553.5805,442.2969 553.5805,392.2969 553.5805,392.2969 C553.5805,392.2969 418.3279,335.1909 359.4779,310.3409" fill="none" id="c-to-ProvidingAlumnos-1" style="stroke:#FF0000;stroke-width:1;"/><polygon fill="#FF0000" points="353.9505,308.0069,360.6857,315.1928,358.5567,309.9519,363.7977,307.8229,353.9505,308.0069" style="stroke:#FF0000;stroke-width:1;"/><path d="M558.5805,404.7969 L558.5805,429.7969 L934.5805,429.7969 L934.5805,414.7969 L924.5805,404.7969 L558.5805,404.7969" fill="#FEFFDD" style="stroke:#181818;stroke-width:0.5;"/><path d="M924.5805,404.7969 L924.5805,414.7969 L934.5805,414.7969 L924.5805,404.7969" fill="#FEFFDD" style="stroke:#181818;stroke-width:0.5;"/><text fill="#000000" font-family="sans-serif" font-size="13" lengthAdjust="spacing" textLength="355.437" x="564.5805" y="421.8638">Docente confirma exportaci&#243;n: error en la exportaci&#243;n</text></g><!--link c to *end*exportarAlumnos--><g class="link" data-entity-1="c" data-entity-2=".end.exportarAlumnos" data-source-line="43" data-uid="lnk10" id="link_c_.end.exportarAlumnos"><path d="M328.5805,567.9469 C328.5805,586.0369 328.5805,614.5669 328.5805,631.8769" fill="none" id="c-to-*end*exportarAlumnos" style="stroke:#008000;stroke-width:1;"/><polygon fill="#008000" points="328.5805,637.8769,332.5805,628.8769,328.5805,632.8769,324.5805,628.8769,328.5805,637.8769" style="stroke:#008000;stroke-width:1;"/><path d="M333.5805,590.2969 L333.5805,615.2969 L688.5805,615.2969 L688.5805,600.2969 L678.5805,590.2969 L333.5805,590.2969" fill="#FEFFDD" style="stroke:#181818;stroke-width:0.5;"/><path d="M678.5805,590.2969 L678.5805,600.2969 L688.5805,600.2969 L678.5805,590.2969" fill="#FEFFDD" style="stroke:#181818;stroke-width:0.5;"/><text fill="#000000" font-family="sans-serif" font-size="13" lengthAdjust="spacing" textLength="334.4644" x="339.5805" y="607.3638">Docente confirma exportaci&#243;n: exportaci&#243;n exitosa</text></g><g id="ALUMNOS_ABIERTO"><rect fill="#F1F1F1" height="50" rx="12.5" ry="12.5" style="stroke:#181818;stroke-width:0.5;" width="158.5371" x="396.02" y="730.3"/><line style="stroke:#181818;stroke-width:0.5;" x1="396.02" x2="554.5571" y1="756.5969" y2="756.5969"/><text fill="#000000" font-family="sans-serif" font-size="14" lengthAdjust="spacing" textLength="138.5371" x="406.02" y="748.2951">ALUMNOS_ABIERTO</text></g><!--link ALUMNOS_ABIERTO to exportarAlumnos--><g class="link" data-entity-1="ALUMNOS_ABIERTO" data-entity-2="exportarAlumnos" data-source-line="49" data-uid="lnk12" id="link_ALUMNOS_ABIERTO_exportarAlumnos"><path d="M482.05,730.12 C483.86,715.34 485.043,700.6341 486.123,676.3841" fill="none" id="ALUMNOS_ABIERTO-to-exportarAlumnos" style="stroke:#008000;stroke-width:1;"/><polygon fill="#008000" points="486.39,670.39,481.9935,679.2031,486.1675,675.385,489.9856,679.5591,486.39,670.39" style="stroke:#008000;stroke-width:1;"/></g><!--link exportarAlumnos to ALUMNOS_ABIERTO--><g class="link" data-entity-1="exportarAlumnos" data-entity-2="ALUMNOS_ABIERTO" data-source-line="50" data-uid="lnk13" id="link_exportarAlumnos_ALUMNOS_ABIERTO"><path d="M464.81,670.39 C465.83,694.64 466.5004,709.3798 468.2104,724.1598" fill="none" id="exportarAlumnos-to-ALUMNOS_ABIERTO" style="stroke:#008000;stroke-width:1;"/><polygon fill="#008000" points="468.9,730.12,471.8391,720.7199,468.3253,725.1531,463.8921,721.6394,468.9,730.12" style="stroke:#008000;stroke-width:1;"/></g><!--SRC=[jPJFIWCn4CRlUOfGBoeKxx8iLEr1K2kjdagHD3lMeRkPDKd58eBFuYlu2Bw9JsAw_xhPBjeAPa-JV3FVRoPip1nLAhH8U8mAx385dbAyN0MC6IiiS7XEILkXU_4YKMIuCBpJsDi_wF0NnhXRUKx7VKutXCS5QbIpVgRV55nhUiB82Of2FoXEITsZJeH5KZMPv44W7mWbX65EC3wSyEvuRwO1rAGRja8eSgcaLatFiurW6fwH16KXE9g6t52C4gseckUY1WWgoYkubNisF3p_rXxR04PeB2GY0qX19-WagAocQ25HPwglj_UIXA_XFAWSg6dQJhGnqz_cKkB0ZXHr8mz5xdGTrGnaKK-NxX8_FzJwM2W9STkfpoTNB1gYxQ-fe2eT_j6WwD1pEEQWDRcsNC9stjMWtL_nDyDQv0AqP8HlzifOx-BsycemkkkTdFU7DmFFkF5KiEPpKjSswdm3]--></g></svg>