<svg xmlns="http://www.w3.org/2000/svg" xmlns:xlink="http://www.w3.org/1999/xlink" contentStyleType="text/css" data-diagram-type="SALT" height="423px" preserveAspectRatio="none" style="width:519px;height:423px;background:#FFFFFF;" version="1.1" viewBox="0 0 519 423" width="519px" zoomAndPan="magnify"><defs/><g><text fill="#000000" font-family="sans-serif" font-size="12" font-weight="bold" lengthAdjust="spacing" textLength="182.7715" x="6" y="17.1387">GESTI&#211;N DE ASIGNATURAS</text><line style="stroke:#AAAAAA;stroke-width:1;" x1="6" x2="512.8145" y1="24.4688" y2="24.4688"/><line style="stroke:#AAAAAA;stroke-width:1;" x1="6" x2="512.8145" y1="26.4688" y2="26.4688"/><text fill="#000000" font-family="sans-serif" font-size="12" font-weight="bold" lengthAdjust="spacing" textLength="167.0918" x="6" y="41.1074">1. Criterios de B&#250;squeda</text><text fill="#000000" font-family="sans-serif" font-size="12" font-style="italic" lengthAdjust="spacing" textLength="209.959" x="6" y="57.0762">Filtre por curso, grado o texto libre</text><text fill="#000000" font-family="sans-serif" font-size="12" lengthAdjust="spacing" textLength="108.4922" x="7" y="90.0137">Curso Acad&#233;mico:</text><rect fill="#EEEEEE" height="16.9688" style="stroke:#000000;stroke-width:1;" width="159" x="117.4922" y="78.875"/><text fill="#000000" font-family="sans-serif" font-size="12" lengthAdjust="spacing" textLength="116.1035" x="119.4922" y="92.0137">2024/2025 (Actual)</text><line style="stroke:#000000;stroke-width:1;" x1="265.4922" x2="265.4922" y1="78.875" y2="95.8438"/><polygon fill="#000000" points="268.4922,84.875,274.4922,84.875,271.4922,90.8438" style="stroke:#000000;stroke-width:1;"/><text fill="#000000" font-family="sans-serif" font-size="12" lengthAdjust="spacing" textLength="98.4492" x="7" y="109.9824">Grado Asociado:</text><rect fill="#EEEEEE" height="16.9688" style="stroke:#000000;stroke-width:1;" width="143" x="117.4922" y="98.8438"/><text fill="#000000" font-family="sans-serif" font-size="12" lengthAdjust="spacing" textLength="101.5547" x="119.4922" y="111.9824">Todos los grados</text><line style="stroke:#000000;stroke-width:1;" x1="249.4922" x2="249.4922" y1="98.8438" y2="115.8125"/><polygon fill="#000000" points="252.4922,104.8438,258.4922,104.8438,255.4922,110.8125" style="stroke:#000000;stroke-width:1;"/><text fill="#000000" font-family="sans-serif" font-size="12" lengthAdjust="spacing" textLength="105.7324" x="7" y="129.9512">B&#250;squeda r&#225;pida:</text><text fill="#000000" font-family="sans-serif" font-size="12" lengthAdjust="spacing" textLength="114.2051" x="120.4922" y="129.9512">Nombre o c&#243;digo...</text><line style="stroke:#000000;stroke-width:1;" x1="118.4922" x2="345.4922" y1="132.7813" y2="132.7813"/><line style="stroke:#000000;stroke-width:1;" x1="118.4922" x2="118.4922" y1="129.7813" y2="131.7813"/><line style="stroke:#000000;stroke-width:1;" x1="345.4922" x2="345.4922" y1="129.7813" y2="131.7813"/><rect fill="#EEEEEE" height="17.9688" rx="5" ry="5" style="stroke:#000000;stroke-width:2.5;" width="52" x="351.9922" y="121.3125"/><text fill="#000000" font-family="sans-serif" font-size="12" lengthAdjust="spacing" textLength="40.9746" x="357.5049" y="134.4512">Buscar</text><line style="stroke:#AAAAAA;stroke-width:1;" x1="6" x2="512.8145" y1="164.25" y2="164.25"/><text fill="#000000" font-family="sans-serif" font-size="12" font-weight="bold" lengthAdjust="spacing" textLength="172.9512" x="6" y="195.8574">2. Listado de Asignaturas</text><text fill="#000000" font-family="sans-serif" font-size="12" font-weight="bold" lengthAdjust="spacing" textLength="46.5879" x="7" y="228.7949">C&#243;digo</text><text fill="#000000" font-family="sans-serif" font-size="12" font-weight="bold" lengthAdjust="spacing" textLength="168.9785" x="62.127" y="228.7949">Nombre de la Asignatura</text><text fill="#000000" font-family="sans-serif" font-size="12" font-weight="bold" lengthAdjust="spacing" textLength="38.6543" x="233.1055" y="228.7949">Curso</text><text fill="#000000" font-family="sans-serif" font-size="12" font-weight="bold" lengthAdjust="spacing" textLength="47.8418" x="284.957" y="228.7949">Grados</text><text fill="#000000" font-family="sans-serif" font-size="12" font-weight="bold" lengthAdjust="spacing" textLength="58.377" x="334.7988" y="228.7949">Alumnos</text><text fill="#000000" font-family="sans-serif" font-size="12" font-weight="bold" lengthAdjust="spacing" textLength="59.6953" x="396.0137" y="228.7949">Acciones</text><text fill="#000000" font-family="sans-serif" font-size="12" lengthAdjust="spacing" textLength="53.127" x="7" y="244.7637">MAT-101</text><text fill="#000000" font-family="sans-serif" font-size="12" lengthAdjust="spacing" textLength="51.2988" x="62.127" y="244.7637">C&#225;lculo I</text><text fill="#000000" font-family="sans-serif" font-size="12" lengthAdjust="spacing" textLength="49.8516" x="233.1055" y="244.7637">2024/25</text><text fill="#000000" font-family="sans-serif" font-size="12" lengthAdjust="spacing" textLength="47.1973" x="284.957" y="244.7637">GII, GIM</text><text fill="#000000" font-family="sans-serif" font-size="12" lengthAdjust="spacing" textLength="59.2148" x="334.7988" y="244.7637">120 matr.</text><rect fill="#EEEEEE" height="17.9688" rx="5" ry="5" style="stroke:#000000;stroke-width:2.5;" width="100" x="398.5137" y="236.125"/><text fill="#000000" font-family="sans-serif" font-size="12" lengthAdjust="spacing" textLength="67.7227" x="414.6523" y="249.2637">Ver / Editar</text><text fill="#000000" font-family="sans-serif" font-size="12" lengthAdjust="spacing" textLength="46.6523" x="7" y="269.7324">INF-202</text><text fill="#000000" font-family="sans-serif" font-size="12" lengthAdjust="spacing" textLength="92.9941" x="62.127" y="269.7324">Bases de Datos</text><text fill="#000000" font-family="sans-serif" font-size="12" lengthAdjust="spacing" textLength="49.8516" x="233.1055" y="269.7324">2024/25</text><text fill="#000000" font-family="sans-serif" font-size="12" lengthAdjust="spacing" textLength="16.377" x="284.957" y="269.7324">GII</text><text fill="#000000" font-family="sans-serif" font-size="12" lengthAdjust="spacing" textLength="51.5801" x="334.7988" y="269.7324">85 matr.</text><rect fill="#EEEEEE" height="17.9688" rx="5" ry="5" style="stroke:#000000;stroke-width:2.5;" width="100" x="398.5137" y="261.0938"/><text fill="#000000" font-family="sans-serif" font-size="12" lengthAdjust="spacing" textLength="67.7227" x="414.6523" y="274.2324">Ver / Editar</text><text fill="#000000" font-family="sans-serif" font-size="12" lengthAdjust="spacing" textLength="45.293" x="7" y="294.7012">FIS-100</text><text fill="#000000" font-family="sans-serif" font-size="12" lengthAdjust="spacing" textLength="84.8789" x="62.127" y="294.7012">F&#237;sica General</text><text fill="#000000" font-family="sans-serif" font-size="12" lengthAdjust="spacing" textLength="49.8516" x="233.1055" y="294.7012">2023/24</text><text fill="#000000" font-family="sans-serif" font-size="12" lengthAdjust="spacing" textLength="23.1914" x="284.957" y="294.7012">GIM</text><text fill="#000000" font-family="sans-serif" font-size="12" lengthAdjust="spacing" textLength="51.5801" x="334.7988" y="294.7012">40 matr.</text><rect fill="#EEEEEE" height="17.9688" rx="5" ry="5" style="stroke:#000000;stroke-width:2.5;" width="100" x="398.5137" y="286.0625"/><text fill="#000000" font-family="sans-serif" font-size="12" lengthAdjust="spacing" textLength="67.7227" x="414.6523" y="299.2012">Ver / Editar</text><text fill="#000000" font-family="sans-serif" font-size="12" lengthAdjust="spacing" textLength="51.2461" x="7" y="319.6699">OPT-301</text><text fill="#000000" font-family="sans-serif" font-size="12" lengthAdjust="spacing" textLength="122.9648" x="62.127" y="319.6699">Inteligencia Artificial</text><text fill="#000000" font-family="sans-serif" font-size="12" lengthAdjust="spacing" textLength="49.8516" x="233.1055" y="319.6699">2024/25</text><text fill="#000000" font-family="sans-serif" font-size="12" lengthAdjust="spacing" textLength="46.084" x="284.957" y="319.6699">GII, GID</text><text fill="#000000" font-family="sans-serif" font-size="12" lengthAdjust="spacing" textLength="51.5801" x="334.7988" y="319.6699">60 matr.</text><rect fill="#EEEEEE" height="17.9688" rx="5" ry="5" style="stroke:#000000;stroke-width:2.5;" width="100" x="398.5137" y="311.0313"/><text fill="#000000" font-family="sans-serif" font-size="12" lengthAdjust="spacing" textLength="67.7227" x="414.6523" y="324.1699">Ver / Editar</text><line style="stroke:#000000;stroke-width:1;" x1="6" x2="61.127" y1="216.6563" y2="216.6563"/><line style="stroke:#000000;stroke-width:1;" x1="333.7988" x2="395.0137" y1="307.5313" y2="307.5313"/><line style="stroke:#000000;stroke-width:1;" x1="61.127" x2="232.1055" y1="216.6563" y2="216.6563"/><line style="stroke:#000000;stroke-width:1;" x1="395.0137" x2="502.0137" y1="307.5313" y2="307.5313"/><line style="stroke:#000000;stroke-width:1;" x1="232.1055" x2="283.957" y1="216.6563" y2="216.6563"/><line style="stroke:#000000;stroke-width:1;" x1="283.957" x2="333.7988" y1="216.6563" y2="216.6563"/><line style="stroke:#000000;stroke-width:1;" x1="333.7988" x2="395.0137" y1="216.6563" y2="216.6563"/><line style="stroke:#000000;stroke-width:1;" x1="395.0137" x2="502.0137" y1="216.6563" y2="216.6563"/><line style="stroke:#000000;stroke-width:1;" x1="6" x2="61.127" y1="282.5625" y2="282.5625"/><line style="stroke:#000000;stroke-width:1;" x1="61.127" x2="232.1055" y1="282.5625" y2="282.5625"/><line style="stroke:#000000;stroke-width:1;" x1="232.1055" x2="283.957" y1="282.5625" y2="282.5625"/><line style="stroke:#000000;stroke-width:1;" x1="283.957" x2="333.7988" y1="282.5625" y2="282.5625"/><line style="stroke:#000000;stroke-width:1;" x1="333.7988" x2="395.0137" y1="282.5625" y2="282.5625"/><line style="stroke:#000000;stroke-width:1;" x1="395.0137" x2="502.0137" y1="282.5625" y2="282.5625"/><line style="stroke:#000000;stroke-width:1;" x1="6" x2="61.127" y1="348.4688" y2="348.4688"/><line style="stroke:#000000;stroke-width:1;" x1="61.127" x2="232.1055" y1="348.4688" y2="348.4688"/><line style="stroke:#000000;stroke-width:1;" x1="232.1055" x2="283.957" y1="348.4688" y2="348.4688"/><line style="stroke:#000000;stroke-width:1;" x1="283.957" x2="333.7988" y1="348.4688" y2="348.4688"/><line style="stroke:#000000;stroke-width:1;" x1="333.7988" x2="395.0137" y1="348.4688" y2="348.4688"/><line style="stroke:#000000;stroke-width:1;" x1="6" x2="61.127" y1="257.5938" y2="257.5938"/><line style="stroke:#000000;stroke-width:1;" x1="395.0137" x2="502.0137" y1="348.4688" y2="348.4688"/><line style="stroke:#000000;stroke-width:1;" x1="61.127" x2="232.1055" y1="257.5938" y2="257.5938"/><line style="stroke:#000000;stroke-width:1;" x1="232.1055" x2="283.957" y1="257.5938" y2="257.5938"/><line style="stroke:#000000;stroke-width:1;" x1="283.957" x2="333.7988" y1="257.5938" y2="257.5938"/><line style="stroke:#000000;stroke-width:1;" x1="333.7988" x2="395.0137" y1="257.5938" y2="257.5938"/><line style="stroke:#000000;stroke-width:1;" x1="395.0137" x2="502.0137" y1="257.5938" y2="257.5938"/><line style="stroke:#000000;stroke-width:1;" x1="6" x2="61.127" y1="332.5" y2="332.5"/><line style="stroke:#000000;stroke-width:1;" x1="61.127" x2="232.1055" y1="332.5" y2="332.5"/><line style="stroke:#000000;stroke-width:1;" x1="232.1055" x2="283.957" y1="332.5" y2="332.5"/><line style="stroke:#000000;stroke-width:1;" x1="283.957" x2="333.7988" y1="332.5" y2="332.5"/><line style="stroke:#000000;stroke-width:1;" x1="6" x2="61.127" y1="232.625" y2="232.625"/><line style="stroke:#000000;stroke-width:1;" x1="333.7988" x2="395.0137" y1="332.5" y2="332.5"/><line style="stroke:#000000;stroke-width:1;" x1="61.127" x2="232.1055" y1="232.625" y2="232.625"/><line style="stroke:#000000;stroke-width:1;" x1="395.0137" x2="502.0137" y1="332.5" y2="332.5"/><line style="stroke:#000000;stroke-width:1;" x1="232.1055" x2="283.957" y1="232.625" y2="232.625"/><line style="stroke:#000000;stroke-width:1;" x1="283.957" x2="333.7988" y1="232.625" y2="232.625"/><line style="stroke:#000000;stroke-width:1;" x1="333.7988" x2="395.0137" y1="232.625" y2="232.625"/><line style="stroke:#000000;stroke-width:1;" x1="395.0137" x2="502.0137" y1="232.625" y2="232.625"/><line style="stroke:#000000;stroke-width:1;" x1="6" x2="61.127" y1="307.5313" y2="307.5313"/><line style="stroke:#000000;stroke-width:1;" x1="61.127" x2="232.1055" y1="307.5313" y2="307.5313"/><line style="stroke:#000000;stroke-width:1;" x1="232.1055" x2="283.957" y1="307.5313" y2="307.5313"/><line style="stroke:#000000;stroke-width:1;" x1="283.957" x2="333.7988" y1="307.5313" y2="307.5313"/><line style="stroke:#000000;stroke-width:1;" x1="6" x2="6" y1="216.6563" y2="232.625"/><line style="stroke:#000000;stroke-width:1;" x1="333.7988" x2="333.7988" y1="307.5313" y2="332.5"/><line style="stroke:#000000;stroke-width:1;" x1="61.127" x2="61.127" y1="216.6563" y2="232.625"/><line style="stroke:#000000;stroke-width:1;" x1="395.0137" x2="395.0137" y1="307.5313" y2="332.5"/><line style="stroke:#000000;stroke-width:1;" x1="502.0137" x2="502.0137" y1="307.5313" y2="332.5"/><line style="stroke:#000000;stroke-width:1;" x1="232.1055" x2="232.1055" y1="216.6563" y2="232.625"/><line style="stroke:#000000;stroke-width:1;" x1="283.957" x2="283.957" y1="216.6563" y2="232.625"/><line style="stroke:#000000;stroke-width:1;" x1="333.7988" x2="333.7988" y1="216.6563" y2="232.625"/><line style="stroke:#000000;stroke-width:1;" x1="395.0137" x2="395.0137" y1="216.6563" y2="232.625"/><line style="stroke:#000000;stroke-width:1;" x1="502.0137" x2="502.0137" y1="216.6563" y2="232.625"/><line style="stroke:#000000;stroke-width:1;" x1="6" x2="6" y1="282.5625" y2="307.5313"/><line style="stroke:#000000;stroke-width:1;" x1="61.127" x2="61.127" y1="282.5625" y2="307.5313"/><line style="stroke:#000000;stroke-width:1;" x1="232.1055" x2="232.1055" y1="282.5625" y2="307.5313"/><line style="stroke:#000000;stroke-width:1;" x1="283.957" x2="283.957" y1="282.5625" y2="307.5313"/><line style="stroke:#000000;stroke-width:1;" x1="333.7988" x2="333.7988" y1="282.5625" y2="307.5313"/><line style="stroke:#000000;stroke-width:1;" x1="395.0137" x2="395.0137" y1="282.5625" y2="307.5313"/><line style="stroke:#000000;stroke-width:1;" x1="502.0137" x2="502.0137" y1="282.5625" y2="307.5313"/><line style="stroke:#000000;stroke-width:1;" x1="6" x2="6" y1="257.5938" y2="282.5625"/><line style="stroke:#000000;stroke-width:1;" x1="61.127" x2="61.127" y1="257.5938" y2="282.5625"/><line style="stroke:#000000;stroke-width:1;" x1="232.1055" x2="232.1055" y1="257.5938" y2="282.5625"/><line style="stroke:#000000;stroke-width:1;" x1="283.957" x2="283.957" y1="257.5938" y2="282.5625"/><line style="stroke:#000000;stroke-width:1;" x1="333.7988" x2="333.7988" y1="257.5938" y2="282.5625"/><line style="stroke:#000000;stroke-width:1;" x1="395.0137" x2="395.0137" y1="257.5938" y2="282.5625"/><line style="stroke:#000000;stroke-width:1;" x1="502.0137" x2="502.0137" y1="257.5938" y2="282.5625"/><line style="stroke:#000000;stroke-width:1;" x1="6" x2="6" y1="332.5" y2="348.4688"/><line style="stroke:#000000;stroke-width:1;" x1="61.127" x2="61.127" y1="332.5" y2="348.4688"/><line style="stroke:#000000;stroke-width:1;" x1="232.1055" x2="232.1055" y1="332.5" y2="348.4688"/><line style="stroke:#000000;stroke-width:1;" x1="283.957" x2="283.957" y1="332.5" y2="348.4688"/><line style="stroke:#000000;stroke-width:1;" x1="6" x2="6" y1="232.625" y2="257.5938"/><line style="stroke:#000000;stroke-width:1;" x1="333.7988" x2="333.7988" y1="332.5" y2="348.4688"/><line style="stroke:#000000;stroke-width:1;" x1="61.127" x2="61.127" y1="232.625" y2="257.5938"/><line style="stroke:#000000;stroke-width:1;" x1="395.0137" x2="395.0137" y1="332.5" y2="348.4688"/><line style="stroke:#000000;stroke-width:1;" x1="502.0137" x2="502.0137" y1="332.5" y2="348.4688"/><line style="stroke:#000000;stroke-width:1;" x1="232.1055" x2="232.1055" y1="232.625" y2="257.5938"/><line style="stroke:#000000;stroke-width:1;" x1="283.957" x2="283.957" y1="232.625" y2="257.5938"/><line style="stroke:#000000;stroke-width:1;" x1="333.7988" x2="333.7988" y1="232.625" y2="257.5938"/><line style="stroke:#000000;stroke-width:1;" x1="395.0137" x2="395.0137" y1="232.625" y2="257.5938"/><line style="stroke:#000000;stroke-width:1;" x1="502.0137" x2="502.0137" y1="232.625" y2="257.5938"/><line style="stroke:#000000;stroke-width:1;" x1="6" x2="6" y1="307.5313" y2="332.5"/><line style="stroke:#000000;stroke-width:1;" x1="61.127" x2="61.127" y1="307.5313" y2="332.5"/><line style="stroke:#000000;stroke-width:1;" x1="232.1055" x2="232.1055" y1="307.5313" y2="332.5"/><line style="stroke:#000000;stroke-width:1;" x1="283.957" x2="283.957" y1="307.5313" y2="332.5"/><line style="stroke:#AAAAAA;stroke-width:1.5;" x1="6" x2="512.8145" y1="369.9375" y2="369.9375"/><rect fill="#EEEEEE" height="17.9688" rx="5" ry="5" style="stroke:#000000;stroke-width:2.5;" width="124" x="9.5" y="393.9063"/><text fill="#000000" font-family="sans-serif" font-size="12" lengthAdjust="spacing" textLength="92.6367" x="25.1816" y="407.0449">+ Nuevo Grado</text><rect fill="#EEEEEE" height="17.9688" rx="5" ry="5" style="stroke:#000000;stroke-width:2.5;" width="100" x="140.5" y="393.9063"/><text fill="#000000" font-family="sans-serif" font-size="12" lengthAdjust="spacing" textLength="72.2227" x="154.3887" y="407.0449">^Importar^</text><rect fill="#EEEEEE" height="17.9688" rx="5" ry="5" style="stroke:#000000;stroke-width:2.5;" width="100" x="247.5" y="393.9063"/><text fill="#000000" font-family="sans-serif" font-size="12" lengthAdjust="spacing" textLength="71.6777" x="261.6611" y="407.0449">^Exportar^</text><rect fill="#EEEEEE" height="17.9688" rx="5" ry="5" style="stroke:#000000;stroke-width:2.5;" width="148" x="360.3145" y="393.9063"/><text fill="#000000" font-family="sans-serif" font-size="12" lengthAdjust="spacing" textLength="88.3711" x="390.1289" y="407.0449">Volver al Inicio</text><line style="stroke:#000000;stroke-width:1;" x1="5" x2="512.8145" y1="5" y2="5"/><line style="stroke:#000000;stroke-width:1;" x1="5" x2="512.8145" y1="416.375" y2="416.375"/><line style="stroke:#000000;stroke-width:1;" x1="5" x2="5" y1="5" y2="20.9688"/><line style="stroke:#000000;stroke-width:1;" x1="512.8145" x2="512.8145" y1="5" y2="20.9688"/><line style="stroke:#000000;stroke-width:1;" x1="5" x2="5" y1="389.4063" y2="416.375"/><line style="stroke:#000000;stroke-width:1;" x1="512.8145" x2="512.8145" y1="389.4063" y2="416.375"/><line style="stroke:#000000;stroke-width:1;" x1="5" x2="5" y1="215.6563" y2="349.4688"/><line style="stroke:#000000;stroke-width:1;" x1="512.8145" x2="512.8145" y1="215.6563" y2="349.4688"/><line style="stroke:#000000;stroke-width:1;" x1="5" x2="5" y1="159.75" y2="167.75"/><line style="stroke:#000000;stroke-width:1;" x1="512.8145" x2="512.8145" y1="159.75" y2="167.75"/><line style="stroke:#000000;stroke-width:1;" x1="5" x2="5" y1="44.9375" y2="60.9063"/><line style="stroke:#000000;stroke-width:1;" x1="512.8145" x2="512.8145" y1="44.9375" y2="60.9063"/><line style="stroke:#000000;stroke-width:1;" x1="5" x2="5" y1="373.4375" y2="389.4063"/><line style="stroke:#000000;stroke-width:1;" x1="512.8145" x2="512.8145" y1="373.4375" y2="389.4063"/><line style="stroke:#000000;stroke-width:1;" x1="5" x2="5" y1="199.6875" y2="215.6563"/><line style="stroke:#000000;stroke-width:1;" x1="512.8145" x2="512.8145" y1="199.6875" y2="215.6563"/><line style="stroke:#000000;stroke-width:1;" x1="5" x2="5" y1="143.7813" y2="159.75"/><line style="stroke:#000000;stroke-width:1;" x1="512.8145" x2="512.8145" y1="143.7813" y2="159.75"/><line style="stroke:#000000;stroke-width:1;" x1="5" x2="5" y1="28.9688" y2="44.9375"/><line style="stroke:#000000;stroke-width:1;" x1="512.8145" x2="512.8145" y1="28.9688" y2="44.9375"/><line style="stroke:#000000;stroke-width:1;" x1="5" x2="5" y1="365.4375" y2="373.4375"/><line style="stroke:#000000;stroke-width:1;" x1="512.8145" x2="512.8145" y1="365.4375" y2="373.4375"/><line style="stroke:#000000;stroke-width:1;" x1="5" x2="5" y1="183.7188" y2="199.6875"/><line style="stroke:#000000;stroke-width:1;" x1="512.8145" x2="512.8145" y1="183.7188" y2="199.6875"/><line style="stroke:#000000;stroke-width:1;" x1="5" x2="5" y1="76.875" y2="143.7813"/><line style="stroke:#000000;stroke-width:1;" x1="512.8145" x2="512.8145" y1="76.875" y2="143.7813"/><line style="stroke:#000000;stroke-width:1;" x1="5" x2="5" y1="20.9688" y2="28.9688"/><line style="stroke:#000000;stroke-width:1;" x1="512.8145" x2="512.8145" y1="20.9688" y2="28.9688"/><line style="stroke:#000000;stroke-width:1;" x1="5" x2="5" y1="349.4688" y2="365.4375"/><line style="stroke:#000000;stroke-width:1;" x1="512.8145" x2="512.8145" y1="349.4688" y2="365.4375"/><line style="stroke:#000000;stroke-width:1;" x1="5" x2="5" y1="167.75" y2="183.7188"/><line style="stroke:#000000;stroke-width:1;" x1="512.8145" x2="512.8145" y1="167.75" y2="183.7188"/><line style="stroke:#000000;stroke-width:1;" x1="5" x2="5" y1="60.9063" y2="76.875"/><line style="stroke:#000000;stroke-width:1;" x1="512.8145" x2="512.8145" y1="60.9063" y2="76.875"/><!--SRC=[XLJDJXin4BxlKupe1GJPR4A2Q1GGcsGJBKq2IfRqW4Zbx9h8acE3Vo8g2Y_H9-3OGq-zzPeNwtX3VbegCQkrxDblFdyUp-oPDaGPJRY1ELMXPbD1Z5L4V_aS3wBs8En5tkE-1sZroMad6YRnudiVMX64mxZJ3vEhGJYi5oUdEUJav6G5BVdGLCnGnQI6Z49ZyLlVMvgHDRZEJjkC6qNXJYf8hTBo0AQAP18a6FfW970sKRHUPCi0FnyVyz5PquL0c99iyMF6Kbc3Rp0k1-LA4OSgx8QfiOJlZTS1dPmyr39bEAc1moSoGu4SttnhlK6l5ODQlDonZ3Z-dRwSeIPKc2v-PMmgVT-7jUqWuhfXTKhKJSxpj2MyKDXQO8RAFdGPfXybONwsKh_EqEk1FwmbOLHpkQt3u6ReU1M459niiMm0UPesopm9UhCEkPs9lnnfogIW6ndEUc5IA0KbH3GNBporN4ACYsMsgpZhnF413ZsSbie1p8XHlil6Y2eeGfGniyg9ixZVBc0i0Xf4qxn0MiJW9Vn3YUDnzJsoTZn4RG42sekVcgK4EbHGHVYIxR1OhkHiJblbNMaNbqdXC3zfB0pbR4e5bWk4oh1RXZF-lsEtS7hqBhNxzEPzKoVFpzkN3zUm3trBv_ArV6ySFupZ6NODiezNZkXXsv6hW97asDM0ccE1sbtma-UUCoeor_IUTyc9C5Uzhcj_ZVSE9TzrZryATXDBeI_d45IW5DJAGQto4Nh3n9s-kkVjTYwxeALLAHOVrh5Y4skGOCyx9tC20oiCcz4QNDnHSTxwj7909EPCIJ6ZmdZdezu6S5GfD9Y18LLEywZdjUWjiVXZYaGgCoQcDRXAseLZhql4r98fSbFXDINoggyr49RpFm00]--></g></svg>