<svg xmlns="http://www.w3.org/2000/svg" xmlns:xlink="http://www.w3.org/1999/xlink" contentStyleType="text/css" data-diagram-type="STATE" height="911px" preserveAspectRatio="none" style="width:964px;height:911px;background:#FFFFFF;" version="1.1" viewBox="0 0 964 911" width="964px" zoomAndPan="magnify"><defs/><g><path d="M19.5,117 L938.6945,117 A12.5,12.5 0 0 1 951.1945,129.5 L951.1945,143.2969 L7,143.2969 L7,129.5 A12.5,12.5 0 0 1 19.5,117" fill="#F1F1F1"/><rect fill="none" height="678.2969" rx="12.5" ry="12.5" style="stroke:#181818;stroke-width:0.5;" width="944.1945" x="7" y="117"/><line style="stroke:#181818;stroke-width:0.5;" x1="7" x2="951.1945" y1="143.2969" y2="143.2969"/><text fill="#000000" font-family="sans-serif" font-size="14" lengthAdjust="spacing" textLength="135.5225" x="411.336" y="134.9951">asignarExamenes()</text><g id="asignarExamenes.RequiringAssignment"><rect fill="#F1F1F1" height="50" rx="12.5" ry="12.5" style="stroke:#181818;stroke-width:0.5;" width="50" x="334.1945" y="245.2969"/><line style="stroke:#181818;stroke-width:0.5;" x1="334.1945" x2="384.1945" y1="271.5938" y2="271.5938"/><text fill="#000000" font-family="sans-serif" font-size="14" lengthAdjust="spacing" textLength="4.4502" x="356.9694" y="263.292">&#160;</text></g><g id="asignarExamenes.ProvidingAssignment"><rect fill="#F1F1F1" height="50" rx="12.5" ry="12.5" style="stroke:#181818;stroke-width:0.5;" width="50" x="334.1945" y="396.2969"/><line style="stroke:#181818;stroke-width:0.5;" x1="334.1945" x2="384.1945" y1="422.5938" y2="422.5938"/><text fill="#000000" font-family="sans-serif" font-size="14" lengthAdjust="spacing" textLength="4.4502" x="356.9694" y="414.292">&#160;</text></g><g id="asignarExamenes.ProvidingConfirmation"><rect fill="#F1F1F1" height="50" rx="12.5" ry="12.5" style="stroke:#181818;stroke-width:0.5;" width="50" x="32.1945" y="517.2969"/><line style="stroke:#181818;stroke-width:0.5;" x1="32.1945" x2="82.1945" y1="543.5938" y2="543.5938"/><text fill="#000000" font-family="sans-serif" font-size="14" lengthAdjust="spacing" textLength="4.4502" x="54.9694" y="535.292">&#160;</text></g><g class="entity" data-entity="c" data-uid="ent0006" id="entity_c"><polygon fill="#F1F1F1" points="359.1945,668.2969,371.1945,680.2969,359.1945,692.2969,347.1945,680.2969,359.1945,668.2969" style="stroke:#181818;stroke-width:0.5;"/></g><ellipse cx="359.1945" cy="164.2969" fill="#222222" rx="10" ry="10" style="stroke:#222222;stroke-width:1;"/><ellipse cx="359.1945" cy="774.2969" fill="none" rx="11" ry="11" style="stroke:#222222;stroke-width:1;"/><ellipse cx="359.1945" cy="774.2969" fill="#222222" rx="6" ry="6" style="stroke:#222222;stroke-width:1;"/><!--link *start*asignarExamenes to RequiringAssignment--><g class="link" data-entity-1=".start.asignarExamenes" data-entity-2="RequiringAssignment" data-source-line="10" data-uid="lnk3" id="link_.start.asignarExamenes_RequiringAssignment"><path d="M359.1945,174.5269 C359.1945,190.2369 359.1945,216.6569 359.1945,239.1669" fill="none" id="*start*asignarExamenes-to-RequiringAssignment" style="stroke:#008000;stroke-width:1;"/><polygon fill="#008000" points="359.1945,245.1669,363.1945,236.1669,359.1945,240.1669,355.1945,236.1669,359.1945,245.1669" style="stroke:#008000;stroke-width:1;"/><path d="M364.1945,197.2969 L364.1945,222.2969 L619.1945,222.2969 L619.1945,207.2969 L609.1945,197.2969 L364.1945,197.2969" fill="#FEFFDD" style="stroke:#181818;stroke-width:0.5;"/><path d="M609.1945,197.2969 L609.1945,207.2969 L619.1945,207.2969 L609.1945,197.2969" fill="#FEFFDD" style="stroke:#181818;stroke-width:0.5;"/><text fill="#000000" font-family="sans-serif" font-size="13" font-weight="bold" lengthAdjust="spacing" textLength="60.5313" x="370.1945" y="214.3638">Docente</text><text fill="#000000" font-family="sans-serif" font-size="13" lengthAdjust="spacing" textLength="169.5205" x="434.8581" y="214.3638">solicita asignar examenes</text></g><!--link RequiringAssignment to ProvidingAssignment--><g class="link" data-entity-1="RequiringAssignment" data-entity-2="ProvidingAssignment" data-source-line="15" data-uid="lnk4" id="link_RequiringAssignment_ProvidingAssignment"><path d="M359.1945,295.5669 C359.1945,323.2769 359.1945,362.3369 359.1945,390.0369" fill="none" id="RequiringAssignment-to-ProvidingAssignment" style="stroke:#008000;stroke-width:1;"/><polygon fill="#008000" points="359.1945,396.0369,363.1945,387.0369,359.1945,391.0369,355.1945,387.0369,359.1945,396.0369" style="stroke:#008000;stroke-width:1;"/><path d="M364.1945,318.2969 L364.1945,373.2969 L602.1945,373.2969 L602.1945,328.2969 L592.1945,318.2969 L364.1945,318.2969" fill="#FEFFDD" style="stroke:#181818;stroke-width:0.5;"/><path d="M592.1945,318.2969 L592.1945,328.2969 L602.1945,328.2969 L592.1945,318.2969" fill="#FEFFDD" style="stroke:#181818;stroke-width:0.5;"/><text fill="#000000" font-family="sans-serif" font-size="13" font-weight="bold" lengthAdjust="spacing" textLength="58.9063" x="370.1945" y="335.3638">Sistema</text><text fill="#000000" font-family="sans-serif" font-size="13" lengthAdjust="spacing" textLength="117.9395" x="433.2331" y="335.3638">permite introducir</text><text fill="#000000" font-family="sans-serif" font-size="13" lengthAdjust="spacing" textLength="143.5142" x="370.1945" y="350.4966">&#8226; examenes a asignar</text><text fill="#000000" font-family="sans-serif" font-size="13" lengthAdjust="spacing" textLength="217.0962" x="370.1945" y="365.6294">&#8226; alumnos o grupos destinatarios</text></g><!--link ProvidingAssignment to ProvidingConfirmation--><g class="link" data-entity-1="ProvidingAssignment" data-entity-2="ProvidingConfirmation" data-source-line="22" data-uid="lnk5" id="link_ProvidingAssignment_ProvidingConfirmation"><path d="M333.8645,425.4569 C255.4945,435.2169 22.1945,464.2969 22.1945,464.2969 C22.1945,464.2969 22.1945,499.2969 22.1945,499.2969 C22.1945,499.2969 25.2934,503.0175 32.9934,512.2575" fill="none" id="ProvidingAssignment-to-ProvidingConfirmation" style="stroke:#008000;stroke-width:1;"/><polygon fill="#008000" points="36.8345,516.8669,34.1458,507.3921,33.6336,513.0258,28,512.5136,36.8345,516.8669" style="stroke:#008000;stroke-width:1;"/><path d="M27.1945,469.2969 L27.1945,494.2969 L340.1945,494.2969 L340.1945,479.2969 L330.1945,469.2969 L27.1945,469.2969" fill="#FEFFDD" style="stroke:#181818;stroke-width:0.5;"/><path d="M330.1945,469.2969 L330.1945,479.2969 L340.1945,479.2969 L330.1945,469.2969" fill="#FEFFDD" style="stroke:#181818;stroke-width:0.5;"/><text fill="#000000" font-family="sans-serif" font-size="13" font-weight="bold" lengthAdjust="spacing" textLength="60.5313" x="33.1945" y="486.3638">Docente</text><text fill="#000000" font-family="sans-serif" font-size="13" lengthAdjust="spacing" textLength="227.6206" x="97.8581" y="486.3638">introduce asignaci&#243;n de examenes</text></g><!--link ProvidingConfirmation to c--><g class="link" data-entity-1="ProvidingConfirmation" data-entity-2="c" data-source-line="27" data-uid="lnk6" id="link_ProvidingConfirmation_c"><path d="M81.9245,567.5769 C114.0845,599.1469 166.1945,650.2969 166.1945,650.2969 C166.1945,650.2969 303.4412,670.9151 343.1612,676.8851" fill="none" id="ProvidingConfirmation-to-c" style="stroke:#008000;stroke-width:1;"/><polygon fill="#008000" points="349.0945,677.7769,340.789,672.4836,344.1501,677.0337,339.6,680.3948,349.0945,677.7769" style="stroke:#008000;stroke-width:1;"/><path d="M171.1945,590.2969 L171.1945,645.2969 L340.1945,645.2969 L340.1945,600.2969 L330.1945,590.2969 L171.1945,590.2969" fill="#FEFFDD" style="stroke:#181818;stroke-width:0.5;"/><path d="M330.1945,590.2969 L330.1945,600.2969 L340.1945,600.2969 L330.1945,590.2969" fill="#FEFFDD" style="stroke:#181818;stroke-width:0.5;"/><text fill="#000000" font-family="sans-serif" font-size="13" font-weight="bold" lengthAdjust="spacing" textLength="60.5313" x="177.1945" y="607.3638">Docente</text><text fill="#000000" font-family="sans-serif" font-size="13" lengthAdjust="spacing" textLength="45.7729" x="241.8581" y="607.3638">solicita</text><text fill="#000000" font-family="sans-serif" font-size="13" lengthAdjust="spacing" textLength="148.5415" x="177.1945" y="622.4966">&#8226; confirmar asignaci&#243;n</text><text fill="#000000" font-family="sans-serif" font-size="13" lengthAdjust="spacing" textLength="141.1147" x="177.1945" y="637.6294">&#8226; cancelar asignaci&#243;n</text></g><!--link c to ProvidingAssignment--><g class="link" data-entity-1="c" data-entity-2="ProvidingAssignment" data-source-line="34" data-uid="lnk7" id="link_c_ProvidingAssignment"><path d="M359.1945,667.7069 C359.1945,628.4969 359.1945,506.3269 359.1945,452.4769" fill="none" id="c-to-ProvidingAssignment" style="stroke:#FF0000;stroke-width:1;"/><polygon fill="#FF0000" points="359.1945,446.4769,355.1945,455.4769,359.1945,451.4769,363.1945,455.4769,359.1945,446.4769" style="stroke:#FF0000;stroke-width:1;"/><path d="M364.1945,529.7969 L364.1945,554.7969 L567.1945,554.7969 L567.1945,539.7969 L557.1945,529.7969 L364.1945,529.7969" fill="#FEFFDD" style="stroke:#181818;stroke-width:0.5;"/><path d="M557.1945,529.7969 L557.1945,539.7969 L567.1945,539.7969 L557.1945,529.7969" fill="#FEFFDD" style="stroke:#181818;stroke-width:0.5;"/><text fill="#000000" font-family="sans-serif" font-size="13" lengthAdjust="spacing" textLength="182.5459" x="370.1945" y="546.8638">Docente cancela asignaci&#243;n</text></g><!--link c to ProvidingAssignment--><g class="link" data-entity-1="c" data-entity-2="ProvidingAssignment" data-source-line="39" data-uid="lnk8" id="link_c_ProvidingAssignment"><path d="M366.6645,675.4369 C404.8245,655.7469 576.1945,567.2969 576.1945,567.2969 C576.1945,567.2969 576.1945,517.2969 576.1945,517.2969 C576.1945,517.2969 447.2509,460.8432 390.0109,435.7832" fill="none" id="c-to-ProvidingAssignment-1" style="stroke:#FF0000;stroke-width:1;"/><polygon fill="#FF0000" points="384.5145,433.3769,391.1548,440.6506,389.0948,435.3821,394.3633,433.3221,384.5145,433.3769" style="stroke:#FF0000;stroke-width:1;"/><path d="M581.1945,529.7969 L581.1945,554.7969 L942.1945,554.7969 L942.1945,539.7969 L932.1945,529.7969 L581.1945,529.7969" fill="#FEFFDD" style="stroke:#181818;stroke-width:0.5;"/><path d="M932.1945,529.7969 L932.1945,539.7969 L942.1945,539.7969 L932.1945,529.7969" fill="#FEFFDD" style="stroke:#181818;stroke-width:0.5;"/><text fill="#000000" font-family="sans-serif" font-size="13" lengthAdjust="spacing" textLength="340.4438" x="587.1945" y="546.8638">Docente confirma asignaci&#243;n: error en la asignaci&#243;n</text></g><!--link c to *end*asignarExamenes--><g class="link" data-entity-1="c" data-entity-2=".end.asignarExamenes" data-source-line="44" data-uid="lnk10" id="link_c_.end.asignarExamenes"><path d="M359.1945,692.9469 C359.1945,711.0369 359.1945,739.5669 359.1945,756.8769" fill="none" id="c-to-*end*asignarExamenes" style="stroke:#008000;stroke-width:1;"/><polygon fill="#008000" points="359.1945,762.8769,363.1945,753.8769,359.1945,757.8769,355.1945,753.8769,359.1945,762.8769" style="stroke:#008000;stroke-width:1;"/><path d="M364.1945,715.2969 L364.1945,740.2969 L704.1945,740.2969 L704.1945,725.2969 L694.1945,715.2969 L364.1945,715.2969" fill="#FEFFDD" style="stroke:#181818;stroke-width:0.5;"/><path d="M694.1945,715.2969 L694.1945,725.2969 L704.1945,725.2969 L694.1945,715.2969" fill="#FEFFDD" style="stroke:#181818;stroke-width:0.5;"/><text fill="#000000" font-family="sans-serif" font-size="13" lengthAdjust="spacing" textLength="319.4712" x="370.1945" y="732.3638">Docente confirma asignaci&#243;n: asignaci&#243;n exitosa</text></g><g id="EXAMENES_GENERADOS"><rect fill="#F1F1F1" height="50" rx="12.5" ry="12.5" style="stroke:#181818;stroke-width:0.5;" width="193.1475" x="382.52" y="7"/><line style="stroke:#181818;stroke-width:0.5;" x1="382.52" x2="575.6675" y1="33.2969" y2="33.2969"/><text fill="#000000" font-family="sans-serif" font-size="14" lengthAdjust="spacing" textLength="173.1475" x="392.52" y="24.9951">EXAMENES_GENERADOS</text></g><g id="EXAMENES_ASIGNADOS"><rect fill="#F1F1F1" height="50" rx="12.5" ry="12.5" style="stroke:#181818;stroke-width:0.5;" width="188.3213" x="384.94" y="855.3"/><line style="stroke:#181818;stroke-width:0.5;" x1="384.94" x2="573.2613" y1="881.5969" y2="881.5969"/><text fill="#000000" font-family="sans-serif" font-size="14" lengthAdjust="spacing" textLength="168.3213" x="394.94" y="873.2951">EXAMENES_ASIGNADOS</text></g><!--link EXAMENES_GENERADOS to asignarExamenes--><g class="link" data-entity-1="EXAMENES_GENERADOS" data-entity-2="asignarExamenes" data-source-line="50" data-uid="lnk12" id="link_EXAMENES_GENERADOS_asignarExamenes"><path d="M479.1,57.22 C479.1,71.93 479.1,86.53 479.1,110.69" fill="none" id="EXAMENES_GENERADOS-to-asignarExamenes" style="stroke:#008000;stroke-width:1;"/><polygon fill="#008000" points="479.1,116.69,483.1,107.69,479.1,111.69,475.1,107.69,479.1,116.69" style="stroke:#008000;stroke-width:1;"/></g><!--link asignarExamenes to EXAMENES_ASIGNADOS--><g class="link" data-entity-1="asignarExamenes" data-entity-2="EXAMENES_ASIGNADOS" data-source-line="51" data-uid="lnk14" id="link_asignarExamenes_EXAMENES_ASIGNADOS"><path d="M479.1,795.64 C479.1,819.67 479.1,834.18 479.1,848.88" fill="none" id="asignarExamenes-to-EXAMENES_ASIGNADOS" style="stroke:#008000;stroke-width:1;"/><polygon fill="#008000" points="479.1,854.88,483.1,845.88,479.1,849.88,475.1,845.88,479.1,854.88" style="stroke:#008000;stroke-width:1;"/></g><!--SRC=[jPJVIiCm5CRl-nHXtgWml9THAAuCBvootWXZI9OUvs7jIKrIsH31P_4LV0JVn2Sn_MlRTJW5KoXDyYNVxvoJHg-H4gvup28aCDi4M2AZRTPn76su0SOrheWhVyDZ8D2spmQTiUEJ0Njs76PRiMPW7wkRmMEA2cdbwMo1rPfTqOsIJnWUAhgGT8ygvWObDMI2ZKRYGQ80ror0vgSBDfmVhHG0BORkNXQIThcaBFvrFZ1QkcCfx3ICpfOkqp92WOPNUM1G1fsBWS9Y1ziAtnwV5iU-SFiu0jG6Ofvp9A1Yj18aesIO2bIvwlFrhIPYDMGznQCq9gcPP2kL9lOZ16sGkE4APJk40hy7hnz_fn0_9R82hqwKm8ztiZpz2UtGDDrQFE9NHQpp8ihzL1FcUvQJWAXdiaqdCX85uQ_AMc9L7lzgKGRPz3Xde9IqfzZg3pAlCsr_gB_ODOiD6pHIyxRLY-FujzwLF_M3kubzpxpnTT1oxjmsJlT6QchhhRpWSZBDjle2]--></g></svg>