<svg xmlns="http://www.w3.org/2000/svg" xmlns:xlink="http://www.w3.org/1999/xlink" contentStyleType="text/css" data-diagram-type="STATE" height="911px" preserveAspectRatio="none" style="width:964px;height:911px;background:#FFFFFF;" version="1.1" viewBox="0 0 964 911" width="964px" zoomAndPan="magnify"><defs/><g><path d="M19.5,117 L938.6945,117 A12.5,12.5 0 0 1 951.1945,129.5 L951.1945,143.2969 L7,143.2969 L7,129.5 A12.5,12.5 0 0 1 19.5,117" fill="#F1F1F1"/><rect fill="none" height="678.2969" rx="12.5" ry="12.5" style="stroke:#181818;stroke-width:0.5;" width="944.1945" x="7" y="117"/><line style="stroke:#181818;stroke-width:0.5;" x1="7" x2="951.1945" y1="143.2969" y2="143.2969"/><text fill="#000000" font-family="sans-serif" font-size="14" lengthAdjust="spacing" textLength="135.5225" x="411.336" y="134.9951">asignarExamenes()</text><g id="asignarExamenes.RequiringAssignment"><rect fill="#F1F1F1" height="50" rx="12.5" ry="12.5" style="stroke:#181818;stroke-width:0.5;" width="50" x="334.1945" y="245.2969"/><line style="stroke:#181818;stroke-width:0.5;" x1="334.1945" x2="384.1945" y1="271.5938" y2="271.5938"/><text fill="#000000" font-family="sans-serif" font-size="14" lengthAdjust="spacing" textLength="4.4502" x="356.9694" y="263.292">&#160;</text></g><g id="asignarExamenes.ProvidingAssignment"><rect fill="#F1F1F1" height="50" rx="12.5" ry="12.5" style="stroke:#181818;stroke-width:0.5;" width="50" x="334.1945" y="396.2969"/><line style="stroke:#181818;stroke-width:0.5;" x1="334.1945" x2="384.1945" y1="422.5938" y2="422.5938"/><text fill="#000000" font-family="sans-serif" font-size="14" lengthAdjust="spacing" textLength="4.4502" x="356.9694" y="414.292">&#160;</text></g><g id="asignarExamenes.ProvidingConfirmation"><rect fill="#F1F1F1" height="50" rx="12.5" ry="12.5" style="stroke:#181818;stroke-width:0.5;" width="50" x="32.1945" y="517.2969"/><line style="stroke:#181818;stroke-width:0.5;" x1="32.1945" x2="82.1945" y1="543.5938" y2="543.5938"/><text fill="#000000" font-family="sans-serif" font-size="14" lengthAdjust="spacing" textLength="4.4502" x="54.9694" y="535.292">&#160;</text></g><g class="entity" data-entity="c" data-uid="ent0006" id="entity_c"><polygon fill="#F1F1F1" points="359.1945,668.2969,371.1945,680.2969,359.1945,692.2969,347.1945,680.2969,359.1945,668.2969" style="stroke:#181818;stroke-width:0.5;"/></g><ellipse cx="359.1945" cy="164.2969" fill="#222222" rx="10" ry="10" style="stroke:#222222;stroke-width:1;"/><ellipse cx="359.1945" cy="774.2969" fill="none" rx="11" ry="11" style="stroke:#222222;stroke-width:1;"/><ellipse cx="359.1945" cy="774.2969" fill="#222222" rx="6" ry="6" style="stroke:#222222;stroke-width:1;"/><!--link *start*asignarExamenes to RequiringAssignment--><g class="link" data-entity-1=".start.asignarExamenes" data-entity-2="RequiringAssignment" data-source-line="10" data-uid="lnk3" id="link_.start.asignarExamenes_RequiringAssignment"><path d="M359.1945,174.5269 C359.1945,190.2369 359.1945,216.6569 359.1945,239.1669" fill="none" id="*start*asignarExamenes-to-RequiringAssignment" style="stroke:#008000;stroke-width:1;"/><polygon fill="#008000" points="359.1945,245.1669,363.1945,236.1669,359.1945,240.1669,355.1945,236.1669,359.1945,245.1669" style="stroke:#008000;stroke-width:1;"/><path d="M364.1945,197.2969 L364.1945,222.2969 L619.1945,222.2969 L619.1945,207.2969 L609.1945,197.2969 L364.1945,197.2969" fill="#FEFFDD" style="stroke:#181818;stroke-width:0.5;"/><path d="M609.1945,197.2969 L609.1945,207.2969 L619.1945,207.2969 L609.1945,197.2969" fill="#FEFFDD" style="stroke:#181818;stroke-width:0.5;"/><text fill="#000000" font-family="sans-serif" font-size="13" font-weight="bold" lengthAdjust="spacing" textLength="60.5313" x="370.1945" y="214.3638">Docente</text><text fill="#000000" font-family="sans-serif" font-size="13" lengthAdjust="spacing" textLength="169.5205" x="434.8581" y="214.3638">solicita asignar ex&#225;menes</text></g><!--link RequiringAssignment to ProvidingAssignment--><g class="link" data-entity-1="RequiringAssignment" data-entity-2="ProvidingAssignment" data-source-line="15" data-uid="lnk4" id="link_RequiringAssignment_ProvidingAssignment"><path d="M359.1945,295.5669 C359.1945,323.2769 359.1945,362.3369 359.1945,390.0369" fill="none" id="RequiringAssignment-to-ProvidingAssignment" style="stroke:#008000;stroke-width:1;"/><polygon fill="#008000" points="359.1945,396.0369,363.1945,387.0369,359.1945,391.0369,355.1945,387.0369,359.1945,396.0369" style="stroke:#008000;stroke-width:1;"/><path d="M364.1945,318.2969 L364.1945,373.2969 L602.1945,373.2969 L602.1945,328.2969 L592.1945,318.2969 L364.1945,318.2969" fill="#FEFFDD" style="stroke:#181818;stroke-width:0.5;"/><path d="M592.1945,318.2969 L592.1945,328.2969 L602.1945,328.2969 L592.1945,318.2969" fill="#FEFFDD" style="stroke:#181818;stroke-width:0.5;"/><text fill="#000000" font-family="sans-serif" font-size="13" font-weight="bold" lengthAdjust="spacing" textLength="58.9063" x="370.1945" y="335.3638">Sistema</text><text fill="#000000" font-family="sans-serif" font-size="13" lengthAdjust="spacing" textLength="117.9395" x="433.2331" y="335.3638">permite introducir</text><text fill="#000000" font-family="sans-serif" font-size="13" lengthAdjust="spacing" textLength="143.5142" x="370.1945" y="350.4966">&#8226; ex&#225;menes a asignar</text><text fill="#000000" font-family="sans-serif" font-size="13" lengthAdjust="spacing" textLength="217.0962" x="370.1945" y="365.6294">&#8226; alumnos o grupos destinatarios</text></g><!--link ProvidingAssignment to ProvidingConfirmation--><g class="link" data-entity-1="ProvidingAssignment" data-entity-2="ProvidingConfirmation" data-source-line="22" data-uid="lnk5" id="link_ProvidingAssignment_ProvidingConfirmation"><path d="M334.1445,425.4169 C256.0345,435.1569 22.1945,464.2969 22.1945,464.2969 C22.1945,464.2969 22.1945,499.2969 22.1945,499.2969 C22.1945,499.2969 25.2934,503.0175 32.9934,512.2575" fill="none" id="ProvidingAssignment-to-ProvidingConfirmation" style="stroke:#008000;stroke-width:1;"/><polygon fill="#008000" points="36.8345,516.8669,34.1458,507.3921,33.6336,513.0258,28,512.5136,36.8345,516.8669" style="stroke:#008000;stroke-width:1;"/><path d="M27.1945,469.2969 L27.1945,494.2969 L340.1945,494.2969 L340.1945,479.2969 L330.1945,469.2969 L27.1945,469.2969" fill="#FEFFDD" style="stroke:#181818;stroke-width:0.5;"/><path d="M330.1945,469.2969 L330.1945,479.2969 L340.1945,479.2969 L330.1945,469.2969" fill="#FEFFDD" style="stroke:#181818;stroke-width:0.5;"/><text fill="#000000" font-family="sans-serif" font-size="13" font-weight="bold" lengthAdjust="spacing" textLength="60.5313" x="33.1945" y="486.3638">Docente</text><text fill="#000000" font-family="sans-serif" font-size="13" lengthAdjust="spacing" textLength="227.6206" x="97.8581" y="486.3638">introduce asignaci&#243;n de ex&#225;menes</text></g><!--link ProvidingConfirmation to c--><g class="link" data-entity-1="ProvidingConfirmation" data-entity-2="c" data-source-line="27" data-uid="lnk6" id="link_ProvidingConfirmation_c"><path d="M81.6545,567.3069 C113.7945,598.8569 166.1945,650.2969 166.1945,650.2969 C166.1945,650.2969 304.7511,671.1155 343.6911,676.9655" fill="none" id="ProvidingConfirmation-to-c" style="stroke:#008000;stroke-width:1;"/><polygon fill="#008000" points="349.6245,677.8569,341.3187,672.5642,344.68,677.1141,340.1302,680.4754,349.6245,677.8569" style="stroke:#008000;stroke-width:1;"/><path d="M171.1945,590.2969 L171.1945,645.2969 L340.1945,645.2969 L340.1945,600.2969 L330.1945,590.2969 L171.1945,590.2969" fill="#FEFFDD" style="stroke:#181818;stroke-width:0.5;"/><path d="M330.1945,590.2969 L330.1945,600.2969 L340.1945,600.2969 L330.1945,590.2969" fill="#FEFFDD" style="stroke:#181818;stroke-width:0.5;"/><text fill="#000000" font-family="sans-serif" font-size="13" font-weight="bold" lengthAdjust="spacing" textLength="60.5313" x="177.1945" y="607.3638">Docente</text><text fill="#000000" font-family="sans-serif" font-size="13" lengthAdjust="spacing" textLength="45.7729" x="241.8581" y="607.3638">solicita</text><text fill="#000000" font-family="sans-serif" font-size="13" lengthAdjust="spacing" textLength="148.5415" x="177.1945" y="622.4966">&#8226; confirmar asignaci&#243;n</text><text fill="#000000" font-family="sans-serif" font-size="13" lengthAdjust="spacing" textLength="141.1147" x="177.1945" y="637.6294">&#8226; cancelar asignaci&#243;n</text></g><!--link c to ProvidingAssignment--><g class="link" data-entity-1="c" data-entity-2="ProvidingAssignment" data-source-line="34" data-uid="lnk7" id="link_c_ProvidingAssignment"><path d="M359.1945,668.2469 C359.1945,629.6869 359.1945,506.5769 359.1945,452.4769" fill="none" id="c-to-ProvidingAssignment" style="stroke:#FF0000;stroke-width:1;"/><polygon fill="#FF0000" points="359.1945,446.4769,355.1945,455.4769,359.1945,451.4769,363.1945,455.4769,359.1945,446.4769" style="stroke:#FF0000;stroke-width:1;"/><path d="M364.1945,529.7969 L364.1945,554.7969 L567.1945,554.7969 L567.1945,539.7969 L557.1945,529.7969 L364.1945,529.7969" fill="#FEFFDD" style="stroke:#181818;stroke-width:0.5;"/><path d="M557.1945,529.7969 L557.1945,539.7969 L567.1945,539.7969 L557.1945,529.7969" fill="#FEFFDD" style="stroke:#181818;stroke-width:0.5;"/><text fill="#000000" font-family="sans-serif" font-size="13" lengthAdjust="spacing" textLength="182.5459" x="370.1945" y="546.8638">Docente cancela asignaci&#243;n</text></g><!--link c to ProvidingAssignment--><g class="link" data-entity-1="c" data-entity-2="ProvidingAssignment" data-source-line="39" data-uid="lnk8" id="link_c_ProvidingAssignment"><path d="M366.6645,675.4369 C404.8245,655.7469 576.1945,567.2969 576.1945,567.2969 C576.1945,567.2969 576.1945,517.2969 576.1945,517.2969 C576.1945,517.2969 447.2509,460.8432 390.0109,435.7832" fill="none" id="c-to-ProvidingAssignment-1" style="stroke:#FF0000;stroke-width:1;"/><polygon fill="#FF0000" points="384.5145,433.3769,391.1548,440.6506,389.0948,435.3821,394.3633,433.3221,384.5145,433.3769" style="stroke:#FF0000;stroke-width:1;"/><path d="M581.1945,529.7969 L581.1945,554.7969 L942.1945,554.7969 L942.1945,539.7969 L932.1945,529.7969 L581.1945,529.7969" fill="#FEFFDD" style="stroke:#181818;stroke-width:0.5;"/><path d="M932.1945,529.7969 L932.1945,539.7969 L942.1945,539.7969 L932.1945,529.7969" fill="#FEFFDD" style="stroke:#181818;stroke-width:0.5;"/><text fill="#000000" font-family="sans-serif" font-size="13" lengthAdjust="spacing" textLength="340.4438" x="587.1945" y="546.8638">Docente confirma asignaci&#243;n: error en la asignaci&#243;n</text></g><!--link c to *end*asignarExamenes--><g class="link" data-entity-1="c" data-entity-2=".end.asignarExamenes" data-source-line="44" data-uid="lnk10" id="link_c_.end.asignarExamenes"><path d="M359.1945,692.5769 C359.1945,710.6169 359.1945,739.6969 359.1945,757.0569" fill="none" id="c-to-*end*asignarExamenes" style="stroke:#008000;stroke-width:1;"/><polygon fill="#008000" points="359.1945,763.0569,363.1945,754.0569,359.1945,758.0569,355.1945,754.0569,359.1945,763.0569" style="stroke:#008000;stroke-width:1;"/><path d="M364.1945,715.2969 L364.1945,740.2969 L704.1945,740.2969 L704.1945,725.2969 L694.1945,715.2969 L364.1945,715.2969" fill="#FEFFDD" style="stroke:#181818;stroke-width:0.5;"/><path d="M694.1945,715.2969 L694.1945,725.2969 L704.1945,725.2969 L694.1945,715.2969" fill="#FEFFDD" style="stroke:#181818;stroke-width:0.5;"/><text fill="#000000" font-family="sans-serif" font-size="13" lengthAdjust="spacing" textLength="319.4712" x="370.1945" y="732.3638">Docente confirma asignaci&#243;n: asignaci&#243;n exitosa</text></g><g id="EXAMENES_GENERADOS"><rect fill="#F1F1F1" height="50" rx="12.5" ry="12.5" style="stroke:#181818;stroke-width:0.5;" width="193.1475" x="382.5" y="7"/><line style="stroke:#181818;stroke-width:0.5;" x1="382.5" x2="575.6475" y1="33.2969" y2="33.2969"/><text fill="#000000" font-family="sans-serif" font-size="14" lengthAdjust="spacing" textLength="173.1475" x="392.5" y="24.9951">EXAMENES_GENERADOS</text></g><g id="EXAMENES_ASIGNADOS"><rect fill="#F1F1F1" height="50" rx="12.5" ry="12.5" style="stroke:#181818;stroke-width:0.5;" width="188.3213" x="385" y="855"/><line style="stroke:#181818;stroke-width:0.5;" x1="385" x2="573.3213" y1="881.2969" y2="881.2969"/><text fill="#000000" font-family="sans-serif" font-size="14" lengthAdjust="spacing" textLength="168.3213" x="395" y="872.9951">EXAMENES_ASIGNADOS</text></g><!--link EXAMENES_GENERADOS to asignarExamenes--><g class="link" data-entity-1="EXAMENES_GENERADOS" data-entity-2="asignarExamenes" data-source-line="50" data-uid="lnk12" id="link_EXAMENES_GENERADOS_asignarExamenes"><path d="M479,57.2 C479,71.92 479,86.51 479,110.65" fill="none" id="EXAMENES_GENERADOS-to-asignarExamenes" style="stroke:#008000;stroke-width:1;"/><polygon fill="#008000" points="479,116.65,483,107.65,479,111.65,475,107.65,479,116.65" style="stroke:#008000;stroke-width:1;"/></g><!--link asignarExamenes to EXAMENES_ASIGNADOS--><g class="link" data-entity-1="asignarExamenes" data-entity-2="EXAMENES_ASIGNADOS" data-source-line="51" data-uid="lnk14" id="link_asignarExamenes_EXAMENES_ASIGNADOS"><path d="M479,795.12 C479,819.4 479,834.1 479,848.86" fill="none" id="asignarExamenes-to-EXAMENES_ASIGNADOS" style="stroke:#008000;stroke-width:1;"/><polygon fill="#008000" points="479,854.86,483,845.86,479,849.86,475,845.86,479,854.86" style="stroke:#008000;stroke-width:1;"/></g><!--SRC=[jPJHIiCm58Rl-nHXtgWml9TI6AuCBvootGXZI9OUws7jIKqosH31Lz5Ny17s9Zw9QRjsRTVX9fX2QP8_-RzpJXezHqguuZ6BaC2i4c29Z5Pfnt6quGOOrnWIL_wInq2WRPzr6cEdPntswZZCjdnDnpvMDuBd1IgaiAVJ1LPhTaLtIhvWSAZeIj8ZgfWRb5IH2UQwuacY0C_BGIRdKzQTd8GAWAPTRoyBIRjSKXh_F1jmPrvV2ZiDxiNCOrf6AD3m8WyCbkkFBEfC3HJaMzYM6xSOrK3snTi6CaPj8EOPI08gHYj1Cae62u4gKts_VswHM8bPpl5e4PFKJB9GBHBx4O0sIDnmXR8UGyxVmjVElrEAtr9Pa1TdIk3wYopFdfGsSAfsDI1nL1tBn8ZDVgfAivtb921gcQpJYPH4GN1KOJTOXSU_Mco2h7fSCb1AseDizGUPbvcs_zHVxAhLXYKQgNdTwirn_FlUZJ_qnmy3-nxr-hVZcdFZmd6Qbr9LMsxL6ryFXkbMFm00]--></g></svg>