<svg xmlns="http://www.w3.org/2000/svg" xmlns:xlink="http://www.w3.org/1999/xlink" contentStyleType="text/css" data-diagram-type="STATE" height="1037px" preserveAspectRatio="none" style="width:1251px;height:1037px;background:#FFFFFF;" version="1.1" viewBox="0 0 1251 1037" width="1251px" zoomAndPan="magnify"><defs/><g><path d="M19.5,118 L1225.622,118 A12.5,12.5 0 0 1 1238.122,130.5 L1238.122,144.2969 L7,144.2969 L7,130.5 A12.5,12.5 0 0 1 19.5,118" fill="#F1F1F1"/><rect fill="none" height="768.2969" rx="12.5" ry="12.5" style="stroke:#181818;stroke-width:0.5;" width="1231.122" x="7" y="118"/><line style="stroke:#181818;stroke-width:0.5;" x1="7" x2="1238.122" y1="144.2969" y2="144.2969"/><text fill="#000000" font-family="sans-serif" font-size="14" lengthAdjust="spacing" textLength="138.7422" x="553.1899" y="135.9951">generarExamenes()</text><g id="generarExamenes.RequiringGeneration"><rect fill="#F1F1F1" height="50" rx="12.5" ry="12.5" style="stroke:#181818;stroke-width:0.5;" width="50" x="389.122" y="246.2969"/><line style="stroke:#181818;stroke-width:0.5;" x1="389.122" x2="439.122" y1="272.5938" y2="272.5938"/><text fill="#000000" font-family="sans-serif" font-size="14" lengthAdjust="spacing" textLength="4.4502" x="411.8969" y="264.292">&#160;</text></g><g id="generarExamenes.ProvidingData"><rect fill="#F1F1F1" height="50" rx="12.5" ry="12.5" style="stroke:#181818;stroke-width:0.5;" width="50" x="389.122" y="397.2969"/><line style="stroke:#181818;stroke-width:0.5;" x1="389.122" x2="439.122" y1="423.5938" y2="423.5938"/><text fill="#000000" font-family="sans-serif" font-size="14" lengthAdjust="spacing" textLength="4.4502" x="411.8969" y="415.292">&#160;</text></g><g id="generarExamenes.ProvidingConfirmation"><rect fill="#F1F1F1" height="50" rx="12.5" ry="12.5" style="stroke:#181818;stroke-width:0.5;" width="50" x="912.122" y="608.2969"/><line style="stroke:#181818;stroke-width:0.5;" x1="912.122" x2="962.122" y1="634.5938" y2="634.5938"/><text fill="#000000" font-family="sans-serif" font-size="14" lengthAdjust="spacing" textLength="4.4502" x="934.8969" y="626.292">&#160;</text></g><g class="entity" data-entity="c" data-uid="ent0006" id="entity_c"><polygon fill="#F1F1F1" points="414.122,759.2969,426.122,771.2969,414.122,783.2969,402.122,771.2969,414.122,759.2969" style="stroke:#181818;stroke-width:0.5;"/></g><ellipse cx="414.122" cy="165.2969" fill="#222222" rx="10" ry="10" style="stroke:#222222;stroke-width:1;"/><ellipse cx="29.122" cy="865.2969" fill="none" rx="11" ry="11" style="stroke:#222222;stroke-width:1;"/><ellipse cx="29.122" cy="865.2969" fill="#222222" rx="6" ry="6" style="stroke:#222222;stroke-width:1;"/><!--link *start*generarExamenes to RequiringGeneration--><g class="link" data-entity-1=".start.generarExamenes" data-entity-2="RequiringGeneration" data-source-line="10" data-uid="lnk3" id="link_.start.generarExamenes_RequiringGeneration"><path d="M414.122,175.5269 C414.122,191.2369 414.122,217.6569 414.122,240.1669" fill="none" id="*start*generarExamenes-to-RequiringGeneration" style="stroke:#008000;stroke-width:1;"/><polygon fill="#008000" points="414.122,246.1669,418.122,237.1669,414.122,241.1669,410.122,237.1669,414.122,246.1669" style="stroke:#008000;stroke-width:1;"/><path d="M419.122,198.2969 L419.122,223.2969 L677.122,223.2969 L677.122,208.2969 L667.122,198.2969 L419.122,198.2969" fill="#FEFFDD" style="stroke:#181818;stroke-width:0.5;"/><path d="M667.122,198.2969 L667.122,208.2969 L677.122,208.2969 L667.122,198.2969" fill="#FEFFDD" style="stroke:#181818;stroke-width:0.5;"/><text fill="#000000" font-family="sans-serif" font-size="13" font-weight="bold" lengthAdjust="spacing" textLength="60.5313" x="425.122" y="215.3638">Docente</text><text fill="#000000" font-family="sans-serif" font-size="13" lengthAdjust="spacing" textLength="172.5103" x="489.7855" y="215.3638">solicita generar ex&#225;menes</text></g><!--link RequiringGeneration to ProvidingData--><g class="link" data-entity-1="RequiringGeneration" data-entity-2="ProvidingData" data-source-line="15" data-uid="lnk4" id="link_RequiringGeneration_ProvidingData"><path d="M414.122,296.5669 C414.122,324.2769 414.122,363.3369 414.122,391.0369" fill="none" id="RequiringGeneration-to-ProvidingData" style="stroke:#008000;stroke-width:1;"/><polygon fill="#008000" points="414.122,397.0369,418.122,388.0369,414.122,392.0369,410.122,388.0369,414.122,397.0369" style="stroke:#008000;stroke-width:1;"/><path d="M419.122,319.2969 L419.122,374.2969 L758.122,374.2969 L758.122,329.2969 L748.122,319.2969 L419.122,319.2969" fill="#FEFFDD" style="stroke:#181818;stroke-width:0.5;"/><path d="M748.122,319.2969 L748.122,329.2969 L758.122,329.2969 L748.122,319.2969" fill="#FEFFDD" style="stroke:#181818;stroke-width:0.5;"/><text fill="#000000" font-family="sans-serif" font-size="13" font-weight="bold" lengthAdjust="spacing" textLength="58.9063" x="425.122" y="336.3638">Sistema</text><text fill="#000000" font-family="sans-serif" font-size="13" lengthAdjust="spacing" textLength="50.9653" x="488.1605" y="336.3638">permite</text><text fill="#000000" font-family="sans-serif" font-size="13" lengthAdjust="spacing" textLength="318.5317" x="425.122" y="351.4966">&#8226; introducir datos disponibles para la generaci&#243;n</text><text fill="#000000" font-family="sans-serif" font-size="13" lengthAdjust="spacing" textLength="136.373" x="425.122" y="366.6294">&#8226; salir de generaci&#243;n</text></g><!--link ProvidingData to ProvidingConfirmation--><g class="link" data-entity-1="ProvidingData" data-entity-2="ProvidingConfirmation" data-source-line="22" data-uid="lnk5" id="link_ProvidingData_ProvidingConfirmation"><path d="M439.152,430.8069 C479.422,442.8869 554.122,465.2969 554.122,465.2969 C554.122,465.2969 851.122,590.2969 851.122,590.2969 C851.122,590.2969 898.122,608.2969 898.122,608.2969 C898.122,608.2969 899.2006,608.9646 906.6506,613.5446" fill="none" id="ProvidingData-to-ProvidingConfirmation" style="stroke:#008000;stroke-width:1;"/><polygon fill="#008000" points="911.762,616.6869,906.1898,608.5659,907.5025,614.0683,902.0001,615.381,911.762,616.6869" style="stroke:#008000;stroke-width:1;"/><path d="M856.122,470.2969 L856.122,585.2969 L1229.122,585.2969 L1229.122,480.2969 L1219.122,470.2969 L856.122,470.2969" fill="#FEFFDD" style="stroke:#181818;stroke-width:0.5;"/><path d="M1219.122,470.2969 L1219.122,480.2969 L1229.122,480.2969 L1219.122,470.2969" fill="#FEFFDD" style="stroke:#181818;stroke-width:0.5;"/><text fill="#000000" font-family="sans-serif" font-size="13" font-weight="bold" lengthAdjust="spacing" textLength="60.5313" x="862.122" y="487.3638">Docente</text><text fill="#000000" font-family="sans-serif" font-size="13" lengthAdjust="spacing" textLength="287.9614" x="926.7855" y="487.3638">introduce datos m&#237;nimos para la generaci&#243;n</text><text fill="#000000" font-family="sans-serif" font-size="13" lengthAdjust="spacing" textLength="166.0674" x="862.122" y="502.4966">&#8226; Asignatura (obligatorio)</text><text fill="#000000" font-family="sans-serif" font-size="13" lengthAdjust="spacing" textLength="179.9751" x="862.122" y="517.6294">&#8226; Tema/Temas (obligatorio)</text><text fill="#000000" font-family="sans-serif" font-size="13" lengthAdjust="spacing" textLength="238.2847" x="862.122" y="532.7622">&#8226; N&#250;mero de preguntas (obligatorio)</text><text fill="#000000" font-family="sans-serif" font-size="13" lengthAdjust="spacing" textLength="287.4219" x="862.122" y="547.895">&#8226; Cantidad de tipos de ex&#225;men (obligatorio)</text><text fill="#000000" font-family="sans-serif" font-size="13" lengthAdjust="spacing" textLength="250.2056" x="862.122" y="563.0278">&#8226; Proporci&#243;n de dificultad (obligatorio)</text><text fill="#000000" font-family="sans-serif" font-size="13" lengthAdjust="spacing" textLength="166.3276" x="862.122" y="578.1606">&#8226; Evaluaci&#243;n (obligatorio)</text></g><!--link ProvidingConfirmation to c--><g class="link" data-entity-1="ProvidingConfirmation" data-entity-2="c" data-source-line="33" data-uid="lnk6" id="link_ProvidingConfirmation_c"><path d="M911.762,649.9069 C904.312,654.4869 898.122,658.2969 898.122,658.2969 C898.122,658.2969 554.122,741.2969 554.122,741.2969 C554.122,741.2969 460.3273,760.7299 429.1873,767.1799" fill="none" id="ProvidingConfirmation-to-c" style="stroke:#008000;stroke-width:1;"/><polygon fill="#008000" points="423.312,768.3969,432.9362,770.4883,428.2081,767.3828,431.3136,762.6546,423.312,768.3969" style="stroke:#008000;stroke-width:1;"/><path d="M819.122,681.2969 L819.122,736.2969 L991.122,736.2969 L991.122,691.2969 L981.122,681.2969 L819.122,681.2969" fill="#FEFFDD" style="stroke:#181818;stroke-width:0.5;"/><path d="M981.122,681.2969 L981.122,691.2969 L991.122,691.2969 L981.122,681.2969" fill="#FEFFDD" style="stroke:#181818;stroke-width:0.5;"/><text fill="#000000" font-family="sans-serif" font-size="13" font-weight="bold" lengthAdjust="spacing" textLength="58.9063" x="825.122" y="698.3638">Sistema</text><text fill="#000000" font-family="sans-serif" font-size="13" lengthAdjust="spacing" textLength="50.9653" x="888.1605" y="698.3638">permite</text><text fill="#000000" font-family="sans-serif" font-size="13" lengthAdjust="spacing" textLength="151.5313" x="825.122" y="713.4966">&#8226; confirmar generaci&#243;n</text><text fill="#000000" font-family="sans-serif" font-size="13" lengthAdjust="spacing" textLength="144.1045" x="825.122" y="728.6294">&#8226; cancelar generaci&#243;n</text></g><!--link c to ProvidingData--><g class="link" data-entity-1="c" data-entity-2="ProvidingData" data-source-line="40" data-uid="lnk7" id="link_c_ProvidingData"><path d="M408.412,764.5869 C385.592,741.7669 302.122,658.2969 302.122,658.2969 C302.122,658.2969 302.122,608.2969 302.122,608.2969 C302.122,608.2969 366.0143,502.7593 396.3743,452.6193" fill="none" id="c-to-ProvidingData" style="stroke:#FF0000;stroke-width:1;"/><polygon fill="#FF0000" points="399.482,447.4869,391.3988,453.1137,396.8922,451.7639,398.242,457.2574,399.482,447.4869" style="stroke:#FF0000;stroke-width:1;"/><path d="M307.122,620.7969 L307.122,645.7969 L513.122,645.7969 L513.122,630.7969 L503.122,620.7969 L307.122,620.7969" fill="#FEFFDD" style="stroke:#181818;stroke-width:0.5;"/><path d="M503.122,620.7969 L503.122,630.7969 L513.122,630.7969 L503.122,620.7969" fill="#FEFFDD" style="stroke:#181818;stroke-width:0.5;"/><text fill="#000000" font-family="sans-serif" font-size="13" lengthAdjust="spacing" textLength="185.5356" x="313.122" y="637.8638">Docente cancela generaci&#243;n</text></g><!--link c to ProvidingData--><g class="link" data-entity-1="c" data-entity-2="ProvidingData" data-source-line="45" data-uid="lnk8" id="link_c_ProvidingData"><path d="M419.422,764.5869 C440.612,741.7669 518.122,658.2969 518.122,658.2969 C518.122,658.2969 518.122,608.2969 518.122,608.2969 C518.122,608.2969 458.8525,502.8569 430.6625,452.7169" fill="none" id="c-to-ProvidingData-1" style="stroke:#FF0000;stroke-width:1;"/><polygon fill="#FF0000" points="427.722,447.4869,428.646,457.2923,430.1724,451.8453,435.6194,453.3717,427.722,447.4869" style="stroke:#FF0000;stroke-width:1;"/><path d="M523.122,620.7969 L523.122,645.7969 L867.122,645.7969 L867.122,630.7969 L857.122,620.7969 L523.122,620.7969" fill="#FEFFDD" style="stroke:#181818;stroke-width:0.5;"/><path d="M857.122,620.7969 L857.122,630.7969 L867.122,630.7969 L857.122,620.7969" fill="#FEFFDD" style="stroke:#181818;stroke-width:0.5;"/><text fill="#000000" font-family="sans-serif" font-size="13" lengthAdjust="spacing" textLength="323.5654" x="529.122" y="637.8638">Docente confirma generaci&#243;n: datos insuficientes</text></g><!--link c to *end*generarExamenes--><g class="link" data-entity-1="c" data-entity-2=".end.generarExamenes" data-source-line="50" data-uid="lnk10" id="link_c_.end.generarExamenes"><path d="M404.982,774.4769 C353.062,786.8869 101.3176,847.0419 45.5976,860.3619" fill="none" id="c-to-*end*generarExamenes" style="stroke:#008000;stroke-width:1;"/><polygon fill="#008000" points="39.762,861.7569,49.4453,863.5547,44.625,860.5944,47.5853,855.774,39.762,861.7569" style="stroke:#008000;stroke-width:1;"/><path d="M295.122,806.2969 L295.122,831.2969 L641.122,831.2969 L641.122,816.2969 L631.122,806.2969 L295.122,806.2969" fill="#FEFFDD" style="stroke:#181818;stroke-width:0.5;"/><path d="M631.122,806.2969 L631.122,816.2969 L641.122,816.2969 L631.122,806.2969" fill="#FEFFDD" style="stroke:#181818;stroke-width:0.5;"/><text fill="#000000" font-family="sans-serif" font-size="13" lengthAdjust="spacing" textLength="325.4507" x="301.122" y="823.3638">Docente confirma generaci&#243;n: generaci&#243;n exitosa</text></g><!--link ProvidingData to *end*generarExamenes--><g class="link" data-entity-1="ProvidingData" data-entity-2=".end.generarExamenes" data-source-line="55" data-uid="lnk11" id="link_ProvidingData_.end.generarExamenes"><path d="M388.942,433.4669 C358.172,445.8969 310.122,465.2969 310.122,465.2969 C310.122,465.2969 57.122,676.2969 57.122,676.2969 C57.122,676.2969 37.325,809.2022 31.515,848.2522" fill="none" id="ProvidingData-to-*end*generarExamenes" style="stroke:#0000FF;stroke-width:1;"/><polygon fill="#0000FF" points="30.632,854.1869,35.9129,845.8735,31.3678,849.2413,28,844.6962,30.632,854.1869" style="stroke:#0000FF;stroke-width:1;"/><path d="M62.122,696.2969 L62.122,721.2969 L312.122,721.2969 L312.122,706.2969 L302.122,696.2969 L62.122,696.2969" fill="#FEFFDD" style="stroke:#181818;stroke-width:0.5;"/><path d="M302.122,696.2969 L302.122,706.2969 L312.122,706.2969 L302.122,696.2969" fill="#FEFFDD" style="stroke:#181818;stroke-width:0.5;"/><text fill="#000000" font-family="sans-serif" font-size="13" lengthAdjust="spacing" textLength="229.4424" x="68.122" y="713.3638">Docente solicta salir de generaci&#243;n</text></g><g id="EXAMENES_GENERADOS"><rect fill="#F1F1F1" height="50" rx="12.5" ry="12.5" style="stroke:#181818;stroke-width:0.5;" width="193.1475" x="382" y="981"/><line style="stroke:#181818;stroke-width:0.5;" x1="382" x2="575.1475" y1="1007.2969" y2="1007.2969"/><text fill="#000000" font-family="sans-serif" font-size="14" lengthAdjust="spacing" textLength="173.1475" x="392" y="998.9951">EXAMENES_GENERADOS</text></g><g id="EXAMENES_GENERADOS_CONTEXTUALES"><rect fill="#F1F1F1" height="50" rx="12.5" ry="12.5" style="stroke:#181818;stroke-width:0.5;" width="312.3115" x="610.5" y="981"/><line style="stroke:#181818;stroke-width:0.5;" x1="610.5" x2="922.8115" y1="1007.2969" y2="1007.2969"/><text fill="#000000" font-family="sans-serif" font-size="14" lengthAdjust="spacing" textLength="292.3115" x="620.5" y="998.9951">EXAMENES_GENERADOS_CONTEXTUALES</text></g><g id="SISTEMA_DISPONIBLE"><rect fill="#F1F1F1" height="50" rx="12.5" ry="12.5" style="stroke:#181818;stroke-width:0.5;" width="172.0654" x="431.5" y="7"/><line style="stroke:#181818;stroke-width:0.5;" x1="431.5" x2="603.5654" y1="33.2969" y2="33.2969"/><text fill="#000000" font-family="sans-serif" font-size="14" lengthAdjust="spacing" textLength="152.0654" x="441.5" y="24.9951">SISTEMA_DISPONIBLE</text></g><g id="ASIGNATURA_ABIERTO"><rect fill="#F1F1F1" height="50" rx="12.5" ry="12.5" style="stroke:#181818;stroke-width:0.5;" width="180.0498" x="638.5" y="7"/><line style="stroke:#181818;stroke-width:0.5;" x1="638.5" x2="818.5498" y1="33.2969" y2="33.2969"/><text fill="#000000" font-family="sans-serif" font-size="14" lengthAdjust="spacing" textLength="160.0498" x="648.5" y="24.9951">ASIGNATURA_ABIERTO</text></g><!--link SISTEMA_DISPONIBLE to generarExamenes--><g class="link" data-entity-1="SISTEMA_DISPONIBLE" data-entity-2="generarExamenes" data-source-line="64" data-uid="lnk13" id="link_SISTEMA_DISPONIBLE_generarExamenes"><path d="M522.92,57.18 C526.26,72.06 529.6569,87.1654 535.2169,111.9554" fill="none" id="SISTEMA_DISPONIBLE-to-generarExamenes" style="stroke:#008000;stroke-width:1;"/><polygon fill="#008000" points="536.53,117.81,538.4634,108.1528,535.4358,112.9312,530.6573,109.9036,536.53,117.81" style="stroke:#008000;stroke-width:1;"/></g><!--link generarExamenes to EXAMENES_GENERADOS--><g class="link" data-entity-1="generarExamenes" data-entity-2="EXAMENES_GENERADOS" data-source-line="66" data-uid="lnk14" id="link_generarExamenes_EXAMENES_GENERADOS"><path d="M506.49,886.3 C500.86,904.88 497.5,916 497.5,916 C497.5,916 490.5737,948.4624 484.9437,974.8124" fill="none" id="generarExamenes-to-EXAMENES_GENERADOS" style="stroke:#008000;stroke-width:1;"/><polygon fill="#008000" points="483.69,980.68,489.4822,972.7144,484.7347,975.7904,481.6588,971.0429,483.69,980.68" style="stroke:#008000;stroke-width:1;"/><path d="M502.5,921 L502.5,946 L718.5,946 L718.5,931 L708.5,921 L502.5,921" fill="#FEFFDD" style="stroke:#181818;stroke-width:0.5;"/><path d="M708.5,921 L708.5,931 L718.5,931 L708.5,921" fill="#FEFFDD" style="stroke:#181818;stroke-width:0.5;"/><text fill="#000000" font-family="sans-serif" font-size="13" lengthAdjust="spacing" textLength="195.895" x="508.5" y="938.0669">vista de examenes generados</text></g><!--link generarExamenes to EXAMENES_GENERADOS_CONTEXTUALES--><g class="link" data-entity-1="generarExamenes" data-entity-2="EXAMENES_GENERADOS_CONTEXTUALES" data-source-line="71" data-uid="lnk15" id="link_generarExamenes_EXAMENES_GENERADOS_CONTEXTUALES"><path d="M732.37,886.03 C743.85,926.02 751.8649,953.9928 757.9549,975.2128" fill="none" id="generarExamenes-to-EXAMENES_GENERADOS_CONTEXTUALES" style="stroke:#008000;stroke-width:1;"/><polygon fill="#008000" points="759.61,980.98,760.9721,971.2258,758.2307,976.174,753.2825,973.4326,759.61,980.98" style="stroke:#008000;stroke-width:1;"/><path d="M753.5,921 L753.5,946 L969.5,946 L969.5,931 L959.5,921 L753.5,921" fill="#FEFFDD" style="stroke:#181818;stroke-width:0.5;"/><path d="M959.5,921 L959.5,931 L969.5,931 L959.5,921" fill="#FEFFDD" style="stroke:#181818;stroke-width:0.5;"/><text fill="#000000" font-family="sans-serif" font-size="13" lengthAdjust="spacing" textLength="195.895" x="759.5" y="938.0669">vista de examenes generados</text></g><!--link ASIGNATURA_ABIERTO to generarExamenes--><g class="link" data-entity-1="ASIGNATURA_ABIERTO" data-entity-2="generarExamenes" data-source-line="76" data-uid="lnk17" id="link_ASIGNATURA_ABIERTO_generarExamenes"><path d="M723.02,57.18 C719.65,72.06 716.2366,87.1685 710.6166,111.9585" fill="none" id="ASIGNATURA_ABIERTO-to-generarExamenes" style="stroke:#008000;stroke-width:1;"/><polygon fill="#008000" points="709.29,117.81,715.1809,109.9171,710.3955,112.9337,707.3788,108.1484,709.29,117.81" style="stroke:#008000;stroke-width:1;"/></g><!--SRC=[fLNDQjj04BxhAHRtaXH2xiKO55iOGs87Iu5026QzcYX3f5rrTsKIIg6lqjvxwgrNlqcUfAC_np-IuxWoB5xDDpFVDpExCayeKwvvmcAKO5zIOAcAN_ADunZBBR0896YklMUUq3_3k66ThNSdfntspN4OFQLFXtw4cyBN33NAQ5ZWBIgv2xhMQe4XWGRSyZtclf8Fg9FjA89rk-9HeO1UhwHmz_cUdTrzYZI0l3_hDR5W1L0gygSDgNqgNdJdlO4I82rqp-SzPbIC0YslIy3WUVcp45oWGOPb27gSrTAKRPtDhjmc6ZuQ2malQAIW4xHGc5v__68ehLPX9b2pa5jbM8WcLHBdCNKdRoQBQye2bt_aoj7mEFU17MEjv4t51ijc_ZlzUA-SDM-eQ2VBtn8JjP-pQp2It6Q4E57p62DorQXELu20odIUBwO5C5x-JK2hN7Ug8SgaRONskRGOyZ37MappqaBTz1ONAaUgTC4v1uVuW2ABBSLendiB7cUbnWR4daQibtkZ8UAe8H9LEDrOTS6bWBZ1k4jGv6GqX0VETZKGTORs1FyLl1At7lrBDNKeJKOzmXnesbAkYajtoJ6frZOqFqXv-Q47RHvdS53cudOYd_TFzVVwAlTktIjlxFcp8QrJTp3nMmsp_cGSUBV1ZNlf-OxZZ_p0kt9dWv5_FHcFBYwzZJ9jVGySP_kZiGvkOB4XSa5ZoykJLtcNqK9bdBTUVIp3ffmZqhd-Q3XsWvkfEtClHjuqcEmhm3y0]--></g></svg>