<svg xmlns="http://www.w3.org/2000/svg" xmlns:xlink="http://www.w3.org/1999/xlink" contentStyleType="text/css" data-diagram-type="STATE" height="896px" preserveAspectRatio="none" style="width:950px;height:896px;background:#FFFFFF;" version="1.1" viewBox="0 0 950 896" width="950px" zoomAndPan="magnify"><defs/><g><path d="M19.5,117 L924.6945,117 A12.5,12.5 0 0 1 937.1945,129.5 L937.1945,143.2969 L7,143.2969 L7,129.5 A12.5,12.5 0 0 1 19.5,117" fill="#F1F1F1"/><rect fill="none" height="663.2969" rx="12.5" ry="12.5" style="stroke:#181818;stroke-width:0.5;" width="930.1945" x="7" y="117"/><line style="stroke:#181818;stroke-width:0.5;" x1="7" x2="937.1945" y1="143.2969" y2="143.2969"/><text fill="#000000" font-family="sans-serif" font-size="14" lengthAdjust="spacing" textLength="138.7422" x="402.7262" y="134.9951">generarExamenes()</text><g id="generarExamenes.RequiringGeneration"><rect fill="#F1F1F1" height="50" rx="12.5" ry="12.5" style="stroke:#181818;stroke-width:0.5;" width="50" x="334.1945" y="245.2969"/><line style="stroke:#181818;stroke-width:0.5;" x1="334.1945" x2="384.1945" y1="271.5938" y2="271.5938"/><text fill="#000000" font-family="sans-serif" font-size="14" lengthAdjust="spacing" textLength="4.4502" x="356.9694" y="263.292">&#160;</text></g><g id="generarExamenes.ProvidingData"><rect fill="#F1F1F1" height="50" rx="12.5" ry="12.5" style="stroke:#181818;stroke-width:0.5;" width="50" x="334.1945" y="381.2969"/><line style="stroke:#181818;stroke-width:0.5;" x1="334.1945" x2="384.1945" y1="407.5938" y2="407.5938"/><text fill="#000000" font-family="sans-serif" font-size="14" lengthAdjust="spacing" textLength="4.4502" x="356.9694" y="399.292">&#160;</text></g><g id="generarExamenes.ProvidingConfirmation"><rect fill="#F1F1F1" height="50" rx="12.5" ry="12.5" style="stroke:#181818;stroke-width:0.5;" width="50" x="32.1945" y="502.2969"/><line style="stroke:#181818;stroke-width:0.5;" x1="32.1945" x2="82.1945" y1="528.5938" y2="528.5938"/><text fill="#000000" font-family="sans-serif" font-size="14" lengthAdjust="spacing" textLength="4.4502" x="54.9694" y="520.292">&#160;</text></g><g class="entity" data-entity="c" data-uid="ent0006" id="entity_c"><polygon fill="#F1F1F1" points="359.1945,653.2969,371.1945,665.2969,359.1945,677.2969,347.1945,665.2969,359.1945,653.2969" style="stroke:#181818;stroke-width:0.5;"/></g><ellipse cx="359.1945" cy="164.2969" fill="#222222" rx="10" ry="10" style="stroke:#222222;stroke-width:1;"/><ellipse cx="359.1945" cy="759.2969" fill="none" rx="11" ry="11" style="stroke:#222222;stroke-width:1;"/><ellipse cx="359.1945" cy="759.2969" fill="#222222" rx="6" ry="6" style="stroke:#222222;stroke-width:1;"/><!--link *start*generarExamenes to RequiringGeneration--><g class="link" data-entity-1=".start.generarExamenes" data-entity-2="RequiringGeneration" data-source-line="10" data-uid="lnk3" id="link_.start.generarExamenes_RequiringGeneration"><path d="M359.1945,174.5269 C359.1945,190.2369 359.1945,216.6569 359.1945,239.1669" fill="none" id="*start*generarExamenes-to-RequiringGeneration" style="stroke:#008000;stroke-width:1;"/><polygon fill="#008000" points="359.1945,245.1669,363.1945,236.1669,359.1945,240.1669,355.1945,236.1669,359.1945,245.1669" style="stroke:#008000;stroke-width:1;"/><path d="M364.1945,197.2969 L364.1945,222.2969 L622.1945,222.2969 L622.1945,207.2969 L612.1945,197.2969 L364.1945,197.2969" fill="#FEFFDD" style="stroke:#181818;stroke-width:0.5;"/><path d="M612.1945,197.2969 L612.1945,207.2969 L622.1945,207.2969 L612.1945,197.2969" fill="#FEFFDD" style="stroke:#181818;stroke-width:0.5;"/><text fill="#000000" font-family="sans-serif" font-size="13" font-weight="bold" lengthAdjust="spacing" textLength="60.5313" x="370.1945" y="214.3638">Docente</text><text fill="#000000" font-family="sans-serif" font-size="13" lengthAdjust="spacing" textLength="172.5103" x="434.8581" y="214.3638">solicita generar examenes</text></g><!--link RequiringGeneration to ProvidingData--><g class="link" data-entity-1="RequiringGeneration" data-entity-2="ProvidingData" data-source-line="15" data-uid="lnk4" id="link_RequiringGeneration_ProvidingData"><path d="M359.1945,295.5669 C359.1945,319.8469 359.1945,350.9869 359.1945,375.2069" fill="none" id="RequiringGeneration-to-ProvidingData" style="stroke:#008000;stroke-width:1;"/><polygon fill="#008000" points="359.1945,381.2069,363.1945,372.2069,359.1945,376.2069,355.1945,372.2069,359.1945,381.2069" style="stroke:#008000;stroke-width:1;"/><path d="M364.1945,318.2969 L364.1945,358.2969 L636.1945,358.2969 L636.1945,328.2969 L626.1945,318.2969 L364.1945,318.2969" fill="#FEFFDD" style="stroke:#181818;stroke-width:0.5;"/><path d="M626.1945,318.2969 L626.1945,328.2969 L636.1945,328.2969 L626.1945,318.2969" fill="#FEFFDD" style="stroke:#181818;stroke-width:0.5;"/><text fill="#000000" font-family="sans-serif" font-size="13" font-weight="bold" lengthAdjust="spacing" textLength="58.9063" x="370.1945" y="335.3638">Sistema</text><text fill="#000000" font-family="sans-serif" font-size="13" lengthAdjust="spacing" textLength="57.6685" x="433.2331" y="335.3638">presenta</text><text fill="#000000" font-family="sans-serif" font-size="13" lengthAdjust="spacing" textLength="251.5576" x="370.1945" y="350.4966">&#8226; datos disponibles para la generaci&#243;n</text></g><!--link ProvidingData to ProvidingConfirmation--><g class="link" data-entity-1="ProvidingData" data-entity-2="ProvidingConfirmation" data-source-line="21" data-uid="lnk5" id="link_ProvidingData_ProvidingConfirmation"><path d="M334.1445,410.4169 C256.0345,420.1569 22.1945,449.2969 22.1945,449.2969 C22.1945,449.2969 22.1945,484.2969 22.1945,484.2969 C22.1945,484.2969 25.2934,488.0175 32.9934,497.2575" fill="none" id="ProvidingData-to-ProvidingConfirmation" style="stroke:#008000;stroke-width:1;"/><polygon fill="#008000" points="36.8345,501.8669,34.1458,492.3921,33.6336,498.0258,28,497.5136,36.8345,501.8669" style="stroke:#008000;stroke-width:1;"/><path d="M27.1945,454.2969 L27.1945,479.2969 L340.1945,479.2969 L340.1945,464.2969 L330.1945,454.2969 L27.1945,454.2969" fill="#FEFFDD" style="stroke:#181818;stroke-width:0.5;"/><path d="M330.1945,454.2969 L330.1945,464.2969 L340.1945,464.2969 L330.1945,454.2969" fill="#FEFFDD" style="stroke:#181818;stroke-width:0.5;"/><text fill="#000000" font-family="sans-serif" font-size="13" font-weight="bold" lengthAdjust="spacing" textLength="60.5313" x="33.1945" y="471.3638">Docente</text><text fill="#000000" font-family="sans-serif" font-size="13" lengthAdjust="spacing" textLength="228.3125" x="97.8581" y="471.3638">introduce datos para la generaci&#243;n</text></g><!--link ProvidingConfirmation to c--><g class="link" data-entity-1="ProvidingConfirmation" data-entity-2="c" data-source-line="26" data-uid="lnk6" id="link_ProvidingConfirmation_c"><path d="M80.9845,552.3069 C112.2345,583.8569 163.1945,635.2969 163.1945,635.2969 C163.1945,635.2969 303.9891,656.1289 343.5391,661.9789" fill="none" id="ProvidingConfirmation-to-c" style="stroke:#008000;stroke-width:1;"/><polygon fill="#008000" points="349.4745,662.8569,341.1567,657.583,344.5284,662.1253,339.9861,665.4969,349.4745,662.8569" style="stroke:#008000;stroke-width:1;"/><path d="M168.1945,575.2969 L168.1945,630.2969 L340.1945,630.2969 L340.1945,585.2969 L330.1945,575.2969 L168.1945,575.2969" fill="#FEFFDD" style="stroke:#181818;stroke-width:0.5;"/><path d="M330.1945,575.2969 L330.1945,585.2969 L340.1945,585.2969 L330.1945,575.2969" fill="#FEFFDD" style="stroke:#181818;stroke-width:0.5;"/><text fill="#000000" font-family="sans-serif" font-size="13" font-weight="bold" lengthAdjust="spacing" textLength="60.5313" x="174.1945" y="592.3638">Docente</text><text fill="#000000" font-family="sans-serif" font-size="13" lengthAdjust="spacing" textLength="45.7729" x="238.8581" y="592.3638">solicita</text><text fill="#000000" font-family="sans-serif" font-size="13" lengthAdjust="spacing" textLength="151.5313" x="174.1945" y="607.4966">&#8226; confirmar generaci&#243;n</text><text fill="#000000" font-family="sans-serif" font-size="13" lengthAdjust="spacing" textLength="144.1045" x="174.1945" y="622.6294">&#8226; cancelar generaci&#243;n</text></g><!--link c to ProvidingData--><g class="link" data-entity-1="c" data-entity-2="ProvidingData" data-source-line="33" data-uid="lnk7" id="link_c_ProvidingData"><path d="M359.1945,653.2469 C359.1945,614.6869 359.1945,491.5769 359.1945,437.4769" fill="none" id="c-to-ProvidingData" style="stroke:#FF0000;stroke-width:1;"/><polygon fill="#FF0000" points="359.1945,431.4769,355.1945,440.4769,359.1945,436.4769,363.1945,440.4769,359.1945,431.4769" style="stroke:#FF0000;stroke-width:1;"/><path d="M364.1945,514.7969 L364.1945,539.7969 L570.1945,539.7969 L570.1945,524.7969 L560.1945,514.7969 L364.1945,514.7969" fill="#FEFFDD" style="stroke:#181818;stroke-width:0.5;"/><path d="M560.1945,514.7969 L560.1945,524.7969 L570.1945,524.7969 L560.1945,514.7969" fill="#FEFFDD" style="stroke:#181818;stroke-width:0.5;"/><text fill="#000000" font-family="sans-serif" font-size="13" lengthAdjust="spacing" textLength="185.5356" x="370.1945" y="531.8638">Docente cancela generaci&#243;n</text></g><!--link c to ProvidingData--><g class="link" data-entity-1="c" data-entity-2="ProvidingData" data-source-line="38" data-uid="lnk8" id="link_c_ProvidingData"><path d="M366.5145,660.5669 C404.6845,641.1369 579.1945,552.2969 579.1945,552.2969 C579.1945,552.2969 579.1945,502.2969 579.1945,502.2969 C579.1945,502.2969 447.7229,445.5255 389.9429,420.5755" fill="none" id="c-to-ProvidingData-1" style="stroke:#FF0000;stroke-width:1;"/><polygon fill="#FF0000" points="384.4345,418.1969,391.1114,425.437,389.0249,420.179,394.2828,418.0925,384.4345,418.1969" style="stroke:#FF0000;stroke-width:1;"/><path d="M584.1945,514.7969 L584.1945,539.7969 L928.1945,539.7969 L928.1945,524.7969 L918.1945,514.7969 L584.1945,514.7969" fill="#FEFFDD" style="stroke:#181818;stroke-width:0.5;"/><path d="M918.1945,514.7969 L918.1945,524.7969 L928.1945,524.7969 L918.1945,514.7969" fill="#FEFFDD" style="stroke:#181818;stroke-width:0.5;"/><text fill="#000000" font-family="sans-serif" font-size="13" lengthAdjust="spacing" textLength="323.5654" x="590.1945" y="531.8638">Docente confirma generaci&#243;n: datos insuficientes</text></g><!--link c to *end*generarExamenes--><g class="link" data-entity-1="c" data-entity-2=".end.generarExamenes" data-source-line="43" data-uid="lnk10" id="link_c_.end.generarExamenes"><path d="M359.1945,677.5769 C359.1945,695.6169 359.1945,724.6969 359.1945,742.0569" fill="none" id="c-to-*end*generarExamenes" style="stroke:#008000;stroke-width:1;"/><polygon fill="#008000" points="359.1945,748.0569,363.1945,739.0569,359.1945,743.0569,355.1945,739.0569,359.1945,748.0569" style="stroke:#008000;stroke-width:1;"/><path d="M364.1945,700.2969 L364.1945,725.2969 L710.1945,725.2969 L710.1945,710.2969 L700.1945,700.2969 L364.1945,700.2969" fill="#FEFFDD" style="stroke:#181818;stroke-width:0.5;"/><path d="M700.1945,700.2969 L700.1945,710.2969 L710.1945,710.2969 L700.1945,700.2969" fill="#FEFFDD" style="stroke:#181818;stroke-width:0.5;"/><text fill="#000000" font-family="sans-serif" font-size="13" lengthAdjust="spacing" textLength="325.4507" x="370.1945" y="717.3638">Docente confirma generaci&#243;n: generaci&#243;n exitosa</text></g><g id="SISTEMA_DISPONIBLE"><rect fill="#F1F1F1" height="50" rx="12.5" ry="12.5" style="stroke:#181818;stroke-width:0.5;" width="172.0654" x="386" y="7"/><line style="stroke:#181818;stroke-width:0.5;" x1="386" x2="558.0654" y1="33.2969" y2="33.2969"/><text fill="#000000" font-family="sans-serif" font-size="14" lengthAdjust="spacing" textLength="152.0654" x="396" y="24.9951">SISTEMA_DISPONIBLE</text></g><g id="EXAMENES_GENERADOS"><rect fill="#F1F1F1" height="50" rx="12.5" ry="12.5" style="stroke:#181818;stroke-width:0.5;" width="193.1475" x="375.5" y="840"/><line style="stroke:#181818;stroke-width:0.5;" x1="375.5" x2="568.6475" y1="866.2969" y2="866.2969"/><text fill="#000000" font-family="sans-serif" font-size="14" lengthAdjust="spacing" textLength="173.1475" x="385.5" y="857.9951">EXAMENES_GENERADOS</text></g><!--link SISTEMA_DISPONIBLE to generarExamenes--><g class="link" data-entity-1="SISTEMA_DISPONIBLE" data-entity-2="generarExamenes" data-source-line="49" data-uid="lnk12" id="link_SISTEMA_DISPONIBLE_generarExamenes"><path d="M472,57.08 C472,71.85 472,86.58 472,110.86" fill="none" id="SISTEMA_DISPONIBLE-to-generarExamenes" style="stroke:#008000;stroke-width:1;"/><polygon fill="#008000" points="472,116.86,476,107.86,472,111.86,468,107.86,472,116.86" style="stroke:#008000;stroke-width:1;"/></g><!--link generarExamenes to EXAMENES_GENERADOS--><g class="link" data-entity-1="generarExamenes" data-entity-2="EXAMENES_GENERADOS" data-source-line="51" data-uid="lnk14" id="link_generarExamenes_EXAMENES_GENERADOS"><path d="M472,780.12 C472,804.36 472,819.06 472,833.83" fill="none" id="generarExamenes-to-EXAMENES_GENERADOS" style="stroke:#008000;stroke-width:1;"/><polygon fill="#008000" points="472,839.83,476,830.83,472,834.83,468,830.83,472,839.83" style="stroke:#008000;stroke-width:1;"/></g><!--SRC=[fPJTIiCm5CVlynHXtgWml9TIcBQCWVjWzK8OGxBqR1xM9ZN9n262p-8h-0Y-YKzYsdMpN_DZfX2Qv9_p_-KS4hr4aJ35OXgX0BDEW2OoMgS3GhHX1kW212Yc_4SMspzDcQQjojpnIOi-4K9js-nfsS_gnd2_GeLYqStq1gMeYqPAFc1eHHupx9lbIodcgE9g54uTXzz9vE2w6uJ9wPIs9qSB1I2cRRU9WcP28Ur-Ex2dNMOJpipr90TXm3cRkLJB23aQjaq1XVoycHX4k8bW6zbrJMP5cFffcoW2r0PYbb4a2hH5seW_Nbvfo8pKD4ITI86po9OahI2DjfmStzz42V4BhsJV35RByqzfGc6K35SSSh83Q8gU9Ih-fqBjKiJpUAe6aQqomI5gMAmJyfH6GVZBqkLGMuVz1lyAdX-k6FqyppqAlPhRNAH2lSzobrrxKmwnAWpibK3hoyfMpuG4lU3QxtTklLum6Wvw5rT-oRdoW11IVMMAOl-cq_S7Vd3RjVsuums3Jm00]--></g></svg>