<svg xmlns="http://www.w3.org/2000/svg" xmlns:xlink="http://www.w3.org/1999/xlink" contentStyleType="text/css" data-diagram-type="STATE" height="986px" preserveAspectRatio="none" style="width:1006px;height:986px;background:#FFFFFF;" version="1.1" viewBox="0 0 1006 986" width="1006px" zoomAndPan="magnify"><defs/><g><path d="M19.5,117 L980.5,117 A12.5,12.5 0 0 1 993,129.5 L993,143.2969 L7,143.2969 L7,129.5 A12.5,12.5 0 0 1 19.5,117" fill="#F1F1F1"/><rect fill="none" height="753.2969" rx="12.5" ry="12.5" style="stroke:#181818;stroke-width:0.5;" width="986" x="7" y="117"/><line style="stroke:#181818;stroke-width:0.5;" x1="7" x2="993" y1="143.2969" y2="143.2969"/><text fill="#000000" font-family="sans-serif" font-size="14" lengthAdjust="spacing" textLength="138.7422" x="430.6289" y="134.9951">generarExamenes()</text><g id="generarExamenes.RequiringGeneration"><rect fill="#F1F1F1" height="50" rx="12.5" ry="12.5" style="stroke:#181818;stroke-width:0.5;" width="50" x="390" y="245.2969"/><line style="stroke:#181818;stroke-width:0.5;" x1="390" x2="440" y1="271.5938" y2="271.5938"/><text fill="#000000" font-family="sans-serif" font-size="14" lengthAdjust="spacing" textLength="4.4502" x="412.7749" y="263.292">&#160;</text></g><g id="generarExamenes.ProvidingData"><rect fill="#F1F1F1" height="50" rx="12.5" ry="12.5" style="stroke:#181818;stroke-width:0.5;" width="50" x="390" y="381.2969"/><line style="stroke:#181818;stroke-width:0.5;" x1="390" x2="440" y1="407.5938" y2="407.5938"/><text fill="#000000" font-family="sans-serif" font-size="14" lengthAdjust="spacing" textLength="4.4502" x="412.7749" y="399.292">&#160;</text></g><g id="generarExamenes.ProvidingConfirmation"><rect fill="#F1F1F1" height="50" rx="12.5" ry="12.5" style="stroke:#181818;stroke-width:0.5;" width="50" x="43" y="592.2969"/><line style="stroke:#181818;stroke-width:0.5;" x1="43" x2="93" y1="618.5938" y2="618.5938"/><text fill="#000000" font-family="sans-serif" font-size="14" lengthAdjust="spacing" textLength="4.4502" x="65.7749" y="610.292">&#160;</text></g><g class="entity" data-entity="c" data-uid="ent0006" id="entity_c"><polygon fill="#F1F1F1" points="415,743.2969,427,755.2969,415,767.2969,403,755.2969,415,743.2969" style="stroke:#181818;stroke-width:0.5;"/></g><ellipse cx="415" cy="164.2969" fill="#222222" rx="10" ry="10" style="stroke:#222222;stroke-width:1;"/><ellipse cx="415" cy="849.2969" fill="none" rx="11" ry="11" style="stroke:#222222;stroke-width:1;"/><ellipse cx="415" cy="849.2969" fill="#222222" rx="6" ry="6" style="stroke:#222222;stroke-width:1;"/><!--link *start*generarExamenes to RequiringGeneration--><g class="link" data-entity-1=".start.generarExamenes" data-entity-2="RequiringGeneration" data-source-line="10" data-uid="lnk3" id="link_.start.generarExamenes_RequiringGeneration"><path d="M415,174.5269 C415,190.2369 415,216.6569 415,239.1669" fill="none" id="*start*generarExamenes-to-RequiringGeneration" style="stroke:#008000;stroke-width:1;"/><polygon fill="#008000" points="415,245.1669,419,236.1669,415,240.1669,411,236.1669,415,245.1669" style="stroke:#008000;stroke-width:1;"/><path d="M420,197.2969 L420,222.2969 L678,222.2969 L678,207.2969 L668,197.2969 L420,197.2969" fill="#FEFFDD" style="stroke:#181818;stroke-width:0.5;"/><path d="M668,197.2969 L668,207.2969 L678,207.2969 L668,197.2969" fill="#FEFFDD" style="stroke:#181818;stroke-width:0.5;"/><text fill="#000000" font-family="sans-serif" font-size="13" font-weight="bold" lengthAdjust="spacing" textLength="60.5313" x="426" y="214.3638">Docente</text><text fill="#000000" font-family="sans-serif" font-size="13" lengthAdjust="spacing" textLength="172.5103" x="490.6636" y="214.3638">solicita generar ex&#225;menes</text></g><!--link RequiringGeneration to ProvidingData--><g class="link" data-entity-1="RequiringGeneration" data-entity-2="ProvidingData" data-source-line="15" data-uid="lnk4" id="link_RequiringGeneration_ProvidingData"><path d="M415,295.5669 C415,319.8469 415,350.9869 415,375.2069" fill="none" id="RequiringGeneration-to-ProvidingData" style="stroke:#008000;stroke-width:1;"/><polygon fill="#008000" points="415,381.2069,419,372.2069,415,376.2069,411,372.2069,415,381.2069" style="stroke:#008000;stroke-width:1;"/><path d="M420,318.2969 L420,358.2969 L692,358.2969 L692,328.2969 L682,318.2969 L420,318.2969" fill="#FEFFDD" style="stroke:#181818;stroke-width:0.5;"/><path d="M682,318.2969 L682,328.2969 L692,328.2969 L682,318.2969" fill="#FEFFDD" style="stroke:#181818;stroke-width:0.5;"/><text fill="#000000" font-family="sans-serif" font-size="13" font-weight="bold" lengthAdjust="spacing" textLength="58.9063" x="426" y="335.3638">Sistema</text><text fill="#000000" font-family="sans-serif" font-size="13" lengthAdjust="spacing" textLength="57.6685" x="489.0386" y="335.3638">presenta</text><text fill="#000000" font-family="sans-serif" font-size="13" lengthAdjust="spacing" textLength="251.5576" x="426" y="350.4966">&#8226; datos disponibles para la generaci&#243;n</text></g><!--link ProvidingData to ProvidingConfirmation--><g class="link" data-entity-1="ProvidingData" data-entity-2="ProvidingConfirmation" data-source-line="21" data-uid="lnk5" id="link_ProvidingData_ProvidingConfirmation"><path d="M389.86,409.9569 C302.6,419.1869 18,449.2969 18,449.2969 C18,449.2969 18,574.2969 18,574.2969 C18,574.2969 25.7147,580.779 38.1147,591.189" fill="none" id="ProvidingData-to-ProvidingConfirmation" style="stroke:#008000;stroke-width:1;"/><polygon fill="#008000" points="42.71,595.0469,38.3889,586.1966,38.8806,591.832,33.2451,592.3237,42.71,595.0469" style="stroke:#008000;stroke-width:1;"/><path d="M23,454.2969 L23,569.2969 L396,569.2969 L396,464.2969 L386,454.2969 L23,454.2969" fill="#FEFFDD" style="stroke:#181818;stroke-width:0.5;"/><path d="M386,454.2969 L386,464.2969 L396,464.2969 L386,454.2969" fill="#FEFFDD" style="stroke:#181818;stroke-width:0.5;"/><text fill="#000000" font-family="sans-serif" font-size="13" font-weight="bold" lengthAdjust="spacing" textLength="60.5313" x="29" y="471.3638">Docente</text><text fill="#000000" font-family="sans-serif" font-size="13" lengthAdjust="spacing" textLength="287.9614" x="93.6636" y="471.3638">introduce datos m&#237;nimos para la generaci&#243;n</text><text fill="#000000" font-family="sans-serif" font-size="13" lengthAdjust="spacing" textLength="166.0674" x="29" y="486.4966">&#8226; Asignatura (obligatorio)</text><text fill="#000000" font-family="sans-serif" font-size="13" lengthAdjust="spacing" textLength="179.9751" x="29" y="501.6294">&#8226; Tema/Temas (obligatorio)</text><text fill="#000000" font-family="sans-serif" font-size="13" lengthAdjust="spacing" textLength="238.2847" x="29" y="516.7622">&#8226; N&#250;mero de preguntas (obligatorio)</text><text fill="#000000" font-family="sans-serif" font-size="13" lengthAdjust="spacing" textLength="287.4219" x="29" y="531.895">&#8226; Cantidad de tipos de ex&#225;men (obligatorio)</text><text fill="#000000" font-family="sans-serif" font-size="13" lengthAdjust="spacing" textLength="250.2056" x="29" y="547.0278">&#8226; Proporci&#243;n de dificultad (obligatorio)</text><text fill="#000000" font-family="sans-serif" font-size="13" lengthAdjust="spacing" textLength="166.3276" x="29" y="562.1606">&#8226; Evaluaci&#243;n (obligatorio)</text></g><!--link ProvidingConfirmation to c--><g class="link" data-entity-1="ProvidingConfirmation" data-entity-2="c" data-source-line="32" data-uid="lnk6" id="link_ProvidingConfirmation_c"><path d="M93.27,636.2069 C136.26,666.6669 219,725.2969 219,725.2969 C219,725.2969 359.7946,746.1289 399.3446,751.9789" fill="none" id="ProvidingConfirmation-to-c" style="stroke:#008000;stroke-width:1;"/><polygon fill="#008000" points="405.28,752.8569,396.9622,747.583,400.3338,752.1253,395.7916,755.4969,405.28,752.8569" style="stroke:#008000;stroke-width:1;"/><path d="M224,665.2969 L224,720.2969 L396,720.2969 L396,675.2969 L386,665.2969 L224,665.2969" fill="#FEFFDD" style="stroke:#181818;stroke-width:0.5;"/><path d="M386,665.2969 L386,675.2969 L396,675.2969 L386,665.2969" fill="#FEFFDD" style="stroke:#181818;stroke-width:0.5;"/><text fill="#000000" font-family="sans-serif" font-size="13" font-weight="bold" lengthAdjust="spacing" textLength="60.5313" x="230" y="682.3638">Docente</text><text fill="#000000" font-family="sans-serif" font-size="13" lengthAdjust="spacing" textLength="45.7729" x="294.6636" y="682.3638">solicita</text><text fill="#000000" font-family="sans-serif" font-size="13" lengthAdjust="spacing" textLength="151.5313" x="230" y="697.4966">&#8226; confirmar generaci&#243;n</text><text fill="#000000" font-family="sans-serif" font-size="13" lengthAdjust="spacing" textLength="144.1045" x="230" y="712.6294">&#8226; cancelar generaci&#243;n</text></g><!--link c to ProvidingData--><g class="link" data-entity-1="c" data-entity-2="ProvidingData" data-source-line="39" data-uid="lnk7" id="link_c_ProvidingData"><path d="M415,742.9969 C415,694.0969 415,505.9669 415,437.4169" fill="none" id="c-to-ProvidingData" style="stroke:#FF0000;stroke-width:1;"/><polygon fill="#FF0000" points="415,431.4169,411,440.4169,415,436.4169,419,440.4169,415,431.4169" style="stroke:#FF0000;stroke-width:1;"/><path d="M420,604.7969 L420,629.7969 L626,629.7969 L626,614.7969 L616,604.7969 L420,604.7969" fill="#FEFFDD" style="stroke:#181818;stroke-width:0.5;"/><path d="M616,604.7969 L616,614.7969 L626,614.7969 L616,604.7969" fill="#FEFFDD" style="stroke:#181818;stroke-width:0.5;"/><text fill="#000000" font-family="sans-serif" font-size="13" lengthAdjust="spacing" textLength="185.5356" x="426" y="621.8638">Docente cancela generaci&#243;n</text></g><!--link c to ProvidingData--><g class="link" data-entity-1="c" data-entity-2="ProvidingData" data-source-line="44" data-uid="lnk8" id="link_c_ProvidingData"><path d="M422.32,750.5669 C460.49,731.1369 635,642.2969 635,642.2969 C635,642.2969 635,592.2969 635,592.2969 C635,592.2969 502.6117,480.979 444.8317,432.379" fill="none" id="c-to-ProvidingData-1" style="stroke:#FF0000;stroke-width:1;"/><polygon fill="#FF0000" points="440.24,428.5169,444.5528,437.3713,444.0664,431.7354,449.7023,431.249,440.24,428.5169" style="stroke:#FF0000;stroke-width:1;"/><path d="M640,604.7969 L640,629.7969 L984,629.7969 L984,614.7969 L974,604.7969 L640,604.7969" fill="#FEFFDD" style="stroke:#181818;stroke-width:0.5;"/><path d="M974,604.7969 L974,614.7969 L984,614.7969 L974,604.7969" fill="#FEFFDD" style="stroke:#181818;stroke-width:0.5;"/><text fill="#000000" font-family="sans-serif" font-size="13" lengthAdjust="spacing" textLength="323.5654" x="646" y="621.8638">Docente confirma generaci&#243;n: datos insuficientes</text></g><!--link c to *end*generarExamenes--><g class="link" data-entity-1="c" data-entity-2=".end.generarExamenes" data-source-line="49" data-uid="lnk10" id="link_c_.end.generarExamenes"><path d="M415,767.5769 C415,785.6169 415,814.6969 415,832.0569" fill="none" id="c-to-*end*generarExamenes" style="stroke:#008000;stroke-width:1;"/><polygon fill="#008000" points="415,838.0569,419,829.0569,415,833.0569,411,829.0569,415,838.0569" style="stroke:#008000;stroke-width:1;"/><path d="M420,790.2969 L420,815.2969 L766,815.2969 L766,800.2969 L756,790.2969 L420,790.2969" fill="#FEFFDD" style="stroke:#181818;stroke-width:0.5;"/><path d="M756,790.2969 L756,800.2969 L766,800.2969 L756,790.2969" fill="#FEFFDD" style="stroke:#181818;stroke-width:0.5;"/><text fill="#000000" font-family="sans-serif" font-size="13" lengthAdjust="spacing" textLength="325.4507" x="426" y="807.3638">Docente confirma generaci&#243;n: generaci&#243;n exitosa</text></g><g id="SISTEMA_DISPONIBLE"><rect fill="#F1F1F1" height="50" rx="12.5" ry="12.5" style="stroke:#181818;stroke-width:0.5;" width="172.0654" x="414" y="7"/><line style="stroke:#181818;stroke-width:0.5;" x1="414" x2="586.0654" y1="33.2969" y2="33.2969"/><text fill="#000000" font-family="sans-serif" font-size="14" lengthAdjust="spacing" textLength="152.0654" x="424" y="24.9951">SISTEMA_DISPONIBLE</text></g><g id="EXAMENES_GENERADOS"><rect fill="#F1F1F1" height="50" rx="12.5" ry="12.5" style="stroke:#181818;stroke-width:0.5;" width="193.1475" x="403.5" y="930"/><line style="stroke:#181818;stroke-width:0.5;" x1="403.5" x2="596.6475" y1="956.2969" y2="956.2969"/><text fill="#000000" font-family="sans-serif" font-size="14" lengthAdjust="spacing" textLength="173.1475" x="413.5" y="947.9951">EXAMENES_GENERADOS</text></g><!--link SISTEMA_DISPONIBLE to generarExamenes--><g class="link" data-entity-1="SISTEMA_DISPONIBLE" data-entity-2="generarExamenes" data-source-line="55" data-uid="lnk12" id="link_SISTEMA_DISPONIBLE_generarExamenes"><path d="M500,57.06 C500,71.74 500,86.36 500,110.72" fill="none" id="SISTEMA_DISPONIBLE-to-generarExamenes" style="stroke:#008000;stroke-width:1;"/><polygon fill="#008000" points="500,116.72,504,107.72,500,111.72,496,107.72,500,116.72" style="stroke:#008000;stroke-width:1;"/></g><!--link generarExamenes to EXAMENES_GENERADOS--><g class="link" data-entity-1="generarExamenes" data-entity-2="EXAMENES_GENERADOS" data-source-line="57" data-uid="lnk14" id="link_generarExamenes_EXAMENES_GENERADOS"><path d="M500,870.25 C500,894.49 500,909.02 500,923.69" fill="none" id="generarExamenes-to-EXAMENES_GENERADOS" style="stroke:#008000;stroke-width:1;"/><polygon fill="#008000" points="500,929.69,504,920.69,500,924.69,496,920.69,500,929.69" style="stroke:#008000;stroke-width:1;"/></g><!--SRC=[fLHDQzmm4BthLuZj9Ic4tCjYs6PDM6Ws8SwX44BGIXDtY2ovaXmIIg5_fRttr5kl-q_wIpgolLjxrqw_P12Mz3JlpPj1_XvDAPmek4O3uQa4Nbhz51UC-I02y1mCEE7IHr7Gd-V2yydEti7XX7zWZDDexape8zmblA_GeSbFQtn0Q_P15yu-e2BGN0JnpF69DNVeYjqeaa-dyfr52KdIIBX-USEFhb_a3i3S72L3AdWDD9RkquAolQytfgjaRYMO0DFZLSAzrIWnY8q571xNd-k4QpGOrOIWmRRJ45jNpNwwGp8oz04AKSie7NZIr81_VFh2bGZMSuM-j0PNcceIIyZrHgZ4zJVJa_XBNez-MDYUqR_p2KrmLbKIMcN5-gl1mexBYadCFEP6X8eG1tQbCQUh3ktX5d15-H_7oOy0bkll1JZB5KIByeei6eEU21DG2HMn0Sle7cogENA5x2YjgpL7iC8xb9KE56COdpu8NJKv3Y2UAKJNxbv1v5yrwLQ8REEvGTkbC1BqmE6-GXdLE51_sBMjg0t3EC5_1M-JwqP_rROT6bzHaJ02_HZbrbrw9Vw5ghEW1aBY5NsgZunbY-mgFPlTpXVPnVboyVfDscFUUJmPstrXk-3qxUmiNQRPxIdDbxFvUVOJ]--></g></svg>