<svg xmlns="http://www.w3.org/2000/svg" xmlns:xlink="http://www.w3.org/1999/xlink" contentStyleType="text/css" data-diagram-type="STATE" height="1022px" preserveAspectRatio="none" style="width:1006px;height:1022px;background:#FFFFFF;" version="1.1" viewBox="0 0 1006 1022" width="1006px" zoomAndPan="magnify"><defs/><g><path d="M19.5,118 L980.5,118 A12.5,12.5 0 0 1 993,130.5 L993,144.2969 L7,144.2969 L7,130.5 A12.5,12.5 0 0 1 19.5,118" fill="#F1F1F1"/><rect fill="none" height="753.2969" rx="12.5" ry="12.5" style="stroke:#181818;stroke-width:0.5;" width="986" x="7" y="118"/><line style="stroke:#181818;stroke-width:0.5;" x1="7" x2="993" y1="144.2969" y2="144.2969"/><text fill="#000000" font-family="sans-serif" font-size="14" lengthAdjust="spacing" textLength="138.7422" x="430.6289" y="135.9951">generarExamenes()</text><g id="generarExamenes.RequiringGeneration"><rect fill="#F1F1F1" height="50" rx="12.5" ry="12.5" style="stroke:#181818;stroke-width:0.5;" width="50" x="390" y="246.2969"/><line style="stroke:#181818;stroke-width:0.5;" x1="390" x2="440" y1="272.5938" y2="272.5938"/><text fill="#000000" font-family="sans-serif" font-size="14" lengthAdjust="spacing" textLength="4.4502" x="412.7749" y="264.292">&#160;</text></g><g id="generarExamenes.ProvidingData"><rect fill="#F1F1F1" height="50" rx="12.5" ry="12.5" style="stroke:#181818;stroke-width:0.5;" width="50" x="390" y="382.2969"/><line style="stroke:#181818;stroke-width:0.5;" x1="390" x2="440" y1="408.5938" y2="408.5938"/><text fill="#000000" font-family="sans-serif" font-size="14" lengthAdjust="spacing" textLength="4.4502" x="412.7749" y="400.292">&#160;</text></g><g id="generarExamenes.ProvidingConfirmation"><rect fill="#F1F1F1" height="50" rx="12.5" ry="12.5" style="stroke:#181818;stroke-width:0.5;" width="50" x="43" y="593.2969"/><line style="stroke:#181818;stroke-width:0.5;" x1="43" x2="93" y1="619.5938" y2="619.5938"/><text fill="#000000" font-family="sans-serif" font-size="14" lengthAdjust="spacing" textLength="4.4502" x="65.7749" y="611.292">&#160;</text></g><g class="entity" data-entity="c" data-uid="ent0006" id="entity_c"><polygon fill="#F1F1F1" points="415,744.2969,427,756.2969,415,768.2969,403,756.2969,415,744.2969" style="stroke:#181818;stroke-width:0.5;"/></g><ellipse cx="415" cy="165.2969" fill="#222222" rx="10" ry="10" style="stroke:#222222;stroke-width:1;"/><ellipse cx="415" cy="850.2969" fill="none" rx="11" ry="11" style="stroke:#222222;stroke-width:1;"/><ellipse cx="415" cy="850.2969" fill="#222222" rx="6" ry="6" style="stroke:#222222;stroke-width:1;"/><!--link *start*generarExamenes to RequiringGeneration--><g class="link" data-entity-1=".start.generarExamenes" data-entity-2="RequiringGeneration" data-source-line="10" data-uid="lnk3" id="link_.start.generarExamenes_RequiringGeneration"><path d="M415,175.5269 C415,191.2369 415,217.6569 415,240.1669" fill="none" id="*start*generarExamenes-to-RequiringGeneration" style="stroke:#008000;stroke-width:1;"/><polygon fill="#008000" points="415,246.1669,419,237.1669,415,241.1669,411,237.1669,415,246.1669" style="stroke:#008000;stroke-width:1;"/><path d="M420,198.2969 L420,223.2969 L678,223.2969 L678,208.2969 L668,198.2969 L420,198.2969" fill="#FEFFDD" style="stroke:#181818;stroke-width:0.5;"/><path d="M668,198.2969 L668,208.2969 L678,208.2969 L668,198.2969" fill="#FEFFDD" style="stroke:#181818;stroke-width:0.5;"/><text fill="#000000" font-family="sans-serif" font-size="13" font-weight="bold" lengthAdjust="spacing" textLength="60.5313" x="426" y="215.3638">Docente</text><text fill="#000000" font-family="sans-serif" font-size="13" lengthAdjust="spacing" textLength="172.5103" x="490.6636" y="215.3638">solicita generar ex&#225;menes</text></g><!--link RequiringGeneration to ProvidingData--><g class="link" data-entity-1="RequiringGeneration" data-entity-2="ProvidingData" data-source-line="15" data-uid="lnk4" id="link_RequiringGeneration_ProvidingData"><path d="M415,296.5669 C415,320.8469 415,351.9869 415,376.2069" fill="none" id="RequiringGeneration-to-ProvidingData" style="stroke:#008000;stroke-width:1;"/><polygon fill="#008000" points="415,382.2069,419,373.2069,415,377.2069,411,373.2069,415,382.2069" style="stroke:#008000;stroke-width:1;"/><path d="M420,319.2969 L420,359.2969 L692,359.2969 L692,329.2969 L682,319.2969 L420,319.2969" fill="#FEFFDD" style="stroke:#181818;stroke-width:0.5;"/><path d="M682,319.2969 L682,329.2969 L692,329.2969 L682,319.2969" fill="#FEFFDD" style="stroke:#181818;stroke-width:0.5;"/><text fill="#000000" font-family="sans-serif" font-size="13" font-weight="bold" lengthAdjust="spacing" textLength="58.9063" x="426" y="336.3638">Sistema</text><text fill="#000000" font-family="sans-serif" font-size="13" lengthAdjust="spacing" textLength="57.6685" x="489.0386" y="336.3638">presenta</text><text fill="#000000" font-family="sans-serif" font-size="13" lengthAdjust="spacing" textLength="251.5576" x="426" y="351.4966">&#8226; datos disponibles para la generaci&#243;n</text></g><!--link ProvidingData to ProvidingConfirmation--><g class="link" data-entity-1="ProvidingData" data-entity-2="ProvidingConfirmation" data-source-line="21" data-uid="lnk5" id="link_ProvidingData_ProvidingConfirmation"><path d="M389.86,410.9569 C302.6,420.1869 18,450.2969 18,450.2969 C18,450.2969 18,575.2969 18,575.2969 C18,575.2969 25.7147,581.779 38.1147,592.189" fill="none" id="ProvidingData-to-ProvidingConfirmation" style="stroke:#008000;stroke-width:1;"/><polygon fill="#008000" points="42.71,596.0469,38.3889,587.1966,38.8806,592.832,33.2451,593.3237,42.71,596.0469" style="stroke:#008000;stroke-width:1;"/><path d="M23,455.2969 L23,570.2969 L396,570.2969 L396,465.2969 L386,455.2969 L23,455.2969" fill="#FEFFDD" style="stroke:#181818;stroke-width:0.5;"/><path d="M386,455.2969 L386,465.2969 L396,465.2969 L386,455.2969" fill="#FEFFDD" style="stroke:#181818;stroke-width:0.5;"/><text fill="#000000" font-family="sans-serif" font-size="13" font-weight="bold" lengthAdjust="spacing" textLength="60.5313" x="29" y="472.3638">Docente</text><text fill="#000000" font-family="sans-serif" font-size="13" lengthAdjust="spacing" textLength="287.9614" x="93.6636" y="472.3638">introduce datos m&#237;nimos para la generaci&#243;n</text><text fill="#000000" font-family="sans-serif" font-size="13" lengthAdjust="spacing" textLength="166.0674" x="29" y="487.4966">&#8226; Asignatura (obligatorio)</text><text fill="#000000" font-family="sans-serif" font-size="13" lengthAdjust="spacing" textLength="179.9751" x="29" y="502.6294">&#8226; Tema/Temas (obligatorio)</text><text fill="#000000" font-family="sans-serif" font-size="13" lengthAdjust="spacing" textLength="238.2847" x="29" y="517.7622">&#8226; N&#250;mero de preguntas (obligatorio)</text><text fill="#000000" font-family="sans-serif" font-size="13" lengthAdjust="spacing" textLength="287.4219" x="29" y="532.895">&#8226; Cantidad de tipos de ex&#225;men (obligatorio)</text><text fill="#000000" font-family="sans-serif" font-size="13" lengthAdjust="spacing" textLength="250.2056" x="29" y="548.0278">&#8226; Proporci&#243;n de dificultad (obligatorio)</text><text fill="#000000" font-family="sans-serif" font-size="13" lengthAdjust="spacing" textLength="166.3276" x="29" y="563.1606">&#8226; Evaluaci&#243;n (obligatorio)</text></g><!--link ProvidingConfirmation to c--><g class="link" data-entity-1="ProvidingConfirmation" data-entity-2="c" data-source-line="32" data-uid="lnk6" id="link_ProvidingConfirmation_c"><path d="M93.27,637.2069 C136.26,667.6669 219,726.2969 219,726.2969 C219,726.2969 359.7946,747.1289 399.3446,752.9789" fill="none" id="ProvidingConfirmation-to-c" style="stroke:#008000;stroke-width:1;"/><polygon fill="#008000" points="405.28,753.8569,396.9622,748.583,400.3338,753.1253,395.7916,756.4969,405.28,753.8569" style="stroke:#008000;stroke-width:1;"/><path d="M224,666.2969 L224,721.2969 L396,721.2969 L396,676.2969 L386,666.2969 L224,666.2969" fill="#FEFFDD" style="stroke:#181818;stroke-width:0.5;"/><path d="M386,666.2969 L386,676.2969 L396,676.2969 L386,666.2969" fill="#FEFFDD" style="stroke:#181818;stroke-width:0.5;"/><text fill="#000000" font-family="sans-serif" font-size="13" font-weight="bold" lengthAdjust="spacing" textLength="60.5313" x="230" y="683.3638">Docente</text><text fill="#000000" font-family="sans-serif" font-size="13" lengthAdjust="spacing" textLength="45.7729" x="294.6636" y="683.3638">solicita</text><text fill="#000000" font-family="sans-serif" font-size="13" lengthAdjust="spacing" textLength="151.5313" x="230" y="698.4966">&#8226; confirmar generaci&#243;n</text><text fill="#000000" font-family="sans-serif" font-size="13" lengthAdjust="spacing" textLength="144.1045" x="230" y="713.6294">&#8226; cancelar generaci&#243;n</text></g><!--link c to ProvidingData--><g class="link" data-entity-1="c" data-entity-2="ProvidingData" data-source-line="39" data-uid="lnk7" id="link_c_ProvidingData"><path d="M415,743.9969 C415,695.0969 415,506.9669 415,438.4169" fill="none" id="c-to-ProvidingData" style="stroke:#FF0000;stroke-width:1;"/><polygon fill="#FF0000" points="415,432.4169,411,441.4169,415,437.4169,419,441.4169,415,432.4169" style="stroke:#FF0000;stroke-width:1;"/><path d="M420,605.7969 L420,630.7969 L626,630.7969 L626,615.7969 L616,605.7969 L420,605.7969" fill="#FEFFDD" style="stroke:#181818;stroke-width:0.5;"/><path d="M616,605.7969 L616,615.7969 L626,615.7969 L616,605.7969" fill="#FEFFDD" style="stroke:#181818;stroke-width:0.5;"/><text fill="#000000" font-family="sans-serif" font-size="13" lengthAdjust="spacing" textLength="185.5356" x="426" y="622.8638">Docente cancela generaci&#243;n</text></g><!--link c to ProvidingData--><g class="link" data-entity-1="c" data-entity-2="ProvidingData" data-source-line="44" data-uid="lnk8" id="link_c_ProvidingData"><path d="M422.32,751.5669 C460.49,732.1369 635,643.2969 635,643.2969 C635,643.2969 635,593.2969 635,593.2969 C635,593.2969 502.6117,481.979 444.8317,433.379" fill="none" id="c-to-ProvidingData-1" style="stroke:#FF0000;stroke-width:1;"/><polygon fill="#FF0000" points="440.24,429.5169,444.5528,438.3713,444.0664,432.7354,449.7023,432.249,440.24,429.5169" style="stroke:#FF0000;stroke-width:1;"/><path d="M640,605.7969 L640,630.7969 L984,630.7969 L984,615.7969 L974,605.7969 L640,605.7969" fill="#FEFFDD" style="stroke:#181818;stroke-width:0.5;"/><path d="M974,605.7969 L974,615.7969 L984,615.7969 L974,605.7969" fill="#FEFFDD" style="stroke:#181818;stroke-width:0.5;"/><text fill="#000000" font-family="sans-serif" font-size="13" lengthAdjust="spacing" textLength="323.5654" x="646" y="622.8638">Docente confirma generaci&#243;n: datos insuficientes</text></g><!--link c to *end*generarExamenes--><g class="link" data-entity-1="c" data-entity-2=".end.generarExamenes" data-source-line="49" data-uid="lnk10" id="link_c_.end.generarExamenes"><path d="M415,768.5769 C415,786.6169 415,815.6969 415,833.0569" fill="none" id="c-to-*end*generarExamenes" style="stroke:#008000;stroke-width:1;"/><polygon fill="#008000" points="415,839.0569,419,830.0569,415,834.0569,411,830.0569,415,839.0569" style="stroke:#008000;stroke-width:1;"/><path d="M420,791.2969 L420,816.2969 L766,816.2969 L766,801.2969 L756,791.2969 L420,791.2969" fill="#FEFFDD" style="stroke:#181818;stroke-width:0.5;"/><path d="M756,791.2969 L756,801.2969 L766,801.2969 L756,791.2969" fill="#FEFFDD" style="stroke:#181818;stroke-width:0.5;"/><text fill="#000000" font-family="sans-serif" font-size="13" lengthAdjust="spacing" textLength="325.4507" x="426" y="808.3638">Docente confirma generaci&#243;n: generaci&#243;n exitosa</text></g><g id="EXAMENES_GENERADOS"><rect fill="#F1F1F1" height="50" rx="12.5" ry="12.5" style="stroke:#181818;stroke-width:0.5;" width="193.1475" x="259.5" y="966"/><line style="stroke:#181818;stroke-width:0.5;" x1="259.5" x2="452.6475" y1="992.2969" y2="992.2969"/><text fill="#000000" font-family="sans-serif" font-size="14" lengthAdjust="spacing" textLength="173.1475" x="269.5" y="983.9951">EXAMENES_GENERADOS</text></g><g id="EXAMENES_GENERADOS_CONTEXTUALES"><rect fill="#F1F1F1" height="50" rx="12.5" ry="12.5" style="stroke:#181818;stroke-width:0.5;" width="312.3115" x="488" y="966"/><line style="stroke:#181818;stroke-width:0.5;" x1="488" x2="800.3115" y1="992.2969" y2="992.2969"/><text fill="#000000" font-family="sans-serif" font-size="14" lengthAdjust="spacing" textLength="292.3115" x="498" y="983.9951">EXAMENES_GENERADOS_CONTEXTUALES</text></g><g id="SISTEMA_DISPONIBLE"><rect fill="#F1F1F1" height="50" rx="12.5" ry="12.5" style="stroke:#181818;stroke-width:0.5;" width="172.0654" x="414" y="7"/><line style="stroke:#181818;stroke-width:0.5;" x1="414" x2="586.0654" y1="33.2969" y2="33.2969"/><text fill="#000000" font-family="sans-serif" font-size="14" lengthAdjust="spacing" textLength="152.0654" x="424" y="24.9951">SISTEMA_DISPONIBLE</text></g><!--link SISTEMA_DISPONIBLE to generarExamenes--><g class="link" data-entity-1="SISTEMA_DISPONIBLE" data-entity-2="generarExamenes" data-source-line="58" data-uid="lnk12" id="link_SISTEMA_DISPONIBLE_generarExamenes"><path d="M500,57.11 C500,72.01 500,87.01 500,111.82" fill="none" id="SISTEMA_DISPONIBLE-to-generarExamenes" style="stroke:#008000;stroke-width:1;"/><polygon fill="#008000" points="500,117.82,504,108.82,500,112.82,496,108.82,500,117.82" style="stroke:#008000;stroke-width:1;"/></g><!--link generarExamenes to EXAMENES_GENERADOS--><g class="link" data-entity-1="generarExamenes" data-entity-2="EXAMENES_GENERADOS" data-source-line="60" data-uid="lnk13" id="link_generarExamenes_EXAMENES_GENERADOS"><path d="M384.19,871.18 C378.45,889.82 375,901 375,901 C375,901 368.0737,933.4624 362.4437,959.8124" fill="none" id="generarExamenes-to-EXAMENES_GENERADOS" style="stroke:#008000;stroke-width:1;"/><polygon fill="#008000" points="361.19,965.68,366.9822,957.7144,362.2347,960.7904,359.1588,956.0429,361.19,965.68" style="stroke:#008000;stroke-width:1;"/><path d="M380,906 L380,931 L596,931 L596,916 L586,906 L380,906" fill="#FEFFDD" style="stroke:#181818;stroke-width:0.5;"/><path d="M586,906 L586,916 L596,916 L586,906" fill="#FEFFDD" style="stroke:#181818;stroke-width:0.5;"/><text fill="#000000" font-family="sans-serif" font-size="13" lengthAdjust="spacing" textLength="195.895" x="386" y="923.0669">vista de examenes generados</text></g><!--link generarExamenes to EXAMENES_GENERADOS_CONTEXTUALES--><g class="link" data-entity-1="generarExamenes" data-entity-2="EXAMENES_GENERADOS_CONTEXTUALES" data-source-line="65" data-uid="lnk14" id="link_generarExamenes_EXAMENES_GENERADOS_CONTEXTUALES"><path d="M609.42,871.24 C621.02,911.1 629.1633,939.029 635.3333,960.229" fill="none" id="generarExamenes-to-EXAMENES_GENERADOS_CONTEXTUALES" style="stroke:#008000;stroke-width:1;"/><polygon fill="#008000" points="637.01,965.99,638.3357,956.2308,635.6128,961.1892,630.6544,958.4663,637.01,965.99" style="stroke:#008000;stroke-width:1;"/><path d="M632,906 L632,931 L848,931 L848,916 L838,906 L632,906" fill="#FEFFDD" style="stroke:#181818;stroke-width:0.5;"/><path d="M838,906 L838,916 L848,916 L838,906" fill="#FEFFDD" style="stroke:#181818;stroke-width:0.5;"/><text fill="#000000" font-family="sans-serif" font-size="13" lengthAdjust="spacing" textLength="195.895" x="638" y="923.0669">vista de examenes generados</text></g><!--SRC=[fLHDQzj04BthLopk9Ic4t8iHkBO8XiGEaGk14CnwTw8EaNRLtPL9A8N-bVRUKs-z-f_qbtJqvKYob3Qf38jN-sRUcpUhiVUeKcvumc9Ku1vJOAcE7_EDvrd77R0851XkWWUUq3_Bk6MZphkZun7xx7cCdZ9cH3_2NS6d30sgwAp0EzJg47Hfz1ObWMRSyMUEfrhTeKcwMGGRZyL7ZG9ylvHmy_QMdToyYGo0kZtn-rIm0gWqnTE6ghqlNemt_amBK0x6fnkVMHsZGCTh2nWyxBuL1HTeKB9CGO-tN_hOcceEo-sJ4Q9raF12Hch0agOI_FlhToQvqvP9jAbMk8cf9taBMLmB5RZxgLeId-IrwFk57HZzDvzGEQDb9g1Ibkn-A4pqiAoyY8d5I76N4U98RsACADIWFju3LbJ_QRxO0S1Yzoi1evc4tA8e8uk6e5Ek74ekSwp3D7SFwcuEX90TgJQ5vXmiyGv55ZlAqOyFjZpEoXfx4Cyqecbtgo7YHPTqBqHK-KolxO8h0N7FuQ52aQin8F_nrbQYQePXWlzANXNNpFwkkdQeR4PDmXneXoZtxjAKU0rLOqCN28cNjwc-r7Cpk9vS18iWN9_HUZMPBSF1W_LqkLW5rwiFa_CWzBnm7gw2YybwDWylbulv-_EWfRmpV3slEw6Ru1uLdOgtD6fu-JrKyMK-gQttPE3BEDe5lOBm3m00]--></g></svg>