<svg xmlns="http://www.w3.org/2000/svg" xmlns:xlink="http://www.w3.org/1999/xlink" contentStyleType="text/css" data-diagram-type="STATE" height="681px" preserveAspectRatio="none" style="width:780px;height:681px;background:#FFFFFF;" version="1.1" viewBox="0 0 780 681" width="780px" zoomAndPan="magnify"><defs/><g><path d="M190.5,7 L613.5,7 A12.5,12.5 0 0 1 626,19.5 L626,33.2969 L178,33.2969 L178,19.5 A12.5,12.5 0 0 1 190.5,7" fill="#F1F1F1"/><rect fill="none" height="523.2969" rx="12.5" ry="12.5" style="stroke:#181818;stroke-width:0.5;" width="448" x="178" y="7"/><line style="stroke:#181818;stroke-width:0.5;" x1="178" x2="626" y1="33.2969" y2="33.2969"/><text fill="#000000" font-family="sans-serif" font-size="14" lengthAdjust="spacing" textLength="141.4219" x="331.2891" y="24.9951">eliminarRespuesta()</text><g id="eliminarRespuesta.ConfirmandoEliminacion"><rect fill="#F1F1F1" height="50" rx="12.5" ry="12.5" style="stroke:#181818;stroke-width:0.5;" width="50" x="190" y="135.2969"/><line style="stroke:#181818;stroke-width:0.5;" x1="190" x2="240" y1="161.5938" y2="161.5938"/><text fill="#000000" font-family="sans-serif" font-size="14" lengthAdjust="spacing" textLength="4.4502" x="212.7749" y="153.292">&#160;</text></g><g id="eliminarRespuesta.EliminandoRespuesta"><rect fill="#F1F1F1" height="50" rx="12.5" ry="12.5" style="stroke:#181818;stroke-width:0.5;" width="50" x="190" y="362.2969"/><line style="stroke:#181818;stroke-width:0.5;" x1="190" x2="240" y1="388.5938" y2="388.5938"/><text fill="#000000" font-family="sans-serif" font-size="14" lengthAdjust="spacing" textLength="4.4502" x="212.7749" y="380.292">&#160;</text></g><ellipse cx="215" cy="54.2969" fill="#222222" rx="10" ry="10" style="stroke:#222222;stroke-width:1;"/><ellipse cx="215" cy="509.2969" fill="none" rx="11" ry="11" style="stroke:#222222;stroke-width:1;"/><ellipse cx="215" cy="509.2969" fill="#222222" rx="6" ry="6" style="stroke:#222222;stroke-width:1;"/><!--link *start*eliminarRespuesta to ConfirmandoEliminacion--><g class="link" data-entity-1=".start.eliminarRespuesta" data-entity-2="ConfirmandoEliminacion" data-source-line="8" data-uid="lnk3" id="link_.start.eliminarRespuesta_ConfirmandoEliminacion"><path d="M215,64.5269 C215,80.2369 215,106.6569 215,129.1669" fill="none" id="*start*eliminarRespuesta-to-ConfirmandoEliminacion" style="stroke:#008000;stroke-width:1;"/><polygon fill="#008000" points="215,135.1669,219,126.1669,215,130.1669,211,126.1669,215,135.1669" style="stroke:#008000;stroke-width:1;"/><path d="M220,87.2969 L220,112.2969 L477,112.2969 L477,97.2969 L467,87.2969 L220,87.2969" fill="#FEFFDD" style="stroke:#181818;stroke-width:0.5;"/><path d="M467,87.2969 L467,97.2969 L477,97.2969 L467,87.2969" fill="#FEFFDD" style="stroke:#181818;stroke-width:0.5;"/><text fill="#000000" font-family="sans-serif" font-size="13" font-weight="bold" lengthAdjust="spacing" textLength="60.5313" x="226" y="104.3638">Docente</text><text fill="#000000" font-family="sans-serif" font-size="13" lengthAdjust="spacing" textLength="171.5264" x="290.6636" y="104.3638">solicita eliminar respuesta</text></g><!--link ConfirmandoEliminacion to EliminandoRespuesta--><g class="link" data-entity-1="ConfirmandoEliminacion" data-entity-2="EliminandoRespuesta" data-source-line="13" data-uid="lnk4" id="link_ConfirmandoEliminacion_EliminandoRespuesta"><path d="M215,185.3769 C215,228.5669 215,312.7369 215,356.0469" fill="none" id="ConfirmandoEliminacion-to-EliminandoRespuesta" style="stroke:#008000;stroke-width:1;"/><polygon fill="#008000" points="215,362.0469,219,353.0469,215,357.0469,211,353.0469,215,362.0469" style="stroke:#008000;stroke-width:1;"/><path d="M220,208.2969 L220,339.2969 L617,339.2969 L617,218.2969 L607,208.2969 L220,208.2969" fill="#FEFFDD" style="stroke:#181818;stroke-width:0.5;"/><path d="M607,208.2969 L607,218.2969 L617,218.2969 L607,208.2969" fill="#FEFFDD" style="stroke:#181818;stroke-width:0.5;"/><text fill="#000000" font-family="sans-serif" font-size="13" font-weight="bold" lengthAdjust="spacing" textLength="58.9063" x="226" y="225.3638">Sistema</text><text fill="#000000" font-family="sans-serif" font-size="13" lengthAdjust="spacing" textLength="313.0537" x="289.0386" y="225.3638">presenta informaci&#243;n de la respuesta a eliminar</text><text fill="#000000" font-family="sans-serif" font-size="13" lengthAdjust="spacing" textLength="78.2222" x="226" y="240.4966">&#8226; Contenido</text><text fill="#000000" font-family="sans-serif" font-size="13" lengthAdjust="spacing" textLength="137.96" x="226" y="255.6294">&#8226; Correcta/incorrecta</text><text fill="#000000" font-family="sans-serif" font-size="13" lengthAdjust="spacing" textLength="4.1323" x="226" y="270.7622">&#160;</text><text fill="#000000" font-family="sans-serif" font-size="13" lengthAdjust="spacing" textLength="4.1323" x="226" y="285.895">&#160;</text><text fill="#000000" font-family="sans-serif" font-size="13" lengthAdjust="spacing" textLength="249.6724" x="226" y="301.0278">&#8226; Presenta advertencia de eliminaci&#243;n</text><text fill="#000000" font-family="sans-serif" font-size="13" lengthAdjust="spacing" textLength="263.3706" x="226" y="316.1606">&#8226; Permite solicitar confirmar eliminaci&#243;n</text><text fill="#000000" font-family="sans-serif" font-size="13" lengthAdjust="spacing" textLength="255.9438" x="226" y="331.2935">&#8226; Permite solicitar cancelar eliminaci&#243;n</text></g><!--link EliminandoRespuesta to *end*eliminarRespuesta--><g class="link" data-entity-1="EliminandoRespuesta" data-entity-2=".end.eliminarRespuesta" data-source-line="25" data-uid="lnk6" id="link_EliminandoRespuesta_.end.eliminarRespuesta"><path d="M215,412.5769 C215,438.8769 215,473.5669 215,492.2769" fill="none" id="EliminandoRespuesta-to-*end*eliminarRespuesta" style="stroke:#008000;stroke-width:1;"/><polygon fill="#008000" points="215,498.2769,219,489.2769,215,493.2769,211,489.2769,215,498.2769" style="stroke:#008000;stroke-width:1;"/><path d="M220,435.2969 L220,475.2969 L539,475.2969 L539,445.2969 L529,435.2969 L220,435.2969" fill="#FEFFDD" style="stroke:#181818;stroke-width:0.5;"/><path d="M529,435.2969 L529,445.2969 L539,445.2969 L529,435.2969" fill="#FEFFDD" style="stroke:#181818;stroke-width:0.5;"/><text fill="#000000" font-family="sans-serif" font-size="13" font-weight="bold" lengthAdjust="spacing" textLength="60.5313" x="226" y="452.3638">Docente</text><text fill="#000000" font-family="sans-serif" font-size="13" lengthAdjust="spacing" textLength="233.5303" x="290.6636" y="452.3638">solicita confirmaci&#243;n de eliminaci&#243;n</text><text fill="#000000" font-family="sans-serif" font-size="13" font-weight="bold" lengthAdjust="spacing" textLength="58.9063" x="226" y="467.4966">Sistema</text><text fill="#000000" font-family="sans-serif" font-size="13" lengthAdjust="spacing" textLength="136.2905" x="289.0386" y="467.4966">confirma eliminaci&#243;n</text></g><g id="RESPUESTAS_ABIERTO"><rect fill="#F1F1F1" height="50" rx="12.5" ry="12.5" style="stroke:#181818;stroke-width:0.5;" width="179.3525" x="95.5" y="625"/><line style="stroke:#181818;stroke-width:0.5;" x1="95.5" x2="274.8525" y1="651.2969" y2="651.2969"/><text fill="#000000" font-family="sans-serif" font-size="14" lengthAdjust="spacing" textLength="159.3525" x="105.5" y="642.9951">RESPUESTAS_ABIERTO</text></g><g id="RESPUESTAS_CONTEXTUALES_ABIERTO"><rect fill="#F1F1F1" height="50" rx="12.5" ry="12.5" style="stroke:#181818;stroke-width:0.5;" width="298.5166" x="457.5" y="625"/><line style="stroke:#181818;stroke-width:0.5;" x1="457.5" x2="756.0166" y1="651.2969" y2="651.2969"/><text fill="#000000" font-family="sans-serif" font-size="14" lengthAdjust="spacing" textLength="278.5166" x="467.5" y="642.9951">RESPUESTAS_CONTEXTUALES_ABIERTO</text></g><!--link RESPUESTAS_ABIERTO to eliminarRespuesta--><g class="link" data-entity-1="RESPUESTAS_ABIERTO" data-entity-2="eliminarRespuesta" data-source-line="32" data-uid="lnk8" id="link_RESPUESTAS_ABIERTO_eliminarRespuesta"><path d="M259.26,624.84 C303.46,610.47 351,595 351,595 C351,595 354.2515,574.2777 360.2115,536.2277" fill="none" id="RESPUESTAS_ABIERTO-to-eliminarRespuesta" style="stroke:#008000;stroke-width:1;"/><polygon fill="#008000" points="361.14,530.3,355.7954,538.5726,360.3663,535.2398,363.6991,539.8106,361.14,530.3" style="stroke:#008000;stroke-width:1;"/></g><!--link eliminarRespuesta to RESPUESTAS_ABIERTO--><g class="link" data-entity-1="eliminarRespuesta" data-entity-2="RESPUESTAS_ABIERTO" data-source-line="35" data-uid="lnk11" id="link_eliminarRespuesta_RESPUESTAS_ABIERTO"><path d="M177.96,433.85 C88.36,499.58 6,560 6,560 C6,560 6,595 6,595 C6,595 51.7057,608.787 99.4357,623.187" fill="none" id="eliminarRespuesta-to-RESPUESTAS_ABIERTO" style="stroke:#008000;stroke-width:1;"/><polygon fill="#008000" points="105.18,624.92,97.719,618.4909,100.3931,623.4758,95.4082,626.15,105.18,624.92" style="stroke:#008000;stroke-width:1;"/><path d="M11,565 L11,590 L137,590 L137,575 L127,565 L11,565" fill="#FEFFDD" style="stroke:#181818;stroke-width:0.5;"/><path d="M127,565 L127,575 L137,575 L127,565" fill="#FEFFDD" style="stroke:#181818;stroke-width:0.5;"/><text fill="#000000" font-family="sans-serif" font-size="13" lengthAdjust="spacing" textLength="105.8408" x="17" y="582.0669">lista actualizada</text></g><!--link eliminarRespuesta to RESPUESTAS_ABIERTO--><g class="link" data-entity-1="eliminarRespuesta" data-entity-2="RESPUESTAS_ABIERTO" data-source-line="45" data-uid="lnk13" id="link_eliminarRespuesta_RESPUESTAS_ABIERTO"><path d="M201.13,530.01 C186.89,548.47 178,560 178,560 C178,560 178,595 178,595 C178,595 179.2257,604.5202 181.0957,618.8902" fill="none" id="eliminarRespuesta-to-RESPUESTAS_ABIERTO-1" style="stroke:#0000FF;stroke-width:1;"/><polygon fill="#0000FF" points="181.87,624.84,184.6752,615.3991,181.2248,619.8818,176.742,616.4314,181.87,624.84" style="stroke:#0000FF;stroke-width:1;"/><path d="M183,565 L183,590 L338,590 L338,575 L328,565 L183,565" fill="#FEFFDD" style="stroke:#181818;stroke-width:0.5;"/><path d="M328,565 L328,575 L338,575 L328,565" fill="#FEFFDD" style="stroke:#181818;stroke-width:0.5;"/><text fill="#000000" font-family="sans-serif" font-size="13" lengthAdjust="spacing" textLength="134.2085" x="189" y="582.0669">cancelar eliminaci&#243;n</text></g><!--link RESPUESTAS_CONTEXTUALES_ABIERTO to eliminarRespuesta--><g class="link" data-entity-1="RESPUESTAS_CONTEXTUALES_ABIERTO" data-entity-2="eliminarRespuesta" data-source-line="33" data-uid="lnk10" id="link_RESPUESTAS_CONTEXTUALES_ABIERTO_eliminarRespuesta"><path d="M681.26,624.84 C725.46,610.47 773,595 773,595 C773,595 773,560 773,560 C773,560 709.0744,509.9386 630.8244,448.6786" fill="none" id="RESPUESTAS_CONTEXTUALES_ABIERTO-to-eliminarRespuesta" style="stroke:#008000;stroke-width:1;"/><polygon fill="#008000" points="626.1,444.98,630.7209,453.6776,630.037,448.0622,635.6524,447.3783,626.1,444.98" style="stroke:#008000;stroke-width:1;"/></g><!--link eliminarRespuesta to RESPUESTAS_CONTEXTUALES_ABIERTO--><g class="link" data-entity-1="eliminarRespuesta" data-entity-2="RESPUESTAS_CONTEXTUALES_ABIERTO" data-source-line="40" data-uid="lnk12" id="link_eliminarRespuesta_RESPUESTAS_CONTEXTUALES_ABIERTO"><path d="M422.83,530.3 C425.87,568.35 428,595 428,595 C428,595 473.7057,608.787 521.4357,623.187" fill="none" id="eliminarRespuesta-to-RESPUESTAS_CONTEXTUALES_ABIERTO" style="stroke:#008000;stroke-width:1;"/><polygon fill="#008000" points="527.18,624.92,519.719,618.4909,522.3931,623.4758,517.4082,626.15,527.18,624.92" style="stroke:#008000;stroke-width:1;"/><path d="M433,565 L433,590 L559,590 L559,575 L549,565 L433,565" fill="#FEFFDD" style="stroke:#181818;stroke-width:0.5;"/><path d="M549,565 L549,575 L559,575 L549,565" fill="#FEFFDD" style="stroke:#181818;stroke-width:0.5;"/><text fill="#000000" font-family="sans-serif" font-size="13" lengthAdjust="spacing" textLength="105.8408" x="439" y="582.0669">lista actualizada</text></g><!--link eliminarRespuesta to RESPUESTAS_CONTEXTUALES_ABIERTO--><g class="link" data-entity-1="eliminarRespuesta" data-entity-2="RESPUESTAS_CONTEXTUALES_ABIERTO" data-source-line="50" data-uid="lnk14" id="link_eliminarRespuesta_RESPUESTAS_CONTEXTUALES_ABIERTO"><path d="M550.86,530.01 C561.41,548.47 568,560 568,560 C568,560 582.393,592.834 593.933,619.184" fill="none" id="eliminarRespuesta-to-RESPUESTAS_CONTEXTUALES_ABIERTO-1" style="stroke:#0000FF;stroke-width:1;"/><polygon fill="#0000FF" points="596.34,624.68,596.3935,614.8313,594.3342,620.1,589.0655,618.0406,596.34,624.68" style="stroke:#0000FF;stroke-width:1;"/><path d="M587,565 L587,590 L742,590 L742,575 L732,565 L587,565" fill="#FEFFDD" style="stroke:#181818;stroke-width:0.5;"/><path d="M732,565 L732,575 L742,575 L732,565" fill="#FEFFDD" style="stroke:#181818;stroke-width:0.5;"/><text fill="#000000" font-family="sans-serif" font-size="13" lengthAdjust="spacing" textLength="134.2085" x="593" y="582.0669">cancelar eliminaci&#243;n</text></g><!--SRC=[fPDHIiD048RVznHBVL6Xz0AbK6iU1B6bIK4eHRQRgGpTp8RDLgWYU1Qlu16yYITnapP9Os9DCNb9PcV-_vlPtMID50iZ8gwGm6vZuB5Ms_I7iSGA2nmKHaZ2J269D-1YN2IyKukUNtJu2sFSFRkwZdjTvaZJ2aqaADJUhaQYfdhUVj6b5P8xjVdbWdVdPuy6W1RTmJ51qavFKzhBEWlqbuDhBO4iz7lB0K-qGeckWvoUcy8hJGSACusTSRDHXQK9-ZSG7nCBaSX0OkVhg0H7Mcbd8V7pWtW8N8aIYPUScSRNstlAP84mr0SHOq1QqKEI-q_6YjL9RYJ29p2kLA98VI1loFcMoM0YTE3vc0oN-n6OrWM29AYc_Efi6mPN6QpRzDDsD2Sj9ba3-B45US4HqbV6ffu_cNb-CFGVXbSttZGOLp1hj-2mO3I-2xpxO3QyzTfMi_fbEooeqx3AW1HcnqRQZL3uB4B1ogctLcx2_gVDKcsW3N_pwJbT_EyMZZjz0m00]--></g></svg>