<svg xmlns="http://www.w3.org/2000/svg" xmlns:xlink="http://www.w3.org/1999/xlink" contentStyleType="text/css" data-diagram-type="STATE" height="696px" preserveAspectRatio="none" style="width:1256px;height:696px;background:#FFFFFF;" version="1.1" viewBox="0 0 1256 696" width="1256px" zoomAndPan="magnify"><defs/><g><path d="M428.5,7 L851.5,7 A12.5,12.5 0 0 1 864,19.5 L864,33.2969 L416,33.2969 L416,19.5 A12.5,12.5 0 0 1 428.5,7" fill="#F1F1F1"/><rect fill="none" height="538.2969" rx="12.5" ry="12.5" style="stroke:#181818;stroke-width:0.5;" width="448" x="416" y="7"/><line style="stroke:#181818;stroke-width:0.5;" x1="416" x2="864" y1="33.2969" y2="33.2969"/><text fill="#000000" font-family="sans-serif" font-size="14" lengthAdjust="spacing" textLength="141.4219" x="569.2891" y="24.9951">eliminarRespuesta()</text><g id="eliminarRespuesta.ConfirmandoEliminacion"><rect fill="#F1F1F1" height="50" rx="12.5" ry="12.5" style="stroke:#181818;stroke-width:0.5;" width="50" x="428" y="135.2969"/><line style="stroke:#181818;stroke-width:0.5;" x1="428" x2="478" y1="161.5938" y2="161.5938"/><text fill="#000000" font-family="sans-serif" font-size="14" lengthAdjust="spacing" textLength="4.4502" x="450.7749" y="153.292">&#160;</text></g><g id="eliminarRespuesta.EliminandoRespuesta"><rect fill="#F1F1F1" height="50" rx="12.5" ry="12.5" style="stroke:#181818;stroke-width:0.5;" width="50" x="428" y="362.2969"/><line style="stroke:#181818;stroke-width:0.5;" x1="428" x2="478" y1="388.5938" y2="388.5938"/><text fill="#000000" font-family="sans-serif" font-size="14" lengthAdjust="spacing" textLength="4.4502" x="450.7749" y="380.292">&#160;</text></g><ellipse cx="453" cy="54.2969" fill="#222222" rx="10" ry="10" style="stroke:#222222;stroke-width:1;"/><ellipse cx="453" cy="524.2969" fill="none" rx="11" ry="11" style="stroke:#222222;stroke-width:1;"/><ellipse cx="453" cy="524.2969" fill="#222222" rx="6" ry="6" style="stroke:#222222;stroke-width:1;"/><!--link *start*eliminarRespuesta to ConfirmandoEliminacion--><g class="link" data-entity-1=".start.eliminarRespuesta" data-entity-2="ConfirmandoEliminacion" data-source-line="8" data-uid="lnk3" id="link_.start.eliminarRespuesta_ConfirmandoEliminacion"><path d="M453,64.5269 C453,80.2369 453,106.6569 453,129.1669" fill="none" id="*start*eliminarRespuesta-to-ConfirmandoEliminacion" style="stroke:#008000;stroke-width:1;"/><polygon fill="#008000" points="453,135.1669,457,126.1669,453,130.1669,449,126.1669,453,135.1669" style="stroke:#008000;stroke-width:1;"/><path d="M458,87.2969 L458,112.2969 L715,112.2969 L715,97.2969 L705,87.2969 L458,87.2969" fill="#FEFFDD" style="stroke:#181818;stroke-width:0.5;"/><path d="M705,87.2969 L705,97.2969 L715,97.2969 L705,87.2969" fill="#FEFFDD" style="stroke:#181818;stroke-width:0.5;"/><text fill="#000000" font-family="sans-serif" font-size="13" font-weight="bold" lengthAdjust="spacing" textLength="60.5313" x="464" y="104.3638">Docente</text><text fill="#000000" font-family="sans-serif" font-size="13" lengthAdjust="spacing" textLength="171.5264" x="528.6636" y="104.3638">solicita eliminar respuesta</text></g><!--link ConfirmandoEliminacion to EliminandoRespuesta--><g class="link" data-entity-1="ConfirmandoEliminacion" data-entity-2="EliminandoRespuesta" data-source-line="13" data-uid="lnk4" id="link_ConfirmandoEliminacion_EliminandoRespuesta"><path d="M453,185.3769 C453,228.5669 453,312.7369 453,356.0469" fill="none" id="ConfirmandoEliminacion-to-EliminandoRespuesta" style="stroke:#008000;stroke-width:1;"/><polygon fill="#008000" points="453,362.0469,457,353.0469,453,357.0469,449,353.0469,453,362.0469" style="stroke:#008000;stroke-width:1;"/><path d="M458,208.2969 L458,339.2969 L855,339.2969 L855,218.2969 L845,208.2969 L458,208.2969" fill="#FEFFDD" style="stroke:#181818;stroke-width:0.5;"/><path d="M845,208.2969 L845,218.2969 L855,218.2969 L845,208.2969" fill="#FEFFDD" style="stroke:#181818;stroke-width:0.5;"/><text fill="#000000" font-family="sans-serif" font-size="13" font-weight="bold" lengthAdjust="spacing" textLength="58.9063" x="464" y="225.3638">Sistema</text><text fill="#000000" font-family="sans-serif" font-size="13" lengthAdjust="spacing" textLength="313.0537" x="527.0386" y="225.3638">presenta informaci&#243;n de la respuesta a eliminar</text><text fill="#000000" font-family="sans-serif" font-size="13" lengthAdjust="spacing" textLength="78.2222" x="464" y="240.4966">&#8226; Contenido</text><text fill="#000000" font-family="sans-serif" font-size="13" lengthAdjust="spacing" textLength="137.96" x="464" y="255.6294">&#8226; Correcta/incorrecta</text><text fill="#000000" font-family="sans-serif" font-size="13" lengthAdjust="spacing" textLength="4.1323" x="464" y="270.7622">&#160;</text><text fill="#000000" font-family="sans-serif" font-size="13" lengthAdjust="spacing" textLength="4.1323" x="464" y="285.895">&#160;</text><text fill="#000000" font-family="sans-serif" font-size="13" lengthAdjust="spacing" textLength="249.6724" x="464" y="301.0278">&#8226; Presenta advertencia de eliminaci&#243;n</text><text fill="#000000" font-family="sans-serif" font-size="13" lengthAdjust="spacing" textLength="263.3706" x="464" y="316.1606">&#8226; Permite solicitar confirmar eliminaci&#243;n</text><text fill="#000000" font-family="sans-serif" font-size="13" lengthAdjust="spacing" textLength="255.9438" x="464" y="331.2935">&#8226; Permite solicitar cancelar eliminaci&#243;n</text></g><!--link EliminandoRespuesta to *end*eliminarRespuesta--><g class="link" data-entity-1="EliminandoRespuesta" data-entity-2=".end.eliminarRespuesta" data-source-line="25" data-uid="lnk6" id="link_EliminandoRespuesta_.end.eliminarRespuesta"><path d="M453,412.7469 C453,442.5269 453,485.5069 453,506.8369" fill="none" id="EliminandoRespuesta-to-*end*eliminarRespuesta" style="stroke:#008000;stroke-width:1;"/><polygon fill="#008000" points="453,512.8369,457,503.8369,453,507.8369,449,503.8369,453,512.8369" style="stroke:#008000;stroke-width:1;"/><path d="M458,435.2969 L458,490.2969 L794,490.2969 L794,445.2969 L784,435.2969 L458,435.2969" fill="#FEFFDD" style="stroke:#181818;stroke-width:0.5;"/><path d="M784,435.2969 L784,445.2969 L794,445.2969 L784,435.2969" fill="#FEFFDD" style="stroke:#181818;stroke-width:0.5;"/><text fill="#000000" font-family="sans-serif" font-size="13" font-weight="bold" lengthAdjust="spacing" textLength="60.5313" x="464" y="452.3638">Docente</text><text fill="#000000" font-family="sans-serif" font-size="13" lengthAdjust="spacing" textLength="233.5303" x="528.6636" y="452.3638">solicita confirmaci&#243;n de eliminaci&#243;n</text><text fill="#000000" font-family="sans-serif" font-size="13" font-weight="bold" lengthAdjust="spacing" textLength="58.9063" x="464" y="467.4966">Sistema</text><text fill="#000000" font-family="sans-serif" font-size="13" lengthAdjust="spacing" textLength="251.9829" x="527.0386" y="467.4966">permite solicitar confirmar eliminaci&#243;n</text><text fill="#000000" font-family="sans-serif" font-size="13" font-weight="bold" lengthAdjust="spacing" textLength="60.5313" x="464" y="482.6294">Docente</text><text fill="#000000" font-family="sans-serif" font-size="13" lengthAdjust="spacing" textLength="191.5405" x="528.6636" y="482.6294">solicita confirmar eliminaci&#243;n</text></g><g id="RESPUESTAS_ABIERTO"><rect fill="#F1F1F1" height="50" rx="12.5" ry="12.5" style="stroke:#181818;stroke-width:0.5;" width="179.3525" x="214.32" y="640.3"/><line style="stroke:#181818;stroke-width:0.5;" x1="214.32" x2="393.6725" y1="666.5969" y2="666.5969"/><text fill="#000000" font-family="sans-serif" font-size="14" lengthAdjust="spacing" textLength="159.3525" x="224.32" y="658.2951">RESPUESTAS_ABIERTO</text></g><g id="RESPUESTAS_CONTEXTUALES_ABIERTO"><rect fill="#F1F1F1" height="50" rx="12.5" ry="12.5" style="stroke:#181818;stroke-width:0.5;" width="298.5166" x="814.74" y="640.3"/><line style="stroke:#181818;stroke-width:0.5;" x1="814.74" x2="1113.2566" y1="666.5969" y2="666.5969"/><text fill="#000000" font-family="sans-serif" font-size="14" lengthAdjust="spacing" textLength="278.5166" x="824.74" y="658.2951">RESPUESTAS_CONTEXTUALES_ABIERTO</text></g><!--link RESPUESTAS_ABIERTO to eliminarRespuesta--><g class="link" data-entity-1="RESPUESTAS_ABIERTO" data-entity-2="eliminarRespuesta" data-source-line="33" data-uid="lnk8" id="link_RESPUESTAS_ABIERTO_eliminarRespuesta"><path d="M394.18,647.21 C477.67,631.39 589,610.3 589,610.3 C589,610.3 592.1522,589.6909 597.9822,551.6009" fill="none" id="RESPUESTAS_ABIERTO-to-eliminarRespuesta" style="stroke:#008000;stroke-width:1;"/><polygon fill="#008000" points="598.89,545.67,593.5744,553.9612,598.1335,550.6124,601.4823,555.1716,598.89,545.67" style="stroke:#008000;stroke-width:1;"/></g><!--link eliminarRespuesta to RESPUESTAS_ABIERTO--><g class="link" data-entity-1="eliminarRespuesta" data-entity-2="RESPUESTAS_ABIERTO" data-source-line="36" data-uid="lnk11" id="link_eliminarRespuesta_RESPUESTAS_ABIERTO"><path d="M415.58,382.69 C233.2,468.46 6,575.3 6,575.3 C6,575.3 6,610.3 6,610.3 C6,610.3 120.5361,631.0602 208.2861,646.9602" fill="none" id="eliminarRespuesta-to-RESPUESTAS_ABIERTO" style="stroke:#008000;stroke-width:1;"/><polygon fill="#008000" points="214.19,648.03,206.0474,642.4895,209.2701,647.1385,204.621,650.3613,214.19,648.03" style="stroke:#008000;stroke-width:1;"/><path d="M11,580.3 L11,605.3 L256,605.3 L256,590.3 L246,580.3 L11,580.3" fill="#FEFFDD" style="stroke:#181818;stroke-width:0.5;"/><path d="M246,580.3 L246,590.3 L256,590.3 L246,580.3" fill="#FEFFDD" style="stroke:#181818;stroke-width:0.5;"/><text fill="#000000" font-family="sans-serif" font-size="13" lengthAdjust="spacing" textLength="224.8784" x="17" y="597.3669">verRespuestas() - lista actualizada</text></g><!--link eliminarRespuesta to RESPUESTAS_ABIERTO--><g class="link" data-entity-1="eliminarRespuesta" data-entity-2="RESPUESTAS_ABIERTO" data-source-line="46" data-uid="lnk13" id="link_eliminarRespuesta_RESPUESTAS_ABIERTO"><path d="M415.52,472.28 C350.65,528.66 297,575.3 297,575.3 C297,575.3 297,610.3 297,610.3 C297,610.3 298.2097,619.5897 300.0597,633.8797" fill="none" id="eliminarRespuesta-to-RESPUESTAS_ABIERTO-1" style="stroke:#0000FF;stroke-width:1;"/><polygon fill="#0000FF" points="300.83,639.83,303.6414,630.3909,300.1881,634.8714,295.7076,631.418,300.83,639.83" style="stroke:#0000FF;stroke-width:1;"/><path d="M302,580.3 L302,605.3 L576,605.3 L576,590.3 L566,580.3 L302,580.3" fill="#FEFFDD" style="stroke:#181818;stroke-width:0.5;"/><path d="M566,580.3 L566,590.3 L576,590.3 L566,580.3" fill="#FEFFDD" style="stroke:#181818;stroke-width:0.5;"/><text fill="#000000" font-family="sans-serif" font-size="13" lengthAdjust="spacing" textLength="253.2461" x="308" y="597.3669">verRespuestas() - cancelar eliminaci&#243;n</text></g><!--link RESPUESTAS_CONTEXTUALES_ABIERTO to eliminarRespuesta--><g class="link" data-entity-1="RESPUESTAS_CONTEXTUALES_ABIERTO" data-entity-2="eliminarRespuesta" data-source-line="34" data-uid="lnk10" id="link_RESPUESTAS_CONTEXTUALES_ABIERTO_eliminarRespuesta"><path d="M1093.16,639.83 C1168.57,625.54 1249,610.3 1249,610.3 C1249,610.3 1249,575.3 1249,575.3 C1249,575.3 1043.2089,474.5481 869.5589,389.5381" fill="none" id="RESPUESTAS_CONTEXTUALES_ABIERTO-to-eliminarRespuesta" style="stroke:#008000;stroke-width:1;"/><polygon fill="#008000" points="864.17,386.9,870.4946,394.4498,868.6608,389.0984,874.0121,387.2646,864.17,386.9" style="stroke:#008000;stroke-width:1;"/></g><!--link eliminarRespuesta to RESPUESTAS_CONTEXTUALES_ABIERTO--><g class="link" data-entity-1="eliminarRespuesta" data-entity-2="RESPUESTAS_CONTEXTUALES_ABIERTO" data-source-line="41" data-uid="lnk12" id="link_eliminarRespuesta_RESPUESTAS_CONTEXTUALES_ABIERTO"><path d="M660.96,545.67 C663.93,583.76 666,610.3 666,610.3 C666,610.3 744.1962,624.47 823.0462,638.76" fill="none" id="eliminarRespuesta-to-RESPUESTAS_CONTEXTUALES_ABIERTO" style="stroke:#008000;stroke-width:1;"/><polygon fill="#008000" points="828.95,639.83,820.8076,634.2892,824.0301,638.9384,819.381,642.161,828.95,639.83" style="stroke:#008000;stroke-width:1;"/><path d="M671,580.3 L671,605.3 L916,605.3 L916,590.3 L906,580.3 L671,580.3" fill="#FEFFDD" style="stroke:#181818;stroke-width:0.5;"/><path d="M906,580.3 L906,590.3 L916,590.3 L906,580.3" fill="#FEFFDD" style="stroke:#181818;stroke-width:0.5;"/><text fill="#000000" font-family="sans-serif" font-size="13" lengthAdjust="spacing" textLength="224.8784" x="677" y="597.3669">verRespuestas() - lista actualizada</text></g><!--link eliminarRespuesta to RESPUESTAS_CONTEXTUALES_ABIERTO--><g class="link" data-entity-1="eliminarRespuesta" data-entity-2="RESPUESTAS_CONTEXTUALES_ABIERTO" data-source-line="51" data-uid="lnk14" id="link_eliminarRespuesta_RESPUESTAS_CONTEXTUALES_ABIERTO"><path d="M864.21,511.71 C899.72,548.85 925,575.3 925,575.3 C925,575.3 939.393,608.134 950.933,634.484" fill="none" id="eliminarRespuesta-to-RESPUESTAS_CONTEXTUALES_ABIERTO-1" style="stroke:#0000FF;stroke-width:1;"/><polygon fill="#0000FF" points="953.34,639.98,953.3935,630.1313,951.3342,635.4,946.0655,633.3406,953.34,639.98" style="stroke:#0000FF;stroke-width:1;"/><path d="M945,580.3 L945,605.3 L1219,605.3 L1219,590.3 L1209,580.3 L945,580.3" fill="#FEFFDD" style="stroke:#181818;stroke-width:0.5;"/><path d="M1209,580.3 L1209,590.3 L1219,590.3 L1209,580.3" fill="#FEFFDD" style="stroke:#181818;stroke-width:0.5;"/><text fill="#000000" font-family="sans-serif" font-size="13" lengthAdjust="spacing" textLength="253.2461" x="951" y="597.3669">verRespuestas() - cancelar eliminaci&#243;n</text></g><!--SRC=[hLDHQi904FtVKmpsHmlY1KImDX-5KiL4A8YKTJEMnMGtRDQ2BOMUfLVe4NgJdgIJn2IcIQrAavzaTjwyzsPcuxLK4JSyX40gjDi88TB1DlbXBBRS8c0WGwcucM8SRP1Ym6DerQBjJWjU60DwCboBNieSQRMI9kJArqw64LAhUjxkaDAAabcr-UK2klEBHuEe5jt1eO9AKpsj4Y_hDD1V3gwrG6MntriE8DQ1598SvEh155n9EYe_hP4HDnDLj3I9_as8AsEB8K-5HCHBgZX8jT948UJdXm8V8U2b92XrfZM-tjuJJHQLzFLUn1WKblUa4hjFnehJIKx4_ISq11MI9poO6oBUCXbDA4butYO3OjS2SpI0Au51KtwrjmsDgpIMXdxQH7EbHITh0dwEu1IpVx4UyllAsDHn9pF7zORkm_3gnfbwuuhPsbtQ1up6Tvvpxys6jywnQ5Q_ilk0kXfMQJCjIW6CsnteKZXTHs4tF93FtEUidERHN4r6_fru6MpmF8_DctiwtJas3tD_0m00]--></g></svg>