<svg xmlns="http://www.w3.org/2000/svg" xmlns:xlink="http://www.w3.org/1999/xlink" contentStyleType="text/css" data-diagram-type="STATE" height="681px" preserveAspectRatio="none" style="width:440px;height:681px;background:#FFFFFF;" version="1.1" viewBox="0 0 440 681" width="440px" zoomAndPan="magnify"><defs/><g><path d="M19.5,7 L414.5,7 A12.5,12.5 0 0 1 427,19.5 L427,33.2969 L7,33.2969 L7,19.5 A12.5,12.5 0 0 1 19.5,7" fill="#F1F1F1"/><rect fill="none" height="523.2969" rx="12.5" ry="12.5" style="stroke:#181818;stroke-width:0.5;" width="420" x="7" y="7"/><line style="stroke:#181818;stroke-width:0.5;" x1="7" x2="427" y1="33.2969" y2="33.2969"/><text fill="#000000" font-family="sans-serif" font-size="14" lengthAdjust="spacing" textLength="121.4678" x="156.2661" y="24.9951">eliminarAlumno()</text><g id="eliminarAlumno.ConfirmandoEliminacion"><rect fill="#F1F1F1" height="50" rx="12.5" ry="12.5" style="stroke:#181818;stroke-width:0.5;" width="50" x="19" y="135.2969"/><line style="stroke:#181818;stroke-width:0.5;" x1="19" x2="69" y1="161.5938" y2="161.5938"/><text fill="#000000" font-family="sans-serif" font-size="14" lengthAdjust="spacing" textLength="4.4502" x="41.7749" y="153.292">&#160;</text></g><g id="eliminarAlumno.EliminandoAlumno"><rect fill="#F1F1F1" height="50" rx="12.5" ry="12.5" style="stroke:#181818;stroke-width:0.5;" width="50" x="19" y="362.2969"/><line style="stroke:#181818;stroke-width:0.5;" x1="19" x2="69" y1="388.5938" y2="388.5938"/><text fill="#000000" font-family="sans-serif" font-size="14" lengthAdjust="spacing" textLength="4.4502" x="41.7749" y="380.292">&#160;</text></g><ellipse cx="44" cy="54.2969" fill="#222222" rx="10" ry="10" style="stroke:#222222;stroke-width:1;"/><ellipse cx="44" cy="509.2969" fill="none" rx="11" ry="11" style="stroke:#222222;stroke-width:1;"/><ellipse cx="44" cy="509.2969" fill="#222222" rx="6" ry="6" style="stroke:#222222;stroke-width:1;"/><!--link *start*eliminarAlumno to ConfirmandoEliminacion--><g class="link" data-entity-1=".start.eliminarAlumno" data-entity-2="ConfirmandoEliminacion" data-source-line="8" data-uid="lnk3" id="link_.start.eliminarAlumno_ConfirmandoEliminacion"><path d="M44,64.5269 C44,80.2369 44,106.6569 44,129.1669" fill="none" id="*start*eliminarAlumno-to-ConfirmandoEliminacion" style="stroke:#008000;stroke-width:1;"/><polygon fill="#008000" points="44,135.1669,48,126.1669,44,130.1669,40,126.1669,44,135.1669" style="stroke:#008000;stroke-width:1;"/><path d="M49,87.2969 L49,112.2969 L290,112.2969 L290,97.2969 L280,87.2969 L49,87.2969" fill="#FEFFDD" style="stroke:#181818;stroke-width:0.5;"/><path d="M280,87.2969 L280,97.2969 L290,97.2969 L280,87.2969" fill="#FEFFDD" style="stroke:#181818;stroke-width:0.5;"/><text fill="#000000" font-family="sans-serif" font-size="13" font-weight="bold" lengthAdjust="spacing" textLength="60.5313" x="55" y="104.3638">Docente</text><text fill="#000000" font-family="sans-serif" font-size="13" lengthAdjust="spacing" textLength="155.7588" x="119.6636" y="104.3638">solicita eliminar alumno</text></g><!--link ConfirmandoEliminacion to EliminandoAlumno--><g class="link" data-entity-1="ConfirmandoEliminacion" data-entity-2="EliminandoAlumno" data-source-line="13" data-uid="lnk4" id="link_ConfirmandoEliminacion_EliminandoAlumno"><path d="M44,185.3769 C44,228.5669 44,312.7369 44,356.0469" fill="none" id="ConfirmandoEliminacion-to-EliminandoAlumno" style="stroke:#008000;stroke-width:1;"/><polygon fill="#008000" points="44,362.0469,48,353.0469,44,357.0469,40,353.0469,44,362.0469" style="stroke:#008000;stroke-width:1;"/><path d="M49,208.2969 L49,339.2969 L418,339.2969 L418,218.2969 L408,208.2969 L49,208.2969" fill="#FEFFDD" style="stroke:#181818;stroke-width:0.5;"/><path d="M408,208.2969 L408,218.2969 L418,218.2969 L408,208.2969" fill="#FEFFDD" style="stroke:#181818;stroke-width:0.5;"/><text fill="#000000" font-family="sans-serif" font-size="13" font-weight="bold" lengthAdjust="spacing" textLength="58.9063" x="55" y="225.3638">Sistema</text><text fill="#000000" font-family="sans-serif" font-size="13" lengthAdjust="spacing" textLength="285.1875" x="118.0386" y="225.3638">presenta informaci&#243;n del alumno a eliminar</text><text fill="#000000" font-family="sans-serif" font-size="13" lengthAdjust="spacing" textLength="63.7368" x="55" y="240.4966">&#8226; Nombre</text><text fill="#000000" font-family="sans-serif" font-size="13" lengthAdjust="spacing" textLength="70.7573" x="55" y="255.6294">&#8226; Apellidos</text><text fill="#000000" font-family="sans-serif" font-size="13" lengthAdjust="spacing" textLength="35.3691" x="55" y="270.7622">&#8226; DNI</text><text fill="#000000" font-family="sans-serif" font-size="13" lengthAdjust="spacing" textLength="4.1323" x="55" y="285.895">&#160;</text><text fill="#000000" font-family="sans-serif" font-size="13" lengthAdjust="spacing" textLength="249.6724" x="55" y="301.0278">&#8226; Presenta advertencia de eliminaci&#243;n</text><text fill="#000000" font-family="sans-serif" font-size="13" lengthAdjust="spacing" textLength="263.3706" x="55" y="316.1606">&#8226; Permite solicitar confirmar eliminaci&#243;n</text><text fill="#000000" font-family="sans-serif" font-size="13" lengthAdjust="spacing" textLength="255.9438" x="55" y="331.2935">&#8226; Permite solicitar cancelar eliminaci&#243;n</text></g><!--link EliminandoAlumno to *end*eliminarAlumno--><g class="link" data-entity-1="EliminandoAlumno" data-entity-2=".end.eliminarAlumno" data-source-line="25" data-uid="lnk6" id="link_EliminandoAlumno_.end.eliminarAlumno"><path d="M44,412.5769 C44,438.8769 44,473.5669 44,492.2769" fill="none" id="EliminandoAlumno-to-*end*eliminarAlumno" style="stroke:#008000;stroke-width:1;"/><polygon fill="#008000" points="44,498.2769,48,489.2769,44,493.2769,40,489.2769,44,498.2769" style="stroke:#008000;stroke-width:1;"/><path d="M49,435.2969 L49,475.2969 L368,475.2969 L368,445.2969 L358,435.2969 L49,435.2969" fill="#FEFFDD" style="stroke:#181818;stroke-width:0.5;"/><path d="M358,435.2969 L358,445.2969 L368,445.2969 L358,435.2969" fill="#FEFFDD" style="stroke:#181818;stroke-width:0.5;"/><text fill="#000000" font-family="sans-serif" font-size="13" font-weight="bold" lengthAdjust="spacing" textLength="60.5313" x="55" y="452.3638">Docente</text><text fill="#000000" font-family="sans-serif" font-size="13" lengthAdjust="spacing" textLength="233.5303" x="119.6636" y="452.3638">solicita confirmaci&#243;n de eliminaci&#243;n</text><text fill="#000000" font-family="sans-serif" font-size="13" font-weight="bold" lengthAdjust="spacing" textLength="58.9063" x="55" y="467.4966">Sistema</text><text fill="#000000" font-family="sans-serif" font-size="13" lengthAdjust="spacing" textLength="136.2905" x="118.0386" y="467.4966">confirma eliminaci&#243;n</text></g><g id="ALUMNOS_ABIERTO"><rect fill="#F1F1F1" height="50" rx="12.5" ry="12.5" style="stroke:#181818;stroke-width:0.5;" width="158.5371" x="137.5" y="625"/><line style="stroke:#181818;stroke-width:0.5;" x1="137.5" x2="296.0371" y1="651.2969" y2="651.2969"/><text fill="#000000" font-family="sans-serif" font-size="14" lengthAdjust="spacing" textLength="138.5371" x="147.5" y="642.9951">ALUMNOS_ABIERTO</text></g><!--link ALUMNOS_ABIERTO to eliminarAlumno--><g class="link" data-entity-1="ALUMNOS_ABIERTO" data-entity-2="eliminarAlumno" data-source-line="32" data-uid="lnk8" id="link_ALUMNOS_ABIERTO_eliminarAlumno"><path d="M291.26,624.84 C335.46,610.47 383,595 383,595 C383,595 383,560 383,560 C383,560 379.3871,553.6793 368.8371,535.2193" fill="none" id="ALUMNOS_ABIERTO-to-eliminarAlumno" style="stroke:#008000;stroke-width:1;"/><polygon fill="#008000" points="365.86,530.01,366.8528,539.8087,368.3409,534.3511,373.7986,535.8392,365.86,530.01" style="stroke:#008000;stroke-width:1;"/></g><!--link eliminarAlumno to ALUMNOS_ABIERTO--><g class="link" data-entity-1="eliminarAlumno" data-entity-2="ALUMNOS_ABIERTO" data-source-line="34" data-uid="lnk9" id="link_eliminarAlumno_ALUMNOS_ABIERTO"><path d="M56.48,530.01 C45.1,548.47 38,560 38,560 C38,560 38,595 38,595 C38,595 83.8956,608.8474 131.7056,623.2674" fill="none" id="eliminarAlumno-to-ALUMNOS_ABIERTO" style="stroke:#008000;stroke-width:1;"/><polygon fill="#008000" points="137.45,625,129.9884,618.5715,132.663,623.5562,127.6783,626.2307,137.45,625" style="stroke:#008000;stroke-width:1;"/><path d="M43,565 L43,590 L169,590 L169,575 L159,565 L43,565" fill="#FEFFDD" style="stroke:#181818;stroke-width:0.5;"/><path d="M159,565 L159,575 L169,575 L159,565" fill="#FEFFDD" style="stroke:#181818;stroke-width:0.5;"/><text fill="#000000" font-family="sans-serif" font-size="13" lengthAdjust="spacing" textLength="105.8408" x="49" y="582.0669">lista actualizada</text></g><!--link eliminarAlumno to ALUMNOS_ABIERTO--><g class="link" data-entity-1="eliminarAlumno" data-entity-2="ALUMNOS_ABIERTO" data-source-line="39" data-uid="lnk10" id="link_eliminarAlumno_ALUMNOS_ABIERTO"><path d="M210.72,530.01 C210.28,548.47 210,560 210,560 C210,560 210,595 210,595 C210,595 211.2257,604.5202 213.0957,618.8902" fill="none" id="eliminarAlumno-to-ALUMNOS_ABIERTO-1" style="stroke:#0000FF;stroke-width:1;"/><polygon fill="#0000FF" points="213.87,624.84,216.6752,615.3991,213.2248,619.8818,208.742,616.4314,213.87,624.84" style="stroke:#0000FF;stroke-width:1;"/><path d="M215,565 L215,590 L370,590 L370,575 L360,565 L215,565" fill="#FEFFDD" style="stroke:#181818;stroke-width:0.5;"/><path d="M360,565 L360,575 L370,575 L360,565" fill="#FEFFDD" style="stroke:#181818;stroke-width:0.5;"/><text fill="#000000" font-family="sans-serif" font-size="13" lengthAdjust="spacing" textLength="134.2085" x="221" y="582.0669">cancelar eliminaci&#243;n</text></g><!--SRC=[bPDHIiD048RVznH3VL6XU85IgDg7WhPYzQaKcMocCdGp6pPReOhWMRo2H_0cdiHjsYGc3LKJ2Epadt- -cKco9KkA3XCmBEJNAK5gpNfpK2hpw0d8SCA2Rc1MYLZ033hrqF591rwKWd1jCphX3h8BAmjs2KfiXzi4pLRsTRkNGRRronNvOtOwX-xiwD4HoRpRF-GeDXXQsRInp0Ezg7zfDOcdtbdKXymQrkonR0UmAaOIvmPLvVPADPXMx3QCAMUU4imnKaTPO49WMTZWh_dpGo0ciyE12Z1F_tfxXx5D8aTGdWSf6SEnpSh8vNXKeMy2DqKPZ9_8UHBD6AeKtddLIamkuO1TZCY1tdNl_fo0eicqwVT7svnRRQXXu_zRPu5Q37AVeB618k40wgjIWwlxw_5a-Z0u7mrlxoOrnlhNhrJZ1_afRTYeMbicK8KDQRz2myyOeoe9MZmZiw9VBTltKDX-0m00]--></g></svg>