<svg xmlns="http://www.w3.org/2000/svg" xmlns:xlink="http://www.w3.org/1999/xlink" contentStyleType="text/css" data-diagram-type="STATE" height="696px" preserveAspectRatio="none" style="width:559px;height:696px;background:#FFFFFF;" version="1.1" viewBox="0 0 559 696" width="559px" zoomAndPan="magnify"><defs/><g><path d="M88.5,7 L483.5,7 A12.5,12.5 0 0 1 496,19.5 L496,33.2969 L76,33.2969 L76,19.5 A12.5,12.5 0 0 1 88.5,7" fill="#F1F1F1"/><rect fill="none" height="538.2969" rx="12.5" ry="12.5" style="stroke:#181818;stroke-width:0.5;" width="420" x="76" y="7"/><line style="stroke:#181818;stroke-width:0.5;" x1="76" x2="496" y1="33.2969" y2="33.2969"/><text fill="#000000" font-family="sans-serif" font-size="14" lengthAdjust="spacing" textLength="121.4678" x="225.2661" y="24.9951">eliminarAlumno()</text><g id="eliminarAlumno.ConfirmandoEliminacion"><rect fill="#F1F1F1" height="50" rx="12.5" ry="12.5" style="stroke:#181818;stroke-width:0.5;" width="50" x="88" y="135.2969"/><line style="stroke:#181818;stroke-width:0.5;" x1="88" x2="138" y1="161.5938" y2="161.5938"/><text fill="#000000" font-family="sans-serif" font-size="14" lengthAdjust="spacing" textLength="4.4502" x="110.7749" y="153.292">&#160;</text></g><g id="eliminarAlumno.EliminandoAlumno"><rect fill="#F1F1F1" height="50" rx="12.5" ry="12.5" style="stroke:#181818;stroke-width:0.5;" width="50" x="88" y="362.2969"/><line style="stroke:#181818;stroke-width:0.5;" x1="88" x2="138" y1="388.5938" y2="388.5938"/><text fill="#000000" font-family="sans-serif" font-size="14" lengthAdjust="spacing" textLength="4.4502" x="110.7749" y="380.292">&#160;</text></g><ellipse cx="113" cy="54.2969" fill="#222222" rx="10" ry="10" style="stroke:#222222;stroke-width:1;"/><ellipse cx="113" cy="524.2969" fill="none" rx="11" ry="11" style="stroke:#222222;stroke-width:1;"/><ellipse cx="113" cy="524.2969" fill="#222222" rx="6" ry="6" style="stroke:#222222;stroke-width:1;"/><!--link *start*eliminarAlumno to ConfirmandoEliminacion--><g class="link" data-entity-1=".start.eliminarAlumno" data-entity-2="ConfirmandoEliminacion" data-source-line="8" data-uid="lnk3" id="link_.start.eliminarAlumno_ConfirmandoEliminacion"><path d="M113,64.5269 C113,80.2369 113,106.6569 113,129.1669" fill="none" id="*start*eliminarAlumno-to-ConfirmandoEliminacion" style="stroke:#008000;stroke-width:1;"/><polygon fill="#008000" points="113,135.1669,117,126.1669,113,130.1669,109,126.1669,113,135.1669" style="stroke:#008000;stroke-width:1;"/><path d="M118,87.2969 L118,112.2969 L359,112.2969 L359,97.2969 L349,87.2969 L118,87.2969" fill="#FEFFDD" style="stroke:#181818;stroke-width:0.5;"/><path d="M349,87.2969 L349,97.2969 L359,97.2969 L349,87.2969" fill="#FEFFDD" style="stroke:#181818;stroke-width:0.5;"/><text fill="#000000" font-family="sans-serif" font-size="13" font-weight="bold" lengthAdjust="spacing" textLength="60.5313" x="124" y="104.3638">Docente</text><text fill="#000000" font-family="sans-serif" font-size="13" lengthAdjust="spacing" textLength="155.7588" x="188.6636" y="104.3638">solicita eliminar alumno</text></g><!--link ConfirmandoEliminacion to EliminandoAlumno--><g class="link" data-entity-1="ConfirmandoEliminacion" data-entity-2="EliminandoAlumno" data-source-line="13" data-uid="lnk4" id="link_ConfirmandoEliminacion_EliminandoAlumno"><path d="M113,185.3769 C113,228.5669 113,312.7369 113,356.0469" fill="none" id="ConfirmandoEliminacion-to-EliminandoAlumno" style="stroke:#008000;stroke-width:1;"/><polygon fill="#008000" points="113,362.0469,117,353.0469,113,357.0469,109,353.0469,113,362.0469" style="stroke:#008000;stroke-width:1;"/><path d="M118,208.2969 L118,339.2969 L487,339.2969 L487,218.2969 L477,208.2969 L118,208.2969" fill="#FEFFDD" style="stroke:#181818;stroke-width:0.5;"/><path d="M477,208.2969 L477,218.2969 L487,218.2969 L477,208.2969" fill="#FEFFDD" style="stroke:#181818;stroke-width:0.5;"/><text fill="#000000" font-family="sans-serif" font-size="13" font-weight="bold" lengthAdjust="spacing" textLength="58.9063" x="124" y="225.3638">Sistema</text><text fill="#000000" font-family="sans-serif" font-size="13" lengthAdjust="spacing" textLength="285.1875" x="187.0386" y="225.3638">presenta informaci&#243;n del alumno a eliminar</text><text fill="#000000" font-family="sans-serif" font-size="13" lengthAdjust="spacing" textLength="63.7368" x="124" y="240.4966">&#8226; Nombre</text><text fill="#000000" font-family="sans-serif" font-size="13" lengthAdjust="spacing" textLength="70.7573" x="124" y="255.6294">&#8226; Apellidos</text><text fill="#000000" font-family="sans-serif" font-size="13" lengthAdjust="spacing" textLength="35.3691" x="124" y="270.7622">&#8226; DNI</text><text fill="#000000" font-family="sans-serif" font-size="13" lengthAdjust="spacing" textLength="4.1323" x="124" y="285.895">&#160;</text><text fill="#000000" font-family="sans-serif" font-size="13" lengthAdjust="spacing" textLength="249.6724" x="124" y="301.0278">&#8226; Presenta advertencia de eliminaci&#243;n</text><text fill="#000000" font-family="sans-serif" font-size="13" lengthAdjust="spacing" textLength="263.3706" x="124" y="316.1606">&#8226; Permite solicitar confirmar eliminaci&#243;n</text><text fill="#000000" font-family="sans-serif" font-size="13" lengthAdjust="spacing" textLength="255.9438" x="124" y="331.2935">&#8226; Permite solicitar cancelar eliminaci&#243;n</text></g><!--link EliminandoAlumno to *end*eliminarAlumno--><g class="link" data-entity-1="EliminandoAlumno" data-entity-2=".end.eliminarAlumno" data-source-line="25" data-uid="lnk6" id="link_EliminandoAlumno_.end.eliminarAlumno"><path d="M113,412.7469 C113,442.5269 113,485.5069 113,506.8369" fill="none" id="EliminandoAlumno-to-*end*eliminarAlumno" style="stroke:#008000;stroke-width:1;"/><polygon fill="#008000" points="113,512.8369,117,503.8369,113,507.8369,109,503.8369,113,512.8369" style="stroke:#008000;stroke-width:1;"/><path d="M118,435.2969 L118,490.2969 L454,490.2969 L454,445.2969 L444,435.2969 L118,435.2969" fill="#FEFFDD" style="stroke:#181818;stroke-width:0.5;"/><path d="M444,435.2969 L444,445.2969 L454,445.2969 L444,435.2969" fill="#FEFFDD" style="stroke:#181818;stroke-width:0.5;"/><text fill="#000000" font-family="sans-serif" font-size="13" font-weight="bold" lengthAdjust="spacing" textLength="60.5313" x="124" y="452.3638">Docente</text><text fill="#000000" font-family="sans-serif" font-size="13" lengthAdjust="spacing" textLength="233.5303" x="188.6636" y="452.3638">solicita confirmaci&#243;n de eliminaci&#243;n</text><text fill="#000000" font-family="sans-serif" font-size="13" font-weight="bold" lengthAdjust="spacing" textLength="58.9063" x="124" y="467.4966">Sistema</text><text fill="#000000" font-family="sans-serif" font-size="13" lengthAdjust="spacing" textLength="251.9829" x="187.0386" y="467.4966">permite solicitar confirmar eliminaci&#243;n</text><text fill="#000000" font-family="sans-serif" font-size="13" font-weight="bold" lengthAdjust="spacing" textLength="69.4624" x="124" y="482.6294">Doocente</text><text fill="#000000" font-family="sans-serif" font-size="13" lengthAdjust="spacing" textLength="191.5405" x="197.5947" y="482.6294">solicita confirmar eliminaci&#243;n</text></g><g id="ALUMNOS_ABIERTO"><rect fill="#F1F1F1" height="50" rx="12.5" ry="12.5" style="stroke:#181818;stroke-width:0.5;" width="158.5371" x="206.73" y="640.3"/><line style="stroke:#181818;stroke-width:0.5;" x1="206.73" x2="365.2671" y1="666.5969" y2="666.5969"/><text fill="#000000" font-family="sans-serif" font-size="14" lengthAdjust="spacing" textLength="138.5371" x="216.73" y="658.2951">ALUMNOS_ABIERTO</text></g><!--link ALUMNOS_ABIERTO to eliminarAlumno--><g class="link" data-entity-1="ALUMNOS_ABIERTO" data-entity-2="eliminarAlumno" data-source-line="33" data-uid="lnk8" id="link_ALUMNOS_ABIERTO_eliminarAlumno"><path d="M365.45,648.17 C443.83,632.26 552,610.3 552,610.3 C552,610.3 552,575.3 552,575.3 C552,575.3 532.8539,553.8476 500.2339,517.2776" fill="none" id="ALUMNOS_ABIERTO-to-eliminarAlumno" style="stroke:#008000;stroke-width:1;"/><polygon fill="#008000" points="496.24,512.8,499.2459,522.179,499.5683,516.5313,505.2159,516.8537,496.24,512.8" style="stroke:#008000;stroke-width:1;"/></g><!--link eliminarAlumno to ALUMNOS_ABIERTO--><g class="link" data-entity-1="eliminarAlumno" data-entity-2="ALUMNOS_ABIERTO" data-source-line="35" data-uid="lnk9" id="link_eliminarAlumno_ALUMNOS_ABIERTO"><path d="M75.57,501.22 C35.61,543.77 6,575.3 6,575.3 C6,575.3 6,610.3 6,610.3 C6,610.3 117.8385,631.8741 200.6185,647.8341" fill="none" id="eliminarAlumno-to-ALUMNOS_ABIERTO" style="stroke:#008000;stroke-width:1;"/><polygon fill="#008000" points="206.51,648.97,198.43,643.3385,201.6004,648.0234,196.9155,651.1938,206.51,648.97" style="stroke:#008000;stroke-width:1;"/><path d="M11,580.3 L11,605.3 L238,605.3 L238,590.3 L228,580.3 L11,580.3" fill="#FEFFDD" style="stroke:#181818;stroke-width:0.5;"/><path d="M228,580.3 L228,590.3 L238,590.3 L228,580.3" fill="#FEFFDD" style="stroke:#181818;stroke-width:0.5;"/><text fill="#000000" font-family="sans-serif" font-size="13" lengthAdjust="spacing" textLength="206.3496" x="17" y="597.3669">verAlumnos() - lista actualizada</text></g><!--link eliminarAlumno to ALUMNOS_ABIERTO--><g class="link" data-entity-1="eliminarAlumno" data-entity-2="ALUMNOS_ABIERTO" data-source-line="40" data-uid="lnk10" id="link_eliminarAlumno_ALUMNOS_ABIERTO"><path d="M279.7,545.62 C279.27,563.93 279,575.3 279,575.3 C279,575.3 279,610.3 279,610.3 C279,610.3 280.2097,619.5897 282.0597,633.8797" fill="none" id="eliminarAlumno-to-ALUMNOS_ABIERTO-1" style="stroke:#0000FF;stroke-width:1;"/><polygon fill="#0000FF" points="282.83,639.83,285.6414,630.3909,282.1881,634.8714,277.7076,631.418,282.83,639.83" style="stroke:#0000FF;stroke-width:1;"/><path d="M284,580.3 L284,605.3 L539,605.3 L539,590.3 L529,580.3 L284,580.3" fill="#FEFFDD" style="stroke:#181818;stroke-width:0.5;"/><path d="M529,580.3 L529,590.3 L539,590.3 L529,580.3" fill="#FEFFDD" style="stroke:#181818;stroke-width:0.5;"/><text fill="#000000" font-family="sans-serif" font-size="13" lengthAdjust="spacing" textLength="234.7173" x="290" y="597.3669">verAlumnos() - cancelar eliminaci&#243;n</text></g><!--SRC=[bLDHIiD04FtVKmprfnMA5oY5gFqeQ2jMlqgHoMOgIpUxONShL14yYrVm2Dx4axZPD8b9Gx4917RovhqtyrYx4If3Wob8eSZjCe9Corr-OCmwT0GaHIeKcaXkKwK1BVIQfVwW1s-CWN-AZfv_FUnAgxKmAQf4Jue6BhGwnEr_UbZ15n3XipnVmN1vzco8r6euFiQej2VKAXzZ4mgZU7ojEIb7euju35PBmON3QXp0MenK4WXgvMwbXfbEsrqs5i8wIZ7Oo0nPxmb1gBNs_5nyVob8IExjG6qmjFzyVC9Cfx4XgCvHHbAAHDkgSZsRrjRpmbqfWyaB6KUA2_Gg9NTGhS5aKk5jboiomFVJctyteE8ak_27gstlhR5Kd_XfSPPMoqKUEcWdSCgqGVMOxB69tncBRXvlP_F5KtGvdTm_p1kZDYyHOwrxzXVQec6DxVY0YnRR7y3GrsoUEtTRbE8L4sILeGw9M6xfL8Nki4kLNm00]--></g></svg>