<svg xmlns="http://www.w3.org/2000/svg" xmlns:xlink="http://www.w3.org/1999/xlink" contentStyleType="text/css" data-diagram-type="SALT" height="177px" preserveAspectRatio="none" style="width:309px;height:177px;background:#FFFFFF;" version="1.1" viewBox="0 0 309 177" width="309px" zoomAndPan="magnify"><defs/><g><text fill="#000000" font-family="sans-serif" font-size="12" font-weight="bold" lengthAdjust="spacing" textLength="295.3887" x="6" y="17.1387">Asignatura: Matem&#225;ticas I - Examen Parcial</text><line style="stroke:#AAAAAA;stroke-width:1;" x1="6" x2="302.3887" y1="25.4688" y2="25.4688"/><text fill="#000000" font-family="sans-serif" font-size="12" font-weight="bold" lengthAdjust="spacing" textLength="51.2344" x="7" y="42.1074">Alumno</text><text fill="#000000" font-family="sans-serif" font-size="12" font-weight="bold" lengthAdjust="spacing" textLength="44.4141" x="137.3965" y="42.1074">Acci&#243;n</text><text fill="#000000" font-family="sans-serif" font-size="12" lengthAdjust="spacing" textLength="108.8086" x="7" y="58.0762">Garc&#237;a L&#243;pez, Ana</text><rect fill="#EEEEEE" height="17.9688" rx="5" ry="5" style="stroke:#000000;stroke-width:2.5;" width="100" x="139.8965" y="49.4375"/><text fill="#000000" font-family="sans-serif" font-size="12" lengthAdjust="spacing" textLength="73.0547" x="153.3691" y="62.5762">Ver Examen</text><text fill="#000000" font-family="sans-serif" font-size="12" lengthAdjust="spacing" textLength="112.8633" x="7" y="83.0449">Mart&#237;nez Ruiz, Luis</text><rect fill="#EEEEEE" height="17.9688" rx="5" ry="5" style="stroke:#000000;stroke-width:2.5;" width="100" x="139.8965" y="74.4063"/><text fill="#000000" font-family="sans-serif" font-size="12" lengthAdjust="spacing" textLength="73.0547" x="153.3691" y="87.5449">Ver Examen</text><text fill="#000000" font-family="sans-serif" font-size="12" lengthAdjust="spacing" textLength="128.3965" x="7" y="108.0137">S&#225;nchez P&#233;rez, Elena</text><rect fill="#EEEEEE" height="17.9688" rx="5" ry="5" style="stroke:#000000;stroke-width:2.5;" width="100" x="139.8965" y="99.375"/><text fill="#000000" font-family="sans-serif" font-size="12" lengthAdjust="spacing" textLength="73.0547" x="153.3691" y="112.5137">Ver Examen</text><text fill="#000000" font-family="sans-serif" font-size="12" lengthAdjust="spacing" textLength="98.6133" x="7" y="132.9824">Torres Vila, Jordi</text><rect fill="#EEEEEE" height="17.9688" rx="5" ry="5" style="stroke:#000000;stroke-width:2.5;" width="100" x="139.8965" y="124.3438"/><text fill="#000000" font-family="sans-serif" font-size="12" lengthAdjust="spacing" textLength="73.0547" x="153.3691" y="137.4824">Ver Examen</text><text fill="#000000" font-family="sans-serif" font-size="12" lengthAdjust="spacing" textLength="119.0625" x="7" y="157.9512">L&#243;pez Castro, Mar&#237;a</text><rect fill="#EEEEEE" height="17.9688" rx="5" ry="5" style="stroke:#000000;stroke-width:2.5;" width="100" x="139.8965" y="149.3125"/><text fill="#000000" font-family="sans-serif" font-size="12" lengthAdjust="spacing" textLength="73.0547" x="153.3691" y="162.4512">Ver Examen</text><line style="stroke:#000000;stroke-width:1;" x1="6" x2="136.3965" y1="29.9688" y2="29.9688"/><line style="stroke:#000000;stroke-width:1;" x1="136.3965" x2="243.3965" y1="29.9688" y2="29.9688"/><line style="stroke:#000000;stroke-width:1;" x1="6" x2="136.3965" y1="145.8125" y2="145.8125"/><line style="stroke:#000000;stroke-width:1;" x1="136.3965" x2="243.3965" y1="145.8125" y2="145.8125"/><line style="stroke:#000000;stroke-width:1;" x1="6" x2="136.3965" y1="95.875" y2="95.875"/><line style="stroke:#000000;stroke-width:1;" x1="136.3965" x2="243.3965" y1="95.875" y2="95.875"/><line style="stroke:#000000;stroke-width:1;" x1="6" x2="136.3965" y1="45.9375" y2="45.9375"/><line style="stroke:#000000;stroke-width:1;" x1="136.3965" x2="243.3965" y1="45.9375" y2="45.9375"/><line style="stroke:#000000;stroke-width:1;" x1="6" x2="136.3965" y1="170.7813" y2="170.7813"/><line style="stroke:#000000;stroke-width:1;" x1="136.3965" x2="243.3965" y1="170.7813" y2="170.7813"/><line style="stroke:#000000;stroke-width:1;" x1="6" x2="136.3965" y1="120.8438" y2="120.8438"/><line style="stroke:#000000;stroke-width:1;" x1="136.3965" x2="243.3965" y1="120.8438" y2="120.8438"/><line style="stroke:#000000;stroke-width:1;" x1="6" x2="136.3965" y1="70.9063" y2="70.9063"/><line style="stroke:#000000;stroke-width:1;" x1="136.3965" x2="243.3965" y1="70.9063" y2="70.9063"/><line style="stroke:#000000;stroke-width:1;" x1="6" x2="6" y1="29.9688" y2="45.9375"/><line style="stroke:#000000;stroke-width:1;" x1="243.3965" x2="243.3965" y1="70.9063" y2="95.875"/><line style="stroke:#000000;stroke-width:1;" x1="136.3965" x2="136.3965" y1="29.9688" y2="45.9375"/><line style="stroke:#000000;stroke-width:1;" x1="243.3965" x2="243.3965" y1="29.9688" y2="45.9375"/><line style="stroke:#000000;stroke-width:1;" x1="6" x2="6" y1="145.8125" y2="170.7813"/><line style="stroke:#000000;stroke-width:1;" x1="136.3965" x2="136.3965" y1="145.8125" y2="170.7813"/><line style="stroke:#000000;stroke-width:1;" x1="6" x2="6" y1="95.875" y2="120.8438"/><line style="stroke:#000000;stroke-width:1;" x1="243.3965" x2="243.3965" y1="145.8125" y2="170.7813"/><line style="stroke:#000000;stroke-width:1;" x1="136.3965" x2="136.3965" y1="95.875" y2="120.8438"/><line style="stroke:#000000;stroke-width:1;" x1="6" x2="6" y1="45.9375" y2="70.9063"/><line style="stroke:#000000;stroke-width:1;" x1="243.3965" x2="243.3965" y1="95.875" y2="120.8438"/><line style="stroke:#000000;stroke-width:1;" x1="136.3965" x2="136.3965" y1="45.9375" y2="70.9063"/><line style="stroke:#000000;stroke-width:1;" x1="243.3965" x2="243.3965" y1="45.9375" y2="70.9063"/><line style="stroke:#000000;stroke-width:1;" x1="6" x2="6" y1="120.8438" y2="145.8125"/><line style="stroke:#000000;stroke-width:1;" x1="136.3965" x2="136.3965" y1="120.8438" y2="145.8125"/><line style="stroke:#000000;stroke-width:1;" x1="6" x2="6" y1="70.9063" y2="95.875"/><line style="stroke:#000000;stroke-width:1;" x1="243.3965" x2="243.3965" y1="120.8438" y2="145.8125"/><line style="stroke:#000000;stroke-width:1;" x1="136.3965" x2="136.3965" y1="70.9063" y2="95.875"/><!--SRC=[TP3DJW8n54RtVOgRk849GmQ2HcS50X9nHedWR8oBwr2nIRab_I4AyZ0iNR3Y4UR5x6286zpSfEtvJh_Sjh6ehK5fsPe11477Y1cXTHfZID7oUR6r8aS3jn12_mFdd624EXSeWy0dmj2FzPaVXxHqSr9105_b8Sz5iQS31Z3meMA7a1Jx1L_Le4FegMV8k3vwNmvWwWiLE-8hU7J2WuaJvZGvBhQKltjmL7phqjcN_3_hH6dD3MH2OWs6Ia_5QUwt7dJHMArgPPcoz0bqmpQipMbws1qRIIJxb2QmvDe8HT2eDwFcURqHLIQEmxrQGjI2HXGtexXr1Ubu0kLxbLK6emICSZhdC1N-K_7gh1TKsH2Nw5T0Linv30yBJiFUtV42-hGKMf5lOzamI_-0YrPuBIoCkVPL84jPZx-XazOdSZKLD8lXQN8JNh84QUPmvjsSM5Tvh_wCWPoKFm00]--></g></svg>