<svg xmlns="http://www.w3.org/2000/svg" xmlns:xlink="http://www.w3.org/1999/xlink" contentStyleType="text/css" data-diagram-type="SALT" height="383px" preserveAspectRatio="none" style="width:482px;height:383px;background:#FFFFFF;" version="1.1" viewBox="0 0 482 383" width="482px" zoomAndPan="magnify"><defs/><g><text fill="#000000" font-family="sans-serif" font-size="12" font-weight="bold" lengthAdjust="spacing" textLength="217.3945" x="6" y="17.1387">GESTI&#211;N DE T&#205;TULOS Y GRADOS</text><line style="stroke:#AAAAAA;stroke-width:1;" x1="6" x2="475.709" y1="24.4688" y2="24.4688"/><line style="stroke:#AAAAAA;stroke-width:1;" x1="6" x2="475.709" y1="26.4688" y2="26.4688"/><text fill="#000000" font-family="sans-serif" font-size="12" font-weight="bold" lengthAdjust="spacing" textLength="143.5195" x="6" y="41.1074">1. B&#250;squeda y Filtros</text><text fill="#000000" font-family="sans-serif" font-size="12" font-style="italic" lengthAdjust="spacing" textLength="269.9297" x="6" y="57.0762">Busque por c&#243;digo oficial o nombre del t&#237;tulo</text><text fill="#000000" font-family="sans-serif" font-size="12" lengthAdjust="spacing" textLength="63.709" x="7" y="90.0137">B&#250;squeda:</text><text fill="#000000" font-family="sans-serif" font-size="12" lengthAdjust="spacing" textLength="3.8145" x="75.709" y="90.0137">&#160;</text><line style="stroke:#000000;stroke-width:1;" x1="73.709" x2="356.709" y1="92.8438" y2="92.8438"/><line style="stroke:#000000;stroke-width:1;" x1="73.709" x2="73.709" y1="89.8438" y2="91.8438"/><line style="stroke:#000000;stroke-width:1;" x1="356.709" x2="356.709" y1="89.8438" y2="91.8438"/><rect fill="#EEEEEE" height="17.9688" rx="5" ry="5" style="stroke:#000000;stroke-width:2.5;" width="108" x="363.209" y="81.375"/><text fill="#000000" font-family="sans-serif" font-size="12" lengthAdjust="spacing" textLength="67.6406" x="383.3887" y="94.5137">Filtrar Lista</text><line style="stroke:#AAAAAA;stroke-width:1;" x1="6" x2="475.709" y1="124.3125" y2="124.3125"/><text fill="#000000" font-family="sans-serif" font-size="12" font-weight="bold" lengthAdjust="spacing" textLength="193.2188" x="6" y="155.9199">2. Listado de Grados Activos</text><text fill="#000000" font-family="sans-serif" font-size="12" font-weight="bold" lengthAdjust="spacing" textLength="46.5879" x="7" y="188.8574">C&#243;digo</text><text fill="#000000" font-family="sans-serif" font-size="12" font-weight="bold" lengthAdjust="spacing" textLength="108.832" x="55.5879" y="188.8574">T&#237;tulo del Grado</text><text fill="#000000" font-family="sans-serif" font-size="12" font-weight="bold" lengthAdjust="spacing" textLength="132.4746" x="233.832" y="188.8574">Alumnos Enlistados</text><text fill="#000000" font-family="sans-serif" font-size="12" font-weight="bold" lengthAdjust="spacing" textLength="59.6953" x="368.3066" y="188.8574">Acciones</text><text fill="#000000" font-family="sans-serif" font-size="12" lengthAdjust="spacing" textLength="35.9766" x="7" y="204.8262">GII-24</text><text fill="#000000" font-family="sans-serif" font-size="12" lengthAdjust="spacing" textLength="154.2305" x="55.5879" y="204.8262">Grado en Ing. Inform&#225;tica</text><text fill="#000000" font-family="sans-serif" font-size="12" lengthAdjust="spacing" textLength="77.0742" x="233.832" y="204.8262">450 inscritos</text><rect fill="#EEEEEE" height="17.9688" rx="5" ry="5" style="stroke:#000000;stroke-width:2.5;" width="100" x="370.8066" y="196.1875"/><text fill="#000000" font-family="sans-serif" font-size="12" lengthAdjust="spacing" textLength="67.7227" x="386.9453" y="209.3262">Editar / Ver</text><text fill="#000000" font-family="sans-serif" font-size="12" lengthAdjust="spacing" textLength="42.791" x="7" y="229.7949">GIM-10</text><text fill="#000000" font-family="sans-serif" font-size="12" lengthAdjust="spacing" textLength="142.1309" x="55.5879" y="229.7949">Grado en Ing. Mec&#225;nica</text><text fill="#000000" font-family="sans-serif" font-size="12" lengthAdjust="spacing" textLength="77.0742" x="233.832" y="229.7949">320 inscritos</text><rect fill="#EEEEEE" height="17.9688" rx="5" ry="5" style="stroke:#000000;stroke-width:2.5;" width="100" x="370.8066" y="221.1563"/><text fill="#000000" font-family="sans-serif" font-size="12" lengthAdjust="spacing" textLength="67.7227" x="386.9453" y="234.2949">Editar / Ver</text><text fill="#000000" font-family="sans-serif" font-size="12" lengthAdjust="spacing" textLength="44.6309" x="7" y="254.7637">ADE-19</text><text fill="#000000" font-family="sans-serif" font-size="12" lengthAdjust="spacing" textLength="176.2441" x="55.5879" y="254.7637">Admin. y Direcci&#243;n Empresas</text><text fill="#000000" font-family="sans-serif" font-size="12" lengthAdjust="spacing" textLength="77.0742" x="233.832" y="254.7637">600 inscritos</text><rect fill="#EEEEEE" height="17.9688" rx="5" ry="5" style="stroke:#000000;stroke-width:2.5;" width="100" x="370.8066" y="246.125"/><text fill="#000000" font-family="sans-serif" font-size="12" lengthAdjust="spacing" textLength="67.7227" x="386.9453" y="259.2637">Editar / Ver</text><text fill="#000000" font-family="sans-serif" font-size="12" lengthAdjust="spacing" textLength="44.5254" x="7" y="279.7324">ARC-21</text><text fill="#000000" font-family="sans-serif" font-size="12" lengthAdjust="spacing" textLength="134.1445" x="55.5879" y="279.7324">Grado en Arquitectura</text><text fill="#000000" font-family="sans-serif" font-size="12" lengthAdjust="spacing" textLength="77.0742" x="233.832" y="279.7324">150 inscritos</text><rect fill="#EEEEEE" height="17.9688" rx="5" ry="5" style="stroke:#000000;stroke-width:2.5;" width="100" x="370.8066" y="271.0938"/><text fill="#000000" font-family="sans-serif" font-size="12" lengthAdjust="spacing" textLength="67.7227" x="386.9453" y="284.2324">Editar / Ver</text><line style="stroke:#000000;stroke-width:1;" x1="6" x2="54.5879" y1="176.7188" y2="176.7188"/><line style="stroke:#000000;stroke-width:1;" x1="54.5879" x2="232.832" y1="176.7188" y2="176.7188"/><line style="stroke:#000000;stroke-width:1;" x1="232.832" x2="367.3066" y1="176.7188" y2="176.7188"/><line style="stroke:#000000;stroke-width:1;" x1="367.3066" x2="474.3066" y1="176.7188" y2="176.7188"/><line style="stroke:#000000;stroke-width:1;" x1="6" x2="54.5879" y1="242.625" y2="242.625"/><line style="stroke:#000000;stroke-width:1;" x1="54.5879" x2="232.832" y1="242.625" y2="242.625"/><line style="stroke:#000000;stroke-width:1;" x1="232.832" x2="367.3066" y1="242.625" y2="242.625"/><line style="stroke:#000000;stroke-width:1;" x1="367.3066" x2="474.3066" y1="242.625" y2="242.625"/><line style="stroke:#000000;stroke-width:1;" x1="6" x2="54.5879" y1="308.5313" y2="308.5313"/><line style="stroke:#000000;stroke-width:1;" x1="54.5879" x2="232.832" y1="308.5313" y2="308.5313"/><line style="stroke:#000000;stroke-width:1;" x1="232.832" x2="367.3066" y1="308.5313" y2="308.5313"/><line style="stroke:#000000;stroke-width:1;" x1="367.3066" x2="474.3066" y1="308.5313" y2="308.5313"/><line style="stroke:#000000;stroke-width:1;" x1="6" x2="54.5879" y1="217.6563" y2="217.6563"/><line style="stroke:#000000;stroke-width:1;" x1="54.5879" x2="232.832" y1="217.6563" y2="217.6563"/><line style="stroke:#000000;stroke-width:1;" x1="232.832" x2="367.3066" y1="217.6563" y2="217.6563"/><line style="stroke:#000000;stroke-width:1;" x1="367.3066" x2="474.3066" y1="217.6563" y2="217.6563"/><line style="stroke:#000000;stroke-width:1;" x1="6" x2="54.5879" y1="292.5625" y2="292.5625"/><line style="stroke:#000000;stroke-width:1;" x1="54.5879" x2="232.832" y1="292.5625" y2="292.5625"/><line style="stroke:#000000;stroke-width:1;" x1="232.832" x2="367.3066" y1="292.5625" y2="292.5625"/><line style="stroke:#000000;stroke-width:1;" x1="367.3066" x2="474.3066" y1="292.5625" y2="292.5625"/><line style="stroke:#000000;stroke-width:1;" x1="6" x2="54.5879" y1="192.6875" y2="192.6875"/><line style="stroke:#000000;stroke-width:1;" x1="54.5879" x2="232.832" y1="192.6875" y2="192.6875"/><line style="stroke:#000000;stroke-width:1;" x1="232.832" x2="367.3066" y1="192.6875" y2="192.6875"/><line style="stroke:#000000;stroke-width:1;" x1="367.3066" x2="474.3066" y1="192.6875" y2="192.6875"/><line style="stroke:#000000;stroke-width:1;" x1="6" x2="54.5879" y1="267.5938" y2="267.5938"/><line style="stroke:#000000;stroke-width:1;" x1="54.5879" x2="232.832" y1="267.5938" y2="267.5938"/><line style="stroke:#000000;stroke-width:1;" x1="232.832" x2="367.3066" y1="267.5938" y2="267.5938"/><line style="stroke:#000000;stroke-width:1;" x1="367.3066" x2="474.3066" y1="267.5938" y2="267.5938"/><line style="stroke:#000000;stroke-width:1;" x1="6" x2="6" y1="176.7188" y2="192.6875"/><line style="stroke:#000000;stroke-width:1;" x1="474.3066" x2="474.3066" y1="267.5938" y2="292.5625"/><line style="stroke:#000000;stroke-width:1;" x1="54.5879" x2="54.5879" y1="176.7188" y2="192.6875"/><line style="stroke:#000000;stroke-width:1;" x1="232.832" x2="232.832" y1="176.7188" y2="192.6875"/><line style="stroke:#000000;stroke-width:1;" x1="367.3066" x2="367.3066" y1="176.7188" y2="192.6875"/><line style="stroke:#000000;stroke-width:1;" x1="474.3066" x2="474.3066" y1="176.7188" y2="192.6875"/><line style="stroke:#000000;stroke-width:1;" x1="6" x2="6" y1="242.625" y2="267.5938"/><line style="stroke:#000000;stroke-width:1;" x1="54.5879" x2="54.5879" y1="242.625" y2="267.5938"/><line style="stroke:#000000;stroke-width:1;" x1="232.832" x2="232.832" y1="242.625" y2="267.5938"/><line style="stroke:#000000;stroke-width:1;" x1="367.3066" x2="367.3066" y1="242.625" y2="267.5938"/><line style="stroke:#000000;stroke-width:1;" x1="474.3066" x2="474.3066" y1="242.625" y2="267.5938"/><line style="stroke:#000000;stroke-width:1;" x1="6" x2="6" y1="217.6563" y2="242.625"/><line style="stroke:#000000;stroke-width:1;" x1="54.5879" x2="54.5879" y1="217.6563" y2="242.625"/><line style="stroke:#000000;stroke-width:1;" x1="232.832" x2="232.832" y1="217.6563" y2="242.625"/><line style="stroke:#000000;stroke-width:1;" x1="367.3066" x2="367.3066" y1="217.6563" y2="242.625"/><line style="stroke:#000000;stroke-width:1;" x1="474.3066" x2="474.3066" y1="217.6563" y2="242.625"/><line style="stroke:#000000;stroke-width:1;" x1="6" x2="6" y1="292.5625" y2="308.5313"/><line style="stroke:#000000;stroke-width:1;" x1="54.5879" x2="54.5879" y1="292.5625" y2="308.5313"/><line style="stroke:#000000;stroke-width:1;" x1="232.832" x2="232.832" y1="292.5625" y2="308.5313"/><line style="stroke:#000000;stroke-width:1;" x1="367.3066" x2="367.3066" y1="292.5625" y2="308.5313"/><line style="stroke:#000000;stroke-width:1;" x1="6" x2="6" y1="192.6875" y2="217.6563"/><line style="stroke:#000000;stroke-width:1;" x1="474.3066" x2="474.3066" y1="292.5625" y2="308.5313"/><line style="stroke:#000000;stroke-width:1;" x1="54.5879" x2="54.5879" y1="192.6875" y2="217.6563"/><line style="stroke:#000000;stroke-width:1;" x1="232.832" x2="232.832" y1="192.6875" y2="217.6563"/><line style="stroke:#000000;stroke-width:1;" x1="367.3066" x2="367.3066" y1="192.6875" y2="217.6563"/><line style="stroke:#000000;stroke-width:1;" x1="474.3066" x2="474.3066" y1="192.6875" y2="217.6563"/><line style="stroke:#000000;stroke-width:1;" x1="6" x2="6" y1="267.5938" y2="292.5625"/><line style="stroke:#000000;stroke-width:1;" x1="54.5879" x2="54.5879" y1="267.5938" y2="292.5625"/><line style="stroke:#000000;stroke-width:1;" x1="232.832" x2="232.832" y1="267.5938" y2="292.5625"/><line style="stroke:#000000;stroke-width:1;" x1="367.3066" x2="367.3066" y1="267.5938" y2="292.5625"/><line style="stroke:#AAAAAA;stroke-width:1.5;" x1="6" x2="475.709" y1="330" y2="330"/><rect fill="#EEEEEE" height="17.9688" rx="5" ry="5" style="stroke:#000000;stroke-width:2.5;" width="124" x="9.5" y="353.9688"/><text fill="#000000" font-family="sans-serif" font-size="12" lengthAdjust="spacing" textLength="92.6367" x="25.1816" y="367.1074">+ Nuevo Grado</text><rect fill="#EEEEEE" height="17.9688" rx="5" ry="5" style="stroke:#000000;stroke-width:2.5;" width="148" x="140.5" y="353.9688"/><text fill="#000000" font-family="sans-serif" font-size="12" lengthAdjust="spacing" textLength="88.3711" x="170.3145" y="367.1074">Volver al Inicio</text><line style="stroke:#000000;stroke-width:1;" x1="5" x2="475.709" y1="5" y2="5"/><line style="stroke:#000000;stroke-width:1;" x1="5" x2="475.709" y1="376.4375" y2="376.4375"/><line style="stroke:#000000;stroke-width:1;" x1="5" x2="5" y1="5" y2="20.9688"/><line style="stroke:#000000;stroke-width:1;" x1="475.709" x2="475.709" y1="5" y2="20.9688"/><line style="stroke:#000000;stroke-width:1;" x1="5" x2="5" y1="349.4688" y2="376.4375"/><line style="stroke:#000000;stroke-width:1;" x1="475.709" x2="475.709" y1="349.4688" y2="376.4375"/><line style="stroke:#000000;stroke-width:1;" x1="5" x2="5" y1="175.7188" y2="309.5313"/><line style="stroke:#000000;stroke-width:1;" x1="475.709" x2="475.709" y1="175.7188" y2="309.5313"/><line style="stroke:#000000;stroke-width:1;" x1="5" x2="5" y1="119.8125" y2="127.8125"/><line style="stroke:#000000;stroke-width:1;" x1="475.709" x2="475.709" y1="119.8125" y2="127.8125"/><line style="stroke:#000000;stroke-width:1;" x1="5" x2="5" y1="44.9375" y2="60.9063"/><line style="stroke:#000000;stroke-width:1;" x1="475.709" x2="475.709" y1="44.9375" y2="60.9063"/><line style="stroke:#000000;stroke-width:1;" x1="5" x2="5" y1="333.5" y2="349.4688"/><line style="stroke:#000000;stroke-width:1;" x1="475.709" x2="475.709" y1="333.5" y2="349.4688"/><line style="stroke:#000000;stroke-width:1;" x1="5" x2="5" y1="159.75" y2="175.7188"/><line style="stroke:#000000;stroke-width:1;" x1="475.709" x2="475.709" y1="159.75" y2="175.7188"/><line style="stroke:#000000;stroke-width:1;" x1="5" x2="5" y1="103.8438" y2="119.8125"/><line style="stroke:#000000;stroke-width:1;" x1="475.709" x2="475.709" y1="103.8438" y2="119.8125"/><line style="stroke:#000000;stroke-width:1;" x1="5" x2="5" y1="28.9688" y2="44.9375"/><line style="stroke:#000000;stroke-width:1;" x1="475.709" x2="475.709" y1="28.9688" y2="44.9375"/><line style="stroke:#000000;stroke-width:1;" x1="5" x2="5" y1="325.5" y2="333.5"/><line style="stroke:#000000;stroke-width:1;" x1="475.709" x2="475.709" y1="325.5" y2="333.5"/><line style="stroke:#000000;stroke-width:1;" x1="5" x2="5" y1="143.7813" y2="159.75"/><line style="stroke:#000000;stroke-width:1;" x1="475.709" x2="475.709" y1="143.7813" y2="159.75"/><line style="stroke:#000000;stroke-width:1;" x1="5" x2="5" y1="76.875" y2="103.8438"/><line style="stroke:#000000;stroke-width:1;" x1="475.709" x2="475.709" y1="76.875" y2="103.8438"/><line style="stroke:#000000;stroke-width:1;" x1="5" x2="5" y1="20.9688" y2="28.9688"/><line style="stroke:#000000;stroke-width:1;" x1="475.709" x2="475.709" y1="20.9688" y2="28.9688"/><line style="stroke:#000000;stroke-width:1;" x1="5" x2="5" y1="309.5313" y2="325.5"/><line style="stroke:#000000;stroke-width:1;" x1="475.709" x2="475.709" y1="309.5313" y2="325.5"/><line style="stroke:#000000;stroke-width:1;" x1="5" x2="5" y1="127.8125" y2="143.7813"/><line style="stroke:#000000;stroke-width:1;" x1="475.709" x2="475.709" y1="127.8125" y2="143.7813"/><line style="stroke:#000000;stroke-width:1;" x1="5" x2="5" y1="60.9063" y2="76.875"/><line style="stroke:#000000;stroke-width:1;" x1="475.709" x2="475.709" y1="60.9063" y2="76.875"/><!--SRC=[ZLF1Jjj04BtxAqRq0a9sR3UW4YKH3d4YqnXGOb9LAAeszXAjPE-6zMuaHE4FUkeNy04zSUlLFzQn3Oab3cKah-HzCs_cxSoSvef8bPDKmORAiII9o7zy2wR-QEg5ll5mQ01QTzaV-xCeA7vVmD27gFWLNKykP_0TnbDlU3dhjfRzoh7Nwxq5E1OCYh_vdQO9WNiOiLH9aMyzkwm_q2KAQo4XBbuIjX8WRbdCI0e2kCYMaa92Kr357wLJqMsnEjIgpeVgB6sRfWC_OG_-RtleTrCLH2HC63x1eY9xRD2RPkC7vRXMxPa8h0dgXm8lLcpJ4FLQsQTjQHXuLaihVJ0jNaIrd4fQnRE3l5Hd77bzdjQvyWOMnqnmkajMsZW8JBUD3XKHK0u1Nrbut0gP5S-AnGJ1zf4DZEUnP0h9KRkVC6mxj61EvQ915fgE_Ouif77np6kcp-w7cBoXRpedY7j9nhY5xHyoIL50ySB1pzQIvgGCFxO_HZSzCrsdMPWdxpHJD5PQbcKv7nDe8RJztdNywQdPGxY1GxZGT2DUiovANfYB5FS4S4G3V19MNZyQZyOfvKcvH8PnbHAkhiD9kKuvDWmSoxNT8yknzoCSzWkn0RiDZjrnxKxx1C9P12L-OEoFhoQG2orZd7hilcHBhP3Wm3Wd6m9JpHNBQ0SkrvIV3x- -NU2iR9WKFADS6UVpSETmt3O7JC6CohBYUMWCwItHkEW-ZqN2-Ae3rz78_69C25zfia9koeqpWRpolWDSf-a_]--></g></svg>