<svg xmlns="http://www.w3.org/2000/svg" xmlns:xlink="http://www.w3.org/1999/xlink" contentStyleType="text/css" data-diagram-type="STATE" height="776px" preserveAspectRatio="none" style="width:902px;height:776px;background:#FFFFFF;" version="1.1" viewBox="0 0 902 776" width="902px" zoomAndPan="magnify"><defs/><g><g id="ASIGNATURA_ABIERTO"><rect fill="#F1F1F1" height="50" rx="12.5" ry="12.5" style="stroke:#181818;stroke-width:0.5;" width="180.0498" x="7" y="7"/><line style="stroke:#181818;stroke-width:0.5;" x1="7" x2="187.0498" y1="33.2969" y2="33.2969"/><text fill="#000000" font-family="sans-serif" font-size="14" lengthAdjust="spacing" textLength="160.0498" x="17" y="24.9951">ASIGNATURA_ABIERTO</text></g><g id="SISTEMA_DISPONIBLE"><rect fill="#F1F1F1" height="50" rx="12.5" ry="12.5" style="stroke:#181818;stroke-width:0.5;" width="172.0654" x="221.99" y="7"/><line style="stroke:#181818;stroke-width:0.5;" x1="221.99" x2="394.0554" y1="33.2969" y2="33.2969"/><text fill="#000000" font-family="sans-serif" font-size="14" lengthAdjust="spacing" textLength="152.0654" x="231.99" y="24.9951">SISTEMA_DISPONIBLE</text></g><g id="PREGUNTA_CONTEXTUAL_ABIERTO"><rect fill="#F1F1F1" height="50" rx="12.5" ry="12.5" style="stroke:#181818;stroke-width:0.5;" width="266.5996" x="428.73" y="7"/><line style="stroke:#181818;stroke-width:0.5;" x1="428.73" x2="695.3296" y1="33.2969" y2="33.2969"/><text fill="#000000" font-family="sans-serif" font-size="14" lengthAdjust="spacing" textLength="246.5996" x="438.73" y="24.9951">PREGUNTA_CONTEXTUAL_ABIERTO</text></g><g id="PREGUNTA_ABIERTO"><rect fill="#F1F1F1" height="50" rx="12.5" ry="12.5" style="stroke:#181818;stroke-width:0.5;" width="165.168" x="730.44" y="7"/><line style="stroke:#181818;stroke-width:0.5;" x1="730.44" x2="895.608" y1="33.2969" y2="33.2969"/><text fill="#000000" font-family="sans-serif" font-size="14" lengthAdjust="spacing" textLength="145.168" x="740.44" y="24.9951">PREGUNTA_ABIERTO</text></g><g id="PREGUNTAS_ABIERTO"><rect fill="#F1F1F1" height="50" rx="12.5" ry="12.5" style="stroke:#181818;stroke-width:0.5;" width="174.0547" x="406" y="720.3"/><line style="stroke:#181818;stroke-width:0.5;" x1="406" x2="580.0547" y1="746.5969" y2="746.5969"/><text fill="#000000" font-family="sans-serif" font-size="14" lengthAdjust="spacing" textLength="154.0547" x="416" y="738.2951">PREGUNTAS_ABIERTO</text></g><g id="PREGUNTAS_CONTEXTUALES_ABIERTO"><rect fill="#F1F1F1" height="50" rx="12.5" ry="12.5" style="stroke:#181818;stroke-width:0.5;" width="293.2188" x="57.42" y="720.3"/><line style="stroke:#181818;stroke-width:0.5;" x1="57.42" x2="350.6388" y1="746.5969" y2="746.5969"/><text fill="#000000" font-family="sans-serif" font-size="14" lengthAdjust="spacing" textLength="273.2188" x="67.42" y="738.2951">PREGUNTAS_CONTEXTUALES_ABIERTO</text></g><path d="M238.02,118 L632.02,118 A12.5,12.5 0 0 1 644.52,130.5 L644.52,144.2969 L225.52,144.2969 L225.52,130.5 A12.5,12.5 0 0 1 238.02,118" fill="#F1F1F1"/><rect fill="none" height="492.2969" rx="12.5" ry="12.5" style="stroke:#181818;stroke-width:0.5;" width="419" x="225.52" y="118"/><line style="stroke:#181818;stroke-width:0.5;" x1="225.52" x2="644.52" y1="144.2969" y2="144.2969"/><text fill="#000000" font-family="sans-serif" font-size="14" lengthAdjust="spacing" textLength="104.3848" x="382.8276" y="135.9951">verPreguntas()</text><g id="verPreguntas.MostrandoPreguntas"><rect fill="#F1F1F1" height="50" rx="12.5" ry="12.5" style="stroke:#181818;stroke-width:0.5;" width="50" x="237.52" y="246.2969"/><line style="stroke:#181818;stroke-width:0.5;" x1="237.52" x2="287.52" y1="272.5938" y2="272.5938"/><text fill="#000000" font-family="sans-serif" font-size="14" lengthAdjust="spacing" textLength="4.4502" x="260.2949" y="264.292">&#160;</text></g><g id="verPreguntas.FiltrandoPreguntas"><rect fill="#F1F1F1" height="50" rx="12.5" ry="12.5" style="stroke:#181818;stroke-width:0.5;" width="50" x="237.52" y="457.2969"/><line style="stroke:#181818;stroke-width:0.5;" x1="237.52" x2="287.52" y1="483.5938" y2="483.5938"/><text fill="#000000" font-family="sans-serif" font-size="14" lengthAdjust="spacing" textLength="4.4502" x="260.2949" y="475.292">&#160;</text></g><ellipse cx="262.52" cy="165.2969" fill="#222222" rx="10" ry="10" style="stroke:#222222;stroke-width:1;"/><ellipse cx="262.52" cy="589.2969" fill="none" rx="11" ry="11" style="stroke:#222222;stroke-width:1;"/><ellipse cx="262.52" cy="589.2969" fill="#222222" rx="6" ry="6" style="stroke:#222222;stroke-width:1;"/><!--link *start*verPreguntas to MostrandoPreguntas--><g class="link" data-entity-1=".start.verPreguntas" data-entity-2="MostrandoPreguntas" data-source-line="23" data-uid="lnk8" id="link_.start.verPreguntas_MostrandoPreguntas"><path d="M262.52,175.5269 C262.52,191.2369 262.52,217.6569 262.52,240.1669" fill="none" id="*start*verPreguntas-to-MostrandoPreguntas" style="stroke:#008000;stroke-width:1;"/><polygon fill="#008000" points="262.52,246.1669,266.52,237.1669,262.52,241.1669,258.52,237.1669,262.52,246.1669" style="stroke:#008000;stroke-width:1;"/><path d="M267.52,198.2969 L267.52,223.2969 L493.52,223.2969 L493.52,208.2969 L483.52,198.2969 L267.52,198.2969" fill="#FEFFDD" style="stroke:#181818;stroke-width:0.5;"/><path d="M483.52,198.2969 L483.52,208.2969 L493.52,208.2969 L483.52,198.2969" fill="#FEFFDD" style="stroke:#181818;stroke-width:0.5;"/><text fill="#000000" font-family="sans-serif" font-size="13" font-weight="bold" lengthAdjust="spacing" textLength="60.5313" x="273.52" y="215.3638">Docente</text><text fill="#000000" font-family="sans-serif" font-size="13" lengthAdjust="spacing" textLength="141.2354" x="338.1836" y="215.3638">solicita ver preguntas</text></g><!--link MostrandoPreguntas to FiltrandoPreguntas--><g class="link" data-entity-1="MostrandoPreguntas" data-entity-2="FiltrandoPreguntas" data-source-line="28" data-uid="lnk9" id="link_MostrandoPreguntas_FiltrandoPreguntas"><path d="M262.52,296.6769 C262.52,336.9569 262.52,410.8969 262.52,451.0669" fill="none" id="MostrandoPreguntas-to-FiltrandoPreguntas" style="stroke:#008000;stroke-width:1;"/><polygon fill="#008000" points="262.52,457.0669,266.52,448.0669,262.52,452.0669,258.52,448.0669,262.52,457.0669" style="stroke:#008000;stroke-width:1;"/><path d="M267.52,319.2969 L267.52,434.2969 L635.52,434.2969 L635.52,329.2969 L625.52,319.2969 L267.52,319.2969" fill="#FEFFDD" style="stroke:#181818;stroke-width:0.5;"/><path d="M625.52,319.2969 L625.52,329.2969 L635.52,329.2969 L625.52,319.2969" fill="#FEFFDD" style="stroke:#181818;stroke-width:0.5;"/><text fill="#000000" font-family="sans-serif" font-size="13" font-weight="bold" lengthAdjust="spacing" textLength="58.9063" x="273.52" y="336.3638">Sistema</text><text fill="#000000" font-family="sans-serif" font-size="13" lengthAdjust="spacing" textLength="179.5371" x="336.5586" y="336.3638">presenta lista de preguntas</text><text fill="#000000" font-family="sans-serif" font-size="13" lengthAdjust="spacing" textLength="347.4834" x="273.52" y="351.4966">&#8226; Enunciado, asignatura, tema, dificultad, respuestas</text><text fill="#000000" font-family="sans-serif" font-size="13" lengthAdjust="spacing" textLength="4.1323" x="273.52" y="366.6294">&#160;</text><text fill="#000000" font-family="sans-serif" font-size="13" font-weight="bold" lengthAdjust="spacing" textLength="158.1582" x="273.52" y="381.7622">Acciones disponibles:</text><text fill="#000000" font-family="sans-serif" font-size="13" lengthAdjust="spacing" textLength="81.4468" x="273.52" y="396.895">&#8226; Filtrar lista</text><text fill="#000000" font-family="sans-serif" font-size="13" lengthAdjust="spacing" textLength="179.1689" x="273.52" y="412.0278">&#8226; Seleccionar una pregunta</text><text fill="#000000" font-family="sans-serif" font-size="13" lengthAdjust="spacing" textLength="111.8521" x="273.52" y="427.1606">&#8226; Confirmar vista</text></g><!--link FiltrandoPreguntas to FiltrandoPreguntas--><g class="link" data-entity-1="FiltrandoPreguntas" data-entity-2="FiltrandoPreguntas" data-source-line="39" data-uid="lnk10" id="link_FiltrandoPreguntas_FiltrandoPreguntas"><path d="M287.7,470.9969 C297.43,470.4969 305.52,474.2569 305.52,482.2969 C305.52,490.3369 303.4221,494.4048 293.6921,493.9048" fill="none" id="FiltrandoPreguntas-to-FiltrandoPreguntas" style="stroke:#008000;stroke-width:1;"/><polygon fill="#008000" points="287.7,493.5969,296.4829,498.0535,292.6934,493.8535,296.8934,490.064,287.7,493.5969" style="stroke:#008000;stroke-width:1;"/><path d="M310.52,462.2969 L310.52,502.2969 L524.52,502.2969 L524.52,472.2969 L514.52,462.2969 L310.52,462.2969" fill="#FEFFDD" style="stroke:#181818;stroke-width:0.5;"/><path d="M514.52,462.2969 L514.52,472.2969 L524.52,472.2969 L514.52,462.2969" fill="#FEFFDD" style="stroke:#181818;stroke-width:0.5;"/><text fill="#000000" font-family="sans-serif" font-size="13" font-weight="bold" lengthAdjust="spacing" textLength="60.5313" x="316.52" y="479.3638">Docente</text><text fill="#000000" font-family="sans-serif" font-size="13" lengthAdjust="spacing" textLength="116.6509" x="381.1836" y="479.3638">solicita filtrar lista</text><text fill="#000000" font-family="sans-serif" font-size="13" font-weight="bold" lengthAdjust="spacing" textLength="58.9063" x="316.52" y="494.4966">Sistema</text><text fill="#000000" font-family="sans-serif" font-size="13" lengthAdjust="spacing" textLength="130.5713" x="379.5586" y="494.4966">actualiza resultados</text></g><!--link FiltrandoPreguntas to *end*verPreguntas--><g class="link" data-entity-1="FiltrandoPreguntas" data-entity-2=".end.verPreguntas" data-source-line="45" data-uid="lnk12" id="link_FiltrandoPreguntas_.end.verPreguntas"><path d="M262.52,507.6469 C262.52,529.9469 262.52,555.8569 262.52,572.0369" fill="none" id="FiltrandoPreguntas-to-*end*verPreguntas" style="stroke:#008000;stroke-width:1;"/><polygon fill="#008000" points="262.52,578.0369,266.52,569.0369,262.52,573.0369,258.52,569.0369,262.52,578.0369" style="stroke:#008000;stroke-width:1;"/><path d="M267.52,530.2969 L267.52,555.2969 L527.52,555.2969 L527.52,540.2969 L517.52,530.2969 L267.52,530.2969" fill="#FEFFDD" style="stroke:#181818;stroke-width:0.5;"/><path d="M517.52,530.2969 L517.52,540.2969 L527.52,540.2969 L517.52,530.2969" fill="#FEFFDD" style="stroke:#181818;stroke-width:0.5;"/><text fill="#000000" font-family="sans-serif" font-size="13" font-weight="bold" lengthAdjust="spacing" textLength="60.5313" x="273.52" y="547.3638">Docente</text><text fill="#000000" font-family="sans-serif" font-size="13" lengthAdjust="spacing" textLength="175.2144" x="338.1836" y="547.3638">selecciona destino / acci&#243;n</text></g><!--link ASIGNATURA_ABIERTO to verPreguntas--><g class="link" data-entity-1="ASIGNATURA_ABIERTO" data-entity-2="verPreguntas" data-source-line="12" data-uid="lnk2" id="link_ASIGNATURA_ABIERTO_verPreguntas"><path d="M121.88,57.28 C145.51,80.36 179.2375,113.3078 220.7775,153.8778" fill="none" id="ASIGNATURA_ABIERTO-to-verPreguntas" style="stroke:#008000;stroke-width:1;"/><polygon fill="#008000" points="225.07,158.07,221.4261,148.92,221.4929,154.5765,215.8365,154.6433,225.07,158.07" style="stroke:#008000;stroke-width:1;"/></g><!--link SISTEMA_DISPONIBLE to verPreguntas--><g class="link" data-entity-1="SISTEMA_DISPONIBLE" data-entity-2="verPreguntas" data-source-line="13" data-uid="lnk3" id="link_SISTEMA_DISPONIBLE_verPreguntas"><path d="M317.36,57.28 C323.18,72.39 329.1561,87.9399 338.4561,112.1199" fill="none" id="SISTEMA_DISPONIBLE-to-verPreguntas" style="stroke:#008000;stroke-width:1;"/><polygon fill="#008000" points="340.61,117.72,341.1126,107.884,338.8151,113.0533,333.6458,110.7558,340.61,117.72" style="stroke:#008000;stroke-width:1;"/></g><!--link PREGUNTA_CONTEXTUAL_ABIERTO to verPreguntas--><g class="link" data-entity-1="PREGUNTA_CONTEXTUAL_ABIERTO" data-entity-2="verPreguntas" data-source-line="14" data-uid="lnk4" id="link_PREGUNTA_CONTEXTUAL_ABIERTO_verPreguntas"><path d="M552.69,57.28 C546.87,72.39 540.8959,87.9407 531.5859,112.1207" fill="none" id="PREGUNTA_CONTEXTUAL_ABIERTO-to-verPreguntas" style="stroke:#008000;stroke-width:1;"/><polygon fill="#008000" points="529.43,117.72,536.3967,110.7583,531.2266,113.0539,528.931,107.8838,529.43,117.72" style="stroke:#008000;stroke-width:1;"/></g><!--link PREGUNTA_ABIERTO to verPreguntas--><g class="link" data-entity-1="PREGUNTA_ABIERTO" data-entity-2="verPreguntas" data-source-line="15" data-uid="lnk5" id="link_PREGUNTA_ABIERTO_verPreguntas"><path d="M785.23,57.28 C754.11,84.46 705.2092,127.1733 649.3192,175.9833" fill="none" id="PREGUNTA_ABIERTO-to-verPreguntas" style="stroke:#008000;stroke-width:1;"/><polygon fill="#008000" points="644.8,179.93,654.21,177.0227,648.566,176.6411,648.9477,170.9971,644.8,179.93" style="stroke:#008000;stroke-width:1;"/></g><!--link PREGUNTAS_CONTEXTUALES_ABIERTO to verPreguntas--><g class="link" data-entity-1="PREGUNTAS_CONTEXTUALES_ABIERTO" data-entity-2="verPreguntas" data-source-line="16" data-uid="lnk6" id="link_PREGUNTAS_CONTEXTUALES_ABIERTO_verPreguntas"><path d="M298.74,719.83 C354.04,705.54 413.02,690.3 413.02,690.3 C413.02,690.3 414.9045,662.5163 418.0045,616.7463" fill="none" id="PREGUNTAS_CONTEXTUALES_ABIERTO-to-verPreguntas" style="stroke:#008000;stroke-width:1;"/><polygon fill="#008000" points="418.41,610.76,413.811,619.4691,418.0721,615.7486,421.7927,620.0097,418.41,610.76" style="stroke:#008000;stroke-width:1;"/></g><!--link verPreguntas to PREGUNTAS_CONTEXTUALES_ABIERTO--><g class="link" data-entity-1="verPreguntas" data-entity-2="PREGUNTAS_CONTEXTUALES_ABIERTO" data-source-line="63" data-uid="lnk14" id="link_verPreguntas_PREGUNTAS_CONTEXTUALES_ABIERTO"><path d="M225.05,588.22 C196.09,618.99 176.02,640.3 176.02,640.3 C176.02,640.3 176.02,690.3 176.02,690.3 C176.02,690.3 181.168,700.2135 188.578,714.5035" fill="none" id="verPreguntas-to-PREGUNTAS_CONTEXTUALES_ABIERTO" style="stroke:#008000;stroke-width:1;"/><polygon fill="#008000" points="191.34,719.83,190.748,709.999,189.0383,715.3913,183.646,713.6816,191.34,719.83" style="stroke:#008000;stroke-width:1;"/><path d="M181.02,645.3 L181.02,685.3 L400.02,685.3 L400.02,655.3 L390.02,645.3 L181.02,645.3" fill="#FEFFDD" style="stroke:#181818;stroke-width:0.5;"/><path d="M390.02,645.3 L390.02,655.3 L400.02,655.3 L390.02,645.3" fill="#FEFFDD" style="stroke:#181818;stroke-width:0.5;"/><text fill="#000000" font-family="sans-serif" font-size="13" lengthAdjust="spacing" textLength="154.064" x="187.02" y="662.3669">Mostrar lista contextual</text><text fill="#000000" font-family="sans-serif" font-size="13" lengthAdjust="spacing" textLength="198.4404" x="187.02" y="677.4997">(Preguntas de una asignatura)</text></g><!--link verPreguntas to PREGUNTAS_ABIERTO--><g class="link" data-entity-1="verPreguntas" data-entity-2="PREGUNTAS_ABIERTO" data-source-line="56" data-uid="lnk13" id="link_verPreguntas_PREGUNTAS_ABIERTO"><path d="M472.58,610.63 C479.41,655.33 484.6542,689.5488 488.3742,713.9088" fill="none" id="verPreguntas-to-PREGUNTAS_ABIERTO" style="stroke:#008000;stroke-width:1;"/><polygon fill="#008000" points="489.28,719.84,491.8755,710.3393,488.5252,714.8973,483.9672,711.547,489.28,719.84" style="stroke:#008000;stroke-width:1;"/><path d="M490.02,645.3 L490.02,685.3 L733.02,685.3 L733.02,655.3 L723.02,645.3 L490.02,645.3" fill="#FEFFDD" style="stroke:#181818;stroke-width:0.5;"/><path d="M723.02,645.3 L723.02,655.3 L733.02,655.3 L723.02,645.3" fill="#FEFFDD" style="stroke:#181818;stroke-width:0.5;"/><text fill="#000000" font-family="sans-serif" font-size="13" lengthAdjust="spacing" textLength="134.4307" x="496.02" y="662.3669">Mostrar lista general</text><text fill="#000000" font-family="sans-serif" font-size="13" lengthAdjust="spacing" textLength="222.8281" x="496.02" y="677.4997">(Resultados filtrados o completos)</text></g><!--SRC=[dLJHQjim57ttLrooXwKZRLdxLaf0JRnYI9DWEp0e9IYs4aGToKXoQJS6_PQzxscVq3_Pb-pAJkpOJage4uVuwjohSuwkhtxa8gMAhY7XWfcNb44ganVxu3YVuUiP3DcI2nxnjxy2OWQkDZIM6jndmvIGsi5dmu04tksOX3EVpCcDv_hXPBCGU47etf7vq0kcax5tCt8t2rFVlPsDGp8VJCQX-psSaL4ZjKJi3mS7urL5jmAXceip21KL6jL8mNGkPnpwP4YW6qghAi5RghS_AsRNjKmGckizSTeAuVJ-qqen9XvE-_34r5InLIOCrKvRz67iEpuSaNGqShyhX_Csfkx60B-TtK3tf0C_7GVmAj0T_23eJcg3FiUoAjV2VED94vE3xhyyr4WTg2KabfB2TkrZ7hXUz8SoOiAmw_D5lpmwAm3IMYeJSP6EbrF-jFUfqTX3zn2DW6l3rZIdWJjhv4GHWEfjmzMv_7lz3Qx8HCInoNhe2ry9QZ95Us1hz23cInvb2VPW3x1McZ6zpTtkHw9jEtETIi4N2TDNTlToXuAyAaYKqO0bB4_5bKpGaba964Ynv6gDoqzbujQyYa7RcOyQj_VybYtk3OjfP3AQy1_K-fCx9VN7g6Bh7SUjD0uFL1ik99mZZNn4rdV-PQVEPNlg16JasQ4pBD8RayQnMG5gYYbSNC60gjNM0B23IT74gRsNkoBQqx4cfsZpPhMkNrgtCTp-an39TPemOqcLcYfkbmrkaKI7dkrf74Dlxv1-X-jEzMvL6ysqlLkzE1NJ_m00]--></g></svg>