<svg xmlns="http://www.w3.org/2000/svg" xmlns:xlink="http://www.w3.org/1999/xlink" contentStyleType="text/css" data-diagram-type="STATE" height="650px" preserveAspectRatio="none" style="width:775px;height:650px;background:#FFFFFF;" version="1.1" viewBox="0 0 775 650" width="775px" zoomAndPan="magnify"><defs/><g><path d="M116,7 L510,7 A12.5,12.5 0 0 1 522.5,19.5 L522.5,33.2969 L103.5,33.2969 L103.5,19.5 A12.5,12.5 0 0 1 116,7" fill="#F1F1F1"/><rect fill="none" height="492.2969" rx="12.5" ry="12.5" style="stroke:#181818;stroke-width:0.5;" width="419" x="103.5" y="7"/><line style="stroke:#181818;stroke-width:0.5;" x1="103.5" x2="522.5" y1="33.2969" y2="33.2969"/><text fill="#000000" font-family="sans-serif" font-size="14" lengthAdjust="spacing" textLength="104.3848" x="260.8076" y="24.9951">verPreguntas()</text><g id="verPreguntas.MostrandoPreguntas"><rect fill="#F1F1F1" height="50" rx="12.5" ry="12.5" style="stroke:#181818;stroke-width:0.5;" width="50" x="115.5" y="135.2969"/><line style="stroke:#181818;stroke-width:0.5;" x1="115.5" x2="165.5" y1="161.5938" y2="161.5938"/><text fill="#000000" font-family="sans-serif" font-size="14" lengthAdjust="spacing" textLength="4.4502" x="138.2749" y="153.292">&#160;</text></g><g id="verPreguntas.FiltrandoPreguntas"><rect fill="#F1F1F1" height="50" rx="12.5" ry="12.5" style="stroke:#181818;stroke-width:0.5;" width="50" x="115.5" y="346.2969"/><line style="stroke:#181818;stroke-width:0.5;" x1="115.5" x2="165.5" y1="372.5938" y2="372.5938"/><text fill="#000000" font-family="sans-serif" font-size="14" lengthAdjust="spacing" textLength="4.4502" x="138.2749" y="364.292">&#160;</text></g><ellipse cx="140.5" cy="54.2969" fill="#222222" rx="10" ry="10" style="stroke:#222222;stroke-width:1;"/><ellipse cx="140.5" cy="478.2969" fill="none" rx="11" ry="11" style="stroke:#222222;stroke-width:1;"/><ellipse cx="140.5" cy="478.2969" fill="#222222" rx="6" ry="6" style="stroke:#222222;stroke-width:1;"/><!--link *start*verPreguntas to MostrandoPreguntas--><g class="link" data-entity-1=".start.verPreguntas" data-entity-2="MostrandoPreguntas" data-source-line="8" data-uid="lnk3" id="link_.start.verPreguntas_MostrandoPreguntas"><path d="M140.5,64.5269 C140.5,80.2369 140.5,106.6569 140.5,129.1669" fill="none" id="*start*verPreguntas-to-MostrandoPreguntas" style="stroke:#008000;stroke-width:1;"/><polygon fill="#008000" points="140.5,135.1669,144.5,126.1669,140.5,130.1669,136.5,126.1669,140.5,135.1669" style="stroke:#008000;stroke-width:1;"/><path d="M145.5,87.2969 L145.5,112.2969 L371.5,112.2969 L371.5,97.2969 L361.5,87.2969 L145.5,87.2969" fill="#FEFFDD" style="stroke:#181818;stroke-width:0.5;"/><path d="M361.5,87.2969 L361.5,97.2969 L371.5,97.2969 L361.5,87.2969" fill="#FEFFDD" style="stroke:#181818;stroke-width:0.5;"/><text fill="#000000" font-family="sans-serif" font-size="13" font-weight="bold" lengthAdjust="spacing" textLength="60.5313" x="151.5" y="104.3638">Docente</text><text fill="#000000" font-family="sans-serif" font-size="13" lengthAdjust="spacing" textLength="141.2354" x="216.1636" y="104.3638">solicita ver preguntas</text></g><!--link MostrandoPreguntas to FiltrandoPreguntas--><g class="link" data-entity-1="MostrandoPreguntas" data-entity-2="FiltrandoPreguntas" data-source-line="13" data-uid="lnk4" id="link_MostrandoPreguntas_FiltrandoPreguntas"><path d="M140.5,185.6769 C140.5,225.9569 140.5,299.8969 140.5,340.0669" fill="none" id="MostrandoPreguntas-to-FiltrandoPreguntas" style="stroke:#008000;stroke-width:1;"/><polygon fill="#008000" points="140.5,346.0669,144.5,337.0669,140.5,341.0669,136.5,337.0669,140.5,346.0669" style="stroke:#008000;stroke-width:1;"/><path d="M145.5,208.2969 L145.5,323.2969 L513.5,323.2969 L513.5,218.2969 L503.5,208.2969 L145.5,208.2969" fill="#FEFFDD" style="stroke:#181818;stroke-width:0.5;"/><path d="M503.5,208.2969 L503.5,218.2969 L513.5,218.2969 L503.5,208.2969" fill="#FEFFDD" style="stroke:#181818;stroke-width:0.5;"/><text fill="#000000" font-family="sans-serif" font-size="13" font-weight="bold" lengthAdjust="spacing" textLength="58.9063" x="151.5" y="225.3638">Sistema</text><text fill="#000000" font-family="sans-serif" font-size="13" lengthAdjust="spacing" textLength="179.5371" x="214.5386" y="225.3638">presenta lista de preguntas</text><text fill="#000000" font-family="sans-serif" font-size="13" lengthAdjust="spacing" textLength="347.4834" x="151.5" y="240.4966">&#8226; Enunciado, asignatura, tema, dificultad, respuestas</text><text fill="#000000" font-family="sans-serif" font-size="13" lengthAdjust="spacing" textLength="4.1323" x="151.5" y="255.6294">&#160;</text><text fill="#000000" font-family="sans-serif" font-size="13" lengthAdjust="spacing" textLength="188.481" x="151.5" y="270.7622">&#8226; Permite solicitar filtrar lista</text><text fill="#000000" font-family="sans-serif" font-size="13" lengthAdjust="spacing" textLength="263.3262" x="151.5" y="285.895">&#8226; Permite solicitar crear pregunta nueva</text><text fill="#000000" font-family="sans-serif" font-size="13" lengthAdjust="spacing" textLength="238.3037" x="151.5" y="301.0278">&#8226; Permite solicitar eliminar pregunta</text><text fill="#000000" font-family="sans-serif" font-size="13" lengthAdjust="spacing" textLength="223.5264" x="151.5" y="316.1606">&#8226; Permite solicitar editar pregunta</text></g><!--link FiltrandoPreguntas to FiltrandoPreguntas--><g class="link" data-entity-1="FiltrandoPreguntas" data-entity-2="FiltrandoPreguntas" data-source-line="24" data-uid="lnk5" id="link_FiltrandoPreguntas_FiltrandoPreguntas"><path d="M165.68,360.0869 C175.41,359.5969 183.5,363.3269 183.5,371.2969 C183.5,379.2669 181.4024,383.2987 171.6724,382.8087" fill="none" id="FiltrandoPreguntas-to-FiltrandoPreguntas" style="stroke:#008000;stroke-width:1;"/><polygon fill="#008000" points="165.68,382.5069,174.4674,386.9545,170.6737,382.7584,174.8698,378.9646,165.68,382.5069" style="stroke:#008000;stroke-width:1;"/><path d="M188.5,351.2969 L188.5,391.2969 L411.5,391.2969 L411.5,361.2969 L401.5,351.2969 L188.5,351.2969" fill="#FEFFDD" style="stroke:#181818;stroke-width:0.5;"/><path d="M401.5,351.2969 L401.5,361.2969 L411.5,361.2969 L401.5,351.2969" fill="#FEFFDD" style="stroke:#181818;stroke-width:0.5;"/><text fill="#000000" font-family="sans-serif" font-size="13" font-weight="bold" lengthAdjust="spacing" textLength="60.5313" x="194.5" y="368.3638">Docente</text><text fill="#000000" font-family="sans-serif" font-size="13" lengthAdjust="spacing" textLength="116.6509" x="259.1636" y="368.3638">solicita filtrar lista</text><text fill="#000000" font-family="sans-serif" font-size="13" font-weight="bold" lengthAdjust="spacing" textLength="58.9063" x="194.5" y="383.4966">Sistema</text><text fill="#000000" font-family="sans-serif" font-size="13" lengthAdjust="spacing" textLength="139.4199" x="257.5386" y="383.4966">presenta lista filtrada</text></g><!--link FiltrandoPreguntas to *end*verPreguntas--><g class="link" data-entity-1="FiltrandoPreguntas" data-entity-2=".end.verPreguntas" data-source-line="30" data-uid="lnk7" id="link_FiltrandoPreguntas_.end.verPreguntas"><path d="M140.5,396.3869 C140.5,418.7869 140.5,445.0669 140.5,461.2469" fill="none" id="FiltrandoPreguntas-to-*end*verPreguntas" style="stroke:#008000;stroke-width:1;"/><polygon fill="#008000" points="140.5,467.2469,144.5,458.2469,140.5,462.2469,136.5,458.2469,140.5,467.2469" style="stroke:#008000;stroke-width:1;"/><path d="M145.5,419.2969 L145.5,444.2969 L409.5,444.2969 L409.5,429.2969 L399.5,419.2969 L145.5,419.2969" fill="#FEFFDD" style="stroke:#181818;stroke-width:0.5;"/><path d="M399.5,419.2969 L399.5,429.2969 L409.5,429.2969 L399.5,419.2969" fill="#FEFFDD" style="stroke:#181818;stroke-width:0.5;"/><text fill="#000000" font-family="sans-serif" font-size="13" font-weight="bold" lengthAdjust="spacing" textLength="60.5313" x="151.5" y="436.3638">Docente</text><text fill="#000000" font-family="sans-serif" font-size="13" lengthAdjust="spacing" textLength="179.2769" x="216.1636" y="436.3638">solicita una de las opciones</text></g><g id="SISTEMA_DISPONIBLE"><rect fill="#F1F1F1" height="50" rx="12.5" ry="12.5" style="stroke:#181818;stroke-width:0.5;" width="172.0654" x="7" y="594"/><line style="stroke:#181818;stroke-width:0.5;" x1="7" x2="179.0654" y1="620.2969" y2="620.2969"/><text fill="#000000" font-family="sans-serif" font-size="14" lengthAdjust="spacing" textLength="152.0654" x="17" y="611.9951">SISTEMA_DISPONIBLE</text></g><g id="PREGUNTA_ABIERTA"><rect fill="#F1F1F1" height="50" rx="12.5" ry="12.5" style="stroke:#181818;stroke-width:0.5;" width="163.7256" x="304" y="594"/><line style="stroke:#181818;stroke-width:0.5;" x1="304" x2="467.7256" y1="620.2969" y2="620.2969"/><text fill="#000000" font-family="sans-serif" font-size="14" lengthAdjust="spacing" textLength="143.7256" x="314" y="611.9951">PREGUNTA_ABIERTA</text></g><g id="PREGUNTAS_ABIERTO"><rect fill="#F1F1F1" height="50" rx="12.5" ry="12.5" style="stroke:#181818;stroke-width:0.5;" width="174.0547" x="577" y="594"/><line style="stroke:#181818;stroke-width:0.5;" x1="577" x2="751.0547" y1="620.2969" y2="620.2969"/><text fill="#000000" font-family="sans-serif" font-size="14" lengthAdjust="spacing" textLength="154.0547" x="587" y="611.9951">PREGUNTAS_ABIERTO</text></g><!--link SISTEMA_DISPONIBLE to verPreguntas--><g class="link" data-entity-1="SISTEMA_DISPONIBLE" data-entity-2="verPreguntas" data-source-line="36" data-uid="lnk9" id="link_SISTEMA_DISPONIBLE_verPreguntas"><path d="M155.63,593.84 C192.91,579.47 233,564 233,564 C233,564 238.4613,542.8498 248.2713,504.8198" fill="none" id="SISTEMA_DISPONIBLE-to-verPreguntas" style="stroke:#008000;stroke-width:1;"/><polygon fill="#008000" points="249.77,499.01,243.6488,506.7256,248.5211,503.8515,251.3952,508.7238,249.77,499.01" style="stroke:#008000;stroke-width:1;"/></g><!--link verPreguntas to SISTEMA_DISPONIBLE--><g class="link" data-entity-1="verPreguntas" data-entity-2="SISTEMA_DISPONIBLE" data-source-line="53" data-uid="lnk15" id="link_verPreguntas_SISTEMA_DISPONIBLE"><path d="M103.44,490.18 C82.63,513.64 69,529 69,529 C69,529 69,564 69,564 C69,564 73.4321,573.9876 79.8221,588.3576" fill="none" id="verPreguntas-to-SISTEMA_DISPONIBLE" style="stroke:#008000;stroke-width:1;"/><polygon fill="#008000" points="82.26,593.84,82.2581,583.9911,80.2284,589.2713,74.9482,587.2417,82.26,593.84" style="stroke:#008000;stroke-width:1;"/><path d="M74,534 L74,559 L220,559 L220,544 L210,534 L74,534" fill="#FEFFDD" style="stroke:#181818;stroke-width:0.5;"/><path d="M210,534 L210,544 L220,544 L210,534" fill="#FEFFDD" style="stroke:#181818;stroke-width:0.5;"/><text fill="#000000" font-family="sans-serif" font-size="13" lengthAdjust="spacing" textLength="125.9248" x="80" y="551.0669">completarGestion()</text></g><!--link verPreguntas to PREGUNTA_ABIERTA--><g class="link" data-entity-1="verPreguntas" data-entity-2="PREGUNTA_ABIERTA" data-source-line="38" data-uid="lnk11" id="link_verPreguntas_PREGUNTA_ABIERTA"><path d="M310.33,499.05 C310.13,517.43 310,529 310,529 C310,529 310,564 310,564 C310,564 326.8785,575.9954 347.1085,590.3654" fill="none" id="verPreguntas-to-PREGUNTA_ABIERTA" style="stroke:#008000;stroke-width:1;"/><polygon fill="#008000" points="352,593.84,346.9791,585.3671,347.9237,590.9445,342.3463,591.8891,352,593.84" style="stroke:#008000;stroke-width:1;"/><path d="M315,534 L315,559 L443,559 L443,544 L433,534 L315,534" fill="#FEFFDD" style="stroke:#181818;stroke-width:0.5;"/><path d="M433,534 L433,544 L443,544 L433,534" fill="#FEFFDD" style="stroke:#181818;stroke-width:0.5;"/><text fill="#000000" font-family="sans-serif" font-size="13" lengthAdjust="spacing" textLength="107.3896" x="321" y="551.0669">editarPregunta()</text></g><!--link verPreguntas to PREGUNTA_ABIERTA--><g class="link" data-entity-1="verPreguntas" data-entity-2="PREGUNTA_ABIERTA" data-source-line="43" data-uid="lnk12" id="link_verPreguntas_PREGUNTA_ABIERTA"><path d="M436.86,499.05 C446.15,517.43 452,529 452,529 C452,529 452,564 452,564 C452,564 437.7445,575.6714 420.1745,590.0414" fill="none" id="verPreguntas-to-PREGUNTA_ABIERTA-1" style="stroke:#008000;stroke-width:1;"/><polygon fill="#008000" points="415.53,593.84,425.0291,591.2385,419.4004,590.6745,419.9643,585.0459,415.53,593.84" style="stroke:#008000;stroke-width:1;"/><path d="M457,534 L457,559 L580,559 L580,544 L570,534 L457,534" fill="#FEFFDD" style="stroke:#181818;stroke-width:0.5;"/><path d="M570,534 L570,544 L580,544 L570,534" fill="#FEFFDD" style="stroke:#181818;stroke-width:0.5;"/><text fill="#000000" font-family="sans-serif" font-size="13" lengthAdjust="spacing" textLength="102.9209" x="463" y="551.0669">crearPregunta()</text></g><!--link verPreguntas to PREGUNTAS_ABIERTO--><g class="link" data-entity-1="verPreguntas" data-entity-2="PREGUNTAS_ABIERTO" data-source-line="48" data-uid="lnk14" id="link_verPreguntas_PREGUNTAS_ABIERTO"><path d="M522.71,459.96 C563.03,499.57 593,529 593,529 C593,529 619.8383,562.6396 640.8583,588.9896" fill="none" id="verPreguntas-to-PREGUNTAS_ABIERTO" style="stroke:#008000;stroke-width:1;"/><polygon fill="#008000" points="644.6,593.68,642.1145,584.1499,641.482,589.7713,635.8606,589.1388,644.6,593.68" style="stroke:#008000;stroke-width:1;"/><path d="M625,534 L625,559 L768,559 L768,544 L758,534 L625,534" fill="#FEFFDD" style="stroke:#181818;stroke-width:0.5;"/><path d="M758,534 L758,544 L768,544 L758,534" fill="#FEFFDD" style="stroke:#181818;stroke-width:0.5;"/><text fill="#000000" font-family="sans-serif" font-size="13" lengthAdjust="spacing" textLength="122.167" x="631" y="551.0669">eliminarPregunta()</text></g><!--SRC=[dPDHQi9048RVznI3VT4IwGL4K9fAe6emzab4rcIKnMGtR3Q2b4BFqgFr91qJZOb91Ts4X8H__lbcTZRP2HbppIC8XKHpY15Y5HwE7umbXXk4FMfNupQLXYT0TwlyezrfmITZG2jNj-WYqLWbHdCPg49Prxo9y5gJYHRFI-WkdhOQKIwx_GOlo7HIaPUIH_9TzgEtxhyg7wN1tikw3uaAXIyCFrO0SOK3PP27qsB5eo5HcQE1zpyCJoG68vvXKEQ4c3W9g7m8y8hbz_i7R9bAN_10MTGOiPNSf9fRSFIm810RuQUXuO45v1Mdc9nZ2mCNTII8uropXar6g_EiDtI-Hdvf3yWKzxVa68f8o5B4BMsGlIhAS-Sl-FMsFjhrnislz-7s_kJwu45Qcjtxy5APZKH8FYhsXP9OdL3snPZdU7DxF5YzEfuxdJZ3TxkIitmU6QiSrxBCdTcZZybyi1eC7Nis7x0AOxvNvyXsXnK0ZpfcW_MOeNTod5undcRlFjDwzwuuLHI7ICMFw5pH1fHS_m00]--></g></svg>