<svg xmlns="http://www.w3.org/2000/svg" xmlns:xlink="http://www.w3.org/1999/xlink" contentStyleType="text/css" data-diagram-type="SALT" height="351px" preserveAspectRatio="none" style="width:329px;height:351px;background:#FFFFFF;" version="1.1" viewBox="0 0 329 351" width="329px" zoomAndPan="magnify"><defs/><g><text fill="#000000" font-family="sans-serif" font-size="12" font-weight="bold" lengthAdjust="spacing" textLength="182.5723" x="7" y="48.0762">Gesti&#243;n de Datos Maestros</text><rect fill="#EEEEEE" height="17.9688" rx="5" ry="5" style="stroke:#000000;stroke-width:2.5;" width="308" x="9.5" y="55.4063"/><text fill="#000000" font-family="sans-serif" font-size="12" lengthAdjust="spacing" textLength="104.8184" x="111.0908" y="68.5449">Gestionar Grados</text><rect fill="#EEEEEE" height="17.9688" rx="5" ry="5" style="stroke:#000000;stroke-width:2.5;" width="308" x="9.5" y="80.375"/><text fill="#000000" font-family="sans-serif" font-size="12" lengthAdjust="spacing" textLength="133.2422" x="96.8789" y="93.5137">Gestionar Asignaturas</text><rect fill="#EEEEEE" height="17.9688" rx="5" ry="5" style="stroke:#000000;stroke-width:2.5;" width="308" x="9.5" y="105.3438"/><text fill="#000000" font-family="sans-serif" font-size="12" lengthAdjust="spacing" textLength="114.0586" x="106.4707" y="118.4824">Gestionar Alumnos</text><rect fill="#EEEEEE" height="17.9688" rx="5" ry="5" style="stroke:#000000;stroke-width:2.5;" width="308" x="9.5" y="130.3125"/><text fill="#000000" font-family="sans-serif" font-size="12" lengthAdjust="spacing" textLength="122.7129" x="102.1436" y="143.4512">Gestionar Preguntas</text><text fill="#000000" font-family="sans-serif" font-size="12" font-weight="bold" lengthAdjust="spacing" textLength="185.1445" x="7" y="163.9199">Funcionalidades Especiales</text><rect fill="#EEEEEE" height="17.9688" rx="5" ry="5" style="stroke:#000000;stroke-width:2.5;" width="308" x="9.5" y="171.25"/><text fill="#000000" font-family="sans-serif" font-size="12" lengthAdjust="spacing" textLength="115.0547" x="105.9727" y="184.3887">Generar Ex&#225;menes</text><text fill="#000000" font-family="sans-serif" font-size="12" font-weight="bold" lengthAdjust="spacing" textLength="54.375" x="7" y="204.8574">Sistema</text><rect fill="#EEEEEE" height="17.9688" rx="5" ry="5" style="stroke:#000000;stroke-width:2.5;" width="308" x="9.5" y="212.1875"/><text fill="#000000" font-family="sans-serif" font-size="12" lengthAdjust="spacing" textLength="181.2949" x="72.8525" y="225.3262">Importar Configuracion Global</text><rect fill="#EEEEEE" height="17.9688" rx="5" ry="5" style="stroke:#000000;stroke-width:2.5;" width="308" x="9.5" y="237.1563"/><text fill="#000000" font-family="sans-serif" font-size="12" lengthAdjust="spacing" textLength="180.75" x="73.125" y="250.2949">Exportar Configuracion Global</text><rect fill="#EEEEEE" height="17.9688" rx="5" ry="5" style="stroke:#000000;stroke-width:2.5;" width="308" x="9.5" y="262.125"/><text fill="#000000" font-family="sans-serif" font-size="12" lengthAdjust="spacing" textLength="81.2637" x="122.8682" y="275.2637">Cerrar Sesi&#243;n</text><line style="stroke:#000000;stroke-width:1;" x1="6" x2="321" y1="12.9844" y2="12.9844"/><line style="stroke:#000000;stroke-width:1;" x1="6" x2="321" y1="299.5625" y2="299.5625"/><line style="stroke:#000000;stroke-width:1;" x1="6" x2="6" y1="12.9844" y2="35.9375"/><line style="stroke:#000000;stroke-width:1;" x1="321" x2="321" y1="12.9844" y2="35.9375"/><line style="stroke:#000000;stroke-width:1;" x1="6" x2="6" y1="258.625" y2="283.5938"/><line style="stroke:#000000;stroke-width:1;" x1="321" x2="321" y1="258.625" y2="283.5938"/><line style="stroke:#000000;stroke-width:1;" x1="6" x2="6" y1="167.75" y2="192.7188"/><line style="stroke:#000000;stroke-width:1;" x1="321" x2="321" y1="167.75" y2="192.7188"/><line style="stroke:#000000;stroke-width:1;" x1="6" x2="6" y1="76.875" y2="101.8438"/><line style="stroke:#000000;stroke-width:1;" x1="321" x2="321" y1="76.875" y2="101.8438"/><line style="stroke:#000000;stroke-width:1;" x1="6" x2="6" y1="233.6563" y2="258.625"/><line style="stroke:#000000;stroke-width:1;" x1="321" x2="321" y1="233.6563" y2="258.625"/><line style="stroke:#000000;stroke-width:1;" x1="6" x2="6" y1="151.7813" y2="167.75"/><line style="stroke:#000000;stroke-width:1;" x1="321" x2="321" y1="151.7813" y2="167.75"/><line style="stroke:#000000;stroke-width:1;" x1="6" x2="6" y1="51.9063" y2="76.875"/><line style="stroke:#000000;stroke-width:1;" x1="321" x2="321" y1="51.9063" y2="76.875"/><line style="stroke:#000000;stroke-width:1;" x1="6" x2="6" y1="208.6875" y2="233.6563"/><line style="stroke:#000000;stroke-width:1;" x1="321" x2="321" y1="208.6875" y2="233.6563"/><line style="stroke:#000000;stroke-width:1;" x1="6" x2="6" y1="126.8125" y2="151.7813"/><line style="stroke:#000000;stroke-width:1;" x1="321" x2="321" y1="126.8125" y2="151.7813"/><line style="stroke:#000000;stroke-width:1;" x1="6" x2="6" y1="35.9375" y2="51.9063"/><line style="stroke:#000000;stroke-width:1;" x1="321" x2="321" y1="35.9375" y2="51.9063"/><line style="stroke:#000000;stroke-width:1;" x1="6" x2="6" y1="283.5938" y2="299.5625"/><line style="stroke:#000000;stroke-width:1;" x1="321" x2="321" y1="283.5938" y2="299.5625"/><line style="stroke:#000000;stroke-width:1;" x1="6" x2="6" y1="192.7188" y2="208.6875"/><line style="stroke:#000000;stroke-width:1;" x1="321" x2="321" y1="192.7188" y2="208.6875"/><line style="stroke:#000000;stroke-width:1;" x1="6" x2="6" y1="101.8438" y2="126.8125"/><line style="stroke:#000000;stroke-width:1;" x1="321" x2="321" y1="101.8438" y2="126.8125"/><rect fill="#FFFFFF" height="13.9688" style="stroke:#FFFFFF;stroke-width:1;" width="95.7363" x="12" y="6"/><text fill="#000000" font-family="sans-serif" font-size="12" lengthAdjust="spacing" textLength="88.1074" x="15.8145" y="17.1387">Men&#250; Principal</text><line style="stroke:#AAAAAA;stroke-width:1;" x1="6" x2="322" y1="318.0313" y2="318.0313"/><line style="stroke:#AAAAAA;stroke-width:1;" x1="6" x2="322" y1="320.0313" y2="320.0313"/><text fill="#000000" font-family="sans-serif" font-size="12" lengthAdjust="spacing" textLength="103.7168" x="6" y="334.6699">Usuario: Docente</text><line style="stroke:#AAAAAA;stroke-width:1;" x1="6" x2="322" y1="342" y2="342"/><line style="stroke:#AAAAAA;stroke-width:1;" x1="6" x2="322" y1="344" y2="344"/><!--SRC=[bL9DIoD14BtthoWywO1X4hAo3Ype9Z4OCsimYPV5XNAc71fwgaD_11Vnn_WRzkOrVyoQ0NMHwAxlq1HTzQhhrUiZ7z05ZoQeEmM2kryxa1Dl7c7cD1TwXGPssao3pakK96FoGM_-C9G4GmpMGuvovQnFafUodssLPNGmTbXAqLPSRICSUrqnXkZG_oV1n9hVUM8hOUQeYXpGVqX8afCecn26qIMMv67aLrHeDFH6AfEJhgFRpKCjyJ-r9ibS-q0r_jtbj5vP9wR0mFADhaHzypICZRqMAxR86Tr-aZ0Wrumv9z_QznwkthX-tvxV16smz16TjXaCRK4Sw3Lxhuw8o_PFgPb13ijy2cjolXchs-cblI-TRhgxY0G_x1hIFdJJh9Tc_KF8vmjeydjgTpoRWhVH5GIbRCdfwzYujgSck4Qu4DjqJHcShuWdmxFd2nZnMZlBil-W9fVvQy51V_-x3gBQoIXmcQiXtM0qGHY5BJLN6ImN9_jVrHIvYbX9Rs8riDBN_Sw0ep5F]--></g></svg>