<svg xmlns="http://www.w3.org/2000/svg" xmlns:xlink="http://www.w3.org/1999/xlink" contentStyleType="text/css" data-diagram-type="STATE" height="761px" preserveAspectRatio="none" style="width:1261px;height:761px;background:#FFFFFF;" version="1.1" viewBox="0 0 1261 761" width="1261px" zoomAndPan="magnify"><defs/><g><path d="M355.5,118 L670.5,118 A12.5,12.5 0 0 1 683,130.5 L683,144.2969 L343,144.2969 L343,130.5 A12.5,12.5 0 0 1 355.5,118" fill="#F1F1F1"/><rect fill="none" height="492.2969" rx="12.5" ry="12.5" style="stroke:#181818;stroke-width:0.5;" width="340" x="343" y="118"/><line style="stroke:#181818;stroke-width:0.5;" x1="343" x2="683" y1="144.2969" y2="144.2969"/><text fill="#000000" font-family="sans-serif" font-size="14" lengthAdjust="spacing" textLength="114.2422" x="455.8789" y="135.9951">verRespuestas()</text><g id="verRespuestas.MostrandoRespuestas"><rect fill="#F1F1F1" height="50" rx="12.5" ry="12.5" style="stroke:#181818;stroke-width:0.5;" width="50" x="355" y="246.2969"/><line style="stroke:#181818;stroke-width:0.5;" x1="355" x2="405" y1="272.5938" y2="272.5938"/><text fill="#000000" font-family="sans-serif" font-size="14" lengthAdjust="spacing" textLength="4.4502" x="377.7749" y="264.292">&#160;</text></g><g id="verRespuestas.FiltrandoRespuestas"><rect fill="#F1F1F1" height="50" rx="12.5" ry="12.5" style="stroke:#181818;stroke-width:0.5;" width="50" x="355" y="457.2969"/><line style="stroke:#181818;stroke-width:0.5;" x1="355" x2="405" y1="483.5938" y2="483.5938"/><text fill="#000000" font-family="sans-serif" font-size="14" lengthAdjust="spacing" textLength="4.4502" x="377.7749" y="475.292">&#160;</text></g><ellipse cx="380" cy="165.2969" fill="#222222" rx="10" ry="10" style="stroke:#222222;stroke-width:1;"/><ellipse cx="380" cy="589.2969" fill="none" rx="11" ry="11" style="stroke:#222222;stroke-width:1;"/><ellipse cx="380" cy="589.2969" fill="#222222" rx="6" ry="6" style="stroke:#222222;stroke-width:1;"/><!--link *start*verRespuestas to MostrandoRespuestas--><g class="link" data-entity-1=".start.verRespuestas" data-entity-2="MostrandoRespuestas" data-source-line="8" data-uid="lnk3" id="link_.start.verRespuestas_MostrandoRespuestas"><path d="M380,175.5269 C380,191.2369 380,217.6569 380,240.1669" fill="none" id="*start*verRespuestas-to-MostrandoRespuestas" style="stroke:#008000;stroke-width:1;"/><polygon fill="#008000" points="380,246.1669,384,237.1669,380,241.1669,376,237.1669,380,246.1669" style="stroke:#008000;stroke-width:1;"/><path d="M385,198.2969 L385,223.2969 L616,223.2969 L616,208.2969 L606,198.2969 L385,198.2969" fill="#FEFFDD" style="stroke:#181818;stroke-width:0.5;"/><path d="M606,198.2969 L606,208.2969 L616,208.2969 L606,198.2969" fill="#FEFFDD" style="stroke:#181818;stroke-width:0.5;"/><text fill="#000000" font-family="sans-serif" font-size="13" font-weight="bold" lengthAdjust="spacing" textLength="60.5313" x="391" y="215.3638">Docente</text><text fill="#000000" font-family="sans-serif" font-size="13" lengthAdjust="spacing" textLength="146.2881" x="455.6636" y="215.3638">solicita ver respuestas</text></g><!--link MostrandoRespuestas to FiltrandoRespuestas--><g class="link" data-entity-1="MostrandoRespuestas" data-entity-2="FiltrandoRespuestas" data-source-line="13" data-uid="lnk4" id="link_MostrandoRespuestas_FiltrandoRespuestas"><path d="M380,296.6769 C380,336.9569 380,410.8969 380,451.0669" fill="none" id="MostrandoRespuestas-to-FiltrandoRespuestas" style="stroke:#008000;stroke-width:1;"/><polygon fill="#008000" points="380,457.0669,384,448.0669,380,452.0669,376,448.0669,380,457.0669" style="stroke:#008000;stroke-width:1;"/><path d="M385,319.2969 L385,434.2969 L674,434.2969 L674,329.2969 L664,319.2969 L385,319.2969" fill="#FEFFDD" style="stroke:#181818;stroke-width:0.5;"/><path d="M664,319.2969 L664,329.2969 L674,329.2969 L664,319.2969" fill="#FEFFDD" style="stroke:#181818;stroke-width:0.5;"/><text fill="#000000" font-family="sans-serif" font-size="13" font-weight="bold" lengthAdjust="spacing" textLength="58.9063" x="391" y="336.3638">Sistema</text><text fill="#000000" font-family="sans-serif" font-size="13" lengthAdjust="spacing" textLength="184.5898" x="454.0386" y="336.3638">presenta lista de respuestas</text><text fill="#000000" font-family="sans-serif" font-size="13" lengthAdjust="spacing" textLength="210.6914" x="391" y="351.4966">&#8226; Contenido, correcto/incorrecto</text><text fill="#000000" font-family="sans-serif" font-size="13" lengthAdjust="spacing" textLength="4.1323" x="391" y="366.6294">&#160;</text><text fill="#000000" font-family="sans-serif" font-size="13" lengthAdjust="spacing" textLength="188.481" x="391" y="381.7622">&#8226; Permite solicitar filtrar lista</text><text fill="#000000" font-family="sans-serif" font-size="13" lengthAdjust="spacing" textLength="268.3789" x="391" y="396.895">&#8226; Permite solicitar crear respuesta nueva</text><text fill="#000000" font-family="sans-serif" font-size="13" lengthAdjust="spacing" textLength="243.3564" x="391" y="412.0278">&#8226; Permite solicitar eliminar respuesta</text><text fill="#000000" font-family="sans-serif" font-size="13" lengthAdjust="spacing" textLength="228.5791" x="391" y="427.1606">&#8226; Permite solicitar editar respuesta</text></g><!--link FiltrandoRespuestas to FiltrandoRespuestas--><g class="link" data-entity-1="FiltrandoRespuestas" data-entity-2="FiltrandoRespuestas" data-source-line="24" data-uid="lnk5" id="link_FiltrandoRespuestas_FiltrandoRespuestas"><path d="M405.18,470.9969 C414.91,470.4969 423,474.2569 423,482.2969 C423,490.3369 420.9021,494.4048 411.1721,493.9048" fill="none" id="FiltrandoRespuestas-to-FiltrandoRespuestas" style="stroke:#008000;stroke-width:1;"/><polygon fill="#008000" points="405.18,493.5969,413.9629,498.0535,410.1734,493.8535,414.3734,490.064,405.18,493.5969" style="stroke:#008000;stroke-width:1;"/><path d="M428,462.2969 L428,502.2969 L651,502.2969 L651,472.2969 L641,462.2969 L428,462.2969" fill="#FEFFDD" style="stroke:#181818;stroke-width:0.5;"/><path d="M641,462.2969 L641,472.2969 L651,472.2969 L641,462.2969" fill="#FEFFDD" style="stroke:#181818;stroke-width:0.5;"/><text fill="#000000" font-family="sans-serif" font-size="13" font-weight="bold" lengthAdjust="spacing" textLength="60.5313" x="434" y="479.3638">Docente</text><text fill="#000000" font-family="sans-serif" font-size="13" lengthAdjust="spacing" textLength="116.6509" x="498.6636" y="479.3638">solicita filtrar lista</text><text fill="#000000" font-family="sans-serif" font-size="13" font-weight="bold" lengthAdjust="spacing" textLength="58.9063" x="434" y="494.4966">Sistema</text><text fill="#000000" font-family="sans-serif" font-size="13" lengthAdjust="spacing" textLength="139.4199" x="497.0386" y="494.4966">presenta lista filtrada</text></g><!--link FiltrandoRespuestas to *end*verRespuestas--><g class="link" data-entity-1="FiltrandoRespuestas" data-entity-2=".end.verRespuestas" data-source-line="30" data-uid="lnk7" id="link_FiltrandoRespuestas_.end.verRespuestas"><path d="M380,507.6469 C380,529.9469 380,555.8569 380,572.0369" fill="none" id="FiltrandoRespuestas-to-*end*verRespuestas" style="stroke:#008000;stroke-width:1;"/><polygon fill="#008000" points="380,578.0369,384,569.0369,380,573.0369,376,569.0369,380,578.0369" style="stroke:#008000;stroke-width:1;"/><path d="M385,530.2969 L385,555.2969 L649,555.2969 L649,540.2969 L639,530.2969 L385,530.2969" fill="#FEFFDD" style="stroke:#181818;stroke-width:0.5;"/><path d="M639,530.2969 L639,540.2969 L649,540.2969 L639,530.2969" fill="#FEFFDD" style="stroke:#181818;stroke-width:0.5;"/><text fill="#000000" font-family="sans-serif" font-size="13" font-weight="bold" lengthAdjust="spacing" textLength="60.5313" x="391" y="547.3638">Docente</text><text fill="#000000" font-family="sans-serif" font-size="13" lengthAdjust="spacing" textLength="179.2769" x="455.6636" y="547.3638">solicita una de las opciones</text></g><g id="PREGUNTA_ABIERTO"><rect fill="#F1F1F1" height="50" rx="12.5" ry="12.5" style="stroke:#181818;stroke-width:0.5;" width="165.168" x="305.42" y="7"/><line style="stroke:#181818;stroke-width:0.5;" x1="305.42" x2="470.588" y1="33.2969" y2="33.2969"/><text fill="#000000" font-family="sans-serif" font-size="14" lengthAdjust="spacing" textLength="145.168" x="315.42" y="24.9951">PREGUNTA_ABIERTO</text></g><g id="RESPUESTA_ABIERTO"><rect fill="#F1F1F1" height="50" rx="12.5" ry="12.5" style="stroke:#181818;stroke-width:0.5;" width="170.4658" x="110.77" y="705.3"/><line style="stroke:#181818;stroke-width:0.5;" x1="110.77" x2="281.2358" y1="731.5969" y2="731.5969"/><text fill="#000000" font-family="sans-serif" font-size="14" lengthAdjust="spacing" textLength="150.4658" x="120.77" y="723.2951">RESPUESTA_ABIERTO</text></g><g id="PREGUNTA_CONTEXTUAL_ABIERTO"><rect fill="#F1F1F1" height="50" rx="12.5" ry="12.5" style="stroke:#181818;stroke-width:0.5;" width="266.5996" x="505.7" y="7"/><line style="stroke:#181818;stroke-width:0.5;" x1="505.7" x2="772.2996" y1="33.2969" y2="33.2969"/><text fill="#000000" font-family="sans-serif" font-size="14" lengthAdjust="spacing" textLength="246.5996" x="515.7" y="24.9951">PREGUNTA_CONTEXTUAL_ABIERTO</text></g><g id="RESPUESTA_CONTEXTUAL_ABIERTO"><rect fill="#F1F1F1" height="50" rx="12.5" ry="12.5" style="stroke:#181818;stroke-width:0.5;" width="271.8975" x="434.05" y="705.3"/><line style="stroke:#181818;stroke-width:0.5;" x1="434.05" x2="705.9475" y1="731.5969" y2="731.5969"/><text fill="#000000" font-family="sans-serif" font-size="14" lengthAdjust="spacing" textLength="251.8975" x="444.05" y="723.2951">RESPUESTA_CONTEXTUAL_ABIERTO</text></g><g id="RESPUESTAS_ABIERTO"><rect fill="#F1F1F1" height="50" rx="12.5" ry="12.5" style="stroke:#181818;stroke-width:0.5;" width="179.3525" x="741.32" y="705.3"/><line style="stroke:#181818;stroke-width:0.5;" x1="741.32" x2="920.6725" y1="731.5969" y2="731.5969"/><text fill="#000000" font-family="sans-serif" font-size="14" lengthAdjust="spacing" textLength="159.3525" x="751.32" y="723.2951">RESPUESTAS_ABIERTO</text></g><g id="RESPUESTAS_CONTEXTUALES_ABIERTO"><rect fill="#F1F1F1" height="50" rx="12.5" ry="12.5" style="stroke:#181818;stroke-width:0.5;" width="298.5166" x="955.74" y="705.3"/><line style="stroke:#181818;stroke-width:0.5;" x1="955.74" x2="1254.2566" y1="731.5969" y2="731.5969"/><text fill="#000000" font-family="sans-serif" font-size="14" lengthAdjust="spacing" textLength="278.5166" x="965.74" y="723.2951">RESPUESTAS_CONTEXTUALES_ABIERTO</text></g><!--link PREGUNTA_ABIERTO to verRespuestas--><g class="link" data-entity-1="PREGUNTA_ABIERTO" data-entity-2="verRespuestas" data-source-line="36" data-uid="lnk9" id="link_PREGUNTA_ABIERTO_verRespuestas"><path d="M397.19,57.28 C402.91,72.39 408.7945,87.9291 417.9545,112.1091" fill="none" id="PREGUNTA_ABIERTO-to-verRespuestas" style="stroke:#008000;stroke-width:1;"/><polygon fill="#008000" points="420.08,117.72,420.6323,107.8866,418.3087,113.0443,413.1511,110.7207,420.08,117.72" style="stroke:#008000;stroke-width:1;"/></g><!--link RESPUESTA_ABIERTO to verRespuestas--><g class="link" data-entity-1="RESPUESTA_ABIERTO" data-entity-2="verRespuestas" data-source-line="37" data-uid="lnk11" id="link_RESPUESTA_ABIERTO_verRespuestas"><path d="M261.26,704.83 C299.36,690.54 340,675.3 340,675.3 C340,675.3 352.0269,653.7398 373.1369,615.8998" fill="none" id="RESPUESTA_ABIERTO-to-verRespuestas" style="stroke:#008000;stroke-width:1;"/><polygon fill="#008000" points="376.06,610.66,368.1821,616.5709,373.624,615.0265,375.1685,620.4684,376.06,610.66" style="stroke:#008000;stroke-width:1;"/></g><!--link verRespuestas to RESPUESTA_ABIERTO--><g class="link" data-entity-1="verRespuestas" data-entity-2="RESPUESTA_ABIERTO" data-source-line="41" data-uid="lnk16" id="link_verRespuestas_RESPUESTA_ABIERTO"><path d="M342.77,457.54 C195.48,537.47 6,640.3 6,640.3 C6,640.3 6,675.3 6,675.3 C6,675.3 54.2488,689.0089 104.6788,703.3489" fill="none" id="verRespuestas-to-RESPUESTA_ABIERTO" style="stroke:#008000;stroke-width:1;"/><polygon fill="#008000" points="110.45,704.99,102.8872,698.6809,105.6407,703.6224,100.6991,706.3759,110.45,704.99" style="stroke:#008000;stroke-width:1;"/><path d="M11,645.3 L11,670.3 L148,670.3 L148,655.3 L138,645.3 L11,645.3" fill="#FEFFDD" style="stroke:#181818;stroke-width:0.5;"/><path d="M138,645.3 L138,655.3 L148,655.3 L138,645.3" fill="#FEFFDD" style="stroke:#181818;stroke-width:0.5;"/><text fill="#000000" font-family="sans-serif" font-size="13" lengthAdjust="spacing" textLength="116.543" x="17" y="662.3669">editarRespuesta()</text></g><!--link verRespuestas to RESPUESTA_ABIERTO--><g class="link" data-entity-1="verRespuestas" data-entity-2="RESPUESTA_ABIERTO" data-source-line="51" data-uid="lnk18" id="link_verRespuestas_RESPUESTA_ABIERTO"><path d="M342.93,509.58 C264.71,576 189,640.3 189,640.3 C189,640.3 189,675.3 189,675.3 C189,675.3 190.2097,684.5897 192.0597,698.8797" fill="none" id="verRespuestas-to-RESPUESTA_ABIERTO-1" style="stroke:#008000;stroke-width:1;"/><polygon fill="#008000" points="192.83,704.83,195.6414,695.3909,192.1881,699.8714,187.7076,696.418,192.83,704.83" style="stroke:#008000;stroke-width:1;"/><path d="M194,645.3 L194,670.3 L327,670.3 L327,655.3 L317,645.3 L194,645.3" fill="#FEFFDD" style="stroke:#181818;stroke-width:0.5;"/><path d="M317,645.3 L317,655.3 L327,655.3 L317,645.3" fill="#FEFFDD" style="stroke:#181818;stroke-width:0.5;"/><text fill="#000000" font-family="sans-serif" font-size="13" lengthAdjust="spacing" textLength="112.0742" x="200" y="662.3669">crearRespuesta()</text></g><!--link PREGUNTA_CONTEXTUAL_ABIERTO to verRespuestas--><g class="link" data-entity-1="PREGUNTA_CONTEXTUAL_ABIERTO" data-entity-2="verRespuestas" data-source-line="38" data-uid="lnk13" id="link_PREGUNTA_CONTEXTUAL_ABIERTO_verRespuestas"><path d="M629.73,57.28 C623.97,72.39 618.0397,87.9345 608.8097,112.1145" fill="none" id="PREGUNTA_CONTEXTUAL_ABIERTO-to-verRespuestas" style="stroke:#008000;stroke-width:1;"/><polygon fill="#008000" points="606.67,117.72,613.6166,110.7382,608.4531,113.0488,606.1426,107.8853,606.67,117.72" style="stroke:#008000;stroke-width:1;"/></g><!--link RESPUESTA_CONTEXTUAL_ABIERTO to verRespuestas--><g class="link" data-entity-1="RESPUESTA_CONTEXTUAL_ABIERTO" data-entity-2="verRespuestas" data-source-line="39" data-uid="lnk15" id="link_RESPUESTA_CONTEXTUAL_ABIERTO_verRespuestas"><path d="M652.03,704.83 C699.92,690.54 751,675.3 751,675.3 C751,675.3 751,640.3 751,640.3 C751,640.3 725.5049,610.8282 687.3649,566.7282" fill="none" id="RESPUESTA_CONTEXTUAL_ABIERTO-to-verRespuestas" style="stroke:#008000;stroke-width:1;"/><polygon fill="#008000" points="683.44,562.19,686.3018,571.6139,686.7107,565.9718,692.3528,566.3807,683.44,562.19" style="stroke:#008000;stroke-width:1;"/></g><!--link verRespuestas to RESPUESTA_CONTEXTUAL_ABIERTO--><g class="link" data-entity-1="verRespuestas" data-entity-2="RESPUESTA_CONTEXTUAL_ABIERTO" data-source-line="46" data-uid="lnk17" id="link_verRespuestas_RESPUESTA_CONTEXTUAL_ABIERTO"><path d="M427.36,610.59 C421,628.84 417,640.3 417,640.3 C417,640.3 417,675.3 417,675.3 C417,675.3 454.5222,688.5427 495.0022,702.8327" fill="none" id="verRespuestas-to-RESPUESTA_CONTEXTUAL_ABIERTO" style="stroke:#008000;stroke-width:1;"/><polygon fill="#008000" points="500.66,704.83,493.5048,698.0622,495.9452,703.1656,490.8418,705.6059,500.66,704.83" style="stroke:#008000;stroke-width:1;"/><path d="M422,645.3 L422,670.3 L559,670.3 L559,655.3 L549,645.3 L422,645.3" fill="#FEFFDD" style="stroke:#181818;stroke-width:0.5;"/><path d="M549,645.3 L549,655.3 L559,655.3 L549,645.3" fill="#FEFFDD" style="stroke:#181818;stroke-width:0.5;"/><text fill="#000000" font-family="sans-serif" font-size="13" lengthAdjust="spacing" textLength="116.543" x="428" y="662.3669">editarRespuesta()</text></g><!--link verRespuestas to RESPUESTA_CONTEXTUAL_ABIERTO--><g class="link" data-entity-1="verRespuestas" data-entity-2="RESPUESTA_CONTEXTUAL_ABIERTO" data-source-line="56" data-uid="lnk19" id="link_verRespuestas_RESPUESTA_CONTEXTUAL_ABIERTO"><path d="M562.06,610.59 C565.71,628.84 568,640.3 568,640.3 C568,640.3 568.7257,672.6315 569.3157,698.9815" fill="none" id="verRespuestas-to-RESPUESTA_CONTEXTUAL_ABIERTO-1" style="stroke:#008000;stroke-width:1;"/><polygon fill="#008000" points="569.45,704.98,573.2475,695.8927,569.3381,699.9813,565.2495,696.0718,569.45,704.98" style="stroke:#008000;stroke-width:1;"/><path d="M574,645.3 L574,670.3 L707,670.3 L707,655.3 L697,645.3 L574,645.3" fill="#FEFFDD" style="stroke:#181818;stroke-width:0.5;"/><path d="M697,645.3 L697,655.3 L707,655.3 L697,645.3" fill="#FEFFDD" style="stroke:#181818;stroke-width:0.5;"/><text fill="#000000" font-family="sans-serif" font-size="13" lengthAdjust="spacing" textLength="112.0742" x="580" y="662.3669">crearRespuesta()</text></g><!--link verRespuestas to RESPUESTAS_ABIERTO--><g class="link" data-entity-1="verRespuestas" data-entity-2="RESPUESTAS_ABIERTO" data-source-line="61" data-uid="lnk21" id="link_verRespuestas_RESPUESTAS_ABIERTO"><path d="M683.18,542.52 C734.26,595.76 777,640.3 777,640.3 C777,640.3 797.1487,673.4997 813.1287,699.8497" fill="none" id="verRespuestas-to-RESPUESTAS_ABIERTO" style="stroke:#008000;stroke-width:1;"/><polygon fill="#008000" points="816.24,704.98,814.9933,695.2104,813.6473,700.7048,808.1529,699.3587,816.24,704.98" style="stroke:#008000;stroke-width:1;"/><path d="M802,645.3 L802,670.3 L954,670.3 L954,655.3 L944,645.3 L802,645.3" fill="#FEFFDD" style="stroke:#181818;stroke-width:0.5;"/><path d="M944,645.3 L944,655.3 L954,655.3 L944,645.3" fill="#FEFFDD" style="stroke:#181818;stroke-width:0.5;"/><text fill="#000000" font-family="sans-serif" font-size="13" lengthAdjust="spacing" textLength="131.3203" x="808" y="662.3669">eliminarRespuesta()</text></g><!--link verRespuestas to RESPUESTAS_CONTEXTUALES_ABIERTO--><g class="link" data-entity-1="verRespuestas" data-entity-2="RESPUESTAS_CONTEXTUALES_ABIERTO" data-source-line="66" data-uid="lnk23" id="link_verRespuestas_RESPUESTAS_CONTEXTUALES_ABIERTO"><path d="M683.34,468.39 C812.17,546.46 967,640.3 967,640.3 C967,640.3 1021.3876,675.3782 1062.2476,701.7282" fill="none" id="verRespuestas-to-RESPUESTAS_CONTEXTUALES_ABIERTO" style="stroke:#008000;stroke-width:1;"/><polygon fill="#008000" points="1067.29,704.98,1061.8942,696.7407,1063.088,702.2702,1057.5585,703.4639,1067.29,704.98" style="stroke:#008000;stroke-width:1;"/><path d="M1024,645.3 L1024,670.3 L1176,670.3 L1176,655.3 L1166,645.3 L1024,645.3" fill="#FEFFDD" style="stroke:#181818;stroke-width:0.5;"/><path d="M1166,645.3 L1166,655.3 L1176,655.3 L1166,645.3" fill="#FEFFDD" style="stroke:#181818;stroke-width:0.5;"/><text fill="#000000" font-family="sans-serif" font-size="13" lengthAdjust="spacing" textLength="131.3203" x="1030" y="662.3669">eliminarRespuesta()</text></g><!--SRC=[jPJjQeCm58R_vof2zwSTAxs1KkWwDmPRMzJ2e9IHwja8rKHYMYXZi6lPfUrATjHLpRJIZosAcl2UzpmvIOnNN4HCiP06N83UHa0Z6MoJ3Y6nPXhe1fGDSRG6xCOKxvOnqkwqw1iX55kcR-65gaSPQyM4BmjfLNJBWueeLSql5xGxltXL06BH7Unr4nBDf4ZeL-b0VpcuaHu83VtUSa1Z6N2FQvRCWYep5eIVnMCZ-QCcaq5IXxoFnE6nXf2b915cHoo60eoXFlp6-Vhuf2E9u8BxyefwKYdmjEnniVii81Fj55J8CUTkYeg-f6Wgoz2WynImKZMeMCEcIGy13xaeXpI9_VHbIdUbBcPGKyQJoroxuDLYD2z8flTFvSKDUnpVMgIR840V6NbS2Z1t9NadP6fRTxEnEtmUNjzRjZinCXgdaDYMCvrPpa7Qt7Oq6RlMapiRFXoLuQWmOlu_oi8ACp6gb-saFBRT8Nbj3ZAjOlwjVwrfUhR-Z_ayUsTF8NxEznc-1RTrGf9l]--></g></svg>