<svg xmlns="http://www.w3.org/2000/svg" xmlns:xlink="http://www.w3.org/1999/xlink" contentStyleType="text/css" data-diagram-type="DESCRIPTION" height="669px" preserveAspectRatio="none" style="width:703px;height:669px;background:#FFFFFF;" version="1.1" viewBox="0 0 703 669" width="703px" zoomAndPan="magnify"><defs/><g><!--cluster M?dulo Grado--><g class="cluster" data-entity="M.dulo Grado" data-source-line="5" data-uid="ent0003" id="cluster_M.dulo Grado"><path d="M239.5,41 L350.8115,41 A3.75,3.75 0 0 1 353.3115,43.5 L360.3115,63.2969 L409.5,63.2969 A2.5,2.5 0 0 1 412,65.7969 L412,318.5 A2.5,2.5 0 0 1 409.5,321 L239.5,321 A2.5,2.5 0 0 1 237,318.5 L237,43.5 A2.5,2.5 0 0 1 239.5,41" fill="none" style="stroke:#000000;stroke-width:1.5;"/><line style="stroke:#000000;stroke-width:1.5;" x1="237" x2="360.3115" y1="63.2969" y2="63.2969"/><text fill="#000000" font-family="sans-serif" font-size="14" font-weight="bold" lengthAdjust="spacing" textLength="110.3115" x="241" y="55.9951">M&#243;dulo Grado</text></g><!--cluster M?dulo Asignatura--><g class="cluster" data-entity="M.dulo Asignatura" data-source-line="12" data-uid="ent0008" id="cluster_M.dulo Asignatura"><path d="M8.5,6 L158.7422,6 A3.75,3.75 0 0 1 161.2422,8.5 L168.2422,28.2969 L206.5,28.2969 A2.5,2.5 0 0 1 209,30.7969 L209,305.5 A2.5,2.5 0 0 1 206.5,308 L8.5,308 A2.5,2.5 0 0 1 6,305.5 L6,8.5 A2.5,2.5 0 0 1 8.5,6" fill="none" style="stroke:#000000;stroke-width:1.5;"/><line style="stroke:#000000;stroke-width:1.5;" x1="6" x2="168.2422" y1="28.2969" y2="28.2969"/><text fill="#000000" font-family="sans-serif" font-size="14" font-weight="bold" lengthAdjust="spacing" textLength="149.2422" x="10" y="20.9951">M&#243;dulo Asignatura</text></g><!--cluster M?dulo Alumno--><g class="cluster" data-entity="M.dulo Alumno" data-source-line="19" data-uid="ent0013" id="cluster_M.dulo Alumno"><path d="M18,332 L141.6025,332 A3.75,3.75 0 0 1 144.1025,334.5 L151.1025,354.2969 L197,354.2969 A2.5,2.5 0 0 1 199.5,356.7969 L199.5,617.5 A2.5,2.5 0 0 1 197,620 L18,620 A2.5,2.5 0 0 1 15.5,617.5 L15.5,334.5 A2.5,2.5 0 0 1 18,332" fill="none" style="stroke:#000000;stroke-width:1.5;"/><line style="stroke:#000000;stroke-width:1.5;" x1="15.5" x2="151.1025" y1="354.2969" y2="354.2969"/><text fill="#000000" font-family="sans-serif" font-size="14" font-weight="bold" lengthAdjust="spacing" textLength="122.6025" x="19.5" y="346.9951">M&#243;dulo Alumno</text></g><!--cluster M?dulo Preguntas-Respuestas--><g class="cluster" data-entity="M.dulo Preguntas-Respuestas" data-source-line="26" data-uid="ent0018" id="cluster_M.dulo Preguntas-Respuestas"><path d="M442.5,84 L684.125,84 A3.75,3.75 0 0 1 686.625,86.5 L693.625,106.2969 L693.5,106.2969 A2.5,2.5 0 0 1 696,108.7969 L696,659.5 A2.5,2.5 0 0 1 693.5,662 L442.5,662 A2.5,2.5 0 0 1 440,659.5 L440,86.5 A2.5,2.5 0 0 1 442.5,84" fill="none" style="stroke:#000000;stroke-width:1.5;"/><line style="stroke:#000000;stroke-width:1.5;" x1="440" x2="693.625" y1="106.2969" y2="106.2969"/><text fill="#000000" font-family="sans-serif" font-size="14" font-weight="bold" lengthAdjust="spacing" textLength="240.625" x="444" y="98.9951">M&#243;dulo Preguntas-Respuestas</text></g><!--entity UC1--><g class="entity" data-entity="UC1" data-source-line="6" data-uid="ent0004" id="entity_UC1"><ellipse cx="324.6891" cy="91.1378" fill="#F1F1F1" rx="63.6891" ry="15.1378" style="stroke:#181818;stroke-width:0.5;"/><text fill="#000000" font-family="sans-serif" font-size="14" lengthAdjust="spacing" textLength="89.9609" x="279.7086" y="95.7863">crearGrado()</text></g><!--entity UC2--><g class="entity" data-entity="UC2" data-source-line="7" data-uid="ent0005" id="entity_UC2"><ellipse cx="324.3379" cy="156.1676" fill="#F1F1F1" rx="61.3379" ry="14.6676" style="stroke:#181818;stroke-width:0.5;"/><text fill="#000000" font-family="sans-serif" font-size="14" lengthAdjust="spacing" textLength="83.5078" x="282.584" y="160.816">verGrados()</text></g><!--entity UC3--><g class="entity" data-entity="UC3" data-source-line="8" data-uid="ent0006" id="entity_UC3"><ellipse cx="324.4934" cy="220.9987" fill="#F1F1F1" rx="65.4934" ry="15.4987" style="stroke:#181818;stroke-width:0.5;"/><text fill="#000000" font-family="sans-serif" font-size="14" lengthAdjust="spacing" textLength="94.7734" x="277.1067" y="225.6471">editarGrado()</text></g><!--entity UC4--><g class="entity" data-entity="UC4" data-source-line="9" data-uid="ent0007" id="entity_UC4"><ellipse cx="324.723" cy="288.2446" fill="#F1F1F1" rx="71.723" ry="16.7446" style="stroke:#181818;stroke-width:0.5;"/><text fill="#000000" font-family="sans-serif" font-size="14" lengthAdjust="spacing" textLength="110.6875" x="269.3793" y="292.893">eliminarGrado()</text></g><!--entity UC5--><g class="entity" data-entity="UC5" data-source-line="13" data-uid="ent0009" id="entity_UC5"><ellipse cx="107.322" cy="273.7644" fill="#F1F1F1" rx="76.822" ry="17.7644" style="stroke:#181818;stroke-width:0.5;"/><text fill="#000000" font-family="sans-serif" font-size="14" lengthAdjust="spacing" textLength="123.1221" x="45.761" y="278.4128">crearAsignatura()</text></g><!--entity UC6--><g class="entity" data-entity="UC6" data-source-line="14" data-uid="ent0010" id="entity_UC6"><ellipse cx="107.6536" cy="204.2307" fill="#F1F1F1" rx="74.1536" ry="17.2307" style="stroke:#181818;stroke-width:0.5;"/><text fill="#000000" font-family="sans-serif" font-size="14" lengthAdjust="spacing" textLength="116.6689" x="49.3191" y="208.8792">verAsignaturas()</text></g><!--entity UC7--><g class="entity" data-entity="UC7" data-source-line="15" data-uid="ent0011" id="entity_UC7"><ellipse cx="107.3402" cy="134.168" fill="#F1F1F1" rx="78.8402" ry="18.168" style="stroke:#181818;stroke-width:0.5;"/><text fill="#000000" font-family="sans-serif" font-size="14" lengthAdjust="spacing" textLength="127.9346" x="43.3729" y="138.8165">editarAsignatura()</text></g><!--entity UC8--><g class="entity" data-entity="UC8" data-source-line="16" data-uid="ent0012" id="entity_UC8"><ellipse cx="107.6622" cy="61.0324" fill="#F1F1F1" rx="85.6622" ry="19.5324" style="stroke:#181818;stroke-width:0.5;"/><text fill="#000000" font-family="sans-serif" font-size="14" lengthAdjust="spacing" textLength="143.8486" x="35.7378" y="65.6809">eliminarAsignatura()</text></g><!--entity UC9--><g class="entity" data-entity="UC9" data-source-line="20" data-uid="ent0014" id="entity_UC9"><ellipse cx="107.2852" cy="587.957" fill="#F1F1F1" rx="67.7852" ry="15.957" style="stroke:#181818;stroke-width:0.5;"/><text fill="#000000" font-family="sans-serif" font-size="14" lengthAdjust="spacing" textLength="100.7412" x="56.9146" y="592.6055">crearAlumno()</text></g><!--entity UC10--><g class="entity" data-entity="UC10" data-source-line="21" data-uid="ent0015" id="entity_UC10"><ellipse cx="107.3096" cy="520.9619" fill="#F1F1F1" rx="65.3096" ry="15.4619" style="stroke:#181818;stroke-width:0.5;"/><text fill="#000000" font-family="sans-serif" font-size="14" lengthAdjust="spacing" textLength="94.2881" x="60.1656" y="525.6104">verAlumnos()</text></g><!--entity UC11--><g class="entity" data-entity="UC11" data-source-line="22" data-uid="ent0016" id="entity_UC11"><ellipse cx="107.6733" cy="453.8347" fill="#F1F1F1" rx="69.6733" ry="16.3347" style="stroke:#181818;stroke-width:0.5;"/><text fill="#000000" font-family="sans-serif" font-size="14" lengthAdjust="spacing" textLength="105.5537" x="54.8964" y="458.4831">editarAlumno()</text></g><!--entity UC12--><g class="entity" data-entity="UC12" data-source-line="23" data-uid="ent0017" id="entity_UC12"><ellipse cx="107.6337" cy="385.1267" fill="#F1F1F1" rx="76.1337" ry="17.6267" style="stroke:#181818;stroke-width:0.5;"/><text fill="#000000" font-family="sans-serif" font-size="14" lengthAdjust="spacing" textLength="121.4678" x="46.8998" y="389.7752">eliminarAlumno()</text></g><!--entity UC20--><g class="entity" data-entity="UC20" data-source-line="27" data-uid="ent0019" id="entity_UC20"><ellipse cx="567.2836" cy="135.7567" fill="#F1F1F1" rx="71.7836" ry="16.7567" style="stroke:#181818;stroke-width:0.5;"/><text fill="#000000" font-family="sans-serif" font-size="14" lengthAdjust="spacing" textLength="110.8379" x="511.8647" y="140.4052">crearPregunta()</text></g><!--entity UC21--><g class="entity" data-entity="UC21" data-source-line="28" data-uid="ent0020" id="entity_UC21"><ellipse cx="567.7116" cy="204.2423" fill="#F1F1F1" rx="69.2116" ry="16.2423" style="stroke:#181818;stroke-width:0.5;"/><text fill="#000000" font-family="sans-serif" font-size="14" lengthAdjust="spacing" textLength="104.3848" x="515.5192" y="208.8907">verPreguntas()</text></g><!--entity UC22--><g class="entity" data-entity="UC22" data-source-line="29" data-uid="ent0021" id="entity_UC22"><ellipse cx="567.3464" cy="271.7693" fill="#F1F1F1" rx="69.3464" ry="16.2693" style="stroke:#181818;stroke-width:0.5;"/><text fill="#000000" font-family="sans-serif" font-size="14" lengthAdjust="spacing" textLength="104.7266" x="514.9831" y="276.4177">editarPregunta</text></g><!--entity UC23--><g class="entity" data-entity="UC23" data-source-line="30" data-uid="ent0022" id="entity_UC23"><ellipse cx="567.3772" cy="341.9754" fill="#F1F1F1" rx="80.3772" ry="18.4754" style="stroke:#181818;stroke-width:0.5;"/><text fill="#000000" font-family="sans-serif" font-size="14" lengthAdjust="spacing" textLength="131.5645" x="501.5949" y="346.6239">eliminarPregunta()</text></g><!--entity UC32--><g class="entity" data-entity="UC32" data-source-line="32" data-uid="ent0023" id="entity_UC32"><ellipse cx="567.3132" cy="413.0626" fill="#F1F1F1" rx="75.8132" ry="17.5626" style="stroke:#181818;stroke-width:0.5;"/><text fill="#000000" font-family="sans-serif" font-size="14" lengthAdjust="spacing" textLength="120.6953" x="506.9656" y="417.7111">crearRespuesta()</text></g><!--entity UC33--><g class="entity" data-entity="UC33" data-source-line="33" data-uid="ent0024" id="entity_UC33"><ellipse cx="567.6623" cy="483.0325" fill="#F1F1F1" rx="73.1623" ry="17.0325" style="stroke:#181818;stroke-width:0.5;"/><text fill="#000000" font-family="sans-serif" font-size="14" lengthAdjust="spacing" textLength="114.2422" x="510.5412" y="487.6809">verRespuestas()</text></g><!--entity UC34--><g class="entity" data-entity="UC34" data-source-line="34" data-uid="ent0025" id="entity_UC34"><ellipse cx="567.3196" cy="552.9639" fill="#F1F1F1" rx="77.8196" ry="17.9639" style="stroke:#181818;stroke-width:0.5;"/><text fill="#000000" font-family="sans-serif" font-size="14" lengthAdjust="spacing" textLength="125.5078" x="504.5657" y="557.6124">editarRespuesta()</text></g><!--entity UC35--><g class="entity" data-entity="UC35" data-source-line="35" data-uid="ent0026" id="entity_UC35"><ellipse cx="567.6086" cy="625.8217" fill="#F1F1F1" rx="84.6086" ry="19.3217" style="stroke:#181818;stroke-width:0.5;"/><text fill="#000000" font-family="sans-serif" font-size="14" lengthAdjust="spacing" textLength="141.4219" x="496.8977" y="630.4702">eliminarRespuesta()</text></g><!--entity doc--><g class="entity" data-entity="doc" data-source-line="3" data-uid="ent0002" id="entity_doc"><ellipse cx="324.3159" cy="348.5" fill="#F1F1F1" rx="8" ry="8" style="stroke:#181818;stroke-width:0.5;"/><path d="M324.3159,356.5 L324.3159,383.5 M311.3159,364.5 L337.3159,364.5 M324.3159,383.5 L311.3159,398.5 M324.3159,383.5 L337.3159,398.5" fill="none" style="stroke:#181818;stroke-width:0.5;"/><text fill="#000000" font-family="sans-serif" font-size="14" lengthAdjust="spacing" textLength="58.6318" x="295" y="412.9951">Docente</text></g><!--link doc to UC1--><g class="link" data-entity-1="doc" data-entity-2="UC1" data-source-line="41" data-uid="lnk27" id="link_doc_UC1"><path d="M294.83,366.83 C273.77,357.5 246.27,342.29 229,321 C223.82,314.61 224.35,311.61 223,303.5 C217.08,267.99 217.08,177.01 223,141.5 C224.35,133.39 223.19,129.82 229,124 C240.77,112.2 251.2304,106.4009 266.9304,101.5209" fill="none" id="doc-to-UC1" style="stroke:#181818;stroke-width:1;"/><polygon fill="#181818" points="272.66,99.74,262.8783,98.5916,267.8853,101.2241,265.2529,106.2311,272.66,99.74" style="stroke:#181818;stroke-width:1;"/></g><!--link doc to UC2--><g class="link" data-entity-1="doc" data-entity-2="UC2" data-source-line="42" data-uid="lnk28" id="link_doc_UC2"><path d="M294.83,366.83 C273.77,357.5 246.27,342.29 229,321 C223.82,314.61 224.35,311.61 223,303.5 C215.84,260.54 215.84,248.46 223,205.5 C224.35,197.39 223.17,193.79 229,188 C240.91,176.17 251.5673,170.4148 267.4273,165.7148" fill="none" id="doc-to-UC2" style="stroke:#181818;stroke-width:1;"/><polygon fill="#181818" points="273.18,164.01,263.4144,162.732,268.3861,165.4306,265.6874,170.4023,273.18,164.01" style="stroke:#181818;stroke-width:1;"/></g><!--link doc to UC3--><g class="link" data-entity-1="doc" data-entity-2="UC3" data-source-line="43" data-uid="lnk29" id="link_doc_UC3"><path d="M294.83,366.83 C273.77,357.5 246.27,342.29 229,321 C215.04,303.79 219.36,293.36 223,271.5 C224.35,263.39 223.19,259.82 229,254 C240.4,242.57 250.2272,236.9342 265.4572,232.0442" fill="none" id="doc-to-UC3" style="stroke:#181818;stroke-width:1;"/><polygon fill="#181818" points="271.17,230.21,261.378,229.1528,266.4094,231.7385,263.8237,236.7699,271.17,230.21" style="stroke:#181818;stroke-width:1;"/></g><!--link doc to UC4--><g class="link" data-entity-1="doc" data-entity-2="UC4" data-source-line="44" data-uid="lnk30" id="link_doc_UC4"><path d="M324.5,339.68 C324.5,327.97 324.5,322.26 324.5,310.55" fill="none" id="doc-to-UC4" style="stroke:#181818;stroke-width:1;"/><polygon fill="#181818" points="324.5,304.55,320.5,313.55,324.5,309.55,328.5,313.55,324.5,304.55" style="stroke:#181818;stroke-width:1;"/></g><!--reverse link UC5 to doc--><g class="link" data-entity-1="UC5" data-entity-2="doc" data-source-line="46" data-uid="lnk32" id="link_UC5_doc"><path d="M147.4913,292.8627 C189.5413,313.2027 255.42,345.07 294.95,364.19" fill="none" id="UC5-backto-doc" style="stroke:#181818;stroke-width:1;"/><polygon fill="#181818" points="142.09,290.25,148.4502,297.7699,146.5911,292.4272,151.9337,290.5681,142.09,290.25" style="stroke:#181818;stroke-width:1;"/></g><!--reverse link UC6 to doc--><g class="link" data-entity-1="UC6" data-entity-2="doc" data-source-line="47" data-uid="lnk34" id="link_UC6_doc"><path d="M179.1072,213.5462 C195.5072,218.5662 205.87,224.92 217,238 C241.16,266.38 208.39,289.94 229,321 C244.47,344.31 273.03,359.57 294.72,368.38" fill="none" id="UC6-backto-doc" style="stroke:#181818;stroke-width:1;"/><polygon fill="#181818" points="173.37,211.79,180.8051,218.2491,178.151,213.2535,183.1466,210.5994,173.37,211.79" style="stroke:#181818;stroke-width:1;"/></g><!--reverse link UC7 to doc--><g class="link" data-entity-1="UC7" data-entity-2="doc" data-source-line="48" data-uid="lnk36" id="link_UC7_doc"><path d="M182.1962,144.695 C197.6962,149.915 206.88,156.19 217,169 C238.01,195.58 211.19,292.17 229,321 C243.8,344.96 272.77,360.2 294.74,368.83" fill="none" id="UC7-backto-doc" style="stroke:#181818;stroke-width:1;"/><polygon fill="#181818" points="176.51,142.78,183.7627,149.4433,181.2485,144.3758,186.3159,141.8616,176.51,142.78" style="stroke:#181818;stroke-width:1;"/></g><!--reverse link UC8 to doc--><g class="link" data-entity-1="UC8" data-entity-2="doc" data-source-line="49" data-uid="lnk38" id="link_UC8_doc"><path d="M184.6656,73.843 C199.3356,79.363 207.57,85.54 217,98 C246.95,137.57 203.45,278.46 229,321 C243.5,345.14 272.51,360.35 294.58,368.93" fill="none" id="UC8-backto-doc" style="stroke:#181818;stroke-width:1;"/><polygon fill="#181818" points="179.05,71.73,186.0647,78.6433,183.7297,73.4909,188.8821,71.1558,179.05,71.73" style="stroke:#181818;stroke-width:1;"/></g><!--reverse link UC9 to doc--><g class="link" data-entity-1="UC9" data-entity-2="doc" data-source-line="51" data-uid="lnk40" id="link_UC9_doc"><path d="M169.3058,577.3412 C187.6958,572.2912 201.62,566.06 217,554 C262.94,517.96 293.64,456.17 309.83,416.21" fill="none" id="UC9-backto-doc" style="stroke:#181818;stroke-width:1;"/><polygon fill="#181818" points="163.52,578.93,173.2579,580.404,168.3415,577.606,171.1395,572.6896,163.52,578.93" style="stroke:#181818;stroke-width:1;"/></g><!--reverse link UC10 to doc--><g class="link" data-entity-1="UC10" data-entity-2="doc" data-source-line="52" data-uid="lnk42" id="link_UC10_doc"><path d="M164.5992,509.8108 C183.7392,504.7308 199.36,498.78 217,488 C247.51,469.36 275.36,439.94 294.92,416.22" fill="none" id="UC10-backto-doc" style="stroke:#181818;stroke-width:1;"/><polygon fill="#181818" points="158.8,511.35,168.5249,512.9074,163.6327,510.0673,166.4727,505.1751,158.8,511.35" style="stroke:#181818;stroke-width:1;"/></g><!--reverse link UC11 to doc--><g class="link" data-entity-1="UC11" data-entity-2="doc" data-source-line="53" data-uid="lnk44" id="link_UC11_doc"><path d="M157.5091,439.4698 C177.4791,433.3798 195.69,427.53 217,420 C243.61,410.6 273.47,398.7 294.78,389.97" fill="none" id="UC11-backto-doc" style="stroke:#181818;stroke-width:1;"/><polygon fill="#181818" points="151.77,441.22,161.5454,442.4208,156.5526,439.7615,159.2118,434.7687,151.77,441.22" style="stroke:#181818;stroke-width:1;"/></g><!--reverse link UC12 to doc--><g class="link" data-entity-1="UC12" data-entity-2="doc" data-source-line="54" data-uid="lnk46" id="link_UC12_doc"><path d="M188.7868,382.3842 C227.3868,381.1242 266.32,379.86 294.83,378.93" fill="none" id="UC12-backto-doc" style="stroke:#181818;stroke-width:1;"/><polygon fill="#181818" points="182.79,382.58,191.9157,386.2842,187.7873,382.4169,191.6547,378.2885,182.79,382.58" style="stroke:#181818;stroke-width:1;"/></g><!--link doc to UC20--><g class="link" data-entity-1="doc" data-entity-2="UC20" data-source-line="56" data-uid="lnk47" id="link_doc_UC20"><path d="M354.25,368.83 C376.23,360.2 405.19,344.96 420,321 C437.7,292.37 410.28,195.72 432,170 C447.77,151.32 466.2771,143.1851 489.9971,138.8651" fill="none" id="doc-to-UC20" style="stroke:#181818;stroke-width:1;"/><polygon fill="#181818" points="495.9,137.79,486.3289,135.4673,490.9809,138.6859,487.7624,143.3379,495.9,137.79" style="stroke:#181818;stroke-width:1;"/></g><!--link doc to UC21--><g class="link" data-entity-1="doc" data-entity-2="UC21" data-source-line="57" data-uid="lnk48" id="link_doc_UC21"><path d="M354.28,368.38 C375.97,359.57 404.53,344.31 420,321 C440.61,289.94 407.05,265.69 432,238 C448.93,219.21 468.687,211.1382 493.077,206.9382" fill="none" id="doc-to-UC21" style="stroke:#181818;stroke-width:1;"/><polygon fill="#181818" points="498.99,205.92,489.4417,203.5054,494.0625,206.7685,490.7994,211.3893,498.99,205.92" style="stroke:#181818;stroke-width:1;"/></g><!--link doc to UC22--><g class="link" data-entity-1="doc" data-entity-2="UC22" data-source-line="58" data-uid="lnk49" id="link_doc_UC22"><path d="M354.12,364.16 C373.83,353.85 399.97,338.55 420,321 C426.42,315.37 424.82,310.62 432,306 C453.57,292.12 474.5888,285.088 498.6488,280.228" fill="none" id="doc-to-UC22" style="stroke:#181818;stroke-width:1;"/><polygon fill="#181818" points="504.53,279.04,494.9162,276.9012,499.629,280.03,496.5002,284.7428,504.53,279.04" style="stroke:#181818;stroke-width:1;"/></g><!--link doc to UC23--><g class="link" data-entity-1="doc" data-entity-2="UC23" data-source-line="59" data-uid="lnk50" id="link_doc_UC23"><path d="M354.09,373.73 C389.69,368.41 445.6959,360.0469 493.5359,352.8969" fill="none" id="doc-to-UC23" style="stroke:#181818;stroke-width:1;"/><polygon fill="#181818" points="499.47,352.01,489.9776,349.3843,494.5249,352.7491,491.1601,357.2964,499.47,352.01" style="stroke:#181818;stroke-width:1;"/></g><!--link doc to UC32--><g class="link" data-entity-1="doc" data-entity-2="UC32" data-source-line="61" data-uid="lnk51" id="link_doc_UC32"><path d="M354.09,382.15 C390.5,387.44 448.5323,395.8673 496.7823,402.8773" fill="none" id="doc-to-UC32" style="stroke:#181818;stroke-width:1;"/><polygon fill="#181818" points="502.72,403.74,494.3886,398.4876,497.7719,403.0211,493.2384,406.4045,502.72,403.74" style="stroke:#181818;stroke-width:1;"/></g><!--link doc to UC33--><g class="link" data-entity-1="doc" data-entity-2="UC33" data-source-line="62" data-uid="lnk52" id="link_doc_UC33"><path d="M354.29,400.68 C374.91,415.95 403.89,435.51 432,448 C456.59,458.92 479.4203,465.6356 503.9703,471.2356" fill="none" id="doc-to-UC33" style="stroke:#181818;stroke-width:1;"/><polygon fill="#181818" points="509.82,472.57,501.935,466.6686,504.9452,471.458,500.1558,474.4683,509.82,472.57" style="stroke:#181818;stroke-width:1;"/></g><!--link doc to UC34--><g class="link" data-entity-1="doc" data-entity-2="UC34" data-source-line="63" data-uid="lnk53" id="link_doc_UC34"><path d="M345.29,416.09 C363.64,447.71 393.84,491.49 432,517 C452,530.37 470.9251,537.4245 493.7351,542.7145" fill="none" id="doc-to-UC34" style="stroke:#181818;stroke-width:1;"/><polygon fill="#181818" points="499.58,544.07,491.7164,538.1401,494.7093,542.9404,489.909,545.9333,499.58,544.07" style="stroke:#181818;stroke-width:1;"/></g><!--link doc to UC35--><g class="link" data-entity-1="doc" data-entity-2="UC35" data-source-line="64" data-uid="lnk54" id="link_doc_UC35"><path d="M334.72,416.15 C348.12,463.43 377.54,543.2 432,588 C449.24,602.18 465.6543,609.5655 487.0443,615.1455" fill="none" id="doc-to-UC35" style="stroke:#181818;stroke-width:1;"/><polygon fill="#181818" points="492.85,616.66,485.1511,610.5177,488.0119,615.3979,483.1318,618.2587,492.85,616.66" style="stroke:#181818;stroke-width:1;"/></g><!--SRC=[RPFBJeGm58RtF4N3IXSaj8MvR4oC9gvCZ8aFq9JAD39qqeiRurFv2BwO20CzbCDgllp_ENm3fLFlddX3h6vFdZJQAkcrwRDCI6yioH-DLBrNEH6ED4PcsKN83z4gaZ___ZIXC-J9YiRav2iZ93WbXHioQPMmOt1pEuw-FL2OVwefTKlCOAmQxTDvlYfq-gpxj59btuZVlTDjBtom0fECwRAcJanZ9Uhkjhh8fZtcZFGEk7WNpZtwPATa6J-cmcCSPMc9sAvNK8gg9YM6UhvOrORU2rUyAdS9oWq_CUkv5zzvcOWlcsA5RjNdrbnXcFhsPiC1sYWjml6OiSGf_gVOuLifP5E5UI6z-l-f3jVmUP725dVZnmA0GU0GgkjG6Ac6i8EmXt1O3HqX30S54bqHkyvDJYK42e51u728muXp21M4-Wy0]--></g></svg>