<svg xmlns="http://www.w3.org/2000/svg" xmlns:xlink="http://www.w3.org/1999/xlink" contentStyleType="text/css" data-diagram-type="DESCRIPTION" height="2249px" preserveAspectRatio="none" style="width:377px;height:2249px;background:#FFFFFF;" version="1.1" viewBox="0 0 377 2249" width="377px" zoomAndPan="magnify"><defs/><g><!--cluster M?dulo Grado--><g class="cluster" data-entity="M.dulo Grado" data-source-line="5" data-uid="ent0003" id="cluster_M.dulo Grado"><path d="M157.5,6 L268.8115,6 A3.75,3.75 0 0 1 271.3115,8.5 L278.3115,28.2969 L321.5,28.2969 A2.5,2.5 0 0 1 324,30.7969 L324,280.5 A2.5,2.5 0 0 1 321.5,283 L157.5,283 A2.5,2.5 0 0 1 155,280.5 L155,8.5 A2.5,2.5 0 0 1 157.5,6" fill="none" style="stroke:#000000;stroke-width:1.5;"/><line style="stroke:#000000;stroke-width:1.5;" x1="155" x2="278.3115" y1="28.2969" y2="28.2969"/><text fill="#000000" font-family="sans-serif" font-size="14" font-weight="bold" lengthAdjust="spacing" textLength="110.3115" x="159" y="20.9951">M&#243;dulo Grado</text></g><!--cluster M?dulo Asignatura--><g class="cluster" data-entity="M.dulo Asignatura" data-source-line="12" data-uid="ent0008" id="cluster_M.dulo Asignatura"><path d="M143.5,307 L293.7422,307 A3.75,3.75 0 0 1 296.2422,309.5 L303.2422,329.2969 L335.5,329.2969 A2.5,2.5 0 0 1 338,331.7969 L338,602.5 A2.5,2.5 0 0 1 335.5,605 L143.5,605 A2.5,2.5 0 0 1 141,602.5 L141,309.5 A2.5,2.5 0 0 1 143.5,307" fill="none" style="stroke:#000000;stroke-width:1.5;"/><line style="stroke:#000000;stroke-width:1.5;" x1="141" x2="303.2422" y1="329.2969" y2="329.2969"/><text fill="#000000" font-family="sans-serif" font-size="14" font-weight="bold" lengthAdjust="spacing" textLength="149.2422" x="145" y="321.9951">M&#243;dulo Asignatura</text></g><!--cluster M?dulo Alumno--><g class="cluster" data-entity="M.dulo Alumno" data-source-line="19" data-uid="ent0013" id="cluster_M.dulo Alumno"><path d="M148.5,629 L272.1025,629 A3.75,3.75 0 0 1 274.6025,631.5 L281.6025,651.2969 L330.5,651.2969 A2.5,2.5 0 0 1 333,653.7969 L333,981.5 A2.5,2.5 0 0 1 330.5,984 L148.5,984 A2.5,2.5 0 0 1 146,981.5 L146,631.5 A2.5,2.5 0 0 1 148.5,629" fill="none" style="stroke:#000000;stroke-width:1.5;"/><line style="stroke:#000000;stroke-width:1.5;" x1="146" x2="281.6025" y1="651.2969" y2="651.2969"/><text fill="#000000" font-family="sans-serif" font-size="14" font-weight="bold" lengthAdjust="spacing" textLength="122.6025" x="150" y="643.9951">M&#243;dulo Alumno</text></g><!--cluster M?dulo Gesti?n de Preguntas--><g class="cluster" data-entity="M.dulo Gesti.n de Preguntas" data-source-line="29" data-uid="ent0019" id="cluster_M.dulo Gesti.n de Preguntas"><path d="M117.5,1008 L352.0771,1008 A3.75,3.75 0 0 1 354.5771,1010.5 L361.5771,1030.2969 L361.5,1030.2969 A2.5,2.5 0 0 1 364,1032.7969 L364,1443.5 A2.5,2.5 0 0 1 361.5,1446 L117.5,1446 A2.5,2.5 0 0 1 115,1443.5 L115,1010.5 A2.5,2.5 0 0 1 117.5,1008" fill="none" style="stroke:#000000;stroke-width:1.5;"/><line style="stroke:#000000;stroke-width:1.5;" x1="115" x2="361.5771" y1="1030.2969" y2="1030.2969"/><text fill="#000000" font-family="sans-serif" font-size="14" font-weight="bold" lengthAdjust="spacing" textLength="233.5771" x="119" y="1022.9951">M&#243;dulo Gesti&#243;n de Preguntas</text></g><!--cluster M?dulo Configuraci?n General--><g class="cluster" data-entity="M.dulo Configuraci.n General" data-source-line="38" data-uid="ent0026" id="cluster_M.dulo Configuraci.n General"><path d="M111.5,1470 L351.5732,1470 A3.75,3.75 0 0 1 354.0732,1472.5 L361.0732,1492.2969 L367.5,1492.2969 A2.5,2.5 0 0 1 370,1494.7969 L370,1655.5 A2.5,2.5 0 0 1 367.5,1658 L111.5,1658 A2.5,2.5 0 0 1 109,1655.5 L109,1472.5 A2.5,2.5 0 0 1 111.5,1470" fill="none" style="stroke:#000000;stroke-width:1.5;"/><line style="stroke:#000000;stroke-width:1.5;" x1="109" x2="361.0732" y1="1492.2969" y2="1492.2969"/><text fill="#000000" font-family="sans-serif" font-size="14" font-weight="bold" lengthAdjust="spacing" textLength="239.0732" x="113" y="1484.9951">M&#243;dulo Configuraci&#243;n General</text></g><!--cluster M?dulo Examen--><g class="cluster" data-entity="M.dulo Examen" data-source-line="43" data-uid="ent0029" id="cluster_M.dulo Examen"><path d="M144.5,1682 L270.4199,1682 A3.75,3.75 0 0 1 272.9199,1684.5 L279.9199,1704.2969 L334.5,1704.2969 A2.5,2.5 0 0 1 337,1706.7969 L337,1840.5 A2.5,2.5 0 0 1 334.5,1843 L144.5,1843 A2.5,2.5 0 0 1 142,1840.5 L142,1684.5 A2.5,2.5 0 0 1 144.5,1682" fill="none" style="stroke:#000000;stroke-width:1.5;"/><line style="stroke:#000000;stroke-width:1.5;" x1="142" x2="279.9199" y1="1704.2969" y2="1704.2969"/><text fill="#000000" font-family="sans-serif" font-size="14" font-weight="bold" lengthAdjust="spacing" textLength="124.9199" x="146" y="1696.9951">M&#243;dulo Examen</text></g><!--cluster M?dulo Correcci?n--><g class="cluster" data-entity="M.dulo Correcci.n" data-source-line="49" data-uid="ent0032" id="cluster_M.dulo Correcci.n"><path d="M144.5,1867 L292.5068,1867 A3.75,3.75 0 0 1 295.0068,1869.5 L302.0068,1889.2969 L334.5,1889.2969 A2.5,2.5 0 0 1 337,1891.7969 L337,1953.5 A2.5,2.5 0 0 1 334.5,1956 L144.5,1956 A2.5,2.5 0 0 1 142,1953.5 L142,1869.5 A2.5,2.5 0 0 1 144.5,1867" fill="none" style="stroke:#000000;stroke-width:1.5;"/><line style="stroke:#000000;stroke-width:1.5;" x1="142" x2="302.0068" y1="1889.2969" y2="1889.2969"/><text fill="#000000" font-family="sans-serif" font-size="14" font-weight="bold" lengthAdjust="spacing" textLength="147.0068" x="146" y="1881.9951">M&#243;dulo Correcci&#243;n</text></g><!--cluster M?dulo Sesi?n--><g class="cluster" data-entity="M.dulo Sesi.n" data-source-line="53" data-uid="ent0034" id="cluster_M.dulo Sesi.n"><path d="M161,1980 L277.124,1980 A3.75,3.75 0 0 1 279.624,1982.5 L286.624,2002.2969 L318,2002.2969 A2.5,2.5 0 0 1 320.5,2004.7969 L320.5,2126.5 A2.5,2.5 0 0 1 318,2129 L161,2129 A2.5,2.5 0 0 1 158.5,2126.5 L158.5,1982.5 A2.5,2.5 0 0 1 161,1980" fill="none" style="stroke:#000000;stroke-width:1.5;"/><line style="stroke:#000000;stroke-width:1.5;" x1="158.5" x2="286.624" y1="2002.2969" y2="2002.2969"/><text fill="#000000" font-family="sans-serif" font-size="14" font-weight="bold" lengthAdjust="spacing" textLength="115.124" x="162.5" y="1994.9951">M&#243;dulo Sesi&#243;n</text></g><!--cluster M?dulo Gesti?n--><g class="cluster" data-entity="M.dulo Gesti.n" data-source-line="58" data-uid="ent0037" id="cluster_M.dulo Gesti.n"><path d="M146,2153 L270.2246,2153 A3.75,3.75 0 0 1 272.7246,2155.5 L279.7246,2175.2969 L333,2175.2969 A2.5,2.5 0 0 1 335.5,2177.7969 L335.5,2239.5 A2.5,2.5 0 0 1 333,2242 L146,2242 A2.5,2.5 0 0 1 143.5,2239.5 L143.5,2155.5 A2.5,2.5 0 0 1 146,2153" fill="none" style="stroke:#000000;stroke-width:1.5;"/><line style="stroke:#000000;stroke-width:1.5;" x1="143.5" x2="279.7246" y1="2175.2969" y2="2175.2969"/><text fill="#000000" font-family="sans-serif" font-size="14" font-weight="bold" lengthAdjust="spacing" textLength="123.2246" x="147.5" y="2167.9951">M&#243;dulo Gesti&#243;n</text></g><!--entity UC1--><g class="entity" data-entity="UC1" data-source-line="6" data-uid="ent0004" id="entity_UC1"><ellipse cx="239.3722" cy="56.1744" fill="#F1F1F1" rx="61.3722" ry="14.6744" style="stroke:#181818;stroke-width:0.5;"/><text fill="#000000" font-family="sans-serif" font-size="14" lengthAdjust="spacing" textLength="83.6035" x="197.5704" y="60.8229">Crear grado</text></g><!--entity UC2--><g class="entity" data-entity="UC2" data-source-line="7" data-uid="ent0005" id="entity_UC2"><ellipse cx="239.4977" cy="120.0236" fill="#F1F1F1" rx="56.9977" ry="14.5236" style="stroke:#181818;stroke-width:0.5;"/><text fill="#000000" font-family="sans-serif" font-size="14" lengthAdjust="spacing" textLength="76.3643" x="201.3156" y="124.6721">Ver grados</text></g><!--entity UC3--><g class="entity" data-entity="UC3" data-source-line="8" data-uid="ent0006" id="entity_UC3"><ellipse cx="239.4435" cy="184.8887" fill="#F1F1F1" rx="62.4435" ry="14.8887" style="stroke:#181818;stroke-width:0.5;"/><text fill="#000000" font-family="sans-serif" font-size="14" lengthAdjust="spacing" textLength="86.5703" x="196.1584" y="189.5371">Editar grado</text></g><!--entity UC4--><g class="entity" data-entity="UC4" data-source-line="9" data-uid="ent0007" id="entity_UC4"><ellipse cx="239.4652" cy="251.093" fill="#F1F1F1" rx="68.4652" ry="16.093" style="stroke:#181818;stroke-width:0.5;"/><text fill="#000000" font-family="sans-serif" font-size="14" lengthAdjust="spacing" textLength="102.4844" x="188.223" y="255.7415">Eliminar grado</text></g><!--entity UC5--><g class="entity" data-entity="UC5" data-source-line="13" data-uid="ent0009" id="entity_UC5"><ellipse cx="239.5886" cy="359.8177" fill="#F1F1F1" rx="74.5886" ry="17.3177" style="stroke:#181818;stroke-width:0.5;"/><text fill="#000000" font-family="sans-serif" font-size="14" lengthAdjust="spacing" textLength="117.7285" x="180.7243" y="364.4662">Crear asignatura</text></g><!--entity UC6--><g class="entity" data-entity="UC6" data-source-line="14" data-uid="ent0010" id="entity_UC6"><ellipse cx="239.6432" cy="429.2286" fill="#F1F1F1" rx="71.6432" ry="16.7286" style="stroke:#181818;stroke-width:0.5;"/><text fill="#000000" font-family="sans-serif" font-size="14" lengthAdjust="spacing" textLength="110.4893" x="184.3986" y="433.8771">Ver asignaturas</text></g><!--entity UC7--><g class="entity" data-entity="UC7" data-source-line="15" data-uid="ent0011" id="entity_UC7"><ellipse cx="239.3132" cy="498.0626" fill="#F1F1F1" rx="75.8132" ry="17.5626" style="stroke:#181818;stroke-width:0.5;"/><text fill="#000000" font-family="sans-serif" font-size="14" lengthAdjust="spacing" textLength="120.6953" x="178.9656" y="502.7111">Editar asignatura</text></g><!--entity UC8--><g class="entity" data-entity="UC8" data-source-line="16" data-uid="ent0012" id="entity_UC8"><ellipse cx="239.5327" cy="569.9065" fill="#F1F1F1" rx="82.5327" ry="18.9065" style="stroke:#181818;stroke-width:0.5;"/><text fill="#000000" font-family="sans-serif" font-size="14" lengthAdjust="spacing" textLength="136.6094" x="171.228" y="574.555">Eliminar asignatura</text></g><!--entity UC9--><g class="entity" data-entity="UC9" data-source-line="20" data-uid="ent0014" id="entity_UC9"><ellipse cx="239.7114" cy="680.0423" fill="#F1F1F1" rx="65.7114" ry="15.5423" style="stroke:#181818;stroke-width:0.5;"/><text fill="#000000" font-family="sans-serif" font-size="14" lengthAdjust="spacing" textLength="95.3477" x="192.0376" y="684.6907">Crear alumno</text></g><!--entity UC10--><g class="entity" data-entity="UC10" data-source-line="21" data-uid="ent0015" id="entity_UC10"><ellipse cx="239.5058" cy="746.0012" fill="#F1F1F1" rx="63.0058" ry="15.0012" style="stroke:#181818;stroke-width:0.5;"/><text fill="#000000" font-family="sans-serif" font-size="14" lengthAdjust="spacing" textLength="88.1084" x="195.4516" y="750.6496">Ver alumnos</text></g><!--entity UC11--><g class="entity" data-entity="UC11" data-source-line="22" data-uid="ent0016" id="entity_UC11"><ellipse cx="239.3464" cy="811.7693" fill="#F1F1F1" rx="66.8464" ry="15.7693" style="stroke:#181818;stroke-width:0.5;"/><text fill="#000000" font-family="sans-serif" font-size="14" lengthAdjust="spacing" textLength="98.3145" x="190.1891" y="816.4177">Editar alumno</text></g><!--entity UC12--><g class="entity" data-entity="UC12" data-source-line="23" data-uid="ent0017" id="entity_UC12"><ellipse cx="239.6567" cy="880.0313" fill="#F1F1F1" rx="73.1567" ry="17.0313" style="stroke:#181818;stroke-width:0.5;"/><text fill="#000000" font-family="sans-serif" font-size="14" lengthAdjust="spacing" textLength="114.2285" x="182.5425" y="884.6798">Eliminar alumno</text></g><!--entity UC19--><g class="entity" data-entity="UC19" data-source-line="24" data-uid="ent0018" id="entity_UC19"><ellipse cx="239.5904" cy="949.9181" fill="#F1F1F1" rx="77.5904" ry="17.9181" style="stroke:#181818;stroke-width:0.5;"/><text fill="#000000" font-family="sans-serif" font-size="14" lengthAdjust="spacing" textLength="124.9609" x="177.11" y="954.5665">Importar alumnos</text></g><!--entity UC20--><g class="entity" data-entity="UC20" data-source-line="30" data-uid="ent0020" id="entity_UC20"><ellipse cx="239.7021" cy="1059.9404" fill="#F1F1F1" rx="70.2021" ry="16.4404" style="stroke:#181818;stroke-width:0.5;"/><text fill="#000000" font-family="sans-serif" font-size="14" lengthAdjust="spacing" textLength="106.8867" x="186.2587" y="1064.5889">Crear pregunta</text></g><!--entity UC21--><g class="entity" data-entity="UC21" data-source-line="31" data-uid="ent0021" id="entity_UC21"><ellipse cx="239.3609" cy="1127.8722" fill="#F1F1F1" rx="67.3609" ry="15.8722" style="stroke:#181818;stroke-width:0.5;"/><text fill="#000000" font-family="sans-serif" font-size="14" lengthAdjust="spacing" textLength="99.6475" x="189.5372" y="1132.5206">Ver preguntas</text></g><!--entity UC22--><g class="entity" data-entity="UC22" data-source-line="32" data-uid="ent0022" id="entity_UC22"><ellipse cx="239.3877" cy="1196.1775" fill="#F1F1F1" rx="71.3877" ry="16.6775" style="stroke:#181818;stroke-width:0.5;"/><text fill="#000000" font-family="sans-serif" font-size="14" lengthAdjust="spacing" textLength="109.8535" x="184.4609" y="1200.826">Editar pregunta</text></g><!--entity UC23--><g class="entity" data-entity="UC23" data-source-line="33" data-uid="ent0023" id="entity_UC23"><ellipse cx="239.4286" cy="1265.9857" fill="#F1F1F1" rx="77.9286" ry="17.9857" style="stroke:#181818;stroke-width:0.5;"/><text fill="#000000" font-family="sans-serif" font-size="14" lengthAdjust="spacing" textLength="125.7676" x="176.5448" y="1270.6342">Eliminar pregunta</text></g><!--entity UC24--><g class="entity" data-entity="UC24" data-source-line="34" data-uid="ent0024" id="entity_UC24"><ellipse cx="239.4858" cy="1337.8972" fill="#F1F1F1" rx="82.4858" ry="18.8972" style="stroke:#181818;stroke-width:0.5;"/><text fill="#000000" font-family="sans-serif" font-size="14" lengthAdjust="spacing" textLength="136.5" x="171.2358" y="1342.5456">Importar preguntas</text></g><!--entity UC25--><g class="entity" data-entity="UC25" data-source-line="35" data-uid="ent0025" id="entity_UC25"><ellipse cx="239.713" cy="1410.8426" fill="#F1F1F1" rx="82.213" ry="18.8426" style="stroke:#181818;stroke-width:0.5;"/><text fill="#000000" font-family="sans-serif" font-size="14" lengthAdjust="spacing" textLength="135.8643" x="171.7809" y="1415.491">Exportar preguntas</text></g><!--entity UC26--><g class="entity" data-entity="UC26" data-source-line="39" data-uid="ent0027" id="entity_UC26"><ellipse cx="239.6535" cy="1530.2307" fill="#F1F1F1" rx="114.1535" ry="25.2307" style="stroke:#181818;stroke-width:0.5;"/><text fill="#000000" font-family="sans-serif" font-size="14" lengthAdjust="spacing" textLength="206.835" x="136.236" y="1534.8791">Exportar configuraci&#243;n global</text></g><!--entity UC27--><g class="entity" data-entity="UC27" data-source-line="40" data-uid="ent0028" id="entity_UC27"><ellipse cx="239.4493" cy="1615.7899" fill="#F1F1F1" rx="114.4493" ry="25.2899" style="stroke:#181818;stroke-width:0.5;"/><text fill="#000000" font-family="sans-serif" font-size="14" lengthAdjust="spacing" textLength="207.4707" x="135.714" y="1620.4383">Importar configuraci&#243;n global</text></g><!--entity UC28--><g class="entity" data-entity="UC28" data-source-line="44" data-uid="ent0030" id="entity_UC28"><ellipse cx="239.4143" cy="1736.1829" fill="#F1F1F1" rx="81.4143" ry="18.6829" style="stroke:#181818;stroke-width:0.5;"/><text fill="#000000" font-family="sans-serif" font-size="14" lengthAdjust="spacing" textLength="133.998" x="172.4152" y="1740.8313">Generar examenes</text></g><!--entity UC29--><g class="entity" data-entity="UC29" data-source-line="45" data-uid="ent0031" id="entity_UC29"><ellipse cx="239.6347" cy="1807.8269" fill="#F1F1F1" rx="79.6347" ry="18.3269" style="stroke:#181818;stroke-width:0.5;"/><text fill="#000000" font-family="sans-serif" font-size="14" lengthAdjust="spacing" textLength="129.8145" x="174.7275" y="1812.4754">Asignar examenes</text></g><!--entity UC31--><g class="entity" data-entity="UC31" data-source-line="50" data-uid="ent0033" id="entity_UC31"><ellipse cx="239.3967" cy="1921.1793" fill="#F1F1F1" rx="81.3967" ry="18.6793" style="stroke:#181818;stroke-width:0.5;"/><text fill="#000000" font-family="sans-serif" font-size="14" lengthAdjust="spacing" textLength="133.957" x="172.4182" y="1925.8278">Corregir ex&#225;menes</text></g><!--entity UC41--><g class="entity" data-entity="UC41" data-source-line="54" data-uid="ent0035" id="entity_UC41"><ellipse cx="239.3711" cy="2030.7742" fill="#F1F1F1" rx="64.3711" ry="15.2742" style="stroke:#181818;stroke-width:0.5;"/><text fill="#000000" font-family="sans-serif" font-size="14" lengthAdjust="spacing" textLength="91.793" x="193.4746" y="2035.4227">Iniciar sesi&#243;n</text></g><!--entity UC42--><g class="entity" data-entity="UC42" data-source-line="55" data-uid="ent0036" id="entity_UC42"><ellipse cx="239.4046" cy="2096.8809" fill="#F1F1F1" rx="64.9046" ry="15.3809" style="stroke:#181818;stroke-width:0.5;"/><text fill="#000000" font-family="sans-serif" font-size="14" lengthAdjust="spacing" textLength="93.2148" x="192.7972" y="2101.5294">Cerrar sesi&#243;n</text></g><!--entity UC13--><g class="entity" data-entity="UC13" data-source-line="59" data-uid="ent0038" id="entity_UC13"><ellipse cx="239.729" cy="2206.9458" fill="#F1F1F1" rx="80.229" ry="18.4458" style="stroke:#181818;stroke-width:0.5;"/><text fill="#000000" font-family="sans-serif" font-size="14" lengthAdjust="spacing" textLength="131.2158" x="174.1211" y="2211.5942">Completar Gesti&#243;n</text></g><!--entity doc--><g class="entity" data-entity="doc" data-source-line="3" data-uid="ent0002" id="entity_doc"><ellipse cx="35.3159" cy="1030.5" fill="#F1F1F1" rx="8" ry="8" style="stroke:#181818;stroke-width:0.5;"/><path d="M35.3159,1038.5 L35.3159,1065.5 M22.3159,1046.5 L48.3159,1046.5 M35.3159,1065.5 L22.3159,1080.5 M35.3159,1065.5 L48.3159,1080.5" fill="none" style="stroke:#181818;stroke-width:0.5;"/><text fill="#000000" font-family="sans-serif" font-size="14" lengthAdjust="spacing" textLength="58.6318" x="6" y="1094.9951">Docente</text></g><!--link doc to UC1--><g class="link" data-entity-1="doc" data-entity-2="UC1" data-source-line="63" data-uid="lnk39" id="link_doc_UC1"><path d="M36.4,1021.9 C36.28,851 39.65,160.22 101,88 C119.72,65.96 144.4301,58.0407 172.0601,55.2607" fill="none" id="doc-to-UC1" style="stroke:#181818;stroke-width:1;"/><polygon fill="#181818" points="178.03,54.66,168.6748,51.5811,173.0551,55.1605,169.4757,59.5409,178.03,54.66" style="stroke:#181818;stroke-width:1;"/></g><!--link doc to UC2--><g class="link" data-entity-1="doc" data-entity-2="UC2" data-source-line="64" data-uid="lnk40" id="link_doc_UC2"><path d="M36.59,1021.97 C37.31,858.27 43.8,219.01 101,152 C120.81,128.79 147.8893,121.0707 176.6293,118.7607" fill="none" id="doc-to-UC2" style="stroke:#181818;stroke-width:1;"/><polygon fill="#181818" points="182.61,118.28,173.3185,115.0139,177.6261,118.6806,173.9594,122.9882,182.61,118.28" style="stroke:#181818;stroke-width:1;"/></g><!--link doc to UC3--><g class="link" data-entity-1="doc" data-entity-2="UC3" data-source-line="65" data-uid="lnk41" id="link_doc_UC3"><path d="M36.81,1021.82 C38.43,865.38 48.03,278.71 101,217 C119.6,195.33 143.7737,187.395 171.1137,184.485" fill="none" id="doc-to-UC3" style="stroke:#181818;stroke-width:1;"/><polygon fill="#181818" points="177.08,183.85,167.7072,180.825,172.1081,184.3792,168.5539,188.7801,177.08,183.85" style="stroke:#181818;stroke-width:1;"/></g><!--link doc to UC4--><g class="link" data-entity-1="doc" data-entity-2="UC4" data-source-line="66" data-uid="lnk42" id="link_doc_UC4"><path d="M37.77,1021.62 C42.76,878.97 62.69,384.53 101,326 C122.22,293.58 156.7542,275.9844 188.2342,265.0144" fill="none" id="doc-to-UC4" style="stroke:#181818;stroke-width:1;"/><polygon fill="#181818" points="193.9,263.04,184.085,262.2244,189.1785,264.6853,186.7175,269.7788,193.9,263.04" style="stroke:#181818;stroke-width:1;"/></g><!--link doc to UC5--><g class="link" data-entity-1="doc" data-entity-2="UC5" data-source-line="67" data-uid="lnk43" id="link_doc_UC5"><path d="M37.68,1021.73 C42.17,887.37 60.02,442.76 101,395 C117.04,376.31 135.6364,368.0049 159.5264,363.4449" fill="none" id="doc-to-UC5" style="stroke:#181818;stroke-width:1;"/><polygon fill="#181818" points="165.42,362.32,155.8296,360.0783,160.5087,363.2574,157.3296,367.9365,165.42,362.32" style="stroke:#181818;stroke-width:1;"/></g><!--link doc to UC6--><g class="link" data-entity-1="doc" data-entity-2="UC6" data-source-line="68" data-uid="lnk44" id="link_doc_UC6"><path d="M38.12,1021.78 C43.75,896.69 64.18,505.15 101,463 C117.74,443.83 137.5048,435.6151 162.1648,431.4251" fill="none" id="doc-to-UC6" style="stroke:#181818;stroke-width:1;"/><polygon fill="#181818" points="168.08,430.42,158.5371,427.9841,163.1506,431.2576,159.8772,435.8711,168.08,430.42" style="stroke:#181818;stroke-width:1;"/></g><!--link doc to UC7--><g class="link" data-entity-1="doc" data-entity-2="UC7" data-source-line="69" data-uid="lnk45" id="link_doc_UC7"><path d="M35.8,1021.72 C34.62,913 37.14,605.57 101,533 C116.95,514.88 134.9559,506.6738 158.3659,502.0038" fill="none" id="doc-to-UC7" style="stroke:#181818;stroke-width:1;"/><polygon fill="#181818" points="164.25,500.83,154.6414,498.668,159.3466,501.8082,156.2064,506.5134,164.25,500.83" style="stroke:#181818;stroke-width:1;"/></g><!--link doc to UC8--><g class="link" data-entity-1="doc" data-entity-2="UC8" data-source-line="70" data-uid="lnk46" id="link_doc_UC8"><path d="M38.29,1021.77 C43.18,931.54 59.25,708.37 101,648 C122.15,617.41 153.8549,599.5676 184.2749,587.4676" fill="none" id="doc-to-UC8" style="stroke:#181818;stroke-width:1;"/><polygon fill="#181818" points="189.85,585.25,180.0089,584.8596,185.204,587.098,182.9657,592.2932,189.85,585.25" style="stroke:#181818;stroke-width:1;"/></g><!--link doc to UC9--><g class="link" data-entity-1="doc" data-entity-2="UC9" data-source-line="71" data-uid="lnk47" id="link_doc_UC9"><path d="M38.48,1021.72 C43.45,940.97 59.18,757.05 101,713 C119.68,693.33 141.9096,685.3334 167.8996,681.6434" fill="none" id="doc-to-UC9" style="stroke:#181818;stroke-width:1;"/><polygon fill="#181818" points="173.84,680.8,164.3671,678.1048,168.8896,681.5028,165.4916,686.0254,173.84,680.8" style="stroke:#181818;stroke-width:1;"/></g><!--link doc to UC10--><g class="link" data-entity-1="doc" data-entity-2="UC10" data-source-line="72" data-uid="lnk48" id="link_doc_UC10"><path d="M40.26,1021.8 C47.81,952.97 67.06,812.07 101,778 C120.63,758.29 143.9383,750.5297 170.4183,747.1497" fill="none" id="doc-to-UC10" style="stroke:#181818;stroke-width:1;"/><polygon fill="#181818" points="176.37,746.39,166.936,743.5617,171.4102,747.0231,167.9489,751.4974,176.37,746.39" style="stroke:#181818;stroke-width:1;"/></g><!--link doc to UC11--><g class="link" data-entity-1="doc" data-entity-2="UC11" data-source-line="73" data-uid="lnk49" id="link_doc_UC11"><path d="M36.97,1021.88 C39.71,973.7 51.87,891.45 101,845 C120.18,826.87 141.5643,819.0814 166.8043,815.0714" fill="none" id="doc-to-UC11" style="stroke:#181818;stroke-width:1;"/><polygon fill="#181818" points="172.73,814.13,163.2139,811.5917,167.7919,814.9145,164.4691,819.4926,172.73,814.13" style="stroke:#181818;stroke-width:1;"/></g><!--link doc to UC12--><g class="link" data-entity-1="doc" data-entity-2="UC12" data-source-line="74" data-uid="lnk50" id="link_doc_UC12"><path d="M43.58,1021.68 C51.73,988.4 68.43,941.36 101,914 C120.02,898.03 139.5403,890.5053 163.3503,885.8753" fill="none" id="doc-to-UC12" style="stroke:#181818;stroke-width:1;"/><polygon fill="#181818" points="169.24,884.73,159.642,882.5215,164.3319,885.6844,161.169,890.3744,169.24,884.73" style="stroke:#181818;stroke-width:1;"/></g><!--link doc to UC13--><g class="link" data-entity-1="doc" data-entity-2="UC13" data-source-line="75" data-uid="lnk51" id="link_doc_UC13"><path d="M36.67,1098.12 C37.74,1278.36 45.54,2040.06 101,2129 C120.75,2160.67 152.7165,2178.5651 183.5965,2190.3851" fill="none" id="doc-to-UC13" style="stroke:#181818;stroke-width:1;"/><polygon fill="#181818" points="189.2,2192.53,182.2246,2185.577,184.5304,2190.7426,179.3648,2193.0484,189.2,2192.53" style="stroke:#181818;stroke-width:1;"/></g><!--link doc to UC19--><g class="link" data-entity-1="doc" data-entity-2="UC19" data-source-line="76" data-uid="lnk52" id="link_doc_UC19"><path d="M65.01,1044.47 C102.86,1023.86 164.1305,990.4993 202.8805,969.3993" fill="none" id="doc-to-UC19" style="stroke:#181818;stroke-width:1;"/><polygon fill="#181818" points="208.15,966.53,198.333,967.321,203.7588,968.9211,202.1587,974.3469,208.15,966.53" style="stroke:#181818;stroke-width:1;"/></g><!--link doc to UC20--><g class="link" data-entity-1="doc" data-entity-2="UC20" data-source-line="77" data-uid="lnk53" id="link_doc_UC20"><path d="M65.01,1060 C91.98,1060 127.53,1060 163.2,1060" fill="none" id="doc-to-UC20" style="stroke:#181818;stroke-width:1;"/><polygon fill="#181818" points="169.2,1060,160.2,1056,164.2,1060,160.2,1064,169.2,1060" style="stroke:#181818;stroke-width:1;"/></g><!--link doc to UC21--><g class="link" data-entity-1="doc" data-entity-2="UC21" data-source-line="78" data-uid="lnk54" id="link_doc_UC21"><path d="M65.02,1076.95 C75.99,1082.95 88.81,1089.36 101,1094 C128.35,1104.41 154.1175,1111.213 180.1475,1116.883" fill="none" id="doc-to-UC21" style="stroke:#181818;stroke-width:1;"/><polygon fill="#181818" points="186.01,1118.16,178.0675,1112.3361,181.1246,1117.0958,176.3649,1120.1528,186.01,1118.16" style="stroke:#181818;stroke-width:1;"/></g><!--link doc to UC22--><g class="link" data-entity-1="doc" data-entity-2="UC22" data-source-line="79" data-uid="lnk55" id="link_doc_UC22"><path d="M52.31,1098.3 C63.04,1119.75 79.25,1145.28 101,1161 C121.96,1176.15 142.9766,1183.5828 167.4166,1188.4728" fill="none" id="doc-to-UC22" style="stroke:#181818;stroke-width:1;"/><polygon fill="#181818" points="173.3,1189.65,165.2597,1183.962,168.3972,1188.669,163.6901,1191.8065,173.3,1189.65" style="stroke:#181818;stroke-width:1;"/></g><!--link doc to UC23--><g class="link" data-entity-1="doc" data-entity-2="UC23" data-source-line="80" data-uid="lnk56" id="link_doc_UC23"><path d="M40.82,1098.1 C47.24,1136.82 62.97,1195.82 101,1230 C118.71,1245.92 136.7524,1253.6506 159.6524,1258.7306" fill="none" id="doc-to-UC23" style="stroke:#181818;stroke-width:1;"/><polygon fill="#181818" points="165.51,1260.03,157.5899,1254.1758,160.6287,1258.9472,155.8573,1261.9859,165.51,1260.03" style="stroke:#181818;stroke-width:1;"/></g><!--link doc to UC24--><g class="link" data-entity-1="doc" data-entity-2="UC24" data-source-line="81" data-uid="lnk57" id="link_doc_UC24"><path d="M35.64,1098.29 C36.62,1151.24 46.52,1246.45 101,1301 C117.07,1317.09 133.5182,1324.9892 155.4682,1330.2992" fill="none" id="doc-to-UC24" style="stroke:#181818;stroke-width:1;"/><polygon fill="#181818" points="161.3,1331.71,153.4929,1325.706,156.4402,1330.5343,151.6118,1333.4817,161.3,1331.71" style="stroke:#181818;stroke-width:1;"/></g><!--link doc to UC25--><g class="link" data-entity-1="doc" data-entity-2="UC25" data-source-line="82" data-uid="lnk58" id="link_doc_UC25"><path d="M39.41,1098.26 C45.85,1172.98 63.81,1334.49 101,1374 C116.67,1390.65 133.1338,1398.7077 155.2238,1403.9777" fill="none" id="doc-to-UC25" style="stroke:#181818;stroke-width:1;"/><polygon fill="#181818" points="161.06,1405.37,153.2339,1399.3907,156.1965,1404.2097,151.3775,1407.1723,161.06,1405.37" style="stroke:#181818;stroke-width:1;"/></g><!--link doc to UC26--><g class="link" data-entity-1="doc" data-entity-2="UC26" data-source-line="83" data-uid="lnk59" id="link_doc_UC26"><path d="M38.88,1098.28 C44.86,1184.24 62.83,1389.48 101,1446 C120.18,1474.4 147.0764,1492.2629 175.5564,1505.8729" fill="none" id="doc-to-UC26" style="stroke:#181818;stroke-width:1;"/><polygon fill="#181818" points="180.97,1508.46,174.5743,1500.9704,176.4587,1506.3041,171.1249,1508.1885,180.97,1508.46" style="stroke:#181818;stroke-width:1;"/></g><!--link doc to UC27--><g class="link" data-entity-1="doc" data-entity-2="UC27" data-source-line="84" data-uid="lnk60" id="link_doc_UC27"><path d="M36.17,1098.15 C36.04,1204.3 41.17,1499.98 101,1572 C112.29,1585.59 122.2115,1592.8209 138.7515,1599.3709" fill="none" id="doc-to-UC27" style="stroke:#181818;stroke-width:1;"/><polygon fill="#181818" points="144.33,1601.58,137.435,1594.5473,139.6812,1599.739,134.4895,1601.9853,144.33,1601.58" style="stroke:#181818;stroke-width:1;"/></g><!--link doc to UC28--><g class="link" data-entity-1="doc" data-entity-2="UC28" data-source-line="85" data-uid="lnk61" id="link_doc_UC28"><path d="M36.18,1098.31 C35.87,1215.27 40.17,1565.37 101,1658 C121.49,1689.2 153.43,1707.0801 184.1,1719.0401" fill="none" id="doc-to-UC28" style="stroke:#181818;stroke-width:1;"/><polygon fill="#181818" points="189.69,1721.22,182.7582,1714.2235,185.0317,1719.4034,179.8517,1721.6769,189.69,1721.22" style="stroke:#181818;stroke-width:1;"/></g><!--link doc to UC29--><g class="link" data-entity-1="doc" data-entity-2="UC29" data-source-line="86" data-uid="lnk62" id="link_doc_UC29"><path d="M37.43,1098.03 C41.18,1238.16 57.19,1720.26 101,1772 C116.07,1789.8 132.8903,1798.0699 155.5103,1803.0499" fill="none" id="doc-to-UC29" style="stroke:#181818;stroke-width:1;"/><polygon fill="#181818" points="161.37,1804.34,153.4405,1798.4985,156.4869,1803.2649,151.7205,1806.3114,161.37,1804.34" style="stroke:#181818;stroke-width:1;"/></g><!--link doc to UC31--><g class="link" data-entity-1="doc" data-entity-2="UC31" data-source-line="87" data-uid="lnk63" id="link_doc_UC31"><path d="M37.56,1098.09 C41.99,1246.35 60.59,1779.74 101,1843 C121.09,1874.45 153.0428,1892.3386 183.8328,1904.2286" fill="none" id="doc-to-UC31" style="stroke:#181818;stroke-width:1;"/><polygon fill="#181818" points="189.43,1906.39,182.4752,1899.4164,184.7657,1904.5888,179.5933,1906.8793,189.43,1906.39" style="stroke:#181818;stroke-width:1;"/></g><!--link doc to UC41--><g class="link" data-entity-1="doc" data-entity-2="UC41" data-source-line="88" data-uid="lnk64" id="link_doc_UC41"><path d="M37.11,1098.27 C39.99,1260.06 54.07,1883.04 101,1956 C122.33,1989.16 157.9294,2006.8884 189.7194,2017.6984" fill="none" id="doc-to-UC41" style="stroke:#181818;stroke-width:1;"/><polygon fill="#181818" points="195.4,2019.63,188.1669,2012.9455,190.6662,2018.0203,185.5914,2020.5196,195.4,2019.63" style="stroke:#181818;stroke-width:1;"/></g><!--link doc to UC42--><g class="link" data-entity-1="doc" data-entity-2="UC42" data-source-line="89" data-uid="lnk65" id="link_doc_UC42"><path d="M36.32,1098.16 C35.86,1272.62 37.83,1988.96 101,2064 C118.86,2085.22 141.7964,2093.395 168.4864,2096.735" fill="none" id="doc-to-UC42" style="stroke:#181818;stroke-width:1;"/><polygon fill="#181818" points="174.44,2097.48,166.0063,2092.3934,169.4787,2096.8591,165.013,2100.3315,174.44,2097.48" style="stroke:#181818;stroke-width:1;"/></g><!--SRC=[VPHDQiCm48NtFeN8FX39-TqKIbfA5uL2QVUgF755RSd8CXHA3zCpv0YvMFqJnsDvqjsOz_Jc6qbM1WVFl6LEfn-U9Tg1yjgQA9BAMyTcTrQ1yJ1ZicI9LL5KIFKfKs2pfzCngJBB7fnCx8nzHunL9IXPrjhUWNGixPHwvUkUO_aDpc9vLWLMxnFjWzNnICzqhatWM4O_1DjjgLCZVUKa2IYHtAQiGih1qQEk2TH9peRadTYsD7HMvORUKNcMsjMx2Mohzg1yGP7Y0Cvfp96dEPh1z9WNrWr1brwxPXBgSa3fzUbeM0BisK5Q6T_i935QSLRx6x48fok6vPs34_E5AOASC7IDhjTbn4d3vIZiwvfjHPxgtfg3JkkpL-r-F8019xDWAowXQknEC_lUcBi6QnBttoKRakd-I-PW0eQEp35eHRYCjSMcxiUQckexUMLwLxyiBLbu-esIwYRgz8kpOauclK19f3mQhNJDK_PgzoYChiWUd9jQ1DcblxSJsBp8eDdjmT3z077KvDGl99lFRzhtRgW5gcDKBr6zGlKQrHjKRr6zmxqM-0DtvhWrnxqv3X0uG8pGSO300GBJ2umlCB_00mWyWS04CMww77s8Fm00]--></g></svg>