<svg xmlns="http://www.w3.org/2000/svg" xmlns:xlink="http://www.w3.org/1999/xlink" contentStyleType="text/css" data-diagram-type="DESCRIPTION" height="782px" preserveAspectRatio="none" style="width:470px;height:782px;background:#FFFFFF;" version="1.1" viewBox="0 0 470 782" width="470px" zoomAndPan="magnify"><defs/><g><!--cluster M?dulo Usuarios Docentes--><g class="cluster" data-entity="M.dulo Usuarios Docentes" data-source-line="5" data-uid="ent0003" id="cluster_M.dulo Usuarios Docentes"><path d="M241.56,6 L452.5532,6 A3.75,3.75 0 0 1 455.0532,8.5 L462.0532,28.2969 L460.76,28.2969 A2.5,2.5 0 0 1 463.26,30.7969 L463.26,291.5 A2.5,2.5 0 0 1 460.76,294 L241.56,294 A2.5,2.5 0 0 1 239.06,291.5 L239.06,8.5 A2.5,2.5 0 0 1 241.56,6" fill="none" style="stroke:#000000;stroke-width:1.5;"/><line style="stroke:#000000;stroke-width:1.5;" x1="239.06" x2="462.0532" y1="28.2969" y2="28.2969"/><text fill="#000000" font-family="sans-serif" font-size="14" font-weight="bold" lengthAdjust="spacing" textLength="209.9932" x="243.06" y="20.9951">M&#243;dulo Usuarios Docentes</text></g><!--cluster M?dulo Gesti?n Licencias--><g class="cluster" data-entity="M.dulo Gesti.n Licencias" data-source-line="12" data-uid="ent0008" id="cluster_M.dulo Gesti.n Licencias"><path d="M245.71,318 L447.167,318 A3.75,3.75 0 0 1 449.667,320.5 L456.667,340.2969 L456.61,340.2969 A2.5,2.5 0 0 1 459.11,342.7969 L459.11,601.5 A2.5,2.5 0 0 1 456.61,604 L245.71,604 A2.5,2.5 0 0 1 243.21,601.5 L243.21,320.5 A2.5,2.5 0 0 1 245.71,318" fill="none" style="stroke:#000000;stroke-width:1.5;"/><line style="stroke:#000000;stroke-width:1.5;" x1="243.21" x2="456.667" y1="340.2969" y2="340.2969"/><text fill="#000000" font-family="sans-serif" font-size="14" font-weight="bold" lengthAdjust="spacing" textLength="200.457" x="247.21" y="332.9951">M&#243;dulo Gesti&#243;n Licencias</text></g><!--cluster M?dulo Sesi?n--><g class="cluster" data-entity="M.dulo Sesi.n" data-source-line="19" data-uid="ent0013" id="cluster_M.dulo Sesi.n"><path d="M272.25,628 L388.374,628 A3.75,3.75 0 0 1 390.874,630.5 L397.874,650.2969 L429.06,650.2969 A2.5,2.5 0 0 1 431.56,652.7969 L431.56,772.5 A2.5,2.5 0 0 1 429.06,775 L272.25,775 A2.5,2.5 0 0 1 269.75,772.5 L269.75,630.5 A2.5,2.5 0 0 1 272.25,628" fill="none" style="stroke:#000000;stroke-width:1.5;"/><line style="stroke:#000000;stroke-width:1.5;" x1="269.75" x2="397.874" y1="650.2969" y2="650.2969"/><text fill="#000000" font-family="sans-serif" font-size="14" font-weight="bold" lengthAdjust="spacing" textLength="115.124" x="273.75" y="642.9951">M&#243;dulo Sesi&#243;n</text></g><!--entity UC32--><g class="entity" data-entity="UC32" data-source-line="6" data-uid="ent0004" id="entity_UC32"><ellipse cx="350.6607" cy="262.0001" fill="#F1F1F1" rx="68.0007" ry="16.0001" style="stroke:#181818;stroke-width:0.5;"/><text fill="#000000" font-family="sans-serif" font-size="14" lengthAdjust="spacing" textLength="101.2949" x="300.0132" y="266.6486">Crear profesor</text></g><!--entity UC33--><g class="entity" data-entity="UC33" data-source-line="7" data-uid="ent0005" id="entity_UC33"><ellipse cx="350.6574" cy="194.9975" fill="#F1F1F1" rx="68.5374" ry="16.1075" style="stroke:#181818;stroke-width:0.5;"/><text fill="#000000" font-family="sans-serif" font-size="14" lengthAdjust="spacing" textLength="102.6689" x="299.323" y="199.6459">Ver profesores</text></g><!--entity UC34--><g class="entity" data-entity="UC34" data-source-line="8" data-uid="ent0006" id="entity_UC34"><ellipse cx="350.6631" cy="128.0026" fill="#F1F1F1" rx="69.1631" ry="16.2326" style="stroke:#181818;stroke-width:0.5;"/><text fill="#000000" font-family="sans-serif" font-size="14" lengthAdjust="spacing" textLength="104.2617" x="298.5322" y="132.6511">Editar profesor</text></g><!--entity UC35--><g class="entity" data-entity="UC35" data-source-line="9" data-uid="ent0007" id="entity_UC35"><ellipse cx="350.6581" cy="58.9996" fill="#F1F1F1" rx="75.5981" ry="17.5196" style="stroke:#181818;stroke-width:0.5;"/><text fill="#000000" font-family="sans-serif" font-size="14" lengthAdjust="spacing" textLength="120.1758" x="290.5702" y="63.6481">Eliminar profesor</text></g><!--entity UC36--><g class="entity" data-entity="UC36" data-source-line="13" data-uid="ent0009" id="entity_UC36"><ellipse cx="350.6556" cy="570.9991" fill="#F1F1F1" rx="72.6956" ry="16.9391" style="stroke:#181818;stroke-width:0.5;"/><text fill="#000000" font-family="sans-serif" font-size="14" lengthAdjust="spacing" textLength="113.0938" x="294.1087" y="575.6476">Adquirir licencia</text></g><!--entity UC37--><g class="entity" data-entity="UC37" data-source-line="14" data-uid="ent0010" id="entity_UC37"><ellipse cx="350.6573" cy="504.0035" fill="#F1F1F1" rx="63.2673" ry="15.0535" style="stroke:#181818;stroke-width:0.5;"/><text fill="#000000" font-family="sans-serif" font-size="14" lengthAdjust="spacing" textLength="88.8193" x="306.2476" y="508.6519">Ver licencias</text></g><!--entity UC38--><g class="entity" data-entity="UC38" data-source-line="15" data-uid="ent0011" id="entity_UC38"><ellipse cx="350.6605" cy="438.0041" fill="#F1F1F1" rx="67.1205" ry="15.8241" style="stroke:#181818;stroke-width:0.5;"/><text fill="#000000" font-family="sans-serif" font-size="14" lengthAdjust="spacing" textLength="99.0254" x="301.1478" y="442.6525">Editar licencia</text></g><!--entity UC39--><g class="entity" data-entity="UC39" data-source-line="16" data-uid="ent0012" id="entity_UC39"><ellipse cx="350.6564" cy="369.9993" fill="#F1F1F1" rx="73.4464" ry="17.0893" style="stroke:#181818;stroke-width:0.5;"/><text fill="#000000" font-family="sans-serif" font-size="14" lengthAdjust="spacing" textLength="114.9395" x="293.1867" y="374.6477">Eliminar licencia</text></g><!--entity UC41--><g class="entity" data-entity="UC41" data-source-line="20" data-uid="ent0014" id="entity_UC41"><ellipse cx="350.6611" cy="744.0042" fill="#F1F1F1" rx="64.3711" ry="15.2742" style="stroke:#181818;stroke-width:0.5;"/><text fill="#000000" font-family="sans-serif" font-size="14" lengthAdjust="spacing" textLength="91.793" x="304.7646" y="748.6527">Iniciar sesi&#243;n</text></g><!--entity UC42--><g class="entity" data-entity="UC42" data-source-line="21" data-uid="ent0015" id="entity_UC42"><ellipse cx="350.6646" cy="678.0009" fill="#F1F1F1" rx="64.9046" ry="15.3809" style="stroke:#181818;stroke-width:0.5;"/><text fill="#000000" font-family="sans-serif" font-size="14" lengthAdjust="spacing" textLength="93.2148" x="304.0572" y="682.6494">Cerrar sesi&#243;n</text></g><!--entity admin--><g class="entity" data-entity="admin" data-source-line="3" data-uid="ent0002" id="entity_admin"><ellipse cx="100.5308" cy="374.35" fill="#F1F1F1" rx="8" ry="8" style="stroke:#181818;stroke-width:0.5;"/><path d="M100.5308,382.35 L100.5308,409.35 M87.5308,390.35 L113.5308,390.35 M100.5308,409.35 L87.5308,424.35 M100.5308,409.35 L113.5308,424.35" fill="none" style="stroke:#181818;stroke-width:0.5;"/><text fill="#000000" font-family="sans-serif" font-size="14" lengthAdjust="spacing" textLength="189.0615" x="6" y="438.8451">Administrador Institucional</text></g><!--link admin to UC32--><g class="link" data-entity-1="admin" data-entity-2="UC32" data-source-line="24" data-uid="lnk16" id="link_admin_UC32"><path d="M169.01,365.39 C219.95,336.23 281.8921,300.7796 318.2821,279.9596" fill="none" id="admin-to-UC32" style="stroke:#181818;stroke-width:1;"/><polygon fill="#181818" points="323.49,276.98,313.6918,277.9775,319.1501,279.463,317.6646,284.9213,323.49,276.98" style="stroke:#181818;stroke-width:1;"/></g><!--link admin to UC33--><g class="link" data-entity-1="admin" data-entity-2="UC33" data-source-line="25" data-uid="lnk17" id="link_admin_UC33"><path d="M120.04,365.47 C141.33,325.24 180,263.22 231.06,228 C248.74,215.8 264.9851,209.4976 285.2751,204.6376" fill="none" id="admin-to-UC33" style="stroke:#181818;stroke-width:1;"/><polygon fill="#181818" points="291.11,203.24,281.4258,201.4465,286.2475,204.4047,283.2893,209.2264,291.11,203.24" style="stroke:#181818;stroke-width:1;"/></g><!--link admin to UC34--><g class="link" data-entity-1="admin" data-entity-2="UC34" data-source-line="26" data-uid="lnk18" id="link_admin_UC34"><path d="M111.66,365.36 C127.79,311.48 164.5,214.41 231.06,161 C247.31,147.96 262.5558,141.4606 282.4258,136.6906" fill="none" id="admin-to-UC34" style="stroke:#181818;stroke-width:1;"/><polygon fill="#181818" points="288.26,135.29,278.5749,133.5014,283.3981,136.4571,280.4423,141.2804,288.26,135.29" style="stroke:#181818;stroke-width:1;"/></g><!--link admin to UC35--><g class="link" data-entity-1="admin" data-entity-2="UC35" data-source-line="27" data-uid="lnk19" id="link_admin_UC35"><path d="M106.81,365.5 C117.83,300.08 149.42,167.21 231.06,94 C245.69,80.89 259.2226,74.2631 278.0126,69.1231" fill="none" id="admin-to-UC35" style="stroke:#181818;stroke-width:1;"/><polygon fill="#181818" points="283.8,67.54,274.0635,66.0565,278.9772,68.8593,276.1744,73.773,283.8,67.54" style="stroke:#181818;stroke-width:1;"/></g><!--link admin to UC36--><g class="link" data-entity-1="admin" data-entity-2="UC36" data-source-line="28" data-uid="lnk20" id="link_admin_UC36"><path d="M129.87,442.58 C153.72,472.44 190.4,512.68 231.06,537 C249.45,547.99 265.7493,554.0847 285.8793,559.2647" fill="none" id="admin-to-UC36" style="stroke:#181818;stroke-width:1;"/><polygon fill="#181818" points="291.69,560.76,283.9708,554.6433,286.8478,559.514,281.9771,562.3909,291.69,560.76" style="stroke:#181818;stroke-width:1;"/></g><!--link admin to UC37--><g class="link" data-entity-1="admin" data-entity-2="UC37" data-source-line="29" data-uid="lnk21" id="link_admin_UC37"><path d="M169.55,442.51 C189.03,452.63 210.56,462.95 231.06,471 C254.43,480.18 275.5244,486.4139 297.7844,492.0639" fill="none" id="admin-to-UC37" style="stroke:#181818;stroke-width:1;"/><polygon fill="#181818" points="303.6,493.54,295.8607,487.4488,298.7537,492.3099,293.8925,495.2029,303.6,493.54" style="stroke:#181818;stroke-width:1;"/></g><!--link admin to UC38--><g class="link" data-entity-1="admin" data-entity-2="UC38" data-source-line="30" data-uid="lnk22" id="link_admin_UC38"><path d="M195.34,416.85 C227.73,421.29 257.0956,425.3152 285.7656,429.2452" fill="none" id="admin-to-UC38" style="stroke:#181818;stroke-width:1;"/><polygon fill="#181818" points="291.71,430.06,283.3366,424.8748,286.7563,429.381,282.2502,432.8007,291.71,430.06" style="stroke:#181818;stroke-width:1;"/></g><!--link admin to UC39--><g class="link" data-entity-1="admin" data-entity-2="UC39" data-source-line="31" data-uid="lnk23" id="link_admin_UC39"><path d="M195.34,391.15 C225.8,386.97 252.9155,383.2539 280.5955,379.4639" fill="none" id="admin-to-UC39" style="stroke:#181818;stroke-width:1;"/><polygon fill="#181818" points="286.54,378.65,277.0806,375.9079,281.5862,379.3283,278.1658,383.8339,286.54,378.65" style="stroke:#181818;stroke-width:1;"/></g><!--link admin to UC41--><g class="link" data-entity-1="admin" data-entity-2="UC41" data-source-line="32" data-uid="lnk24" id="link_admin_UC41"><path d="M106.85,442.53 C117.91,507.62 149.51,639.26 231.06,711 C247.51,725.47 263.9413,732.3456 284.7613,736.9456" fill="none" id="admin-to-UC41" style="stroke:#181818;stroke-width:1;"/><polygon fill="#181818" points="290.62,738.24,282.6949,732.3925,285.7377,737.1613,280.969,740.2042,290.62,738.24" style="stroke:#181818;stroke-width:1;"/></g><!--link admin to UC42--><g class="link" data-entity-1="admin" data-entity-2="UC42" data-source-line="33" data-uid="lnk25" id="link_admin_UC42"><path d="M119.95,442.54 C141.93,485.63 181.95,555.71 231.06,604 C257.37,629.86 288.8881,648.3875 314.5181,661.3775" fill="none" id="admin-to-UC42" style="stroke:#181818;stroke-width:1;"/><polygon fill="#181818" points="319.87,664.09,313.6505,656.4534,315.4101,661.8296,310.0339,663.5892,319.87,664.09" style="stroke:#181818;stroke-width:1;"/></g><!--SRC=[RP5DJiCm44RtFiKe-ov8qxyDKbKGgWGhLFQMFIqZZ5rcd1NYL3r2BuQJKBKENZxv-SkBx70V8GPWEhn7iCHe8WMlb3OnC5Hh-qcU9BAs2RTU8iNM94Ex2hI0xiwLEchpeGy8rSlvP5iNO2UjPWe23y6WZoWLV2k0Lj1eITw6KJCSEUnH0lTJkysqlbNUy2fqzmTbUgiyMeg5cIPp7AN4WZLJFuNm9qo_U3vvUAOKRaYFozVsgoKc1lSdNFRcutXtNHYCHQ5zlB8ije-jLR7z5QLB7mLlFQMR378vxIUQk-mvaFc_KdTVwLyO9fFxuO4odEROv3ZBSPxZ8iTbZgiCKso6zIy0]--></g></svg>