<svg xmlns="http://www.w3.org/2000/svg" xmlns:xlink="http://www.w3.org/1999/xlink" contentStyleType="text/css" data-diagram-type="DESCRIPTION" height="3246px" preserveAspectRatio="none" style="width:546px;height:3246px;background:#FFFFFF;" version="1.1" viewBox="0 0 546 3246" width="546px" zoomAndPan="magnify"><defs/><g><!--cluster M?dulo Grado--><g class="cluster" data-entity="M.dulo Grado" data-source-line="7" data-uid="ent0005" id="cluster_M.dulo Grado"><path d="M303.92,1716 L415.2315,1716 A3.75,3.75 0 0 1 417.7315,1718.5 L424.7315,1738.2969 L474.36,1738.2969 A2.5,2.5 0 0 1 476.86,1740.7969 L476.86,1993.5 A2.5,2.5 0 0 1 474.36,1996 L303.92,1996 A2.5,2.5 0 0 1 301.42,1993.5 L301.42,1718.5 A2.5,2.5 0 0 1 303.92,1716" fill="none" style="stroke:#000000;stroke-width:1.5;"/><line style="stroke:#000000;stroke-width:1.5;" x1="301.42" x2="424.7315" y1="1738.2969" y2="1738.2969"/><text fill="#000000" font-family="sans-serif" font-size="14" font-weight="bold" lengthAdjust="spacing" textLength="110.3115" x="305.42" y="1730.9951">M&#243;dulo Grado</text></g><!--cluster M?dulo Asignatura--><g class="cluster" data-entity="M.dulo Asignatura" data-source-line="14" data-uid="ent0010" id="cluster_M.dulo Asignatura"><path d="M289.98,2020 L440.2222,2020 A3.75,3.75 0 0 1 442.7222,2022.5 L449.7222,2042.2969 L488.3,2042.2969 A2.5,2.5 0 0 1 490.8,2044.7969 L490.8,2319.5 A2.5,2.5 0 0 1 488.3,2322 L289.98,2322 A2.5,2.5 0 0 1 287.48,2319.5 L287.48,2022.5 A2.5,2.5 0 0 1 289.98,2020" fill="none" style="stroke:#000000;stroke-width:1.5;"/><line style="stroke:#000000;stroke-width:1.5;" x1="287.48" x2="449.7222" y1="2042.2969" y2="2042.2969"/><text fill="#000000" font-family="sans-serif" font-size="14" font-weight="bold" lengthAdjust="spacing" textLength="149.2422" x="291.48" y="2034.9951">M&#243;dulo Asignatura</text></g><!--cluster M?dulo Alumno--><g class="cluster" data-entity="M.dulo Alumno" data-source-line="21" data-uid="ent0015" id="cluster_M.dulo Alumno"><path d="M295,6 L418.6025,6 A3.75,3.75 0 0 1 421.1025,8.5 L428.1025,28.2969 L483.29,28.2969 A2.5,2.5 0 0 1 485.79,30.7969 L485.79,432.5 A2.5,2.5 0 0 1 483.29,435 L295,435 A2.5,2.5 0 0 1 292.5,432.5 L292.5,8.5 A2.5,2.5 0 0 1 295,6" fill="none" style="stroke:#000000;stroke-width:1.5;"/><line style="stroke:#000000;stroke-width:1.5;" x1="292.5" x2="428.1025" y1="28.2969" y2="28.2969"/><text fill="#000000" font-family="sans-serif" font-size="14" font-weight="bold" lengthAdjust="spacing" textLength="122.6025" x="296.5" y="20.9951">M&#243;dulo Alumno</text></g><!--cluster M?dulo Gesti?n de Preguntas--><g class="cluster" data-entity="M.dulo Gesti.n de Preguntas" data-source-line="32" data-uid="ent0022" id="cluster_M.dulo Gesti.n de Preguntas"><path d="M267.66,459 L502.2371,459 A3.75,3.75 0 0 1 504.7371,461.5 L511.7371,481.2969 L511.63,481.2969 A2.5,2.5 0 0 1 514.13,483.7969 L514.13,1180.5 A2.5,2.5 0 0 1 511.63,1183 L267.66,1183 A2.5,2.5 0 0 1 265.16,1180.5 L265.16,461.5 A2.5,2.5 0 0 1 267.66,459" fill="none" style="stroke:#000000;stroke-width:1.5;"/><line style="stroke:#000000;stroke-width:1.5;" x1="265.16" x2="511.7371" y1="481.2969" y2="481.2969"/><text fill="#000000" font-family="sans-serif" font-size="14" font-weight="bold" lengthAdjust="spacing" textLength="233.5771" x="269.16" y="473.9951">M&#243;dulo Gesti&#243;n de Preguntas</text></g><!--cluster M?dulo Configuraci?n General--><g class="cluster" data-entity="M.dulo Configuraci.n General" data-source-line="45" data-uid="ent0033" id="cluster_M.dulo Configuraci.n General"><path d="M263.56,1207 L503.6332,1207 A3.75,3.75 0 0 1 506.1332,1209.5 L513.1332,1229.2969 L514.72,1229.2969 A2.5,2.5 0 0 1 517.22,1231.7969 L517.22,1390.5 A2.5,2.5 0 0 1 514.72,1393 L263.56,1393 A2.5,2.5 0 0 1 261.06,1390.5 L261.06,1209.5 A2.5,2.5 0 0 1 263.56,1207" fill="none" style="stroke:#000000;stroke-width:1.5;"/><line style="stroke:#000000;stroke-width:1.5;" x1="261.06" x2="513.1332" y1="1229.2969" y2="1229.2969"/><text fill="#000000" font-family="sans-serif" font-size="14" font-weight="bold" lengthAdjust="spacing" textLength="239.0732" x="265.06" y="1221.9951">M&#243;dulo Configuraci&#243;n General</text></g><!--cluster M?dulo Examen--><g class="cluster" data-entity="M.dulo Examen" data-source-line="50" data-uid="ent0036" id="cluster_M.dulo Examen"><path d="M292.19,1417 L418.1099,1417 A3.75,3.75 0 0 1 420.6099,1419.5 L427.6099,1439.2969 L486.09,1439.2969 A2.5,2.5 0 0 1 488.59,1441.7969 L488.59,1576.5 A2.5,2.5 0 0 1 486.09,1579 L292.19,1579 A2.5,2.5 0 0 1 289.69,1576.5 L289.69,1419.5 A2.5,2.5 0 0 1 292.19,1417" fill="none" style="stroke:#000000;stroke-width:1.5;"/><line style="stroke:#000000;stroke-width:1.5;" x1="289.69" x2="427.6099" y1="1439.2969" y2="1439.2969"/><text fill="#000000" font-family="sans-serif" font-size="14" font-weight="bold" lengthAdjust="spacing" textLength="124.9199" x="293.69" y="1431.9951">M&#243;dulo Examen</text></g><!--cluster M?dulo Correcci?n--><g class="cluster" data-entity="M.dulo Correcci.n" data-source-line="56" data-uid="ent0039" id="cluster_M.dulo Correcci.n"><path d="M292.26,1603 L440.2668,1603 A3.75,3.75 0 0 1 442.7668,1605.5 L449.7668,1625.2969 L486.02,1625.2969 A2.5,2.5 0 0 1 488.52,1627.7969 L488.52,1689.5 A2.5,2.5 0 0 1 486.02,1692 L292.26,1692 A2.5,2.5 0 0 1 289.76,1689.5 L289.76,1605.5 A2.5,2.5 0 0 1 292.26,1603" fill="none" style="stroke:#000000;stroke-width:1.5;"/><line style="stroke:#000000;stroke-width:1.5;" x1="289.76" x2="449.7668" y1="1625.2969" y2="1625.2969"/><text fill="#000000" font-family="sans-serif" font-size="14" font-weight="bold" lengthAdjust="spacing" textLength="147.0068" x="293.76" y="1617.9951">M&#243;dulo Correcci&#243;n</text></g><!--cluster M?dulo Sesi?n--><g class="cluster" data-entity="M.dulo Sesi.n" data-source-line="60" data-uid="ent0041" id="cluster_M.dulo Sesi.n"><path d="M308.29,2459 L424.414,2459 A3.75,3.75 0 0 1 426.914,2461.5 L433.914,2481.2969 L469.99,2481.2969 A2.5,2.5 0 0 1 472.49,2483.7969 L472.49,2606.5 A2.5,2.5 0 0 1 469.99,2609 L308.29,2609 A2.5,2.5 0 0 1 305.79,2606.5 L305.79,2461.5 A2.5,2.5 0 0 1 308.29,2459" fill="none" style="stroke:#000000;stroke-width:1.5;"/><line style="stroke:#000000;stroke-width:1.5;" x1="305.79" x2="433.914" y1="2481.2969" y2="2481.2969"/><text fill="#000000" font-family="sans-serif" font-size="14" font-weight="bold" lengthAdjust="spacing" textLength="115.124" x="309.79" y="2473.9951">M&#243;dulo Sesi&#243;n</text></g><!--cluster M?dulo Gesti?n--><g class="cluster" data-entity="M.dulo Gesti.n" data-source-line="65" data-uid="ent0044" id="cluster_M.dulo Gesti.n"><path d="M293.54,2346 L417.7646,2346 A3.75,3.75 0 0 1 420.2646,2348.5 L427.2646,2368.2969 L484.75,2368.2969 A2.5,2.5 0 0 1 487.25,2370.7969 L487.25,2432.5 A2.5,2.5 0 0 1 484.75,2435 L293.54,2435 A2.5,2.5 0 0 1 291.04,2432.5 L291.04,2348.5 A2.5,2.5 0 0 1 293.54,2346" fill="none" style="stroke:#000000;stroke-width:1.5;"/><line style="stroke:#000000;stroke-width:1.5;" x1="291.04" x2="427.2646" y1="2368.2969" y2="2368.2969"/><text fill="#000000" font-family="sans-serif" font-size="14" font-weight="bold" lengthAdjust="spacing" textLength="123.2246" x="295.04" y="2360.9951">M&#243;dulo Gesti&#243;n</text></g><!--cluster M?dulo Docentes--><g class="cluster" data-entity="M.dulo Docentes" data-source-line="70" data-uid="ent0046" id="cluster_M.dulo Docentes"><path d="M297.33,2949 L434.6796,2949 A3.75,3.75 0 0 1 437.1796,2951.5 L444.1796,2971.2969 L480.95,2971.2969 A2.5,2.5 0 0 1 483.45,2973.7969 L483.45,3236.5 A2.5,2.5 0 0 1 480.95,3239 L297.33,3239 A2.5,2.5 0 0 1 294.83,3236.5 L294.83,2951.5 A2.5,2.5 0 0 1 297.33,2949" fill="none" style="stroke:#000000;stroke-width:1.5;"/><line style="stroke:#000000;stroke-width:1.5;" x1="294.83" x2="444.1796" y1="2971.2969" y2="2971.2969"/><text fill="#000000" font-family="sans-serif" font-size="14" font-weight="bold" lengthAdjust="spacing" textLength="136.3496" x="298.83" y="2963.9951">M&#243;dulo Docentes</text></g><!--cluster M?dulo Gesti?n Licencias(intencion)--><g class="cluster" data-entity="M.dulo Gesti.n Licencias.intencion." data-source-line="77" data-uid="ent0051" id="cluster_M.dulo Gesti.n Licencias.intencion."><path d="M241,2633 L528.8564,2633 A3.75,3.75 0 0 1 531.3564,2635.5 L538.3564,2655.2969 L537.29,2655.2969 A2.5,2.5 0 0 1 539.79,2657.7969 L539.79,2922.5 A2.5,2.5 0 0 1 537.29,2925 L241,2925 A2.5,2.5 0 0 1 238.5,2922.5 L238.5,2635.5 A2.5,2.5 0 0 1 241,2633" fill="none" style="stroke:#000000;stroke-width:1.5;"/><line style="stroke:#000000;stroke-width:1.5;" x1="238.5" x2="538.3564" y1="2655.2969" y2="2655.2969"/><text fill="#000000" font-family="sans-serif" font-size="14" font-weight="bold" lengthAdjust="spacing" textLength="286.8564" x="242.5" y="2647.9951">M&#243;dulo Gesti&#243;n Licencias(intencion)</text></g><!--entity UC1--><g class="entity" data-entity="UC1" data-source-line="8" data-uid="ent0006" id="entity_UC1"><ellipse cx="389.1391" cy="1964.9978" fill="#F1F1F1" rx="63.6891" ry="15.1378" style="stroke:#181818;stroke-width:0.5;"/><text fill="#000000" font-family="sans-serif" font-size="14" lengthAdjust="spacing" textLength="89.9609" x="344.1586" y="1969.6463">crearGrado()</text></g><!--entity UC2--><g class="entity" data-entity="UC2" data-source-line="9" data-uid="ent0007" id="entity_UC2"><ellipse cx="389.1379" cy="1899.9976" fill="#F1F1F1" rx="61.3379" ry="14.6676" style="stroke:#181818;stroke-width:0.5;"/><text fill="#000000" font-family="sans-serif" font-size="14" lengthAdjust="spacing" textLength="83.5078" x="347.384" y="1904.646">verGrados()</text></g><!--entity UC3--><g class="entity" data-entity="UC3" data-source-line="10" data-uid="ent0008" id="entity_UC3"><ellipse cx="389.1434" cy="1834.9987" fill="#F1F1F1" rx="65.4934" ry="15.4987" style="stroke:#181818;stroke-width:0.5;"/><text fill="#000000" font-family="sans-serif" font-size="14" lengthAdjust="spacing" textLength="94.7734" x="341.7567" y="1839.6471">editarGrado()</text></g><!--entity UC4--><g class="entity" data-entity="UC4" data-source-line="11" data-uid="ent0009" id="entity_UC4"><ellipse cx="389.143" cy="1768.0046" fill="#F1F1F1" rx="71.723" ry="16.7446" style="stroke:#181818;stroke-width:0.5;"/><text fill="#000000" font-family="sans-serif" font-size="14" lengthAdjust="spacing" textLength="110.6875" x="333.7993" y="1772.653">eliminarGrado()</text></g><!--entity UC5--><g class="entity" data-entity="UC5" data-source-line="15" data-uid="ent0011" id="entity_UC5"><ellipse cx="389.142" cy="2288.0044" fill="#F1F1F1" rx="76.822" ry="17.7644" style="stroke:#181818;stroke-width:0.5;"/><text fill="#000000" font-family="sans-serif" font-size="14" lengthAdjust="spacing" textLength="123.1221" x="327.581" y="2292.6528">crearAsignatura()</text></g><!--entity UC6--><g class="entity" data-entity="UC6" data-source-line="16" data-uid="ent0012" id="entity_UC6"><ellipse cx="389.1436" cy="2218.0007" fill="#F1F1F1" rx="74.1536" ry="17.2307" style="stroke:#181818;stroke-width:0.5;"/><text fill="#000000" font-family="sans-serif" font-size="14" lengthAdjust="spacing" textLength="116.6689" x="330.8091" y="2222.6492">verAsignaturas()</text></g><!--entity UC7--><g class="entity" data-entity="UC7" data-source-line="17" data-uid="ent0013" id="entity_UC7"><ellipse cx="389.1402" cy="2147.998" fill="#F1F1F1" rx="78.8402" ry="18.168" style="stroke:#181818;stroke-width:0.5;"/><text fill="#000000" font-family="sans-serif" font-size="14" lengthAdjust="spacing" textLength="127.9346" x="325.1729" y="2152.6465">editarAsignatura()</text></g><!--entity UC8--><g class="entity" data-entity="UC8" data-source-line="18" data-uid="ent0014" id="entity_UC8"><ellipse cx="389.1422" cy="2075.0024" fill="#F1F1F1" rx="85.6622" ry="19.5324" style="stroke:#181818;stroke-width:0.5;"/><text fill="#000000" font-family="sans-serif" font-size="14" lengthAdjust="spacing" textLength="143.8486" x="317.2178" y="2079.6509">eliminarAsignatura()</text></g><!--entity UC9--><g class="entity" data-entity="UC9" data-source-line="22" data-uid="ent0016" id="entity_UC9"><ellipse cx="389.1352" cy="121.997" fill="#F1F1F1" rx="67.7852" ry="15.957" style="stroke:#181818;stroke-width:0.5;"/><text fill="#000000" font-family="sans-serif" font-size="14" lengthAdjust="spacing" textLength="100.7412" x="338.7646" y="126.6455">crearAlumno()</text></g><!--entity UC10--><g class="entity" data-entity="UC10" data-source-line="23" data-uid="ent0017" id="entity_UC10"><ellipse cx="389.1396" cy="56.0019" fill="#F1F1F1" rx="65.3096" ry="15.4619" style="stroke:#181818;stroke-width:0.5;"/><text fill="#000000" font-family="sans-serif" font-size="14" lengthAdjust="spacing" textLength="94.2881" x="341.9956" y="60.6504">verAlumnos()</text></g><!--entity UC11--><g class="entity" data-entity="UC11" data-source-line="24" data-uid="ent0018" id="entity_UC11"><ellipse cx="389.1433" cy="403.0047" fill="#F1F1F1" rx="69.6733" ry="16.3347" style="stroke:#181818;stroke-width:0.5;"/><text fill="#000000" font-family="sans-serif" font-size="14" lengthAdjust="spacing" textLength="105.5537" x="336.3664" y="407.6531">editarAlumno()</text></g><!--entity UC12--><g class="entity" data-entity="UC12" data-source-line="25" data-uid="ent0019" id="entity_UC12"><ellipse cx="389.1437" cy="333.9967" fill="#F1F1F1" rx="76.1337" ry="17.6267" style="stroke:#181818;stroke-width:0.5;"/><text fill="#000000" font-family="sans-serif" font-size="14" lengthAdjust="spacing" textLength="121.4678" x="328.4098" y="338.6452">eliminarAlumno()</text></g><!--entity UC19--><g class="entity" data-entity="UC19" data-source-line="26" data-uid="ent0020" id="entity_UC19"><ellipse cx="389.1447" cy="262.9989" fill="#F1F1F1" rx="80.6447" ry="18.5289" style="stroke:#181818;stroke-width:0.5;"/><text fill="#000000" font-family="sans-serif" font-size="14" lengthAdjust="spacing" textLength="132.1934" x="323.048" y="267.6474">importarAlumnos()</text></g><!--entity UC17--><g class="entity" data-entity="UC17" data-source-line="27" data-uid="ent0021" id="entity_UC17"><ellipse cx="389.1372" cy="190.9954" fill="#F1F1F1" rx="80.3772" ry="18.4754" style="stroke:#181818;stroke-width:0.5;"/><text fill="#000000" font-family="sans-serif" font-size="14" lengthAdjust="spacing" textLength="131.5645" x="323.3549" y="195.6439">exportarAlumnos()</text></g><!--entity UC20--><g class="entity" data-entity="UC20" data-source-line="33" data-uid="ent0023" id="entity_UC20"><ellipse cx="389.1436" cy="1149.9967" fill="#F1F1F1" rx="71.7836" ry="16.7567" style="stroke:#181818;stroke-width:0.5;"/><text fill="#000000" font-family="sans-serif" font-size="14" lengthAdjust="spacing" textLength="110.8379" x="333.7247" y="1154.6452">crearPregunta()</text></g><!--entity UC21--><g class="entity" data-entity="UC21" data-source-line="34" data-uid="ent0024" id="entity_UC21"><ellipse cx="389.1416" cy="1082.0023" fill="#F1F1F1" rx="69.2116" ry="16.2423" style="stroke:#181818;stroke-width:0.5;"/><text fill="#000000" font-family="sans-serif" font-size="14" lengthAdjust="spacing" textLength="104.3848" x="336.9492" y="1086.6507">verPreguntas()</text></g><!--entity UC22--><g class="entity" data-entity="UC22" data-source-line="35" data-uid="ent0025" id="entity_UC22"><ellipse cx="389.1364" cy="1013.9993" fill="#F1F1F1" rx="69.3464" ry="16.2693" style="stroke:#181818;stroke-width:0.5;"/><text fill="#000000" font-family="sans-serif" font-size="14" lengthAdjust="spacing" textLength="104.7266" x="336.7731" y="1018.6477">editarPregunta</text></g><!--entity UC23--><g class="entity" data-entity="UC23" data-source-line="36" data-uid="ent0026" id="entity_UC23"><ellipse cx="389.1372" cy="943.9954" fill="#F1F1F1" rx="80.3772" ry="18.4754" style="stroke:#181818;stroke-width:0.5;"/><text fill="#000000" font-family="sans-serif" font-size="14" lengthAdjust="spacing" textLength="131.5645" x="323.3549" y="948.6439">eliminarPregunta()</text></g><!--entity UC24--><g class="entity" data-entity="UC24" data-source-line="37" data-uid="ent0027" id="entity_UC24"><ellipse cx="389.145" cy="870.997" fill="#F1F1F1" rx="84.985" ry="19.397" style="stroke:#181818;stroke-width:0.5;"/><text fill="#000000" font-family="sans-serif" font-size="14" lengthAdjust="spacing" textLength="142.29" x="318" y="875.6454">importarPreguntas()</text></g><!--entity UC25--><g class="entity" data-entity="UC25" data-source-line="38" data-uid="ent0028" id="entity_UC25"><ellipse cx="389.1423" cy="797.0025" fill="#F1F1F1" rx="84.7123" ry="19.3425" style="stroke:#181818;stroke-width:0.5;"/><text fill="#000000" font-family="sans-serif" font-size="14" lengthAdjust="spacing" textLength="141.6611" x="318.3117" y="801.6509">exportarPreguntas()</text></g><!--entity UC40--><g class="entity" data-entity="UC40" data-source-line="39" data-uid="ent0029" id="entity_UC40"><ellipse cx="389.1432" cy="725.0026" fill="#F1F1F1" rx="75.8132" ry="17.5626" style="stroke:#181818;stroke-width:0.5;"/><text fill="#000000" font-family="sans-serif" font-size="14" lengthAdjust="spacing" textLength="120.6953" x="328.7956" y="729.6511">crearRespuesta()</text></g><!--entity UC41--><g class="entity" data-entity="UC41" data-source-line="40" data-uid="ent0030" id="entity_UC41"><ellipse cx="389.1423" cy="655.0025" fill="#F1F1F1" rx="73.1623" ry="17.0325" style="stroke:#181818;stroke-width:0.5;"/><text fill="#000000" font-family="sans-serif" font-size="14" lengthAdjust="spacing" textLength="114.2422" x="332.0212" y="659.6509">verRespuestas()</text></g><!--entity UC42--><g class="entity" data-entity="UC42" data-source-line="41" data-uid="ent0031" id="entity_UC42"><ellipse cx="389.1396" cy="585.0039" fill="#F1F1F1" rx="77.8196" ry="17.9639" style="stroke:#181818;stroke-width:0.5;"/><text fill="#000000" font-family="sans-serif" font-size="14" lengthAdjust="spacing" textLength="125.5078" x="326.3857" y="589.6524">editarRespuesta()</text></g><!--entity UC43--><g class="entity" data-entity="UC43" data-source-line="42" data-uid="ent0032" id="entity_UC43"><ellipse cx="389.1386" cy="513.0017" fill="#F1F1F1" rx="84.6086" ry="19.3217" style="stroke:#181818;stroke-width:0.5;"/><text fill="#000000" font-family="sans-serif" font-size="14" lengthAdjust="spacing" textLength="141.4219" x="318.4277" y="517.6502">eliminarRespuesta()</text></g><!--entity UC26--><g class="entity" data-entity="UC26" data-source-line="46" data-uid="ent0034" id="entity_UC26"><ellipse cx="389.1383" cy="1351.9977" fill="#F1F1F1" rx="111.7883" ry="24.7577" style="stroke:#181818;stroke-width:0.5;"/><text fill="#000000" font-family="sans-serif" font-size="14" lengthAdjust="spacing" textLength="201.7422" x="288.2672" y="1356.6461">exportarConfiguracionGlobal</text></g><!--entity UC27--><g class="entity" data-entity="UC27" data-source-line="47" data-uid="ent0035" id="entity_UC27"><ellipse cx="389.14" cy="1266.996" fill="#F1F1F1" rx="112.08" ry="24.816" style="stroke:#181818;stroke-width:0.5;"/><text fill="#000000" font-family="sans-serif" font-size="14" lengthAdjust="spacing" textLength="202.3711" x="287.9544" y="1271.6444">importarConfiguracionGlobal</text></g><!--entity UC28--><g class="entity" data-entity="UC28" data-source-line="51" data-uid="ent0037" id="entity_UC28"><ellipse cx="389.1404" cy="1544.0001" fill="#F1F1F1" rx="83.4504" ry="19.0901" style="stroke:#181818;stroke-width:0.5;"/><text fill="#000000" font-family="sans-serif" font-size="14" lengthAdjust="spacing" textLength="138.7422" x="319.7694" y="1548.6485">generarExamenes()</text></g><!--entity UC29--><g class="entity" data-entity="UC29" data-source-line="52" data-uid="ent0038" id="entity_UC29"><ellipse cx="389.1365" cy="1471.0033" fill="#F1F1F1" rx="82.0665" ry="18.8133" style="stroke:#181818;stroke-width:0.5;"/><text fill="#000000" font-family="sans-serif" font-size="14" lengthAdjust="spacing" textLength="135.5225" x="321.3753" y="1475.6517">asignarExamenes()</text></g><!--entity UC31--><g class="entity" data-entity="UC31" data-source-line="57" data-uid="ent0040" id="entity_UC31"><ellipse cx="389.1427" cy="1656.9965" fill="#F1F1F1" rx="83.3827" ry="19.0765" style="stroke:#181818;stroke-width:0.5;"/><text fill="#000000" font-family="sans-serif" font-size="14" lengthAdjust="spacing" textLength="138.585" x="319.8502" y="1661.645">corregirExamenes()</text></g><!--entity UC44--><g class="entity" data-entity="UC44" data-source-line="61" data-uid="ent0042" id="entity_UC44"><ellipse cx="389.1404" cy="2577.0001" fill="#F1F1F1" rx="67.3504" ry="15.8701" style="stroke:#181818;stroke-width:0.5;"/><text fill="#000000" font-family="sans-serif" font-size="14" lengthAdjust="spacing" textLength="99.6201" x="339.3303" y="2581.6485">iniciarSesion()</text></g><!--entity UC45--><g class="entity" data-entity="UC45" data-source-line="62" data-uid="ent0043" id="entity_UC45"><ellipse cx="389.1391" cy="2509.9978" fill="#F1F1F1" rx="67.1891" ry="15.8378" style="stroke:#181818;stroke-width:0.5;"/><text fill="#000000" font-family="sans-serif" font-size="14" lengthAdjust="spacing" textLength="99.2031" x="339.5375" y="2514.6463">cerrarSesion()</text></g><!--entity UC13--><g class="entity" data-entity="UC13" data-source-line="66" data-uid="ent0045" id="entity_UC13"><ellipse cx="389.1446" cy="2400.0009" fill="#F1F1F1" rx="82.1046" ry="18.8209" style="stroke:#181818;stroke-width:0.5;"/><text fill="#000000" font-family="sans-serif" font-size="14" lengthAdjust="spacing" textLength="135.6113" x="321.3389" y="2404.6494">completarGestion()</text></g><!--entity UC32--><g class="entity" data-entity="UC32" data-source-line="71" data-uid="ent0047" id="entity_UC32"><ellipse cx="389.143" cy="3206.9966" fill="#F1F1F1" rx="69.833" ry="16.3666" style="stroke:#181818;stroke-width:0.5;"/><text fill="#000000" font-family="sans-serif" font-size="14" lengthAdjust="spacing" textLength="105.957" x="336.1645" y="3211.645">crearDocente()</text></g><!--entity UC33--><g class="entity" data-entity="UC33" data-source-line="72" data-uid="ent0048" id="entity_UC33"><ellipse cx="389.1354" cy="3140.0011" fill="#F1F1F1" rx="67.3054" ry="15.8611" style="stroke:#181818;stroke-width:0.5;"/><text fill="#000000" font-family="sans-serif" font-size="14" lengthAdjust="spacing" textLength="99.5039" x="339.3834" y="3144.6495">verDocentes()</text></g><!--entity UC34--><g class="entity" data-entity="UC34" data-source-line="73" data-uid="ent0049" id="entity_UC34"><ellipse cx="389.1361" cy="3072.0012" fill="#F1F1F1" rx="71.7561" ry="16.7512" style="stroke:#181818;stroke-width:0.5;"/><text fill="#000000" font-family="sans-serif" font-size="14" lengthAdjust="spacing" textLength="110.7695" x="333.7513" y="3076.6497">editarDocente()</text></g><!--entity UC35--><g class="entity" data-entity="UC35" data-source-line="74" data-uid="ent0050" id="entity_UC35"><ellipse cx="389.1434" cy="3002.0027" fill="#F1F1F1" rx="78.3134" ry="18.0627" style="stroke:#181818;stroke-width:0.5;"/><text fill="#000000" font-family="sans-serif" font-size="14" lengthAdjust="spacing" textLength="126.6836" x="325.8016" y="3006.6511">eliminarDocente()</text></g><!--entity UC36--><g class="entity" data-entity="UC36" data-source-line="78" data-uid="ent0052" id="entity_UC36"><ellipse cx="389.1443" cy="2891.0009" fill="#F1F1F1" rx="76.5543" ry="17.7109" style="stroke:#181818;stroke-width:0.5;"/><text fill="#000000" font-family="sans-serif" font-size="14" lengthAdjust="spacing" textLength="122.4795" x="327.9045" y="2895.6493">adquirirLicencia()</text></g><!--entity UC37--><g class="entity" data-entity="UC37" data-source-line="79" data-uid="ent0053" id="entity_UC37"><ellipse cx="389.1412" cy="2822.9982" fill="#F1F1F1" rx="66.6912" ry="15.7382" style="stroke:#181818;stroke-width:0.5;"/><text fill="#000000" font-family="sans-serif" font-size="14" lengthAdjust="spacing" textLength="97.9111" x="340.1857" y="2827.6467">verLicencias()</text></g><!--entity UC38--><g class="entity" data-entity="UC38" data-source-line="80" data-uid="ent0054" id="entity_UC38"><ellipse cx="389.1362" cy="2756.0032" fill="#F1F1F1" rx="71.1162" ry="16.6232" style="stroke:#181818;stroke-width:0.5;"/><text fill="#000000" font-family="sans-serif" font-size="14" lengthAdjust="spacing" textLength="109.1768" x="334.5478" y="2760.6517">editarLicencia()</text></g><!--entity UC39--><g class="entity" data-entity="UC39" data-source-line="81" data-uid="ent0055" id="entity_UC39"><ellipse cx="389.1449" cy="2685.999" fill="#F1F1F1" rx="77.6449" ry="17.929" style="stroke:#181818;stroke-width:0.5;"/><text fill="#000000" font-family="sans-serif" font-size="14" lengthAdjust="spacing" textLength="125.0908" x="326.5994" y="2690.6474">eliminarLicencia()</text></g><!--entity doc--><g class="entity" data-entity="doc" data-source-line="3" data-uid="ent0002" id="entity_doc"><ellipse cx="100.5259" cy="1179.35" fill="#F1F1F1" rx="8" ry="8" style="stroke:#181818;stroke-width:0.5;"/><path d="M100.5259,1187.35 L100.5259,1214.35 M87.5259,1195.35 L113.5259,1195.35 M100.5259,1214.35 L87.5259,1229.35 M100.5259,1214.35 L113.5259,1229.35" fill="none" style="stroke:#181818;stroke-width:0.5;"/><text fill="#000000" font-family="sans-serif" font-size="14" lengthAdjust="spacing" textLength="58.6318" x="71.21" y="1243.8451">Docente</text></g><!--entity admin--><g class="entity" data-entity="admin" data-source-line="4" data-uid="ent0003" id="entity_admin"><ellipse cx="100.5308" cy="2793.35" fill="#F1F1F1" rx="8" ry="8" style="stroke:#181818;stroke-width:0.5;"/><path d="M100.5308,2801.35 L100.5308,2828.35 M87.5308,2809.35 L113.5308,2809.35 M100.5308,2828.35 L87.5308,2843.35 M100.5308,2828.35 L113.5308,2843.35" fill="none" style="stroke:#181818;stroke-width:0.5;"/><text fill="#000000" font-family="sans-serif" font-size="14" lengthAdjust="spacing" textLength="189.0615" x="6" y="2857.8451">Administrador Institucional</text></g><!--entity tiempo--><g class="entity" data-entity="tiempo" data-source-line="5" data-uid="ent0004" id="entity_tiempo"><ellipse cx="100.5323" cy="2480.35" fill="#F1F1F1" rx="8" ry="8" style="stroke:#181818;stroke-width:0.5;"/><path d="M100.5323,2488.35 L100.5323,2515.35 M87.5323,2496.35 L113.5323,2496.35 M100.5323,2515.35 L87.5323,2530.35 M100.5323,2515.35 L113.5323,2530.35" fill="none" style="stroke:#181818;stroke-width:0.5;"/><text fill="#000000" font-family="sans-serif" font-size="14" lengthAdjust="spacing" textLength="52.1445" x="74.46" y="2544.8451">Tiempo</text></g><!--link doc to UC1--><g class="link" data-entity-1="doc" data-entity-2="UC1" data-source-line="85" data-uid="lnk56" id="link_doc_UC1"><path d="M102.89,1247.32 C108.47,1382.26 134.15,1832.73 230.5,1932 C254.94,1957.18 287.3117,1965.2253 320.0717,1967.2753" fill="none" id="doc-to-UC1" style="stroke:#181818;stroke-width:1;"/><polygon fill="#181818" points="326.06,1967.65,317.3274,1963.0957,321.0698,1967.3377,316.8278,1971.0801,326.06,1967.65" style="stroke:#181818;stroke-width:1;"/></g><!--link doc to UC2--><g class="link" data-entity-1="doc" data-entity-2="UC2" data-source-line="86" data-uid="lnk57" id="link_doc_UC2"><path d="M103.6,1247.45 C111.25,1374.7 142.19,1779.07 230.5,1868 C255.78,1893.46 289.407,1901.1394 322.607,1902.7494" fill="none" id="doc-to-UC2" style="stroke:#181818;stroke-width:1;"/><polygon fill="#181818" points="328.6,1903.04,319.8043,1898.6088,323.6059,1902.7978,319.4168,1906.5994,328.6,1903.04" style="stroke:#181818;stroke-width:1;"/></g><!--link doc to UC3--><g class="link" data-entity-1="doc" data-entity-2="UC3" data-source-line="87" data-uid="lnk58" id="link_doc_UC3"><path d="M104.52,1247.3 C114.54,1365.77 150.94,1723.06 230.5,1802 C254.81,1826.13 285.9667,1834.2731 318.0967,1836.6731" fill="none" id="doc-to-UC3" style="stroke:#181818;stroke-width:1;"/><polygon fill="#181818" points="324.08,1837.12,315.403,1832.4607,319.0939,1836.7476,314.807,1840.4385,324.08,1837.12" style="stroke:#181818;stroke-width:1;"/></g><!--link doc to UC4--><g class="link" data-entity-1="doc" data-entity-2="UC4" data-source-line="88" data-uid="lnk59" id="link_doc_UC4"><path d="M101.42,1247.36 C103.17,1335.94 119.15,1557.43 230.5,1692 C257.9,1725.12 297.4568,1743.0485 332.4668,1754.0685" fill="none" id="doc-to-UC4" style="stroke:#181818;stroke-width:1;"/><polygon fill="#181818" points="338.19,1755.87,330.8062,1749.3523,333.4207,1754.3688,328.4043,1756.9832,338.19,1755.87" style="stroke:#181818;stroke-width:1;"/></g><!--link doc to UC5--><g class="link" data-entity-1="doc" data-entity-2="UC5" data-source-line="89" data-uid="lnk60" id="link_doc_UC5"><path d="M103.69,1247.57 C114.09,1427.29 161.37,2176.93 230.5,2253 C251.05,2275.62 276.726,2284.5785 306.276,2288.2585" fill="none" id="doc-to-UC5" style="stroke:#181818;stroke-width:1;"/><polygon fill="#181818" points="312.23,2289,303.7933,2283.9184,307.2683,2288.3821,302.8047,2291.8571,312.23,2289" style="stroke:#181818;stroke-width:1;"/></g><!--link doc to UC6--><g class="link" data-entity-1="doc" data-entity-2="UC6" data-source-line="90" data-uid="lnk61" id="link_doc_UC6"><path d="M100.96,1247.54 C99.37,1410.93 101.72,2044.36 230.5,2184 C251.85,2207.16 278.9138,2215.8844 309.2338,2219.1144" fill="none" id="doc-to-UC6" style="stroke:#181818;stroke-width:1;"/><polygon fill="#181818" points="315.2,2219.75,306.6744,2214.8191,310.2281,2219.2203,305.8269,2222.7741,315.2,2219.75" style="stroke:#181818;stroke-width:1;"/></g><!--link doc to UC7--><g class="link" data-entity-1="doc" data-entity-2="UC7" data-source-line="91" data-uid="lnk62" id="link_doc_UC7"><path d="M101.46,1247.54 C101.97,1403.18 111.91,1983.18 230.5,2112 C250.65,2133.89 275.2004,2142.9809 304.0204,2147.1009" fill="none" id="doc-to-UC7" style="stroke:#181818;stroke-width:1;"/><polygon fill="#181818" points="309.96,2147.95,301.6166,2142.7166,305.0103,2147.2424,300.4845,2150.6361,309.96,2147.95" style="stroke:#181818;stroke-width:1;"/></g><!--link doc to UC8--><g class="link" data-entity-1="doc" data-entity-2="UC8" data-source-line="92" data-uid="lnk63" id="link_doc_UC8"><path d="M103.28,1247.35 C110.35,1388.1 140.96,1874.3 230.5,1996 C254.54,2028.67 290.2406,2046.755 324.5806,2058.455" fill="none" id="doc-to-UC8" style="stroke:#181818;stroke-width:1;"/><polygon fill="#181818" points="330.26,2060.39,323.0309,2053.7012,325.5272,2058.7775,320.4509,2061.2737,330.26,2060.39" style="stroke:#181818;stroke-width:1;"/></g><!--link doc to UC9--><g class="link" data-entity-1="doc" data-entity-2="UC9" data-source-line="93" data-uid="lnk64" id="link_doc_UC9"><path d="M103.61,1170.64 C113.73,990.21 160.22,231.49 230.5,155 C253.39,130.09 283.8751,121.7751 315.9751,119.4951" fill="none" id="doc-to-UC9" style="stroke:#181818;stroke-width:1;"/><polygon fill="#181818" points="321.96,119.07,312.6992,115.7177,316.9726,119.4242,313.266,123.6976,321.96,119.07" style="stroke:#181818;stroke-width:1;"/></g><!--link doc to UC10--><g class="link" data-entity-1="doc" data-entity-2="UC10" data-source-line="94" data-uid="lnk65" id="link_doc_UC10"><path d="M103.33,1170.45 C112.42,982.82 155.88,170.79 230.5,89 C253.96,63.28 285.9006,55.1264 318.6706,53.1764" fill="none" id="doc-to-UC10" style="stroke:#181818;stroke-width:1;"/><polygon fill="#181818" points="324.66,52.82,315.4383,49.3617,319.6688,53.117,315.9135,57.3475,324.66,52.82" style="stroke:#181818;stroke-width:1;"/></g><!--link doc to UC11--><g class="link" data-entity-1="doc" data-entity-2="UC11" data-source-line="95" data-uid="lnk66" id="link_doc_UC11"><path d="M103.73,1170.55 C112.1,1036.11 145.9,589.13 230.5,478 C256.38,444 295.8271,426.4041 331.2071,415.9241" fill="none" id="doc-to-UC11" style="stroke:#181818;stroke-width:1;"/><polygon fill="#181818" points="336.96,414.22,327.1946,412.9409,332.1659,415.6401,329.4667,420.6114,336.96,414.22" style="stroke:#181818;stroke-width:1;"/></g><!--link doc to UC12--><g class="link" data-entity-1="doc" data-entity-2="UC12" data-source-line="96" data-uid="lnk67" id="link_doc_UC12"><path d="M101.89,1170.36 C104.1,1021.47 119.72,487.36 230.5,369 C251.47,346.59 277.3961,337.682 307.0061,333.992" fill="none" id="doc-to-UC12" style="stroke:#181818;stroke-width:1;"/><polygon fill="#181818" points="312.96,333.25,303.5344,330.3937,307.9984,333.8683,304.5237,338.3323,312.96,333.25" style="stroke:#181818;stroke-width:1;"/></g><!--link doc to UC13--><g class="link" data-entity-1="doc" data-entity-2="UC13" data-source-line="97" data-uid="lnk68" id="link_doc_UC13"><path d="M101.2,1247.59 C100.39,1422.91 104.88,2143.55 230.5,2322 C253.96,2355.33 290.115,2373.2517 324.805,2384.5517" fill="none" id="doc-to-UC13" style="stroke:#181818;stroke-width:1;"/><polygon fill="#181818" points="330.51,2386.41,323.1915,2379.8192,325.7559,2384.8614,320.7137,2387.4258,330.51,2386.41" style="stroke:#181818;stroke-width:1;"/></g><!--link doc to UC17--><g class="link" data-entity-1="doc" data-entity-2="UC17" data-source-line="98" data-uid="lnk69" id="link_doc_UC17"><path d="M100.97,1170.5 C99.37,1006.55 101.66,368.55 230.5,227 C250.24,205.3 274.2046,196.198 302.6646,191.988" fill="none" id="doc-to-UC17" style="stroke:#181818;stroke-width:1;"/><polygon fill="#181818" points="308.6,191.11,299.1115,188.4701,303.6538,191.8417,300.2822,196.384,308.6,191.11" style="stroke:#181818;stroke-width:1;"/></g><!--link doc to UC19--><g class="link" data-entity-1="doc" data-entity-2="UC19" data-source-line="99" data-uid="lnk70" id="link_doc_UC19"><path d="M101.41,1170.43 C101.73,1013.99 111.01,428.93 230.5,299 C250.26,277.51 274.047,268.4342 302.377,264.1642" fill="none" id="doc-to-UC19" style="stroke:#181818;stroke-width:1;"/><polygon fill="#181818" points="308.31,263.27,298.8144,260.656,303.3658,264.0152,300.0067,268.5667,308.31,263.27" style="stroke:#181818;stroke-width:1;"/></g><!--link doc to UC20--><g class="link" data-entity-1="doc" data-entity-2="UC20" data-source-line="100" data-uid="lnk71" id="link_doc_UC20"><path d="M130.32,1203.07 C177.88,1193.28 267.7032,1174.7898 328.1832,1162.3398" fill="none" id="doc-to-UC20" style="stroke:#181818;stroke-width:1;"/><polygon fill="#181818" points="334.06,1161.13,324.4383,1159.0268,329.1627,1162.1381,326.0513,1166.8625,334.06,1161.13" style="stroke:#181818;stroke-width:1;"/></g><!--link doc to UC21--><g class="link" data-entity-1="doc" data-entity-2="UC21" data-source-line="101" data-uid="lnk72" id="link_doc_UC21"><path d="M130.09,1183.03 C154.89,1161.87 192.67,1132.83 230.5,1116 C260.68,1102.57 290.6129,1095.2938 320.5029,1090.2738" fill="none" id="doc-to-UC21" style="stroke:#181818;stroke-width:1;"/><polygon fill="#181818" points="326.42,1089.28,316.8818,1086.8259,321.4891,1090.1081,318.2068,1094.7154,326.42,1089.28" style="stroke:#181818;stroke-width:1;"/></g><!--link doc to UC22--><g class="link" data-entity-1="doc" data-entity-2="UC22" data-source-line="102" data-uid="lnk73" id="link_doc_UC22"><path d="M121.98,1170.42 C143.81,1133.15 181.92,1078.05 230.5,1048 C257.76,1031.14 286.233,1023.4273 315.943,1019.0873" fill="none" id="doc-to-UC22" style="stroke:#181818;stroke-width:1;"/><polygon fill="#181818" points="321.88,1018.22,312.3963,1015.5629,316.9325,1018.9427,313.5527,1023.4789,321.88,1018.22" style="stroke:#181818;stroke-width:1;"/></g><!--link doc to UC23--><g class="link" data-entity-1="doc" data-entity-2="UC23" data-source-line="103" data-uid="lnk74" id="link_doc_UC23"><path d="M112.45,1170.4 C129.11,1118.77 165.96,1028.17 230.5,980 C253.56,962.79 277.511,954.631 305.041,949.781" fill="none" id="doc-to-UC23" style="stroke:#181818;stroke-width:1;"/><polygon fill="#181818" points="310.95,948.74,301.3925,946.3622,306.0258,949.6075,302.7805,954.2408,310.95,948.74" style="stroke:#181818;stroke-width:1;"/></g><!--link doc to UC24--><g class="link" data-entity-1="doc" data-entity-2="UC24" data-source-line="104" data-uid="lnk75" id="link_doc_UC24"><path d="M106.75,1170.6 C117.62,1106.14 148.85,976.53 230.5,908 C251.6,890.29 273.7563,881.8342 300.3363,876.7642" fill="none" id="doc-to-UC24" style="stroke:#181818;stroke-width:1;"/><polygon fill="#181818" points="306.23,875.64,296.6399,873.3971,301.3185,876.5768,298.1389,881.2555,306.23,875.64" style="stroke:#181818;stroke-width:1;"/></g><!--link doc to UC25--><g class="link" data-entity-1="doc" data-entity-2="UC25" data-source-line="105" data-uid="lnk76" id="link_doc_UC25"><path d="M103.05,1170.61 C108.21,1094.49 130.91,924.03 230.5,834 C251.04,815.43 273.2108,806.7652 299.9808,801.7952" fill="none" id="doc-to-UC25" style="stroke:#181818;stroke-width:1;"/><polygon fill="#181818" points="305.88,800.7,296.3011,798.41,300.964,801.6127,297.7614,806.2756,305.88,800.7" style="stroke:#181818;stroke-width:1;"/></g><!--link doc to UC26--><g class="link" data-entity-1="doc" data-entity-2="UC26" data-source-line="106" data-uid="lnk77" id="link_doc_UC26"><path d="M129.99,1236.47 C154.73,1258.95 192.47,1290.02 230.5,1309 C253.34,1320.4 273.8107,1327.5613 298.2707,1334.0513" fill="none" id="doc-to-UC26" style="stroke:#181818;stroke-width:1;"/><polygon fill="#181818" points="304.07,1335.59,296.3968,1329.4157,299.2372,1334.3077,294.3452,1337.1481,304.07,1335.59" style="stroke:#181818;stroke-width:1;"/></g><!--link doc to UC27--><g class="link" data-entity-1="doc" data-entity-2="UC27" data-source-line="107" data-uid="lnk78" id="link_doc_UC27"><path d="M130.32,1214.83 C170.85,1223.03 240.4692,1237.12 299.3292,1249.03" fill="none" id="doc-to-UC27" style="stroke:#181818;stroke-width:1;"/><polygon fill="#181818" points="305.21,1250.22,297.1821,1244.5145,300.3093,1249.2284,295.5955,1252.3556,305.21,1250.22" style="stroke:#181818;stroke-width:1;"/></g><!--link doc to UC28--><g class="link" data-entity-1="doc" data-entity-2="UC28" data-source-line="108" data-uid="lnk79" id="link_doc_UC28"><path d="M106.96,1247.54 C118.09,1311.54 149.63,1439.37 230.5,1507 C251.95,1524.94 274.6511,1533.433 301.5911,1538.443" fill="none" id="doc-to-UC28" style="stroke:#181818;stroke-width:1;"/><polygon fill="#181818" points="307.49,1539.54,299.373,1533.9619,302.5743,1538.6258,297.9104,1541.8271,307.49,1539.54" style="stroke:#181818;stroke-width:1;"/></g><!--link doc to UC29--><g class="link" data-entity-1="doc" data-entity-2="UC29" data-source-line="109" data-uid="lnk80" id="link_doc_UC29"><path d="M120.92,1247.43 C142.92,1287.92 182.11,1351.45 230.5,1393 C263.51,1421.35 303.027,1440.1279 336.527,1453.1379" fill="none" id="doc-to-UC29" style="stroke:#181818;stroke-width:1;"/><polygon fill="#181818" points="342.12,1455.31,335.1785,1448.3232,337.4591,1453.4999,332.2824,1455.7805,342.12,1455.31" style="stroke:#181818;stroke-width:1;"/></g><!--link doc to UC31--><g class="link" data-entity-1="doc" data-entity-2="UC31" data-source-line="110" data-uid="lnk81" id="link_doc_UC31"><path d="M105.36,1247.6 C114.5,1320.68 143.71,1480.71 230.5,1579 C257.98,1610.13 295.0994,1628.2106 329.1594,1640.1806" fill="none" id="doc-to-UC31" style="stroke:#181818;stroke-width:1;"/><polygon fill="#181818" points="334.82,1642.17,327.6553,1635.4122,330.1028,1640.5122,325.0029,1642.9597,334.82,1642.17" style="stroke:#181818;stroke-width:1;"/></g><!--link doc to UC40--><g class="link" data-entity-1="doc" data-entity-2="UC40" data-source-line="111" data-uid="lnk82" id="link_doc_UC40"><path d="M107.46,1170.5 C123.33,1072.47 169.72,817.16 230.5,760 C252.55,739.26 278.1164,730.6004 307.1664,726.5904" fill="none" id="doc-to-UC40" style="stroke:#181818;stroke-width:1;"/><polygon fill="#181818" points="313.11,725.77,303.6476,723.0382,308.157,726.4537,304.7415,730.9631,313.11,725.77" style="stroke:#181818;stroke-width:1;"/></g><!--link doc to UC41--><g class="link" data-entity-1="doc" data-entity-2="UC41" data-source-line="112" data-uid="lnk83" id="link_doc_UC41"><path d="M105.86,1170.57 C118.83,1062.25 160.87,757.9 230.5,690 C252.88,668.18 279.716,659.4613 309.596,655.7413" fill="none" id="doc-to-UC41" style="stroke:#181818;stroke-width:1;"/><polygon fill="#181818" points="315.55,655,306.1248,652.1425,310.5883,655.6177,307.1131,660.0813,315.55,655" style="stroke:#181818;stroke-width:1;"/></g><!--link doc to UC42--><g class="link" data-entity-1="doc" data-entity-2="UC42" data-source-line="113" data-uid="lnk84" id="link_doc_UC42"><path d="M104.63,1170.58 C114.95,1052.6 151.97,698.76 230.5,620 C251.58,598.86 276.4572,590.0769 305.2772,586.0669" fill="none" id="doc-to-UC42" style="stroke:#181818;stroke-width:1;"/><polygon fill="#181818" points="311.22,585.24,301.7546,582.5185,306.2677,585.9291,302.8571,590.4421,311.22,585.24" style="stroke:#181818;stroke-width:1;"/></g><!--link doc to UC43--><g class="link" data-entity-1="doc" data-entity-2="UC43" data-source-line="114" data-uid="lnk85" id="link_doc_UC43"><path d="M103.7,1170.65 C111.68,1043.73 143.55,640.25 230.5,550 C249.81,529.96 271.8532,520.9337 298.8732,516.1137" fill="none" id="doc-to-UC43" style="stroke:#181818;stroke-width:1;"/><polygon fill="#181818" points="304.78,515.06,295.2174,512.7027,299.8577,515.9381,296.6223,520.5784,304.78,515.06" style="stroke:#181818;stroke-width:1;"/></g><!--link doc to UC44--><g class="link" data-entity-1="doc" data-entity-2="UC44" data-source-line="115" data-uid="lnk86" id="link_doc_UC44"><path d="M102.59,1247.41 C108.65,1455.64 141.97,2443.56 230.5,2543 C253.21,2568.51 284.0957,2576.9956 316.4657,2579.3456" fill="none" id="doc-to-UC44" style="stroke:#181818;stroke-width:1;"/><polygon fill="#181818" points="322.45,2579.78,313.7633,2575.1388,317.4631,2579.418,313.184,2583.1178,322.45,2579.78" style="stroke:#181818;stroke-width:1;"/></g><!--link doc to UC45--><g class="link" data-entity-1="doc" data-entity-2="UC45" data-source-line="116" data-uid="lnk87" id="link_doc_UC45"><path d="M103.36,1247.51 C112.99,1444.66 160.19,2335.63 230.5,2435 C255.44,2470.26 295.6858,2487.8695 331.5958,2498.0095" fill="none" id="doc-to-UC45" style="stroke:#181818;stroke-width:1;"/><polygon fill="#181818" points="337.37,2499.64,329.7957,2493.3448,332.5582,2498.2813,327.6217,2501.0438,337.37,2499.64" style="stroke:#181818;stroke-width:1;"/></g><!--link admin to UC13--><g class="link" data-entity-1="admin" data-entity-2="UC13" data-source-line="118" data-uid="lnk88" id="link_admin_UC13"><path d="M115.48,2784.55 C147.73,2695.85 225.08,2484 230.5,2478 C258.64,2446.84 296.37,2428.6411 330.51,2416.6311" fill="none" id="admin-to-UC13" style="stroke:#181818;stroke-width:1;"/><polygon fill="#181818" points="336.17,2414.64,326.3526,2413.8533,331.4533,2416.2993,329.0074,2421.4,336.17,2414.64" style="stroke:#181818;stroke-width:1;"/></g><!--link admin to UC32--><g class="link" data-entity-1="admin" data-entity-2="UC32" data-source-line="119" data-uid="lnk89" id="link_admin_UC32"><path d="M104,2861.55 C110.82,2934.14 136.25,3091.16 230.5,3173 C254.7,3194.02 282.8308,3202.3416 313.1208,3205.8916" fill="none" id="admin-to-UC32" style="stroke:#181818;stroke-width:1;"/><polygon fill="#181818" points="319.08,3206.59,310.6068,3201.5696,314.114,3206.008,309.6756,3209.5152,319.08,3206.59" style="stroke:#181818;stroke-width:1;"/></g><!--link admin to UC33--><g class="link" data-entity-1="admin" data-entity-2="UC33" data-source-line="120" data-uid="lnk90" id="link_admin_UC33"><path d="M107.74,2861.28 C119.81,2922.82 152.48,3043.19 230.5,3106 C256.01,3126.54 285.1704,3134.7152 315.7904,3138.2852" fill="none" id="admin-to-UC33" style="stroke:#181818;stroke-width:1;"/><polygon fill="#181818" points="321.75,3138.98,313.2738,3133.9647,316.7836,3138.401,312.3473,3141.9108,321.75,3138.98" style="stroke:#181818;stroke-width:1;"/></g><!--link admin to UC34--><g class="link" data-entity-1="admin" data-entity-2="UC34" data-source-line="121" data-uid="lnk91" id="link_admin_UC34"><path d="M113.8,2861.47 C131.47,2910.43 168.92,2993.9 230.5,3038 C255.76,3056.09 282.8197,3064.0457 312.0897,3068.2057" fill="none" id="admin-to-UC34" style="stroke:#181818;stroke-width:1;"/><polygon fill="#181818" points="318.03,3069.05,309.6824,3063.8234,313.0797,3068.3464,308.5567,3071.7438,318.03,3069.05" style="stroke:#181818;stroke-width:1;"/></g><!--link admin to UC35--><g class="link" data-entity-1="admin" data-entity-2="UC35" data-source-line="122" data-uid="lnk92" id="link_admin_UC35"><path d="M145.43,2861.6 C169.6,2881.82 200.66,2906.22 230.5,2925 C269.29,2949.42 311.4599,2969.3424 344.1499,2983.5924" fill="none" id="admin-to-UC35" style="stroke:#181818;stroke-width:1;"/><polygon fill="#181818" points="349.65,2985.99,342.9982,2978.7269,345.0665,2983.992,339.8014,2986.0604,349.65,2985.99" style="stroke:#181818;stroke-width:1;"/></g><!--link admin to UC36--><g class="link" data-entity-1="admin" data-entity-2="UC36" data-source-line="123" data-uid="lnk93" id="link_admin_UC36"><path d="M195.48,2847.41 C207.25,2850.36 219.14,2853.29 230.5,2856 C264.04,2864.01 295.8774,2871.1232 325.9974,2877.6832" fill="none" id="admin-to-UC36" style="stroke:#181818;stroke-width:1;"/><polygon fill="#181818" points="331.86,2878.96,323.9174,2873.1364,326.9745,2877.896,322.2149,2880.9531,331.86,2878.96" style="stroke:#181818;stroke-width:1;"/></g><!--link admin to UC37--><g class="link" data-entity-1="admin" data-entity-2="UC37" data-source-line="124" data-uid="lnk94" id="link_admin_UC37"><path d="M195.38,2823 C236.85,2823 278.61,2823 316.22,2823" fill="none" id="admin-to-UC37" style="stroke:#181818;stroke-width:1;"/><polygon fill="#181818" points="322.22,2823,313.22,2819,317.22,2823,313.22,2827,322.22,2823" style="stroke:#181818;stroke-width:1;"/></g><!--link admin to UC38--><g class="link" data-entity-1="admin" data-entity-2="UC38" data-source-line="125" data-uid="lnk95" id="link_admin_UC38"><path d="M195.46,2798.52 C207.24,2795.58 219.14,2792.68 230.5,2790 C265.11,2781.84 298.2979,2774.6424 328.8879,2768.2224" fill="none" id="admin-to-UC38" style="stroke:#181818;stroke-width:1;"/><polygon fill="#181818" points="334.76,2766.99,325.1303,2764.9239,329.8666,2768.017,326.7735,2772.7533,334.76,2766.99" style="stroke:#181818;stroke-width:1;"/></g><!--link admin to UC39--><g class="link" data-entity-1="admin" data-entity-2="UC39" data-source-line="126" data-uid="lnk96" id="link_admin_UC39"><path d="M141.08,2784.49 C165.14,2763.1 197.5,2737.71 230.5,2722 C258.5,2708.66 285.8031,2701.2375 314.5031,2695.8475" fill="none" id="admin-to-UC39" style="stroke:#181818;stroke-width:1;"/><polygon fill="#181818" points="320.4,2694.74,310.8163,2692.4699,315.4859,2695.6629,312.293,2700.3325,320.4,2694.74" style="stroke:#181818;stroke-width:1;"/></g><!--link admin to UC44--><g class="link" data-entity-1="admin" data-entity-2="UC44" data-source-line="127" data-uid="lnk97" id="link_admin_UC44"><path d="M123.1,2784.41 C145.79,2746.65 184.54,2689.49 230.5,2652 C265.96,2623.07 308.7901,2604.2174 342.5901,2591.9474" fill="none" id="admin-to-UC44" style="stroke:#181818;stroke-width:1;"/><polygon fill="#181818" points="348.23,2589.9,338.4053,2589.2111,343.5301,2591.6061,341.1351,2596.731,348.23,2589.9" style="stroke:#181818;stroke-width:1;"/></g><!--link admin to UC45--><g class="link" data-entity-1="admin" data-entity-2="UC45" data-source-line="128" data-uid="lnk98" id="link_admin_UC45"><path d="M108.01,2784.76 C120.4,2723.93 153.43,2605.7 230.5,2544 C256.07,2523.53 285.2308,2515.3689 315.8408,2511.7789" fill="none" id="admin-to-UC45" style="stroke:#181818;stroke-width:1;"/><polygon fill="#181818" points="321.8,2511.08,312.3953,2508.1556,316.834,2511.6624,313.3272,2516.1011,321.8,2511.08" style="stroke:#181818;stroke-width:1;"/></g><!--link tiempo to UC45--><g class="link" data-entity-1="tiempo" data-entity-2="UC45" data-source-line="130" data-uid="lnk99" id="link_tiempo_UC45"><path d="M126.97,2510 C170.26,2510 253.6,2510 315.66,2510" fill="none" id="tiempo-to-UC45" style="stroke:#181818;stroke-width:1;"/><polygon fill="#181818" points="321.66,2510,312.66,2506,316.66,2510,312.66,2514,321.66,2510" style="stroke:#181818;stroke-width:1;"/></g><!--SRC=[VLPBRjim4Dth58HNoIA0HT6MlIaG985He0MAVWx0IenALAPSaYe213rLZf2BbQ8jSKXEikDe7j-yDnfIwiMZ9NOWMdQ_B6cb5esLWoeAtjX1azNzq0XbnOfmGzgXcH_VjaUffB6Qjoxyg8oLTcpSHjvxA9_oC_Yx5CVJu9zRlooA4sz-yqwGrUVNbtRi1tAOc5RakI1aDABXnkKQBRZsYQjhl_l7NGdpVyKvQvOqXMdHIflkho90BvtA5CAAVuY-MoCxnUseEIOoP1UQJQ8qG8BSRIuNOQenpGXkXmllnwD2EtlEBDltgM2V3cBBDQ8sfYXBL6e2cbvIG4at3tgX0kNs4KmylG6h9zVOG0atawylYhI2VD6Y6vNb1cl3d0n3j4uwiMmFa3BlnOoQ8HJhHLuiciYv6KX5LY3TG71kxc9_NuKvZQuPeIPB3IwGmCCGXmWJQXB1LUXitWtgKNPkXXl_fWv22JrT8C-OLm0UrA4VVbwk6kTvY_Nm7NoDgdbuuaUXakgTrwJFEG7wl8CexayZWd93_8PpxMvQRpkToIdJoPohAb6cRy8WBEvoRYJNKt9GuJL4GzG8hNF81gqodwPCxF7KY-cMdVA0fgmAbEVoEK4FuYKN3DDaJEVD0L7bGvgnC6n4CzJxjiadwV2ke-PAkcrg6gdhn0Dl_unIIpr30_SsyH785aYT6ybvTfYJ7BRtDwBxM9ERcm_-cndM5Amhi6PWlG7hBLZNOBq3wpsijOO1h5p2qYMiNKBY4h9Ho4OZ7v2DGZOAhL3eXK8p51Qbq0w52YfOb44vBCf0EIngB9JZ3bVX_un26s3e1ZuAaooBmqqSRkEmZiDT7EwZaCNCayhpVzhou3y0]--></g></svg>