<svg xmlns="http://www.w3.org/2000/svg" xmlns:xlink="http://www.w3.org/1999/xlink" contentStyleType="text/css" data-diagram-type="DESCRIPTION" height="1382px" preserveAspectRatio="none" style="width:863px;height:1382px;background:#FFFFFF;" version="1.1" viewBox="0 0 863 1382" width="863px" zoomAndPan="magnify"><defs/><g><!--cluster M?dulo Grado--><g class="cluster" data-entity="M.dulo Grado" data-source-line="5" data-uid="ent0003" id="cluster_M.dulo Grado"><path d="M388.19,708 L499.5015,708 A3.75,3.75 0 0 1 502.0015,710.5 L509.0015,730.2969 L558.64,730.2969 A2.5,2.5 0 0 1 561.14,732.7969 L561.14,985.5 A2.5,2.5 0 0 1 558.64,988 L388.19,988 A2.5,2.5 0 0 1 385.69,985.5 L385.69,710.5 A2.5,2.5 0 0 1 388.19,708" fill="none" style="stroke:#000000;stroke-width:1.5;"/><line style="stroke:#000000;stroke-width:1.5;" x1="385.69" x2="509.0015" y1="730.2969" y2="730.2969"/><text fill="#000000" font-family="sans-serif" font-size="14" font-weight="bold" lengthAdjust="spacing" textLength="110.3115" x="389.69" y="722.9951">M&#243;dulo Grado</text></g><!--cluster M?dulo Asignatura--><g class="cluster" data-entity="M.dulo Asignatura" data-source-line="14" data-uid="ent0008" id="cluster_M.dulo Asignatura"><path d="M374.25,295 L524.4922,295 A3.75,3.75 0 0 1 526.9922,297.5 L533.9922,317.2969 L572.58,317.2969 A2.5,2.5 0 0 1 575.08,319.7969 L575.08,594.5 A2.5,2.5 0 0 1 572.58,597 L374.25,597 A2.5,2.5 0 0 1 371.75,594.5 L371.75,297.5 A2.5,2.5 0 0 1 374.25,295" fill="none" style="stroke:#000000;stroke-width:1.5;"/><line style="stroke:#000000;stroke-width:1.5;" x1="371.75" x2="533.9922" y1="317.2969" y2="317.2969"/><text fill="#000000" font-family="sans-serif" font-size="14" font-weight="bold" lengthAdjust="spacing" textLength="149.2422" x="375.75" y="309.9951">M&#243;dulo Asignatura</text></g><!--cluster M?dulo Alumno--><g class="cluster" data-entity="M.dulo Alumno" data-source-line="23" data-uid="ent0013" id="cluster_M.dulo Alumno"><path d="M115.96,979 L239.5625,979 A3.75,3.75 0 0 1 242.0625,981.5 L249.0625,1001.2969 L295.22,1001.2969 A2.5,2.5 0 0 1 297.72,1003.7969 L297.72,1263.5 A2.5,2.5 0 0 1 295.22,1266 L115.96,1266 A2.5,2.5 0 0 1 113.46,1263.5 L113.46,981.5 A2.5,2.5 0 0 1 115.96,979" fill="none" style="stroke:#000000;stroke-width:1.5;"/><line style="stroke:#000000;stroke-width:1.5;" x1="113.46" x2="249.0625" y1="1001.2969" y2="1001.2969"/><text fill="#000000" font-family="sans-serif" font-size="14" font-weight="bold" lengthAdjust="spacing" textLength="122.6025" x="117.46" y="993.9951">M&#243;dulo Alumno</text></g><!--cluster M?dulo Gesti?n de Preguntas--><g class="cluster" data-entity="M.dulo Gesti.n de Preguntas" data-source-line="32" data-uid="ent0018" id="cluster_M.dulo Gesti.n de Preguntas"><path d="M610.58,66 L845.1571,66 A3.75,3.75 0 0 1 847.6571,68.5 L854.6571,88.2969 L853.8,88.2969 A2.5,2.5 0 0 1 856.3,90.7969 L856.3,639.5 A2.5,2.5 0 0 1 853.8,642 L610.58,642 A2.5,2.5 0 0 1 608.08,639.5 L608.08,68.5 A2.5,2.5 0 0 1 610.58,66" fill="none" style="stroke:#000000;stroke-width:1.5;"/><line style="stroke:#000000;stroke-width:1.5;" x1="608.08" x2="854.6571" y1="88.2969" y2="88.2969"/><text fill="#000000" font-family="sans-serif" font-size="14" font-weight="bold" lengthAdjust="spacing" textLength="233.5771" x="612.08" y="80.9951">M&#243;dulo Gesti&#243;n de Preguntas</text></g><!--cluster M?dulo Configuraci?n General--><g class="cluster" data-entity="M.dulo Configuraci.n General" data-source-line="45" data-uid="ent0027" id="cluster_M.dulo Configuraci.n General"><path d="M74.92,765 L314.9932,765 A3.75,3.75 0 0 1 317.4932,767.5 L324.4932,787.2969 L336.25,787.2969 A2.5,2.5 0 0 1 338.75,789.7969 L338.75,952.5 A2.5,2.5 0 0 1 336.25,955 L74.92,955 A2.5,2.5 0 0 1 72.42,952.5 L72.42,767.5 A2.5,2.5 0 0 1 74.92,765" fill="none" style="stroke:#000000;stroke-width:1.5;"/><line style="stroke:#000000;stroke-width:1.5;" x1="72.42" x2="324.4932" y1="787.2969" y2="787.2969"/><text fill="#000000" font-family="sans-serif" font-size="14" font-weight="bold" lengthAdjust="spacing" textLength="239.0732" x="76.42" y="779.9951">M&#243;dulo Configuraci&#243;n General</text></g><!--cluster M?dulo Examen--><g class="cluster" data-entity="M.dulo Examen" data-source-line="50" data-uid="ent0030" id="cluster_M.dulo Examen"><path d="M629.43,666 L755.3499,666 A3.75,3.75 0 0 1 757.8499,668.5 L764.8499,688.2969 L833.94,688.2969 A2.5,2.5 0 0 1 836.44,690.7969 L836.44,972.5 A2.5,2.5 0 0 1 833.94,975 L629.43,975 A2.5,2.5 0 0 1 626.93,972.5 L626.93,668.5 A2.5,2.5 0 0 1 629.43,666" fill="none" style="stroke:#000000;stroke-width:1.5;"/><line style="stroke:#000000;stroke-width:1.5;" x1="626.93" x2="764.8499" y1="688.2969" y2="688.2969"/><text fill="#000000" font-family="sans-serif" font-size="14" font-weight="bold" lengthAdjust="spacing" textLength="124.9199" x="630.93" y="680.9951">M&#243;dulo Examen</text></g><!--cluster M?dulo Correcci?n--><g class="cluster" data-entity="M.dulo Correcci.n" data-source-line="57" data-uid="ent0035" id="cluster_M.dulo Correcci.n"><path d="M634.8,999 L782.8068,999 A3.75,3.75 0 0 1 785.3068,1001.5 L792.3068,1021.2969 L828.57,1021.2969 A2.5,2.5 0 0 1 831.07,1023.7969 L831.07,1085.5 A2.5,2.5 0 0 1 828.57,1088 L634.8,1088 A2.5,2.5 0 0 1 632.3,1085.5 L632.3,1001.5 A2.5,2.5 0 0 1 634.8,999" fill="none" style="stroke:#000000;stroke-width:1.5;"/><line style="stroke:#000000;stroke-width:1.5;" x1="632.3" x2="792.3068" y1="1021.2969" y2="1021.2969"/><text fill="#000000" font-family="sans-serif" font-size="14" font-weight="bold" lengthAdjust="spacing" textLength="147.0068" x="636.3" y="1013.9951">M&#243;dulo Correcci&#243;n</text></g><!--cluster M?dulo Sesi?n--><g class="cluster" data-entity="M.dulo Sesi.n" data-source-line="61" data-uid="ent0037" id="cluster_M.dulo Sesi.n"><path d="M650.84,1112 L766.964,1112 A3.75,3.75 0 0 1 769.464,1114.5 L776.464,1134.2969 L812.54,1134.2969 A2.5,2.5 0 0 1 815.04,1136.7969 L815.04,1259.5 A2.5,2.5 0 0 1 812.54,1262 L650.84,1262 A2.5,2.5 0 0 1 648.34,1259.5 L648.34,1114.5 A2.5,2.5 0 0 1 650.84,1112" fill="none" style="stroke:#000000;stroke-width:1.5;"/><line style="stroke:#000000;stroke-width:1.5;" x1="648.34" x2="776.464" y1="1134.2969" y2="1134.2969"/><text fill="#000000" font-family="sans-serif" font-size="14" font-weight="bold" lengthAdjust="spacing" textLength="115.124" x="652.34" y="1126.9951">M&#243;dulo Sesi&#243;n</text></g><!--cluster M?dulo Gesti?n--><g class="cluster" data-entity="M.dulo Gesti.n" data-source-line="66" data-uid="ent0040" id="cluster_M.dulo Gesti.n"><path d="M636.08,1286 L760.3046,1286 A3.75,3.75 0 0 1 762.8046,1288.5 L769.8046,1308.2969 L827.29,1308.2969 A2.5,2.5 0 0 1 829.79,1310.7969 L829.79,1372.5 A2.5,2.5 0 0 1 827.29,1375 L636.08,1375 A2.5,2.5 0 0 1 633.58,1372.5 L633.58,1288.5 A2.5,2.5 0 0 1 636.08,1286" fill="none" style="stroke:#000000;stroke-width:1.5;"/><line style="stroke:#000000;stroke-width:1.5;" x1="633.58" x2="769.8046" y1="1308.2969" y2="1308.2969"/><text fill="#000000" font-family="sans-serif" font-size="14" font-weight="bold" lengthAdjust="spacing" textLength="123.2246" x="637.58" y="1300.9951">M&#243;dulo Gesti&#243;n</text></g><!--cluster MI45--><g class="cluster" data-entity="MI45" data-source-line="70" data-uid="ent0042" id="cluster_MI45"><path d="M93.72,6 L252.7122,6 A3.75,3.75 0 0 1 255.2122,8.5 L262.2122,28.2969 L317.46,28.2969 A2.5,2.5 0 0 1 319.96,30.7969 L319.96,347.5 A2.5,2.5 0 0 1 317.46,350 L93.72,350 A2.5,2.5 0 0 1 91.22,347.5 L91.22,8.5 A2.5,2.5 0 0 1 93.72,6" fill="none" style="stroke:#000000;stroke-width:1.5;"/><line style="stroke:#000000;stroke-width:1.5;" x1="91.22" x2="262.2122" y1="28.2969" y2="28.2969"/><text fill="#000000" font-family="sans-serif" font-size="14" font-weight="bold" lengthAdjust="spacing" textLength="157.9922" x="95.22" y="20.9951">M&#243;dulo Importaci&#243;n</text></g><!--cluster ME44--><g class="cluster" data-entity="ME44" data-source-line="76" data-uid="ent0047" id="cluster_ME44"><path d="M94,390 L251.7891,390 A3.75,3.75 0 0 1 254.2891,392.5 L261.2891,412.2969 L317.18,412.2969 A2.5,2.5 0 0 1 319.68,414.7969 L319.68,730.5 A2.5,2.5 0 0 1 317.18,733 L94,733 A2.5,2.5 0 0 1 91.5,730.5 L91.5,392.5 A2.5,2.5 0 0 1 94,390" fill="none" style="stroke:#000000;stroke-width:1.5;"/><line style="stroke:#000000;stroke-width:1.5;" x1="91.5" x2="261.2891" y1="412.2969" y2="412.2969"/><text fill="#000000" font-family="sans-serif" font-size="14" font-weight="bold" lengthAdjust="spacing" textLength="156.7891" x="95.5" y="404.9951">M&#243;dulo Exportaci&#243;n</text></g><!--entity UC1--><g class="entity" data-entity="UC1" data-source-line="6" data-uid="ent0004" id="entity_UC1"><ellipse cx="473.4191" cy="956.9978" fill="#F1F1F1" rx="63.6891" ry="15.1378" style="stroke:#181818;stroke-width:0.5;"/><text fill="#000000" font-family="sans-serif" font-size="14" lengthAdjust="spacing" textLength="89.9609" x="428.4386" y="961.6463">crearGrado()</text></g><!--entity UC2--><g class="entity" data-entity="UC2" data-source-line="7" data-uid="ent0005" id="entity_UC2"><ellipse cx="473.4179" cy="891.9976" fill="#F1F1F1" rx="61.3379" ry="14.6676" style="stroke:#181818;stroke-width:0.5;"/><text fill="#000000" font-family="sans-serif" font-size="14" lengthAdjust="spacing" textLength="83.5078" x="431.664" y="896.646">verGrados()</text></g><!--entity UC3--><g class="entity" data-entity="UC3" data-source-line="8" data-uid="ent0006" id="entity_UC3"><ellipse cx="473.4234" cy="826.9987" fill="#F1F1F1" rx="65.4934" ry="15.4987" style="stroke:#181818;stroke-width:0.5;"/><text fill="#000000" font-family="sans-serif" font-size="14" lengthAdjust="spacing" textLength="94.7734" x="426.0367" y="831.6471">editarGrado()</text></g><!--entity UC4--><g class="entity" data-entity="UC4" data-source-line="9" data-uid="ent0007" id="entity_UC4"><ellipse cx="473.423" cy="760.0046" fill="#F1F1F1" rx="71.723" ry="16.7446" style="stroke:#181818;stroke-width:0.5;"/><text fill="#000000" font-family="sans-serif" font-size="14" lengthAdjust="spacing" textLength="110.6875" x="418.0793" y="764.653">eliminarGrado()</text></g><!--entity UC5--><g class="entity" data-entity="UC5" data-source-line="15" data-uid="ent0009" id="entity_UC5"><ellipse cx="473.422" cy="563.0044" fill="#F1F1F1" rx="76.822" ry="17.7644" style="stroke:#181818;stroke-width:0.5;"/><text fill="#000000" font-family="sans-serif" font-size="14" lengthAdjust="spacing" textLength="123.1221" x="411.861" y="567.6528">crearAsignatura()</text></g><!--entity UC6--><g class="entity" data-entity="UC6" data-source-line="16" data-uid="ent0010" id="entity_UC6"><ellipse cx="473.4236" cy="493.0007" fill="#F1F1F1" rx="74.1536" ry="17.2307" style="stroke:#181818;stroke-width:0.5;"/><text fill="#000000" font-family="sans-serif" font-size="14" lengthAdjust="spacing" textLength="116.6689" x="415.0891" y="497.6492">verAsignaturas()</text></g><!--entity UC7--><g class="entity" data-entity="UC7" data-source-line="17" data-uid="ent0011" id="entity_UC7"><ellipse cx="473.4202" cy="422.998" fill="#F1F1F1" rx="78.8402" ry="18.168" style="stroke:#181818;stroke-width:0.5;"/><text fill="#000000" font-family="sans-serif" font-size="14" lengthAdjust="spacing" textLength="127.9346" x="409.4529" y="427.6465">editarAsignatura()</text></g><!--entity UC8--><g class="entity" data-entity="UC8" data-source-line="18" data-uid="ent0012" id="entity_UC8"><ellipse cx="473.4222" cy="350.0024" fill="#F1F1F1" rx="85.6622" ry="19.5324" style="stroke:#181818;stroke-width:0.5;"/><text fill="#000000" font-family="sans-serif" font-size="14" lengthAdjust="spacing" textLength="143.8486" x="401.4978" y="354.6509">eliminarAsignatura()</text></g><!--entity UC9--><g class="entity" data-entity="UC9" data-source-line="24" data-uid="ent0014" id="entity_UC9"><ellipse cx="205.5852" cy="1233.997" fill="#F1F1F1" rx="67.7852" ry="15.957" style="stroke:#181818;stroke-width:0.5;"/><text fill="#000000" font-family="sans-serif" font-size="14" lengthAdjust="spacing" textLength="100.7412" x="155.2146" y="1238.6455">crearAlumno()</text></g><!--entity UC10--><g class="entity" data-entity="UC10" data-source-line="25" data-uid="ent0015" id="entity_UC10"><ellipse cx="205.5896" cy="1168.0019" fill="#F1F1F1" rx="65.3096" ry="15.4619" style="stroke:#181818;stroke-width:0.5;"/><text fill="#000000" font-family="sans-serif" font-size="14" lengthAdjust="spacing" textLength="94.2881" x="158.4456" y="1172.6504">verAlumnos()</text></g><!--entity UC11--><g class="entity" data-entity="UC11" data-source-line="26" data-uid="ent0016" id="entity_UC11"><ellipse cx="205.5933" cy="1101.0047" fill="#F1F1F1" rx="69.6733" ry="16.3347" style="stroke:#181818;stroke-width:0.5;"/><text fill="#000000" font-family="sans-serif" font-size="14" lengthAdjust="spacing" textLength="105.5537" x="152.8164" y="1105.6531">editarAlumno()</text></g><!--entity UC12--><g class="entity" data-entity="UC12" data-source-line="27" data-uid="ent0017" id="entity_UC12"><ellipse cx="205.5937" cy="1031.9967" fill="#F1F1F1" rx="76.1337" ry="17.6267" style="stroke:#181818;stroke-width:0.5;"/><text fill="#000000" font-family="sans-serif" font-size="14" lengthAdjust="spacing" textLength="121.4678" x="144.8598" y="1036.6452">eliminarAlumno()</text></g><!--entity UC20--><g class="entity" data-entity="UC20" data-source-line="33" data-uid="ent0019" id="entity_UC20"><ellipse cx="731.6936" cy="117.9967" fill="#F1F1F1" rx="71.7836" ry="16.7567" style="stroke:#181818;stroke-width:0.5;"/><text fill="#000000" font-family="sans-serif" font-size="14" lengthAdjust="spacing" textLength="110.8379" x="676.2747" y="122.6452">crearPregunta()</text></g><!--entity UC21--><g class="entity" data-entity="UC21" data-source-line="34" data-uid="ent0020" id="entity_UC21"><ellipse cx="731.6916" cy="186.0023" fill="#F1F1F1" rx="69.2116" ry="16.2423" style="stroke:#181818;stroke-width:0.5;"/><text fill="#000000" font-family="sans-serif" font-size="14" lengthAdjust="spacing" textLength="104.3848" x="679.4992" y="190.6507">verPreguntas()</text></g><!--entity UC22--><g class="entity" data-entity="UC22" data-source-line="35" data-uid="ent0021" id="entity_UC22"><ellipse cx="731.6864" cy="253.9993" fill="#F1F1F1" rx="69.3464" ry="16.2693" style="stroke:#181818;stroke-width:0.5;"/><text fill="#000000" font-family="sans-serif" font-size="14" lengthAdjust="spacing" textLength="104.7266" x="679.3231" y="258.6477">editarPregunta</text></g><!--entity UC23--><g class="entity" data-entity="UC23" data-source-line="36" data-uid="ent0022" id="entity_UC23"><ellipse cx="731.6872" cy="323.9954" fill="#F1F1F1" rx="80.3772" ry="18.4754" style="stroke:#181818;stroke-width:0.5;"/><text fill="#000000" font-family="sans-serif" font-size="14" lengthAdjust="spacing" textLength="131.5645" x="665.9049" y="328.6439">eliminarPregunta()</text></g><!--entity UC32--><g class="entity" data-entity="UC32" data-source-line="39" data-uid="ent0023" id="entity_UC32"><ellipse cx="731.6932" cy="395.0026" fill="#F1F1F1" rx="75.8132" ry="17.5626" style="stroke:#181818;stroke-width:0.5;"/><text fill="#000000" font-family="sans-serif" font-size="14" lengthAdjust="spacing" textLength="120.6953" x="671.3456" y="399.6511">crearRespuesta()</text></g><!--entity UC33--><g class="entity" data-entity="UC33" data-source-line="40" data-uid="ent0024" id="entity_UC33"><ellipse cx="731.6923" cy="465.0025" fill="#F1F1F1" rx="73.1623" ry="17.0325" style="stroke:#181818;stroke-width:0.5;"/><text fill="#000000" font-family="sans-serif" font-size="14" lengthAdjust="spacing" textLength="114.2422" x="674.5712" y="469.6509">verRespuestas()</text></g><!--entity UC34--><g class="entity" data-entity="UC34" data-source-line="41" data-uid="ent0025" id="entity_UC34"><ellipse cx="731.6896" cy="535.0039" fill="#F1F1F1" rx="77.8196" ry="17.9639" style="stroke:#181818;stroke-width:0.5;"/><text fill="#000000" font-family="sans-serif" font-size="14" lengthAdjust="spacing" textLength="125.5078" x="668.9357" y="539.6524">editarRespuesta()</text></g><!--entity UC35--><g class="entity" data-entity="UC35" data-source-line="42" data-uid="ent0026" id="entity_UC35"><ellipse cx="731.6886" cy="607.0017" fill="#F1F1F1" rx="84.6086" ry="19.3217" style="stroke:#181818;stroke-width:0.5;"/><text fill="#000000" font-family="sans-serif" font-size="14" lengthAdjust="spacing" textLength="141.4219" x="660.9777" y="611.6502">eliminarRespuesta()</text></g><!--entity UC26--><g class="entity" data-entity="UC26" data-source-line="46" data-uid="ent0028" id="entity_UC26"><ellipse cx="205.5911" cy="826.0042" fill="#F1F1F1" rx="116.8711" ry="25.7742" style="stroke:#181818;stroke-width:0.5;"/><text fill="#000000" font-family="sans-serif" font-size="14" lengthAdjust="spacing" textLength="212.666" x="99.2581" y="830.6527">exportarConfiguracionGlobal()</text></g><!--entity UC27--><g class="entity" data-entity="UC27" data-source-line="47" data-uid="ent0029" id="entity_UC27"><ellipse cx="205.5948" cy="913.003" fill="#F1F1F1" rx="117.1648" ry="25.833" style="stroke:#181818;stroke-width:0.5;"/><text fill="#000000" font-family="sans-serif" font-size="14" lengthAdjust="spacing" textLength="213.2949" x="98.9474" y="917.6514">importarConfiguracionGlobal()</text></g><!--entity UC28--><g class="entity" data-entity="UC28" data-source-line="51" data-uid="ent0031" id="entity_UC28"><ellipse cx="731.6904" cy="720.0001" fill="#F1F1F1" rx="83.4504" ry="19.0901" style="stroke:#181818;stroke-width:0.5;"/><text fill="#000000" font-family="sans-serif" font-size="14" lengthAdjust="spacing" textLength="138.7422" x="662.3194" y="724.6485">generarExamenes()</text></g><!--entity UC29--><g class="entity" data-entity="UC29" data-source-line="52" data-uid="ent0032" id="entity_UC29"><ellipse cx="731.6865" cy="793.0033" fill="#F1F1F1" rx="82.0665" ry="18.8133" style="stroke:#181818;stroke-width:0.5;"/><text fill="#000000" font-family="sans-serif" font-size="14" lengthAdjust="spacing" textLength="135.5225" x="663.9253" y="797.6517">asignarExamenes()</text></g><!--entity UC40--><g class="entity" data-entity="UC40" data-source-line="53" data-uid="ent0033" id="entity_UC40"><ellipse cx="731.6949" cy="867.001" fill="#F1F1F1" rx="88.7549" ry="20.151" style="stroke:#181818;stroke-width:0.5;"/><text fill="#000000" font-family="sans-serif" font-size="14" lengthAdjust="spacing" textLength="150.917" x="656.2364" y="871.6494">cancelarGeneracion()</text></g><!--entity UC41--><g class="entity" data-entity="UC41" data-source-line="54" data-uid="ent0034" id="entity_UC41"><ellipse cx="731.6926" cy="941.0025" fill="#F1F1F1" rx="80.3626" ry="18.4725" style="stroke:#181818;stroke-width:0.5;"/><text fill="#000000" font-family="sans-serif" font-size="14" lengthAdjust="spacing" textLength="131.5303" x="665.9275" y="945.651">validarExamenes()</text></g><!--entity UC31--><g class="entity" data-entity="UC31" data-source-line="58" data-uid="ent0036" id="entity_UC31"><ellipse cx="731.6927" cy="1052.9965" fill="#F1F1F1" rx="83.3827" ry="19.0765" style="stroke:#181818;stroke-width:0.5;"/><text fill="#000000" font-family="sans-serif" font-size="14" lengthAdjust="spacing" textLength="138.585" x="662.4002" y="1057.645">corregirExamenes()</text></g><!--entity UC42--><g class="entity" data-entity="UC42" data-source-line="62" data-uid="ent0038" id="entity_UC42"><ellipse cx="731.6904" cy="1163.0001" fill="#F1F1F1" rx="67.3504" ry="15.8701" style="stroke:#181818;stroke-width:0.5;"/><text fill="#000000" font-family="sans-serif" font-size="14" lengthAdjust="spacing" textLength="99.6201" x="681.8803" y="1167.6485">iniciarSesion()</text></g><!--entity UC43--><g class="entity" data-entity="UC43" data-source-line="63" data-uid="ent0039" id="entity_UC43"><ellipse cx="731.6891" cy="1229.9978" fill="#F1F1F1" rx="67.1891" ry="15.8378" style="stroke:#181818;stroke-width:0.5;"/><text fill="#000000" font-family="sans-serif" font-size="14" lengthAdjust="spacing" textLength="99.2031" x="682.0875" y="1234.6463">cerrarSesion()</text></g><!--entity UC13--><g class="entity" data-entity="UC13" data-source-line="67" data-uid="ent0041" id="entity_UC13"><ellipse cx="731.6946" cy="1340.0009" fill="#F1F1F1" rx="82.1046" ry="18.8209" style="stroke:#181818;stroke-width:0.5;"/><text fill="#000000" font-family="sans-serif" font-size="14" lengthAdjust="spacing" textLength="135.6113" x="663.8889" y="1344.6494">completarGestion()</text></g><!--entity UC38--><g class="entity" data-entity="UC38" data-source-line="71" data-uid="ent0043" id="entity_UC38"><ellipse cx="205.5883" cy="233.0037" fill="#F1F1F1" rx="90.3683" ry="20.4737" style="stroke:#181818;stroke-width:0.5;"/><text fill="#000000" font-family="sans-serif" font-size="14" lengthAdjust="spacing" textLength="154.5742" x="128.3012" y="237.6521">importarAsignaturas()</text></g><!--entity UC24--><g class="entity" data-entity="UC24" data-source-line="72" data-uid="ent0044" id="entity_UC24"><ellipse cx="205.595" cy="87.997" fill="#F1F1F1" rx="84.985" ry="19.397" style="stroke:#181818;stroke-width:0.5;"/><text fill="#000000" font-family="sans-serif" font-size="14" lengthAdjust="spacing" textLength="142.29" x="134.45" y="92.6454">importarPreguntas()</text></g><!--entity UC19--><g class="entity" data-entity="UC19" data-source-line="73" data-uid="ent0045" id="entity_UC19"><ellipse cx="205.5947" cy="306.9989" fill="#F1F1F1" rx="80.6447" ry="18.5289" style="stroke:#181818;stroke-width:0.5;"/><text fill="#000000" font-family="sans-serif" font-size="14" lengthAdjust="spacing" textLength="132.1934" x="139.498" y="311.6474">importarAlumnos()</text></g><!--entity UC36--><g class="entity" data-entity="UC36" data-source-line="74" data-uid="ent0046" id="entity_UC36"><ellipse cx="205.5909" cy="160.0022" fill="#F1F1F1" rx="76.1109" ry="17.6222" style="stroke:#181818;stroke-width:0.5;"/><text fill="#000000" font-family="sans-serif" font-size="14" lengthAdjust="spacing" textLength="121.4131" x="144.8844" y="164.6506">importarGrados()</text></g><!--entity UC25--><g class="entity" data-entity="UC25" data-source-line="77" data-uid="ent0048" id="entity_UC25"><ellipse cx="205.5923" cy="472.0025" fill="#F1F1F1" rx="84.7123" ry="19.3425" style="stroke:#181818;stroke-width:0.5;"/><text fill="#000000" font-family="sans-serif" font-size="14" lengthAdjust="spacing" textLength="141.6611" x="134.7617" y="476.6509">exportarPreguntas()</text></g><!--entity UC17--><g class="entity" data-entity="UC17" data-source-line="78" data-uid="ent0049" id="entity_UC17"><ellipse cx="205.5872" cy="690.9954" fill="#F1F1F1" rx="80.3772" ry="18.4754" style="stroke:#181818;stroke-width:0.5;"/><text fill="#000000" font-family="sans-serif" font-size="14" lengthAdjust="spacing" textLength="131.5645" x="139.8049" y="695.6439">exportarAlumnos()</text></g><!--entity UC39--><g class="entity" data-entity="UC39" data-source-line="79" data-uid="ent0050" id="entity_UC39"><ellipse cx="205.5903" cy="616.9981" fill="#F1F1F1" rx="90.0903" ry="20.4181" style="stroke:#181818;stroke-width:0.5;"/><text fill="#000000" font-family="sans-serif" font-size="14" lengthAdjust="spacing" textLength="153.9453" x="128.6176" y="621.6465">exportarAsignaturas()</text></g><!--entity UC37--><g class="entity" data-entity="UC37" data-source-line="80" data-uid="ent0051" id="entity_UC37"><ellipse cx="205.5901" cy="544" fill="#F1F1F1" rx="75.8501" ry="17.57" style="stroke:#181818;stroke-width:0.5;"/><text fill="#000000" font-family="sans-serif" font-size="14" lengthAdjust="spacing" textLength="120.7842" x="145.198" y="548.6484">exportarGrados()</text></g><!--entity doc--><g class="entity" data-entity="doc" data-source-line="3" data-uid="ent0002" id="entity_doc"><ellipse cx="473.4159" cy="624.35" fill="#F1F1F1" rx="8" ry="8" style="stroke:#181818;stroke-width:0.5;"/><path d="M473.4159,632.35 L473.4159,659.35 M460.4159,640.35 L486.4159,640.35 M473.4159,659.35 L460.4159,674.35 M473.4159,659.35 L486.4159,674.35" fill="none" style="stroke:#181818;stroke-width:0.5;"/><text fill="#000000" font-family="sans-serif" font-size="14" lengthAdjust="spacing" textLength="58.6318" x="444.1" y="688.8451">Docente</text></g><!--reverse link UC1 to doc--><g class="link" data-entity-1="UC1" data-entity-2="doc" data-link-type="dependency" data-source-line="84" data-uid="lnk53" id="link_UC1_doc"><path d="M407.7209,950.0199 C381.5309,943.8299 361.23,932.48 355.25,906.5 C347.18,871.42 347.18,779.58 355.25,744.5 C357.19,736.07 358.07,733.51 363.75,727 C386.17,701.33 419.64,680.81 443.71,668.15" fill="none" id="UC1-backto-doc" style="stroke:#181818;stroke-width:1;"/><polygon fill="#181818" points="413.56,951.4,405.7214,945.4371,408.6941,950.2499,403.8813,953.2226,413.56,951.4" style="stroke:#181818;stroke-width:1;"/></g><!--reverse link UC2 to doc--><g class="link" data-entity-1="UC2" data-entity-2="doc" data-link-type="dependency" data-source-line="85" data-uid="lnk55" id="link_UC2_doc"><path d="M409.0003,885.8901 C382.3803,880.0301 361.31,868.84 355.25,842.5 C345.49,800.05 345.49,786.95 355.25,744.5 C357.19,736.07 358.07,733.51 363.75,727 C386.17,701.33 419.64,680.81 443.71,668.15" fill="none" id="UC2-backto-doc" style="stroke:#181818;stroke-width:1;"/><polygon fill="#181818" points="414.86,887.18,406.9304,881.3386,409.9769,886.1051,405.2105,889.1516,414.86,887.18" style="stroke:#181818;stroke-width:1;"/></g><!--reverse link UC3 to doc--><g class="link" data-entity-1="UC3" data-entity-2="doc" data-link-type="dependency" data-source-line="86" data-uid="lnk57" id="link_UC3_doc"><path d="M406.4122,819.653 C380.6822,813.353 361.13,802.05 355.25,776.5 C350.25,754.75 349.07,743.81 363.75,727 C386.17,701.33 419.64,680.81 443.71,668.15" fill="none" id="UC3-backto-doc" style="stroke:#181818;stroke-width:1;"/><polygon fill="#181818" points="412.24,821.08,404.4495,815.0543,407.3835,819.8909,402.5469,822.8248,412.24,821.08" style="stroke:#181818;stroke-width:1;"/></g><!--reverse link UC4 to doc--><g class="link" data-entity-1="UC4" data-entity-2="doc" data-link-type="dependency" data-source-line="87" data-uid="lnk59" id="link_UC4_doc"><path d="M473.42,737.02 C473.42,720.22 473.42,709.41 473.42,692.6" fill="none" id="UC4-backto-doc" style="stroke:#181818;stroke-width:1;"/><polygon fill="#181818" points="473.42,743.02,477.42,734.02,473.42,738.02,469.42,734.02,473.42,743.02" style="stroke:#181818;stroke-width:1;"/></g><!--reverse link UC5 to doc--><g class="link" data-entity-1="UC5" data-entity-2="doc" data-link-type="dependency" data-source-line="88" data-uid="lnk61" id="link_UC5_doc"><path d="M473.42,587.08 C473.42,598.59 473.42,604.1 473.42,615.61" fill="none" id="UC5-backto-doc" style="stroke:#181818;stroke-width:1;"/><polygon fill="#181818" points="473.42,581.08,469.42,590.08,473.42,586.08,477.42,590.08,473.42,581.08" style="stroke:#181818;stroke-width:1;"/></g><!--reverse link UC6 to doc--><g class="link" data-entity-1="UC6" data-entity-2="doc" data-link-type="dependency" data-source-line="89" data-uid="lnk63" id="link_UC6_doc"><path d="M401.9228,502.8596 C377.8328,509.9296 360.81,521.33 355.25,545.5 C350.05,568.11 347.58,580.37 363.75,597 C386.05,619.91 419.54,635.46 443.64,644.46" fill="none" id="UC6-backto-doc" style="stroke:#181818;stroke-width:1;"/><polygon fill="#181818" points="407.68,501.17,397.9178,499.8663,402.8823,502.578,400.1707,507.5426,407.68,501.17" style="stroke:#181818;stroke-width:1;"/></g><!--reverse link UC7 to doc--><g class="link" data-entity-1="UC7" data-entity-2="doc" data-link-type="dependency" data-source-line="90" data-uid="lnk65" id="link_UC7_doc"><path d="M398.7029,433.9907 C375.8429,441.2707 360.56,452.42 355.25,475.5 C344.89,520.55 344.89,534.45 355.25,579.5 C357.19,587.93 357.72,590.8 363.75,597 C386.05,619.91 419.54,635.46 443.64,644.46" fill="none" id="UC7-backto-doc" style="stroke:#181818;stroke-width:1;"/><polygon fill="#181818" points="404.42,432.17,394.6306,431.0896,399.6558,433.6872,397.0581,438.7124,404.42,432.17" style="stroke:#181818;stroke-width:1;"/></g><!--reverse link UC8 to doc--><g class="link" data-entity-1="UC8" data-entity-2="doc" data-link-type="dependency" data-source-line="91" data-uid="lnk67" id="link_UC8_doc"><path d="M396.5336,363.0614 C374.5736,370.8314 360.42,382.04 355.25,404.5 C346.54,442.4 346.54,541.6 355.25,579.5 C357.19,587.93 357.72,590.8 363.75,597 C386.05,619.91 419.54,635.46 443.64,644.46" fill="none" id="UC8-backto-doc" style="stroke:#181818;stroke-width:1;"/><polygon fill="#181818" points="402.19,361.06,392.3712,360.2911,397.4764,362.7278,395.0397,367.833,402.19,361.06" style="stroke:#181818;stroke-width:1;"/></g><!--reverse link UC9 to doc--><g class="link" data-entity-1="UC9" data-entity-2="doc" data-link-type="dependency" data-source-line="92" data-uid="lnk69" id="link_UC9_doc"><path d="M279.5167,1233.3417 C306.0367,1229.7817 328.53,1221.59 346.75,1201 C371.05,1173.54 353.38,1155.59 355.75,1119 C357.17,1097.26 353.31,746.12 363.75,727 C380.86,695.68 417.85,675.32 443.91,664.26" fill="none" id="UC9-backto-doc" style="stroke:#181818;stroke-width:1;"/><polygon fill="#181818" points="273.57,1234.14,283.0222,1236.907,278.5256,1233.4748,281.9578,1228.9782,273.57,1234.14" style="stroke:#181818;stroke-width:1;"/></g><!--reverse link UC10 to doc--><g class="link" data-entity-1="UC10" data-entity-2="doc" data-link-type="dependency" data-source-line="93" data-uid="lnk71" id="link_UC10_doc"><path d="M277.1165,1167.8284 C304.3565,1164.5284 328.06,1156.35 346.75,1135 C376.64,1100.86 341.91,766.77 363.75,727 C380.93,695.73 417.91,675.35 443.94,664.28" fill="none" id="UC10-backto-doc" style="stroke:#181818;stroke-width:1;"/><polygon fill="#181818" points="271.16,1168.55,280.5757,1171.4386,276.1237,1167.9487,279.6136,1163.4966,271.16,1168.55" style="stroke:#181818;stroke-width:1;"/></g><!--reverse link UC11 to doc--><g class="link" data-entity-1="UC11" data-entity-2="doc" data-link-type="dependency" data-source-line="94" data-uid="lnk73" id="link_UC11_doc"><path d="M281.6079,1100.0788 C307.8079,1096.2788 329.51,1087.83 346.75,1067 C370.87,1037.86 345.14,759.93 363.75,727 C381.2,696.14 417.74,675.78 443.62,664.59" fill="none" id="UC11-backto-doc" style="stroke:#181818;stroke-width:1;"/><polygon fill="#181818" points="275.67,1100.94,285.151,1103.6068,280.6182,1100.2223,284.0027,1095.6896,275.67,1100.94" style="stroke:#181818;stroke-width:1;"/></g><!--reverse link UC12 to doc--><g class="link" data-entity-1="UC12" data-entity-2="doc" data-link-type="dependency" data-source-line="95" data-uid="lnk75" id="link_UC12_doc"><path d="M261.2492,1016.3707 C292.8392,1004.8907 326.11,987.11 346.75,955 C360.49,933.63 350.98,748.96 363.75,727 C381.58,696.35 418.03,675.95 443.79,664.69" fill="none" id="UC12-backto-doc" style="stroke:#181818;stroke-width:1;"/><polygon fill="#181818" points="255.61,1018.42,265.435,1019.1055,260.3093,1016.7122,262.7026,1011.5866,255.61,1018.42" style="stroke:#181818;stroke-width:1;"/></g><!--link doc to UC13--><g class="link" data-entity-1="doc" data-entity-2="UC13" data-link-type="dependency" data-source-line="96" data-uid="lnk76" id="link_doc_UC13"><path d="M502.95,664.25 C529.02,675.3 566.03,695.66 583.08,727 C595.45,749.75 589.18,1167.18 591.08,1193 C593.35,1223.84 583.1,1236.15 600.08,1262 C619.72,1291.91 649.636,1309.6679 678.646,1321.9679" fill="none" id="doc-to-UC13" style="stroke:#181818;stroke-width:1;"/><polygon fill="#181818" points="684.17,1324.31,677.4454,1317.1142,679.5667,1322.3582,674.3226,1324.4795,684.17,1324.31" style="stroke:#181818;stroke-width:1;"/></g><!--reverse link UC17 to doc--><g class="link" data-entity-1="UC17" data-entity-2="doc" data-link-type="dependency" data-source-line="97" data-uid="lnk78" id="link_UC17_doc"><path d="M281.3327,680.593 C335.9427,672.993 403.6,663.58 443.61,658.01" fill="none" id="UC17-backto-doc" style="stroke:#181818;stroke-width:1;"/><polygon fill="#181818" points="275.39,681.42,284.8555,684.1413,280.3423,680.7308,283.7527,676.2176,275.39,681.42" style="stroke:#181818;stroke-width:1;"/></g><!--reverse link UC19 to doc--><g class="link" data-entity-1="UC19" data-entity-2="doc" data-link-type="dependency" data-source-line="98" data-uid="lnk80" id="link_UC19_doc"><path d="M264.6395,323.2084 C295.5295,334.4284 326.74,351.4 346.75,382 C359.87,402.06 350.56,577 363.75,597 C382.06,624.74 418.4,639.84 444.01,647.4" fill="none" id="UC19-backto-doc" style="stroke:#181818;stroke-width:1;"/><polygon fill="#181818" points="259,321.16,266.0937,327.9923,263.6996,322.867,268.8249,320.4729,259,321.16" style="stroke:#181818;stroke-width:1;"/></g><!--link doc to UC20--><g class="link" data-entity-1="doc" data-entity-2="UC20" data-link-type="dependency" data-source-line="99" data-uid="lnk81" id="link_doc_UC20"><path d="M503.19,647.63 C529.04,640.23 565.56,625.24 583.08,597 C593.48,580.23 589.87,261.69 591.08,242 C593.53,201.88 573.94,182.54 600.08,152 C615.16,134.38 632.2272,126.4802 654.7072,121.9702" fill="none" id="doc-to-UC20" style="stroke:#181818;stroke-width:1;"/><polygon fill="#181818" points="660.59,120.79,650.979,118.6385,655.6877,121.7735,652.5526,126.4822,660.59,120.79" style="stroke:#181818;stroke-width:1;"/></g><!--link doc to UC21--><g class="link" data-entity-1="doc" data-entity-2="UC21" data-link-type="dependency" data-source-line="100" data-uid="lnk82" id="link_doc_UC21"><path d="M503.16,647.61 C528.99,640.2 565.5,625.2 583.08,597 C591.75,583.09 589.96,318.36 591.08,302 C593.58,265.42 576.1,247.74 600.08,220 C615.78,201.83 633.9526,193.8648 657.1726,189.5148" fill="none" id="doc-to-UC21" style="stroke:#181818;stroke-width:1;"/><polygon fill="#181818" points="663.07,188.41,653.4874,186.1356,658.1555,189.3307,654.9604,193.9988,663.07,188.41" style="stroke:#181818;stroke-width:1;"/></g><!--link doc to UC22--><g class="link" data-entity-1="doc" data-entity-2="UC22" data-link-type="dependency" data-source-line="101" data-uid="lnk83" id="link_doc_UC22"><path d="M503.08,647.56 C528.86,640.11 565.32,625.09 583.08,597 C601.45,567.94 577.94,314.31 600.08,288 C615.54,269.63 633.661,261.6061 656.911,257.2861" fill="none" id="doc-to-UC22" style="stroke:#181818;stroke-width:1;"/><polygon fill="#181818" points="662.81,256.19,653.2307,253.9014,657.8941,257.1034,654.6922,261.7668,662.81,256.19" style="stroke:#181818;stroke-width:1;"/></g><!--link doc to UC23--><g class="link" data-entity-1="doc" data-entity-2="UC23" data-link-type="dependency" data-source-line="102" data-uid="lnk84" id="link_doc_UC23"><path d="M502.93,647.47 C528.61,639.95 565,624.89 583.08,597 C597.44,574.85 583.23,380.33 600.08,360 C613.59,343.7 627.9242,335.8853 648.3842,330.6953" fill="none" id="doc-to-UC23" style="stroke:#181818;stroke-width:1;"/><polygon fill="#181818" points="654.2,329.22,644.4928,327.5557,649.3535,330.4494,646.4598,335.3101,654.2,329.22" style="stroke:#181818;stroke-width:1;"/></g><!--link doc to UC24--><g class="link" data-entity-1="doc" data-entity-2="UC24" data-link-type="dependency" data-source-line="103" data-uid="lnk85" id="link_doc_UC24"><path d="M443.68,647.61 C417.84,640.2 381.34,625.2 363.75,597 C349.87,574.74 363.27,145.39 346.75,125 C332.5,107.4 316.7725,99.0077 294.8125,93.7077" fill="none" id="doc-to-UC24" style="stroke:#181818;stroke-width:1;"/><polygon fill="#181818" points="288.98,92.3,296.7904,98.2999,293.8404,93.4731,298.6672,90.5231,288.98,92.3" style="stroke:#181818;stroke-width:1;"/></g><!--link doc to UC25--><g class="link" data-entity-1="doc" data-entity-2="UC25" data-link-type="dependency" data-source-line="104" data-uid="lnk86" id="link_doc_UC25"><path d="M443.73,646.6 C418.67,638.61 383.33,623.33 363.75,597 C351.87,581.02 360.36,523.55 346.75,509 C331.2,492.36 314.9625,484.2678 292.9225,478.9478" fill="none" id="doc-to-UC25" style="stroke:#181818;stroke-width:1;"/><polygon fill="#181818" points="287.09,477.54,294.9002,483.5401,291.9504,478.7132,296.7773,475.7634,287.09,477.54" style="stroke:#181818;stroke-width:1;"/></g><!--reverse link UC26 to doc--><g class="link" data-entity-1="UC26" data-entity-2="doc" data-link-type="dependency" data-source-line="105" data-uid="lnk88" id="link_UC26_doc"><path d="M249.717,798.0999 C303.547,763.2599 395.66,703.67 443.79,672.52" fill="none" id="UC26-backto-doc" style="stroke:#181818;stroke-width:1;"/><polygon fill="#181818" points="244.68,801.36,254.409,799.8279,248.8775,798.6433,250.0622,793.1118,244.68,801.36" style="stroke:#181818;stroke-width:1;"/></g><!--reverse link UC27 to doc--><g class="link" data-entity-1="UC27" data-entity-2="doc" data-link-type="dependency" data-source-line="106" data-uid="lnk90" id="link_UC27_doc"><path d="M309.2732,896.3175 C325.7232,889.7575 335.51,882.54 346.75,869 C387.36,820.1 330.58,781.21 363.75,727 C382.14,696.95 418.1,676.53 443.61,665.09" fill="none" id="UC27-backto-doc" style="stroke:#181818;stroke-width:1;"/><polygon fill="#181818" points="303.7,898.54,313.5415,898.9217,308.3443,896.6879,310.5781,891.4908,303.7,898.54" style="stroke:#181818;stroke-width:1;"/></g><!--link doc to UC28--><g class="link" data-entity-1="doc" data-entity-2="UC28" data-link-type="dependency" data-source-line="107" data-uid="lnk91" id="link_doc_UC28"><path d="M502.82,661.32 C544.2,671.97 616.0695,690.4838 669.1195,704.1438" fill="none" id="doc-to-UC28" style="stroke:#181818;stroke-width:1;"/><polygon fill="#181818" points="674.93,705.64,667.2117,699.5221,670.0879,704.3932,665.2169,707.2694,674.93,705.64" style="stroke:#181818;stroke-width:1;"/></g><!--link doc to UC29--><g class="link" data-entity-1="doc" data-entity-2="UC29" data-link-type="dependency" data-source-line="108" data-uid="lnk92" id="link_doc_UC29"><path d="M502.96,668.32 C526.58,681.23 559.91,702 583.08,727 C593.5,738.24 587.99,747.58 600.08,757 C617.05,770.23 632.7684,777.1084 653.4184,782.4084" fill="none" id="doc-to-UC29" style="stroke:#181818;stroke-width:1;"/><polygon fill="#181818" points="659.23,783.9,651.507,777.7882,654.387,782.657,649.5181,785.537,659.23,783.9" style="stroke:#181818;stroke-width:1;"/></g><!--link doc to UC31--><g class="link" data-entity-1="doc" data-entity-2="UC31" data-link-type="dependency" data-source-line="109" data-uid="lnk93" id="link_doc_UC31"><path d="M503.23,664.58 C529.12,675.77 565.66,696.12 583.08,727 C592.15,743.08 589.63,874.59 591.08,893 C593.96,929.55 580.27,944.15 600.08,975 C619.27,1004.89 648.8251,1022.56 677.7951,1034.83" fill="none" id="doc-to-UC31" style="stroke:#181818;stroke-width:1;"/><polygon fill="#181818" points="683.32,1037.17,676.5927,1029.9767,678.7159,1035.22,673.4727,1037.3432,683.32,1037.17" style="stroke:#181818;stroke-width:1;"/></g><!--link doc to UC32--><g class="link" data-entity-1="doc" data-entity-2="UC32" data-link-type="dependency" data-source-line="110" data-uid="lnk94" id="link_doc_UC32"><path d="M502.75,647.35 C528.3,639.75 564.61,624.63 583.08,597 C593.44,581.49 587.9,444.13 600.08,430 C614.56,413.19 630.2992,405.3598 651.7692,400.4798" fill="none" id="doc-to-UC32" style="stroke:#181818;stroke-width:1;"/><polygon fill="#181818" points="657.62,399.15,647.9573,397.2443,652.7444,400.2582,649.7304,405.0453,657.62,399.15" style="stroke:#181818;stroke-width:1;"/></g><!--link doc to UC33--><g class="link" data-entity-1="doc" data-entity-2="UC33" data-link-type="dependency" data-source-line="111" data-uid="lnk95" id="link_doc_UC33"><path d="M503.21,646.68 C528.34,638.74 563.74,623.5 583.08,597 C595.98,579.32 585.3,516.14 600.08,500 C615.53,483.12 632.2967,475.2935 654.3967,470.4935" fill="none" id="doc-to-UC33" style="stroke:#181818;stroke-width:1;"/><polygon fill="#181818" points="660.26,469.22,650.6161,467.2213,655.3739,470.2812,652.314,475.0391,660.26,469.22" style="stroke:#181818;stroke-width:1;"/></g><!--link doc to UC34--><g class="link" data-entity-1="doc" data-entity-2="UC34" data-link-type="dependency" data-source-line="112" data-uid="lnk96" id="link_doc_UC34"><path d="M502.81,643.93 C526.34,634.53 559.61,618.69 583.08,597 C593.49,587.38 588.67,578.42 600.08,570 C618.03,556.77 634.8054,549.9292 656.1554,544.8092" fill="none" id="doc-to-UC34" style="stroke:#181818;stroke-width:1;"/><polygon fill="#181818" points="661.99,543.41,652.3053,541.6191,657.1279,544.576,654.1709,549.3985,661.99,543.41" style="stroke:#181818;stroke-width:1;"/></g><!--link doc to UC35--><g class="link" data-entity-1="doc" data-entity-2="UC35" data-link-type="dependency" data-source-line="113" data-uid="lnk97" id="link_doc_UC35"><path d="M502.82,648.79 C541.59,641.68 606.3385,629.8025 658.7285,620.1925" fill="none" id="doc-to-UC35" style="stroke:#181818;stroke-width:1;"/><polygon fill="#181818" points="664.63,619.11,655.056,616.7994,659.7121,620.0121,656.4994,624.6682,664.63,619.11" style="stroke:#181818;stroke-width:1;"/></g><!--reverse link UC36 to doc--><g class="link" data-entity-1="UC36" data-entity-2="doc" data-link-type="dependency" data-source-line="114" data-uid="lnk99" id="link_UC36_doc"><path d="M287.4714,162.6335 C311.8714,167.1135 330.84,175.61 346.75,195 C360.94,212.28 351.84,578.09 363.75,597 C381.47,625.12 417.95,640.13 443.74,647.57" fill="none" id="UC36-backto-doc" style="stroke:#181818;stroke-width:1;"/><polygon fill="#181818" points="281.57,161.55,289.6997,167.1095,286.4878,162.4529,291.1444,159.2411,281.57,161.55" style="stroke:#181818;stroke-width:1;"/></g><!--reverse link UC37 to doc--><g class="link" data-entity-1="UC37" data-entity-2="doc" data-link-type="dependency" data-source-line="115" data-uid="lnk101" id="link_UC37_doc"><path d="M278.5613,553.7462 C303.0213,558.8962 324.35,565.89 346.75,579 C356.25,584.56 354.98,590.35 363.75,597 C388.71,615.91 420.84,631.9 443.67,642.09" fill="none" id="UC37-backto-doc" style="stroke:#181818;stroke-width:1;"/><polygon fill="#181818" points="272.69,552.51,280.6728,558.2785,277.5827,553.5402,282.321,550.4501,272.69,552.51" style="stroke:#181818;stroke-width:1;"/></g><!--reverse link UC38 to doc--><g class="link" data-entity-1="UC38" data-entity-2="doc" data-link-type="dependency" data-source-line="116" data-uid="lnk103" id="link_UC38_doc"><path d="M298.4286,240.4687 C319.1086,246.1087 333.29,254.32 346.75,271 C358.14,285.11 353.97,581.73 363.75,597 C381.68,624.98 418.11,640.03 443.84,647.51" fill="none" id="UC38-backto-doc" style="stroke:#181818;stroke-width:1;"/><polygon fill="#181818" points="292.64,238.89,300.2704,245.1171,297.4638,240.2056,302.3753,237.399,292.64,238.89" style="stroke:#181818;stroke-width:1;"/></g><!--reverse link UC39 to doc--><g class="link" data-entity-1="UC39" data-entity-2="doc" data-link-type="dependency" data-source-line="117" data-uid="lnk105" id="link_UC39_doc"><path d="M289.0627,628.477 C342.7427,635.947 405.55,644.69 443.68,650" fill="none" id="UC39-backto-doc" style="stroke:#181818;stroke-width:1;"/><polygon fill="#181818" points="283.12,627.65,291.4828,632.8523,288.0723,628.3391,292.5854,624.9286,283.12,627.65" style="stroke:#181818;stroke-width:1;"/></g><!--link doc to UC40--><g class="link" data-entity-1="doc" data-entity-2="UC40" data-link-type="dependency" data-source-line="118" data-uid="lnk106" id="link_doc_UC40"><path d="M502.9,665.29 C528.19,676.87 564,697.38 583.08,727 C595.52,746.32 584.82,811.82 600.08,829 C613.18,843.74 625.8717,851.1904 644.7917,856.8504" fill="none" id="doc-to-UC40" style="stroke:#181818;stroke-width:1;"/><polygon fill="#181818" points="650.54,858.57,643.064,852.1584,645.7498,857.137,640.7711,859.8228,650.54,858.57" style="stroke:#181818;stroke-width:1;"/></g><!--link doc to UC41--><g class="link" data-entity-1="doc" data-entity-2="UC41" data-link-type="dependency" data-source-line="119" data-uid="lnk107" id="link_doc_UC41"><path d="M502.91,664.77 C528.57,676.09 564.96,696.53 583.08,727 C603.39,761.15 574.51,874.59 600.08,905 C613.7,921.2 628.075,928.9814 648.525,934.1814" fill="none" id="doc-to-UC41" style="stroke:#181818;stroke-width:1;"/><polygon fill="#181818" points="654.34,935.66,646.6033,929.5654,649.4942,934.4278,644.6318,937.3187,654.34,935.66" style="stroke:#181818;stroke-width:1;"/></g><!--link doc to UC42--><g class="link" data-entity-1="doc" data-entity-2="UC42" data-link-type="dependency" data-source-line="120" data-uid="lnk108" id="link_doc_UC42"><path d="M502.84,664.31 C528.83,675.41 565.78,695.8 583.08,727 C589.55,738.67 590.36,953.68 591.08,967 C593.98,1020.85 571.35,1042.36 600.08,1088 C620,1119.64 652.7995,1137.24 682.8295,1148.46" fill="none" id="doc-to-UC42" style="stroke:#181818;stroke-width:1;"/><polygon fill="#181818" points="688.45,1150.56,681.4192,1143.663,683.7662,1148.81,678.6193,1151.1571,688.45,1150.56" style="stroke:#181818;stroke-width:1;"/></g><!--link doc to UC43--><g class="link" data-entity-1="doc" data-entity-2="UC43" data-link-type="dependency" data-source-line="121" data-uid="lnk109" id="link_doc_UC43"><path d="M502.91,664.27 C528.96,675.34 565.94,695.7 583.08,727 C592.53,744.25 590.09,1061.35 591.08,1081 C593.66,1132.2 567.16,1156.69 600.08,1196 C615.87,1214.86 634.771,1222.9288 658.551,1227.1188" fill="none" id="doc-to-UC43" style="stroke:#181818;stroke-width:1;"/><polygon fill="#181818" points="664.46,1228.16,656.2906,1222.659,659.5359,1227.2924,654.9024,1230.5376,664.46,1228.16" style="stroke:#181818;stroke-width:1;"/></g><!--reverse link ME44 to UC26--><g class="link" data-entity-1="ME44" data-entity-2="UC26" data-link-type="dependency" data-source-line="122" data-uid="lnk110" id="link_ME44_UC26"><path d="M85.8988,422.0994 C85.0349,422.4606 88.444,421.1292 87.5923,421.5143 C85.8889,422.2844 84.2107,423.1029 82.5617,423.9722 C75.9658,427.4495 69.8363,431.74 64.42,437 C17.21,482.86 27.57,548.91 36.37,617.5 C42.65,666.48 36.44,684.32 64.42,725 C87.57,758.64 125.76,784.97 156.58,802.29" fill="none" id="ME44-backto-UC26" style="stroke:#181818;stroke-width:1;stroke-dasharray:7,7;"/><polygon fill="#181818" points="91.4661,419.8621,81.6237,419.5065,86.8267,421.7265,84.6067,426.9296,91.4661,419.8621" style="stroke:#181818;stroke-width:1;"/><text fill="#000000" font-family="sans-serif" font-size="13" lengthAdjust="spacing" textLength="47.0996" x="8.42" y="613.5669">include</text></g><!--reverse link MI45 to UC27--><g class="link" data-entity-1="MI45" data-entity-2="UC27" data-link-type="dependency" data-source-line="123" data-uid="lnk111" id="link_MI45_UC27"><path d="M85.4969,36.8827 C85.0713,37.0663 89.535,35.1916 89.1128,35.3815 C88.2683,35.7614 87.4307,36.154 86.6005,36.5598 C84.9401,37.3713 83.3092,38.2353 81.7119,39.1543 C75.3227,42.8306 69.4713,47.3887 64.42,53 C6,117.91 37.93,751.18 36.37,838.5 C36.23,846.05 32.35,849.1 36.37,855.5 C50.9,878.62 75.44,892.64 101.38,901.08" fill="none" id="MI45-backto-UC27" style="stroke:#181818;stroke-width:1;stroke-dasharray:7,7;"/><polygon fill="#181818" points="91.0241,34.5482,81.177,34.3652,86.4181,36.4936,84.2897,41.7348,91.0241,34.5482" style="stroke:#181818;stroke-width:1;"/><text fill="#000000" font-family="sans-serif" font-size="13" lengthAdjust="spacing" textLength="47.0996" x="8.42" y="851.5669">include</text></g><!--SRC=[ZLN1Zfim4Btp5LPExM5N0KCWLLMfsaRH7bQgMlK3lCPBhH8J6QWYHVsg_OJziHf8OCQUHbLoUSppcpV3ZAdLIyUwXbbT_UnOgQsIdMvC50dPDPQjlZHIcKwjc6XPsSWeEWhvIrIAhPxUNik-RjZUYh9PiNF4MDygALeNarO9EmRUlH-F_dY8OVotcgBj74vWM9MwyyzpHAZrGHkVaZhAyFz3kFpSwig8hhU2ihf4Px7CyxjG5jERq3IXb5FE2LvnotxT7mpPvIaoYsnzssDuiHol2SzO8ev9mnufkU5shzfElxqQLYhsrQggDvreAVFNu386Qy__V7oXn645LzQLab0LXCdSJ0q_xEcRQe-zAs3XySGpDLCMLvo7hWYbb396y3Aohm-DUT6LcnavTdUlZBAYzXghJiV6kko0t9XztJoBUgaSJQu-_CU9d7IqEuc3Cfw3QlHbfvW2Rww0B35k0C528oo5aQfscpvg3iQMTSUp8cfT4d9f_8zMMdVLZNtq1tE8L3fKuhJITzKIAjfegOKTWj0ocYIfh0qf_EPA1MOFnreDb-KG1p8nZvnE8FCulUfBtOxvz9XcPseOgFkE5nIJMD6KLFIleYt5yhuBV4ELiJlvPUpIz1m5Eq1Ooq9MO2mdE5GxjY7Fjp-kJUI-dEoklliqVWS1I23W4AGGP11i8CWXA2RGZs0BWRlr8OeHkfYO04UX7A6BP3bPNoCK8vGWn15A4SfWXcI3K0wC9GK4Mm0uIirHQevISvIQewvor5QE-ieBX63oT0r1305igrlgOK8_tjlxeKhsGHjPzwMAXlMxFCtdfty1]--></g></svg>