<svg xmlns="http://www.w3.org/2000/svg" xmlns:xlink="http://www.w3.org/1999/xlink" contentStyleType="text/css" data-diagram-type="DESCRIPTION" height="2613px" preserveAspectRatio="none" style="width:376px;height:2613px;background:#FFFFFF;" version="1.1" viewBox="0 0 376 2613" width="376px" zoomAndPan="magnify"><defs/><g><!--cluster M?dulo Grado--><g class="cluster" data-entity="M.dulo Grado" data-source-line="5" data-uid="ent0003" id="cluster_M.dulo Grado"><path d="M153.86,6 L265.1715,6 A3.75,3.75 0 0 1 267.6715,8.5 L274.6715,28.2969 L324.3,28.2969 A2.5,2.5 0 0 1 326.8,30.7969 L326.8,283.5 A2.5,2.5 0 0 1 324.3,286 L153.86,286 A2.5,2.5 0 0 1 151.36,283.5 L151.36,8.5 A2.5,2.5 0 0 1 153.86,6" fill="none" style="stroke:#000000;stroke-width:1.5;"/><line style="stroke:#000000;stroke-width:1.5;" x1="151.36" x2="274.6715" y1="28.2969" y2="28.2969"/><text fill="#000000" font-family="sans-serif" font-size="14" font-weight="bold" lengthAdjust="spacing" textLength="110.3115" x="155.36" y="20.9951">M&#243;dulo Grado</text></g><!--cluster M?dulo Asignatura--><g class="cluster" data-entity="M.dulo Asignatura" data-source-line="12" data-uid="ent0008" id="cluster_M.dulo Asignatura"><path d="M139.92,310 L290.1622,310 A3.75,3.75 0 0 1 292.6622,312.5 L299.6622,332.2969 L338.24,332.2969 A2.5,2.5 0 0 1 340.74,334.7969 L340.74,609.5 A2.5,2.5 0 0 1 338.24,612 L139.92,612 A2.5,2.5 0 0 1 137.42,609.5 L137.42,312.5 A2.5,2.5 0 0 1 139.92,310" fill="none" style="stroke:#000000;stroke-width:1.5;"/><line style="stroke:#000000;stroke-width:1.5;" x1="137.42" x2="299.6622" y1="332.2969" y2="332.2969"/><text fill="#000000" font-family="sans-serif" font-size="14" font-weight="bold" lengthAdjust="spacing" textLength="149.2422" x="141.42" y="324.9951">M&#243;dulo Asignatura</text></g><!--cluster M?dulo Alumno--><g class="cluster" data-entity="M.dulo Alumno" data-source-line="19" data-uid="ent0013" id="cluster_M.dulo Alumno"><path d="M144.94,636 L268.5425,636 A3.75,3.75 0 0 1 271.0425,638.5 L278.0425,658.2969 L333.23,658.2969 A2.5,2.5 0 0 1 335.73,660.7969 L335.73,1063.5 A2.5,2.5 0 0 1 333.23,1066 L144.94,1066 A2.5,2.5 0 0 1 142.44,1063.5 L142.44,638.5 A2.5,2.5 0 0 1 144.94,636" fill="none" style="stroke:#000000;stroke-width:1.5;"/><line style="stroke:#000000;stroke-width:1.5;" x1="142.44" x2="278.0425" y1="658.2969" y2="658.2969"/><text fill="#000000" font-family="sans-serif" font-size="14" font-weight="bold" lengthAdjust="spacing" textLength="122.6025" x="146.44" y="650.9951">M&#243;dulo Alumno</text></g><!--cluster M?dulo Gesti?n de Preguntas--><g class="cluster" data-entity="M.dulo Gesti.n de Preguntas" data-source-line="30" data-uid="ent0020" id="cluster_M.dulo Gesti.n de Preguntas"><path d="M117.6,1090 L352.1771,1090 A3.75,3.75 0 0 1 354.6771,1092.5 L361.6771,1112.2969 L361.57,1112.2969 A2.5,2.5 0 0 1 364.07,1114.7969 L364.07,1811.5 A2.5,2.5 0 0 1 361.57,1814 L117.6,1814 A2.5,2.5 0 0 1 115.1,1811.5 L115.1,1092.5 A2.5,2.5 0 0 1 117.6,1090" fill="none" style="stroke:#000000;stroke-width:1.5;"/><line style="stroke:#000000;stroke-width:1.5;" x1="115.1" x2="361.6771" y1="1112.2969" y2="1112.2969"/><text fill="#000000" font-family="sans-serif" font-size="14" font-weight="bold" lengthAdjust="spacing" textLength="233.5771" x="119.1" y="1104.9951">M&#243;dulo Gesti&#243;n de Preguntas</text></g><!--cluster M?dulo Configuraci?n General--><g class="cluster" data-entity="M.dulo Configuraci.n General" data-source-line="43" data-uid="ent0031" id="cluster_M.dulo Configuraci.n General"><path d="M111.13,1838 L351.2032,1838 A3.75,3.75 0 0 1 353.7032,1840.5 L360.7032,1860.2969 L367.03,1860.2969 A2.5,2.5 0 0 1 369.53,1862.7969 L369.53,2022.5 A2.5,2.5 0 0 1 367.03,2025 L111.13,2025 A2.5,2.5 0 0 1 108.63,2022.5 L108.63,1840.5 A2.5,2.5 0 0 1 111.13,1838" fill="none" style="stroke:#000000;stroke-width:1.5;"/><line style="stroke:#000000;stroke-width:1.5;" x1="108.63" x2="360.7032" y1="1860.2969" y2="1860.2969"/><text fill="#000000" font-family="sans-serif" font-size="14" font-weight="bold" lengthAdjust="spacing" textLength="239.0732" x="112.63" y="1852.9951">M&#243;dulo Configuraci&#243;n General</text></g><!--cluster M?dulo Examen--><g class="cluster" data-entity="M.dulo Examen" data-source-line="48" data-uid="ent0034" id="cluster_M.dulo Examen"><path d="M142.13,2049 L268.0499,2049 A3.75,3.75 0 0 1 270.5499,2051.5 L277.5499,2071.2969 L336.03,2071.2969 A2.5,2.5 0 0 1 338.53,2073.7969 L338.53,2208.5 A2.5,2.5 0 0 1 336.03,2211 L142.13,2211 A2.5,2.5 0 0 1 139.63,2208.5 L139.63,2051.5 A2.5,2.5 0 0 1 142.13,2049" fill="none" style="stroke:#000000;stroke-width:1.5;"/><line style="stroke:#000000;stroke-width:1.5;" x1="139.63" x2="277.5499" y1="2071.2969" y2="2071.2969"/><text fill="#000000" font-family="sans-serif" font-size="14" font-weight="bold" lengthAdjust="spacing" textLength="124.9199" x="143.63" y="2063.9951">M&#243;dulo Examen</text></g><!--cluster M?dulo Correcci?n--><g class="cluster" data-entity="M.dulo Correcci.n" data-source-line="54" data-uid="ent0037" id="cluster_M.dulo Correcci.n"><path d="M142.2,2235 L290.2068,2235 A3.75,3.75 0 0 1 292.7068,2237.5 L299.7068,2257.2969 L335.96,2257.2969 A2.5,2.5 0 0 1 338.46,2259.7969 L338.46,2321.5 A2.5,2.5 0 0 1 335.96,2324 L142.2,2324 A2.5,2.5 0 0 1 139.7,2321.5 L139.7,2237.5 A2.5,2.5 0 0 1 142.2,2235" fill="none" style="stroke:#000000;stroke-width:1.5;"/><line style="stroke:#000000;stroke-width:1.5;" x1="139.7" x2="299.7068" y1="2257.2969" y2="2257.2969"/><text fill="#000000" font-family="sans-serif" font-size="14" font-weight="bold" lengthAdjust="spacing" textLength="147.0068" x="143.7" y="2249.9951">M&#243;dulo Correcci&#243;n</text></g><!--cluster M?dulo Sesi?n--><g class="cluster" data-entity="M.dulo Sesi.n" data-source-line="58" data-uid="ent0039" id="cluster_M.dulo Sesi.n"><path d="M160.68,2348 L276.804,2348 A3.75,3.75 0 0 1 279.304,2350.5 L286.304,2370.2969 L317.49,2370.2969 A2.5,2.5 0 0 1 319.99,2372.7969 L319.99,2492.5 A2.5,2.5 0 0 1 317.49,2495 L160.68,2495 A2.5,2.5 0 0 1 158.18,2492.5 L158.18,2350.5 A2.5,2.5 0 0 1 160.68,2348" fill="none" style="stroke:#000000;stroke-width:1.5;"/><line style="stroke:#000000;stroke-width:1.5;" x1="158.18" x2="286.304" y1="2370.2969" y2="2370.2969"/><text fill="#000000" font-family="sans-serif" font-size="14" font-weight="bold" lengthAdjust="spacing" textLength="115.124" x="162.18" y="2362.9951">M&#243;dulo Sesi&#243;n</text></g><!--cluster M?dulo Gesti?n--><g class="cluster" data-entity="M.dulo Gesti.n" data-source-line="63" data-uid="ent0042" id="cluster_M.dulo Gesti.n"><path d="M145.35,2519 L269.5746,2519 A3.75,3.75 0 0 1 272.0746,2521.5 L279.0746,2541.2969 L332.81,2541.2969 A2.5,2.5 0 0 1 335.31,2543.7969 L335.31,2603.5 A2.5,2.5 0 0 1 332.81,2606 L145.35,2606 A2.5,2.5 0 0 1 142.85,2603.5 L142.85,2521.5 A2.5,2.5 0 0 1 145.35,2519" fill="none" style="stroke:#000000;stroke-width:1.5;"/><line style="stroke:#000000;stroke-width:1.5;" x1="142.85" x2="279.0746" y1="2541.2969" y2="2541.2969"/><text fill="#000000" font-family="sans-serif" font-size="14" font-weight="bold" lengthAdjust="spacing" textLength="123.2246" x="146.85" y="2533.9951">M&#243;dulo Gesti&#243;n</text></g><!--entity UC1--><g class="entity" data-entity="UC1" data-source-line="6" data-uid="ent0004" id="entity_UC1"><ellipse cx="239.0791" cy="254.9978" fill="#F1F1F1" rx="63.6891" ry="15.1378" style="stroke:#181818;stroke-width:0.5;"/><text fill="#000000" font-family="sans-serif" font-size="14" lengthAdjust="spacing" textLength="89.9609" x="194.0986" y="259.6463">crearGrado()</text></g><!--entity UC2--><g class="entity" data-entity="UC2" data-source-line="7" data-uid="ent0005" id="entity_UC2"><ellipse cx="239.0779" cy="189.9976" fill="#F1F1F1" rx="61.3379" ry="14.6676" style="stroke:#181818;stroke-width:0.5;"/><text fill="#000000" font-family="sans-serif" font-size="14" lengthAdjust="spacing" textLength="83.5078" x="197.324" y="194.646">verGrados()</text></g><!--entity UC3--><g class="entity" data-entity="UC3" data-source-line="8" data-uid="ent0006" id="entity_UC3"><ellipse cx="239.0834" cy="124.9987" fill="#F1F1F1" rx="65.4934" ry="15.4987" style="stroke:#181818;stroke-width:0.5;"/><text fill="#000000" font-family="sans-serif" font-size="14" lengthAdjust="spacing" textLength="94.7734" x="191.6967" y="129.6471">editarGrado()</text></g><!--entity UC4--><g class="entity" data-entity="UC4" data-source-line="9" data-uid="ent0007" id="entity_UC4"><ellipse cx="239.083" cy="58.0046" fill="#F1F1F1" rx="71.723" ry="16.7446" style="stroke:#181818;stroke-width:0.5;"/><text fill="#000000" font-family="sans-serif" font-size="14" lengthAdjust="spacing" textLength="110.6875" x="183.7393" y="62.653">eliminarGrado()</text></g><!--entity UC5--><g class="entity" data-entity="UC5" data-source-line="13" data-uid="ent0009" id="entity_UC5"><ellipse cx="239.082" cy="578.0044" fill="#F1F1F1" rx="76.822" ry="17.7644" style="stroke:#181818;stroke-width:0.5;"/><text fill="#000000" font-family="sans-serif" font-size="14" lengthAdjust="spacing" textLength="123.1221" x="177.521" y="582.6528">crearAsignatura()</text></g><!--entity UC6--><g class="entity" data-entity="UC6" data-source-line="14" data-uid="ent0010" id="entity_UC6"><ellipse cx="239.0836" cy="508.0007" fill="#F1F1F1" rx="74.1536" ry="17.2307" style="stroke:#181818;stroke-width:0.5;"/><text fill="#000000" font-family="sans-serif" font-size="14" lengthAdjust="spacing" textLength="116.6689" x="180.7491" y="512.6492">verAsignaturas()</text></g><!--entity UC7--><g class="entity" data-entity="UC7" data-source-line="15" data-uid="ent0011" id="entity_UC7"><ellipse cx="239.0802" cy="437.998" fill="#F1F1F1" rx="78.8402" ry="18.168" style="stroke:#181818;stroke-width:0.5;"/><text fill="#000000" font-family="sans-serif" font-size="14" lengthAdjust="spacing" textLength="127.9346" x="175.1129" y="442.6465">editarAsignatura()</text></g><!--entity UC8--><g class="entity" data-entity="UC8" data-source-line="16" data-uid="ent0012" id="entity_UC8"><ellipse cx="239.0822" cy="365.0024" fill="#F1F1F1" rx="85.6622" ry="19.5324" style="stroke:#181818;stroke-width:0.5;"/><text fill="#000000" font-family="sans-serif" font-size="14" lengthAdjust="spacing" textLength="143.8486" x="167.1578" y="369.6509">eliminarAsignatura()</text></g><!--entity UC9--><g class="entity" data-entity="UC9" data-source-line="20" data-uid="ent0014" id="entity_UC9"><ellipse cx="239.0752" cy="1033.997" fill="#F1F1F1" rx="67.7852" ry="15.957" style="stroke:#181818;stroke-width:0.5;"/><text fill="#000000" font-family="sans-serif" font-size="14" lengthAdjust="spacing" textLength="100.7412" x="188.7046" y="1038.6455">crearAlumno()</text></g><!--entity UC10--><g class="entity" data-entity="UC10" data-source-line="21" data-uid="ent0015" id="entity_UC10"><ellipse cx="239.0796" cy="968.0019" fill="#F1F1F1" rx="65.3096" ry="15.4619" style="stroke:#181818;stroke-width:0.5;"/><text fill="#000000" font-family="sans-serif" font-size="14" lengthAdjust="spacing" textLength="94.2881" x="191.9356" y="972.6504">verAlumnos()</text></g><!--entity UC11--><g class="entity" data-entity="UC11" data-source-line="22" data-uid="ent0016" id="entity_UC11"><ellipse cx="239.0833" cy="901.0047" fill="#F1F1F1" rx="69.6733" ry="16.3347" style="stroke:#181818;stroke-width:0.5;"/><text fill="#000000" font-family="sans-serif" font-size="14" lengthAdjust="spacing" textLength="105.5537" x="186.3064" y="905.6531">editarAlumno()</text></g><!--entity UC12--><g class="entity" data-entity="UC12" data-source-line="23" data-uid="ent0017" id="entity_UC12"><ellipse cx="239.0837" cy="831.9967" fill="#F1F1F1" rx="76.1337" ry="17.6267" style="stroke:#181818;stroke-width:0.5;"/><text fill="#000000" font-family="sans-serif" font-size="14" lengthAdjust="spacing" textLength="121.4678" x="178.3498" y="836.6452">eliminarAlumno()</text></g><!--entity UC19--><g class="entity" data-entity="UC19" data-source-line="24" data-uid="ent0018" id="entity_UC19"><ellipse cx="239.0847" cy="760.9989" fill="#F1F1F1" rx="80.6447" ry="18.5289" style="stroke:#181818;stroke-width:0.5;"/><text fill="#000000" font-family="sans-serif" font-size="14" lengthAdjust="spacing" textLength="132.1934" x="172.988" y="765.6474">importarAlumnos()</text></g><!--entity UC17--><g class="entity" data-entity="UC17" data-source-line="25" data-uid="ent0019" id="entity_UC17"><ellipse cx="239.0772" cy="688.9954" fill="#F1F1F1" rx="80.3772" ry="18.4754" style="stroke:#181818;stroke-width:0.5;"/><text fill="#000000" font-family="sans-serif" font-size="14" lengthAdjust="spacing" textLength="131.5645" x="173.2949" y="693.6439">exportarAlumnos()</text></g><!--entity UC20--><g class="entity" data-entity="UC20" data-source-line="31" data-uid="ent0021" id="entity_UC20"><ellipse cx="239.0836" cy="1780.9967" fill="#F1F1F1" rx="71.7836" ry="16.7567" style="stroke:#181818;stroke-width:0.5;"/><text fill="#000000" font-family="sans-serif" font-size="14" lengthAdjust="spacing" textLength="110.8379" x="183.6647" y="1785.6452">crearPregunta()</text></g><!--entity UC21--><g class="entity" data-entity="UC21" data-source-line="32" data-uid="ent0022" id="entity_UC21"><ellipse cx="239.0816" cy="1713.0023" fill="#F1F1F1" rx="69.2116" ry="16.2423" style="stroke:#181818;stroke-width:0.5;"/><text fill="#000000" font-family="sans-serif" font-size="14" lengthAdjust="spacing" textLength="104.3848" x="186.8892" y="1717.6507">verPreguntas()</text></g><!--entity UC22--><g class="entity" data-entity="UC22" data-source-line="33" data-uid="ent0023" id="entity_UC22"><ellipse cx="239.0764" cy="1644.9993" fill="#F1F1F1" rx="69.3464" ry="16.2693" style="stroke:#181818;stroke-width:0.5;"/><text fill="#000000" font-family="sans-serif" font-size="14" lengthAdjust="spacing" textLength="104.7266" x="186.7131" y="1649.6477">editarPregunta</text></g><!--entity UC23--><g class="entity" data-entity="UC23" data-source-line="34" data-uid="ent0024" id="entity_UC23"><ellipse cx="239.0772" cy="1574.9954" fill="#F1F1F1" rx="80.3772" ry="18.4754" style="stroke:#181818;stroke-width:0.5;"/><text fill="#000000" font-family="sans-serif" font-size="14" lengthAdjust="spacing" textLength="131.5645" x="173.2949" y="1579.6439">eliminarPregunta()</text></g><!--entity UC24--><g class="entity" data-entity="UC24" data-source-line="35" data-uid="ent0025" id="entity_UC24"><ellipse cx="239.085" cy="1501.997" fill="#F1F1F1" rx="84.985" ry="19.397" style="stroke:#181818;stroke-width:0.5;"/><text fill="#000000" font-family="sans-serif" font-size="14" lengthAdjust="spacing" textLength="142.29" x="167.94" y="1506.6454">importarPreguntas()</text></g><!--entity UC25--><g class="entity" data-entity="UC25" data-source-line="36" data-uid="ent0026" id="entity_UC25"><ellipse cx="239.0823" cy="1428.0025" fill="#F1F1F1" rx="84.7123" ry="19.3425" style="stroke:#181818;stroke-width:0.5;"/><text fill="#000000" font-family="sans-serif" font-size="14" lengthAdjust="spacing" textLength="141.6611" x="168.2517" y="1432.6509">exportarPreguntas()</text></g><!--entity UC32--><g class="entity" data-entity="UC32" data-source-line="37" data-uid="ent0027" id="entity_UC32"><ellipse cx="239.0832" cy="1356.0026" fill="#F1F1F1" rx="75.8132" ry="17.5626" style="stroke:#181818;stroke-width:0.5;"/><text fill="#000000" font-family="sans-serif" font-size="14" lengthAdjust="spacing" textLength="120.6953" x="178.7356" y="1360.6511">crearRespuesta()</text></g><!--entity UC33--><g class="entity" data-entity="UC33" data-source-line="38" data-uid="ent0028" id="entity_UC33"><ellipse cx="239.0823" cy="1286.0025" fill="#F1F1F1" rx="73.1623" ry="17.0325" style="stroke:#181818;stroke-width:0.5;"/><text fill="#000000" font-family="sans-serif" font-size="14" lengthAdjust="spacing" textLength="114.2422" x="181.9612" y="1290.6509">verRespuestas()</text></g><!--entity UC34--><g class="entity" data-entity="UC34" data-source-line="39" data-uid="ent0029" id="entity_UC34"><ellipse cx="239.0796" cy="1216.0039" fill="#F1F1F1" rx="77.8196" ry="17.9639" style="stroke:#181818;stroke-width:0.5;"/><text fill="#000000" font-family="sans-serif" font-size="14" lengthAdjust="spacing" textLength="125.5078" x="176.3257" y="1220.6524">editarRespuesta()</text></g><!--entity UC35--><g class="entity" data-entity="UC35" data-source-line="40" data-uid="ent0030" id="entity_UC35"><ellipse cx="239.0786" cy="1144.0017" fill="#F1F1F1" rx="84.6086" ry="19.3217" style="stroke:#181818;stroke-width:0.5;"/><text fill="#000000" font-family="sans-serif" font-size="14" lengthAdjust="spacing" textLength="141.4219" x="168.3677" y="1148.6502">eliminarRespuesta()</text></g><!--entity UC26--><g class="entity" data-entity="UC26" data-source-line="44" data-uid="ent0032" id="entity_UC26"><ellipse cx="239.0835" cy="1984.0007" fill="#F1F1F1" rx="114.1535" ry="25.2307" style="stroke:#181818;stroke-width:0.5;"/><text fill="#000000" font-family="sans-serif" font-size="14" lengthAdjust="spacing" textLength="206.835" x="135.666" y="1988.6491">Exportar configuraci&#243;n global</text></g><!--entity UC27--><g class="entity" data-entity="UC27" data-source-line="45" data-uid="ent0033" id="entity_UC27"><ellipse cx="239.0793" cy="1897.9999" fill="#F1F1F1" rx="114.4493" ry="25.2899" style="stroke:#181818;stroke-width:0.5;"/><text fill="#000000" font-family="sans-serif" font-size="14" lengthAdjust="spacing" textLength="207.4707" x="135.344" y="1902.6483">Importar configuraci&#243;n global</text></g><!--entity UC28--><g class="entity" data-entity="UC28" data-source-line="49" data-uid="ent0035" id="entity_UC28"><ellipse cx="239.0804" cy="2176.0001" fill="#F1F1F1" rx="83.4504" ry="19.0901" style="stroke:#181818;stroke-width:0.5;"/><text fill="#000000" font-family="sans-serif" font-size="14" lengthAdjust="spacing" textLength="138.7422" x="169.7094" y="2180.6485">generarExamenes()</text></g><!--entity UC29--><g class="entity" data-entity="UC29" data-source-line="50" data-uid="ent0036" id="entity_UC29"><ellipse cx="239.0765" cy="2103.0033" fill="#F1F1F1" rx="82.0665" ry="18.8133" style="stroke:#181818;stroke-width:0.5;"/><text fill="#000000" font-family="sans-serif" font-size="14" lengthAdjust="spacing" textLength="135.5225" x="171.3153" y="2107.6517">asignarExamenes()</text></g><!--entity UC31--><g class="entity" data-entity="UC31" data-source-line="55" data-uid="ent0038" id="entity_UC31"><ellipse cx="239.0827" cy="2288.9965" fill="#F1F1F1" rx="83.3827" ry="19.0765" style="stroke:#181818;stroke-width:0.5;"/><text fill="#000000" font-family="sans-serif" font-size="14" lengthAdjust="spacing" textLength="138.585" x="169.7902" y="2293.645">corregirExamenes()</text></g><!--entity UC41--><g class="entity" data-entity="UC41" data-source-line="59" data-uid="ent0040" id="entity_UC41"><ellipse cx="239.0811" cy="2464.0042" fill="#F1F1F1" rx="64.3711" ry="15.2742" style="stroke:#181818;stroke-width:0.5;"/><text fill="#000000" font-family="sans-serif" font-size="14" lengthAdjust="spacing" textLength="91.793" x="193.1846" y="2468.6527">Iniciar sesi&#243;n</text></g><!--entity UC42--><g class="entity" data-entity="UC42" data-source-line="60" data-uid="ent0041" id="entity_UC42"><ellipse cx="239.0846" cy="2398.0009" fill="#F1F1F1" rx="64.9046" ry="15.3809" style="stroke:#181818;stroke-width:0.5;"/><text fill="#000000" font-family="sans-serif" font-size="14" lengthAdjust="spacing" textLength="93.2148" x="192.4772" y="2402.6494">Cerrar sesi&#243;n</text></g><!--entity UC13--><g class="entity" data-entity="UC13" data-source-line="64" data-uid="ent0043" id="entity_UC13"><ellipse cx="239.079" cy="2571.9958" fill="#F1F1F1" rx="80.229" ry="18.4458" style="stroke:#181818;stroke-width:0.5;"/><text fill="#000000" font-family="sans-serif" font-size="14" lengthAdjust="spacing" textLength="131.2158" x="173.4711" y="2576.6442">Completar Gesti&#243;n</text></g><!--entity doc--><g class="entity" data-entity="doc" data-source-line="3" data-uid="ent0002" id="entity_doc"><ellipse cx="35.3159" cy="1221.35" fill="#F1F1F1" rx="8" ry="8" style="stroke:#181818;stroke-width:0.5;"/><path d="M35.3159,1229.35 L35.3159,1256.35 M22.3159,1237.35 L48.3159,1237.35 M35.3159,1256.35 L22.3159,1271.35 M35.3159,1256.35 L48.3159,1271.35" fill="none" style="stroke:#181818;stroke-width:0.5;"/><text fill="#000000" font-family="sans-serif" font-size="14" lengthAdjust="spacing" textLength="58.6318" x="6" y="1285.8451">Docente</text></g><!--link doc to UC1--><g class="link" data-entity-1="doc" data-entity-2="UC1" data-source-line="68" data-uid="lnk44" id="link_doc_UC1"><path d="M36.83,1212.46 C39.33,1047.27 52.14,404.11 100.63,329 C121.87,296.1 157.2392,278.6611 188.9692,268.0611" fill="none" id="doc-to-UC1" style="stroke:#181818;stroke-width:1;"/><polygon fill="#181818" points="194.66,266.16,184.8563,265.2178,189.9176,267.7443,187.3912,272.8056,194.66,266.16" style="stroke:#181818;stroke-width:1;"/></g><!--link doc to UC2--><g class="link" data-entity-1="doc" data-entity-2="UC2" data-source-line="69" data-uid="lnk45" id="link_doc_UC2"><path d="M36.05,1212.47 C35.2,1034.67 35.63,298.82 100.63,222 C119.31,199.93 144.0001,192.0107 171.6301,189.2307" fill="none" id="doc-to-UC2" style="stroke:#181818;stroke-width:1;"/><polygon fill="#181818" points="177.6,188.63,168.2448,185.5511,172.6251,189.1305,169.0457,193.5109,177.6,188.63" style="stroke:#181818;stroke-width:1;"/></g><!--link doc to UC3--><g class="link" data-entity-1="doc" data-entity-2="UC3" data-source-line="70" data-uid="lnk46" id="link_doc_UC3"><path d="M35.92,1212.58 C34.35,1028.27 31.73,240.31 100.63,158 C118.27,136.92 140.8388,128.7338 167.3288,125.3338" fill="none" id="doc-to-UC3" style="stroke:#181818;stroke-width:1;"/><polygon fill="#181818" points="173.28,124.57,163.844,121.7483,168.3207,125.2065,164.8625,129.6832,173.28,124.57" style="stroke:#181818;stroke-width:1;"/></g><!--link doc to UC4--><g class="link" data-entity-1="doc" data-entity-2="UC4" data-source-line="71" data-uid="lnk47" id="link_doc_UC4"><path d="M37.18,1212.42 C41.72,1016.16 64.09,136.11 100.63,92 C116.86,72.41 136.5225,64.0914 161.2325,59.9514" fill="none" id="doc-to-UC4" style="stroke:#181818;stroke-width:1;"/><polygon fill="#181818" points="167.15,58.96,157.6128,56.5021,162.2187,59.7862,158.9347,64.3922,167.15,58.96" style="stroke:#181818;stroke-width:1;"/></g><!--link doc to UC5--><g class="link" data-entity-1="doc" data-entity-2="UC5" data-source-line="72" data-uid="lnk48" id="link_doc_UC5"><path d="M35.97,1212.39 C35.62,1095.37 39.82,747.04 100.63,655 C121.36,623.62 153.8695,605.8667 184.7095,594.1767" fill="none" id="doc-to-UC5" style="stroke:#181818;stroke-width:1;"/><polygon fill="#181818" points="190.32,592.05,180.4865,591.4997,185.6446,593.8222,183.3221,598.9803,190.32,592.05" style="stroke:#181818;stroke-width:1;"/></g><!--link doc to UC6--><g class="link" data-entity-1="doc" data-entity-2="UC6" data-source-line="73" data-uid="lnk49" id="link_doc_UC6"><path d="M37.25,1212.7 C41,1072.7 56.94,594.24 100.63,543 C116.69,524.17 135.4237,515.8405 159.4237,511.3205" fill="none" id="doc-to-UC6" style="stroke:#181818;stroke-width:1;"/><polygon fill="#181818" points="165.32,510.21,155.7352,507.9448,160.4064,511.1354,157.2158,515.8066,165.32,510.21" style="stroke:#181818;stroke-width:1;"/></g><!--link doc to UC7--><g class="link" data-entity-1="doc" data-entity-2="UC7" data-source-line="74" data-uid="lnk50" id="link_doc_UC7"><path d="M36.92,1212.55 C39.6,1063.58 52.5,529.92 100.63,473 C115.66,455.23 132.4513,447.0585 155.0613,442.2485" fill="none" id="doc-to-UC7" style="stroke:#181818;stroke-width:1;"/><polygon fill="#181818" points="160.93,441,151.2947,438.9603,156.0394,442.0404,152.9593,446.7852,160.93,441" style="stroke:#181818;stroke-width:1;"/></g><!--link doc to UC8--><g class="link" data-entity-1="doc" data-entity-2="UC8" data-source-line="75" data-uid="lnk51" id="link_doc_UC8"><path d="M36.66,1212.6 C38.4,1055.24 48.39,465.08 100.63,402 C114.5,385.25 129.2685,377.1422 150.2985,371.7422" fill="none" id="doc-to-UC8" style="stroke:#181818;stroke-width:1;"/><polygon fill="#181818" points="156.11,370.25,146.398,368.6141,151.2671,371.4935,148.3876,376.3627,156.11,370.25" style="stroke:#181818;stroke-width:1;"/></g><!--link doc to UC9--><g class="link" data-entity-1="doc" data-entity-2="UC9" data-source-line="76" data-uid="lnk52" id="link_doc_UC9"><path d="M46.35,1212.49 C56.03,1181.52 73.29,1138.45 100.63,1109 C127.82,1079.71 163.5367,1061.5523 193.7567,1049.5023" fill="none" id="doc-to-UC9" style="stroke:#181818;stroke-width:1;"/><polygon fill="#181818" points="199.33,1047.28,189.4886,1046.8979,194.6856,1049.1319,192.4516,1054.329,199.33,1047.28" style="stroke:#181818;stroke-width:1;"/></g><!--link doc to UC10--><g class="link" data-entity-1="doc" data-entity-2="UC10" data-source-line="77" data-uid="lnk53" id="link_doc_UC10"><path d="M41.34,1212.46 C50.27,1149.92 70.8,1030.35 100.63,1001 C119.87,982.07 142.0252,974.192 167.7952,970.362" fill="none" id="doc-to-UC10" style="stroke:#181818;stroke-width:1;"/><polygon fill="#181818" points="173.73,969.48,164.2398,966.8465,168.7843,970.215,165.4158,974.7596,173.73,969.48" style="stroke:#181818;stroke-width:1;"/></g><!--link doc to UC11--><g class="link" data-entity-1="doc" data-entity-2="UC11" data-source-line="78" data-uid="lnk54" id="link_doc_UC11"><path d="M39.09,1212.44 C45.31,1137.12 62.85,974.39 100.63,935 C118.5,916.37 138.9147,908.3145 163.7647,904.0945" fill="none" id="doc-to-UC11" style="stroke:#181818;stroke-width:1;"/><polygon fill="#181818" points="169.68,903.09,160.1373,900.6533,164.7506,903.9271,161.4767,908.5403,169.68,903.09" style="stroke:#181818;stroke-width:1;"/></g><!--link doc to UC12--><g class="link" data-entity-1="doc" data-entity-2="UC12" data-source-line="79" data-uid="lnk55" id="link_doc_UC12"><path d="M37.58,1212.37 C41.22,1125.21 54.64,917 100.63,867 C116.89,849.33 134.8199,841.2337 158.0699,836.5137" fill="none" id="doc-to-UC12" style="stroke:#181818;stroke-width:1;"/><polygon fill="#181818" points="163.95,835.32,154.3341,833.1905,159.05,836.3148,155.9257,841.0306,163.95,835.32" style="stroke:#181818;stroke-width:1;"/></g><!--link doc to UC13--><g class="link" data-entity-1="doc" data-entity-2="UC13" data-source-line="80" data-uid="lnk56" id="link_doc_UC13"><path d="M36.12,1289.61 C35.39,1488.31 35.69,2390.46 100.63,2495 C120.05,2526.25 151.3889,2543.795 182.0989,2555.425" fill="none" id="doc-to-UC13" style="stroke:#181818;stroke-width:1;"/><polygon fill="#181818" points="187.71,2557.55,180.71,2550.6218,183.0341,2555.7792,177.8767,2558.1033,187.71,2557.55" style="stroke:#181818;stroke-width:1;"/></g><!--link doc to UC17--><g class="link" data-entity-1="doc" data-entity-2="UC17" data-source-line="81" data-uid="lnk57" id="link_doc_UC17"><path d="M35.63,1212.42 C34.52,1103.63 37.22,797.57 100.63,725 C115.73,707.72 132.1395,699.5811 154.3795,694.5211" fill="none" id="doc-to-UC17" style="stroke:#181818;stroke-width:1;"/><polygon fill="#181818" points="160.23,693.19,150.5669,691.2863,155.3546,694.2992,152.3417,699.087,160.23,693.19" style="stroke:#181818;stroke-width:1;"/></g><!--link doc to UC19--><g class="link" data-entity-1="doc" data-entity-2="UC19" data-source-line="82" data-uid="lnk58" id="link_doc_UC19"><path d="M36.48,1212.46 C37.7,1114.27 46.16,858.15 100.63,797 C115.89,779.87 132.3502,771.7642 154.5802,766.6942" fill="none" id="doc-to-UC19" style="stroke:#181818;stroke-width:1;"/><polygon fill="#181818" points="160.43,765.36,150.7659,763.4614,155.5552,766.4718,152.5448,771.2611,160.43,765.36" style="stroke:#181818;stroke-width:1;"/></g><!--link doc to UC20--><g class="link" data-entity-1="doc" data-entity-2="UC20" data-source-line="83" data-uid="lnk59" id="link_doc_UC20"><path d="M35.91,1289.29 C35.61,1393.61 40.43,1679.54 100.63,1747 C117.41,1765.8 136.8798,1773.9557 161.2798,1778.2257" fill="none" id="doc-to-UC20" style="stroke:#181818;stroke-width:1;"/><polygon fill="#181818" points="167.19,1779.26,159.0142,1773.7685,162.2648,1778.3981,157.6352,1781.6487,167.19,1779.26" style="stroke:#181818;stroke-width:1;"/></g><!--link doc to UC21--><g class="link" data-entity-1="doc" data-entity-2="UC21" data-source-line="84" data-uid="lnk60" id="link_doc_UC21"><path d="M36.8,1289.44 C38.8,1383.61 48.96,1622.27 100.63,1679 C118.18,1698.26 138.8384,1706.4335 163.9584,1710.5335" fill="none" id="doc-to-UC21" style="stroke:#181818;stroke-width:1;"/><polygon fill="#181818" points="169.88,1711.5,161.6419,1706.1025,164.9453,1710.6946,160.3532,1713.998,169.88,1711.5" style="stroke:#181818;stroke-width:1;"/></g><!--link doc to UC22--><g class="link" data-entity-1="doc" data-entity-2="UC22" data-source-line="85" data-uid="lnk61" id="link_doc_UC22"><path d="M38.02,1289.42 C42.5,1372.45 57.4,1564.83 100.63,1611 C118.36,1629.93 138.9015,1638.0444 163.8815,1642.2044" fill="none" id="doc-to-UC22" style="stroke:#181818;stroke-width:1;"/><polygon fill="#181818" points="169.8,1643.19,161.5793,1637.7659,164.8679,1642.3686,160.2652,1645.6572,169.8,1643.19" style="stroke:#181818;stroke-width:1;"/></g><!--link doc to UC23--><g class="link" data-entity-1="doc" data-entity-2="UC23" data-source-line="86" data-uid="lnk62" id="link_doc_UC23"><path d="M39.99,1289.64 C47.44,1359.67 66.54,1503.64 100.63,1539 C116.56,1555.51 133.203,1563.4335 155.393,1568.5435" fill="none" id="doc-to-UC23" style="stroke:#181818;stroke-width:1;"/><polygon fill="#181818" points="161.24,1569.89,153.3672,1563.9723,156.3675,1568.7679,151.5719,1571.7683,161.24,1569.89" style="stroke:#181818;stroke-width:1;"/></g><!--link doc to UC24--><g class="link" data-entity-1="doc" data-entity-2="UC24" data-source-line="87" data-uid="lnk63" id="link_doc_UC24"><path d="M37.06,1289.57 C40.12,1337.42 52.63,1418.37 100.63,1465 C116.5,1480.41 132.2525,1488.1013 153.6025,1493.4913" fill="none" id="doc-to-UC24" style="stroke:#181818;stroke-width:1;"/><polygon fill="#181818" points="159.42,1494.96,151.6729,1488.8787,154.5721,1493.7361,149.7147,1496.6353,159.42,1494.96" style="stroke:#181818;stroke-width:1;"/></g><!--link doc to UC25--><g class="link" data-entity-1="doc" data-entity-2="UC25" data-source-line="88" data-uid="lnk64" id="link_doc_UC25"><path d="M44.42,1289.5 C53.06,1321.2 69.88,1365.02 100.63,1391 C117.81,1405.51 134.3188,1412.9261 155.9788,1418.3361" fill="none" id="doc-to-UC25" style="stroke:#181818;stroke-width:1;"/><polygon fill="#181818" points="161.8,1419.79,154.0375,1413.7283,156.949,1418.5784,152.0989,1421.4899,161.8,1419.79" style="stroke:#181818;stroke-width:1;"/></g><!--link doc to UC26--><g class="link" data-entity-1="doc" data-entity-2="UC26" data-source-line="89" data-uid="lnk65" id="link_doc_UC26"><path d="M37.44,1289.2 C41.79,1426.57 59.44,1890.08 100.63,1941 C111.48,1954.41 120.8987,1961.4928 137.0087,1967.9328" fill="none" id="doc-to-UC26" style="stroke:#181818;stroke-width:1;"/><polygon fill="#181818" points="142.58,1970.16,135.7078,1963.105,137.9372,1968.304,132.7382,1970.5335,142.58,1970.16" style="stroke:#181818;stroke-width:1;"/></g><!--link doc to UC27--><g class="link" data-entity-1="doc" data-entity-2="UC27" data-source-line="90" data-uid="lnk66" id="link_doc_UC27"><path d="M36.41,1289.36 C37.33,1401.55 44.87,1726.61 100.63,1814 C118.76,1842.41 144.8661,1860.0936 173.1461,1873.6036" fill="none" id="doc-to-UC27" style="stroke:#181818;stroke-width:1;"/><polygon fill="#181818" points="178.56,1876.19,172.1633,1868.7012,174.0484,1874.0347,168.7149,1875.9197,178.56,1876.19" style="stroke:#181818;stroke-width:1;"/></g><!--link doc to UC28--><g class="link" data-entity-1="doc" data-entity-2="UC28" data-source-line="91" data-uid="lnk67" id="link_doc_UC28"><path d="M36.52,1289.51 C37.73,1451.54 45.93,2072.73 100.63,2139 C114.87,2156.25 130.3927,2164.4908 152.0427,2169.8008" fill="none" id="doc-to-UC28" style="stroke:#181818;stroke-width:1;"/><polygon fill="#181818" points="157.87,2171.23,150.0819,2165.2013,153.0139,2170.039,148.1762,2172.971,157.87,2171.23" style="stroke:#181818;stroke-width:1;"/></g><!--link doc to UC29--><g class="link" data-entity-1="doc" data-entity-2="UC29" data-source-line="92" data-uid="lnk68" id="link_doc_UC29"><path d="M37.42,1289.41 C41.94,1437 60.73,1962.59 100.63,2025 C120.51,2056.09 151.8503,2073.8693 182.4303,2085.7993" fill="none" id="doc-to-UC29" style="stroke:#181818;stroke-width:1;"/><polygon fill="#181818" points="188.02,2087.98,181.0892,2080.9825,183.3619,2086.1628,178.1817,2088.4354,188.02,2087.98" style="stroke:#181818;stroke-width:1;"/></g><!--link doc to UC31--><g class="link" data-entity-1="doc" data-entity-2="UC31" data-source-line="93" data-uid="lnk69" id="link_doc_UC31"><path d="M36.76,1289.38 C38.99,1458.46 50.97,2131.92 100.63,2211 C120.11,2242.02 151.0614,2259.7166 181.5714,2271.6366" fill="none" id="doc-to-UC31" style="stroke:#181818;stroke-width:1;"/><polygon fill="#181818" points="187.16,2273.82,180.2327,2266.8191,182.5028,2272.0005,177.3215,2274.2706,187.16,2273.82" style="stroke:#181818;stroke-width:1;"/></g><!--link doc to UC32--><g class="link" data-entity-1="doc" data-entity-2="UC32" data-source-line="94" data-uid="lnk70" id="link_doc_UC32"><path d="M64.34,1289.33 C74.59,1301 87.03,1312.87 100.63,1321 C122.3,1333.94 142.7866,1340.8569 166.5966,1346.0269" fill="none" id="doc-to-UC32" style="stroke:#181818;stroke-width:1;"/><polygon fill="#181818" points="172.46,1347.3,164.5137,1341.4814,167.5739,1346.239,162.8162,1349.2992,172.46,1347.3" style="stroke:#181818;stroke-width:1;"/></g><!--link doc to UC33--><g class="link" data-entity-1="doc" data-entity-2="UC33" data-source-line="95" data-uid="lnk71" id="link_doc_UC33"><path d="M64.8,1255.94 C94.45,1261.08 135.8383,1268.2642 173.5283,1274.8042" fill="none" id="doc-to-UC33" style="stroke:#181818;stroke-width:1;"/><polygon fill="#181818" points="179.44,1275.83,171.2564,1270.3502,174.5136,1274.9752,169.8886,1278.2324,179.44,1275.83" style="stroke:#181818;stroke-width:1;"/></g><!--link doc to UC34--><g class="link" data-entity-1="doc" data-entity-2="UC34" data-source-line="96" data-uid="lnk72" id="link_doc_UC34"><path d="M64.8,1246.06 C93.47,1241.08 132.7385,1234.2765 169.7685,1227.8465" fill="none" id="doc-to-UC34" style="stroke:#181818;stroke-width:1;"/><polygon fill="#181818" points="175.68,1226.82,166.1284,1224.4187,170.7537,1227.6754,167.497,1232.3008,175.68,1226.82" style="stroke:#181818;stroke-width:1;"/></g><!--link doc to UC35--><g class="link" data-entity-1="doc" data-entity-2="UC35" data-source-line="97" data-uid="lnk73" id="link_doc_UC35"><path d="M64.73,1212.41 C74.91,1200.87 87.23,1189.13 100.63,1181 C121.02,1168.63 139.7415,1161.7543 162.4115,1156.2143" fill="none" id="doc-to-UC35" style="stroke:#181818;stroke-width:1;"/><polygon fill="#181818" points="168.24,1154.79,158.5477,1153.0409,163.3829,1155.977,160.4468,1160.8122,168.24,1154.79" style="stroke:#181818;stroke-width:1;"/></g><!--link doc to UC41--><g class="link" data-entity-1="doc" data-entity-2="UC41" data-source-line="98" data-uid="lnk74" id="link_doc_UC41"><path d="M37.13,1289.62 C41.5,1488.14 63.26,2386.16 100.63,2431 C118.46,2452.4 141.5447,2460.5792 168.3547,2463.8692" fill="none" id="doc-to-UC41" style="stroke:#181818;stroke-width:1;"/><polygon fill="#181818" points="174.31,2464.6,165.8642,2459.5336,169.3472,2463.991,164.8898,2467.474,174.31,2464.6" style="stroke:#181818;stroke-width:1;"/></g><!--link doc to UC42--><g class="link" data-entity-1="doc" data-entity-2="UC42" data-source-line="99" data-uid="lnk75" id="link_doc_UC42"><path d="M36.43,1289.59 C37.24,1471.17 44.03,2235.38 100.63,2324 C121.57,2356.78 156.531,2374.1535 188.221,2384.7735" fill="none" id="doc-to-UC42" style="stroke:#181818;stroke-width:1;"/><polygon fill="#181818" points="193.91,2386.68,186.6475,2380.0275,189.1691,2385.0912,184.1054,2387.6129,193.91,2386.68" style="stroke:#181818;stroke-width:1;"/></g><!--SRC=[ZLJDQjmm4BxxASIUsaDW9NcpkvT2sOQGGw6qz05KU-AAsj8YoILG-bHvXBnO_LDR8ta2kOsPJz_FUAGM7WCBbZdT_0oirWwgeAqf2bK5wzZkawt01DWnvLbjgwAugkgNQe3jFhyyrtrhsRrJjTsnFmLZlOTA-Q5NEL1kQhnxFntzVk6u_nlchb_R0hUXrY4_BnD0gpjjSaXP_2NyVVIwCIhqJb4cOtUbEMHE8oJQlTtQ9PYEb6S2TwADjtrdoCdEdVNuEJSyjQDPlYVSfXISarOpqFYJ8aftL-jMAYHtJc3mz0hiEAQc5Wfyq2_FXjN0lZXeUXEKfyQmDECIxRD9hCSZX6zdiQ0MYA1ciHLBDd8P1g5O5iGq2DomTsc-h-2l_J2Cg2b55d25H1ufjma9ff8AIU0Ev6vUh7dKpR33rVIdxi60Kstsa-x-PsLLYcvQ-sC4px6Jg_JGlUN8aVHqzwGwC9c7PdBcvXwWQPymIartaa0Dg_nAVZUyb9EtV3F7JgEtN9AJJD_04omFHbTw68DVklC3bopl1PpRGWIfijofJEPYksiBuxmZOBwSiXXvXXUVtTnyc9xlM0jKIrINg3wW-XRLHrIVK7t6MdlyWPKvbkPOcsDYZja4PXD93imcC9l0KGJE8d0OWKK5ZYEm0ub5PJ8zB2gngCIY9IOenJy0]--></g></svg>