<svg xmlns="http://www.w3.org/2000/svg" xmlns:xlink="http://www.w3.org/1999/xlink" contentStyleType="text/css" data-diagram-type="DESCRIPTION" height="2490px" preserveAspectRatio="none" style="width:399px;height:2490px;background:#FFFFFF;" version="1.1" viewBox="0 0 399 2490" width="399px" zoomAndPan="magnify"><defs/><g><!--cluster M?dulo Grado--><g class="cluster" data-entity="M.dulo Grado" data-source-line="5" data-uid="ent0003" id="cluster_M.dulo Grado"><path d="M168.44,6 L279.7515,6 A3.75,3.75 0 0 1 282.2515,8.5 L289.2515,28.2969 L332.37,28.2969 A2.5,2.5 0 0 1 334.87,30.7969 L334.87,279.5 A2.5,2.5 0 0 1 332.37,282 L168.44,282 A2.5,2.5 0 0 1 165.94,279.5 L165.94,8.5 A2.5,2.5 0 0 1 168.44,6" fill="none" style="stroke:#000000;stroke-width:1.5;"/><line style="stroke:#000000;stroke-width:1.5;" x1="165.94" x2="289.2515" y1="28.2969" y2="28.2969"/><text fill="#000000" font-family="sans-serif" font-size="14" font-weight="bold" lengthAdjust="spacing" textLength="110.3115" x="169.94" y="20.9951">M&#243;dulo Grado</text></g><!--cluster M?dulo Asignatura--><g class="cluster" data-entity="M.dulo Asignatura" data-source-line="12" data-uid="ent0008" id="cluster_M.dulo Asignatura"><path d="M154.37,306 L304.6122,306 A3.75,3.75 0 0 1 307.1122,308.5 L314.1122,328.2969 L346.44,328.2969 A2.5,2.5 0 0 1 348.94,330.7969 L348.94,599.5 A2.5,2.5 0 0 1 346.44,602 L154.37,602 A2.5,2.5 0 0 1 151.87,599.5 L151.87,308.5 A2.5,2.5 0 0 1 154.37,306" fill="none" style="stroke:#000000;stroke-width:1.5;"/><line style="stroke:#000000;stroke-width:1.5;" x1="151.87" x2="314.1122" y1="328.2969" y2="328.2969"/><text fill="#000000" font-family="sans-serif" font-size="14" font-weight="bold" lengthAdjust="spacing" textLength="149.2422" x="155.87" y="320.9951">M&#243;dulo Asignatura</text></g><!--cluster M?dulo Alumno--><g class="cluster" data-entity="M.dulo Alumno" data-source-line="19" data-uid="ent0013" id="cluster_M.dulo Alumno"><path d="M159.32,626 L282.9225,626 A3.75,3.75 0 0 1 285.4225,628.5 L292.4225,648.2969 L341.5,648.2969 A2.5,2.5 0 0 1 344,650.7969 L344,978.5 A2.5,2.5 0 0 1 341.5,981 L159.32,981 A2.5,2.5 0 0 1 156.82,978.5 L156.82,628.5 A2.5,2.5 0 0 1 159.32,626" fill="none" style="stroke:#000000;stroke-width:1.5;"/><line style="stroke:#000000;stroke-width:1.5;" x1="156.82" x2="292.4225" y1="648.2969" y2="648.2969"/><text fill="#000000" font-family="sans-serif" font-size="14" font-weight="bold" lengthAdjust="spacing" textLength="122.6025" x="160.82" y="640.9951">M&#243;dulo Alumno</text></g><!--cluster M?dulo Asignaciones--><g class="cluster" data-entity="M.dulo Asignaciones" data-source-line="27" data-uid="ent0019" id="cluster_M.dulo Asignaciones"><path d="M111.13,1005 L278.8722,1005 A3.75,3.75 0 0 1 281.3722,1007.5 L288.3722,1027.2969 L389.68,1027.2969 A2.5,2.5 0 0 1 392.18,1029.7969 L392.18,1280.5 A2.5,2.5 0 0 1 389.68,1283 L111.13,1283 A2.5,2.5 0 0 1 108.63,1280.5 L108.63,1007.5 A2.5,2.5 0 0 1 111.13,1005" fill="none" style="stroke:#000000;stroke-width:1.5;"/><line style="stroke:#000000;stroke-width:1.5;" x1="108.63" x2="288.3722" y1="1027.2969" y2="1027.2969"/><text fill="#000000" font-family="sans-serif" font-size="14" font-weight="bold" lengthAdjust="spacing" textLength="166.7422" x="112.63" y="1019.9951">M&#243;dulo Asignaciones</text></g><!--cluster M?dulo Gesti?n de Preguntas--><g class="cluster" data-entity="M.dulo Gesti.n de Preguntas" data-source-line="33" data-uid="ent0023" id="cluster_M.dulo Gesti.n de Preguntas"><path d="M128.42,1307 L362.9971,1307 A3.75,3.75 0 0 1 365.4971,1309.5 L372.4971,1329.2969 L372.39,1329.2969 A2.5,2.5 0 0 1 374.89,1331.7969 L374.89,1805.5 A2.5,2.5 0 0 1 372.39,1808 L128.42,1808 A2.5,2.5 0 0 1 125.92,1805.5 L125.92,1309.5 A2.5,2.5 0 0 1 128.42,1307" fill="none" style="stroke:#000000;stroke-width:1.5;"/><line style="stroke:#000000;stroke-width:1.5;" x1="125.92" x2="372.4971" y1="1329.2969" y2="1329.2969"/><text fill="#000000" font-family="sans-serif" font-size="14" font-weight="bold" lengthAdjust="spacing" textLength="233.5771" x="129.92" y="1321.9951">M&#243;dulo Gesti&#243;n de Preguntas</text></g><!--cluster M?dulo Configuraci?n General--><g class="cluster" data-entity="M.dulo Configuraci.n General" data-source-line="43" data-uid="ent0031" id="cluster_M.dulo Configuraci.n General"><path d="M122.46,1832 L362.5332,1832 A3.75,3.75 0 0 1 365.0332,1834.5 L372.0332,1854.2969 L378.36,1854.2969 A2.5,2.5 0 0 1 380.86,1856.7969 L380.86,2016.5 A2.5,2.5 0 0 1 378.36,2019 L122.46,2019 A2.5,2.5 0 0 1 119.96,2016.5 L119.96,1834.5 A2.5,2.5 0 0 1 122.46,1832" fill="none" style="stroke:#000000;stroke-width:1.5;"/><line style="stroke:#000000;stroke-width:1.5;" x1="119.96" x2="372.0332" y1="1854.2969" y2="1854.2969"/><text fill="#000000" font-family="sans-serif" font-size="14" font-weight="bold" lengthAdjust="spacing" textLength="239.0732" x="123.96" y="1846.9951">M&#243;dulo Configuraci&#243;n General</text></g><!--cluster M?dulo Examen--><g class="cluster" data-entity="M.dulo Examen" data-source-line="48" data-uid="ent0034" id="cluster_M.dulo Examen"><path d="M157.27,2043 L283.1899,2043 A3.75,3.75 0 0 1 285.6899,2045.5 L292.6899,2065.2969 L343.54,2065.2969 A2.5,2.5 0 0 1 346.04,2067.7969 L346.04,2196.5 A2.5,2.5 0 0 1 343.54,2199 L157.27,2199 A2.5,2.5 0 0 1 154.77,2196.5 L154.77,2045.5 A2.5,2.5 0 0 1 157.27,2043" fill="none" style="stroke:#000000;stroke-width:1.5;"/><line style="stroke:#000000;stroke-width:1.5;" x1="154.77" x2="292.6899" y1="2065.2969" y2="2065.2969"/><text fill="#000000" font-family="sans-serif" font-size="14" font-weight="bold" lengthAdjust="spacing" textLength="124.9199" x="158.77" y="2057.9951">M&#243;dulo Examen</text></g><!--cluster M?dulo Correcci?n--><g class="cluster" data-entity="M.dulo Correcci.n" data-source-line="54" data-uid="ent0037" id="cluster_M.dulo Correcci.n"><path d="M155.51,2223 L303.5168,2223 A3.75,3.75 0 0 1 306.0168,2225.5 L313.0168,2245.2969 L345.3,2245.2969 A2.5,2.5 0 0 1 347.8,2247.7969 L347.8,2309.5 A2.5,2.5 0 0 1 345.3,2312 L155.51,2312 A2.5,2.5 0 0 1 153.01,2309.5 L153.01,2225.5 A2.5,2.5 0 0 1 155.51,2223" fill="none" style="stroke:#000000;stroke-width:1.5;"/><line style="stroke:#000000;stroke-width:1.5;" x1="153.01" x2="313.0168" y1="2245.2969" y2="2245.2969"/><text fill="#000000" font-family="sans-serif" font-size="14" font-weight="bold" lengthAdjust="spacing" textLength="147.0068" x="157.01" y="2237.9951">M&#243;dulo Correcci&#243;n</text></g><!--cluster M?dulo Sesi?n--><g class="cluster" data-entity="M.dulo Sesi.n" data-source-line="58" data-uid="ent0039" id="cluster_M.dulo Sesi.n"><path d="M172,2336 L288.124,2336 A3.75,3.75 0 0 1 290.624,2338.5 L297.624,2358.2969 L328.81,2358.2969 A2.5,2.5 0 0 1 331.31,2360.7969 L331.31,2480.5 A2.5,2.5 0 0 1 328.81,2483 L172,2483 A2.5,2.5 0 0 1 169.5,2480.5 L169.5,2338.5 A2.5,2.5 0 0 1 172,2336" fill="none" style="stroke:#000000;stroke-width:1.5;"/><line style="stroke:#000000;stroke-width:1.5;" x1="169.5" x2="297.624" y1="2358.2969" y2="2358.2969"/><text fill="#000000" font-family="sans-serif" font-size="14" font-weight="bold" lengthAdjust="spacing" textLength="115.124" x="173.5" y="2350.9951">M&#243;dulo Sesi&#243;n</text></g><!--entity UC1--><g class="entity" data-entity="UC1" data-source-line="6" data-uid="ent0004" id="entity_UC1"><ellipse cx="250.4122" cy="251.0044" fill="#F1F1F1" rx="61.3722" ry="14.6744" style="stroke:#181818;stroke-width:0.5;"/><text fill="#000000" font-family="sans-serif" font-size="14" lengthAdjust="spacing" textLength="83.6035" x="208.6104" y="255.6529">Crear grado</text></g><!--entity UC2--><g class="entity" data-entity="UC2" data-source-line="7" data-uid="ent0005" id="entity_UC2"><ellipse cx="250.4077" cy="187.0036" fill="#F1F1F1" rx="56.9977" ry="14.5236" style="stroke:#181818;stroke-width:0.5;"/><text fill="#000000" font-family="sans-serif" font-size="14" lengthAdjust="spacing" textLength="76.3643" x="212.2256" y="191.6521">Ver grados</text></g><!--entity UC3--><g class="entity" data-entity="UC3" data-source-line="8" data-uid="ent0006" id="entity_UC3"><ellipse cx="250.4135" cy="122.9987" fill="#F1F1F1" rx="62.4435" ry="14.8887" style="stroke:#181818;stroke-width:0.5;"/><text fill="#000000" font-family="sans-serif" font-size="14" lengthAdjust="spacing" textLength="86.5703" x="207.1284" y="127.6471">Editar grado</text></g><!--entity UC4--><g class="entity" data-entity="UC4" data-source-line="9" data-uid="ent0007" id="entity_UC4"><ellipse cx="250.4052" cy="57.003" fill="#F1F1F1" rx="68.4652" ry="16.093" style="stroke:#181818;stroke-width:0.5;"/><text fill="#000000" font-family="sans-serif" font-size="14" lengthAdjust="spacing" textLength="102.4844" x="199.163" y="61.6515">Eliminar grado</text></g><!--entity UC5--><g class="entity" data-entity="UC5" data-source-line="13" data-uid="ent0009" id="entity_UC5"><ellipse cx="250.4086" cy="568.9977" fill="#F1F1F1" rx="74.5886" ry="17.3177" style="stroke:#181818;stroke-width:0.5;"/><text fill="#000000" font-family="sans-serif" font-size="14" lengthAdjust="spacing" textLength="117.7285" x="191.5443" y="573.6462">Crear asignatura</text></g><!--entity UC6--><g class="entity" data-entity="UC6" data-source-line="14" data-uid="ent0010" id="entity_UC6"><ellipse cx="250.4132" cy="499.9986" fill="#F1F1F1" rx="71.6432" ry="16.7286" style="stroke:#181818;stroke-width:0.5;"/><text fill="#000000" font-family="sans-serif" font-size="14" lengthAdjust="spacing" textLength="110.4893" x="195.1686" y="504.6471">Ver asignaturas</text></g><!--entity UC7--><g class="entity" data-entity="UC7" data-source-line="15" data-uid="ent0011" id="entity_UC7"><ellipse cx="250.4132" cy="431.0026" fill="#F1F1F1" rx="75.8132" ry="17.5626" style="stroke:#181818;stroke-width:0.5;"/><text fill="#000000" font-family="sans-serif" font-size="14" lengthAdjust="spacing" textLength="120.6953" x="190.0656" y="435.6511">Editar asignatura</text></g><!--entity UC8--><g class="entity" data-entity="UC8" data-source-line="16" data-uid="ent0012" id="entity_UC8"><ellipse cx="250.4127" cy="359.9965" fill="#F1F1F1" rx="82.5327" ry="18.9065" style="stroke:#181818;stroke-width:0.5;"/><text fill="#000000" font-family="sans-serif" font-size="14" lengthAdjust="spacing" textLength="136.6094" x="182.108" y="364.645">Eliminar asignatura</text></g><!--entity UC9--><g class="entity" data-entity="UC9" data-source-line="20" data-uid="ent0014" id="entity_UC9"><ellipse cx="250.4114" cy="949.0023" fill="#F1F1F1" rx="65.7114" ry="15.5423" style="stroke:#181818;stroke-width:0.5;"/><text fill="#000000" font-family="sans-serif" font-size="14" lengthAdjust="spacing" textLength="95.3477" x="202.7376" y="953.6507">Crear alumno</text></g><!--entity UC10--><g class="entity" data-entity="UC10" data-source-line="21" data-uid="ent0015" id="entity_UC10"><ellipse cx="250.4058" cy="883.0012" fill="#F1F1F1" rx="63.0058" ry="15.0012" style="stroke:#181818;stroke-width:0.5;"/><text fill="#000000" font-family="sans-serif" font-size="14" lengthAdjust="spacing" textLength="88.1084" x="206.3516" y="887.6496">Ver alumnos</text></g><!--entity UC11--><g class="entity" data-entity="UC11" data-source-line="22" data-uid="ent0016" id="entity_UC11"><ellipse cx="250.4064" cy="816.9993" fill="#F1F1F1" rx="66.8464" ry="15.7693" style="stroke:#181818;stroke-width:0.5;"/><text fill="#000000" font-family="sans-serif" font-size="14" lengthAdjust="spacing" textLength="98.3145" x="201.2491" y="821.6477">Editar alumno</text></g><!--entity UC12--><g class="entity" data-entity="UC12" data-source-line="23" data-uid="ent0017" id="entity_UC12"><ellipse cx="250.4067" cy="749.0013" fill="#F1F1F1" rx="73.1567" ry="17.0313" style="stroke:#181818;stroke-width:0.5;"/><text fill="#000000" font-family="sans-serif" font-size="14" lengthAdjust="spacing" textLength="114.2285" x="193.2925" y="753.6498">Eliminar alumno</text></g><!--entity UC19--><g class="entity" data-entity="UC19" data-source-line="24" data-uid="ent0018" id="entity_UC19"><ellipse cx="250.4104" cy="678.9981" fill="#F1F1F1" rx="77.5904" ry="17.9181" style="stroke:#181818;stroke-width:0.5;"/><text fill="#000000" font-family="sans-serif" font-size="14" lengthAdjust="spacing" textLength="124.9609" x="187.93" y="683.6465">Importar alumnos</text></g><!--entity UC13--><g class="entity" data-entity="UC13" data-source-line="28" data-uid="ent0020" id="entity_UC13"><ellipse cx="250.4095" cy="1242.9959" fill="#F1F1F1" rx="109.8295" ry="24.3659" style="stroke:#181818;stroke-width:0.5;"/><text fill="#000000" font-family="sans-serif" font-size="14" lengthAdjust="spacing" textLength="197.5107" x="151.6542" y="1247.6443">Actualizar grado del alumno</text></g><!--entity UC15--><g class="entity" data-entity="UC15" data-source-line="29" data-uid="ent0021" id="entity_UC15"><ellipse cx="250.4119" cy="1157.0004" fill="#F1F1F1" rx="120.2519" ry="26.4504" style="stroke:#181818;stroke-width:0.5;"/><text fill="#000000" font-family="sans-serif" font-size="14" lengthAdjust="spacing" textLength="219.8916" x="140.4661" y="1161.6488">Actualizar asignatura del grado</text></g><!--entity UC17--><g class="entity" data-entity="UC17" data-source-line="30" data-uid="ent0022" id="entity_UC17"><ellipse cx="250.405" cy="1067.995" fill="#F1F1F1" rx="125.775" ry="27.555" style="stroke:#181818;stroke-width:0.5;"/><text fill="#000000" font-family="sans-serif" font-size="14" lengthAdjust="spacing" textLength="231.6357" x="134.5871" y="1072.6434">Actualizar asignatura del alumno</text></g><!--entity UC20--><g class="entity" data-entity="UC20" data-source-line="34" data-uid="ent0024" id="entity_UC20"><ellipse cx="250.4121" cy="1776.0004" fill="#F1F1F1" rx="70.2021" ry="16.4404" style="stroke:#181818;stroke-width:0.5;"/><text fill="#000000" font-family="sans-serif" font-size="14" lengthAdjust="spacing" textLength="106.8867" x="196.9687" y="1780.6489">Crear pregunta</text></g><!--entity UC21--><g class="entity" data-entity="UC21" data-source-line="35" data-uid="ent0025" id="entity_UC21"><ellipse cx="250.4109" cy="1709.0022" fill="#F1F1F1" rx="67.3609" ry="15.8722" style="stroke:#181818;stroke-width:0.5;"/><text fill="#000000" font-family="sans-serif" font-size="14" lengthAdjust="spacing" textLength="99.6475" x="200.5872" y="1713.6506">Ver preguntas</text></g><!--entity UC30--><g class="entity" data-entity="UC30" data-source-line="36" data-uid="ent0026" id="entity_UC30"><ellipse cx="250.411" cy="1642.9962" fill="#F1F1F1" rx="64.581" ry="15.3162" style="stroke:#181818;stroke-width:0.5;"/><text fill="#000000" font-family="sans-serif" font-size="14" lengthAdjust="spacing" textLength="92.3535" x="204.2342" y="1647.6446">Ver pregunta</text></g><!--entity UC22--><g class="entity" data-entity="UC22" data-source-line="37" data-uid="ent0027" id="entity_UC22"><ellipse cx="250.4077" cy="1575.9975" fill="#F1F1F1" rx="71.3877" ry="16.6775" style="stroke:#181818;stroke-width:0.5;"/><text fill="#000000" font-family="sans-serif" font-size="14" lengthAdjust="spacing" textLength="109.8535" x="195.4809" y="1580.646">Editar pregunta</text></g><!--entity UC23--><g class="entity" data-entity="UC23" data-source-line="38" data-uid="ent0028" id="entity_UC23"><ellipse cx="250.4086" cy="1505.9957" fill="#F1F1F1" rx="77.9286" ry="17.9857" style="stroke:#181818;stroke-width:0.5;"/><text fill="#000000" font-family="sans-serif" font-size="14" lengthAdjust="spacing" textLength="125.7676" x="187.5248" y="1510.6442">Eliminar pregunta</text></g><!--entity UC24--><g class="entity" data-entity="UC24" data-source-line="39" data-uid="ent0029" id="entity_UC24"><ellipse cx="250.4058" cy="1433.9972" fill="#F1F1F1" rx="82.4858" ry="18.8972" style="stroke:#181818;stroke-width:0.5;"/><text fill="#000000" font-family="sans-serif" font-size="14" lengthAdjust="spacing" textLength="136.5" x="182.1558" y="1438.6456">Importar preguntas</text></g><!--entity UC25--><g class="entity" data-entity="UC25" data-source-line="40" data-uid="ent0030" id="entity_UC25"><ellipse cx="250.413" cy="1361.0026" fill="#F1F1F1" rx="82.213" ry="18.8426" style="stroke:#181818;stroke-width:0.5;"/><text fill="#000000" font-family="sans-serif" font-size="14" lengthAdjust="spacing" textLength="135.8643" x="182.4809" y="1365.651">Exportar preguntas</text></g><!--entity UC26--><g class="entity" data-entity="UC26" data-source-line="44" data-uid="ent0032" id="entity_UC26"><ellipse cx="250.4135" cy="1978.0007" fill="#F1F1F1" rx="114.1535" ry="25.2307" style="stroke:#181818;stroke-width:0.5;"/><text fill="#000000" font-family="sans-serif" font-size="14" lengthAdjust="spacing" textLength="206.835" x="146.996" y="1982.6491">Exportar configuraci&#243;n global</text></g><!--entity UC27--><g class="entity" data-entity="UC27" data-source-line="45" data-uid="ent0033" id="entity_UC27"><ellipse cx="250.4093" cy="1891.9999" fill="#F1F1F1" rx="114.4493" ry="25.2899" style="stroke:#181818;stroke-width:0.5;"/><text fill="#000000" font-family="sans-serif" font-size="14" lengthAdjust="spacing" textLength="207.4707" x="146.674" y="1896.6483">Importar configuraci&#243;n global</text></g><!--entity UC28--><g class="entity" data-entity="UC28" data-source-line="49" data-uid="ent0035" id="entity_UC28"><ellipse cx="250.4101" cy="2166" fill="#F1F1F1" rx="73.6501" ry="17.13" style="stroke:#181818;stroke-width:0.5;"/><text fill="#000000" font-family="sans-serif" font-size="14" lengthAdjust="spacing" textLength="115.4385" x="192.6909" y="2170.6485">Crear examenes</text></g><!--entity UC29--><g class="entity" data-entity="UC29" data-source-line="50" data-uid="ent0036" id="entity_UC29"><ellipse cx="250.4147" cy="2095.9969" fill="#F1F1F1" rx="79.6347" ry="18.3269" style="stroke:#181818;stroke-width:0.5;"/><text fill="#000000" font-family="sans-serif" font-size="14" lengthAdjust="spacing" textLength="129.8145" x="185.5075" y="2100.6454">Asignar examenes</text></g><!--entity UC31--><g class="entity" data-entity="UC31" data-source-line="55" data-uid="ent0038" id="entity_UC31"><ellipse cx="250.4067" cy="2276.9993" fill="#F1F1F1" rx="81.3967" ry="18.6793" style="stroke:#181818;stroke-width:0.5;"/><text fill="#000000" font-family="sans-serif" font-size="14" lengthAdjust="spacing" textLength="133.957" x="183.4282" y="2281.6478">Corregir ex&#225;menes</text></g><!--entity UC41--><g class="entity" data-entity="UC41" data-source-line="59" data-uid="ent0040" id="entity_UC41"><ellipse cx="250.4111" cy="2452.0042" fill="#F1F1F1" rx="64.3711" ry="15.2742" style="stroke:#181818;stroke-width:0.5;"/><text fill="#000000" font-family="sans-serif" font-size="14" lengthAdjust="spacing" textLength="91.793" x="204.5146" y="2456.6527">Iniciar sesi&#243;n</text></g><!--entity UC42--><g class="entity" data-entity="UC42" data-source-line="60" data-uid="ent0041" id="entity_UC42"><ellipse cx="250.4146" cy="2386.0009" fill="#F1F1F1" rx="64.9046" ry="15.3809" style="stroke:#181818;stroke-width:0.5;"/><text fill="#000000" font-family="sans-serif" font-size="14" lengthAdjust="spacing" textLength="93.2148" x="203.8072" y="2390.6494">Cerrar sesi&#243;n</text></g><!--entity doc--><g class="entity" data-entity="doc" data-source-line="3" data-uid="ent0002" id="entity_doc"><ellipse cx="35.3159" cy="1170.35" fill="#F1F1F1" rx="8" ry="8" style="stroke:#181818;stroke-width:0.5;"/><path d="M35.3159,1178.35 L35.3159,1205.35 M22.3159,1186.35 L48.3159,1186.35 M35.3159,1205.35 L22.3159,1220.35 M35.3159,1205.35 L48.3159,1220.35" fill="none" style="stroke:#181818;stroke-width:0.5;"/><text fill="#000000" font-family="sans-serif" font-size="14" lengthAdjust="spacing" textLength="58.6318" x="6" y="1234.8451">Docente</text></g><!--link doc to UC1--><g class="link" data-entity-1="doc" data-entity-2="UC1" data-source-line="63" data-uid="lnk42" id="link_doc_UC1"><path d="M36.92,1161.51 C39.75,1001.66 53.51,395.18 100.63,325 C124.11,290.03 163.4384,272.5544 197.8484,262.5544" fill="none" id="doc-to-UC1" style="stroke:#181818;stroke-width:1;"/><polygon fill="#181818" points="203.61,260.88,193.8513,259.5505,198.8086,262.2753,196.0838,267.2327,203.61,260.88" style="stroke:#181818;stroke-width:1;"/></g><!--link doc to UC2--><g class="link" data-entity-1="doc" data-entity-2="UC2" data-source-line="64" data-uid="lnk43" id="link_doc_UC2"><path d="M36.15,1161.53 C35.77,988.94 38.14,291.39 100.63,219 C123.42,192.6 156.2645,185.1521 188.5545,183.9021" fill="none" id="doc-to-UC2" style="stroke:#181818;stroke-width:1;"/><polygon fill="#181818" points="194.55,183.67,185.402,180.0211,189.5537,183.8634,185.7115,188.0152,194.55,183.67" style="stroke:#181818;stroke-width:1;"/></g><!--link doc to UC3--><g class="link" data-entity-1="doc" data-entity-2="UC3" data-source-line="65" data-uid="lnk44" id="link_doc_UC3"><path d="M35.99,1161.45 C34.81,981.84 33.93,232.57 100.63,155 C122.08,130.06 151.8612,122.176 182.9512,120.276" fill="none" id="doc-to-UC3" style="stroke:#181818;stroke-width:1;"/><polygon fill="#181818" points="188.94,119.91,179.7128,116.4664,183.9493,120.215,180.2008,124.4515,188.94,119.91" style="stroke:#181818;stroke-width:1;"/></g><!--link doc to UC4--><g class="link" data-entity-1="doc" data-entity-2="UC4" data-source-line="66" data-uid="lnk45" id="link_doc_UC4"><path d="M37.26,1161.51 C42.11,970.59 65.33,132.74 100.63,91 C120.39,67.63 146.6422,59.0511 176.0422,55.9911" fill="none" id="doc-to-UC4" style="stroke:#181818;stroke-width:1;"/><polygon fill="#181818" points="182.01,55.37,172.6443,52.3232,177.0369,55.8876,173.4724,60.2802,182.01,55.37" style="stroke:#181818;stroke-width:1;"/></g><!--link doc to UC5--><g class="link" data-entity-1="doc" data-entity-2="UC5" data-source-line="67" data-uid="lnk46" id="link_doc_UC5"><path d="M36.17,1161.58 C36.45,1050.06 42.4,728.86 100.63,645 C123.38,612.24 158.9143,594.6366 192.2143,583.6066" fill="none" id="doc-to-UC5" style="stroke:#181818;stroke-width:1;"/><polygon fill="#181818" points="197.91,581.72,188.1088,580.7528,193.1636,583.2922,190.6242,588.347,197.91,581.72" style="stroke:#181818;stroke-width:1;"/></g><!--link doc to UC6--><g class="link" data-entity-1="doc" data-entity-2="UC6" data-source-line="68" data-uid="lnk47" id="link_doc_UC6"><path d="M37.44,1161.63 C41.74,1026.96 59.02,581.33 100.63,534 C119.96,512.01 144.3657,503.4093 172.6357,499.8993" fill="none" id="doc-to-UC6" style="stroke:#181818;stroke-width:1;"/><polygon fill="#181818" points="178.59,499.16,169.1657,496.2994,173.6281,499.7761,170.1514,504.2384,178.59,499.16" style="stroke:#181818;stroke-width:1;"/></g><!--link doc to UC7--><g class="link" data-entity-1="doc" data-entity-2="UC7" data-source-line="69" data-uid="lnk48" id="link_doc_UC7"><path d="M37.09,1161.75 C40.31,1018.47 54.79,518.95 100.63,466 C118.87,444.94 141.2371,436.1549 168.2871,432.0749" fill="none" id="doc-to-UC7" style="stroke:#181818;stroke-width:1;"/><polygon fill="#181818" points="174.22,431.18,164.7241,428.567,169.2759,431.9257,165.9172,436.4776,174.22,431.18" style="stroke:#181818;stroke-width:1;"/></g><!--link doc to UC8--><g class="link" data-entity-1="doc" data-entity-2="UC8" data-source-line="70" data-uid="lnk49" id="link_doc_UC8"><path d="M36.79,1161.55 C39,1009.39 50.49,454.74 100.63,396 C117.37,376.39 136.885,367.5975 161.995,362.8375" fill="none" id="doc-to-UC8" style="stroke:#181818;stroke-width:1;"/><polygon fill="#181818" points="167.89,361.72,158.3025,359.4662,162.9775,362.6512,159.7925,367.3263,167.89,361.72" style="stroke:#181818;stroke-width:1;"/></g><!--link doc to UC9--><g class="link" data-entity-1="doc" data-entity-2="UC9" data-source-line="71" data-uid="lnk50" id="link_doc_UC9"><path d="M41.93,1161.44 C49.35,1122.65 65.82,1063.13 100.63,1024 C128.9,992.23 168.0818,974.1585 201.1518,962.8685" fill="none" id="doc-to-UC9" style="stroke:#181818;stroke-width:1;"/><polygon fill="#181818" points="206.83,960.93,197.0203,960.0523,202.0982,962.5454,199.605,967.6233,206.83,960.93" style="stroke:#181818;stroke-width:1;"/></g><!--link doc to UC10--><g class="link" data-entity-1="doc" data-entity-2="UC10" data-source-line="72" data-uid="lnk51" id="link_doc_UC10"><path d="M39.97,1161.5 C47.36,1092.13 66.33,950.15 100.63,916 C123.13,893.6 151.2575,885.5239 181.1275,882.6539" fill="none" id="doc-to-UC10" style="stroke:#181818;stroke-width:1;"/><polygon fill="#181818" points="187.1,882.08,177.7587,878.9591,182.1229,882.5582,178.5238,886.9224,187.1,882.08" style="stroke:#181818;stroke-width:1;"/></g><!--link doc to UC11--><g class="link" data-entity-1="doc" data-entity-2="UC11" data-source-line="73" data-uid="lnk52" id="link_doc_UC11"><path d="M38.15,1161.64 C42.84,1080.26 58.07,894.14 100.63,850 C121.84,828 148.2339,819.7772 177.3539,816.6672" fill="none" id="doc-to-UC11" style="stroke:#181818;stroke-width:1;"/><polygon fill="#181818" points="183.32,816.03,173.9461,813.0084,178.3483,816.561,174.7957,820.9631,183.32,816.03" style="stroke:#181818;stroke-width:1;"/></g><!--link doc to UC12--><g class="link" data-entity-1="doc" data-entity-2="UC12" data-source-line="74" data-uid="lnk53" id="link_doc_UC12"><path d="M36.95,1161.58 C39.28,1069.26 50.13,838.58 100.63,784 C120,763.06 143.4027,754.4051 170.9227,750.3951" fill="none" id="doc-to-UC12" style="stroke:#181818;stroke-width:1;"/><polygon fill="#181818" points="176.86,749.53,167.3773,746.8695,171.9122,750.2509,168.5308,754.7859,176.86,749.53" style="stroke:#181818;stroke-width:1;"/></g><!--link doc to UC13--><g class="link" data-entity-1="doc" data-entity-2="UC13" data-source-line="75" data-uid="lnk54" id="link_doc_UC13"><path d="M65.05,1205.8 C91.41,1211.12 125.8486,1218.063 162.0686,1225.373" fill="none" id="doc-to-UC13" style="stroke:#181818;stroke-width:1;"/><polygon fill="#181818" points="167.95,1226.56,159.9192,1220.8586,163.0488,1225.5708,158.3365,1228.7004,167.95,1226.56" style="stroke:#181818;stroke-width:1;"/></g><!--link doc to UC15--><g class="link" data-entity-1="doc" data-entity-2="UC15" data-source-line="76" data-uid="lnk55" id="link_doc_UC15"><path d="M65.05,1194.2 C89.59,1189.25 120.3584,1183.036 154.5284,1176.146" fill="none" id="doc-to-UC15" style="stroke:#181818;stroke-width:1;"/><polygon fill="#181818" points="160.41,1174.96,150.7969,1172.8179,155.5086,1175.9483,152.3782,1180.66,160.41,1174.96" style="stroke:#181818;stroke-width:1;"/></g><!--link doc to UC17--><g class="link" data-entity-1="doc" data-entity-2="UC17" data-source-line="77" data-uid="lnk56" id="link_doc_UC17"><path d="M57,1161.66 C67.95,1144.59 82.82,1125.55 100.63,1113 C116.95,1101.5 130.58,1094.7836 149.8,1088.3536" fill="none" id="doc-to-UC17" style="stroke:#181818;stroke-width:1;"/><polygon fill="#181818" points="155.49,1086.45,145.6859,1085.512,150.7483,1088.0363,148.224,1093.0987,155.49,1086.45" style="stroke:#181818;stroke-width:1;"/></g><!--link doc to UC19--><g class="link" data-entity-1="doc" data-entity-2="UC19" data-source-line="78" data-uid="lnk57" id="link_doc_UC19"><path d="M35.99,1161.7 C35.91,1058.77 41.3,779.55 100.63,714 C118.88,693.84 140.448,685.1746 166.848,680.8746" fill="none" id="doc-to-UC19" style="stroke:#181818;stroke-width:1;"/><polygon fill="#181818" points="172.77,679.91,163.244,677.4089,167.835,680.7138,164.5301,685.3048,172.77,679.91" style="stroke:#181818;stroke-width:1;"/></g><!--link doc to UC20--><g class="link" data-entity-1="doc" data-entity-2="UC20" data-source-line="79" data-uid="lnk58" id="link_doc_UC20"><path d="M38.34,1238.39 C44.88,1355.82 66.98,1704.56 100.63,1742 C120.47,1764.07 145.4631,1772.6222 174.0131,1776.0622" fill="none" id="doc-to-UC20" style="stroke:#181818;stroke-width:1;"/><polygon fill="#181818" points="179.97,1776.78,171.5131,1771.7321,175.0059,1776.1819,170.5561,1779.6747,179.97,1776.78" style="stroke:#181818;stroke-width:1;"/></g><!--link doc to UC21--><g class="link" data-entity-1="doc" data-entity-2="UC21" data-source-line="80" data-uid="lnk59" id="link_doc_UC21"><path d="M36.06,1238.29 C36.2,1339.8 42.15,1612.39 100.63,1676 C121.31,1698.5 147.6516,1706.7954 176.8816,1709.8054" fill="none" id="doc-to-UC21" style="stroke:#181818;stroke-width:1;"/><polygon fill="#181818" points="182.85,1710.42,174.3071,1705.5191,177.8763,1709.9078,173.4876,1713.477,182.85,1710.42" style="stroke:#181818;stroke-width:1;"/></g><!--link doc to UC22--><g class="link" data-entity-1="doc" data-entity-2="UC22" data-source-line="81" data-uid="lnk60" id="link_doc_UC22"><path d="M38.42,1238.55 C43.56,1318.39 59.51,1498 100.63,1541 C120.71,1562 144.8884,1570.6052 172.7884,1574.5252" fill="none" id="doc-to-UC22" style="stroke:#181818;stroke-width:1;"/><polygon fill="#181818" points="178.73,1575.36,170.3741,1570.1467,173.7786,1574.6643,169.261,1578.0689,178.73,1575.36" style="stroke:#181818;stroke-width:1;"/></g><!--link doc to UC23--><g class="link" data-entity-1="doc" data-entity-2="UC23" data-source-line="82" data-uid="lnk61" id="link_doc_UC23"><path d="M40.56,1238.64 C48.65,1305.25 68.41,1437.66 100.63,1470 C119.67,1489.11 141.0934,1497.6656 167.1434,1502.3156" fill="none" id="doc-to-UC23" style="stroke:#181818;stroke-width:1;"/><polygon fill="#181818" points="173.05,1503.37,164.8929,1497.8507,168.1278,1502.4914,163.4871,1505.7262,173.05,1503.37" style="stroke:#181818;stroke-width:1;"/></g><!--link doc to UC24--><g class="link" data-entity-1="doc" data-entity-2="UC24" data-source-line="83" data-uid="lnk62" id="link_doc_UC24"><path d="M38.13,1238.44 C42.35,1282.99 56.12,1355.58 100.63,1397 C119.53,1414.59 139.5922,1422.9552 164.5222,1428.0652" fill="none" id="doc-to-UC24" style="stroke:#181818;stroke-width:1;"/><polygon fill="#181818" points="170.4,1429.27,162.3865,1423.5443,165.5018,1428.266,160.7801,1431.3813,170.4,1429.27" style="stroke:#181818;stroke-width:1;"/></g><!--link doc to UC25--><g class="link" data-entity-1="doc" data-entity-2="UC25" data-source-line="84" data-uid="lnk63" id="link_doc_UC25"><path d="M60.82,1238.47 C71.73,1253.61 85.54,1270.36 100.63,1283 C132.72,1309.87 170.0653,1328.7661 201.5353,1342.2561" fill="none" id="doc-to-UC25" style="stroke:#181818;stroke-width:1;"/><polygon fill="#181818" points="207.05,1344.62,200.3539,1337.3976,202.4544,1342.6501,197.202,1344.7506,207.05,1344.62" style="stroke:#181818;stroke-width:1;"/></g><!--link doc to UC26--><g class="link" data-entity-1="doc" data-entity-2="UC26" data-source-line="85" data-uid="lnk64" id="link_doc_UC26"><path d="M37.17,1238.23 C40.69,1381.45 56.08,1880.84 100.63,1935 C112.93,1949.95 124.4329,1957.8626 142.7329,1964.4326" fill="none" id="doc-to-UC26" style="stroke:#181818;stroke-width:1;"/><polygon fill="#181818" points="148.38,1966.46,141.261,1959.6542,143.6741,1964.7705,138.5578,1967.1836,148.38,1966.46" style="stroke:#181818;stroke-width:1;"/></g><!--link doc to UC27--><g class="link" data-entity-1="doc" data-entity-2="UC27" data-source-line="86" data-uid="lnk65" id="link_doc_UC27"><path d="M35.89,1238.53 C35.28,1357.03 38.72,1713.73 100.63,1808 C120.09,1837.63 148.2952,1855.5131 178.7152,1868.7031" fill="none" id="doc-to-UC27" style="stroke:#181818;stroke-width:1;"/><polygon fill="#181818" points="184.22,1871.09,177.554,1863.8398,179.6327,1869.1009,174.3715,1871.1796,184.22,1871.09" style="stroke:#181818;stroke-width:1;"/></g><!--link doc to UC28--><g class="link" data-entity-1="doc" data-entity-2="UC28" data-source-line="87" data-uid="lnk66" id="link_doc_UC28"><path d="M36.32,1238.48 C36.67,1405.61 41.8,2063.2 100.63,2132 C119.23,2153.75 142.6612,2162.4178 170.4212,2166.0678" fill="none" id="doc-to-UC28" style="stroke:#181818;stroke-width:1;"/><polygon fill="#181818" points="176.37,2166.85,167.9683,2161.7109,171.4127,2166.1982,166.9254,2169.6426,176.37,2166.85" style="stroke:#181818;stroke-width:1;"/></g><!--link doc to UC29--><g class="link" data-entity-1="doc" data-entity-2="UC29" data-source-line="88" data-uid="lnk67" id="link_doc_UC29"><path d="M37.16,1238.58 C40.82,1391.95 57.12,1953.41 100.63,2019 C122.26,2051.6 156.5509,2069.254 189.6109,2080.524" fill="none" id="doc-to-UC29" style="stroke:#181818;stroke-width:1;"/><polygon fill="#181818" points="195.29,2082.46,188.062,2075.77,190.5574,2080.8467,185.4807,2083.3421,195.29,2082.46" style="stroke:#181818;stroke-width:1;"/></g><!--link doc to UC30--><g class="link" data-entity-1="doc" data-entity-2="UC30" data-source-line="89" data-uid="lnk68" id="link_doc_UC30"><path d="M37.01,1238.59 C39.46,1330.12 50.57,1556.69 100.63,1610 C122.19,1632.95 149.876,1641.1318 179.736,1643.9218" fill="none" id="doc-to-UC30" style="stroke:#181818;stroke-width:1;"/><polygon fill="#181818" points="185.71,1644.48,177.1212,1639.6601,180.7317,1644.0148,176.3769,1647.6254,185.71,1644.48" style="stroke:#181818;stroke-width:1;"/></g><!--link doc to UC31--><g class="link" data-entity-1="doc" data-entity-2="UC31" data-source-line="90" data-uid="lnk69" id="link_doc_UC31"><path d="M36.59,1238.52 C38.11,1412.16 47.55,2117.29 100.63,2199 C121.92,2231.77 156.0209,2249.6449 189.0809,2261.1049" fill="none" id="doc-to-UC31" style="stroke:#181818;stroke-width:1;"/><polygon fill="#181818" points="194.75,2263.07,187.5565,2256.3429,190.0258,2261.4324,184.9363,2263.9017,194.75,2263.07" style="stroke:#181818;stroke-width:1;"/></g><!--link doc to UC41--><g class="link" data-entity-1="doc" data-entity-2="UC41" data-source-line="91" data-uid="lnk70" id="link_doc_UC41"><path d="M37.05,1238.57 C41.06,1440.97 61.58,2372.88 100.63,2419 C121.4,2443.53 149.9876,2451.7504 180.5776,2454.1004" fill="none" id="doc-to-UC41" style="stroke:#181818;stroke-width:1;"/><polygon fill="#181818" points="186.56,2454.56,177.8928,2449.8824,181.5747,2454.177,177.2801,2457.8589,186.56,2454.56" style="stroke:#181818;stroke-width:1;"/></g><!--link doc to UC42--><g class="link" data-entity-1="doc" data-entity-2="UC42" data-source-line="92" data-uid="lnk71" id="link_doc_UC42"><path d="M36.28,1238.48 C36.4,1423.98 40.44,2220.82 100.63,2312 C123.36,2346.43 161.3666,2363.7775 195.5666,2373.8975" fill="none" id="doc-to-UC42" style="stroke:#181818;stroke-width:1;"/><polygon fill="#181818" points="201.32,2375.6,193.8249,2369.2107,196.5255,2374.1813,191.5549,2376.8819,201.32,2375.6" style="stroke:#181818;stroke-width:1;"/></g><!--SRC=[ZLHBRjim4Dth58Jt0KpAtqs1m0sCB0e4A9ezIqrKeZ9fa1GGDEXXUeOSmHSB9LlMa1e7tOtmtinxyn4RU0aiMEPq_IkmIZjGGLjJ5585wzZigrLW0ioOzAoogYYEKlsMDR3PjzDxrJQMxPsix8oz5Oor7fJq4Tiva8xLPoHc_jXn33_31VGNL63qeT8XoouJlD47RJB6elXBUBltkZOoj4wI1YM2-ohBtEN86Aok2AkJEclIxuIseKqtxS7G4vKNgC_UJipsw62Kpocdk03djCs4qwrc93qUZjQDXQvQsq_6h-8zWS_wkLUXbOt-CwoHLT1aokKD_ZZ6FYcvikN_vQH2QzBy7dpGftSJ4zYJWxerGNfoAySBEXppF5_CSKm_C_Wjnd3lrEvo6K5kBsSbKxokR-9eaHHxlKLRagFQMVEYwpXSrGzi3mQSRB9PNOkgb5qtzcT7FWkiIBkVfj3hUtYL1p3alg27uDhK9ZcQ_bAcfFYttUZTnJUpzvMBTKYjkrAdVxXMoSbAty4JLHwDLZhwyGDwVkwI2zg1SrEAw5JYcytkxhxqB_0O2nINA5wWU8dY5OhNADwWU8krvlW3AtCipR4snu8Sgt1SMk3I8caAbnQujC1z2QmZS6S2YmhScy0EIkoWn0uMoOVu0000]--></g></svg>