<svg xmlns="http://www.w3.org/2000/svg" xmlns:xlink="http://www.w3.org/1999/xlink" contentStyleType="text/css" data-diagram-type="DESCRIPTION" height="782px" preserveAspectRatio="none" style="width:547px;height:782px;background:#FFFFFF;" version="1.1" viewBox="0 0 547 782" width="547px" zoomAndPan="magnify"><defs/><g><!--cluster M?dulo Usuarios Docentes--><g class="cluster" data-entity="M.dulo Usuarios Docentes" data-source-line="5" data-uid="ent0003" id="cluster_M.dulo Usuarios Docentes"><path d="M279.56,6 L490.5532,6 A3.75,3.75 0 0 1 493.0532,8.5 L500.0532,28.2969 L498.76,28.2969 A2.5,2.5 0 0 1 501.26,30.7969 L501.26,291.5 A2.5,2.5 0 0 1 498.76,294 L279.56,294 A2.5,2.5 0 0 1 277.06,291.5 L277.06,8.5 A2.5,2.5 0 0 1 279.56,6" fill="none" style="stroke:#000000;stroke-width:1.5;"/><line style="stroke:#000000;stroke-width:1.5;" x1="277.06" x2="500.0532" y1="28.2969" y2="28.2969"/><text fill="#000000" font-family="sans-serif" font-size="14" font-weight="bold" lengthAdjust="spacing" textLength="209.9932" x="281.06" y="20.9951">M&#243;dulo Usuarios Docentes</text></g><!--cluster M?dulo Gesti?n Licencias(intencion)--><g class="cluster" data-entity="M.dulo Gesti.n Licencias.intencion." data-source-line="12" data-uid="ent0008" id="cluster_M.dulo Gesti.n Licencias.intencion."><path d="M240.71,318 L528.5664,318 A3.75,3.75 0 0 1 531.0664,320.5 L538.0664,340.2969 L537.61,340.2969 A2.5,2.5 0 0 1 540.11,342.7969 L540.11,601.5 A2.5,2.5 0 0 1 537.61,604 L240.71,604 A2.5,2.5 0 0 1 238.21,601.5 L238.21,320.5 A2.5,2.5 0 0 1 240.71,318" fill="none" style="stroke:#000000;stroke-width:1.5;"/><line style="stroke:#000000;stroke-width:1.5;" x1="238.21" x2="538.0664" y1="340.2969" y2="340.2969"/><text fill="#000000" font-family="sans-serif" font-size="14" font-weight="bold" lengthAdjust="spacing" textLength="286.8564" x="242.21" y="332.9951">M&#243;dulo Gesti&#243;n Licencias(intencion)</text></g><!--cluster M?dulo Sesi?n--><g class="cluster" data-entity="M.dulo Sesi.n" data-source-line="19" data-uid="ent0013" id="cluster_M.dulo Sesi.n"><path d="M310.25,628 L426.374,628 A3.75,3.75 0 0 1 428.874,630.5 L435.874,650.2969 L467.06,650.2969 A2.5,2.5 0 0 1 469.56,652.7969 L469.56,772.5 A2.5,2.5 0 0 1 467.06,775 L310.25,775 A2.5,2.5 0 0 1 307.75,772.5 L307.75,630.5 A2.5,2.5 0 0 1 310.25,628" fill="none" style="stroke:#000000;stroke-width:1.5;"/><line style="stroke:#000000;stroke-width:1.5;" x1="307.75" x2="435.874" y1="650.2969" y2="650.2969"/><text fill="#000000" font-family="sans-serif" font-size="14" font-weight="bold" lengthAdjust="spacing" textLength="115.124" x="311.75" y="642.9951">M&#243;dulo Sesi&#243;n</text></g><!--entity UC32--><g class="entity" data-entity="UC32" data-source-line="6" data-uid="ent0004" id="entity_UC32"><ellipse cx="388.6607" cy="262.0001" fill="#F1F1F1" rx="68.0007" ry="16.0001" style="stroke:#181818;stroke-width:0.5;"/><text fill="#000000" font-family="sans-serif" font-size="14" lengthAdjust="spacing" textLength="101.2949" x="338.0132" y="266.6486">Crear profesor</text></g><!--entity UC33--><g class="entity" data-entity="UC33" data-source-line="7" data-uid="ent0005" id="entity_UC33"><ellipse cx="388.6574" cy="194.9975" fill="#F1F1F1" rx="68.5374" ry="16.1075" style="stroke:#181818;stroke-width:0.5;"/><text fill="#000000" font-family="sans-serif" font-size="14" lengthAdjust="spacing" textLength="102.6689" x="337.323" y="199.6459">Ver profesores</text></g><!--entity UC34--><g class="entity" data-entity="UC34" data-source-line="8" data-uid="ent0006" id="entity_UC34"><ellipse cx="388.6631" cy="128.0026" fill="#F1F1F1" rx="69.1631" ry="16.2326" style="stroke:#181818;stroke-width:0.5;"/><text fill="#000000" font-family="sans-serif" font-size="14" lengthAdjust="spacing" textLength="104.2617" x="336.5322" y="132.6511">Editar profesor</text></g><!--entity UC35--><g class="entity" data-entity="UC35" data-source-line="9" data-uid="ent0007" id="entity_UC35"><ellipse cx="388.6581" cy="58.9996" fill="#F1F1F1" rx="75.5981" ry="17.5196" style="stroke:#181818;stroke-width:0.5;"/><text fill="#000000" font-family="sans-serif" font-size="14" lengthAdjust="spacing" textLength="120.1758" x="328.5702" y="63.6481">Eliminar profesor</text></g><!--entity UC36--><g class="entity" data-entity="UC36" data-source-line="13" data-uid="ent0009" id="entity_UC36"><ellipse cx="388.6556" cy="570.9991" fill="#F1F1F1" rx="72.6956" ry="16.9391" style="stroke:#181818;stroke-width:0.5;"/><text fill="#000000" font-family="sans-serif" font-size="14" lengthAdjust="spacing" textLength="113.0938" x="332.1087" y="575.6476">Adquirir licencia</text></g><!--entity UC37--><g class="entity" data-entity="UC37" data-source-line="14" data-uid="ent0010" id="entity_UC37"><ellipse cx="388.6573" cy="504.0035" fill="#F1F1F1" rx="63.2673" ry="15.0535" style="stroke:#181818;stroke-width:0.5;"/><text fill="#000000" font-family="sans-serif" font-size="14" lengthAdjust="spacing" textLength="88.8193" x="344.2476" y="508.6519">Ver licencias</text></g><!--entity UC38--><g class="entity" data-entity="UC38" data-source-line="15" data-uid="ent0011" id="entity_UC38"><ellipse cx="388.6605" cy="438.0041" fill="#F1F1F1" rx="67.1205" ry="15.8241" style="stroke:#181818;stroke-width:0.5;"/><text fill="#000000" font-family="sans-serif" font-size="14" lengthAdjust="spacing" textLength="99.0254" x="339.1478" y="442.6525">Editar licencia</text></g><!--entity UC39--><g class="entity" data-entity="UC39" data-source-line="16" data-uid="ent0012" id="entity_UC39"><ellipse cx="388.6564" cy="369.9993" fill="#F1F1F1" rx="73.4464" ry="17.0893" style="stroke:#181818;stroke-width:0.5;"/><text fill="#000000" font-family="sans-serif" font-size="14" lengthAdjust="spacing" textLength="114.9395" x="331.1867" y="374.6477">Eliminar licencia</text></g><!--entity UC41--><g class="entity" data-entity="UC41" data-source-line="20" data-uid="ent0014" id="entity_UC41"><ellipse cx="388.6611" cy="744.0042" fill="#F1F1F1" rx="64.3711" ry="15.2742" style="stroke:#181818;stroke-width:0.5;"/><text fill="#000000" font-family="sans-serif" font-size="14" lengthAdjust="spacing" textLength="91.793" x="342.7646" y="748.6527">Iniciar sesi&#243;n</text></g><!--entity UC42--><g class="entity" data-entity="UC42" data-source-line="21" data-uid="ent0015" id="entity_UC42"><ellipse cx="388.6646" cy="678.0009" fill="#F1F1F1" rx="64.9046" ry="15.3809" style="stroke:#181818;stroke-width:0.5;"/><text fill="#000000" font-family="sans-serif" font-size="14" lengthAdjust="spacing" textLength="93.2148" x="342.0572" y="682.6494">Cerrar sesi&#243;n</text></g><!--entity admin--><g class="entity" data-entity="admin" data-source-line="3" data-uid="ent0002" id="entity_admin"><ellipse cx="100.5308" cy="374.35" fill="#F1F1F1" rx="8" ry="8" style="stroke:#181818;stroke-width:0.5;"/><path d="M100.5308,382.35 L100.5308,409.35 M87.5308,390.35 L113.5308,390.35 M100.5308,409.35 L87.5308,424.35 M100.5308,409.35 L113.5308,424.35" fill="none" style="stroke:#181818;stroke-width:0.5;"/><text fill="#000000" font-family="sans-serif" font-size="14" lengthAdjust="spacing" textLength="189.0615" x="6" y="438.8451">Administrador Institucional</text></g><!--link admin to UC32--><g class="link" data-entity-1="admin" data-entity-2="UC32" data-source-line="24" data-uid="lnk16" id="link_admin_UC32"><path d="M174.46,365.46 C192.61,356.02 212.07,346.04 230.21,337 C273.71,315.33 319.1124,293.8863 350.9924,279.0163" fill="none" id="admin-to-UC32" style="stroke:#181818;stroke-width:1;"/><polygon fill="#181818" points="356.43,276.48,346.5828,276.6594,351.8987,278.5936,349.9645,283.9095,356.43,276.48" style="stroke:#181818;stroke-width:1;"/></g><!--link admin to UC33--><g class="link" data-entity-1="admin" data-entity-2="UC33" data-source-line="25" data-uid="lnk17" id="link_admin_UC33"><path d="M119.05,365.56 C139.68,324.8 177.89,261.76 230.21,228 C257.08,210.66 285.464,203.0335 315.214,199.0135" fill="none" id="admin-to-UC33" style="stroke:#181818;stroke-width:1;"/><polygon fill="#181818" points="321.16,198.21,311.7054,195.4512,316.205,198.8795,312.7767,203.3792,321.16,198.21" style="stroke:#181818;stroke-width:1;"/></g><!--link admin to UC34--><g class="link" data-entity-1="admin" data-entity-2="UC34" data-source-line="26" data-uid="lnk18" id="link_admin_UC34"><path d="M110.8,365.67 C126.03,311.27 161.75,212.53 230.21,161 C255.65,141.85 283.7054,133.9571 313.5954,130.2571" fill="none" id="admin-to-UC34" style="stroke:#181818;stroke-width:1;"/><polygon fill="#181818" points="319.55,129.52,310.1268,126.6559,314.5879,130.1342,311.1096,134.5953,319.55,129.52" style="stroke:#181818;stroke-width:1;"/></g><!--link admin to UC35--><g class="link" data-entity-1="admin" data-entity-2="UC35" data-source-line="27" data-uid="lnk19" id="link_admin_UC35"><path d="M106.1,365.43 C116.07,299.3 146.06,164.6 230.21,94 C253.27,74.65 278.7942,66.2557 307.5342,62.0157" fill="none" id="admin-to-UC35" style="stroke:#181818;stroke-width:1;"/><polygon fill="#181818" points="313.47,61.14,303.9826,58.4964,308.5235,61.8697,305.1502,66.4107,313.47,61.14" style="stroke:#181818;stroke-width:1;"/></g><!--link admin to UC36--><g class="link" data-entity-1="admin" data-entity-2="UC36" data-source-line="28" data-uid="lnk20" id="link_admin_UC36"><path d="M128.49,442.4 C151.89,472.78 188.51,513.82 230.21,537 C257.47,552.15 284.926,559.5981 313.926,564.2581" fill="none" id="admin-to-UC36" style="stroke:#181818;stroke-width:1;"/><polygon fill="#181818" points="319.85,565.21,311.5986,559.8328,314.9133,564.4167,310.3294,567.7314,319.85,565.21" style="stroke:#181818;stroke-width:1;"/></g><!--link admin to UC37--><g class="link" data-entity-1="admin" data-entity-2="UC37" data-source-line="29" data-uid="lnk21" id="link_admin_UC37"><path d="M167.09,442.53 C186.87,452.94 208.99,463.41 230.21,471 C263.61,482.94 296.7051,490.1431 327.5451,495.3931" fill="none" id="admin-to-UC37" style="stroke:#181818;stroke-width:1;"/><polygon fill="#181818" points="333.46,496.4,325.2589,490.9464,328.5309,495.5609,323.9164,498.8329,333.46,496.4" style="stroke:#181818;stroke-width:1;"/></g><!--link admin to UC38--><g class="link" data-entity-1="admin" data-entity-2="UC38" data-source-line="30" data-uid="lnk22" id="link_admin_UC38"><path d="M195.22,415.13 C238.9,420.32 283.6219,425.6421 322.0019,430.2021" fill="none" id="admin-to-UC38" style="stroke:#181818;stroke-width:1;"/><polygon fill="#181818" points="327.96,430.91,319.4948,425.8761,322.9949,430.3201,318.5509,433.8202,327.96,430.91" style="stroke:#181818;stroke-width:1;"/></g><!--link admin to UC39--><g class="link" data-entity-1="admin" data-entity-2="UC39" data-source-line="31" data-uid="lnk23" id="link_admin_UC39"><path d="M195.22,392.87 C236.94,387.91 279.0918,382.8968 316.7718,378.4268" fill="none" id="admin-to-UC39" style="stroke:#181818;stroke-width:1;"/><polygon fill="#181818" points="322.73,377.72,313.3215,374.8081,317.7648,378.309,314.2639,382.7524,322.73,377.72" style="stroke:#181818;stroke-width:1;"/></g><!--link admin to UC41--><g class="link" data-entity-1="admin" data-entity-2="UC41" data-source-line="32" data-uid="lnk24" id="link_admin_UC41"><path d="M106.17,442.57 C116.23,508.33 146.32,641.73 230.21,711 C256.16,732.43 286.5985,740.4156 317.8685,743.4756" fill="none" id="admin-to-UC41" style="stroke:#181818;stroke-width:1;"/><polygon fill="#181818" points="323.84,744.06,315.2724,739.2025,318.8638,743.573,314.4932,747.1645,323.84,744.06" style="stroke:#181818;stroke-width:1;"/></g><!--link admin to UC42--><g class="link" data-entity-1="admin" data-entity-2="UC42" data-source-line="33" data-uid="lnk25" id="link_admin_UC42"><path d="M118.19,442.45 C138.92,486.45 178.03,558.3 230.21,604 C264.41,633.95 307.1426,652.3192 341.2226,663.9692" fill="none" id="admin-to-UC42" style="stroke:#181818;stroke-width:1;"/><polygon fill="#181818" points="346.9,665.91,339.6777,659.2139,342.1688,664.2927,337.09,666.7838,346.9,665.91" style="stroke:#181818;stroke-width:1;"/></g><!--SRC=[RP5DJiCm44RtFiKeArXqGPB-RP2gWb0bMA6oj-nf6H7iCkEi4AVg4Nend9H07RnyyflnzsaQt0K87fZshm4iCPf0tYcbJV0CnSg-aoC9h6t4ZPD0eJNHq4q1Ma1txqeTj7dJUuJYwNIqRUDXAwrcyW9ttg0BA0LyAe1Mq6Y9tffHCnpOxr0yzwkswwgyL5xmJ-ZcpqfrgTnR2farTU8q52DchAdwoWH_m5ZnT7JmI36u8IrN5FExhlFrgCJAVhJ4nD3ykCFgsRZ78FpMc6TgZBSiiZN6rZ9RuncbQp4Al74K9nbaUErNr3V9PP3vlr9sl_J7Xidazdoh1AiKwnIdASvIdAUuI76PO0oROFaD]--></g></svg>