<svg xmlns="http://www.w3.org/2000/svg" xmlns:xlink="http://www.w3.org/1999/xlink" contentStyleType="text/css" data-diagram-type="DESCRIPTION" height="897px" preserveAspectRatio="none" style="width:547px;height:897px;background:#FFFFFF;" version="1.1" viewBox="0 0 547 897" width="547px" zoomAndPan="magnify"><defs/><g><!--cluster M?dulo Docentes--><g class="cluster" data-entity="M.dulo Docentes" data-source-line="5" data-uid="ent0003" id="cluster_M.dulo Docentes"><path d="M300,6 L437.3496,6 A3.75,3.75 0 0 1 439.8496,8.5 L446.8496,28.2969 L478,28.2969 A2.5,2.5 0 0 1 480.5,30.7969 L480.5,291.5 A2.5,2.5 0 0 1 478,294 L300,294 A2.5,2.5 0 0 1 297.5,291.5 L297.5,8.5 A2.5,2.5 0 0 1 300,6" fill="none" style="stroke:#000000;stroke-width:1.5;"/><line style="stroke:#000000;stroke-width:1.5;" x1="297.5" x2="446.8496" y1="28.2969" y2="28.2969"/><text fill="#000000" font-family="sans-serif" font-size="14" font-weight="bold" lengthAdjust="spacing" textLength="136.3496" x="301.5" y="20.9951">M&#243;dulo Docentes</text></g><!--cluster M?dulo Gesti?n Licencias(intencion)--><g class="cluster" data-entity="M.dulo Gesti.n Licencias.intencion." data-source-line="12" data-uid="ent0008" id="cluster_M.dulo Gesti.n Licencias.intencion."><path d="M241,318 L528.8564,318 A3.75,3.75 0 0 1 531.3564,320.5 L538.3564,340.2969 L538,340.2969 A2.5,2.5 0 0 1 540.5,342.7969 L540.5,601.5 A2.5,2.5 0 0 1 538,604 L241,604 A2.5,2.5 0 0 1 238.5,601.5 L238.5,320.5 A2.5,2.5 0 0 1 241,318" fill="none" style="stroke:#000000;stroke-width:1.5;"/><line style="stroke:#000000;stroke-width:1.5;" x1="238.5" x2="538.3564" y1="340.2969" y2="340.2969"/><text fill="#000000" font-family="sans-serif" font-size="14" font-weight="bold" lengthAdjust="spacing" textLength="286.8564" x="242.5" y="332.9951">M&#243;dulo Gesti&#243;n Licencias(intencion)</text></g><!--cluster M?dulo Sesi?n--><g class="cluster" data-entity="M.dulo Sesi.n" data-source-line="19" data-uid="ent0013" id="cluster_M.dulo Sesi.n"><path d="M310.5,628 L426.624,628 A3.75,3.75 0 0 1 429.124,630.5 L436.124,650.2969 L467.5,650.2969 A2.5,2.5 0 0 1 470,652.7969 L470,774.5 A2.5,2.5 0 0 1 467.5,777 L310.5,777 A2.5,2.5 0 0 1 308,774.5 L308,630.5 A2.5,2.5 0 0 1 310.5,628" fill="none" style="stroke:#000000;stroke-width:1.5;"/><line style="stroke:#000000;stroke-width:1.5;" x1="308" x2="436.124" y1="650.2969" y2="650.2969"/><text fill="#000000" font-family="sans-serif" font-size="14" font-weight="bold" lengthAdjust="spacing" textLength="115.124" x="312" y="642.9951">M&#243;dulo Sesi&#243;n</text></g><!--cluster M?dulo Gesti?n--><g class="cluster" data-entity="M.dulo Gesti.n" data-source-line="23" data-uid="ent0016" id="cluster_M.dulo Gesti.n"><path d="M295.5,801 L419.7246,801 A3.75,3.75 0 0 1 422.2246,803.5 L429.2246,823.2969 L482.5,823.2969 A2.5,2.5 0 0 1 485,825.7969 L485,887.5 A2.5,2.5 0 0 1 482.5,890 L295.5,890 A2.5,2.5 0 0 1 293,887.5 L293,803.5 A2.5,2.5 0 0 1 295.5,801" fill="none" style="stroke:#000000;stroke-width:1.5;"/><line style="stroke:#000000;stroke-width:1.5;" x1="293" x2="429.2246" y1="823.2969" y2="823.2969"/><text fill="#000000" font-family="sans-serif" font-size="14" font-weight="bold" lengthAdjust="spacing" textLength="123.2246" x="297" y="815.9951">M&#243;dulo Gesti&#243;n</text></g><!--entity UC32--><g class="entity" data-entity="UC32" data-source-line="6" data-uid="ent0004" id="entity_UC32"><ellipse cx="389.1046" cy="57.0209" fill="#F1F1F1" rx="68.1046" ry="16.0209" style="stroke:#181818;stroke-width:0.5;"/><text fill="#000000" font-family="sans-serif" font-size="14" lengthAdjust="spacing" textLength="101.5615" x="338.3239" y="61.6694">Crear Docente</text></g><!--entity UC33--><g class="entity" data-entity="UC33" data-source-line="7" data-uid="ent0005" id="entity_UC33"><ellipse cx="388.8225" cy="123.9645" fill="#F1F1F1" rx="65.3225" ry="15.4645" style="stroke:#181818;stroke-width:0.5;"/><text fill="#000000" font-family="sans-serif" font-size="14" lengthAdjust="spacing" textLength="94.3223" x="341.6614" y="128.6129">Ver Docentes</text></g><!--entity UC34--><g class="entity" data-entity="UC34" data-source-line="8" data-uid="ent0006" id="entity_UC34"><ellipse cx="388.7682" cy="190.7536" fill="#F1F1F1" rx="69.2682" ry="16.2536" style="stroke:#181818;stroke-width:0.5;"/><text fill="#000000" font-family="sans-serif" font-size="14" lengthAdjust="spacing" textLength="104.5283" x="336.504" y="195.4021">Editar Docente</text></g><!--entity UC35--><g class="entity" data-entity="UC35" data-source-line="9" data-uid="ent0007" id="entity_UC35"><ellipse cx="389.2084" cy="260.0417" fill="#F1F1F1" rx="75.7084" ry="17.5417" style="stroke:#181818;stroke-width:0.5;"/><text fill="#000000" font-family="sans-serif" font-size="14" lengthAdjust="spacing" textLength="120.4424" x="328.9873" y="264.6901">Eliminar Docente</text></g><!--entity UC36--><g class="entity" data-entity="UC36" data-source-line="13" data-uid="ent0009" id="entity_UC36"><ellipse cx="389.1956" cy="369.9391" fill="#F1F1F1" rx="72.6956" ry="16.9391" style="stroke:#181818;stroke-width:0.5;"/><text fill="#000000" font-family="sans-serif" font-size="14" lengthAdjust="spacing" textLength="113.0938" x="332.6487" y="374.5876">Adquirir licencia</text></g><!--entity UC37--><g class="entity" data-entity="UC37" data-source-line="14" data-uid="ent0010" id="entity_UC37"><ellipse cx="388.7673" cy="437.0535" fill="#F1F1F1" rx="63.2673" ry="15.0535" style="stroke:#181818;stroke-width:0.5;"/><text fill="#000000" font-family="sans-serif" font-size="14" lengthAdjust="spacing" textLength="88.8193" x="344.3576" y="441.7019">Ver licencias</text></g><!--entity UC38--><g class="entity" data-entity="UC38" data-source-line="15" data-uid="ent0011" id="entity_UC38"><ellipse cx="389.1205" cy="502.8241" fill="#F1F1F1" rx="67.1205" ry="15.8241" style="stroke:#181818;stroke-width:0.5;"/><text fill="#000000" font-family="sans-serif" font-size="14" lengthAdjust="spacing" textLength="99.0254" x="339.6078" y="507.4725">Editar licencia</text></g><!--entity UC39--><g class="entity" data-entity="UC39" data-source-line="16" data-uid="ent0012" id="entity_UC39"><ellipse cx="388.9464" cy="571.0893" fill="#F1F1F1" rx="73.4464" ry="17.0893" style="stroke:#181818;stroke-width:0.5;"/><text fill="#000000" font-family="sans-serif" font-size="14" lengthAdjust="spacing" textLength="114.9395" x="331.4767" y="575.7377">Eliminar licencia</text></g><!--entity UC41--><g class="entity" data-entity="UC41" data-source-line="20" data-uid="ent0014" id="entity_UC41"><ellipse cx="388.8711" cy="678.7742" fill="#F1F1F1" rx="64.3711" ry="15.2742" style="stroke:#181818;stroke-width:0.5;"/><text fill="#000000" font-family="sans-serif" font-size="14" lengthAdjust="spacing" textLength="91.793" x="342.9746" y="683.4227">Iniciar sesi&#243;n</text></g><!--entity UC42--><g class="entity" data-entity="UC42" data-source-line="21" data-uid="ent0015" id="entity_UC42"><ellipse cx="388.9046" cy="744.8809" fill="#F1F1F1" rx="64.9046" ry="15.3809" style="stroke:#181818;stroke-width:0.5;"/><text fill="#000000" font-family="sans-serif" font-size="14" lengthAdjust="spacing" textLength="93.2148" x="342.2972" y="749.5294">Cerrar sesi&#243;n</text></g><!--entity UC13--><g class="entity" data-entity="UC13" data-source-line="24" data-uid="ent0017" id="entity_UC13"><ellipse cx="389.229" cy="854.9458" fill="#F1F1F1" rx="80.229" ry="18.4458" style="stroke:#181818;stroke-width:0.5;"/><text fill="#000000" font-family="sans-serif" font-size="14" lengthAdjust="spacing" textLength="131.2158" x="323.6211" y="859.5942">Completar Gesti&#243;n</text></g><!--entity admin--><g class="entity" data-entity="admin" data-source-line="3" data-uid="ent0002" id="entity_admin"><ellipse cx="100.5308" cy="407.5" fill="#F1F1F1" rx="8" ry="8" style="stroke:#181818;stroke-width:0.5;"/><path d="M100.5308,415.5 L100.5308,442.5 M87.5308,423.5 L113.5308,423.5 M100.5308,442.5 L87.5308,457.5 M100.5308,442.5 L113.5308,457.5" fill="none" style="stroke:#181818;stroke-width:0.5;"/><text fill="#000000" font-family="sans-serif" font-size="14" lengthAdjust="spacing" textLength="189.0615" x="6" y="471.9951">Administrador Institucional</text></g><!--link admin to UC13--><g class="link" data-entity-1="admin" data-entity-2="UC13" data-source-line="28" data-uid="lnk18" id="link_admin_UC13"><path d="M106.69,475.16 C117.8,543.53 149.79,688.04 230.5,777 C259,808.41 297.317,826.7275 331.567,838.7175" fill="none" id="admin-to-UC13" style="stroke:#181818;stroke-width:1;"/><polygon fill="#181818" points="337.23,840.7,330.0571,833.9509,332.5108,839.0479,327.4138,841.5016,337.23,840.7" style="stroke:#181818;stroke-width:1;"/></g><!--link admin to UC32--><g class="link" data-entity-1="admin" data-entity-2="UC32" data-source-line="29" data-uid="lnk19" id="link_admin_UC32"><path d="M104.12,398.88 C111.19,327.1 137.05,171.85 230.5,91 C255.14,69.68 284.0172,61.3875 314.6572,57.9575" fill="none" id="admin-to-UC32" style="stroke:#181818;stroke-width:1;"/><polygon fill="#181818" points="320.62,57.29,311.2309,54.3161,315.651,57.8463,312.1209,62.2664,320.62,57.29" style="stroke:#181818;stroke-width:1;"/></g><!--link admin to UC33--><g class="link" data-entity-1="admin" data-entity-2="UC33" data-source-line="30" data-uid="lnk20" id="link_admin_UC33"><path d="M107.89,398.57 C120.18,337.45 153.06,218.7 230.5,157 C256.5,136.28 286.3928,128.3168 317.3328,125.0668" fill="none" id="admin-to-UC33" style="stroke:#181818;stroke-width:1;"/><polygon fill="#181818" points="323.3,124.44,313.9314,121.4021,318.3274,124.9623,314.7671,129.3583,323.3,124.44" style="stroke:#181818;stroke-width:1;"/></g><!--link admin to UC34--><g class="link" data-entity-1="admin" data-entity-2="UC34" data-source-line="31" data-uid="lnk21" id="link_admin_UC34"><path d="M114.08,398.64 C131.99,350.31 169.59,268.33 230.5,225 C256.48,206.51 284.6144,198.5558 314.4244,194.5158" fill="none" id="admin-to-UC34" style="stroke:#181818;stroke-width:1;"/><polygon fill="#181818" points="320.37,193.71,310.9143,190.9549,315.4153,194.3815,311.9887,198.8824,320.37,193.71" style="stroke:#181818;stroke-width:1;"/></g><!--link admin to UC35--><g class="link" data-entity-1="admin" data-entity-2="UC35" data-source-line="32" data-uid="lnk22" id="link_admin_UC35"><path d="M145.82,398.99 C169.98,379.23 200.92,355.43 230.5,337 C270.16,312.3 313.3819,291.9423 346.0419,277.6723" fill="none" id="admin-to-UC35" style="stroke:#181818;stroke-width:1;"/><polygon fill="#181818" points="351.54,275.27,341.6913,275.208,346.9582,277.2719,344.8944,282.5388,351.54,275.27" style="stroke:#181818;stroke-width:1;"/></g><!--link admin to UC36--><g class="link" data-entity-1="admin" data-entity-2="UC36" data-source-line="33" data-uid="lnk23" id="link_admin_UC36"><path d="M195.11,412.61 C207,409.64 219.02,406.71 230.5,404 C264.81,395.91 297.6288,388.7864 328.0688,382.3764" fill="none" id="admin-to-UC36" style="stroke:#181818;stroke-width:1;"/><polygon fill="#181818" points="333.94,381.14,324.3089,379.0804,329.0473,382.1703,325.9574,386.9087,333.94,381.14" style="stroke:#181818;stroke-width:1;"/></g><!--link admin to UC37--><g class="link" data-entity-1="admin" data-entity-2="UC37" data-source-line="34" data-uid="lnk24" id="link_admin_UC37"><path d="M195.31,437 C237.9,437 281.15,437 319.19,437" fill="none" id="admin-to-UC37" style="stroke:#181818;stroke-width:1;"/><polygon fill="#181818" points="325.19,437,316.19,433,320.19,437,316.19,441,325.19,437" style="stroke:#181818;stroke-width:1;"/></g><!--link admin to UC38--><g class="link" data-entity-1="admin" data-entity-2="UC38" data-source-line="35" data-uid="lnk25" id="link_admin_UC38"><path d="M195.13,460.58 C207.02,463.47 219.04,466.34 230.5,469 C266.33,477.31 301.0392,484.8115 332.0392,491.3515" fill="none" id="admin-to-UC38" style="stroke:#181818;stroke-width:1;"/><polygon fill="#181818" points="337.91,492.59,329.9295,486.8183,333.0177,491.5579,328.2781,494.646,337.91,492.59" style="stroke:#181818;stroke-width:1;"/></g><!--link admin to UC39--><g class="link" data-entity-1="admin" data-entity-2="UC39" data-source-line="36" data-uid="lnk26" id="link_admin_UC39"><path d="M141.44,475.04 C165.5,495.97 197.75,520.72 230.5,536 C259.56,549.56 288.2314,556.9468 317.5714,562.1268" fill="none" id="admin-to-UC39" style="stroke:#181818;stroke-width:1;"/><polygon fill="#181818" points="323.48,563.17,315.3125,557.6662,318.5561,562.3007,313.9216,565.5443,323.48,563.17" style="stroke:#181818;stroke-width:1;"/></g><!--link admin to UC41--><g class="link" data-entity-1="admin" data-entity-2="UC41" data-source-line="37" data-uid="lnk27" id="link_admin_UC41"><path d="M123.5,475.01 C146.38,511.86 185.16,567.43 230.5,604 C266.68,633.19 310.4596,652.294 344.2296,664.544" fill="none" id="admin-to-UC41" style="stroke:#181818;stroke-width:1;"/><polygon fill="#181818" points="349.87,666.59,342.7735,659.7607,345.1697,664.885,340.0454,667.2812,349.87,666.59" style="stroke:#181818;stroke-width:1;"/></g><!--link admin to UC42--><g class="link" data-entity-1="admin" data-entity-2="UC42" data-source-line="38" data-uid="lnk28" id="link_admin_UC42"><path d="M108.21,475.24 C120.87,535.44 154.2,651.63 230.5,712 C256.68,732.72 286.7727,740.6546 317.7827,743.9046" fill="none" id="admin-to-UC42" style="stroke:#181818;stroke-width:1;"/><polygon fill="#181818" points="323.75,744.53,315.216,739.6137,318.7772,744.0088,314.3821,747.5701,323.75,744.53" style="stroke:#181818;stroke-width:1;"/></g><!--SRC=[TP9DJiCm48NtFiKeArXqqIJzso1L1Q5Ai4Amj-oXZ73jCdPMY5Fr2BqOJaeWTiFoURvvdkUnmTS0mG7JxYs09aOLo5aXf0gEeLZhFLdoWQMEScjzeD2eI4XJWFGWsxeG1wdUvGwXU3mTTMCSt3g5Dg0lu5C0D1wLzB6yOPJS5pk3vqrL3eaNv47p6QY6m9scSEbH9uYXEDKbD1DV8wFUOmnrEbfue4WhalwAOfDjKrvdyw_rHqDC3EQ7xQtdUOOU-0sn60cHkon7K-JKQZJ64_esHJRmrbBiPF1zjREefybIaFaIAUCj_xvLlbQtFnXi4_q1dSkq4ksmtI-1oUJcV3IKSVk9pAfrAcUfdAToaSfbAbU9Z4-GoF8R]--></g></svg>