<svg xmlns="http://www.w3.org/2000/svg" xmlns:xlink="http://www.w3.org/1999/xlink" contentStyleType="text/css" data-diagram-type="DESCRIPTION" height="100px" preserveAspectRatio="none" style="width:275px;height:100px;background:#FFFFFF;" version="1.1" viewBox="0 0 275 100" width="275px" zoomAndPan="magnify"><defs/><g><!--cluster M?dulo Sesi?n--><g class="cluster" data-entity="M.dulo Sesi.n" data-source-line="5" data-uid="ent0003" id="cluster_M.dulo Sesi.n"><path d="M104.64,6 L220.764,6 A3.75,3.75 0 0 1 223.264,8.5 L230.264,28.2969 L266.02,28.2969 A2.5,2.5 0 0 1 268.52,30.7969 L268.52,86.5 A2.5,2.5 0 0 1 266.02,89 L104.64,89 A2.5,2.5 0 0 1 102.14,86.5 L102.14,8.5 A2.5,2.5 0 0 1 104.64,6" fill="none" style="stroke:#000000;stroke-width:1.5;"/><line style="stroke:#000000;stroke-width:1.5;" x1="102.14" x2="230.264" y1="28.2969" y2="28.2969"/><text fill="#000000" font-family="sans-serif" font-size="14" font-weight="bold" lengthAdjust="spacing" textLength="115.124" x="106.14" y="20.9951">M&#243;dulo Sesi&#243;n</text></g><!--entity UC40--><g class="entity" data-entity="UC40" data-source-line="6" data-uid="ent0004" id="entity_UC40"><ellipse cx="185.3291" cy="56.9978" fill="#F1F1F1" rx="67.1891" ry="15.8378" style="stroke:#181818;stroke-width:0.5;"/><text fill="#000000" font-family="sans-serif" font-size="14" lengthAdjust="spacing" textLength="99.2031" x="135.7275" y="61.6463">cerrarSesi&#243;n()</text></g><!--entity tiempo--><g class="entity" data-entity="tiempo" data-source-line="3" data-uid="ent0002" id="entity_tiempo"><ellipse cx="32.0723" cy="27.35" fill="#F1F1F1" rx="8" ry="8" style="stroke:#181818;stroke-width:0.5;"/><path d="M32.0723,35.35 L32.0723,62.35 M19.0723,43.35 L45.0723,43.35 M32.0723,62.35 L19.0723,77.35 M32.0723,62.35 L45.0723,77.35" fill="none" style="stroke:#181818;stroke-width:0.5;"/><text fill="#000000" font-family="sans-serif" font-size="14" lengthAdjust="spacing" textLength="52.1445" x="6" y="91.8451">Tiempo</text></g><!--link tiempo to UC40--><g class="link" data-entity-1="tiempo" data-entity-2="UC40" data-source-line="9" data-uid="lnk5" id="link_tiempo_UC40"><path d="M58.39,57 C74.71,57 90.74,57 111.81,57" fill="none" id="tiempo-to-UC40" style="stroke:#181818;stroke-width:1;"/><polygon fill="#181818" points="117.81,57,108.81,53,112.81,57,108.81,61,117.81,57" style="stroke:#181818;stroke-width:1;"/></g><!--SRC=[BOmn3i9030Hxls9rLIWYKL3JK5C13x0S4qw4EF8v5U9LUK8-1ZhIZMQa6VGU28Fd_X7eigj4jf689SoHhbbVaoLmGLGacbYUt2lIULswUJ1SjEHr6HFU1Cn5XSklYhgpRwtPrSNjTDZJX-Y_GjiUg_e2]--></g></svg>