<svg xmlns="http://www.w3.org/2000/svg" xmlns:xlink="http://www.w3.org/1999/xlink" contentStyleType="text/css" data-diagram-type="DESCRIPTION" height="784px" preserveAspectRatio="none" style="width:548px;height:784px;background:#FFFFFF;" version="1.1" viewBox="0 0 548 784" width="548px" zoomAndPan="magnify"><defs/><g><!--cluster M?dulo Docentes--><g class="cluster" data-entity="M.dulo Docentes" data-source-line="5" data-uid="ent0003" id="cluster_M.dulo Docentes"><path d="M300.5,6 L437.8496,6 A3.75,3.75 0 0 1 440.3496,8.5 L447.3496,28.2969 L478.5,28.2969 A2.5,2.5 0 0 1 481,30.7969 L481,291.5 A2.5,2.5 0 0 1 478.5,294 L300.5,294 A2.5,2.5 0 0 1 298,291.5 L298,8.5 A2.5,2.5 0 0 1 300.5,6" fill="none" style="stroke:#000000;stroke-width:1.5;"/><line style="stroke:#000000;stroke-width:1.5;" x1="298" x2="447.3496" y1="28.2969" y2="28.2969"/><text fill="#000000" font-family="sans-serif" font-size="14" font-weight="bold" lengthAdjust="spacing" textLength="136.3496" x="302" y="20.9951">M&#243;dulo Docentes</text></g><!--cluster M?dulo Gesti?n Licencias(intencion)--><g class="cluster" data-entity="M.dulo Gesti.n Licencias.intencion." data-source-line="12" data-uid="ent0008" id="cluster_M.dulo Gesti.n Licencias.intencion."><path d="M241.5,318 L529.3564,318 A3.75,3.75 0 0 1 531.8564,320.5 L538.8564,340.2969 L538.5,340.2969 A2.5,2.5 0 0 1 541,342.7969 L541,601.5 A2.5,2.5 0 0 1 538.5,604 L241.5,604 A2.5,2.5 0 0 1 239,601.5 L239,320.5 A2.5,2.5 0 0 1 241.5,318" fill="none" style="stroke:#000000;stroke-width:1.5;"/><line style="stroke:#000000;stroke-width:1.5;" x1="239" x2="538.8564" y1="340.2969" y2="340.2969"/><text fill="#000000" font-family="sans-serif" font-size="14" font-weight="bold" lengthAdjust="spacing" textLength="286.8564" x="243" y="332.9951">M&#243;dulo Gesti&#243;n Licencias(intencion)</text></g><!--cluster M?dulo Sesi?n--><g class="cluster" data-entity="M.dulo Sesi.n" data-source-line="19" data-uid="ent0013" id="cluster_M.dulo Sesi.n"><path d="M311,628 L427.124,628 A3.75,3.75 0 0 1 429.624,630.5 L436.624,650.2969 L468,650.2969 A2.5,2.5 0 0 1 470.5,652.7969 L470.5,774.5 A2.5,2.5 0 0 1 468,777 L311,777 A2.5,2.5 0 0 1 308.5,774.5 L308.5,630.5 A2.5,2.5 0 0 1 311,628" fill="none" style="stroke:#000000;stroke-width:1.5;"/><line style="stroke:#000000;stroke-width:1.5;" x1="308.5" x2="436.624" y1="650.2969" y2="650.2969"/><text fill="#000000" font-family="sans-serif" font-size="14" font-weight="bold" lengthAdjust="spacing" textLength="115.124" x="312.5" y="642.9951">M&#243;dulo Sesi&#243;n</text></g><!--entity UC32--><g class="entity" data-entity="UC32" data-source-line="6" data-uid="ent0004" id="entity_UC32"><ellipse cx="389.6046" cy="57.0209" fill="#F1F1F1" rx="68.1046" ry="16.0209" style="stroke:#181818;stroke-width:0.5;"/><text fill="#000000" font-family="sans-serif" font-size="14" lengthAdjust="spacing" textLength="101.5615" x="338.8239" y="61.6694">Crear Docente</text></g><!--entity UC33--><g class="entity" data-entity="UC33" data-source-line="7" data-uid="ent0005" id="entity_UC33"><ellipse cx="389.3225" cy="123.9645" fill="#F1F1F1" rx="65.3225" ry="15.4645" style="stroke:#181818;stroke-width:0.5;"/><text fill="#000000" font-family="sans-serif" font-size="14" lengthAdjust="spacing" textLength="94.3223" x="342.1614" y="128.6129">Ver Docentes</text></g><!--entity UC34--><g class="entity" data-entity="UC34" data-source-line="8" data-uid="ent0006" id="entity_UC34"><ellipse cx="389.2682" cy="190.7536" fill="#F1F1F1" rx="69.2682" ry="16.2536" style="stroke:#181818;stroke-width:0.5;"/><text fill="#000000" font-family="sans-serif" font-size="14" lengthAdjust="spacing" textLength="104.5283" x="337.004" y="195.4021">Editar Docente</text></g><!--entity UC35--><g class="entity" data-entity="UC35" data-source-line="9" data-uid="ent0007" id="entity_UC35"><ellipse cx="389.7084" cy="260.0417" fill="#F1F1F1" rx="75.7084" ry="17.5417" style="stroke:#181818;stroke-width:0.5;"/><text fill="#000000" font-family="sans-serif" font-size="14" lengthAdjust="spacing" textLength="120.4424" x="329.4873" y="264.6901">Eliminar Docente</text></g><!--entity UC36--><g class="entity" data-entity="UC36" data-source-line="13" data-uid="ent0009" id="entity_UC36"><ellipse cx="389.6956" cy="369.9391" fill="#F1F1F1" rx="72.6956" ry="16.9391" style="stroke:#181818;stroke-width:0.5;"/><text fill="#000000" font-family="sans-serif" font-size="14" lengthAdjust="spacing" textLength="113.0938" x="333.1487" y="374.5876">Adquirir licencia</text></g><!--entity UC37--><g class="entity" data-entity="UC37" data-source-line="14" data-uid="ent0010" id="entity_UC37"><ellipse cx="389.2673" cy="437.0535" fill="#F1F1F1" rx="63.2673" ry="15.0535" style="stroke:#181818;stroke-width:0.5;"/><text fill="#000000" font-family="sans-serif" font-size="14" lengthAdjust="spacing" textLength="88.8193" x="344.8576" y="441.7019">Ver licencias</text></g><!--entity UC38--><g class="entity" data-entity="UC38" data-source-line="15" data-uid="ent0011" id="entity_UC38"><ellipse cx="389.6205" cy="502.8241" fill="#F1F1F1" rx="67.1205" ry="15.8241" style="stroke:#181818;stroke-width:0.5;"/><text fill="#000000" font-family="sans-serif" font-size="14" lengthAdjust="spacing" textLength="99.0254" x="340.1078" y="507.4725">Editar licencia</text></g><!--entity UC39--><g class="entity" data-entity="UC39" data-source-line="16" data-uid="ent0012" id="entity_UC39"><ellipse cx="389.4464" cy="571.0893" fill="#F1F1F1" rx="73.4464" ry="17.0893" style="stroke:#181818;stroke-width:0.5;"/><text fill="#000000" font-family="sans-serif" font-size="14" lengthAdjust="spacing" textLength="114.9395" x="331.9767" y="575.7377">Eliminar licencia</text></g><!--entity UC41--><g class="entity" data-entity="UC41" data-source-line="20" data-uid="ent0014" id="entity_UC41"><ellipse cx="389.3711" cy="678.7742" fill="#F1F1F1" rx="64.3711" ry="15.2742" style="stroke:#181818;stroke-width:0.5;"/><text fill="#000000" font-family="sans-serif" font-size="14" lengthAdjust="spacing" textLength="91.793" x="343.4746" y="683.4227">Iniciar sesi&#243;n</text></g><!--entity UC42--><g class="entity" data-entity="UC42" data-source-line="21" data-uid="ent0015" id="entity_UC42"><ellipse cx="389.4046" cy="744.8809" fill="#F1F1F1" rx="64.9046" ry="15.3809" style="stroke:#181818;stroke-width:0.5;"/><text fill="#000000" font-family="sans-serif" font-size="14" lengthAdjust="spacing" textLength="93.2148" x="342.7972" y="749.5294">Cerrar sesi&#243;n</text></g><!--entity admin--><g class="entity" data-entity="admin" data-source-line="3" data-uid="ent0002" id="entity_admin"><ellipse cx="100.5308" cy="374.5" fill="#F1F1F1" rx="8" ry="8" style="stroke:#181818;stroke-width:0.5;"/><path d="M100.5308,382.5 L100.5308,409.5 M87.5308,390.5 L113.5308,390.5 M100.5308,409.5 L87.5308,424.5 M100.5308,409.5 L113.5308,424.5" fill="none" style="stroke:#181818;stroke-width:0.5;"/><text fill="#000000" font-family="sans-serif" font-size="14" lengthAdjust="spacing" textLength="189.0615" x="6" y="438.9951">Administrador Institucional</text></g><!--link admin to UC32--><g class="link" data-entity-1="admin" data-entity-2="UC32" data-source-line="24" data-uid="lnk16" id="link_admin_UC32"><path d="M105.9,365.8 C115.67,299.25 145.56,162.32 231,91 C256.02,70.12 284.9194,61.8863 315.4894,58.3663" fill="none" id="admin-to-UC32" style="stroke:#181818;stroke-width:1;"/><polygon fill="#181818" points="321.45,57.68,312.0515,54.7358,316.4828,58.2519,312.9666,62.6833,321.45,57.68" style="stroke:#181818;stroke-width:1;"/></g><!--link admin to UC33--><g class="link" data-entity-1="admin" data-entity-2="UC33" data-source-line="25" data-uid="lnk17" id="link_admin_UC33"><path d="M110.45,365.97 C125.5,310.88 161.28,209.7 231,157 C257.41,137.04 287.157,129.1554 317.897,125.7254" fill="none" id="admin-to-UC33" style="stroke:#181818;stroke-width:1;"/><polygon fill="#181818" points="323.86,125.06,314.4719,122.0827,318.8908,125.6145,315.3591,130.0334,323.86,125.06" style="stroke:#181818;stroke-width:1;"/></g><!--link admin to UC34--><g class="link" data-entity-1="admin" data-entity-2="UC34" data-source-line="26" data-uid="lnk18" id="link_admin_UC34"><path d="M118.68,365.72 C139.3,324.35 177.85,259.71 231,225 C257.7,207.56 285.91,199.7566 315.59,195.5266" fill="none" id="admin-to-UC34" style="stroke:#181818;stroke-width:1;"/><polygon fill="#181818" points="321.53,194.68,312.0557,191.9899,316.58,195.3855,313.1844,199.9098,321.53,194.68" style="stroke:#181818;stroke-width:1;"/></g><!--link admin to UC35--><g class="link" data-entity-1="admin" data-entity-2="UC35" data-source-line="27" data-uid="lnk19" id="link_admin_UC35"><path d="M174.29,365.97 C192.75,356.43 212.57,346.27 231,337 C273.96,315.39 318.4864,293.7279 350.4164,278.3179" fill="none" id="admin-to-UC35" style="stroke:#181818;stroke-width:1;"/><polygon fill="#181818" points="355.82,275.71,345.976,276.0194,351.317,277.8832,349.4532,283.2242,355.82,275.71" style="stroke:#181818;stroke-width:1;"/></g><!--link admin to UC36--><g class="link" data-entity-1="admin" data-entity-2="UC36" data-source-line="28" data-uid="lnk20" id="link_admin_UC36"><path d="M195.08,392.91 C237.44,387.9 280.4816,382.7957 318.5616,378.2857" fill="none" id="admin-to-UC36" style="stroke:#181818;stroke-width:1;"/><polygon fill="#181818" points="324.52,377.58,315.112,374.6663,319.5547,378.1681,316.0529,382.6108,324.52,377.58" style="stroke:#181818;stroke-width:1;"/></g><!--link admin to UC37--><g class="link" data-entity-1="admin" data-entity-2="UC37" data-source-line="29" data-uid="lnk21" id="link_admin_UC37"><path d="M195.08,414.76 C240.23,419.95 286.9392,425.3249 325.9192,429.8049" fill="none" id="admin-to-UC37" style="stroke:#181818;stroke-width:1;"/><polygon fill="#181818" points="331.88,430.49,323.3956,425.4885,326.9127,429.9191,322.4821,433.4362,331.88,430.49" style="stroke:#181818;stroke-width:1;"/></g><!--link admin to UC38--><g class="link" data-entity-1="admin" data-entity-2="UC38" data-source-line="30" data-uid="lnk22" id="link_admin_UC38"><path d="M169.31,442.07 C188.79,451.89 210.36,461.72 231,469 C263.85,480.58 296.0961,487.8703 326.6161,493.4003" fill="none" id="admin-to-UC38" style="stroke:#181818;stroke-width:1;"/><polygon fill="#181818" points="332.52,494.47,324.3774,488.9295,327.6001,493.5786,322.951,496.8013,332.52,494.47" style="stroke:#181818;stroke-width:1;"/></g><!--link admin to UC39--><g class="link" data-entity-1="admin" data-entity-2="UC39" data-source-line="31" data-uid="lnk23" id="link_admin_UC39"><path d="M128.78,442.04 C152.42,472.15 189.32,512.86 231,536 C258.43,551.23 286.082,558.8416 315.182,563.7016" fill="none" id="admin-to-UC39" style="stroke:#181818;stroke-width:1;"/><polygon fill="#181818" points="321.1,564.69,312.8819,559.2621,316.1683,563.8664,311.564,567.1528,321.1,564.69" style="stroke:#181818;stroke-width:1;"/></g><!--link admin to UC41--><g class="link" data-entity-1="admin" data-entity-2="UC41" data-source-line="32" data-uid="lnk24" id="link_admin_UC41"><path d="M118.18,442.01 C139.08,485.93 178.61,558.02 231,604 C265.6,634.36 308.9719,653.142 343.1019,664.992" fill="none" id="admin-to-UC41" style="stroke:#181818;stroke-width:1;"/><polygon fill="#181818" points="348.77,666.96,341.5799,660.2293,344.0466,665.32,338.9559,667.7868,348.77,666.96" style="stroke:#181818;stroke-width:1;"/></g><!--link admin to UC42--><g class="link" data-entity-1="admin" data-entity-2="UC42" data-source-line="33" data-uid="lnk25" id="link_admin_UC42"><path d="M106.13,442.17 C116.22,507.96 146.53,642.34 231,712 C256.86,733.33 287.1194,741.3264 318.2994,744.4264" fill="none" id="admin-to-UC42" style="stroke:#181818;stroke-width:1;"/><polygon fill="#181818" points="324.27,745.02,315.7099,740.1492,319.2945,744.5253,314.9184,748.11,324.27,745.02" style="stroke:#181818;stroke-width:1;"/></g><!--SRC=[RP5DJiCm44RtFiKegxBeWYJzso1LBKALO8LWRzdJCi8uC7PMY5Fr2BqOJafG9idoQPu_pwTnU8mGAs0wlKMmn6WYLLufRMB5a6tj1taAaRLDUF0XKgnDChJBG0VGpLofJstUzGaXUxgSRUqgs5S6VSIGmRS2g0CQ7T9unwYv6xO1BxiYxnkloBt7Lw7e2_UMuZYZ58gZjDLOMgYVYLKVC9Mwd3qyKh8DwJ2ZzCWtBMy6-s_jLqrC3ExFxQANmmwTy5zYDL5YcBAUR36qDfCrdZ4qBGOB7pobbmoXcxOHvQqu2ZAFbRpvfJqlpETtrpi9B2IM4XSIbn9N4jSIDmBJiWBpNm00]--></g></svg>