<svg xmlns="http://www.w3.org/2000/svg" xmlns:xlink="http://www.w3.org/1999/xlink" contentStyleType="text/css" data-diagram-type="DESCRIPTION" height="1434px" preserveAspectRatio="none" style="width:885px;height:1434px;background:#FFFFFF;" version="1.1" viewBox="0 0 885 1434" width="885px" zoomAndPan="magnify"><defs/><g><!--cluster M?dulo Grado--><g class="cluster" data-entity="M.dulo Grado" data-source-line="5" data-uid="ent0003" id="cluster_M.dulo Grado"><path d="M389,772 L500.3115,772 A3.75,3.75 0 0 1 502.8115,774.5 L509.8115,794.2969 L559,794.2969 A2.5,2.5 0 0 1 561.5,796.7969 L561.5,1049.5 A2.5,2.5 0 0 1 559,1052 L389,1052 A2.5,2.5 0 0 1 386.5,1049.5 L386.5,774.5 A2.5,2.5 0 0 1 389,772" fill="none" style="stroke:#000000;stroke-width:1.5;"/><line style="stroke:#000000;stroke-width:1.5;" x1="386.5" x2="509.8115" y1="794.2969" y2="794.2969"/><text fill="#000000" font-family="sans-serif" font-size="14" font-weight="bold" lengthAdjust="spacing" textLength="110.3115" x="390.5" y="786.9951">M&#243;dulo Grado</text></g><!--cluster M?dulo Asignatura--><g class="cluster" data-entity="M.dulo Asignatura" data-source-line="14" data-uid="ent0008" id="cluster_M.dulo Asignatura"><path d="M375,359 L525.2422,359 A3.75,3.75 0 0 1 527.7422,361.5 L534.7422,381.2969 L573,381.2969 A2.5,2.5 0 0 1 575.5,383.7969 L575.5,658.5 A2.5,2.5 0 0 1 573,661 L375,661 A2.5,2.5 0 0 1 372.5,658.5 L372.5,361.5 A2.5,2.5 0 0 1 375,359" fill="none" style="stroke:#000000;stroke-width:1.5;"/><line style="stroke:#000000;stroke-width:1.5;" x1="372.5" x2="534.7422" y1="381.2969" y2="381.2969"/><text fill="#000000" font-family="sans-serif" font-size="14" font-weight="bold" lengthAdjust="spacing" textLength="149.2422" x="376.5" y="373.9951">M&#243;dulo Asignatura</text></g><!--cluster M?dulo Alumno--><g class="cluster" data-entity="M.dulo Alumno" data-source-line="23" data-uid="ent0013" id="cluster_M.dulo Alumno"><path d="M114.5,834 L238.1025,834 A3.75,3.75 0 0 1 240.6025,836.5 L247.6025,856.2969 L293.5,856.2969 A2.5,2.5 0 0 1 296,858.7969 L296,1119.5 A2.5,2.5 0 0 1 293.5,1122 L114.5,1122 A2.5,2.5 0 0 1 112,1119.5 L112,836.5 A2.5,2.5 0 0 1 114.5,834" fill="none" style="stroke:#000000;stroke-width:1.5;"/><line style="stroke:#000000;stroke-width:1.5;" x1="112" x2="247.6025" y1="856.2969" y2="856.2969"/><text fill="#000000" font-family="sans-serif" font-size="14" font-weight="bold" lengthAdjust="spacing" textLength="122.6025" x="116" y="848.9951">M&#243;dulo Alumno</text></g><!--cluster M?dulo Gesti?n de Preguntas--><g class="cluster" data-entity="M.dulo Gesti.n de Preguntas" data-source-line="32" data-uid="ent0018" id="cluster_M.dulo Gesti.n de Preguntas"><path d="M631.5,115 L866.0771,115 A3.75,3.75 0 0 1 868.5771,117.5 L875.5771,137.2969 L875.5,137.2969 A2.5,2.5 0 0 1 878,139.7969 L878,690.5 A2.5,2.5 0 0 1 875.5,693 L631.5,693 A2.5,2.5 0 0 1 629,690.5 L629,117.5 A2.5,2.5 0 0 1 631.5,115" fill="none" style="stroke:#000000;stroke-width:1.5;"/><line style="stroke:#000000;stroke-width:1.5;" x1="629" x2="875.5771" y1="137.2969" y2="137.2969"/><text fill="#000000" font-family="sans-serif" font-size="14" font-weight="bold" lengthAdjust="spacing" textLength="233.5771" x="633" y="129.9951">M&#243;dulo Gesti&#243;n de Preguntas</text></g><!--cluster M?dulo Configuraci?n General--><g class="cluster" data-entity="M.dulo Configuraci.n General" data-source-line="45" data-uid="ent0027" id="cluster_M.dulo Configuraci.n General"><path d="M73.5,620 L313.5732,620 A3.75,3.75 0 0 1 316.0732,622.5 L323.0732,642.2969 L334.5,642.2969 A2.5,2.5 0 0 1 337,644.7969 L337,807.5 A2.5,2.5 0 0 1 334.5,810 L73.5,810 A2.5,2.5 0 0 1 71,807.5 L71,622.5 A2.5,2.5 0 0 1 73.5,620" fill="none" style="stroke:#000000;stroke-width:1.5;"/><line style="stroke:#000000;stroke-width:1.5;" x1="71" x2="323.0732" y1="642.2969" y2="642.2969"/><text fill="#000000" font-family="sans-serif" font-size="14" font-weight="bold" lengthAdjust="spacing" textLength="239.0732" x="75" y="634.9951">M&#243;dulo Configuraci&#243;n General</text></g><!--cluster M?dulo Examen--><g class="cluster" data-entity="M.dulo Examen" data-source-line="50" data-uid="ent0030" id="cluster_M.dulo Examen"><path d="M651,717 L776.9199,717 A3.75,3.75 0 0 1 779.4199,719.5 L786.4199,739.2969 L856,739.2969 A2.5,2.5 0 0 1 858.5,741.7969 L858.5,1024.5 A2.5,2.5 0 0 1 856,1027 L651,1027 A2.5,2.5 0 0 1 648.5,1024.5 L648.5,719.5 A2.5,2.5 0 0 1 651,717" fill="none" style="stroke:#000000;stroke-width:1.5;"/><line style="stroke:#000000;stroke-width:1.5;" x1="648.5" x2="786.4199" y1="739.2969" y2="739.2969"/><text fill="#000000" font-family="sans-serif" font-size="14" font-weight="bold" lengthAdjust="spacing" textLength="124.9199" x="652.5" y="731.9951">M&#243;dulo Examen</text></g><!--cluster M?dulo Correcci?n--><g class="cluster" data-entity="M.dulo Correcci.n" data-source-line="57" data-uid="ent0035" id="cluster_M.dulo Correcci.n"><path d="M656.5,1051 L804.5068,1051 A3.75,3.75 0 0 1 807.0068,1053.5 L814.0068,1073.2969 L850.5,1073.2969 A2.5,2.5 0 0 1 853,1075.7969 L853,1137.5 A2.5,2.5 0 0 1 850.5,1140 L656.5,1140 A2.5,2.5 0 0 1 654,1137.5 L654,1053.5 A2.5,2.5 0 0 1 656.5,1051" fill="none" style="stroke:#000000;stroke-width:1.5;"/><line style="stroke:#000000;stroke-width:1.5;" x1="654" x2="814.0068" y1="1073.2969" y2="1073.2969"/><text fill="#000000" font-family="sans-serif" font-size="14" font-weight="bold" lengthAdjust="spacing" textLength="147.0068" x="658" y="1065.9951">M&#243;dulo Correcci&#243;n</text></g><!--cluster M?dulo Sesi?n--><g class="cluster" data-entity="M.dulo Sesi.n" data-source-line="61" data-uid="ent0037" id="cluster_M.dulo Sesi.n"><path d="M672.5,1164 L788.624,1164 A3.75,3.75 0 0 1 791.124,1166.5 L798.124,1186.2969 L834.5,1186.2969 A2.5,2.5 0 0 1 837,1188.7969 L837,1311.5 A2.5,2.5 0 0 1 834.5,1314 L672.5,1314 A2.5,2.5 0 0 1 670,1311.5 L670,1166.5 A2.5,2.5 0 0 1 672.5,1164" fill="none" style="stroke:#000000;stroke-width:1.5;"/><line style="stroke:#000000;stroke-width:1.5;" x1="670" x2="798.124" y1="1186.2969" y2="1186.2969"/><text fill="#000000" font-family="sans-serif" font-size="14" font-weight="bold" lengthAdjust="spacing" textLength="115.124" x="674" y="1178.9951">M&#243;dulo Sesi&#243;n</text></g><!--cluster M?dulo Gesti?n--><g class="cluster" data-entity="M.dulo Gesti.n" data-source-line="66" data-uid="ent0040" id="cluster_M.dulo Gesti.n"><path d="M658,1338 L782.2246,1338 A3.75,3.75 0 0 1 784.7246,1340.5 L791.7246,1360.2969 L849,1360.2969 A2.5,2.5 0 0 1 851.5,1362.7969 L851.5,1424.5 A2.5,2.5 0 0 1 849,1427 L658,1427 A2.5,2.5 0 0 1 655.5,1424.5 L655.5,1340.5 A2.5,2.5 0 0 1 658,1338" fill="none" style="stroke:#000000;stroke-width:1.5;"/><line style="stroke:#000000;stroke-width:1.5;" x1="655.5" x2="791.7246" y1="1360.2969" y2="1360.2969"/><text fill="#000000" font-family="sans-serif" font-size="14" font-weight="bold" lengthAdjust="spacing" textLength="123.2246" x="659.5" y="1352.9951">M&#243;dulo Gesti&#243;n</text></g><!--cluster MI45--><g class="cluster" data-entity="MI45" data-source-line="70" data-uid="ent0042" id="cluster_MI45"><path d="M92,244 L250.9922,244 A3.75,3.75 0 0 1 253.4922,246.5 L260.4922,266.2969 L316,266.2969 A2.5,2.5 0 0 1 318.5,268.7969 L318.5,585.5 A2.5,2.5 0 0 1 316,588 L92,588 A2.5,2.5 0 0 1 89.5,585.5 L89.5,246.5 A2.5,2.5 0 0 1 92,244" fill="none" style="stroke:#000000;stroke-width:1.5;"/><line style="stroke:#000000;stroke-width:1.5;" x1="89.5" x2="260.4922" y1="266.2969" y2="266.2969"/><text fill="#000000" font-family="sans-serif" font-size="14" font-weight="bold" lengthAdjust="spacing" textLength="157.9922" x="93.5" y="258.9951">M&#243;dulo Importaci&#243;n</text></g><!--cluster ME44--><g class="cluster" data-entity="ME44" data-source-line="76" data-uid="ent0047" id="cluster_ME44"><path d="M98,6 L255.7891,6 A3.75,3.75 0 0 1 258.2891,8.5 L265.2891,28.2969 L585.5,28.2969 A2.5,2.5 0 0 1 588,30.7969 L588,201.5 A2.5,2.5 0 0 1 585.5,204 L98,204 A2.5,2.5 0 0 1 95.5,201.5 L95.5,8.5 A2.5,2.5 0 0 1 98,6" fill="none" style="stroke:#000000;stroke-width:1.5;"/><line style="stroke:#000000;stroke-width:1.5;" x1="95.5" x2="265.2891" y1="28.2969" y2="28.2969"/><text fill="#000000" font-family="sans-serif" font-size="14" font-weight="bold" lengthAdjust="spacing" textLength="156.7891" x="99.5" y="20.9951">M&#243;dulo Exportaci&#243;n</text></g><!--entity UC1--><g class="entity" data-entity="UC1" data-source-line="6" data-uid="ent0004" id="entity_UC1"><ellipse cx="474.1891" cy="822.1378" fill="#F1F1F1" rx="63.6891" ry="15.1378" style="stroke:#181818;stroke-width:0.5;"/><text fill="#000000" font-family="sans-serif" font-size="14" lengthAdjust="spacing" textLength="89.9609" x="429.2086" y="826.7863">crearGrado()</text></g><!--entity UC2--><g class="entity" data-entity="UC2" data-source-line="7" data-uid="ent0005" id="entity_UC2"><ellipse cx="473.8379" cy="887.1676" fill="#F1F1F1" rx="61.3379" ry="14.6676" style="stroke:#181818;stroke-width:0.5;"/><text fill="#000000" font-family="sans-serif" font-size="14" lengthAdjust="spacing" textLength="83.5078" x="432.084" y="891.816">verGrados()</text></g><!--entity UC3--><g class="entity" data-entity="UC3" data-source-line="8" data-uid="ent0006" id="entity_UC3"><ellipse cx="473.9934" cy="951.9987" fill="#F1F1F1" rx="65.4934" ry="15.4987" style="stroke:#181818;stroke-width:0.5;"/><text fill="#000000" font-family="sans-serif" font-size="14" lengthAdjust="spacing" textLength="94.7734" x="426.6067" y="956.6471">editarGrado()</text></g><!--entity UC4--><g class="entity" data-entity="UC4" data-source-line="9" data-uid="ent0007" id="entity_UC4"><ellipse cx="474.223" cy="1019.2446" fill="#F1F1F1" rx="71.723" ry="16.7446" style="stroke:#181818;stroke-width:0.5;"/><text fill="#000000" font-family="sans-serif" font-size="14" lengthAdjust="spacing" textLength="110.6875" x="418.8793" y="1023.893">eliminarGrado()</text></g><!--entity UC5--><g class="entity" data-entity="UC5" data-source-line="15" data-uid="ent0009" id="entity_UC5"><ellipse cx="473.822" cy="411.7644" fill="#F1F1F1" rx="76.822" ry="17.7644" style="stroke:#181818;stroke-width:0.5;"/><text fill="#000000" font-family="sans-serif" font-size="14" lengthAdjust="spacing" textLength="123.1221" x="412.261" y="416.4128">crearAsignatura()</text></g><!--entity UC6--><g class="entity" data-entity="UC6" data-source-line="16" data-uid="ent0010" id="entity_UC6"><ellipse cx="474.1536" cy="482.2307" fill="#F1F1F1" rx="74.1536" ry="17.2307" style="stroke:#181818;stroke-width:0.5;"/><text fill="#000000" font-family="sans-serif" font-size="14" lengthAdjust="spacing" textLength="116.6689" x="415.8191" y="486.8792">verAsignaturas()</text></g><!--entity UC7--><g class="entity" data-entity="UC7" data-source-line="17" data-uid="ent0011" id="entity_UC7"><ellipse cx="473.8402" cy="552.168" fill="#F1F1F1" rx="78.8402" ry="18.168" style="stroke:#181818;stroke-width:0.5;"/><text fill="#000000" font-family="sans-serif" font-size="14" lengthAdjust="spacing" textLength="127.9346" x="409.8729" y="556.8165">editarAsignatura()</text></g><!--entity UC8--><g class="entity" data-entity="UC8" data-source-line="18" data-uid="ent0012" id="entity_UC8"><ellipse cx="474.1622" cy="625.0324" fill="#F1F1F1" rx="85.6622" ry="19.5324" style="stroke:#181818;stroke-width:0.5;"/><text fill="#000000" font-family="sans-serif" font-size="14" lengthAdjust="spacing" textLength="143.8486" x="402.2378" y="629.6809">eliminarAsignatura()</text></g><!--entity UC9--><g class="entity" data-entity="UC9" data-source-line="24" data-uid="ent0014" id="entity_UC9"><ellipse cx="203.7852" cy="1089.957" fill="#F1F1F1" rx="67.7852" ry="15.957" style="stroke:#181818;stroke-width:0.5;"/><text fill="#000000" font-family="sans-serif" font-size="14" lengthAdjust="spacing" textLength="100.7412" x="153.4146" y="1094.6055">crearAlumno()</text></g><!--entity UC10--><g class="entity" data-entity="UC10" data-source-line="25" data-uid="ent0015" id="entity_UC10"><ellipse cx="203.8096" cy="1022.9619" fill="#F1F1F1" rx="65.3096" ry="15.4619" style="stroke:#181818;stroke-width:0.5;"/><text fill="#000000" font-family="sans-serif" font-size="14" lengthAdjust="spacing" textLength="94.2881" x="156.6656" y="1027.6104">verAlumnos()</text></g><!--entity UC11--><g class="entity" data-entity="UC11" data-source-line="26" data-uid="ent0016" id="entity_UC11"><ellipse cx="204.1733" cy="955.8347" fill="#F1F1F1" rx="69.6733" ry="16.3347" style="stroke:#181818;stroke-width:0.5;"/><text fill="#000000" font-family="sans-serif" font-size="14" lengthAdjust="spacing" textLength="105.5537" x="151.3964" y="960.4831">editarAlumno()</text></g><!--entity UC12--><g class="entity" data-entity="UC12" data-source-line="27" data-uid="ent0017" id="entity_UC12"><ellipse cx="204.1337" cy="887.1267" fill="#F1F1F1" rx="76.1337" ry="17.6267" style="stroke:#181818;stroke-width:0.5;"/><text fill="#000000" font-family="sans-serif" font-size="14" lengthAdjust="spacing" textLength="121.4678" x="143.3998" y="891.7752">eliminarAlumno()</text></g><!--entity UC20--><g class="entity" data-entity="UC20" data-source-line="33" data-uid="ent0019" id="entity_UC20"><ellipse cx="753.2836" cy="166.7567" fill="#F1F1F1" rx="71.7836" ry="16.7567" style="stroke:#181818;stroke-width:0.5;"/><text fill="#000000" font-family="sans-serif" font-size="14" lengthAdjust="spacing" textLength="110.8379" x="697.8647" y="171.4052">crearPregunta()</text></g><!--entity UC21--><g class="entity" data-entity="UC21" data-source-line="34" data-uid="ent0020" id="entity_UC21"><ellipse cx="753.7116" cy="235.2423" fill="#F1F1F1" rx="69.2116" ry="16.2423" style="stroke:#181818;stroke-width:0.5;"/><text fill="#000000" font-family="sans-serif" font-size="14" lengthAdjust="spacing" textLength="104.3848" x="701.5192" y="239.8907">verPreguntas()</text></g><!--entity UC22--><g class="entity" data-entity="UC22" data-source-line="35" data-uid="ent0021" id="entity_UC22"><ellipse cx="753.3464" cy="302.7693" fill="#F1F1F1" rx="69.3464" ry="16.2693" style="stroke:#181818;stroke-width:0.5;"/><text fill="#000000" font-family="sans-serif" font-size="14" lengthAdjust="spacing" textLength="104.7266" x="700.9831" y="307.4177">editarPregunta</text></g><!--entity UC23--><g class="entity" data-entity="UC23" data-source-line="36" data-uid="ent0022" id="entity_UC23"><ellipse cx="753.3772" cy="372.9754" fill="#F1F1F1" rx="80.3772" ry="18.4754" style="stroke:#181818;stroke-width:0.5;"/><text fill="#000000" font-family="sans-serif" font-size="14" lengthAdjust="spacing" textLength="131.5645" x="687.5949" y="377.6239">eliminarPregunta()</text></g><!--entity UC32--><g class="entity" data-entity="UC32" data-source-line="39" data-uid="ent0023" id="entity_UC32"><ellipse cx="753.3132" cy="444.0626" fill="#F1F1F1" rx="75.8132" ry="17.5626" style="stroke:#181818;stroke-width:0.5;"/><text fill="#000000" font-family="sans-serif" font-size="14" lengthAdjust="spacing" textLength="120.6953" x="692.9656" y="448.7111">crearRespuesta()</text></g><!--entity UC33--><g class="entity" data-entity="UC33" data-source-line="40" data-uid="ent0024" id="entity_UC33"><ellipse cx="753.6623" cy="514.0325" fill="#F1F1F1" rx="73.1623" ry="17.0325" style="stroke:#181818;stroke-width:0.5;"/><text fill="#000000" font-family="sans-serif" font-size="14" lengthAdjust="spacing" textLength="114.2422" x="696.5412" y="518.6809">verRespuestas()</text></g><!--entity UC34--><g class="entity" data-entity="UC34" data-source-line="41" data-uid="ent0025" id="entity_UC34"><ellipse cx="753.3196" cy="583.9639" fill="#F1F1F1" rx="77.8196" ry="17.9639" style="stroke:#181818;stroke-width:0.5;"/><text fill="#000000" font-family="sans-serif" font-size="14" lengthAdjust="spacing" textLength="125.5078" x="690.5657" y="588.6124">editarRespuesta()</text></g><!--entity UC35--><g class="entity" data-entity="UC35" data-source-line="42" data-uid="ent0026" id="entity_UC35"><ellipse cx="753.6086" cy="656.8217" fill="#F1F1F1" rx="84.6086" ry="19.3217" style="stroke:#181818;stroke-width:0.5;"/><text fill="#000000" font-family="sans-serif" font-size="14" lengthAdjust="spacing" textLength="141.4219" x="682.8977" y="661.4702">eliminarRespuesta()</text></g><!--entity UC26--><g class="entity" data-entity="UC26" data-source-line="46" data-uid="ent0028" id="entity_UC26"><ellipse cx="203.8711" cy="680.7742" fill="#F1F1F1" rx="116.8711" ry="25.7742" style="stroke:#181818;stroke-width:0.5;"/><text fill="#000000" font-family="sans-serif" font-size="14" lengthAdjust="spacing" textLength="212.666" x="97.5381" y="685.4227">exportarConfiguracionGlobal()</text></g><!--entity UC27--><g class="entity" data-entity="UC27" data-source-line="47" data-uid="ent0029" id="entity_UC27"><ellipse cx="204.1648" cy="767.833" fill="#F1F1F1" rx="117.1648" ry="25.833" style="stroke:#181818;stroke-width:0.5;"/><text fill="#000000" font-family="sans-serif" font-size="14" lengthAdjust="spacing" textLength="213.2949" x="97.5174" y="772.4814">importarConfiguracionGlobal()</text></g><!--entity UC28--><g class="entity" data-entity="UC28" data-source-line="51" data-uid="ent0031" id="entity_UC28"><ellipse cx="753.4504" cy="771.0901" fill="#F1F1F1" rx="83.4504" ry="19.0901" style="stroke:#181818;stroke-width:0.5;"/><text fill="#000000" font-family="sans-serif" font-size="14" lengthAdjust="spacing" textLength="138.7422" x="684.0794" y="775.7385">generarExamenes()</text></g><!--entity UC29--><g class="entity" data-entity="UC29" data-source-line="52" data-uid="ent0032" id="entity_UC29"><ellipse cx="753.5665" cy="843.8133" fill="#F1F1F1" rx="82.0665" ry="18.8133" style="stroke:#181818;stroke-width:0.5;"/><text fill="#000000" font-family="sans-serif" font-size="14" lengthAdjust="spacing" textLength="135.5225" x="685.8053" y="848.4617">asignarExamenes()</text></g><!--entity UC40--><g class="entity" data-entity="UC40" data-source-line="53" data-uid="ent0033" id="entity_UC40"><ellipse cx="753.2549" cy="918.151" fill="#F1F1F1" rx="88.7549" ry="20.151" style="stroke:#181818;stroke-width:0.5;"/><text fill="#000000" font-family="sans-serif" font-size="14" lengthAdjust="spacing" textLength="150.917" x="677.7964" y="922.7994">cancelarGeneracion()</text></g><!--entity UC41--><g class="entity" data-entity="UC41" data-source-line="54" data-uid="ent0034" id="entity_UC41"><ellipse cx="753.3626" cy="991.9725" fill="#F1F1F1" rx="80.3626" ry="18.4725" style="stroke:#181818;stroke-width:0.5;"/><text fill="#000000" font-family="sans-serif" font-size="14" lengthAdjust="spacing" textLength="131.5303" x="687.5975" y="996.621">validarExamenes()</text></g><!--entity UC31--><g class="entity" data-entity="UC31" data-source-line="58" data-uid="ent0036" id="entity_UC31"><ellipse cx="753.3827" cy="1105.0765" fill="#F1F1F1" rx="83.3827" ry="19.0765" style="stroke:#181818;stroke-width:0.5;"/><text fill="#000000" font-family="sans-serif" font-size="14" lengthAdjust="spacing" textLength="138.585" x="684.0902" y="1109.725">corregirExamenes()</text></g><!--entity UC42--><g class="entity" data-entity="UC42" data-source-line="62" data-uid="ent0038" id="entity_UC42"><ellipse cx="753.3504" cy="1214.8701" fill="#F1F1F1" rx="67.3504" ry="15.8701" style="stroke:#181818;stroke-width:0.5;"/><text fill="#000000" font-family="sans-serif" font-size="14" lengthAdjust="spacing" textLength="99.6201" x="703.5403" y="1219.5185">iniciarSesion()</text></g><!--entity UC43--><g class="entity" data-entity="UC43" data-source-line="63" data-uid="ent0039" id="entity_UC43"><ellipse cx="753.6891" cy="1281.8378" fill="#F1F1F1" rx="67.1891" ry="15.8378" style="stroke:#181818;stroke-width:0.5;"/><text fill="#000000" font-family="sans-serif" font-size="14" lengthAdjust="spacing" textLength="99.2031" x="704.0875" y="1286.4863">cerrarSesion()</text></g><!--entity UC13--><g class="entity" data-entity="UC13" data-source-line="67" data-uid="ent0041" id="entity_UC13"><ellipse cx="753.6046" cy="1391.8209" fill="#F1F1F1" rx="82.1046" ry="18.8209" style="stroke:#181818;stroke-width:0.5;"/><text fill="#000000" font-family="sans-serif" font-size="14" lengthAdjust="spacing" textLength="135.6113" x="685.7989" y="1396.4694">completarGestion()</text></g><!--entity UC38--><g class="entity" data-entity="UC38" data-source-line="71" data-uid="ent0043" id="entity_UC38"><ellipse cx="203.8683" cy="451.9737" fill="#F1F1F1" rx="90.3683" ry="20.4737" style="stroke:#181818;stroke-width:0.5;"/><text fill="#000000" font-family="sans-serif" font-size="14" lengthAdjust="spacing" textLength="154.5742" x="126.5812" y="456.6221">importarAsignaturas()</text></g><!--entity UC24--><g class="entity" data-entity="UC24" data-source-line="72" data-uid="ent0044" id="entity_UC24"><ellipse cx="203.985" cy="306.897" fill="#F1F1F1" rx="84.985" ry="19.397" style="stroke:#181818;stroke-width:0.5;"/><text fill="#000000" font-family="sans-serif" font-size="14" lengthAdjust="spacing" textLength="142.29" x="132.84" y="311.5454">importarPreguntas()</text></g><!--entity UC19--><g class="entity" data-entity="UC19" data-source-line="73" data-uid="ent0045" id="entity_UC19"><ellipse cx="204.1447" cy="526.0289" fill="#F1F1F1" rx="80.6447" ry="18.5289" style="stroke:#181818;stroke-width:0.5;"/><text fill="#000000" font-family="sans-serif" font-size="14" lengthAdjust="spacing" textLength="132.1934" x="138.048" y="530.6774">importarAlumnos()</text></g><!--entity UC36--><g class="entity" data-entity="UC36" data-source-line="74" data-uid="ent0046" id="entity_UC36"><ellipse cx="204.1109" cy="379.1222" fill="#F1F1F1" rx="76.1109" ry="17.6222" style="stroke:#181818;stroke-width:0.5;"/><text fill="#000000" font-family="sans-serif" font-size="14" lengthAdjust="spacing" textLength="121.4131" x="143.4044" y="383.7706">importarGrados()</text></g><!--entity UC25--><g class="entity" data-entity="UC25" data-source-line="77" data-uid="ent0048" id="entity_UC25"><ellipse cx="204.2123" cy="140.8425" fill="#F1F1F1" rx="84.7123" ry="19.3425" style="stroke:#181818;stroke-width:0.5;"/><text fill="#000000" font-family="sans-serif" font-size="14" lengthAdjust="spacing" textLength="141.6611" x="133.3817" y="145.4909">exportarPreguntas()</text></g><!--entity UC17--><g class="entity" data-entity="UC17" data-source-line="78" data-uid="ent0049" id="entity_UC17"><ellipse cx="203.8772" cy="67.9754" fill="#F1F1F1" rx="80.3772" ry="18.4754" style="stroke:#181818;stroke-width:0.5;"/><text fill="#000000" font-family="sans-serif" font-size="14" lengthAdjust="spacing" textLength="131.5645" x="138.0949" y="72.6239">exportarAlumnos()</text></g><!--entity UC39--><g class="entity" data-entity="UC39" data-source-line="79" data-uid="ent0050" id="entity_UC39"><ellipse cx="474.0903" cy="139.9181" fill="#F1F1F1" rx="90.0903" ry="20.4181" style="stroke:#181818;stroke-width:0.5;"/><text fill="#000000" font-family="sans-serif" font-size="14" lengthAdjust="spacing" textLength="153.9453" x="397.1176" y="144.5665">exportarAsignaturas()</text></g><!--entity UC37--><g class="entity" data-entity="UC37" data-source-line="80" data-uid="ent0051" id="entity_UC37"><ellipse cx="473.8501" cy="67.07" fill="#F1F1F1" rx="75.8501" ry="17.57" style="stroke:#181818;stroke-width:0.5;"/><text fill="#000000" font-family="sans-serif" font-size="14" lengthAdjust="spacing" textLength="120.7842" x="413.458" y="71.7184">exportarGrados()</text></g><!--entity doc--><g class="entity" data-entity="doc" data-source-line="3" data-uid="ent0002" id="entity_doc"><ellipse cx="473.8159" cy="688.5" fill="#F1F1F1" rx="8" ry="8" style="stroke:#181818;stroke-width:0.5;"/><path d="M473.8159,696.5 L473.8159,723.5 M460.8159,704.5 L486.8159,704.5 M473.8159,723.5 L460.8159,738.5 M473.8159,723.5 L486.8159,738.5" fill="none" style="stroke:#181818;stroke-width:0.5;"/><text fill="#000000" font-family="sans-serif" font-size="14" lengthAdjust="spacing" textLength="58.6318" x="444.5" y="752.9951">Docente</text></g><!--reverse link UC1 to doc--><g class="link" data-entity-1="UC1" data-entity-2="doc" data-source-line="84" data-uid="lnk53" id="link_UC1_doc"><path d="M474,800.97 C474,784.06 474,773.14 474,756.23" fill="none" id="UC1-backto-doc" style="stroke:#181818;stroke-width:1;"/><polygon fill="#181818" points="474,806.97,478,797.97,474,801.97,470,797.97,474,806.97" style="stroke:#181818;stroke-width:1;"/></g><!--reverse link UC2 to doc--><g class="link" data-entity-1="UC2" data-entity-2="doc" data-source-line="85" data-uid="lnk55" id="link_UC2_doc"><path d="M410.3239,880.5638 C383.4239,874.5638 361.67,863.16 354.75,836.5 C349.55,816.48 350.47,806.19 364.5,791 C387.44,766.16 420.45,745.64 444.23,732.75" fill="none" id="UC2-backto-doc" style="stroke:#181818;stroke-width:1;"/><polygon fill="#181818" points="416.18,881.87,408.2667,876.0066,411.2999,880.7815,406.5251,883.8148,416.18,881.87" style="stroke:#181818;stroke-width:1;"/></g><!--reverse link UC3 to doc--><g class="link" data-entity-1="UC3" data-entity-2="doc" data-source-line="86" data-uid="lnk57" id="link_UC3_doc"><path d="M407.3879,944.7703 C381.4479,938.5003 361.42,927.18 354.75,901.5 C344.36,861.49 344.36,848.51 354.75,808.5 C356.99,799.88 358.46,797.54 364.5,791 C387.44,766.16 420.45,745.64 444.23,732.75" fill="none" id="UC3-backto-doc" style="stroke:#181818;stroke-width:1;"/><polygon fill="#181818" points="413.22,946.18,405.4117,940.1775,408.36,945.0053,403.5321,947.9535,413.22,946.18" style="stroke:#181818;stroke-width:1;"/></g><!--reverse link UC4 to doc--><g class="link" data-entity-1="UC4" data-entity-2="doc" data-source-line="87" data-uid="lnk59" id="link_UC4_doc"><path d="M403.8237,1010.1528 C379.1437,1003.3828 361.13,992.06 354.75,967.5 C345.87,933.3 345.87,842.7 354.75,808.5 C356.99,799.88 358.46,797.54 364.5,791 C387.44,766.16 420.45,745.64 444.23,732.75" fill="none" id="UC4-backto-doc" style="stroke:#181818;stroke-width:1;"/><polygon fill="#181818" points="409.61,1011.74,401.9888,1005.5017,404.7881,1010.4173,399.8725,1013.2167,409.61,1011.74" style="stroke:#181818;stroke-width:1;"/></g><!--reverse link UC5 to doc--><g class="link" data-entity-1="UC5" data-entity-2="doc" data-source-line="88" data-uid="lnk61" id="link_UC5_doc"><path d="M400.6136,422.499 C377.1336,429.699 360.86,440.96 354.75,464.5 C344.75,503 344.75,605 354.75,643.5 C356.99,652.12 358.12,654.79 364.5,661 C387.24,683.11 420.29,698.71 444.12,707.93" fill="none" id="UC5-backto-doc" style="stroke:#181818;stroke-width:1;"/><polygon fill="#181818" points="406.35,420.74,396.5728,419.5543,401.5697,422.2059,398.9181,427.2028,406.35,420.74" style="stroke:#181818;stroke-width:1;"/></g><!--reverse link UC6 to doc--><g class="link" data-entity-1="UC6" data-entity-2="doc" data-source-line="89" data-uid="lnk63" id="link_UC6_doc"><path d="M402.2013,491.3699 C378.1113,498.2599 360.99,509.49 354.75,533.5 C342.46,580.82 342.46,596.18 354.75,643.5 C356.99,652.12 358.12,654.79 364.5,661 C387.24,683.11 420.29,698.71 444.12,707.93" fill="none" id="UC6-backto-doc" style="stroke:#181818;stroke-width:1;"/><polygon fill="#181818" points="407.97,489.72,398.217,488.3491,403.1628,491.0949,400.4169,496.0407,407.97,489.72" style="stroke:#181818;stroke-width:1;"/></g><!--reverse link UC7 to doc--><g class="link" data-entity-1="UC7" data-entity-2="doc" data-source-line="90" data-uid="lnk65" id="link_UC7_doc"><path d="M400.3211,563.2049 C376.9711,570.6149 360.85,582 354.75,605.5 C348.45,629.74 346.54,643.54 364.5,661 C387.24,683.11 420.29,698.71 444.12,707.93" fill="none" id="UC7-backto-doc" style="stroke:#181818;stroke-width:1;"/><polygon fill="#181818" points="406.04,561.39,396.2517,560.2997,401.2742,562.9024,398.6715,567.9249,406.04,561.39" style="stroke:#181818;stroke-width:1;"/></g><!--reverse link UC8 to doc--><g class="link" data-entity-1="UC8" data-entity-2="doc" data-source-line="91" data-uid="lnk67" id="link_UC8_doc"><path d="M474,650.71 C474,662.43 474,668.14 474,679.86" fill="none" id="UC8-backto-doc" style="stroke:#181818;stroke-width:1;"/><polygon fill="#181818" points="474,644.71,470,653.71,474,649.71,478,653.71,474,644.71" style="stroke:#181818;stroke-width:1;"/></g><!--reverse link UC9 to doc--><g class="link" data-entity-1="UC9" data-entity-2="doc" data-source-line="92" data-uid="lnk69" id="link_UC9_doc"><path d="M278.1087,1088.5742 C304.4787,1084.7742 326.78,1076.45 345,1056 C384.27,1011.9 335.33,842.34 364.5,791 C381.99,760.2 418.46,739.83 444.27,728.62" fill="none" id="UC9-backto-doc" style="stroke:#181818;stroke-width:1;"/><polygon fill="#181818" points="272.17,1089.43,281.6485,1092.1054,277.1189,1088.7169,280.5075,1084.1872,272.17,1089.43" style="stroke:#181818;stroke-width:1;"/></g><!--reverse link UC10 to doc--><g class="link" data-entity-1="UC10" data-entity-2="doc" data-source-line="93" data-uid="lnk71" id="link_UC10_doc"><path d="M275.4564,1022.8176 C302.6664,1019.5176 326.34,1011.34 345,990 C374.25,956.55 341.73,829.15 364.5,791 C382.54,760.78 418.51,740.4 444.08,729.01" fill="none" id="UC10-backto-doc" style="stroke:#181818;stroke-width:1;"/><polygon fill="#181818" points="269.5,1023.54,278.9161,1026.4273,274.4636,1022.938,277.9529,1018.4855,269.5,1023.54" style="stroke:#181818;stroke-width:1;"/></g><!--reverse link UC11 to doc--><g class="link" data-entity-1="UC11" data-entity-2="doc" data-source-line="94" data-uid="lnk73" id="link_UC11_doc"><path d="M279.6592,954.0207 C305.4592,950.0207 326.95,941.76 345,922 C384.7,878.54 333.07,840.77 364.5,791 C383.29,761.24 419.1,740.76 444.43,729.23" fill="none" id="UC11-backto-doc" style="stroke:#181818;stroke-width:1;"/><polygon fill="#181818" points="273.73,954.94,283.2366,957.5139,278.671,954.174,282.0109,949.6083,273.73,954.94" style="stroke:#181818;stroke-width:1;"/></g><!--reverse link UC12 to doc--><g class="link" data-entity-1="UC12" data-entity-2="doc" data-source-line="95" data-uid="lnk75" id="link_UC12_doc"><path d="M244.7569,868.7489 C274.0869,854.6389 311.34,834.93 345,810 C354.72,802.8 355.11,798.63 364.5,791 C390.23,770.1 421.9,749.29 444.37,735.27" fill="none" id="UC12-backto-doc" style="stroke:#181818;stroke-width:1;"/><polygon fill="#181818" points="239.35,871.35,249.1944,871.0529,243.8557,869.1824,245.7262,863.8437,239.35,871.35" style="stroke:#181818;stroke-width:1;"/></g><!--link doc to UC13--><g class="link" data-entity-1="doc" data-entity-2="UC13" data-source-line="96" data-uid="lnk76" id="link_doc_UC13"><path d="M503.52,725.11 C534.4,734.49 582.16,754.29 604,791 C610.45,801.84 611.07,1232.42 612,1245 C614.28,1275.84 603.99,1288.17 621,1314 C640.79,1344.03 670.9378,1361.8072 700.1378,1374.0672" fill="none" id="doc-to-UC13" style="stroke:#181818;stroke-width:1;"/><polygon fill="#181818" points="705.67,1376.39,698.9203,1369.2178,701.0599,1374.4544,695.8233,1376.594,705.67,1376.39" style="stroke:#181818;stroke-width:1;"/></g><!--reverse link UC19 to doc--><g class="link" data-entity-1="UC19" data-entity-2="doc" data-source-line="97" data-uid="lnk78" id="link_UC19_doc"><path d="M288.3982,522.4873 C311.2282,525.1973 328.52,531.77 345,548 C381.31,583.77 334.52,619.79 364.5,661 C383.78,687.5 419.13,702.74 444.23,710.68" fill="none" id="UC19-backto-doc" style="stroke:#181818;stroke-width:1;"/><polygon fill="#181818" points="282.44,521.78,290.9058,526.813,287.4051,522.3694,291.8488,518.8688,282.44,521.78" style="stroke:#181818;stroke-width:1;"/></g><!--link doc to UC20--><g class="link" data-entity-1="doc" data-entity-2="UC20" data-source-line="98" data-uid="lnk79" id="link_doc_UC20"><path d="M503.53,714.3 C534.18,708.65 581.51,694.71 604,661 C615.1,644.36 610.88,320.97 612,301 C614.5,256.45 592.12,235.02 621,201 C636.18,183.11 653.5421,175.1443 676.2921,170.6843" fill="none" id="doc-to-UC20" style="stroke:#181818;stroke-width:1;"/><polygon fill="#181818" points="682.18,169.53,672.5786,167.3362,677.2734,170.4919,674.1176,175.1867,682.18,169.53" style="stroke:#181818;stroke-width:1;"/></g><!--link doc to UC21--><g class="link" data-entity-1="doc" data-entity-2="UC21" data-source-line="99" data-uid="lnk80" id="link_doc_UC21"><path d="M503.78,714.23 C534.4,708.53 581.48,694.54 604,661 C612.98,647.62 611.07,387.09 612,371 C614.63,325.57 591.58,303.72 621,269 C636.78,250.38 655.3853,242.3254 678.9953,238.0654" fill="none" id="doc-to-UC21" style="stroke:#181818;stroke-width:1;"/><polygon fill="#181818" points="684.9,237,675.3328,234.6616,679.9795,237.8878,676.7533,242.5345,684.9,237" style="stroke:#181818;stroke-width:1;"/></g><!--link doc to UC22--><g class="link" data-entity-1="doc" data-entity-2="UC22" data-source-line="100" data-uid="lnk81" id="link_doc_UC22"><path d="M503.72,714.19 C534.3,708.45 581.33,694.44 604,661 C610.8,650.97 611.26,455.1 612,443 C614.87,395.81 590.5,373.12 621,337 C636.67,318.44 655.1171,310.3851 678.6171,306.1051" fill="none" id="doc-to-UC22" style="stroke:#181818;stroke-width:1;"/><polygon fill="#181818" points="684.52,305.03,674.9489,302.7074,679.6009,305.9259,676.3824,310.5779,684.52,305.03" style="stroke:#181818;stroke-width:1;"/></g><!--link doc to UC23--><g class="link" data-entity-1="doc" data-entity-2="UC23" data-source-line="101" data-uid="lnk82" id="link_doc_UC23"><path d="M503.64,714.14 C534.14,708.35 581.12,694.3 604,661 C619.89,637.87 602.89,430.43 621,409 C634.83,392.64 649.4893,384.8059 670.1993,379.6259" fill="none" id="doc-to-UC23" style="stroke:#181818;stroke-width:1;"/><polygon fill="#181818" points="676.02,378.17,666.3184,376.4734,671.1694,379.3832,668.2595,384.2343,676.02,378.17" style="stroke:#181818;stroke-width:1;"/></g><!--link doc to UC24--><g class="link" data-entity-1="doc" data-entity-2="UC24" data-source-line="102" data-uid="lnk83" id="link_doc_UC24"><path d="M444.42,711.53 C418.7,704.05 382.31,689.01 364.5,661 C345.57,631.22 367.96,370.8 345,344 C330.28,326.82 314.4407,318.5551 292.5207,313.2351" fill="none" id="doc-to-UC24" style="stroke:#181818;stroke-width:1;"/><polygon fill="#181818" points="286.69,311.82,294.4927,317.8298,291.5489,312.9993,296.3795,310.0555,286.69,311.82" style="stroke:#181818;stroke-width:1;"/></g><!--reverse link UC26 to doc--><g class="link" data-entity-1="UC26" data-entity-2="doc" data-source-line="104" data-uid="lnk85" id="link_UC26_doc"><path d="M309.9736,695.491 C359.9236,702.391 410.9,709.43 444.29,714.04" fill="none" id="UC26-backto-doc" style="stroke:#181818;stroke-width:1;"/><polygon fill="#181818" points="304.03,694.67,312.398,699.8639,308.983,695.3542,313.4927,691.9392,304.03,694.67" style="stroke:#181818;stroke-width:1;"/></g><!--reverse link UC27 to doc--><g class="link" data-entity-1="UC27" data-entity-2="doc" data-source-line="105" data-uid="lnk87" id="link_UC27_doc"><path d="M300.1383,750.2501 C352.3683,740.5101 408.95,729.95 444.5,723.32" fill="none" id="UC27-backto-doc" style="stroke:#181818;stroke-width:1;"/><polygon fill="#181818" points="294.24,751.35,303.8208,753.6323,299.1553,750.4334,302.3542,745.7679,294.24,751.35" style="stroke:#181818;stroke-width:1;"/></g><!--link doc to UC28--><g class="link" data-entity-1="doc" data-entity-2="UC28" data-source-line="106" data-uid="lnk88" id="link_doc_UC28"><path d="M503.65,723.47 C547.07,731.76 624.7166,746.5941 682.9766,757.7241" fill="none" id="doc-to-UC28" style="stroke:#181818;stroke-width:1;"/><polygon fill="#181818" points="688.87,758.85,680.7805,753.2322,683.9588,757.9118,679.2793,761.0901,688.87,758.85" style="stroke:#181818;stroke-width:1;"/></g><!--link doc to UC29--><g class="link" data-entity-1="doc" data-entity-2="UC29" data-source-line="107" data-uid="lnk89" id="link_doc_UC29"><path d="M503.62,731.68 C530.59,745.15 571.58,767.11 604,791 C612.35,797.15 611.97,801.89 621,807 C641.54,818.62 660.166,825.3077 682.366,830.9677" fill="none" id="doc-to-UC29" style="stroke:#181818;stroke-width:1;"/><polygon fill="#181818" points="688.18,832.45,680.4472,826.3505,683.335,831.2147,678.4708,834.1025,688.18,832.45" style="stroke:#181818;stroke-width:1;"/></g><!--link doc to UC31--><g class="link" data-entity-1="doc" data-entity-2="UC31" data-source-line="108" data-uid="lnk90" id="link_doc_UC31"><path d="M503.56,725.34 C534.23,734.89 581.58,754.79 604,791 C612.84,805.28 610.67,925.25 612,942 C615.01,979.87 600.49,995.03 621,1027 C640.35,1057.16 670.3231,1074.8887 699.5731,1087.0987" fill="none" id="doc-to-UC31" style="stroke:#181818;stroke-width:1;"/><polygon fill="#181818" points="705.11,1089.41,698.3455,1082.2517,700.4959,1087.4839,695.2637,1089.6343,705.11,1089.41" style="stroke:#181818;stroke-width:1;"/></g><!--link doc to UC32--><g class="link" data-entity-1="doc" data-entity-2="UC32" data-source-line="109" data-uid="lnk91" id="link_doc_UC32"><path d="M503.74,713.96 C534.1,708.03 580.72,693.87 604,661 C610.63,651.63 610.91,569.43 612,558 C615.37,522.82 597.91,505.75 621,479 C635.66,462.01 651.694,454.1164 673.434,449.2664" fill="none" id="doc-to-UC32" style="stroke:#181818;stroke-width:1;"/><polygon fill="#181818" points="679.29,447.96,669.635,446.0156,674.41,449.0487,671.3769,453.8237,679.29,447.96" style="stroke:#181818;stroke-width:1;"/></g><!--link doc to UC33--><g class="link" data-entity-1="doc" data-entity-2="UC33" data-source-line="110" data-uid="lnk92" id="link_doc_UC33"><path d="M503.57,713.57 C533.55,707.33 579.63,692.92 604,661 C619.41,640.82 604,566.86 621,548 C636.47,530.83 653.4919,523.0335 675.8619,518.4535" fill="none" id="doc-to-UC33" style="stroke:#181818;stroke-width:1;"/><polygon fill="#181818" points="681.74,517.25,672.1206,515.1365,676.8416,518.2529,673.7252,522.9739,681.74,517.25" style="stroke:#181818;stroke-width:1;"/></g><!--link doc to UC34--><g class="link" data-entity-1="doc" data-entity-2="UC34" data-source-line="111" data-uid="lnk93" id="link_doc_UC34"><path d="M503.73,711.92 C532.53,704.47 576.45,689.19 604,661 C617.79,646.89 606.2,633.04 621,620 C637.87,605.13 654.4959,597.7411 676.0659,592.5611" fill="none" id="doc-to-UC34" style="stroke:#181818;stroke-width:1;"/><polygon fill="#181818" points="681.9,591.16,672.2148,589.3722,677.0382,592.3275,674.0828,597.151,681.9,591.16" style="stroke:#181818;stroke-width:1;"/></g><!--link doc to UC35--><g class="link" data-entity-1="doc" data-entity-2="UC35" data-source-line="112" data-uid="lnk94" id="link_doc_UC35"><path d="M503.65,711.7 C547.76,702.01 627.43,684.4987 685.77,671.6687" fill="none" id="doc-to-UC35" style="stroke:#181818;stroke-width:1;"/><polygon fill="#181818" points="691.63,670.38,681.9809,668.4064,686.7467,671.4539,683.6992,676.2197,691.63,670.38" style="stroke:#181818;stroke-width:1;"/></g><!--reverse link UC36 to doc--><g class="link" data-entity-1="UC36" data-entity-2="doc" data-source-line="113" data-uid="lnk96" id="link_UC36_doc"><path d="M285.3556,382.4443 C309.5356,387.0143 328.47,395.34 345,414 C363.26,434.6 349.56,637.87 364.5,661 C382.39,688.7 418.4,703.76 444.02,711.32" fill="none" id="UC36-backto-doc" style="stroke:#181818;stroke-width:1;"/><polygon fill="#181818" points="279.46,381.33,287.5606,386.9318,284.373,382.2586,289.0463,379.071,279.46,381.33" style="stroke:#181818;stroke-width:1;"/></g><!--reverse link UC38 to doc--><g class="link" data-entity-1="UC38" data-entity-2="doc" data-source-line="114" data-uid="lnk98" id="link_UC38_doc"><path d="M296.068,460.0608 C316.718,465.7008 331.05,473.76 345,490 C369.92,519.01 342.89,629.44 364.5,661 C383.13,688.21 418.98,703.37 444.36,711.09" fill="none" id="UC38-backto-doc" style="stroke:#181818;stroke-width:1;"/><polygon fill="#181818" points="290.28,458.48,297.9081,464.7099,295.1033,459.7974,300.0159,456.9926,290.28,458.48" style="stroke:#181818;stroke-width:1;"/></g><!--link doc to UC40--><g class="link" data-entity-1="doc" data-entity-2="UC40" data-source-line="115" data-uid="lnk99" id="link_doc_UC40"><path d="M503.75,726.31 C533.66,736.52 579.48,756.81 604,791 C627.47,823.72 593.87,850.24 621,880 C634.45,894.75 647.475,902.2229 666.635,907.8729" fill="none" id="doc-to-UC40" style="stroke:#181818;stroke-width:1;"/><polygon fill="#181818" points="672.39,909.57,664.8889,903.1877,667.5942,908.1558,662.6261,910.8611,672.39,909.57" style="stroke:#181818;stroke-width:1;"/></g><!--link doc to UC41--><g class="link" data-entity-1="doc" data-entity-2="UC41" data-source-line="116" data-uid="lnk100" id="link_doc_UC41"><path d="M503.56,725.61 C534,735.34 580.91,755.36 604,791 C623.92,821.75 597.26,927.09 621,955 C635.06,971.53 650.0534,979.4978 670.9934,984.7978" fill="none" id="doc-to-UC41" style="stroke:#181818;stroke-width:1;"/><polygon fill="#181818" points="676.81,986.27,669.0666,980.184,671.9628,985.0432,667.1037,987.9394,676.81,986.27" style="stroke:#181818;stroke-width:1;"/></g><!--link doc to UC42--><g class="link" data-entity-1="doc" data-entity-2="UC42" data-source-line="117" data-uid="lnk101" id="link_doc_UC42"><path d="M503.68,725.27 C534.46,734.75 581.9,754.59 604,791 C610.55,801.79 611.31,1005.4 612,1018 C614.96,1072.29 591.98,1094.02 621,1140 C641.06,1171.78 674.1123,1189.3794 704.3523,1200.5594" fill="none" id="doc-to-UC42" style="stroke:#181818;stroke-width:1;"/><polygon fill="#181818" points="709.98,1202.64,702.9255,1195.7673,705.2902,1200.9062,700.1514,1203.2709,709.98,1202.64" style="stroke:#181818;stroke-width:1;"/></g><!--link doc to UC43--><g class="link" data-entity-1="doc" data-entity-2="UC43" data-source-line="118" data-uid="lnk102" id="link_doc_UC43"><path d="M503.76,725.22 C534.61,734.66 582.12,754.46 604,791 C613.76,807.3 611.04,1114.02 612,1133 C614.6,1184.2 588.05,1208.72 621,1248 C637.06,1267.15 656.4551,1275.263 680.5951,1279.373" fill="none" id="doc-to-UC43" style="stroke:#181818;stroke-width:1;"/><polygon fill="#181818" points="686.51,1280.38,678.309,1274.9262,681.5809,1279.5408,676.9663,1282.8127,686.51,1280.38" style="stroke:#181818;stroke-width:1;"/></g><!--reverse link ME44 to UC26--><g class="link" data-entity-1="ME44" data-entity-2="UC26" data-source-line="119" data-uid="lnk103" id="link_ME44_UC26"><path d="M166.6213,205.9099 C166.2374,206.0294 171.0089,204.555 170.6204,204.6773 C169.0665,205.1667 167.4765,205.6791 165.8546,206.2149 C159.367,208.3584 152.3684,210.8778 145.1213,213.8088 C116.1325,225.5325 83.165,243.84 63,271 C52.75,284.81 28.26,370.11 34,434.5 C40.47,507.14 21.64,535.93 63,596 C82.53,624.37 114.92,644.86 143.73,658.61" fill="none" id="ME44-backto-UC26" style="stroke:#181818;stroke-width:1;stroke-dasharray:7,7;"/><polygon fill="#181818" points="172.3532,204.1364,162.573,202.9754,167.5766,205.6143,164.9377,210.6179,172.3532,204.1364" style="stroke:#181818;stroke-width:1;"/><text fill="#000000" font-family="sans-serif" font-size="13" lengthAdjust="spacing" textLength="47.0996" x="7" y="430.5669">include</text></g><!--reverse link MI45 to UC27--><g class="link" data-entity-1="MI45" data-entity-2="UC27" data-source-line="120" data-uid="lnk104" id="link_MI45_UC27"><path d="M167.8649,589.7856 C165.4917,590.4885 167.021,590.0638 164.4761,590.8492 C144.1166,597.1322 118.6994,606.0369 95.2363,617.2788 C48.31,639.7625 9.2,671.595 34,710.5 C48.74,733.62 73.43,747.64 99.5,756.08" fill="none" id="MI45-backto-UC27" style="stroke:#181818;stroke-width:1;stroke-dasharray:7,7;"/><polygon fill="#181818" points="173.6224,588.0972,163.8605,586.7914,168.8245,589.5042,166.1117,594.4681,173.6224,588.0972" style="stroke:#181818;stroke-width:1;"/><text fill="#000000" font-family="sans-serif" font-size="13" lengthAdjust="spacing" textLength="47.0996" x="7" y="706.5669">include</text></g><!--SRC=[ZLN1Yjim4BtxAqHExM6Ns7BYf9H2sOQmXuNIqW_GohEkg287sIw1qA_QJzWVgsmdzaYQXf9SdkVfpPlnZApXfMLjpQogVhQiL1PagsgJ94AsjMMBBxK4qyA2YOQLjKoIev2_H0LiyVJsMdQwPdihodh1pWbZNGDID2ucBGWx1Dwz7ux-U4Xn_3UCqMOAPpWCfMh3yzmZQ7LG9gJaZjB__n0kFpUgCgBjhA2ipj59R1NudIcpwNLicb0gAES4RtFBlkuEXkpo69b4jg7j8JnRJfU4PryYJKd30IcxuNOFJQlUNWqhWNsrK7Mc5Grb_XgSns0P-9-EpvGqhk3Akb8oge8ucPkf_kTx-WRDiNC5p3oU1QOcokoAyzWLePHJnWZUYkphGsrULELcHWxTtOC1AtJGM3WTQ-ko8t9jzhf-5dgkt9jSTVYF4mNfQ7SI1p21WshmPSSOe3UtmImnR031yaPO2YD1kqqVD7jZyxhxioAqAWcvFFr7AwsxweO-XeFPHoeLAt5QwJiqX8eoIYfX-o2sx4sI16jZ2h-vKf7Pmr53VrdsSIIJyiJfH3AFuwk-rEsOJu_vwamD0tNVyGt595Oq9nN3gsXBiOBl0bzJPUnEOHcxF3ydqGuGrbOnAp9M41og7TkO5zeVrYPnNqvsf-y-3Tz1138CE0Ov1YiCrXWK66n6q0rWYu6xzJ5AFNGnCGBkXIuYvMXswQ7KGvc7k8Vo18jcQmyLA7ksmM2B0FUoSIyRzxBnt4DUwxZNEuwpvKiCKWnmVznszgFsyTxUzvMm3yf8tPMGz7jqULfCJ_y2]--></g></svg>