<svg xmlns="http://www.w3.org/2000/svg" xmlns:xlink="http://www.w3.org/1999/xlink" contentStyleType="text/css" data-diagram-type="DESCRIPTION" height="2674px" preserveAspectRatio="none" style="width:403px;height:2674px;background:#FFFFFF;" version="1.1" viewBox="0 0 403 2674" width="403px" zoomAndPan="magnify"><defs/><g><!--cluster M?dulo Grado--><g class="cluster" data-entity="M.dulo Grado" data-source-line="5" data-uid="ent0003" id="cluster_M.dulo Grado"><path d="M170.79,6 L282.1015,6 A3.75,3.75 0 0 1 284.6015,8.5 L291.6015,28.2969 L334.72,28.2969 A2.5,2.5 0 0 1 337.22,30.7969 L337.22,279.5 A2.5,2.5 0 0 1 334.72,282 L170.79,282 A2.5,2.5 0 0 1 168.29,279.5 L168.29,8.5 A2.5,2.5 0 0 1 170.79,6" fill="none" style="stroke:#000000;stroke-width:1.5;"/><line style="stroke:#000000;stroke-width:1.5;" x1="168.29" x2="291.6015" y1="28.2969" y2="28.2969"/><text fill="#000000" font-family="sans-serif" font-size="14" font-weight="bold" lengthAdjust="spacing" textLength="110.3115" x="172.29" y="20.9951">M&#243;dulo Grado</text></g><!--cluster M?dulo Asignatura--><g class="cluster" data-entity="M.dulo Asignatura" data-source-line="12" data-uid="ent0008" id="cluster_M.dulo Asignatura"><path d="M156.72,306 L306.9622,306 A3.75,3.75 0 0 1 309.4622,308.5 L316.4622,328.2969 L348.79,328.2969 A2.5,2.5 0 0 1 351.29,330.7969 L351.29,599.5 A2.5,2.5 0 0 1 348.79,602 L156.72,602 A2.5,2.5 0 0 1 154.22,599.5 L154.22,308.5 A2.5,2.5 0 0 1 156.72,306" fill="none" style="stroke:#000000;stroke-width:1.5;"/><line style="stroke:#000000;stroke-width:1.5;" x1="154.22" x2="316.4622" y1="328.2969" y2="328.2969"/><text fill="#000000" font-family="sans-serif" font-size="14" font-weight="bold" lengthAdjust="spacing" textLength="149.2422" x="158.22" y="320.9951">M&#243;dulo Asignatura</text></g><!--cluster M?dulo Alumno--><g class="cluster" data-entity="M.dulo Alumno" data-source-line="19" data-uid="ent0013" id="cluster_M.dulo Alumno"><path d="M161.67,626 L285.2725,626 A3.75,3.75 0 0 1 287.7725,628.5 L294.7725,648.2969 L343.85,648.2969 A2.5,2.5 0 0 1 346.35,650.7969 L346.35,978.5 A2.5,2.5 0 0 1 343.85,981 L161.67,981 A2.5,2.5 0 0 1 159.17,978.5 L159.17,628.5 A2.5,2.5 0 0 1 161.67,626" fill="none" style="stroke:#000000;stroke-width:1.5;"/><line style="stroke:#000000;stroke-width:1.5;" x1="159.17" x2="294.7725" y1="648.2969" y2="648.2969"/><text fill="#000000" font-family="sans-serif" font-size="14" font-weight="bold" lengthAdjust="spacing" textLength="122.6025" x="163.17" y="640.9951">M&#243;dulo Alumno</text></g><!--cluster M?dulo Asignaciones--><g class="cluster" data-entity="M.dulo Asignaciones" data-source-line="27" data-uid="ent0019" id="cluster_M.dulo Asignaciones"><path d="M111.13,1005 L278.8722,1005 A3.75,3.75 0 0 1 281.3722,1007.5 L288.3722,1027.2969 L394.38,1027.2969 A2.5,2.5 0 0 1 396.88,1029.7969 L396.88,1529.5 A2.5,2.5 0 0 1 394.38,1532 L111.13,1532 A2.5,2.5 0 0 1 108.63,1529.5 L108.63,1007.5 A2.5,2.5 0 0 1 111.13,1005" fill="none" style="stroke:#000000;stroke-width:1.5;"/><line style="stroke:#000000;stroke-width:1.5;" x1="108.63" x2="288.3722" y1="1027.2969" y2="1027.2969"/><text fill="#000000" font-family="sans-serif" font-size="14" font-weight="bold" lengthAdjust="spacing" textLength="166.7422" x="112.63" y="1019.9951">M&#243;dulo Asignaciones</text></g><!--cluster M?dulo Gesti?n de Preguntas--><g class="cluster" data-entity="M.dulo Gesti.n de Preguntas" data-source-line="37" data-uid="ent0026" id="cluster_M.dulo Gesti.n de Preguntas"><path d="M130.77,1556 L365.3471,1556 A3.75,3.75 0 0 1 367.8471,1558.5 L374.8471,1578.2969 L374.74,1578.2969 A2.5,2.5 0 0 1 377.24,1580.7969 L377.24,1989.5 A2.5,2.5 0 0 1 374.74,1992 L130.77,1992 A2.5,2.5 0 0 1 128.27,1989.5 L128.27,1558.5 A2.5,2.5 0 0 1 130.77,1556" fill="none" style="stroke:#000000;stroke-width:1.5;"/><line style="stroke:#000000;stroke-width:1.5;" x1="128.27" x2="374.8471" y1="1578.2969" y2="1578.2969"/><text fill="#000000" font-family="sans-serif" font-size="14" font-weight="bold" lengthAdjust="spacing" textLength="233.5771" x="132.27" y="1570.9951">M&#243;dulo Gesti&#243;n de Preguntas</text></g><!--cluster M?dulo Configuraci?n General--><g class="cluster" data-entity="M.dulo Configuraci.n General" data-source-line="46" data-uid="ent0033" id="cluster_M.dulo Configuraci.n General"><path d="M124.81,2016 L364.8832,2016 A3.75,3.75 0 0 1 367.3832,2018.5 L374.3832,2038.2969 L380.71,2038.2969 A2.5,2.5 0 0 1 383.21,2040.7969 L383.21,2200.5 A2.5,2.5 0 0 1 380.71,2203 L124.81,2203 A2.5,2.5 0 0 1 122.31,2200.5 L122.31,2018.5 A2.5,2.5 0 0 1 124.81,2016" fill="none" style="stroke:#000000;stroke-width:1.5;"/><line style="stroke:#000000;stroke-width:1.5;" x1="122.31" x2="374.3832" y1="2038.2969" y2="2038.2969"/><text fill="#000000" font-family="sans-serif" font-size="14" font-weight="bold" lengthAdjust="spacing" textLength="239.0732" x="126.31" y="2030.9951">M&#243;dulo Configuraci&#243;n General</text></g><!--cluster M?dulo Examen--><g class="cluster" data-entity="M.dulo Examen" data-source-line="51" data-uid="ent0036" id="cluster_M.dulo Examen"><path d="M159.62,2227 L285.5399,2227 A3.75,3.75 0 0 1 288.0399,2229.5 L295.0399,2249.2969 L345.89,2249.2969 A2.5,2.5 0 0 1 348.39,2251.7969 L348.39,2380.5 A2.5,2.5 0 0 1 345.89,2383 L159.62,2383 A2.5,2.5 0 0 1 157.12,2380.5 L157.12,2229.5 A2.5,2.5 0 0 1 159.62,2227" fill="none" style="stroke:#000000;stroke-width:1.5;"/><line style="stroke:#000000;stroke-width:1.5;" x1="157.12" x2="295.0399" y1="2249.2969" y2="2249.2969"/><text fill="#000000" font-family="sans-serif" font-size="14" font-weight="bold" lengthAdjust="spacing" textLength="124.9199" x="161.12" y="2241.9951">M&#243;dulo Examen</text></g><!--cluster M?dulo Correcci?n--><g class="cluster" data-entity="M.dulo Correcci.n" data-source-line="57" data-uid="ent0039" id="cluster_M.dulo Correcci.n"><path d="M157.86,2407 L305.8668,2407 A3.75,3.75 0 0 1 308.3668,2409.5 L315.3668,2429.2969 L347.65,2429.2969 A2.5,2.5 0 0 1 350.15,2431.7969 L350.15,2493.5 A2.5,2.5 0 0 1 347.65,2496 L157.86,2496 A2.5,2.5 0 0 1 155.36,2493.5 L155.36,2409.5 A2.5,2.5 0 0 1 157.86,2407" fill="none" style="stroke:#000000;stroke-width:1.5;"/><line style="stroke:#000000;stroke-width:1.5;" x1="155.36" x2="315.3668" y1="2429.2969" y2="2429.2969"/><text fill="#000000" font-family="sans-serif" font-size="14" font-weight="bold" lengthAdjust="spacing" textLength="147.0068" x="159.36" y="2421.9951">M&#243;dulo Correcci&#243;n</text></g><!--cluster M?dulo Sesi?n--><g class="cluster" data-entity="M.dulo Sesi.n" data-source-line="61" data-uid="ent0041" id="cluster_M.dulo Sesi.n"><path d="M174.35,2520 L290.474,2520 A3.75,3.75 0 0 1 292.974,2522.5 L299.974,2542.2969 L331.16,2542.2969 A2.5,2.5 0 0 1 333.66,2544.7969 L333.66,2664.5 A2.5,2.5 0 0 1 331.16,2667 L174.35,2667 A2.5,2.5 0 0 1 171.85,2664.5 L171.85,2522.5 A2.5,2.5 0 0 1 174.35,2520" fill="none" style="stroke:#000000;stroke-width:1.5;"/><line style="stroke:#000000;stroke-width:1.5;" x1="171.85" x2="299.974" y1="2542.2969" y2="2542.2969"/><text fill="#000000" font-family="sans-serif" font-size="14" font-weight="bold" lengthAdjust="spacing" textLength="115.124" x="175.85" y="2534.9951">M&#243;dulo Sesi&#243;n</text></g><!--entity UC1--><g class="entity" data-entity="UC1" data-source-line="6" data-uid="ent0004" id="entity_UC1"><ellipse cx="252.7622" cy="251.0044" fill="#F1F1F1" rx="61.3722" ry="14.6744" style="stroke:#181818;stroke-width:0.5;"/><text fill="#000000" font-family="sans-serif" font-size="14" lengthAdjust="spacing" textLength="83.6035" x="210.9604" y="255.6529">Crear grado</text></g><!--entity UC2--><g class="entity" data-entity="UC2" data-source-line="7" data-uid="ent0005" id="entity_UC2"><ellipse cx="252.7577" cy="187.0036" fill="#F1F1F1" rx="56.9977" ry="14.5236" style="stroke:#181818;stroke-width:0.5;"/><text fill="#000000" font-family="sans-serif" font-size="14" lengthAdjust="spacing" textLength="76.3643" x="214.5756" y="191.6521">Ver grados</text></g><!--entity UC3--><g class="entity" data-entity="UC3" data-source-line="8" data-uid="ent0006" id="entity_UC3"><ellipse cx="252.7635" cy="122.9987" fill="#F1F1F1" rx="62.4435" ry="14.8887" style="stroke:#181818;stroke-width:0.5;"/><text fill="#000000" font-family="sans-serif" font-size="14" lengthAdjust="spacing" textLength="86.5703" x="209.4784" y="127.6471">Editar grado</text></g><!--entity UC4--><g class="entity" data-entity="UC4" data-source-line="9" data-uid="ent0007" id="entity_UC4"><ellipse cx="252.7552" cy="57.003" fill="#F1F1F1" rx="68.4652" ry="16.093" style="stroke:#181818;stroke-width:0.5;"/><text fill="#000000" font-family="sans-serif" font-size="14" lengthAdjust="spacing" textLength="102.4844" x="201.513" y="61.6515">Eliminar grado</text></g><!--entity UC5--><g class="entity" data-entity="UC5" data-source-line="13" data-uid="ent0009" id="entity_UC5"><ellipse cx="252.7586" cy="568.9977" fill="#F1F1F1" rx="74.5886" ry="17.3177" style="stroke:#181818;stroke-width:0.5;"/><text fill="#000000" font-family="sans-serif" font-size="14" lengthAdjust="spacing" textLength="117.7285" x="193.8943" y="573.6462">Crear asignatura</text></g><!--entity UC6--><g class="entity" data-entity="UC6" data-source-line="14" data-uid="ent0010" id="entity_UC6"><ellipse cx="252.7632" cy="499.9986" fill="#F1F1F1" rx="71.6432" ry="16.7286" style="stroke:#181818;stroke-width:0.5;"/><text fill="#000000" font-family="sans-serif" font-size="14" lengthAdjust="spacing" textLength="110.4893" x="197.5186" y="504.6471">Ver asignaturas</text></g><!--entity UC7--><g class="entity" data-entity="UC7" data-source-line="15" data-uid="ent0011" id="entity_UC7"><ellipse cx="252.7632" cy="431.0026" fill="#F1F1F1" rx="75.8132" ry="17.5626" style="stroke:#181818;stroke-width:0.5;"/><text fill="#000000" font-family="sans-serif" font-size="14" lengthAdjust="spacing" textLength="120.6953" x="192.4156" y="435.6511">Editar asignatura</text></g><!--entity UC8--><g class="entity" data-entity="UC8" data-source-line="16" data-uid="ent0012" id="entity_UC8"><ellipse cx="252.7627" cy="359.9965" fill="#F1F1F1" rx="82.5327" ry="18.9065" style="stroke:#181818;stroke-width:0.5;"/><text fill="#000000" font-family="sans-serif" font-size="14" lengthAdjust="spacing" textLength="136.6094" x="184.458" y="364.645">Eliminar asignatura</text></g><!--entity UC9--><g class="entity" data-entity="UC9" data-source-line="20" data-uid="ent0014" id="entity_UC9"><ellipse cx="252.7614" cy="949.0023" fill="#F1F1F1" rx="65.7114" ry="15.5423" style="stroke:#181818;stroke-width:0.5;"/><text fill="#000000" font-family="sans-serif" font-size="14" lengthAdjust="spacing" textLength="95.3477" x="205.0876" y="953.6507">Crear alumno</text></g><!--entity UC10--><g class="entity" data-entity="UC10" data-source-line="21" data-uid="ent0015" id="entity_UC10"><ellipse cx="252.7558" cy="883.0012" fill="#F1F1F1" rx="63.0058" ry="15.0012" style="stroke:#181818;stroke-width:0.5;"/><text fill="#000000" font-family="sans-serif" font-size="14" lengthAdjust="spacing" textLength="88.1084" x="208.7016" y="887.6496">Ver alumnos</text></g><!--entity UC11--><g class="entity" data-entity="UC11" data-source-line="22" data-uid="ent0016" id="entity_UC11"><ellipse cx="252.7564" cy="816.9993" fill="#F1F1F1" rx="66.8464" ry="15.7693" style="stroke:#181818;stroke-width:0.5;"/><text fill="#000000" font-family="sans-serif" font-size="14" lengthAdjust="spacing" textLength="98.3145" x="203.5991" y="821.6477">Editar alumno</text></g><!--entity UC12--><g class="entity" data-entity="UC12" data-source-line="23" data-uid="ent0017" id="entity_UC12"><ellipse cx="252.7567" cy="749.0013" fill="#F1F1F1" rx="73.1567" ry="17.0313" style="stroke:#181818;stroke-width:0.5;"/><text fill="#000000" font-family="sans-serif" font-size="14" lengthAdjust="spacing" textLength="114.2285" x="195.6425" y="753.6498">Eliminar alumno</text></g><!--entity UC19--><g class="entity" data-entity="UC19" data-source-line="24" data-uid="ent0018" id="entity_UC19"><ellipse cx="252.7604" cy="678.9981" fill="#F1F1F1" rx="77.5904" ry="17.9181" style="stroke:#181818;stroke-width:0.5;"/><text fill="#000000" font-family="sans-serif" font-size="14" lengthAdjust="spacing" textLength="124.9609" x="190.28" y="683.6465">Importar alumnos</text></g><!--entity UC13--><g class="entity" data-entity="UC13" data-source-line="28" data-uid="ent0020" id="entity_UC13"><ellipse cx="252.7638" cy="1494.0008" fill="#F1F1F1" rx="96.3038" ry="21.6608" style="stroke:#181818;stroke-width:0.5;"/><text fill="#000000" font-family="sans-serif" font-size="14" lengthAdjust="spacing" textLength="167.877" x="168.8253" y="1498.6492">Asignar alumno a grado</text></g><!--entity UC14--><g class="entity" data-entity="UC14" data-source-line="29" data-uid="ent0021" id="entity_UC14"><ellipse cx="252.7639" cy="1412.9968" fill="#F1F1F1" rx="112.1339" ry="24.8268" style="stroke:#181818;stroke-width:0.5;"/><text fill="#000000" font-family="sans-serif" font-size="14" lengthAdjust="spacing" textLength="202.4873" x="151.5202" y="1417.6452">Desasignar alumno de grado</text></g><!--entity UC15--><g class="entity" data-entity="UC15" data-source-line="30" data-uid="ent0022" id="entity_UC15"><ellipse cx="252.7564" cy="1328.9973" fill="#F1F1F1" rx="106.4864" ry="23.6973" style="stroke:#181818;stroke-width:0.5;"/><text fill="#000000" font-family="sans-serif" font-size="14" lengthAdjust="spacing" textLength="190.2578" x="157.6275" y="1333.6457">Asignar grado a asignatura</text></g><!--entity UC16--><g class="entity" data-entity="UC16" data-source-line="31" data-uid="ent0023" id="entity_UC16"><ellipse cx="252.7582" cy="1242.9976" fill="#F1F1F1" rx="122.5882" ry="26.9176" style="stroke:#181818;stroke-width:0.5;"/><text fill="#000000" font-family="sans-serif" font-size="14" lengthAdjust="spacing" textLength="224.8682" x="140.3242" y="1247.6461">Desasignar grado de asignatura</text></g><!--entity UC17--><g class="entity" data-entity="UC17" data-source-line="32" data-uid="ent0024" id="entity_UC17"><ellipse cx="252.7588" cy="1156.0018" fill="#F1F1F1" rx="111.9088" ry="24.7818" style="stroke:#181818;stroke-width:0.5;"/><text fill="#000000" font-family="sans-serif" font-size="14" lengthAdjust="spacing" textLength="202.002" x="151.7578" y="1160.6502">Asignar alumno a asignatura</text></g><!--entity UC18--><g class="entity" data-entity="UC18" data-source-line="33" data-uid="ent0025" id="entity_UC18"><ellipse cx="252.755" cy="1068.005" fill="#F1F1F1" rx="128.125" ry="28.025" style="stroke:#181818;stroke-width:0.5;"/><text fill="#000000" font-family="sans-serif" font-size="14" lengthAdjust="spacing" textLength="236.6123" x="134.4489" y="1072.6534">Desasignar alumno de asignatura</text></g><!--entity UC20--><g class="entity" data-entity="UC20" data-source-line="38" data-uid="ent0027" id="entity_UC20"><ellipse cx="252.7621" cy="1960.0004" fill="#F1F1F1" rx="70.2021" ry="16.4404" style="stroke:#181818;stroke-width:0.5;"/><text fill="#000000" font-family="sans-serif" font-size="14" lengthAdjust="spacing" textLength="106.8867" x="199.3187" y="1964.6489">Crear pregunta</text></g><!--entity UC21--><g class="entity" data-entity="UC21" data-source-line="39" data-uid="ent0028" id="entity_UC21"><ellipse cx="252.7609" cy="1893.0022" fill="#F1F1F1" rx="67.3609" ry="15.8722" style="stroke:#181818;stroke-width:0.5;"/><text fill="#000000" font-family="sans-serif" font-size="14" lengthAdjust="spacing" textLength="99.6475" x="202.9372" y="1897.6506">Ver preguntas</text></g><!--entity UC22--><g class="entity" data-entity="UC22" data-source-line="40" data-uid="ent0029" id="entity_UC22"><ellipse cx="252.7577" cy="1824.9975" fill="#F1F1F1" rx="71.3877" ry="16.6775" style="stroke:#181818;stroke-width:0.5;"/><text fill="#000000" font-family="sans-serif" font-size="14" lengthAdjust="spacing" textLength="109.8535" x="197.8309" y="1829.646">Editar pregunta</text></g><!--entity UC23--><g class="entity" data-entity="UC23" data-source-line="41" data-uid="ent0030" id="entity_UC23"><ellipse cx="252.7586" cy="1754.9957" fill="#F1F1F1" rx="77.9286" ry="17.9857" style="stroke:#181818;stroke-width:0.5;"/><text fill="#000000" font-family="sans-serif" font-size="14" lengthAdjust="spacing" textLength="125.7676" x="189.8748" y="1759.6442">Eliminar pregunta</text></g><!--entity UC24--><g class="entity" data-entity="UC24" data-source-line="42" data-uid="ent0031" id="entity_UC24"><ellipse cx="252.7558" cy="1682.9972" fill="#F1F1F1" rx="82.4858" ry="18.8972" style="stroke:#181818;stroke-width:0.5;"/><text fill="#000000" font-family="sans-serif" font-size="14" lengthAdjust="spacing" textLength="136.5" x="184.5058" y="1687.6456">Importar preguntas</text></g><!--entity UC25--><g class="entity" data-entity="UC25" data-source-line="43" data-uid="ent0032" id="entity_UC25"><ellipse cx="252.763" cy="1610.0026" fill="#F1F1F1" rx="82.213" ry="18.8426" style="stroke:#181818;stroke-width:0.5;"/><text fill="#000000" font-family="sans-serif" font-size="14" lengthAdjust="spacing" textLength="135.8643" x="184.8309" y="1614.651">Exportar preguntas</text></g><!--entity UC26--><g class="entity" data-entity="UC26" data-source-line="47" data-uid="ent0034" id="entity_UC26"><ellipse cx="252.7635" cy="2162.0007" fill="#F1F1F1" rx="114.1535" ry="25.2307" style="stroke:#181818;stroke-width:0.5;"/><text fill="#000000" font-family="sans-serif" font-size="14" lengthAdjust="spacing" textLength="206.835" x="149.346" y="2166.6491">Exportar configuraci&#243;n global</text></g><!--entity UC27--><g class="entity" data-entity="UC27" data-source-line="48" data-uid="ent0035" id="entity_UC27"><ellipse cx="252.7593" cy="2075.9999" fill="#F1F1F1" rx="114.4493" ry="25.2899" style="stroke:#181818;stroke-width:0.5;"/><text fill="#000000" font-family="sans-serif" font-size="14" lengthAdjust="spacing" textLength="207.4707" x="149.024" y="2080.6483">Importar configuraci&#243;n global</text></g><!--entity UC28--><g class="entity" data-entity="UC28" data-source-line="52" data-uid="ent0037" id="entity_UC28"><ellipse cx="252.7601" cy="2350" fill="#F1F1F1" rx="73.6501" ry="17.13" style="stroke:#181818;stroke-width:0.5;"/><text fill="#000000" font-family="sans-serif" font-size="14" lengthAdjust="spacing" textLength="115.4385" x="195.0409" y="2354.6485">Crear examenes</text></g><!--entity UC29--><g class="entity" data-entity="UC29" data-source-line="53" data-uid="ent0038" id="entity_UC29"><ellipse cx="252.7647" cy="2279.9969" fill="#F1F1F1" rx="79.6347" ry="18.3269" style="stroke:#181818;stroke-width:0.5;"/><text fill="#000000" font-family="sans-serif" font-size="14" lengthAdjust="spacing" textLength="129.8145" x="187.8575" y="2284.6454">Asignar examenes</text></g><!--entity UC31--><g class="entity" data-entity="UC31" data-source-line="58" data-uid="ent0040" id="entity_UC31"><ellipse cx="252.7567" cy="2460.9993" fill="#F1F1F1" rx="81.3967" ry="18.6793" style="stroke:#181818;stroke-width:0.5;"/><text fill="#000000" font-family="sans-serif" font-size="14" lengthAdjust="spacing" textLength="133.957" x="185.7782" y="2465.6478">Corregir ex&#225;menes</text></g><!--entity UC41--><g class="entity" data-entity="UC41" data-source-line="62" data-uid="ent0042" id="entity_UC41"><ellipse cx="252.7611" cy="2636.0042" fill="#F1F1F1" rx="64.3711" ry="15.2742" style="stroke:#181818;stroke-width:0.5;"/><text fill="#000000" font-family="sans-serif" font-size="14" lengthAdjust="spacing" textLength="91.793" x="206.8646" y="2640.6527">Iniciar sesi&#243;n</text></g><!--entity UC42--><g class="entity" data-entity="UC42" data-source-line="63" data-uid="ent0043" id="entity_UC42"><ellipse cx="252.7646" cy="2570.0009" fill="#F1F1F1" rx="64.9046" ry="15.3809" style="stroke:#181818;stroke-width:0.5;"/><text fill="#000000" font-family="sans-serif" font-size="14" lengthAdjust="spacing" textLength="93.2148" x="206.1572" y="2574.6494">Cerrar sesi&#243;n</text></g><!--entity doc--><g class="entity" data-entity="doc" data-source-line="3" data-uid="ent0002" id="entity_doc"><ellipse cx="35.3159" cy="1256.35" fill="#F1F1F1" rx="8" ry="8" style="stroke:#181818;stroke-width:0.5;"/><path d="M35.3159,1264.35 L35.3159,1291.35 M22.3159,1272.35 L48.3159,1272.35 M35.3159,1291.35 L22.3159,1306.35 M35.3159,1291.35 L48.3159,1306.35" fill="none" style="stroke:#181818;stroke-width:0.5;"/><text fill="#000000" font-family="sans-serif" font-size="14" lengthAdjust="spacing" textLength="58.6318" x="6" y="1320.8451">Docente</text></g><!--link doc to UC1--><g class="link" data-entity-1="doc" data-entity-2="UC1" data-source-line="66" data-uid="lnk44" id="link_doc_UC1"><path d="M36.64,1247.5 C38.38,1077.94 48.53,402.62 100.63,325 C124.4,289.59 164.4355,272.1293 199.4155,262.2593" fill="none" id="doc-to-UC1" style="stroke:#181818;stroke-width:1;"/><polygon fill="#181818" points="205.19,260.63,195.442,259.2243,200.3779,261.9878,197.6144,266.9237,205.19,260.63" style="stroke:#181818;stroke-width:1;"/></g><!--link doc to UC2--><g class="link" data-entity-1="doc" data-entity-2="UC2" data-source-line="67" data-uid="lnk45" id="link_doc_UC2"><path d="M35.93,1247.55 C34.46,1065.79 32.34,298.26 100.63,219 C124,191.88 158.0927,184.5216 191.1127,183.5216" fill="none" id="doc-to-UC2" style="stroke:#181818;stroke-width:1;"/><polygon fill="#181818" points="197.11,183.34,187.993,179.6143,192.1123,183.4914,188.2352,187.6106,197.11,183.34" style="stroke:#181818;stroke-width:1;"/></g><!--link doc to UC3--><g class="link" data-entity-1="doc" data-entity-2="UC3" data-source-line="68" data-uid="lnk46" id="link_doc_UC3"><path d="M37.21,1247.38 C41.83,1053.86 64.28,197.34 100.63,155 C122.64,129.36 153.6082,121.5242 185.4582,119.8542" fill="none" id="doc-to-UC3" style="stroke:#181818;stroke-width:1;"/><polygon fill="#181818" points="191.45,119.54,182.2529,116.0167,186.4569,119.8018,182.6718,124.0058,191.45,119.54" style="stroke:#181818;stroke-width:1;"/></g><!--link doc to UC4--><g class="link" data-entity-1="doc" data-entity-2="UC4" data-source-line="69" data-uid="lnk47" id="link_doc_UC4"><path d="M37.09,1247.54 C41.28,1047.78 62.43,136.2 100.63,91 C120.94,66.97 148.2769,58.3678 178.4669,55.4978" fill="none" id="doc-to-UC4" style="stroke:#181818;stroke-width:1;"/><polygon fill="#181818" points="184.44,54.93,175.1018,51.7997,179.4624,55.4032,175.8589,59.7638,184.44,54.93" style="stroke:#181818;stroke-width:1;"/></g><!--link doc to UC5--><g class="link" data-entity-1="doc" data-entity-2="UC5" data-source-line="70" data-uid="lnk48" id="link_doc_UC5"><path d="M38.03,1247.59 C44.15,1116.89 66.41,694.76 100.63,645 C123.51,611.73 159.6972,594.104 193.5872,583.224" fill="none" id="doc-to-UC5" style="stroke:#181818;stroke-width:1;"/><polygon fill="#181818" points="199.3,581.39,189.5081,580.3325,194.5393,582.9184,191.9535,587.9496,199.3,581.39" style="stroke:#181818;stroke-width:1;"/></g><!--link doc to UC6--><g class="link" data-entity-1="doc" data-entity-2="UC6" data-source-line="71" data-uid="lnk49" id="link_doc_UC6"><path d="M36.98,1247.8 C39.87,1102.3 53.36,588.18 100.63,534 C120.43,511.3 145.879,502.6431 174.939,499.3131" fill="none" id="doc-to-UC6" style="stroke:#181818;stroke-width:1;"/><polygon fill="#181818" points="180.9,498.63,171.5031,495.6806,175.9325,499.1992,172.4139,503.6286,180.9,498.63" style="stroke:#181818;stroke-width:1;"/></g><!--link doc to UC7--><g class="link" data-entity-1="doc" data-entity-2="UC7" data-source-line="72" data-uid="lnk50" id="link_doc_UC7"><path d="M36.71,1247.56 C38.63,1093.46 49.16,525.79 100.63,466 C119.34,444.26 142.6986,435.3866 170.5386,431.4666" fill="none" id="doc-to-UC7" style="stroke:#181818;stroke-width:1;"/><polygon fill="#181818" points="176.48,430.63,167.0102,427.9239,171.5288,431.3271,168.1256,435.8458,176.48,430.63" style="stroke:#181818;stroke-width:1;"/></g><!--link doc to UC8--><g class="link" data-entity-1="doc" data-entity-2="UC8" data-source-line="73" data-uid="lnk51" id="link_doc_UC8"><path d="M36.47,1247.37 C37.45,1084.79 44.85,461.62 100.63,396 C117.84,375.76 138.2737,366.8162 164.1637,362.1862" fill="none" id="doc-to-UC8" style="stroke:#181818;stroke-width:1;"/><polygon fill="#181818" points="170.07,361.13,160.5064,358.7768,165.1481,362.0102,161.9147,366.6519,170.07,361.13" style="stroke:#181818;stroke-width:1;"/></g><!--link doc to UC9--><g class="link" data-entity-1="doc" data-entity-2="UC9" data-source-line="74" data-uid="lnk52" id="link_doc_UC9"><path d="M36.03,1247.37 C37.6,1192.02 48.07,1089.61 100.63,1024 C127.19,990.85 166.422,973.008 200.422,962.198" fill="none" id="doc-to-UC9" style="stroke:#181818;stroke-width:1;"/><polygon fill="#181818" points="206.14,960.38,196.3511,959.295,201.375,961.895,198.7751,966.9189,206.14,960.38" style="stroke:#181818;stroke-width:1;"/></g><!--link doc to UC10--><g class="link" data-entity-1="doc" data-entity-2="UC10" data-source-line="75" data-uid="lnk53" id="link_doc_UC10"><path d="M37.73,1247.39 C41.64,1162.43 55.53,963.08 100.63,916 C123.39,892.24 152.9894,884.1516 183.9094,881.6616" fill="none" id="doc-to-UC10" style="stroke:#181818;stroke-width:1;"/><polygon fill="#181818" points="189.89,881.18,180.598,877.9153,184.9061,881.5814,181.2401,885.8895,189.89,881.18" style="stroke:#181818;stroke-width:1;"/></g><!--link doc to UC11--><g class="link" data-entity-1="doc" data-entity-2="UC11" data-source-line="76" data-uid="lnk54" id="link_doc_UC11"><path d="M36.59,1247.46 C38.09,1151.83 47.17,907.25 100.63,850 C122.17,826.94 149.7962,818.6504 179.8562,815.8304" fill="none" id="doc-to-UC11" style="stroke:#181818;stroke-width:1;"/><polygon fill="#181818" points="185.83,815.27,176.4957,812.1281,180.8519,815.737,177.243,820.0931,185.83,815.27" style="stroke:#181818;stroke-width:1;"/></g><!--link doc to UC12--><g class="link" data-entity-1="doc" data-entity-2="UC12" data-source-line="77" data-uid="lnk55" id="link_doc_UC12"><path d="M35.79,1247.58 C35.17,1142.2 39.18,851.93 100.63,784 C120.41,762.13 144.9726,753.3626 173.4126,749.5726" fill="none" id="doc-to-UC12" style="stroke:#181818;stroke-width:1;"/><polygon fill="#181818" points="179.36,748.78,169.9105,746.0039,174.4038,749.4405,170.9672,753.9338,179.36,748.78" style="stroke:#181818;stroke-width:1;"/></g><!--link doc to UC13--><g class="link" data-entity-1="doc" data-entity-2="UC13" data-source-line="78" data-uid="lnk56" id="link_doc_UC13"><path d="M40.75,1324.62 C47.24,1363.14 62.96,1421.3 100.63,1455 C118,1470.54 134.9365,1478.5557 157.4965,1484.3157" fill="none" id="doc-to-UC13" style="stroke:#181818;stroke-width:1;"/><polygon fill="#181818" points="163.31,1485.8,155.5793,1479.6979,158.4654,1484.5631,153.6002,1487.4492,163.31,1485.8" style="stroke:#181818;stroke-width:1;"/></g><!--link doc to UC14--><g class="link" data-entity-1="doc" data-entity-2="UC14" data-source-line="79" data-uid="lnk57" id="link_doc_UC14"><path d="M58.04,1324.42 C68.93,1340.59 83.47,1358.33 100.63,1370 C119.13,1382.58 135.5228,1389.8205 157.0928,1396.1505" fill="none" id="doc-to-UC14" style="stroke:#181818;stroke-width:1;"/><polygon fill="#181818" points="162.85,1397.84,155.3405,1391.4676,158.0523,1396.4321,153.0878,1399.1438,162.85,1397.84" style="stroke:#181818;stroke-width:1;"/></g><!--link doc to UC15--><g class="link" data-entity-1="doc" data-entity-2="UC15" data-source-line="80" data-uid="lnk58" id="link_doc_UC15"><path d="M64.92,1291.71 C92.28,1297.17 128.9261,1304.4854 166.4961,1311.9854" fill="none" id="doc-to-UC15" style="stroke:#181818;stroke-width:1;"/><polygon fill="#181818" points="172.38,1313.16,164.3372,1307.4755,167.4767,1312.1812,162.7711,1315.3207,172.38,1313.16" style="stroke:#181818;stroke-width:1;"/></g><!--link doc to UC16--><g class="link" data-entity-1="doc" data-entity-2="UC16" data-source-line="81" data-uid="lnk59" id="link_doc_UC16"><path d="M64.92,1280.29 C89.53,1275.38 120.5361,1269.1947 155.0461,1262.3047" fill="none" id="doc-to-UC16" style="stroke:#181818;stroke-width:1;"/><polygon fill="#181818" points="160.93,1261.13,151.321,1258.9695,156.0268,1262.1089,152.8873,1266.8147,160.93,1261.13" style="stroke:#181818;stroke-width:1;"/></g><!--link doc to UC17--><g class="link" data-entity-1="doc" data-entity-2="UC17" data-source-line="82" data-uid="lnk60" id="link_doc_UC17"><path d="M56.91,1247.53 C67.83,1230.43 82.72,1211.41 100.63,1199 C119.02,1186.26 135.3735,1178.972 156.9435,1172.632" fill="none" id="doc-to-UC17" style="stroke:#181818;stroke-width:1;"/><polygon fill="#181818" points="162.7,1170.94,152.9373,1169.6403,157.9029,1172.35,155.1933,1177.3156,162.7,1170.94" style="stroke:#181818;stroke-width:1;"/></g><!--link doc to UC18--><g class="link" data-entity-1="doc" data-entity-2="UC18" data-source-line="83" data-uid="lnk61" id="link_doc_UC18"><path d="M40.8,1247.4 C47.33,1208.48 63.11,1149.25 100.63,1114 C114.42,1101.04 126.138,1093.8261 144.108,1087.1261" fill="none" id="doc-to-UC18" style="stroke:#181818;stroke-width:1;"/><polygon fill="#181818" points="149.73,1085.03,139.8997,1084.4262,145.045,1086.7768,142.6945,1091.9221,149.73,1085.03" style="stroke:#181818;stroke-width:1;"/></g><!--link doc to UC19--><g class="link" data-entity-1="doc" data-entity-2="UC19" data-source-line="84" data-uid="lnk62" id="link_doc_UC19"><path d="M38.09,1247.66 C44.07,1125.94 65.12,753.88 100.63,714 C119.26,693.08 141.7586,684.295 168.9586,680.145" fill="none" id="doc-to-UC19" style="stroke:#181818;stroke-width:1;"/><polygon fill="#181818" points="174.89,679.24,165.3896,676.6432,169.9472,679.9941,166.5963,684.5517,174.89,679.24" style="stroke:#181818;stroke-width:1;"/></g><!--link doc to UC20--><g class="link" data-entity-1="doc" data-entity-2="UC20" data-source-line="85" data-uid="lnk63" id="link_doc_UC20"><path d="M37.59,1324.23 C42.31,1455.28 60.6,1880.8 100.63,1926 C120.96,1948.95 147.1853,1957.5501 176.6453,1960.7601" fill="none" id="doc-to-UC20" style="stroke:#181818;stroke-width:1;"/><polygon fill="#181818" points="182.61,1961.41,174.0962,1956.4587,177.6394,1960.8684,173.2297,1964.4116,182.61,1961.41" style="stroke:#181818;stroke-width:1;"/></g><!--link doc to UC21--><g class="link" data-entity-1="doc" data-entity-2="UC21" data-source-line="86" data-uid="lnk64" id="link_doc_UC21"><path d="M38.08,1324.41 C44.01,1446.38 64.93,1819.16 100.63,1859 C121.72,1882.53 149.3185,1891.0455 179.4585,1893.9955" fill="none" id="doc-to-UC21" style="stroke:#181818;stroke-width:1;"/><polygon fill="#181818" points="185.43,1894.58,176.8624,1889.7223,180.4538,1894.0929,176.0832,1897.6843,185.43,1894.58" style="stroke:#181818;stroke-width:1;"/></g><!--link doc to UC22--><g class="link" data-entity-1="doc" data-entity-2="UC22" data-source-line="87" data-uid="lnk65" id="link_doc_UC22"><path d="M35.77,1324.57 C35.08,1430.37 38.96,1721.79 100.63,1790 C120.77,1812.27 146.0771,1821.0397 174.9571,1824.6797" fill="none" id="doc-to-UC22" style="stroke:#181818;stroke-width:1;"/><polygon fill="#181818" points="180.91,1825.43,172.4808,1820.336,175.9492,1824.8048,171.4804,1828.2732,180.91,1825.43" style="stroke:#181818;stroke-width:1;"/></g><!--link doc to UC23--><g class="link" data-entity-1="doc" data-entity-2="UC23" data-source-line="88" data-uid="lnk66" id="link_doc_UC23"><path d="M36.7,1324.57 C38.46,1419.65 48.11,1661.73 100.63,1719 C119.5,1739.57 141.8879,1748.4363 168.9279,1752.8363" fill="none" id="doc-to-UC23" style="stroke:#181818;stroke-width:1;"/><polygon fill="#181818" points="174.85,1753.8,166.6093,1748.4064,169.9149,1752.997,165.3244,1756.3026,174.85,1753.8" style="stroke:#181818;stroke-width:1;"/></g><!--link doc to UC24--><g class="link" data-entity-1="doc" data-entity-2="UC24" data-source-line="89" data-uid="lnk67" id="link_doc_UC24"><path d="M38.01,1324.43 C42.48,1407.47 57.34,1599.88 100.63,1646 C118.75,1665.3 139.2472,1674.121 164.9272,1679.041" fill="none" id="doc-to-UC24" style="stroke:#181818;stroke-width:1;"/><polygon fill="#181818" points="170.82,1680.17,162.7334,1674.548,165.9093,1679.2292,161.2281,1682.4051,170.82,1680.17" style="stroke:#181818;stroke-width:1;"/></g><!--link doc to UC25--><g class="link" data-entity-1="doc" data-entity-2="UC25" data-source-line="90" data-uid="lnk68" id="link_doc_UC25"><path d="M36.96,1324.39 C39.75,1376.75 51.8,1471 100.63,1532 C125.73,1563.35 161.1669,1581.3616 194.1669,1593.2816" fill="none" id="doc-to-UC25" style="stroke:#181818;stroke-width:1;"/><polygon fill="#181818" points="199.81,1595.32,192.7042,1588.5003,195.1074,1593.6214,189.9864,1596.0245,199.81,1595.32" style="stroke:#181818;stroke-width:1;"/></g><!--link doc to UC26--><g class="link" data-entity-1="doc" data-entity-2="UC26" data-source-line="91" data-uid="lnk69" id="link_doc_UC26"><path d="M36.74,1324.45 C38.81,1479.93 49.85,2056.88 100.63,2119 C113.15,2134.31 125.0404,2142.4077 143.7604,2148.9977" fill="none" id="doc-to-UC26" style="stroke:#181818;stroke-width:1;"/><polygon fill="#181818" points="149.42,2150.99,142.2589,2144.2285,144.7037,2149.3297,139.6024,2151.7745,149.42,2150.99" style="stroke:#181818;stroke-width:1;"/></g><!--link doc to UC27--><g class="link" data-entity-1="doc" data-entity-2="UC27" data-source-line="92" data-uid="lnk70" id="link_doc_UC27"><path d="M37.73,1324.33 C43.13,1463.35 64.03,1935.79 100.63,1992 C120.12,2021.93 148.6285,2039.8421 179.4585,2052.9521" fill="none" id="doc-to-UC27" style="stroke:#181818;stroke-width:1;"/><polygon fill="#181818" points="184.98,2055.3,178.263,2048.0971,180.3787,2053.3434,175.1324,2055.4591,184.98,2055.3" style="stroke:#181818;stroke-width:1;"/></g><!--link doc to UC28--><g class="link" data-entity-1="doc" data-entity-2="UC28" data-source-line="93" data-uid="lnk71" id="link_doc_UC28"><path d="M36.04,1324.58 C35.11,1502.59 35.29,2239.35 100.63,2316 C119.82,2338.51 144.4627,2347.2452 173.1327,2350.6852" fill="none" id="doc-to-UC28" style="stroke:#181818;stroke-width:1;"/><polygon fill="#181818" points="179.09,2351.4,170.6306,2346.3563,174.1256,2350.8043,169.6776,2354.2993,179.09,2351.4" style="stroke:#181818;stroke-width:1;"/></g><!--link doc to UC29--><g class="link" data-entity-1="doc" data-entity-2="UC29" data-source-line="94" data-uid="lnk72" id="link_doc_UC29"><path d="M36.81,1324.64 C39.19,1489.49 51.57,2128.9 100.63,2203 C122.5,2236.02 157.405,2253.7113 191.025,2264.8613" fill="none" id="doc-to-UC29" style="stroke:#181818;stroke-width:1;"/><polygon fill="#181818" points="196.72,2266.75,189.4367,2260.1203,191.9742,2265.1761,186.9184,2267.7136,196.72,2266.75" style="stroke:#181818;stroke-width:1;"/></g><!--link doc to UC31--><g class="link" data-entity-1="doc" data-entity-2="UC31" data-source-line="95" data-uid="lnk73" id="link_doc_UC31"><path d="M36.34,1324.55 C36.75,1508.6 41.95,2292.73 100.63,2383 C122.2,2416.17 156.9054,2434.0703 190.5154,2445.4203" fill="none" id="doc-to-UC31" style="stroke:#181818;stroke-width:1;"/><polygon fill="#181818" points="196.2,2447.34,188.9529,2440.6707,191.4628,2445.7403,186.3933,2448.2502,196.2,2447.34" style="stroke:#181818;stroke-width:1;"/></g><!--link doc to UC41--><g class="link" data-entity-1="doc" data-entity-2="UC41" data-source-line="96" data-uid="lnk74" id="link_doc_UC41"><path d="M36.89,1324.49 C40.2,1536.39 58.26,2552.92 100.63,2603 C121.97,2628.22 151.7038,2636.4134 183.0638,2638.5434" fill="none" id="doc-to-UC41" style="stroke:#181818;stroke-width:1;"/><polygon fill="#181818" points="189.05,2638.95,180.3417,2634.3493,184.0615,2638.6112,179.7996,2642.3309,189.05,2638.95" style="stroke:#181818;stroke-width:1;"/></g><!--link doc to UC42--><g class="link" data-entity-1="doc" data-entity-2="UC42" data-source-line="97" data-uid="lnk75" id="link_doc_UC42"><path d="M36.07,1324.58 C35.14,1520.13 34.71,2396.31 100.63,2496 C123.68,2530.85 162.3634,2548.1927 197.1234,2558.1827" fill="none" id="doc-to-UC42" style="stroke:#181818;stroke-width:1;"/><polygon fill="#181818" points="202.89,2559.84,195.345,2553.5097,198.0845,2558.4589,193.1353,2561.1984,202.89,2559.84" style="stroke:#181818;stroke-width:1;"/></g><!--SRC=[XLNBRjim4BphAmZV0vZq-r8WK0mZXm85YlREKXk5g4mQ90K4AF8n-OPyWd-iUbZMabexjnLcTcQuNDCLl0GMB7EwV0siq0vKqDPacLJ1EZPxiWfCW1cJdXLMPTb9gh-o13RxVluiwigoWvE5dR5_6MEr1oLzW-KEf6DbZpITltAEuTzm0Vq55HZT5peatOi8h_HHcuInpDw9R8zUbqQ6saaoe4Hmfx9AKuwC8UgQY3hHsP1v9xGj7RggZuQUgBn0NVTk4hP3Xw1yJYN50fpJCIDEUpKZwVbuicuKkdhjxenVDVi4FZbF3mqwJCRB4jtt4tWPimk8wKjAkMCqmfEfyzKDzRwZ4P-shEzcd_8tNnvWshFD63d50_YWpv-cxVhXeAnDa9vSZzC57NvLytH3JcDxp-34ZgGgWjoIb1LTsNLD9eRHLUtVRj5Mv2HoQrvqsOnCTVCuW04dgsGKLr4LiylA_cd9lS6QZ7ktPKDcsh_98nZoEg23u7geBRL4AMbtOmjowvgtkSkLchL8gLkfymVMMd1IwITuGkNPQAMRF7v0-sSrMf0Sd9jIHElI_3UmXuTltKi_rWBL2rGlKRr2zHhL6rHlKRt3NdFyWPqvjkROcsDpZjqvjkVOd-C072SGE868peuJ29n0u0G29n0uWS0914uWS885Dbr67-8_]--></g></svg>