<svg xmlns="http://www.w3.org/2000/svg" xmlns:xlink="http://www.w3.org/1999/xlink" contentStyleType="text/css" data-diagram-type="DESCRIPTION" height="99px" preserveAspectRatio="none" style="width:270px;height:99px;background:#FFFFFF;" version="1.1" viewBox="0 0 270 99" width="270px" zoomAndPan="magnify"><defs/><g><!--cluster M?dulo Sesi?n--><g class="cluster" data-entity="M.dulo Sesi.n" data-source-line="5" data-uid="ent0003" id="cluster_M.dulo Sesi.n"><path d="M104.64,6 L220.764,6 A3.75,3.75 0 0 1 223.264,8.5 L230.264,28.2969 L261.45,28.2969 A2.5,2.5 0 0 1 263.95,30.7969 L263.95,84.5 A2.5,2.5 0 0 1 261.45,87 L104.64,87 A2.5,2.5 0 0 1 102.14,84.5 L102.14,8.5 A2.5,2.5 0 0 1 104.64,6" fill="none" style="stroke:#000000;stroke-width:1.5;"/><line style="stroke:#000000;stroke-width:1.5;" x1="102.14" x2="230.264" y1="28.2969" y2="28.2969"/><text fill="#000000" font-family="sans-serif" font-size="14" font-weight="bold" lengthAdjust="spacing" textLength="115.124" x="106.14" y="20.9951">M&#243;dulo Sesi&#243;n</text></g><!--entity UC40--><g class="entity" data-entity="UC40" data-source-line="6" data-uid="ent0004" id="entity_UC40"><ellipse cx="183.0546" cy="56.0009" fill="#F1F1F1" rx="64.9046" ry="15.3809" style="stroke:#181818;stroke-width:0.5;"/><text fill="#000000" font-family="sans-serif" font-size="14" lengthAdjust="spacing" textLength="93.2148" x="136.4472" y="60.6494">Cerrar sesi&#243;n</text></g><!--entity tiempo--><g class="entity" data-entity="tiempo" data-source-line="3" data-uid="ent0002" id="entity_tiempo"><ellipse cx="32.0723" cy="26.35" fill="#F1F1F1" rx="8" ry="8" style="stroke:#181818;stroke-width:0.5;"/><path d="M32.0723,34.35 L32.0723,61.35 M19.0723,42.35 L45.0723,42.35 M32.0723,61.35 L19.0723,76.35 M32.0723,61.35 L45.0723,76.35" fill="none" style="stroke:#181818;stroke-width:0.5;"/><text fill="#000000" font-family="sans-serif" font-size="14" lengthAdjust="spacing" textLength="52.1445" x="6" y="90.8451">Tiempo</text></g><!--link tiempo to UC40--><g class="link" data-entity-1="tiempo" data-entity-2="UC40" data-source-line="9" data-uid="lnk5" id="link_tiempo_UC40"><path d="M58.34,56 C74.7,56 90.78,56 111.76,56" fill="none" id="tiempo-to-UC40" style="stroke:#181818;stroke-width:1;"/><polygon fill="#181818" points="117.76,56,108.76,52,112.76,56,108.76,60,117.76,56" style="stroke:#181818;stroke-width:1;"/></g><!--SRC=[DOon3S9G30LxJ_7q-qWKr3IfgO01h1yJB48SsKw5c2eZP36Y8BhJdNI3t1DfSEqVYKvTQggDH5pJ7EMgyfgiW0Ev8z74zScze9pNfPi7mqL2rsKiU1CmXrIEhRRYpexun-rmQuy7-X3zJcYQqww-]--></g></svg>