<svg xmlns="http://www.w3.org/2000/svg" xmlns:xlink="http://www.w3.org/1999/xlink" contentStyleType="text/css" data-diagram-type="DESCRIPTION" height="2942px" preserveAspectRatio="none" style="width:548px;height:2942px;background:#FFFFFF;" version="1.1" viewBox="0 0 548 2942" width="548px" zoomAndPan="magnify"><defs/><g><!--cluster M?dulo Grado--><g class="cluster" data-entity="M.dulo Grado" data-source-line="7" data-uid="ent0005" id="cluster_M.dulo Grado"><path d="M307.5,1428 L418.8115,1428 A3.75,3.75 0 0 1 421.3115,1430.5 L428.3115,1450.2969 L471.5,1450.2969 A2.5,2.5 0 0 1 474,1452.7969 L474,1702.5 A2.5,2.5 0 0 1 471.5,1705 L307.5,1705 A2.5,2.5 0 0 1 305,1702.5 L305,1430.5 A2.5,2.5 0 0 1 307.5,1428" fill="none" style="stroke:#000000;stroke-width:1.5;"/><line style="stroke:#000000;stroke-width:1.5;" x1="305" x2="428.3115" y1="1450.2969" y2="1450.2969"/><text fill="#000000" font-family="sans-serif" font-size="14" font-weight="bold" lengthAdjust="spacing" textLength="110.3115" x="309" y="1442.9951">M&#243;dulo Grado</text></g><!--cluster M?dulo Asignatura--><g class="cluster" data-entity="M.dulo Asignatura" data-source-line="14" data-uid="ent0010" id="cluster_M.dulo Asignatura"><path d="M293.5,1729 L443.7422,1729 A3.75,3.75 0 0 1 446.2422,1731.5 L453.2422,1751.2969 L485.5,1751.2969 A2.5,2.5 0 0 1 488,1753.7969 L488,2024.5 A2.5,2.5 0 0 1 485.5,2027 L293.5,2027 A2.5,2.5 0 0 1 291,2024.5 L291,1731.5 A2.5,2.5 0 0 1 293.5,1729" fill="none" style="stroke:#000000;stroke-width:1.5;"/><line style="stroke:#000000;stroke-width:1.5;" x1="291" x2="453.2422" y1="1751.2969" y2="1751.2969"/><text fill="#000000" font-family="sans-serif" font-size="14" font-weight="bold" lengthAdjust="spacing" textLength="149.2422" x="295" y="1743.9951">M&#243;dulo Asignatura</text></g><!--cluster M?dulo Alumno--><g class="cluster" data-entity="M.dulo Alumno" data-source-line="21" data-uid="ent0015" id="cluster_M.dulo Alumno"><path d="M298.5,6 L422.1025,6 A3.75,3.75 0 0 1 424.6025,8.5 L431.6025,28.2969 L480.5,28.2969 A2.5,2.5 0 0 1 483,30.7969 L483,429.5 A2.5,2.5 0 0 1 480.5,432 L298.5,432 A2.5,2.5 0 0 1 296,429.5 L296,8.5 A2.5,2.5 0 0 1 298.5,6" fill="none" style="stroke:#000000;stroke-width:1.5;"/><line style="stroke:#000000;stroke-width:1.5;" x1="296" x2="431.6025" y1="28.2969" y2="28.2969"/><text fill="#000000" font-family="sans-serif" font-size="14" font-weight="bold" lengthAdjust="spacing" textLength="122.6025" x="300" y="20.9951">M&#243;dulo Alumno</text></g><!--cluster M?dulo Gesti?n de Preguntas--><g class="cluster" data-entity="M.dulo Gesti.n de Preguntas" data-source-line="32" data-uid="ent0022" id="cluster_M.dulo Gesti.n de Preguntas"><path d="M267.5,456 L502.0771,456 A3.75,3.75 0 0 1 504.5771,458.5 L511.5771,478.2969 L511.5,478.2969 A2.5,2.5 0 0 1 514,480.7969 L514,891.5 A2.5,2.5 0 0 1 511.5,894 L267.5,894 A2.5,2.5 0 0 1 265,891.5 L265,458.5 A2.5,2.5 0 0 1 267.5,456" fill="none" style="stroke:#000000;stroke-width:1.5;"/><line style="stroke:#000000;stroke-width:1.5;" x1="265" x2="511.5771" y1="478.2969" y2="478.2969"/><text fill="#000000" font-family="sans-serif" font-size="14" font-weight="bold" lengthAdjust="spacing" textLength="233.5771" x="269" y="470.9951">M&#243;dulo Gesti&#243;n de Preguntas</text></g><!--cluster M?dulo Configuraci?n General--><g class="cluster" data-entity="M.dulo Configuraci.n General" data-source-line="41" data-uid="ent0029" id="cluster_M.dulo Configuraci.n General"><path d="M261.5,918 L501.5732,918 A3.75,3.75 0 0 1 504.0732,920.5 L511.0732,940.2969 L517.5,940.2969 A2.5,2.5 0 0 1 520,942.7969 L520,1103.5 A2.5,2.5 0 0 1 517.5,1106 L261.5,1106 A2.5,2.5 0 0 1 259,1103.5 L259,920.5 A2.5,2.5 0 0 1 261.5,918" fill="none" style="stroke:#000000;stroke-width:1.5;"/><line style="stroke:#000000;stroke-width:1.5;" x1="259" x2="511.0732" y1="940.2969" y2="940.2969"/><text fill="#000000" font-family="sans-serif" font-size="14" font-weight="bold" lengthAdjust="spacing" textLength="239.0732" x="263" y="932.9951">M&#243;dulo Configuraci&#243;n General</text></g><!--cluster M?dulo Examen--><g class="cluster" data-entity="M.dulo Examen" data-source-line="46" data-uid="ent0032" id="cluster_M.dulo Examen"><path d="M294.5,1130 L420.4199,1130 A3.75,3.75 0 0 1 422.9199,1132.5 L429.9199,1152.2969 L484.5,1152.2969 A2.5,2.5 0 0 1 487,1154.7969 L487,1288.5 A2.5,2.5 0 0 1 484.5,1291 L294.5,1291 A2.5,2.5 0 0 1 292,1288.5 L292,1132.5 A2.5,2.5 0 0 1 294.5,1130" fill="none" style="stroke:#000000;stroke-width:1.5;"/><line style="stroke:#000000;stroke-width:1.5;" x1="292" x2="429.9199" y1="1152.2969" y2="1152.2969"/><text fill="#000000" font-family="sans-serif" font-size="14" font-weight="bold" lengthAdjust="spacing" textLength="124.9199" x="296" y="1144.9951">M&#243;dulo Examen</text></g><!--cluster M?dulo Correcci?n--><g class="cluster" data-entity="M.dulo Correcci.n" data-source-line="51" data-uid="ent0035" id="cluster_M.dulo Correcci.n"><path d="M294.5,1315 L442.5068,1315 A3.75,3.75 0 0 1 445.0068,1317.5 L452.0068,1337.2969 L484.5,1337.2969 A2.5,2.5 0 0 1 487,1339.7969 L487,1401.5 A2.5,2.5 0 0 1 484.5,1404 L294.5,1404 A2.5,2.5 0 0 1 292,1401.5 L292,1317.5 A2.5,2.5 0 0 1 294.5,1315" fill="none" style="stroke:#000000;stroke-width:1.5;"/><line style="stroke:#000000;stroke-width:1.5;" x1="292" x2="452.0068" y1="1337.2969" y2="1337.2969"/><text fill="#000000" font-family="sans-serif" font-size="14" font-weight="bold" lengthAdjust="spacing" textLength="147.0068" x="296" y="1329.9951">M&#243;dulo Correcci&#243;n</text></g><!--cluster M?dulo Docentes--><g class="cluster" data-entity="M.dulo Docentes" data-source-line="55" data-uid="ent0037" id="cluster_M.dulo Docentes"><path d="M300.5,2647 L437.8496,2647 A3.75,3.75 0 0 1 440.3496,2649.5 L447.3496,2669.2969 L478.5,2669.2969 A2.5,2.5 0 0 1 481,2671.7969 L481,2932.5 A2.5,2.5 0 0 1 478.5,2935 L300.5,2935 A2.5,2.5 0 0 1 298,2932.5 L298,2649.5 A2.5,2.5 0 0 1 300.5,2647" fill="none" style="stroke:#000000;stroke-width:1.5;"/><line style="stroke:#000000;stroke-width:1.5;" x1="298" x2="447.3496" y1="2669.2969" y2="2669.2969"/><text fill="#000000" font-family="sans-serif" font-size="14" font-weight="bold" lengthAdjust="spacing" textLength="136.3496" x="302" y="2661.9951">M&#243;dulo Docentes</text></g><!--cluster M?dulo Gesti?n Licencias(intencion)--><g class="cluster" data-entity="M.dulo Gesti.n Licencias.intencion." data-source-line="62" data-uid="ent0042" id="cluster_M.dulo Gesti.n Licencias.intencion."><path d="M241.5,2337 L529.3564,2337 A3.75,3.75 0 0 1 531.8564,2339.5 L538.8564,2359.2969 L538.5,2359.2969 A2.5,2.5 0 0 1 541,2361.7969 L541,2620.5 A2.5,2.5 0 0 1 538.5,2623 L241.5,2623 A2.5,2.5 0 0 1 239,2620.5 L239,2339.5 A2.5,2.5 0 0 1 241.5,2337" fill="none" style="stroke:#000000;stroke-width:1.5;"/><line style="stroke:#000000;stroke-width:1.5;" x1="239" x2="538.8564" y1="2359.2969" y2="2359.2969"/><text fill="#000000" font-family="sans-serif" font-size="14" font-weight="bold" lengthAdjust="spacing" textLength="286.8564" x="243" y="2351.9951">M&#243;dulo Gesti&#243;n Licencias(intencion)</text></g><!--cluster M?dulo Sesi?n--><g class="cluster" data-entity="M.dulo Sesi.n" data-source-line="69" data-uid="ent0047" id="cluster_M.dulo Sesi.n"><path d="M311,2164 L427.124,2164 A3.75,3.75 0 0 1 429.624,2166.5 L436.624,2186.2969 L468,2186.2969 A2.5,2.5 0 0 1 470.5,2188.7969 L470.5,2310.5 A2.5,2.5 0 0 1 468,2313 L311,2313 A2.5,2.5 0 0 1 308.5,2310.5 L308.5,2166.5 A2.5,2.5 0 0 1 311,2164" fill="none" style="stroke:#000000;stroke-width:1.5;"/><line style="stroke:#000000;stroke-width:1.5;" x1="308.5" x2="436.624" y1="2186.2969" y2="2186.2969"/><text fill="#000000" font-family="sans-serif" font-size="14" font-weight="bold" lengthAdjust="spacing" textLength="115.124" x="312.5" y="2178.9951">M&#243;dulo Sesi&#243;n</text></g><!--cluster M?dulo Gesti?n--><g class="cluster" data-entity="M.dulo Gesti.n" data-source-line="74" data-uid="ent0050" id="cluster_M.dulo Gesti.n"><path d="M296,2051 L420.2246,2051 A3.75,3.75 0 0 1 422.7246,2053.5 L429.7246,2073.2969 L483,2073.2969 A2.5,2.5 0 0 1 485.5,2075.7969 L485.5,2137.5 A2.5,2.5 0 0 1 483,2140 L296,2140 A2.5,2.5 0 0 1 293.5,2137.5 L293.5,2053.5 A2.5,2.5 0 0 1 296,2051" fill="none" style="stroke:#000000;stroke-width:1.5;"/><line style="stroke:#000000;stroke-width:1.5;" x1="293.5" x2="429.7246" y1="2073.2969" y2="2073.2969"/><text fill="#000000" font-family="sans-serif" font-size="14" font-weight="bold" lengthAdjust="spacing" textLength="123.2246" x="297.5" y="2065.9951">M&#243;dulo Gesti&#243;n</text></g><!--entity UC1--><g class="entity" data-entity="UC1" data-source-line="8" data-uid="ent0006" id="entity_UC1"><ellipse cx="389.3722" cy="1478.1744" fill="#F1F1F1" rx="61.3722" ry="14.6744" style="stroke:#181818;stroke-width:0.5;"/><text fill="#000000" font-family="sans-serif" font-size="14" lengthAdjust="spacing" textLength="83.6035" x="347.5704" y="1482.8229">Crear grado</text></g><!--entity UC2--><g class="entity" data-entity="UC2" data-source-line="9" data-uid="ent0007" id="entity_UC2"><ellipse cx="389.4977" cy="1542.0236" fill="#F1F1F1" rx="56.9977" ry="14.5236" style="stroke:#181818;stroke-width:0.5;"/><text fill="#000000" font-family="sans-serif" font-size="14" lengthAdjust="spacing" textLength="76.3643" x="351.3156" y="1546.6721">Ver grados</text></g><!--entity UC3--><g class="entity" data-entity="UC3" data-source-line="10" data-uid="ent0008" id="entity_UC3"><ellipse cx="389.4435" cy="1606.8887" fill="#F1F1F1" rx="62.4435" ry="14.8887" style="stroke:#181818;stroke-width:0.5;"/><text fill="#000000" font-family="sans-serif" font-size="14" lengthAdjust="spacing" textLength="86.5703" x="346.1584" y="1611.5371">Editar grado</text></g><!--entity UC4--><g class="entity" data-entity="UC4" data-source-line="11" data-uid="ent0009" id="entity_UC4"><ellipse cx="389.4652" cy="1673.093" fill="#F1F1F1" rx="68.4652" ry="16.093" style="stroke:#181818;stroke-width:0.5;"/><text fill="#000000" font-family="sans-serif" font-size="14" lengthAdjust="spacing" textLength="102.4844" x="338.223" y="1677.7415">Eliminar grado</text></g><!--entity UC5--><g class="entity" data-entity="UC5" data-source-line="15" data-uid="ent0011" id="entity_UC5"><ellipse cx="389.5886" cy="1781.8177" fill="#F1F1F1" rx="74.5886" ry="17.3177" style="stroke:#181818;stroke-width:0.5;"/><text fill="#000000" font-family="sans-serif" font-size="14" lengthAdjust="spacing" textLength="117.7285" x="330.7243" y="1786.4662">Crear asignatura</text></g><!--entity UC6--><g class="entity" data-entity="UC6" data-source-line="16" data-uid="ent0012" id="entity_UC6"><ellipse cx="389.6432" cy="1851.2286" fill="#F1F1F1" rx="71.6432" ry="16.7286" style="stroke:#181818;stroke-width:0.5;"/><text fill="#000000" font-family="sans-serif" font-size="14" lengthAdjust="spacing" textLength="110.4893" x="334.3986" y="1855.8771">Ver asignaturas</text></g><!--entity UC7--><g class="entity" data-entity="UC7" data-source-line="17" data-uid="ent0013" id="entity_UC7"><ellipse cx="389.3132" cy="1920.0626" fill="#F1F1F1" rx="75.8132" ry="17.5626" style="stroke:#181818;stroke-width:0.5;"/><text fill="#000000" font-family="sans-serif" font-size="14" lengthAdjust="spacing" textLength="120.6953" x="328.9656" y="1924.7111">Editar asignatura</text></g><!--entity UC8--><g class="entity" data-entity="UC8" data-source-line="18" data-uid="ent0014" id="entity_UC8"><ellipse cx="389.5327" cy="1991.9065" fill="#F1F1F1" rx="82.5327" ry="18.9065" style="stroke:#181818;stroke-width:0.5;"/><text fill="#000000" font-family="sans-serif" font-size="14" lengthAdjust="spacing" textLength="136.6094" x="321.228" y="1996.555">Eliminar asignatura</text></g><!--entity UC9--><g class="entity" data-entity="UC9" data-source-line="22" data-uid="ent0016" id="entity_UC9"><ellipse cx="389.7114" cy="57.0423" fill="#F1F1F1" rx="65.7114" ry="15.5423" style="stroke:#181818;stroke-width:0.5;"/><text fill="#000000" font-family="sans-serif" font-size="14" lengthAdjust="spacing" textLength="95.3477" x="342.0376" y="61.6907">Crear alumno</text></g><!--entity UC10--><g class="entity" data-entity="UC10" data-source-line="23" data-uid="ent0017" id="entity_UC10"><ellipse cx="389.5058" cy="123.0012" fill="#F1F1F1" rx="63.0058" ry="15.0012" style="stroke:#181818;stroke-width:0.5;"/><text fill="#000000" font-family="sans-serif" font-size="14" lengthAdjust="spacing" textLength="88.1084" x="345.4516" y="127.6496">Ver alumnos</text></g><!--entity UC11--><g class="entity" data-entity="UC11" data-source-line="24" data-uid="ent0018" id="entity_UC11"><ellipse cx="389.3464" cy="188.7693" fill="#F1F1F1" rx="66.8464" ry="15.7693" style="stroke:#181818;stroke-width:0.5;"/><text fill="#000000" font-family="sans-serif" font-size="14" lengthAdjust="spacing" textLength="98.3145" x="340.1891" y="193.4177">Editar alumno</text></g><!--entity UC12--><g class="entity" data-entity="UC12" data-source-line="25" data-uid="ent0019" id="entity_UC12"><ellipse cx="389.6567" cy="257.0313" fill="#F1F1F1" rx="73.1567" ry="17.0313" style="stroke:#181818;stroke-width:0.5;"/><text fill="#000000" font-family="sans-serif" font-size="14" lengthAdjust="spacing" textLength="114.2285" x="332.5425" y="261.6798">Eliminar alumno</text></g><!--entity UC19--><g class="entity" data-entity="UC19" data-source-line="26" data-uid="ent0020" id="entity_UC19"><ellipse cx="389.5904" cy="326.9181" fill="#F1F1F1" rx="77.5904" ry="17.9181" style="stroke:#181818;stroke-width:0.5;"/><text fill="#000000" font-family="sans-serif" font-size="14" lengthAdjust="spacing" textLength="124.9609" x="327.11" y="331.5665">Importar alumnos</text></g><!--entity UC17--><g class="entity" data-entity="UC17" data-source-line="27" data-uid="ent0021" id="entity_UC17"><ellipse cx="389.3244" cy="397.8649" fill="#F1F1F1" rx="77.3244" ry="17.8649" style="stroke:#181818;stroke-width:0.5;"/><text fill="#000000" font-family="sans-serif" font-size="14" lengthAdjust="spacing" textLength="124.3252" x="327.1618" y="402.5133">Exportar alumnos</text></g><!--entity UC20--><g class="entity" data-entity="UC20" data-source-line="33" data-uid="ent0023" id="entity_UC20"><ellipse cx="389.7021" cy="507.9404" fill="#F1F1F1" rx="70.2021" ry="16.4404" style="stroke:#181818;stroke-width:0.5;"/><text fill="#000000" font-family="sans-serif" font-size="14" lengthAdjust="spacing" textLength="106.8867" x="336.2587" y="512.5889">Crear pregunta</text></g><!--entity UC21--><g class="entity" data-entity="UC21" data-source-line="34" data-uid="ent0024" id="entity_UC21"><ellipse cx="389.3609" cy="575.8722" fill="#F1F1F1" rx="67.3609" ry="15.8722" style="stroke:#181818;stroke-width:0.5;"/><text fill="#000000" font-family="sans-serif" font-size="14" lengthAdjust="spacing" textLength="99.6475" x="339.5372" y="580.5206">Ver preguntas</text></g><!--entity UC22--><g class="entity" data-entity="UC22" data-source-line="35" data-uid="ent0025" id="entity_UC22"><ellipse cx="389.3877" cy="644.1775" fill="#F1F1F1" rx="71.3877" ry="16.6775" style="stroke:#181818;stroke-width:0.5;"/><text fill="#000000" font-family="sans-serif" font-size="14" lengthAdjust="spacing" textLength="109.8535" x="334.4609" y="648.826">Editar pregunta</text></g><!--entity UC23--><g class="entity" data-entity="UC23" data-source-line="36" data-uid="ent0026" id="entity_UC23"><ellipse cx="389.4286" cy="713.9857" fill="#F1F1F1" rx="77.9286" ry="17.9857" style="stroke:#181818;stroke-width:0.5;"/><text fill="#000000" font-family="sans-serif" font-size="14" lengthAdjust="spacing" textLength="125.7676" x="326.5448" y="718.6342">Eliminar pregunta</text></g><!--entity UC24--><g class="entity" data-entity="UC24" data-source-line="37" data-uid="ent0027" id="entity_UC24"><ellipse cx="389.4858" cy="785.8972" fill="#F1F1F1" rx="82.4858" ry="18.8972" style="stroke:#181818;stroke-width:0.5;"/><text fill="#000000" font-family="sans-serif" font-size="14" lengthAdjust="spacing" textLength="136.5" x="321.2358" y="790.5456">Importar preguntas</text></g><!--entity UC25--><g class="entity" data-entity="UC25" data-source-line="38" data-uid="ent0028" id="entity_UC25"><ellipse cx="389.713" cy="858.8426" fill="#F1F1F1" rx="82.213" ry="18.8426" style="stroke:#181818;stroke-width:0.5;"/><text fill="#000000" font-family="sans-serif" font-size="14" lengthAdjust="spacing" textLength="135.8643" x="321.7809" y="863.491">Exportar preguntas</text></g><!--entity UC26--><g class="entity" data-entity="UC26" data-source-line="42" data-uid="ent0030" id="entity_UC26"><ellipse cx="389.6535" cy="978.2307" fill="#F1F1F1" rx="114.1535" ry="25.2307" style="stroke:#181818;stroke-width:0.5;"/><text fill="#000000" font-family="sans-serif" font-size="14" lengthAdjust="spacing" textLength="206.835" x="286.236" y="982.8791">Exportar configuraci&#243;n global</text></g><!--entity UC27--><g class="entity" data-entity="UC27" data-source-line="43" data-uid="ent0031" id="entity_UC27"><ellipse cx="389.4493" cy="1063.7899" fill="#F1F1F1" rx="114.4493" ry="25.2899" style="stroke:#181818;stroke-width:0.5;"/><text fill="#000000" font-family="sans-serif" font-size="14" lengthAdjust="spacing" textLength="207.4707" x="285.714" y="1068.4383">Importar configuraci&#243;n global</text></g><!--entity UC28--><g class="entity" data-entity="UC28" data-source-line="47" data-uid="ent0033" id="entity_UC28"><ellipse cx="389.4143" cy="1184.1829" fill="#F1F1F1" rx="81.4143" ry="18.6829" style="stroke:#181818;stroke-width:0.5;"/><text fill="#000000" font-family="sans-serif" font-size="14" lengthAdjust="spacing" textLength="133.998" x="322.4152" y="1188.8313">Generar examenes</text></g><!--entity UC29--><g class="entity" data-entity="UC29" data-source-line="48" data-uid="ent0034" id="entity_UC29"><ellipse cx="389.6347" cy="1255.8269" fill="#F1F1F1" rx="79.6347" ry="18.3269" style="stroke:#181818;stroke-width:0.5;"/><text fill="#000000" font-family="sans-serif" font-size="14" lengthAdjust="spacing" textLength="129.8145" x="324.7275" y="1260.4754">Asignar examenes</text></g><!--entity UC31--><g class="entity" data-entity="UC31" data-source-line="52" data-uid="ent0036" id="entity_UC31"><ellipse cx="389.3967" cy="1369.1793" fill="#F1F1F1" rx="81.3967" ry="18.6793" style="stroke:#181818;stroke-width:0.5;"/><text fill="#000000" font-family="sans-serif" font-size="14" lengthAdjust="spacing" textLength="133.957" x="322.4182" y="1373.8278">Corregir ex&#225;menes</text></g><!--entity UC32--><g class="entity" data-entity="UC32" data-source-line="56" data-uid="ent0038" id="entity_UC32"><ellipse cx="389.6046" cy="2698.0209" fill="#F1F1F1" rx="68.1046" ry="16.0209" style="stroke:#181818;stroke-width:0.5;"/><text fill="#000000" font-family="sans-serif" font-size="14" lengthAdjust="spacing" textLength="101.5615" x="338.8239" y="2702.6694">Crear Docente</text></g><!--entity UC33--><g class="entity" data-entity="UC33" data-source-line="57" data-uid="ent0039" id="entity_UC33"><ellipse cx="389.3225" cy="2764.9645" fill="#F1F1F1" rx="65.3225" ry="15.4645" style="stroke:#181818;stroke-width:0.5;"/><text fill="#000000" font-family="sans-serif" font-size="14" lengthAdjust="spacing" textLength="94.3223" x="342.1614" y="2769.6129">Ver Docentes</text></g><!--entity UC34--><g class="entity" data-entity="UC34" data-source-line="58" data-uid="ent0040" id="entity_UC34"><ellipse cx="389.2682" cy="2831.7536" fill="#F1F1F1" rx="69.2682" ry="16.2536" style="stroke:#181818;stroke-width:0.5;"/><text fill="#000000" font-family="sans-serif" font-size="14" lengthAdjust="spacing" textLength="104.5283" x="337.004" y="2836.4021">Editar Docente</text></g><!--entity UC35--><g class="entity" data-entity="UC35" data-source-line="59" data-uid="ent0041" id="entity_UC35"><ellipse cx="389.7084" cy="2901.0417" fill="#F1F1F1" rx="75.7084" ry="17.5417" style="stroke:#181818;stroke-width:0.5;"/><text fill="#000000" font-family="sans-serif" font-size="14" lengthAdjust="spacing" textLength="120.4424" x="329.4873" y="2905.6901">Eliminar Docente</text></g><!--entity UC36--><g class="entity" data-entity="UC36" data-source-line="63" data-uid="ent0043" id="entity_UC36"><ellipse cx="389.6956" cy="2388.9391" fill="#F1F1F1" rx="72.6956" ry="16.9391" style="stroke:#181818;stroke-width:0.5;"/><text fill="#000000" font-family="sans-serif" font-size="14" lengthAdjust="spacing" textLength="113.0938" x="333.1487" y="2393.5876">Adquirir licencia</text></g><!--entity UC37--><g class="entity" data-entity="UC37" data-source-line="64" data-uid="ent0044" id="entity_UC37"><ellipse cx="389.2673" cy="2456.0535" fill="#F1F1F1" rx="63.2673" ry="15.0535" style="stroke:#181818;stroke-width:0.5;"/><text fill="#000000" font-family="sans-serif" font-size="14" lengthAdjust="spacing" textLength="88.8193" x="344.8576" y="2460.7019">Ver licencias</text></g><!--entity UC38--><g class="entity" data-entity="UC38" data-source-line="65" data-uid="ent0045" id="entity_UC38"><ellipse cx="389.6205" cy="2521.8241" fill="#F1F1F1" rx="67.1205" ry="15.8241" style="stroke:#181818;stroke-width:0.5;"/><text fill="#000000" font-family="sans-serif" font-size="14" lengthAdjust="spacing" textLength="99.0254" x="340.1078" y="2526.4725">Editar licencia</text></g><!--entity UC39--><g class="entity" data-entity="UC39" data-source-line="66" data-uid="ent0046" id="entity_UC39"><ellipse cx="389.4464" cy="2590.0893" fill="#F1F1F1" rx="73.4464" ry="17.0893" style="stroke:#181818;stroke-width:0.5;"/><text fill="#000000" font-family="sans-serif" font-size="14" lengthAdjust="spacing" textLength="114.9395" x="331.9767" y="2594.7377">Eliminar licencia</text></g><!--entity UC41--><g class="entity" data-entity="UC41" data-source-line="70" data-uid="ent0048" id="entity_UC41"><ellipse cx="389.3711" cy="2214.7742" fill="#F1F1F1" rx="64.3711" ry="15.2742" style="stroke:#181818;stroke-width:0.5;"/><text fill="#000000" font-family="sans-serif" font-size="14" lengthAdjust="spacing" textLength="91.793" x="343.4746" y="2219.4227">Iniciar sesi&#243;n</text></g><!--entity UC42--><g class="entity" data-entity="UC42" data-source-line="71" data-uid="ent0049" id="entity_UC42"><ellipse cx="389.4046" cy="2280.8809" fill="#F1F1F1" rx="64.9046" ry="15.3809" style="stroke:#181818;stroke-width:0.5;"/><text fill="#000000" font-family="sans-serif" font-size="14" lengthAdjust="spacing" textLength="93.2148" x="342.7972" y="2285.5294">Cerrar sesi&#243;n</text></g><!--entity UC13--><g class="entity" data-entity="UC13" data-source-line="75" data-uid="ent0051" id="entity_UC13"><ellipse cx="389.729" cy="2104.9458" fill="#F1F1F1" rx="80.229" ry="18.4458" style="stroke:#181818;stroke-width:0.5;"/><text fill="#000000" font-family="sans-serif" font-size="14" lengthAdjust="spacing" textLength="131.2158" x="324.1211" y="2109.5942">Completar Gesti&#243;n</text></g><!--entity doc--><g class="entity" data-entity="doc" data-source-line="3" data-uid="ent0002" id="entity_doc"><ellipse cx="100.3159" cy="1094.5" fill="#F1F1F1" rx="8" ry="8" style="stroke:#181818;stroke-width:0.5;"/><path d="M100.3159,1102.5 L100.3159,1129.5 M87.3159,1110.5 L113.3159,1110.5 M100.3159,1129.5 L87.3159,1144.5 M100.3159,1129.5 L113.3159,1144.5" fill="none" style="stroke:#181818;stroke-width:0.5;"/><text fill="#000000" font-family="sans-serif" font-size="14" lengthAdjust="spacing" textLength="58.6318" x="71" y="1158.9951">Docente</text></g><!--entity admin--><g class="entity" data-entity="admin" data-source-line="4" data-uid="ent0003" id="entity_admin"><ellipse cx="100.5308" cy="2492.5" fill="#F1F1F1" rx="8" ry="8" style="stroke:#181818;stroke-width:0.5;"/><path d="M100.5308,2500.5 L100.5308,2527.5 M87.5308,2508.5 L113.5308,2508.5 M100.5308,2527.5 L87.5308,2542.5 M100.5308,2527.5 L113.5308,2542.5" fill="none" style="stroke:#181818;stroke-width:0.5;"/><text fill="#000000" font-family="sans-serif" font-size="14" lengthAdjust="spacing" textLength="189.0615" x="6" y="2556.9951">Administrador Institucional</text></g><!--entity tiempo--><g class="entity" data-entity="tiempo" data-source-line="5" data-uid="ent0004" id="entity_tiempo"><ellipse cx="100.5723" cy="2251.5" fill="#F1F1F1" rx="8" ry="8" style="stroke:#181818;stroke-width:0.5;"/><path d="M100.5723,2259.5 L100.5723,2286.5 M87.5723,2267.5 L113.5723,2267.5 M100.5723,2286.5 L87.5723,2301.5 M100.5723,2286.5 L113.5723,2301.5" fill="none" style="stroke:#181818;stroke-width:0.5;"/><text fill="#000000" font-family="sans-serif" font-size="14" lengthAdjust="spacing" textLength="52.1445" x="74.5" y="2315.9951">Tiempo</text></g><!--link doc to UC1--><g class="link" data-entity-1="doc" data-entity-2="UC1" data-source-line="78" data-uid="lnk52" id="link_doc_UC1"><path d="M110.23,1162.36 C125.42,1221.28 161.9,1334.49 231,1404 C263.27,1436.46 306.7731,1454.6305 341.5931,1465.5105" fill="none" id="doc-to-UC1" style="stroke:#181818;stroke-width:1;"/><polygon fill="#181818" points="347.32,1467.3,339.9226,1460.7978,342.5476,1465.8088,337.5366,1468.4338,347.32,1467.3" style="stroke:#181818;stroke-width:1;"/></g><!--link doc to UC2--><g class="link" data-entity-1="doc" data-entity-2="UC2" data-source-line="79" data-uid="lnk53" id="link_doc_UC2"><path d="M102.38,1162.25 C106.38,1240.28 127.06,1418.14 231,1510 C258.6,1534.39 293.6186,1541.8194 326.8786,1543.5994" fill="none" id="doc-to-UC2" style="stroke:#181818;stroke-width:1;"/><polygon fill="#181818" points="332.87,1543.92,324.0966,1539.4447,327.8771,1543.6528,323.6691,1547.4333,332.87,1543.92" style="stroke:#181818;stroke-width:1;"/></g><!--link doc to UC3--><g class="link" data-entity-1="doc" data-entity-2="UC3" data-source-line="80" data-uid="lnk54" id="link_doc_UC3"><path d="M107.37,1162.27 C123.18,1260.35 169.65,1517.01 231,1574 C256.59,1597.77 288.7565,1605.746 321.0965,1608.146" fill="none" id="doc-to-UC3" style="stroke:#181818;stroke-width:1;"/><polygon fill="#181818" points="327.08,1608.59,318.4007,1603.9349,322.0937,1608.22,317.8086,1611.913,327.08,1608.59" style="stroke:#181818;stroke-width:1;"/></g><!--link doc to UC4--><g class="link" data-entity-1="doc" data-entity-2="UC4" data-source-line="81" data-uid="lnk55" id="link_doc_UC4"><path d="M105.89,1162.16 C119.05,1269.71 161.57,1571.87 231,1639 C254.63,1661.85 283.7794,1670.2864 314.8594,1673.3764" fill="none" id="doc-to-UC4" style="stroke:#181818;stroke-width:1;"/><polygon fill="#181818" points="320.83,1673.97,312.2699,1669.0992,315.8545,1673.4753,311.4784,1677.06,320.83,1673.97" style="stroke:#181818;stroke-width:1;"/></g><!--link doc to UC5--><g class="link" data-entity-1="doc" data-entity-2="UC5" data-source-line="82" data-uid="lnk56" id="link_doc_UC5"><path d="M105.7,1162.37 C118.98,1277.79 163.25,1619.08 231,1705 C257.38,1738.46 296.2931,1756.5287 331.3231,1767.6887" fill="none" id="doc-to-UC5" style="stroke:#181818;stroke-width:1;"/><polygon fill="#181818" points="337.04,1769.51,329.6789,1762.9668,332.2759,1767.9922,327.2505,1770.5893,337.04,1769.51" style="stroke:#181818;stroke-width:1;"/></g><!--link doc to UC6--><g class="link" data-entity-1="doc" data-entity-2="UC6" data-source-line="83" data-uid="lnk57" id="link_doc_UC6"><path d="M103.22,1162.07 C109.94,1293.04 138.73,1722.13 231,1817 C253.43,1840.06 281.5211,1848.6599 312.2411,1851.7999" fill="none" id="doc-to-UC6" style="stroke:#181818;stroke-width:1;"/><polygon fill="#181818" points="318.21,1852.41,309.6634,1847.5156,313.2359,1851.9016,308.8499,1855.4741,318.21,1852.41" style="stroke:#181818;stroke-width:1;"/></g><!--link doc to UC7--><g class="link" data-entity-1="doc" data-entity-2="UC7" data-source-line="84" data-uid="lnk58" id="link_doc_UC7"><path d="M102.56,1162.33 C107.2,1301.73 130.33,1779.15 231,1885 C252.04,1907.12 277.7686,1915.9879 307.2086,1919.7579" fill="none" id="doc-to-UC7" style="stroke:#181818;stroke-width:1;"/><polygon fill="#181818" points="313.16,1920.52,304.741,1915.4092,308.2005,1919.8849,303.7248,1923.3444,313.16,1920.52" style="stroke:#181818;stroke-width:1;"/></g><!--link doc to UC8--><g class="link" data-entity-1="doc" data-entity-2="UC8" data-source-line="85" data-uid="lnk59" id="link_doc_UC8"><path d="M102,1162.19 C104.7,1309.35 121.96,1837.32 231,1955 C250.38,1975.91 273.2323,1985.0698 300.9023,1989.6998" fill="none" id="doc-to-UC8" style="stroke:#181818;stroke-width:1;"/><polygon fill="#181818" points="306.82,1990.69,298.6035,1985.2595,301.8886,1989.8648,297.2833,1993.1498,306.82,1990.69" style="stroke:#181818;stroke-width:1;"/></g><!--link doc to UC9--><g class="link" data-entity-1="doc" data-entity-2="UC9" data-source-line="86" data-uid="lnk60" id="link_doc_UC9"><path d="M103.69,1085.78 C114.21,907.69 162.01,164.89 231,90 C254.57,64.42 286.471,56.2724 319.191,54.2924" fill="none" id="doc-to-UC9" style="stroke:#181818;stroke-width:1;"/><polygon fill="#181818" points="325.18,53.93,315.9548,50.4809,320.1891,54.232,316.438,58.4663,325.18,53.93" style="stroke:#181818;stroke-width:1;"/></g><!--link doc to UC10--><g class="link" data-entity-1="doc" data-entity-2="UC10" data-source-line="87" data-uid="lnk61" id="link_doc_UC10"><path d="M100.95,1085.92 C99.43,923.8 102,293.03 231,155 C255.39,128.91 288.7659,121.1766 322.0459,119.6966" fill="none" id="doc-to-UC10" style="stroke:#181818;stroke-width:1;"/><polygon fill="#181818" points="328.04,119.43,318.8712,115.8338,323.0449,119.6521,319.2266,123.8259,328.04,119.43" style="stroke:#181818;stroke-width:1;"/></g><!--link doc to UC11--><g class="link" data-entity-1="doc" data-entity-2="UC11" data-source-line="88" data-uid="lnk62" id="link_doc_UC11"><path d="M101.39,1085.97 C101.75,931.05 111.2,349.72 231,222 C254.32,197.14 285.1946,188.8982 317.3946,186.6482" fill="none" id="doc-to-UC11" style="stroke:#181818;stroke-width:1;"/><polygon fill="#181818" points="323.38,186.23,314.1231,182.8671,318.3922,186.5785,314.6807,190.8476,323.38,186.23" style="stroke:#181818;stroke-width:1;"/></g><!--link doc to UC12--><g class="link" data-entity-1="doc" data-entity-2="UC12" data-source-line="89" data-uid="lnk63" id="link_doc_UC12"><path d="M101.91,1085.91 C104.31,938.53 120.6,408.05 231,291 C252.79,267.9 280.2426,259.2247 310.7126,256.0347" fill="none" id="doc-to-UC12" style="stroke:#181818;stroke-width:1;"/><polygon fill="#181818" points="316.68,255.41,307.3124,252.3689,311.7072,255.9306,308.1454,260.3254,316.68,255.41" style="stroke:#181818;stroke-width:1;"/></g><!--link doc to UC13--><g class="link" data-entity-1="doc" data-entity-2="UC13" data-source-line="90" data-uid="lnk64" id="link_doc_UC13"><path d="M102.34,1162.07 C106.43,1315.28 128.36,1885.25 231,2027 C255.34,2060.61 292.5613,2078.6733 327.4613,2089.9633" fill="none" id="doc-to-UC13" style="stroke:#181818;stroke-width:1;"/><polygon fill="#181818" points="333.17,2091.81,325.8381,2085.2341,328.4127,2090.271,323.3757,2092.8457,333.17,2091.81" style="stroke:#181818;stroke-width:1;"/></g><!--link doc to UC17--><g class="link" data-entity-1="doc" data-entity-2="UC17" data-source-line="91" data-uid="lnk65" id="link_doc_UC17"><path d="M104.72,1085.63 C115.79,961.38 155.88,572.5 231,475 C256.54,441.85 294.3674,423.9348 329.2074,412.7448" fill="none" id="doc-to-UC17" style="stroke:#181818;stroke-width:1;"/><polygon fill="#181818" points="334.92,410.91,325.1279,409.8538,330.1595,412.439,327.5743,417.4706,334.92,410.91" style="stroke:#181818;stroke-width:1;"/></g><!--link doc to UC19--><g class="link" data-entity-1="doc" data-entity-2="UC19" data-source-line="92" data-uid="lnk66" id="link_doc_UC19"><path d="M102.55,1085.62 C107.17,946.04 130.21,467.99 231,362 C251.75,340.18 276.9024,331.3012 305.9924,327.4312" fill="none" id="doc-to-UC19" style="stroke:#181818;stroke-width:1;"/><polygon fill="#181818" points="311.94,326.64,302.4911,323.8618,306.9837,327.2994,303.5461,331.7919,311.94,326.64" style="stroke:#181818;stroke-width:1;"/></g><!--link doc to UC20--><g class="link" data-entity-1="doc" data-entity-2="UC20" data-source-line="93" data-uid="lnk67" id="link_doc_UC20"><path d="M104.73,1085.6 C115.35,968.54 153.08,619.43 231,542 C254.02,519.13 282.5408,510.6076 313.3908,507.4676" fill="none" id="doc-to-UC20" style="stroke:#181818;stroke-width:1;"/><polygon fill="#181818" points="319.36,506.86,310.0012,503.7919,314.3857,507.3663,310.8113,511.7508,319.36,506.86" style="stroke:#181818;stroke-width:1;"/></g><!--link doc to UC21--><g class="link" data-entity-1="doc" data-entity-2="UC21" data-source-line="94" data-uid="lnk68" id="link_doc_UC21"><path d="M105.9,1085.92 C119.09,978.57 161.68,676.99 231,610 C254.94,586.87 284.6769,578.4574 316.0469,575.4774" fill="none" id="doc-to-UC21" style="stroke:#181818;stroke-width:1;"/><polygon fill="#181818" points="322.02,574.91,312.6821,571.7791,317.0424,575.3828,313.4386,579.7432,322.02,574.91" style="stroke:#181818;stroke-width:1;"/></g><!--link doc to UC22--><g class="link" data-entity-1="doc" data-entity-2="UC22" data-source-line="95" data-uid="lnk69" id="link_doc_UC22"><path d="M107.5,1085.73 C123.53,988.3 170.33,734.56 231,678 C254.12,656.44 281.56,647.9813 311.65,644.4913" fill="none" id="doc-to-UC22" style="stroke:#181818;stroke-width:1;"/><polygon fill="#181818" points="317.61,643.8,308.2091,640.8636,312.6433,644.3761,309.1308,648.8103,317.61,643.8" style="stroke:#181818;stroke-width:1;"/></g><!--link doc to UC23--><g class="link" data-entity-1="doc" data-entity-2="UC23" data-source-line="96" data-uid="lnk70" id="link_doc_UC23"><path d="M102.96,1085.8 C108.04,1009.63 130.65,838.53 231,749 C252.95,729.42 277.4576,720.9081 305.7276,716.6281" fill="none" id="doc-to-UC23" style="stroke:#181818;stroke-width:1;"/><polygon fill="#181818" points="311.66,715.73,302.1626,713.1223,306.7163,716.4785,303.3602,721.0322,311.66,715.73" style="stroke:#181818;stroke-width:1;"/></g><!--link doc to UC24--><g class="link" data-entity-1="doc" data-entity-2="UC24" data-source-line="97" data-uid="lnk71" id="link_doc_UC24"><path d="M106.62,1085.94 C117.41,1021.37 148.64,890.7 231,822 C252.54,804.03 275.3727,795.6608 302.4127,790.8508" fill="none" id="doc-to-UC24" style="stroke:#181818;stroke-width:1;"/><polygon fill="#181818" points="308.32,789.8,298.7586,787.438,303.3973,790.6757,300.1596,795.3144,308.32,789.8" style="stroke:#181818;stroke-width:1;"/></g><!--link doc to UC25--><g class="link" data-entity-1="doc" data-entity-2="UC25" data-source-line="98" data-uid="lnk72" id="link_doc_UC25"><path d="M120.46,1085.68 C142.39,1044.57 181.84,979.47 231,937 C263.9,908.58 303.3858,889.7992 336.8858,876.8092" fill="none" id="doc-to-UC25" style="stroke:#181818;stroke-width:1;"/><polygon fill="#181818" points="342.48,874.64,332.6426,874.1644,337.8182,876.4477,335.5349,881.6232,342.48,874.64" style="stroke:#181818;stroke-width:1;"/></g><!--link doc to UC26--><g class="link" data-entity-1="doc" data-entity-2="UC26" data-source-line="99" data-uid="lnk73" id="link_doc_UC26"><path d="M130.45,1095.2 C155.22,1072.07 192.82,1040.35 231,1021 C253.5,1009.59 273.5928,1002.4669 297.8028,996.0069" fill="none" id="doc-to-UC26" style="stroke:#181818;stroke-width:1;"/><polygon fill="#181818" points="303.6,994.46,293.873,992.9155,298.769,995.7491,295.9355,1000.6451,303.6,994.46" style="stroke:#181818;stroke-width:1;"/></g><!--link doc to UC27--><g class="link" data-entity-1="doc" data-entity-2="UC27" data-source-line="100" data-uid="lnk74" id="link_doc_UC27"><path d="M130.07,1118.03 C170.55,1109.57 240.3669,1094.9673 299.4169,1082.6273" fill="none" id="doc-to-UC27" style="stroke:#181818;stroke-width:1;"/><polygon fill="#181818" points="305.29,1081.4,295.6621,1079.3256,300.3957,1082.4228,297.2985,1087.1564,305.29,1081.4" style="stroke:#181818;stroke-width:1;"/></g><!--link doc to UC28--><g class="link" data-entity-1="doc" data-entity-2="UC28" data-source-line="101" data-uid="lnk75" id="link_doc_UC28"><path d="M130.07,1129.97 C176.22,1139.62 262.267,1157.6121 323.107,1170.3321" fill="none" id="doc-to-UC28" style="stroke:#181818;stroke-width:1;"/><polygon fill="#181818" points="328.98,1171.56,320.9891,1165.8028,324.0858,1170.5368,319.3519,1173.6335,328.98,1171.56" style="stroke:#181818;stroke-width:1;"/></g><!--link doc to UC29--><g class="link" data-entity-1="doc" data-entity-2="UC29" data-source-line="102" data-uid="lnk76" id="link_doc_UC29"><path d="M130.11,1150.72 C154.96,1172.51 192.86,1202.45 231,1220 C258.9,1232.84 285.8575,1240.1495 314.3175,1245.6095" fill="none" id="doc-to-UC29" style="stroke:#181818;stroke-width:1;"/><polygon fill="#181818" points="320.21,1246.74,312.1248,1241.1159,315.2995,1245.7979,310.6175,1248.9727,320.21,1246.74" style="stroke:#181818;stroke-width:1;"/></g><!--link doc to UC31--><g class="link" data-entity-1="doc" data-entity-2="UC31" data-source-line="103" data-uid="lnk77" id="link_doc_UC31"><path d="M123.96,1162.2 C147.07,1198.94 185.99,1254.19 231,1291 C265.25,1319.01 305.6499,1338.105 339.0799,1351.315" fill="none" id="doc-to-UC31" style="stroke:#181818;stroke-width:1;"/><polygon fill="#181818" points="344.66,1353.52,337.7598,1346.4924,340.0099,1351.6825,334.8198,1353.9326,344.66,1353.52" style="stroke:#181818;stroke-width:1;"/></g><!--link doc to UC41--><g class="link" data-entity-1="doc" data-entity-2="UC41" data-source-line="104" data-uid="lnk78" id="link_doc_UC41"><path d="M101.6,1162.01 C102.75,1326.92 114.68,1979.31 231,2140 C256.75,2175.57 298.0821,2193.2926 334.0921,2203.3726" fill="none" id="doc-to-UC41" style="stroke:#181818;stroke-width:1;"/><polygon fill="#181818" points="339.87,2204.99,332.2814,2198.712,335.0551,2203.6422,330.1249,2206.4159,339.87,2204.99" style="stroke:#181818;stroke-width:1;"/></g><!--link doc to UC42--><g class="link" data-entity-1="doc" data-entity-2="UC42" data-source-line="105" data-uid="lnk79" id="link_doc_UC42"><path d="M103.28,1162.06 C112.35,1349.18 156.04,2165.82 231,2248 C254.63,2273.9 286.9497,2281.9997 319.8697,2283.8697" fill="none" id="doc-to-UC42" style="stroke:#181818;stroke-width:1;"/><polygon fill="#181818" points="325.86,2284.21,317.1013,2279.706,320.868,2283.9264,316.6476,2287.6931,325.86,2284.21" style="stroke:#181818;stroke-width:1;"/></g><!--link admin to UC13--><g class="link" data-entity-1="admin" data-entity-2="UC13" data-source-line="107" data-uid="lnk80" id="link_admin_UC13"><path d="M123.94,2483.99 C144.85,2447.21 175.63,2389.33 195,2336 C218.85,2270.34 187.56,2237.71 231,2183 C256.99,2150.26 294.5784,2132.1188 329.1984,2120.5688" fill="none" id="admin-to-UC13" style="stroke:#181818;stroke-width:1;"/><polygon fill="#181818" points="334.89,2118.67,325.0867,2117.7239,330.147,2120.2524,327.6185,2125.3127,334.89,2118.67" style="stroke:#181818;stroke-width:1;"/></g><!--link admin to UC32--><g class="link" data-entity-1="admin" data-entity-2="UC32" data-source-line="108" data-uid="lnk81" id="link_admin_UC32"><path d="M145.29,2560.05 C169.6,2580.14 200.92,2604.42 231,2623 C271.45,2647.99 315.9866,2668.2203 348.6666,2681.9203" fill="none" id="admin-to-UC32" style="stroke:#181818;stroke-width:1;"/><polygon fill="#181818" points="354.2,2684.24,347.4463,2677.0715,349.5888,2682.3069,344.3534,2684.4494,354.2,2684.24" style="stroke:#181818;stroke-width:1;"/></g><!--link admin to UC33--><g class="link" data-entity-1="admin" data-entity-2="UC33" data-source-line="109" data-uid="lnk82" id="link_admin_UC33"><path d="M114.48,2560.24 C132.73,2607.95 170.66,2688.43 231,2731 C258.09,2750.11 287.8967,2758.0627 318.4867,2761.9027" fill="none" id="admin-to-UC33" style="stroke:#181818;stroke-width:1;"/><polygon fill="#181818" points="324.44,2762.65,316.0083,2757.5602,319.4789,2762.0272,315.0119,2765.4979,324.44,2762.65" style="stroke:#181818;stroke-width:1;"/></g><!--link admin to UC34--><g class="link" data-entity-1="admin" data-entity-2="UC34" data-source-line="110" data-uid="lnk83" id="link_admin_UC34"><path d="M108.28,2560.33 C121.06,2620.67 154.6,2737.18 231,2798 C255.95,2817.86 283.9571,2826.0299 313.9571,2829.8099" fill="none" id="admin-to-UC34" style="stroke:#181818;stroke-width:1;"/><polygon fill="#181818" points="319.91,2830.56,311.4806,2825.4663,314.9492,2829.9349,310.4806,2833.4035,319.91,2830.56" style="stroke:#181818;stroke-width:1;"/></g><!--link admin to UC35--><g class="link" data-entity-1="admin" data-entity-2="UC35" data-source-line="111" data-uid="lnk84" id="link_admin_UC35"><path d="M104.33,2560.14 C111.75,2631.55 138.22,2785.49 231,2866 C253.74,2885.74 279.2223,2894.2079 308.0123,2898.3879" fill="none" id="admin-to-UC35" style="stroke:#181818;stroke-width:1;"/><polygon fill="#181818" points="313.95,2899.25,305.6181,2893.9984,309.0019,2898.5316,304.4687,2901.9154,313.95,2899.25" style="stroke:#181818;stroke-width:1;"/></g><!--link admin to UC36--><g class="link" data-entity-1="admin" data-entity-2="UC36" data-source-line="112" data-uid="lnk85" id="link_admin_UC36"><path d="M141.59,2483.89 C165.74,2462.94 198.11,2438.19 231,2423 C260.08,2409.57 288.7346,2402.354 318.0746,2397.374" fill="none" id="admin-to-UC36" style="stroke:#181818;stroke-width:1;"/><polygon fill="#181818" points="323.99,2396.37,314.4475,2393.9325,319.0605,2397.2067,315.7863,2401.8197,323.99,2396.37" style="stroke:#181818;stroke-width:1;"/></g><!--link admin to UC37--><g class="link" data-entity-1="admin" data-entity-2="UC37" data-source-line="113" data-uid="lnk86" id="link_admin_UC37"><path d="M195.07,2496.77 C207.13,2493.71 219.34,2490.71 231,2488 C267.14,2479.59 302.3497,2472.4221 333.4997,2466.3821" fill="none" id="admin-to-UC37" style="stroke:#181818;stroke-width:1;"/><polygon fill="#181818" points="339.39,2465.24,329.7931,2463.0263,334.4814,2466.1918,331.316,2470.8801,339.39,2465.24" style="stroke:#181818;stroke-width:1;"/></g><!--link admin to UC38--><g class="link" data-entity-1="admin" data-entity-2="UC38" data-source-line="114" data-uid="lnk87" id="link_admin_UC38"><path d="M195.08,2522 C236.63,2522 278.55,2522 316.31,2522" fill="none" id="admin-to-UC38" style="stroke:#181818;stroke-width:1;"/><polygon fill="#181818" points="322.31,2522,313.31,2518,317.31,2522,313.31,2526,322.31,2522" style="stroke:#181818;stroke-width:1;"/></g><!--link admin to UC39--><g class="link" data-entity-1="admin" data-entity-2="UC39" data-source-line="115" data-uid="lnk88" id="link_admin_UC39"><path d="M195.14,2546.22 C207.19,2549.24 219.38,2552.23 231,2555 C265.47,2563.22 298.4673,2570.5837 328.9673,2577.2237" fill="none" id="admin-to-UC39" style="stroke:#181818;stroke-width:1;"/><polygon fill="#181818" points="334.83,2578.5,326.8869,2572.677,329.9444,2577.4364,325.1851,2580.494,334.83,2578.5" style="stroke:#181818;stroke-width:1;"/></g><!--link admin to UC41--><g class="link" data-entity-1="admin" data-entity-2="UC41" data-source-line="116" data-uid="lnk89" id="link_admin_UC41"><path d="M121.72,2483.95 C141.28,2446.65 171.35,2387.98 195,2336 C212.5,2297.54 198.53,2275.04 231,2248 C256.97,2226.36 287.6074,2218.3827 318.9974,2215.3727" fill="none" id="admin-to-UC41" style="stroke:#181818;stroke-width:1;"/><polygon fill="#181818" points="324.97,2214.8,315.6293,2211.6773,319.9928,2215.2773,316.3929,2219.6408,324.97,2214.8" style="stroke:#181818;stroke-width:1;"/></g><!--link admin to UC42--><g class="link" data-entity-1="admin" data-entity-2="UC42" data-source-line="117" data-uid="lnk90" id="link_admin_UC42"><path d="M123.88,2483.89 C146.94,2447.26 185.82,2392.26 231,2356 C267.25,2326.9 311.0216,2307.7815 344.7716,2295.5015" fill="none" id="admin-to-UC42" style="stroke:#181818;stroke-width:1;"/><polygon fill="#181818" points="350.41,2293.45,340.5848,2292.7684,345.7114,2295.1596,343.3201,2300.2862,350.41,2293.45" style="stroke:#181818;stroke-width:1;"/></g><!--link tiempo to UC42--><g class="link" data-entity-1="tiempo" data-entity-2="UC42" data-source-line="119" data-uid="lnk91" id="link_tiempo_UC42"><path d="M126.72,2281 C170.56,2281 256.09,2281 318.43,2281" fill="none" id="tiempo-to-UC42" style="stroke:#181818;stroke-width:1;"/><polygon fill="#181818" points="324.43,2281,315.43,2277,319.43,2281,315.43,2285,324.43,2281" style="stroke:#181818;stroke-width:1;"/></g><!--SRC=[VLPBZjim3Dtx549MxMA0M7RYP5CWo0I302rGe9-znjQumjYoAyl008CUfcUO8-HYfV-KpCwED1yV7obQTY6VBBCLCoh_PLccZ4ojgdGGYDHMXctkgrHgApTCD2ohqkdnAIkLLeqr8WFtgXkhR9j2eYXwgEZY4_YxacLTzSzjRmP1BT9daKks-N9xozgYOWyTquQz1eorZKn50x6paSAmV8X0yezpYCC_vHXinYZ7qKkch9STEV52WKGF4GT_26sdHkLQsDO8Kg10uPvbvwjS49FKFI5rnPEGUbUm0oswQ4jDJrICeJxxk1BRHoUXuPPIYWd2a9RfO9oZkS8Ac8LdBkL8kRpGeAJhbbeW2JjuUzCia-ohaNchRJTjelrwZ4vRi_KdK2_f0o8aPk2pS78AFYeYvx0g69EJMC5svCcVA_saSjYFj9_7WzJITA_bAqcQkkYyg1x7TnWAx4cvxwOafARBYoYbzZGCoWoJVL3ERHqmQ7Zvrg3ZVtetS8FrklopxoAvweXkVp5J599CuyL7hn2-5O61-nkq90-0Y5WWZoCczyS3qGS-h_vd1UXKYUQ3WYJTtSSVFVsdx7Uh38oX6B4JzTxlOGBCJIH44pxBWUp2Hz5dzqqsnBbTjO9CmvefEbpKpYjvbiQi8VpTOQtMewmBsRMq08OB9mg01pvzxExkK_y9McoEx0ZPCR9toDuZEq7s0Tb7N6kB7LmvnAL3N3l4n25cuvYDEtrWDexPE6w5uruuReRZeXotmx6221UD7OV37qVtpx2qX5rumnpNYyQkktFTlUichdjmtQFZWaR71PN37ypyu1y0]--></g></svg>