<svg xmlns="http://www.w3.org/2000/svg" xmlns:xlink="http://www.w3.org/1999/xlink" contentStyleType="text/css" data-diagram-type="DESCRIPTION" height="2320px" preserveAspectRatio="none" style="width:377px;height:2320px;background:#FFFFFF;" version="1.1" viewBox="0 0 377 2320" width="377px" zoomAndPan="magnify"><defs/><g><!--cluster M?dulo Grado--><g class="cluster" data-entity="M.dulo Grado" data-source-line="5" data-uid="ent0003" id="cluster_M.dulo Grado"><path d="M157.5,6 L268.8115,6 A3.75,3.75 0 0 1 271.3115,8.5 L278.3115,28.2969 L321.5,28.2969 A2.5,2.5 0 0 1 324,30.7969 L324,280.5 A2.5,2.5 0 0 1 321.5,283 L157.5,283 A2.5,2.5 0 0 1 155,280.5 L155,8.5 A2.5,2.5 0 0 1 157.5,6" fill="none" style="stroke:#000000;stroke-width:1.5;"/><line style="stroke:#000000;stroke-width:1.5;" x1="155" x2="278.3115" y1="28.2969" y2="28.2969"/><text fill="#000000" font-family="sans-serif" font-size="14" font-weight="bold" lengthAdjust="spacing" textLength="110.3115" x="159" y="20.9951">M&#243;dulo Grado</text></g><!--cluster M?dulo Asignatura--><g class="cluster" data-entity="M.dulo Asignatura" data-source-line="12" data-uid="ent0008" id="cluster_M.dulo Asignatura"><path d="M143.5,307 L293.7422,307 A3.75,3.75 0 0 1 296.2422,309.5 L303.2422,329.2969 L335.5,329.2969 A2.5,2.5 0 0 1 338,331.7969 L338,602.5 A2.5,2.5 0 0 1 335.5,605 L143.5,605 A2.5,2.5 0 0 1 141,602.5 L141,309.5 A2.5,2.5 0 0 1 143.5,307" fill="none" style="stroke:#000000;stroke-width:1.5;"/><line style="stroke:#000000;stroke-width:1.5;" x1="141" x2="303.2422" y1="329.2969" y2="329.2969"/><text fill="#000000" font-family="sans-serif" font-size="14" font-weight="bold" lengthAdjust="spacing" textLength="149.2422" x="145" y="321.9951">M&#243;dulo Asignatura</text></g><!--cluster M?dulo Alumno--><g class="cluster" data-entity="M.dulo Alumno" data-source-line="19" data-uid="ent0013" id="cluster_M.dulo Alumno"><path d="M148.5,629 L272.1025,629 A3.75,3.75 0 0 1 274.6025,631.5 L281.6025,651.2969 L330.5,651.2969 A2.5,2.5 0 0 1 333,653.7969 L333,1052.5 A2.5,2.5 0 0 1 330.5,1055 L148.5,1055 A2.5,2.5 0 0 1 146,1052.5 L146,631.5 A2.5,2.5 0 0 1 148.5,629" fill="none" style="stroke:#000000;stroke-width:1.5;"/><line style="stroke:#000000;stroke-width:1.5;" x1="146" x2="281.6025" y1="651.2969" y2="651.2969"/><text fill="#000000" font-family="sans-serif" font-size="14" font-weight="bold" lengthAdjust="spacing" textLength="122.6025" x="150" y="643.9951">M&#243;dulo Alumno</text></g><!--cluster M?dulo Gesti?n de Preguntas--><g class="cluster" data-entity="M.dulo Gesti.n de Preguntas" data-source-line="30" data-uid="ent0020" id="cluster_M.dulo Gesti.n de Preguntas"><path d="M117.5,1079 L352.0771,1079 A3.75,3.75 0 0 1 354.5771,1081.5 L361.5771,1101.2969 L361.5,1101.2969 A2.5,2.5 0 0 1 364,1103.7969 L364,1514.5 A2.5,2.5 0 0 1 361.5,1517 L117.5,1517 A2.5,2.5 0 0 1 115,1514.5 L115,1081.5 A2.5,2.5 0 0 1 117.5,1079" fill="none" style="stroke:#000000;stroke-width:1.5;"/><line style="stroke:#000000;stroke-width:1.5;" x1="115" x2="361.5771" y1="1101.2969" y2="1101.2969"/><text fill="#000000" font-family="sans-serif" font-size="14" font-weight="bold" lengthAdjust="spacing" textLength="233.5771" x="119" y="1093.9951">M&#243;dulo Gesti&#243;n de Preguntas</text></g><!--cluster M?dulo Configuraci?n General--><g class="cluster" data-entity="M.dulo Configuraci.n General" data-source-line="39" data-uid="ent0027" id="cluster_M.dulo Configuraci.n General"><path d="M111.5,1541 L351.5732,1541 A3.75,3.75 0 0 1 354.0732,1543.5 L361.0732,1563.2969 L367.5,1563.2969 A2.5,2.5 0 0 1 370,1565.7969 L370,1726.5 A2.5,2.5 0 0 1 367.5,1729 L111.5,1729 A2.5,2.5 0 0 1 109,1726.5 L109,1543.5 A2.5,2.5 0 0 1 111.5,1541" fill="none" style="stroke:#000000;stroke-width:1.5;"/><line style="stroke:#000000;stroke-width:1.5;" x1="109" x2="361.0732" y1="1563.2969" y2="1563.2969"/><text fill="#000000" font-family="sans-serif" font-size="14" font-weight="bold" lengthAdjust="spacing" textLength="239.0732" x="113" y="1555.9951">M&#243;dulo Configuraci&#243;n General</text></g><!--cluster M?dulo Examen--><g class="cluster" data-entity="M.dulo Examen" data-source-line="44" data-uid="ent0030" id="cluster_M.dulo Examen"><path d="M144.5,1753 L270.4199,1753 A3.75,3.75 0 0 1 272.9199,1755.5 L279.9199,1775.2969 L334.5,1775.2969 A2.5,2.5 0 0 1 337,1777.7969 L337,1911.5 A2.5,2.5 0 0 1 334.5,1914 L144.5,1914 A2.5,2.5 0 0 1 142,1911.5 L142,1755.5 A2.5,2.5 0 0 1 144.5,1753" fill="none" style="stroke:#000000;stroke-width:1.5;"/><line style="stroke:#000000;stroke-width:1.5;" x1="142" x2="279.9199" y1="1775.2969" y2="1775.2969"/><text fill="#000000" font-family="sans-serif" font-size="14" font-weight="bold" lengthAdjust="spacing" textLength="124.9199" x="146" y="1767.9951">M&#243;dulo Examen</text></g><!--cluster M?dulo Correcci?n--><g class="cluster" data-entity="M.dulo Correcci.n" data-source-line="50" data-uid="ent0033" id="cluster_M.dulo Correcci.n"><path d="M144.5,1938 L292.5068,1938 A3.75,3.75 0 0 1 295.0068,1940.5 L302.0068,1960.2969 L334.5,1960.2969 A2.5,2.5 0 0 1 337,1962.7969 L337,2024.5 A2.5,2.5 0 0 1 334.5,2027 L144.5,2027 A2.5,2.5 0 0 1 142,2024.5 L142,1940.5 A2.5,2.5 0 0 1 144.5,1938" fill="none" style="stroke:#000000;stroke-width:1.5;"/><line style="stroke:#000000;stroke-width:1.5;" x1="142" x2="302.0068" y1="1960.2969" y2="1960.2969"/><text fill="#000000" font-family="sans-serif" font-size="14" font-weight="bold" lengthAdjust="spacing" textLength="147.0068" x="146" y="1952.9951">M&#243;dulo Correcci&#243;n</text></g><!--cluster M?dulo Sesi?n--><g class="cluster" data-entity="M.dulo Sesi.n" data-source-line="54" data-uid="ent0035" id="cluster_M.dulo Sesi.n"><path d="M161,2051 L277.124,2051 A3.75,3.75 0 0 1 279.624,2053.5 L286.624,2073.2969 L318,2073.2969 A2.5,2.5 0 0 1 320.5,2075.7969 L320.5,2197.5 A2.5,2.5 0 0 1 318,2200 L161,2200 A2.5,2.5 0 0 1 158.5,2197.5 L158.5,2053.5 A2.5,2.5 0 0 1 161,2051" fill="none" style="stroke:#000000;stroke-width:1.5;"/><line style="stroke:#000000;stroke-width:1.5;" x1="158.5" x2="286.624" y1="2073.2969" y2="2073.2969"/><text fill="#000000" font-family="sans-serif" font-size="14" font-weight="bold" lengthAdjust="spacing" textLength="115.124" x="162.5" y="2065.9951">M&#243;dulo Sesi&#243;n</text></g><!--cluster M?dulo Gesti?n--><g class="cluster" data-entity="M.dulo Gesti.n" data-source-line="59" data-uid="ent0038" id="cluster_M.dulo Gesti.n"><path d="M146,2224 L270.2246,2224 A3.75,3.75 0 0 1 272.7246,2226.5 L279.7246,2246.2969 L333,2246.2969 A2.5,2.5 0 0 1 335.5,2248.7969 L335.5,2310.5 A2.5,2.5 0 0 1 333,2313 L146,2313 A2.5,2.5 0 0 1 143.5,2310.5 L143.5,2226.5 A2.5,2.5 0 0 1 146,2224" fill="none" style="stroke:#000000;stroke-width:1.5;"/><line style="stroke:#000000;stroke-width:1.5;" x1="143.5" x2="279.7246" y1="2246.2969" y2="2246.2969"/><text fill="#000000" font-family="sans-serif" font-size="14" font-weight="bold" lengthAdjust="spacing" textLength="123.2246" x="147.5" y="2238.9951">M&#243;dulo Gesti&#243;n</text></g><!--entity UC1--><g class="entity" data-entity="UC1" data-source-line="6" data-uid="ent0004" id="entity_UC1"><ellipse cx="239.3722" cy="56.1744" fill="#F1F1F1" rx="61.3722" ry="14.6744" style="stroke:#181818;stroke-width:0.5;"/><text fill="#000000" font-family="sans-serif" font-size="14" lengthAdjust="spacing" textLength="83.6035" x="197.5704" y="60.8229">Crear grado</text></g><!--entity UC2--><g class="entity" data-entity="UC2" data-source-line="7" data-uid="ent0005" id="entity_UC2"><ellipse cx="239.4977" cy="120.0236" fill="#F1F1F1" rx="56.9977" ry="14.5236" style="stroke:#181818;stroke-width:0.5;"/><text fill="#000000" font-family="sans-serif" font-size="14" lengthAdjust="spacing" textLength="76.3643" x="201.3156" y="124.6721">Ver grados</text></g><!--entity UC3--><g class="entity" data-entity="UC3" data-source-line="8" data-uid="ent0006" id="entity_UC3"><ellipse cx="239.4435" cy="184.8887" fill="#F1F1F1" rx="62.4435" ry="14.8887" style="stroke:#181818;stroke-width:0.5;"/><text fill="#000000" font-family="sans-serif" font-size="14" lengthAdjust="spacing" textLength="86.5703" x="196.1584" y="189.5371">Editar grado</text></g><!--entity UC4--><g class="entity" data-entity="UC4" data-source-line="9" data-uid="ent0007" id="entity_UC4"><ellipse cx="239.4652" cy="251.093" fill="#F1F1F1" rx="68.4652" ry="16.093" style="stroke:#181818;stroke-width:0.5;"/><text fill="#000000" font-family="sans-serif" font-size="14" lengthAdjust="spacing" textLength="102.4844" x="188.223" y="255.7415">Eliminar grado</text></g><!--entity UC5--><g class="entity" data-entity="UC5" data-source-line="13" data-uid="ent0009" id="entity_UC5"><ellipse cx="239.5886" cy="359.8177" fill="#F1F1F1" rx="74.5886" ry="17.3177" style="stroke:#181818;stroke-width:0.5;"/><text fill="#000000" font-family="sans-serif" font-size="14" lengthAdjust="spacing" textLength="117.7285" x="180.7243" y="364.4662">Crear asignatura</text></g><!--entity UC6--><g class="entity" data-entity="UC6" data-source-line="14" data-uid="ent0010" id="entity_UC6"><ellipse cx="239.6432" cy="429.2286" fill="#F1F1F1" rx="71.6432" ry="16.7286" style="stroke:#181818;stroke-width:0.5;"/><text fill="#000000" font-family="sans-serif" font-size="14" lengthAdjust="spacing" textLength="110.4893" x="184.3986" y="433.8771">Ver asignaturas</text></g><!--entity UC7--><g class="entity" data-entity="UC7" data-source-line="15" data-uid="ent0011" id="entity_UC7"><ellipse cx="239.3132" cy="498.0626" fill="#F1F1F1" rx="75.8132" ry="17.5626" style="stroke:#181818;stroke-width:0.5;"/><text fill="#000000" font-family="sans-serif" font-size="14" lengthAdjust="spacing" textLength="120.6953" x="178.9656" y="502.7111">Editar asignatura</text></g><!--entity UC8--><g class="entity" data-entity="UC8" data-source-line="16" data-uid="ent0012" id="entity_UC8"><ellipse cx="239.5327" cy="569.9065" fill="#F1F1F1" rx="82.5327" ry="18.9065" style="stroke:#181818;stroke-width:0.5;"/><text fill="#000000" font-family="sans-serif" font-size="14" lengthAdjust="spacing" textLength="136.6094" x="171.228" y="574.555">Eliminar asignatura</text></g><!--entity UC9--><g class="entity" data-entity="UC9" data-source-line="20" data-uid="ent0014" id="entity_UC9"><ellipse cx="239.7114" cy="680.0423" fill="#F1F1F1" rx="65.7114" ry="15.5423" style="stroke:#181818;stroke-width:0.5;"/><text fill="#000000" font-family="sans-serif" font-size="14" lengthAdjust="spacing" textLength="95.3477" x="192.0376" y="684.6907">Crear alumno</text></g><!--entity UC10--><g class="entity" data-entity="UC10" data-source-line="21" data-uid="ent0015" id="entity_UC10"><ellipse cx="239.5058" cy="746.0012" fill="#F1F1F1" rx="63.0058" ry="15.0012" style="stroke:#181818;stroke-width:0.5;"/><text fill="#000000" font-family="sans-serif" font-size="14" lengthAdjust="spacing" textLength="88.1084" x="195.4516" y="750.6496">Ver alumnos</text></g><!--entity UC11--><g class="entity" data-entity="UC11" data-source-line="22" data-uid="ent0016" id="entity_UC11"><ellipse cx="239.3464" cy="811.7693" fill="#F1F1F1" rx="66.8464" ry="15.7693" style="stroke:#181818;stroke-width:0.5;"/><text fill="#000000" font-family="sans-serif" font-size="14" lengthAdjust="spacing" textLength="98.3145" x="190.1891" y="816.4177">Editar alumno</text></g><!--entity UC12--><g class="entity" data-entity="UC12" data-source-line="23" data-uid="ent0017" id="entity_UC12"><ellipse cx="239.6567" cy="880.0313" fill="#F1F1F1" rx="73.1567" ry="17.0313" style="stroke:#181818;stroke-width:0.5;"/><text fill="#000000" font-family="sans-serif" font-size="14" lengthAdjust="spacing" textLength="114.2285" x="182.5425" y="884.6798">Eliminar alumno</text></g><!--entity UC19--><g class="entity" data-entity="UC19" data-source-line="24" data-uid="ent0018" id="entity_UC19"><ellipse cx="239.5904" cy="949.9181" fill="#F1F1F1" rx="77.5904" ry="17.9181" style="stroke:#181818;stroke-width:0.5;"/><text fill="#000000" font-family="sans-serif" font-size="14" lengthAdjust="spacing" textLength="124.9609" x="177.11" y="954.5665">Importar alumnos</text></g><!--entity UC17--><g class="entity" data-entity="UC17" data-source-line="25" data-uid="ent0019" id="entity_UC17"><ellipse cx="239.3244" cy="1020.8649" fill="#F1F1F1" rx="77.3244" ry="17.8649" style="stroke:#181818;stroke-width:0.5;"/><text fill="#000000" font-family="sans-serif" font-size="14" lengthAdjust="spacing" textLength="124.3252" x="177.1618" y="1025.5133">Exportar alumnos</text></g><!--entity UC20--><g class="entity" data-entity="UC20" data-source-line="31" data-uid="ent0021" id="entity_UC20"><ellipse cx="239.7021" cy="1130.9404" fill="#F1F1F1" rx="70.2021" ry="16.4404" style="stroke:#181818;stroke-width:0.5;"/><text fill="#000000" font-family="sans-serif" font-size="14" lengthAdjust="spacing" textLength="106.8867" x="186.2587" y="1135.5889">Crear pregunta</text></g><!--entity UC21--><g class="entity" data-entity="UC21" data-source-line="32" data-uid="ent0022" id="entity_UC21"><ellipse cx="239.3609" cy="1198.8722" fill="#F1F1F1" rx="67.3609" ry="15.8722" style="stroke:#181818;stroke-width:0.5;"/><text fill="#000000" font-family="sans-serif" font-size="14" lengthAdjust="spacing" textLength="99.6475" x="189.5372" y="1203.5206">Ver preguntas</text></g><!--entity UC22--><g class="entity" data-entity="UC22" data-source-line="33" data-uid="ent0023" id="entity_UC22"><ellipse cx="239.3877" cy="1267.1775" fill="#F1F1F1" rx="71.3877" ry="16.6775" style="stroke:#181818;stroke-width:0.5;"/><text fill="#000000" font-family="sans-serif" font-size="14" lengthAdjust="spacing" textLength="109.8535" x="184.4609" y="1271.826">Editar pregunta</text></g><!--entity UC23--><g class="entity" data-entity="UC23" data-source-line="34" data-uid="ent0024" id="entity_UC23"><ellipse cx="239.4286" cy="1336.9857" fill="#F1F1F1" rx="77.9286" ry="17.9857" style="stroke:#181818;stroke-width:0.5;"/><text fill="#000000" font-family="sans-serif" font-size="14" lengthAdjust="spacing" textLength="125.7676" x="176.5448" y="1341.6342">Eliminar pregunta</text></g><!--entity UC24--><g class="entity" data-entity="UC24" data-source-line="35" data-uid="ent0025" id="entity_UC24"><ellipse cx="239.4858" cy="1408.8972" fill="#F1F1F1" rx="82.4858" ry="18.8972" style="stroke:#181818;stroke-width:0.5;"/><text fill="#000000" font-family="sans-serif" font-size="14" lengthAdjust="spacing" textLength="136.5" x="171.2358" y="1413.5456">Importar preguntas</text></g><!--entity UC25--><g class="entity" data-entity="UC25" data-source-line="36" data-uid="ent0026" id="entity_UC25"><ellipse cx="239.713" cy="1481.8426" fill="#F1F1F1" rx="82.213" ry="18.8426" style="stroke:#181818;stroke-width:0.5;"/><text fill="#000000" font-family="sans-serif" font-size="14" lengthAdjust="spacing" textLength="135.8643" x="171.7809" y="1486.491">Exportar preguntas</text></g><!--entity UC26--><g class="entity" data-entity="UC26" data-source-line="40" data-uid="ent0028" id="entity_UC26"><ellipse cx="239.6535" cy="1601.2307" fill="#F1F1F1" rx="114.1535" ry="25.2307" style="stroke:#181818;stroke-width:0.5;"/><text fill="#000000" font-family="sans-serif" font-size="14" lengthAdjust="spacing" textLength="206.835" x="136.236" y="1605.8791">Exportar configuraci&#243;n global</text></g><!--entity UC27--><g class="entity" data-entity="UC27" data-source-line="41" data-uid="ent0029" id="entity_UC27"><ellipse cx="239.4493" cy="1686.7899" fill="#F1F1F1" rx="114.4493" ry="25.2899" style="stroke:#181818;stroke-width:0.5;"/><text fill="#000000" font-family="sans-serif" font-size="14" lengthAdjust="spacing" textLength="207.4707" x="135.714" y="1691.4383">Importar configuraci&#243;n global</text></g><!--entity UC28--><g class="entity" data-entity="UC28" data-source-line="45" data-uid="ent0031" id="entity_UC28"><ellipse cx="239.4143" cy="1807.1829" fill="#F1F1F1" rx="81.4143" ry="18.6829" style="stroke:#181818;stroke-width:0.5;"/><text fill="#000000" font-family="sans-serif" font-size="14" lengthAdjust="spacing" textLength="133.998" x="172.4152" y="1811.8313">Generar examenes</text></g><!--entity UC29--><g class="entity" data-entity="UC29" data-source-line="46" data-uid="ent0032" id="entity_UC29"><ellipse cx="239.6347" cy="1878.8269" fill="#F1F1F1" rx="79.6347" ry="18.3269" style="stroke:#181818;stroke-width:0.5;"/><text fill="#000000" font-family="sans-serif" font-size="14" lengthAdjust="spacing" textLength="129.8145" x="174.7275" y="1883.4754">Asignar examenes</text></g><!--entity UC31--><g class="entity" data-entity="UC31" data-source-line="51" data-uid="ent0034" id="entity_UC31"><ellipse cx="239.3967" cy="1992.1793" fill="#F1F1F1" rx="81.3967" ry="18.6793" style="stroke:#181818;stroke-width:0.5;"/><text fill="#000000" font-family="sans-serif" font-size="14" lengthAdjust="spacing" textLength="133.957" x="172.4182" y="1996.8278">Corregir ex&#225;menes</text></g><!--entity UC41--><g class="entity" data-entity="UC41" data-source-line="55" data-uid="ent0036" id="entity_UC41"><ellipse cx="239.3711" cy="2101.7742" fill="#F1F1F1" rx="64.3711" ry="15.2742" style="stroke:#181818;stroke-width:0.5;"/><text fill="#000000" font-family="sans-serif" font-size="14" lengthAdjust="spacing" textLength="91.793" x="193.4746" y="2106.4227">Iniciar sesi&#243;n</text></g><!--entity UC42--><g class="entity" data-entity="UC42" data-source-line="56" data-uid="ent0037" id="entity_UC42"><ellipse cx="239.4046" cy="2167.8809" fill="#F1F1F1" rx="64.9046" ry="15.3809" style="stroke:#181818;stroke-width:0.5;"/><text fill="#000000" font-family="sans-serif" font-size="14" lengthAdjust="spacing" textLength="93.2148" x="192.7972" y="2172.5294">Cerrar sesi&#243;n</text></g><!--entity UC13--><g class="entity" data-entity="UC13" data-source-line="60" data-uid="ent0039" id="entity_UC13"><ellipse cx="239.729" cy="2277.9458" fill="#F1F1F1" rx="80.229" ry="18.4458" style="stroke:#181818;stroke-width:0.5;"/><text fill="#000000" font-family="sans-serif" font-size="14" lengthAdjust="spacing" textLength="131.2158" x="174.1211" y="2282.5942">Completar Gesti&#243;n</text></g><!--entity doc--><g class="entity" data-entity="doc" data-source-line="3" data-uid="ent0002" id="entity_doc"><ellipse cx="35.3159" cy="1046.5" fill="#F1F1F1" rx="8" ry="8" style="stroke:#181818;stroke-width:0.5;"/><path d="M35.3159,1054.5 L35.3159,1081.5 M22.3159,1062.5 L48.3159,1062.5 M35.3159,1081.5 L22.3159,1096.5 M35.3159,1081.5 L48.3159,1096.5" fill="none" style="stroke:#181818;stroke-width:0.5;"/><text fill="#000000" font-family="sans-serif" font-size="14" lengthAdjust="spacing" textLength="58.6318" x="6" y="1110.9951">Docente</text></g><!--link doc to UC1--><g class="link" data-entity-1="doc" data-entity-2="UC1" data-source-line="64" data-uid="lnk40" id="link_doc_UC1"><path d="M36.35,1037.86 C36.04,865.14 38.61,161.52 101,88 C119.71,65.95 144.4201,58.0307 172.0501,55.2507" fill="none" id="doc-to-UC1" style="stroke:#181818;stroke-width:1;"/><polygon fill="#181818" points="178.02,54.65,168.6648,51.5711,173.0451,55.1505,169.4657,59.5309,178.02,54.65" style="stroke:#181818;stroke-width:1;"/></g><!--link doc to UC2--><g class="link" data-entity-1="doc" data-entity-2="UC2" data-source-line="65" data-uid="lnk41" id="link_doc_UC2"><path d="M36.54,1037.86 C37.05,872.18 42.78,220.3 101,152 C120.8,128.78 147.8791,121.0486 176.6191,118.7486" fill="none" id="doc-to-UC2" style="stroke:#181818;stroke-width:1;"/><polygon fill="#181818" points="182.6,118.27,173.3096,115.0007,177.6159,118.6689,173.9478,122.9752,182.6,118.27" style="stroke:#181818;stroke-width:1;"/></g><!--link doc to UC3--><g class="link" data-entity-1="doc" data-entity-2="UC3" data-source-line="66" data-uid="lnk42" id="link_doc_UC3"><path d="M36.75,1037.9 C38.15,879.72 46.99,280.02 101,217 C119.58,195.32 143.7635,187.3731 171.0935,184.4731" fill="none" id="doc-to-UC3" style="stroke:#181818;stroke-width:1;"/><polygon fill="#181818" points="177.06,183.84,167.6882,180.812,172.0879,184.3676,168.5323,188.7673,177.06,183.84" style="stroke:#181818;stroke-width:1;"/></g><!--link doc to UC4--><g class="link" data-entity-1="doc" data-entity-2="UC4" data-source-line="67" data-uid="lnk43" id="link_doc_UC4"><path d="M37.68,1037.78 C42.44,893.34 61.83,385.97 101,326 C122.19,293.56 156.7245,275.9754 188.2145,264.9954" fill="none" id="doc-to-UC4" style="stroke:#181818;stroke-width:1;"/><polygon fill="#181818" points="193.88,263.02,184.0648,262.2062,189.1588,264.6662,186.6988,269.7602,193.88,263.02" style="stroke:#181818;stroke-width:1;"/></g><!--link doc to UC5--><g class="link" data-entity-1="doc" data-entity-2="UC5" data-source-line="68" data-uid="lnk44" id="link_doc_UC5"><path d="M37.59,1037.75 C41.81,901.33 59.01,444.06 101,395 C117.02,376.29 135.6059,367.9721 159.5059,363.4221" fill="none" id="doc-to-UC5" style="stroke:#181818;stroke-width:1;"/><polygon fill="#181818" points="165.4,362.3,155.8107,360.0537,160.4882,363.2351,157.3069,367.9126,165.4,362.3" style="stroke:#181818;stroke-width:1;"/></g><!--link doc to UC6--><g class="link" data-entity-1="doc" data-entity-2="UC6" data-source-line="69" data-uid="lnk45" id="link_doc_UC6"><path d="M38.01,1037.65 C43.36,910.2 63.18,506.42 101,463 C117.72,443.81 137.4748,435.5851 162.1348,431.3951" fill="none" id="doc-to-UC6" style="stroke:#181818;stroke-width:1;"/><polygon fill="#181818" points="168.05,430.39,158.5071,427.9541,163.1206,431.2276,159.8472,435.8411,168.05,430.39" style="stroke:#181818;stroke-width:1;"/></g><!--link doc to UC7--><g class="link" data-entity-1="doc" data-entity-2="UC7" data-source-line="70" data-uid="lnk46" id="link_doc_UC7"><path d="M38.55,1037.99 C45.2,920.85 67.71,570.96 101,533 C116.92,514.85 134.9159,506.6438 158.3259,501.9738" fill="none" id="doc-to-UC7" style="stroke:#181818;stroke-width:1;"/><polygon fill="#181818" points="164.21,500.8,154.6014,498.638,159.3066,501.7782,156.1664,506.4834,164.21,500.8" style="stroke:#181818;stroke-width:1;"/></g><!--link doc to UC8--><g class="link" data-entity-1="doc" data-entity-2="UC8" data-source-line="71" data-uid="lnk47" id="link_doc_UC8"><path d="M38.04,1037.67 C42.44,944.87 57.64,711.09 101,648 C122.06,617.35 153.7737,599.5148 184.2137,587.4248" fill="none" id="doc-to-UC8" style="stroke:#181818;stroke-width:1;"/><polygon fill="#181818" points="189.79,585.21,179.9491,584.8146,185.1431,587.0556,182.9021,592.2497,189.79,585.21" style="stroke:#181818;stroke-width:1;"/></g><!--link doc to UC9--><g class="link" data-entity-1="doc" data-entity-2="UC9" data-source-line="72" data-uid="lnk48" id="link_doc_UC9"><path d="M38.12,1037.86 C42.47,954.45 57.17,759.53 101,713 C119.6,693.25 141.8192,685.2509 167.8192,681.5709" fill="none" id="doc-to-UC9" style="stroke:#181818;stroke-width:1;"/><polygon fill="#181818" points="173.76,680.73,164.2883,678.0307,168.8093,681.4307,165.4094,685.9518,173.76,680.73" style="stroke:#181818;stroke-width:1;"/></g><!--link doc to UC10--><g class="link" data-entity-1="doc" data-entity-2="UC10" data-source-line="73" data-uid="lnk49" id="link_doc_UC10"><path d="M39.73,1037.91 C46.6,966.07 65.07,814.49 101,778 C120.52,758.18 143.8077,750.3947 170.3077,747.0347" fill="none" id="doc-to-UC10" style="stroke:#181818;stroke-width:1;"/><polygon fill="#181818" points="176.26,746.28,166.8283,743.4438,171.2997,746.9089,167.8346,751.3803,176.26,746.28" style="stroke:#181818;stroke-width:1;"/></g><!--link doc to UC11--><g class="link" data-entity-1="doc" data-entity-2="UC11" data-source-line="74" data-uid="lnk50" id="link_doc_UC11"><path d="M35.99,1037.76 C37.48,986.48 48.09,896 101,845 C120.09,826.6 141.6118,818.7753 166.9818,814.8153" fill="none" id="doc-to-UC11" style="stroke:#181818;stroke-width:1;"/><polygon fill="#181818" points="172.91,813.89,163.4008,811.3259,167.9698,814.6611,164.6346,819.2301,172.91,813.89" style="stroke:#181818;stroke-width:1;"/></g><!--link doc to UC12--><g class="link" data-entity-1="doc" data-entity-2="UC12" data-source-line="75" data-uid="lnk51" id="link_doc_UC12"><path d="M41.57,1037.82 C48.53,1000.81 64.61,945.73 101,914 C119.72,897.68 139.1782,890.0744 163.0182,885.4844" fill="none" id="doc-to-UC12" style="stroke:#181818;stroke-width:1;"/><polygon fill="#181818" points="168.91,884.35,159.3161,882.1237,164.0002,885.2953,160.8286,889.9794,168.91,884.35" style="stroke:#181818;stroke-width:1;"/></g><!--link doc to UC13--><g class="link" data-entity-1="doc" data-entity-2="UC13" data-source-line="76" data-uid="lnk52" id="link_doc_UC13"><path d="M36.55,1114.21 C37.06,1300.24 42.64,2106.1 101,2200 C120.7,2231.7 152.6762,2249.5857 183.5662,2261.4057" fill="none" id="doc-to-UC13" style="stroke:#181818;stroke-width:1;"/><polygon fill="#181818" points="189.17,2263.55,182.1939,2256.5978,184.5002,2261.7631,179.3348,2264.0694,189.17,2263.55" style="stroke:#181818;stroke-width:1;"/></g><!--link doc to UC17--><g class="link" data-entity-1="doc" data-entity-2="UC17" data-source-line="77" data-uid="lnk53" id="link_doc_UC17"><path d="M65.01,1068.24 C96.99,1059.53 143.6509,1046.8268 182.5309,1036.2368" fill="none" id="doc-to-UC17" style="stroke:#181818;stroke-width:1;"/><polygon fill="#181818" points="188.32,1034.66,178.5851,1033.1658,183.4958,1035.974,180.6876,1040.8846,188.32,1034.66" style="stroke:#181818;stroke-width:1;"/></g><!--link doc to UC19--><g class="link" data-entity-1="doc" data-entity-2="UC19" data-source-line="78" data-uid="lnk54" id="link_doc_UC19"><path d="M55.28,1037.84 C66.22,1019.32 81.68,998.26 101,985 C121.1,971.2 140.3572,964.1059 163.6072,959.0459" fill="none" id="doc-to-UC19" style="stroke:#181818;stroke-width:1;"/><polygon fill="#181818" points="169.47,957.77,159.8252,955.7754,164.5844,958.8333,161.5265,963.5924,169.47,957.77" style="stroke:#181818;stroke-width:1;"/></g><!--link doc to UC20--><g class="link" data-entity-1="doc" data-entity-2="UC20" data-source-line="79" data-uid="lnk55" id="link_doc_UC20"><path d="M65.01,1083.76 C98.29,1092.82 147.9705,1106.3547 187.2205,1117.0347" fill="none" id="doc-to-UC20" style="stroke:#181818;stroke-width:1;"/><polygon fill="#181818" points="193.01,1118.61,185.376,1112.3873,188.1854,1117.2972,183.2755,1120.1067,193.01,1118.61" style="stroke:#181818;stroke-width:1;"/></g><!--link doc to UC21--><g class="link" data-entity-1="doc" data-entity-2="UC21" data-source-line="80" data-uid="lnk56" id="link_doc_UC21"><path d="M55.97,1114.28 C66.91,1132.19 82.17,1152.31 101,1165 C123.23,1179.98 145.5522,1187.2675 170.6422,1191.9575" fill="none" id="doc-to-UC21" style="stroke:#181818;stroke-width:1;"/><polygon fill="#181818" points="176.54,1193.06,168.4282,1187.4744,171.6251,1192.1413,166.9583,1195.3382,176.54,1193.06" style="stroke:#181818;stroke-width:1;"/></g><!--link doc to UC22--><g class="link" data-entity-1="doc" data-entity-2="UC22" data-source-line="81" data-uid="lnk57" id="link_doc_UC22"><path d="M42.31,1114.09 C49.74,1149.69 66.12,1201.77 101,1232 C120.27,1248.7 140.5389,1256.472 164.8689,1261.172" fill="none" id="doc-to-UC22" style="stroke:#181818;stroke-width:1;"/><polygon fill="#181818" points="170.76,1262.31,162.6821,1256.6756,165.8508,1261.3616,161.1647,1264.5304,170.76,1262.31" style="stroke:#181818;stroke-width:1;"/></g><!--link doc to UC23--><g class="link" data-entity-1="doc" data-entity-2="UC23" data-source-line="82" data-uid="lnk58" id="link_doc_UC23"><path d="M36.51,1114.4 C38.67,1164.41 50.14,1251.3 101,1301 C118.03,1317.64 135.8985,1325.5684 158.8585,1330.5884" fill="none" id="doc-to-UC23" style="stroke:#181818;stroke-width:1;"/><polygon fill="#181818" points="164.72,1331.87,156.7821,1326.04,159.8354,1330.802,155.0733,1333.8553,164.72,1331.87" style="stroke:#181818;stroke-width:1;"/></g><!--link doc to UC24--><g class="link" data-entity-1="doc" data-entity-2="UC24" data-source-line="83" data-uid="lnk59" id="link_doc_UC24"><path d="M39.91,1114 C47.06,1185.29 65.94,1335.21 101,1372 C116.69,1388.47 133.0273,1396.4629 154.9973,1401.7629" fill="none" id="doc-to-UC24" style="stroke:#181818;stroke-width:1;"/><polygon fill="#181818" points="160.83,1403.17,153.019,1397.1709,155.9694,1401.9974,151.1429,1404.9479,160.83,1403.17" style="stroke:#181818;stroke-width:1;"/></g><!--link doc to UC25--><g class="link" data-entity-1="doc" data-entity-2="UC25" data-source-line="84" data-uid="lnk60" id="link_doc_UC25"><path d="M38.09,1114.04 C42.4,1198.28 57.07,1396.94 101,1445 C116.43,1461.88 132.8236,1469.9983 154.9236,1475.2683" fill="none" id="doc-to-UC25" style="stroke:#181818;stroke-width:1;"/><polygon fill="#181818" points="160.76,1476.66,152.9333,1470.6815,155.8964,1475.5002,151.0776,1478.4633,160.76,1476.66" style="stroke:#181818;stroke-width:1;"/></g><!--link doc to UC26--><g class="link" data-entity-1="doc" data-entity-2="UC26" data-source-line="85" data-uid="lnk61" id="link_doc_UC26"><path d="M37.99,1114.35 C42.29,1209.03 57.39,1450.99 101,1517 C119.81,1545.48 146.5034,1563.3092 174.9634,1576.8692" fill="none" id="doc-to-UC26" style="stroke:#181818;stroke-width:1;"/><polygon fill="#181818" points="180.38,1579.45,173.9756,1571.9678,175.8662,1577.2993,170.5346,1579.1899,180.38,1579.45" style="stroke:#181818;stroke-width:1;"/></g><!--link doc to UC27--><g class="link" data-entity-1="doc" data-entity-2="UC27" data-source-line="86" data-uid="lnk62" id="link_doc_UC27"><path d="M38.47,1114.31 C45,1235.06 67.46,1602.12 101,1643 C112.21,1656.66 122.0931,1663.9168 138.6231,1670.4768" fill="none" id="doc-to-UC27" style="stroke:#181818;stroke-width:1;"/><polygon fill="#181818" points="144.2,1672.69,137.3101,1665.6523,139.5526,1670.8457,134.3592,1673.0881,144.2,1672.69" style="stroke:#181818;stroke-width:1;"/></g><!--link doc to UC28--><g class="link" data-entity-1="doc" data-entity-2="UC28" data-source-line="87" data-uid="lnk63" id="link_doc_UC28"><path d="M38.23,1114.15 C44.49,1246.01 67.38,1677.31 101,1729 C121.35,1760.29 153.2869,1778.178 184.0069,1790.108" fill="none" id="doc-to-UC28" style="stroke:#181818;stroke-width:1;"/><polygon fill="#181818" points="189.6,1792.28,182.6584,1785.2932,184.9391,1790.47,179.7624,1792.7506,189.6,1792.28" style="stroke:#181818;stroke-width:1;"/></g><!--link doc to UC29--><g class="link" data-entity-1="doc" data-entity-2="UC29" data-source-line="88" data-uid="lnk64" id="link_doc_UC29"><path d="M37.17,1114.15 C40.07,1261.33 53.72,1786.79 101,1843 C116.01,1860.85 132.8203,1869.1299 155.4403,1874.1099" fill="none" id="doc-to-UC29" style="stroke:#181818;stroke-width:1;"/><polygon fill="#181818" points="161.3,1875.4,153.3705,1869.5585,156.4169,1874.3249,151.6505,1877.3714,161.3,1875.4" style="stroke:#181818;stroke-width:1;"/></g><!--link doc to UC31--><g class="link" data-entity-1="doc" data-entity-2="UC31" data-source-line="89" data-uid="lnk65" id="link_doc_UC31"><path d="M37.34,1114.1 C41.06,1268.91 57.71,1845.83 101,1914 C120.94,1945.39 152.6932,1963.2477 183.4432,1975.1277" fill="none" id="doc-to-UC31" style="stroke:#181818;stroke-width:1;"/><polygon fill="#181818" points="189.04,1977.29,182.0863,1970.3153,184.376,1975.4881,179.2032,1977.7778,189.04,1977.29" style="stroke:#181818;stroke-width:1;"/></g><!--link doc to UC41--><g class="link" data-entity-1="doc" data-entity-2="UC41" data-source-line="90" data-uid="lnk66" id="link_doc_UC41"><path d="M36.94,1114.04 C39.16,1281.62 51.11,1949.09 101,2027 C122.26,2060.2 157.8685,2077.921 189.6785,2088.721" fill="none" id="doc-to-UC41" style="stroke:#181818;stroke-width:1;"/><polygon fill="#181818" points="195.36,2090.65,188.1238,2083.9689,190.6254,2089.0425,185.5518,2091.5442,195.36,2090.65" style="stroke:#181818;stroke-width:1;"/></g><!--link doc to UC42--><g class="link" data-entity-1="doc" data-entity-2="UC42" data-source-line="91" data-uid="lnk67" id="link_doc_UC42"><path d="M36.19,1114.13 C35.05,1294.35 34.26,2055.45 101,2135 C118.83,2156.25 141.7564,2164.4252 168.4564,2167.7652" fill="none" id="doc-to-UC42" style="stroke:#181818;stroke-width:1;"/><polygon fill="#181818" points="174.41,2168.51,165.9761,2163.4238,169.4487,2167.8894,164.9831,2171.3619,174.41,2168.51" style="stroke:#181818;stroke-width:1;"/></g><!--SRC=[VLJBQiCm4BpxAqJkXKZEyr8eQIWv50gblQlonXMr9IFB42Zzc7v3Fo4_LZ_YU2rlUripezdPqLeP73tpbZcTldkMQ0VAQskYI2fl7PlTMmN6mup9aYLMHL4XrOTCWSqUppz9bLdsu6HYP-mpOgmgGScondOEf6DfXzGdNtOSmwzm0SiBAZ2wJxGFJiSZFDEvDW5Z4NqHtkvAdHhfAoT9WnB1hSeoT3amUgihmkf4PqtwdT0sjEcioWsTgBn0xUdjn6oBzaRvd7AA1JYdROuupTKCf4DUM3S8NNjjHwpzYMQjctcf5OBIw_EFOGcm9mTfPNoJDn50SK7xlPc76HJ3yOx1YHH25K7c4B96ItWDOj9m4L59J6XBykvtrXnrMc-8QlDu00DEPa4KLr4rPgUPVMl8NOCLQVVV8slIq_uaSp21XywPOz22S1rhWqdTxpSbrTlon_IkVdzQP-7jDqYg6wdpDzQAEQdq32MXSZ1QwTfFsQFTqp5QaHquDwK8iak_jnEpUP51a_P0w7w0E6fqwdUKtTpSjg_YK0jKnwXUe7g9wXMgrwZUe7gBUytn1-xCSMkEUtCipB6Qm6fYD0TM4rXDu544daNWOGHkAl0u0Zk8STF5w4Fy0W00]--></g></svg>