<svg xmlns="http://www.w3.org/2000/svg" xmlns:xlink="http://www.w3.org/1999/xlink" contentStyleType="text/css" data-diagram-type="DESCRIPTION" height="3200px" preserveAspectRatio="none" style="width:547px;height:3200px;background:#FFFFFF;" version="1.1" viewBox="0 0 547 3200" width="547px" zoomAndPan="magnify"><defs/><g><!--cluster M?dulo Grado--><g class="cluster" data-entity="M.dulo Grado" data-source-line="7" data-uid="ent0005" id="cluster_M.dulo Grado"><path d="M306.87,6 L418.1815,6 A3.75,3.75 0 0 1 420.6815,8.5 L427.6815,28.2969 L470.8,28.2969 A2.5,2.5 0 0 1 473.3,30.7969 L473.3,279.5 A2.5,2.5 0 0 1 470.8,282 L306.87,282 A2.5,2.5 0 0 1 304.37,279.5 L304.37,8.5 A2.5,2.5 0 0 1 306.87,6" fill="none" style="stroke:#000000;stroke-width:1.5;"/><line style="stroke:#000000;stroke-width:1.5;" x1="304.37" x2="427.6815" y1="28.2969" y2="28.2969"/><text fill="#000000" font-family="sans-serif" font-size="14" font-weight="bold" lengthAdjust="spacing" textLength="110.3115" x="308.37" y="20.9951">M&#243;dulo Grado</text></g><!--cluster M?dulo Asignatura--><g class="cluster" data-entity="M.dulo Asignatura" data-source-line="14" data-uid="ent0010" id="cluster_M.dulo Asignatura"><path d="M292.8,306 L443.0422,306 A3.75,3.75 0 0 1 445.5422,308.5 L452.5422,328.2969 L484.87,328.2969 A2.5,2.5 0 0 1 487.37,330.7969 L487.37,599.5 A2.5,2.5 0 0 1 484.87,602 L292.8,602 A2.5,2.5 0 0 1 290.3,599.5 L290.3,308.5 A2.5,2.5 0 0 1 292.8,306" fill="none" style="stroke:#000000;stroke-width:1.5;"/><line style="stroke:#000000;stroke-width:1.5;" x1="290.3" x2="452.5422" y1="328.2969" y2="328.2969"/><text fill="#000000" font-family="sans-serif" font-size="14" font-weight="bold" lengthAdjust="spacing" textLength="149.2422" x="294.3" y="320.9951">M&#243;dulo Asignatura</text></g><!--cluster M?dulo Alumno--><g class="cluster" data-entity="M.dulo Alumno" data-source-line="21" data-uid="ent0015" id="cluster_M.dulo Alumno"><path d="M297.75,626 L421.3525,626 A3.75,3.75 0 0 1 423.8525,628.5 L430.8525,648.2969 L479.93,648.2969 A2.5,2.5 0 0 1 482.43,650.7969 L482.43,978.5 A2.5,2.5 0 0 1 479.93,981 L297.75,981 A2.5,2.5 0 0 1 295.25,978.5 L295.25,628.5 A2.5,2.5 0 0 1 297.75,626" fill="none" style="stroke:#000000;stroke-width:1.5;"/><line style="stroke:#000000;stroke-width:1.5;" x1="295.25" x2="430.8525" y1="648.2969" y2="648.2969"/><text fill="#000000" font-family="sans-serif" font-size="14" font-weight="bold" lengthAdjust="spacing" textLength="122.6025" x="299.25" y="640.9951">M&#243;dulo Alumno</text></g><!--cluster M?dulo Asignaciones--><g class="cluster" data-entity="M.dulo Asignaciones" data-source-line="29" data-uid="ent0021" id="cluster_M.dulo Asignaciones"><path d="M249.56,1005 L417.3022,1005 A3.75,3.75 0 0 1 419.8022,1007.5 L426.8022,1027.2969 L528.11,1027.2969 A2.5,2.5 0 0 1 530.61,1029.7969 L530.61,1280.5 A2.5,2.5 0 0 1 528.11,1283 L249.56,1283 A2.5,2.5 0 0 1 247.06,1280.5 L247.06,1007.5 A2.5,2.5 0 0 1 249.56,1005" fill="none" style="stroke:#000000;stroke-width:1.5;"/><line style="stroke:#000000;stroke-width:1.5;" x1="247.06" x2="426.8022" y1="1027.2969" y2="1027.2969"/><text fill="#000000" font-family="sans-serif" font-size="14" font-weight="bold" lengthAdjust="spacing" textLength="166.7422" x="251.06" y="1019.9951">M&#243;dulo Asignaciones</text></g><!--cluster M?dulo Gesti?n de Preguntas--><g class="cluster" data-entity="M.dulo Gesti.n de Preguntas" data-source-line="35" data-uid="ent0025" id="cluster_M.dulo Gesti.n de Preguntas"><path d="M266.85,1307 L501.4271,1307 A3.75,3.75 0 0 1 503.9271,1309.5 L510.9271,1329.2969 L510.82,1329.2969 A2.5,2.5 0 0 1 513.32,1331.7969 L513.32,1805.5 A2.5,2.5 0 0 1 510.82,1808 L266.85,1808 A2.5,2.5 0 0 1 264.35,1805.5 L264.35,1309.5 A2.5,2.5 0 0 1 266.85,1307" fill="none" style="stroke:#000000;stroke-width:1.5;"/><line style="stroke:#000000;stroke-width:1.5;" x1="264.35" x2="510.9271" y1="1329.2969" y2="1329.2969"/><text fill="#000000" font-family="sans-serif" font-size="14" font-weight="bold" lengthAdjust="spacing" textLength="233.5771" x="268.35" y="1321.9951">M&#243;dulo Gesti&#243;n de Preguntas</text></g><!--cluster M?dulo Configuraci?n General--><g class="cluster" data-entity="M.dulo Configuraci.n General" data-source-line="45" data-uid="ent0033" id="cluster_M.dulo Configuraci.n General"><path d="M260.89,1832 L500.9632,1832 A3.75,3.75 0 0 1 503.4632,1834.5 L510.4632,1854.2969 L516.79,1854.2969 A2.5,2.5 0 0 1 519.29,1856.7969 L519.29,2016.5 A2.5,2.5 0 0 1 516.79,2019 L260.89,2019 A2.5,2.5 0 0 1 258.39,2016.5 L258.39,1834.5 A2.5,2.5 0 0 1 260.89,1832" fill="none" style="stroke:#000000;stroke-width:1.5;"/><line style="stroke:#000000;stroke-width:1.5;" x1="258.39" x2="510.4632" y1="1854.2969" y2="1854.2969"/><text fill="#000000" font-family="sans-serif" font-size="14" font-weight="bold" lengthAdjust="spacing" textLength="239.0732" x="262.39" y="1846.9951">M&#243;dulo Configuraci&#243;n General</text></g><!--cluster M?dulo Examen--><g class="cluster" data-entity="M.dulo Examen" data-source-line="50" data-uid="ent0036" id="cluster_M.dulo Examen"><path d="M295.7,2043 L421.6199,2043 A3.75,3.75 0 0 1 424.1199,2045.5 L431.1199,2065.2969 L481.97,2065.2969 A2.5,2.5 0 0 1 484.47,2067.7969 L484.47,2196.5 A2.5,2.5 0 0 1 481.97,2199 L295.7,2199 A2.5,2.5 0 0 1 293.2,2196.5 L293.2,2045.5 A2.5,2.5 0 0 1 295.7,2043" fill="none" style="stroke:#000000;stroke-width:1.5;"/><line style="stroke:#000000;stroke-width:1.5;" x1="293.2" x2="431.1199" y1="2065.2969" y2="2065.2969"/><text fill="#000000" font-family="sans-serif" font-size="14" font-weight="bold" lengthAdjust="spacing" textLength="124.9199" x="297.2" y="2057.9951">M&#243;dulo Examen</text></g><!--cluster M?dulo Correcci?n--><g class="cluster" data-entity="M.dulo Correcci.n" data-source-line="55" data-uid="ent0039" id="cluster_M.dulo Correcci.n"><path d="M293.94,2223 L441.9468,2223 A3.75,3.75 0 0 1 444.4468,2225.5 L451.4468,2245.2969 L483.73,2245.2969 A2.5,2.5 0 0 1 486.23,2247.7969 L486.23,2309.5 A2.5,2.5 0 0 1 483.73,2312 L293.94,2312 A2.5,2.5 0 0 1 291.44,2309.5 L291.44,2225.5 A2.5,2.5 0 0 1 293.94,2223" fill="none" style="stroke:#000000;stroke-width:1.5;"/><line style="stroke:#000000;stroke-width:1.5;" x1="291.44" x2="451.4468" y1="2245.2969" y2="2245.2969"/><text fill="#000000" font-family="sans-serif" font-size="14" font-weight="bold" lengthAdjust="spacing" textLength="147.0068" x="295.44" y="2237.9951">M&#243;dulo Correcci&#243;n</text></g><!--cluster M?dulo Usuarios Docentes--><g class="cluster" data-entity="M.dulo Usuarios Docentes" data-source-line="59" data-uid="ent0041" id="cluster_M.dulo Usuarios Docentes"><path d="M279.74,2595 L490.7332,2595 A3.75,3.75 0 0 1 493.2332,2597.5 L500.2332,2617.2969 L498.93,2617.2969 A2.5,2.5 0 0 1 501.43,2619.7969 L501.43,2880.5 A2.5,2.5 0 0 1 498.93,2883 L279.74,2883 A2.5,2.5 0 0 1 277.24,2880.5 L277.24,2597.5 A2.5,2.5 0 0 1 279.74,2595" fill="none" style="stroke:#000000;stroke-width:1.5;"/><line style="stroke:#000000;stroke-width:1.5;" x1="277.24" x2="500.2332" y1="2617.2969" y2="2617.2969"/><text fill="#000000" font-family="sans-serif" font-size="14" font-weight="bold" lengthAdjust="spacing" textLength="209.9932" x="281.24" y="2609.9951">M&#243;dulo Usuarios Docentes</text></g><!--cluster M?dulo Gesti?n Licencias(intencion)--><g class="cluster" data-entity="M.dulo Gesti.n Licencias.intencion." data-source-line="66" data-uid="ent0046" id="cluster_M.dulo Gesti.n Licencias.intencion."><path d="M240.89,2907 L528.7464,2907 A3.75,3.75 0 0 1 531.2464,2909.5 L538.2464,2929.2969 L537.78,2929.2969 A2.5,2.5 0 0 1 540.28,2931.7969 L540.28,3190.5 A2.5,2.5 0 0 1 537.78,3193 L240.89,3193 A2.5,2.5 0 0 1 238.39,3190.5 L238.39,2909.5 A2.5,2.5 0 0 1 240.89,2907" fill="none" style="stroke:#000000;stroke-width:1.5;"/><line style="stroke:#000000;stroke-width:1.5;" x1="238.39" x2="538.2464" y1="2929.2969" y2="2929.2969"/><text fill="#000000" font-family="sans-serif" font-size="14" font-weight="bold" lengthAdjust="spacing" textLength="286.8564" x="242.39" y="2921.9951">M&#243;dulo Gesti&#243;n Licencias(intencion)</text></g><!--cluster M?dulo Sesi?n--><g class="cluster" data-entity="M.dulo Sesi.n" data-source-line="73" data-uid="ent0051" id="cluster_M.dulo Sesi.n"><path d="M253.97,2336 L370.094,2336 A3.75,3.75 0 0 1 372.594,2338.5 L379.594,2358.2969 L523.7,2358.2969 A2.5,2.5 0 0 1 526.2,2360.7969 L526.2,2568.5 A2.5,2.5 0 0 1 523.7,2571 L253.97,2571 A2.5,2.5 0 0 1 251.47,2568.5 L251.47,2338.5 A2.5,2.5 0 0 1 253.97,2336" fill="none" style="stroke:#000000;stroke-width:1.5;"/><line style="stroke:#000000;stroke-width:1.5;" x1="251.47" x2="379.594" y1="2358.2969" y2="2358.2969"/><text fill="#000000" font-family="sans-serif" font-size="14" font-weight="bold" lengthAdjust="spacing" textLength="115.124" x="255.47" y="2350.9951">M&#243;dulo Sesi&#243;n</text></g><!--entity UC1--><g class="entity" data-entity="UC1" data-source-line="8" data-uid="ent0006" id="entity_UC1"><ellipse cx="388.8422" cy="251.0044" fill="#F1F1F1" rx="61.3722" ry="14.6744" style="stroke:#181818;stroke-width:0.5;"/><text fill="#000000" font-family="sans-serif" font-size="14" lengthAdjust="spacing" textLength="83.6035" x="347.0404" y="255.6529">Crear grado</text></g><!--entity UC2--><g class="entity" data-entity="UC2" data-source-line="9" data-uid="ent0007" id="entity_UC2"><ellipse cx="388.8377" cy="187.0036" fill="#F1F1F1" rx="56.9977" ry="14.5236" style="stroke:#181818;stroke-width:0.5;"/><text fill="#000000" font-family="sans-serif" font-size="14" lengthAdjust="spacing" textLength="76.3643" x="350.6556" y="191.6521">Ver grados</text></g><!--entity UC3--><g class="entity" data-entity="UC3" data-source-line="10" data-uid="ent0008" id="entity_UC3"><ellipse cx="388.8435" cy="122.9987" fill="#F1F1F1" rx="62.4435" ry="14.8887" style="stroke:#181818;stroke-width:0.5;"/><text fill="#000000" font-family="sans-serif" font-size="14" lengthAdjust="spacing" textLength="86.5703" x="345.5584" y="127.6471">Editar grado</text></g><!--entity UC4--><g class="entity" data-entity="UC4" data-source-line="11" data-uid="ent0009" id="entity_UC4"><ellipse cx="388.8352" cy="57.003" fill="#F1F1F1" rx="68.4652" ry="16.093" style="stroke:#181818;stroke-width:0.5;"/><text fill="#000000" font-family="sans-serif" font-size="14" lengthAdjust="spacing" textLength="102.4844" x="337.593" y="61.6515">Eliminar grado</text></g><!--entity UC5--><g class="entity" data-entity="UC5" data-source-line="15" data-uid="ent0011" id="entity_UC5"><ellipse cx="388.8386" cy="568.9977" fill="#F1F1F1" rx="74.5886" ry="17.3177" style="stroke:#181818;stroke-width:0.5;"/><text fill="#000000" font-family="sans-serif" font-size="14" lengthAdjust="spacing" textLength="117.7285" x="329.9743" y="573.6462">Crear asignatura</text></g><!--entity UC6--><g class="entity" data-entity="UC6" data-source-line="16" data-uid="ent0012" id="entity_UC6"><ellipse cx="388.8432" cy="499.9986" fill="#F1F1F1" rx="71.6432" ry="16.7286" style="stroke:#181818;stroke-width:0.5;"/><text fill="#000000" font-family="sans-serif" font-size="14" lengthAdjust="spacing" textLength="110.4893" x="333.5986" y="504.6471">Ver asignaturas</text></g><!--entity UC7--><g class="entity" data-entity="UC7" data-source-line="17" data-uid="ent0013" id="entity_UC7"><ellipse cx="388.8432" cy="431.0026" fill="#F1F1F1" rx="75.8132" ry="17.5626" style="stroke:#181818;stroke-width:0.5;"/><text fill="#000000" font-family="sans-serif" font-size="14" lengthAdjust="spacing" textLength="120.6953" x="328.4956" y="435.6511">Editar asignatura</text></g><!--entity UC8--><g class="entity" data-entity="UC8" data-source-line="18" data-uid="ent0014" id="entity_UC8"><ellipse cx="388.8427" cy="359.9965" fill="#F1F1F1" rx="82.5327" ry="18.9065" style="stroke:#181818;stroke-width:0.5;"/><text fill="#000000" font-family="sans-serif" font-size="14" lengthAdjust="spacing" textLength="136.6094" x="320.538" y="364.645">Eliminar asignatura</text></g><!--entity UC9--><g class="entity" data-entity="UC9" data-source-line="22" data-uid="ent0016" id="entity_UC9"><ellipse cx="388.8414" cy="949.0023" fill="#F1F1F1" rx="65.7114" ry="15.5423" style="stroke:#181818;stroke-width:0.5;"/><text fill="#000000" font-family="sans-serif" font-size="14" lengthAdjust="spacing" textLength="95.3477" x="341.1676" y="953.6507">Crear alumno</text></g><!--entity UC10--><g class="entity" data-entity="UC10" data-source-line="23" data-uid="ent0017" id="entity_UC10"><ellipse cx="388.8358" cy="883.0012" fill="#F1F1F1" rx="63.0058" ry="15.0012" style="stroke:#181818;stroke-width:0.5;"/><text fill="#000000" font-family="sans-serif" font-size="14" lengthAdjust="spacing" textLength="88.1084" x="344.7816" y="887.6496">Ver alumnos</text></g><!--entity UC11--><g class="entity" data-entity="UC11" data-source-line="24" data-uid="ent0018" id="entity_UC11"><ellipse cx="388.8364" cy="816.9993" fill="#F1F1F1" rx="66.8464" ry="15.7693" style="stroke:#181818;stroke-width:0.5;"/><text fill="#000000" font-family="sans-serif" font-size="14" lengthAdjust="spacing" textLength="98.3145" x="339.6791" y="821.6477">Editar alumno</text></g><!--entity UC12--><g class="entity" data-entity="UC12" data-source-line="25" data-uid="ent0019" id="entity_UC12"><ellipse cx="388.8367" cy="749.0013" fill="#F1F1F1" rx="73.1567" ry="17.0313" style="stroke:#181818;stroke-width:0.5;"/><text fill="#000000" font-family="sans-serif" font-size="14" lengthAdjust="spacing" textLength="114.2285" x="331.7225" y="753.6498">Eliminar alumno</text></g><!--entity UC19--><g class="entity" data-entity="UC19" data-source-line="26" data-uid="ent0020" id="entity_UC19"><ellipse cx="388.8404" cy="678.9981" fill="#F1F1F1" rx="77.5904" ry="17.9181" style="stroke:#181818;stroke-width:0.5;"/><text fill="#000000" font-family="sans-serif" font-size="14" lengthAdjust="spacing" textLength="124.9609" x="326.36" y="683.6465">Importar alumnos</text></g><!--entity UC13--><g class="entity" data-entity="UC13" data-source-line="30" data-uid="ent0022" id="entity_UC13"><ellipse cx="388.8395" cy="1242.9959" fill="#F1F1F1" rx="109.8295" ry="24.3659" style="stroke:#181818;stroke-width:0.5;"/><text fill="#000000" font-family="sans-serif" font-size="14" lengthAdjust="spacing" textLength="197.5107" x="290.0842" y="1247.6443">Actualizar grado del alumno</text></g><!--entity UC15--><g class="entity" data-entity="UC15" data-source-line="31" data-uid="ent0023" id="entity_UC15"><ellipse cx="388.8419" cy="1157.0004" fill="#F1F1F1" rx="120.2519" ry="26.4504" style="stroke:#181818;stroke-width:0.5;"/><text fill="#000000" font-family="sans-serif" font-size="14" lengthAdjust="spacing" textLength="219.8916" x="278.8961" y="1161.6488">Actualizar asignatura del grado</text></g><!--entity UC17--><g class="entity" data-entity="UC17" data-source-line="32" data-uid="ent0024" id="entity_UC17"><ellipse cx="388.835" cy="1067.995" fill="#F1F1F1" rx="125.775" ry="27.555" style="stroke:#181818;stroke-width:0.5;"/><text fill="#000000" font-family="sans-serif" font-size="14" lengthAdjust="spacing" textLength="231.6357" x="273.0171" y="1072.6434">Actualizar asignatura del alumno</text></g><!--entity UC20--><g class="entity" data-entity="UC20" data-source-line="36" data-uid="ent0026" id="entity_UC20"><ellipse cx="388.8421" cy="1776.0004" fill="#F1F1F1" rx="70.2021" ry="16.4404" style="stroke:#181818;stroke-width:0.5;"/><text fill="#000000" font-family="sans-serif" font-size="14" lengthAdjust="spacing" textLength="106.8867" x="335.3987" y="1780.6489">Crear pregunta</text></g><!--entity UC21--><g class="entity" data-entity="UC21" data-source-line="37" data-uid="ent0027" id="entity_UC21"><ellipse cx="388.8409" cy="1709.0022" fill="#F1F1F1" rx="67.3609" ry="15.8722" style="stroke:#181818;stroke-width:0.5;"/><text fill="#000000" font-family="sans-serif" font-size="14" lengthAdjust="spacing" textLength="99.6475" x="339.0172" y="1713.6506">Ver preguntas</text></g><!--entity UC30--><g class="entity" data-entity="UC30" data-source-line="38" data-uid="ent0028" id="entity_UC30"><ellipse cx="388.841" cy="1642.9962" fill="#F1F1F1" rx="64.581" ry="15.3162" style="stroke:#181818;stroke-width:0.5;"/><text fill="#000000" font-family="sans-serif" font-size="14" lengthAdjust="spacing" textLength="92.3535" x="342.6642" y="1647.6446">Ver pregunta</text></g><!--entity UC22--><g class="entity" data-entity="UC22" data-source-line="39" data-uid="ent0029" id="entity_UC22"><ellipse cx="388.8377" cy="1575.9975" fill="#F1F1F1" rx="71.3877" ry="16.6775" style="stroke:#181818;stroke-width:0.5;"/><text fill="#000000" font-family="sans-serif" font-size="14" lengthAdjust="spacing" textLength="109.8535" x="333.9109" y="1580.646">Editar pregunta</text></g><!--entity UC23--><g class="entity" data-entity="UC23" data-source-line="40" data-uid="ent0030" id="entity_UC23"><ellipse cx="388.8386" cy="1505.9957" fill="#F1F1F1" rx="77.9286" ry="17.9857" style="stroke:#181818;stroke-width:0.5;"/><text fill="#000000" font-family="sans-serif" font-size="14" lengthAdjust="spacing" textLength="125.7676" x="325.9548" y="1510.6442">Eliminar pregunta</text></g><!--entity UC24--><g class="entity" data-entity="UC24" data-source-line="41" data-uid="ent0031" id="entity_UC24"><ellipse cx="388.8358" cy="1433.9972" fill="#F1F1F1" rx="82.4858" ry="18.8972" style="stroke:#181818;stroke-width:0.5;"/><text fill="#000000" font-family="sans-serif" font-size="14" lengthAdjust="spacing" textLength="136.5" x="320.5858" y="1438.6456">Importar preguntas</text></g><!--entity UC25--><g class="entity" data-entity="UC25" data-source-line="42" data-uid="ent0032" id="entity_UC25"><ellipse cx="388.843" cy="1361.0026" fill="#F1F1F1" rx="82.213" ry="18.8426" style="stroke:#181818;stroke-width:0.5;"/><text fill="#000000" font-family="sans-serif" font-size="14" lengthAdjust="spacing" textLength="135.8643" x="320.9109" y="1365.651">Exportar preguntas</text></g><!--entity UC26--><g class="entity" data-entity="UC26" data-source-line="46" data-uid="ent0034" id="entity_UC26"><ellipse cx="388.8435" cy="1978.0007" fill="#F1F1F1" rx="114.1535" ry="25.2307" style="stroke:#181818;stroke-width:0.5;"/><text fill="#000000" font-family="sans-serif" font-size="14" lengthAdjust="spacing" textLength="206.835" x="285.426" y="1982.6491">Exportar configuraci&#243;n global</text></g><!--entity UC27--><g class="entity" data-entity="UC27" data-source-line="47" data-uid="ent0035" id="entity_UC27"><ellipse cx="388.8393" cy="1891.9999" fill="#F1F1F1" rx="114.4493" ry="25.2899" style="stroke:#181818;stroke-width:0.5;"/><text fill="#000000" font-family="sans-serif" font-size="14" lengthAdjust="spacing" textLength="207.4707" x="285.104" y="1896.6483">Importar configuraci&#243;n global</text></g><!--entity UC28--><g class="entity" data-entity="UC28" data-source-line="51" data-uid="ent0037" id="entity_UC28"><ellipse cx="388.8401" cy="2166" fill="#F1F1F1" rx="73.6501" ry="17.13" style="stroke:#181818;stroke-width:0.5;"/><text fill="#000000" font-family="sans-serif" font-size="14" lengthAdjust="spacing" textLength="115.4385" x="331.1209" y="2170.6485">Crear examenes</text></g><!--entity UC29--><g class="entity" data-entity="UC29" data-source-line="52" data-uid="ent0038" id="entity_UC29"><ellipse cx="388.8447" cy="2095.9969" fill="#F1F1F1" rx="79.6347" ry="18.3269" style="stroke:#181818;stroke-width:0.5;"/><text fill="#000000" font-family="sans-serif" font-size="14" lengthAdjust="spacing" textLength="129.8145" x="323.9375" y="2100.6454">Asignar examenes</text></g><!--entity UC31--><g class="entity" data-entity="UC31" data-source-line="56" data-uid="ent0040" id="entity_UC31"><ellipse cx="388.8367" cy="2276.9993" fill="#F1F1F1" rx="81.3967" ry="18.6793" style="stroke:#181818;stroke-width:0.5;"/><text fill="#000000" font-family="sans-serif" font-size="14" lengthAdjust="spacing" textLength="133.957" x="321.8582" y="2281.6478">Corregir ex&#225;menes</text></g><!--entity UC32--><g class="entity" data-entity="UC32" data-source-line="60" data-uid="ent0042" id="entity_UC32"><ellipse cx="388.8407" cy="2713.0001" fill="#F1F1F1" rx="68.0007" ry="16.0001" style="stroke:#181818;stroke-width:0.5;"/><text fill="#000000" font-family="sans-serif" font-size="14" lengthAdjust="spacing" textLength="101.2949" x="338.1932" y="2717.6486">Crear profesor</text></g><!--entity UC33--><g class="entity" data-entity="UC33" data-source-line="61" data-uid="ent0043" id="entity_UC33"><ellipse cx="388.8374" cy="2645.9975" fill="#F1F1F1" rx="68.5374" ry="16.1075" style="stroke:#181818;stroke-width:0.5;"/><text fill="#000000" font-family="sans-serif" font-size="14" lengthAdjust="spacing" textLength="102.6689" x="337.503" y="2650.6459">Ver profesores</text></g><!--entity UC34--><g class="entity" data-entity="UC34" data-source-line="62" data-uid="ent0044" id="entity_UC34"><ellipse cx="388.8431" cy="2851.0026" fill="#F1F1F1" rx="69.1631" ry="16.2326" style="stroke:#181818;stroke-width:0.5;"/><text fill="#000000" font-family="sans-serif" font-size="14" lengthAdjust="spacing" textLength="104.2617" x="336.7122" y="2855.6511">Editar profesor</text></g><!--entity UC35--><g class="entity" data-entity="UC35" data-source-line="63" data-uid="ent0045" id="entity_UC35"><ellipse cx="388.8381" cy="2781.9996" fill="#F1F1F1" rx="75.5981" ry="17.5196" style="stroke:#181818;stroke-width:0.5;"/><text fill="#000000" font-family="sans-serif" font-size="14" lengthAdjust="spacing" textLength="120.1758" x="328.7502" y="2786.6481">Eliminar profesor</text></g><!--entity UC36--><g class="entity" data-entity="UC36" data-source-line="67" data-uid="ent0047" id="entity_UC36"><ellipse cx="388.8356" cy="3023.9991" fill="#F1F1F1" rx="72.6956" ry="16.9391" style="stroke:#181818;stroke-width:0.5;"/><text fill="#000000" font-family="sans-serif" font-size="14" lengthAdjust="spacing" textLength="113.0938" x="332.2887" y="3028.6476">Adquirir licencia</text></g><!--entity UC37--><g class="entity" data-entity="UC37" data-source-line="68" data-uid="ent0048" id="entity_UC37"><ellipse cx="388.8373" cy="2957.0035" fill="#F1F1F1" rx="63.2673" ry="15.0535" style="stroke:#181818;stroke-width:0.5;"/><text fill="#000000" font-family="sans-serif" font-size="14" lengthAdjust="spacing" textLength="88.8193" x="344.4276" y="2961.6519">Ver licencias</text></g><!--entity UC38--><g class="entity" data-entity="UC38" data-source-line="69" data-uid="ent0049" id="entity_UC38"><ellipse cx="388.8405" cy="3161.0041" fill="#F1F1F1" rx="67.1205" ry="15.8241" style="stroke:#181818;stroke-width:0.5;"/><text fill="#000000" font-family="sans-serif" font-size="14" lengthAdjust="spacing" textLength="99.0254" x="339.3278" y="3165.6525">Editar licencia</text></g><!--entity UC39--><g class="entity" data-entity="UC39" data-source-line="70" data-uid="ent0050" id="entity_UC39"><ellipse cx="388.8364" cy="3092.9993" fill="#F1F1F1" rx="73.4464" ry="17.0893" style="stroke:#181818;stroke-width:0.5;"/><text fill="#000000" font-family="sans-serif" font-size="14" lengthAdjust="spacing" textLength="114.9395" x="331.3667" y="3097.6477">Eliminar licencia</text></g><!--entity UC40--><g class="entity" data-entity="UC40" data-source-line="74" data-uid="ent0052" id="entity_UC40"><ellipse cx="388.8379" cy="2463.0036" fill="#F1F1F1" rx="121.3679" ry="26.6736" style="stroke:#181818;stroke-width:0.5;"/><text fill="#000000" font-family="sans-serif" font-size="14" lengthAdjust="spacing" textLength="222.2705" x="277.7027" y="2467.652">Cerrar sesi&#243;n autom&#225;ticamente</text></g><!--entity UC41--><g class="entity" data-entity="UC41" data-source-line="75" data-uid="ent0053" id="entity_UC41"><ellipse cx="388.8411" cy="2386.0042" fill="#F1F1F1" rx="64.3711" ry="15.2742" style="stroke:#181818;stroke-width:0.5;"/><text fill="#000000" font-family="sans-serif" font-size="14" lengthAdjust="spacing" textLength="91.793" x="342.9446" y="2390.6527">Iniciar sesi&#243;n</text></g><!--entity UC42--><g class="entity" data-entity="UC42" data-source-line="76" data-uid="ent0054" id="entity_UC42"><ellipse cx="388.8446" cy="2540.0009" fill="#F1F1F1" rx="64.9046" ry="15.3809" style="stroke:#181818;stroke-width:0.5;"/><text fill="#000000" font-family="sans-serif" font-size="14" lengthAdjust="spacing" textLength="93.2148" x="342.2372" y="2544.6494">Cerrar sesi&#243;n</text></g><!--entity doc--><g class="entity" data-entity="doc" data-source-line="3" data-uid="ent0002" id="entity_doc"><ellipse cx="100.5259" cy="1127.35" fill="#F1F1F1" rx="8" ry="8" style="stroke:#181818;stroke-width:0.5;"/><path d="M100.5259,1135.35 L100.5259,1162.35 M87.5259,1143.35 L113.5259,1143.35 M100.5259,1162.35 L87.5259,1177.35 M100.5259,1162.35 L113.5259,1177.35" fill="none" style="stroke:#181818;stroke-width:0.5;"/><text fill="#000000" font-family="sans-serif" font-size="14" lengthAdjust="spacing" textLength="58.6318" x="71.21" y="1191.8451">Docente</text></g><!--entity admin--><g class="entity" data-entity="admin" data-source-line="4" data-uid="ent0003" id="entity_admin"><ellipse cx="100.5308" cy="2786.35" fill="#F1F1F1" rx="8" ry="8" style="stroke:#181818;stroke-width:0.5;"/><path d="M100.5308,2794.35 L100.5308,2821.35 M87.5308,2802.35 L113.5308,2802.35 M100.5308,2821.35 L87.5308,2836.35 M100.5308,2821.35 L113.5308,2836.35" fill="none" style="stroke:#181818;stroke-width:0.5;"/><text fill="#000000" font-family="sans-serif" font-size="14" lengthAdjust="spacing" textLength="189.0615" x="6" y="2850.8451">Administrador Institucional</text></g><!--entity tiempo--><g class="entity" data-entity="tiempo" data-source-line="5" data-uid="ent0004" id="entity_tiempo"><ellipse cx="100.5323" cy="2433.35" fill="#F1F1F1" rx="8" ry="8" style="stroke:#181818;stroke-width:0.5;"/><path d="M100.5323,2441.35 L100.5323,2468.35 M87.5323,2449.35 L113.5323,2449.35 M100.5323,2468.35 L87.5323,2483.35 M100.5323,2468.35 L113.5323,2483.35" fill="none" style="stroke:#181818;stroke-width:0.5;"/><text fill="#000000" font-family="sans-serif" font-size="14" lengthAdjust="spacing" textLength="52.1445" x="74.46" y="2497.8451">Tiempo</text></g><!--link doc to UC1--><g class="link" data-entity-1="doc" data-entity-2="UC1" data-source-line="79" data-uid="lnk55" id="link_doc_UC1"><path d="M102.8,1118.42 C108.3,972.1 134.37,453.28 230.39,325 C257,289.46 299.1721,271.9112 335.1921,262.0712" fill="none" id="doc-to-UC1" style="stroke:#181818;stroke-width:1;"/><polygon fill="#181818" points="340.98,260.49,331.244,259.0031,336.1567,261.8076,333.3522,266.7203,340.98,260.49" style="stroke:#181818;stroke-width:1;"/></g><!--link doc to UC2--><g class="link" data-entity-1="doc" data-entity-2="UC2" data-source-line="80" data-uid="lnk56" id="link_doc_UC2"><path d="M101.14,1118.53 C100.34,959.05 105.64,352 230.39,219 C256.25,191.43 292.8417,184.2214 327.2117,183.4114" fill="none" id="doc-to-UC2" style="stroke:#181818;stroke-width:1;"/><polygon fill="#181818" points="333.21,183.27,324.1183,179.4832,328.2114,183.3878,324.3067,187.4809,333.21,183.27" style="stroke:#181818;stroke-width:1;"/></g><!--link doc to UC3--><g class="link" data-entity-1="doc" data-entity-2="UC3" data-source-line="81" data-uid="lnk57" id="link_doc_UC3"><path d="M103.86,1118.5 C114.79,943.33 163.36,227.09 230.39,155 C254.8,128.75 288.3754,121.0451 321.7454,119.6251" fill="none" id="doc-to-UC3" style="stroke:#181818;stroke-width:1;"/><polygon fill="#181818" points="327.74,119.37,318.5781,115.7562,322.7445,119.5826,318.9182,123.749,327.74,119.37" style="stroke:#181818;stroke-width:1;"/></g><!--link doc to UC4--><g class="link" data-entity-1="doc" data-entity-2="UC4" data-source-line="82" data-uid="lnk58" id="link_doc_UC4"><path d="M103.57,1118.52 C113.54,936.63 159.59,168.66 230.39,91 C253,66.2 283.0297,57.666 314.8997,55.076" fill="none" id="doc-to-UC4" style="stroke:#181818;stroke-width:1;"/><polygon fill="#181818" points="320.88,54.59,311.5856,51.3321,315.8964,54.995,312.2336,59.3059,320.88,54.59" style="stroke:#181818;stroke-width:1;"/></g><!--link doc to UC5--><g class="link" data-entity-1="doc" data-entity-2="UC5" data-source-line="83" data-uid="lnk59" id="link_doc_UC5"><path d="M100.7,1118.46 C100.72,1026.08 112.98,789.06 230.39,645 C257.04,612.3 295.4532,594.5217 330.2232,583.4417" fill="none" id="doc-to-UC5" style="stroke:#181818;stroke-width:1;"/><polygon fill="#181818" points="335.94,581.62,326.1504,580.5414,331.176,583.1381,328.5794,588.1638,335.94,581.62" style="stroke:#181818;stroke-width:1;"/></g><!--link doc to UC6--><g class="link" data-entity-1="doc" data-entity-2="UC6" data-source-line="84" data-uid="lnk60" id="link_doc_UC6"><path d="M104.11,1118.54 C113.12,996 147.29,617.83 230.39,534 C252.83,511.36 280.5441,502.7785 311.0041,499.5185" fill="none" id="doc-to-UC6" style="stroke:#181818;stroke-width:1;"/><polygon fill="#181818" points="316.97,498.88,307.5954,495.8605,311.9984,499.4121,308.4468,503.815,316.97,498.88" style="stroke:#181818;stroke-width:1;"/></g><!--link doc to UC7--><g class="link" data-entity-1="doc" data-entity-2="UC7" data-source-line="85" data-uid="lnk61" id="link_doc_UC7"><path d="M103.28,1118.6 C110.04,987.55 138.81,560.78 230.39,466 C251.6,444.05 277.3392,435.2171 306.7392,431.4271" fill="none" id="doc-to-UC7" style="stroke:#181818;stroke-width:1;"/><polygon fill="#181818" points="312.69,430.66,303.2524,427.8435,307.731,431.2993,304.2753,435.7779,312.69,430.66" style="stroke:#181818;stroke-width:1;"/></g><!--link doc to UC8--><g class="link" data-entity-1="doc" data-entity-2="UC8" data-source-line="86" data-uid="lnk62" id="link_doc_UC8"><path d="M102.58,1118.69 C107.17,979.37 130.1,502.18 230.39,396 C249.84,375.41 272.5287,366.4386 300.0387,361.9386" fill="none" id="doc-to-UC8" style="stroke:#181818;stroke-width:1;"/><polygon fill="#181818" points="305.96,360.97,296.4323,358.4753,301.0256,361.7772,297.7238,366.3704,305.96,360.97" style="stroke:#181818;stroke-width:1;"/></g><!--link doc to UC9--><g class="link" data-entity-1="doc" data-entity-2="UC9" data-source-line="87" data-uid="lnk63" id="link_doc_UC9"><path d="M130.1,1121.07 C154.46,1092.14 191.61,1051.85 230.39,1024 C268.38,996.71 312.2652,977.2076 345.5352,964.3176" fill="none" id="doc-to-UC9" style="stroke:#181818;stroke-width:1;"/><polygon fill="#181818" points="351.13,962.15,341.2928,961.6716,346.4677,963.9563,344.1829,969.1313,351.13,962.15" style="stroke:#181818;stroke-width:1;"/></g><!--link doc to UC10--><g class="link" data-entity-1="doc" data-entity-2="UC10" data-source-line="88" data-uid="lnk64" id="link_doc_UC10"><path d="M111.05,1118.53 C126.51,1064.47 162.43,966.94 230.39,916 C257.54,895.65 288.4228,887.8069 319.6428,884.5269" fill="none" id="doc-to-UC10" style="stroke:#181818;stroke-width:1;"/><polygon fill="#181818" points="325.61,883.9,316.2413,880.8623,320.6374,884.4224,317.0772,888.8185,325.61,883.9" style="stroke:#181818;stroke-width:1;"/></g><!--link doc to UC11--><g class="link" data-entity-1="doc" data-entity-2="UC11" data-source-line="89" data-uid="lnk65" id="link_doc_UC11"><path d="M106.2,1118.43 C116.29,1052.67 146.47,919.26 230.39,850 C255.7,829.11 284.9737,821.0849 315.7037,817.8149" fill="none" id="doc-to-UC11" style="stroke:#181818;stroke-width:1;"/><polygon fill="#181818" points="321.67,817.18,312.2973,814.1548,316.6981,817.7091,313.1438,822.1099,321.67,817.18" style="stroke:#181818;stroke-width:1;"/></g><!--link doc to UC12--><g class="link" data-entity-1="doc" data-entity-2="UC12" data-source-line="90" data-uid="lnk66" id="link_doc_UC12"><path d="M103.03,1118.42 C108.17,1042.37 130.83,872.83 230.39,784 C253.48,763.4 280.0234,754.8591 309.4934,750.8991" fill="none" id="doc-to-UC12" style="stroke:#181818;stroke-width:1;"/><polygon fill="#181818" points="315.44,750.1,305.9875,747.3342,310.4845,750.7659,307.0529,755.263,315.44,750.1" style="stroke:#181818;stroke-width:1;"/></g><!--link doc to UC13--><g class="link" data-entity-1="doc" data-entity-2="UC13" data-source-line="91" data-uid="lnk67" id="link_doc_UC13"><path d="M130.26,1167.44 C156.26,1176.74 195.67,1190.45 230.39,1201 C257.87,1209.34 282.4967,1216.1465 309.2367,1223.1665" fill="none" id="doc-to-UC13" style="stroke:#181818;stroke-width:1;"/><polygon fill="#181818" points="315.04,1224.69,307.3507,1218.5358,310.2039,1223.4204,305.3193,1226.2736,315.04,1224.69" style="stroke:#181818;stroke-width:1;"/></g><!--link doc to UC15--><g class="link" data-entity-1="doc" data-entity-2="UC15" data-source-line="92" data-uid="lnk68" id="link_doc_UC15"><path d="M130.29,1157 C162.7,1157 211.47,1157 262.2,1157" fill="none" id="doc-to-UC15" style="stroke:#181818;stroke-width:1;"/><polygon fill="#181818" points="268.2,1157,259.2,1153,263.2,1157,259.2,1161,268.2,1157" style="stroke:#181818;stroke-width:1;"/></g><!--link doc to UC17--><g class="link" data-entity-1="doc" data-entity-2="UC17" data-source-line="93" data-uid="lnk69" id="link_doc_UC17"><path d="M130.31,1146.71 C156.33,1137.51 195.76,1123.85 230.39,1113 C255.89,1105.01 278.1185,1098.4602 303.3485,1091.2902" fill="none" id="doc-to-UC17" style="stroke:#181818;stroke-width:1;"/><polygon fill="#181818" points="309.12,1089.65,299.3694,1088.2626,304.3104,1091.0168,301.5562,1095.9579,309.12,1089.65" style="stroke:#181818;stroke-width:1;"/></g><!--link doc to UC19--><g class="link" data-entity-1="doc" data-entity-2="UC19" data-source-line="94" data-uid="lnk70" id="link_doc_UC19"><path d="M100.56,1118.41 C100.61,1032.32 113.53,823.57 230.39,714 C251.94,693.79 276.5338,685.1725 304.9738,680.9925" fill="none" id="doc-to-UC19" style="stroke:#181818;stroke-width:1;"/><polygon fill="#181818" points="310.91,680.12,301.424,677.4712,305.9631,680.8471,302.5873,685.3862,310.91,680.12" style="stroke:#181818;stroke-width:1;"/></g><!--link doc to UC20--><g class="link" data-entity-1="doc" data-entity-2="UC20" data-source-line="95" data-uid="lnk71" id="link_doc_UC20"><path d="M104.68,1195.59 C115.08,1313.25 152.19,1664.12 230.39,1742 C253.28,1764.79 281.5917,1773.3245 312.3317,1776.4945" fill="none" id="doc-to-UC20" style="stroke:#181818;stroke-width:1;"/><polygon fill="#181818" points="318.3,1777.11,309.7578,1772.2079,313.3264,1776.5971,308.9372,1780.1657,318.3,1777.11" style="stroke:#181818;stroke-width:1;"/></g><!--link doc to UC21--><g class="link" data-entity-1="doc" data-entity-2="UC21" data-source-line="96" data-uid="lnk72" id="link_doc_UC21"><path d="M105.81,1195.47 C118.66,1303.9 160.37,1608.51 230.39,1676 C254.32,1699.06 284.0431,1707.294 315.4031,1710.054" fill="none" id="doc-to-UC21" style="stroke:#181818;stroke-width:1;"/><polygon fill="#181818" points="321.38,1710.58,312.7653,1705.8064,316.3993,1710.1416,312.064,1713.7756,321.38,1710.58" style="stroke:#181818;stroke-width:1;"/></g><!--link doc to UC22--><g class="link" data-entity-1="doc" data-entity-2="UC22" data-source-line="97" data-uid="lnk73" id="link_doc_UC22"><path d="M102.58,1195.49 C106.89,1273.13 128.08,1448.91 230.39,1541 C253.91,1562.17 281.387,1570.7202 311.397,1574.5002" fill="none" id="doc-to-UC22" style="stroke:#181818;stroke-width:1;"/><polygon fill="#181818" points="317.35,1575.25,308.9204,1570.1566,312.3892,1574.6251,307.9207,1578.0939,317.35,1575.25" style="stroke:#181818;stroke-width:1;"/></g><!--link doc to UC23--><g class="link" data-entity-1="doc" data-entity-2="UC23" data-source-line="98" data-uid="lnk74" id="link_doc_UC23"><path d="M106.01,1195.61 C115.86,1262.19 145.73,1398.33 230.39,1470 C252.86,1489.02 277.467,1497.5419 305.657,1502.1019" fill="none" id="doc-to-UC23" style="stroke:#181818;stroke-width:1;"/><polygon fill="#181818" points="311.58,1503.06,303.3342,1497.6742,306.6442,1502.2616,302.0568,1505.5715,311.58,1503.06" style="stroke:#181818;stroke-width:1;"/></g><!--link doc to UC24--><g class="link" data-entity-1="doc" data-entity-2="UC24" data-source-line="99" data-uid="lnk75" id="link_doc_UC24"><path d="M111.39,1195.54 C127.19,1249.2 163.41,1345.61 230.39,1397 C252.89,1414.26 276.2413,1422.5619 303.4213,1427.6219" fill="none" id="doc-to-UC24" style="stroke:#181818;stroke-width:1;"/><polygon fill="#181818" points="309.32,1428.72,301.2041,1423.1404,304.4045,1427.8049,299.7399,1431.0052,309.32,1428.72" style="stroke:#181818;stroke-width:1;"/></g><!--link doc to UC25--><g class="link" data-entity-1="doc" data-entity-2="UC25" data-source-line="100" data-uid="lnk76" id="link_doc_UC25"><path d="M130.32,1190.5 C154.95,1217.77 192.37,1256.02 230.39,1283 C266.84,1308.86 307.6032,1328.3345 340.5432,1342.2545" fill="none" id="doc-to-UC25" style="stroke:#181818;stroke-width:1;"/><polygon fill="#181818" points="346.07,1344.59,339.3369,1337.4022,341.4644,1342.6437,336.2228,1344.7712,346.07,1344.59" style="stroke:#181818;stroke-width:1;"/></g><!--link doc to UC26--><g class="link" data-entity-1="doc" data-entity-2="UC26" data-source-line="101" data-uid="lnk77" id="link_doc_UC26"><path d="M102.58,1195.53 C107.21,1336.82 130.3,1824.08 230.39,1935 C244.63,1950.78 258.3307,1959.1549 278.6607,1965.7249" fill="none" id="doc-to-UC26" style="stroke:#181818;stroke-width:1;"/><polygon fill="#181818" points="284.37,1967.57,277.0361,1960.9962,279.6123,1966.0325,274.5761,1968.6086,284.37,1967.57" style="stroke:#181818;stroke-width:1;"/></g><!--link doc to UC27--><g class="link" data-entity-1="doc" data-entity-2="UC27" data-source-line="102" data-uid="lnk78" id="link_doc_UC27"><path d="M104.83,1195.39 C116.16,1319.69 156.88,1708.86 230.39,1808 C252.53,1837.86 282.9614,1855.9067 314.9414,1869.0667" fill="none" id="doc-to-UC27" style="stroke:#181818;stroke-width:1;"/><polygon fill="#181818" points="320.49,1871.35,313.6893,1864.226,315.8662,1869.4473,310.645,1871.6241,320.49,1871.35" style="stroke:#181818;stroke-width:1;"/></g><!--link doc to UC28--><g class="link" data-entity-1="doc" data-entity-2="UC28" data-source-line="103" data-uid="lnk79" id="link_doc_UC28"><path d="M100.96,1195.54 C99.35,1358.93 101.64,1992.34 230.39,2132 C251.81,2155.23 279.0328,2163.9536 309.4228,2167.1436" fill="none" id="doc-to-UC28" style="stroke:#181818;stroke-width:1;"/><polygon fill="#181818" points="315.39,2167.77,306.8568,2162.8523,310.4173,2167.248,306.0216,2170.8086,315.39,2167.77" style="stroke:#181818;stroke-width:1;"/></g><!--link doc to UC29--><g class="link" data-entity-1="doc" data-entity-2="UC29" data-source-line="104" data-uid="lnk80" id="link_doc_UC29"><path d="M102.63,1195.63 C107.59,1345.24 132.09,1884.8 230.39,2019 C254.66,2052.14 291.4065,2069.9079 326.1165,2081.0379" fill="none" id="doc-to-UC29" style="stroke:#181818;stroke-width:1;"/><polygon fill="#181818" points="331.83,2082.87,324.4812,2076.3129,327.0688,2081.3433,322.0384,2083.9309,331.83,2082.87" style="stroke:#181818;stroke-width:1;"/></g><!--link doc to UC31--><g class="link" data-entity-1="doc" data-entity-2="UC31" data-source-line="105" data-uid="lnk81" id="link_doc_UC31"><path d="M101.54,1195.37 C102.26,1363.34 112.61,2032.94 230.39,2199 C254.13,2232.47 290.6728,2250.4485 325.4428,2261.7285" fill="none" id="doc-to-UC31" style="stroke:#181818;stroke-width:1;"/><polygon fill="#181818" points="331.15,2263.58,323.8236,2256.9979,326.394,2262.0371,321.3549,2264.6075,331.15,2263.58" style="stroke:#181818;stroke-width:1;"/></g><!--link doc to UC41--><g class="link" data-entity-1="doc" data-entity-2="UC41" data-source-line="106" data-uid="lnk82" id="link_doc_UC41"><path d="M103.6,1195.46 C114.14,1385.52 163.85,2219.05 230.39,2312 C255.71,2347.37 296.5731,2364.7753 332.5431,2374.6253" fill="none" id="doc-to-UC41" style="stroke:#181818;stroke-width:1;"/><polygon fill="#181818" points="338.33,2376.21,330.706,2369.975,333.5075,2374.8894,328.5931,2377.6909,338.33,2376.21" style="stroke:#181818;stroke-width:1;"/></g><!--link doc to UC42--><g class="link" data-entity-1="doc" data-entity-2="UC42" data-source-line="107" data-uid="lnk83" id="link_doc_UC42"><path d="M103.92,1195.43 C117.43,1410.46 185.34,2456.63 230.39,2507 C253.76,2533.13 286.059,2541.2411 319.029,2543.0511" fill="none" id="doc-to-UC42" style="stroke:#181818;stroke-width:1;"/><polygon fill="#181818" points="325.02,2543.38,316.2528,2538.8927,320.0275,2543.1059,315.8143,2546.8806,325.02,2543.38" style="stroke:#181818;stroke-width:1;"/></g><!--link admin to UC32--><g class="link" data-entity-1="admin" data-entity-2="UC32" data-source-line="109" data-uid="lnk84" id="link_admin_UC32"><path d="M165.12,2777.42 C185.42,2766.35 208.36,2755.1 230.39,2747 C262.54,2735.18 294.0741,2727.9484 324.3741,2722.5184" fill="none" id="admin-to-UC32" style="stroke:#181818;stroke-width:1;"/><polygon fill="#181818" points="330.28,2721.46,320.7155,2719.1103,325.3584,2722.342,322.1267,2726.9849,330.28,2721.46" style="stroke:#181818;stroke-width:1;"/></g><!--link admin to UC33--><g class="link" data-entity-1="admin" data-entity-2="UC33" data-source-line="110" data-uid="lnk85" id="link_admin_UC33"><path d="M127.31,2777.63 C150.53,2746.17 187.53,2703.05 230.39,2679 C258.4,2663.28 287.0831,2655.8976 316.7131,2651.5676" fill="none" id="admin-to-UC33" style="stroke:#181818;stroke-width:1;"/><polygon fill="#181818" points="322.65,2650.7,313.1662,2648.0434,317.7025,2651.423,314.323,2655.9594,322.65,2650.7" style="stroke:#181818;stroke-width:1;"/></g><!--link admin to UC34--><g class="link" data-entity-1="admin" data-entity-2="UC34" data-source-line="111" data-uid="lnk86" id="link_admin_UC34"><path d="M195.28,2827.46 C238.5,2832.74 282.6044,2838.1313 320.8544,2842.8113" fill="none" id="admin-to-UC34" style="stroke:#181818;stroke-width:1;"/><polygon fill="#181818" points="326.81,2843.54,318.3624,2838.4766,321.847,2842.9328,317.3908,2846.4174,326.81,2843.54" style="stroke:#181818;stroke-width:1;"/></g><!--link admin to UC35--><g class="link" data-entity-1="admin" data-entity-2="UC35" data-source-line="112" data-uid="lnk87" id="link_admin_UC35"><path d="M195.28,2804.87 C236.21,2800.01 277.3319,2795.1281 314.6919,2790.6881" fill="none" id="admin-to-UC35" style="stroke:#181818;stroke-width:1;"/><polygon fill="#181818" points="320.65,2789.98,311.2408,2787.0701,315.6849,2790.5701,312.1849,2795.0142,320.65,2789.98" style="stroke:#181818;stroke-width:1;"/></g><!--link admin to UC36--><g class="link" data-entity-1="admin" data-entity-2="UC36" data-source-line="113" data-uid="lnk88" id="link_admin_UC36"><path d="M119.43,2854.31 C140.27,2894.57 178.59,2956.58 230.39,2990 C256.36,3006.75 283.3076,3014.4817 312.2976,3018.8717" fill="none" id="admin-to-UC36" style="stroke:#181818;stroke-width:1;"/><polygon fill="#181818" points="318.23,3019.77,309.9303,3014.4676,313.2864,3019.0214,308.7326,3022.3774,318.23,3019.77" style="stroke:#181818;stroke-width:1;"/></g><!--link admin to UC37--><g class="link" data-entity-1="admin" data-entity-2="UC37" data-source-line="114" data-uid="lnk89" id="link_admin_UC37"><path d="M174.53,2854.6 C192.7,2864.03 212.2,2874 230.39,2883 C274.52,2904.83 320.8262,2926.3587 352.6162,2940.9387" fill="none" id="admin-to-UC37" style="stroke:#181818;stroke-width:1;"/><polygon fill="#181818" points="358.07,2943.44,351.5569,2936.0522,353.5252,2941.3556,348.2218,2943.3239,358.07,2943.44" style="stroke:#181818;stroke-width:1;"/></g><!--link admin to UC38--><g class="link" data-entity-1="admin" data-entity-2="UC38" data-source-line="115" data-uid="lnk90" id="link_admin_UC38"><path d="M105.88,2854.39 C115.55,2920.91 145.17,3057.25 230.39,3128 C255.53,3148.87 284.6141,3156.9216 315.2641,3160.2016" fill="none" id="admin-to-UC38" style="stroke:#181818;stroke-width:1;"/><polygon fill="#181818" points="321.23,3160.84,312.7067,3155.905,316.2584,3160.308,311.8555,3163.8596,321.23,3160.84" style="stroke:#181818;stroke-width:1;"/></g><!--link admin to UC39--><g class="link" data-entity-1="admin" data-entity-2="UC39" data-source-line="116" data-uid="lnk91" id="link_admin_UC39"><path d="M111.08,2854.51 C126.59,2908.66 162.57,3006.43 230.39,3058 C254.8,3076.56 281.1954,3084.7663 310.2054,3089.0863" fill="none" id="admin-to-UC39" style="stroke:#181818;stroke-width:1;"/><polygon fill="#181818" points="316.14,3089.97,307.8273,3084.688,311.1945,3089.2335,306.649,3092.6008,316.14,3089.97" style="stroke:#181818;stroke-width:1;"/></g><!--link admin to UC41--><g class="link" data-entity-1="admin" data-entity-2="UC41" data-source-line="117" data-uid="lnk92" id="link_admin_UC41"><path d="M113.45,2777.55 C144.05,2679.12 223.44,2425.24 230.39,2419 C255.74,2396.23 286.7119,2388.1825 318.4419,2385.4625" fill="none" id="admin-to-UC41" style="stroke:#181818;stroke-width:1;"/><polygon fill="#181818" points="324.42,2384.95,315.1112,2381.7333,319.4383,2385.3771,315.7945,2389.7041,324.42,2384.95" style="stroke:#181818;stroke-width:1;"/></g><!--link admin to UC42--><g class="link" data-entity-1="admin" data-entity-2="UC42" data-source-line="118" data-uid="lnk93" id="link_admin_UC42"><path d="M117.95,2777.56 C138.58,2733.15 177.75,2660.28 230.39,2614 C264.53,2583.99 307.2615,2565.6278 341.3715,2553.9878" fill="none" id="admin-to-UC42" style="stroke:#181818;stroke-width:1;"/><polygon fill="#181818" points="347.05,2552.05,337.2404,2551.171,342.3179,2553.6648,339.8241,2558.7423,347.05,2552.05" style="stroke:#181818;stroke-width:1;"/></g><!--link tiempo to UC40--><g class="link" data-entity-1="tiempo" data-entity-2="UC40" data-source-line="120" data-uid="lnk94" id="link_tiempo_UC40"><path d="M126.94,2463 C158.62,2463 208.99,2463 261.25,2463" fill="none" id="tiempo-to-UC40" style="stroke:#181818;stroke-width:1;"/><polygon fill="#181818" points="267.25,2463,258.25,2459,262.25,2463,258.25,2467,267.25,2463" style="stroke:#181818;stroke-width:1;"/></g><!--SRC=[ZLRDYjim4BxxAKHExM4Xafs_Io6aImYqK6YtTrLMN557IYKPbYvzc7s6VOIyM6N7YaUo77gRyNpppJUQaUsQ7oso2cbH_RIe59epAvJCCigiqcZsKJ4kBPyXQb2fc7-yBKz22cCrBPrxaCOAsp2NIEiEIjku1tyJ_7HMtNFRcLbsfkmNhJYQVRwybKsjqBvbcg6N3A76S4QDY-qqfnfLruXBVjfX6FxE-w3femH67qjXe-myYDV2IOmGHVOteMrhH2MfRJHD2gGWtB4iOfK3majT9gIEU5P9lIFOEYswRauoVQAq3tNPcv7OBkg5udbAAIJ0E2qpm0IZERWLq0FFhTJcpkctkyLDrCwMsORMue-V8Yfv7HNE9_33ANP9mP8j_YydBBHAYjzpTpCkRz8be2-QLusqr2I7SkwZVfVdyLpEG_eLWQSGVjrJeulBaEJmObIU7Dz8KH6GFK_15icZsYbv59KxNDOTs9vBhjktoKkIb8NegbO_-bUFAx1CohsRaXxVupCzSPcS5-z2_DRKEbYQRbF6eCr4vzgzTZjLSQasKecMwF8AcNASP7eo3TL26TI_jgTMJHsvKTfpaV4YNG53kJovIY5DCR5A8Mfn_vvy4auu4zIy4qw_RA_z-_ZMbxyReTsXr3tMKo_ZFZpWriOgqKRCiaws4QFIa_pAJMgAN6j7OQv1H1khJfTNArYx7FstrNrxWkjwaC9LkoLv39xczH3IAdEVQlJmyA7xP0us0NOEx0BO2s0lWRq2zXhO6rXh3XrO6SFI6DR6i226LJ2a9f2Q14r1QWAf2UoBm3e4TaPWKG9x8r113eiMWKFSxrBxm-EH97Jpq2r2Tn6woz1TXUuwT3U1wqG5hfDr_T_o3-R_0000]--></g></svg>