<svg xmlns="http://www.w3.org/2000/svg" xmlns:xlink="http://www.w3.org/1999/xlink" contentStyleType="text/css" data-diagram-type="DESCRIPTION" height="1389px" preserveAspectRatio="none" style="width:885px;height:1389px;background:#FFFFFF;" version="1.1" viewBox="0 0 885 1389" width="885px" zoomAndPan="magnify"><defs/><g><!--cluster M?dulo Grado--><g class="cluster" data-entity="M.dulo Grado" data-source-line="5" data-uid="ent0003" id="cluster_M.dulo Grado"><path d="M389,779 L500.3115,779 A3.75,3.75 0 0 1 502.8115,781.5 L509.8115,801.2969 L559,801.2969 A2.5,2.5 0 0 1 561.5,803.7969 L561.5,1056.5 A2.5,2.5 0 0 1 559,1059 L389,1059 A2.5,2.5 0 0 1 386.5,1056.5 L386.5,781.5 A2.5,2.5 0 0 1 389,779" fill="none" style="stroke:#000000;stroke-width:1.5;"/><line style="stroke:#000000;stroke-width:1.5;" x1="386.5" x2="509.8115" y1="801.2969" y2="801.2969"/><text fill="#000000" font-family="sans-serif" font-size="14" font-weight="bold" lengthAdjust="spacing" textLength="110.3115" x="390.5" y="793.9951">M&#243;dulo Grado</text></g><!--cluster M?dulo Asignatura--><g class="cluster" data-entity="M.dulo Asignatura" data-source-line="14" data-uid="ent0008" id="cluster_M.dulo Asignatura"><path d="M375,366 L525.2422,366 A3.75,3.75 0 0 1 527.7422,368.5 L534.7422,388.2969 L573,388.2969 A2.5,2.5 0 0 1 575.5,390.7969 L575.5,665.5 A2.5,2.5 0 0 1 573,668 L375,668 A2.5,2.5 0 0 1 372.5,665.5 L372.5,368.5 A2.5,2.5 0 0 1 375,366" fill="none" style="stroke:#000000;stroke-width:1.5;"/><line style="stroke:#000000;stroke-width:1.5;" x1="372.5" x2="534.7422" y1="388.2969" y2="388.2969"/><text fill="#000000" font-family="sans-serif" font-size="14" font-weight="bold" lengthAdjust="spacing" textLength="149.2422" x="376.5" y="380.9951">M&#243;dulo Asignatura</text></g><!--cluster M?dulo Alumno--><g class="cluster" data-entity="M.dulo Alumno" data-source-line="23" data-uid="ent0013" id="cluster_M.dulo Alumno"><path d="M114.5,834 L238.1025,834 A3.75,3.75 0 0 1 240.6025,836.5 L247.6025,856.2969 L293.5,856.2969 A2.5,2.5 0 0 1 296,858.7969 L296,1119.5 A2.5,2.5 0 0 1 293.5,1122 L114.5,1122 A2.5,2.5 0 0 1 112,1119.5 L112,836.5 A2.5,2.5 0 0 1 114.5,834" fill="none" style="stroke:#000000;stroke-width:1.5;"/><line style="stroke:#000000;stroke-width:1.5;" x1="112" x2="247.6025" y1="856.2969" y2="856.2969"/><text fill="#000000" font-family="sans-serif" font-size="14" font-weight="bold" lengthAdjust="spacing" textLength="122.6025" x="116" y="848.9951">M&#243;dulo Alumno</text></g><!--cluster M?dulo Gesti?n de Preguntas--><g class="cluster" data-entity="M.dulo Gesti.n de Preguntas" data-source-line="32" data-uid="ent0018" id="cluster_M.dulo Gesti.n de Preguntas"><path d="M631.5,183 L866.0771,183 A3.75,3.75 0 0 1 868.5771,185.5 L875.5771,205.2969 L875.5,205.2969 A2.5,2.5 0 0 1 878,207.7969 L878,758.5 A2.5,2.5 0 0 1 875.5,761 L631.5,761 A2.5,2.5 0 0 1 629,758.5 L629,185.5 A2.5,2.5 0 0 1 631.5,183" fill="none" style="stroke:#000000;stroke-width:1.5;"/><line style="stroke:#000000;stroke-width:1.5;" x1="629" x2="875.5771" y1="205.2969" y2="205.2969"/><text fill="#000000" font-family="sans-serif" font-size="14" font-weight="bold" lengthAdjust="spacing" textLength="233.5771" x="633" y="197.9951">M&#243;dulo Gesti&#243;n de Preguntas</text></g><!--cluster M?dulo Configuraci?n General--><g class="cluster" data-entity="M.dulo Configuraci.n General" data-source-line="45" data-uid="ent0027" id="cluster_M.dulo Configuraci.n General"><path d="M73.5,620 L313.5732,620 A3.75,3.75 0 0 1 316.0732,622.5 L323.0732,642.2969 L334.5,642.2969 A2.5,2.5 0 0 1 337,644.7969 L337,807.5 A2.5,2.5 0 0 1 334.5,810 L73.5,810 A2.5,2.5 0 0 1 71,807.5 L71,622.5 A2.5,2.5 0 0 1 73.5,620" fill="none" style="stroke:#000000;stroke-width:1.5;"/><line style="stroke:#000000;stroke-width:1.5;" x1="71" x2="323.0732" y1="642.2969" y2="642.2969"/><text fill="#000000" font-family="sans-serif" font-size="14" font-weight="bold" lengthAdjust="spacing" textLength="239.0732" x="75" y="634.9951">M&#243;dulo Configuraci&#243;n General</text></g><!--cluster M?dulo Examen--><g class="cluster" data-entity="M.dulo Examen" data-source-line="50" data-uid="ent0030" id="cluster_M.dulo Examen"><path d="M651,785 L776.9199,785 A3.75,3.75 0 0 1 779.4199,787.5 L786.4199,807.2969 L856,807.2969 A2.5,2.5 0 0 1 858.5,809.7969 L858.5,1092.5 A2.5,2.5 0 0 1 856,1095 L651,1095 A2.5,2.5 0 0 1 648.5,1092.5 L648.5,787.5 A2.5,2.5 0 0 1 651,785" fill="none" style="stroke:#000000;stroke-width:1.5;"/><line style="stroke:#000000;stroke-width:1.5;" x1="648.5" x2="786.4199" y1="807.2969" y2="807.2969"/><text fill="#000000" font-family="sans-serif" font-size="14" font-weight="bold" lengthAdjust="spacing" textLength="124.9199" x="652.5" y="799.9951">M&#243;dulo Examen</text></g><!--cluster M?dulo Sesi?n--><g class="cluster" data-entity="M.dulo Sesi.n" data-source-line="57" data-uid="ent0035" id="cluster_M.dulo Sesi.n"><path d="M672.5,1119 L788.624,1119 A3.75,3.75 0 0 1 791.124,1121.5 L798.124,1141.2969 L834.5,1141.2969 A2.5,2.5 0 0 1 837,1143.7969 L837,1266.5 A2.5,2.5 0 0 1 834.5,1269 L672.5,1269 A2.5,2.5 0 0 1 670,1266.5 L670,1121.5 A2.5,2.5 0 0 1 672.5,1119" fill="none" style="stroke:#000000;stroke-width:1.5;"/><line style="stroke:#000000;stroke-width:1.5;" x1="670" x2="798.124" y1="1141.2969" y2="1141.2969"/><text fill="#000000" font-family="sans-serif" font-size="14" font-weight="bold" lengthAdjust="spacing" textLength="115.124" x="674" y="1133.9951">M&#243;dulo Sesi&#243;n</text></g><!--cluster M?dulo Gesti?n--><g class="cluster" data-entity="M.dulo Gesti.n" data-source-line="62" data-uid="ent0038" id="cluster_M.dulo Gesti.n"><path d="M658,1293 L782.2246,1293 A3.75,3.75 0 0 1 784.7246,1295.5 L791.7246,1315.2969 L849,1315.2969 A2.5,2.5 0 0 1 851.5,1317.7969 L851.5,1379.5 A2.5,2.5 0 0 1 849,1382 L658,1382 A2.5,2.5 0 0 1 655.5,1379.5 L655.5,1295.5 A2.5,2.5 0 0 1 658,1293" fill="none" style="stroke:#000000;stroke-width:1.5;"/><line style="stroke:#000000;stroke-width:1.5;" x1="655.5" x2="791.7246" y1="1315.2969" y2="1315.2969"/><text fill="#000000" font-family="sans-serif" font-size="14" font-weight="bold" lengthAdjust="spacing" textLength="123.2246" x="659.5" y="1307.9951">M&#243;dulo Gesti&#243;n</text></g><!--cluster MI45--><g class="cluster" data-entity="MI45" data-source-line="66" data-uid="ent0040" id="cluster_MI45"><path d="M92,244 L250.9922,244 A3.75,3.75 0 0 1 253.4922,246.5 L260.4922,266.2969 L316,266.2969 A2.5,2.5 0 0 1 318.5,268.7969 L318.5,585.5 A2.5,2.5 0 0 1 316,588 L92,588 A2.5,2.5 0 0 1 89.5,585.5 L89.5,246.5 A2.5,2.5 0 0 1 92,244" fill="none" style="stroke:#000000;stroke-width:1.5;"/><line style="stroke:#000000;stroke-width:1.5;" x1="89.5" x2="260.4922" y1="266.2969" y2="266.2969"/><text fill="#000000" font-family="sans-serif" font-size="14" font-weight="bold" lengthAdjust="spacing" textLength="157.9922" x="93.5" y="258.9951">M&#243;dulo Importaci&#243;n</text></g><!--cluster ME44--><g class="cluster" data-entity="ME44" data-source-line="72" data-uid="ent0045" id="cluster_ME44"><path d="M98,6 L255.7891,6 A3.75,3.75 0 0 1 258.2891,8.5 L265.2891,28.2969 L585.5,28.2969 A2.5,2.5 0 0 1 588,30.7969 L588,201.5 A2.5,2.5 0 0 1 585.5,204 L98,204 A2.5,2.5 0 0 1 95.5,201.5 L95.5,8.5 A2.5,2.5 0 0 1 98,6" fill="none" style="stroke:#000000;stroke-width:1.5;"/><line style="stroke:#000000;stroke-width:1.5;" x1="95.5" x2="265.2891" y1="28.2969" y2="28.2969"/><text fill="#000000" font-family="sans-serif" font-size="14" font-weight="bold" lengthAdjust="spacing" textLength="156.7891" x="99.5" y="20.9951">M&#243;dulo Exportaci&#243;n</text></g><!--entity UC1--><g class="entity" data-entity="UC1" data-source-line="6" data-uid="ent0004" id="entity_UC1"><ellipse cx="474.1891" cy="829.1378" fill="#F1F1F1" rx="63.6891" ry="15.1378" style="stroke:#181818;stroke-width:0.5;"/><text fill="#000000" font-family="sans-serif" font-size="14" lengthAdjust="spacing" textLength="89.9609" x="429.2086" y="833.7863">crearGrado()</text></g><!--entity UC2--><g class="entity" data-entity="UC2" data-source-line="7" data-uid="ent0005" id="entity_UC2"><ellipse cx="473.8379" cy="894.1676" fill="#F1F1F1" rx="61.3379" ry="14.6676" style="stroke:#181818;stroke-width:0.5;"/><text fill="#000000" font-family="sans-serif" font-size="14" lengthAdjust="spacing" textLength="83.5078" x="432.084" y="898.816">verGrados()</text></g><!--entity UC3--><g class="entity" data-entity="UC3" data-source-line="8" data-uid="ent0006" id="entity_UC3"><ellipse cx="473.9934" cy="958.9987" fill="#F1F1F1" rx="65.4934" ry="15.4987" style="stroke:#181818;stroke-width:0.5;"/><text fill="#000000" font-family="sans-serif" font-size="14" lengthAdjust="spacing" textLength="94.7734" x="426.6067" y="963.6471">editarGrado()</text></g><!--entity UC4--><g class="entity" data-entity="UC4" data-source-line="9" data-uid="ent0007" id="entity_UC4"><ellipse cx="474.223" cy="1026.2446" fill="#F1F1F1" rx="71.723" ry="16.7446" style="stroke:#181818;stroke-width:0.5;"/><text fill="#000000" font-family="sans-serif" font-size="14" lengthAdjust="spacing" textLength="110.6875" x="418.8793" y="1030.893">eliminarGrado()</text></g><!--entity UC5--><g class="entity" data-entity="UC5" data-source-line="15" data-uid="ent0009" id="entity_UC5"><ellipse cx="473.822" cy="418.7644" fill="#F1F1F1" rx="76.822" ry="17.7644" style="stroke:#181818;stroke-width:0.5;"/><text fill="#000000" font-family="sans-serif" font-size="14" lengthAdjust="spacing" textLength="123.1221" x="412.261" y="423.4128">crearAsignatura()</text></g><!--entity UC6--><g class="entity" data-entity="UC6" data-source-line="16" data-uid="ent0010" id="entity_UC6"><ellipse cx="474.1536" cy="489.2307" fill="#F1F1F1" rx="74.1536" ry="17.2307" style="stroke:#181818;stroke-width:0.5;"/><text fill="#000000" font-family="sans-serif" font-size="14" lengthAdjust="spacing" textLength="116.6689" x="415.8191" y="493.8792">verAsignaturas()</text></g><!--entity UC7--><g class="entity" data-entity="UC7" data-source-line="17" data-uid="ent0011" id="entity_UC7"><ellipse cx="473.8402" cy="559.168" fill="#F1F1F1" rx="78.8402" ry="18.168" style="stroke:#181818;stroke-width:0.5;"/><text fill="#000000" font-family="sans-serif" font-size="14" lengthAdjust="spacing" textLength="127.9346" x="409.8729" y="563.8165">editarAsignatura()</text></g><!--entity UC8--><g class="entity" data-entity="UC8" data-source-line="18" data-uid="ent0012" id="entity_UC8"><ellipse cx="474.1622" cy="632.0324" fill="#F1F1F1" rx="85.6622" ry="19.5324" style="stroke:#181818;stroke-width:0.5;"/><text fill="#000000" font-family="sans-serif" font-size="14" lengthAdjust="spacing" textLength="143.8486" x="402.2378" y="636.6809">eliminarAsignatura()</text></g><!--entity UC9--><g class="entity" data-entity="UC9" data-source-line="24" data-uid="ent0014" id="entity_UC9"><ellipse cx="203.7852" cy="1089.957" fill="#F1F1F1" rx="67.7852" ry="15.957" style="stroke:#181818;stroke-width:0.5;"/><text fill="#000000" font-family="sans-serif" font-size="14" lengthAdjust="spacing" textLength="100.7412" x="153.4146" y="1094.6055">crearAlumno()</text></g><!--entity UC10--><g class="entity" data-entity="UC10" data-source-line="25" data-uid="ent0015" id="entity_UC10"><ellipse cx="203.8096" cy="1022.9619" fill="#F1F1F1" rx="65.3096" ry="15.4619" style="stroke:#181818;stroke-width:0.5;"/><text fill="#000000" font-family="sans-serif" font-size="14" lengthAdjust="spacing" textLength="94.2881" x="156.6656" y="1027.6104">verAlumnos()</text></g><!--entity UC11--><g class="entity" data-entity="UC11" data-source-line="26" data-uid="ent0016" id="entity_UC11"><ellipse cx="204.1733" cy="955.8347" fill="#F1F1F1" rx="69.6733" ry="16.3347" style="stroke:#181818;stroke-width:0.5;"/><text fill="#000000" font-family="sans-serif" font-size="14" lengthAdjust="spacing" textLength="105.5537" x="151.3964" y="960.4831">editarAlumno()</text></g><!--entity UC12--><g class="entity" data-entity="UC12" data-source-line="27" data-uid="ent0017" id="entity_UC12"><ellipse cx="204.1337" cy="887.1267" fill="#F1F1F1" rx="76.1337" ry="17.6267" style="stroke:#181818;stroke-width:0.5;"/><text fill="#000000" font-family="sans-serif" font-size="14" lengthAdjust="spacing" textLength="121.4678" x="143.3998" y="891.7752">eliminarAlumno()</text></g><!--entity UC20--><g class="entity" data-entity="UC20" data-source-line="33" data-uid="ent0019" id="entity_UC20"><ellipse cx="753.2836" cy="234.7567" fill="#F1F1F1" rx="71.7836" ry="16.7567" style="stroke:#181818;stroke-width:0.5;"/><text fill="#000000" font-family="sans-serif" font-size="14" lengthAdjust="spacing" textLength="110.8379" x="697.8647" y="239.4052">crearPregunta()</text></g><!--entity UC21--><g class="entity" data-entity="UC21" data-source-line="34" data-uid="ent0020" id="entity_UC21"><ellipse cx="753.7116" cy="303.2423" fill="#F1F1F1" rx="69.2116" ry="16.2423" style="stroke:#181818;stroke-width:0.5;"/><text fill="#000000" font-family="sans-serif" font-size="14" lengthAdjust="spacing" textLength="104.3848" x="701.5192" y="307.8907">verPreguntas()</text></g><!--entity UC22--><g class="entity" data-entity="UC22" data-source-line="35" data-uid="ent0021" id="entity_UC22"><ellipse cx="753.3464" cy="370.7693" fill="#F1F1F1" rx="69.3464" ry="16.2693" style="stroke:#181818;stroke-width:0.5;"/><text fill="#000000" font-family="sans-serif" font-size="14" lengthAdjust="spacing" textLength="104.7266" x="700.9831" y="375.4177">editarPregunta</text></g><!--entity UC23--><g class="entity" data-entity="UC23" data-source-line="36" data-uid="ent0022" id="entity_UC23"><ellipse cx="753.3772" cy="440.9754" fill="#F1F1F1" rx="80.3772" ry="18.4754" style="stroke:#181818;stroke-width:0.5;"/><text fill="#000000" font-family="sans-serif" font-size="14" lengthAdjust="spacing" textLength="131.5645" x="687.5949" y="445.6239">eliminarPregunta()</text></g><!--entity UC32--><g class="entity" data-entity="UC32" data-source-line="39" data-uid="ent0023" id="entity_UC32"><ellipse cx="753.3132" cy="512.0626" fill="#F1F1F1" rx="75.8132" ry="17.5626" style="stroke:#181818;stroke-width:0.5;"/><text fill="#000000" font-family="sans-serif" font-size="14" lengthAdjust="spacing" textLength="120.6953" x="692.9656" y="516.7111">crearRespuesta()</text></g><!--entity UC33--><g class="entity" data-entity="UC33" data-source-line="40" data-uid="ent0024" id="entity_UC33"><ellipse cx="753.6623" cy="582.0325" fill="#F1F1F1" rx="73.1623" ry="17.0325" style="stroke:#181818;stroke-width:0.5;"/><text fill="#000000" font-family="sans-serif" font-size="14" lengthAdjust="spacing" textLength="114.2422" x="696.5412" y="586.6809">verRespuestas()</text></g><!--entity UC34--><g class="entity" data-entity="UC34" data-source-line="41" data-uid="ent0025" id="entity_UC34"><ellipse cx="753.3196" cy="651.9639" fill="#F1F1F1" rx="77.8196" ry="17.9639" style="stroke:#181818;stroke-width:0.5;"/><text fill="#000000" font-family="sans-serif" font-size="14" lengthAdjust="spacing" textLength="125.5078" x="690.5657" y="656.6124">editarRespuesta()</text></g><!--entity UC35--><g class="entity" data-entity="UC35" data-source-line="42" data-uid="ent0026" id="entity_UC35"><ellipse cx="753.6086" cy="724.8217" fill="#F1F1F1" rx="84.6086" ry="19.3217" style="stroke:#181818;stroke-width:0.5;"/><text fill="#000000" font-family="sans-serif" font-size="14" lengthAdjust="spacing" textLength="141.4219" x="682.8977" y="729.4702">eliminarRespuesta()</text></g><!--entity UC26--><g class="entity" data-entity="UC26" data-source-line="46" data-uid="ent0028" id="entity_UC26"><ellipse cx="203.8711" cy="680.7742" fill="#F1F1F1" rx="116.8711" ry="25.7742" style="stroke:#181818;stroke-width:0.5;"/><text fill="#000000" font-family="sans-serif" font-size="14" lengthAdjust="spacing" textLength="212.666" x="97.5381" y="685.4227">exportarConfiguracionGlobal()</text></g><!--entity UC27--><g class="entity" data-entity="UC27" data-source-line="47" data-uid="ent0029" id="entity_UC27"><ellipse cx="204.1648" cy="767.833" fill="#F1F1F1" rx="117.1648" ry="25.833" style="stroke:#181818;stroke-width:0.5;"/><text fill="#000000" font-family="sans-serif" font-size="14" lengthAdjust="spacing" textLength="213.2949" x="97.5174" y="772.4814">importarConfiguracionGlobal()</text></g><!--entity UC28--><g class="entity" data-entity="UC28" data-source-line="51" data-uid="ent0031" id="entity_UC28"><ellipse cx="753.4504" cy="839.0901" fill="#F1F1F1" rx="83.4504" ry="19.0901" style="stroke:#181818;stroke-width:0.5;"/><text fill="#000000" font-family="sans-serif" font-size="14" lengthAdjust="spacing" textLength="138.7422" x="684.0794" y="843.7385">generarExamenes()</text></g><!--entity UC29--><g class="entity" data-entity="UC29" data-source-line="52" data-uid="ent0032" id="entity_UC29"><ellipse cx="753.5665" cy="911.8133" fill="#F1F1F1" rx="82.0665" ry="18.8133" style="stroke:#181818;stroke-width:0.5;"/><text fill="#000000" font-family="sans-serif" font-size="14" lengthAdjust="spacing" textLength="135.5225" x="685.8053" y="916.4617">asignarExamenes()</text></g><!--entity UC40--><g class="entity" data-entity="UC40" data-source-line="53" data-uid="ent0033" id="entity_UC40"><ellipse cx="753.2549" cy="986.151" fill="#F1F1F1" rx="88.7549" ry="20.151" style="stroke:#181818;stroke-width:0.5;"/><text fill="#000000" font-family="sans-serif" font-size="14" lengthAdjust="spacing" textLength="150.917" x="677.7964" y="990.7994">cancelarGeneracion()</text></g><!--entity UC31--><g class="entity" data-entity="UC31" data-source-line="54" data-uid="ent0034" id="entity_UC31"><ellipse cx="753.3827" cy="1060.0765" fill="#F1F1F1" rx="83.3827" ry="19.0765" style="stroke:#181818;stroke-width:0.5;"/><text fill="#000000" font-family="sans-serif" font-size="14" lengthAdjust="spacing" textLength="138.585" x="684.0902" y="1064.725">corregirExamenes()</text></g><!--entity UC42--><g class="entity" data-entity="UC42" data-source-line="58" data-uid="ent0036" id="entity_UC42"><ellipse cx="753.3504" cy="1169.8701" fill="#F1F1F1" rx="67.3504" ry="15.8701" style="stroke:#181818;stroke-width:0.5;"/><text fill="#000000" font-family="sans-serif" font-size="14" lengthAdjust="spacing" textLength="99.6201" x="703.5403" y="1174.5185">iniciarSesion()</text></g><!--entity UC43--><g class="entity" data-entity="UC43" data-source-line="59" data-uid="ent0037" id="entity_UC43"><ellipse cx="753.6891" cy="1236.8378" fill="#F1F1F1" rx="67.1891" ry="15.8378" style="stroke:#181818;stroke-width:0.5;"/><text fill="#000000" font-family="sans-serif" font-size="14" lengthAdjust="spacing" textLength="99.2031" x="704.0875" y="1241.4863">cerrarSesion()</text></g><!--entity UC13--><g class="entity" data-entity="UC13" data-source-line="63" data-uid="ent0039" id="entity_UC13"><ellipse cx="753.6046" cy="1346.8209" fill="#F1F1F1" rx="82.1046" ry="18.8209" style="stroke:#181818;stroke-width:0.5;"/><text fill="#000000" font-family="sans-serif" font-size="14" lengthAdjust="spacing" textLength="135.6113" x="685.7989" y="1351.4694">completarGestion()</text></g><!--entity UC38--><g class="entity" data-entity="UC38" data-source-line="67" data-uid="ent0041" id="entity_UC38"><ellipse cx="203.8683" cy="451.9737" fill="#F1F1F1" rx="90.3683" ry="20.4737" style="stroke:#181818;stroke-width:0.5;"/><text fill="#000000" font-family="sans-serif" font-size="14" lengthAdjust="spacing" textLength="154.5742" x="126.5812" y="456.6221">importarAsignaturas()</text></g><!--entity UC24--><g class="entity" data-entity="UC24" data-source-line="68" data-uid="ent0042" id="entity_UC24"><ellipse cx="203.985" cy="306.897" fill="#F1F1F1" rx="84.985" ry="19.397" style="stroke:#181818;stroke-width:0.5;"/><text fill="#000000" font-family="sans-serif" font-size="14" lengthAdjust="spacing" textLength="142.29" x="132.84" y="311.5454">importarPreguntas()</text></g><!--entity UC19--><g class="entity" data-entity="UC19" data-source-line="69" data-uid="ent0043" id="entity_UC19"><ellipse cx="204.1447" cy="526.0289" fill="#F1F1F1" rx="80.6447" ry="18.5289" style="stroke:#181818;stroke-width:0.5;"/><text fill="#000000" font-family="sans-serif" font-size="14" lengthAdjust="spacing" textLength="132.1934" x="138.048" y="530.6774">importarAlumnos()</text></g><!--entity UC36--><g class="entity" data-entity="UC36" data-source-line="70" data-uid="ent0044" id="entity_UC36"><ellipse cx="204.1109" cy="379.1222" fill="#F1F1F1" rx="76.1109" ry="17.6222" style="stroke:#181818;stroke-width:0.5;"/><text fill="#000000" font-family="sans-serif" font-size="14" lengthAdjust="spacing" textLength="121.4131" x="143.4044" y="383.7706">importarGrados()</text></g><!--entity UC25--><g class="entity" data-entity="UC25" data-source-line="73" data-uid="ent0046" id="entity_UC25"><ellipse cx="204.2123" cy="140.8425" fill="#F1F1F1" rx="84.7123" ry="19.3425" style="stroke:#181818;stroke-width:0.5;"/><text fill="#000000" font-family="sans-serif" font-size="14" lengthAdjust="spacing" textLength="141.6611" x="133.3817" y="145.4909">exportarPreguntas()</text></g><!--entity UC17--><g class="entity" data-entity="UC17" data-source-line="74" data-uid="ent0047" id="entity_UC17"><ellipse cx="203.8772" cy="67.9754" fill="#F1F1F1" rx="80.3772" ry="18.4754" style="stroke:#181818;stroke-width:0.5;"/><text fill="#000000" font-family="sans-serif" font-size="14" lengthAdjust="spacing" textLength="131.5645" x="138.0949" y="72.6239">exportarAlumnos()</text></g><!--entity UC39--><g class="entity" data-entity="UC39" data-source-line="75" data-uid="ent0048" id="entity_UC39"><ellipse cx="474.0903" cy="139.9181" fill="#F1F1F1" rx="90.0903" ry="20.4181" style="stroke:#181818;stroke-width:0.5;"/><text fill="#000000" font-family="sans-serif" font-size="14" lengthAdjust="spacing" textLength="153.9453" x="397.1176" y="144.5665">exportarAsignaturas()</text></g><!--entity UC37--><g class="entity" data-entity="UC37" data-source-line="76" data-uid="ent0049" id="entity_UC37"><ellipse cx="473.8501" cy="67.07" fill="#F1F1F1" rx="75.8501" ry="17.57" style="stroke:#181818;stroke-width:0.5;"/><text fill="#000000" font-family="sans-serif" font-size="14" lengthAdjust="spacing" textLength="120.7842" x="413.458" y="71.7184">exportarGrados()</text></g><!--entity doc--><g class="entity" data-entity="doc" data-source-line="3" data-uid="ent0002" id="entity_doc"><ellipse cx="473.8159" cy="695.5" fill="#F1F1F1" rx="8" ry="8" style="stroke:#181818;stroke-width:0.5;"/><path d="M473.8159,703.5 L473.8159,730.5 M460.8159,711.5 L486.8159,711.5 M473.8159,730.5 L460.8159,745.5 M473.8159,730.5 L486.8159,745.5" fill="none" style="stroke:#181818;stroke-width:0.5;"/><text fill="#000000" font-family="sans-serif" font-size="14" lengthAdjust="spacing" textLength="58.6318" x="444.5" y="759.9951">Docente</text></g><!--reverse link UC1 to doc--><g class="link" data-entity-1="UC1" data-entity-2="doc" data-source-line="80" data-uid="lnk51" id="link_UC1_doc"><path d="M474,807.97 C474,791.06 474,780.14 474,763.23" fill="none" id="UC1-backto-doc" style="stroke:#181818;stroke-width:1;"/><polygon fill="#181818" points="474,813.97,478,804.97,474,808.97,470,804.97,474,813.97" style="stroke:#181818;stroke-width:1;"/></g><!--reverse link UC2 to doc--><g class="link" data-entity-1="UC2" data-entity-2="doc" data-source-line="81" data-uid="lnk53" id="link_UC2_doc"><path d="M410.3239,887.5638 C383.4239,881.5638 361.67,870.16 354.75,843.5 C349.55,823.48 350.47,813.19 364.5,798 C387.44,773.16 420.45,752.64 444.23,739.75" fill="none" id="UC2-backto-doc" style="stroke:#181818;stroke-width:1;"/><polygon fill="#181818" points="416.18,888.87,408.2667,883.0066,411.2999,887.7815,406.5251,890.8148,416.18,888.87" style="stroke:#181818;stroke-width:1;"/></g><!--reverse link UC3 to doc--><g class="link" data-entity-1="UC3" data-entity-2="doc" data-source-line="82" data-uid="lnk55" id="link_UC3_doc"><path d="M407.3879,951.7703 C381.4479,945.5003 361.42,934.18 354.75,908.5 C344.36,868.49 344.36,855.51 354.75,815.5 C356.99,806.88 358.46,804.54 364.5,798 C387.44,773.16 420.45,752.64 444.23,739.75" fill="none" id="UC3-backto-doc" style="stroke:#181818;stroke-width:1;"/><polygon fill="#181818" points="413.22,953.18,405.4117,947.1775,408.36,952.0053,403.5321,954.9535,413.22,953.18" style="stroke:#181818;stroke-width:1;"/></g><!--reverse link UC4 to doc--><g class="link" data-entity-1="UC4" data-entity-2="doc" data-source-line="83" data-uid="lnk57" id="link_UC4_doc"><path d="M403.8237,1017.1528 C379.1437,1010.3828 361.13,999.06 354.75,974.5 C345.87,940.3 345.87,849.7 354.75,815.5 C356.99,806.88 358.46,804.54 364.5,798 C387.44,773.16 420.45,752.64 444.23,739.75" fill="none" id="UC4-backto-doc" style="stroke:#181818;stroke-width:1;"/><polygon fill="#181818" points="409.61,1018.74,401.9888,1012.5017,404.7881,1017.4173,399.8725,1020.2167,409.61,1018.74" style="stroke:#181818;stroke-width:1;"/></g><!--reverse link UC5 to doc--><g class="link" data-entity-1="UC5" data-entity-2="doc" data-source-line="84" data-uid="lnk59" id="link_UC5_doc"><path d="M400.6136,429.499 C377.1336,436.699 360.86,447.96 354.75,471.5 C344.75,510 344.75,612 354.75,650.5 C356.99,659.12 358.12,661.79 364.5,668 C387.24,690.11 420.29,705.71 444.12,714.93" fill="none" id="UC5-backto-doc" style="stroke:#181818;stroke-width:1;"/><polygon fill="#181818" points="406.35,427.74,396.5728,426.5543,401.5697,429.2059,398.9181,434.2028,406.35,427.74" style="stroke:#181818;stroke-width:1;"/></g><!--reverse link UC6 to doc--><g class="link" data-entity-1="UC6" data-entity-2="doc" data-source-line="85" data-uid="lnk61" id="link_UC6_doc"><path d="M402.2013,498.3699 C378.1113,505.2599 360.99,516.49 354.75,540.5 C342.46,587.82 342.46,603.18 354.75,650.5 C356.99,659.12 358.12,661.79 364.5,668 C387.24,690.11 420.29,705.71 444.12,714.93" fill="none" id="UC6-backto-doc" style="stroke:#181818;stroke-width:1;"/><polygon fill="#181818" points="407.97,496.72,398.217,495.3491,403.1628,498.0949,400.4169,503.0407,407.97,496.72" style="stroke:#181818;stroke-width:1;"/></g><!--reverse link UC7 to doc--><g class="link" data-entity-1="UC7" data-entity-2="doc" data-source-line="86" data-uid="lnk63" id="link_UC7_doc"><path d="M400.3211,570.2049 C376.9711,577.6149 360.85,589 354.75,612.5 C348.45,636.74 346.54,650.54 364.5,668 C387.24,690.11 420.29,705.71 444.12,714.93" fill="none" id="UC7-backto-doc" style="stroke:#181818;stroke-width:1;"/><polygon fill="#181818" points="406.04,568.39,396.2517,567.2997,401.2742,569.9024,398.6715,574.9249,406.04,568.39" style="stroke:#181818;stroke-width:1;"/></g><!--reverse link UC8 to doc--><g class="link" data-entity-1="UC8" data-entity-2="doc" data-source-line="87" data-uid="lnk65" id="link_UC8_doc"><path d="M474,657.71 C474,669.43 474,675.14 474,686.86" fill="none" id="UC8-backto-doc" style="stroke:#181818;stroke-width:1;"/><polygon fill="#181818" points="474,651.71,470,660.71,474,656.71,478,660.71,474,651.71" style="stroke:#181818;stroke-width:1;"/></g><!--reverse link UC9 to doc--><g class="link" data-entity-1="UC9" data-entity-2="doc" data-source-line="88" data-uid="lnk67" id="link_UC9_doc"><path d="M278.1587,1088.6242 C304.5287,1084.8242 326.83,1076.5 345,1056 C383.14,1012.97 336.03,847.95 364.5,798 C382.04,767.23 418.49,746.85 444.3,735.63" fill="none" id="UC9-backto-doc" style="stroke:#181818;stroke-width:1;"/><polygon fill="#181818" points="272.22,1089.48,281.6985,1092.1554,277.1689,1088.7669,280.5575,1084.2372,272.22,1089.48" style="stroke:#181818;stroke-width:1;"/></g><!--reverse link UC10 to doc--><g class="link" data-entity-1="UC10" data-entity-2="doc" data-source-line="89" data-uid="lnk69" id="link_UC10_doc"><path d="M275.5537,1022.5163 C302.6137,1019.1363 326.14,1010.99 345,990 C373.66,958.09 342.71,834.94 364.5,798 C382.38,767.69 418.38,747.32 444.01,735.97" fill="none" id="UC10-backto-doc" style="stroke:#181818;stroke-width:1;"/><polygon fill="#181818" points="269.6,1023.26,279.0264,1026.1137,274.5614,1022.6403,278.0348,1018.1753,269.6,1023.26" style="stroke:#181818;stroke-width:1;"/></g><!--reverse link UC11 to doc--><g class="link" data-entity-1="UC11" data-entity-2="doc" data-source-line="90" data-uid="lnk71" id="link_UC11_doc"><path d="M279.5791,953.9404 C305.3691,949.9404 326.87,941.69 345,922 C382.79,880.96 334.52,845.05 364.5,798 C383.41,768.32 419.2,747.82 444.49,736.26" fill="none" id="UC11-backto-doc" style="stroke:#181818;stroke-width:1;"/><polygon fill="#181818" points="273.65,954.86,283.1567,957.4333,278.5909,954.0937,281.9306,949.5279,273.65,954.86" style="stroke:#181818;stroke-width:1;"/></g><!--reverse link UC12 to doc--><g class="link" data-entity-1="UC12" data-entity-2="doc" data-source-line="91" data-uid="lnk73" id="link_UC12_doc"><path d="M241.0379,868.2525 C269.6879,853.1525 308.1,832.34 345,810 C379.91,788.86 418.81,762.63 444.47,744.94" fill="none" id="UC12-backto-doc" style="stroke:#181818;stroke-width:1;"/><polygon fill="#181818" points="235.73,871.05,245.5569,870.3923,240.1533,868.7187,241.8268,863.3151,235.73,871.05" style="stroke:#181818;stroke-width:1;"/></g><!--link doc to UC13--><g class="link" data-entity-1="doc" data-entity-2="UC13" data-source-line="92" data-uid="lnk74" id="link_doc_UC13"><path d="M503.51,732.12 C534.37,741.51 582.12,761.31 604,798 C615.44,817.18 610.33,1177.72 612,1200 C614.31,1230.84 603.99,1243.17 621,1269 C640.79,1299.03 670.9378,1316.8072 700.1378,1329.0672" fill="none" id="doc-to-UC13" style="stroke:#181818;stroke-width:1;"/><polygon fill="#181818" points="705.67,1331.39,698.9203,1324.2178,701.0599,1329.4544,695.8233,1331.594,705.67,1331.39" style="stroke:#181818;stroke-width:1;"/></g><!--reverse link UC19 to doc--><g class="link" data-entity-1="UC19" data-entity-2="doc" data-source-line="93" data-uid="lnk76" id="link_UC19_doc"><path d="M288.4982,522.3873 C311.3282,525.0973 328.6,531.69 345,548 C383.31,586.11 332.93,624.15 364.5,668 C383.65,694.59 419.02,709.82 444.17,717.73" fill="none" id="UC19-backto-doc" style="stroke:#181818;stroke-width:1;"/><polygon fill="#181818" points="282.54,521.68,291.0058,526.713,287.5051,522.2694,291.9488,518.7688,282.54,521.68" style="stroke:#181818;stroke-width:1;"/></g><!--link doc to UC20--><g class="link" data-entity-1="doc" data-entity-2="UC20" data-source-line="94" data-uid="lnk77" id="link_doc_UC20"><path d="M503.51,721.29 C534.13,715.62 581.44,701.66 604,668 C613.38,654.01 610.99,381.81 612,365 C614.57,322.22 593.21,301.62 621,269 C636.22,251.14 653.5827,243.1873 676.3227,238.7173" fill="none" id="doc-to-UC20" style="stroke:#181818;stroke-width:1;"/><polygon fill="#181818" points="682.21,237.56,672.6075,235.371,677.3039,238.5244,674.1505,243.2208,682.21,237.56" style="stroke:#181818;stroke-width:1;"/></g><!--link doc to UC21--><g class="link" data-entity-1="doc" data-entity-2="UC21" data-source-line="95" data-uid="lnk78" id="link_doc_UC21"><path d="M503.74,721.2 C534.33,715.47 581.38,701.47 604,668 C611.32,657.18 611.17,446.04 612,433 C614.73,390.23 593.21,369.62 621,337 C636.83,318.42 655.4459,310.3782 679.0459,306.1082" fill="none" id="doc-to-UC21" style="stroke:#181818;stroke-width:1;"/><polygon fill="#181818" points="684.95,305.04,675.3816,302.7063,680.0299,305.9302,676.806,310.5785,684.95,305.04" style="stroke:#181818;stroke-width:1;"/></g><!--link doc to UC22--><g class="link" data-entity-1="doc" data-entity-2="UC22" data-source-line="96" data-uid="lnk79" id="link_doc_UC22"><path d="M503.66,721.15 C534.18,715.37 581.17,701.33 604,668 C620.55,643.84 601.95,427.24 621,405 C636.72,386.64 655.0298,378.6197 678.4198,374.2997" fill="none" id="doc-to-UC22" style="stroke:#181818;stroke-width:1;"/><polygon fill="#181818" points="684.32,373.21,674.7432,370.9111,679.4032,374.1181,676.1962,378.7781,684.32,373.21" style="stroke:#181818;stroke-width:1;"/></g><!--link doc to UC23--><g class="link" data-entity-1="doc" data-entity-2="UC23" data-source-line="97" data-uid="lnk80" id="link_doc_UC23"><path d="M503.51,721.04 C533.9,715.18 580.78,701.06 604,668 C611.3,657.61 610.82,566.64 612,554 C615.21,519.69 598.54,503.13 621,477 C634.96,460.75 649.6701,452.9592 670.3701,447.7692" fill="none" id="doc-to-UC23" style="stroke:#181818;stroke-width:1;"/><polygon fill="#181818" points="676.19,446.31,666.4874,444.6189,671.3401,447.526,668.433,452.3787,676.19,446.31" style="stroke:#181818;stroke-width:1;"/></g><!--link doc to UC24--><g class="link" data-entity-1="doc" data-entity-2="UC24" data-source-line="98" data-uid="lnk81" id="link_doc_UC24"><path d="M444.41,718.53 C418.69,711.06 382.29,696.02 364.5,668 C345.17,637.55 368.45,371.4 345,344 C330.29,326.81 314.4507,318.5451 292.5307,313.2251" fill="none" id="doc-to-UC24" style="stroke:#181818;stroke-width:1;"/><polygon fill="#181818" points="286.7,311.81,294.5027,317.8198,291.5589,312.9893,296.3895,310.0455,286.7,311.81" style="stroke:#181818;stroke-width:1;"/></g><!--reverse link UC26 to doc--><g class="link" data-entity-1="UC26" data-entity-2="doc" data-source-line="100" data-uid="lnk83" id="link_UC26_doc"><path d="M304.6508,697.3619 C355.8208,705.7619 409.71,714.61 444.28,720.29" fill="none" id="UC26-backto-doc" style="stroke:#181818;stroke-width:1;"/><polygon fill="#181818" points="298.73,696.39,306.9632,701.7951,303.664,697.2,308.2591,693.9007,298.73,696.39" style="stroke:#181818;stroke-width:1;"/></g><!--reverse link UC27 to doc--><g class="link" data-entity-1="UC27" data-entity-2="doc" data-source-line="101" data-uid="lnk85" id="link_UC27_doc"><path d="M305.4142,751.889 C356.4942,743.689 410.08,735.1 444.46,729.58" fill="none" id="UC27-backto-doc" style="stroke:#181818;stroke-width:1;"/><polygon fill="#181818" points="299.49,752.84,309.0102,755.3629,304.4268,752.0475,307.7422,747.464,299.49,752.84" style="stroke:#181818;stroke-width:1;"/></g><!--link doc to UC28--><g class="link" data-entity-1="doc" data-entity-2="UC28" data-source-line="102" data-uid="lnk86" id="link_doc_UC28"><path d="M503.65,736.77 C553.23,757.14 649.5903,796.7194 706.4103,820.0694" fill="none" id="doc-to-UC28" style="stroke:#181818;stroke-width:1;"/><polygon fill="#181818" points="711.96,822.35,705.1559,815.2293,707.3353,820.4495,702.1151,822.6289,711.96,822.35" style="stroke:#181818;stroke-width:1;"/></g><!--link doc to UC29--><g class="link" data-entity-1="doc" data-entity-2="UC29" data-source-line="103" data-uid="lnk87" id="link_doc_UC29"><path d="M503.56,733.45 C533.31,743.77 578.99,764.17 604,798 C624.83,826.18 596.93,849.52 621,875 C635.66,890.52 650.4554,898.1811 671.0154,903.5611" fill="none" id="doc-to-UC29" style="stroke:#181818;stroke-width:1;"/><polygon fill="#181818" points="676.82,905.08,669.1258,898.9319,671.9829,903.8143,667.1006,906.6714,676.82,905.08" style="stroke:#181818;stroke-width:1;"/></g><!--link doc to UC31--><g class="link" data-entity-1="doc" data-entity-2="UC31" data-source-line="104" data-uid="lnk88" id="link_doc_UC31"><path d="M503.52,732.37 C534.16,741.94 581.48,761.86 604,798 C617.26,819.28 604.87,1003.8 621,1023 C634.42,1038.98 648.3658,1046.792 668.4858,1052.202" fill="none" id="doc-to-UC31" style="stroke:#181818;stroke-width:1;"/><polygon fill="#181818" points="674.28,1053.76,666.6274,1047.5602,669.4515,1052.4617,664.5501,1055.2858,674.28,1053.76" style="stroke:#181818;stroke-width:1;"/></g><!--link doc to UC32--><g class="link" data-entity-1="doc" data-entity-2="UC32" data-source-line="105" data-uid="lnk89" id="link_doc_UC32"><path d="M503.67,720.65 C533.74,714.48 579.9,700.12 604,668 C620.29,646.28 602.92,567.26 621,547 C635.94,530.25 652.0454,522.4327 673.7654,517.5627" fill="none" id="doc-to-UC32" style="stroke:#181818;stroke-width:1;"/><polygon fill="#181818" points="679.62,516.25,669.9629,514.316,674.7411,517.3439,671.7132,522.1222,679.62,516.25" style="stroke:#181818;stroke-width:1;"/></g><!--link doc to UC33--><g class="link" data-entity-1="doc" data-entity-2="UC33" data-source-line="106" data-uid="lnk90" id="link_doc_UC33"><path d="M503.64,719.49 C532.8,712.43 577.39,697.42 604,668 C620.31,649.97 603.27,632.64 621,616 C637.85,600.18 655.1997,592.7306 677.4397,588.0306" fill="none" id="doc-to-UC33" style="stroke:#181818;stroke-width:1;"/><polygon fill="#181818" points="683.31,586.79,673.6774,584.7373,678.418,587.8238,675.3315,592.5644,683.31,586.79" style="stroke:#181818;stroke-width:1;"/></g><!--link doc to UC34--><g class="link" data-entity-1="doc" data-entity-2="UC34" data-source-line="107" data-uid="lnk91" id="link_doc_UC34"><path d="M503.65,717.46 C550.25,705.2 637.2874,682.3065 695.4474,667.0065" fill="none" id="doc-to-UC34" style="stroke:#181818;stroke-width:1;"/><polygon fill="#181818" points="701.25,665.48,691.5285,663.9013,696.4145,666.7521,693.5638,671.6381,701.25,665.48" style="stroke:#181818;stroke-width:1;"/></g><!--link doc to UC35--><g class="link" data-entity-1="doc" data-entity-2="UC35" data-source-line="108" data-uid="lnk92" id="link_doc_UC35"><path d="M503.65,725 C542.29,725 606.71,725 662.8,725" fill="none" id="doc-to-UC35" style="stroke:#181818;stroke-width:1;"/><polygon fill="#181818" points="668.8,725,659.8,721,663.8,725,659.8,729,668.8,725" style="stroke:#181818;stroke-width:1;"/></g><!--reverse link UC36 to doc--><g class="link" data-entity-1="UC36" data-entity-2="doc" data-source-line="109" data-uid="lnk94" id="link_UC36_doc"><path d="M285.3356,382.4643 C309.5156,387.0343 328.45,395.36 345,414 C363.79,435.17 349.17,644.2 364.5,668 C382.47,695.91 418.83,710.97 444.49,718.48" fill="none" id="UC36-backto-doc" style="stroke:#181818;stroke-width:1;"/><polygon fill="#181818" points="279.44,381.35,287.5406,386.9518,284.353,382.2786,289.0263,379.091,279.44,381.35" style="stroke:#181818;stroke-width:1;"/></g><!--reverse link UC38 to doc--><g class="link" data-entity-1="UC38" data-entity-2="doc" data-source-line="110" data-uid="lnk96" id="link_UC38_doc"><path d="M296.1089,460.0175 C316.7689,465.6475 331.09,473.73 345,490 C370.86,520.24 342.09,635.12 364.5,668 C383.07,695.26 418.93,710.4 444.33,718.11" fill="none" id="UC38-backto-doc" style="stroke:#181818;stroke-width:1;"/><polygon fill="#181818" points="290.32,458.44,297.9517,464.6655,295.1441,459.7546,300.055,456.947,290.32,458.44" style="stroke:#181818;stroke-width:1;"/></g><!--link doc to UC40--><g class="link" data-entity-1="doc" data-entity-2="UC40" data-source-line="111" data-uid="lnk97" id="link_doc_UC40"><path d="M503.72,732.77 C534.07,742.6 580.69,762.67 604,798 C622.48,826 599.33,922.39 621,948 C633.82,963.15 646.5096,970.7476 665.5496,976.4176" fill="none" id="doc-to-UC40" style="stroke:#181818;stroke-width:1;"/><polygon fill="#181818" points="671.3,978.13,663.816,971.7277,666.508,976.703,661.5327,979.395,671.3,978.13" style="stroke:#181818;stroke-width:1;"/></g><!--link doc to UC42--><g class="link" data-entity-1="doc" data-entity-2="UC42" data-source-line="112" data-uid="lnk98" id="link_doc_UC42"><path d="M503.63,732.3 C534.36,741.81 581.76,761.68 604,798 C614.8,815.64 610.72,963.35 612,984 C615.06,1033.4 594.43,1053.24 621,1095 C641.18,1126.71 674.2148,1144.3027 704.4248,1155.5127" fill="none" id="doc-to-UC42" style="stroke:#181818;stroke-width:1;"/><polygon fill="#181818" points="710.05,1157.6,703.0037,1150.7188,705.3623,1155.8605,700.2206,1158.2191,710.05,1157.6" style="stroke:#181818;stroke-width:1;"/></g><!--link doc to UC43--><g class="link" data-entity-1="doc" data-entity-2="UC43" data-source-line="113" data-uid="lnk99" id="link_doc_UC43"><path d="M503.73,732.24 C534.56,741.69 582.04,761.51 604,798 C612.28,811.76 611.16,1070.96 612,1087 C614.72,1138.64 587.78,1163.37 621,1203 C637.06,1222.16 656.4451,1230.273 680.5851,1234.383" fill="none" id="doc-to-UC43" style="stroke:#181818;stroke-width:1;"/><polygon fill="#181818" points="686.5,1235.39,678.299,1229.9362,681.5709,1234.5508,676.9563,1237.8227,686.5,1235.39" style="stroke:#181818;stroke-width:1;"/></g><!--reverse link ME44 to UC26--><g class="link" data-entity-1="ME44" data-entity-2="UC26" data-source-line="114" data-uid="lnk100" id="link_ME44_UC26"><path d="M166.6213,205.9099 C166.2374,206.0294 171.0089,204.555 170.6204,204.6773 C169.0665,205.1667 167.4765,205.6791 165.8546,206.2149 C159.367,208.3584 152.3684,210.8778 145.1213,213.8088 C116.1325,225.5325 83.165,243.84 63,271 C52.75,284.81 28.26,370.11 34,434.5 C40.47,507.14 21.64,535.93 63,596 C82.53,624.37 114.92,644.86 143.73,658.61" fill="none" id="ME44-backto-UC26" style="stroke:#181818;stroke-width:1;stroke-dasharray:7,7;"/><polygon fill="#181818" points="172.3532,204.1364,162.573,202.9754,167.5766,205.6143,164.9377,210.6179,172.3532,204.1364" style="stroke:#181818;stroke-width:1;"/><text fill="#000000" font-family="sans-serif" font-size="13" lengthAdjust="spacing" textLength="47.0996" x="7" y="430.5669">include</text></g><!--reverse link MI45 to UC27--><g class="link" data-entity-1="MI45" data-entity-2="UC27" data-source-line="115" data-uid="lnk101" id="link_MI45_UC27"><path d="M167.8649,589.7856 C165.4917,590.4885 167.021,590.0638 164.4761,590.8492 C144.1166,597.1322 118.6994,606.0369 95.2363,617.2788 C48.31,639.7625 9.2,671.595 34,710.5 C48.74,733.62 73.43,747.64 99.5,756.08" fill="none" id="MI45-backto-UC27" style="stroke:#181818;stroke-width:1;stroke-dasharray:7,7;"/><polygon fill="#181818" points="173.6224,588.0972,163.8605,586.7914,168.8245,589.5042,166.1117,594.4681,173.6224,588.0972" style="stroke:#181818;stroke-width:1;"/><text fill="#000000" font-family="sans-serif" font-size="13" lengthAdjust="spacing" textLength="47.0996" x="7" y="706.5669">include</text></g><!--SRC=[ZPN1Yjim48RlVWgHKtlO9RQSE2bbeMn3sCD2QUa3gFAiAzQHWcoNGEXJxIFiYrMs4tia3Q4abz_pU-RJQ2JNyDAorZ2hgjyjAvK5sIgZaqJ8rbYs-6eaw1OMJ3IiD399ZaA-YWhOuldzhUngm_PMb6R1pWbZNGDID2ucBGWx13vy75xz-PZY-1yOeyqKpd0OIjM6xtFFKAk3qg4bTvR-_vUW_DAeIeksiu92dQDJibN0Erjcw7KCJMGgA7B2jxc5NtS7JNPvZ4n9jY7s49wHqoN1xAT8Kn8uC6KtQFVGjEhzJRCIs3SBLQTRqL3mr-0y1ik0VtfzjgJn2gwkgoMZLX0NSpFL_tocxz0SExU0sSUp06gop5ISnrH4ffm28tmhig-FHh-eoisC7Bgx1mrMr45ZuNGqrbL7PgFtjVabwddbtkIgmt-yKP14kvCuW0u8ge7BZZ50ExV1BZ6S0CBbZR0KMaBjJlgGimURZxitAz9OjxygpiTJalm7D7qJ0tIbbLJ2za5SoHi02TR65dxp98J3Rmx76lexhe-ZD2bFN9uepTEuGt9CvPpFJ_dgJEqXTKtn3UKaJbPEPWnla2tb2gvplgQMiJk5ozZb-Jc9HfT0MyMk2AmWF5Gxjh4ln1-cFN4VF7PNtpqCdoyaCYmu5ZaMAopMM1HOR4RH3MABXRkiiKezTO4O1VT2boJb2BlqLEgfp5FSKtc2asPhJnMeUhR1Oei4zwfnhnhtgl7SKrxhkDSxZglbIonmIzo1xAVhyxszx-7P9wLbtPMGz4VdyhIOdlu3]--></g></svg>