<svg xmlns="http://www.w3.org/2000/svg" xmlns:xlink="http://www.w3.org/1999/xlink" contentStyleType="text/css" data-diagram-type="DESCRIPTION" height="906px" preserveAspectRatio="none" style="width:546px;height:906px;background:#FFFFFF;" version="1.1" viewBox="0 0 546 906" width="546px" zoomAndPan="magnify"><defs/><g><!--cluster M?dulo Docentes--><g class="cluster" data-entity="M.dulo Docentes" data-source-line="5" data-uid="ent0003" id="cluster_M.dulo Docentes"><path d="M297.35,6 L434.6996,6 A3.75,3.75 0 0 1 437.1996,8.5 L444.1996,28.2969 L480.98,28.2969 A2.5,2.5 0 0 1 483.48,30.7969 L483.48,293.5 A2.5,2.5 0 0 1 480.98,296 L297.35,296 A2.5,2.5 0 0 1 294.85,293.5 L294.85,8.5 A2.5,2.5 0 0 1 297.35,6" fill="none" style="stroke:#000000;stroke-width:1.5;"/><line style="stroke:#000000;stroke-width:1.5;" x1="294.85" x2="444.1996" y1="28.2969" y2="28.2969"/><text fill="#000000" font-family="sans-serif" font-size="14" font-weight="bold" lengthAdjust="spacing" textLength="136.3496" x="298.85" y="20.9951">M&#243;dulo Docentes</text></g><!--cluster M?dulo Gesti?n Licencias(intencion)--><g class="cluster" data-entity="M.dulo Gesti.n Licencias.intencion." data-source-line="12" data-uid="ent0008" id="cluster_M.dulo Gesti.n Licencias.intencion."><path d="M241.02,320 L528.8764,320 A3.75,3.75 0 0 1 531.3764,322.5 L538.3764,342.2969 L537.31,342.2969 A2.5,2.5 0 0 1 539.81,344.7969 L539.81,609.5 A2.5,2.5 0 0 1 537.31,612 L241.02,612 A2.5,2.5 0 0 1 238.52,609.5 L238.52,322.5 A2.5,2.5 0 0 1 241.02,320" fill="none" style="stroke:#000000;stroke-width:1.5;"/><line style="stroke:#000000;stroke-width:1.5;" x1="238.52" x2="538.3764" y1="342.2969" y2="342.2969"/><text fill="#000000" font-family="sans-serif" font-size="14" font-weight="bold" lengthAdjust="spacing" textLength="286.8564" x="242.52" y="334.9951">M&#243;dulo Gesti&#243;n Licencias(intencion)</text></g><!--cluster M?dulo Sesi?n--><g class="cluster" data-entity="M.dulo Sesi.n" data-source-line="19" data-uid="ent0013" id="cluster_M.dulo Sesi.n"><path d="M308.32,636 L424.444,636 A3.75,3.75 0 0 1 426.944,638.5 L433.944,658.2969 L470.02,658.2969 A2.5,2.5 0 0 1 472.52,660.7969 L472.52,783.5 A2.5,2.5 0 0 1 470.02,786 L308.32,786 A2.5,2.5 0 0 1 305.82,783.5 L305.82,638.5 A2.5,2.5 0 0 1 308.32,636" fill="none" style="stroke:#000000;stroke-width:1.5;"/><line style="stroke:#000000;stroke-width:1.5;" x1="305.82" x2="433.944" y1="658.2969" y2="658.2969"/><text fill="#000000" font-family="sans-serif" font-size="14" font-weight="bold" lengthAdjust="spacing" textLength="115.124" x="309.82" y="650.9951">M&#243;dulo Sesi&#243;n</text></g><!--cluster M?dulo Gesti?n--><g class="cluster" data-entity="M.dulo Gesti.n" data-source-line="23" data-uid="ent0016" id="cluster_M.dulo Gesti.n"><path d="M293.56,810 L417.7846,810 A3.75,3.75 0 0 1 420.2846,812.5 L427.2846,832.2969 L484.77,832.2969 A2.5,2.5 0 0 1 487.27,834.7969 L487.27,896.5 A2.5,2.5 0 0 1 484.77,899 L293.56,899 A2.5,2.5 0 0 1 291.06,896.5 L291.06,812.5 A2.5,2.5 0 0 1 293.56,810" fill="none" style="stroke:#000000;stroke-width:1.5;"/><line style="stroke:#000000;stroke-width:1.5;" x1="291.06" x2="427.2846" y1="832.2969" y2="832.2969"/><text fill="#000000" font-family="sans-serif" font-size="14" font-weight="bold" lengthAdjust="spacing" textLength="123.2246" x="295.06" y="824.9951">M&#243;dulo Gesti&#243;n</text></g><!--entity UC32--><g class="entity" data-entity="UC32" data-source-line="6" data-uid="ent0004" id="entity_UC32"><ellipse cx="389.173" cy="263.9966" fill="#F1F1F1" rx="69.833" ry="16.3666" style="stroke:#181818;stroke-width:0.5;"/><text fill="#000000" font-family="sans-serif" font-size="14" lengthAdjust="spacing" textLength="105.957" x="336.1945" y="268.645">crearDocente()</text></g><!--entity UC33--><g class="entity" data-entity="UC33" data-source-line="7" data-uid="ent0005" id="entity_UC33"><ellipse cx="389.1654" cy="197.0011" fill="#F1F1F1" rx="67.3054" ry="15.8611" style="stroke:#181818;stroke-width:0.5;"/><text fill="#000000" font-family="sans-serif" font-size="14" lengthAdjust="spacing" textLength="99.5039" x="339.4134" y="201.6495">verDocentes()</text></g><!--entity UC34--><g class="entity" data-entity="UC34" data-source-line="8" data-uid="ent0006" id="entity_UC34"><ellipse cx="389.1661" cy="129.0012" fill="#F1F1F1" rx="71.7561" ry="16.7512" style="stroke:#181818;stroke-width:0.5;"/><text fill="#000000" font-family="sans-serif" font-size="14" lengthAdjust="spacing" textLength="110.7695" x="333.7813" y="133.6497">editarDocente()</text></g><!--entity UC35--><g class="entity" data-entity="UC35" data-source-line="9" data-uid="ent0007" id="entity_UC35"><ellipse cx="389.1734" cy="59.0027" fill="#F1F1F1" rx="78.3134" ry="18.0627" style="stroke:#181818;stroke-width:0.5;"/><text fill="#000000" font-family="sans-serif" font-size="14" lengthAdjust="spacing" textLength="126.6836" x="325.8316" y="63.6511">eliminarDocente()</text></g><!--entity UC36--><g class="entity" data-entity="UC36" data-source-line="13" data-uid="ent0009" id="entity_UC36"><ellipse cx="389.1743" cy="578.0009" fill="#F1F1F1" rx="76.5543" ry="17.7109" style="stroke:#181818;stroke-width:0.5;"/><text fill="#000000" font-family="sans-serif" font-size="14" lengthAdjust="spacing" textLength="122.4795" x="327.9345" y="582.6493">adquirirLicencia()</text></g><!--entity UC37--><g class="entity" data-entity="UC37" data-source-line="14" data-uid="ent0010" id="entity_UC37"><ellipse cx="389.1712" cy="509.9982" fill="#F1F1F1" rx="66.6912" ry="15.7382" style="stroke:#181818;stroke-width:0.5;"/><text fill="#000000" font-family="sans-serif" font-size="14" lengthAdjust="spacing" textLength="97.9111" x="340.2157" y="514.6467">verLicencias()</text></g><!--entity UC38--><g class="entity" data-entity="UC38" data-source-line="15" data-uid="ent0011" id="entity_UC38"><ellipse cx="389.1662" cy="443.0032" fill="#F1F1F1" rx="71.1162" ry="16.6232" style="stroke:#181818;stroke-width:0.5;"/><text fill="#000000" font-family="sans-serif" font-size="14" lengthAdjust="spacing" textLength="109.1768" x="334.5778" y="447.6517">editarLicencia()</text></g><!--entity UC39--><g class="entity" data-entity="UC39" data-source-line="16" data-uid="ent0012" id="entity_UC39"><ellipse cx="389.1749" cy="372.999" fill="#F1F1F1" rx="77.6449" ry="17.929" style="stroke:#181818;stroke-width:0.5;"/><text fill="#000000" font-family="sans-serif" font-size="14" lengthAdjust="spacing" textLength="125.0908" x="326.6294" y="377.6474">eliminarLicencia()</text></g><!--entity UC41--><g class="entity" data-entity="UC41" data-source-line="20" data-uid="ent0014" id="entity_UC41"><ellipse cx="389.1704" cy="754.0001" fill="#F1F1F1" rx="67.3504" ry="15.8701" style="stroke:#181818;stroke-width:0.5;"/><text fill="#000000" font-family="sans-serif" font-size="14" lengthAdjust="spacing" textLength="99.6201" x="339.3603" y="758.6485">iniciarSesion()</text></g><!--entity UC42--><g class="entity" data-entity="UC42" data-source-line="21" data-uid="ent0015" id="entity_UC42"><ellipse cx="389.1691" cy="686.9978" fill="#F1F1F1" rx="67.1891" ry="15.8378" style="stroke:#181818;stroke-width:0.5;"/><text fill="#000000" font-family="sans-serif" font-size="14" lengthAdjust="spacing" textLength="99.2031" x="339.5675" y="691.6463">cerrarSesion()</text></g><!--entity UC13--><g class="entity" data-entity="UC13" data-source-line="24" data-uid="ent0017" id="entity_UC13"><ellipse cx="389.1746" cy="864.0009" fill="#F1F1F1" rx="82.1046" ry="18.8209" style="stroke:#181818;stroke-width:0.5;"/><text fill="#000000" font-family="sans-serif" font-size="14" lengthAdjust="spacing" textLength="135.6113" x="321.3689" y="868.6494">completarGestion()</text></g><!--entity admin--><g class="entity" data-entity="admin" data-source-line="3" data-uid="ent0002" id="entity_admin"><ellipse cx="100.5308" cy="413.35" fill="#F1F1F1" rx="8" ry="8" style="stroke:#181818;stroke-width:0.5;"/><path d="M100.5308,421.35 L100.5308,448.35 M87.5308,429.35 L113.5308,429.35 M100.5308,448.35 L87.5308,463.35 M100.5308,448.35 L113.5308,463.35" fill="none" style="stroke:#181818;stroke-width:0.5;"/><text fill="#000000" font-family="sans-serif" font-size="14" lengthAdjust="spacing" textLength="189.0615" x="6" y="477.8451">Administrador Institucional</text></g><!--link admin to UC13--><g class="link" data-entity-1="admin" data-entity-2="UC13" data-source-line="28" data-uid="lnk18" id="link_admin_UC13"><path d="M106.61,481.49 C117.56,550.46 149.31,696.25 230.52,786 C258.69,817.13 296.4212,835.3254 330.5512,847.3554" fill="none" id="admin-to-UC13" style="stroke:#181818;stroke-width:1;"/><polygon fill="#181818" points="336.21,849.35,329.0516,842.5856,331.4944,847.6879,326.3921,850.1306,336.21,849.35" style="stroke:#181818;stroke-width:1;"/></g><!--link admin to UC32--><g class="link" data-entity-1="admin" data-entity-2="UC32" data-source-line="29" data-uid="lnk19" id="link_admin_UC32"><path d="M144.09,404.46 C168.36,383.59 199.96,358.22 230.52,339 C270.16,314.07 313.8305,294.2253 346.6305,280.5753" fill="none" id="admin-to-UC32" style="stroke:#181818;stroke-width:1;"/><polygon fill="#181818" points="352.17,278.27,342.3239,278.035,347.5538,280.1911,345.3977,285.4209,352.17,278.27" style="stroke:#181818;stroke-width:1;"/></g><!--link admin to UC33--><g class="link" data-entity-1="admin" data-entity-2="UC33" data-source-line="30" data-uid="lnk20" id="link_admin_UC33"><path d="M114.02,404.4 C131.82,355.78 169.31,273.36 230.52,230 C256.99,211.25 285.8852,203.4555 316.0852,199.7255" fill="none" id="admin-to-UC33" style="stroke:#181818;stroke-width:1;"/><polygon fill="#181818" points="322.04,198.99,312.6176,196.1234,317.0777,199.6029,313.5982,204.063,322.04,198.99" style="stroke:#181818;stroke-width:1;"/></g><!--link admin to UC34--><g class="link" data-entity-1="admin" data-entity-2="UC34" data-source-line="31" data-uid="lnk21" id="link_admin_UC34"><path d="M108.05,404.81 C120.51,344.05 153.64,225.93 230.52,164 C254.97,144.3 282.2557,135.956 311.9057,131.886" fill="none" id="admin-to-UC34" style="stroke:#181818;stroke-width:1;"/><polygon fill="#181818" points="317.85,131.07,308.3896,128.3311,312.8965,131.75,309.4776,136.2568,317.85,131.07" style="stroke:#181818;stroke-width:1;"/></g><!--link admin to UC35--><g class="link" data-entity-1="admin" data-entity-2="UC35" data-source-line="32" data-uid="lnk22" id="link_admin_UC35"><path d="M104.19,404.49 C111.33,332.35 137.29,176.8 230.52,95 C252.68,75.56 277.2546,66.9532 305.5246,62.4532" fill="none" id="admin-to-UC35" style="stroke:#181818;stroke-width:1;"/><polygon fill="#181818" points="311.45,61.51,301.9331,58.9745,306.5122,62.296,303.1907,66.8751,311.45,61.51" style="stroke:#181818;stroke-width:1;"/></g><!--link admin to UC36--><g class="link" data-entity-1="admin" data-entity-2="UC36" data-source-line="33" data-uid="lnk23" id="link_admin_UC36"><path d="M141.4,481.44 C165.44,502.59 197.69,527.59 230.52,543 C258.69,556.23 286.1657,563.4928 314.9357,568.6928" fill="none" id="admin-to-UC36" style="stroke:#181818;stroke-width:1;"/><polygon fill="#181818" points="320.84,569.76,312.6949,564.223,315.9197,568.8707,311.2721,572.0955,320.84,569.76" style="stroke:#181818;stroke-width:1;"/></g><!--link admin to UC37--><g class="link" data-entity-1="admin" data-entity-2="UC37" data-source-line="34" data-uid="lnk24" id="link_admin_UC37"><path d="M195.44,468.35 C207.23,471.36 219.14,474.31 230.52,477 C265.9,485.36 300.118,492.556 331.018,498.776" fill="none" id="admin-to-UC37" style="stroke:#181818;stroke-width:1;"/><polygon fill="#181818" points="336.9,499.96,328.8663,494.2626,331.9983,498.9733,327.2876,502.1053,336.9,499.96" style="stroke:#181818;stroke-width:1;"/></g><!--link admin to UC38--><g class="link" data-entity-1="admin" data-entity-2="UC38" data-source-line="35" data-uid="lnk25" id="link_admin_UC38"><path d="M195.39,443 C235.22,443 274.87,443 311.75,443" fill="none" id="admin-to-UC38" style="stroke:#181818;stroke-width:1;"/><polygon fill="#181818" points="317.75,443,308.75,439,312.75,443,308.75,447,317.75,443" style="stroke:#181818;stroke-width:1;"/></g><!--link admin to UC39--><g class="link" data-entity-1="admin" data-entity-2="UC39" data-source-line="36" data-uid="lnk26" id="link_admin_UC39"><path d="M195.49,417.85 C207.27,414.81 219.16,411.79 230.52,409 C264.05,400.75 295.8947,393.4298 326.0247,386.6898" fill="none" id="admin-to-UC39" style="stroke:#181818;stroke-width:1;"/><polygon fill="#181818" points="331.88,385.38,322.2239,383.4412,327.0006,386.4715,323.9703,391.2482,331.88,385.38" style="stroke:#181818;stroke-width:1;"/></g><!--link admin to UC41--><g class="link" data-entity-1="admin" data-entity-2="UC41" data-source-line="37" data-uid="lnk27" id="link_admin_UC41"><path d="M108.2,481.46 C120.79,542.01 154.03,658.94 230.52,720 C256.12,740.44 285.2909,748.6009 315.8909,752.1909" fill="none" id="admin-to-UC41" style="stroke:#181818;stroke-width:1;"/><polygon fill="#181818" points="321.85,752.89,313.3774,747.8686,316.8841,752.3074,312.4452,755.8141,321.85,752.89" style="stroke:#181818;stroke-width:1;"/></g><!--link admin to UC42--><g class="link" data-entity-1="admin" data-entity-2="UC42" data-source-line="38" data-uid="lnk28" id="link_admin_UC42"><path d="M123.42,481.48 C146.22,518.79 184.94,575.03 230.52,612 C266.07,640.83 308.8928,659.6851 342.6628,671.9951" fill="none" id="admin-to-UC42" style="stroke:#181818;stroke-width:1;"/><polygon fill="#181818" points="348.3,674.05,341.2142,667.2096,343.6024,672.3376,338.4744,674.7258,348.3,674.05" style="stroke:#181818;stroke-width:1;"/></g><!--SRC=[TP9DJiCm48NtFiKegtRHHPFqRuE4G498i48SmBA7TaHgbx731d6g7g4NOn9e6oTX-V8-lyppkCAt2D43qtONmHAZYUITKjf4pv3TsZqv2f6r5VdeGgHO6o5qbO4Ee1jVgOCsxtgBa3sVZhQkFDnxWovYoE1B0TG1ZGvY6qRDVzvasYQytXLv5_d4Cn2kHD4bq58SIIaJfY8PR8HQgE-HSHzGYfsE3fv8U4CwJ4YEkQRfjDT1su-QcFYCNhENlHxNi0ko6XOPvgp7cWonpMYL5mnDazxGiaGvoutftIMYd2VBGUOXaijV_hsl_dhz_b2XT6hzJigyKCsmxMk1sUpczrDNoYD8PCyjKxb8vJALgrIkKxb9f5n18lCV]--></g></svg>