<svg xmlns="http://www.w3.org/2000/svg" xmlns:xlink="http://www.w3.org/1999/xlink" contentStyleType="text/css" data-diagram-type="DESCRIPTION" height="2621px" preserveAspectRatio="none" style="width:381px;height:2621px;background:#FFFFFF;" version="1.1" viewBox="0 0 381 2621" width="381px" zoomAndPan="magnify"><defs/><g><!--cluster M?dulo Grado--><g class="cluster" data-entity="M.dulo Grado" data-source-line="5" data-uid="ent0003" id="cluster_M.dulo Grado"><path d="M156.57,6 L267.8815,6 A3.75,3.75 0 0 1 270.3815,8.5 L277.3815,28.2969 L327.02,28.2969 A2.5,2.5 0 0 1 329.52,30.7969 L329.52,283.5 A2.5,2.5 0 0 1 327.02,286 L156.57,286 A2.5,2.5 0 0 1 154.07,283.5 L154.07,8.5 A2.5,2.5 0 0 1 156.57,6" fill="none" style="stroke:#000000;stroke-width:1.5;"/><line style="stroke:#000000;stroke-width:1.5;" x1="154.07" x2="277.3815" y1="28.2969" y2="28.2969"/><text fill="#000000" font-family="sans-serif" font-size="14" font-weight="bold" lengthAdjust="spacing" textLength="110.3115" x="158.07" y="20.9951">M&#243;dulo Grado</text></g><!--cluster M?dulo Asignatura--><g class="cluster" data-entity="M.dulo Asignatura" data-source-line="12" data-uid="ent0008" id="cluster_M.dulo Asignatura"><path d="M142.63,310 L292.8722,310 A3.75,3.75 0 0 1 295.3722,312.5 L302.3722,332.2969 L340.96,332.2969 A2.5,2.5 0 0 1 343.46,334.7969 L343.46,609.5 A2.5,2.5 0 0 1 340.96,612 L142.63,612 A2.5,2.5 0 0 1 140.13,609.5 L140.13,312.5 A2.5,2.5 0 0 1 142.63,310" fill="none" style="stroke:#000000;stroke-width:1.5;"/><line style="stroke:#000000;stroke-width:1.5;" x1="140.13" x2="302.3722" y1="332.2969" y2="332.2969"/><text fill="#000000" font-family="sans-serif" font-size="14" font-weight="bold" lengthAdjust="spacing" textLength="149.2422" x="144.13" y="324.9951">M&#243;dulo Asignatura</text></g><!--cluster M?dulo Alumno--><g class="cluster" data-entity="M.dulo Alumno" data-source-line="19" data-uid="ent0013" id="cluster_M.dulo Alumno"><path d="M147.65,636 L271.2525,636 A3.75,3.75 0 0 1 273.7525,638.5 L280.7525,658.2969 L335.94,658.2969 A2.5,2.5 0 0 1 338.44,660.7969 L338.44,1063.5 A2.5,2.5 0 0 1 335.94,1066 L147.65,1066 A2.5,2.5 0 0 1 145.15,1063.5 L145.15,638.5 A2.5,2.5 0 0 1 147.65,636" fill="none" style="stroke:#000000;stroke-width:1.5;"/><line style="stroke:#000000;stroke-width:1.5;" x1="145.15" x2="280.7525" y1="658.2969" y2="658.2969"/><text fill="#000000" font-family="sans-serif" font-size="14" font-weight="bold" lengthAdjust="spacing" textLength="122.6025" x="149.15" y="650.9951">M&#243;dulo Alumno</text></g><!--cluster M?dulo Gesti?n de Preguntas--><g class="cluster" data-entity="M.dulo Gesti.n de Preguntas" data-source-line="30" data-uid="ent0020" id="cluster_M.dulo Gesti.n de Preguntas"><path d="M120.31,1090 L354.8871,1090 A3.75,3.75 0 0 1 357.3871,1092.5 L364.3871,1112.2969 L364.28,1112.2969 A2.5,2.5 0 0 1 366.78,1114.7969 L366.78,1811.5 A2.5,2.5 0 0 1 364.28,1814 L120.31,1814 A2.5,2.5 0 0 1 117.81,1811.5 L117.81,1092.5 A2.5,2.5 0 0 1 120.31,1090" fill="none" style="stroke:#000000;stroke-width:1.5;"/><line style="stroke:#000000;stroke-width:1.5;" x1="117.81" x2="364.3871" y1="1112.2969" y2="1112.2969"/><text fill="#000000" font-family="sans-serif" font-size="14" font-weight="bold" lengthAdjust="spacing" textLength="233.5771" x="121.81" y="1104.9951">M&#243;dulo Gesti&#243;n de Preguntas</text></g><!--cluster M?dulo Configuraci?n General--><g class="cluster" data-entity="M.dulo Configuraci.n General" data-source-line="43" data-uid="ent0031" id="cluster_M.dulo Configuraci.n General"><path d="M111.13,1838 L351.2032,1838 A3.75,3.75 0 0 1 353.7032,1840.5 L360.7032,1860.2969 L372.46,1860.2969 A2.5,2.5 0 0 1 374.96,1862.7969 L374.96,2025.5 A2.5,2.5 0 0 1 372.46,2028 L111.13,2028 A2.5,2.5 0 0 1 108.63,2025.5 L108.63,1840.5 A2.5,2.5 0 0 1 111.13,1838" fill="none" style="stroke:#000000;stroke-width:1.5;"/><line style="stroke:#000000;stroke-width:1.5;" x1="108.63" x2="360.7032" y1="1860.2969" y2="1860.2969"/><text fill="#000000" font-family="sans-serif" font-size="14" font-weight="bold" lengthAdjust="spacing" textLength="239.0732" x="112.63" y="1852.9951">M&#243;dulo Configuraci&#243;n General</text></g><!--cluster M?dulo Examen--><g class="cluster" data-entity="M.dulo Examen" data-source-line="48" data-uid="ent0034" id="cluster_M.dulo Examen"><path d="M144.85,2052 L270.7699,2052 A3.75,3.75 0 0 1 273.2699,2054.5 L280.2699,2074.2969 L338.75,2074.2969 A2.5,2.5 0 0 1 341.25,2076.7969 L341.25,2211.5 A2.5,2.5 0 0 1 338.75,2214 L144.85,2214 A2.5,2.5 0 0 1 142.35,2211.5 L142.35,2054.5 A2.5,2.5 0 0 1 144.85,2052" fill="none" style="stroke:#000000;stroke-width:1.5;"/><line style="stroke:#000000;stroke-width:1.5;" x1="142.35" x2="280.2699" y1="2074.2969" y2="2074.2969"/><text fill="#000000" font-family="sans-serif" font-size="14" font-weight="bold" lengthAdjust="spacing" textLength="124.9199" x="146.35" y="2066.9951">M&#243;dulo Examen</text></g><!--cluster M?dulo Correcci?n--><g class="cluster" data-entity="M.dulo Correcci.n" data-source-line="54" data-uid="ent0037" id="cluster_M.dulo Correcci.n"><path d="M144.91,2238 L292.9168,2238 A3.75,3.75 0 0 1 295.4168,2240.5 L302.4168,2260.2969 L338.68,2260.2969 A2.5,2.5 0 0 1 341.18,2262.7969 L341.18,2324.5 A2.5,2.5 0 0 1 338.68,2327 L144.91,2327 A2.5,2.5 0 0 1 142.41,2324.5 L142.41,2240.5 A2.5,2.5 0 0 1 144.91,2238" fill="none" style="stroke:#000000;stroke-width:1.5;"/><line style="stroke:#000000;stroke-width:1.5;" x1="142.41" x2="302.4168" y1="2260.2969" y2="2260.2969"/><text fill="#000000" font-family="sans-serif" font-size="14" font-weight="bold" lengthAdjust="spacing" textLength="147.0068" x="146.41" y="2252.9951">M&#243;dulo Correcci&#243;n</text></g><!--cluster M?dulo Sesi?n--><g class="cluster" data-entity="M.dulo Sesi.n" data-source-line="58" data-uid="ent0039" id="cluster_M.dulo Sesi.n"><path d="M160.95,2351 L277.074,2351 A3.75,3.75 0 0 1 279.574,2353.5 L286.574,2373.2969 L322.65,2373.2969 A2.5,2.5 0 0 1 325.15,2375.7969 L325.15,2498.5 A2.5,2.5 0 0 1 322.65,2501 L160.95,2501 A2.5,2.5 0 0 1 158.45,2498.5 L158.45,2353.5 A2.5,2.5 0 0 1 160.95,2351" fill="none" style="stroke:#000000;stroke-width:1.5;"/><line style="stroke:#000000;stroke-width:1.5;" x1="158.45" x2="286.574" y1="2373.2969" y2="2373.2969"/><text fill="#000000" font-family="sans-serif" font-size="14" font-weight="bold" lengthAdjust="spacing" textLength="115.124" x="162.45" y="2365.9951">M&#243;dulo Sesi&#243;n</text></g><!--cluster M?dulo Gesti?n--><g class="cluster" data-entity="M.dulo Gesti.n" data-source-line="63" data-uid="ent0042" id="cluster_M.dulo Gesti.n"><path d="M146.19,2525 L270.4146,2525 A3.75,3.75 0 0 1 272.9146,2527.5 L279.9146,2547.2969 L337.4,2547.2969 A2.5,2.5 0 0 1 339.9,2549.7969 L339.9,2611.5 A2.5,2.5 0 0 1 337.4,2614 L146.19,2614 A2.5,2.5 0 0 1 143.69,2611.5 L143.69,2527.5 A2.5,2.5 0 0 1 146.19,2525" fill="none" style="stroke:#000000;stroke-width:1.5;"/><line style="stroke:#000000;stroke-width:1.5;" x1="143.69" x2="279.9146" y1="2547.2969" y2="2547.2969"/><text fill="#000000" font-family="sans-serif" font-size="14" font-weight="bold" lengthAdjust="spacing" textLength="123.2246" x="147.69" y="2539.9951">M&#243;dulo Gesti&#243;n</text></g><!--entity UC1--><g class="entity" data-entity="UC1" data-source-line="6" data-uid="ent0004" id="entity_UC1"><ellipse cx="241.7991" cy="254.9978" fill="#F1F1F1" rx="63.6891" ry="15.1378" style="stroke:#181818;stroke-width:0.5;"/><text fill="#000000" font-family="sans-serif" font-size="14" lengthAdjust="spacing" textLength="89.9609" x="196.8186" y="259.6463">crearGrado()</text></g><!--entity UC2--><g class="entity" data-entity="UC2" data-source-line="7" data-uid="ent0005" id="entity_UC2"><ellipse cx="241.7979" cy="189.9976" fill="#F1F1F1" rx="61.3379" ry="14.6676" style="stroke:#181818;stroke-width:0.5;"/><text fill="#000000" font-family="sans-serif" font-size="14" lengthAdjust="spacing" textLength="83.5078" x="200.044" y="194.646">verGrados()</text></g><!--entity UC3--><g class="entity" data-entity="UC3" data-source-line="8" data-uid="ent0006" id="entity_UC3"><ellipse cx="241.8034" cy="124.9987" fill="#F1F1F1" rx="65.4934" ry="15.4987" style="stroke:#181818;stroke-width:0.5;"/><text fill="#000000" font-family="sans-serif" font-size="14" lengthAdjust="spacing" textLength="94.7734" x="194.4167" y="129.6471">editarGrado()</text></g><!--entity UC4--><g class="entity" data-entity="UC4" data-source-line="9" data-uid="ent0007" id="entity_UC4"><ellipse cx="241.803" cy="58.0046" fill="#F1F1F1" rx="71.723" ry="16.7446" style="stroke:#181818;stroke-width:0.5;"/><text fill="#000000" font-family="sans-serif" font-size="14" lengthAdjust="spacing" textLength="110.6875" x="186.4593" y="62.653">eliminarGrado()</text></g><!--entity UC5--><g class="entity" data-entity="UC5" data-source-line="13" data-uid="ent0009" id="entity_UC5"><ellipse cx="241.802" cy="578.0044" fill="#F1F1F1" rx="76.822" ry="17.7644" style="stroke:#181818;stroke-width:0.5;"/><text fill="#000000" font-family="sans-serif" font-size="14" lengthAdjust="spacing" textLength="123.1221" x="180.241" y="582.6528">crearAsignatura()</text></g><!--entity UC6--><g class="entity" data-entity="UC6" data-source-line="14" data-uid="ent0010" id="entity_UC6"><ellipse cx="241.8036" cy="508.0007" fill="#F1F1F1" rx="74.1536" ry="17.2307" style="stroke:#181818;stroke-width:0.5;"/><text fill="#000000" font-family="sans-serif" font-size="14" lengthAdjust="spacing" textLength="116.6689" x="183.4691" y="512.6492">verAsignaturas()</text></g><!--entity UC7--><g class="entity" data-entity="UC7" data-source-line="15" data-uid="ent0011" id="entity_UC7"><ellipse cx="241.8002" cy="437.998" fill="#F1F1F1" rx="78.8402" ry="18.168" style="stroke:#181818;stroke-width:0.5;"/><text fill="#000000" font-family="sans-serif" font-size="14" lengthAdjust="spacing" textLength="127.9346" x="177.8329" y="442.6465">editarAsignatura()</text></g><!--entity UC8--><g class="entity" data-entity="UC8" data-source-line="16" data-uid="ent0012" id="entity_UC8"><ellipse cx="241.8022" cy="365.0024" fill="#F1F1F1" rx="85.6622" ry="19.5324" style="stroke:#181818;stroke-width:0.5;"/><text fill="#000000" font-family="sans-serif" font-size="14" lengthAdjust="spacing" textLength="143.8486" x="169.8778" y="369.6509">eliminarAsignatura()</text></g><!--entity UC9--><g class="entity" data-entity="UC9" data-source-line="20" data-uid="ent0014" id="entity_UC9"><ellipse cx="241.7952" cy="1033.997" fill="#F1F1F1" rx="67.7852" ry="15.957" style="stroke:#181818;stroke-width:0.5;"/><text fill="#000000" font-family="sans-serif" font-size="14" lengthAdjust="spacing" textLength="100.7412" x="191.4246" y="1038.6455">crearAlumno()</text></g><!--entity UC10--><g class="entity" data-entity="UC10" data-source-line="21" data-uid="ent0015" id="entity_UC10"><ellipse cx="241.7996" cy="968.0019" fill="#F1F1F1" rx="65.3096" ry="15.4619" style="stroke:#181818;stroke-width:0.5;"/><text fill="#000000" font-family="sans-serif" font-size="14" lengthAdjust="spacing" textLength="94.2881" x="194.6556" y="972.6504">verAlumnos()</text></g><!--entity UC11--><g class="entity" data-entity="UC11" data-source-line="22" data-uid="ent0016" id="entity_UC11"><ellipse cx="241.8033" cy="901.0047" fill="#F1F1F1" rx="69.6733" ry="16.3347" style="stroke:#181818;stroke-width:0.5;"/><text fill="#000000" font-family="sans-serif" font-size="14" lengthAdjust="spacing" textLength="105.5537" x="189.0264" y="905.6531">editarAlumno()</text></g><!--entity UC12--><g class="entity" data-entity="UC12" data-source-line="23" data-uid="ent0017" id="entity_UC12"><ellipse cx="241.8037" cy="831.9967" fill="#F1F1F1" rx="76.1337" ry="17.6267" style="stroke:#181818;stroke-width:0.5;"/><text fill="#000000" font-family="sans-serif" font-size="14" lengthAdjust="spacing" textLength="121.4678" x="181.0698" y="836.6452">eliminarAlumno()</text></g><!--entity UC19--><g class="entity" data-entity="UC19" data-source-line="24" data-uid="ent0018" id="entity_UC19"><ellipse cx="241.8047" cy="760.9989" fill="#F1F1F1" rx="80.6447" ry="18.5289" style="stroke:#181818;stroke-width:0.5;"/><text fill="#000000" font-family="sans-serif" font-size="14" lengthAdjust="spacing" textLength="132.1934" x="175.708" y="765.6474">importarAlumnos()</text></g><!--entity UC17--><g class="entity" data-entity="UC17" data-source-line="25" data-uid="ent0019" id="entity_UC17"><ellipse cx="241.7972" cy="688.9954" fill="#F1F1F1" rx="80.3772" ry="18.4754" style="stroke:#181818;stroke-width:0.5;"/><text fill="#000000" font-family="sans-serif" font-size="14" lengthAdjust="spacing" textLength="131.5645" x="176.0149" y="693.6439">exportarAlumnos()</text></g><!--entity UC20--><g class="entity" data-entity="UC20" data-source-line="31" data-uid="ent0021" id="entity_UC20"><ellipse cx="241.8036" cy="1780.9967" fill="#F1F1F1" rx="71.7836" ry="16.7567" style="stroke:#181818;stroke-width:0.5;"/><text fill="#000000" font-family="sans-serif" font-size="14" lengthAdjust="spacing" textLength="110.8379" x="186.3847" y="1785.6452">crearPregunta()</text></g><!--entity UC21--><g class="entity" data-entity="UC21" data-source-line="32" data-uid="ent0022" id="entity_UC21"><ellipse cx="241.8016" cy="1713.0023" fill="#F1F1F1" rx="69.2116" ry="16.2423" style="stroke:#181818;stroke-width:0.5;"/><text fill="#000000" font-family="sans-serif" font-size="14" lengthAdjust="spacing" textLength="104.3848" x="189.6092" y="1717.6507">verPreguntas()</text></g><!--entity UC22--><g class="entity" data-entity="UC22" data-source-line="33" data-uid="ent0023" id="entity_UC22"><ellipse cx="241.7964" cy="1644.9993" fill="#F1F1F1" rx="69.3464" ry="16.2693" style="stroke:#181818;stroke-width:0.5;"/><text fill="#000000" font-family="sans-serif" font-size="14" lengthAdjust="spacing" textLength="104.7266" x="189.4331" y="1649.6477">editarPregunta</text></g><!--entity UC23--><g class="entity" data-entity="UC23" data-source-line="34" data-uid="ent0024" id="entity_UC23"><ellipse cx="241.7972" cy="1574.9954" fill="#F1F1F1" rx="80.3772" ry="18.4754" style="stroke:#181818;stroke-width:0.5;"/><text fill="#000000" font-family="sans-serif" font-size="14" lengthAdjust="spacing" textLength="131.5645" x="176.0149" y="1579.6439">eliminarPregunta()</text></g><!--entity UC24--><g class="entity" data-entity="UC24" data-source-line="35" data-uid="ent0025" id="entity_UC24"><ellipse cx="241.805" cy="1501.997" fill="#F1F1F1" rx="84.985" ry="19.397" style="stroke:#181818;stroke-width:0.5;"/><text fill="#000000" font-family="sans-serif" font-size="14" lengthAdjust="spacing" textLength="142.29" x="170.66" y="1506.6454">importarPreguntas()</text></g><!--entity UC25--><g class="entity" data-entity="UC25" data-source-line="36" data-uid="ent0026" id="entity_UC25"><ellipse cx="241.8023" cy="1428.0025" fill="#F1F1F1" rx="84.7123" ry="19.3425" style="stroke:#181818;stroke-width:0.5;"/><text fill="#000000" font-family="sans-serif" font-size="14" lengthAdjust="spacing" textLength="141.6611" x="170.9717" y="1432.6509">exportarPreguntas()</text></g><!--entity UC32--><g class="entity" data-entity="UC32" data-source-line="37" data-uid="ent0027" id="entity_UC32"><ellipse cx="241.8032" cy="1356.0026" fill="#F1F1F1" rx="75.8132" ry="17.5626" style="stroke:#181818;stroke-width:0.5;"/><text fill="#000000" font-family="sans-serif" font-size="14" lengthAdjust="spacing" textLength="120.6953" x="181.4556" y="1360.6511">crearRespuesta()</text></g><!--entity UC33--><g class="entity" data-entity="UC33" data-source-line="38" data-uid="ent0028" id="entity_UC33"><ellipse cx="241.8023" cy="1286.0025" fill="#F1F1F1" rx="73.1623" ry="17.0325" style="stroke:#181818;stroke-width:0.5;"/><text fill="#000000" font-family="sans-serif" font-size="14" lengthAdjust="spacing" textLength="114.2422" x="184.6812" y="1290.6509">verRespuestas()</text></g><!--entity UC34--><g class="entity" data-entity="UC34" data-source-line="39" data-uid="ent0029" id="entity_UC34"><ellipse cx="241.7996" cy="1216.0039" fill="#F1F1F1" rx="77.8196" ry="17.9639" style="stroke:#181818;stroke-width:0.5;"/><text fill="#000000" font-family="sans-serif" font-size="14" lengthAdjust="spacing" textLength="125.5078" x="179.0457" y="1220.6524">editarRespuesta()</text></g><!--entity UC35--><g class="entity" data-entity="UC35" data-source-line="40" data-uid="ent0030" id="entity_UC35"><ellipse cx="241.7986" cy="1144.0017" fill="#F1F1F1" rx="84.6086" ry="19.3217" style="stroke:#181818;stroke-width:0.5;"/><text fill="#000000" font-family="sans-serif" font-size="14" lengthAdjust="spacing" textLength="141.4219" x="171.0877" y="1148.6502">eliminarRespuesta()</text></g><!--entity UC26--><g class="entity" data-entity="UC26" data-source-line="44" data-uid="ent0032" id="entity_UC26"><ellipse cx="241.8011" cy="1986.0042" fill="#F1F1F1" rx="116.8711" ry="25.7742" style="stroke:#181818;stroke-width:0.5;"/><text fill="#000000" font-family="sans-serif" font-size="14" lengthAdjust="spacing" textLength="212.666" x="135.4681" y="1990.6527">exportarConfiguracionGlobal()</text></g><!--entity UC27--><g class="entity" data-entity="UC27" data-source-line="45" data-uid="ent0033" id="entity_UC27"><ellipse cx="241.8048" cy="1899.003" fill="#F1F1F1" rx="117.1648" ry="25.833" style="stroke:#181818;stroke-width:0.5;"/><text fill="#000000" font-family="sans-serif" font-size="14" lengthAdjust="spacing" textLength="213.2949" x="135.1574" y="1903.6514">importarConfiguracionGlobal()</text></g><!--entity UC28--><g class="entity" data-entity="UC28" data-source-line="49" data-uid="ent0035" id="entity_UC28"><ellipse cx="241.8004" cy="2179.0001" fill="#F1F1F1" rx="83.4504" ry="19.0901" style="stroke:#181818;stroke-width:0.5;"/><text fill="#000000" font-family="sans-serif" font-size="14" lengthAdjust="spacing" textLength="138.7422" x="172.4294" y="2183.6485">generarExamenes()</text></g><!--entity UC29--><g class="entity" data-entity="UC29" data-source-line="50" data-uid="ent0036" id="entity_UC29"><ellipse cx="241.7965" cy="2106.0033" fill="#F1F1F1" rx="82.0665" ry="18.8133" style="stroke:#181818;stroke-width:0.5;"/><text fill="#000000" font-family="sans-serif" font-size="14" lengthAdjust="spacing" textLength="135.5225" x="174.0353" y="2110.6517">asignarExamenes()</text></g><!--entity UC31--><g class="entity" data-entity="UC31" data-source-line="55" data-uid="ent0038" id="entity_UC31"><ellipse cx="241.8027" cy="2291.9965" fill="#F1F1F1" rx="83.3827" ry="19.0765" style="stroke:#181818;stroke-width:0.5;"/><text fill="#000000" font-family="sans-serif" font-size="14" lengthAdjust="spacing" textLength="138.585" x="172.5102" y="2296.645">corregirExamenes()</text></g><!--entity UC41--><g class="entity" data-entity="UC41" data-source-line="59" data-uid="ent0040" id="entity_UC41"><ellipse cx="241.8004" cy="2469.0001" fill="#F1F1F1" rx="67.3504" ry="15.8701" style="stroke:#181818;stroke-width:0.5;"/><text fill="#000000" font-family="sans-serif" font-size="14" lengthAdjust="spacing" textLength="99.6201" x="191.9903" y="2473.6485">iniciarSesion()</text></g><!--entity UC42--><g class="entity" data-entity="UC42" data-source-line="60" data-uid="ent0041" id="entity_UC42"><ellipse cx="241.7991" cy="2401.9978" fill="#F1F1F1" rx="67.1891" ry="15.8378" style="stroke:#181818;stroke-width:0.5;"/><text fill="#000000" font-family="sans-serif" font-size="14" lengthAdjust="spacing" textLength="99.2031" x="192.1975" y="2406.6463">cerrarSesion()</text></g><!--entity UC13--><g class="entity" data-entity="UC13" data-source-line="64" data-uid="ent0043" id="entity_UC13"><ellipse cx="241.8046" cy="2579.0009" fill="#F1F1F1" rx="82.1046" ry="18.8209" style="stroke:#181818;stroke-width:0.5;"/><text fill="#000000" font-family="sans-serif" font-size="14" lengthAdjust="spacing" textLength="135.6113" x="173.9989" y="2583.6494">completarGestion()</text></g><!--entity doc--><g class="entity" data-entity="doc" data-source-line="3" data-uid="ent0002" id="entity_doc"><ellipse cx="35.3159" cy="1221.35" fill="#F1F1F1" rx="8" ry="8" style="stroke:#181818;stroke-width:0.5;"/><path d="M35.3159,1229.35 L35.3159,1256.35 M22.3159,1237.35 L48.3159,1237.35 M35.3159,1256.35 L22.3159,1271.35 M35.3159,1256.35 L48.3159,1271.35" fill="none" style="stroke:#181818;stroke-width:0.5;"/><text fill="#000000" font-family="sans-serif" font-size="14" lengthAdjust="spacing" textLength="58.6318" x="6" y="1285.8451">Docente</text></g><!--link doc to UC1--><g class="link" data-entity-1="doc" data-entity-2="UC1" data-source-line="68" data-uid="lnk44" id="link_doc_UC1"><path d="M36.82,1212.45 C39.26,1047.22 51.83,403.91 100.63,329 C122.33,295.68 158.482,278.2491 190.832,267.7691" fill="none" id="doc-to-UC1" style="stroke:#181818;stroke-width:1;"/><polygon fill="#181818" points="196.54,265.92,186.7453,264.8884,191.7834,267.4609,189.2108,272.499,196.54,265.92" style="stroke:#181818;stroke-width:1;"/></g><!--link doc to UC2--><g class="link" data-entity-1="doc" data-entity-2="UC2" data-source-line="69" data-uid="lnk45" id="link_doc_UC2"><path d="M36.05,1212.47 C35.16,1034.64 35.47,298.68 100.63,222 C120.03,199.18 146.0638,191.2541 174.5938,188.7041" fill="none" id="doc-to-UC2" style="stroke:#181818;stroke-width:1;"/><polygon fill="#181818" points="180.57,188.17,171.2496,184.9871,175.5899,188.6151,171.9618,192.9553,180.57,188.17" style="stroke:#181818;stroke-width:1;"/></g><!--link doc to UC3--><g class="link" data-entity-1="doc" data-entity-2="UC3" data-source-line="70" data-uid="lnk46" id="link_doc_UC3"><path d="M35.91,1212.57 C34.3,1028.23 31.55,240.15 100.63,158 C118.97,136.19 142.8104,127.9555 170.2304,124.7555" fill="none" id="doc-to-UC3" style="stroke:#181818;stroke-width:1;"/><polygon fill="#181818" points="176.19,124.06,166.787,121.1302,171.2237,124.6396,167.7143,129.0763,176.19,124.06" style="stroke:#181818;stroke-width:1;"/></g><!--link doc to UC4--><g class="link" data-entity-1="doc" data-entity-2="UC4" data-source-line="71" data-uid="lnk47" id="link_doc_UC4"><path d="M37.17,1212.42 C41.7,1016.15 63.99,136.02 100.63,92 C117.53,71.7 138.3807,63.2681 164.0207,59.2981" fill="none" id="doc-to-UC4" style="stroke:#181818;stroke-width:1;"/><polygon fill="#181818" points="169.95,58.38,160.4439,55.8042,165.0089,59.1451,161.668,63.71,169.95,58.38" style="stroke:#181818;stroke-width:1;"/></g><!--link doc to UC5--><g class="link" data-entity-1="doc" data-entity-2="UC5" data-source-line="72" data-uid="lnk48" id="link_doc_UC5"><path d="M35.94,1212.37 C35.49,1095.28 39.44,746.79 100.63,655 C121.81,623.24 155.0398,605.4537 186.4798,593.8737" fill="none" id="doc-to-UC5" style="stroke:#181818;stroke-width:1;"/><polygon fill="#181818" points="192.11,591.8,182.2821,591.1571,187.4181,593.5281,185.0471,598.6641,192.11,591.8" style="stroke:#181818;stroke-width:1;"/></g><!--link doc to UC6--><g class="link" data-entity-1="doc" data-entity-2="UC6" data-source-line="73" data-uid="lnk49" id="link_doc_UC6"><path d="M37.24,1212.69 C40.96,1072.67 56.82,594.14 100.63,543 C117.28,523.57 137.0022,515.1177 161.8122,510.7177" fill="none" id="doc-to-UC6" style="stroke:#181818;stroke-width:1;"/><polygon fill="#181818" points="167.72,509.67,158.1598,507.3031,162.7968,510.5431,159.5568,515.1801,167.72,509.67" style="stroke:#181818;stroke-width:1;"/></g><!--link doc to UC7--><g class="link" data-entity-1="doc" data-entity-2="UC7" data-source-line="74" data-uid="lnk50" id="link_doc_UC7"><path d="M36.91,1212.54 C39.56,1063.55 52.37,529.81 100.63,473 C116.22,454.65 133.9483,446.3254 157.3683,441.6054" fill="none" id="doc-to-UC7" style="stroke:#181818;stroke-width:1;"/><polygon fill="#181818" points="163.25,440.42,153.6371,438.2769,158.3486,441.4078,155.2177,446.1192,163.25,440.42" style="stroke:#181818;stroke-width:1;"/></g><!--link doc to UC8--><g class="link" data-entity-1="doc" data-entity-2="UC8" data-source-line="75" data-uid="lnk51" id="link_doc_UC8"><path d="M36.65,1212.59 C38.36,1055.21 48.24,464.95 100.63,402 C115.04,384.69 130.6818,376.3857 152.5118,371.0457" fill="none" id="doc-to-UC8" style="stroke:#181818;stroke-width:1;"/><polygon fill="#181818" points="158.34,369.62,148.6473,367.8731,153.4832,370.8081,150.5482,375.6439,158.34,369.62" style="stroke:#181818;stroke-width:1;"/></g><!--link doc to UC9--><g class="link" data-entity-1="doc" data-entity-2="UC9" data-source-line="76" data-uid="lnk52" id="link_doc_UC9"><path d="M46.29,1212.43 C55.92,1181.42 73.17,1138.34 100.63,1109 C128.36,1079.38 164.8658,1061.2191 195.6858,1049.2691" fill="none" id="doc-to-UC9" style="stroke:#181818;stroke-width:1;"/><polygon fill="#181818" points="201.28,1047.1,191.4426,1046.6241,196.6182,1048.9076,194.3347,1054.0831,201.28,1047.1" style="stroke:#181818;stroke-width:1;"/></g><!--link doc to UC10--><g class="link" data-entity-1="doc" data-entity-2="UC10" data-source-line="77" data-uid="lnk53" id="link_doc_UC10"><path d="M41.33,1212.44 C50.23,1149.88 70.74,1030.28 100.63,1001 C120.54,981.49 143.757,973.5453 170.327,969.8553" fill="none" id="doc-to-UC10" style="stroke:#181818;stroke-width:1;"/><polygon fill="#181818" points="176.27,969.03,166.8053,966.306,171.3175,969.7178,167.9058,974.23,176.27,969.03" style="stroke:#181818;stroke-width:1;"/></g><!--link doc to UC11--><g class="link" data-entity-1="doc" data-entity-2="UC11" data-source-line="78" data-uid="lnk54" id="link_doc_UC11"><path d="M39.08,1212.42 C45.27,1137.08 62.76,974.31 100.63,935 C119.13,915.8 140.5752,907.637 166.2252,903.537" fill="none" id="doc-to-UC11" style="stroke:#181818;stroke-width:1;"/><polygon fill="#181818" points="172.15,902.59,162.6315,900.0607,167.2127,903.3792,163.8942,907.9604,172.15,902.59" style="stroke:#181818;stroke-width:1;"/></g><!--link doc to UC12--><g class="link" data-entity-1="doc" data-entity-2="UC12" data-source-line="79" data-uid="lnk55" id="link_doc_UC12"><path d="M37.55,1212.68 C41.14,1125.68 54.47,916.95 100.63,867 C117.48,848.76 136.3681,840.5338 160.4281,835.9038" fill="none" id="doc-to-UC12" style="stroke:#181818;stroke-width:1;"/><polygon fill="#181818" points="166.32,834.77,156.7263,832.5428,161.4101,835.7148,158.238,840.3986,166.32,834.77" style="stroke:#181818;stroke-width:1;"/></g><!--link doc to UC13--><g class="link" data-entity-1="doc" data-entity-2="UC13" data-source-line="80" data-uid="lnk56" id="link_doc_UC13"><path d="M36.1,1289.47 C35.29,1488.48 35.2,2395.99 100.63,2501 C120.37,2532.67 152.2247,2550.4462 183.4647,2562.2062" fill="none" id="doc-to-UC13" style="stroke:#181818;stroke-width:1;"/><polygon fill="#181818" points="189.08,2564.32,182.0663,2557.4057,184.4006,2562.5585,179.2478,2564.8928,189.08,2564.32" style="stroke:#181818;stroke-width:1;"/></g><!--link doc to UC17--><g class="link" data-entity-1="doc" data-entity-2="UC17" data-source-line="81" data-uid="lnk57" id="link_doc_UC17"><path d="M35.62,1212.41 C34.46,1103.58 37.05,797.42 100.63,725 C116.3,707.16 133.6355,698.8481 156.6655,693.8681" fill="none" id="doc-to-UC17" style="stroke:#181818;stroke-width:1;"/><polygon fill="#181818" points="162.53,692.6,152.8879,690.5926,157.643,693.6568,154.5787,698.4118,162.53,692.6" style="stroke:#181818;stroke-width:1;"/></g><!--link doc to UC19--><g class="link" data-entity-1="doc" data-entity-2="UC19" data-source-line="82" data-uid="lnk58" id="link_doc_UC19"><path d="M36.46,1212.44 C37.65,1114.22 46.01,858.02 100.63,797 C116.38,779.4 133.5985,771.1518 156.5085,766.1418" fill="none" id="doc-to-UC19" style="stroke:#181818;stroke-width:1;"/><polygon fill="#181818" points="162.37,764.86,152.7232,762.875,157.4854,765.9282,154.4323,770.6904,162.37,764.86" style="stroke:#181818;stroke-width:1;"/></g><!--link doc to UC20--><g class="link" data-entity-1="doc" data-entity-2="UC20" data-source-line="83" data-uid="lnk59" id="link_doc_UC20"><path d="M35.89,1289.31 C35.56,1393.66 40.28,1679.68 100.63,1747 C118.1,1766.48 138.7375,1774.7686 164.0575,1778.8786" fill="none" id="doc-to-UC20" style="stroke:#181818;stroke-width:1;"/><polygon fill="#181818" points="169.98,1779.84,161.7372,1774.4497,165.0446,1779.0389,160.4554,1782.3463,169.98,1779.84" style="stroke:#181818;stroke-width:1;"/></g><!--link doc to UC21--><g class="link" data-entity-1="doc" data-entity-2="UC21" data-source-line="84" data-uid="lnk60" id="link_doc_UC21"><path d="M36.79,1289.46 C38.75,1383.66 48.83,1622.38 100.63,1679 C118.8,1698.86 140.4988,1707.1342 166.4288,1711.0942" fill="none" id="doc-to-UC21" style="stroke:#181818;stroke-width:1;"/><polygon fill="#181818" points="172.36,1712,164.067,1706.6871,167.4173,1711.2452,162.8593,1714.5954,172.36,1712" style="stroke:#181818;stroke-width:1;"/></g><!--link doc to UC22--><g class="link" data-entity-1="doc" data-entity-2="UC22" data-source-line="85" data-uid="lnk61" id="link_doc_UC22"><path d="M38.01,1289.44 C42.46,1372.49 57.3,1564.93 100.63,1611 C118.99,1630.52 140.5619,1638.7337 166.3519,1642.7637" fill="none" id="doc-to-UC22" style="stroke:#181818;stroke-width:1;"/><polygon fill="#181818" points="172.28,1643.69,164.0055,1638.3485,167.3399,1642.9181,162.7704,1646.2525,172.28,1643.69" style="stroke:#181818;stroke-width:1;"/></g><!--link doc to UC23--><g class="link" data-entity-1="doc" data-entity-2="UC23" data-source-line="86" data-uid="lnk62" id="link_doc_UC23"><path d="M39.95,1289.38 C47.34,1359.34 66.41,1503.68 100.63,1539 C117.15,1556.05 134.7189,1564.1365 157.6889,1569.1665" fill="none" id="doc-to-UC23" style="stroke:#181818;stroke-width:1;"/><polygon fill="#181818" points="163.55,1570.45,155.614,1564.6174,158.6657,1569.3804,153.9027,1572.4322,163.55,1570.45" style="stroke:#181818;stroke-width:1;"/></g><!--link doc to UC24--><g class="link" data-entity-1="doc" data-entity-2="UC24" data-source-line="87" data-uid="lnk63" id="link_doc_UC24"><path d="M37.02,1289.6 C40.04,1337.49 52.52,1418.49 100.63,1465 C117.01,1480.83 133.4904,1488.6703 155.5004,1494.0303" fill="none" id="doc-to-UC24" style="stroke:#181818;stroke-width:1;"/><polygon fill="#181818" points="161.33,1495.45,153.532,1489.4341,156.472,1494.2669,151.6391,1497.2069,161.33,1495.45" style="stroke:#181818;stroke-width:1;"/></g><!--link doc to UC25--><g class="link" data-entity-1="doc" data-entity-2="UC25" data-source-line="88" data-uid="lnk64" id="link_doc_UC25"><path d="M44.38,1289.53 C53.01,1321.26 69.82,1365.09 100.63,1391 C118.35,1405.9 135.6072,1413.4634 157.9172,1418.8434" fill="none" id="doc-to-UC25" style="stroke:#181818;stroke-width:1;"/><polygon fill="#181818" points="163.75,1420.25,155.9385,1414.2516,158.8893,1419.0779,154.0631,1422.0287,163.75,1420.25" style="stroke:#181818;stroke-width:1;"/></g><!--link doc to UC26--><g class="link" data-entity-1="doc" data-entity-2="UC26" data-source-line="89" data-uid="lnk65" id="link_doc_UC26"><path d="M37.43,1289.25 C41.78,1426.82 59.4,1890.99 100.63,1942 C111.69,1955.69 121.4117,1962.9552 137.8317,1969.5452" fill="none" id="doc-to-UC26" style="stroke:#181818;stroke-width:1;"/><polygon fill="#181818" points="143.4,1971.78,136.5374,1964.7156,138.7598,1969.9177,133.5577,1972.14,143.4,1971.78" style="stroke:#181818;stroke-width:1;"/></g><!--link doc to UC27--><g class="link" data-entity-1="doc" data-entity-2="UC27" data-source-line="90" data-uid="lnk66" id="link_doc_UC27"><path d="M36.39,1289.37 C37.28,1401.58 44.72,1726.71 100.63,1814 C118.98,1842.64 145.3226,1860.4808 173.9726,1874.1208" fill="none" id="doc-to-UC27" style="stroke:#181818;stroke-width:1;"/><polygon fill="#181818" points="179.39,1876.7,172.9834,1869.2197,174.8755,1874.5507,169.5445,1876.4428,179.39,1876.7" style="stroke:#181818;stroke-width:1;"/></g><!--link doc to UC28--><g class="link" data-entity-1="doc" data-entity-2="UC28" data-source-line="91" data-uid="lnk67" id="link_doc_UC28"><path d="M36.5,1289.64 C37.64,1452.26 45.59,2075.63 100.63,2142 C115.41,2159.82 131.8263,2168.2493 154.2863,2173.4793" fill="none" id="doc-to-UC28" style="stroke:#181818;stroke-width:1;"/><polygon fill="#181818" points="160.13,2174.84,152.2717,2168.9031,155.2603,2173.706,150.4573,2176.6947,160.13,2174.84" style="stroke:#181818;stroke-width:1;"/></g><!--link doc to UC29--><g class="link" data-entity-1="doc" data-entity-2="UC29" data-source-line="92" data-uid="lnk68" id="link_doc_UC29"><path d="M37.4,1289.57 C41.83,1437.77 60.33,1965.51 100.63,2028 C120.86,2059.36 152.703,2077.1243 183.813,2088.9743" fill="none" id="doc-to-UC29" style="stroke:#181818;stroke-width:1;"/><polygon fill="#181818" points="189.42,2091.11,182.4333,2084.1684,184.7475,2089.3302,179.5857,2091.6444,189.42,2091.11" style="stroke:#181818;stroke-width:1;"/></g><!--link doc to UC31--><g class="link" data-entity-1="doc" data-entity-2="UC31" data-source-line="93" data-uid="lnk69" id="link_doc_UC31"><path d="M36.74,1289.51 C38.87,1459.16 50.49,2134.87 100.63,2214 C120.46,2245.29 151.9136,2262.9826 182.9436,2274.8126" fill="none" id="doc-to-UC31" style="stroke:#181818;stroke-width:1;"/><polygon fill="#181818" points="188.55,2276.95,181.5654,2270.0063,183.878,2275.1688,178.7155,2277.4815,188.55,2276.95" style="stroke:#181818;stroke-width:1;"/></g><!--link doc to UC32--><g class="link" data-entity-1="doc" data-entity-2="UC32" data-source-line="94" data-uid="lnk70" id="link_doc_UC32"><path d="M64.32,1289.37 C74.56,1301.04 87.01,1312.91 100.63,1321 C122.95,1334.26 144.2581,1341.2866 168.7281,1346.4266" fill="none" id="doc-to-UC32" style="stroke:#181818;stroke-width:1;"/><polygon fill="#181818" points="174.6,1347.66,166.6145,1341.8953,169.7068,1346.6322,164.9699,1349.7245,174.6,1347.66" style="stroke:#181818;stroke-width:1;"/></g><!--link doc to UC33--><g class="link" data-entity-1="doc" data-entity-2="UC33" data-source-line="95" data-uid="lnk71" id="link_doc_UC33"><path d="M64.75,1255.87 C94.93,1261.03 137.5561,1268.3272 176.0361,1274.9172" fill="none" id="doc-to-UC33" style="stroke:#181818;stroke-width:1;"/><polygon fill="#181818" points="181.95,1275.93,173.7543,1270.4682,177.0217,1275.086,172.4039,1278.3534,181.95,1275.93" style="stroke:#181818;stroke-width:1;"/></g><!--link doc to UC34--><g class="link" data-entity-1="doc" data-entity-2="UC34" data-source-line="96" data-uid="lnk72" id="link_doc_UC34"><path d="M64.75,1246.13 C93.94,1241.14 134.4062,1234.2133 172.2262,1227.7333" fill="none" id="doc-to-UC34" style="stroke:#181818;stroke-width:1;"/><polygon fill="#181818" points="178.14,1226.72,168.5938,1224.2973,173.2118,1227.5644,169.9448,1232.1824,178.14,1226.72" style="stroke:#181818;stroke-width:1;"/></g><!--link doc to UC35--><g class="link" data-entity-1="doc" data-entity-2="UC35" data-source-line="97" data-uid="lnk73" id="link_doc_UC35"><path d="M64.71,1212.38 C74.89,1200.83 87.21,1189.1 100.63,1181 C121.53,1168.39 140.8832,1161.4101 164.1032,1155.8801" fill="none" id="doc-to-UC35" style="stroke:#181818;stroke-width:1;"/><polygon fill="#181818" points="169.94,1154.49,160.2582,1152.6839,165.076,1155.6484,162.1116,1160.4663,169.94,1154.49" style="stroke:#181818;stroke-width:1;"/></g><!--link doc to UC41--><g class="link" data-entity-1="doc" data-entity-2="UC41" data-source-line="98" data-uid="lnk74" id="link_doc_UC41"><path d="M37.12,1289.43 C41.46,1487.95 63.17,2389.93 100.63,2435 C118.48,2456.47 141.4217,2464.9037 168.3517,2468.4637" fill="none" id="doc-to-UC41" style="stroke:#181818;stroke-width:1;"/><polygon fill="#181818" points="174.3,2469.25,165.9018,2464.105,169.3431,2468.5947,164.8534,2472.036,174.3,2469.25" style="stroke:#181818;stroke-width:1;"/></g><!--link doc to UC42--><g class="link" data-entity-1="doc" data-entity-2="UC42" data-source-line="99" data-uid="lnk75" id="link_doc_UC42"><path d="M36.41,1289.4 C37.17,1470.95 43.74,2238.16 100.63,2327 C121.77,2360 156.8916,2377.5615 189.0516,2388.3515" fill="none" id="doc-to-UC42" style="stroke:#181818;stroke-width:1;"/><polygon fill="#181818" points="194.74,2390.26,187.4798,2383.605,189.9997,2388.6696,184.9351,2391.1895,194.74,2390.26" style="stroke:#181818;stroke-width:1;"/></g><!--SRC=[VLJBQjqm4DtxAyHTjOl0bUJxsXH2Mkwg41hw0QeySKLiwIB99H3wLVc4_5XiNsoDvKbsOyxHcND6OpNm65bqp9lwRsILyQ2ZSROeb8xEiyrtfy56s30LMELqKLoKVb8riCtFjzUgQnmxUrMv3Nif6Ei2Q1LwJ7jGVWI-V1sF_hxZ6Fy7LpJCiC0mL2Rcv-M2q9ZMs9nI5ly9VxV1r5R5pYlAP49dcLtcD56ItVtQBg5qe3mJl2DjlEbQIqxsYip7JxdX4Kvc-PPmkvJWdBIQaOPBIYpJNfoVfL2xqu86pn_G3aDgQg4WHFFsQba5xDv3tTce0ZM62KnBjCqcCHzF5BwUnSIQA8AQnRhPOYEdOH0TouAO1i7hzswPxnU4IzSF8_MK8WiuKvAEbEk4X599XIHuEt8txvnzD7M_mtgygJDOyAh9BcdAYiZEdXltHpKfzPwQugSd3gIZ7y-g1Pivg4TV_ee1clKHizJuHnAiVf4_IE_xTtACdk_bWDHchIKvgVG0WL0nrcYZ_00wcvwtnUfgy7vD4MINwOzQcMql3GmlxO0Z6IwBGQT_xzdDpRVnyKwrGBL4TOdg7Qhtg3wW-eZg4-wrnH-uCyUjEUxDiJ37QWAhYKKEh2Qmci1H1CuYS1Y1cmeSHs074ZULY-dXfX8tbRXfYGLAyGu0]--></g></svg>