<svg xmlns="http://www.w3.org/2000/svg" xmlns:xlink="http://www.w3.org/1999/xlink" contentStyleType="text/css" data-diagram-type="DESCRIPTION" height="2483px" preserveAspectRatio="none" style="width:395px;height:2483px;background:#FFFFFF;" version="1.1" viewBox="0 0 395 2483" width="395px" zoomAndPan="magnify"><defs/><g><!--cluster M?dulo Grado--><g class="cluster" data-entity="M.dulo Grado" data-source-line="5" data-uid="ent0003" id="cluster_M.dulo Grado"><path d="M166.61,6 L277.9215,6 A3.75,3.75 0 0 1 280.4215,8.5 L287.4215,28.2969 L330.54,28.2969 A2.5,2.5 0 0 1 333.04,30.7969 L333.04,279.5 A2.5,2.5 0 0 1 330.54,282 L166.61,282 A2.5,2.5 0 0 1 164.11,279.5 L164.11,8.5 A2.5,2.5 0 0 1 166.61,6" fill="none" style="stroke:#000000;stroke-width:1.5;"/><line style="stroke:#000000;stroke-width:1.5;" x1="164.11" x2="287.4215" y1="28.2969" y2="28.2969"/><text fill="#000000" font-family="sans-serif" font-size="14" font-weight="bold" lengthAdjust="spacing" textLength="110.3115" x="168.11" y="20.9951">M&#243;dulo Grado</text></g><!--cluster M?dulo Asignatura--><g class="cluster" data-entity="M.dulo Asignatura" data-source-line="12" data-uid="ent0008" id="cluster_M.dulo Asignatura"><path d="M152.54,306 L302.7822,306 A3.75,3.75 0 0 1 305.2822,308.5 L312.2822,328.2969 L344.61,328.2969 A2.5,2.5 0 0 1 347.11,330.7969 L347.11,599.5 A2.5,2.5 0 0 1 344.61,602 L152.54,602 A2.5,2.5 0 0 1 150.04,599.5 L150.04,308.5 A2.5,2.5 0 0 1 152.54,306" fill="none" style="stroke:#000000;stroke-width:1.5;"/><line style="stroke:#000000;stroke-width:1.5;" x1="150.04" x2="312.2822" y1="328.2969" y2="328.2969"/><text fill="#000000" font-family="sans-serif" font-size="14" font-weight="bold" lengthAdjust="spacing" textLength="149.2422" x="154.04" y="320.9951">M&#243;dulo Asignatura</text></g><!--cluster M?dulo Alumno--><g class="cluster" data-entity="M.dulo Alumno" data-source-line="19" data-uid="ent0013" id="cluster_M.dulo Alumno"><path d="M157.48,626 L281.0825,626 A3.75,3.75 0 0 1 283.5825,628.5 L290.5825,648.2969 L339.66,648.2969 A2.5,2.5 0 0 1 342.16,650.7969 L342.16,978.5 A2.5,2.5 0 0 1 339.66,981 L157.48,981 A2.5,2.5 0 0 1 154.98,978.5 L154.98,628.5 A2.5,2.5 0 0 1 157.48,626" fill="none" style="stroke:#000000;stroke-width:1.5;"/><line style="stroke:#000000;stroke-width:1.5;" x1="154.98" x2="290.5825" y1="648.2969" y2="648.2969"/><text fill="#000000" font-family="sans-serif" font-size="14" font-weight="bold" lengthAdjust="spacing" textLength="122.6025" x="158.98" y="640.9951">M&#243;dulo Alumno</text></g><!--cluster M?dulo Asignaciones--><g class="cluster" data-entity="M.dulo Asignaciones" data-source-line="27" data-uid="ent0019" id="cluster_M.dulo Asignaciones"><path d="M111.13,1005 L278.8722,1005 A3.75,3.75 0 0 1 281.3722,1007.5 L288.3722,1027.2969 L386.02,1027.2969 A2.5,2.5 0 0 1 388.52,1029.7969 L388.52,1273.5 A2.5,2.5 0 0 1 386.02,1276 L111.13,1276 A2.5,2.5 0 0 1 108.63,1273.5 L108.63,1007.5 A2.5,2.5 0 0 1 111.13,1005" fill="none" style="stroke:#000000;stroke-width:1.5;"/><line style="stroke:#000000;stroke-width:1.5;" x1="108.63" x2="288.3722" y1="1027.2969" y2="1027.2969"/><text fill="#000000" font-family="sans-serif" font-size="14" font-weight="bold" lengthAdjust="spacing" textLength="166.7422" x="112.63" y="1019.9951">M&#243;dulo Asignaciones</text></g><!--cluster M?dulo Gesti?n de Preguntas--><g class="cluster" data-entity="M.dulo Gesti.n de Preguntas" data-source-line="33" data-uid="ent0023" id="cluster_M.dulo Gesti.n de Preguntas"><path d="M126.59,1300 L361.1671,1300 A3.75,3.75 0 0 1 363.6671,1302.5 L370.6671,1322.2969 L370.56,1322.2969 A2.5,2.5 0 0 1 373.06,1324.7969 L373.06,1798.5 A2.5,2.5 0 0 1 370.56,1801 L126.59,1801 A2.5,2.5 0 0 1 124.09,1798.5 L124.09,1302.5 A2.5,2.5 0 0 1 126.59,1300" fill="none" style="stroke:#000000;stroke-width:1.5;"/><line style="stroke:#000000;stroke-width:1.5;" x1="124.09" x2="370.6671" y1="1322.2969" y2="1322.2969"/><text fill="#000000" font-family="sans-serif" font-size="14" font-weight="bold" lengthAdjust="spacing" textLength="233.5771" x="128.09" y="1314.9951">M&#243;dulo Gesti&#243;n de Preguntas</text></g><!--cluster M?dulo Configuraci?n General--><g class="cluster" data-entity="M.dulo Configuraci.n General" data-source-line="43" data-uid="ent0031" id="cluster_M.dulo Configuraci.n General"><path d="M120.62,1825 L360.6932,1825 A3.75,3.75 0 0 1 363.1932,1827.5 L370.1932,1847.2969 L376.52,1847.2969 A2.5,2.5 0 0 1 379.02,1849.7969 L379.02,2009.5 A2.5,2.5 0 0 1 376.52,2012 L120.62,2012 A2.5,2.5 0 0 1 118.12,2009.5 L118.12,1827.5 A2.5,2.5 0 0 1 120.62,1825" fill="none" style="stroke:#000000;stroke-width:1.5;"/><line style="stroke:#000000;stroke-width:1.5;" x1="118.12" x2="370.1932" y1="1847.2969" y2="1847.2969"/><text fill="#000000" font-family="sans-serif" font-size="14" font-weight="bold" lengthAdjust="spacing" textLength="239.0732" x="122.12" y="1839.9951">M&#243;dulo Configuraci&#243;n General</text></g><!--cluster M?dulo Examen--><g class="cluster" data-entity="M.dulo Examen" data-source-line="48" data-uid="ent0034" id="cluster_M.dulo Examen"><path d="M155.44,2036 L281.3599,2036 A3.75,3.75 0 0 1 283.8599,2038.5 L290.8599,2058.2969 L341.71,2058.2969 A2.5,2.5 0 0 1 344.21,2060.7969 L344.21,2189.5 A2.5,2.5 0 0 1 341.71,2192 L155.44,2192 A2.5,2.5 0 0 1 152.94,2189.5 L152.94,2038.5 A2.5,2.5 0 0 1 155.44,2036" fill="none" style="stroke:#000000;stroke-width:1.5;"/><line style="stroke:#000000;stroke-width:1.5;" x1="152.94" x2="290.8599" y1="2058.2969" y2="2058.2969"/><text fill="#000000" font-family="sans-serif" font-size="14" font-weight="bold" lengthAdjust="spacing" textLength="124.9199" x="156.94" y="2050.9951">M&#243;dulo Examen</text></g><!--cluster M?dulo Correcci?n--><g class="cluster" data-entity="M.dulo Correcci.n" data-source-line="54" data-uid="ent0037" id="cluster_M.dulo Correcci.n"><path d="M153.68,2216 L301.6868,2216 A3.75,3.75 0 0 1 304.1868,2218.5 L311.1868,2238.2969 L343.47,2238.2969 A2.5,2.5 0 0 1 345.97,2240.7969 L345.97,2302.5 A2.5,2.5 0 0 1 343.47,2305 L153.68,2305 A2.5,2.5 0 0 1 151.18,2302.5 L151.18,2218.5 A2.5,2.5 0 0 1 153.68,2216" fill="none" style="stroke:#000000;stroke-width:1.5;"/><line style="stroke:#000000;stroke-width:1.5;" x1="151.18" x2="311.1868" y1="2238.2969" y2="2238.2969"/><text fill="#000000" font-family="sans-serif" font-size="14" font-weight="bold" lengthAdjust="spacing" textLength="147.0068" x="155.18" y="2230.9951">M&#243;dulo Correcci&#243;n</text></g><!--cluster M?dulo Sesi?n--><g class="cluster" data-entity="M.dulo Sesi.n" data-source-line="58" data-uid="ent0039" id="cluster_M.dulo Sesi.n"><path d="M170.17,2329 L286.294,2329 A3.75,3.75 0 0 1 288.794,2331.5 L295.794,2351.2969 L326.98,2351.2969 A2.5,2.5 0 0 1 329.48,2353.7969 L329.48,2473.5 A2.5,2.5 0 0 1 326.98,2476 L170.17,2476 A2.5,2.5 0 0 1 167.67,2473.5 L167.67,2331.5 A2.5,2.5 0 0 1 170.17,2329" fill="none" style="stroke:#000000;stroke-width:1.5;"/><line style="stroke:#000000;stroke-width:1.5;" x1="167.67" x2="295.794" y1="2351.2969" y2="2351.2969"/><text fill="#000000" font-family="sans-serif" font-size="14" font-weight="bold" lengthAdjust="spacing" textLength="115.124" x="171.67" y="2343.9951">M&#243;dulo Sesi&#243;n</text></g><!--entity UC1--><g class="entity" data-entity="UC1" data-source-line="6" data-uid="ent0004" id="entity_UC1"><ellipse cx="248.5722" cy="251.0044" fill="#F1F1F1" rx="61.3722" ry="14.6744" style="stroke:#181818;stroke-width:0.5;"/><text fill="#000000" font-family="sans-serif" font-size="14" lengthAdjust="spacing" textLength="83.6035" x="206.7704" y="255.6529">Crear grado</text></g><!--entity UC2--><g class="entity" data-entity="UC2" data-source-line="7" data-uid="ent0005" id="entity_UC2"><ellipse cx="248.5677" cy="187.0036" fill="#F1F1F1" rx="56.9977" ry="14.5236" style="stroke:#181818;stroke-width:0.5;"/><text fill="#000000" font-family="sans-serif" font-size="14" lengthAdjust="spacing" textLength="76.3643" x="210.3856" y="191.6521">Ver grados</text></g><!--entity UC3--><g class="entity" data-entity="UC3" data-source-line="8" data-uid="ent0006" id="entity_UC3"><ellipse cx="248.5735" cy="122.9987" fill="#F1F1F1" rx="62.4435" ry="14.8887" style="stroke:#181818;stroke-width:0.5;"/><text fill="#000000" font-family="sans-serif" font-size="14" lengthAdjust="spacing" textLength="86.5703" x="205.2884" y="127.6471">Editar grado</text></g><!--entity UC4--><g class="entity" data-entity="UC4" data-source-line="9" data-uid="ent0007" id="entity_UC4"><ellipse cx="248.5652" cy="57.003" fill="#F1F1F1" rx="68.4652" ry="16.093" style="stroke:#181818;stroke-width:0.5;"/><text fill="#000000" font-family="sans-serif" font-size="14" lengthAdjust="spacing" textLength="102.4844" x="197.323" y="61.6515">Eliminar grado</text></g><!--entity UC5--><g class="entity" data-entity="UC5" data-source-line="13" data-uid="ent0009" id="entity_UC5"><ellipse cx="248.5686" cy="568.9977" fill="#F1F1F1" rx="74.5886" ry="17.3177" style="stroke:#181818;stroke-width:0.5;"/><text fill="#000000" font-family="sans-serif" font-size="14" lengthAdjust="spacing" textLength="117.7285" x="189.7043" y="573.6462">Crear asignatura</text></g><!--entity UC6--><g class="entity" data-entity="UC6" data-source-line="14" data-uid="ent0010" id="entity_UC6"><ellipse cx="248.5732" cy="499.9986" fill="#F1F1F1" rx="71.6432" ry="16.7286" style="stroke:#181818;stroke-width:0.5;"/><text fill="#000000" font-family="sans-serif" font-size="14" lengthAdjust="spacing" textLength="110.4893" x="193.3286" y="504.6471">Ver asignaturas</text></g><!--entity UC7--><g class="entity" data-entity="UC7" data-source-line="15" data-uid="ent0011" id="entity_UC7"><ellipse cx="248.5732" cy="431.0026" fill="#F1F1F1" rx="75.8132" ry="17.5626" style="stroke:#181818;stroke-width:0.5;"/><text fill="#000000" font-family="sans-serif" font-size="14" lengthAdjust="spacing" textLength="120.6953" x="188.2256" y="435.6511">Editar asignatura</text></g><!--entity UC8--><g class="entity" data-entity="UC8" data-source-line="16" data-uid="ent0012" id="entity_UC8"><ellipse cx="248.5727" cy="359.9965" fill="#F1F1F1" rx="82.5327" ry="18.9065" style="stroke:#181818;stroke-width:0.5;"/><text fill="#000000" font-family="sans-serif" font-size="14" lengthAdjust="spacing" textLength="136.6094" x="180.268" y="364.645">Eliminar asignatura</text></g><!--entity UC9--><g class="entity" data-entity="UC9" data-source-line="20" data-uid="ent0014" id="entity_UC9"><ellipse cx="248.5714" cy="949.0023" fill="#F1F1F1" rx="65.7114" ry="15.5423" style="stroke:#181818;stroke-width:0.5;"/><text fill="#000000" font-family="sans-serif" font-size="14" lengthAdjust="spacing" textLength="95.3477" x="200.8976" y="953.6507">Crear alumno</text></g><!--entity UC10--><g class="entity" data-entity="UC10" data-source-line="21" data-uid="ent0015" id="entity_UC10"><ellipse cx="248.5658" cy="883.0012" fill="#F1F1F1" rx="63.0058" ry="15.0012" style="stroke:#181818;stroke-width:0.5;"/><text fill="#000000" font-family="sans-serif" font-size="14" lengthAdjust="spacing" textLength="88.1084" x="204.5116" y="887.6496">Ver alumnos</text></g><!--entity UC11--><g class="entity" data-entity="UC11" data-source-line="22" data-uid="ent0016" id="entity_UC11"><ellipse cx="248.5664" cy="816.9993" fill="#F1F1F1" rx="66.8464" ry="15.7693" style="stroke:#181818;stroke-width:0.5;"/><text fill="#000000" font-family="sans-serif" font-size="14" lengthAdjust="spacing" textLength="98.3145" x="199.4091" y="821.6477">Editar alumno</text></g><!--entity UC12--><g class="entity" data-entity="UC12" data-source-line="23" data-uid="ent0017" id="entity_UC12"><ellipse cx="248.5667" cy="749.0013" fill="#F1F1F1" rx="73.1567" ry="17.0313" style="stroke:#181818;stroke-width:0.5;"/><text fill="#000000" font-family="sans-serif" font-size="14" lengthAdjust="spacing" textLength="114.2285" x="191.4525" y="753.6498">Eliminar alumno</text></g><!--entity UC19--><g class="entity" data-entity="UC19" data-source-line="24" data-uid="ent0018" id="entity_UC19"><ellipse cx="248.5704" cy="678.9981" fill="#F1F1F1" rx="77.5904" ry="17.9181" style="stroke:#181818;stroke-width:0.5;"/><text fill="#000000" font-family="sans-serif" font-size="14" lengthAdjust="spacing" textLength="124.9609" x="186.09" y="683.6465">Importar alumnos</text></g><!--entity UC13--><g class="entity" data-entity="UC13" data-source-line="28" data-uid="ent0020" id="entity_UC13"><ellipse cx="248.5743" cy="1235.9969" fill="#F1F1F1" rx="108.0343" ry="24.0069" style="stroke:#181818;stroke-width:0.5;"/><text fill="#000000" font-family="sans-serif" font-size="14" lengthAdjust="spacing" textLength="193.6211" x="151.7638" y="1240.6453">Actualizar alumno de grado</text></g><!--entity UC15--><g class="entity" data-entity="UC15" data-source-line="29" data-uid="ent0021" id="entity_UC15"><ellipse cx="248.5743" cy="1152.9969" fill="#F1F1F1" rx="108.0343" ry="24.0069" style="stroke:#181818;stroke-width:0.5;"/><text fill="#000000" font-family="sans-serif" font-size="14" lengthAdjust="spacing" textLength="193.6211" x="151.7638" y="1157.6453">Actualizar grado de alumno</text></g><!--entity UC17--><g class="entity" data-entity="UC17" data-source-line="30" data-uid="ent0022" id="entity_UC17"><ellipse cx="248.5721" cy="1066.9984" fill="#F1F1F1" rx="123.9421" ry="27.1884" style="stroke:#181818;stroke-width:0.5;"/><text fill="#000000" font-family="sans-serif" font-size="14" lengthAdjust="spacing" textLength="227.7461" x="134.6991" y="1071.6469">Actualizar alumno de asignatura</text></g><!--entity UC20--><g class="entity" data-entity="UC20" data-source-line="34" data-uid="ent0024" id="entity_UC20"><ellipse cx="248.5721" cy="1769.0004" fill="#F1F1F1" rx="70.2021" ry="16.4404" style="stroke:#181818;stroke-width:0.5;"/><text fill="#000000" font-family="sans-serif" font-size="14" lengthAdjust="spacing" textLength="106.8867" x="195.1287" y="1773.6489">Crear pregunta</text></g><!--entity UC21--><g class="entity" data-entity="UC21" data-source-line="35" data-uid="ent0025" id="entity_UC21"><ellipse cx="248.5709" cy="1702.0022" fill="#F1F1F1" rx="67.3609" ry="15.8722" style="stroke:#181818;stroke-width:0.5;"/><text fill="#000000" font-family="sans-serif" font-size="14" lengthAdjust="spacing" textLength="99.6475" x="198.7472" y="1706.6506">Ver preguntas</text></g><!--entity UC30--><g class="entity" data-entity="UC30" data-source-line="36" data-uid="ent0026" id="entity_UC30"><ellipse cx="248.571" cy="1635.9962" fill="#F1F1F1" rx="64.581" ry="15.3162" style="stroke:#181818;stroke-width:0.5;"/><text fill="#000000" font-family="sans-serif" font-size="14" lengthAdjust="spacing" textLength="92.3535" x="202.3942" y="1640.6446">Ver pregunta</text></g><!--entity UC22--><g class="entity" data-entity="UC22" data-source-line="37" data-uid="ent0027" id="entity_UC22"><ellipse cx="248.5677" cy="1568.9975" fill="#F1F1F1" rx="71.3877" ry="16.6775" style="stroke:#181818;stroke-width:0.5;"/><text fill="#000000" font-family="sans-serif" font-size="14" lengthAdjust="spacing" textLength="109.8535" x="193.6409" y="1573.646">Editar pregunta</text></g><!--entity UC23--><g class="entity" data-entity="UC23" data-source-line="38" data-uid="ent0028" id="entity_UC23"><ellipse cx="248.5686" cy="1498.9957" fill="#F1F1F1" rx="77.9286" ry="17.9857" style="stroke:#181818;stroke-width:0.5;"/><text fill="#000000" font-family="sans-serif" font-size="14" lengthAdjust="spacing" textLength="125.7676" x="185.6848" y="1503.6442">Eliminar pregunta</text></g><!--entity UC24--><g class="entity" data-entity="UC24" data-source-line="39" data-uid="ent0029" id="entity_UC24"><ellipse cx="248.5658" cy="1426.9972" fill="#F1F1F1" rx="82.4858" ry="18.8972" style="stroke:#181818;stroke-width:0.5;"/><text fill="#000000" font-family="sans-serif" font-size="14" lengthAdjust="spacing" textLength="136.5" x="180.3158" y="1431.6456">Importar preguntas</text></g><!--entity UC25--><g class="entity" data-entity="UC25" data-source-line="40" data-uid="ent0030" id="entity_UC25"><ellipse cx="248.573" cy="1354.0026" fill="#F1F1F1" rx="82.213" ry="18.8426" style="stroke:#181818;stroke-width:0.5;"/><text fill="#000000" font-family="sans-serif" font-size="14" lengthAdjust="spacing" textLength="135.8643" x="180.6409" y="1358.651">Exportar preguntas</text></g><!--entity UC26--><g class="entity" data-entity="UC26" data-source-line="44" data-uid="ent0032" id="entity_UC26"><ellipse cx="248.5735" cy="1971.0007" fill="#F1F1F1" rx="114.1535" ry="25.2307" style="stroke:#181818;stroke-width:0.5;"/><text fill="#000000" font-family="sans-serif" font-size="14" lengthAdjust="spacing" textLength="206.835" x="145.156" y="1975.6491">Exportar configuraci&#243;n global</text></g><!--entity UC27--><g class="entity" data-entity="UC27" data-source-line="45" data-uid="ent0033" id="entity_UC27"><ellipse cx="248.5693" cy="1884.9999" fill="#F1F1F1" rx="114.4493" ry="25.2899" style="stroke:#181818;stroke-width:0.5;"/><text fill="#000000" font-family="sans-serif" font-size="14" lengthAdjust="spacing" textLength="207.4707" x="144.834" y="1889.6483">Importar configuraci&#243;n global</text></g><!--entity UC28--><g class="entity" data-entity="UC28" data-source-line="49" data-uid="ent0035" id="entity_UC28"><ellipse cx="248.5701" cy="2159" fill="#F1F1F1" rx="73.6501" ry="17.13" style="stroke:#181818;stroke-width:0.5;"/><text fill="#000000" font-family="sans-serif" font-size="14" lengthAdjust="spacing" textLength="115.4385" x="190.8509" y="2163.6485">Crear examenes</text></g><!--entity UC29--><g class="entity" data-entity="UC29" data-source-line="50" data-uid="ent0036" id="entity_UC29"><ellipse cx="248.5747" cy="2088.9969" fill="#F1F1F1" rx="79.6347" ry="18.3269" style="stroke:#181818;stroke-width:0.5;"/><text fill="#000000" font-family="sans-serif" font-size="14" lengthAdjust="spacing" textLength="129.8145" x="183.6675" y="2093.6454">Asignar examenes</text></g><!--entity UC31--><g class="entity" data-entity="UC31" data-source-line="55" data-uid="ent0038" id="entity_UC31"><ellipse cx="248.5667" cy="2269.9993" fill="#F1F1F1" rx="81.3967" ry="18.6793" style="stroke:#181818;stroke-width:0.5;"/><text fill="#000000" font-family="sans-serif" font-size="14" lengthAdjust="spacing" textLength="133.957" x="181.5882" y="2274.6478">Corregir ex&#225;menes</text></g><!--entity UC41--><g class="entity" data-entity="UC41" data-source-line="59" data-uid="ent0040" id="entity_UC41"><ellipse cx="248.5711" cy="2445.0042" fill="#F1F1F1" rx="64.3711" ry="15.2742" style="stroke:#181818;stroke-width:0.5;"/><text fill="#000000" font-family="sans-serif" font-size="14" lengthAdjust="spacing" textLength="91.793" x="202.6746" y="2449.6527">Iniciar sesi&#243;n</text></g><!--entity UC42--><g class="entity" data-entity="UC42" data-source-line="60" data-uid="ent0041" id="entity_UC42"><ellipse cx="248.5746" cy="2379.0009" fill="#F1F1F1" rx="64.9046" ry="15.3809" style="stroke:#181818;stroke-width:0.5;"/><text fill="#000000" font-family="sans-serif" font-size="14" lengthAdjust="spacing" textLength="93.2148" x="201.9672" y="2383.6494">Cerrar sesi&#243;n</text></g><!--entity doc--><g class="entity" data-entity="doc" data-source-line="3" data-uid="ent0002" id="entity_doc"><ellipse cx="35.3159" cy="1165.35" fill="#F1F1F1" rx="8" ry="8" style="stroke:#181818;stroke-width:0.5;"/><path d="M35.3159,1173.35 L35.3159,1200.35 M22.3159,1181.35 L48.3159,1181.35 M35.3159,1200.35 L22.3159,1215.35 M35.3159,1200.35 L48.3159,1215.35" fill="none" style="stroke:#181818;stroke-width:0.5;"/><text fill="#000000" font-family="sans-serif" font-size="14" lengthAdjust="spacing" textLength="58.6318" x="6" y="1229.8451">Docente</text></g><!--link doc to UC1--><g class="link" data-entity-1="doc" data-entity-2="UC1" data-source-line="63" data-uid="lnk42" id="link_doc_UC1"><path d="M36.95,1156.47 C39.88,997.14 53.96,394.85 100.63,325 C123.8,290.33 162.5881,272.8375 196.5781,262.7475" fill="none" id="doc-to-UC1" style="stroke:#181818;stroke-width:1;"/><polygon fill="#181818" points="202.33,261.04,192.5638,259.7666,197.5367,262.4629,194.8404,267.4358,202.33,261.04" style="stroke:#181818;stroke-width:1;"/></g><!--link doc to UC2--><g class="link" data-entity-1="doc" data-entity-2="UC2" data-source-line="64" data-uid="lnk43" id="link_doc_UC2"><path d="M36.17,1156.44 C35.87,984.26 38.57,291.05 100.63,219 C122.95,193.09 154.9159,185.5763 186.6559,184.1663" fill="none" id="doc-to-UC2" style="stroke:#181818;stroke-width:1;"/><polygon fill="#181818" points="192.65,183.9,183.4813,180.3034,187.6549,184.1219,183.8364,188.2955,192.65,183.9" style="stroke:#181818;stroke-width:1;"/></g><!--link doc to UC3--><g class="link" data-entity-1="doc" data-entity-2="UC3" data-source-line="65" data-uid="lnk44" id="link_doc_UC3"><path d="M36,1156.64 C34.9,977.91 34.34,232.27 100.63,155 C121.54,130.63 150.2941,122.7009 180.7441,120.6109" fill="none" id="doc-to-UC3" style="stroke:#181818;stroke-width:1;"/><polygon fill="#181818" points="186.73,120.2,177.4772,116.8257,181.7417,120.5424,178.025,124.8069,186.73,120.2" style="stroke:#181818;stroke-width:1;"/></g><!--link doc to UC4--><g class="link" data-entity-1="doc" data-entity-2="UC4" data-source-line="66" data-uid="lnk45" id="link_doc_UC4"><path d="M37.28,1156.37 C42.18,965.72 65.56,132.57 100.63,91 C119.88,68.18 145.1575,59.6201 173.8975,56.3901" fill="none" id="doc-to-UC4" style="stroke:#181818;stroke-width:1;"/><polygon fill="#181818" points="179.86,55.72,170.4696,52.7502,174.8913,56.2784,171.363,60.7001,179.86,55.72" style="stroke:#181818;stroke-width:1;"/></g><!--link doc to UC5--><g class="link" data-entity-1="doc" data-entity-2="UC5" data-source-line="67" data-uid="lnk46" id="link_doc_UC5"><path d="M36.24,1156.55 C36.71,1045.7 43.16,728.13 100.63,645 C123.17,612.4 158.4229,594.7724 191.3729,583.6924" fill="none" id="doc-to-UC5" style="stroke:#181818;stroke-width:1;"/><polygon fill="#181818" points="197.06,581.78,187.2545,580.8572,192.3208,583.3736,189.8043,588.4399,197.06,581.78" style="stroke:#181818;stroke-width:1;"/></g><!--link doc to UC6--><g class="link" data-entity-1="doc" data-entity-2="UC6" data-source-line="68" data-uid="lnk47" id="link_doc_UC6"><path d="M37.48,1156.46 C41.89,1022.25 59.43,580.96 100.63,534 C119.46,512.55 142.9421,503.989 170.5321,500.329" fill="none" id="doc-to-UC6" style="stroke:#181818;stroke-width:1;"/><polygon fill="#181818" points="176.48,499.54,167.0321,496.7583,171.5234,500.1975,168.0842,504.6888,176.48,499.54" style="stroke:#181818;stroke-width:1;"/></g><!--link doc to UC7--><g class="link" data-entity-1="doc" data-entity-2="UC7" data-source-line="69" data-uid="lnk48" id="link_doc_UC7"><path d="M37.12,1156.53 C40.45,1013.59 55.21,518.58 100.63,466 C118.46,445.36 140.123,436.643 166.613,432.473" fill="none" id="doc-to-UC7" style="stroke:#181818;stroke-width:1;"/><polygon fill="#181818" points="172.54,431.54,163.0275,428.9882,167.6008,432.3175,164.2715,436.8909,172.54,431.54" style="stroke:#181818;stroke-width:1;"/></g><!--link doc to UC8--><g class="link" data-entity-1="doc" data-entity-2="UC8" data-source-line="70" data-uid="lnk49" id="link_doc_UC8"><path d="M36.81,1156.54 C39.12,1004.97 50.89,454.41 100.63,396 C116.98,376.8 135.8429,368.0982 160.3929,363.2682" fill="none" id="doc-to-UC8" style="stroke:#181818;stroke-width:1;"/><polygon fill="#181818" points="166.28,362.11,156.6771,359.9226,161.374,363.0752,158.2214,367.7721,166.28,362.11" style="stroke:#181818;stroke-width:1;"/></g><!--link doc to UC9--><g class="link" data-entity-1="doc" data-entity-2="UC9" data-source-line="71" data-uid="lnk50" id="link_doc_UC9"><path d="M42.47,1156.5 C50.25,1118.82 66.92,1061.72 100.63,1024 C128.69,992.61 167.3057,974.5189 199.9357,963.1189" fill="none" id="doc-to-UC9" style="stroke:#181818;stroke-width:1;"/><polygon fill="#181818" points="205.6,961.14,195.7843,960.3322,200.8798,962.7891,198.4229,967.8846,205.6,961.14" style="stroke:#181818;stroke-width:1;"/></g><!--link doc to UC10--><g class="link" data-entity-1="doc" data-entity-2="UC10" data-source-line="72" data-uid="lnk51" id="link_doc_UC10"><path d="M40.17,1156.38 C47.79,1087.94 67.01,949.43 100.63,916 C122.69,894.06 150.0312,886.0007 179.3512,883.0007" fill="none" id="doc-to-UC10" style="stroke:#181818;stroke-width:1;"/><polygon fill="#181818" points="185.32,882.39,175.9596,879.3269,180.346,882.8989,176.7739,887.2853,185.32,882.39" style="stroke:#181818;stroke-width:1;"/></g><!--link doc to UC11--><g class="link" data-entity-1="doc" data-entity-2="UC11" data-source-line="73" data-uid="lnk52" id="link_doc_UC11"><path d="M38.28,1156.58 C43.19,1076.06 58.77,893.43 100.63,850 C121.41,828.45 147.0377,820.242 175.6077,817.022" fill="none" id="doc-to-UC11" style="stroke:#181818;stroke-width:1;"/><polygon fill="#181818" points="181.57,816.35,172.1786,813.3831,176.6015,816.91,173.0746,821.3328,181.57,816.35" style="stroke:#181818;stroke-width:1;"/></g><!--link doc to UC12--><g class="link" data-entity-1="doc" data-entity-2="UC12" data-source-line="74" data-uid="lnk53" id="link_doc_UC12"><path d="M37.05,1156.37 C39.59,1064.73 50.87,837.83 100.63,784 C119.59,763.49 142.2685,754.8942 169.2285,750.7842" fill="none" id="doc-to-UC12" style="stroke:#181818;stroke-width:1;"/><polygon fill="#181818" points="175.16,749.88,165.66,747.282,170.2171,750.6335,166.8656,755.1907,175.16,749.88" style="stroke:#181818;stroke-width:1;"/></g><!--link doc to UC13--><g class="link" data-entity-1="doc" data-entity-2="UC13" data-source-line="75" data-uid="lnk54" id="link_doc_UC13"><path d="M64.81,1200.53 C90.71,1205.56 124.3298,1212.0873 159.9998,1219.0073" fill="none" id="doc-to-UC13" style="stroke:#181818;stroke-width:1;"/><polygon fill="#181818" points="165.89,1220.15,157.8165,1214.5092,160.9815,1219.1978,156.2929,1222.3627,165.89,1220.15" style="stroke:#181818;stroke-width:1;"/></g><!--link doc to UC15--><g class="link" data-entity-1="doc" data-entity-2="UC15" data-source-line="76" data-uid="lnk55" id="link_doc_UC15"><path d="M64.81,1189.34 C90.94,1184.14 125.0252,1177.3601 160.9352,1170.2201" fill="none" id="doc-to-UC15" style="stroke:#181818;stroke-width:1;"/><polygon fill="#181818" points="166.82,1169.05,157.2127,1166.8819,161.916,1170.0251,158.7728,1174.7283,166.82,1169.05" style="stroke:#181818;stroke-width:1;"/></g><!--link doc to UC17--><g class="link" data-entity-1="doc" data-entity-2="UC17" data-source-line="77" data-uid="lnk56" id="link_doc_UC17"><path d="M58.11,1156.69 C69.02,1140.54 83.55,1122.79 100.63,1111 C116.85,1099.81 130.2743,1093.2966 149.2643,1087.0066" fill="none" id="doc-to-UC17" style="stroke:#181818;stroke-width:1;"/><polygon fill="#181818" points="154.96,1085.12,145.1588,1084.1527,150.2136,1086.6921,147.6742,1091.747,154.96,1085.12" style="stroke:#181818;stroke-width:1;"/></g><!--link doc to UC19--><g class="link" data-entity-1="doc" data-entity-2="UC19" data-source-line="78" data-uid="lnk57" id="link_doc_UC19"><path d="M36.06,1156.36 C36.18,1053.92 42.09,778.77 100.63,714 C118.39,694.35 139.0967,685.7762 164.8167,681.3562" fill="none" id="doc-to-UC19" style="stroke:#181818;stroke-width:1;"/><polygon fill="#181818" points="170.73,680.34,161.1826,677.9221,165.8022,681.1868,162.5375,685.8065,170.73,680.34" style="stroke:#181818;stroke-width:1;"/></g><!--link doc to UC20--><g class="link" data-entity-1="doc" data-entity-2="UC20" data-source-line="79" data-uid="lnk58" id="link_doc_UC20"><path d="M38.36,1233.24 C44.94,1350.23 67.15,1697.66 100.63,1735 C120.04,1756.64 144.2877,1765.1551 172.2777,1768.7051" fill="none" id="doc-to-UC20" style="stroke:#181818;stroke-width:1;"/><polygon fill="#181818" points="178.23,1769.46,169.8048,1764.3594,173.2697,1768.8309,168.7982,1772.2958,178.23,1769.46" style="stroke:#181818;stroke-width:1;"/></g><!--link doc to UC21--><g class="link" data-entity-1="doc" data-entity-2="UC21" data-source-line="80" data-uid="lnk59" id="link_doc_UC21"><path d="M36.1,1233.49 C36.34,1334.84 42.52,1605.66 100.63,1669 C120.87,1691.06 146.4354,1699.3388 175.1054,1702.4688" fill="none" id="doc-to-UC21" style="stroke:#181818;stroke-width:1;"/><polygon fill="#181818" points="181.07,1703.12,172.5573,1698.1669,176.0995,1702.5774,171.689,1706.1196,181.07,1703.12" style="stroke:#181818;stroke-width:1;"/></g><!--link doc to UC22--><g class="link" data-entity-1="doc" data-entity-2="UC22" data-source-line="81" data-uid="lnk60" id="link_doc_UC22"><path d="M38.48,1233.62 C43.72,1313.13 59.83,1491.27 100.63,1534 C120.28,1554.58 143.7341,1563.125 171.0741,1567.155" fill="none" id="doc-to-UC22" style="stroke:#181818;stroke-width:1;"/><polygon fill="#181818" points="177.01,1568.03,168.6895,1562.7603,172.0634,1567.3009,167.5229,1570.6748,177.01,1568.03" style="stroke:#181818;stroke-width:1;"/></g><!--link doc to UC23--><g class="link" data-entity-1="doc" data-entity-2="UC23" data-source-line="82" data-uid="lnk61" id="link_doc_UC23"><path d="M40.64,1233.61 C48.83,1299.8 68.69,1430.91 100.63,1463 C119.25,1481.71 140.0002,1490.188 165.5002,1494.908" fill="none" id="doc-to-UC23" style="stroke:#181818;stroke-width:1;"/><polygon fill="#181818" points="171.4,1496,163.2783,1490.4288,166.4835,1495.09,161.8223,1498.2951,171.4,1496" style="stroke:#181818;stroke-width:1;"/></g><!--link doc to UC24--><g class="link" data-entity-1="doc" data-entity-2="UC24" data-source-line="83" data-uid="lnk62" id="link_doc_UC24"><path d="M38.31,1233.43 C42.71,1277.55 56.66,1349.08 100.63,1390 C119.12,1407.2 138.54,1415.4676 162.92,1420.6276" fill="none" id="doc-to-UC24" style="stroke:#181818;stroke-width:1;"/><polygon fill="#181818" points="168.79,1421.87,160.8133,1416.0931,163.8984,1420.8347,159.1568,1423.9198,168.79,1421.87" style="stroke:#181818;stroke-width:1;"/></g><!--link doc to UC25--><g class="link" data-entity-1="doc" data-entity-2="UC25" data-source-line="84" data-uid="lnk63" id="link_doc_UC25"><path d="M61.61,1233.3 C72.46,1247.85 86,1263.83 100.63,1276 C132.61,1302.6 169.6035,1321.5441 200.6735,1335.1441" fill="none" id="doc-to-UC25" style="stroke:#181818;stroke-width:1;"/><polygon fill="#181818" points="206.17,1337.55,199.5292,1330.2768,201.5896,1335.5451,196.3213,1337.6054,206.17,1337.55" style="stroke:#181818;stroke-width:1;"/></g><!--link doc to UC26--><g class="link" data-entity-1="doc" data-entity-2="UC26" data-source-line="85" data-uid="lnk64" id="link_doc_UC26"><path d="M37.19,1233.61 C40.78,1377.07 56.33,1873.98 100.63,1928 C112.68,1942.7 123.8243,1950.4812 141.7543,1957.0312" fill="none" id="doc-to-UC26" style="stroke:#181818;stroke-width:1;"/><polygon fill="#181818" points="147.39,1959.09,140.3089,1952.2447,142.6936,1957.3743,137.5639,1959.759,147.39,1959.09" style="stroke:#181818;stroke-width:1;"/></g><!--link doc to UC27--><g class="link" data-entity-1="doc" data-entity-2="UC27" data-source-line="86" data-uid="lnk65" id="link_doc_UC27"><path d="M35.93,1233.39 C35.42,1351.46 39.16,1706.89 100.63,1801 C119.83,1830.4 147.6403,1848.2286 177.6803,1861.4786" fill="none" id="doc-to-UC27" style="stroke:#181818;stroke-width:1;"/><polygon fill="#181818" points="183.17,1863.9,176.5497,1856.6081,178.5952,1861.8822,173.3212,1863.9277,183.17,1863.9" style="stroke:#181818;stroke-width:1;"/></g><!--link doc to UC28--><g class="link" data-entity-1="doc" data-entity-2="UC28" data-source-line="87" data-uid="lnk66" id="link_doc_UC28"><path d="M36.33,1233.39 C36.72,1400.15 42.01,2056.28 100.63,2125 C118.81,2146.32 141.5269,2154.926 168.7169,2158.696" fill="none" id="doc-to-UC28" style="stroke:#181818;stroke-width:1;"/><polygon fill="#181818" points="174.66,2159.52,166.2946,2154.3218,169.7074,2158.8333,165.1959,2162.246,174.66,2159.52" style="stroke:#181818;stroke-width:1;"/></g><!--link doc to UC29--><g class="link" data-entity-1="doc" data-entity-2="UC29" data-source-line="88" data-uid="lnk67" id="link_doc_UC29"><path d="M37.18,1233.48 C40.9,1386.46 57.38,1946.46 100.63,2012 C121.97,2044.33 155.7819,2061.972 188.4419,2073.312" fill="none" id="doc-to-UC29" style="stroke:#181818;stroke-width:1;"/><polygon fill="#181818" points="194.11,2075.28,186.9199,2068.5493,189.3866,2073.64,184.2959,2076.1067,194.11,2075.28" style="stroke:#181818;stroke-width:1;"/></g><!--link doc to UC30--><g class="link" data-entity-1="doc" data-entity-2="UC30" data-source-line="89" data-uid="lnk68" id="link_doc_UC30"><path d="M37.04,1233.39 C39.58,1324.46 50.85,1549.9 100.63,1603 C121.73,1625.51 148.6294,1633.6872 177.9394,1636.5972" fill="none" id="doc-to-UC30" style="stroke:#181818;stroke-width:1;"/><polygon fill="#181818" points="183.91,1637.19,175.3492,1632.3204,178.9345,1636.696,174.5588,1640.2813,183.91,1637.19" style="stroke:#181818;stroke-width:1;"/></g><!--link doc to UC31--><g class="link" data-entity-1="doc" data-entity-2="UC31" data-source-line="90" data-uid="lnk69" id="link_doc_UC31"><path d="M36.6,1233.43 C38.19,1406.71 47.86,2110.32 100.63,2192 C121.63,2224.51 155.2528,2242.3511 187.9128,2253.8911" fill="none" id="doc-to-UC31" style="stroke:#181818;stroke-width:1;"/><polygon fill="#181818" points="193.57,2255.89,186.4168,2249.1201,188.8556,2254.2242,183.7515,2256.6631,193.57,2255.89" style="stroke:#181818;stroke-width:1;"/></g><!--link doc to UC41--><g class="link" data-entity-1="doc" data-entity-2="UC41" data-source-line="91" data-uid="lnk70" id="link_doc_UC41"><path d="M37.05,1233.51 C41.08,1435.56 61.7,2365.91 100.63,2412 C120.96,2436.07 148.7305,2444.2942 178.7605,2446.7842" fill="none" id="doc-to-UC41" style="stroke:#181818;stroke-width:1;"/><polygon fill="#181818" points="184.74,2447.28,176.1013,2442.55,179.7571,2446.8668,175.4402,2450.5226,184.74,2447.28" style="stroke:#181818;stroke-width:1;"/></g><!--link doc to UC42--><g class="link" data-entity-1="doc" data-entity-2="UC42" data-source-line="92" data-uid="lnk71" id="link_doc_UC42"><path d="M36.29,1233.4 C36.48,1418.55 40.76,2213.84 100.63,2305 C123.05,2339.14 160.5361,2356.4956 194.3161,2366.6956" fill="none" id="doc-to-UC42" style="stroke:#181818;stroke-width:1;"/><polygon fill="#181818" points="200.06,2368.43,192.6005,2361.9992,195.2735,2366.9847,190.288,2369.6577,200.06,2368.43" style="stroke:#181818;stroke-width:1;"/></g><!--SRC=[XLHBYjmm4Dtx5ABt0osvlvl0q1cQMGG28TahSeqZufOQIOOX8OV96UO8VR7OwhPTagidkpBlrQjN7wk1by22PKxNFmAhj0CLj3L58LMmZYq-MWKcm899poghYk8irKzP0rjykhnLRMFPqSdABjZlWh7MWvA-mmuEf6Fr5UaolnuuXh_13VGtL63qgT8XoouJlD4dRJB6glX3U7lqkZOoj4wI1YM2eyewTpan1giRmkfCPqlwdT5sjEccFHbwel86nUpzp6n41wDyIJd50fpJDXDElvg9z7mwMpS9ZRNsxunVTVS4FkldKOLMDlhNACKgI0-cl4EFf9wT-bp_LtqsVhubNH_11trvCttEPmTrQuBqv3hEDtIuucM-aVEKVcNmUupXqAcbvMK4kRQSbSnltDlCqIeHUxr7MvEZEbZpekjkeYeEx0W6d6ooMOsYAcNNZVtUawy5DgJTTrFezJszoXCOSbyG8HYRsYKt4yzZJkf-ipkzk-wnZBxoOZrIwrxgyXThbPnK-WAUK7asMkdEZn_GwpkNND01d9jJH5-bUwpPmyE7-FHEiK1nYU8LYjSetg1uY-8TYlUurX9_uCeSb-QuDiS5EQx2iRJ0qY9f2aiBB2rmNmBN4RWpWOiAt9l03ahieCGELic7-0S0]--></g></svg>