<svg xmlns="http://www.w3.org/2000/svg" xmlns:xlink="http://www.w3.org/1999/xlink" contentStyleType="text/css" data-diagram-type="DESCRIPTION" height="2873px" preserveAspectRatio="none" style="width:548px;height:2873px;background:#FFFFFF;" version="1.1" viewBox="0 0 548 2873" width="548px" zoomAndPan="magnify"><defs/><g><!--cluster M?dulo Grado--><g class="cluster" data-entity="M.dulo Grado" data-source-line="7" data-uid="ent0005" id="cluster_M.dulo Grado"><path d="M307.5,1357 L418.8115,1357 A3.75,3.75 0 0 1 421.3115,1359.5 L428.3115,1379.2969 L471.5,1379.2969 A2.5,2.5 0 0 1 474,1381.7969 L474,1631.5 A2.5,2.5 0 0 1 471.5,1634 L307.5,1634 A2.5,2.5 0 0 1 305,1631.5 L305,1359.5 A2.5,2.5 0 0 1 307.5,1357" fill="none" style="stroke:#000000;stroke-width:1.5;"/><line style="stroke:#000000;stroke-width:1.5;" x1="305" x2="428.3115" y1="1379.2969" y2="1379.2969"/><text fill="#000000" font-family="sans-serif" font-size="14" font-weight="bold" lengthAdjust="spacing" textLength="110.3115" x="309" y="1371.9951">M&#243;dulo Grado</text></g><!--cluster M?dulo Asignatura--><g class="cluster" data-entity="M.dulo Asignatura" data-source-line="14" data-uid="ent0010" id="cluster_M.dulo Asignatura"><path d="M293.5,1658 L443.7422,1658 A3.75,3.75 0 0 1 446.2422,1660.5 L453.2422,1680.2969 L485.5,1680.2969 A2.5,2.5 0 0 1 488,1682.7969 L488,1954.5 A2.5,2.5 0 0 1 485.5,1957 L293.5,1957 A2.5,2.5 0 0 1 291,1954.5 L291,1660.5 A2.5,2.5 0 0 1 293.5,1658" fill="none" style="stroke:#000000;stroke-width:1.5;"/><line style="stroke:#000000;stroke-width:1.5;" x1="291" x2="453.2422" y1="1680.2969" y2="1680.2969"/><text fill="#000000" font-family="sans-serif" font-size="14" font-weight="bold" lengthAdjust="spacing" textLength="149.2422" x="295" y="1672.9951">M&#243;dulo Asignatura</text></g><!--cluster M?dulo Alumno--><g class="cluster" data-entity="M.dulo Alumno" data-source-line="21" data-uid="ent0015" id="cluster_M.dulo Alumno"><path d="M298.5,6 L422.1025,6 A3.75,3.75 0 0 1 424.6025,8.5 L431.6025,28.2969 L480.5,28.2969 A2.5,2.5 0 0 1 483,30.7969 L483,358.5 A2.5,2.5 0 0 1 480.5,361 L298.5,361 A2.5,2.5 0 0 1 296,358.5 L296,8.5 A2.5,2.5 0 0 1 298.5,6" fill="none" style="stroke:#000000;stroke-width:1.5;"/><line style="stroke:#000000;stroke-width:1.5;" x1="296" x2="431.6025" y1="28.2969" y2="28.2969"/><text fill="#000000" font-family="sans-serif" font-size="14" font-weight="bold" lengthAdjust="spacing" textLength="122.6025" x="300" y="20.9951">M&#243;dulo Alumno</text></g><!--cluster M?dulo Gesti?n de Preguntas--><g class="cluster" data-entity="M.dulo Gesti.n de Preguntas" data-source-line="31" data-uid="ent0021" id="cluster_M.dulo Gesti.n de Preguntas"><path d="M267.5,385 L502.0771,385 A3.75,3.75 0 0 1 504.5771,387.5 L511.5771,407.2969 L511.5,407.2969 A2.5,2.5 0 0 1 514,409.7969 L514,820.5 A2.5,2.5 0 0 1 511.5,823 L267.5,823 A2.5,2.5 0 0 1 265,820.5 L265,387.5 A2.5,2.5 0 0 1 267.5,385" fill="none" style="stroke:#000000;stroke-width:1.5;"/><line style="stroke:#000000;stroke-width:1.5;" x1="265" x2="511.5771" y1="407.2969" y2="407.2969"/><text fill="#000000" font-family="sans-serif" font-size="14" font-weight="bold" lengthAdjust="spacing" textLength="233.5771" x="269" y="399.9951">M&#243;dulo Gesti&#243;n de Preguntas</text></g><!--cluster M?dulo Configuraci?n General--><g class="cluster" data-entity="M.dulo Configuraci.n General" data-source-line="40" data-uid="ent0028" id="cluster_M.dulo Configuraci.n General"><path d="M261.5,847 L501.5732,847 A3.75,3.75 0 0 1 504.0732,849.5 L511.0732,869.2969 L517.5,869.2969 A2.5,2.5 0 0 1 520,871.7969 L520,1032.5 A2.5,2.5 0 0 1 517.5,1035 L261.5,1035 A2.5,2.5 0 0 1 259,1032.5 L259,849.5 A2.5,2.5 0 0 1 261.5,847" fill="none" style="stroke:#000000;stroke-width:1.5;"/><line style="stroke:#000000;stroke-width:1.5;" x1="259" x2="511.0732" y1="869.2969" y2="869.2969"/><text fill="#000000" font-family="sans-serif" font-size="14" font-weight="bold" lengthAdjust="spacing" textLength="239.0732" x="263" y="861.9951">M&#243;dulo Configuraci&#243;n General</text></g><!--cluster M?dulo Examen--><g class="cluster" data-entity="M.dulo Examen" data-source-line="45" data-uid="ent0031" id="cluster_M.dulo Examen"><path d="M294.5,1059 L420.4199,1059 A3.75,3.75 0 0 1 422.9199,1061.5 L429.9199,1081.2969 L484.5,1081.2969 A2.5,2.5 0 0 1 487,1083.7969 L487,1217.5 A2.5,2.5 0 0 1 484.5,1220 L294.5,1220 A2.5,2.5 0 0 1 292,1217.5 L292,1061.5 A2.5,2.5 0 0 1 294.5,1059" fill="none" style="stroke:#000000;stroke-width:1.5;"/><line style="stroke:#000000;stroke-width:1.5;" x1="292" x2="429.9199" y1="1081.2969" y2="1081.2969"/><text fill="#000000" font-family="sans-serif" font-size="14" font-weight="bold" lengthAdjust="spacing" textLength="124.9199" x="296" y="1073.9951">M&#243;dulo Examen</text></g><!--cluster M?dulo Correcci?n--><g class="cluster" data-entity="M.dulo Correcci.n" data-source-line="50" data-uid="ent0034" id="cluster_M.dulo Correcci.n"><path d="M294.5,1244 L442.5068,1244 A3.75,3.75 0 0 1 445.0068,1246.5 L452.0068,1266.2969 L484.5,1266.2969 A2.5,2.5 0 0 1 487,1268.7969 L487,1330.5 A2.5,2.5 0 0 1 484.5,1333 L294.5,1333 A2.5,2.5 0 0 1 292,1330.5 L292,1246.5 A2.5,2.5 0 0 1 294.5,1244" fill="none" style="stroke:#000000;stroke-width:1.5;"/><line style="stroke:#000000;stroke-width:1.5;" x1="292" x2="452.0068" y1="1266.2969" y2="1266.2969"/><text fill="#000000" font-family="sans-serif" font-size="14" font-weight="bold" lengthAdjust="spacing" textLength="147.0068" x="296" y="1258.9951">M&#243;dulo Correcci&#243;n</text></g><!--cluster M?dulo Docentes--><g class="cluster" data-entity="M.dulo Docentes" data-source-line="54" data-uid="ent0036" id="cluster_M.dulo Docentes"><path d="M300.5,2577 L437.8496,2577 A3.75,3.75 0 0 1 440.3496,2579.5 L447.3496,2599.2969 L478.5,2599.2969 A2.5,2.5 0 0 1 481,2601.7969 L481,2863.5 A2.5,2.5 0 0 1 478.5,2866 L300.5,2866 A2.5,2.5 0 0 1 298,2863.5 L298,2579.5 A2.5,2.5 0 0 1 300.5,2577" fill="none" style="stroke:#000000;stroke-width:1.5;"/><line style="stroke:#000000;stroke-width:1.5;" x1="298" x2="447.3496" y1="2599.2969" y2="2599.2969"/><text fill="#000000" font-family="sans-serif" font-size="14" font-weight="bold" lengthAdjust="spacing" textLength="136.3496" x="302" y="2591.9951">M&#243;dulo Docentes</text></g><!--cluster M?dulo Gesti?n Licencias(intencion)--><g class="cluster" data-entity="M.dulo Gesti.n Licencias.intencion." data-source-line="61" data-uid="ent0041" id="cluster_M.dulo Gesti.n Licencias.intencion."><path d="M241.5,2267 L529.3564,2267 A3.75,3.75 0 0 1 531.8564,2269.5 L538.8564,2289.2969 L538.5,2289.2969 A2.5,2.5 0 0 1 541,2291.7969 L541,2550.5 A2.5,2.5 0 0 1 538.5,2553 L241.5,2553 A2.5,2.5 0 0 1 239,2550.5 L239,2269.5 A2.5,2.5 0 0 1 241.5,2267" fill="none" style="stroke:#000000;stroke-width:1.5;"/><line style="stroke:#000000;stroke-width:1.5;" x1="239" x2="538.8564" y1="2289.2969" y2="2289.2969"/><text fill="#000000" font-family="sans-serif" font-size="14" font-weight="bold" lengthAdjust="spacing" textLength="286.8564" x="243" y="2281.9951">M&#243;dulo Gesti&#243;n Licencias(intencion)</text></g><!--cluster M?dulo Sesi?n--><g class="cluster" data-entity="M.dulo Sesi.n" data-source-line="68" data-uid="ent0046" id="cluster_M.dulo Sesi.n"><path d="M311,2094 L427.124,2094 A3.75,3.75 0 0 1 429.624,2096.5 L436.624,2116.2969 L468,2116.2969 A2.5,2.5 0 0 1 470.5,2118.7969 L470.5,2240.5 A2.5,2.5 0 0 1 468,2243 L311,2243 A2.5,2.5 0 0 1 308.5,2240.5 L308.5,2096.5 A2.5,2.5 0 0 1 311,2094" fill="none" style="stroke:#000000;stroke-width:1.5;"/><line style="stroke:#000000;stroke-width:1.5;" x1="308.5" x2="436.624" y1="2116.2969" y2="2116.2969"/><text fill="#000000" font-family="sans-serif" font-size="14" font-weight="bold" lengthAdjust="spacing" textLength="115.124" x="312.5" y="2108.9951">M&#243;dulo Sesi&#243;n</text></g><!--cluster M?dulo Gesti?n--><g class="cluster" data-entity="M.dulo Gesti.n" data-source-line="73" data-uid="ent0049" id="cluster_M.dulo Gesti.n"><path d="M296,1981 L420.2246,1981 A3.75,3.75 0 0 1 422.7246,1983.5 L429.7246,2003.2969 L483,2003.2969 A2.5,2.5 0 0 1 485.5,2005.7969 L485.5,2067.5 A2.5,2.5 0 0 1 483,2070 L296,2070 A2.5,2.5 0 0 1 293.5,2067.5 L293.5,1983.5 A2.5,2.5 0 0 1 296,1981" fill="none" style="stroke:#000000;stroke-width:1.5;"/><line style="stroke:#000000;stroke-width:1.5;" x1="293.5" x2="429.7246" y1="2003.2969" y2="2003.2969"/><text fill="#000000" font-family="sans-serif" font-size="14" font-weight="bold" lengthAdjust="spacing" textLength="123.2246" x="297.5" y="1995.9951">M&#243;dulo Gesti&#243;n</text></g><!--entity UC1--><g class="entity" data-entity="UC1" data-source-line="8" data-uid="ent0006" id="entity_UC1"><ellipse cx="389.3722" cy="1539.1744" fill="#F1F1F1" rx="61.3722" ry="14.6744" style="stroke:#181818;stroke-width:0.5;"/><text fill="#000000" font-family="sans-serif" font-size="14" lengthAdjust="spacing" textLength="83.6035" x="347.5704" y="1543.8229">Crear grado</text></g><!--entity UC2--><g class="entity" data-entity="UC2" data-source-line="9" data-uid="ent0007" id="entity_UC2"><ellipse cx="389.4977" cy="1603.0236" fill="#F1F1F1" rx="56.9977" ry="14.5236" style="stroke:#181818;stroke-width:0.5;"/><text fill="#000000" font-family="sans-serif" font-size="14" lengthAdjust="spacing" textLength="76.3643" x="351.3156" y="1607.6721">Ver grados</text></g><!--entity UC3--><g class="entity" data-entity="UC3" data-source-line="10" data-uid="ent0008" id="entity_UC3"><ellipse cx="389.4435" cy="1406.8887" fill="#F1F1F1" rx="62.4435" ry="14.8887" style="stroke:#181818;stroke-width:0.5;"/><text fill="#000000" font-family="sans-serif" font-size="14" lengthAdjust="spacing" textLength="86.5703" x="346.1584" y="1411.5371">Editar grado</text></g><!--entity UC4--><g class="entity" data-entity="UC4" data-source-line="11" data-uid="ent0009" id="entity_UC4"><ellipse cx="389.4652" cy="1473.093" fill="#F1F1F1" rx="68.4652" ry="16.093" style="stroke:#181818;stroke-width:0.5;"/><text fill="#000000" font-family="sans-serif" font-size="14" lengthAdjust="spacing" textLength="102.4844" x="338.223" y="1477.7415">Eliminar grado</text></g><!--entity UC5--><g class="entity" data-entity="UC5" data-source-line="15" data-uid="ent0011" id="entity_UC5"><ellipse cx="389.5886" cy="1854.8177" fill="#F1F1F1" rx="74.5886" ry="17.3177" style="stroke:#181818;stroke-width:0.5;"/><text fill="#000000" font-family="sans-serif" font-size="14" lengthAdjust="spacing" textLength="117.7285" x="330.7243" y="1859.4662">Crear asignatura</text></g><!--entity UC6--><g class="entity" data-entity="UC6" data-source-line="16" data-uid="ent0012" id="entity_UC6"><ellipse cx="389.6432" cy="1924.2286" fill="#F1F1F1" rx="71.6432" ry="16.7286" style="stroke:#181818;stroke-width:0.5;"/><text fill="#000000" font-family="sans-serif" font-size="14" lengthAdjust="spacing" textLength="110.4893" x="334.3986" y="1928.8771">Ver asignaturas</text></g><!--entity UC7--><g class="entity" data-entity="UC7" data-source-line="17" data-uid="ent0013" id="entity_UC7"><ellipse cx="389.3132" cy="1711.0626" fill="#F1F1F1" rx="75.8132" ry="17.5626" style="stroke:#181818;stroke-width:0.5;"/><text fill="#000000" font-family="sans-serif" font-size="14" lengthAdjust="spacing" textLength="120.6953" x="328.9656" y="1715.7111">Editar asignatura</text></g><!--entity UC8--><g class="entity" data-entity="UC8" data-source-line="18" data-uid="ent0014" id="entity_UC8"><ellipse cx="389.5327" cy="1782.9065" fill="#F1F1F1" rx="82.5327" ry="18.9065" style="stroke:#181818;stroke-width:0.5;"/><text fill="#000000" font-family="sans-serif" font-size="14" lengthAdjust="spacing" textLength="136.6094" x="321.228" y="1787.555">Eliminar asignatura</text></g><!--entity UC9--><g class="entity" data-entity="UC9" data-source-line="22" data-uid="ent0016" id="entity_UC9"><ellipse cx="389.7114" cy="57.0423" fill="#F1F1F1" rx="65.7114" ry="15.5423" style="stroke:#181818;stroke-width:0.5;"/><text fill="#000000" font-family="sans-serif" font-size="14" lengthAdjust="spacing" textLength="95.3477" x="342.0376" y="61.6907">Crear alumno</text></g><!--entity UC10--><g class="entity" data-entity="UC10" data-source-line="23" data-uid="ent0017" id="entity_UC10"><ellipse cx="389.5058" cy="123.0012" fill="#F1F1F1" rx="63.0058" ry="15.0012" style="stroke:#181818;stroke-width:0.5;"/><text fill="#000000" font-family="sans-serif" font-size="14" lengthAdjust="spacing" textLength="88.1084" x="345.4516" y="127.6496">Ver alumnos</text></g><!--entity UC11--><g class="entity" data-entity="UC11" data-source-line="24" data-uid="ent0018" id="entity_UC11"><ellipse cx="389.3464" cy="188.7693" fill="#F1F1F1" rx="66.8464" ry="15.7693" style="stroke:#181818;stroke-width:0.5;"/><text fill="#000000" font-family="sans-serif" font-size="14" lengthAdjust="spacing" textLength="98.3145" x="340.1891" y="193.4177">Editar alumno</text></g><!--entity UC12--><g class="entity" data-entity="UC12" data-source-line="25" data-uid="ent0019" id="entity_UC12"><ellipse cx="389.6567" cy="257.0313" fill="#F1F1F1" rx="73.1567" ry="17.0313" style="stroke:#181818;stroke-width:0.5;"/><text fill="#000000" font-family="sans-serif" font-size="14" lengthAdjust="spacing" textLength="114.2285" x="332.5425" y="261.6798">Eliminar alumno</text></g><!--entity UC19--><g class="entity" data-entity="UC19" data-source-line="26" data-uid="ent0020" id="entity_UC19"><ellipse cx="389.5904" cy="326.9181" fill="#F1F1F1" rx="77.5904" ry="17.9181" style="stroke:#181818;stroke-width:0.5;"/><text fill="#000000" font-family="sans-serif" font-size="14" lengthAdjust="spacing" textLength="124.9609" x="327.11" y="331.5665">Importar alumnos</text></g><!--entity UC20--><g class="entity" data-entity="UC20" data-source-line="32" data-uid="ent0022" id="entity_UC20"><ellipse cx="389.7021" cy="722.9404" fill="#F1F1F1" rx="70.2021" ry="16.4404" style="stroke:#181818;stroke-width:0.5;"/><text fill="#000000" font-family="sans-serif" font-size="14" lengthAdjust="spacing" textLength="106.8867" x="336.2587" y="727.5889">Crear pregunta</text></g><!--entity UC21--><g class="entity" data-entity="UC21" data-source-line="33" data-uid="ent0023" id="entity_UC21"><ellipse cx="389.3609" cy="790.8722" fill="#F1F1F1" rx="67.3609" ry="15.8722" style="stroke:#181818;stroke-width:0.5;"/><text fill="#000000" font-family="sans-serif" font-size="14" lengthAdjust="spacing" textLength="99.6475" x="339.5372" y="795.5206">Ver preguntas</text></g><!--entity UC22--><g class="entity" data-entity="UC22" data-source-line="34" data-uid="ent0024" id="entity_UC22"><ellipse cx="389.3877" cy="437.1775" fill="#F1F1F1" rx="71.3877" ry="16.6775" style="stroke:#181818;stroke-width:0.5;"/><text fill="#000000" font-family="sans-serif" font-size="14" lengthAdjust="spacing" textLength="109.8535" x="334.4609" y="441.826">Editar pregunta</text></g><!--entity UC23--><g class="entity" data-entity="UC23" data-source-line="35" data-uid="ent0025" id="entity_UC23"><ellipse cx="389.4286" cy="506.9857" fill="#F1F1F1" rx="77.9286" ry="17.9857" style="stroke:#181818;stroke-width:0.5;"/><text fill="#000000" font-family="sans-serif" font-size="14" lengthAdjust="spacing" textLength="125.7676" x="326.5448" y="511.6342">Eliminar pregunta</text></g><!--entity UC24--><g class="entity" data-entity="UC24" data-source-line="36" data-uid="ent0026" id="entity_UC24"><ellipse cx="389.4858" cy="578.8972" fill="#F1F1F1" rx="82.4858" ry="18.8972" style="stroke:#181818;stroke-width:0.5;"/><text fill="#000000" font-family="sans-serif" font-size="14" lengthAdjust="spacing" textLength="136.5" x="321.2358" y="583.5456">Importar preguntas</text></g><!--entity UC25--><g class="entity" data-entity="UC25" data-source-line="37" data-uid="ent0027" id="entity_UC25"><ellipse cx="389.713" cy="651.8426" fill="#F1F1F1" rx="82.213" ry="18.8426" style="stroke:#181818;stroke-width:0.5;"/><text fill="#000000" font-family="sans-serif" font-size="14" lengthAdjust="spacing" textLength="135.8643" x="321.7809" y="656.491">Exportar preguntas</text></g><!--entity UC26--><g class="entity" data-entity="UC26" data-source-line="41" data-uid="ent0029" id="entity_UC26"><ellipse cx="389.6535" cy="907.2307" fill="#F1F1F1" rx="114.1535" ry="25.2307" style="stroke:#181818;stroke-width:0.5;"/><text fill="#000000" font-family="sans-serif" font-size="14" lengthAdjust="spacing" textLength="206.835" x="286.236" y="911.8791">Exportar configuraci&#243;n global</text></g><!--entity UC27--><g class="entity" data-entity="UC27" data-source-line="42" data-uid="ent0030" id="entity_UC27"><ellipse cx="389.4493" cy="992.7899" fill="#F1F1F1" rx="114.4493" ry="25.2899" style="stroke:#181818;stroke-width:0.5;"/><text fill="#000000" font-family="sans-serif" font-size="14" lengthAdjust="spacing" textLength="207.4707" x="285.714" y="997.4383">Importar configuraci&#243;n global</text></g><!--entity UC28--><g class="entity" data-entity="UC28" data-source-line="46" data-uid="ent0032" id="entity_UC28"><ellipse cx="389.4143" cy="1113.1829" fill="#F1F1F1" rx="81.4143" ry="18.6829" style="stroke:#181818;stroke-width:0.5;"/><text fill="#000000" font-family="sans-serif" font-size="14" lengthAdjust="spacing" textLength="133.998" x="322.4152" y="1117.8313">Generar examenes</text></g><!--entity UC29--><g class="entity" data-entity="UC29" data-source-line="47" data-uid="ent0033" id="entity_UC29"><ellipse cx="389.6347" cy="1184.8269" fill="#F1F1F1" rx="79.6347" ry="18.3269" style="stroke:#181818;stroke-width:0.5;"/><text fill="#000000" font-family="sans-serif" font-size="14" lengthAdjust="spacing" textLength="129.8145" x="324.7275" y="1189.4754">Asignar examenes</text></g><!--entity UC31--><g class="entity" data-entity="UC31" data-source-line="51" data-uid="ent0035" id="entity_UC31"><ellipse cx="389.3967" cy="1298.1793" fill="#F1F1F1" rx="81.3967" ry="18.6793" style="stroke:#181818;stroke-width:0.5;"/><text fill="#000000" font-family="sans-serif" font-size="14" lengthAdjust="spacing" textLength="133.957" x="322.4182" y="1302.8278">Corregir ex&#225;menes</text></g><!--entity UC32--><g class="entity" data-entity="UC32" data-source-line="55" data-uid="ent0037" id="entity_UC32"><ellipse cx="389.6046" cy="2767.0209" fill="#F1F1F1" rx="68.1046" ry="16.0209" style="stroke:#181818;stroke-width:0.5;"/><text fill="#000000" font-family="sans-serif" font-size="14" lengthAdjust="spacing" textLength="101.5615" x="338.8239" y="2771.6694">Crear Docente</text></g><!--entity UC33--><g class="entity" data-entity="UC33" data-source-line="56" data-uid="ent0038" id="entity_UC33"><ellipse cx="389.3225" cy="2833.9645" fill="#F1F1F1" rx="65.3225" ry="15.4645" style="stroke:#181818;stroke-width:0.5;"/><text fill="#000000" font-family="sans-serif" font-size="14" lengthAdjust="spacing" textLength="94.3223" x="342.1614" y="2838.6129">Ver Docentes</text></g><!--entity UC34--><g class="entity" data-entity="UC34" data-source-line="57" data-uid="ent0039" id="entity_UC34"><ellipse cx="389.2682" cy="2628.7536" fill="#F1F1F1" rx="69.2682" ry="16.2536" style="stroke:#181818;stroke-width:0.5;"/><text fill="#000000" font-family="sans-serif" font-size="14" lengthAdjust="spacing" textLength="104.5283" x="337.004" y="2633.4021">Editar Docente</text></g><!--entity UC35--><g class="entity" data-entity="UC35" data-source-line="58" data-uid="ent0040" id="entity_UC35"><ellipse cx="389.7084" cy="2698.0417" fill="#F1F1F1" rx="75.7084" ry="17.5417" style="stroke:#181818;stroke-width:0.5;"/><text fill="#000000" font-family="sans-serif" font-size="14" lengthAdjust="spacing" textLength="120.4424" x="329.4873" y="2702.6901">Eliminar Docente</text></g><!--entity UC36--><g class="entity" data-entity="UC36" data-source-line="62" data-uid="ent0042" id="entity_UC36"><ellipse cx="389.6956" cy="2454.9391" fill="#F1F1F1" rx="72.6956" ry="16.9391" style="stroke:#181818;stroke-width:0.5;"/><text fill="#000000" font-family="sans-serif" font-size="14" lengthAdjust="spacing" textLength="113.0938" x="333.1487" y="2459.5876">Adquirir licencia</text></g><!--entity UC37--><g class="entity" data-entity="UC37" data-source-line="63" data-uid="ent0043" id="entity_UC37"><ellipse cx="389.2673" cy="2522.0535" fill="#F1F1F1" rx="63.2673" ry="15.0535" style="stroke:#181818;stroke-width:0.5;"/><text fill="#000000" font-family="sans-serif" font-size="14" lengthAdjust="spacing" textLength="88.8193" x="344.8576" y="2526.7019">Ver licencias</text></g><!--entity UC38--><g class="entity" data-entity="UC38" data-source-line="64" data-uid="ent0044" id="entity_UC38"><ellipse cx="389.6205" cy="2317.8241" fill="#F1F1F1" rx="67.1205" ry="15.8241" style="stroke:#181818;stroke-width:0.5;"/><text fill="#000000" font-family="sans-serif" font-size="14" lengthAdjust="spacing" textLength="99.0254" x="340.1078" y="2322.4725">Editar licencia</text></g><!--entity UC39--><g class="entity" data-entity="UC39" data-source-line="65" data-uid="ent0045" id="entity_UC39"><ellipse cx="389.4464" cy="2386.0893" fill="#F1F1F1" rx="73.4464" ry="17.0893" style="stroke:#181818;stroke-width:0.5;"/><text fill="#000000" font-family="sans-serif" font-size="14" lengthAdjust="spacing" textLength="114.9395" x="331.9767" y="2390.7377">Eliminar licencia</text></g><!--entity UC41--><g class="entity" data-entity="UC41" data-source-line="69" data-uid="ent0047" id="entity_UC41"><ellipse cx="389.3711" cy="2144.7742" fill="#F1F1F1" rx="64.3711" ry="15.2742" style="stroke:#181818;stroke-width:0.5;"/><text fill="#000000" font-family="sans-serif" font-size="14" lengthAdjust="spacing" textLength="91.793" x="343.4746" y="2149.4227">Iniciar sesi&#243;n</text></g><!--entity UC42--><g class="entity" data-entity="UC42" data-source-line="70" data-uid="ent0048" id="entity_UC42"><ellipse cx="389.4046" cy="2210.8809" fill="#F1F1F1" rx="64.9046" ry="15.3809" style="stroke:#181818;stroke-width:0.5;"/><text fill="#000000" font-family="sans-serif" font-size="14" lengthAdjust="spacing" textLength="93.2148" x="342.7972" y="2215.5294">Cerrar sesi&#243;n</text></g><!--entity UC13--><g class="entity" data-entity="UC13" data-source-line="74" data-uid="ent0050" id="entity_UC13"><ellipse cx="389.729" cy="2034.9458" fill="#F1F1F1" rx="80.229" ry="18.4458" style="stroke:#181818;stroke-width:0.5;"/><text fill="#000000" font-family="sans-serif" font-size="14" lengthAdjust="spacing" textLength="131.2158" x="324.1211" y="2039.5942">Completar Gesti&#243;n</text></g><!--entity doc--><g class="entity" data-entity="doc" data-source-line="3" data-uid="ent0002" id="entity_doc"><ellipse cx="100.3159" cy="1083.5" fill="#F1F1F1" rx="8" ry="8" style="stroke:#181818;stroke-width:0.5;"/><path d="M100.3159,1091.5 L100.3159,1118.5 M87.3159,1099.5 L113.3159,1099.5 M100.3159,1118.5 L87.3159,1133.5 M100.3159,1118.5 L113.3159,1133.5" fill="none" style="stroke:#181818;stroke-width:0.5;"/><text fill="#000000" font-family="sans-serif" font-size="14" lengthAdjust="spacing" textLength="58.6318" x="71" y="1147.9951">Docente</text></g><!--entity admin--><g class="entity" data-entity="admin" data-source-line="4" data-uid="ent0003" id="entity_admin"><ellipse cx="100.5308" cy="2425.5" fill="#F1F1F1" rx="8" ry="8" style="stroke:#181818;stroke-width:0.5;"/><path d="M100.5308,2433.5 L100.5308,2460.5 M87.5308,2441.5 L113.5308,2441.5 M100.5308,2460.5 L87.5308,2475.5 M100.5308,2460.5 L113.5308,2475.5" fill="none" style="stroke:#181818;stroke-width:0.5;"/><text fill="#000000" font-family="sans-serif" font-size="14" lengthAdjust="spacing" textLength="189.0615" x="6" y="2489.9951">Administrador Institucional</text></g><!--entity tiempo--><g class="entity" data-entity="tiempo" data-source-line="5" data-uid="ent0004" id="entity_tiempo"><ellipse cx="100.5723" cy="2181.5" fill="#F1F1F1" rx="8" ry="8" style="stroke:#181818;stroke-width:0.5;"/><path d="M100.5723,2189.5 L100.5723,2216.5 M87.5723,2197.5 L113.5723,2197.5 M100.5723,2216.5 L87.5723,2231.5 M100.5723,2216.5 L113.5723,2231.5" fill="none" style="stroke:#181818;stroke-width:0.5;"/><text fill="#000000" font-family="sans-serif" font-size="14" lengthAdjust="spacing" textLength="52.1445" x="74.5" y="2245.9951">Tiempo</text></g><!--link doc to UC1--><g class="link" data-entity-1="doc" data-entity-2="UC1" data-source-line="77" data-uid="lnk51" id="link_doc_UC1"><path d="M102.17,1151.27 C105.73,1230.26 125.63,1411.8 231,1506 C257.24,1529.46 289.8269,1537.3694 322.2269,1539.8094" fill="none" id="doc-to-UC1" style="stroke:#181818;stroke-width:1;"/><polygon fill="#181818" points="328.21,1540.26,319.5358,1535.5954,323.2241,1539.8845,318.935,1543.5728,328.21,1540.26" style="stroke:#181818;stroke-width:1;"/></g><!--link doc to UC2--><g class="link" data-entity-1="doc" data-entity-2="UC2" data-source-line="78" data-uid="lnk52" id="link_doc_UC2"><path d="M107.14,1151.24 C122.55,1250.56 168.45,1512.98 231,1571 C258.21,1596.24 293.6662,1603.6166 327.2062,1605.1466" fill="none" id="doc-to-UC2" style="stroke:#181818;stroke-width:1;"/><polygon fill="#181818" points="333.2,1605.42,324.3916,1601.014,328.2052,1605.1922,324.0271,1609.0057,333.2,1605.42" style="stroke:#181818;stroke-width:1;"/></g><!--link doc to UC3--><g class="link" data-entity-1="doc" data-entity-2="UC3" data-source-line="79" data-uid="lnk53" id="link_doc_UC3"><path d="M115.64,1151.1 C135.11,1199.04 174.33,1281.36 231,1333 C264.94,1363.93 308.4046,1382.3326 342.7446,1393.7126" fill="none" id="doc-to-UC3" style="stroke:#181818;stroke-width:1;"/><polygon fill="#181818" points="348.44,1395.6,341.1552,1388.9719,343.6938,1394.0272,338.6386,1396.5658,348.44,1395.6" style="stroke:#181818;stroke-width:1;"/></g><!--link doc to UC4--><g class="link" data-entity-1="doc" data-entity-2="UC4" data-source-line="80" data-uid="lnk54" id="link_doc_UC4"><path d="M105.17,1151.11 C113.91,1219.74 142.35,1363.93 231,1439 C255.76,1459.97 284.4593,1468.2343 314.9693,1471.7443" fill="none" id="doc-to-UC4" style="stroke:#181818;stroke-width:1;"/><polygon fill="#181818" points="320.93,1472.43,312.4461,1467.4276,315.9628,1471.8585,311.5318,1475.3752,320.93,1472.43" style="stroke:#181818;stroke-width:1;"/></g><!--link doc to UC5--><g class="link" data-entity-1="doc" data-entity-2="UC5" data-source-line="81" data-uid="lnk55" id="link_doc_UC5"><path d="M103.13,1151.28 C109.59,1283.99 137.7,1721.57 231,1819 C252.53,1841.49 279.0489,1850.4752 308.9289,1854.3152" fill="none" id="doc-to-UC5" style="stroke:#181818;stroke-width:1;"/><polygon fill="#181818" points="314.88,1855.08,306.4633,1849.9654,309.9208,1854.4427,305.4436,1857.9002,314.88,1855.08" style="stroke:#181818;stroke-width:1;"/></g><!--link doc to UC6--><g class="link" data-entity-1="doc" data-entity-2="UC6" data-source-line="82" data-uid="lnk56" id="link_doc_UC6"><path d="M102.38,1151.17 C106.45,1292.29 127.89,1781.88 231,1890 C253.2,1913.28 281.2702,1921.9084 312.0302,1925.0084" fill="none" id="doc-to-UC6" style="stroke:#181818;stroke-width:1;"/><polygon fill="#181818" points="318,1925.61,309.4464,1920.7277,313.0252,1925.1086,308.6443,1928.6874,318,1925.61" style="stroke:#181818;stroke-width:1;"/></g><!--link doc to UC7--><g class="link" data-entity-1="doc" data-entity-2="UC7" data-source-line="83" data-uid="lnk57" id="link_doc_UC7"><path d="M100.56,1151.14 C100.26,1244.28 111.76,1486.5 231,1634 C257.69,1667.02 296.3509,1685.0743 331.2109,1696.3443" fill="none" id="doc-to-UC7" style="stroke:#181818;stroke-width:1;"/><polygon fill="#181818" points="336.92,1698.19,329.5869,1691.6154,332.1624,1696.6519,327.1259,1699.2275,336.92,1698.19" style="stroke:#181818;stroke-width:1;"/></g><!--link doc to UC8--><g class="link" data-entity-1="doc" data-entity-2="UC8" data-source-line="84" data-uid="lnk58" id="link_doc_UC8"><path d="M104.03,1151.14 C112.98,1274.52 147.27,1659.81 231,1746 C250.87,1766.45 273.8244,1775.4973 301.4344,1780.1773" fill="none" id="doc-to-UC8" style="stroke:#181818;stroke-width:1;"/><polygon fill="#181818" points="307.35,1781.18,299.1451,1775.7322,302.4203,1780.3444,297.8081,1783.6197,307.35,1781.18" style="stroke:#181818;stroke-width:1;"/></g><!--link doc to UC9--><g class="link" data-entity-1="doc" data-entity-2="UC9" data-source-line="85" data-uid="lnk59" id="link_doc_UC9"><path d="M103.73,1074.89 C114.43,898.17 162.72,164.02 231,90 C254.58,64.43 286.4911,56.2944 319.2011,54.3044" fill="none" id="doc-to-UC9" style="stroke:#181818;stroke-width:1;"/><polygon fill="#181818" points="325.19,53.94,315.9637,50.4939,320.1992,54.2436,316.4495,58.4791,325.19,53.94" style="stroke:#181818;stroke-width:1;"/></g><!--link doc to UC10--><g class="link" data-entity-1="doc" data-entity-2="UC10" data-source-line="86" data-uid="lnk60" id="link_doc_UC10"><path d="M101.02,1074.81 C99.79,913.65 103.48,291.24 231,155 C255.41,128.93 288.786,121.1984 322.056,119.7084" fill="none" id="doc-to-UC10" style="stroke:#181818;stroke-width:1;"/><polygon fill="#181818" points="328.05,119.44,318.8801,115.8467,323.055,119.6637,319.238,123.8387,328.05,119.44" style="stroke:#181818;stroke-width:1;"/></g><!--link doc to UC11--><g class="link" data-entity-1="doc" data-entity-2="UC11" data-source-line="87" data-uid="lnk61" id="link_doc_UC11"><path d="M101.47,1074.91 C102.14,921.09 112.65,347.95 231,222 C254.34,197.16 285.2147,188.9201 317.4147,186.6601" fill="none" id="doc-to-UC11" style="stroke:#181818;stroke-width:1;"/><polygon fill="#181818" points="323.4,186.24,314.142,182.8799,318.4123,186.5901,314.7021,190.8603,323.4,186.24" style="stroke:#181818;stroke-width:1;"/></g><!--link doc to UC12--><g class="link" data-entity-1="doc" data-entity-2="UC12" data-source-line="88" data-uid="lnk62" id="link_doc_UC12"><path d="M102,1074.66 C104.74,928.17 122.09,406.23 231,291 C252.81,267.93 280.2728,259.2569 310.7328,256.0569" fill="none" id="doc-to-UC12" style="stroke:#181818;stroke-width:1;"/><polygon fill="#181818" points="316.7,255.43,307.3313,252.3922,311.7274,255.9524,308.1672,260.3484,316.7,255.43" style="stroke:#181818;stroke-width:1;"/></g><!--link doc to UC13--><g class="link" data-entity-1="doc" data-entity-2="UC13" data-source-line="89" data-uid="lnk63" id="link_doc_UC13"><path d="M102.77,1151.07 C108.34,1297.87 134.83,1825.54 231,1957 C255.5,1990.49 292.7135,2008.5564 327.5635,2019.8764" fill="none" id="doc-to-UC13" style="stroke:#181818;stroke-width:1;"/><polygon fill="#181818" points="333.27,2021.73,325.946,2015.1453,328.5146,2020.1853,323.4745,2022.754,333.27,2021.73" style="stroke:#181818;stroke-width:1;"/></g><!--link doc to UC19--><g class="link" data-entity-1="doc" data-entity-2="UC19" data-source-line="90" data-uid="lnk64" id="link_doc_UC19"><path d="M103.99,1074.83 C113.22,943.4 149.3,511.84 231,404 C256.27,370.64 294.1129,352.7206 329.0329,341.6006" fill="none" id="doc-to-UC19" style="stroke:#181818;stroke-width:1;"/><polygon fill="#181818" points="334.75,339.78,324.9606,338.6994,329.9857,341.2971,327.388,346.3223,334.75,339.78" style="stroke:#181818;stroke-width:1;"/></g><!--link doc to UC20--><g class="link" data-entity-1="doc" data-entity-2="UC20" data-source-line="91" data-uid="lnk65" id="link_doc_UC20"><path d="M103.71,1074.95 C110.12,1001.65 134.97,840.76 231,757 C255.14,735.95 283.2306,727.6169 313.5006,724.0769" fill="none" id="doc-to-UC20" style="stroke:#181818;stroke-width:1;"/><polygon fill="#181818" points="319.46,723.38,310.0563,720.4525,314.4938,723.9608,310.9855,728.3983,319.46,723.38" style="stroke:#181818;stroke-width:1;"/></g><!--link doc to UC21--><g class="link" data-entity-1="doc" data-entity-2="UC21" data-source-line="92" data-uid="lnk66" id="link_doc_UC21"><path d="M112.94,1074.83 C130.55,1021.83 168.9,925.76 231,866 C263.3,834.92 305.2004,816.6148 339.6104,805.0948" fill="none" id="doc-to-UC21" style="stroke:#181818;stroke-width:1;"/><polygon fill="#181818" points="345.3,803.19,335.4957,802.2541,340.5587,804.7773,338.0354,809.8403,345.3,803.19" style="stroke:#181818;stroke-width:1;"/></g><!--link doc to UC22--><g class="link" data-entity-1="doc" data-entity-2="UC22" data-source-line="93" data-uid="lnk67" id="link_doc_UC22"><path d="M103.85,1074.7 C112.32,949.87 145.36,557.81 231,471 C253.49,448.2 281.4028,439.6164 311.9828,436.4064" fill="none" id="doc-to-UC22" style="stroke:#181818;stroke-width:1;"/><polygon fill="#181818" points="317.95,435.78,308.5816,432.7414,312.9773,436.302,309.4168,440.6977,317.95,435.78" style="stroke:#181818;stroke-width:1;"/></g><!--link doc to UC23--><g class="link" data-entity-1="doc" data-entity-2="UC23" data-source-line="94" data-uid="lnk68" id="link_doc_UC23"><path d="M104.89,1074.93 C115.94,959.72 154.64,618.02 231,542 C252.04,521.05 276.7193,512.2916 305.3793,508.2316" fill="none" id="doc-to-UC23" style="stroke:#181818;stroke-width:1;"/><polygon fill="#181818" points="311.32,507.39,301.8479,504.6919,306.3694,508.0913,302.97,512.6128,311.32,507.39" style="stroke:#181818;stroke-width:1;"/></g><!--link doc to UC24--><g class="link" data-entity-1="doc" data-entity-2="UC24" data-source-line="95" data-uid="lnk69" id="link_doc_UC24"><path d="M106.32,1074.63 C120.3,969.41 164.18,679.87 231,615 C251.23,595.37 273.9341,586.6011 301.2341,581.9811" fill="none" id="doc-to-UC24" style="stroke:#181818;stroke-width:1;"/><polygon fill="#181818" points="307.15,580.98,297.6087,578.5378,302.2201,581.8143,298.9436,586.4256,307.15,580.98" style="stroke:#181818;stroke-width:1;"/></g><!--link doc to UC25--><g class="link" data-entity-1="doc" data-entity-2="UC25" data-source-line="96" data-uid="lnk70" id="link_doc_UC25"><path d="M101.27,1074.87 C102.96,991.83 119.2,793.69 231,689 C251.81,669.51 274.969,660.6896 302.469,655.8996" fill="none" id="doc-to-UC25" style="stroke:#181818;stroke-width:1;"/><polygon fill="#181818" points="308.38,654.87,298.8271,652.4737,303.4542,655.728,300.1999,660.3551,308.38,654.87" style="stroke:#181818;stroke-width:1;"/></g><!--link doc to UC26--><g class="link" data-entity-1="doc" data-entity-2="UC26" data-source-line="97" data-uid="lnk71" id="link_doc_UC26"><path d="M122.11,1074.86 C144.21,1037.55 182.72,981.83 231,950 C250.64,937.05 268.3211,929.5937 291.0611,923.2437" fill="none" id="doc-to-UC26" style="stroke:#181818;stroke-width:1;"/><polygon fill="#181818" points="296.84,921.63,287.0958,920.198,292.0242,922.9748,289.2474,927.9032,296.84,921.63" style="stroke:#181818;stroke-width:1;"/></g><!--link doc to UC27--><g class="link" data-entity-1="doc" data-entity-2="UC27" data-source-line="98" data-uid="lnk72" id="link_doc_UC27"><path d="M130.07,1101.06 C177.71,1081.14 268.5844,1043.1446 329.2344,1017.7846" fill="none" id="doc-to-UC27" style="stroke:#181818;stroke-width:1;"/><polygon fill="#181818" points="334.77,1015.47,324.9236,1015.2516,330.157,1017.3989,328.0097,1022.6323,334.77,1015.47" style="stroke:#181818;stroke-width:1;"/></g><!--link doc to UC28--><g class="link" data-entity-1="doc" data-entity-2="UC28" data-source-line="99" data-uid="lnk73" id="link_doc_UC28"><path d="M130.07,1113 C171.11,1113 242.37,1113 301.76,1113" fill="none" id="doc-to-UC28" style="stroke:#181818;stroke-width:1;"/><polygon fill="#181818" points="307.76,1113,298.76,1109,302.76,1113,298.76,1117,307.76,1113" style="stroke:#181818;stroke-width:1;"/></g><!--link doc to UC29--><g class="link" data-entity-1="doc" data-entity-2="UC29" data-source-line="100" data-uid="lnk74" id="link_doc_UC29"><path d="M130.2,1121.39 C156.38,1128.95 196.16,1140.18 231,1149 C263.9,1157.33 295.0331,1164.5276 324.8931,1171.1676" fill="none" id="doc-to-UC29" style="stroke:#181818;stroke-width:1;"/><polygon fill="#181818" points="330.75,1172.47,322.8329,1166.6118,325.8692,1171.3847,321.0963,1174.421,330.75,1172.47" style="stroke:#181818;stroke-width:1;"/></g><!--link doc to UC31--><g class="link" data-entity-1="doc" data-entity-2="UC31" data-source-line="101" data-uid="lnk75" id="link_doc_UC31"><path d="M130.09,1139.92 C155.38,1162.9 193.93,1195.96 231,1220 C269.41,1244.9 311.3856,1264.9894 344.1156,1279.3494" fill="none" id="doc-to-UC31" style="stroke:#181818;stroke-width:1;"/><polygon fill="#181818" points="349.61,1281.76,342.9754,1274.4811,345.0313,1279.7511,339.7613,1281.807,349.61,1281.76" style="stroke:#181818;stroke-width:1;"/></g><!--link doc to UC41--><g class="link" data-entity-1="doc" data-entity-2="UC41" data-source-line="102" data-uid="lnk76" id="link_doc_UC41"><path d="M101.94,1151.2 C104.47,1310.39 121.29,1919.67 231,2070 C256.89,2105.47 298.2038,2123.1965 334.1738,2133.3065" fill="none" id="doc-to-UC41" style="stroke:#181818;stroke-width:1;"/><polygon fill="#181818" points="339.95,2134.93,332.3681,2128.644,335.1365,2133.5771,330.2034,2136.3455,339.95,2134.93" style="stroke:#181818;stroke-width:1;"/></g><!--link doc to UC42--><g class="link" data-entity-1="doc" data-entity-2="UC42" data-source-line="103" data-uid="lnk77" id="link_doc_UC42"><path d="M103.54,1151.15 C113.55,1332.37 159.95,2100.6 231,2178 C254.62,2203.73 286.7304,2211.8477 319.5404,2213.7777" fill="none" id="doc-to-UC42" style="stroke:#181818;stroke-width:1;"/><polygon fill="#181818" points="325.53,2214.13,316.7804,2209.6084,320.5386,2213.8364,316.3106,2217.5946,325.53,2214.13" style="stroke:#181818;stroke-width:1;"/></g><!--link admin to UC13--><g class="link" data-entity-1="admin" data-entity-2="UC13" data-source-line="105" data-uid="lnk78" id="link_admin_UC13"><path d="M123.71,2416.69 C144.59,2379.29 175.49,2320.26 195,2266 C218.64,2200.27 187.56,2167.71 231,2113 C256.99,2080.26 294.5784,2062.1188 329.1984,2050.5688" fill="none" id="admin-to-UC13" style="stroke:#181818;stroke-width:1;"/><polygon fill="#181818" points="334.89,2048.67,325.0867,2047.7239,330.147,2050.2524,327.6185,2055.3127,334.89,2048.67" style="stroke:#181818;stroke-width:1;"/></g><!--link admin to UC32--><g class="link" data-entity-1="admin" data-entity-2="UC32" data-source-line="106" data-uid="lnk79" id="link_admin_UC32"><path d="M108.09,2493.11 C120.67,2553.73 154.02,2671.54 231,2733 C256.36,2753.25 285.113,2761.4026 315.503,2765.0626" fill="none" id="admin-to-UC32" style="stroke:#181818;stroke-width:1;"/><polygon fill="#181818" points="321.46,2765.78,313.0028,2760.7326,316.4959,2765.1821,312.0463,2768.6752,321.46,2765.78" style="stroke:#181818;stroke-width:1;"/></g><!--link admin to UC33--><g class="link" data-entity-1="admin" data-entity-2="UC33" data-source-line="107" data-uid="lnk80" id="link_admin_UC33"><path d="M104.13,2493.18 C111.24,2565.05 137.21,2720.45 231,2801 C256.43,2822.84 286.6572,2830.8891 317.9372,2833.8791" fill="none" id="admin-to-UC33" style="stroke:#181818;stroke-width:1;"/><polygon fill="#181818" points="323.91,2834.45,315.3315,2829.6118,318.9327,2833.9742,314.5702,2837.5755,323.91,2834.45" style="stroke:#181818;stroke-width:1;"/></g><!--link admin to UC34--><g class="link" data-entity-1="admin" data-entity-2="UC34" data-source-line="108" data-uid="lnk81" id="link_admin_UC34"><path d="M147.27,2493.17 C171.37,2512.34 201.89,2535.21 231,2553 C271.54,2577.78 315.8588,2598.2979 348.4788,2612.3379" fill="none" id="admin-to-UC34" style="stroke:#181818;stroke-width:1;"/><polygon fill="#181818" points="353.99,2614.71,347.3046,2607.4778,349.3973,2612.7333,344.1418,2614.826,353.99,2614.71" style="stroke:#181818;stroke-width:1;"/></g><!--link admin to UC35--><g class="link" data-entity-1="admin" data-entity-2="UC35" data-source-line="109" data-uid="lnk82" id="link_admin_UC35"><path d="M114.57,2493 C132.92,2540.43 170.95,2620.46 231,2663 C255.57,2680.41 281.3546,2688.4168 309.8746,2692.9568" fill="none" id="admin-to-UC35" style="stroke:#181818;stroke-width:1;"/><polygon fill="#181818" points="315.8,2693.9,307.5407,2688.5349,310.8622,2693.114,306.2831,2696.4354,315.8,2693.9" style="stroke:#181818;stroke-width:1;"/></g><!--link admin to UC36--><g class="link" data-entity-1="admin" data-entity-2="UC36" data-source-line="110" data-uid="lnk83" id="link_admin_UC36"><path d="M195.08,2455 C234.66,2455 274.04,2455 310.89,2455" fill="none" id="admin-to-UC36" style="stroke:#181818;stroke-width:1;"/><polygon fill="#181818" points="316.89,2455,307.89,2451,311.89,2455,307.89,2459,316.89,2455" style="stroke:#181818;stroke-width:1;"/></g><!--link admin to UC37--><g class="link" data-entity-1="admin" data-entity-2="UC37" data-source-line="111" data-uid="lnk84" id="link_admin_UC37"><path d="M195.08,2480.16 C207.14,2483.23 219.35,2486.25 231,2489 C267.44,2497.59 302.9981,2505.0453 334.2281,2511.3353" fill="none" id="admin-to-UC37" style="stroke:#181818;stroke-width:1;"/><polygon fill="#181818" points="340.11,2512.52,332.0769,2506.8217,335.2084,2511.5328,330.4974,2514.6643,340.11,2512.52" style="stroke:#181818;stroke-width:1;"/></g><!--link admin to UC38--><g class="link" data-entity-1="admin" data-entity-2="UC38" data-source-line="112" data-uid="lnk85" id="link_admin_UC38"><path d="M139,2416.89 C163.23,2394.41 196.59,2367.27 231,2351 C261.06,2336.79 291.2698,2329.5728 321.3498,2324.9428" fill="none" id="admin-to-UC38" style="stroke:#181818;stroke-width:1;"/><polygon fill="#181818" points="327.28,2324.03,317.7762,2321.4457,322.3382,2324.7907,318.9933,2329.3526,327.28,2324.03" style="stroke:#181818;stroke-width:1;"/></g><!--link admin to UC39--><g class="link" data-entity-1="admin" data-entity-2="UC39" data-source-line="113" data-uid="lnk86" id="link_admin_UC39"><path d="M195.07,2429.1 C207.14,2425.94 219.34,2422.83 231,2420 C264.98,2411.75 297.4569,2404.6773 327.7969,2398.3373" fill="none" id="admin-to-UC39" style="stroke:#181818;stroke-width:1;"/><polygon fill="#181818" points="333.67,2397.11,324.0421,2395.0355,328.7757,2398.1327,325.6785,2402.8663,333.67,2397.11" style="stroke:#181818;stroke-width:1;"/></g><!--link admin to UC41--><g class="link" data-entity-1="admin" data-entity-2="UC41" data-source-line="114" data-uid="lnk87" id="link_admin_UC41"><path d="M121.47,2416.65 C140.98,2378.74 171.14,2318.89 195,2266 C212.38,2227.48 198.53,2205.04 231,2178 C256.97,2156.36 287.6074,2148.3827 318.9974,2145.3727" fill="none" id="admin-to-UC41" style="stroke:#181818;stroke-width:1;"/><polygon fill="#181818" points="324.97,2144.8,315.6293,2141.6773,319.9928,2145.2773,316.3929,2149.6408,324.97,2144.8" style="stroke:#181818;stroke-width:1;"/></g><!--link admin to UC42--><g class="link" data-entity-1="admin" data-entity-2="UC42" data-source-line="115" data-uid="lnk88" id="link_admin_UC42"><path d="M123.3,2416.88 C146.19,2379.58 185.18,2323.1 231,2286 C267.01,2256.84 310.5892,2237.785 344.3792,2225.535" fill="none" id="admin-to-UC42" style="stroke:#181818;stroke-width:1;"/><polygon fill="#181818" points="350.02,2223.49,340.1956,2222.7969,345.3194,2225.1941,342.9222,2230.3179,350.02,2223.49" style="stroke:#181818;stroke-width:1;"/></g><!--link tiempo to UC42--><g class="link" data-entity-1="tiempo" data-entity-2="UC42" data-source-line="117" data-uid="lnk89" id="link_tiempo_UC42"><path d="M126.72,2211 C170.56,2211 256.09,2211 318.43,2211" fill="none" id="tiempo-to-UC42" style="stroke:#181818;stroke-width:1;"/><polygon fill="#181818" points="324.43,2211,315.43,2207,319.43,2211,315.43,2215,324.43,2211" style="stroke:#181818;stroke-width:1;"/></g><!--SRC=[VLPBZjim3Dtx549MxMA0M7PYUrCWI0U302rGe9-zAcjSeOwSoZ8mmA27wHdc2BbOwLzCoPpPaURZuwD4oQhLesEkOLPNlnmhjLNIwSP4aP2kiMppiP7AEBLXecLb8-VFX_AiZMwT5IMu9zCwxJe9YQ8UeAAFp-1lMfqlpV3T3MOKNOJyBIh5Df-lBsLND-oXPzgmvuYnhbLIj10xMYKigyO897y_nZZyGqt1Tefo7BqljGko4ozUQv0O8DBeBw7jqEhA2DTPGGeKA3omx4AL2sAMkYUahdWoKkyAbjEYw-viw1KLKsZ8BbPYX-WiDDvIIZ517DCoFOotDISO0Rlmt4eLVIFKR2WOh-kBOQLYNwogEkFwXIGwkqpHUI2sONEN9Nr4n4Hx8Gid6mnH2TdYgc3gaJsz1jkHctfipAEkOElbi1uFoYZRdxXdabJwwAfkVax74mhiIRblfcIaflidSLOcq30giqmDGNLhAyUWyLojGSKhlLkud0PTuTxtaKhtHDT_c2c9IQRfJgD725zumC332LgIHq123530aPBp4u3e3R-D_YSDQAb5-qv3akclslU1_aFvfzCMbg6Ui3FrFknX1joQo8WcGfQSx294qNltLRN4lfsCXapBsZawti7UaJmgQzSG_kPYhSRZVAbLtz8262-S908U-AknkxiFmzzbiJco4sIdoDuXUu_i3DaviWjSQuiTN3d6fMDSEyO471DmJpecu9Y0O_KSo-TOFySDSDm1nmeIN3Jr70xlX_u5i7I1NJXKdXj4Kz_T-UxUTpFVpNsty5pGwBcWSdoFt3xy1m00]--></g></svg>