<svg xmlns="http://www.w3.org/2000/svg" xmlns:xlink="http://www.w3.org/1999/xlink" contentStyleType="text/css" data-diagram-type="DESCRIPTION" height="2487px" preserveAspectRatio="none" style="width:395px;height:2487px;background:#FFFFFF;" version="1.1" viewBox="0 0 395 2487" width="395px" zoomAndPan="magnify"><defs/><g><!--cluster M?dulo Grado--><g class="cluster" data-entity="M.dulo Grado" data-source-line="5" data-uid="ent0003" id="cluster_M.dulo Grado"><path d="M166.61,6 L277.9215,6 A3.75,3.75 0 0 1 280.4215,8.5 L287.4215,28.2969 L330.54,28.2969 A2.5,2.5 0 0 1 333.04,30.7969 L333.04,279.5 A2.5,2.5 0 0 1 330.54,282 L166.61,282 A2.5,2.5 0 0 1 164.11,279.5 L164.11,8.5 A2.5,2.5 0 0 1 166.61,6" fill="none" style="stroke:#000000;stroke-width:1.5;"/><line style="stroke:#000000;stroke-width:1.5;" x1="164.11" x2="287.4215" y1="28.2969" y2="28.2969"/><text fill="#000000" font-family="sans-serif" font-size="14" font-weight="bold" lengthAdjust="spacing" textLength="110.3115" x="168.11" y="20.9951">M&#243;dulo Grado</text></g><!--cluster M?dulo Asignatura--><g class="cluster" data-entity="M.dulo Asignatura" data-source-line="12" data-uid="ent0008" id="cluster_M.dulo Asignatura"><path d="M152.54,306 L302.7822,306 A3.75,3.75 0 0 1 305.2822,308.5 L312.2822,328.2969 L344.61,328.2969 A2.5,2.5 0 0 1 347.11,330.7969 L347.11,599.5 A2.5,2.5 0 0 1 344.61,602 L152.54,602 A2.5,2.5 0 0 1 150.04,599.5 L150.04,308.5 A2.5,2.5 0 0 1 152.54,306" fill="none" style="stroke:#000000;stroke-width:1.5;"/><line style="stroke:#000000;stroke-width:1.5;" x1="150.04" x2="312.2822" y1="328.2969" y2="328.2969"/><text fill="#000000" font-family="sans-serif" font-size="14" font-weight="bold" lengthAdjust="spacing" textLength="149.2422" x="154.04" y="320.9951">M&#243;dulo Asignatura</text></g><!--cluster M?dulo Alumno--><g class="cluster" data-entity="M.dulo Alumno" data-source-line="19" data-uid="ent0013" id="cluster_M.dulo Alumno"><path d="M157.48,626 L281.0825,626 A3.75,3.75 0 0 1 283.5825,628.5 L290.5825,648.2969 L339.66,648.2969 A2.5,2.5 0 0 1 342.16,650.7969 L342.16,978.5 A2.5,2.5 0 0 1 339.66,981 L157.48,981 A2.5,2.5 0 0 1 154.98,978.5 L154.98,628.5 A2.5,2.5 0 0 1 157.48,626" fill="none" style="stroke:#000000;stroke-width:1.5;"/><line style="stroke:#000000;stroke-width:1.5;" x1="154.98" x2="290.5825" y1="648.2969" y2="648.2969"/><text fill="#000000" font-family="sans-serif" font-size="14" font-weight="bold" lengthAdjust="spacing" textLength="122.6025" x="158.98" y="640.9951">M&#243;dulo Alumno</text></g><!--cluster M?dulo Asignaciones--><g class="cluster" data-entity="M.dulo Asignaciones" data-source-line="27" data-uid="ent0019" id="cluster_M.dulo Asignaciones"><path d="M111.13,1005 L278.8722,1005 A3.75,3.75 0 0 1 281.3722,1007.5 L288.3722,1027.2969 L386.02,1027.2969 A2.5,2.5 0 0 1 388.52,1029.7969 L388.52,1277.5 A2.5,2.5 0 0 1 386.02,1280 L111.13,1280 A2.5,2.5 0 0 1 108.63,1277.5 L108.63,1007.5 A2.5,2.5 0 0 1 111.13,1005" fill="none" style="stroke:#000000;stroke-width:1.5;"/><line style="stroke:#000000;stroke-width:1.5;" x1="108.63" x2="288.3722" y1="1027.2969" y2="1027.2969"/><text fill="#000000" font-family="sans-serif" font-size="14" font-weight="bold" lengthAdjust="spacing" textLength="166.7422" x="112.63" y="1019.9951">M&#243;dulo Asignaciones</text></g><!--cluster M?dulo Gesti?n de Preguntas--><g class="cluster" data-entity="M.dulo Gesti.n de Preguntas" data-source-line="33" data-uid="ent0023" id="cluster_M.dulo Gesti.n de Preguntas"><path d="M126.59,1304 L361.1671,1304 A3.75,3.75 0 0 1 363.6671,1306.5 L370.6671,1326.2969 L370.56,1326.2969 A2.5,2.5 0 0 1 373.06,1328.7969 L373.06,1802.5 A2.5,2.5 0 0 1 370.56,1805 L126.59,1805 A2.5,2.5 0 0 1 124.09,1802.5 L124.09,1306.5 A2.5,2.5 0 0 1 126.59,1304" fill="none" style="stroke:#000000;stroke-width:1.5;"/><line style="stroke:#000000;stroke-width:1.5;" x1="124.09" x2="370.6671" y1="1326.2969" y2="1326.2969"/><text fill="#000000" font-family="sans-serif" font-size="14" font-weight="bold" lengthAdjust="spacing" textLength="233.5771" x="128.09" y="1318.9951">M&#243;dulo Gesti&#243;n de Preguntas</text></g><!--cluster M?dulo Configuraci?n General--><g class="cluster" data-entity="M.dulo Configuraci.n General" data-source-line="43" data-uid="ent0031" id="cluster_M.dulo Configuraci.n General"><path d="M120.62,1829 L360.6932,1829 A3.75,3.75 0 0 1 363.1932,1831.5 L370.1932,1851.2969 L376.52,1851.2969 A2.5,2.5 0 0 1 379.02,1853.7969 L379.02,2013.5 A2.5,2.5 0 0 1 376.52,2016 L120.62,2016 A2.5,2.5 0 0 1 118.12,2013.5 L118.12,1831.5 A2.5,2.5 0 0 1 120.62,1829" fill="none" style="stroke:#000000;stroke-width:1.5;"/><line style="stroke:#000000;stroke-width:1.5;" x1="118.12" x2="370.1932" y1="1851.2969" y2="1851.2969"/><text fill="#000000" font-family="sans-serif" font-size="14" font-weight="bold" lengthAdjust="spacing" textLength="239.0732" x="122.12" y="1843.9951">M&#243;dulo Configuraci&#243;n General</text></g><!--cluster M?dulo Examen--><g class="cluster" data-entity="M.dulo Examen" data-source-line="48" data-uid="ent0034" id="cluster_M.dulo Examen"><path d="M155.44,2040 L281.3599,2040 A3.75,3.75 0 0 1 283.8599,2042.5 L290.8599,2062.2969 L341.71,2062.2969 A2.5,2.5 0 0 1 344.21,2064.7969 L344.21,2193.5 A2.5,2.5 0 0 1 341.71,2196 L155.44,2196 A2.5,2.5 0 0 1 152.94,2193.5 L152.94,2042.5 A2.5,2.5 0 0 1 155.44,2040" fill="none" style="stroke:#000000;stroke-width:1.5;"/><line style="stroke:#000000;stroke-width:1.5;" x1="152.94" x2="290.8599" y1="2062.2969" y2="2062.2969"/><text fill="#000000" font-family="sans-serif" font-size="14" font-weight="bold" lengthAdjust="spacing" textLength="124.9199" x="156.94" y="2054.9951">M&#243;dulo Examen</text></g><!--cluster M?dulo Correcci?n--><g class="cluster" data-entity="M.dulo Correcci.n" data-source-line="54" data-uid="ent0037" id="cluster_M.dulo Correcci.n"><path d="M153.68,2220 L301.6868,2220 A3.75,3.75 0 0 1 304.1868,2222.5 L311.1868,2242.2969 L343.47,2242.2969 A2.5,2.5 0 0 1 345.97,2244.7969 L345.97,2306.5 A2.5,2.5 0 0 1 343.47,2309 L153.68,2309 A2.5,2.5 0 0 1 151.18,2306.5 L151.18,2222.5 A2.5,2.5 0 0 1 153.68,2220" fill="none" style="stroke:#000000;stroke-width:1.5;"/><line style="stroke:#000000;stroke-width:1.5;" x1="151.18" x2="311.1868" y1="2242.2969" y2="2242.2969"/><text fill="#000000" font-family="sans-serif" font-size="14" font-weight="bold" lengthAdjust="spacing" textLength="147.0068" x="155.18" y="2234.9951">M&#243;dulo Correcci&#243;n</text></g><!--cluster M?dulo Sesi?n--><g class="cluster" data-entity="M.dulo Sesi.n" data-source-line="58" data-uid="ent0039" id="cluster_M.dulo Sesi.n"><path d="M170.17,2333 L286.294,2333 A3.75,3.75 0 0 1 288.794,2335.5 L295.794,2355.2969 L326.98,2355.2969 A2.5,2.5 0 0 1 329.48,2357.7969 L329.48,2477.5 A2.5,2.5 0 0 1 326.98,2480 L170.17,2480 A2.5,2.5 0 0 1 167.67,2477.5 L167.67,2335.5 A2.5,2.5 0 0 1 170.17,2333" fill="none" style="stroke:#000000;stroke-width:1.5;"/><line style="stroke:#000000;stroke-width:1.5;" x1="167.67" x2="295.794" y1="2355.2969" y2="2355.2969"/><text fill="#000000" font-family="sans-serif" font-size="14" font-weight="bold" lengthAdjust="spacing" textLength="115.124" x="171.67" y="2347.9951">M&#243;dulo Sesi&#243;n</text></g><!--entity UC1--><g class="entity" data-entity="UC1" data-source-line="6" data-uid="ent0004" id="entity_UC1"><ellipse cx="248.5722" cy="251.0044" fill="#F1F1F1" rx="61.3722" ry="14.6744" style="stroke:#181818;stroke-width:0.5;"/><text fill="#000000" font-family="sans-serif" font-size="14" lengthAdjust="spacing" textLength="83.6035" x="206.7704" y="255.6529">Crear grado</text></g><!--entity UC2--><g class="entity" data-entity="UC2" data-source-line="7" data-uid="ent0005" id="entity_UC2"><ellipse cx="248.5677" cy="187.0036" fill="#F1F1F1" rx="56.9977" ry="14.5236" style="stroke:#181818;stroke-width:0.5;"/><text fill="#000000" font-family="sans-serif" font-size="14" lengthAdjust="spacing" textLength="76.3643" x="210.3856" y="191.6521">Ver grados</text></g><!--entity UC3--><g class="entity" data-entity="UC3" data-source-line="8" data-uid="ent0006" id="entity_UC3"><ellipse cx="248.5735" cy="122.9987" fill="#F1F1F1" rx="62.4435" ry="14.8887" style="stroke:#181818;stroke-width:0.5;"/><text fill="#000000" font-family="sans-serif" font-size="14" lengthAdjust="spacing" textLength="86.5703" x="205.2884" y="127.6471">Editar grado</text></g><!--entity UC4--><g class="entity" data-entity="UC4" data-source-line="9" data-uid="ent0007" id="entity_UC4"><ellipse cx="248.5652" cy="57.003" fill="#F1F1F1" rx="68.4652" ry="16.093" style="stroke:#181818;stroke-width:0.5;"/><text fill="#000000" font-family="sans-serif" font-size="14" lengthAdjust="spacing" textLength="102.4844" x="197.323" y="61.6515">Eliminar grado</text></g><!--entity UC5--><g class="entity" data-entity="UC5" data-source-line="13" data-uid="ent0009" id="entity_UC5"><ellipse cx="248.5686" cy="568.9977" fill="#F1F1F1" rx="74.5886" ry="17.3177" style="stroke:#181818;stroke-width:0.5;"/><text fill="#000000" font-family="sans-serif" font-size="14" lengthAdjust="spacing" textLength="117.7285" x="189.7043" y="573.6462">Crear asignatura</text></g><!--entity UC6--><g class="entity" data-entity="UC6" data-source-line="14" data-uid="ent0010" id="entity_UC6"><ellipse cx="248.5732" cy="499.9986" fill="#F1F1F1" rx="71.6432" ry="16.7286" style="stroke:#181818;stroke-width:0.5;"/><text fill="#000000" font-family="sans-serif" font-size="14" lengthAdjust="spacing" textLength="110.4893" x="193.3286" y="504.6471">Ver asignaturas</text></g><!--entity UC7--><g class="entity" data-entity="UC7" data-source-line="15" data-uid="ent0011" id="entity_UC7"><ellipse cx="248.5732" cy="431.0026" fill="#F1F1F1" rx="75.8132" ry="17.5626" style="stroke:#181818;stroke-width:0.5;"/><text fill="#000000" font-family="sans-serif" font-size="14" lengthAdjust="spacing" textLength="120.6953" x="188.2256" y="435.6511">Editar asignatura</text></g><!--entity UC8--><g class="entity" data-entity="UC8" data-source-line="16" data-uid="ent0012" id="entity_UC8"><ellipse cx="248.5727" cy="359.9965" fill="#F1F1F1" rx="82.5327" ry="18.9065" style="stroke:#181818;stroke-width:0.5;"/><text fill="#000000" font-family="sans-serif" font-size="14" lengthAdjust="spacing" textLength="136.6094" x="180.268" y="364.645">Eliminar asignatura</text></g><!--entity UC9--><g class="entity" data-entity="UC9" data-source-line="20" data-uid="ent0014" id="entity_UC9"><ellipse cx="248.5714" cy="949.0023" fill="#F1F1F1" rx="65.7114" ry="15.5423" style="stroke:#181818;stroke-width:0.5;"/><text fill="#000000" font-family="sans-serif" font-size="14" lengthAdjust="spacing" textLength="95.3477" x="200.8976" y="953.6507">Crear alumno</text></g><!--entity UC10--><g class="entity" data-entity="UC10" data-source-line="21" data-uid="ent0015" id="entity_UC10"><ellipse cx="248.5658" cy="883.0012" fill="#F1F1F1" rx="63.0058" ry="15.0012" style="stroke:#181818;stroke-width:0.5;"/><text fill="#000000" font-family="sans-serif" font-size="14" lengthAdjust="spacing" textLength="88.1084" x="204.5116" y="887.6496">Ver alumnos</text></g><!--entity UC11--><g class="entity" data-entity="UC11" data-source-line="22" data-uid="ent0016" id="entity_UC11"><ellipse cx="248.5664" cy="816.9993" fill="#F1F1F1" rx="66.8464" ry="15.7693" style="stroke:#181818;stroke-width:0.5;"/><text fill="#000000" font-family="sans-serif" font-size="14" lengthAdjust="spacing" textLength="98.3145" x="199.4091" y="821.6477">Editar alumno</text></g><!--entity UC12--><g class="entity" data-entity="UC12" data-source-line="23" data-uid="ent0017" id="entity_UC12"><ellipse cx="248.5667" cy="749.0013" fill="#F1F1F1" rx="73.1567" ry="17.0313" style="stroke:#181818;stroke-width:0.5;"/><text fill="#000000" font-family="sans-serif" font-size="14" lengthAdjust="spacing" textLength="114.2285" x="191.4525" y="753.6498">Eliminar alumno</text></g><!--entity UC19--><g class="entity" data-entity="UC19" data-source-line="24" data-uid="ent0018" id="entity_UC19"><ellipse cx="248.5704" cy="678.9981" fill="#F1F1F1" rx="77.5904" ry="17.9181" style="stroke:#181818;stroke-width:0.5;"/><text fill="#000000" font-family="sans-serif" font-size="14" lengthAdjust="spacing" textLength="124.9609" x="186.09" y="683.6465">Importar alumnos</text></g><!--entity UC13--><g class="entity" data-entity="UC13" data-source-line="28" data-uid="ent0020" id="entity_UC13"><ellipse cx="248.5743" cy="1239.9969" fill="#F1F1F1" rx="108.0343" ry="24.0069" style="stroke:#181818;stroke-width:0.5;"/><text fill="#000000" font-family="sans-serif" font-size="14" lengthAdjust="spacing" textLength="193.6211" x="151.7638" y="1244.6453">Actualizar alumno de grado</text></g><!--entity UC15--><g class="entity" data-entity="UC15" data-source-line="29" data-uid="ent0021" id="entity_UC15"><ellipse cx="248.5702" cy="1154.996" fill="#F1F1F1" rx="118.4302" ry="26.086" style="stroke:#181818;stroke-width:0.5;"/><text fill="#000000" font-family="sans-serif" font-size="14" lengthAdjust="spacing" textLength="216.002" x="140.5692" y="1159.6445">Actualizar grado de asignatura</text></g><!--entity UC17--><g class="entity" data-entity="UC17" data-source-line="30" data-uid="ent0022" id="entity_UC17"><ellipse cx="248.5721" cy="1066.9984" fill="#F1F1F1" rx="123.9421" ry="27.1884" style="stroke:#181818;stroke-width:0.5;"/><text fill="#000000" font-family="sans-serif" font-size="14" lengthAdjust="spacing" textLength="227.7461" x="134.6991" y="1071.6469">Actualizar alumno de asignatura</text></g><!--entity UC20--><g class="entity" data-entity="UC20" data-source-line="34" data-uid="ent0024" id="entity_UC20"><ellipse cx="248.5721" cy="1773.0004" fill="#F1F1F1" rx="70.2021" ry="16.4404" style="stroke:#181818;stroke-width:0.5;"/><text fill="#000000" font-family="sans-serif" font-size="14" lengthAdjust="spacing" textLength="106.8867" x="195.1287" y="1777.6489">Crear pregunta</text></g><!--entity UC21--><g class="entity" data-entity="UC21" data-source-line="35" data-uid="ent0025" id="entity_UC21"><ellipse cx="248.5709" cy="1706.0022" fill="#F1F1F1" rx="67.3609" ry="15.8722" style="stroke:#181818;stroke-width:0.5;"/><text fill="#000000" font-family="sans-serif" font-size="14" lengthAdjust="spacing" textLength="99.6475" x="198.7472" y="1710.6506">Ver preguntas</text></g><!--entity UC30--><g class="entity" data-entity="UC30" data-source-line="36" data-uid="ent0026" id="entity_UC30"><ellipse cx="248.571" cy="1639.9962" fill="#F1F1F1" rx="64.581" ry="15.3162" style="stroke:#181818;stroke-width:0.5;"/><text fill="#000000" font-family="sans-serif" font-size="14" lengthAdjust="spacing" textLength="92.3535" x="202.3942" y="1644.6446">Ver pregunta</text></g><!--entity UC22--><g class="entity" data-entity="UC22" data-source-line="37" data-uid="ent0027" id="entity_UC22"><ellipse cx="248.5677" cy="1572.9975" fill="#F1F1F1" rx="71.3877" ry="16.6775" style="stroke:#181818;stroke-width:0.5;"/><text fill="#000000" font-family="sans-serif" font-size="14" lengthAdjust="spacing" textLength="109.8535" x="193.6409" y="1577.646">Editar pregunta</text></g><!--entity UC23--><g class="entity" data-entity="UC23" data-source-line="38" data-uid="ent0028" id="entity_UC23"><ellipse cx="248.5686" cy="1502.9957" fill="#F1F1F1" rx="77.9286" ry="17.9857" style="stroke:#181818;stroke-width:0.5;"/><text fill="#000000" font-family="sans-serif" font-size="14" lengthAdjust="spacing" textLength="125.7676" x="185.6848" y="1507.6442">Eliminar pregunta</text></g><!--entity UC24--><g class="entity" data-entity="UC24" data-source-line="39" data-uid="ent0029" id="entity_UC24"><ellipse cx="248.5658" cy="1430.9972" fill="#F1F1F1" rx="82.4858" ry="18.8972" style="stroke:#181818;stroke-width:0.5;"/><text fill="#000000" font-family="sans-serif" font-size="14" lengthAdjust="spacing" textLength="136.5" x="180.3158" y="1435.6456">Importar preguntas</text></g><!--entity UC25--><g class="entity" data-entity="UC25" data-source-line="40" data-uid="ent0030" id="entity_UC25"><ellipse cx="248.573" cy="1358.0026" fill="#F1F1F1" rx="82.213" ry="18.8426" style="stroke:#181818;stroke-width:0.5;"/><text fill="#000000" font-family="sans-serif" font-size="14" lengthAdjust="spacing" textLength="135.8643" x="180.6409" y="1362.651">Exportar preguntas</text></g><!--entity UC26--><g class="entity" data-entity="UC26" data-source-line="44" data-uid="ent0032" id="entity_UC26"><ellipse cx="248.5735" cy="1975.0007" fill="#F1F1F1" rx="114.1535" ry="25.2307" style="stroke:#181818;stroke-width:0.5;"/><text fill="#000000" font-family="sans-serif" font-size="14" lengthAdjust="spacing" textLength="206.835" x="145.156" y="1979.6491">Exportar configuraci&#243;n global</text></g><!--entity UC27--><g class="entity" data-entity="UC27" data-source-line="45" data-uid="ent0033" id="entity_UC27"><ellipse cx="248.5693" cy="1888.9999" fill="#F1F1F1" rx="114.4493" ry="25.2899" style="stroke:#181818;stroke-width:0.5;"/><text fill="#000000" font-family="sans-serif" font-size="14" lengthAdjust="spacing" textLength="207.4707" x="144.834" y="1893.6483">Importar configuraci&#243;n global</text></g><!--entity UC28--><g class="entity" data-entity="UC28" data-source-line="49" data-uid="ent0035" id="entity_UC28"><ellipse cx="248.5701" cy="2163" fill="#F1F1F1" rx="73.6501" ry="17.13" style="stroke:#181818;stroke-width:0.5;"/><text fill="#000000" font-family="sans-serif" font-size="14" lengthAdjust="spacing" textLength="115.4385" x="190.8509" y="2167.6485">Crear examenes</text></g><!--entity UC29--><g class="entity" data-entity="UC29" data-source-line="50" data-uid="ent0036" id="entity_UC29"><ellipse cx="248.5747" cy="2092.9969" fill="#F1F1F1" rx="79.6347" ry="18.3269" style="stroke:#181818;stroke-width:0.5;"/><text fill="#000000" font-family="sans-serif" font-size="14" lengthAdjust="spacing" textLength="129.8145" x="183.6675" y="2097.6454">Asignar examenes</text></g><!--entity UC31--><g class="entity" data-entity="UC31" data-source-line="55" data-uid="ent0038" id="entity_UC31"><ellipse cx="248.5667" cy="2273.9993" fill="#F1F1F1" rx="81.3967" ry="18.6793" style="stroke:#181818;stroke-width:0.5;"/><text fill="#000000" font-family="sans-serif" font-size="14" lengthAdjust="spacing" textLength="133.957" x="181.5882" y="2278.6478">Corregir ex&#225;menes</text></g><!--entity UC41--><g class="entity" data-entity="UC41" data-source-line="59" data-uid="ent0040" id="entity_UC41"><ellipse cx="248.5711" cy="2449.0042" fill="#F1F1F1" rx="64.3711" ry="15.2742" style="stroke:#181818;stroke-width:0.5;"/><text fill="#000000" font-family="sans-serif" font-size="14" lengthAdjust="spacing" textLength="91.793" x="202.6746" y="2453.6527">Iniciar sesi&#243;n</text></g><!--entity UC42--><g class="entity" data-entity="UC42" data-source-line="60" data-uid="ent0041" id="entity_UC42"><ellipse cx="248.5746" cy="2383.0009" fill="#F1F1F1" rx="64.9046" ry="15.3809" style="stroke:#181818;stroke-width:0.5;"/><text fill="#000000" font-family="sans-serif" font-size="14" lengthAdjust="spacing" textLength="93.2148" x="201.9672" y="2387.6494">Cerrar sesi&#243;n</text></g><!--entity doc--><g class="entity" data-entity="doc" data-source-line="3" data-uid="ent0002" id="entity_doc"><ellipse cx="35.3159" cy="1168.35" fill="#F1F1F1" rx="8" ry="8" style="stroke:#181818;stroke-width:0.5;"/><path d="M35.3159,1176.35 L35.3159,1203.35 M22.3159,1184.35 L48.3159,1184.35 M35.3159,1203.35 L22.3159,1218.35 M35.3159,1203.35 L48.3159,1218.35" fill="none" style="stroke:#181818;stroke-width:0.5;"/><text fill="#000000" font-family="sans-serif" font-size="14" lengthAdjust="spacing" textLength="58.6318" x="6" y="1232.8451">Docente</text></g><!--link doc to UC1--><g class="link" data-entity-1="doc" data-entity-2="UC1" data-source-line="63" data-uid="lnk42" id="link_doc_UC1"><path d="M36.94,1159.6 C39.82,1000.14 53.78,395.14 100.63,325 C123.8,290.32 162.5779,272.837 196.5779,262.747" fill="none" id="doc-to-UC1" style="stroke:#181818;stroke-width:1;"/><polygon fill="#181818" points="202.33,261.04,192.5639,259.7658,197.5366,262.4625,194.8399,267.4352,202.33,261.04" style="stroke:#181818;stroke-width:1;"/></g><!--link doc to UC2--><g class="link" data-entity-1="doc" data-entity-2="UC2" data-source-line="64" data-uid="lnk43" id="link_doc_UC2"><path d="M36.16,1159.61 C35.83,987.39 38.35,291.32 100.63,219 C122.95,193.08 154.9159,185.5763 186.6559,184.1663" fill="none" id="doc-to-UC2" style="stroke:#181818;stroke-width:1;"/><polygon fill="#181818" points="192.65,183.9,183.4813,180.3034,187.6549,184.1219,183.8364,188.2955,192.65,183.9" style="stroke:#181818;stroke-width:1;"/></g><!--link doc to UC3--><g class="link" data-entity-1="doc" data-entity-2="UC3" data-source-line="65" data-uid="lnk44" id="link_doc_UC3"><path d="M36,1159.53 C34.86,980.28 34.16,232.5 100.63,155 C121.54,130.62 150.2941,122.7009 180.7441,120.6109" fill="none" id="doc-to-UC3" style="stroke:#181818;stroke-width:1;"/><polygon fill="#181818" points="186.73,120.2,177.4772,116.8257,181.7417,120.5424,178.025,124.8069,186.73,120.2" style="stroke:#181818;stroke-width:1;"/></g><!--link doc to UC4--><g class="link" data-entity-1="doc" data-entity-2="UC4" data-source-line="66" data-uid="lnk45" id="link_doc_UC4"><path d="M37.27,1159.58 C42.13,969.02 65.45,132.71 100.63,91 C119.88,68.18 145.1573,59.6081 173.8973,56.3881" fill="none" id="doc-to-UC4" style="stroke:#181818;stroke-width:1;"/><polygon fill="#181818" points="179.86,55.72,170.4706,52.747,174.8911,56.2767,171.3613,60.6972,179.86,55.72" style="stroke:#181818;stroke-width:1;"/></g><!--link doc to UC5--><g class="link" data-entity-1="doc" data-entity-2="UC5" data-source-line="67" data-uid="lnk46" id="link_doc_UC5"><path d="M36.21,1159.73 C36.59,1048.65 42.8,728.69 100.63,645 C123.16,612.39 158.4128,594.7619 191.3728,583.6819" fill="none" id="doc-to-UC5" style="stroke:#181818;stroke-width:1;"/><polygon fill="#181818" points="197.06,581.77,187.2546,580.8463,192.3206,583.3632,189.8037,588.4293,197.06,581.77" style="stroke:#181818;stroke-width:1;"/></g><!--link doc to UC6--><g class="link" data-entity-1="doc" data-entity-2="UC6" data-source-line="68" data-uid="lnk47" id="link_doc_UC6"><path d="M37.45,1159.75 C41.8,1025.49 59.2,581.24 100.63,534 C119.45,512.54 142.9321,503.9787 170.5321,500.3187" fill="none" id="doc-to-UC6" style="stroke:#181818;stroke-width:1;"/><polygon fill="#181818" points="176.48,499.53,167.0323,496.7478,171.5234,500.1873,168.0839,504.6784,176.48,499.53" style="stroke:#181818;stroke-width:1;"/></g><!--link doc to UC7--><g class="link" data-entity-1="doc" data-entity-2="UC7" data-source-line="69" data-uid="lnk48" id="link_doc_UC7"><path d="M37.11,1159.37 C40.4,1015.84 55.03,518.8 100.63,466 C118.46,445.36 140.1234,436.6455 166.6034,432.4655" fill="none" id="doc-to-UC7" style="stroke:#181818;stroke-width:1;"/><polygon fill="#181818" points="172.53,431.53,163.0164,428.9822,167.5912,432.3096,164.2638,436.8844,172.53,431.53" style="stroke:#181818;stroke-width:1;"/></g><!--link doc to UC8--><g class="link" data-entity-1="doc" data-entity-2="UC8" data-source-line="70" data-uid="lnk49" id="link_doc_UC8"><path d="M36.8,1159.39 C39.07,1007.25 50.72,454.63 100.63,396 C116.98,376.8 135.8429,368.0982 160.3929,363.2682" fill="none" id="doc-to-UC8" style="stroke:#181818;stroke-width:1;"/><polygon fill="#181818" points="166.28,362.11,156.6771,359.9226,161.374,363.0752,158.2214,367.7721,166.28,362.11" style="stroke:#181818;stroke-width:1;"/></g><!--link doc to UC9--><g class="link" data-entity-1="doc" data-entity-2="UC9" data-source-line="71" data-uid="lnk50" id="link_doc_UC9"><path d="M42.16,1159.55 C49.73,1121.22 66.3,1062.64 100.63,1024 C128.6,992.53 167.2343,974.4448 199.8843,963.0648" fill="none" id="doc-to-UC9" style="stroke:#181818;stroke-width:1;"/><polygon fill="#181818" points="205.55,961.09,195.7349,960.275,200.8286,962.7356,198.3679,967.8293,205.55,961.09" style="stroke:#181818;stroke-width:1;"/></g><!--link doc to UC10--><g class="link" data-entity-1="doc" data-entity-2="UC10" data-source-line="72" data-uid="lnk51" id="link_doc_UC10"><path d="M40.05,1159.51 C47.53,1090.54 66.62,949.9 100.63,916 C122.67,894.04 150.0009,885.9685 179.3309,882.9785" fill="none" id="doc-to-UC10" style="stroke:#181818;stroke-width:1;"/><polygon fill="#181818" points="185.3,882.37,175.9407,879.3034,180.3258,882.8771,176.7521,887.2621,185.3,882.37" style="stroke:#181818;stroke-width:1;"/></g><!--link doc to UC11--><g class="link" data-entity-1="doc" data-entity-2="UC11" data-source-line="73" data-uid="lnk52" id="link_doc_UC11"><path d="M38.21,1159.56 C43.01,1078.5 58.4,893.88 100.63,850 C121.39,828.43 147.0177,820.222 175.5877,817.002" fill="none" id="doc-to-UC11" style="stroke:#181818;stroke-width:1;"/><polygon fill="#181818" points="181.55,816.33,172.1586,813.3631,176.5815,816.89,173.0546,821.3128,181.55,816.33" style="stroke:#181818;stroke-width:1;"/></g><!--link doc to UC12--><g class="link" data-entity-1="doc" data-entity-2="UC12" data-source-line="74" data-uid="lnk53" id="link_doc_UC12"><path d="M37,1159.43 C39.43,1067.35 50.49,838.31 100.63,784 C119.58,763.48 142.2585,754.8842 169.2185,750.7742" fill="none" id="doc-to-UC12" style="stroke:#181818;stroke-width:1;"/><polygon fill="#181818" points="175.15,749.87,165.65,747.272,170.2071,750.6235,166.8556,755.1807,175.15,749.87" style="stroke:#181818;stroke-width:1;"/></g><!--link doc to UC13--><g class="link" data-entity-1="doc" data-entity-2="UC13" data-source-line="75" data-uid="lnk54" id="link_doc_UC13"><path d="M64.81,1203.66 C90.94,1208.86 125.0252,1215.6399 160.9352,1222.7799" fill="none" id="doc-to-UC13" style="stroke:#181818;stroke-width:1;"/><polygon fill="#181818" points="166.82,1223.95,158.7728,1218.2717,161.916,1222.9749,157.2127,1226.1181,166.82,1223.95" style="stroke:#181818;stroke-width:1;"/></g><!--link doc to UC15--><g class="link" data-entity-1="doc" data-entity-2="UC15" data-source-line="76" data-uid="lnk55" id="link_doc_UC15"><path d="M64.81,1192.2 C89.36,1187.2 120.2606,1180.9169 154.4006,1173.9669" fill="none" id="doc-to-UC15" style="stroke:#181818;stroke-width:1;"/><polygon fill="#181818" points="160.28,1172.77,150.663,1170.6457,155.3805,1173.7674,152.2588,1178.4849,160.28,1172.77" style="stroke:#181818;stroke-width:1;"/></g><!--link doc to UC17--><g class="link" data-entity-1="doc" data-entity-2="UC17" data-source-line="77" data-uid="lnk56" id="link_doc_UC17"><path d="M56.99,1159.64 C67.93,1142.57 82.8,1123.53 100.63,1111 C116.65,1099.75 129.8885,1093.2292 148.7385,1086.9392" fill="none" id="doc-to-UC17" style="stroke:#181818;stroke-width:1;"/><polygon fill="#181818" points="154.43,1085.04,144.6266,1084.0944,149.6871,1086.6226,147.1589,1091.6831,154.43,1085.04" style="stroke:#181818;stroke-width:1;"/></g><!--link doc to UC19--><g class="link" data-entity-1="doc" data-entity-2="UC19" data-source-line="78" data-uid="lnk57" id="link_doc_UC19"><path d="M36.02,1159.49 C36.04,1056.71 41.69,779.27 100.63,714 C118.38,694.34 139.0863,685.764 164.8063,681.354" fill="none" id="doc-to-UC19" style="stroke:#181818;stroke-width:1;"/><polygon fill="#181818" points="170.72,680.34,161.1735,677.9185,165.7919,681.185,162.5254,685.8034,170.72,680.34" style="stroke:#181818;stroke-width:1;"/></g><!--link doc to UC20--><g class="link" data-entity-1="doc" data-entity-2="UC20" data-source-line="79" data-uid="lnk58" id="link_doc_UC20"><path d="M38.35,1236.31 C44.92,1353.52 67.09,1701.59 100.63,1739 C120.03,1760.64 144.2877,1769.1551 172.2777,1772.7051" fill="none" id="doc-to-UC20" style="stroke:#181818;stroke-width:1;"/><polygon fill="#181818" points="178.23,1773.46,169.8048,1768.3594,173.2697,1772.8309,168.7982,1776.2958,178.23,1773.46" style="stroke:#181818;stroke-width:1;"/></g><!--link doc to UC21--><g class="link" data-entity-1="doc" data-entity-2="UC21" data-source-line="80" data-uid="lnk59" id="link_doc_UC21"><path d="M36.08,1236.57 C36.29,1338.13 42.41,1609.53 100.63,1673 C120.87,1695.06 146.4354,1703.3388 175.1054,1706.4688" fill="none" id="doc-to-UC21" style="stroke:#181818;stroke-width:1;"/><polygon fill="#181818" points="181.07,1707.12,172.5573,1702.1669,176.0995,1706.5774,171.689,1710.1196,181.07,1707.12" style="stroke:#181818;stroke-width:1;"/></g><!--link doc to UC22--><g class="link" data-entity-1="doc" data-entity-2="UC22" data-source-line="81" data-uid="lnk60" id="link_doc_UC22"><path d="M38.44,1236.43 C43.63,1316.02 59.68,1495.08 100.63,1538 C120.27,1558.59 143.7238,1567.1375 171.0738,1571.1575" fill="none" id="doc-to-UC22" style="stroke:#181818;stroke-width:1;"/><polygon fill="#181818" points="177.01,1572.03,168.6874,1566.7637,172.0632,1571.3029,167.524,1574.6787,177.01,1572.03" style="stroke:#181818;stroke-width:1;"/></g><!--link doc to UC23--><g class="link" data-entity-1="doc" data-entity-2="UC23" data-source-line="82" data-uid="lnk61" id="link_doc_UC23"><path d="M40.59,1236.49 C48.72,1302.84 68.55,1434.74 100.63,1467 C119.24,1485.72 139.9902,1494.198 165.4902,1498.918" fill="none" id="doc-to-UC23" style="stroke:#181818;stroke-width:1;"/><polygon fill="#181818" points="171.39,1500.01,163.2683,1494.4388,166.4735,1499.1,161.8123,1502.3051,171.39,1500.01" style="stroke:#181818;stroke-width:1;"/></g><!--link doc to UC24--><g class="link" data-entity-1="doc" data-entity-2="UC24" data-source-line="83" data-uid="lnk62" id="link_doc_UC24"><path d="M38.25,1236.62 C42.59,1280.96 56.49,1352.86 100.63,1394 C119.11,1411.22 138.5194,1419.4904 162.9094,1424.6404" fill="none" id="doc-to-UC24" style="stroke:#181818;stroke-width:1;"/><polygon fill="#181818" points="168.78,1425.88,160.8006,1420.1069,163.8879,1424.847,159.1478,1427.9343,168.78,1425.88" style="stroke:#181818;stroke-width:1;"/></g><!--link doc to UC25--><g class="link" data-entity-1="doc" data-entity-2="UC25" data-source-line="84" data-uid="lnk63" id="link_doc_UC25"><path d="M61.23,1236.37 C72.11,1251.21 85.79,1267.58 100.63,1280 C132.42,1306.6 169.2418,1325.4879 200.3018,1339.0579" fill="none" id="doc-to-UC25" style="stroke:#181818;stroke-width:1;"/><polygon fill="#181818" points="205.8,1341.46,199.1542,1334.1914,201.2182,1339.4582,195.9513,1341.5223,205.8,1341.46" style="stroke:#181818;stroke-width:1;"/></g><!--link doc to UC26--><g class="link" data-entity-1="doc" data-entity-2="UC26" data-source-line="85" data-uid="lnk64" id="link_doc_UC26"><path d="M37.18,1236.17 C40.73,1379.18 56.23,1877.84 100.63,1932 C112.68,1946.7 123.8243,1954.4812 141.7543,1961.0312" fill="none" id="doc-to-UC26" style="stroke:#181818;stroke-width:1;"/><polygon fill="#181818" points="147.39,1963.09,140.3089,1956.2447,142.6936,1961.3743,137.5639,1963.759,147.39,1963.09" style="stroke:#181818;stroke-width:1;"/></g><!--link doc to UC27--><g class="link" data-entity-1="doc" data-entity-2="UC27" data-source-line="86" data-uid="lnk65" id="link_doc_UC27"><path d="M35.92,1236.46 C35.39,1354.72 39.07,1710.73 100.63,1805 C119.83,1834.4 147.6396,1852.2401 177.6796,1865.4801" fill="none" id="doc-to-UC27" style="stroke:#181818;stroke-width:1;"/><polygon fill="#181818" points="183.17,1867.9,176.5477,1860.61,178.5947,1865.8834,173.3212,1867.9305,183.17,1867.9" style="stroke:#181818;stroke-width:1;"/></g><!--link doc to UC28--><g class="link" data-entity-1="doc" data-entity-2="UC28" data-source-line="87" data-uid="lnk66" id="link_doc_UC28"><path d="M36.32,1236.43 C36.71,1403.37 41.95,2060.2 100.63,2129 C118.81,2150.32 141.5269,2158.926 168.7169,2162.696" fill="none" id="doc-to-UC28" style="stroke:#181818;stroke-width:1;"/><polygon fill="#181818" points="174.66,2163.52,166.2946,2158.3218,169.7074,2162.8333,165.1959,2166.246,174.66,2163.52" style="stroke:#181818;stroke-width:1;"/></g><!--link doc to UC29--><g class="link" data-entity-1="doc" data-entity-2="UC29" data-source-line="88" data-uid="lnk67" id="link_doc_UC29"><path d="M37.18,1236.52 C40.88,1389.69 57.33,1950.38 100.63,2016 C121.97,2048.33 155.7814,2065.9835 188.4414,2077.3135" fill="none" id="doc-to-UC29" style="stroke:#181818;stroke-width:1;"/><polygon fill="#181818" points="194.11,2079.28,186.9181,2072.5512,189.3862,2077.6413,184.2961,2080.1093,194.11,2079.28" style="stroke:#181818;stroke-width:1;"/></g><!--link doc to UC30--><g class="link" data-entity-1="doc" data-entity-2="UC30" data-source-line="89" data-uid="lnk68" id="link_doc_UC30"><path d="M37.03,1236.49 C39.53,1327.78 50.74,1553.76 100.63,1607 C121.73,1629.51 148.6296,1637.685 177.9296,1640.605" fill="none" id="doc-to-UC30" style="stroke:#181818;stroke-width:1;"/><polygon fill="#181818" points="183.9,1641.2,175.341,1636.3272,178.9246,1640.7042,174.5477,1644.2878,183.9,1641.2" style="stroke:#181818;stroke-width:1;"/></g><!--link doc to UC31--><g class="link" data-entity-1="doc" data-entity-2="UC31" data-source-line="90" data-uid="lnk69" id="link_doc_UC31"><path d="M36.6,1236.47 C38.18,1409.92 47.81,2114.24 100.63,2196 C121.63,2228.51 155.2522,2246.3626 187.9122,2257.8926" fill="none" id="doc-to-UC31" style="stroke:#181818;stroke-width:1;"/><polygon fill="#181818" points="193.57,2259.89,186.4149,2253.1221,188.8552,2258.2255,183.7517,2260.6658,193.57,2259.89" style="stroke:#181818;stroke-width:1;"/></g><!--link doc to UC41--><g class="link" data-entity-1="doc" data-entity-2="UC41" data-source-line="91" data-uid="lnk70" id="link_doc_UC41"><path d="M37.05,1236.54 C41.08,1438.76 61.67,2369.87 100.63,2416 C120.96,2440.07 148.7305,2448.2942 178.7605,2450.7842" fill="none" id="doc-to-UC41" style="stroke:#181818;stroke-width:1;"/><polygon fill="#181818" points="184.74,2451.28,176.1013,2446.55,179.7571,2450.8668,175.4402,2454.5226,184.74,2451.28" style="stroke:#181818;stroke-width:1;"/></g><!--link doc to UC42--><g class="link" data-entity-1="doc" data-entity-2="UC42" data-source-line="92" data-uid="lnk71" id="link_doc_UC42"><path d="M36.29,1236.44 C36.46,1421.75 40.71,2217.75 100.63,2309 C123.05,2343.14 160.526,2360.4961 194.316,2370.6961" fill="none" id="doc-to-UC42" style="stroke:#181818;stroke-width:1;"/><polygon fill="#181818" points="200.06,2372.43,192.5999,2365.9998,195.2733,2370.9851,190.2881,2373.6585,200.06,2372.43" style="stroke:#181818;stroke-width:1;"/></g><!--SRC=[XLHBYjmm4Dtx5ABt0osvlvl0q1cQMGG28TahSeqZufOQIOOX8OV96UO8VR7OwhPTagidkpBlrQjN7wk1by22PKxNFmAhj0CLj3L58LMmZYq-MWKcm899poghYk8irKzP0rjykhnLRMFPqSdABjZlWh7MWvA-mmuEf6Fr5UaolnuuXh_13VGtL63qgT8XoouJlD4dRJB6glX3U7lqkZOoj4wI1YM2eyewTpan1giRmkfCPqlwdT5sjEccFHbwel86nUpzp6n41wDyIJd50fpJDXDElvg9z7mwMpS9ZRNsxunVTVS4FkldKOLMDlhNACKgI0-cl4EFf9uz6oTV_xV2F6TBEZ-23_hoPlgSpmxgrWJfoPMSR-XmoSjyA-Sf_ShWznZ3iLEBoyi8SdKvAvdXkBkPerKYzdgFjYP7TR3cHTVTH5KSs14CEDbainf5LSgk6_kz9ryBR4YxxwRGwtjwbISmvBuWGZ0sjKjk9fx7dDJzQdTwTzs36NtbnNgarhtKvI_MAZcfz0KyeV9ijDAT7p-WrxSkkQ03E3UdYBvAzs2pXuSFyVcTOe7Y4iKh5AzHl47n5iKx5EznhIN-m9KvBirnROuBSbo5Osc1fKNI59OMM5hWlWIk8t1d0XSLk3U17PJOGOaTh98FyGy0]--></g></svg>