<svg xmlns="http://www.w3.org/2000/svg" xmlns:xlink="http://www.w3.org/1999/xlink" contentStyleType="text/css" data-diagram-type="DESCRIPTION" height="1188px" preserveAspectRatio="none" style="width:973px;height:1188px;background:#FFFFFF;" version="1.1" viewBox="0 0 973 1188" width="973px" zoomAndPan="magnify"><defs/><g><!--cluster M?dulo Configuraci?n General--><g class="cluster" data-entity="M.dulo Configuraci.n General" data-source-line="5" data-uid="ent0003" id="cluster_M.dulo Configuraci.n General"><path d="M702.6,761 L942.6732,761 A3.75,3.75 0 0 1 945.1732,763.5 L952.1732,783.2969 L963.6,783.2969 A2.5,2.5 0 0 1 966.1,785.7969 L966.1,948.5 A2.5,2.5 0 0 1 963.6,951 L702.6,951 A2.5,2.5 0 0 1 700.1,948.5 L700.1,763.5 A2.5,2.5 0 0 1 702.6,761" fill="none" style="stroke:#000000;stroke-width:1.5;"/><line style="stroke:#000000;stroke-width:1.5;" x1="700.1" x2="952.1732" y1="783.2969" y2="783.2969"/><text fill="#000000" font-family="sans-serif" font-size="14" font-weight="bold" lengthAdjust="spacing" textLength="239.0732" x="704.1" y="775.9951">M&#243;dulo Configuraci&#243;n General</text></g><!--cluster M?dulo Sesi?n--><g class="cluster" data-entity="M.dulo Sesi.n" data-source-line="10" data-uid="ent0006" id="cluster_M.dulo Sesi.n"><path d="M752.1,474 L868.224,474 A3.75,3.75 0 0 1 870.724,476.5 L877.724,496.2969 L914.1,496.2969 A2.5,2.5 0 0 1 916.6,498.7969 L916.6,621.5 A2.5,2.5 0 0 1 914.1,624 L752.1,624 A2.5,2.5 0 0 1 749.6,621.5 L749.6,476.5 A2.5,2.5 0 0 1 752.1,474" fill="none" style="stroke:#000000;stroke-width:1.5;"/><line style="stroke:#000000;stroke-width:1.5;" x1="749.6" x2="877.724" y1="496.2969" y2="496.2969"/><text fill="#000000" font-family="sans-serif" font-size="14" font-weight="bold" lengthAdjust="spacing" textLength="115.124" x="753.6" y="488.9951">M&#243;dulo Sesi&#243;n</text></g><!--cluster M?dulo Gesti?n--><g class="cluster" data-entity="M.dulo Gesti.n" data-source-line="15" data-uid="ent0009" id="cluster_M.dulo Gesti.n"><path d="M737.6,648 L861.8246,648 A3.75,3.75 0 0 1 864.3246,650.5 L871.3246,670.2969 L928.6,670.2969 A2.5,2.5 0 0 1 931.1,672.7969 L931.1,734.5 A2.5,2.5 0 0 1 928.6,737 L737.6,737 A2.5,2.5 0 0 1 735.1,734.5 L735.1,650.5 A2.5,2.5 0 0 1 737.6,648" fill="none" style="stroke:#000000;stroke-width:1.5;"/><line style="stroke:#000000;stroke-width:1.5;" x1="735.1" x2="871.3246" y1="670.2969" y2="670.2969"/><text fill="#000000" font-family="sans-serif" font-size="14" font-weight="bold" lengthAdjust="spacing" textLength="123.2246" x="739.1" y="662.9951">M&#243;dulo Gesti&#243;n</text></g><!--cluster MI45--><g class="cluster" data-entity="MI45" data-source-line="19" data-uid="ent0011" id="cluster_MI45"><path d="M116.6,485 L275.5922,485 A3.75,3.75 0 0 1 278.0922,487.5 L285.0922,507.2969 L340.6,507.2969 A2.5,2.5 0 0 1 343.1,509.7969 L343.1,826.5 A2.5,2.5 0 0 1 340.6,829 L116.6,829 A2.5,2.5 0 0 1 114.1,826.5 L114.1,487.5 A2.5,2.5 0 0 1 116.6,485" fill="none" style="stroke:#000000;stroke-width:1.5;"/><line style="stroke:#000000;stroke-width:1.5;" x1="114.1" x2="285.0922" y1="507.2969" y2="507.2969"/><text fill="#000000" font-family="sans-serif" font-size="14" font-weight="bold" lengthAdjust="spacing" textLength="157.9922" x="118.1" y="499.9951">M&#243;dulo Importaci&#243;n</text></g><!--cluster ME44--><g class="cluster" data-entity="ME44" data-source-line="25" data-uid="ent0016" id="cluster_ME44"><path d="M394.6,983 L646.9027,983 A3.75,3.75 0 0 1 649.4027,985.5 L656.4027,1005.2969 L944.6,1005.2969 A2.5,2.5 0 0 1 947.1,1007.7969 L947.1,1178.5 A2.5,2.5 0 0 1 944.6,1181 L394.6,1181 A2.5,2.5 0 0 1 392.1,1178.5 L392.1,985.5 A2.5,2.5 0 0 1 394.6,983" fill="none" style="stroke:#000000;stroke-width:1.5;"/><line style="stroke:#000000;stroke-width:1.5;" x1="392.1" x2="656.4027" y1="1005.2969" y2="1005.2969"/><text fill="#000000" font-family="sans-serif" font-size="14" font-weight="bold" lengthAdjust="spacing" textLength="251.3027" x="396.1" y="997.9951">M&#243;dulo Exportaci&#243;n [Abstracto]</text></g><!--cluster M?dulo Crear--><g class="cluster" data-entity="M.dulo Crear" data-source-line="32" data-uid="ent0021" id="cluster_M.dulo Crear"><path d="M138.1,165 L244.9545,165 A3.75,3.75 0 0 1 247.4545,167.5 L254.4545,187.2969 L319.1,187.2969 A2.5,2.5 0 0 1 321.6,189.7969 L321.6,450.5 A2.5,2.5 0 0 1 319.1,453 L138.1,453 A2.5,2.5 0 0 1 135.6,450.5 L135.6,167.5 A2.5,2.5 0 0 1 138.1,165" fill="none" style="stroke:#000000;stroke-width:1.5;"/><line style="stroke:#000000;stroke-width:1.5;" x1="135.6" x2="254.4545" y1="187.2969" y2="187.2969"/><text fill="#000000" font-family="sans-serif" font-size="14" font-weight="bold" lengthAdjust="spacing" textLength="105.8545" x="139.6" y="179.9951">M&#243;dulo Crear</text></g><!--cluster M?dulo Examen--><g class="cluster" data-entity="M.dulo Examen" data-source-line="38" data-uid="ent0026" id="cluster_M.dulo Examen"><path d="M730.6,6 L856.5199,6 A3.75,3.75 0 0 1 859.0199,8.5 L866.0199,28.2969 L935.6,28.2969 A2.5,2.5 0 0 1 938.1,30.7969 L938.1,447.5 A2.5,2.5 0 0 1 935.6,450 L730.6,450 A2.5,2.5 0 0 1 728.1,447.5 L728.1,8.5 A2.5,2.5 0 0 1 730.6,6" fill="none" style="stroke:#000000;stroke-width:1.5;"/><line style="stroke:#000000;stroke-width:1.5;" x1="728.1" x2="866.0199" y1="28.2969" y2="28.2969"/><text fill="#000000" font-family="sans-serif" font-size="14" font-weight="bold" lengthAdjust="spacing" textLength="124.9199" x="732.1" y="20.9951">M&#243;dulo Examen</text></g><!--entity UC26--><g class="entity" data-entity="UC26" data-source-line="6" data-uid="ent0004" id="entity_UC26"><ellipse cx="832.9711" cy="908.7742" fill="#F1F1F1" rx="116.8711" ry="25.7742" style="stroke:#181818;stroke-width:0.5;"/><text fill="#000000" font-family="sans-serif" font-size="14" lengthAdjust="spacing" textLength="212.666" x="726.6381" y="913.4227">exportarConfiguracionGlobal()</text></g><!--entity UC27--><g class="entity" data-entity="UC27" data-source-line="7" data-uid="ent0005" id="entity_UC27"><ellipse cx="833.2648" cy="821.833" fill="#F1F1F1" rx="117.1648" ry="25.833" style="stroke:#181818;stroke-width:0.5;"/><text fill="#000000" font-family="sans-serif" font-size="14" lengthAdjust="spacing" textLength="213.2949" x="726.6174" y="826.4814">importarConfiguracionGlobal()</text></g><!--entity UC42--><g class="entity" data-entity="UC42" data-source-line="11" data-uid="ent0007" id="entity_UC42"><ellipse cx="832.9504" cy="524.8701" fill="#F1F1F1" rx="67.3504" ry="15.8701" style="stroke:#181818;stroke-width:0.5;"/><text fill="#000000" font-family="sans-serif" font-size="14" lengthAdjust="spacing" textLength="99.6201" x="783.1403" y="529.5185">iniciarSesion()</text></g><!--entity UC43--><g class="entity" data-entity="UC43" data-source-line="12" data-uid="ent0008" id="entity_UC43"><ellipse cx="833.2891" cy="591.8378" fill="#F1F1F1" rx="67.1891" ry="15.8378" style="stroke:#181818;stroke-width:0.5;"/><text fill="#000000" font-family="sans-serif" font-size="14" lengthAdjust="spacing" textLength="99.2031" x="783.6875" y="596.4863">cerrarSesion()</text></g><!--entity UC13--><g class="entity" data-entity="UC13" data-source-line="16" data-uid="ent0010" id="entity_UC13"><ellipse cx="833.2046" cy="701.8209" fill="#F1F1F1" rx="82.1046" ry="18.8209" style="stroke:#181818;stroke-width:0.5;"/><text fill="#000000" font-family="sans-serif" font-size="14" lengthAdjust="spacing" textLength="135.6113" x="765.3989" y="706.4694">completarGestion()</text></g><!--entity UC38--><g class="entity" data-entity="UC38" data-source-line="20" data-uid="ent0012" id="entity_UC38"><ellipse cx="228.4683" cy="620.9737" fill="#F1F1F1" rx="90.3683" ry="20.4737" style="stroke:#181818;stroke-width:0.5;"/><text fill="#000000" font-family="sans-serif" font-size="14" lengthAdjust="spacing" textLength="154.5742" x="151.1812" y="625.6221">importarAsignaturas()</text></g><!--entity UC24--><g class="entity" data-entity="UC24" data-source-line="21" data-uid="ent0013" id="entity_UC24"><ellipse cx="228.585" cy="765.897" fill="#F1F1F1" rx="84.985" ry="19.397" style="stroke:#181818;stroke-width:0.5;"/><text fill="#000000" font-family="sans-serif" font-size="14" lengthAdjust="spacing" textLength="142.29" x="157.44" y="770.5454">importarPreguntas()</text></g><!--entity UC19--><g class="entity" data-entity="UC19" data-source-line="22" data-uid="ent0014" id="entity_UC19"><ellipse cx="228.7447" cy="547.0289" fill="#F1F1F1" rx="80.6447" ry="18.5289" style="stroke:#181818;stroke-width:0.5;"/><text fill="#000000" font-family="sans-serif" font-size="14" lengthAdjust="spacing" textLength="132.1934" x="162.648" y="551.6774">importarAlumnos()</text></g><!--entity UC36--><g class="entity" data-entity="UC36" data-source-line="23" data-uid="ent0015" id="entity_UC36"><ellipse cx="228.7109" cy="694.1222" fill="#F1F1F1" rx="76.1109" ry="17.6222" style="stroke:#181818;stroke-width:0.5;"/><text fill="#000000" font-family="sans-serif" font-size="14" lengthAdjust="spacing" textLength="121.4131" x="168.0044" y="698.7706">importarGrados()</text></g><!--entity UC25--><g class="entity" data-entity="UC25" data-source-line="26" data-uid="ent0017" id="entity_UC25"><ellipse cx="500.8123" cy="1136.8425" fill="#F1F1F1" rx="84.7123" ry="19.3425" style="stroke:#181818;stroke-width:0.5;"/><text fill="#000000" font-family="sans-serif" font-size="14" lengthAdjust="spacing" textLength="141.6611" x="429.9817" y="1141.4909">exportarPreguntas()</text></g><!--entity UC17--><g class="entity" data-entity="UC17" data-source-line="27" data-uid="ent0018" id="entity_UC17"><ellipse cx="500.4772" cy="1063.9754" fill="#F1F1F1" rx="80.3772" ry="18.4754" style="stroke:#181818;stroke-width:0.5;"/><text fill="#000000" font-family="sans-serif" font-size="14" lengthAdjust="spacing" textLength="131.5645" x="434.6949" y="1068.6239">exportarAlumnos()</text></g><!--entity UC39--><g class="entity" data-entity="UC39" data-source-line="28" data-uid="ent0019" id="entity_UC39"><ellipse cx="833.1903" cy="1135.9181" fill="#F1F1F1" rx="90.0903" ry="20.4181" style="stroke:#181818;stroke-width:0.5;"/><text fill="#000000" font-family="sans-serif" font-size="14" lengthAdjust="spacing" textLength="153.9453" x="756.2176" y="1140.5665">exportarAsignaturas()</text></g><!--entity UC37--><g class="entity" data-entity="UC37" data-source-line="29" data-uid="ent0020" id="entity_UC37"><ellipse cx="832.9501" cy="1063.07" fill="#F1F1F1" rx="75.8501" ry="17.57" style="stroke:#181818;stroke-width:0.5;"/><text fill="#000000" font-family="sans-serif" font-size="14" lengthAdjust="spacing" textLength="120.7842" x="772.558" y="1067.7184">exportarGrados()</text></g><!--entity UC1--><g class="entity" data-entity="UC1" data-source-line="33" data-uid="ent0022" id="entity_UC1"><ellipse cx="228.7891" cy="422.1378" fill="#F1F1F1" rx="63.6891" ry="15.1378" style="stroke:#181818;stroke-width:0.5;"/><text fill="#000000" font-family="sans-serif" font-size="14" lengthAdjust="spacing" textLength="89.9609" x="183.8086" y="426.7863">crearGrado()</text></g><!--entity UC9--><g class="entity" data-entity="UC9" data-source-line="34" data-uid="ent0023" id="entity_UC9"><ellipse cx="228.3852" cy="215.957" fill="#F1F1F1" rx="67.7852" ry="15.957" style="stroke:#181818;stroke-width:0.5;"/><text fill="#000000" font-family="sans-serif" font-size="14" lengthAdjust="spacing" textLength="100.7412" x="178.0146" y="220.6055">crearAlumno()</text></g><!--entity UC20--><g class="entity" data-entity="UC20" data-source-line="35" data-uid="ent0024" id="entity_UC20"><ellipse cx="228.3836" cy="354.7567" fill="#F1F1F1" rx="71.7836" ry="16.7567" style="stroke:#181818;stroke-width:0.5;"/><text fill="#000000" font-family="sans-serif" font-size="14" lengthAdjust="spacing" textLength="110.8379" x="172.9647" y="359.4052">crearPregunta()</text></g><!--entity UC5--><g class="entity" data-entity="UC5" data-source-line="36" data-uid="ent0025" id="entity_UC5"><ellipse cx="228.422" cy="284.7644" fill="#F1F1F1" rx="76.822" ry="17.7644" style="stroke:#181818;stroke-width:0.5;"/><text fill="#000000" font-family="sans-serif" font-size="14" lengthAdjust="spacing" textLength="123.1221" x="166.861" y="289.4128">crearAsignatura()</text></g><!--entity UC28--><g class="entity" data-entity="UC28" data-source-line="39" data-uid="ent0027" id="entity_UC28"><ellipse cx="833.0504" cy="277.0901" fill="#F1F1F1" rx="83.4504" ry="19.0901" style="stroke:#181818;stroke-width:0.5;"/><text fill="#000000" font-family="sans-serif" font-size="14" lengthAdjust="spacing" textLength="138.7422" x="763.6794" y="281.7385">generarExamenes()</text></g><!--entity UC29--><g class="entity" data-entity="UC29" data-source-line="40" data-uid="ent0028" id="entity_UC29"><ellipse cx="833.1665" cy="349.8133" fill="#F1F1F1" rx="82.0665" ry="18.8133" style="stroke:#181818;stroke-width:0.5;"/><text fill="#000000" font-family="sans-serif" font-size="14" lengthAdjust="spacing" textLength="135.5225" x="765.4053" y="354.4617">asignarExamenes()</text></g><!--entity UC40--><g class="entity" data-entity="UC40" data-source-line="41" data-uid="ent0029" id="entity_UC40"><ellipse cx="832.8549" cy="203.151" fill="#F1F1F1" rx="88.7549" ry="20.151" style="stroke:#181818;stroke-width:0.5;"/><text fill="#000000" font-family="sans-serif" font-size="14" lengthAdjust="spacing" textLength="150.917" x="757.3964" y="207.7994">cancelarGeneracion()</text></g><!--entity UC31--><g class="entity" data-entity="UC31" data-source-line="42" data-uid="ent0030" id="entity_UC31"><ellipse cx="832.9827" cy="129.0765" fill="#F1F1F1" rx="83.3827" ry="19.0765" style="stroke:#181818;stroke-width:0.5;"/><text fill="#000000" font-family="sans-serif" font-size="14" lengthAdjust="spacing" textLength="138.585" x="763.6902" y="133.725">corregirExamenes()</text></g><!--entity UC32--><g class="entity" data-entity="UC32" data-source-line="43" data-uid="ent0031" id="entity_UC32"><ellipse cx="832.9565" cy="419.1713" fill="#F1F1F1" rx="63.8565" ry="15.1713" style="stroke:#181818;stroke-width:0.5;"/><text fill="#000000" font-family="sans-serif" font-size="14" lengthAdjust="spacing" textLength="90.4121" x="787.7504" y="423.8197">verExamen()</text></g><!--entity UC33--><g class="entity" data-entity="UC33" data-source-line="44" data-uid="ent0032" id="entity_UC33"><ellipse cx="833.0767" cy="57.8953" fill="#F1F1F1" rx="69.9767" ry="16.3953" style="stroke:#181818;stroke-width:0.5;"/><text fill="#000000" font-family="sans-serif" font-size="14" lengthAdjust="spacing" textLength="106.3193" x="779.917" y="62.5438">verExamenes()</text></g><!--entity doc--><g class="entity" data-entity="doc" data-source-line="3" data-uid="ent0002" id="entity_doc"><ellipse cx="500.4159" cy="392.5" fill="#F1F1F1" rx="8" ry="8" style="stroke:#181818;stroke-width:0.5;"/><path d="M500.4159,400.5 L500.4159,427.5 M487.4159,408.5 L513.4159,408.5 M500.4159,427.5 L487.4159,442.5 M500.4159,427.5 L513.4159,442.5" fill="none" style="stroke:#181818;stroke-width:0.5;"/><text fill="#000000" font-family="sans-serif" font-size="14" lengthAdjust="spacing" textLength="58.6318" x="471.1" y="456.9951">Docente</text></g><!--reverse link UC5 to doc--><g class="link" data-entity-1="UC5" data-entity-2="doc" data-source-line="46" data-uid="lnk34" id="link_UC5_doc"><path d="M294.7401,297.6576 C317.3601,303.1576 337.14,309.5 359.1,320 C401.25,340.15 443.87,373.29 470.93,396.31" fill="none" id="UC5-backto-doc" style="stroke:#181818;stroke-width:1;"/><polygon fill="#181818" points="288.91,296.24,296.7101,302.2531,293.7684,297.4213,298.6003,294.4796,288.91,296.24" style="stroke:#181818;stroke-width:1;"/></g><!--reverse link UC20 to doc--><g class="link" data-entity-1="UC20" data-entity-2="doc" data-source-line="47" data-uid="lnk36" id="link_UC20_doc"><path d="M284.6333,368.6555 C340.9133,382.6255 425.33,403.57 471.06,414.92" fill="none" id="UC20-backto-doc" style="stroke:#181818;stroke-width:1;"/><polygon fill="#181818" points="278.81,367.21,286.5813,373.2604,283.6627,368.4146,288.5086,365.496,278.81,367.21" style="stroke:#181818;stroke-width:1;"/></g><!--reverse link UC1 to doc--><g class="link" data-entity-1="UC1" data-entity-2="doc" data-source-line="48" data-uid="lnk38" id="link_UC1_doc"><path d="M298.22,422 C354.46,422 428.49,422 470.8,422" fill="none" id="UC1-backto-doc" style="stroke:#181818;stroke-width:1;"/><polygon fill="#181818" points="292.22,422,301.22,426,297.22,422,301.22,418,292.22,422" style="stroke:#181818;stroke-width:1;"/></g><!--reverse link UC9 to doc--><g class="link" data-entity-1="UC9" data-entity-2="doc" data-source-line="49" data-uid="lnk40" id="link_UC9_doc"><path d="M295.7454,224.3465 C318.7354,229.1065 338.48,235.81 359.1,249 C412.39,283.09 454.92,344.2 478.7,383.91" fill="none" id="UC9-backto-doc" style="stroke:#181818;stroke-width:1;"/><polygon fill="#181818" points="289.87,223.13,297.8721,228.8716,294.7662,224.1437,299.4941,221.0378,289.87,223.13" style="stroke:#181818;stroke-width:1;"/></g><!--link doc to UC13--><g class="link" data-entity-1="doc" data-entity-2="UC13" data-source-line="50" data-uid="lnk41" id="link_doc_UC13"><path d="M529.33,460.01 C551.22,488.97 583.28,529.15 615.1,561 C646.35,592.28 655.53,599.14 692.1,624 C726.5,647.38 763.1288,667.3267 792.0888,682.1467" fill="none" id="doc-to-UC13" style="stroke:#181818;stroke-width:1;"/><polygon fill="#181818" points="797.43,684.88,791.2404,677.2192,792.979,682.6022,787.5959,684.3408,797.43,684.88" style="stroke:#181818;stroke-width:1;"/></g><!--reverse link UC19 to doc--><g class="link" data-entity-1="UC19" data-entity-2="doc" data-source-line="51" data-uid="lnk43" id="link_UC19_doc"><path d="M270.895,527.8798 C325.125,502.7798 421.46,458.18 471.02,435.23" fill="none" id="UC19-backto-doc" style="stroke:#181818;stroke-width:1;"/><polygon fill="#181818" points="265.45,530.4,275.2977,530.2497,269.9875,528.2998,271.9374,522.9897,265.45,530.4" style="stroke:#181818;stroke-width:1;"/></g><!--reverse link UC24 to doc--><g class="link" data-entity-1="UC24" data-entity-2="doc" data-source-line="52" data-uid="lnk45" id="link_UC24_doc"><path d="M309.0055,754.9402 C328.8755,749.4802 343.41,742.49 359.1,729 C442.78,657.08 479.37,524.92 492.87,460.01" fill="none" id="UC24-backto-doc" style="stroke:#181818;stroke-width:1;"/><polygon fill="#181818" points="303.22,756.53,312.9582,758.0023,308.0413,755.2052,310.8385,750.2883,303.22,756.53" style="stroke:#181818;stroke-width:1;"/></g><!--link doc to UC26--><g class="link" data-entity-1="doc" data-entity-2="UC26" data-source-line="54" data-uid="lnk46" id="link_doc_UC26"><path d="M506.14,460.27 C518.57,547.1 561.48,759.73 692.1,866 C706.6,877.79 718.6428,884.3896 736.5328,890.6096" fill="none" id="doc-to-UC26" style="stroke:#181818;stroke-width:1;"/><polygon fill="#181818" points="742.2,892.58,735.0127,885.8463,737.4773,890.938,732.3856,893.4026,742.2,892.58" style="stroke:#181818;stroke-width:1;"/></g><!--link doc to UC27--><g class="link" data-entity-1="doc" data-entity-2="UC27" data-source-line="55" data-uid="lnk47" id="link_doc_UC27"><path d="M520.96,460.21 C542.55,502 579.16,570.55 615.1,627 C643.12,671.02 656.42,677.76 684.1,722 C688.11,728.41 686.91,731.51 692.1,737 C716.82,763.13 745.9495,781.4552 774.4995,796.0752" fill="none" id="doc-to-UC27" style="stroke:#181818;stroke-width:1;"/><polygon fill="#181818" points="779.84,798.81,773.6524,791.1475,775.3896,796.531,770.0061,798.2682,779.84,798.81" style="stroke:#181818;stroke-width:1;"/></g><!--reverse link UC36 to doc--><g class="link" data-entity-1="UC36" data-entity-2="doc" data-source-line="56" data-uid="lnk49" id="link_UC36_doc"><path d="M302.4402,684.7046 C324.0102,679.6246 341.11,672.67 359.1,659 C426.89,607.49 468.34,513.03 487.3,460.25" fill="none" id="UC36-backto-doc" style="stroke:#181818;stroke-width:1;"/><polygon fill="#181818" points="296.6,686.08,306.2773,687.9103,301.4668,684.9338,304.4434,680.1234,296.6,686.08" style="stroke:#181818;stroke-width:1;"/></g><!--reverse link UC38 to doc--><g class="link" data-entity-1="UC38" data-entity-2="doc" data-source-line="57" data-uid="lnk51" id="link_UC38_doc"><path d="M305.3757,606.5947 C325.5957,600.9047 341.24,594.43 359.1,583 C408.78,551.2 450.95,496.8 475.77,460.13" fill="none" id="UC38-backto-doc" style="stroke:#181818;stroke-width:1;"/><polygon fill="#181818" points="299.6,608.22,309.347,609.6325,304.4131,606.8656,307.18,601.9316,299.6,608.22" style="stroke:#181818;stroke-width:1;"/></g><!--link doc to UC42--><g class="link" data-entity-1="doc" data-entity-2="UC42" data-source-line="58" data-uid="lnk52" id="link_doc_UC42"><path d="M530.35,430.96 C589.24,449.31 718.0118,489.4446 785.7718,510.5646" fill="none" id="doc-to-UC42" style="stroke:#181818;stroke-width:1;"/><polygon fill="#181818" points="791.5,512.35,784.098,505.8531,786.7265,510.8622,781.7174,513.4907,791.5,512.35" style="stroke:#181818;stroke-width:1;"/></g><!--link doc to UC43--><g class="link" data-entity-1="doc" data-entity-2="UC43" data-source-line="59" data-uid="lnk53" id="link_doc_UC43"><path d="M530.38,448 C565.89,478.72 629.28,529.26 692.1,558 C718.6,570.12 744.0867,577.0724 770.4167,582.3424" fill="none" id="doc-to-UC43" style="stroke:#181818;stroke-width:1;"/><polygon fill="#181818" points="776.3,583.52,768.2601,577.8315,771.3972,582.5387,766.69,585.6759,776.3,583.52" style="stroke:#181818;stroke-width:1;"/></g><!--link doc to UC28--><g class="link" data-entity-1="doc" data-entity-2="UC28" data-source-line="61" data-uid="lnk54" id="link_doc_UC28"><path d="M530.37,402.25 C566.63,378.15 631.55,337.58 692.1,313 C716.63,303.04 738.8807,296.5495 763.4307,290.7495" fill="none" id="doc-to-UC28" style="stroke:#181818;stroke-width:1;"/><polygon fill="#181818" points="769.27,289.37,759.5914,287.5465,764.404,290.5196,761.4308,295.3321,769.27,289.37" style="stroke:#181818;stroke-width:1;"/></g><!--link doc to UC29--><g class="link" data-entity-1="doc" data-entity-2="UC29" data-source-line="62" data-uid="lnk55" id="link_doc_UC29"><path d="M530.47,414.89 C553.38,409.3 586.23,401.42 615.1,395 C667.3,383.38 720.9088,372.2979 764.3788,363.5179" fill="none" id="doc-to-UC29" style="stroke:#181818;stroke-width:1;"/><polygon fill="#181818" points="770.26,362.33,760.6462,360.191,765.359,363.3199,762.2301,368.0326,770.26,362.33" style="stroke:#181818;stroke-width:1;"/></g><!--reverse link UC40 to doc--><g class="link" data-entity-1="UC40" data-entity-2="doc" data-source-line="63" data-uid="lnk57" id="link_UC40_doc"><path d="M755.5122,216.3871 C732.5622,222.0071 713.38,228.62 692.1,240 C624.73,276.01 564.19,342.49 530.24,384.36" fill="none" id="UC40-backto-doc" style="stroke:#181818;stroke-width:1;"/><polygon fill="#181818" points="761.34,214.96,751.6469,213.2155,756.4835,216.1493,753.5497,220.9859,761.34,214.96" style="stroke:#181818;stroke-width:1;"/></g><!--reverse link UC31 to doc--><g class="link" data-entity-1="UC31" data-entity-2="doc" data-source-line="64" data-uid="lnk59" id="link_UC31_doc"><path d="M756.3728,140.3955 C732.9928,145.7755 713.34,152.61 692.1,165 C604.31,216.21 544.69,325.54 517.82,383.72" fill="none" id="UC31-backto-doc" style="stroke:#181818;stroke-width:1;"/><polygon fill="#181818" points="762.22,139.05,752.5522,137.1701,757.3473,140.1713,754.3462,144.9664,762.22,139.05" style="stroke:#181818;stroke-width:1;"/></g><!--link doc to UC32--><g class="link" data-entity-1="doc" data-entity-2="UC32" data-source-line="65" data-uid="lnk60" id="link_doc_UC32"><path d="M530.35,421.74 C583.28,421.26 691.2602,420.2744 762.9902,419.6244" fill="none" id="doc-to-UC32" style="stroke:#181818;stroke-width:1;"/><polygon fill="#181818" points="768.99,419.57,759.9541,415.6517,763.9902,419.6153,760.0266,423.6514,768.99,419.57" style="stroke:#181818;stroke-width:1;"/></g><!--link doc to UC33--><g class="link" data-entity-1="doc" data-entity-2="UC33" data-source-line="66" data-uid="lnk61" id="link_doc_UC33"><path d="M510.42,383.84 C529.39,311.6 581.64,156.36 692.1,92 C715.66,78.28 738.6382,71.2043 764.0382,66.3143" fill="none" id="doc-to-UC33" style="stroke:#181818;stroke-width:1;"/><polygon fill="#181818" points="769.93,65.18,760.3361,62.9536,765.0202,66.1252,761.8485,70.8093,769.93,65.18" style="stroke:#181818;stroke-width:1;"/></g><!--reverse link ME44 to UC26--><g class="link" data-entity-1="ME44" data-entity-2="UC26" data-source-line="67" data-uid="lnk62" id="link_ME44_UC26"><path d="M596.3063,981.0579 C597.9394,980.5588 596.2872,981.0637 597.9438,980.5575 C650.9525,964.3575 715.485,944.635 763.37,930" fill="none" id="ME44-backto-UC26" style="stroke:#181818;stroke-width:1;stroke-dasharray:7,7;"/><polygon fill="#181818" points="590.5683,982.8115,600.3444,984.0065,595.3499,981.3502,598.0062,976.3558,590.5683,982.8115" style="stroke:#181818;stroke-width:1;"/><text fill="#000000" font-family="sans-serif" font-size="13" lengthAdjust="spacing" textLength="67.958" x="616.1" y="952.0669">&#171;extends&#187;</text></g><!--reverse link MI45 to UC27--><g class="link" data-entity-1="MI45" data-entity-2="UC27" data-source-line="68" data-uid="lnk63" id="link_MI45_UC27"><path d="M350.7705,821.2009 C353.4998,821.2054 354.3308,821.2068 357.1222,821.2115 C362.705,821.2208 368.4087,821.2303 374.2202,821.2399 C385.8431,821.2593 397.897,821.2794 410.2763,821.3 C509.31,821.465 629.165,821.665 715.77,821.81" fill="none" id="MI45-backto-UC27" style="stroke:#181818;stroke-width:1;stroke-dasharray:7,7;"/><polygon fill="#181818" points="344.7705,821.1909,353.7639,825.2059,349.7705,821.1992,353.7772,817.2059,344.7705,821.1909" style="stroke:#181818;stroke-width:1;"/><text fill="#000000" font-family="sans-serif" font-size="13" lengthAdjust="spacing" textLength="67.958" x="467.1" y="818.0669">&#171;extends&#187;</text></g><!--link UC38 to UC5--><g class="link" data-entity-1="UC38" data-entity-2="UC5" data-source-line="69" data-uid="lnk64" id="link_UC38_UC5"><path d="M147.55,611.79 C129.12,606.11 111.15,597.13 98.1,583 C59.16,540.86 13.75,374.69 49.1,329.5 C73.04,298.9 108.4804,287.8931 145.5004,284.1531" fill="none" id="UC38-to-UC5" style="stroke:#181818;stroke-width:1;stroke-dasharray:7,7;"/><polygon fill="#181818" points="151.47,283.55,142.1135,280.4749,146.4953,284.0526,142.9176,288.4344,151.47,283.55" style="stroke:#181818;stroke-width:1;"/><text fill="#000000" font-family="sans-serif" font-size="13" lengthAdjust="spacing" textLength="67.958" x="22.1" y="342.5669">&#171;extends&#187;</text></g><!--link UC36 to UC1--><g class="link" data-entity-1="UC36" data-entity-2="UC1" data-source-line="70" data-uid="lnk65" id="link_UC36_UC1"><path d="M163.65,684.75 C141.63,679.55 117.68,671.49 98.1,659 C69.51,640.76 60.69,632.38 49.1,600.5 C20.2,520.99 130.7406,462.4728 190.0906,437.1728" fill="none" id="UC36-to-UC1" style="stroke:#181818;stroke-width:1;stroke-dasharray:7,7;"/><polygon fill="#181818" points="195.61,434.82,185.7623,434.6697,191.0105,436.7807,188.8994,442.0289,195.61,434.82" style="stroke:#181818;stroke-width:1;"/><text fill="#000000" font-family="sans-serif" font-size="13" lengthAdjust="spacing" textLength="67.958" x="22.1" y="596.5669">&#171;extends&#187;</text></g><!--link UC24 to UC20--><g class="link" data-entity-1="UC24" data-entity-2="UC20" data-source-line="71" data-uid="lnk66" id="link_UC24_UC20"><path d="M149.84,758.66 C130.47,753.18 111.47,744.05 98.1,729 C49.67,674.47 6,463.33 49.1,404.5 C73.36,371.38 111.7641,359.5791 150.3141,355.4491" fill="none" id="UC24-to-UC20" style="stroke:#181818;stroke-width:1;stroke-dasharray:7,7;"/><polygon fill="#181818" points="156.28,354.81,146.9051,351.7915,151.3084,355.3426,147.7573,359.746,156.28,354.81" style="stroke:#181818;stroke-width:1;"/><text fill="#000000" font-family="sans-serif" font-size="13" lengthAdjust="spacing" textLength="67.958" x="22.1" y="417.5669">&#171;extends&#187;</text></g><!--link UC19 to UC9--><g class="link" data-entity-1="UC19" data-entity-2="UC9" data-source-line="72" data-uid="lnk67" id="link_UC19_UC9"><path d="M148.24,548.11 C112.07,544.02 72.35,532.21 49.1,502.5 C43.06,494.78 20.66,329.88 98.1,249 C114.5,231.87 132.5232,224.2382 155.4032,219.9382" fill="none" id="UC19-to-UC9" style="stroke:#181818;stroke-width:1;stroke-dasharray:7,7;"/><polygon fill="#181818" points="161.3,218.83,151.716,216.5612,156.386,219.7535,153.1937,224.4235,161.3,218.83" style="stroke:#181818;stroke-width:1;"/><text fill="#000000" font-family="sans-serif" font-size="13" lengthAdjust="spacing" textLength="67.958" x="22.1" y="498.5669">&#171;extends&#187;</text></g><!--SRC=[ZLHDYzim4BtxLuYSjeU4-2DEl8J0aYvX3mk5qbFfGIlFkgAA52Iv149_rVw4_MELhAujMJhqfl5xUlDcF2C6hnffWIJjVchKKWb4Ky6p31Cj95fy5WIuXWN22hM2PDa5ar-u0xHuVdzhUoRGKV1NslKI4_h-nj49E4ZC5kYM8TGh85WPCbmlGceiFRBW9oPUCBlxD8X_EnQrVuEU_-F6DlkJSFGLbBKoiq0v9HHB2me-IbI5po4WPKmfarbEe7GY3H7d2mDZVC0zcRpCZ4uay-Jg94xAC9-VgiqjrOa7HJkEjMc56aNBNOhvHKBNS-tnYYgfoFep5nChRrAiayIjHohhL1cFrwaCzFtXHMbf9-Y7A-cngcvPD0m9cvkO5PdS9ZYfrZGnRrvAUdwE4h2S_rRxRRW-6ObmPtKaD17Xe-Afu7KiCjOoiZRfZkCppAUl6xPFEWoynWPpWeSK2LRe67C2p0worIJ1IeIsXJHrqLYl35hq6_un9hn8uhw2tJtpxg0bMnvi8wQpQTqKvDwvSUVbmItT4FGkQlp8x8GBMnVMGRJrgMKTH3ilWtb0lA0C9NT156Ilre5axgcKlgJfW5sV_MfbBQ9xjD_3LGDlrU6GsRV28TiPObsYbHNOn4Zja3n2YieXnJg2yiP1JOZy1G00]--></g></svg>