<svg xmlns="http://www.w3.org/2000/svg" xmlns:xlink="http://www.w3.org/1999/xlink" contentStyleType="text/css" data-diagram-type="DESCRIPTION" height="3193px" preserveAspectRatio="none" style="width:547px;height:3193px;background:#FFFFFF;" version="1.1" viewBox="0 0 547 3193" width="547px" zoomAndPan="magnify"><defs/><g><!--cluster M?dulo Grado--><g class="cluster" data-entity="M.dulo Grado" data-source-line="7" data-uid="ent0005" id="cluster_M.dulo Grado"><path d="M307.04,6 L418.3515,6 A3.75,3.75 0 0 1 420.8515,8.5 L427.8515,28.2969 L470.97,28.2969 A2.5,2.5 0 0 1 473.47,30.7969 L473.47,279.5 A2.5,2.5 0 0 1 470.97,282 L307.04,282 A2.5,2.5 0 0 1 304.54,279.5 L304.54,8.5 A2.5,2.5 0 0 1 307.04,6" fill="none" style="stroke:#000000;stroke-width:1.5;"/><line style="stroke:#000000;stroke-width:1.5;" x1="304.54" x2="427.8515" y1="28.2969" y2="28.2969"/><text fill="#000000" font-family="sans-serif" font-size="14" font-weight="bold" lengthAdjust="spacing" textLength="110.3115" x="308.54" y="20.9951">M&#243;dulo Grado</text></g><!--cluster M?dulo Asignatura--><g class="cluster" data-entity="M.dulo Asignatura" data-source-line="14" data-uid="ent0010" id="cluster_M.dulo Asignatura"><path d="M292.97,306 L443.2122,306 A3.75,3.75 0 0 1 445.7122,308.5 L452.7122,328.2969 L485.04,328.2969 A2.5,2.5 0 0 1 487.54,330.7969 L487.54,599.5 A2.5,2.5 0 0 1 485.04,602 L292.97,602 A2.5,2.5 0 0 1 290.47,599.5 L290.47,308.5 A2.5,2.5 0 0 1 292.97,306" fill="none" style="stroke:#000000;stroke-width:1.5;"/><line style="stroke:#000000;stroke-width:1.5;" x1="290.47" x2="452.7122" y1="328.2969" y2="328.2969"/><text fill="#000000" font-family="sans-serif" font-size="14" font-weight="bold" lengthAdjust="spacing" textLength="149.2422" x="294.47" y="320.9951">M&#243;dulo Asignatura</text></g><!--cluster M?dulo Alumno--><g class="cluster" data-entity="M.dulo Alumno" data-source-line="21" data-uid="ent0015" id="cluster_M.dulo Alumno"><path d="M297.91,626 L421.5125,626 A3.75,3.75 0 0 1 424.0125,628.5 L431.0125,648.2969 L480.09,648.2969 A2.5,2.5 0 0 1 482.59,650.7969 L482.59,978.5 A2.5,2.5 0 0 1 480.09,981 L297.91,981 A2.5,2.5 0 0 1 295.41,978.5 L295.41,628.5 A2.5,2.5 0 0 1 297.91,626" fill="none" style="stroke:#000000;stroke-width:1.5;"/><line style="stroke:#000000;stroke-width:1.5;" x1="295.41" x2="431.0125" y1="648.2969" y2="648.2969"/><text fill="#000000" font-family="sans-serif" font-size="14" font-weight="bold" lengthAdjust="spacing" textLength="122.6025" x="299.41" y="640.9951">M&#243;dulo Alumno</text></g><!--cluster M?dulo Asignaciones--><g class="cluster" data-entity="M.dulo Asignaciones" data-source-line="29" data-uid="ent0021" id="cluster_M.dulo Asignaciones"><path d="M251.56,1005 L419.3022,1005 A3.75,3.75 0 0 1 421.8022,1007.5 L428.8022,1027.2969 L526.45,1027.2969 A2.5,2.5 0 0 1 528.95,1029.7969 L528.95,1273.5 A2.5,2.5 0 0 1 526.45,1276 L251.56,1276 A2.5,2.5 0 0 1 249.06,1273.5 L249.06,1007.5 A2.5,2.5 0 0 1 251.56,1005" fill="none" style="stroke:#000000;stroke-width:1.5;"/><line style="stroke:#000000;stroke-width:1.5;" x1="249.06" x2="428.8022" y1="1027.2969" y2="1027.2969"/><text fill="#000000" font-family="sans-serif" font-size="14" font-weight="bold" lengthAdjust="spacing" textLength="166.7422" x="253.06" y="1019.9951">M&#243;dulo Asignaciones</text></g><!--cluster M?dulo Gesti?n de Preguntas--><g class="cluster" data-entity="M.dulo Gesti.n de Preguntas" data-source-line="35" data-uid="ent0025" id="cluster_M.dulo Gesti.n de Preguntas"><path d="M267.02,1300 L501.5971,1300 A3.75,3.75 0 0 1 504.0971,1302.5 L511.0971,1322.2969 L510.99,1322.2969 A2.5,2.5 0 0 1 513.49,1324.7969 L513.49,1798.5 A2.5,2.5 0 0 1 510.99,1801 L267.02,1801 A2.5,2.5 0 0 1 264.52,1798.5 L264.52,1302.5 A2.5,2.5 0 0 1 267.02,1300" fill="none" style="stroke:#000000;stroke-width:1.5;"/><line style="stroke:#000000;stroke-width:1.5;" x1="264.52" x2="511.0971" y1="1322.2969" y2="1322.2969"/><text fill="#000000" font-family="sans-serif" font-size="14" font-weight="bold" lengthAdjust="spacing" textLength="233.5771" x="268.52" y="1314.9951">M&#243;dulo Gesti&#243;n de Preguntas</text></g><!--cluster M?dulo Configuraci?n General--><g class="cluster" data-entity="M.dulo Configuraci.n General" data-source-line="45" data-uid="ent0033" id="cluster_M.dulo Configuraci.n General"><path d="M261.05,1825 L501.1232,1825 A3.75,3.75 0 0 1 503.6232,1827.5 L510.6232,1847.2969 L516.95,1847.2969 A2.5,2.5 0 0 1 519.45,1849.7969 L519.45,2009.5 A2.5,2.5 0 0 1 516.95,2012 L261.05,2012 A2.5,2.5 0 0 1 258.55,2009.5 L258.55,1827.5 A2.5,2.5 0 0 1 261.05,1825" fill="none" style="stroke:#000000;stroke-width:1.5;"/><line style="stroke:#000000;stroke-width:1.5;" x1="258.55" x2="510.6232" y1="1847.2969" y2="1847.2969"/><text fill="#000000" font-family="sans-serif" font-size="14" font-weight="bold" lengthAdjust="spacing" textLength="239.0732" x="262.55" y="1839.9951">M&#243;dulo Configuraci&#243;n General</text></g><!--cluster M?dulo Examen--><g class="cluster" data-entity="M.dulo Examen" data-source-line="50" data-uid="ent0036" id="cluster_M.dulo Examen"><path d="M295.87,2036 L421.7899,2036 A3.75,3.75 0 0 1 424.2899,2038.5 L431.2899,2058.2969 L482.14,2058.2969 A2.5,2.5 0 0 1 484.64,2060.7969 L484.64,2189.5 A2.5,2.5 0 0 1 482.14,2192 L295.87,2192 A2.5,2.5 0 0 1 293.37,2189.5 L293.37,2038.5 A2.5,2.5 0 0 1 295.87,2036" fill="none" style="stroke:#000000;stroke-width:1.5;"/><line style="stroke:#000000;stroke-width:1.5;" x1="293.37" x2="431.2899" y1="2058.2969" y2="2058.2969"/><text fill="#000000" font-family="sans-serif" font-size="14" font-weight="bold" lengthAdjust="spacing" textLength="124.9199" x="297.37" y="2050.9951">M&#243;dulo Examen</text></g><!--cluster M?dulo Correcci?n--><g class="cluster" data-entity="M.dulo Correcci.n" data-source-line="55" data-uid="ent0039" id="cluster_M.dulo Correcci.n"><path d="M294.11,2216 L442.1168,2216 A3.75,3.75 0 0 1 444.6168,2218.5 L451.6168,2238.2969 L483.9,2238.2969 A2.5,2.5 0 0 1 486.4,2240.7969 L486.4,2302.5 A2.5,2.5 0 0 1 483.9,2305 L294.11,2305 A2.5,2.5 0 0 1 291.61,2302.5 L291.61,2218.5 A2.5,2.5 0 0 1 294.11,2216" fill="none" style="stroke:#000000;stroke-width:1.5;"/><line style="stroke:#000000;stroke-width:1.5;" x1="291.61" x2="451.6168" y1="2238.2969" y2="2238.2969"/><text fill="#000000" font-family="sans-serif" font-size="14" font-weight="bold" lengthAdjust="spacing" textLength="147.0068" x="295.61" y="2230.9951">M&#243;dulo Correcci&#243;n</text></g><!--cluster M?dulo Usuarios Docentes--><g class="cluster" data-entity="M.dulo Usuarios Docentes" data-source-line="59" data-uid="ent0041" id="cluster_M.dulo Usuarios Docentes"><path d="M279.91,2588 L490.9032,2588 A3.75,3.75 0 0 1 493.4032,2590.5 L500.4032,2610.2969 L499.1,2610.2969 A2.5,2.5 0 0 1 501.6,2612.7969 L501.6,2873.5 A2.5,2.5 0 0 1 499.1,2876 L279.91,2876 A2.5,2.5 0 0 1 277.41,2873.5 L277.41,2590.5 A2.5,2.5 0 0 1 279.91,2588" fill="none" style="stroke:#000000;stroke-width:1.5;"/><line style="stroke:#000000;stroke-width:1.5;" x1="277.41" x2="500.4032" y1="2610.2969" y2="2610.2969"/><text fill="#000000" font-family="sans-serif" font-size="14" font-weight="bold" lengthAdjust="spacing" textLength="209.9932" x="281.41" y="2602.9951">M&#243;dulo Usuarios Docentes</text></g><!--cluster M?dulo Gesti?n Licencias(intencion)--><g class="cluster" data-entity="M.dulo Gesti.n Licencias.intencion." data-source-line="66" data-uid="ent0046" id="cluster_M.dulo Gesti.n Licencias.intencion."><path d="M241.06,2900 L528.9164,2900 A3.75,3.75 0 0 1 531.4164,2902.5 L538.4164,2922.2969 L537.95,2922.2969 A2.5,2.5 0 0 1 540.45,2924.7969 L540.45,3183.5 A2.5,2.5 0 0 1 537.95,3186 L241.06,3186 A2.5,2.5 0 0 1 238.56,3183.5 L238.56,2902.5 A2.5,2.5 0 0 1 241.06,2900" fill="none" style="stroke:#000000;stroke-width:1.5;"/><line style="stroke:#000000;stroke-width:1.5;" x1="238.56" x2="538.4164" y1="2922.2969" y2="2922.2969"/><text fill="#000000" font-family="sans-serif" font-size="14" font-weight="bold" lengthAdjust="spacing" textLength="286.8564" x="242.56" y="2914.9951">M&#243;dulo Gesti&#243;n Licencias(intencion)</text></g><!--cluster M?dulo Sesi?n--><g class="cluster" data-entity="M.dulo Sesi.n" data-source-line="73" data-uid="ent0051" id="cluster_M.dulo Sesi.n"><path d="M254.14,2329 L370.264,2329 A3.75,3.75 0 0 1 372.764,2331.5 L379.764,2351.2969 L523.87,2351.2969 A2.5,2.5 0 0 1 526.37,2353.7969 L526.37,2561.5 A2.5,2.5 0 0 1 523.87,2564 L254.14,2564 A2.5,2.5 0 0 1 251.64,2561.5 L251.64,2331.5 A2.5,2.5 0 0 1 254.14,2329" fill="none" style="stroke:#000000;stroke-width:1.5;"/><line style="stroke:#000000;stroke-width:1.5;" x1="251.64" x2="379.764" y1="2351.2969" y2="2351.2969"/><text fill="#000000" font-family="sans-serif" font-size="14" font-weight="bold" lengthAdjust="spacing" textLength="115.124" x="255.64" y="2343.9951">M&#243;dulo Sesi&#243;n</text></g><!--entity UC1--><g class="entity" data-entity="UC1" data-source-line="8" data-uid="ent0006" id="entity_UC1"><ellipse cx="389.0022" cy="251.0044" fill="#F1F1F1" rx="61.3722" ry="14.6744" style="stroke:#181818;stroke-width:0.5;"/><text fill="#000000" font-family="sans-serif" font-size="14" lengthAdjust="spacing" textLength="83.6035" x="347.2004" y="255.6529">Crear grado</text></g><!--entity UC2--><g class="entity" data-entity="UC2" data-source-line="9" data-uid="ent0007" id="entity_UC2"><ellipse cx="388.9977" cy="187.0036" fill="#F1F1F1" rx="56.9977" ry="14.5236" style="stroke:#181818;stroke-width:0.5;"/><text fill="#000000" font-family="sans-serif" font-size="14" lengthAdjust="spacing" textLength="76.3643" x="350.8156" y="191.6521">Ver grados</text></g><!--entity UC3--><g class="entity" data-entity="UC3" data-source-line="10" data-uid="ent0008" id="entity_UC3"><ellipse cx="389.0035" cy="122.9987" fill="#F1F1F1" rx="62.4435" ry="14.8887" style="stroke:#181818;stroke-width:0.5;"/><text fill="#000000" font-family="sans-serif" font-size="14" lengthAdjust="spacing" textLength="86.5703" x="345.7184" y="127.6471">Editar grado</text></g><!--entity UC4--><g class="entity" data-entity="UC4" data-source-line="11" data-uid="ent0009" id="entity_UC4"><ellipse cx="388.9952" cy="57.003" fill="#F1F1F1" rx="68.4652" ry="16.093" style="stroke:#181818;stroke-width:0.5;"/><text fill="#000000" font-family="sans-serif" font-size="14" lengthAdjust="spacing" textLength="102.4844" x="337.753" y="61.6515">Eliminar grado</text></g><!--entity UC5--><g class="entity" data-entity="UC5" data-source-line="15" data-uid="ent0011" id="entity_UC5"><ellipse cx="388.9986" cy="568.9977" fill="#F1F1F1" rx="74.5886" ry="17.3177" style="stroke:#181818;stroke-width:0.5;"/><text fill="#000000" font-family="sans-serif" font-size="14" lengthAdjust="spacing" textLength="117.7285" x="330.1343" y="573.6462">Crear asignatura</text></g><!--entity UC6--><g class="entity" data-entity="UC6" data-source-line="16" data-uid="ent0012" id="entity_UC6"><ellipse cx="389.0032" cy="499.9986" fill="#F1F1F1" rx="71.6432" ry="16.7286" style="stroke:#181818;stroke-width:0.5;"/><text fill="#000000" font-family="sans-serif" font-size="14" lengthAdjust="spacing" textLength="110.4893" x="333.7586" y="504.6471">Ver asignaturas</text></g><!--entity UC7--><g class="entity" data-entity="UC7" data-source-line="17" data-uid="ent0013" id="entity_UC7"><ellipse cx="389.0032" cy="431.0026" fill="#F1F1F1" rx="75.8132" ry="17.5626" style="stroke:#181818;stroke-width:0.5;"/><text fill="#000000" font-family="sans-serif" font-size="14" lengthAdjust="spacing" textLength="120.6953" x="328.6556" y="435.6511">Editar asignatura</text></g><!--entity UC8--><g class="entity" data-entity="UC8" data-source-line="18" data-uid="ent0014" id="entity_UC8"><ellipse cx="389.0027" cy="359.9965" fill="#F1F1F1" rx="82.5327" ry="18.9065" style="stroke:#181818;stroke-width:0.5;"/><text fill="#000000" font-family="sans-serif" font-size="14" lengthAdjust="spacing" textLength="136.6094" x="320.698" y="364.645">Eliminar asignatura</text></g><!--entity UC9--><g class="entity" data-entity="UC9" data-source-line="22" data-uid="ent0016" id="entity_UC9"><ellipse cx="389.0014" cy="949.0023" fill="#F1F1F1" rx="65.7114" ry="15.5423" style="stroke:#181818;stroke-width:0.5;"/><text fill="#000000" font-family="sans-serif" font-size="14" lengthAdjust="spacing" textLength="95.3477" x="341.3276" y="953.6507">Crear alumno</text></g><!--entity UC10--><g class="entity" data-entity="UC10" data-source-line="23" data-uid="ent0017" id="entity_UC10"><ellipse cx="388.9958" cy="883.0012" fill="#F1F1F1" rx="63.0058" ry="15.0012" style="stroke:#181818;stroke-width:0.5;"/><text fill="#000000" font-family="sans-serif" font-size="14" lengthAdjust="spacing" textLength="88.1084" x="344.9416" y="887.6496">Ver alumnos</text></g><!--entity UC11--><g class="entity" data-entity="UC11" data-source-line="24" data-uid="ent0018" id="entity_UC11"><ellipse cx="388.9964" cy="816.9993" fill="#F1F1F1" rx="66.8464" ry="15.7693" style="stroke:#181818;stroke-width:0.5;"/><text fill="#000000" font-family="sans-serif" font-size="14" lengthAdjust="spacing" textLength="98.3145" x="339.8391" y="821.6477">Editar alumno</text></g><!--entity UC12--><g class="entity" data-entity="UC12" data-source-line="25" data-uid="ent0019" id="entity_UC12"><ellipse cx="388.9967" cy="749.0013" fill="#F1F1F1" rx="73.1567" ry="17.0313" style="stroke:#181818;stroke-width:0.5;"/><text fill="#000000" font-family="sans-serif" font-size="14" lengthAdjust="spacing" textLength="114.2285" x="331.8825" y="753.6498">Eliminar alumno</text></g><!--entity UC19--><g class="entity" data-entity="UC19" data-source-line="26" data-uid="ent0020" id="entity_UC19"><ellipse cx="389.0004" cy="678.9981" fill="#F1F1F1" rx="77.5904" ry="17.9181" style="stroke:#181818;stroke-width:0.5;"/><text fill="#000000" font-family="sans-serif" font-size="14" lengthAdjust="spacing" textLength="124.9609" x="326.52" y="683.6465">Importar alumnos</text></g><!--entity UC13--><g class="entity" data-entity="UC13" data-source-line="30" data-uid="ent0022" id="entity_UC13"><ellipse cx="389.0043" cy="1235.9969" fill="#F1F1F1" rx="108.0343" ry="24.0069" style="stroke:#181818;stroke-width:0.5;"/><text fill="#000000" font-family="sans-serif" font-size="14" lengthAdjust="spacing" textLength="193.6211" x="292.1938" y="1240.6453">Actualizar alumno de grado</text></g><!--entity UC15--><g class="entity" data-entity="UC15" data-source-line="31" data-uid="ent0023" id="entity_UC15"><ellipse cx="389.0043" cy="1152.9969" fill="#F1F1F1" rx="108.0343" ry="24.0069" style="stroke:#181818;stroke-width:0.5;"/><text fill="#000000" font-family="sans-serif" font-size="14" lengthAdjust="spacing" textLength="193.6211" x="292.1938" y="1157.6453">Actualizar grado de alumno</text></g><!--entity UC17--><g class="entity" data-entity="UC17" data-source-line="32" data-uid="ent0024" id="entity_UC17"><ellipse cx="389.0021" cy="1066.9984" fill="#F1F1F1" rx="123.9421" ry="27.1884" style="stroke:#181818;stroke-width:0.5;"/><text fill="#000000" font-family="sans-serif" font-size="14" lengthAdjust="spacing" textLength="227.7461" x="275.1291" y="1071.6469">Actualizar alumno de asignatura</text></g><!--entity UC20--><g class="entity" data-entity="UC20" data-source-line="36" data-uid="ent0026" id="entity_UC20"><ellipse cx="389.0021" cy="1769.0004" fill="#F1F1F1" rx="70.2021" ry="16.4404" style="stroke:#181818;stroke-width:0.5;"/><text fill="#000000" font-family="sans-serif" font-size="14" lengthAdjust="spacing" textLength="106.8867" x="335.5587" y="1773.6489">Crear pregunta</text></g><!--entity UC21--><g class="entity" data-entity="UC21" data-source-line="37" data-uid="ent0027" id="entity_UC21"><ellipse cx="389.0009" cy="1702.0022" fill="#F1F1F1" rx="67.3609" ry="15.8722" style="stroke:#181818;stroke-width:0.5;"/><text fill="#000000" font-family="sans-serif" font-size="14" lengthAdjust="spacing" textLength="99.6475" x="339.1772" y="1706.6506">Ver preguntas</text></g><!--entity UC30--><g class="entity" data-entity="UC30" data-source-line="38" data-uid="ent0028" id="entity_UC30"><ellipse cx="389.001" cy="1635.9962" fill="#F1F1F1" rx="64.581" ry="15.3162" style="stroke:#181818;stroke-width:0.5;"/><text fill="#000000" font-family="sans-serif" font-size="14" lengthAdjust="spacing" textLength="92.3535" x="342.8242" y="1640.6446">Ver pregunta</text></g><!--entity UC22--><g class="entity" data-entity="UC22" data-source-line="39" data-uid="ent0029" id="entity_UC22"><ellipse cx="388.9977" cy="1568.9975" fill="#F1F1F1" rx="71.3877" ry="16.6775" style="stroke:#181818;stroke-width:0.5;"/><text fill="#000000" font-family="sans-serif" font-size="14" lengthAdjust="spacing" textLength="109.8535" x="334.0709" y="1573.646">Editar pregunta</text></g><!--entity UC23--><g class="entity" data-entity="UC23" data-source-line="40" data-uid="ent0030" id="entity_UC23"><ellipse cx="388.9986" cy="1498.9957" fill="#F1F1F1" rx="77.9286" ry="17.9857" style="stroke:#181818;stroke-width:0.5;"/><text fill="#000000" font-family="sans-serif" font-size="14" lengthAdjust="spacing" textLength="125.7676" x="326.1148" y="1503.6442">Eliminar pregunta</text></g><!--entity UC24--><g class="entity" data-entity="UC24" data-source-line="41" data-uid="ent0031" id="entity_UC24"><ellipse cx="388.9958" cy="1426.9972" fill="#F1F1F1" rx="82.4858" ry="18.8972" style="stroke:#181818;stroke-width:0.5;"/><text fill="#000000" font-family="sans-serif" font-size="14" lengthAdjust="spacing" textLength="136.5" x="320.7458" y="1431.6456">Importar preguntas</text></g><!--entity UC25--><g class="entity" data-entity="UC25" data-source-line="42" data-uid="ent0032" id="entity_UC25"><ellipse cx="389.003" cy="1354.0026" fill="#F1F1F1" rx="82.213" ry="18.8426" style="stroke:#181818;stroke-width:0.5;"/><text fill="#000000" font-family="sans-serif" font-size="14" lengthAdjust="spacing" textLength="135.8643" x="321.0709" y="1358.651">Exportar preguntas</text></g><!--entity UC26--><g class="entity" data-entity="UC26" data-source-line="46" data-uid="ent0034" id="entity_UC26"><ellipse cx="389.0035" cy="1971.0007" fill="#F1F1F1" rx="114.1535" ry="25.2307" style="stroke:#181818;stroke-width:0.5;"/><text fill="#000000" font-family="sans-serif" font-size="14" lengthAdjust="spacing" textLength="206.835" x="285.586" y="1975.6491">Exportar configuraci&#243;n global</text></g><!--entity UC27--><g class="entity" data-entity="UC27" data-source-line="47" data-uid="ent0035" id="entity_UC27"><ellipse cx="388.9993" cy="1884.9999" fill="#F1F1F1" rx="114.4493" ry="25.2899" style="stroke:#181818;stroke-width:0.5;"/><text fill="#000000" font-family="sans-serif" font-size="14" lengthAdjust="spacing" textLength="207.4707" x="285.264" y="1889.6483">Importar configuraci&#243;n global</text></g><!--entity UC28--><g class="entity" data-entity="UC28" data-source-line="51" data-uid="ent0037" id="entity_UC28"><ellipse cx="389.0001" cy="2159" fill="#F1F1F1" rx="73.6501" ry="17.13" style="stroke:#181818;stroke-width:0.5;"/><text fill="#000000" font-family="sans-serif" font-size="14" lengthAdjust="spacing" textLength="115.4385" x="331.2809" y="2163.6485">Crear examenes</text></g><!--entity UC29--><g class="entity" data-entity="UC29" data-source-line="52" data-uid="ent0038" id="entity_UC29"><ellipse cx="389.0047" cy="2088.9969" fill="#F1F1F1" rx="79.6347" ry="18.3269" style="stroke:#181818;stroke-width:0.5;"/><text fill="#000000" font-family="sans-serif" font-size="14" lengthAdjust="spacing" textLength="129.8145" x="324.0975" y="2093.6454">Asignar examenes</text></g><!--entity UC31--><g class="entity" data-entity="UC31" data-source-line="56" data-uid="ent0040" id="entity_UC31"><ellipse cx="388.9967" cy="2269.9993" fill="#F1F1F1" rx="81.3967" ry="18.6793" style="stroke:#181818;stroke-width:0.5;"/><text fill="#000000" font-family="sans-serif" font-size="14" lengthAdjust="spacing" textLength="133.957" x="322.0182" y="2274.6478">Corregir ex&#225;menes</text></g><!--entity UC32--><g class="entity" data-entity="UC32" data-source-line="60" data-uid="ent0042" id="entity_UC32"><ellipse cx="389.0007" cy="2706.0001" fill="#F1F1F1" rx="68.0007" ry="16.0001" style="stroke:#181818;stroke-width:0.5;"/><text fill="#000000" font-family="sans-serif" font-size="14" lengthAdjust="spacing" textLength="101.2949" x="338.3532" y="2710.6486">Crear profesor</text></g><!--entity UC33--><g class="entity" data-entity="UC33" data-source-line="61" data-uid="ent0043" id="entity_UC33"><ellipse cx="388.9974" cy="2638.9975" fill="#F1F1F1" rx="68.5374" ry="16.1075" style="stroke:#181818;stroke-width:0.5;"/><text fill="#000000" font-family="sans-serif" font-size="14" lengthAdjust="spacing" textLength="102.6689" x="337.663" y="2643.6459">Ver profesores</text></g><!--entity UC34--><g class="entity" data-entity="UC34" data-source-line="62" data-uid="ent0044" id="entity_UC34"><ellipse cx="389.0031" cy="2844.0026" fill="#F1F1F1" rx="69.1631" ry="16.2326" style="stroke:#181818;stroke-width:0.5;"/><text fill="#000000" font-family="sans-serif" font-size="14" lengthAdjust="spacing" textLength="104.2617" x="336.8722" y="2848.6511">Editar profesor</text></g><!--entity UC35--><g class="entity" data-entity="UC35" data-source-line="63" data-uid="ent0045" id="entity_UC35"><ellipse cx="388.9981" cy="2774.9996" fill="#F1F1F1" rx="75.5981" ry="17.5196" style="stroke:#181818;stroke-width:0.5;"/><text fill="#000000" font-family="sans-serif" font-size="14" lengthAdjust="spacing" textLength="120.1758" x="328.9102" y="2779.6481">Eliminar profesor</text></g><!--entity UC36--><g class="entity" data-entity="UC36" data-source-line="67" data-uid="ent0047" id="entity_UC36"><ellipse cx="388.9956" cy="3016.9991" fill="#F1F1F1" rx="72.6956" ry="16.9391" style="stroke:#181818;stroke-width:0.5;"/><text fill="#000000" font-family="sans-serif" font-size="14" lengthAdjust="spacing" textLength="113.0938" x="332.4487" y="3021.6476">Adquirir licencia</text></g><!--entity UC37--><g class="entity" data-entity="UC37" data-source-line="68" data-uid="ent0048" id="entity_UC37"><ellipse cx="388.9973" cy="2950.0035" fill="#F1F1F1" rx="63.2673" ry="15.0535" style="stroke:#181818;stroke-width:0.5;"/><text fill="#000000" font-family="sans-serif" font-size="14" lengthAdjust="spacing" textLength="88.8193" x="344.5876" y="2954.6519">Ver licencias</text></g><!--entity UC38--><g class="entity" data-entity="UC38" data-source-line="69" data-uid="ent0049" id="entity_UC38"><ellipse cx="389.0005" cy="3154.0041" fill="#F1F1F1" rx="67.1205" ry="15.8241" style="stroke:#181818;stroke-width:0.5;"/><text fill="#000000" font-family="sans-serif" font-size="14" lengthAdjust="spacing" textLength="99.0254" x="339.4878" y="3158.6525">Editar licencia</text></g><!--entity UC39--><g class="entity" data-entity="UC39" data-source-line="70" data-uid="ent0050" id="entity_UC39"><ellipse cx="388.9964" cy="3085.9993" fill="#F1F1F1" rx="73.4464" ry="17.0893" style="stroke:#181818;stroke-width:0.5;"/><text fill="#000000" font-family="sans-serif" font-size="14" lengthAdjust="spacing" textLength="114.9395" x="331.5267" y="3090.6477">Eliminar licencia</text></g><!--entity UC40--><g class="entity" data-entity="UC40" data-source-line="74" data-uid="ent0052" id="entity_UC40"><ellipse cx="388.9979" cy="2456.0036" fill="#F1F1F1" rx="121.3679" ry="26.6736" style="stroke:#181818;stroke-width:0.5;"/><text fill="#000000" font-family="sans-serif" font-size="14" lengthAdjust="spacing" textLength="222.2705" x="277.8627" y="2460.652">Cerrar sesi&#243;n autom&#225;ticamente</text></g><!--entity UC41--><g class="entity" data-entity="UC41" data-source-line="75" data-uid="ent0053" id="entity_UC41"><ellipse cx="389.0011" cy="2379.0042" fill="#F1F1F1" rx="64.3711" ry="15.2742" style="stroke:#181818;stroke-width:0.5;"/><text fill="#000000" font-family="sans-serif" font-size="14" lengthAdjust="spacing" textLength="91.793" x="343.1046" y="2383.6527">Iniciar sesi&#243;n</text></g><!--entity UC42--><g class="entity" data-entity="UC42" data-source-line="76" data-uid="ent0054" id="entity_UC42"><ellipse cx="389.0046" cy="2533.0009" fill="#F1F1F1" rx="64.9046" ry="15.3809" style="stroke:#181818;stroke-width:0.5;"/><text fill="#000000" font-family="sans-serif" font-size="14" lengthAdjust="spacing" textLength="93.2148" x="342.3972" y="2537.6494">Cerrar sesi&#243;n</text></g><!--entity doc--><g class="entity" data-entity="doc" data-source-line="3" data-uid="ent0002" id="entity_doc"><ellipse cx="100.5259" cy="1123.35" fill="#F1F1F1" rx="8" ry="8" style="stroke:#181818;stroke-width:0.5;"/><path d="M100.5259,1131.35 L100.5259,1158.35 M87.5259,1139.35 L113.5259,1139.35 M100.5259,1158.35 L87.5259,1173.35 M100.5259,1158.35 L113.5259,1173.35" fill="none" style="stroke:#181818;stroke-width:0.5;"/><text fill="#000000" font-family="sans-serif" font-size="14" lengthAdjust="spacing" textLength="58.6318" x="71.21" y="1187.8451">Docente</text></g><!--entity admin--><g class="entity" data-entity="admin" data-source-line="4" data-uid="ent0003" id="entity_admin"><ellipse cx="100.5308" cy="2779.35" fill="#F1F1F1" rx="8" ry="8" style="stroke:#181818;stroke-width:0.5;"/><path d="M100.5308,2787.35 L100.5308,2814.35 M87.5308,2795.35 L113.5308,2795.35 M100.5308,2814.35 L87.5308,2829.35 M100.5308,2814.35 L113.5308,2829.35" fill="none" style="stroke:#181818;stroke-width:0.5;"/><text fill="#000000" font-family="sans-serif" font-size="14" lengthAdjust="spacing" textLength="189.0615" x="6" y="2843.8451">Administrador Institucional</text></g><!--entity tiempo--><g class="entity" data-entity="tiempo" data-source-line="5" data-uid="ent0004" id="entity_tiempo"><ellipse cx="100.5323" cy="2426.35" fill="#F1F1F1" rx="8" ry="8" style="stroke:#181818;stroke-width:0.5;"/><path d="M100.5323,2434.35 L100.5323,2461.35 M87.5323,2442.35 L113.5323,2442.35 M100.5323,2461.35 L87.5323,2476.35 M100.5323,2461.35 L113.5323,2476.35" fill="none" style="stroke:#181818;stroke-width:0.5;"/><text fill="#000000" font-family="sans-serif" font-size="14" lengthAdjust="spacing" textLength="52.1445" x="74.46" y="2490.8451">Tiempo</text></g><!--link doc to UC1--><g class="link" data-entity-1="doc" data-entity-2="UC1" data-source-line="79" data-uid="lnk55" id="link_doc_UC1"><path d="M102.83,1114.6 C108.46,968.98 134.93,452.64 230.56,325 C257.18,289.47 299.3521,271.9212 335.3721,262.0812" fill="none" id="doc-to-UC1" style="stroke:#181818;stroke-width:1;"/><polygon fill="#181818" points="341.16,260.5,331.424,259.0131,336.3367,261.8176,333.5322,266.7303,341.16,260.5" style="stroke:#181818;stroke-width:1;"/></g><!--link doc to UC2--><g class="link" data-entity-1="doc" data-entity-2="UC2" data-source-line="80" data-uid="lnk56" id="link_doc_UC2"><path d="M101.17,1114.42 C100.51,955.21 106.34,351.33 230.56,219 C256.42,191.44 293.0217,184.2314 327.3917,183.4214" fill="none" id="doc-to-UC2" style="stroke:#181818;stroke-width:1;"/><polygon fill="#181818" points="333.39,183.28,324.2983,179.4932,328.3914,183.3978,324.4867,187.4909,333.39,183.28" style="stroke:#181818;stroke-width:1;"/></g><!--link doc to UC3--><g class="link" data-entity-1="doc" data-entity-2="UC3" data-source-line="81" data-uid="lnk57" id="link_doc_UC3"><path d="M103.9,1114.36 C114.95,939.38 163.8,226.74 230.56,155 C254.97,128.76 288.5554,121.0552 321.9154,119.6352" fill="none" id="doc-to-UC3" style="stroke:#181818;stroke-width:1;"/><polygon fill="#181818" points="327.91,119.38,318.748,115.7664,322.9145,119.5926,319.0883,123.7591,327.91,119.38" style="stroke:#181818;stroke-width:1;"/></g><!--link doc to UC4--><g class="link" data-entity-1="doc" data-entity-2="UC4" data-source-line="82" data-uid="lnk58" id="link_doc_UC4"><path d="M103.6,1114.36 C113.68,932.6 160.03,168.31 230.56,91 C253.17,66.21 283.1997,57.6759 315.0797,55.0859" fill="none" id="doc-to-UC4" style="stroke:#181818;stroke-width:1;"/><polygon fill="#181818" points="321.06,54.6,311.7657,51.3419,316.0764,55.0049,312.4135,59.3156,321.06,54.6" style="stroke:#181818;stroke-width:1;"/></g><!--link doc to UC5--><g class="link" data-entity-1="doc" data-entity-2="UC5" data-source-line="83" data-uid="lnk59" id="link_doc_UC5"><path d="M100.81,1114.41 C101.1,1022.51 113.99,787.71 230.56,645 C257.25,612.32 295.6539,594.5537 330.4139,583.4637" fill="none" id="doc-to-UC5" style="stroke:#181818;stroke-width:1;"/><polygon fill="#181818" points="336.13,581.64,326.34,580.5648,331.3666,583.1598,328.7716,588.1863,336.13,581.64" style="stroke:#181818;stroke-width:1;"/></g><!--link doc to UC6--><g class="link" data-entity-1="doc" data-entity-2="UC6" data-source-line="84" data-uid="lnk60" id="link_doc_UC6"><path d="M104.19,1114.36 C113.4,992.14 147.99,617.16 230.56,534 C253.02,511.38 280.7341,502.7987 311.1841,499.5387" fill="none" id="doc-to-UC6" style="stroke:#181818;stroke-width:1;"/><polygon fill="#181818" points="317.15,498.9,307.7753,495.8808,312.1784,499.4323,308.6269,503.8353,317.15,498.9" style="stroke:#181818;stroke-width:1;"/></g><!--link doc to UC7--><g class="link" data-entity-1="doc" data-entity-2="UC7" data-source-line="85" data-uid="lnk61" id="link_doc_UC7"><path d="M103.35,1114.37 C110.29,983.54 139.53,560.09 230.56,466 C251.78,444.06 277.5192,435.2271 306.9192,431.4371" fill="none" id="doc-to-UC7" style="stroke:#181818;stroke-width:1;"/><polygon fill="#181818" points="312.87,430.67,303.4324,427.8535,307.911,431.3093,304.4553,435.7879,312.87,430.67" style="stroke:#181818;stroke-width:1;"/></g><!--link doc to UC8--><g class="link" data-entity-1="doc" data-entity-2="UC8" data-source-line="86" data-uid="lnk62" id="link_doc_UC8"><path d="M102.63,1114.41 C107.41,975.2 130.83,501.47 230.56,396 C250.01,375.42 272.7087,366.4486 300.2187,361.9486" fill="none" id="doc-to-UC8" style="stroke:#181818;stroke-width:1;"/><polygon fill="#181818" points="306.14,360.98,296.6123,358.4853,301.2056,361.7872,297.9038,366.3804,306.14,360.98" style="stroke:#181818;stroke-width:1;"/></g><!--link doc to UC9--><g class="link" data-entity-1="doc" data-entity-2="UC9" data-source-line="87" data-uid="lnk63" id="link_doc_UC9"><path d="M130.11,1118.5 C154.62,1090.46 192.01,1051.23 230.56,1024 C268.89,996.93 312.9313,977.3233 346.1313,964.3533" fill="none" id="doc-to-UC9" style="stroke:#181818;stroke-width:1;"/><polygon fill="#181818" points="351.72,962.17,341.8815,961.7191,347.0628,963.9894,344.7925,969.1707,351.72,962.17" style="stroke:#181818;stroke-width:1;"/></g><!--link doc to UC10--><g class="link" data-entity-1="doc" data-entity-2="UC10" data-source-line="88" data-uid="lnk64" id="link_doc_UC10"><path d="M111.4,1114.71 C127.2,1061.44 163.45,965.9 230.56,916 C257.79,895.75 288.6633,887.9209 319.8733,884.6209" fill="none" id="doc-to-UC10" style="stroke:#181818;stroke-width:1;"/><polygon fill="#181818" points="325.84,883.99,316.4693,880.9585,320.8677,884.5157,317.3105,888.9142,325.84,883.99" style="stroke:#181818;stroke-width:1;"/></g><!--link doc to UC11--><g class="link" data-entity-1="doc" data-entity-2="UC11" data-source-line="89" data-uid="lnk65" id="link_doc_UC11"><path d="M106.46,1114.4 C116.92,1049.29 147.59,918.12 230.56,850 C255.92,829.18 285.2039,821.157 315.9239,817.877" fill="none" id="doc-to-UC11" style="stroke:#181818;stroke-width:1;"/><polygon fill="#181818" points="321.89,817.24,312.5162,814.2181,316.9183,817.7708,313.3655,822.1729,321.89,817.24" style="stroke:#181818;stroke-width:1;"/></g><!--link doc to UC12--><g class="link" data-entity-1="doc" data-entity-2="UC12" data-source-line="90" data-uid="lnk66" id="link_doc_UC12"><path d="M103.21,1114.53 C108.67,1039.13 131.89,871.69 230.56,784 C253.68,763.44 280.2334,754.9091 309.7034,750.9491" fill="none" id="doc-to-UC12" style="stroke:#181818;stroke-width:1;"/><polygon fill="#181818" points="315.65,750.15,306.1975,747.3842,310.6945,750.8159,307.2629,755.313,315.65,750.15" style="stroke:#181818;stroke-width:1;"/></g><!--link doc to UC13--><g class="link" data-entity-1="doc" data-entity-2="UC13" data-source-line="91" data-uid="lnk67" id="link_doc_UC13"><path d="M130.33,1162.92 C156.38,1171.77 195.85,1184.84 230.56,1195 C258.07,1203.05 282.7078,1209.6805 309.4378,1216.5305" fill="none" id="doc-to-UC13" style="stroke:#181818;stroke-width:1;"/><polygon fill="#181818" points="315.25,1218.02,307.5247,1211.911,310.4065,1216.7788,305.5387,1219.6606,315.25,1218.02" style="stroke:#181818;stroke-width:1;"/></g><!--link doc to UC15--><g class="link" data-entity-1="doc" data-entity-2="UC15" data-source-line="92" data-uid="lnk68" id="link_doc_UC15"><path d="M130.31,1153 C165.36,1153 220.56,1153 274.53,1153" fill="none" id="doc-to-UC15" style="stroke:#181818;stroke-width:1;"/><polygon fill="#181818" points="280.53,1153,271.53,1149,275.53,1153,271.53,1157,280.53,1153" style="stroke:#181818;stroke-width:1;"/></g><!--link doc to UC17--><g class="link" data-entity-1="doc" data-entity-2="UC17" data-source-line="93" data-uid="lnk69" id="link_doc_UC17"><path d="M130.12,1143.31 C156.19,1134.57 195.83,1121.5 230.56,1111 C256.23,1103.24 278.6191,1096.8167 303.9491,1089.7767" fill="none" id="doc-to-UC17" style="stroke:#181818;stroke-width:1;"/><polygon fill="#181818" points="309.73,1088.17,299.9876,1086.7261,304.9126,1089.5089,302.1298,1094.4339,309.73,1088.17" style="stroke:#181818;stroke-width:1;"/></g><!--link doc to UC19--><g class="link" data-entity-1="doc" data-entity-2="UC19" data-source-line="94" data-uid="lnk70" id="link_doc_UC19"><path d="M100.69,1114.43 C101.07,1028.9 114.65,822.38 230.56,714 C252.14,693.82 276.7338,685.2025 305.1738,681.0225" fill="none" id="doc-to-UC19" style="stroke:#181818;stroke-width:1;"/><polygon fill="#181818" points="311.11,680.15,301.624,677.5012,306.1631,680.8771,302.7873,685.4162,311.11,680.15" style="stroke:#181818;stroke-width:1;"/></g><!--link doc to UC20--><g class="link" data-entity-1="doc" data-entity-2="UC20" data-source-line="95" data-uid="lnk71" id="link_doc_UC20"><path d="M104.72,1191.4 C115.25,1308.46 152.68,1657.55 230.56,1735 C253.46,1757.78 281.7718,1766.3026 312.5118,1769.4826" fill="none" id="doc-to-UC20" style="stroke:#181818;stroke-width:1;"/><polygon fill="#181818" points="318.48,1770.1,309.9394,1765.1951,313.5065,1769.5855,309.1162,1773.1527,318.48,1770.1" style="stroke:#181818;stroke-width:1;"/></g><!--link doc to UC21--><g class="link" data-entity-1="doc" data-entity-2="UC21" data-source-line="96" data-uid="lnk72" id="link_doc_UC21"><path d="M105.9,1191.64 C118.93,1299.79 160.94,1602.01 230.56,1669 C254.5,1692.04 284.2331,1700.274 315.5931,1703.034" fill="none" id="doc-to-UC21" style="stroke:#181818;stroke-width:1;"/><polygon fill="#181818" points="321.57,1703.56,312.9553,1698.7864,316.5893,1703.1216,312.254,1706.7556,321.57,1703.56" style="stroke:#181818;stroke-width:1;"/></g><!--link doc to UC22--><g class="link" data-entity-1="doc" data-entity-2="UC22" data-source-line="97" data-uid="lnk73" id="link_doc_UC22"><path d="M102.72,1191.5 C107.29,1268.7 128.96,1442.8 230.56,1534 C254.1,1555.14 281.5873,1563.6782 311.5973,1567.4682" fill="none" id="doc-to-UC22" style="stroke:#181818;stroke-width:1;"/><polygon fill="#181818" points="317.55,1568.22,309.1221,1563.1239,312.5894,1567.5935,308.1197,1571.0608,317.55,1568.22" style="stroke:#181818;stroke-width:1;"/></g><!--link doc to UC23--><g class="link" data-entity-1="doc" data-entity-2="UC23" data-source-line="98" data-uid="lnk74" id="link_doc_UC23"><path d="M106.19,1191.52 C116.3,1257.57 146.55,1392.16 230.56,1463 C253.06,1481.98 277.677,1490.4916 305.857,1495.0516" fill="none" id="doc-to-UC23" style="stroke:#181818;stroke-width:1;"/><polygon fill="#181818" points="311.78,1496.01,303.5345,1490.6237,306.8442,1495.2113,302.2566,1498.521,311.78,1496.01" style="stroke:#181818;stroke-width:1;"/></g><!--link doc to UC24--><g class="link" data-entity-1="doc" data-entity-2="UC24" data-source-line="99" data-uid="lnk75" id="link_doc_UC24"><path d="M111.7,1191.51 C127.77,1244.61 164.25,1339.43 230.56,1390 C253.11,1407.2 276.4718,1415.4794 303.6418,1420.5494" fill="none" id="doc-to-UC24" style="stroke:#181818;stroke-width:1;"/><polygon fill="#181818" points="309.54,1421.65,301.4265,1416.0669,304.6248,1420.7328,299.959,1423.9312,309.54,1421.65" style="stroke:#181818;stroke-width:1;"/></g><!--link doc to UC25--><g class="link" data-entity-1="doc" data-entity-2="UC25" data-source-line="100" data-uid="lnk76" id="link_doc_UC25"><path d="M130.26,1185.37 C155.02,1211.98 192.65,1249.47 230.56,1276 C267.17,1301.63 307.919,1321.1209 340.799,1335.1109" fill="none" id="doc-to-UC25" style="stroke:#181818;stroke-width:1;"/><polygon fill="#181818" points="346.32,1337.46,339.6046,1330.2556,341.7192,1335.5024,336.4724,1337.617,346.32,1337.46" style="stroke:#181818;stroke-width:1;"/></g><!--link doc to UC26--><g class="link" data-entity-1="doc" data-entity-2="UC26" data-source-line="101" data-uid="lnk77" id="link_doc_UC26"><path d="M102.61,1191.38 C107.35,1332.13 130.79,1817.54 230.56,1928 C244.8,1943.77 258.5007,1952.1449 278.8307,1958.7149" fill="none" id="doc-to-UC26" style="stroke:#181818;stroke-width:1;"/><polygon fill="#181818" points="284.54,1960.56,277.2061,1953.9862,279.7823,1959.0225,274.7461,1961.5986,284.54,1960.56" style="stroke:#181818;stroke-width:1;"/></g><!--link doc to UC27--><g class="link" data-entity-1="doc" data-entity-2="UC27" data-source-line="102" data-uid="lnk78" id="link_doc_UC27"><path d="M104.9,1191.64 C116.39,1315.85 157.39,1702.45 230.56,1801 C252.72,1830.85 283.1523,1848.8846 315.1223,1862.0546" fill="none" id="doc-to-UC27" style="stroke:#181818;stroke-width:1;"/><polygon fill="#181818" points="320.67,1864.34,313.872,1857.2135,316.0469,1862.4355,310.8249,1864.6104,320.67,1864.34" style="stroke:#181818;stroke-width:1;"/></g><!--link doc to UC28--><g class="link" data-entity-1="doc" data-entity-2="UC28" data-source-line="103" data-uid="lnk79" id="link_doc_UC28"><path d="M100.98,1191.43 C99.48,1354.31 102.16,1985.79 230.56,2125 C251.98,2148.23 279.203,2156.9417 309.593,2160.1417" fill="none" id="doc-to-UC28" style="stroke:#181818;stroke-width:1;"/><polygon fill="#181818" points="315.56,2160.77,307.0284,2155.8495,310.5875,2160.2464,306.1906,2163.8055,315.56,2160.77" style="stroke:#181818;stroke-width:1;"/></g><!--link doc to UC29--><g class="link" data-entity-1="doc" data-entity-2="UC29" data-source-line="104" data-uid="lnk80" id="link_doc_UC29"><path d="M102.66,1191.5 C107.71,1340.59 132.55,1878.28 230.56,2012 C254.84,2045.13 291.5865,2062.8979 326.2965,2074.0279" fill="none" id="doc-to-UC29" style="stroke:#181818;stroke-width:1;"/><polygon fill="#181818" points="332.01,2075.86,324.6612,2069.3029,327.2488,2074.3333,322.2184,2076.9209,332.01,2075.86" style="stroke:#181818;stroke-width:1;"/></g><!--link doc to UC31--><g class="link" data-entity-1="doc" data-entity-2="UC31" data-source-line="105" data-uid="lnk81" id="link_doc_UC31"><path d="M101.56,1191.54 C102.39,1359.5 113.13,2026.54 230.56,2192 C254.3,2225.46 290.8535,2243.4365 325.6135,2254.7265" fill="none" id="doc-to-UC31" style="stroke:#181818;stroke-width:1;"/><polygon fill="#181818" points="331.32,2256.58,323.9958,2249.9954,326.5645,2255.0354,321.5245,2257.6041,331.32,2256.58" style="stroke:#181818;stroke-width:1;"/></g><!--link doc to UC41--><g class="link" data-entity-1="doc" data-entity-2="UC41" data-source-line="106" data-uid="lnk82" id="link_doc_UC41"><path d="M103.62,1191.36 C114.21,1380.93 164.17,2212.3 230.56,2305 C255.88,2340.36 296.7434,2357.7642 332.7234,2367.6242" fill="none" id="doc-to-UC41" style="stroke:#181818;stroke-width:1;"/><polygon fill="#181818" points="338.51,2369.21,330.8872,2362.9736,333.6878,2367.8885,328.7728,2370.6891,338.51,2369.21" style="stroke:#181818;stroke-width:1;"/></g><!--link doc to UC42--><g class="link" data-entity-1="doc" data-entity-2="UC42" data-source-line="107" data-uid="lnk83" id="link_doc_UC42"><path d="M103.93,1191.35 C117.48,1405.9 185.6,2449.75 230.56,2500 C253.93,2526.12 286.2291,2534.2293 319.1991,2536.0493" fill="none" id="doc-to-UC42" style="stroke:#181818;stroke-width:1;"/><polygon fill="#181818" points="325.19,2536.38,316.4242,2531.89,320.1976,2536.1044,315.9832,2539.8779,325.19,2536.38" style="stroke:#181818;stroke-width:1;"/></g><!--link admin to UC32--><g class="link" data-entity-1="admin" data-entity-2="UC32" data-source-line="109" data-uid="lnk84" id="link_admin_UC32"><path d="M165.2,2770.43 C185.54,2759.35 208.5,2748.1 230.56,2740 C262.71,2728.19 294.2445,2720.9606 324.5345,2715.5206" fill="none" id="admin-to-UC32" style="stroke:#181818;stroke-width:1;"/><polygon fill="#181818" points="330.44,2714.46,320.8747,2712.1139,325.5187,2715.3438,322.2888,2719.9879,330.44,2714.46" style="stroke:#181818;stroke-width:1;"/></g><!--link admin to UC33--><g class="link" data-entity-1="admin" data-entity-2="UC33" data-source-line="110" data-uid="lnk85" id="link_admin_UC33"><path d="M127.36,2770.63 C150.61,2739.17 187.67,2696.05 230.56,2672 C258.57,2656.29 287.2531,2648.9076 316.8831,2644.5776" fill="none" id="admin-to-UC33" style="stroke:#181818;stroke-width:1;"/><polygon fill="#181818" points="322.82,2643.71,313.3362,2641.0534,317.8725,2644.433,314.493,2648.9694,322.82,2643.71" style="stroke:#181818;stroke-width:1;"/></g><!--link admin to UC34--><g class="link" data-entity-1="admin" data-entity-2="UC34" data-source-line="111" data-uid="lnk86" id="link_admin_UC34"><path d="M195.33,2820.46 C238.58,2825.74 282.7144,2831.1317 320.9844,2835.8117" fill="none" id="admin-to-UC34" style="stroke:#181818;stroke-width:1;"/><polygon fill="#181818" points="326.94,2836.54,318.4921,2831.4771,321.977,2835.9331,317.521,2839.418,326.94,2836.54" style="stroke:#181818;stroke-width:1;"/></g><!--link admin to UC35--><g class="link" data-entity-1="admin" data-entity-2="UC35" data-source-line="112" data-uid="lnk87" id="link_admin_UC35"><path d="M195.33,2797.87 C236.29,2793.01 277.4419,2788.1277 314.8219,2783.6877" fill="none" id="admin-to-UC35" style="stroke:#181818;stroke-width:1;"/><polygon fill="#181818" points="320.78,2782.98,311.371,2780.0695,315.8149,2783.5698,312.3146,2788.0136,320.78,2782.98" style="stroke:#181818;stroke-width:1;"/></g><!--link admin to UC36--><g class="link" data-entity-1="admin" data-entity-2="UC36" data-source-line="113" data-uid="lnk88" id="link_admin_UC36"><path d="M119.46,2847.31 C140.35,2887.57 178.72,2949.58 230.56,2983 C256.53,2999.75 283.4776,3007.4717 312.4676,3011.8617" fill="none" id="admin-to-UC36" style="stroke:#181818;stroke-width:1;"/><polygon fill="#181818" points="318.4,3012.76,310.1003,3007.4576,313.4564,3012.0114,308.9026,3015.3674,318.4,3012.76" style="stroke:#181818;stroke-width:1;"/></g><!--link admin to UC37--><g class="link" data-entity-1="admin" data-entity-2="UC37" data-source-line="114" data-uid="lnk89" id="link_admin_UC37"><path d="M174.63,2847.6 C192.83,2857.03 212.34,2867 230.56,2876 C274.69,2897.82 320.9969,2919.3473 352.7869,2933.9373" fill="none" id="admin-to-UC37" style="stroke:#181818;stroke-width:1;"/><polygon fill="#181818" points="358.24,2936.44,351.7288,2929.0505,353.6957,2934.3544,348.3919,2936.3214,358.24,2936.44" style="stroke:#181818;stroke-width:1;"/></g><!--link admin to UC38--><g class="link" data-entity-1="admin" data-entity-2="UC38" data-source-line="115" data-uid="lnk90" id="link_admin_UC38"><path d="M105.9,2847.39 C115.6,2913.91 145.3,3050.26 230.56,3121 C255.7,3141.87 284.7841,3149.9116 315.4341,3153.1916" fill="none" id="admin-to-UC38" style="stroke:#181818;stroke-width:1;"/><polygon fill="#181818" points="321.4,3153.83,312.8767,3148.895,316.4284,3153.298,312.0255,3156.8496,321.4,3153.83" style="stroke:#181818;stroke-width:1;"/></g><!--link admin to UC39--><g class="link" data-entity-1="admin" data-entity-2="UC39" data-source-line="116" data-uid="lnk91" id="link_admin_UC39"><path d="M111.11,2847.51 C126.66,2901.66 162.7,2999.43 230.56,3051 C254.97,3069.55 281.3654,3077.7566 310.3854,3082.0766" fill="none" id="admin-to-UC39" style="stroke:#181818;stroke-width:1;"/><polygon fill="#181818" points="316.32,3082.96,308.0071,3077.6784,311.3745,3082.2238,306.8291,3085.5912,316.32,3082.96" style="stroke:#181818;stroke-width:1;"/></g><!--link admin to UC41--><g class="link" data-entity-1="admin" data-entity-2="UC41" data-source-line="117" data-uid="lnk92" id="link_admin_UC41"><path d="M113.47,2770.55 C144.1,2672.12 223.61,2418.24 230.56,2412 C255.91,2389.24 286.8821,2381.1943 318.6121,2378.4643" fill="none" id="admin-to-UC41" style="stroke:#181818;stroke-width:1;"/><polygon fill="#181818" points="324.59,2377.95,315.2802,2374.7362,319.6084,2378.3786,315.966,2382.7068,324.59,2377.95" style="stroke:#181818;stroke-width:1;"/></g><!--link admin to UC42--><g class="link" data-entity-1="admin" data-entity-2="UC42" data-source-line="118" data-uid="lnk93" id="link_admin_UC42"><path d="M117.99,2770.56 C138.65,2726.15 177.88,2653.28 230.56,2607 C264.7,2577 307.4417,2558.6383 341.5417,2546.9983" fill="none" id="admin-to-UC42" style="stroke:#181818;stroke-width:1;"/><polygon fill="#181818" points="347.22,2545.06,337.4104,2544.1819,342.4881,2546.6752,339.9947,2551.753,347.22,2545.06" style="stroke:#181818;stroke-width:1;"/></g><!--link tiempo to UC40--><g class="link" data-entity-1="tiempo" data-entity-2="UC40" data-source-line="120" data-uid="lnk94" id="link_tiempo_UC40"><path d="M126.95,2456 C158.65,2456 209.06,2456 261.34,2456" fill="none" id="tiempo-to-UC40" style="stroke:#181818;stroke-width:1;"/><polygon fill="#181818" points="267.34,2456,258.34,2452,262.34,2456,258.34,2460,267.34,2456" style="stroke:#181818;stroke-width:1;"/></g><!--SRC=[XLRDZjiW4BxxAL1ExM6bWEtyN2f5wIgAr4gLsksTOkAYEf02bbPTzM7s6VOHyc85noI3ZTFRZEVZcs-O0TpmWqLM8ItgdnPLGdDcXP9PHfbL6iq-AiQbvJD43QeK2vytrL58OQocbNFtqbXXM-OMqgQ3KXyFu6-27q-g-suxCyjEbFsYDKUpp-UtgcqKsdcc6Nh946eDPzIus5Ppgb5zYRZ5JriCmzzv7pHzbC3eOoNiO7KUnHlX90uGHVOteMrZH2sfRJLD2gGWtB6KGvKtH92wI4WTyIoJUaUmLLfqqnvbUaTf7-fMhqTYksWGYkSffP00uxJC21ErPkz6GDzuhgdMTtRVpnOtWt8spBQq4N-kLAZYyRpa4_0EvD6npFA_xAFTnykawXrtH-By9lsQBvhNhRJK9BjnwgDXYEV3Xfnkooy8F8K8SvxgsJ0DINPjYCgJVHifAYAovobOcToghP87KRiTPTs6xRZasbyZBqbI5gFhHltexnoNO96KUtT9kdsFp_J8PR9Vl0lnQr6hQ6QwyHY3rXELQtVVTgg6gNoa5fxe_0gPSfnaUZ8jrK8PrD_NKwEc3jme7RZ8U90kW5kwF3bACKqnCKenghn_JZu99vm9Qju9fr_wy_v-UDohtwtGRbEQ7Xke5yCw0k1QnZ9Hnf1bbInZY4ftyYitgIvohHs5kGGHRQqwdb-jO7uu-aVLFJhHSTrBuR9T5mKCdkOD4EALkJSQFJnywDxAcqs0dGEx07O9x0Mmby1U0NiDSysX0pDZc1h3t1Wcn30BXjG4KfEeA4XD83M1TH6OXy3A24nAO6q4AiXXqY9oYFjFydyw0KbYDu_T8dRBs5t4xZ9sLx6xZbmdAdAThCkFLlWm_mS0]--></g></svg>