<svg xmlns="http://www.w3.org/2000/svg" xmlns:xlink="http://www.w3.org/1999/xlink" contentStyleType="text/css" data-diagram-type="DESCRIPTION" height="3109px" preserveAspectRatio="none" style="width:547px;height:3109px;background:#FFFFFF;" version="1.1" viewBox="0 0 547 3109" width="547px" zoomAndPan="magnify"><defs/><g><!--cluster M?dulo Grado--><g class="cluster" data-entity="M.dulo Grado" data-source-line="7" data-uid="ent0005" id="cluster_M.dulo Grado"><path d="M307.04,6 L418.3515,6 A3.75,3.75 0 0 1 420.8515,8.5 L427.8515,28.2969 L470.97,28.2969 A2.5,2.5 0 0 1 473.47,30.7969 L473.47,279.5 A2.5,2.5 0 0 1 470.97,282 L307.04,282 A2.5,2.5 0 0 1 304.54,279.5 L304.54,8.5 A2.5,2.5 0 0 1 307.04,6" fill="none" style="stroke:#000000;stroke-width:1.5;"/><line style="stroke:#000000;stroke-width:1.5;" x1="304.54" x2="427.8515" y1="28.2969" y2="28.2969"/><text fill="#000000" font-family="sans-serif" font-size="14" font-weight="bold" lengthAdjust="spacing" textLength="110.3115" x="308.54" y="20.9951">M&#243;dulo Grado</text></g><!--cluster M?dulo Asignatura--><g class="cluster" data-entity="M.dulo Asignatura" data-source-line="14" data-uid="ent0010" id="cluster_M.dulo Asignatura"><path d="M292.97,306 L443.2122,306 A3.75,3.75 0 0 1 445.7122,308.5 L452.7122,328.2969 L485.04,328.2969 A2.5,2.5 0 0 1 487.54,330.7969 L487.54,599.5 A2.5,2.5 0 0 1 485.04,602 L292.97,602 A2.5,2.5 0 0 1 290.47,599.5 L290.47,308.5 A2.5,2.5 0 0 1 292.97,306" fill="none" style="stroke:#000000;stroke-width:1.5;"/><line style="stroke:#000000;stroke-width:1.5;" x1="290.47" x2="452.7122" y1="328.2969" y2="328.2969"/><text fill="#000000" font-family="sans-serif" font-size="14" font-weight="bold" lengthAdjust="spacing" textLength="149.2422" x="294.47" y="320.9951">M&#243;dulo Asignatura</text></g><!--cluster M?dulo Alumno--><g class="cluster" data-entity="M.dulo Alumno" data-source-line="21" data-uid="ent0015" id="cluster_M.dulo Alumno"><path d="M297.91,626 L421.5125,626 A3.75,3.75 0 0 1 424.0125,628.5 L431.0125,648.2969 L480.09,648.2969 A2.5,2.5 0 0 1 482.59,650.7969 L482.59,978.5 A2.5,2.5 0 0 1 480.09,981 L297.91,981 A2.5,2.5 0 0 1 295.41,978.5 L295.41,628.5 A2.5,2.5 0 0 1 297.91,626" fill="none" style="stroke:#000000;stroke-width:1.5;"/><line style="stroke:#000000;stroke-width:1.5;" x1="295.41" x2="431.0125" y1="648.2969" y2="648.2969"/><text fill="#000000" font-family="sans-serif" font-size="14" font-weight="bold" lengthAdjust="spacing" textLength="122.6025" x="299.41" y="640.9951">M&#243;dulo Alumno</text></g><!--cluster M?dulo Asignaciones--><g class="cluster" data-entity="M.dulo Asignaciones" data-source-line="29" data-uid="ent0021" id="cluster_M.dulo Asignaciones"><path d="M251.56,1005 L419.3022,1005 A3.75,3.75 0 0 1 421.8022,1007.5 L428.8022,1027.2969 L526.45,1027.2969 A2.5,2.5 0 0 1 528.95,1029.7969 L528.95,1277.5 A2.5,2.5 0 0 1 526.45,1280 L251.56,1280 A2.5,2.5 0 0 1 249.06,1277.5 L249.06,1007.5 A2.5,2.5 0 0 1 251.56,1005" fill="none" style="stroke:#000000;stroke-width:1.5;"/><line style="stroke:#000000;stroke-width:1.5;" x1="249.06" x2="428.8022" y1="1027.2969" y2="1027.2969"/><text fill="#000000" font-family="sans-serif" font-size="14" font-weight="bold" lengthAdjust="spacing" textLength="166.7422" x="253.06" y="1019.9951">M&#243;dulo Asignaciones</text></g><!--cluster M?dulo Gesti?n de Preguntas--><g class="cluster" data-entity="M.dulo Gesti.n de Preguntas" data-source-line="35" data-uid="ent0025" id="cluster_M.dulo Gesti.n de Preguntas"><path d="M267.02,1304 L501.5971,1304 A3.75,3.75 0 0 1 504.0971,1306.5 L511.0971,1326.2969 L510.99,1326.2969 A2.5,2.5 0 0 1 513.49,1328.7969 L513.49,1802.5 A2.5,2.5 0 0 1 510.99,1805 L267.02,1805 A2.5,2.5 0 0 1 264.52,1802.5 L264.52,1306.5 A2.5,2.5 0 0 1 267.02,1304" fill="none" style="stroke:#000000;stroke-width:1.5;"/><line style="stroke:#000000;stroke-width:1.5;" x1="264.52" x2="511.0971" y1="1326.2969" y2="1326.2969"/><text fill="#000000" font-family="sans-serif" font-size="14" font-weight="bold" lengthAdjust="spacing" textLength="233.5771" x="268.52" y="1318.9951">M&#243;dulo Gesti&#243;n de Preguntas</text></g><!--cluster M?dulo Configuraci?n General--><g class="cluster" data-entity="M.dulo Configuraci.n General" data-source-line="45" data-uid="ent0033" id="cluster_M.dulo Configuraci.n General"><path d="M261.05,1829 L501.1232,1829 A3.75,3.75 0 0 1 503.6232,1831.5 L510.6232,1851.2969 L516.95,1851.2969 A2.5,2.5 0 0 1 519.45,1853.7969 L519.45,2013.5 A2.5,2.5 0 0 1 516.95,2016 L261.05,2016 A2.5,2.5 0 0 1 258.55,2013.5 L258.55,1831.5 A2.5,2.5 0 0 1 261.05,1829" fill="none" style="stroke:#000000;stroke-width:1.5;"/><line style="stroke:#000000;stroke-width:1.5;" x1="258.55" x2="510.6232" y1="1851.2969" y2="1851.2969"/><text fill="#000000" font-family="sans-serif" font-size="14" font-weight="bold" lengthAdjust="spacing" textLength="239.0732" x="262.55" y="1843.9951">M&#243;dulo Configuraci&#243;n General</text></g><!--cluster M?dulo Examen--><g class="cluster" data-entity="M.dulo Examen" data-source-line="50" data-uid="ent0036" id="cluster_M.dulo Examen"><path d="M295.87,2040 L421.7899,2040 A3.75,3.75 0 0 1 424.2899,2042.5 L431.2899,2062.2969 L482.14,2062.2969 A2.5,2.5 0 0 1 484.64,2064.7969 L484.64,2193.5 A2.5,2.5 0 0 1 482.14,2196 L295.87,2196 A2.5,2.5 0 0 1 293.37,2193.5 L293.37,2042.5 A2.5,2.5 0 0 1 295.87,2040" fill="none" style="stroke:#000000;stroke-width:1.5;"/><line style="stroke:#000000;stroke-width:1.5;" x1="293.37" x2="431.2899" y1="2062.2969" y2="2062.2969"/><text fill="#000000" font-family="sans-serif" font-size="14" font-weight="bold" lengthAdjust="spacing" textLength="124.9199" x="297.37" y="2054.9951">M&#243;dulo Examen</text></g><!--cluster M?dulo Correcci?n--><g class="cluster" data-entity="M.dulo Correcci.n" data-source-line="55" data-uid="ent0039" id="cluster_M.dulo Correcci.n"><path d="M294.11,2220 L442.1168,2220 A3.75,3.75 0 0 1 444.6168,2222.5 L451.6168,2242.2969 L483.9,2242.2969 A2.5,2.5 0 0 1 486.4,2244.7969 L486.4,2306.5 A2.5,2.5 0 0 1 483.9,2309 L294.11,2309 A2.5,2.5 0 0 1 291.61,2306.5 L291.61,2222.5 A2.5,2.5 0 0 1 294.11,2220" fill="none" style="stroke:#000000;stroke-width:1.5;"/><line style="stroke:#000000;stroke-width:1.5;" x1="291.61" x2="451.6168" y1="2242.2969" y2="2242.2969"/><text fill="#000000" font-family="sans-serif" font-size="14" font-weight="bold" lengthAdjust="spacing" textLength="147.0068" x="295.61" y="2234.9951">M&#243;dulo Correcci&#243;n</text></g><!--cluster M?dulo Usuarios Docentes--><g class="cluster" data-entity="M.dulo Usuarios Docentes" data-source-line="59" data-uid="ent0041" id="cluster_M.dulo Usuarios Docentes"><path d="M279.91,2504 L490.9032,2504 A3.75,3.75 0 0 1 493.4032,2506.5 L500.4032,2526.2969 L499.1,2526.2969 A2.5,2.5 0 0 1 501.6,2528.7969 L501.6,2789.5 A2.5,2.5 0 0 1 499.1,2792 L279.91,2792 A2.5,2.5 0 0 1 277.41,2789.5 L277.41,2506.5 A2.5,2.5 0 0 1 279.91,2504" fill="none" style="stroke:#000000;stroke-width:1.5;"/><line style="stroke:#000000;stroke-width:1.5;" x1="277.41" x2="500.4032" y1="2526.2969" y2="2526.2969"/><text fill="#000000" font-family="sans-serif" font-size="14" font-weight="bold" lengthAdjust="spacing" textLength="209.9932" x="281.41" y="2518.9951">M&#243;dulo Usuarios Docentes</text></g><!--cluster M?dulo Gesti?n Licencias(intencion)--><g class="cluster" data-entity="M.dulo Gesti.n Licencias.intencion." data-source-line="66" data-uid="ent0046" id="cluster_M.dulo Gesti.n Licencias.intencion."><path d="M241.06,2816 L528.9164,2816 A3.75,3.75 0 0 1 531.4164,2818.5 L538.4164,2838.2969 L537.95,2838.2969 A2.5,2.5 0 0 1 540.45,2840.7969 L540.45,3099.5 A2.5,2.5 0 0 1 537.95,3102 L241.06,3102 A2.5,2.5 0 0 1 238.56,3099.5 L238.56,2818.5 A2.5,2.5 0 0 1 241.06,2816" fill="none" style="stroke:#000000;stroke-width:1.5;"/><line style="stroke:#000000;stroke-width:1.5;" x1="238.56" x2="538.4164" y1="2838.2969" y2="2838.2969"/><text fill="#000000" font-family="sans-serif" font-size="14" font-weight="bold" lengthAdjust="spacing" textLength="286.8564" x="242.56" y="2830.9951">M&#243;dulo Gesti&#243;n Licencias(intencion)</text></g><!--cluster M?dulo Sesi?n--><g class="cluster" data-entity="M.dulo Sesi.n" data-source-line="73" data-uid="ent0051" id="cluster_M.dulo Sesi.n"><path d="M310.6,2333 L426.724,2333 A3.75,3.75 0 0 1 429.224,2335.5 L436.224,2355.2969 L467.41,2355.2969 A2.5,2.5 0 0 1 469.91,2357.7969 L469.91,2477.5 A2.5,2.5 0 0 1 467.41,2480 L310.6,2480 A2.5,2.5 0 0 1 308.1,2477.5 L308.1,2335.5 A2.5,2.5 0 0 1 310.6,2333" fill="none" style="stroke:#000000;stroke-width:1.5;"/><line style="stroke:#000000;stroke-width:1.5;" x1="308.1" x2="436.224" y1="2355.2969" y2="2355.2969"/><text fill="#000000" font-family="sans-serif" font-size="14" font-weight="bold" lengthAdjust="spacing" textLength="115.124" x="312.1" y="2347.9951">M&#243;dulo Sesi&#243;n</text></g><!--entity UC1--><g class="entity" data-entity="UC1" data-source-line="8" data-uid="ent0006" id="entity_UC1"><ellipse cx="389.0022" cy="251.0044" fill="#F1F1F1" rx="61.3722" ry="14.6744" style="stroke:#181818;stroke-width:0.5;"/><text fill="#000000" font-family="sans-serif" font-size="14" lengthAdjust="spacing" textLength="83.6035" x="347.2004" y="255.6529">Crear grado</text></g><!--entity UC2--><g class="entity" data-entity="UC2" data-source-line="9" data-uid="ent0007" id="entity_UC2"><ellipse cx="388.9977" cy="187.0036" fill="#F1F1F1" rx="56.9977" ry="14.5236" style="stroke:#181818;stroke-width:0.5;"/><text fill="#000000" font-family="sans-serif" font-size="14" lengthAdjust="spacing" textLength="76.3643" x="350.8156" y="191.6521">Ver grados</text></g><!--entity UC3--><g class="entity" data-entity="UC3" data-source-line="10" data-uid="ent0008" id="entity_UC3"><ellipse cx="389.0035" cy="122.9987" fill="#F1F1F1" rx="62.4435" ry="14.8887" style="stroke:#181818;stroke-width:0.5;"/><text fill="#000000" font-family="sans-serif" font-size="14" lengthAdjust="spacing" textLength="86.5703" x="345.7184" y="127.6471">Editar grado</text></g><!--entity UC4--><g class="entity" data-entity="UC4" data-source-line="11" data-uid="ent0009" id="entity_UC4"><ellipse cx="388.9952" cy="57.003" fill="#F1F1F1" rx="68.4652" ry="16.093" style="stroke:#181818;stroke-width:0.5;"/><text fill="#000000" font-family="sans-serif" font-size="14" lengthAdjust="spacing" textLength="102.4844" x="337.753" y="61.6515">Eliminar grado</text></g><!--entity UC5--><g class="entity" data-entity="UC5" data-source-line="15" data-uid="ent0011" id="entity_UC5"><ellipse cx="388.9986" cy="568.9977" fill="#F1F1F1" rx="74.5886" ry="17.3177" style="stroke:#181818;stroke-width:0.5;"/><text fill="#000000" font-family="sans-serif" font-size="14" lengthAdjust="spacing" textLength="117.7285" x="330.1343" y="573.6462">Crear asignatura</text></g><!--entity UC6--><g class="entity" data-entity="UC6" data-source-line="16" data-uid="ent0012" id="entity_UC6"><ellipse cx="389.0032" cy="499.9986" fill="#F1F1F1" rx="71.6432" ry="16.7286" style="stroke:#181818;stroke-width:0.5;"/><text fill="#000000" font-family="sans-serif" font-size="14" lengthAdjust="spacing" textLength="110.4893" x="333.7586" y="504.6471">Ver asignaturas</text></g><!--entity UC7--><g class="entity" data-entity="UC7" data-source-line="17" data-uid="ent0013" id="entity_UC7"><ellipse cx="389.0032" cy="431.0026" fill="#F1F1F1" rx="75.8132" ry="17.5626" style="stroke:#181818;stroke-width:0.5;"/><text fill="#000000" font-family="sans-serif" font-size="14" lengthAdjust="spacing" textLength="120.6953" x="328.6556" y="435.6511">Editar asignatura</text></g><!--entity UC8--><g class="entity" data-entity="UC8" data-source-line="18" data-uid="ent0014" id="entity_UC8"><ellipse cx="389.0027" cy="359.9965" fill="#F1F1F1" rx="82.5327" ry="18.9065" style="stroke:#181818;stroke-width:0.5;"/><text fill="#000000" font-family="sans-serif" font-size="14" lengthAdjust="spacing" textLength="136.6094" x="320.698" y="364.645">Eliminar asignatura</text></g><!--entity UC9--><g class="entity" data-entity="UC9" data-source-line="22" data-uid="ent0016" id="entity_UC9"><ellipse cx="389.0014" cy="949.0023" fill="#F1F1F1" rx="65.7114" ry="15.5423" style="stroke:#181818;stroke-width:0.5;"/><text fill="#000000" font-family="sans-serif" font-size="14" lengthAdjust="spacing" textLength="95.3477" x="341.3276" y="953.6507">Crear alumno</text></g><!--entity UC10--><g class="entity" data-entity="UC10" data-source-line="23" data-uid="ent0017" id="entity_UC10"><ellipse cx="388.9958" cy="883.0012" fill="#F1F1F1" rx="63.0058" ry="15.0012" style="stroke:#181818;stroke-width:0.5;"/><text fill="#000000" font-family="sans-serif" font-size="14" lengthAdjust="spacing" textLength="88.1084" x="344.9416" y="887.6496">Ver alumnos</text></g><!--entity UC11--><g class="entity" data-entity="UC11" data-source-line="24" data-uid="ent0018" id="entity_UC11"><ellipse cx="388.9964" cy="816.9993" fill="#F1F1F1" rx="66.8464" ry="15.7693" style="stroke:#181818;stroke-width:0.5;"/><text fill="#000000" font-family="sans-serif" font-size="14" lengthAdjust="spacing" textLength="98.3145" x="339.8391" y="821.6477">Editar alumno</text></g><!--entity UC12--><g class="entity" data-entity="UC12" data-source-line="25" data-uid="ent0019" id="entity_UC12"><ellipse cx="388.9967" cy="749.0013" fill="#F1F1F1" rx="73.1567" ry="17.0313" style="stroke:#181818;stroke-width:0.5;"/><text fill="#000000" font-family="sans-serif" font-size="14" lengthAdjust="spacing" textLength="114.2285" x="331.8825" y="753.6498">Eliminar alumno</text></g><!--entity UC19--><g class="entity" data-entity="UC19" data-source-line="26" data-uid="ent0020" id="entity_UC19"><ellipse cx="389.0004" cy="678.9981" fill="#F1F1F1" rx="77.5904" ry="17.9181" style="stroke:#181818;stroke-width:0.5;"/><text fill="#000000" font-family="sans-serif" font-size="14" lengthAdjust="spacing" textLength="124.9609" x="326.52" y="683.6465">Importar alumnos</text></g><!--entity UC13--><g class="entity" data-entity="UC13" data-source-line="30" data-uid="ent0022" id="entity_UC13"><ellipse cx="389.0043" cy="1239.9969" fill="#F1F1F1" rx="108.0343" ry="24.0069" style="stroke:#181818;stroke-width:0.5;"/><text fill="#000000" font-family="sans-serif" font-size="14" lengthAdjust="spacing" textLength="193.6211" x="292.1938" y="1244.6453">Actualizar alumno de grado</text></g><!--entity UC15--><g class="entity" data-entity="UC15" data-source-line="31" data-uid="ent0023" id="entity_UC15"><ellipse cx="389.0002" cy="1154.996" fill="#F1F1F1" rx="118.4302" ry="26.086" style="stroke:#181818;stroke-width:0.5;"/><text fill="#000000" font-family="sans-serif" font-size="14" lengthAdjust="spacing" textLength="216.002" x="280.9992" y="1159.6445">Actualizar grado de asignatura</text></g><!--entity UC17--><g class="entity" data-entity="UC17" data-source-line="32" data-uid="ent0024" id="entity_UC17"><ellipse cx="389.0021" cy="1066.9984" fill="#F1F1F1" rx="123.9421" ry="27.1884" style="stroke:#181818;stroke-width:0.5;"/><text fill="#000000" font-family="sans-serif" font-size="14" lengthAdjust="spacing" textLength="227.7461" x="275.1291" y="1071.6469">Actualizar alumno de asignatura</text></g><!--entity UC20--><g class="entity" data-entity="UC20" data-source-line="36" data-uid="ent0026" id="entity_UC20"><ellipse cx="389.0021" cy="1773.0004" fill="#F1F1F1" rx="70.2021" ry="16.4404" style="stroke:#181818;stroke-width:0.5;"/><text fill="#000000" font-family="sans-serif" font-size="14" lengthAdjust="spacing" textLength="106.8867" x="335.5587" y="1777.6489">Crear pregunta</text></g><!--entity UC21--><g class="entity" data-entity="UC21" data-source-line="37" data-uid="ent0027" id="entity_UC21"><ellipse cx="389.0009" cy="1706.0022" fill="#F1F1F1" rx="67.3609" ry="15.8722" style="stroke:#181818;stroke-width:0.5;"/><text fill="#000000" font-family="sans-serif" font-size="14" lengthAdjust="spacing" textLength="99.6475" x="339.1772" y="1710.6506">Ver preguntas</text></g><!--entity UC30--><g class="entity" data-entity="UC30" data-source-line="38" data-uid="ent0028" id="entity_UC30"><ellipse cx="389.001" cy="1639.9962" fill="#F1F1F1" rx="64.581" ry="15.3162" style="stroke:#181818;stroke-width:0.5;"/><text fill="#000000" font-family="sans-serif" font-size="14" lengthAdjust="spacing" textLength="92.3535" x="342.8242" y="1644.6446">Ver pregunta</text></g><!--entity UC22--><g class="entity" data-entity="UC22" data-source-line="39" data-uid="ent0029" id="entity_UC22"><ellipse cx="388.9977" cy="1572.9975" fill="#F1F1F1" rx="71.3877" ry="16.6775" style="stroke:#181818;stroke-width:0.5;"/><text fill="#000000" font-family="sans-serif" font-size="14" lengthAdjust="spacing" textLength="109.8535" x="334.0709" y="1577.646">Editar pregunta</text></g><!--entity UC23--><g class="entity" data-entity="UC23" data-source-line="40" data-uid="ent0030" id="entity_UC23"><ellipse cx="388.9986" cy="1502.9957" fill="#F1F1F1" rx="77.9286" ry="17.9857" style="stroke:#181818;stroke-width:0.5;"/><text fill="#000000" font-family="sans-serif" font-size="14" lengthAdjust="spacing" textLength="125.7676" x="326.1148" y="1507.6442">Eliminar pregunta</text></g><!--entity UC24--><g class="entity" data-entity="UC24" data-source-line="41" data-uid="ent0031" id="entity_UC24"><ellipse cx="388.9958" cy="1430.9972" fill="#F1F1F1" rx="82.4858" ry="18.8972" style="stroke:#181818;stroke-width:0.5;"/><text fill="#000000" font-family="sans-serif" font-size="14" lengthAdjust="spacing" textLength="136.5" x="320.7458" y="1435.6456">Importar preguntas</text></g><!--entity UC25--><g class="entity" data-entity="UC25" data-source-line="42" data-uid="ent0032" id="entity_UC25"><ellipse cx="389.003" cy="1358.0026" fill="#F1F1F1" rx="82.213" ry="18.8426" style="stroke:#181818;stroke-width:0.5;"/><text fill="#000000" font-family="sans-serif" font-size="14" lengthAdjust="spacing" textLength="135.8643" x="321.0709" y="1362.651">Exportar preguntas</text></g><!--entity UC26--><g class="entity" data-entity="UC26" data-source-line="46" data-uid="ent0034" id="entity_UC26"><ellipse cx="389.0035" cy="1975.0007" fill="#F1F1F1" rx="114.1535" ry="25.2307" style="stroke:#181818;stroke-width:0.5;"/><text fill="#000000" font-family="sans-serif" font-size="14" lengthAdjust="spacing" textLength="206.835" x="285.586" y="1979.6491">Exportar configuraci&#243;n global</text></g><!--entity UC27--><g class="entity" data-entity="UC27" data-source-line="47" data-uid="ent0035" id="entity_UC27"><ellipse cx="388.9993" cy="1888.9999" fill="#F1F1F1" rx="114.4493" ry="25.2899" style="stroke:#181818;stroke-width:0.5;"/><text fill="#000000" font-family="sans-serif" font-size="14" lengthAdjust="spacing" textLength="207.4707" x="285.264" y="1893.6483">Importar configuraci&#243;n global</text></g><!--entity UC28--><g class="entity" data-entity="UC28" data-source-line="51" data-uid="ent0037" id="entity_UC28"><ellipse cx="389.0001" cy="2163" fill="#F1F1F1" rx="73.6501" ry="17.13" style="stroke:#181818;stroke-width:0.5;"/><text fill="#000000" font-family="sans-serif" font-size="14" lengthAdjust="spacing" textLength="115.4385" x="331.2809" y="2167.6485">Crear examenes</text></g><!--entity UC29--><g class="entity" data-entity="UC29" data-source-line="52" data-uid="ent0038" id="entity_UC29"><ellipse cx="389.0047" cy="2092.9969" fill="#F1F1F1" rx="79.6347" ry="18.3269" style="stroke:#181818;stroke-width:0.5;"/><text fill="#000000" font-family="sans-serif" font-size="14" lengthAdjust="spacing" textLength="129.8145" x="324.0975" y="2097.6454">Asignar examenes</text></g><!--entity UC31--><g class="entity" data-entity="UC31" data-source-line="56" data-uid="ent0040" id="entity_UC31"><ellipse cx="388.9967" cy="2273.9993" fill="#F1F1F1" rx="81.3967" ry="18.6793" style="stroke:#181818;stroke-width:0.5;"/><text fill="#000000" font-family="sans-serif" font-size="14" lengthAdjust="spacing" textLength="133.957" x="322.0182" y="2278.6478">Corregir ex&#225;menes</text></g><!--entity UC32--><g class="entity" data-entity="UC32" data-source-line="60" data-uid="ent0042" id="entity_UC32"><ellipse cx="389.0007" cy="2760.0001" fill="#F1F1F1" rx="68.0007" ry="16.0001" style="stroke:#181818;stroke-width:0.5;"/><text fill="#000000" font-family="sans-serif" font-size="14" lengthAdjust="spacing" textLength="101.2949" x="338.3532" y="2764.6486">Crear profesor</text></g><!--entity UC33--><g class="entity" data-entity="UC33" data-source-line="61" data-uid="ent0043" id="entity_UC33"><ellipse cx="388.9974" cy="2692.9975" fill="#F1F1F1" rx="68.5374" ry="16.1075" style="stroke:#181818;stroke-width:0.5;"/><text fill="#000000" font-family="sans-serif" font-size="14" lengthAdjust="spacing" textLength="102.6689" x="337.663" y="2697.6459">Ver profesores</text></g><!--entity UC34--><g class="entity" data-entity="UC34" data-source-line="62" data-uid="ent0044" id="entity_UC34"><ellipse cx="389.0031" cy="2626.0026" fill="#F1F1F1" rx="69.1631" ry="16.2326" style="stroke:#181818;stroke-width:0.5;"/><text fill="#000000" font-family="sans-serif" font-size="14" lengthAdjust="spacing" textLength="104.2617" x="336.8722" y="2630.6511">Editar profesor</text></g><!--entity UC35--><g class="entity" data-entity="UC35" data-source-line="63" data-uid="ent0045" id="entity_UC35"><ellipse cx="388.9981" cy="2556.9996" fill="#F1F1F1" rx="75.5981" ry="17.5196" style="stroke:#181818;stroke-width:0.5;"/><text fill="#000000" font-family="sans-serif" font-size="14" lengthAdjust="spacing" textLength="120.1758" x="328.9102" y="2561.6481">Eliminar profesor</text></g><!--entity UC36--><g class="entity" data-entity="UC36" data-source-line="67" data-uid="ent0047" id="entity_UC36"><ellipse cx="388.9956" cy="3068.9991" fill="#F1F1F1" rx="72.6956" ry="16.9391" style="stroke:#181818;stroke-width:0.5;"/><text fill="#000000" font-family="sans-serif" font-size="14" lengthAdjust="spacing" textLength="113.0938" x="332.4487" y="3073.6476">Adquirir licencia</text></g><!--entity UC37--><g class="entity" data-entity="UC37" data-source-line="68" data-uid="ent0048" id="entity_UC37"><ellipse cx="388.9973" cy="3002.0035" fill="#F1F1F1" rx="63.2673" ry="15.0535" style="stroke:#181818;stroke-width:0.5;"/><text fill="#000000" font-family="sans-serif" font-size="14" lengthAdjust="spacing" textLength="88.8193" x="344.5876" y="3006.6519">Ver licencias</text></g><!--entity UC38--><g class="entity" data-entity="UC38" data-source-line="69" data-uid="ent0049" id="entity_UC38"><ellipse cx="389.0005" cy="2936.0041" fill="#F1F1F1" rx="67.1205" ry="15.8241" style="stroke:#181818;stroke-width:0.5;"/><text fill="#000000" font-family="sans-serif" font-size="14" lengthAdjust="spacing" textLength="99.0254" x="339.4878" y="2940.6525">Editar licencia</text></g><!--entity UC39--><g class="entity" data-entity="UC39" data-source-line="70" data-uid="ent0050" id="entity_UC39"><ellipse cx="388.9964" cy="2867.9993" fill="#F1F1F1" rx="73.4464" ry="17.0893" style="stroke:#181818;stroke-width:0.5;"/><text fill="#000000" font-family="sans-serif" font-size="14" lengthAdjust="spacing" textLength="114.9395" x="331.5267" y="2872.6477">Eliminar licencia</text></g><!--entity UC41--><g class="entity" data-entity="UC41" data-source-line="74" data-uid="ent0052" id="entity_UC41"><ellipse cx="389.0011" cy="2449.0042" fill="#F1F1F1" rx="64.3711" ry="15.2742" style="stroke:#181818;stroke-width:0.5;"/><text fill="#000000" font-family="sans-serif" font-size="14" lengthAdjust="spacing" textLength="91.793" x="343.1046" y="2453.6527">Iniciar sesi&#243;n</text></g><!--entity UC42--><g class="entity" data-entity="UC42" data-source-line="75" data-uid="ent0053" id="entity_UC42"><ellipse cx="389.0046" cy="2383.0009" fill="#F1F1F1" rx="64.9046" ry="15.3809" style="stroke:#181818;stroke-width:0.5;"/><text fill="#000000" font-family="sans-serif" font-size="14" lengthAdjust="spacing" textLength="93.2148" x="342.3972" y="2387.6494">Cerrar sesi&#243;n</text></g><!--entity doc--><g class="entity" data-entity="doc" data-source-line="3" data-uid="ent0002" id="entity_doc"><ellipse cx="100.5259" cy="1125.35" fill="#F1F1F1" rx="8" ry="8" style="stroke:#181818;stroke-width:0.5;"/><path d="M100.5259,1133.35 L100.5259,1160.35 M87.5259,1141.35 L113.5259,1141.35 M100.5259,1160.35 L87.5259,1175.35 M100.5259,1160.35 L113.5259,1175.35" fill="none" style="stroke:#181818;stroke-width:0.5;"/><text fill="#000000" font-family="sans-serif" font-size="14" lengthAdjust="spacing" textLength="58.6318" x="71.21" y="1189.8451">Docente</text></g><!--entity admin--><g class="entity" data-entity="admin" data-source-line="4" data-uid="ent0003" id="entity_admin"><ellipse cx="100.5308" cy="2696.35" fill="#F1F1F1" rx="8" ry="8" style="stroke:#181818;stroke-width:0.5;"/><path d="M100.5308,2704.35 L100.5308,2731.35 M87.5308,2712.35 L113.5308,2712.35 M100.5308,2731.35 L87.5308,2746.35 M100.5308,2731.35 L113.5308,2746.35" fill="none" style="stroke:#181818;stroke-width:0.5;"/><text fill="#000000" font-family="sans-serif" font-size="14" lengthAdjust="spacing" textLength="189.0615" x="6" y="2760.8451">Administrador Institucional</text></g><!--entity tiempo--><g class="entity" data-entity="tiempo" data-source-line="5" data-uid="ent0004" id="entity_tiempo"><ellipse cx="100.5323" cy="2353.35" fill="#F1F1F1" rx="8" ry="8" style="stroke:#181818;stroke-width:0.5;"/><path d="M100.5323,2361.35 L100.5323,2388.35 M87.5323,2369.35 L113.5323,2369.35 M100.5323,2388.35 L87.5323,2403.35 M100.5323,2388.35 L113.5323,2403.35" fill="none" style="stroke:#181818;stroke-width:0.5;"/><text fill="#000000" font-family="sans-serif" font-size="14" lengthAdjust="spacing" textLength="52.1445" x="74.46" y="2417.8451">Tiempo</text></g><!--link doc to UC1--><g class="link" data-entity-1="doc" data-entity-2="UC1" data-source-line="78" data-uid="lnk54" id="link_doc_UC1"><path d="M102.82,1116.51 C108.4,970.54 134.73,452.96 230.56,325 C257.17,289.46 299.3525,271.9226 335.3725,262.0726" fill="none" id="doc-to-UC1" style="stroke:#181818;stroke-width:1;"/><polygon fill="#181818" points="341.16,260.49,331.4236,259.0056,336.3371,261.8089,333.5338,266.7223,341.16,260.49" style="stroke:#181818;stroke-width:1;"/></g><!--link doc to UC2--><g class="link" data-entity-1="doc" data-entity-2="UC2" data-source-line="79" data-uid="lnk55" id="link_doc_UC2"><path d="M101.16,1116.61 C100.44,957.47 106.03,351.7 230.56,219 C256.42,191.44 293.0117,184.2314 327.3817,183.4214" fill="none" id="doc-to-UC2" style="stroke:#181818;stroke-width:1;"/><polygon fill="#181818" points="333.38,183.28,324.2883,179.4932,328.3814,183.3978,324.4767,187.4909,333.38,183.28" style="stroke:#181818;stroke-width:1;"/></g><!--link doc to UC3--><g class="link" data-entity-1="doc" data-entity-2="UC3" data-source-line="80" data-uid="lnk56" id="link_doc_UC3"><path d="M103.87,1116.57 C114.86,941.75 163.64,226.93 230.56,155 C254.97,128.76 288.5554,121.0552 321.9154,119.6352" fill="none" id="doc-to-UC3" style="stroke:#181818;stroke-width:1;"/><polygon fill="#181818" points="327.91,119.38,318.748,115.7664,322.9145,119.5926,319.0883,123.7591,327.91,119.38" style="stroke:#181818;stroke-width:1;"/></g><!--link doc to UC4--><g class="link" data-entity-1="doc" data-entity-2="UC4" data-source-line="81" data-uid="lnk57" id="link_doc_UC4"><path d="M103.58,1116.59 C113.6,935.04 159.87,168.51 230.56,91 C253.17,66.21 283.1996,57.664 315.0796,55.084" fill="none" id="doc-to-UC4" style="stroke:#181818;stroke-width:1;"/><polygon fill="#181818" points="321.06,54.6,311.7667,51.339,316.0763,55.0033,312.412,59.3129,321.06,54.6" style="stroke:#181818;stroke-width:1;"/></g><!--link doc to UC5--><g class="link" data-entity-1="doc" data-entity-2="UC5" data-source-line="82" data-uid="lnk58" id="link_doc_UC5"><path d="M100.76,1116.6 C100.92,1024.58 113.48,788.47 230.56,645 C257.23,612.31 295.6439,594.5437 330.4039,583.4537" fill="none" id="doc-to-UC5" style="stroke:#181818;stroke-width:1;"/><polygon fill="#181818" points="336.12,581.63,326.33,580.5548,331.3566,583.1498,328.7616,588.1763,336.12,581.63" style="stroke:#181818;stroke-width:1;"/></g><!--link doc to UC6--><g class="link" data-entity-1="doc" data-entity-2="UC6" data-source-line="83" data-uid="lnk59" id="link_doc_UC6"><path d="M104.14,1116.67 C113.24,994.51 147.67,617.54 230.56,534 C253.01,511.37 280.7241,502.7887 311.1741,499.5287" fill="none" id="doc-to-UC6" style="stroke:#181818;stroke-width:1;"/><polygon fill="#181818" points="317.14,498.89,307.7653,495.8708,312.1684,499.4223,308.6169,503.8253,317.14,498.89" style="stroke:#181818;stroke-width:1;"/></g><!--link doc to UC7--><g class="link" data-entity-1="doc" data-entity-2="UC7" data-source-line="84" data-uid="lnk60" id="link_doc_UC7"><path d="M103.3,1116.71 C110.15,986.04 139.2,560.49 230.56,466 C251.77,444.06 277.5195,435.2291 306.9195,431.4291" fill="none" id="doc-to-UC7" style="stroke:#181818;stroke-width:1;"/><polygon fill="#181818" points="312.87,430.66,303.4315,427.8467,307.9112,431.3009,304.457,435.7807,312.87,430.66" style="stroke:#181818;stroke-width:1;"/></g><!--link doc to UC8--><g class="link" data-entity-1="doc" data-entity-2="UC8" data-source-line="85" data-uid="lnk61" id="link_doc_UC8"><path d="M102.6,1116.79 C107.28,977.83 130.48,501.88 230.56,396 C250.01,375.42 272.6983,366.4361 300.2183,361.9461" fill="none" id="doc-to-UC8" style="stroke:#181818;stroke-width:1;"/><polygon fill="#181818" points="306.14,360.98,296.6133,358.4814,301.2052,361.7851,297.9015,366.377,306.14,360.98" style="stroke:#181818;stroke-width:1;"/></g><!--link doc to UC9--><g class="link" data-entity-1="doc" data-entity-2="UC9" data-source-line="86" data-uid="lnk62" id="link_doc_UC9"><path d="M130.25,1119.65 C154.71,1091.17 191.94,1051.5 230.56,1024 C268.79,996.78 312.8484,977.2057 346.0784,964.2757" fill="none" id="doc-to-UC9" style="stroke:#181818;stroke-width:1;"/><polygon fill="#181818" points="351.67,962.1,341.8321,961.6359,347.0103,963.9131,344.7331,969.0913,351.67,962.1" style="stroke:#181818;stroke-width:1;"/></g><!--link doc to UC10--><g class="link" data-entity-1="doc" data-entity-2="UC10" data-source-line="87" data-uid="lnk63" id="link_doc_UC10"><path d="M111.3,1116.39 C126.99,1062.68 163.11,966.35 230.56,916 C257.75,895.7 288.6331,887.869 319.8431,884.579" fill="none" id="doc-to-UC10" style="stroke:#181818;stroke-width:1;"/><polygon fill="#181818" points="325.81,883.95,316.4403,880.9155,320.8376,884.4742,317.2789,888.8715,325.81,883.95" style="stroke:#181818;stroke-width:1;"/></g><!--link doc to UC11--><g class="link" data-entity-1="doc" data-entity-2="UC11" data-source-line="88" data-uid="lnk64" id="link_doc_UC11"><path d="M106.34,1116.41 C116.63,1050.98 147.1,918.69 230.56,850 C255.9,829.15 285.1737,821.1151 315.8937,817.8451" fill="none" id="doc-to-UC11" style="stroke:#181818;stroke-width:1;"/><polygon fill="#181818" points="321.86,817.21,312.4872,814.1851,316.8881,817.7392,313.3339,822.1402,321.86,817.21" style="stroke:#181818;stroke-width:1;"/></g><!--link doc to UC12--><g class="link" data-entity-1="doc" data-entity-2="UC12" data-source-line="89" data-uid="lnk65" id="link_doc_UC12"><path d="M103.12,1116.62 C108.42,1040.97 131.36,872.31 230.56,784 C253.67,763.43 280.2134,754.8891 309.6834,750.9291" fill="none" id="doc-to-UC12" style="stroke:#181818;stroke-width:1;"/><polygon fill="#181818" points="315.63,750.13,306.1775,747.3642,310.6745,750.7959,307.2429,755.293,315.63,750.13" style="stroke:#181818;stroke-width:1;"/></g><!--link doc to UC13--><g class="link" data-entity-1="doc" data-entity-2="UC13" data-source-line="90" data-uid="lnk66" id="link_doc_UC13"><path d="M130.29,1165.49 C156.31,1174.81 195.76,1188.55 230.56,1199 C257.88,1207.2 282.3369,1213.834 308.9769,1220.644" fill="none" id="doc-to-UC13" style="stroke:#181818;stroke-width:1;"/><polygon fill="#181818" points="314.79,1222.13,307.0611,1216.0256,309.9458,1220.8917,305.0797,1223.7764,314.79,1222.13" style="stroke:#181818;stroke-width:1;"/></g><!--link doc to UC15--><g class="link" data-entity-1="doc" data-entity-2="UC15" data-source-line="91" data-uid="lnk67" id="link_doc_UC15"><path d="M130.31,1155 C163.16,1155 212.98,1155 264.29,1155" fill="none" id="doc-to-UC15" style="stroke:#181818;stroke-width:1;"/><polygon fill="#181818" points="270.29,1155,261.29,1151,265.29,1155,261.29,1159,270.29,1155" style="stroke:#181818;stroke-width:1;"/></g><!--link doc to UC17--><g class="link" data-entity-1="doc" data-entity-2="UC17" data-source-line="92" data-uid="lnk68" id="link_doc_UC17"><path d="M130.33,1144.66 C156.38,1135.43 195.86,1121.76 230.56,1111 C255.9,1103.14 277.959,1096.7663 303.079,1089.7863" fill="none" id="doc-to-UC17" style="stroke:#181818;stroke-width:1;"/><polygon fill="#181818" points="308.86,1088.18,299.1176,1086.7355,304.0425,1089.5186,301.2594,1094.4435,308.86,1088.18" style="stroke:#181818;stroke-width:1;"/></g><!--link doc to UC19--><g class="link" data-entity-1="doc" data-entity-2="UC19" data-source-line="93" data-uid="lnk69" id="link_doc_UC19"><path d="M100.63,1116.58 C100.85,1030.87 114.09,823.04 230.56,714 C252.12,693.81 276.714,685.1942 305.164,681.0042" fill="none" id="doc-to-UC19" style="stroke:#181818;stroke-width:1;"/><polygon fill="#181818" points="311.1,680.13,301.6132,677.484,306.1534,680.8585,302.7789,685.3987,311.1,680.13" style="stroke:#181818;stroke-width:1;"/></g><!--link doc to UC20--><g class="link" data-entity-1="doc" data-entity-2="UC20" data-source-line="94" data-uid="lnk70" id="link_doc_UC20"><path d="M104.7,1193.53 C115.17,1310.98 152.45,1661.27 230.56,1739 C253.45,1761.78 281.7719,1770.3124 312.5019,1773.4924" fill="none" id="doc-to-UC20" style="stroke:#181818;stroke-width:1;"/><polygon fill="#181818" points="318.47,1774.11,309.9295,1769.2049,313.4966,1773.5953,309.1061,1777.1624,318.47,1774.11" style="stroke:#181818;stroke-width:1;"/></g><!--link doc to UC21--><g class="link" data-entity-1="doc" data-entity-2="UC21" data-source-line="95" data-uid="lnk71" id="link_doc_UC21"><path d="M105.83,1193.4 C118.75,1301.62 160.64,1605.65 230.56,1673 C254.49,1696.06 284.2231,1704.284 315.5831,1707.044" fill="none" id="doc-to-UC21" style="stroke:#181818;stroke-width:1;"/><polygon fill="#181818" points="321.56,1707.57,312.9453,1702.7964,316.5793,1707.1316,312.244,1710.7656,321.56,1707.57" style="stroke:#181818;stroke-width:1;"/></g><!--link doc to UC22--><g class="link" data-entity-1="doc" data-entity-2="UC22" data-source-line="96" data-uid="lnk72" id="link_doc_UC22"><path d="M102.63,1193.4 C107.04,1270.84 128.42,1446.17 230.56,1538 C254.09,1559.16 281.5673,1567.6982 311.5773,1571.4882" fill="none" id="doc-to-UC22" style="stroke:#181818;stroke-width:1;"/><polygon fill="#181818" points="317.53,1572.24,309.1021,1567.1439,312.5694,1571.6135,308.0997,1575.0808,317.53,1572.24" style="stroke:#181818;stroke-width:1;"/></g><!--link doc to UC23--><g class="link" data-entity-1="doc" data-entity-2="UC23" data-source-line="97" data-uid="lnk73" id="link_doc_UC23"><path d="M106.07,1193.49 C116.02,1259.87 146.06,1395.58 230.56,1467 C253.04,1486.01 277.647,1494.5219 305.837,1499.0819" fill="none" id="doc-to-UC23" style="stroke:#181818;stroke-width:1;"/><polygon fill="#181818" points="311.76,1500.04,303.5142,1494.6542,306.8242,1499.2416,302.2368,1502.5515,311.76,1500.04" style="stroke:#181818;stroke-width:1;"/></g><!--link doc to UC24--><g class="link" data-entity-1="doc" data-entity-2="UC24" data-source-line="98" data-uid="lnk74" id="link_doc_UC24"><path d="M111.47,1193.38 C127.36,1246.83 163.72,1342.84 230.56,1394 C253.08,1411.24 276.4414,1419.5315 303.6114,1424.5915" fill="none" id="doc-to-UC24" style="stroke:#181818;stroke-width:1;"/><polygon fill="#181818" points="309.51,1425.69,301.3945,1420.1098,304.5945,1424.7746,299.9298,1427.9746,309.51,1425.69" style="stroke:#181818;stroke-width:1;"/></g><!--link doc to UC25--><g class="link" data-entity-1="doc" data-entity-2="UC25" data-source-line="99" data-uid="lnk75" id="link_doc_UC25"><path d="M130.17,1187.94 C154.86,1214.99 192.47,1253.11 230.56,1280 C267.06,1305.78 307.8255,1325.249 340.7455,1339.199" fill="none" id="doc-to-UC25" style="stroke:#181818;stroke-width:1;"/><polygon fill="#181818" points="346.27,1341.54,339.544,1334.3455,341.6663,1339.5892,336.4226,1341.7115,346.27,1341.54" style="stroke:#181818;stroke-width:1;"/></g><!--link doc to UC26--><g class="link" data-entity-1="doc" data-entity-2="UC26" data-source-line="100" data-uid="lnk76" id="link_doc_UC26"><path d="M102.6,1193.48 C107.29,1334.59 130.56,1821.24 230.56,1932 C244.8,1947.77 258.5007,1956.1549 278.8307,1962.7249" fill="none" id="doc-to-UC26" style="stroke:#181818;stroke-width:1;"/><polygon fill="#181818" points="284.54,1964.57,277.2061,1957.9962,279.7823,1963.0325,274.7461,1965.6086,284.54,1964.57" style="stroke:#181818;stroke-width:1;"/></g><!--link doc to UC27--><g class="link" data-entity-1="doc" data-entity-2="UC27" data-source-line="101" data-uid="lnk77" id="link_doc_UC27"><path d="M104.85,1193.33 C116.23,1317.44 157.12,1706.02 230.56,1805 C252.71,1834.86 283.142,1852.8952 315.122,1866.0652" fill="none" id="doc-to-UC27" style="stroke:#181818;stroke-width:1;"/><polygon fill="#181818" points="320.67,1868.35,313.8712,1861.2242,316.0467,1866.446,310.8249,1868.6215,320.67,1868.35" style="stroke:#181818;stroke-width:1;"/></g><!--link doc to UC28--><g class="link" data-entity-1="doc" data-entity-2="UC28" data-source-line="102" data-uid="lnk78" id="link_doc_UC28"><path d="M100.97,1193.5 C99.42,1356.72 101.92,1989.5 230.56,2129 C251.98,2152.23 279.2028,2160.9536 309.5928,2164.1436" fill="none" id="doc-to-UC28" style="stroke:#181818;stroke-width:1;"/><polygon fill="#181818" points="315.56,2164.77,307.0268,2159.8523,310.5873,2164.248,306.1916,2167.8086,315.56,2164.77" style="stroke:#181818;stroke-width:1;"/></g><!--link doc to UC29--><g class="link" data-entity-1="doc" data-entity-2="UC29" data-source-line="103" data-uid="lnk79" id="link_doc_UC29"><path d="M102.65,1193.59 C107.66,1343.02 132.35,1881.96 230.56,2016 C254.84,2049.14 291.5761,2066.9094 326.2861,2078.0294" fill="none" id="doc-to-UC29" style="stroke:#181818;stroke-width:1;"/><polygon fill="#181818" points="332,2079.86,324.6495,2073.3049,327.2384,2078.3345,322.2087,2080.9234,332,2079.86" style="stroke:#181818;stroke-width:1;"/></g><!--link doc to UC31--><g class="link" data-entity-1="doc" data-entity-2="UC31" data-source-line="104" data-uid="lnk80" id="link_doc_UC31"><path d="M101.55,1193.61 C102.34,1361.89 112.93,2030.21 230.56,2196 C254.3,2229.46 290.8433,2247.437 325.6133,2258.727" fill="none" id="doc-to-UC31" style="stroke:#181818;stroke-width:1;"/><polygon fill="#181818" points="331.32,2260.58,323.9953,2253.996,326.5644,2259.0358,321.5246,2261.605,331.32,2260.58" style="stroke:#181818;stroke-width:1;"/></g><!--link doc to UC41--><g class="link" data-entity-1="doc" data-entity-2="UC41" data-source-line="105" data-uid="lnk81" id="link_doc_UC41"><path d="M102.81,1193.61 C109.85,1395.37 146.62,2322.78 230.56,2416 C254.1,2442.15 286.6188,2450.2254 319.6588,2452.0154" fill="none" id="doc-to-UC41" style="stroke:#181818;stroke-width:1;"/><polygon fill="#181818" points="325.65,2452.34,316.8796,2447.859,320.6573,2452.0695,316.4468,2455.8473,325.65,2452.34" style="stroke:#181818;stroke-width:1;"/></g><!--link doc to UC42--><g class="link" data-entity-1="doc" data-entity-2="UC42" data-source-line="106" data-uid="lnk82" id="link_doc_UC42"><path d="M103.61,1193.43 C114.18,1383.33 164.06,2216.13 230.56,2309 C255.79,2344.24 296.4249,2361.6288 332.3449,2371.5088" fill="none" id="doc-to-UC42" style="stroke:#181818;stroke-width:1;"/><polygon fill="#181818" points="338.13,2373.1,330.5131,2366.8564,333.309,2371.774,328.3914,2374.5699,338.13,2373.1" style="stroke:#181818;stroke-width:1;"/></g><!--link admin to UC32--><g class="link" data-entity-1="admin" data-entity-2="UC32" data-source-line="108" data-uid="lnk83" id="link_admin_UC32"><path d="M195.33,2737.13 C238.74,2742.28 283.0917,2747.5541 321.4117,2752.0941" fill="none" id="admin-to-UC32" style="stroke:#181818;stroke-width:1;"/><polygon fill="#181818" points="327.37,2752.8,318.9031,2747.7689,322.4047,2752.2117,317.9619,2755.7133,327.37,2752.8" style="stroke:#181818;stroke-width:1;"/></g><!--link admin to UC33--><g class="link" data-entity-1="admin" data-entity-2="UC33" data-source-line="109" data-uid="lnk84" id="link_admin_UC33"><path d="M195.33,2715.19 C238.58,2710.21 282.7094,2705.1269 320.9794,2700.7169" fill="none" id="admin-to-UC33" style="stroke:#181818;stroke-width:1;"/><polygon fill="#181818" points="326.94,2700.03,317.5413,2697.0866,321.9729,2700.6024,318.4571,2705.034,326.94,2700.03" style="stroke:#181818;stroke-width:1;"/></g><!--link admin to UC34--><g class="link" data-entity-1="admin" data-entity-2="UC34" data-source-line="110" data-uid="lnk85" id="link_admin_UC34"><path d="M167.27,2687.48 C187.11,2677.07 209.28,2666.59 230.56,2659 C262.25,2647.69 293.0804,2640.7474 323.1004,2635.4774" fill="none" id="admin-to-UC34" style="stroke:#181818;stroke-width:1;"/><polygon fill="#181818" points="329.01,2634.44,319.4539,2632.0564,324.0853,2635.3045,320.8372,2639.9359,329.01,2634.44" style="stroke:#181818;stroke-width:1;"/></g><!--link admin to UC35--><g class="link" data-entity-1="admin" data-entity-2="UC35" data-source-line="111" data-uid="lnk86" id="link_admin_UC35"><path d="M128.56,2687.38 C152.02,2656.81 188.74,2615.48 230.56,2592 C257.17,2577.06 283.7569,2569.5173 312.2969,2564.6073" fill="none" id="admin-to-UC35" style="stroke:#181818;stroke-width:1;"/><polygon fill="#181818" points="318.21,2563.59,308.6621,2561.1738,313.2824,2564.4377,310.0185,2569.058,318.21,2563.59" style="stroke:#181818;stroke-width:1;"/></g><!--link admin to UC36--><g class="link" data-entity-1="admin" data-entity-2="UC36" data-source-line="112" data-uid="lnk87" id="link_admin_UC36"><path d="M106.14,2764.5 C116.18,2830.51 146.32,2964.91 230.56,3035 C254.31,3054.76 280.9419,3063.0122 310.3119,3066.9022" fill="none" id="admin-to-UC36" style="stroke:#181818;stroke-width:1;"/><polygon fill="#181818" points="316.26,3067.69,307.8631,3062.5429,311.3033,3067.0335,306.8127,3070.4737,316.26,3067.69" style="stroke:#181818;stroke-width:1;"/></g><!--link admin to UC37--><g class="link" data-entity-1="admin" data-entity-2="UC37" data-source-line="113" data-uid="lnk88" id="link_admin_UC37"><path d="M110.85,2764.33 C126.16,2818.74 162.02,2917.48 230.56,2969 C257.57,2989.31 288.2534,2997.1577 319.3934,3000.4577" fill="none" id="admin-to-UC37" style="stroke:#181818;stroke-width:1;"/><polygon fill="#181818" points="325.36,3001.09,316.8316,2996.1638,320.3878,3000.5631,315.9886,3004.1193,325.36,3001.09" style="stroke:#181818;stroke-width:1;"/></g><!--link admin to UC38--><g class="link" data-entity-1="admin" data-entity-2="UC38" data-source-line="114" data-uid="lnk89" id="link_admin_UC38"><path d="M118.87,2764.29 C139.49,2805.26 177.86,2868.94 230.56,2903 C257.77,2920.58 286.6913,2928.2273 316.7113,2932.1773" fill="none" id="admin-to-UC38" style="stroke:#181818;stroke-width:1;"/><polygon fill="#181818" points="322.66,2932.96,314.2587,2927.8201,317.7027,2932.3077,313.2151,2935.7517,322.66,2932.96" style="stroke:#181818;stroke-width:1;"/></g><!--link admin to UC39--><g class="link" data-entity-1="admin" data-entity-2="UC39" data-source-line="115" data-uid="lnk90" id="link_admin_UC39"><path d="M176.09,2764.51 C193.9,2773.6 212.87,2783.21 230.56,2792 C273.5,2813.34 317.9935,2834.709 349.9135,2849.919" fill="none" id="admin-to-UC39" style="stroke:#181818;stroke-width:1;"/><polygon fill="#181818" points="355.33,2852.5,348.9259,2845.0175,350.8162,2850.3492,345.4846,2852.2395,355.33,2852.5" style="stroke:#181818;stroke-width:1;"/></g><!--link admin to UC41--><g class="link" data-entity-1="admin" data-entity-2="UC41" data-source-line="116" data-uid="lnk91" id="link_admin_UC41"><path d="M117.94,2687.36 C138.56,2642.73 177.75,2569.5 230.56,2523 C264.67,2492.96 307.4105,2474.5948 341.5205,2462.9748" fill="none" id="admin-to-UC41" style="stroke:#181818;stroke-width:1;"/><polygon fill="#181818" points="347.2,2461.04,337.3909,2460.1559,342.4671,2462.6523,339.9706,2467.7285,347.2,2461.04" style="stroke:#181818;stroke-width:1;"/></g><!--link admin to UC42--><g class="link" data-entity-1="admin" data-entity-2="UC42" data-source-line="117" data-uid="lnk92" id="link_admin_UC42"><path d="M106.02,2687.59 C115.89,2621.39 145.8,2486.17 230.56,2416 C256.37,2394.63 286.6092,2386.6315 317.7992,2383.5415" fill="none" id="admin-to-UC42" style="stroke:#181818;stroke-width:1;"/><polygon fill="#181818" points="323.77,2382.95,314.4195,2379.8568,318.7944,2383.4429,315.2082,2387.8178,323.77,2382.95" style="stroke:#181818;stroke-width:1;"/></g><!--link tiempo to UC42--><g class="link" data-entity-1="tiempo" data-entity-2="UC42" data-source-line="119" data-uid="lnk93" id="link_tiempo_UC42"><path d="M126.95,2383 C170.7,2383 255.51,2383 317.6,2383" fill="none" id="tiempo-to-UC42" style="stroke:#181818;stroke-width:1;"/><polygon fill="#181818" points="323.6,2383,314.6,2379,318.6,2383,314.6,2387,323.6,2383" style="stroke:#181818;stroke-width:1;"/></g><!--SRC=[XLPBZjim3Dtx549MxMA0IBRpsHG8qa4Ge0KAjDEznbPSeOwSIZ8mwA27wHdc2BbOPSLEA9bETwJv-FWeKhPhSR34DaJBweSbfTIYiB9HIS8BssWo-zWKGban8zoGiYc6nvloA9KqLlFIkNjbhBHjuH9vxQ6yYm_WRr8SJur_RhsP92TU_EIL8BFFvxUohHkowvXcv3KXf3MYuCR5jbfmJQfBn2K_RIaCVnTzqFHH1gEFfRHHTXh4Q-aaHeWi-ODesnXPAMvRpL6178GzInwhl246gGj4weXdYUeTmLQuwBezAln4UH_osUkHM1yTXD8vfXGIK8hB3331QFPk1VIDvrfgVUVqkzqI9cfdKzYMr_BtbOgK8joNT0BkGHrwT9eq_s-5SSuILRuJxbgStrINyqMBgbMM6tGYfpuwBF8y7ihfbdv1q2d4iElOtE8o39rSZ4hHsOqKPG7PonGiHuzgswY3hDo95lx0Ta89tRrANb7I8aHNTVFSltTSWGKgzsuAFhx75tuK2fsNy25nRMeLx8nVZp5eFT6vTkzShoekrKKgsH6T_qAcbA9CJwRbMZQ6zE_igLLh3i8qUk1YuqMw06xbKdILGffiOfL2L7x_ddoIJdWXkNaddNxLtVdtyPKlVxLIkqEfU-n0lOZx603NDfP86p7B2cqZHk6J_2eCCiMzaYvJ4pD4Bn-QuFvkXTPZ2Ekgk6ykUNZuuBzzDvi1EmLs1kmSs0jWBu6z0lOQrff31rQci3I5jIaiI64L2gaPf6P1Kv2QGMe6-sAm3eETCLYKmTuOL932ebdWCFVVq_sv34WMkcdePg6RX-uYT9UXkmhTTU0wKO7hP5r-dAuF_W40]--></g></svg>