<svg xmlns="http://www.w3.org/2000/svg" xmlns:xlink="http://www.w3.org/1999/xlink" contentStyleType="text/css" data-diagram-type="SALT" height="451px" preserveAspectRatio="none" style="width:332px;height:451px;background:#FFFFFF;" version="1.1" viewBox="0 0 332 451" width="332px" zoomAndPan="magnify"><defs/><g><text fill="#000000" font-family="sans-serif" font-size="12" font-weight="bold" lengthAdjust="spacing" textLength="173.25" x="6" y="17.1387">EXPORTAR ASIGNATURAS</text><line style="stroke:#AAAAAA;stroke-width:1;" x1="6" x2="325" y1="24.4688" y2="24.4688"/><line style="stroke:#AAAAAA;stroke-width:1;" x1="6" x2="325" y1="26.4688" y2="26.4688"/><text fill="#000000" font-family="sans-serif" font-size="12" font-weight="bold" lengthAdjust="spacing" textLength="184.9688" x="6" y="57.0762">1. Resumen de la Selecci&#243;n</text><text fill="#000000" font-family="sans-serif" font-size="12" font-style="italic" lengthAdjust="spacing" textLength="273.7793" x="6" y="73.0449">Se han marcado 3 asignaturas para exportar.</text><rect fill="#EEEEEE" height="17.9688" rx="5" ry="5" style="stroke:#000000;stroke-width:2.5;" width="196" x="8.5" y="96.3438"/><path d="M49.2266,101.3125 L48.2266,102.3125 L50.2266,104.3125 L51.2266,103.3125 L49.2266,101.3125 M47.2266,103.3125 L43.2266,107.3125 L43.2266,109.3125 L45.2266,109.3125 L49.2266,105.3125 L47.2266,103.3125" fill="#000000"/><text fill="#000000" font-family="sans-serif" font-size="12" lengthAdjust="spacing" textLength="114.7324" x="56.041" y="109.4824">Modificar selecci&#243;n</text><line style="stroke:#AAAAAA;stroke-width:1;" x1="6" x2="325" y1="138.2813" y2="138.2813"/><text fill="#000000" font-family="sans-serif" font-size="12" font-weight="bold" lengthAdjust="spacing" textLength="191.4141" x="6" y="169.8887">2. Configuraci&#243;n del Archivo</text><text fill="#000000" font-family="sans-serif" font-size="12" lengthAdjust="spacing" textLength="192.4277" x="6" y="185.8574">Seleccione el formato de salida:</text><text fill="#000000" font-family="sans-serif" font-size="12" lengthAdjust="spacing" textLength="154.9277" x="6" y="201.8262">(o) Hoja de C&#225;lculo (.xlsx)</text><text fill="#000000" font-family="sans-serif" font-size="12" lengthAdjust="spacing" textLength="208.4883" x="26" y="217.7949">Archivo separado por comas (.csv)</text><ellipse cx="13" cy="213.6406" fill="none" rx="5" ry="5" style="stroke:#000000;stroke-width:1.5;"/><text fill="#000000" font-family="sans-serif" font-size="12" lengthAdjust="spacing" textLength="133.1543" x="26" y="233.7637">Documento PDF (.pdf)</text><ellipse cx="13" cy="229.6094" fill="none" rx="5" ry="5" style="stroke:#000000;stroke-width:1.5;"/><line style="stroke:#AAAAAA;stroke-width:1;" x1="6" x2="325" y1="258.0625" y2="258.0625"/><text fill="#000000" font-family="sans-serif" font-size="12" font-weight="bold" lengthAdjust="spacing" textLength="237.6855" x="6" y="289.6699">3. Vista Previa de Datos a Exportar</text><text fill="#000000" font-family="sans-serif" font-size="12" font-weight="bold" lengthAdjust="spacing" textLength="46.5879" x="7" y="306.6387">C&#243;digo</text><text fill="#000000" font-family="sans-serif" font-size="12" font-weight="bold" lengthAdjust="spacing" textLength="131.6836" x="55.5879" y="306.6387">Nombre Asignatura</text><text fill="#000000" font-family="sans-serif" font-size="12" lengthAdjust="spacing" textLength="35.9766" x="7" y="322.6074">GII-01</text><text fill="#000000" font-family="sans-serif" font-size="12" lengthAdjust="spacing" textLength="188.0273" x="55.5879" y="322.6074">Fundamentos de Programaci&#243;n</text><text fill="#000000" font-family="sans-serif" font-size="12" lengthAdjust="spacing" textLength="35.9766" x="7" y="338.5762">GII-05</text><text fill="#000000" font-family="sans-serif" font-size="12" lengthAdjust="spacing" textLength="100.3477" x="55.5879" y="338.5762">Bases de Datos I</text><text fill="#000000" font-family="sans-serif" font-size="12" lengthAdjust="spacing" textLength="35.9766" x="7" y="354.5449">GII-08</text><text fill="#000000" font-family="sans-serif" font-size="12" lengthAdjust="spacing" textLength="173.1211" x="55.5879" y="354.5449">Estructura de Computadores</text><line style="stroke:#000000;stroke-width:1;" x1="6" x2="54.5879" y1="294.5" y2="294.5"/><line style="stroke:#000000;stroke-width:1;" x1="54.5879" x2="244.6152" y1="310.4688" y2="310.4688"/><line style="stroke:#000000;stroke-width:1;" x1="54.5879" x2="244.6152" y1="294.5" y2="294.5"/><line style="stroke:#000000;stroke-width:1;" x1="6" x2="54.5879" y1="358.375" y2="358.375"/><line style="stroke:#000000;stroke-width:1;" x1="54.5879" x2="244.6152" y1="358.375" y2="358.375"/><line style="stroke:#000000;stroke-width:1;" x1="6" x2="54.5879" y1="342.4063" y2="342.4063"/><line style="stroke:#000000;stroke-width:1;" x1="6" x2="54.5879" y1="326.4375" y2="326.4375"/><line style="stroke:#000000;stroke-width:1;" x1="54.5879" x2="244.6152" y1="342.4063" y2="342.4063"/><line style="stroke:#000000;stroke-width:1;" x1="6" x2="54.5879" y1="310.4688" y2="310.4688"/><line style="stroke:#000000;stroke-width:1;" x1="54.5879" x2="244.6152" y1="326.4375" y2="326.4375"/><line style="stroke:#000000;stroke-width:1;" x1="6" x2="6" y1="294.5" y2="310.4688"/><line style="stroke:#000000;stroke-width:1;" x1="244.6152" x2="244.6152" y1="326.4375" y2="342.4063"/><line style="stroke:#000000;stroke-width:1;" x1="54.5879" x2="54.5879" y1="310.4688" y2="326.4375"/><line style="stroke:#000000;stroke-width:1;" x1="244.6152" x2="244.6152" y1="310.4688" y2="326.4375"/><line style="stroke:#000000;stroke-width:1;" x1="54.5879" x2="54.5879" y1="294.5" y2="310.4688"/><line style="stroke:#000000;stroke-width:1;" x1="244.6152" x2="244.6152" y1="294.5" y2="310.4688"/><line style="stroke:#000000;stroke-width:1;" x1="6" x2="6" y1="342.4063" y2="358.375"/><line style="stroke:#000000;stroke-width:1;" x1="6" x2="6" y1="326.4375" y2="342.4063"/><line style="stroke:#000000;stroke-width:1;" x1="54.5879" x2="54.5879" y1="342.4063" y2="358.375"/><line style="stroke:#000000;stroke-width:1;" x1="6" x2="6" y1="310.4688" y2="326.4375"/><line style="stroke:#000000;stroke-width:1;" x1="244.6152" x2="244.6152" y1="342.4063" y2="358.375"/><line style="stroke:#000000;stroke-width:1;" x1="54.5879" x2="54.5879" y1="326.4375" y2="342.4063"/><line style="stroke:#AAAAAA;stroke-width:1;" x1="6" x2="325" y1="378.8438" y2="378.8438"/><line style="stroke:#AAAAAA;stroke-width:1;" x1="6" x2="325" y1="380.8438" y2="380.8438"/><text fill="#000000" font-family="sans-serif" font-size="12" lengthAdjust="spacing" textLength="206.7539" x="9" y="411.4512">&#191;Desea proceder con la descarga?</text><line style="stroke:#000000;stroke-width:1;" x1="7" x2="266" y1="414.2813" y2="414.2813"/><line style="stroke:#000000;stroke-width:1;" x1="7" x2="7" y1="411.2813" y2="413.2813"/><line style="stroke:#000000;stroke-width:1;" x1="266" x2="266" y1="411.2813" y2="413.2813"/><rect fill="#EEEEEE" height="17.9688" rx="5" ry="5" style="stroke:#000000;stroke-width:2.5;" width="100" x="9.5" y="421.7813"/><text fill="#000000" font-family="sans-serif" font-size="12" lengthAdjust="spacing" textLength="64.9746" x="27.0127" y="434.9199">X Cancelar</text><rect fill="#EEEEEE" height="17.9688" rx="5" ry="5" style="stroke:#000000;stroke-width:2.5;" width="204" x="116.5" y="421.7813"/><text fill="#000000" font-family="sans-serif" font-size="12" lengthAdjust="spacing" textLength="148.9922" x="144.0039" y="434.9199">&#10003; Confirmar Exportaci&#243;n</text><line style="stroke:#000000;stroke-width:1;" x1="5" x2="325" y1="5" y2="5"/><line style="stroke:#000000;stroke-width:1;" x1="5" x2="325" y1="444.25" y2="444.25"/><line style="stroke:#000000;stroke-width:1;" x1="5" x2="5" y1="5" y2="20.9688"/><line style="stroke:#000000;stroke-width:1;" x1="325" x2="325" y1="5" y2="20.9688"/><line style="stroke:#000000;stroke-width:1;" x1="5" x2="5" y1="173.7188" y2="189.6875"/><line style="stroke:#000000;stroke-width:1;" x1="325" x2="325" y1="173.7188" y2="189.6875"/><line style="stroke:#000000;stroke-width:1;" x1="5" x2="5" y1="383.3438" y2="399.3125"/><line style="stroke:#000000;stroke-width:1;" x1="325" x2="325" y1="383.3438" y2="399.3125"/><line style="stroke:#000000;stroke-width:1;" x1="5" x2="5" y1="44.9375" y2="60.9063"/><line style="stroke:#000000;stroke-width:1;" x1="325" x2="325" y1="44.9375" y2="60.9063"/><line style="stroke:#000000;stroke-width:1;" x1="5" x2="5" y1="221.625" y2="237.5938"/><line style="stroke:#000000;stroke-width:1;" x1="325" x2="325" y1="221.625" y2="237.5938"/><line style="stroke:#000000;stroke-width:1;" x1="5" x2="5" y1="92.8438" y2="117.8125"/><line style="stroke:#000000;stroke-width:1;" x1="325" x2="325" y1="92.8438" y2="117.8125"/><line style="stroke:#000000;stroke-width:1;" x1="5" x2="5" y1="261.5625" y2="277.5313"/><line style="stroke:#000000;stroke-width:1;" x1="325" x2="325" y1="261.5625" y2="277.5313"/><line style="stroke:#000000;stroke-width:1;" x1="5" x2="5" y1="141.7813" y2="157.75"/><line style="stroke:#000000;stroke-width:1;" x1="325" x2="325" y1="141.7813" y2="157.75"/><line style="stroke:#000000;stroke-width:1;" x1="5" x2="5" y1="359.375" y2="375.3438"/><line style="stroke:#000000;stroke-width:1;" x1="325" x2="325" y1="359.375" y2="375.3438"/><line style="stroke:#000000;stroke-width:1;" x1="5" x2="5" y1="20.9688" y2="28.9688"/><line style="stroke:#000000;stroke-width:1;" x1="325" x2="325" y1="20.9688" y2="28.9688"/><line style="stroke:#000000;stroke-width:1;" x1="5" x2="5" y1="189.6875" y2="205.6563"/><line style="stroke:#000000;stroke-width:1;" x1="325" x2="325" y1="189.6875" y2="205.6563"/><line style="stroke:#000000;stroke-width:1;" x1="5" x2="5" y1="399.3125" y2="417.2813"/><line style="stroke:#000000;stroke-width:1;" x1="325" x2="325" y1="399.3125" y2="417.2813"/><line style="stroke:#000000;stroke-width:1;" x1="5" x2="5" y1="60.9063" y2="76.875"/><line style="stroke:#000000;stroke-width:1;" x1="325" x2="325" y1="60.9063" y2="76.875"/><line style="stroke:#000000;stroke-width:1;" x1="5" x2="5" y1="237.5938" y2="253.5625"/><line style="stroke:#000000;stroke-width:1;" x1="325" x2="325" y1="237.5938" y2="253.5625"/><line style="stroke:#000000;stroke-width:1;" x1="5" x2="5" y1="117.8125" y2="133.7813"/><line style="stroke:#000000;stroke-width:1;" x1="325" x2="325" y1="117.8125" y2="133.7813"/><line style="stroke:#000000;stroke-width:1;" x1="5" x2="5" y1="277.5313" y2="293.5"/><line style="stroke:#000000;stroke-width:1;" x1="325" x2="325" y1="277.5313" y2="293.5"/><line style="stroke:#000000;stroke-width:1;" x1="5" x2="5" y1="157.75" y2="173.7188"/><line style="stroke:#000000;stroke-width:1;" x1="325" x2="325" y1="157.75" y2="173.7188"/><line style="stroke:#000000;stroke-width:1;" x1="5" x2="5" y1="375.3438" y2="383.3438"/><line style="stroke:#000000;stroke-width:1;" x1="325" x2="325" y1="375.3438" y2="383.3438"/><line style="stroke:#000000;stroke-width:1;" x1="5" x2="5" y1="28.9688" y2="44.9375"/><line style="stroke:#000000;stroke-width:1;" x1="325" x2="325" y1="28.9688" y2="44.9375"/><line style="stroke:#000000;stroke-width:1;" x1="5" x2="5" y1="205.6563" y2="221.625"/><line style="stroke:#000000;stroke-width:1;" x1="325" x2="325" y1="205.6563" y2="221.625"/><line style="stroke:#000000;stroke-width:1;" x1="5" x2="5" y1="417.2813" y2="444.25"/><line style="stroke:#000000;stroke-width:1;" x1="325" x2="325" y1="417.2813" y2="444.25"/><line style="stroke:#000000;stroke-width:1;" x1="5" x2="5" y1="76.875" y2="92.8438"/><line style="stroke:#000000;stroke-width:1;" x1="325" x2="325" y1="76.875" y2="92.8438"/><line style="stroke:#000000;stroke-width:1;" x1="5" x2="5" y1="253.5625" y2="261.5625"/><line style="stroke:#000000;stroke-width:1;" x1="325" x2="325" y1="253.5625" y2="261.5625"/><line style="stroke:#000000;stroke-width:1;" x1="5" x2="5" y1="133.7813" y2="141.7813"/><line style="stroke:#000000;stroke-width:1;" x1="325" x2="325" y1="133.7813" y2="141.7813"/><line style="stroke:#000000;stroke-width:1;" x1="5" x2="5" y1="293.5" y2="359.375"/><line style="stroke:#000000;stroke-width:1;" x1="325" x2="325" y1="293.5" y2="359.375"/><!--SRC=[VLFRJjj047ttLuoeL2MgOf805OsI59Cu44eWIW95GgYQh2TcAtitshKjAifNzBKl_GO-e5Bvatv9nywDlDGlA- -SdJddxDaZcw19B4O9qCDS6_xph0mL9gb1- -LpV-JtHjx0TnxVES1VSzhsRuQNeuat0c_SFxdm9bSZRzpSdRQBUglLAbPtXQwvC2ARngGW88WGnXIH4FBbMQqFDMLxJ72F2c8q0WCDUu0R5Z17WsjwRdDNjb_Dk8Ncspaf8QCs37GWPrAW0RkU0dUlm9NADhkw2nsjPZBaEGjqG15uHjpBJA_vBIbhHS3LcJOn9ZgNmxx901i5gAJBSAg_OhxVUVaLYJJIK78V8ljGNW2WlEhCz79DB9GrWT0nYoovmcORP5UBt3IUC-psk3WFPkN_2DbpuLhoNSBGK2OB4bqcQG71NngtblFufbYM9pilpu4C2x7mFT-uqF7K46nYi3wOVoVzVgLQOsGlLG4M36q-RMXqQ31UkBYDFc3qCLgo6rRzRSGX8toRc5Jayme7TJnF4tR8a2smJw_qjhPJjlFdTvSi8SoD5XHGxgZAenQGvIo4-75dePkpSWCTL88YZiWT3xs5lpz_B2B0bsfMNYs3mqEVd2DIGVu-76SOeKgk1kUGaR6S1gYvzMhzmArLIvEKu49dKDs7MhLHhpRsFy1WF86yNdPA9yDpi3erWY3WMp9ocYRSeEoSOOOmIbKYOsh09UVuhFjfjG6-ogJHAZVPERiUR03lzol7Ck5S6gO2rmEdIpDC-GtxIl0JK643hYQzog5pZYfCCUJUf9oEvhxcMmDK6aN_0000]--></g></svg>