<svg xmlns="http://www.w3.org/2000/svg" xmlns:xlink="http://www.w3.org/1999/xlink" contentStyleType="text/css" data-diagram-type="STATE" height="141px" preserveAspectRatio="none" style="width:1160px;height:141px;background:#FFFFFF;" version="1.1" viewBox="0 0 1160 141" width="1160px" zoomAndPan="magnify"><defs/><g><g id="NoAuth"><rect fill="#F1F1F1" height="50" rx="12.5" ry="12.5" style="stroke:#181818;stroke-width:0.5;" width="147.251" x="7" y="68"/><line style="stroke:#181818;stroke-width:0.5;" x1="7" x2="154.251" y1="94.2969" y2="94.2969"/><text fill="#000000" font-family="sans-serif" font-size="14" lengthAdjust="spacing" textLength="127.251" x="17" y="85.9951">SESION_CERRADA</text></g><g id="Menu"><rect fill="#F1F1F1" height="50" rx="12.5" ry="12.5" style="stroke:#181818;stroke-width:0.5;" width="172.0654" x="308" y="68"/><line style="stroke:#181818;stroke-width:0.5;" x1="308" x2="480.0654" y1="94.2969" y2="94.2969"/><text fill="#000000" font-family="sans-serif" font-size="14" lengthAdjust="spacing" textLength="152.0654" x="318" y="85.9951">SISTEMA_DISPONIBLE</text></g><g id="ListDocentes"><rect fill="#F1F1F1" height="50" rx="12.5" ry="12.5" style="stroke:#181818;stroke-width:0.5;" width="165.6328" x="667" y="68"/><line style="stroke:#181818;stroke-width:0.5;" x1="667" x2="832.6328" y1="94.2969" y2="94.2969"/><text fill="#000000" font-family="sans-serif" font-size="14" lengthAdjust="spacing" textLength="145.6328" x="677" y="85.9951">DOCENTES_ABIERTO</text></g><g id="EditDocentes"><rect fill="#F1F1F1" height="50" rx="12.5" ry="12.5" style="stroke:#181818;stroke-width:0.5;" width="156.7461" x="997" y="68"/><line style="stroke:#181818;stroke-width:0.5;" x1="997" x2="1153.7461" y1="94.2969" y2="94.2969"/><text fill="#000000" font-family="sans-serif" font-size="14" lengthAdjust="spacing" textLength="136.7461" x="1007" y="85.9951">DOCENTE_ABIERTO</text></g><!--link NoAuth to Menu--><g class="link" data-entity-1="NoAuth" data-entity-2="Menu" data-source-line="13" data-uid="lnk2" id="link_NoAuth_Menu"><path d="M154.14,93 C200.07,93 253.64,93 301.8,93" fill="none" id="NoAuth-to-Menu" style="stroke:#181818;stroke-width:1;"/><polygon fill="#181818" points="307.8,93,298.8,89,302.8,93,298.8,97,307.8,93" style="stroke:#181818;stroke-width:1;"/><text fill="#000000" font-family="sans-serif" font-size="13" lengthAdjust="spacing" textLength="92.5044" x="185" y="89.0669">iniciarSesion()</text></g><!--link Menu to NoAuth--><g class="link" data-entity-1="Menu" data-entity-2="NoAuth" data-source-line="14" data-uid="lnk3" id="link_Menu_NoAuth"><path d="M307.92,113.62 C297.89,115.42 287.75,116.95 278,118 C236.46,122.46 225.48,122.98 184,118 C174.27,116.83 170.003,116.2877 160.053,114.2077" fill="none" id="Menu-to-NoAuth" style="stroke:#181818;stroke-width:1;"/><polygon fill="#181818" points="154.18,112.98,162.1711,118.737,159.0742,114.0031,163.8081,110.9062,154.18,112.98" style="stroke:#181818;stroke-width:1;"/><text fill="#000000" font-family="sans-serif" font-size="13" lengthAdjust="spacing" textLength="92.1172" x="185" y="114.0669">cerrarSesion()</text></g><!--link Menu to ListDocentes--><g class="link" data-entity-1="Menu" data-entity-2="ListDocentes" data-source-line="18" data-uid="lnk4" id="link_Menu_ListDocentes"><path d="M480.24,93 C536.91,93 604.93,93 660.93,93" fill="none" id="Menu-to-ListDocentes" style="stroke:#181818;stroke-width:1;"/><polygon fill="#181818" points="666.93,93,657.93,89,661.93,93,657.93,97,666.93,93" style="stroke:#181818;stroke-width:1;"/><text fill="#000000" font-family="sans-serif" font-size="13" lengthAdjust="spacing" textLength="92.3965" x="527.5" y="89.0669">verDocentes()</text></g><!--link ListDocentes to Menu--><g class="link" data-entity-1="ListDocentes" data-entity-2="Menu" data-source-line="24" data-uid="lnk10" id="link_ListDocentes_Menu"><path d="M666.77,113.5 C656.8,115.35 646.7,116.93 637,118 C580.9,124.18 566.12,124.03 510,118 C500.25,116.95 496.0157,116.4798 485.9857,114.6798" fill="none" id="ListDocentes-to-Menu" style="stroke:#181818;stroke-width:1;"/><polygon fill="#181818" points="480.08,113.62,488.2319,119.1469,485.0014,114.5032,489.645,111.2727,480.08,113.62" style="stroke:#181818;stroke-width:1;"/><text fill="#000000" font-family="sans-serif" font-size="13" lengthAdjust="spacing" textLength="125.9248" x="511" y="114.0669">completarGestion()</text></g><!--link ListDocentes to EditDocentes--><g class="link" data-entity-1="ListDocentes" data-entity-2="EditDocentes" data-source-line="19" data-uid="lnk5" id="link_ListDocentes_EditDocentes"><path d="M833.09,78.27 C843.14,76.92 853.28,75.77 863,75 C909.08,71.32 920.94,71.17 967,75 C976.71,75.8 980.9294,76.1781 990.9494,77.5981" fill="none" id="ListDocentes-to-EditDocentes" style="stroke:#181818;stroke-width:1;"/><polygon fill="#181818" points="996.89,78.44,988.5403,73.2167,991.9395,77.7384,987.4178,81.1376,996.89,78.44" style="stroke:#181818;stroke-width:1;"/><text fill="#000000" font-family="sans-serif" font-size="13" lengthAdjust="spacing" textLength="98.3887" x="866" y="69.0669">crearDocente()</text></g><!--link ListDocentes to EditDocentes--><g class="link" data-entity-1="ListDocentes" data-entity-2="EditDocentes" data-source-line="20" data-uid="lnk6" id="link_ListDocentes_EditDocentes"><path d="M833.24,98.73 C843.26,99.25 853.36,99.7 863,100 C909.2,101.44 920.8,101.5 967,100 C976.63,99.68 980.7391,99.5395 990.7391,98.9895" fill="none" id="ListDocentes-to-EditDocentes-1" style="stroke:#181818;stroke-width:1;"/><polygon fill="#181818" points="996.73,98.66,987.5239,95.1603,991.7375,98.9346,987.9632,103.1482,996.73,98.66" style="stroke:#181818;stroke-width:1;"/><text fill="#000000" font-family="sans-serif" font-size="13" lengthAdjust="spacing" textLength="102.8574" x="864" y="96.0669">editarDocente()</text></g><!--link EditDocentes to ListDocentes--><g class="link" data-entity-1="EditDocentes" data-entity-2="ListDocentes" data-source-line="23" data-uid="lnk9" id="link_EditDocentes_ListDocentes"><path d="M1006.14,118.04 C993.3,121.76 979.86,125.01 967,127 C921.32,134.05 908.72,133.78 863,127 C849.63,125.01 841.4293,123.3823 828.0593,119.6523" fill="none" id="EditDocentes-to-ListDocentes" style="stroke:#181818;stroke-width:1;"/><polygon fill="#181818" points="822.28,118.04,829.8741,124.3114,827.0961,119.3836,832.0238,116.6056,822.28,118.04" style="stroke:#181818;stroke-width:1;"/><text fill="#000000" font-family="sans-serif" font-size="13" lengthAdjust="spacing" textLength="92.3965" x="869" y="123.0669">verDocentes()</text></g><!--link ListDocentes to ListDocentes--><g class="link" data-entity-1="ListDocentes" data-entity-2="ListDocentes" data-source-line="21" data-uid="lnk7" id="link_ListDocentes_ListDocentes"><path d="M722.25,67.72 C713.84,50.22 723.09,33 750,33 C776.91,33 788.7589,44.8121 780.3489,62.3121" fill="none" id="ListDocentes-to-ListDocentes" style="stroke:#181818;stroke-width:1;"/><polygon fill="#181818" points="777.75,67.72,785.2536,61.3407,779.9157,63.2134,778.0431,57.8755,777.75,67.72" style="stroke:#181818;stroke-width:1;"/><text fill="#000000" font-family="sans-serif" font-size="13" lengthAdjust="spacing" textLength="117.6348" x="691.5" y="24.0669">eliminarDocente()</text></g><!--link EditDocentes to EditDocentes--><g class="link" data-entity-1="EditDocentes" data-entity-2="EditDocentes" data-source-line="22" data-uid="lnk8" id="link_EditDocentes_EditDocentes"><path d="M1048.43,67.72 C1040.23,50.22 1049.25,33 1075.5,33 C1101.75,33 1113.3158,44.7869 1105.1158,62.2869" fill="none" id="EditDocentes-to-EditDocentes" style="stroke:#181818;stroke-width:1;"/><polygon fill="#181818" points="1102.57,67.72,1110.0108,61.2675,1104.6915,63.1924,1102.7666,57.8731,1102.57,67.72" style="stroke:#181818;stroke-width:1;"/><text fill="#000000" font-family="sans-serif" font-size="13" lengthAdjust="spacing" textLength="102.8574" x="1024.5" y="24.0669">editarDocente()</text></g><!--SRC=[bP1DReCm48NtFiKe6zf5Bi0YaXEiobA02hD722QD9UA9RDFprxWDTLgfFpkFvtjltio49m-UmEgNiuTHMnoy9iDO9fplHt8PO-7X4JPAA5bNtK4q3I_u1de75V7PdrT0gbQKl2kaUguhkJ-A29LevjMag0-YQeNg-5wAfgqZSTJE5pIWyUY-W7US6FKdnxAIndaYSEX2uf3pFGrijxiu4tBGHW-wjoeI3uyiVY_z3pI70QrDWDNqQkc4ZYmk1rXbQT0SNj7UYY1DUn5EquP15liR_ZkDeVeHlq-2axveamfIkp_uVyF_jUbodx0XNQuJ1jidT3wUymq0]--></g></svg>