<svg xmlns="http://www.w3.org/2000/svg" xmlns:xlink="http://www.w3.org/1999/xlink" contentStyleType="text/css" data-diagram-type="STATE" height="166px" preserveAspectRatio="none" style="width:1175px;height:166px;background:#FFFFFF;" version="1.1" viewBox="0 0 1175 166" width="1175px" zoomAndPan="magnify"><defs/><g><g id="NoAuth"><rect fill="#F1F1F1" height="50" rx="12.5" ry="12.5" style="stroke:#181818;stroke-width:0.5;" width="147.251" x="7" y="68"/><line style="stroke:#181818;stroke-width:0.5;" x1="7" x2="154.251" y1="94.2969" y2="94.2969"/><text fill="#000000" font-family="sans-serif" font-size="14" lengthAdjust="spacing" textLength="127.251" x="17" y="85.9951">SESION_CERRADA</text></g><g id="Menu"><rect fill="#F1F1F1" height="50" rx="12.5" ry="12.5" style="stroke:#181818;stroke-width:0.5;" width="172.0654" x="308" y="68"/><line style="stroke:#181818;stroke-width:0.5;" x1="308" x2="480.0654" y1="94.2969" y2="94.2969"/><text fill="#000000" font-family="sans-serif" font-size="14" lengthAdjust="spacing" textLength="152.0654" x="318" y="85.9951">SISTEMA_DISPONIBLE</text></g><g id="ListDocentes"><rect fill="#F1F1F1" height="50" rx="12.5" ry="12.5" style="stroke:#181818;stroke-width:0.5;" width="165.6328" x="667" y="68"/><line style="stroke:#181818;stroke-width:0.5;" x1="667" x2="832.6328" y1="94.2969" y2="94.2969"/><text fill="#000000" font-family="sans-serif" font-size="14" lengthAdjust="spacing" textLength="145.6328" x="677" y="85.9951">DOCENTES_ABIERTO</text></g><g id="EditDocentes"><rect fill="#F1F1F1" height="50" rx="12.5" ry="12.5" style="stroke:#181818;stroke-width:0.5;" width="156.7461" x="1012" y="68"/><line style="stroke:#181818;stroke-width:0.5;" x1="1012" x2="1168.7461" y1="94.2969" y2="94.2969"/><text fill="#000000" font-family="sans-serif" font-size="14" lengthAdjust="spacing" textLength="136.7461" x="1022" y="85.9951">DOCENTE_ABIERTO</text></g><!--link NoAuth to Menu--><g class="link" data-entity-1="NoAuth" data-entity-2="Menu" data-source-line="13" data-uid="lnk2" id="link_NoAuth_Menu"><path d="M154.14,93 C200.07,93 253.64,93 301.8,93" fill="none" id="NoAuth-to-Menu" style="stroke:#181818;stroke-width:1;"/><polygon fill="#181818" points="307.8,93,298.8,89,302.8,93,298.8,97,307.8,93" style="stroke:#181818;stroke-width:1;"/><text fill="#000000" font-family="sans-serif" font-size="13" lengthAdjust="spacing" textLength="92.5044" x="185" y="89.0669">iniciarSesion()</text></g><!--link Menu to NoAuth--><g class="link" data-entity-1="Menu" data-entity-2="NoAuth" data-source-line="14" data-uid="lnk3" id="link_Menu_NoAuth"><path d="M307.92,113.62 C297.89,115.42 287.75,116.95 278,118 C236.46,122.46 225.48,122.99 184,118 C174.27,116.83 170.0042,116.2821 160.0542,114.2121" fill="none" id="Menu-to-NoAuth" style="stroke:#181818;stroke-width:1;"/><polygon fill="#181818" points="154.18,112.99,162.1766,118.7393,159.0752,114.0084,163.8061,110.907,154.18,112.99" style="stroke:#181818;stroke-width:1;"/><text fill="#000000" font-family="sans-serif" font-size="13" lengthAdjust="spacing" textLength="92.1172" x="185" y="114.0669">cerrarSesion()</text></g><!--link Menu to ListDocentes--><g class="link" data-entity-1="Menu" data-entity-2="ListDocentes" data-source-line="18" data-uid="lnk4" id="link_Menu_ListDocentes"><path d="M480.24,93 C536.91,93 604.93,93 660.93,93" fill="none" id="Menu-to-ListDocentes" style="stroke:#181818;stroke-width:1;"/><polygon fill="#181818" points="666.93,93,657.93,89,661.93,93,657.93,97,666.93,93" style="stroke:#181818;stroke-width:1;"/><text fill="#000000" font-family="sans-serif" font-size="13" lengthAdjust="spacing" textLength="92.3965" x="527.5" y="89.0669">verDocentes()</text></g><!--link ListDocentes to Menu--><g class="link" data-entity-1="ListDocentes" data-entity-2="Menu" data-source-line="25" data-uid="lnk11" id="link_ListDocentes_Menu"><path d="M666.77,113.51 C656.8,115.36 646.7,116.93 637,118 C580.9,124.19 566.12,124.03 510,118 C500.25,116.95 496.0157,116.4798 485.9857,114.6798" fill="none" id="ListDocentes-to-Menu" style="stroke:#181818;stroke-width:1;"/><polygon fill="#181818" points="480.08,113.62,488.2319,119.1469,485.0014,114.5032,489.645,111.2727,480.08,113.62" style="stroke:#181818;stroke-width:1;"/><text fill="#000000" font-family="sans-serif" font-size="13" lengthAdjust="spacing" textLength="125.9248" x="511" y="114.0669">completarGestion()</text></g><!--link ListDocentes to EditDocentes--><g class="link" data-entity-1="ListDocentes" data-entity-2="EditDocentes" data-source-line="19" data-uid="lnk5" id="link_ListDocentes_EditDocentes"><path d="M799,67.92 C818.34,59.15 841.19,50.39 863,46 C914.85,35.56 930.23,35.18 982,46 C1003.03,50.4 1019.5673,56.582 1038.1073,65.362" fill="none" id="ListDocentes-to-EditDocentes" style="stroke:#181818;stroke-width:1;"/><polygon fill="#181818" points="1043.53,67.93,1037.108,60.4629,1039.0111,65.79,1033.684,67.6931,1043.53,67.93" style="stroke:#181818;stroke-width:1;"/><text fill="#000000" font-family="sans-serif" font-size="13" lengthAdjust="spacing" textLength="98.3887" x="873.5" y="35.0669">crearDocente()</text></g><!--link ListDocentes to EditDocentes--><g class="link" data-entity-1="ListDocentes" data-entity-2="EditDocentes" data-source-line="20" data-uid="lnk6" id="link_ListDocentes_EditDocentes"><path d="M833.37,93 C887.78,93 952.61,93 1006,93" fill="none" id="ListDocentes-to-EditDocentes-1" style="stroke:#181818;stroke-width:1;"/><polygon fill="#181818" points="1012,93,1003,89,1007,93,1003,97,1012,93" style="stroke:#181818;stroke-width:1;"/><text fill="#000000" font-family="sans-serif" font-size="13" lengthAdjust="spacing" textLength="102.8574" x="871.5" y="89.0669">editarDocente()</text></g><!--link EditDocentes to ListDocentes--><g class="link" data-entity-1="EditDocentes" data-entity-2="ListDocentes" data-source-line="23" data-uid="lnk9" id="link_EditDocentes_ListDocentes"><path d="M1011.78,113.28 C1001.82,115.22 991.71,116.89 982,118 C929.46,124.03 915.57,123.8 863,118 C853.3,116.93 849.0993,116.4547 839.1293,114.6047" fill="none" id="EditDocentes-to-ListDocentes" style="stroke:#181818;stroke-width:1;"/><polygon fill="#181818" points="833.23,113.51,841.3492,119.0848,838.1461,114.4222,842.8087,111.2191,833.23,113.51" style="stroke:#181818;stroke-width:1;"/><text fill="#000000" font-family="sans-serif" font-size="13" lengthAdjust="spacing" textLength="92.3965" x="876.5" y="114.0669">verDocentes()</text></g><!--link EditDocentes to ListDocentes--><g class="link" data-entity-1="EditDocentes" data-entity-2="ListDocentes" data-source-line="24" data-uid="lnk10" id="link_EditDocentes_ListDocentes"><path d="M1050.37,118.2 C1030.69,129.4 1005.98,141.32 982,147 C930.54,159.2 914.56,158.78 863,147 C838.06,141.3 817.4752,132.1871 796.9052,120.9471" fill="none" id="EditDocentes-to-ListDocentes-1" style="stroke:#181818;stroke-width:1;"/><polygon fill="#181818" points="791.64,118.07,797.6198,125.8957,796.0277,120.4675,801.4559,118.8754,791.64,118.07" style="stroke:#181818;stroke-width:1;"/><text fill="#000000" font-family="sans-serif" font-size="13" lengthAdjust="spacing" textLength="117.6348" x="864" y="143.0669">eliminarDocente()</text></g><!--link ListDocentes to ListDocentes--><g class="link" data-entity-1="ListDocentes" data-entity-2="ListDocentes" data-source-line="21" data-uid="lnk7" id="link_ListDocentes_ListDocentes"><path d="M720.9,67.72 C712.08,50.23 721.78,33 750,33 C778.22,33 790.6216,44.8727 781.8016,62.3627" fill="none" id="ListDocentes-to-ListDocentes" style="stroke:#181818;stroke-width:1;"/><polygon fill="#181818" points="779.1,67.72,786.724,61.4851,781.3514,63.2555,779.5809,57.8829,779.1,67.72" style="stroke:#181818;stroke-width:1;"/><text fill="#000000" font-family="sans-serif" font-size="13" lengthAdjust="spacing" textLength="117.6348" x="691.5" y="24.0669">eliminarDocente()</text></g><!--link EditDocentes to EditDocentes--><g class="link" data-entity-1="EditDocentes" data-entity-2="EditDocentes" data-source-line="22" data-uid="lnk8" id="link_EditDocentes_EditDocentes"><path d="M1062.08,67.72 C1053.46,50.23 1062.94,33 1090.5,33 C1118.06,33 1130.1925,44.8481 1121.5725,62.3381" fill="none" id="EditDocentes-to-EditDocentes" style="stroke:#181818;stroke-width:1;"/><polygon fill="#181818" points="1118.92,67.72,1126.4866,61.4155,1121.1304,63.2351,1119.3108,57.8789,1118.92,67.72" style="stroke:#181818;stroke-width:1;"/><text fill="#000000" font-family="sans-serif" font-size="13" lengthAdjust="spacing" textLength="102.8574" x="1039.5" y="24.0669">editarDocente()</text></g><!--SRC=[ZP31ReCm38RlUGgh5xP3Nu139LgYALA1YN172DpL4asg9Epv5xALfKDgTqlYp_QNVyIJ0wV1qCVPmK06UqTQCPPmwxf1suGnVt086ycbgChsmEiwoxCDT1PAdKtkl012Dhp8sbp8zweK-oCFK85gMeRarO6N3PTjjXUyRgf07CcwNFUe7De_u1t71_hbM5BeOHerMBJUs7j-sy1skmix8GLIr5DdP21UNbbudki_Q0ez6XC1oz2hqIUqsk0SmD8MYwRmYUPsyQrnBS2nhLzaiBlXpsdqjuVulGcET24LDyJZ_Z5_XJ_wwHDuBREodmFraUZBTKJlyORMXVo_0000]--></g></svg>