<svg xmlns="http://www.w3.org/2000/svg" xmlns:xlink="http://www.w3.org/1999/xlink" contentStyleType="text/css" data-diagram-type="STATE" height="804px" preserveAspectRatio="none" style="width:1018px;height:804px;background:#FFFFFF;" version="1.1" viewBox="0 0 1018 804" width="1018px" zoomAndPan="magnify"><defs/><g><g id="RESPUESTAS_ABIERTO"><rect fill="#F1F1F1" height="50" rx="12.5" ry="12.5" style="stroke:#181818;stroke-width:0.5;" width="179.3525" x="339.5" y="7"/><line style="stroke:#181818;stroke-width:0.5;" x1="339.5" x2="518.8525" y1="33.2969" y2="33.2969"/><text fill="#000000" font-family="sans-serif" font-size="14" lengthAdjust="spacing" textLength="159.3525" x="349.5" y="24.9951">RESPUESTAS_ABIERTO</text></g><g id="RESPUESTAS_CONTEXTUALES_ABIERTO"><rect fill="#F1F1F1" height="50" rx="12.5" ry="12.5" style="stroke:#181818;stroke-width:0.5;" width="298.5166" x="553.5" y="7"/><line style="stroke:#181818;stroke-width:0.5;" x1="553.5" x2="852.0166" y1="33.2969" y2="33.2969"/><text fill="#000000" font-family="sans-serif" font-size="14" lengthAdjust="spacing" textLength="278.5166" x="563.5" y="24.9951">RESPUESTAS_CONTEXTUALES_ABIERTO</text></g><g id="PREGUNTAS_ABIERTO"><rect fill="#F1F1F1" height="50" rx="12.5" ry="12.5" style="stroke:#181818;stroke-width:0.5;" width="174.0547" x="7" y="748"/><line style="stroke:#181818;stroke-width:0.5;" x1="7" x2="181.0547" y1="774.2969" y2="774.2969"/><text fill="#000000" font-family="sans-serif" font-size="14" lengthAdjust="spacing" textLength="154.0547" x="17" y="765.9951">PREGUNTAS_ABIERTO</text></g><g id="PREGUNTAS_CONTEXTUALES_ABIERTO"><rect fill="#F1F1F1" height="50" rx="12.5" ry="12.5" style="stroke:#181818;stroke-width:0.5;" width="293.2188" x="216.5" y="748"/><line style="stroke:#181818;stroke-width:0.5;" x1="216.5" x2="509.7188" y1="774.2969" y2="774.2969"/><text fill="#000000" font-family="sans-serif" font-size="14" lengthAdjust="spacing" textLength="273.2188" x="226.5" y="765.9951">PREGUNTAS_CONTEXTUALES_ABIERTO</text></g><g id="PREGUNTA_ABIERTO"><rect fill="#F1F1F1" height="50" rx="12.5" ry="12.5" style="stroke:#181818;stroke-width:0.5;" width="165.168" x="544.5" y="748"/><line style="stroke:#181818;stroke-width:0.5;" x1="544.5" x2="709.668" y1="774.2969" y2="774.2969"/><text fill="#000000" font-family="sans-serif" font-size="14" lengthAdjust="spacing" textLength="145.168" x="554.5" y="765.9951">PREGUNTA_ABIERTO</text></g><g id="PREGUNTA_CONTEXTUAL_ABIERTO"><rect fill="#F1F1F1" height="50" rx="12.5" ry="12.5" style="stroke:#181818;stroke-width:0.5;" width="266.5996" x="744.5" y="748"/><line style="stroke:#181818;stroke-width:0.5;" x1="744.5" x2="1011.0996" y1="774.2969" y2="774.2969"/><text fill="#000000" font-family="sans-serif" font-size="14" lengthAdjust="spacing" textLength="246.5996" x="754.5" y="765.9951">PREGUNTA_CONTEXTUAL_ABIERTO</text></g><path d="M255.5,118 L876.5,118 A12.5,12.5 0 0 1 889,130.5 L889,144.2969 L243,144.2969 L243,130.5 A12.5,12.5 0 0 1 255.5,118" fill="#F1F1F1"/><rect fill="none" height="553.2969" rx="12.5" ry="12.5" style="stroke:#181818;stroke-width:0.5;" width="646" x="243" y="118"/><line style="stroke:#181818;stroke-width:0.5;" x1="243" x2="889" y1="144.2969" y2="144.2969"/><text fill="#000000" font-family="sans-serif" font-size="14" lengthAdjust="spacing" textLength="115.6504" x="508.1748" y="135.9951">editarPregunta()</text><g id="editarPregunta.EditandoDatos"><rect fill="#F1F1F1" height="50" rx="12.5" ry="12.5" style="stroke:#181818;stroke-width:0.5;" width="50" x="424" y="246.2969"/><line style="stroke:#181818;stroke-width:0.5;" x1="424" x2="474" y1="272.5938" y2="272.5938"/><text fill="#000000" font-family="sans-serif" font-size="14" lengthAdjust="spacing" textLength="4.4502" x="446.7749" y="264.292">&#160;</text></g><g id="editarPregunta.GuardandoDatos"><rect fill="#F1F1F1" height="50" rx="12.5" ry="12.5" style="stroke:#181818;stroke-width:0.5;" width="50" x="424" y="518.2969"/><line style="stroke:#181818;stroke-width:0.5;" x1="424" x2="474" y1="544.5938" y2="544.5938"/><text fill="#000000" font-family="sans-serif" font-size="14" lengthAdjust="spacing" textLength="4.4502" x="446.7749" y="536.292">&#160;</text></g><ellipse cx="449" cy="165.2969" fill="#222222" rx="10" ry="10" style="stroke:#222222;stroke-width:1;"/><ellipse cx="449" cy="650.2969" fill="none" rx="11" ry="11" style="stroke:#222222;stroke-width:1;"/><ellipse cx="449" cy="650.2969" fill="#222222" rx="6" ry="6" style="stroke:#222222;stroke-width:1;"/><!--link *start*editarPregunta to EditandoDatos--><g class="link" data-entity-1=".start.editarPregunta" data-entity-2="EditandoDatos" data-source-line="22" data-uid="lnk9" id="link_.start.editarPregunta_EditandoDatos"><path d="M449,175.5269 C449,191.2369 449,217.6569 449,240.1669" fill="none" id="*start*editarPregunta-to-EditandoDatos" style="stroke:#008000;stroke-width:1;"/><polygon fill="#008000" points="449,246.1669,453,237.1669,449,241.1669,445,237.1669,449,246.1669" style="stroke:#008000;stroke-width:1;"/><path d="M454,198.2969 L454,223.2969 L627,223.2969 L627,208.2969 L617,198.2969 L454,198.2969" fill="#FEFFDD" style="stroke:#181818;stroke-width:0.5;"/><path d="M617,198.2969 L617,208.2969 L627,208.2969 L617,198.2969" fill="#FEFFDD" style="stroke:#181818;stroke-width:0.5;"/><text fill="#000000" font-family="sans-serif" font-size="13" font-weight="bold" lengthAdjust="spacing" textLength="60.5313" x="460" y="215.3638">Docente</text><text fill="#000000" font-family="sans-serif" font-size="13" lengthAdjust="spacing" textLength="88.1753" x="524.6636" y="215.3638">solicita editar</text></g><!--link EditandoDatos to GuardandoDatos--><g class="link" data-entity-1="EditandoDatos" data-entity-2="GuardandoDatos" data-source-line="27" data-uid="lnk10" id="link_EditandoDatos_GuardandoDatos"><path d="M423.91,277.6969 C371.24,289.0469 254,314.2969 254,314.2969 C254,314.2969 254,500.2969 254,500.2969 C254,500.2969 365.3746,524.2829 418.0446,535.6329" fill="none" id="EditandoDatos-to-GuardandoDatos" style="stroke:#008000;stroke-width:1;"/><polygon fill="#008000" points="423.91,536.8969,415.9546,531.0907,419.0222,535.8436,414.2693,538.9112,423.91,536.8969" style="stroke:#008000;stroke-width:1;"/><path d="M259,319.2969 L259,495.2969 L619,495.2969 L619,329.2969 L609,319.2969 L259,319.2969" fill="#FEFFDD" style="stroke:#181818;stroke-width:0.5;"/><path d="M609,319.2969 L609,329.2969 L619,329.2969 L609,319.2969" fill="#FEFFDD" style="stroke:#181818;stroke-width:0.5;"/><text fill="#000000" font-family="sans-serif" font-size="13" font-weight="bold" lengthAdjust="spacing" textLength="58.9063" x="265" y="336.3638">Sistema</text><text fill="#000000" font-family="sans-serif" font-size="13" lengthAdjust="spacing" textLength="169.1714" x="328.0386" y="336.3638">presenta datos de edici&#243;n</text><text fill="#000000" font-family="sans-serif" font-size="13" lengthAdjust="spacing" textLength="4.1323" x="265" y="351.4966">&#160;</text><text fill="#000000" font-family="sans-serif" font-size="13" lengthAdjust="spacing" textLength="158.3105" x="265" y="366.6294">&#8226; Asignatura, Enunciado</text><text fill="#000000" font-family="sans-serif" font-size="13" lengthAdjust="spacing" textLength="170.3901" x="265" y="381.7622">&#8226; Tema, Dificultad (Enum)</text><text fill="#000000" font-family="sans-serif" font-size="13" lengthAdjust="spacing" textLength="339.0791" x="265" y="396.895">&#8226; Respuestas (contenido y si es correcta/incorrecta)</text><text fill="#000000" font-family="sans-serif" font-size="13" lengthAdjust="spacing" textLength="169.8887" x="265" y="412.0278">&#8226; Habilitada/deshabilitada</text><text fill="#000000" font-family="sans-serif" font-size="13" lengthAdjust="spacing" textLength="4.1323" x="265" y="427.1606">&#160;</text><text fill="#000000" font-family="sans-serif" font-size="13" font-weight="bold" lengthAdjust="spacing" textLength="58.9063" x="265" y="442.2935">Sistema</text><text fill="#000000" font-family="sans-serif" font-size="13" lengthAdjust="spacing" textLength="110.5952" x="328.0386" y="442.2935">permite solicitar:</text><text fill="#000000" font-family="sans-serif" font-size="13" lengthAdjust="spacing" textLength="127.8164" x="265" y="457.4263">&#8226; modificar campos</text><text fill="#000000" font-family="sans-serif" font-size="13" lengthAdjust="spacing" textLength="126.6865" x="265" y="472.5591">&#8226; guardar pregunta</text><text fill="#000000" font-family="sans-serif" font-size="13" lengthAdjust="spacing" textLength="118.168" x="265" y="487.6919">&#8226; cancelar edici&#243;n</text></g><!--link GuardandoDatos to EditandoDatos--><g class="link" data-entity-1="GuardandoDatos" data-entity-2="EditandoDatos" data-source-line="42" data-uid="lnk11" id="link_GuardandoDatos_EditandoDatos"><path d="M474.07,536.2769 C522.46,524.6669 624,500.2969 624,500.2969 C624,500.2969 624,314.2969 624,314.2969 C624,314.2969 528.2944,291.3267 479.9044,279.7167" fill="none" id="GuardandoDatos-to-EditandoDatos" style="stroke:#008000;stroke-width:1;"/><polygon fill="#008000" points="474.07,278.3169,481.8884,284.3062,478.932,279.4834,483.7549,276.527,474.07,278.3169" style="stroke:#008000;stroke-width:1;"/><path d="M629,394.7969 L629,419.7969 L880,419.7969 L880,404.7969 L870,394.7969 L629,394.7969" fill="#FEFFDD" style="stroke:#181818;stroke-width:0.5;"/><path d="M870,394.7969 L870,404.7969 L880,404.7969 L870,394.7969" fill="#FEFFDD" style="stroke:#181818;stroke-width:0.5;"/><text fill="#000000" font-family="sans-serif" font-size="13" font-weight="bold" lengthAdjust="spacing" textLength="60.5313" x="635" y="411.8638">Docente</text><text fill="#000000" font-family="sans-serif" font-size="13" lengthAdjust="spacing" textLength="165.9214" x="699.6636" y="411.8638">solicita modificar campos</text></g><!--link GuardandoDatos to *end*editarPregunta--><g class="link" data-entity-1="GuardandoDatos" data-entity-2=".end.editarPregunta" data-source-line="47" data-uid="lnk13" id="link_GuardandoDatos_.end.editarPregunta"><path d="M423.93,552.3969 C386.16,564.5969 319,586.2969 319,586.2969 C319,586.2969 319,621.2969 319,621.2969 C319,621.2969 401.4446,639.0531 432.4946,645.7431" fill="none" id="GuardandoDatos-to-*end*editarPregunta" style="stroke:#008000;stroke-width:1;"/><polygon fill="#008000" points="438.36,647.0069,430.4044,641.201,433.4722,645.9537,428.7194,649.0215,438.36,647.0069" style="stroke:#008000;stroke-width:1;"/><path d="M324,591.2969 L324,616.2969 L554,616.2969 L554,601.2969 L544,591.2969 L324,591.2969" fill="#FEFFDD" style="stroke:#181818;stroke-width:0.5;"/><path d="M544,591.2969 L544,601.2969 L554,601.2969 L544,591.2969" fill="#FEFFDD" style="stroke:#181818;stroke-width:0.5;"/><text fill="#000000" font-family="sans-serif" font-size="13" font-weight="bold" lengthAdjust="spacing" textLength="60.5313" x="330" y="608.3638">Docente</text><text fill="#000000" font-family="sans-serif" font-size="13" lengthAdjust="spacing" textLength="144.5361" x="394.6636" y="608.3638">solicita guardar y salir</text></g><!--link GuardandoDatos to *end*editarPregunta--><g class="link" data-entity-1="GuardandoDatos" data-entity-2=".end.editarPregunta" data-source-line="52" data-uid="lnk14" id="link_GuardandoDatos_.end.editarPregunta"><path d="M474.24,553.9369 C506.71,566.3369 559,586.2969 559,586.2969 C559,586.2969 559,621.2969 559,621.2969 C559,621.2969 492.8945,638.1263 465.3645,645.1363" fill="none" id="GuardandoDatos-to-*end*editarPregunta-1" style="stroke:#FF0000;stroke-width:1;"/><polygon fill="#FF0000" points="459.55,646.6169,469.2587,648.2724,464.3954,645.3831,467.2847,640.5197,459.55,646.6169" style="stroke:#FF0000;stroke-width:1;"/><path d="M564,591.2969 L564,616.2969 L805,616.2969 L805,601.2969 L795,591.2969 L564,591.2969" fill="#FEFFDD" style="stroke:#181818;stroke-width:0.5;"/><path d="M795,591.2969 L795,601.2969 L805,601.2969 L795,591.2969" fill="#FEFFDD" style="stroke:#181818;stroke-width:0.5;"/><text fill="#000000" font-family="sans-serif" font-size="13" font-weight="bold" lengthAdjust="spacing" textLength="60.5313" x="570" y="608.3638">Docente</text><text fill="#000000" font-family="sans-serif" font-size="13" lengthAdjust="spacing" textLength="156.2729" x="634.6636" y="608.3638">solicita cancelar edici&#243;n</text></g><!--link RESPUESTAS_ABIERTO to editarPregunta--><g class="link" data-entity-1="RESPUESTAS_ABIERTO" data-entity-2="editarPregunta" data-source-line="10" data-uid="lnk2" id="link_RESPUESTAS_ABIERTO_editarPregunta"><path d="M438.2,57.21 C443.93,72.29 449.8381,87.8315 459.1281,112.2715" fill="none" id="RESPUESTAS_ABIERTO-to-editarPregunta" style="stroke:#008000;stroke-width:1;"/><polygon fill="#008000" points="461.26,117.88,461.8012,108.046,459.4834,113.2063,454.3232,110.8885,461.26,117.88" style="stroke:#008000;stroke-width:1;"/></g><!--link RESPUESTAS_CONTEXTUALES_ABIERTO to editarPregunta--><g class="link" data-entity-1="RESPUESTAS_CONTEXTUALES_ABIERTO" data-entity-2="editarPregunta" data-source-line="11" data-uid="lnk3" id="link_RESPUESTAS_CONTEXTUALES_ABIERTO_editarPregunta"><path d="M693.8,57.21 C688.07,72.29 682.1619,87.8315 672.8719,112.2715" fill="none" id="RESPUESTAS_CONTEXTUALES_ABIERTO-to-editarPregunta" style="stroke:#008000;stroke-width:1;"/><polygon fill="#008000" points="670.74,117.88,677.6768,110.8885,672.5166,113.2063,670.1988,108.046,670.74,117.88" style="stroke:#008000;stroke-width:1;"/></g><!--link PREGUNTAS_ABIERTO to editarPregunta--><g class="link" data-entity-1="PREGUNTAS_ABIERTO" data-entity-2="editarPregunta" data-source-line="12" data-uid="lnk4" id="link_PREGUNTAS_ABIERTO_editarPregunta"><path d="M145.45,747.84 C176.06,733.47 209,718 209,718 C209,718 225.1474,703.4117 256.4574,675.1317" fill="none" id="PREGUNTAS_ABIERTO-to-editarPregunta" style="stroke:#008000;stroke-width:1;"/><polygon fill="#008000" points="260.91,671.11,251.5499,674.1742,257.1995,674.4614,256.9122,680.111,260.91,671.11" style="stroke:#008000;stroke-width:1;"/></g><!--link editarPregunta to PREGUNTAS_ABIERTO--><g class="link" data-entity-1="editarPregunta" data-entity-2="PREGUNTAS_ABIERTO" data-source-line="67" data-uid="lnk17" id="link_editarPregunta_PREGUNTAS_ABIERTO"><path d="M242.75,628.41 C184.58,670.32 142,701 142,701 C142,701 127.541,722.3897 113.611,742.9897" fill="none" id="editarPregunta-to-PREGUNTAS_ABIERTO" style="stroke:#FF0000;stroke-width:1;"/><polygon fill="#FF0000" points="110.25,747.96,118.605,742.7452,113.0508,743.8181,111.9779,738.2639,110.25,747.96" style="stroke:#FF0000;stroke-width:1;"/><text fill="#000000" font-family="sans-serif" font-size="13" lengthAdjust="spacing" textLength="57.3511" x="143" y="714.0669">Cancelar</text></g><!--link PREGUNTAS_CONTEXTUALES_ABIERTO to editarPregunta--><g class="link" data-entity-1="PREGUNTAS_CONTEXTUALES_ABIERTO" data-entity-2="editarPregunta" data-source-line="13" data-uid="lnk5" id="link_PREGUNTAS_CONTEXTUALES_ABIERTO_editarPregunta"><path d="M399.68,747.84 C421.52,733.47 445,718 445,718 C445,718 449.8724,705.0076 460.4824,676.7276" fill="none" id="PREGUNTAS_CONTEXTUALES_ABIERTO-to-editarPregunta" style="stroke:#008000;stroke-width:1;"/><polygon fill="#008000" points="462.59,671.11,455.6835,678.1314,460.8337,675.7914,463.1737,680.9415,462.59,671.11" style="stroke:#008000;stroke-width:1;"/></g><!--link editarPregunta to PREGUNTAS_CONTEXTUALES_ABIERTO--><g class="link" data-entity-1="editarPregunta" data-entity-2="PREGUNTAS_CONTEXTUALES_ABIERTO" data-source-line="69" data-uid="lnk18" id="link_editarPregunta_PREGUNTAS_CONTEXTUALES_ABIERTO"><path d="M396.37,671.15 C385.03,689.58 378,701 378,701 C378,701 373.6697,721.4895 369.3197,742.0895" fill="none" id="editarPregunta-to-PREGUNTAS_CONTEXTUALES_ABIERTO" style="stroke:#FF0000;stroke-width:1;"/><polygon fill="#FF0000" points="368.08,747.96,373.8532,739.9806,369.113,743.0679,366.0258,738.3278,368.08,747.96" style="stroke:#FF0000;stroke-width:1;"/><text fill="#000000" font-family="sans-serif" font-size="13" lengthAdjust="spacing" textLength="57.3511" x="379" y="714.0669">Cancelar</text></g><!--link PREGUNTA_ABIERTO to editarPregunta--><g class="link" data-entity-1="PREGUNTA_ABIERTO" data-entity-2="editarPregunta" data-source-line="14" data-uid="lnk6" id="link_PREGUNTA_ABIERTO_editarPregunta"><path d="M630.14,747.97 C629.5,729.73 627.5401,708.4517 623.5301,677.0517" fill="none" id="PREGUNTA_ABIERTO-to-editarPregunta" style="stroke:#008000;stroke-width:1;"/><polygon fill="#008000" points="622.77,671.1,619.9423,680.5342,623.4034,676.0597,627.8779,679.5208,622.77,671.1" style="stroke:#008000;stroke-width:1;"/></g><!--link editarPregunta to PREGUNTA_ABIERTO--><g class="link" data-entity-1="editarPregunta" data-entity-2="PREGUNTA_ABIERTO" data-source-line="60" data-uid="lnk15" id="link_editarPregunta_PREGUNTA_ABIERTO"><path d="M599.21,671.1 C605.31,702.5 609.6926,723.9549 614.8326,742.1949" fill="none" id="editarPregunta-to-PREGUNTA_ABIERTO" style="stroke:#008000;stroke-width:1;"/><polygon fill="#008000" points="616.46,747.97,617.8689,738.2224,615.1038,743.1574,610.1688,740.3923,616.46,747.97" style="stroke:#008000;stroke-width:1;"/></g><!--link PREGUNTA_CONTEXTUAL_ABIERTO to editarPregunta--><g class="link" data-entity-1="PREGUNTA_CONTEXTUAL_ABIERTO" data-entity-2="editarPregunta" data-source-line="15" data-uid="lnk7" id="link_PREGUNTA_CONTEXTUAL_ABIERTO_editarPregunta"><path d="M865.12,747.97 C852.32,729.73 835.1826,707.1976 810.2326,675.7976" fill="none" id="PREGUNTA_CONTEXTUAL_ABIERTO-to-editarPregunta" style="stroke:#008000;stroke-width:1;"/><polygon fill="#008000" points="806.5,671.1,808.9672,680.6348,809.6105,675.0147,815.2307,675.658,806.5,671.1" style="stroke:#008000;stroke-width:1;"/></g><!--link editarPregunta to PREGUNTA_CONTEXTUAL_ABIERTO--><g class="link" data-entity-1="editarPregunta" data-entity-2="PREGUNTA_CONTEXTUAL_ABIERTO" data-source-line="63" data-uid="lnk16" id="link_editarPregunta_PREGUNTA_CONTEXTUAL_ABIERTO"><path d="M782.95,671.1 C809.98,702.5 830.011,725.3767 847.311,743.6167" fill="none" id="editarPregunta-to-PREGUNTA_CONTEXTUAL_ABIERTO" style="stroke:#008000;stroke-width:1;"/><polygon fill="#008000" points="851.44,747.97,848.1487,738.6873,847.9992,744.3422,842.3443,744.1927,851.44,747.97" style="stroke:#008000;stroke-width:1;"/></g><!--SRC=[dLHTQjj047xVKmpEG-sIr0zzCy6WnY8DXDXOCXH2A6Fjn5qYxOfTwS6KGi_IA_G8lKbFaf4iIv5b9tOa8RGxtpS_dsR7FIcTeiK4OgKfMwS4gOdNnK88bs56CFU3sS8FGY_uxdsvyUVXj6kucjw5_hTmuTtwkwZPtBzUt7NPpVuHv4FR3RL6Y6w-S75_jh94-k5Y32HLXdPcQPNh3CKRHRn6xLHs7FYzOKx2TeLvZLR9sju5TD1hR_K7FVWf1F2rOVJuPfXVeBGq4yoCwvglSxIojiF6mVt7XrPABHzGGhHX7qONhVbKRbmknnCJaSxeShWSWpEnYfXL9Lv2ICiDZozHlzhENuPjvtOmRA1SHWcMOLDBZWg1PEbDbi95wjzVtGJy__iFU4wjD6QvnNFmTQuZXTBKrf3TdSD4FQeeZpEKq6TCCgZjSt9fJgoZWtvak6Ijf84rE0Na83BMKfJXKEdjPqFzYaiLSy4IXvBSZtebzbP3Db5Sy5PCEwhz94OMwQ6529EqKgSmh4hHRA74fe6sXWXrH35RMefi_qaZpqv77Eo3qzfWRxud1UUcF2taLWd-BnYhTWkA0z4ioNV5UaFSNq9yWC-V8BIe7GECvZwP-11ujpSJZzlKIUeS_9qZ_rABpkmz3hrl97DY0SiZiJWiLHbb1T2VfaMc68-0lVB1uh43CJ_SeQmkQR8OWu7YPHMl1tkIg0JjpkCHN5MQYMDeUoTpu-CP]--></g></svg>