<svg xmlns="http://www.w3.org/2000/svg" xmlns:xlink="http://www.w3.org/1999/xlink" contentStyleType="text/css" data-diagram-type="STATE" height="742px" preserveAspectRatio="none" style="width:725px;height:742px;background:#FFFFFF;" version="1.1" viewBox="0 0 725 742" width="725px" zoomAndPan="magnify"><defs/><g><g id="PREGUNTAS_ABIERTO"><rect fill="#F1F1F1" height="50" rx="12.5" ry="12.5" style="stroke:#181818;stroke-width:0.5;" width="174.0547" x="189.47" y="7"/><line style="stroke:#181818;stroke-width:0.5;" x1="189.47" x2="363.5247" y1="33.2969" y2="33.2969"/><text fill="#000000" font-family="sans-serif" font-size="14" lengthAdjust="spacing" textLength="154.0547" x="199.47" y="24.9951">PREGUNTAS_ABIERTO</text></g><path d="M19.5,167 L533.5,167 A12.5,12.5 0 0 1 546,179.5 L546,193.2969 L7,193.2969 L7,179.5 A12.5,12.5 0 0 1 19.5,167" fill="#F1F1F1"/><rect fill="none" height="569.2969" rx="12.5" ry="12.5" style="stroke:#181818;stroke-width:0.5;" width="539" x="7" y="167"/><line style="stroke:#181818;stroke-width:0.5;" x1="7" x2="546" y1="193.2969" y2="193.2969"/><text fill="#000000" font-family="sans-serif" font-size="14" lengthAdjust="spacing" textLength="179.6074" x="186.6963" y="184.9951">editarPregunta(pregunta)</text><g id="editarPregunta.EditandoDatos"><rect fill="#F1F1F1" height="50" rx="12.5" ry="12.5" style="stroke:#181818;stroke-width:0.5;" width="50" x="135" y="295.2969"/><line style="stroke:#181818;stroke-width:0.5;" x1="135" x2="185" y1="321.5938" y2="321.5938"/><text fill="#000000" font-family="sans-serif" font-size="14" lengthAdjust="spacing" textLength="4.4502" x="157.7749" y="313.292">&#160;</text></g><g id="editarPregunta.GuardandoDatos"><rect fill="#F1F1F1" height="50" rx="12.5" ry="12.5" style="stroke:#181818;stroke-width:0.5;" width="50" x="135" y="583.2969"/><line style="stroke:#181818;stroke-width:0.5;" x1="135" x2="185" y1="609.5938" y2="609.5938"/><text fill="#000000" font-family="sans-serif" font-size="14" lengthAdjust="spacing" textLength="4.4502" x="157.7749" y="601.292">&#160;</text></g><ellipse cx="160" cy="214.2969" fill="#222222" rx="10" ry="10" style="stroke:#222222;stroke-width:1;"/><ellipse cx="160" cy="715.2969" fill="none" rx="11" ry="11" style="stroke:#222222;stroke-width:1;"/><ellipse cx="160" cy="715.2969" fill="#222222" rx="6" ry="6" style="stroke:#222222;stroke-width:1;"/><!--link *start*editarPregunta to EditandoDatos--><g class="link" data-entity-1=".start.editarPregunta" data-entity-2="EditandoDatos" data-source-line="18" data-uid="lnk4" id="link_.start.editarPregunta_EditandoDatos"><path d="M160,224.5269 C160,240.2369 160,266.6569 160,289.1669" fill="none" id="*start*editarPregunta-to-EditandoDatos" style="stroke:#008000;stroke-width:1;"/><polygon fill="#008000" points="160,295.1669,164,286.1669,160,290.1669,156,286.1669,160,295.1669" style="stroke:#008000;stroke-width:1;"/><path d="M165,247.2969 L165,272.2969 L402,272.2969 L402,257.2969 L392,247.2969 L165,247.2969" fill="#FEFFDD" style="stroke:#181818;stroke-width:0.5;"/><path d="M392,247.2969 L392,257.2969 L402,257.2969 L392,247.2969" fill="#FEFFDD" style="stroke:#181818;stroke-width:0.5;"/><text fill="#000000" font-family="sans-serif" font-size="13" font-weight="bold" lengthAdjust="spacing" textLength="60.5313" x="171" y="264.3638">Docente</text><text fill="#000000" font-family="sans-serif" font-size="13" lengthAdjust="spacing" textLength="151.6963" x="235.6636" y="264.3638">solicita editar pregunta</text></g><!--link EditandoDatos to GuardandoDatos--><g class="link" data-entity-1="EditandoDatos" data-entity-2="GuardandoDatos" data-source-line="23" data-uid="lnk5" id="link_EditandoDatos_GuardandoDatos"><path d="M134.61,328.8069 C93.77,340.8869 18,363.2969 18,363.2969 C18,363.2969 18,565.2969 18,565.2969 C18,565.2969 88.0164,586.005 128.8564,598.085" fill="none" id="EditandoDatos-to-GuardandoDatos" style="stroke:#008000;stroke-width:1;"/><polygon fill="#008000" points="134.61,599.7869,127.1142,593.3984,129.8153,598.3687,124.8451,601.0698,134.61,599.7869" style="stroke:#008000;stroke-width:1;"/><path d="M23,368.2969 L23,560.2969 L276,560.2969 L276,378.2969 L266,368.2969 L23,368.2969" fill="#FEFFDD" style="stroke:#181818;stroke-width:0.5;"/><path d="M266,368.2969 L266,378.2969 L276,378.2969 L266,368.2969" fill="#FEFFDD" style="stroke:#181818;stroke-width:0.5;"/><text fill="#000000" font-family="sans-serif" font-size="13" font-weight="bold" lengthAdjust="spacing" textLength="58.9063" x="29" y="385.3638">Sistema</text><text fill="#000000" font-family="sans-serif" font-size="13" lengthAdjust="spacing" textLength="169.1714" x="92.0386" y="385.3638">presenta datos de edici&#243;n</text><line style="stroke:#181818;stroke-width:1;" x1="24" x2="275.21" y1="388.4297" y2="388.4297"/><text fill="#000000" font-family="sans-serif" font-size="13" font-weight="bold" lengthAdjust="spacing" textLength="72.7568" x="29" y="404.4966">Pregunta:</text><text fill="#000000" font-family="sans-serif" font-size="13" lengthAdjust="spacing" textLength="158.3105" x="29" y="419.6294">&#8226; Asignatura, Enunciado</text><text fill="#000000" font-family="sans-serif" font-size="13" lengthAdjust="spacing" textLength="170.3901" x="29" y="434.7622">&#8226; Tema, Dificultad (Enum)</text><text fill="#000000" font-family="sans-serif" font-size="13" font-weight="bold" lengthAdjust="spacing" textLength="180.4067" x="29" y="449.895">Respuesta (Obligatoria):</text><text fill="#000000" font-family="sans-serif" font-size="13" lengthAdjust="spacing" textLength="182.8887" x="29" y="465.0278">&#8226; Contenido de la respuesta</text><text fill="#000000" font-family="sans-serif" font-size="13" lengthAdjust="spacing" textLength="137.96" x="29" y="480.1606">&#8226; Correcta/incorrecta</text><line style="stroke:#181818;stroke-width:1;" x1="24" x2="275.21" y1="487.2266" y2="487.2266"/><text fill="#000000" font-family="sans-serif" font-size="13" font-weight="bold" lengthAdjust="spacing" textLength="58.9063" x="29" y="503.2935">Sistema</text><text fill="#000000" font-family="sans-serif" font-size="13" lengthAdjust="spacing" textLength="110.5952" x="92.0386" y="503.2935">permite solicitar:</text><text fill="#000000" font-family="sans-serif" font-size="13" lengthAdjust="spacing" textLength="127.8164" x="29" y="518.4263">&#8226; modificar campos</text><text fill="#000000" font-family="sans-serif" font-size="13" lengthAdjust="spacing" textLength="126.6865" x="29" y="533.5591">&#8226; guardar pregunta</text><text fill="#000000" font-family="sans-serif" font-size="13" lengthAdjust="spacing" textLength="118.168" x="29" y="548.6919">&#8226; cancelar edici&#243;n</text></g><!--link GuardandoDatos to EditandoDatos--><g class="link" data-entity-1="GuardandoDatos" data-entity-2="EditandoDatos" data-source-line="41" data-uid="lnk6" id="link_GuardandoDatos_EditandoDatos"><path d="M185.37,598.4969 C220.85,586.1769 281,565.2969 281,565.2969 C281,565.2969 281,363.2969 281,363.2969 C281,363.2969 226.518,344.385 191.038,332.065" fill="none" id="GuardandoDatos-to-EditandoDatos" style="stroke:#008000;stroke-width:1;"/><polygon fill="#008000" points="185.37,330.0969,192.5599,336.8278,190.0933,331.737,195.1841,329.2704,185.37,330.0969" style="stroke:#008000;stroke-width:1;"/><path d="M286,451.7969 L286,476.7969 L537,476.7969 L537,461.7969 L527,451.7969 L286,451.7969" fill="#FEFFDD" style="stroke:#181818;stroke-width:0.5;"/><path d="M527,451.7969 L527,461.7969 L537,461.7969 L527,451.7969" fill="#FEFFDD" style="stroke:#181818;stroke-width:0.5;"/><text fill="#000000" font-family="sans-serif" font-size="13" font-weight="bold" lengthAdjust="spacing" textLength="60.5313" x="292" y="468.8638">Docente</text><text fill="#000000" font-family="sans-serif" font-size="13" lengthAdjust="spacing" textLength="165.9214" x="356.6636" y="468.8638">solicita modificar campos</text></g><!--link GuardandoDatos to *end*editarPregunta--><g class="link" data-entity-1="GuardandoDatos" data-entity-2=".end.editarPregunta" data-source-line="47" data-uid="lnk8" id="link_GuardandoDatos_.end.editarPregunta"><path d="M134.63,617.4969 C96.79,629.7169 30,651.2969 30,651.2969 C30,651.2969 30,686.2969 30,686.2969 C30,686.2969 112.4446,704.0531 143.4946,710.7431" fill="none" id="GuardandoDatos-to-*end*editarPregunta" style="stroke:#008000;stroke-width:1;"/><polygon fill="#008000" points="149.36,712.0069,141.4044,706.201,144.4722,710.9537,139.7194,714.0215,149.36,712.0069" style="stroke:#008000;stroke-width:1;"/><path d="M35,656.2969 L35,681.2969 L265,681.2969 L265,666.2969 L255,656.2969 L35,656.2969" fill="#FEFFDD" style="stroke:#181818;stroke-width:0.5;"/><path d="M255,656.2969 L255,666.2969 L265,666.2969 L255,656.2969" fill="#FEFFDD" style="stroke:#181818;stroke-width:0.5;"/><text fill="#000000" font-family="sans-serif" font-size="13" font-weight="bold" lengthAdjust="spacing" textLength="60.5313" x="41" y="673.3638">Docente</text><text fill="#000000" font-family="sans-serif" font-size="13" lengthAdjust="spacing" textLength="144.5361" x="105.6636" y="673.3638">solicita guardar y salir</text></g><!--link GuardandoDatos to *end*editarPregunta--><g class="link" data-entity-1="GuardandoDatos" data-entity-2=".end.editarPregunta" data-source-line="53" data-uid="lnk9" id="link_GuardandoDatos_.end.editarPregunta"><path d="M185.24,618.9369 C217.71,631.3369 270,651.2969 270,651.2969 C270,651.2969 270,686.2969 270,686.2969 C270,686.2969 203.8945,703.1263 176.3645,710.1363" fill="none" id="GuardandoDatos-to-*end*editarPregunta-1" style="stroke:#FF0000;stroke-width:1;"/><polygon fill="#FF0000" points="170.55,711.6169,180.2587,713.2724,175.3954,710.3831,178.2847,705.5197,170.55,711.6169" style="stroke:#FF0000;stroke-width:1;"/><path d="M275,656.2969 L275,681.2969 L516,681.2969 L516,666.2969 L506,656.2969 L275,656.2969" fill="#FEFFDD" style="stroke:#181818;stroke-width:0.5;"/><path d="M506,656.2969 L506,666.2969 L516,666.2969 L506,656.2969" fill="#FEFFDD" style="stroke:#181818;stroke-width:0.5;"/><text fill="#000000" font-family="sans-serif" font-size="13" font-weight="bold" lengthAdjust="spacing" textLength="60.5313" x="281" y="673.3638">Docente</text><text fill="#000000" font-family="sans-serif" font-size="13" lengthAdjust="spacing" textLength="156.2729" x="345.6636" y="673.3638">solicita cancelar edici&#243;n</text></g><!--link PREGUNTAS_ABIERTO to editarPregunta--><g class="link" data-entity-1="PREGUNTAS_ABIERTO" data-entity-2="editarPregunta" data-source-line="7" data-uid="lnk2" id="link_PREGUNTAS_ABIERTO_editarPregunta"><path d="M189.18,52.65 C120.55,68.09 36.5,87 36.5,87 C36.5,87 36.5,137 36.5,137 C36.5,137 41.463,143.4956 55.433,161.7456" fill="none" id="PREGUNTAS_ABIERTO-to-editarPregunta" style="stroke:#008000;stroke-width:1;"/><polygon fill="#008000" points="59.08,166.51,56.7857,156.9321,56.0408,162.5397,50.4332,161.7948,59.08,166.51" style="stroke:#008000;stroke-width:1;"/><path d="M41.5,99.5 L41.5,124.5 L228.5,124.5 L228.5,109.5 L218.5,99.5 L41.5,99.5" fill="#FEFFDD" style="stroke:#181818;stroke-width:0.5;"/><path d="M218.5,99.5 L218.5,109.5 L228.5,109.5 L218.5,99.5" fill="#FEFFDD" style="stroke:#181818;stroke-width:0.5;"/><text fill="#000000" font-family="sans-serif" font-size="13" lengthAdjust="spacing" textLength="166.7783" x="47.5" y="116.5669">editarPregunta(pregunta)</text></g><!--link editarPregunta to PREGUNTAS_ABIERTO--><g class="link" data-entity-1="editarPregunta" data-entity-2="PREGUNTAS_ABIERTO" data-source-line="62" data-uid="lnk10" id="link_editarPregunta_PREGUNTAS_ABIERTO"><path d="M273.78,166.51 C273.61,148.26 273.5,137 273.5,137 C273.5,137 273.5,87 273.5,87 C273.5,87 274.0186,77.7508 274.8086,63.4708" fill="none" id="editarPregunta-to-PREGUNTAS_ABIERTO" style="stroke:#008000;stroke-width:1;"/><polygon fill="#008000" points="275.14,57.48,270.649,66.2453,274.8638,62.4724,278.6368,66.6872,275.14,57.48" style="stroke:#008000;stroke-width:1;"/><path d="M278.5,92 L278.5,132 L577.5,132 L577.5,102 L567.5,92 L278.5,92" fill="#FEFFDD" style="stroke:#181818;stroke-width:0.5;"/><path d="M567.5,92 L567.5,102 L577.5,102 L567.5,92" fill="#FEFFDD" style="stroke:#181818;stroke-width:0.5;"/><text fill="#000000" font-family="sans-serif" font-size="13" font-weight="bold" lengthAdjust="spacing" textLength="58.9063" x="284.5" y="109.0669">Sistema</text><text fill="#000000" font-family="sans-serif" font-size="13" lengthAdjust="spacing" textLength="215.7314" x="347.5386" y="109.0669">confirma: "Pregunta actualizada"</text><text fill="#000000" font-family="sans-serif" font-size="13" lengthAdjust="spacing" textLength="96.9287" x="284.5" y="124.1997">verPreguntas()</text></g><!--link editarPregunta to PREGUNTAS_ABIERTO--><g class="link" data-entity-1="editarPregunta" data-entity-2="PREGUNTAS_ABIERTO" data-source-line="69" data-uid="lnk11" id="link_editarPregunta_PREGUNTAS_ABIERTO"><path d="M546.29,177.69 C570.72,152.96 586.5,137 586.5,137 C586.5,137 586.5,87 586.5,87 C586.5,87 461.281,65.1895 369.591,49.2195" fill="none" id="editarPregunta-to-PREGUNTAS_ABIERTO-1" style="stroke:#FF0000;stroke-width:1;"/><polygon fill="#FF0000" points="363.68,48.19,371.8602,53.675,368.6058,49.048,373.2329,45.7936,363.68,48.19" style="stroke:#FF0000;stroke-width:1;"/><path d="M591.5,99.5 L591.5,124.5 L718.5,124.5 L718.5,109.5 L708.5,99.5 L591.5,99.5" fill="#FEFFDD" style="stroke:#181818;stroke-width:0.5;"/><path d="M708.5,99.5 L708.5,109.5 L718.5,109.5 L708.5,99.5" fill="#FEFFDD" style="stroke:#181818;stroke-width:0.5;"/><text fill="#000000" font-family="sans-serif" font-size="13" lengthAdjust="spacing" textLength="106.3677" x="597.5" y="116.5669">cancelar edici&#243;n</text></g><!--SRC=[dLJjQjim5FtlfxXaFvgCfcKVlq8fgBPN0bbSOdSCIXcgf0PHMmgoNDgDmTvXRx1Ns2FqJVOakr9Yht9QGfT0hEX-d7FFlRxrZLGhQcW5fLJ2tgy4h7Hvx_v4qHwyEO0qBqYImTaY_JJDO1XhPSMTrS05Q2ENGatWX2hcBywCM3RAqdeKrPPQuQ9Ep-S5oR-GascwA3ANz2qcdHSBaX0WCuX9da6ImdcUHLlkCBvujJH2gClnCGWkBJKjHgGq0cZbYDz4eMsusXn6aL0SdAS3VdU0G0MPpL9ypf1S5gU8kgOQPW1Qm-2vf0Fu5aM0dtNa0B_edZflnNL2hQwtpQSDDRopmph1nUlBeCGW1tYNe4ntSNHrd6Wci0r7XrV7KEjICepQ500jI-_RLk_EKVSJeZp63qa-Yv_BsegAUdp4guLJZFjit2l9vCDlvRt7ut4RrGevSN7-yi-FNq1gkLJKDeRkGweQnIJbkhCM2BCFYRoMh2ajvJ14dshKfbo8UjK8r1c6sLKfbqZ1I3eA4Vp8AidzY9OKJ1lqoCCOmImzb3Z8wsEVV52oC9L4LLhfpQJBL6dkk68V6ArM6mcTOUcLxRN76HY-FA94Io1RDxPTq_OWbgpqDRGWtXs6PzGQTvXYcOOoAs_rMg3Uo3qxQ2-RioTBV8flJal9AQHt4Z6mGvwVeZkvuKlnCaQjjlTG8wG92OLauhNQV3ST8_X_aTdHp-zk4Rq_W9pCfWd98VrSf8ivoTrrJp26S74s_p1TV2JnzE7dlBVb0j6sDst0k3V1cFfQcefEOF1lup7R886lACuWkXKTJ3qCjsXVoITORRJRmMbRgHRcBm00]--></g></svg>