<svg xmlns="http://www.w3.org/2000/svg" xmlns:xlink="http://www.w3.org/1999/xlink" contentStyleType="text/css" data-diagram-type="STATE" height="804px" preserveAspectRatio="none" style="width:1566px;height:804px;background:#FFFFFF;" version="1.1" viewBox="0 0 1566 804" width="1566px" zoomAndPan="magnify"><defs/><g><g id="RESPUESTAS_ABIERTO"><rect fill="#F1F1F1" height="50" rx="12.5" ry="12.5" style="stroke:#181818;stroke-width:0.5;" width="179.3525" x="7" y="7"/><line style="stroke:#181818;stroke-width:0.5;" x1="7" x2="186.3525" y1="33.2969" y2="33.2969"/><text fill="#000000" font-family="sans-serif" font-size="14" lengthAdjust="spacing" textLength="159.3525" x="17" y="24.9951">RESPUESTAS_ABIERTO</text></g><g id="RESPUESTAS_CONTEXTUALES_ABIERTO"><rect fill="#F1F1F1" height="50" rx="12.5" ry="12.5" style="stroke:#181818;stroke-width:0.5;" width="298.5166" x="221" y="7"/><line style="stroke:#181818;stroke-width:0.5;" x1="221" x2="519.5166" y1="33.2969" y2="33.2969"/><text fill="#000000" font-family="sans-serif" font-size="14" lengthAdjust="spacing" textLength="278.5166" x="231" y="24.9951">RESPUESTAS_CONTEXTUALES_ABIERTO</text></g><g id="PREGUNTAS_ABIERTO"><rect fill="#F1F1F1" height="50" rx="12.5" ry="12.5" style="stroke:#181818;stroke-width:0.5;" width="174.0547" x="555.5" y="7"/><line style="stroke:#181818;stroke-width:0.5;" x1="555.5" x2="729.5547" y1="33.2969" y2="33.2969"/><text fill="#000000" font-family="sans-serif" font-size="14" lengthAdjust="spacing" textLength="154.0547" x="565.5" y="24.9951">PREGUNTAS_ABIERTO</text></g><g id="PREGUNTAS_CONTEXTUALES_ABIERTO"><rect fill="#F1F1F1" height="50" rx="12.5" ry="12.5" style="stroke:#181818;stroke-width:0.5;" width="293.2188" x="765" y="7"/><line style="stroke:#181818;stroke-width:0.5;" x1="765" x2="1058.2188" y1="33.2969" y2="33.2969"/><text fill="#000000" font-family="sans-serif" font-size="14" lengthAdjust="spacing" textLength="273.2188" x="775" y="24.9951">PREGUNTAS_CONTEXTUALES_ABIERTO</text></g><g id="PREGUNTA_ABIERTO"><rect fill="#F1F1F1" height="50" rx="12.5" ry="12.5" style="stroke:#181818;stroke-width:0.5;" width="165.168" x="1093" y="7"/><line style="stroke:#181818;stroke-width:0.5;" x1="1093" x2="1258.168" y1="33.2969" y2="33.2969"/><text fill="#000000" font-family="sans-serif" font-size="14" lengthAdjust="spacing" textLength="145.168" x="1103" y="24.9951">PREGUNTA_ABIERTO</text></g><g id="PREGUNTA_CONTEXTUAL_ABIERTO"><rect fill="#F1F1F1" height="50" rx="12.5" ry="12.5" style="stroke:#181818;stroke-width:0.5;" width="266.5996" x="1293" y="7"/><line style="stroke:#181818;stroke-width:0.5;" x1="1293" x2="1559.5996" y1="33.2969" y2="33.2969"/><text fill="#000000" font-family="sans-serif" font-size="14" lengthAdjust="spacing" textLength="246.5996" x="1303" y="24.9951">PREGUNTA_CONTEXTUAL_ABIERTO</text></g><g id="PREGUNTAS_ABIERTO2"><rect fill="#F1F1F1" height="50" rx="12.5" ry="12.5" style="stroke:#181818;stroke-width:0.5;" width="174.0547" x="288.5" y="748"/><line style="stroke:#181818;stroke-width:0.5;" x1="288.5" x2="462.5547" y1="774.2969" y2="774.2969"/><text fill="#000000" font-family="sans-serif" font-size="14" lengthAdjust="spacing" textLength="154.0547" x="298.5" y="765.9951">PREGUNTAS_ABIERTO</text></g><g id="PREGUNTAS_CONTEXTUALES_ABIERTO2"><rect fill="#F1F1F1" height="50" rx="12.5" ry="12.5" style="stroke:#181818;stroke-width:0.5;" width="293.2188" x="498" y="748"/><line style="stroke:#181818;stroke-width:0.5;" x1="498" x2="791.2188" y1="774.2969" y2="774.2969"/><text fill="#000000" font-family="sans-serif" font-size="14" lengthAdjust="spacing" textLength="273.2188" x="508" y="765.9951">PREGUNTAS_CONTEXTUALES_ABIERTO</text></g><g id="PREGUNTA_ABIERTO2"><rect fill="#F1F1F1" height="50" rx="12.5" ry="12.5" style="stroke:#181818;stroke-width:0.5;" width="165.168" x="826" y="748"/><line style="stroke:#181818;stroke-width:0.5;" x1="826" x2="991.168" y1="774.2969" y2="774.2969"/><text fill="#000000" font-family="sans-serif" font-size="14" lengthAdjust="spacing" textLength="145.168" x="836" y="765.9951">PREGUNTA_ABIERTO</text></g><g id="PREGUNTA_CONTEXTUAL_ABIERTO2"><rect fill="#F1F1F1" height="50" rx="12.5" ry="12.5" style="stroke:#181818;stroke-width:0.5;" width="266.5996" x="1026" y="748"/><line style="stroke:#181818;stroke-width:0.5;" x1="1026" x2="1292.5996" y1="774.2969" y2="774.2969"/><text fill="#000000" font-family="sans-serif" font-size="14" lengthAdjust="spacing" textLength="246.5996" x="1036" y="765.9951">PREGUNTA_CONTEXTUAL_ABIERTO</text></g><path d="M466,118 L1087,118 A12.5,12.5 0 0 1 1099.5,130.5 L1099.5,144.2969 L453.5,144.2969 L453.5,130.5 A12.5,12.5 0 0 1 466,118" fill="#F1F1F1"/><rect fill="none" height="553.2969" rx="12.5" ry="12.5" style="stroke:#181818;stroke-width:0.5;" width="646" x="453.5" y="118"/><line style="stroke:#181818;stroke-width:0.5;" x1="453.5" x2="1099.5" y1="144.2969" y2="144.2969"/><text fill="#000000" font-family="sans-serif" font-size="14" lengthAdjust="spacing" textLength="115.6504" x="718.6748" y="135.9951">editarPregunta()</text><g id="editarPregunta.EditandoDatos"><rect fill="#F1F1F1" height="50" rx="12.5" ry="12.5" style="stroke:#181818;stroke-width:0.5;" width="50" x="634.5" y="246.2969"/><line style="stroke:#181818;stroke-width:0.5;" x1="634.5" x2="684.5" y1="272.5938" y2="272.5938"/><text fill="#000000" font-family="sans-serif" font-size="14" lengthAdjust="spacing" textLength="4.4502" x="657.2749" y="264.292">&#160;</text></g><g id="editarPregunta.GuardandoDatos"><rect fill="#F1F1F1" height="50" rx="12.5" ry="12.5" style="stroke:#181818;stroke-width:0.5;" width="50" x="634.5" y="518.2969"/><line style="stroke:#181818;stroke-width:0.5;" x1="634.5" x2="684.5" y1="544.5938" y2="544.5938"/><text fill="#000000" font-family="sans-serif" font-size="14" lengthAdjust="spacing" textLength="4.4502" x="657.2749" y="536.292">&#160;</text></g><ellipse cx="659.5" cy="165.2969" fill="#222222" rx="10" ry="10" style="stroke:#222222;stroke-width:1;"/><ellipse cx="659.5" cy="650.2969" fill="none" rx="11" ry="11" style="stroke:#222222;stroke-width:1;"/><ellipse cx="659.5" cy="650.2969" fill="#222222" rx="6" ry="6" style="stroke:#222222;stroke-width:1;"/><!--link *start*editarPregunta to EditandoDatos--><g class="link" data-entity-1=".start.editarPregunta" data-entity-2="EditandoDatos" data-source-line="26" data-uid="lnk9" id="link_.start.editarPregunta_EditandoDatos"><path d="M659.5,175.5269 C659.5,191.2369 659.5,217.6569 659.5,240.1669" fill="none" id="*start*editarPregunta-to-EditandoDatos" style="stroke:#008000;stroke-width:1;"/><polygon fill="#008000" points="659.5,246.1669,663.5,237.1669,659.5,241.1669,655.5,237.1669,659.5,246.1669" style="stroke:#008000;stroke-width:1;"/><path d="M664.5,198.2969 L664.5,223.2969 L837.5,223.2969 L837.5,208.2969 L827.5,198.2969 L664.5,198.2969" fill="#FEFFDD" style="stroke:#181818;stroke-width:0.5;"/><path d="M827.5,198.2969 L827.5,208.2969 L837.5,208.2969 L827.5,198.2969" fill="#FEFFDD" style="stroke:#181818;stroke-width:0.5;"/><text fill="#000000" font-family="sans-serif" font-size="13" font-weight="bold" lengthAdjust="spacing" textLength="60.5313" x="670.5" y="215.3638">Docente</text><text fill="#000000" font-family="sans-serif" font-size="13" lengthAdjust="spacing" textLength="88.1753" x="735.1636" y="215.3638">solicita editar</text></g><!--link EditandoDatos to GuardandoDatos--><g class="link" data-entity-1="EditandoDatos" data-entity-2="GuardandoDatos" data-source-line="31" data-uid="lnk10" id="link_EditandoDatos_GuardandoDatos"><path d="M634.41,277.6969 C581.74,289.0469 464.5,314.2969 464.5,314.2969 C464.5,314.2969 464.5,500.2969 464.5,500.2969 C464.5,500.2969 575.8746,524.2829 628.5446,535.6329" fill="none" id="EditandoDatos-to-GuardandoDatos" style="stroke:#008000;stroke-width:1;"/><polygon fill="#008000" points="634.41,536.8969,626.4546,531.0907,629.5222,535.8436,624.7693,538.9112,634.41,536.8969" style="stroke:#008000;stroke-width:1;"/><path d="M469.5,319.2969 L469.5,495.2969 L829.5,495.2969 L829.5,329.2969 L819.5,319.2969 L469.5,319.2969" fill="#FEFFDD" style="stroke:#181818;stroke-width:0.5;"/><path d="M819.5,319.2969 L819.5,329.2969 L829.5,329.2969 L819.5,319.2969" fill="#FEFFDD" style="stroke:#181818;stroke-width:0.5;"/><text fill="#000000" font-family="sans-serif" font-size="13" font-weight="bold" lengthAdjust="spacing" textLength="58.9063" x="475.5" y="336.3638">Sistema</text><text fill="#000000" font-family="sans-serif" font-size="13" lengthAdjust="spacing" textLength="169.1714" x="538.5386" y="336.3638">presenta datos de edici&#243;n</text><text fill="#000000" font-family="sans-serif" font-size="13" lengthAdjust="spacing" textLength="4.1323" x="475.5" y="351.4966">&#160;</text><text fill="#000000" font-family="sans-serif" font-size="13" lengthAdjust="spacing" textLength="158.3105" x="475.5" y="366.6294">&#8226; Asignatura, Enunciado</text><text fill="#000000" font-family="sans-serif" font-size="13" lengthAdjust="spacing" textLength="170.3901" x="475.5" y="381.7622">&#8226; Tema, Dificultad (Enum)</text><text fill="#000000" font-family="sans-serif" font-size="13" lengthAdjust="spacing" textLength="339.0791" x="475.5" y="396.895">&#8226; Respuestas (contenido y si es correcta/incorrecta)</text><text fill="#000000" font-family="sans-serif" font-size="13" lengthAdjust="spacing" textLength="169.8887" x="475.5" y="412.0278">&#8226; Habilitada/deshabilitada</text><text fill="#000000" font-family="sans-serif" font-size="13" lengthAdjust="spacing" textLength="4.1323" x="475.5" y="427.1606">&#160;</text><text fill="#000000" font-family="sans-serif" font-size="13" font-weight="bold" lengthAdjust="spacing" textLength="58.9063" x="475.5" y="442.2935">Sistema</text><text fill="#000000" font-family="sans-serif" font-size="13" lengthAdjust="spacing" textLength="110.5952" x="538.5386" y="442.2935">permite solicitar:</text><text fill="#000000" font-family="sans-serif" font-size="13" lengthAdjust="spacing" textLength="127.8164" x="475.5" y="457.4263">&#8226; modificar campos</text><text fill="#000000" font-family="sans-serif" font-size="13" lengthAdjust="spacing" textLength="126.6865" x="475.5" y="472.5591">&#8226; guardar pregunta</text><text fill="#000000" font-family="sans-serif" font-size="13" lengthAdjust="spacing" textLength="118.168" x="475.5" y="487.6919">&#8226; cancelar edici&#243;n</text></g><!--link GuardandoDatos to EditandoDatos--><g class="link" data-entity-1="GuardandoDatos" data-entity-2="EditandoDatos" data-source-line="46" data-uid="lnk11" id="link_GuardandoDatos_EditandoDatos"><path d="M684.57,536.2769 C732.96,524.6669 834.5,500.2969 834.5,500.2969 C834.5,500.2969 834.5,314.2969 834.5,314.2969 C834.5,314.2969 738.7944,291.3267 690.4044,279.7167" fill="none" id="GuardandoDatos-to-EditandoDatos" style="stroke:#008000;stroke-width:1;"/><polygon fill="#008000" points="684.57,278.3169,692.3884,284.3062,689.432,279.4834,694.2549,276.527,684.57,278.3169" style="stroke:#008000;stroke-width:1;"/><path d="M839.5,394.7969 L839.5,419.7969 L1090.5,419.7969 L1090.5,404.7969 L1080.5,394.7969 L839.5,394.7969" fill="#FEFFDD" style="stroke:#181818;stroke-width:0.5;"/><path d="M1080.5,394.7969 L1080.5,404.7969 L1090.5,404.7969 L1080.5,394.7969" fill="#FEFFDD" style="stroke:#181818;stroke-width:0.5;"/><text fill="#000000" font-family="sans-serif" font-size="13" font-weight="bold" lengthAdjust="spacing" textLength="60.5313" x="845.5" y="411.8638">Docente</text><text fill="#000000" font-family="sans-serif" font-size="13" lengthAdjust="spacing" textLength="165.9214" x="910.1636" y="411.8638">solicita modificar campos</text></g><!--link GuardandoDatos to *end*editarPregunta--><g class="link" data-entity-1="GuardandoDatos" data-entity-2=".end.editarPregunta" data-source-line="51" data-uid="lnk13" id="link_GuardandoDatos_.end.editarPregunta"><path d="M634.43,552.3969 C596.66,564.5969 529.5,586.2969 529.5,586.2969 C529.5,586.2969 529.5,621.2969 529.5,621.2969 C529.5,621.2969 611.9446,639.0531 642.9946,645.7431" fill="none" id="GuardandoDatos-to-*end*editarPregunta" style="stroke:#008000;stroke-width:1;"/><polygon fill="#008000" points="648.86,647.0069,640.9044,641.201,643.9722,645.9537,639.2194,649.0215,648.86,647.0069" style="stroke:#008000;stroke-width:1;"/><path d="M534.5,591.2969 L534.5,616.2969 L764.5,616.2969 L764.5,601.2969 L754.5,591.2969 L534.5,591.2969" fill="#FEFFDD" style="stroke:#181818;stroke-width:0.5;"/><path d="M754.5,591.2969 L754.5,601.2969 L764.5,601.2969 L754.5,591.2969" fill="#FEFFDD" style="stroke:#181818;stroke-width:0.5;"/><text fill="#000000" font-family="sans-serif" font-size="13" font-weight="bold" lengthAdjust="spacing" textLength="60.5313" x="540.5" y="608.3638">Docente</text><text fill="#000000" font-family="sans-serif" font-size="13" lengthAdjust="spacing" textLength="144.5361" x="605.1636" y="608.3638">solicita guardar y salir</text></g><!--link GuardandoDatos to *end*editarPregunta--><g class="link" data-entity-1="GuardandoDatos" data-entity-2=".end.editarPregunta" data-source-line="56" data-uid="lnk14" id="link_GuardandoDatos_.end.editarPregunta"><path d="M684.74,553.9369 C717.21,566.3369 769.5,586.2969 769.5,586.2969 C769.5,586.2969 769.5,621.2969 769.5,621.2969 C769.5,621.2969 703.3945,638.1263 675.8645,645.1363" fill="none" id="GuardandoDatos-to-*end*editarPregunta-1" style="stroke:#FF0000;stroke-width:1;"/><polygon fill="#FF0000" points="670.05,646.6169,679.7587,648.2724,674.8954,645.3831,677.7847,640.5197,670.05,646.6169" style="stroke:#FF0000;stroke-width:1;"/><path d="M774.5,591.2969 L774.5,616.2969 L1015.5,616.2969 L1015.5,601.2969 L1005.5,591.2969 L774.5,591.2969" fill="#FEFFDD" style="stroke:#181818;stroke-width:0.5;"/><path d="M1005.5,591.2969 L1005.5,601.2969 L1015.5,601.2969 L1005.5,591.2969" fill="#FEFFDD" style="stroke:#181818;stroke-width:0.5;"/><text fill="#000000" font-family="sans-serif" font-size="13" font-weight="bold" lengthAdjust="spacing" textLength="60.5313" x="780.5" y="608.3638">Docente</text><text fill="#000000" font-family="sans-serif" font-size="13" lengthAdjust="spacing" textLength="156.2729" x="845.1636" y="608.3638">solicita cancelar edici&#243;n</text></g><!--link RESPUESTAS_ABIERTO to editarPregunta--><g class="link" data-entity-1="RESPUESTAS_ABIERTO" data-entity-2="editarPregunta" data-source-line="14" data-uid="lnk2" id="link_RESPUESTAS_ABIERTO_editarPregunta"><path d="M141.91,57.07 C206.7,91.42 326.0588,154.6999 447.8688,219.2699" fill="none" id="RESPUESTAS_ABIERTO-to-editarPregunta" style="stroke:#008000;stroke-width:1;"/><polygon fill="#008000" points="453.17,222.08,447.0915,214.3306,448.7523,219.7382,443.3447,221.399,453.17,222.08" style="stroke:#008000;stroke-width:1;"/></g><!--link RESPUESTAS_CONTEXTUALES_ABIERTO to editarPregunta--><g class="link" data-entity-1="RESPUESTAS_CONTEXTUALES_ABIERTO" data-entity-2="editarPregunta" data-source-line="15" data-uid="lnk3" id="link_RESPUESTAS_CONTEXTUALES_ABIERTO_editarPregunta"><path d="M397.77,57.21 C414.75,72.29 434.0837,89.4558 461.6037,113.8958" fill="none" id="RESPUESTAS_CONTEXTUALES_ABIERTO-to-editarPregunta" style="stroke:#008000;stroke-width:1;"/><polygon fill="#008000" points="466.09,117.88,462.0167,108.9129,462.3515,114.5599,456.7045,114.8946,466.09,117.88" style="stroke:#008000;stroke-width:1;"/></g><!--link PREGUNTAS_ABIERTO to editarPregunta--><g class="link" data-entity-1="PREGUNTAS_ABIERTO" data-entity-2="editarPregunta" data-source-line="16" data-uid="lnk4" id="link_PREGUNTAS_ABIERTO_editarPregunta"><path d="M651.5,57.21 C657.1,72.29 662.8804,87.8156 671.9604,112.2556" fill="none" id="PREGUNTAS_ABIERTO-to-editarPregunta" style="stroke:#008000;stroke-width:1;"/><polygon fill="#008000" points="674.05,117.88,674.6652,108.0504,672.3087,113.193,667.166,110.8365,674.05,117.88" style="stroke:#008000;stroke-width:1;"/></g><!--link PREGUNTAS_CONTEXTUALES_ABIERTO to editarPregunta--><g class="link" data-entity-1="PREGUNTAS_CONTEXTUALES_ABIERTO" data-entity-2="editarPregunta" data-source-line="17" data-uid="lnk5" id="link_PREGUNTAS_CONTEXTUALES_ABIERTO_editarPregunta"><path d="M902.43,57.21 C896.79,72.29 890.9757,87.8216 881.8157,112.2616" fill="none" id="PREGUNTAS_CONTEXTUALES_ABIERTO-to-editarPregunta" style="stroke:#008000;stroke-width:1;"/><polygon fill="#008000" points="879.71,117.88,886.6142,110.8563,881.4648,113.198,879.123,108.0486,879.71,117.88" style="stroke:#008000;stroke-width:1;"/></g><!--link PREGUNTA_ABIERTO to editarPregunta--><g class="link" data-entity-1="PREGUNTA_ABIERTO" data-entity-2="editarPregunta" data-source-line="18" data-uid="lnk6" id="link_PREGUNTA_ABIERTO_editarPregunta"><path d="M1148.7,57.21 C1132.01,72.29 1113.0512,89.4168 1086.0112,113.8568" fill="none" id="PREGUNTA_ABIERTO-to-editarPregunta" style="stroke:#008000;stroke-width:1;"/><polygon fill="#008000" points="1081.56,117.88,1090.919,114.8126,1085.2694,114.5273,1085.5547,108.8776,1081.56,117.88" style="stroke:#008000;stroke-width:1;"/></g><!--link PREGUNTA_CONTEXTUAL_ABIERTO to editarPregunta--><g class="link" data-entity-1="PREGUNTA_CONTEXTUAL_ABIERTO" data-entity-2="editarPregunta" data-source-line="19" data-uid="lnk7" id="link_PREGUNTA_CONTEXTUAL_ABIERTO_editarPregunta"><path d="M1383.1,57.07 C1323.65,90.04 1216.7171,149.3501 1104.8471,211.3901" fill="none" id="PREGUNTA_CONTEXTUAL_ABIERTO-to-editarPregunta" style="stroke:#008000;stroke-width:1;"/><polygon fill="#008000" points="1099.6,214.3,1109.4106,213.4332,1103.9726,211.8751,1105.5308,206.437,1099.6,214.3" style="stroke:#008000;stroke-width:1;"/></g><!--link editarPregunta to PREGUNTA_ABIERTO2--><g class="link" data-entity-1="editarPregunta" data-entity-2="PREGUNTA_ABIERTO2" data-source-line="64" data-uid="lnk15" id="link_editarPregunta_PREGUNTA_ABIERTO2"><path d="M873.13,671.1 C884.13,702.5 891.6962,724.0674 898.0862,742.3074" fill="none" id="editarPregunta-to-PREGUNTA_ABIERTO2" style="stroke:#008000;stroke-width:1;"/><polygon fill="#008000" points="900.07,747.97,900.8694,738.1536,898.4169,743.2512,893.3193,740.7987,900.07,747.97" style="stroke:#008000;stroke-width:1;"/></g><!--link editarPregunta to PREGUNTA_CONTEXTUAL_ABIERTO2--><g class="link" data-entity-1="editarPregunta" data-entity-2="PREGUNTA_CONTEXTUAL_ABIERTO2" data-source-line="67" data-uid="lnk16" id="link_editarPregunta_PREGUNTA_CONTEXTUAL_ABIERTO2"><path d="M1056.86,671.1 C1088.8,702.5 1112.2218,725.5233 1130.7718,743.7633" fill="none" id="editarPregunta-to-PREGUNTA_CONTEXTUAL_ABIERTO2" style="stroke:#008000;stroke-width:1;"/><polygon fill="#008000" points="1135.05,747.97,1131.4371,738.8077,1131.4848,744.4644,1125.8281,744.512,1135.05,747.97" style="stroke:#008000;stroke-width:1;"/></g><!--link editarPregunta to PREGUNTAS_ABIERTO2--><g class="link" data-entity-1="editarPregunta" data-entity-2="PREGUNTAS_ABIERTO2" data-source-line="71" data-uid="lnk17" id="link_editarPregunta_PREGUNTAS_ABIERTO2"><path d="M482.96,671.1 C449.52,702.5 424.8934,725.6223 405.4734,743.8623" fill="none" id="editarPregunta-to-PREGUNTAS_ABIERTO2" style="stroke:#FF0000;stroke-width:1;"/><polygon fill="#FF0000" points="401.1,747.97,410.3986,744.7241,404.7445,744.5469,404.9217,738.8928,401.1,747.97" style="stroke:#FF0000;stroke-width:1;"/><text fill="#000000" font-family="sans-serif" font-size="13" lengthAdjust="spacing" textLength="57.3511" x="444.5" y="714.0669">Cancelar</text></g><!--link editarPregunta to PREGUNTAS_CONTEXTUALES_ABIERTO2--><g class="link" data-entity-1="editarPregunta" data-entity-2="PREGUNTAS_CONTEXTUALES_ABIERTO2" data-source-line="73" data-uid="lnk18" id="link_editarPregunta_PREGUNTAS_CONTEXTUALES_ABIERTO2"><path d="M679.87,671.1 C668.87,702.5 661.3038,724.0674 654.9138,742.3074" fill="none" id="editarPregunta-to-PREGUNTAS_CONTEXTUALES_ABIERTO2" style="stroke:#FF0000;stroke-width:1;"/><polygon fill="#FF0000" points="652.93,747.97,659.6807,740.7987,654.5831,743.2512,652.1306,738.1536,652.93,747.97" style="stroke:#FF0000;stroke-width:1;"/><text fill="#000000" font-family="sans-serif" font-size="13" lengthAdjust="spacing" textLength="57.3511" x="668.5" y="714.0669">Cancelar</text></g><!--SRC=[dLLTQjj047xVKmpkG-sIrD2-cM1mOv46Gcmi6GeXbB5swYwHTiMk_61AeMVf5Ng4tgGdwKYMfSYIOZko4TBCzytFjxChzwHqWXPZY9IcT9iG92RQPYz2k1HJWeNdpvUU7qpyhvDFjzuYc3KTrxFxmFiIB2TttY5gll1kblTDTcK_WTnbhgZ7idu0TD1hc7idLND8RiFqEagkSplHpKuEY4r0JuZcsi3bmvkr9TAFbsCWgLAqSqlhZKvH75cmbwWDuKu3lpRDMTYcCY_H2k7hrbpgkga_wC4F8O2l7QF7FuPv6KfBCyNKkARxPeDMbdxO1NXuzrWhgHO3SeWs7CFeR1i-vOQhrNXgGj8fNGrNOt0cKY6pYi9p26cvu_4bobiz-FEqzTewq_hAfHHZdZQnv2WJIERHP2vSgFx-qLN2Vxz-myIfjSPqO_42FBtHeK9fIc_0uIvWghwfS1EbAA7Fc7XG-XVaaWsnZWxweU6MjP86jk0Ka8FGM4jXYaEbzuyLzJEkLCGDInnASj_BDz7Q3TbOSSDxCUseZ1CRcPM75aACaqATpB7EHREP4hi1sZj2r255xAafib-JIfw3YUYSW_F6eBNUivBpK9wNSgy4hmj6gZw2eYER9VcgN4V4_Id4M_Zu7WABsZ70Q9wJgGV-vEvsEk4nTP8Q6_zWop_Ned5eYzFWBQUso4hpMI29sNOf6ibxWFuioMh5Q0GSbhSM7pmGyPzdbFKbJHOZC93ThEBtGKiLXQGjNxWHN1UoYLDuxL-wAiX_]--></g></svg>