<svg xmlns="http://www.w3.org/2000/svg" xmlns:xlink="http://www.w3.org/1999/xlink" contentStyleType="text/css" data-diagram-type="STATE" height="711px" preserveAspectRatio="none" style="width:666px;height:711px;background:#FFFFFF;" version="1.1" viewBox="0 0 666 711" width="666px" zoomAndPan="magnify"><defs/><g><g id="PREGUNTAS_ABIERTO"><rect fill="#F1F1F1" height="50" rx="12.5" ry="12.5" style="stroke:#181818;stroke-width:0.5;" width="174.0547" x="242.97" y="7"/><line style="stroke:#181818;stroke-width:0.5;" x1="242.97" x2="417.0247" y1="33.2969" y2="33.2969"/><text fill="#000000" font-family="sans-serif" font-size="14" lengthAdjust="spacing" textLength="154.0547" x="252.97" y="24.9951">PREGUNTAS_ABIERTO</text></g><path d="M19.5,152 L640.5,152 A12.5,12.5 0 0 1 653,164.5 L653,178.2969 L7,178.2969 L7,164.5 A12.5,12.5 0 0 1 19.5,152" fill="#F1F1F1"/><rect fill="none" height="553.2969" rx="12.5" ry="12.5" style="stroke:#181818;stroke-width:0.5;" width="646" x="7" y="152"/><line style="stroke:#181818;stroke-width:0.5;" x1="7" x2="653" y1="178.2969" y2="178.2969"/><text fill="#000000" font-family="sans-serif" font-size="14" lengthAdjust="spacing" textLength="115.6504" x="272.1748" y="169.9951">editarPregunta()</text><g id="editarPregunta.EditandoDatos"><rect fill="#F1F1F1" height="50" rx="12.5" ry="12.5" style="stroke:#181818;stroke-width:0.5;" width="50" x="188" y="280.2969"/><line style="stroke:#181818;stroke-width:0.5;" x1="188" x2="238" y1="306.5938" y2="306.5938"/><text fill="#000000" font-family="sans-serif" font-size="14" lengthAdjust="spacing" textLength="4.4502" x="210.7749" y="298.292">&#160;</text></g><g id="editarPregunta.GuardandoDatos"><rect fill="#F1F1F1" height="50" rx="12.5" ry="12.5" style="stroke:#181818;stroke-width:0.5;" width="50" x="188" y="552.2969"/><line style="stroke:#181818;stroke-width:0.5;" x1="188" x2="238" y1="578.5938" y2="578.5938"/><text fill="#000000" font-family="sans-serif" font-size="14" lengthAdjust="spacing" textLength="4.4502" x="210.7749" y="570.292">&#160;</text></g><ellipse cx="213" cy="199.2969" fill="#222222" rx="10" ry="10" style="stroke:#222222;stroke-width:1;"/><ellipse cx="213" cy="684.2969" fill="none" rx="11" ry="11" style="stroke:#222222;stroke-width:1;"/><ellipse cx="213" cy="684.2969" fill="#222222" rx="6" ry="6" style="stroke:#222222;stroke-width:1;"/><!--link *start*editarPregunta to EditandoDatos--><g class="link" data-entity-1=".start.editarPregunta" data-entity-2="EditandoDatos" data-source-line="12" data-uid="lnk4" id="link_.start.editarPregunta_EditandoDatos"><path d="M213,209.5269 C213,225.2369 213,251.6569 213,274.1669" fill="none" id="*start*editarPregunta-to-EditandoDatos" style="stroke:#008000;stroke-width:1;"/><polygon fill="#008000" points="213,280.1669,217,271.1669,213,275.1669,209,271.1669,213,280.1669" style="stroke:#008000;stroke-width:1;"/><path d="M218,232.2969 L218,257.2969 L455,257.2969 L455,242.2969 L445,232.2969 L218,232.2969" fill="#FEFFDD" style="stroke:#181818;stroke-width:0.5;"/><path d="M445,232.2969 L445,242.2969 L455,242.2969 L445,232.2969" fill="#FEFFDD" style="stroke:#181818;stroke-width:0.5;"/><text fill="#000000" font-family="sans-serif" font-size="13" font-weight="bold" lengthAdjust="spacing" textLength="60.5313" x="224" y="249.3638">Docente</text><text fill="#000000" font-family="sans-serif" font-size="13" lengthAdjust="spacing" textLength="151.6963" x="288.6636" y="249.3638">solicita editar pregunta</text></g><!--link EditandoDatos to GuardandoDatos--><g class="link" data-entity-1="EditandoDatos" data-entity-2="GuardandoDatos" data-source-line="17" data-uid="lnk5" id="link_EditandoDatos_GuardandoDatos"><path d="M187.51,311.7869 C134.65,323.1769 18,348.2969 18,348.2969 C18,348.2969 18,534.2969 18,534.2969 C18,534.2969 128.7846,558.153 181.6446,569.543" fill="none" id="EditandoDatos-to-GuardandoDatos" style="stroke:#008000;stroke-width:1;"/><polygon fill="#008000" points="187.51,570.8069,179.5545,565.0009,182.6222,569.7537,177.8694,572.8214,187.51,570.8069" style="stroke:#008000;stroke-width:1;"/><path d="M23,353.2969 L23,529.2969 L383,529.2969 L383,363.2969 L373,353.2969 L23,353.2969" fill="#FEFFDD" style="stroke:#181818;stroke-width:0.5;"/><path d="M373,353.2969 L373,363.2969 L383,363.2969 L373,353.2969" fill="#FEFFDD" style="stroke:#181818;stroke-width:0.5;"/><text fill="#000000" font-family="sans-serif" font-size="13" font-weight="bold" lengthAdjust="spacing" textLength="58.9063" x="29" y="370.3638">Sistema</text><text fill="#000000" font-family="sans-serif" font-size="13" lengthAdjust="spacing" textLength="169.1714" x="92.0386" y="370.3638">presenta datos de edici&#243;n</text><text fill="#000000" font-family="sans-serif" font-size="13" lengthAdjust="spacing" textLength="4.1323" x="29" y="385.4966">&#160;</text><text fill="#000000" font-family="sans-serif" font-size="13" lengthAdjust="spacing" textLength="158.3105" x="29" y="400.6294">&#8226; Asignatura, Enunciado</text><text fill="#000000" font-family="sans-serif" font-size="13" lengthAdjust="spacing" textLength="170.3901" x="29" y="415.7622">&#8226; Tema, Dificultad (Enum)</text><text fill="#000000" font-family="sans-serif" font-size="13" lengthAdjust="spacing" textLength="339.0791" x="29" y="430.895">&#8226; Respuestas (contenido y si es correcta/incorrecta)</text><text fill="#000000" font-family="sans-serif" font-size="13" lengthAdjust="spacing" textLength="169.8887" x="29" y="446.0278">&#8226; Habilitada/deshabilitada</text><text fill="#000000" font-family="sans-serif" font-size="13" lengthAdjust="spacing" textLength="4.1323" x="29" y="461.1606">&#160;</text><text fill="#000000" font-family="sans-serif" font-size="13" font-weight="bold" lengthAdjust="spacing" textLength="58.9063" x="29" y="476.2935">Sistema</text><text fill="#000000" font-family="sans-serif" font-size="13" lengthAdjust="spacing" textLength="110.5952" x="92.0386" y="476.2935">permite solicitar:</text><text fill="#000000" font-family="sans-serif" font-size="13" lengthAdjust="spacing" textLength="127.8164" x="29" y="491.4263">&#8226; modificar campos</text><text fill="#000000" font-family="sans-serif" font-size="13" lengthAdjust="spacing" textLength="126.6865" x="29" y="506.5591">&#8226; guardar pregunta</text><text fill="#000000" font-family="sans-serif" font-size="13" lengthAdjust="spacing" textLength="118.168" x="29" y="521.6919">&#8226; cancelar edici&#243;n</text></g><!--link GuardandoDatos to EditandoDatos--><g class="link" data-entity-1="GuardandoDatos" data-entity-2="EditandoDatos" data-source-line="32" data-uid="lnk6" id="link_GuardandoDatos_EditandoDatos"><path d="M238.45,570.1869 C286.98,558.5369 388,534.2969 388,534.2969 C388,534.2969 388,348.2969 388,348.2969 C388,348.2969 292.8142,325.4574 244.2842,313.8074" fill="none" id="GuardandoDatos-to-EditandoDatos" style="stroke:#008000;stroke-width:1;"/><polygon fill="#008000" points="238.45,312.4069,246.2677,318.3972,243.3119,313.574,248.1351,310.6182,238.45,312.4069" style="stroke:#008000;stroke-width:1;"/><path d="M393,428.7969 L393,453.7969 L644,453.7969 L644,438.7969 L634,428.7969 L393,428.7969" fill="#FEFFDD" style="stroke:#181818;stroke-width:0.5;"/><path d="M634,428.7969 L634,438.7969 L644,438.7969 L634,428.7969" fill="#FEFFDD" style="stroke:#181818;stroke-width:0.5;"/><text fill="#000000" font-family="sans-serif" font-size="13" font-weight="bold" lengthAdjust="spacing" textLength="60.5313" x="399" y="445.8638">Docente</text><text fill="#000000" font-family="sans-serif" font-size="13" lengthAdjust="spacing" textLength="165.9214" x="463.6636" y="445.8638">solicita modificar campos</text></g><!--link GuardandoDatos to *end*editarPregunta--><g class="link" data-entity-1="GuardandoDatos" data-entity-2=".end.editarPregunta" data-source-line="37" data-uid="lnk8" id="link_GuardandoDatos_.end.editarPregunta"><path d="M187.63,586.4969 C149.79,598.7169 83,620.2969 83,620.2969 C83,620.2969 83,655.2969 83,655.2969 C83,655.2969 165.4446,673.0531 196.4946,679.7431" fill="none" id="GuardandoDatos-to-*end*editarPregunta" style="stroke:#008000;stroke-width:1;"/><polygon fill="#008000" points="202.36,681.0069,194.4044,675.201,197.4722,679.9537,192.7194,683.0215,202.36,681.0069" style="stroke:#008000;stroke-width:1;"/><path d="M88,625.2969 L88,650.2969 L318,650.2969 L318,635.2969 L308,625.2969 L88,625.2969" fill="#FEFFDD" style="stroke:#181818;stroke-width:0.5;"/><path d="M308,625.2969 L308,635.2969 L318,635.2969 L308,625.2969" fill="#FEFFDD" style="stroke:#181818;stroke-width:0.5;"/><text fill="#000000" font-family="sans-serif" font-size="13" font-weight="bold" lengthAdjust="spacing" textLength="60.5313" x="94" y="642.3638">Docente</text><text fill="#000000" font-family="sans-serif" font-size="13" lengthAdjust="spacing" textLength="144.5361" x="158.6636" y="642.3638">solicita guardar y salir</text></g><!--link GuardandoDatos to *end*editarPregunta--><g class="link" data-entity-1="GuardandoDatos" data-entity-2=".end.editarPregunta" data-source-line="42" data-uid="lnk9" id="link_GuardandoDatos_.end.editarPregunta"><path d="M238.24,587.9369 C270.71,600.3369 323,620.2969 323,620.2969 C323,620.2969 323,655.2969 323,655.2969 C323,655.2969 256.8945,672.1263 229.3645,679.1363" fill="none" id="GuardandoDatos-to-*end*editarPregunta-1" style="stroke:#FF0000;stroke-width:1;"/><polygon fill="#FF0000" points="223.55,680.6169,233.2587,682.2724,228.3954,679.3831,231.2847,674.5197,223.55,680.6169" style="stroke:#FF0000;stroke-width:1;"/><path d="M328,625.2969 L328,650.2969 L569,650.2969 L569,635.2969 L559,625.2969 L328,625.2969" fill="#FEFFDD" style="stroke:#181818;stroke-width:0.5;"/><path d="M559,625.2969 L559,635.2969 L569,635.2969 L559,625.2969" fill="#FEFFDD" style="stroke:#181818;stroke-width:0.5;"/><text fill="#000000" font-family="sans-serif" font-size="13" font-weight="bold" lengthAdjust="spacing" textLength="60.5313" x="334" y="642.3638">Docente</text><text fill="#000000" font-family="sans-serif" font-size="13" lengthAdjust="spacing" textLength="156.2729" x="398.6636" y="642.3638">solicita cancelar edici&#243;n</text></g><!--link PREGUNTAS_ABIERTO to editarPregunta--><g class="link" data-entity-1="PREGUNTAS_ABIERTO" data-entity-2="editarPregunta" data-source-line="5" data-uid="lnk2" id="link_PREGUNTAS_ABIERTO_editarPregunta"><path d="M313.69,57.48 C304.16,71.76 294,87 294,87 C294,87 294,122 294,122 C294,122 294.6288,127.3611 296.7788,145.6311" fill="none" id="PREGUNTAS_ABIERTO-to-editarPregunta" style="stroke:#008000;stroke-width:1;"/><polygon fill="#008000" points="297.48,151.59,300.4007,142.1842,296.8956,146.6243,292.4556,143.1192,297.48,151.59" style="stroke:#008000;stroke-width:1;"/></g><!--link editarPregunta to PREGUNTAS_ABIERTO--><g class="link" data-entity-1="editarPregunta" data-entity-2="PREGUNTAS_ABIERTO" data-source-line="48" data-uid="lnk10" id="link_editarPregunta_PREGUNTAS_ABIERTO"><path d="M327.29,151.59 C327.11,133.32 327,122 327,122 C327,122 327,87 327,87 C327,87 327.5186,77.7508 328.3086,63.4708" fill="none" id="editarPregunta-to-PREGUNTAS_ABIERTO" style="stroke:#008000;stroke-width:1;"/><polygon fill="#008000" points="328.64,57.48,324.149,66.2453,328.3638,62.4724,332.1368,66.6872,328.64,57.48" style="stroke:#008000;stroke-width:1;"/><path d="M332,92 L332,117 L449,117 L449,102 L439,92 L332,92" fill="#FEFFDD" style="stroke:#181818;stroke-width:0.5;"/><path d="M439,92 L439,102 L449,102 L439,92" fill="#FEFFDD" style="stroke:#181818;stroke-width:0.5;"/><text fill="#000000" font-family="sans-serif" font-size="13" lengthAdjust="spacing" textLength="96.9287" x="338" y="109.0669">verPreguntas()</text></g><!--link editarPregunta to PREGUNTAS_ABIERTO--><g class="link" data-entity-1="editarPregunta" data-entity-2="PREGUNTAS_ABIERTO" data-source-line="53" data-uid="lnk11" id="link_editarPregunta_PREGUNTAS_ABIERTO"><path d="M445.61,151.59 C453.26,133.32 458,122 458,122 C458,122 458,87 458,87 C458,87 427.3985,74.0916 393.5385,59.8116" fill="none" id="editarPregunta-to-PREGUNTAS_ABIERTO-1" style="stroke:#FF0000;stroke-width:1;"/><polygon fill="#FF0000" points="388.01,57.48,394.7483,64.663,392.617,59.423,397.8571,57.2917,388.01,57.48" style="stroke:#FF0000;stroke-width:1;"/><path d="M463,92 L463,117 L590,117 L590,102 L580,92 L463,92" fill="#FEFFDD" style="stroke:#181818;stroke-width:0.5;"/><path d="M580,92 L580,102 L590,102 L580,92" fill="#FEFFDD" style="stroke:#181818;stroke-width:0.5;"/><text fill="#000000" font-family="sans-serif" font-size="13" lengthAdjust="spacing" textLength="106.3677" x="469" y="109.0669">cancelar edici&#243;n</text></g><!--SRC=[dLHHIiD04FtVKmprfnLB_wKKAYtgZqfRlwJ8T7UiYybksDq8HGJFuXKyWZVn94xI9dKRYzG4GdPdvhrvRoVnJzfaw325H1iAgumWiycgM0ZX0mQ2cydu_FPgDfpU3yyknvFPjH2DBUZU7IqTaPbt1q1A1tGtZfQv2LZ1nBk07bhnLhlJWXSXWAzrHOjlJXiNMKRP4GRhc-7p79sgux06k3kUHor5652c6CiOrXIwdygD_c8mif9Ce7vlCG1l4osvQjCuP9MU8fUCMWFm9Uf7pFAJFsvoB_zK-q0fblpCvwbmIfLegdHGwiyFioNyUdk7eTTBWo5tU09ZankfKTawEcEu4nZf1otp9A22DkUadJe-8P_bn8PwQ4lBserM5bRWDP07QPqZ6R2dJVMwBRt0XKvOiCAU8lzOhyIlQiYbcWLNhhhJ6YUrgcYFBPQOPXjtYi2oD6t7-I8WqKXAE18vKft9rfwTqTWx48VDmw_z7aJEqtaOPUK4dmicsiMCUzWSgNzn_M7kgn0xN_9FPSr_HSJxJ7MPRtV4La8JSjF-7u3DPYlCRm00]--></g></svg>