<svg xmlns="http://www.w3.org/2000/svg" xmlns:xlink="http://www.w3.org/1999/xlink" contentStyleType="text/css" data-diagram-type="STATE" height="720px" preserveAspectRatio="none" style="width:559px;height:720px;background:#FFFFFF;" version="1.1" viewBox="0 0 559 720" width="559px" zoomAndPan="magnify"><defs/><g><path d="M19.5,7 L533.5,7 A12.5,12.5 0 0 1 546,19.5 L546,33.2969 L7,33.2969 L7,19.5 A12.5,12.5 0 0 1 19.5,7" fill="#F1F1F1"/><rect fill="none" height="562.2969" rx="12.5" ry="12.5" style="stroke:#181818;stroke-width:0.5;" width="539" x="7" y="7"/><line style="stroke:#181818;stroke-width:0.5;" x1="7" x2="546" y1="33.2969" y2="33.2969"/><text fill="#000000" font-family="sans-serif" font-size="14" lengthAdjust="spacing" textLength="179.6074" x="186.6963" y="24.9951">editarPregunta(pregunta)</text><g id="editarPregunta.EditandoDatos"><rect fill="#F1F1F1" height="50" rx="12.5" ry="12.5" style="stroke:#181818;stroke-width:0.5;" width="50" x="135" y="135.2969"/><line style="stroke:#181818;stroke-width:0.5;" x1="135" x2="185" y1="161.5938" y2="161.5938"/><text fill="#000000" font-family="sans-serif" font-size="14" lengthAdjust="spacing" textLength="4.4502" x="157.7749" y="153.292">&#160;</text></g><g id="editarPregunta.GuardandoDatos"><rect fill="#F1F1F1" height="50" rx="12.5" ry="12.5" style="stroke:#181818;stroke-width:0.5;" width="50" x="135" y="416.2969"/><line style="stroke:#181818;stroke-width:0.5;" x1="135" x2="185" y1="442.5938" y2="442.5938"/><text fill="#000000" font-family="sans-serif" font-size="14" lengthAdjust="spacing" textLength="4.4502" x="157.7749" y="434.292">&#160;</text></g><ellipse cx="160" cy="54.2969" fill="#222222" rx="10" ry="10" style="stroke:#222222;stroke-width:1;"/><ellipse cx="160" cy="548.2969" fill="none" rx="11" ry="11" style="stroke:#222222;stroke-width:1;"/><ellipse cx="160" cy="548.2969" fill="#222222" rx="6" ry="6" style="stroke:#222222;stroke-width:1;"/><!--link *start*editarPregunta to EditandoDatos--><g class="link" data-entity-1=".start.editarPregunta" data-entity-2="EditandoDatos" data-source-line="8" data-uid="lnk3" id="link_.start.editarPregunta_EditandoDatos"><path d="M160,64.5269 C160,80.2369 160,106.6569 160,129.1669" fill="none" id="*start*editarPregunta-to-EditandoDatos" style="stroke:#008000;stroke-width:1;"/><polygon fill="#008000" points="160,135.1669,164,126.1669,160,130.1669,156,126.1669,160,135.1669" style="stroke:#008000;stroke-width:1;"/><path d="M165,87.2969 L165,112.2969 L402,112.2969 L402,97.2969 L392,87.2969 L165,87.2969" fill="#FEFFDD" style="stroke:#181818;stroke-width:0.5;"/><path d="M392,87.2969 L392,97.2969 L402,97.2969 L392,87.2969" fill="#FEFFDD" style="stroke:#181818;stroke-width:0.5;"/><text fill="#000000" font-family="sans-serif" font-size="13" font-weight="bold" lengthAdjust="spacing" textLength="60.5313" x="171" y="104.3638">Docente</text><text fill="#000000" font-family="sans-serif" font-size="13" lengthAdjust="spacing" textLength="151.6963" x="235.6636" y="104.3638">solicita editar pregunta</text></g><!--link EditandoDatos to GuardandoDatos--><g class="link" data-entity-1="EditandoDatos" data-entity-2="GuardandoDatos" data-source-line="13" data-uid="lnk4" id="link_EditandoDatos_GuardandoDatos"><path d="M134.61,168.8069 C93.77,180.8869 18,203.2969 18,203.2969 C18,203.2969 18,398.2969 18,398.2969 C18,398.2969 88.0164,419.005 128.8564,431.085" fill="none" id="EditandoDatos-to-GuardandoDatos" style="stroke:#008000;stroke-width:1;"/><polygon fill="#008000" points="134.61,432.7869,127.1142,426.3984,129.8153,431.3687,124.8451,434.0698,134.61,432.7869" style="stroke:#008000;stroke-width:1;"/><path d="M23,208.2969 L23,393.2969 L276,393.2969 L276,218.2969 L266,208.2969 L23,208.2969" fill="#FEFFDD" style="stroke:#181818;stroke-width:0.5;"/><path d="M266,208.2969 L266,218.2969 L276,218.2969 L266,208.2969" fill="#FEFFDD" style="stroke:#181818;stroke-width:0.5;"/><text fill="#000000" font-family="sans-serif" font-size="13" font-weight="bold" lengthAdjust="spacing" textLength="58.9063" x="29" y="225.3638">Sistema</text><text fill="#000000" font-family="sans-serif" font-size="13" lengthAdjust="spacing" textLength="169.1714" x="92.0386" y="225.3638">presenta datos de edici&#243;n</text><line style="stroke:#181818;stroke-width:1;" x1="24" x2="275.21" y1="228.4297" y2="228.4297"/><text fill="#000000" font-family="sans-serif" font-size="13" font-weight="bold" lengthAdjust="spacing" textLength="72.7568" x="29" y="244.4966">Pregunta:</text><text fill="#000000" font-family="sans-serif" font-size="13" lengthAdjust="spacing" textLength="158.3105" x="29" y="259.6294">&#8226; Asignatura, Enunciado</text><text fill="#000000" font-family="sans-serif" font-size="13" lengthAdjust="spacing" textLength="170.3901" x="29" y="274.7622">&#8226; Tema, Dificultad (Enum)</text><line style="stroke:#181818;stroke-width:1;" x1="24" x2="275.21" y1="281.8281" y2="281.8281"/><text fill="#000000" font-family="sans-serif" font-size="13" font-weight="bold" lengthAdjust="spacing" textLength="180.4067" x="29" y="297.895">Respuesta (Obligatoria):</text><text fill="#000000" font-family="sans-serif" font-size="13" lengthAdjust="spacing" textLength="182.8887" x="29" y="313.0278">&#8226; Contenido de la respuesta</text><line style="stroke:#181818;stroke-width:1;" x1="24" x2="275.21" y1="320.0938" y2="320.0938"/><text fill="#000000" font-family="sans-serif" font-size="13" font-weight="bold" lengthAdjust="spacing" textLength="58.9063" x="29" y="336.1606">Sistema</text><text fill="#000000" font-family="sans-serif" font-size="13" lengthAdjust="spacing" textLength="110.5952" x="92.0386" y="336.1606">permite solicitar:</text><text fill="#000000" font-family="sans-serif" font-size="13" lengthAdjust="spacing" textLength="127.8164" x="29" y="351.2935">&#8226; modificar campos</text><text fill="#000000" font-family="sans-serif" font-size="13" lengthAdjust="spacing" textLength="126.6865" x="29" y="366.4263">&#8226; guardar pregunta</text><text fill="#000000" font-family="sans-serif" font-size="13" lengthAdjust="spacing" textLength="118.168" x="29" y="381.5591">&#8226; cancelar edici&#243;n</text></g><!--link GuardandoDatos to EditandoDatos--><g class="link" data-entity-1="GuardandoDatos" data-entity-2="EditandoDatos" data-source-line="31" data-uid="lnk5" id="link_GuardandoDatos_EditandoDatos"><path d="M185.37,431.4969 C220.85,419.1769 281,398.2969 281,398.2969 C281,398.2969 281,203.2969 281,203.2969 C281,203.2969 226.518,184.385 191.038,172.065" fill="none" id="GuardandoDatos-to-EditandoDatos" style="stroke:#008000;stroke-width:1;"/><polygon fill="#008000" points="185.37,170.0969,192.5599,176.8278,190.0933,171.737,195.1841,169.2704,185.37,170.0969" style="stroke:#008000;stroke-width:1;"/><path d="M286,288.2969 L286,313.2969 L537,313.2969 L537,298.2969 L527,288.2969 L286,288.2969" fill="#FEFFDD" style="stroke:#181818;stroke-width:0.5;"/><path d="M527,288.2969 L527,298.2969 L537,298.2969 L527,288.2969" fill="#FEFFDD" style="stroke:#181818;stroke-width:0.5;"/><text fill="#000000" font-family="sans-serif" font-size="13" font-weight="bold" lengthAdjust="spacing" textLength="60.5313" x="292" y="305.3638">Docente</text><text fill="#000000" font-family="sans-serif" font-size="13" lengthAdjust="spacing" textLength="165.9214" x="356.6636" y="305.3638">solicita modificar campos</text></g><!--link GuardandoDatos to *end*editarPregunta--><g class="link" data-entity-1="GuardandoDatos" data-entity-2=".end.editarPregunta" data-source-line="37" data-uid="lnk7" id="link_GuardandoDatos_.end.editarPregunta"><path d="M134.63,450.4969 C96.79,462.7169 30,484.2969 30,484.2969 C30,484.2969 30,519.2969 30,519.2969 C30,519.2969 112.4446,537.0531 143.4946,543.7431" fill="none" id="GuardandoDatos-to-*end*editarPregunta" style="stroke:#008000;stroke-width:1;"/><polygon fill="#008000" points="149.36,545.0069,141.4044,539.201,144.4722,543.9537,139.7194,547.0215,149.36,545.0069" style="stroke:#008000;stroke-width:1;"/><path d="M35,489.2969 L35,514.2969 L265,514.2969 L265,499.2969 L255,489.2969 L35,489.2969" fill="#FEFFDD" style="stroke:#181818;stroke-width:0.5;"/><path d="M255,489.2969 L255,499.2969 L265,499.2969 L255,489.2969" fill="#FEFFDD" style="stroke:#181818;stroke-width:0.5;"/><text fill="#000000" font-family="sans-serif" font-size="13" font-weight="bold" lengthAdjust="spacing" textLength="60.5313" x="41" y="506.3638">Docente</text><text fill="#000000" font-family="sans-serif" font-size="13" lengthAdjust="spacing" textLength="144.5361" x="105.6636" y="506.3638">solicita guardar y salir</text></g><!--link GuardandoDatos to *end*editarPregunta--><g class="link" data-entity-1="GuardandoDatos" data-entity-2=".end.editarPregunta" data-source-line="43" data-uid="lnk8" id="link_GuardandoDatos_.end.editarPregunta"><path d="M185.24,451.9369 C217.71,464.3369 270,484.2969 270,484.2969 C270,484.2969 270,519.2969 270,519.2969 C270,519.2969 203.8945,536.1263 176.3645,543.1363" fill="none" id="GuardandoDatos-to-*end*editarPregunta-1" style="stroke:#FF0000;stroke-width:1;"/><polygon fill="#FF0000" points="170.55,544.6169,180.2587,546.2724,175.3954,543.3831,178.2847,538.5197,170.55,544.6169" style="stroke:#FF0000;stroke-width:1;"/><path d="M275,489.2969 L275,514.2969 L516,514.2969 L516,499.2969 L506,489.2969 L275,489.2969" fill="#FEFFDD" style="stroke:#181818;stroke-width:0.5;"/><path d="M506,489.2969 L506,499.2969 L516,499.2969 L506,489.2969" fill="#FEFFDD" style="stroke:#181818;stroke-width:0.5;"/><text fill="#000000" font-family="sans-serif" font-size="13" font-weight="bold" lengthAdjust="spacing" textLength="60.5313" x="281" y="506.3638">Docente</text><text fill="#000000" font-family="sans-serif" font-size="13" lengthAdjust="spacing" textLength="156.2729" x="345.6636" y="506.3638">solicita cancelar edici&#243;n</text></g><g id="PREGUNTAS_ABIERTO"><rect fill="#F1F1F1" height="50" rx="12.5" ry="12.5" style="stroke:#181818;stroke-width:0.5;" width="174.0547" x="189.47" y="664.3"/><line style="stroke:#181818;stroke-width:0.5;" x1="189.47" x2="363.5247" y1="690.5969" y2="690.5969"/><text fill="#000000" font-family="sans-serif" font-size="14" lengthAdjust="spacing" textLength="154.0547" x="199.47" y="682.2951">PREGUNTAS_ABIERTO</text></g><!--link editarPregunta to PREGUNTAS_ABIERTO--><g class="link" data-entity-1="editarPregunta" data-entity-2="PREGUNTAS_ABIERTO" data-source-line="50" data-uid="lnk10" id="link_editarPregunta_PREGUNTAS_ABIERTO"><path d="M198.75,569.56 C193.65,587.94 190.5,599.3 190.5,599.3 C190.5,599.3 190.5,634.3 190.5,634.3 C190.5,634.3 209.6885,646.3496 232.4485,660.6396" fill="none" id="editarPregunta-to-PREGUNTAS_ABIERTO" style="stroke:#008000;stroke-width:1;"/><polygon fill="#008000" points="237.53,663.83,232.0348,655.6567,233.2955,661.1713,227.7809,662.432,237.53,663.83" style="stroke:#008000;stroke-width:1;"/><path d="M195.5,604.3 L195.5,629.3 L312.5,629.3 L312.5,614.3 L302.5,604.3 L195.5,604.3" fill="#FEFFDD" style="stroke:#181818;stroke-width:0.5;"/><path d="M302.5,604.3 L302.5,614.3 L312.5,614.3 L302.5,604.3" fill="#FEFFDD" style="stroke:#181818;stroke-width:0.5;"/><text fill="#000000" font-family="sans-serif" font-size="13" lengthAdjust="spacing" textLength="96.9287" x="201.5" y="621.3669">verPreguntas()</text></g><!--link editarPregunta to PREGUNTAS_ABIERTO--><g class="link" data-entity-1="editarPregunta" data-entity-2="PREGUNTAS_ABIERTO" data-source-line="55" data-uid="lnk11" id="link_editarPregunta_PREGUNTAS_ABIERTO"><path d="M317.19,569.56 C319.85,587.94 321.5,599.3 321.5,599.3 C321.5,599.3 321.5,634.3 321.5,634.3 C321.5,634.3 312.6414,644.9309 300.7314,659.2209" fill="none" id="editarPregunta-to-PREGUNTAS_ABIERTO-1" style="stroke:#FF0000;stroke-width:1;"/><polygon fill="#FF0000" points="296.89,663.83,305.7248,659.4774,300.0912,659.9891,299.5794,654.3555,296.89,663.83" style="stroke:#FF0000;stroke-width:1;"/><path d="M326.5,604.3 L326.5,629.3 L453.5,629.3 L453.5,614.3 L443.5,604.3 L326.5,604.3" fill="#FEFFDD" style="stroke:#181818;stroke-width:0.5;"/><path d="M443.5,604.3 L443.5,614.3 L453.5,614.3 L443.5,604.3" fill="#FEFFDD" style="stroke:#181818;stroke-width:0.5;"/><text fill="#000000" font-family="sans-serif" font-size="13" lengthAdjust="spacing" textLength="106.3677" x="332.5" y="621.3669">cancelar edici&#243;n</text></g><!--SRC=[dLHHQjmm4FttAORDHxqbflyXB6oo9kId2RlRhn3Ah3GrQcJ9I7B8KWezIw_G8_GcFKd7yjg9lLcMn0OZQsRUU_Cqo3yeKw734hGo5BOLGMNrjlb94Xym491K0Tsjew8s0G4zJ8PRQRLRJ2Vm8qc0dxPomY-dvqssaNQ1mVhzy5MDJlPnQ07kFjv3TdTIE29pdys6611JZ6KCQnhX3t7ZV3DRM44cqFcdpGoyrKfmrQu1w5J6N3Ao1U0dwJz3bfVyGv47-LVA1oenyZEVfyOn6T5aT5AeltzCpCwohAlgZ3nhwkBclr-_OUvLOJ3K3ayXDxKH2gNjeskcEOM5-gP4hGDAI3cdd8wXb-IhcjXlI6ysMXKinIcS3fakBNjcbBIDI8tWkg8nsg0zSgLY1pgRtLcFLrhPw6BF1PRLpgucK4GNHqVH10GQGPeZ0ukwGte-e0-GQn1Aw2YruuaLaB9oeV6Hcb2eWRvJMMdRMZ8QieEZzRR9UhNHrrIlK2k9a3yfvi1ZYdZutwQZytKBdedSKCPGmcNhDA_IQyPn1WyPv4Y-IyoHi_oP99qOlXgUeWIVZ2wPbsxSBlEhBv_NyzNN-SLrlbpV90CfZzIN-NIQFBUz3xdhw0ZWlluEypy0]--></g></svg>