<svg xmlns="http://www.w3.org/2000/svg" xmlns:xlink="http://www.w3.org/1999/xlink" contentStyleType="text/css" data-diagram-type="STATE" height="804px" preserveAspectRatio="none" style="width:855px;height:804px;background:#FFFFFF;" version="1.1" viewBox="0 0 855 804" width="855px" zoomAndPan="magnify"><defs/><g><g id="RESPUESTAS_ABIERTO"><rect fill="#F1F1F1" height="50" rx="12.5" ry="12.5" style="stroke:#181818;stroke-width:0.5;" width="179.3525" x="7" y="7"/><line style="stroke:#181818;stroke-width:0.5;" x1="7" x2="186.3525" y1="33.2969" y2="33.2969"/><text fill="#000000" font-family="sans-serif" font-size="14" lengthAdjust="spacing" textLength="159.3525" x="17" y="24.9951">RESPUESTAS_ABIERTO</text></g><g id="RESPUESTAS_CONTEXTUALES_ABIERTO"><rect fill="#F1F1F1" height="50" rx="12.5" ry="12.5" style="stroke:#181818;stroke-width:0.5;" width="298.5166" x="221.42" y="7"/><line style="stroke:#181818;stroke-width:0.5;" x1="221.42" x2="519.9366" y1="33.2969" y2="33.2969"/><text fill="#000000" font-family="sans-serif" font-size="14" lengthAdjust="spacing" textLength="278.5166" x="231.42" y="24.9951">RESPUESTAS_CONTEXTUALES_ABIERTO</text></g><g id="PREGUNTAS_ABIERTO"><rect fill="#F1F1F1" height="50" rx="12.5" ry="12.5" style="stroke:#181818;stroke-width:0.5;" width="174.0547" x="78.65" y="748.3"/><line style="stroke:#181818;stroke-width:0.5;" x1="78.65" x2="252.7047" y1="774.5969" y2="774.5969"/><text fill="#000000" font-family="sans-serif" font-size="14" lengthAdjust="spacing" textLength="154.0547" x="88.65" y="766.2951">PREGUNTAS_ABIERTO</text></g><g id="PREGUNTAS_CONTEXTUALES_ABIERTO"><rect fill="#F1F1F1" height="50" rx="12.5" ry="12.5" style="stroke:#181818;stroke-width:0.5;" width="293.2188" x="555.07" y="7"/><line style="stroke:#181818;stroke-width:0.5;" x1="555.07" x2="848.2888" y1="33.2969" y2="33.2969"/><text fill="#000000" font-family="sans-serif" font-size="14" lengthAdjust="spacing" textLength="273.2188" x="565.07" y="24.9951">PREGUNTAS_CONTEXTUALES_ABIERTO</text></g><g id="PREGUNTA_ABIERTO"><rect fill="#F1F1F1" height="50" rx="12.5" ry="12.5" style="stroke:#181818;stroke-width:0.5;" width="165.168" x="288.09" y="748.3"/><line style="stroke:#181818;stroke-width:0.5;" x1="288.09" x2="453.258" y1="774.5969" y2="774.5969"/><text fill="#000000" font-family="sans-serif" font-size="14" lengthAdjust="spacing" textLength="145.168" x="298.09" y="766.2951">PREGUNTA_ABIERTO</text></g><g id="PREGUNTA_CONTEXTUAL_ABIERTO"><rect fill="#F1F1F1" height="50" rx="12.5" ry="12.5" style="stroke:#181818;stroke-width:0.5;" width="266.5996" x="488.38" y="748.3"/><line style="stroke:#181818;stroke-width:0.5;" x1="488.38" x2="754.9796" y1="774.5969" y2="774.5969"/><text fill="#000000" font-family="sans-serif" font-size="14" lengthAdjust="spacing" textLength="246.5996" x="498.38" y="766.2951">PREGUNTA_CONTEXTUAL_ABIERTO</text></g><path d="M60.18,118 L681.18,118 A12.5,12.5 0 0 1 693.68,130.5 L693.68,144.2969 L47.68,144.2969 L47.68,130.5 A12.5,12.5 0 0 1 60.18,118" fill="#F1F1F1"/><rect fill="none" height="553.2969" rx="12.5" ry="12.5" style="stroke:#181818;stroke-width:0.5;" width="646" x="47.68" y="118"/><line style="stroke:#181818;stroke-width:0.5;" x1="47.68" x2="693.68" y1="144.2969" y2="144.2969"/><text fill="#000000" font-family="sans-serif" font-size="14" lengthAdjust="spacing" textLength="115.6504" x="312.8548" y="135.9951">editarPregunta()</text><g id="editarPregunta.EditandoDatos"><rect fill="#F1F1F1" height="50" rx="12.5" ry="12.5" style="stroke:#181818;stroke-width:0.5;" width="50" x="228.68" y="246.2969"/><line style="stroke:#181818;stroke-width:0.5;" x1="228.68" x2="278.68" y1="272.5938" y2="272.5938"/><text fill="#000000" font-family="sans-serif" font-size="14" lengthAdjust="spacing" textLength="4.4502" x="251.4549" y="264.292">&#160;</text></g><g id="editarPregunta.GuardandoDatos"><rect fill="#F1F1F1" height="50" rx="12.5" ry="12.5" style="stroke:#181818;stroke-width:0.5;" width="50" x="228.68" y="518.2969"/><line style="stroke:#181818;stroke-width:0.5;" x1="228.68" x2="278.68" y1="544.5938" y2="544.5938"/><text fill="#000000" font-family="sans-serif" font-size="14" lengthAdjust="spacing" textLength="4.4502" x="251.4549" y="536.292">&#160;</text></g><ellipse cx="253.68" cy="165.2969" fill="#222222" rx="10" ry="10" style="stroke:#222222;stroke-width:1;"/><ellipse cx="253.68" cy="650.2969" fill="none" rx="11" ry="11" style="stroke:#222222;stroke-width:1;"/><ellipse cx="253.68" cy="650.2969" fill="#222222" rx="6" ry="6" style="stroke:#222222;stroke-width:1;"/><!--link *start*editarPregunta to EditandoDatos--><g class="link" data-entity-1=".start.editarPregunta" data-entity-2="EditandoDatos" data-source-line="24" data-uid="lnk9" id="link_.start.editarPregunta_EditandoDatos"><path d="M253.68,175.5269 C253.68,191.2369 253.68,217.6569 253.68,240.1669" fill="none" id="*start*editarPregunta-to-EditandoDatos" style="stroke:#008000;stroke-width:1;"/><polygon fill="#008000" points="253.68,246.1669,257.68,237.1669,253.68,241.1669,249.68,237.1669,253.68,246.1669" style="stroke:#008000;stroke-width:1;"/><path d="M258.68,198.2969 L258.68,223.2969 L431.68,223.2969 L431.68,208.2969 L421.68,198.2969 L258.68,198.2969" fill="#FEFFDD" style="stroke:#181818;stroke-width:0.5;"/><path d="M421.68,198.2969 L421.68,208.2969 L431.68,208.2969 L421.68,198.2969" fill="#FEFFDD" style="stroke:#181818;stroke-width:0.5;"/><text fill="#000000" font-family="sans-serif" font-size="13" font-weight="bold" lengthAdjust="spacing" textLength="60.5313" x="264.68" y="215.3638">Docente</text><text fill="#000000" font-family="sans-serif" font-size="13" lengthAdjust="spacing" textLength="88.1753" x="329.3436" y="215.3638">solicita editar</text></g><!--link EditandoDatos to GuardandoDatos--><g class="link" data-entity-1="EditandoDatos" data-entity-2="GuardandoDatos" data-source-line="29" data-uid="lnk10" id="link_EditandoDatos_GuardandoDatos"><path d="M228.19,277.7869 C175.33,289.1769 58.68,314.2969 58.68,314.2969 C58.68,314.2969 58.68,500.2969 58.68,500.2969 C58.68,500.2969 169.4646,524.153 222.3246,535.543" fill="none" id="EditandoDatos-to-GuardandoDatos" style="stroke:#008000;stroke-width:1;"/><polygon fill="#008000" points="228.19,536.8069,220.2345,531.0009,223.3022,535.7537,218.5494,538.8214,228.19,536.8069" style="stroke:#008000;stroke-width:1;"/><path d="M63.68,319.2969 L63.68,495.2969 L423.68,495.2969 L423.68,329.2969 L413.68,319.2969 L63.68,319.2969" fill="#FEFFDD" style="stroke:#181818;stroke-width:0.5;"/><path d="M413.68,319.2969 L413.68,329.2969 L423.68,329.2969 L413.68,319.2969" fill="#FEFFDD" style="stroke:#181818;stroke-width:0.5;"/><text fill="#000000" font-family="sans-serif" font-size="13" font-weight="bold" lengthAdjust="spacing" textLength="58.9063" x="69.68" y="336.3638">Sistema</text><text fill="#000000" font-family="sans-serif" font-size="13" lengthAdjust="spacing" textLength="169.1714" x="132.7186" y="336.3638">presenta datos de edici&#243;n</text><text fill="#000000" font-family="sans-serif" font-size="13" lengthAdjust="spacing" textLength="4.1323" x="69.68" y="351.4966">&#160;</text><text fill="#000000" font-family="sans-serif" font-size="13" lengthAdjust="spacing" textLength="158.3105" x="69.68" y="366.6294">&#8226; Asignatura, Enunciado</text><text fill="#000000" font-family="sans-serif" font-size="13" lengthAdjust="spacing" textLength="170.3901" x="69.68" y="381.7622">&#8226; Tema, Dificultad (Enum)</text><text fill="#000000" font-family="sans-serif" font-size="13" lengthAdjust="spacing" textLength="339.0791" x="69.68" y="396.895">&#8226; Respuestas (contenido y si es correcta/incorrecta)</text><text fill="#000000" font-family="sans-serif" font-size="13" lengthAdjust="spacing" textLength="169.8887" x="69.68" y="412.0278">&#8226; Habilitada/deshabilitada</text><text fill="#000000" font-family="sans-serif" font-size="13" lengthAdjust="spacing" textLength="4.1323" x="69.68" y="427.1606">&#160;</text><text fill="#000000" font-family="sans-serif" font-size="13" font-weight="bold" lengthAdjust="spacing" textLength="58.9063" x="69.68" y="442.2935">Sistema</text><text fill="#000000" font-family="sans-serif" font-size="13" lengthAdjust="spacing" textLength="110.5952" x="132.7186" y="442.2935">permite solicitar:</text><text fill="#000000" font-family="sans-serif" font-size="13" lengthAdjust="spacing" textLength="127.8164" x="69.68" y="457.4263">&#8226; modificar campos</text><text fill="#000000" font-family="sans-serif" font-size="13" lengthAdjust="spacing" textLength="126.6865" x="69.68" y="472.5591">&#8226; guardar pregunta</text><text fill="#000000" font-family="sans-serif" font-size="13" lengthAdjust="spacing" textLength="118.168" x="69.68" y="487.6919">&#8226; cancelar edici&#243;n</text></g><!--link GuardandoDatos to EditandoDatos--><g class="link" data-entity-1="GuardandoDatos" data-entity-2="EditandoDatos" data-source-line="44" data-uid="lnk11" id="link_GuardandoDatos_EditandoDatos"><path d="M279.13,536.1869 C327.66,524.5369 428.68,500.2969 428.68,500.2969 C428.68,500.2969 428.68,314.2969 428.68,314.2969 C428.68,314.2969 333.4942,291.4574 284.9642,279.8074" fill="none" id="GuardandoDatos-to-EditandoDatos" style="stroke:#008000;stroke-width:1;"/><polygon fill="#008000" points="279.13,278.4069,286.9477,284.3972,283.9919,279.574,288.8151,276.6182,279.13,278.4069" style="stroke:#008000;stroke-width:1;"/><path d="M433.68,394.7969 L433.68,419.7969 L684.68,419.7969 L684.68,404.7969 L674.68,394.7969 L433.68,394.7969" fill="#FEFFDD" style="stroke:#181818;stroke-width:0.5;"/><path d="M674.68,394.7969 L674.68,404.7969 L684.68,404.7969 L674.68,394.7969" fill="#FEFFDD" style="stroke:#181818;stroke-width:0.5;"/><text fill="#000000" font-family="sans-serif" font-size="13" font-weight="bold" lengthAdjust="spacing" textLength="60.5313" x="439.68" y="411.8638">Docente</text><text fill="#000000" font-family="sans-serif" font-size="13" lengthAdjust="spacing" textLength="165.9214" x="504.3436" y="411.8638">solicita modificar campos</text></g><!--link GuardandoDatos to *end*editarPregunta--><g class="link" data-entity-1="GuardandoDatos" data-entity-2=".end.editarPregunta" data-source-line="49" data-uid="lnk13" id="link_GuardandoDatos_.end.editarPregunta"><path d="M228.31,552.4969 C190.47,564.7169 123.68,586.2969 123.68,586.2969 C123.68,586.2969 123.68,621.2969 123.68,621.2969 C123.68,621.2969 206.1246,639.0531 237.1746,645.7431" fill="none" id="GuardandoDatos-to-*end*editarPregunta" style="stroke:#008000;stroke-width:1;"/><polygon fill="#008000" points="243.04,647.0069,235.0844,641.201,238.1522,645.9537,233.3994,649.0215,243.04,647.0069" style="stroke:#008000;stroke-width:1;"/><path d="M128.68,591.2969 L128.68,616.2969 L358.68,616.2969 L358.68,601.2969 L348.68,591.2969 L128.68,591.2969" fill="#FEFFDD" style="stroke:#181818;stroke-width:0.5;"/><path d="M348.68,591.2969 L348.68,601.2969 L358.68,601.2969 L348.68,591.2969" fill="#FEFFDD" style="stroke:#181818;stroke-width:0.5;"/><text fill="#000000" font-family="sans-serif" font-size="13" font-weight="bold" lengthAdjust="spacing" textLength="60.5313" x="134.68" y="608.3638">Docente</text><text fill="#000000" font-family="sans-serif" font-size="13" lengthAdjust="spacing" textLength="144.5361" x="199.3436" y="608.3638">solicita guardar y salir</text></g><!--link GuardandoDatos to *end*editarPregunta--><g class="link" data-entity-1="GuardandoDatos" data-entity-2=".end.editarPregunta" data-source-line="54" data-uid="lnk14" id="link_GuardandoDatos_.end.editarPregunta"><path d="M278.92,553.9369 C311.39,566.3369 363.68,586.2969 363.68,586.2969 C363.68,586.2969 363.68,621.2969 363.68,621.2969 C363.68,621.2969 297.5745,638.1263 270.0445,645.1363" fill="none" id="GuardandoDatos-to-*end*editarPregunta-1" style="stroke:#FF0000;stroke-width:1;"/><polygon fill="#FF0000" points="264.23,646.6169,273.9387,648.2724,269.0754,645.3831,271.9647,640.5197,264.23,646.6169" style="stroke:#FF0000;stroke-width:1;"/><path d="M368.68,591.2969 L368.68,616.2969 L609.68,616.2969 L609.68,601.2969 L599.68,591.2969 L368.68,591.2969" fill="#FEFFDD" style="stroke:#181818;stroke-width:0.5;"/><path d="M599.68,591.2969 L599.68,601.2969 L609.68,601.2969 L599.68,591.2969" fill="#FEFFDD" style="stroke:#181818;stroke-width:0.5;"/><text fill="#000000" font-family="sans-serif" font-size="13" font-weight="bold" lengthAdjust="spacing" textLength="60.5313" x="374.68" y="608.3638">Docente</text><text fill="#000000" font-family="sans-serif" font-size="13" lengthAdjust="spacing" textLength="156.2729" x="439.3436" y="608.3638">solicita cancelar edici&#243;n</text></g><!--link RESPUESTAS_ABIERTO to editarPregunta--><g class="link" data-entity-1="RESPUESTAS_ABIERTO" data-entity-2="editarPregunta" data-source-line="12" data-uid="lnk2" id="link_RESPUESTAS_ABIERTO_editarPregunta"><path d="M115.08,57.23 C126.48,72.23 138.8198,88.4728 157.2698,112.7528" fill="none" id="RESPUESTAS_ABIERTO-to-editarPregunta" style="stroke:#008000;stroke-width:1;"/><polygon fill="#008000" points="160.9,117.53,158.6396,107.944,157.8749,113.549,152.2699,112.7842,160.9,117.53" style="stroke:#008000;stroke-width:1;"/></g><!--link RESPUESTAS_CONTEXTUALES_ABIERTO to editarPregunta--><g class="link" data-entity-1="RESPUESTAS_CONTEXTUALES_ABIERTO" data-entity-2="editarPregunta" data-source-line="13" data-uid="lnk3" id="link_RESPUESTAS_CONTEXTUALES_ABIERTO_editarPregunta"><path d="M370.68,57.23 C370.68,72.23 370.68,87.25 370.68,111.53" fill="none" id="RESPUESTAS_CONTEXTUALES_ABIERTO-to-editarPregunta" style="stroke:#008000;stroke-width:1;"/><polygon fill="#008000" points="370.68,117.53,374.68,108.53,370.68,112.53,366.68,108.53,370.68,117.53" style="stroke:#008000;stroke-width:1;"/></g><!--link PREGUNTAS_ABIERTO to editarPregunta--><g class="link" data-entity-1="PREGUNTAS_ABIERTO" data-entity-2="editarPregunta" data-source-line="14" data-uid="lnk4" id="link_PREGUNTAS_ABIERTO_editarPregunta"><path d="M203.74,747.83 C225.97,733.54 249.68,718.3 249.68,718.3 C249.68,718.3 254.4928,705.4478 265.0328,677.3478" fill="none" id="PREGUNTAS_ABIERTO-to-editarPregunta" style="stroke:#008000;stroke-width:1;"/><polygon fill="#008000" points="267.14,671.73,260.234,678.7519,265.384,676.4115,267.7244,681.5615,267.14,671.73" style="stroke:#008000;stroke-width:1;"/></g><!--link editarPregunta to PREGUNTAS_ABIERTO--><g class="link" data-entity-1="editarPregunta" data-entity-2="PREGUNTAS_ABIERTO" data-source-line="69" data-uid="lnk17" id="link_editarPregunta_PREGUNTAS_ABIERTO"><path d="M200.87,671.72 C189.63,689.99 182.68,701.3 182.68,701.3 C182.68,701.3 177.835,721.4944 172.925,742.0344" fill="none" id="editarPregunta-to-PREGUNTAS_ABIERTO" style="stroke:#FF0000;stroke-width:1;"/><polygon fill="#FF0000" points="171.53,747.87,177.5128,740.0466,172.6925,743.007,169.7321,738.1866,171.53,747.87" style="stroke:#FF0000;stroke-width:1;"/><text fill="#000000" font-family="sans-serif" font-size="13" lengthAdjust="spacing" textLength="57.3511" x="183.68" y="714.3669">Cancelar</text></g><!--link PREGUNTAS_CONTEXTUALES_ABIERTO to editarPregunta--><g class="link" data-entity-1="PREGUNTAS_CONTEXTUALES_ABIERTO" data-entity-2="editarPregunta" data-source-line="15" data-uid="lnk5" id="link_PREGUNTAS_CONTEXTUALES_ABIERTO_editarPregunta"><path d="M679.44,57.23 C665.67,72.23 650.4367,88.8292 628.1567,113.1092" fill="none" id="PREGUNTAS_CONTEXTUALES_ABIERTO-to-editarPregunta" style="stroke:#008000;stroke-width:1;"/><polygon fill="#008000" points="624.1,117.53,633.1322,113.6032,627.4805,113.846,627.2378,108.1944,624.1,117.53" style="stroke:#008000;stroke-width:1;"/></g><!--link PREGUNTA_ABIERTO to editarPregunta--><g class="link" data-entity-1="PREGUNTA_ABIERTO" data-entity-2="editarPregunta" data-source-line="16" data-uid="lnk6" id="link_PREGUNTA_ABIERTO_editarPregunta"><path d="M377.76,747.86 C380.05,729.63 381.5261,708.5465 382.5861,677.3665" fill="none" id="PREGUNTA_ABIERTO-to-editarPregunta" style="stroke:#008000;stroke-width:1;"/><polygon fill="#008000" points="382.79,671.37,378.4865,680.2289,382.6201,676.3671,386.4819,680.5007,382.79,671.37" style="stroke:#008000;stroke-width:1;"/></g><!--link editarPregunta to PREGUNTA_ABIERTO--><g class="link" data-entity-1="editarPregunta" data-entity-2="PREGUNTA_ABIERTO" data-source-line="62" data-uid="lnk15" id="link_editarPregunta_PREGUNTA_ABIERTO"><path d="M359.23,671.37 C360.24,702.55 361.1108,723.6721 363.2808,741.9021" fill="none" id="editarPregunta-to-PREGUNTA_ABIERTO" style="stroke:#008000;stroke-width:1;"/><polygon fill="#008000" points="363.99,747.86,366.8982,738.4503,363.399,742.8951,358.9542,739.3959,363.99,747.86" style="stroke:#008000;stroke-width:1;"/></g><!--link PREGUNTA_CONTEXTUAL_ABIERTO to editarPregunta--><g class="link" data-entity-1="PREGUNTA_CONTEXTUAL_ABIERTO" data-entity-2="editarPregunta" data-source-line="17" data-uid="lnk7" id="link_PREGUNTA_CONTEXTUAL_ABIERTO_editarPregunta"><path d="M612.48,747.86 C602.61,729.63 589.4571,707.6209 569.7371,676.4409" fill="none" id="PREGUNTA_CONTEXTUAL_ABIERTO-to-editarPregunta" style="stroke:#008000;stroke-width:1;"/><polygon fill="#008000" points="566.53,671.37,567.9601,681.1145,569.2026,675.5958,574.7213,676.8383,566.53,671.37" style="stroke:#008000;stroke-width:1;"/></g><!--link editarPregunta to PREGUNTA_CONTEXTUAL_ABIERTO--><g class="link" data-entity-1="editarPregunta" data-entity-2="PREGUNTA_CONTEXTUAL_ABIERTO" data-source-line="65" data-uid="lnk16" id="link_editarPregunta_PREGUNTA_CONTEXTUAL_ABIERTO"><path d="M542.97,671.37 C564.76,702.55 580.6852,724.9104 594.9952,743.1404" fill="none" id="editarPregunta-to-PREGUNTA_CONTEXTUAL_ABIERTO" style="stroke:#008000;stroke-width:1;"/><polygon fill="#008000" points="598.7,747.86,596.2893,738.3107,595.6127,743.927,589.9965,743.2504,598.7,747.86" style="stroke:#008000;stroke-width:1;"/></g><!--SRC=[dLLTQjj047xNAORqeNP9Ojg-cM1G8v46Wcqi6GeXbB5suYoHTiMk33MbqBFq2Zr2RzAJT5QsvCYoNJkIaRmx_zz-CxBFKkLeC8DKAYgMEK6kqwLRUDvRU7y90JrA9HFvvxS2GP1g2sGB5ExzhI2ZjFLuNH1CmcWy3QFOZxxwdsx3IJng2wv7mpZy4a_zkt1RQpm9RwR3jlLc_mZZVTiRqrg3o_jm2R51PRayhSX2448uZ2T-uCCJ9XA1X2pGZ0tD5wf0hrqXNDo_cHiYzN0nEA2zA_D3fYqiZbD-RPYJTDjG7Z9R7qHp5z32MNEhqps3xvu7VAqiplXcjT1fAQ43B9XeBV7D0esevR1oSF_keP5ImmUKAagp3wqSwv_BZQlP8D09gOAkUhC1M9qoAOgA0QKAAR6ouykh7qtdByCsSziRDfAse0pBiBaXImuWKNeJ9N1bxsq2_ltv2tmhvmgBXS5p2DL2CLU5hgKnkpk7G3xAP95ogqA7TR9kBP-GpHUkYIrq4iqbAoaqBC5ARcr8j36K5DYJglgxCVsCCvbomG9xWknJlV9sLaCcarnm1QRfrtuoBLnwQ231B5-ZumJp4ZJZa5WHg18ag19AMT90f3gJ3JnRZDZBWzDei3FVau8pAKyBMI71vuAfR5BGsnFDa7XLhF-0-yCDou_jOHdvTxSyAva9WbgDlzNoBx5eJUlZj7SDSKuiOdW4kcPPbx7wM7L6kSiKqpwmLsui7ZkGyeyPokYI8eCfQ70F8tdTtP746j3sFEx3zHgpVm00]--></g></svg>