<svg xmlns="http://www.w3.org/2000/svg" xmlns:xlink="http://www.w3.org/1999/xlink" contentStyleType="text/css" data-diagram-type="STATE" height="819px" preserveAspectRatio="none" style="width:1566px;height:819px;background:#FFFFFF;" version="1.1" viewBox="0 0 1566 819" width="1566px" zoomAndPan="magnify"><defs/><g><g id="RESPUESTAS_ABIERTO"><rect fill="#F1F1F1" height="50" rx="12.5" ry="12.5" style="stroke:#181818;stroke-width:0.5;" width="179.3525" x="7" y="7"/><line style="stroke:#181818;stroke-width:0.5;" x1="7" x2="186.3525" y1="33.2969" y2="33.2969"/><text fill="#000000" font-family="sans-serif" font-size="14" lengthAdjust="spacing" textLength="159.3525" x="17" y="24.9951">RESPUESTAS_ABIERTO</text></g><g id="RESPUESTAS_CONTEXTUALES_ABIERTO"><rect fill="#F1F1F1" height="50" rx="12.5" ry="12.5" style="stroke:#181818;stroke-width:0.5;" width="298.5166" x="221" y="7"/><line style="stroke:#181818;stroke-width:0.5;" x1="221" x2="519.5166" y1="33.2969" y2="33.2969"/><text fill="#000000" font-family="sans-serif" font-size="14" lengthAdjust="spacing" textLength="278.5166" x="231" y="24.9951">RESPUESTAS_CONTEXTUALES_ABIERTO</text></g><g id="PREGUNTAS_ABIERTO"><rect fill="#F1F1F1" height="50" rx="12.5" ry="12.5" style="stroke:#181818;stroke-width:0.5;" width="174.0547" x="555.5" y="7"/><line style="stroke:#181818;stroke-width:0.5;" x1="555.5" x2="729.5547" y1="33.2969" y2="33.2969"/><text fill="#000000" font-family="sans-serif" font-size="14" lengthAdjust="spacing" textLength="154.0547" x="565.5" y="24.9951">PREGUNTAS_ABIERTO</text></g><g id="PREGUNTAS_CONTEXTUALES_ABIERTO"><rect fill="#F1F1F1" height="50" rx="12.5" ry="12.5" style="stroke:#181818;stroke-width:0.5;" width="293.2188" x="765" y="7"/><line style="stroke:#181818;stroke-width:0.5;" x1="765" x2="1058.2188" y1="33.2969" y2="33.2969"/><text fill="#000000" font-family="sans-serif" font-size="14" lengthAdjust="spacing" textLength="273.2188" x="775" y="24.9951">PREGUNTAS_CONTEXTUALES_ABIERTO</text></g><g id="PREGUNTA_ABIERTO"><rect fill="#F1F1F1" height="50" rx="12.5" ry="12.5" style="stroke:#181818;stroke-width:0.5;" width="165.168" x="1093" y="7"/><line style="stroke:#181818;stroke-width:0.5;" x1="1093" x2="1258.168" y1="33.2969" y2="33.2969"/><text fill="#000000" font-family="sans-serif" font-size="14" lengthAdjust="spacing" textLength="145.168" x="1103" y="24.9951">PREGUNTA_ABIERTO</text></g><g id="PREGUNTA_CONTEXTUAL_ABIERTO"><rect fill="#F1F1F1" height="50" rx="12.5" ry="12.5" style="stroke:#181818;stroke-width:0.5;" width="266.5996" x="1293" y="7"/><line style="stroke:#181818;stroke-width:0.5;" x1="1293" x2="1559.5996" y1="33.2969" y2="33.2969"/><text fill="#000000" font-family="sans-serif" font-size="14" lengthAdjust="spacing" textLength="246.5996" x="1303" y="24.9951">PREGUNTA_CONTEXTUAL_ABIERTO</text></g><g id="PREGUNTAS_ABIERTO2"><rect fill="#F1F1F1" height="50" rx="12.5" ry="12.5" style="stroke:#181818;stroke-width:0.5;" width="174.0547" x="31.5" y="763"/><line style="stroke:#181818;stroke-width:0.5;" x1="31.5" x2="205.5547" y1="789.2969" y2="789.2969"/><text fill="#000000" font-family="sans-serif" font-size="14" lengthAdjust="spacing" textLength="154.0547" x="41.5" y="780.9951">PREGUNTAS_ABIERTO</text></g><g id="PREGUNTAS_CONTEXTUALES_ABIERTO2"><rect fill="#F1F1F1" height="50" rx="12.5" ry="12.5" style="stroke:#181818;stroke-width:0.5;" width="293.2188" x="241" y="763"/><line style="stroke:#181818;stroke-width:0.5;" x1="241" x2="534.2188" y1="789.2969" y2="789.2969"/><text fill="#000000" font-family="sans-serif" font-size="14" lengthAdjust="spacing" textLength="273.2188" x="251" y="780.9951">PREGUNTAS_CONTEXTUALES_ABIERTO</text></g><g id="PREGUNTA_ABIERTO2"><rect fill="#F1F1F1" height="50" rx="12.5" ry="12.5" style="stroke:#181818;stroke-width:0.5;" width="165.168" x="569" y="763"/><line style="stroke:#181818;stroke-width:0.5;" x1="569" x2="734.168" y1="789.2969" y2="789.2969"/><text fill="#000000" font-family="sans-serif" font-size="14" lengthAdjust="spacing" textLength="145.168" x="579" y="780.9951">PREGUNTA_ABIERTO</text></g><g id="PREGUNTA_CONTEXTUAL_ABIERTO2"><rect fill="#F1F1F1" height="50" rx="12.5" ry="12.5" style="stroke:#181818;stroke-width:0.5;" width="266.5996" x="769" y="763"/><line style="stroke:#181818;stroke-width:0.5;" x1="769" x2="1035.5996" y1="789.2969" y2="789.2969"/><text fill="#000000" font-family="sans-serif" font-size="14" lengthAdjust="spacing" textLength="246.5996" x="779" y="780.9951">PREGUNTA_CONTEXTUAL_ABIERTO</text></g><g id="PREGUNTA_ABIERTO3"><rect fill="#F1F1F1" height="50" rx="12.5" ry="12.5" style="stroke:#181818;stroke-width:0.5;" width="165.168" x="1071" y="763"/><line style="stroke:#181818;stroke-width:0.5;" x1="1071" x2="1236.168" y1="789.2969" y2="789.2969"/><text fill="#000000" font-family="sans-serif" font-size="14" lengthAdjust="spacing" textLength="145.168" x="1081" y="780.9951">PREGUNTA_ABIERTO</text></g><g id="PREGUNTAS_CONTEXTUALES_ABIERTO3"><rect fill="#F1F1F1" height="50" rx="12.5" ry="12.5" style="stroke:#181818;stroke-width:0.5;" width="266.5996" x="1271" y="763"/><line style="stroke:#181818;stroke-width:0.5;" x1="1271" x2="1537.5996" y1="789.2969" y2="789.2969"/><text fill="#000000" font-family="sans-serif" font-size="14" lengthAdjust="spacing" textLength="246.5996" x="1281" y="780.9951">PREGUNTA_CONTEXTUAL_ABIERTO</text></g><path d="M425.5,118 L1127.5,118 A12.5,12.5 0 0 1 1140,130.5 L1140,144.2969 L413,144.2969 L413,130.5 A12.5,12.5 0 0 1 425.5,118" fill="#F1F1F1"/><rect fill="none" height="568.2969" rx="12.5" ry="12.5" style="stroke:#181818;stroke-width:0.5;" width="727" x="413" y="118"/><line style="stroke:#181818;stroke-width:0.5;" x1="413" x2="1140" y1="144.2969" y2="144.2969"/><text fill="#000000" font-family="sans-serif" font-size="14" lengthAdjust="spacing" textLength="115.6504" x="718.6748" y="135.9951">editarPregunta()</text><g id="editarPregunta.EditandoDatos"><rect fill="#F1F1F1" height="50" rx="12.5" ry="12.5" style="stroke:#181818;stroke-width:0.5;" width="50" x="661" y="246.2969"/><line style="stroke:#181818;stroke-width:0.5;" x1="661" x2="711" y1="272.5938" y2="272.5938"/><text fill="#000000" font-family="sans-serif" font-size="14" lengthAdjust="spacing" textLength="4.4502" x="683.7749" y="264.292">&#160;</text></g><g id="editarPregunta.GuardandoDatos"><rect fill="#F1F1F1" height="50" rx="12.5" ry="12.5" style="stroke:#181818;stroke-width:0.5;" width="50" x="661" y="533.2969"/><line style="stroke:#181818;stroke-width:0.5;" x1="661" x2="711" y1="559.5938" y2="559.5938"/><text fill="#000000" font-family="sans-serif" font-size="14" lengthAdjust="spacing" textLength="4.4502" x="683.7749" y="551.292">&#160;</text></g><ellipse cx="686" cy="165.2969" fill="#222222" rx="10" ry="10" style="stroke:#222222;stroke-width:1;"/><ellipse cx="686" cy="665.2969" fill="none" rx="11" ry="11" style="stroke:#222222;stroke-width:1;"/><ellipse cx="686" cy="665.2969" fill="#222222" rx="6" ry="6" style="stroke:#222222;stroke-width:1;"/><!--link *start*editarPregunta to EditandoDatos--><g class="link" data-entity-1=".start.editarPregunta" data-entity-2="EditandoDatos" data-source-line="28" data-uid="lnk9" id="link_.start.editarPregunta_EditandoDatos"><path d="M686,175.5269 C686,191.2369 686,217.6569 686,240.1669" fill="none" id="*start*editarPregunta-to-EditandoDatos" style="stroke:#008000;stroke-width:1;"/><polygon fill="#008000" points="686,246.1669,690,237.1669,686,241.1669,682,237.1669,686,246.1669" style="stroke:#008000;stroke-width:1;"/><path d="M691,198.2969 L691,223.2969 L864,223.2969 L864,208.2969 L854,198.2969 L691,198.2969" fill="#FEFFDD" style="stroke:#181818;stroke-width:0.5;"/><path d="M854,198.2969 L854,208.2969 L864,208.2969 L854,198.2969" fill="#FEFFDD" style="stroke:#181818;stroke-width:0.5;"/><text fill="#000000" font-family="sans-serif" font-size="13" font-weight="bold" lengthAdjust="spacing" textLength="60.5313" x="697" y="215.3638">Docente</text><text fill="#000000" font-family="sans-serif" font-size="13" lengthAdjust="spacing" textLength="88.1753" x="761.6636" y="215.3638">solicita editar</text></g><!--link EditandoDatos to GuardandoDatos--><g class="link" data-entity-1="EditandoDatos" data-entity-2="GuardandoDatos" data-source-line="33" data-uid="lnk10" id="link_EditandoDatos_GuardandoDatos"><path d="M660.91,277.6969 C608.24,289.0469 491,314.2969 491,314.2969 C491,314.2969 491,515.2969 491,515.2969 C491,515.2969 602.3746,539.2829 655.0446,550.6329" fill="none" id="EditandoDatos-to-GuardandoDatos" style="stroke:#008000;stroke-width:1;"/><polygon fill="#008000" points="660.91,551.8969,652.9546,546.0907,656.0222,550.8436,651.2693,553.9112,660.91,551.8969" style="stroke:#008000;stroke-width:1;"/><path d="M496,319.2969 L496,510.2969 L856,510.2969 L856,329.2969 L846,319.2969 L496,319.2969" fill="#FEFFDD" style="stroke:#181818;stroke-width:0.5;"/><path d="M846,319.2969 L846,329.2969 L856,329.2969 L846,319.2969" fill="#FEFFDD" style="stroke:#181818;stroke-width:0.5;"/><text fill="#000000" font-family="sans-serif" font-size="13" font-weight="bold" lengthAdjust="spacing" textLength="58.9063" x="502" y="336.3638">Sistema</text><text fill="#000000" font-family="sans-serif" font-size="13" lengthAdjust="spacing" textLength="169.1714" x="565.0386" y="336.3638">presenta datos de edici&#243;n</text><text fill="#000000" font-family="sans-serif" font-size="13" lengthAdjust="spacing" textLength="4.1323" x="502" y="351.4966">&#160;</text><text fill="#000000" font-family="sans-serif" font-size="13" lengthAdjust="spacing" textLength="158.3105" x="502" y="366.6294">&#8226; Asignatura, Enunciado</text><text fill="#000000" font-family="sans-serif" font-size="13" lengthAdjust="spacing" textLength="170.3901" x="502" y="381.7622">&#8226; Tema, Dificultad (Enum)</text><text fill="#000000" font-family="sans-serif" font-size="13" lengthAdjust="spacing" textLength="339.0791" x="502" y="396.895">&#8226; Respuestas (contenido y si es correcta/incorrecta)</text><text fill="#000000" font-family="sans-serif" font-size="13" lengthAdjust="spacing" textLength="169.8887" x="502" y="412.0278">&#8226; Habilitada/deshabilitada</text><text fill="#000000" font-family="sans-serif" font-size="13" lengthAdjust="spacing" textLength="4.1323" x="502" y="427.1606">&#160;</text><text fill="#000000" font-family="sans-serif" font-size="13" font-weight="bold" lengthAdjust="spacing" textLength="58.9063" x="502" y="442.2935">Sistema</text><text fill="#000000" font-family="sans-serif" font-size="13" lengthAdjust="spacing" textLength="110.5952" x="565.0386" y="442.2935">permite solicitar:</text><text fill="#000000" font-family="sans-serif" font-size="13" lengthAdjust="spacing" textLength="127.8164" x="502" y="457.4263">&#8226; modificar campos</text><text fill="#000000" font-family="sans-serif" font-size="13" lengthAdjust="spacing" textLength="126.6865" x="502" y="472.5591">&#8226; guardar pregunta</text><text fill="#000000" font-family="sans-serif" font-size="13" lengthAdjust="spacing" textLength="118.168" x="502" y="487.6919">&#8226; cancelar edici&#243;n</text><text fill="#000000" font-family="sans-serif" font-size="13" lengthAdjust="spacing" textLength="64.8477" x="502" y="502.8247">&#8226; eliminar</text></g><!--link GuardandoDatos to EditandoDatos--><g class="link" data-entity-1="GuardandoDatos" data-entity-2="EditandoDatos" data-source-line="49" data-uid="lnk11" id="link_GuardandoDatos_EditandoDatos"><path d="M711.07,551.2769 C759.46,539.6669 861,515.2969 861,515.2969 C861,515.2969 861,314.2969 861,314.2969 C861,314.2969 765.2944,291.3267 716.9044,279.7167" fill="none" id="GuardandoDatos-to-EditandoDatos" style="stroke:#008000;stroke-width:1;"/><polygon fill="#008000" points="711.07,278.3169,718.8884,284.3062,715.932,279.4834,720.7549,276.527,711.07,278.3169" style="stroke:#008000;stroke-width:1;"/><path d="M866,402.2969 L866,427.2969 L1117,427.2969 L1117,412.2969 L1107,402.2969 L866,402.2969" fill="#FEFFDD" style="stroke:#181818;stroke-width:0.5;"/><path d="M1107,402.2969 L1107,412.2969 L1117,412.2969 L1107,402.2969" fill="#FEFFDD" style="stroke:#181818;stroke-width:0.5;"/><text fill="#000000" font-family="sans-serif" font-size="13" font-weight="bold" lengthAdjust="spacing" textLength="60.5313" x="872" y="419.3638">Docente</text><text fill="#000000" font-family="sans-serif" font-size="13" lengthAdjust="spacing" textLength="165.9214" x="936.6636" y="419.3638">solicita modificar campos</text></g><!--link GuardandoDatos to *end*editarPregunta--><g class="link" data-entity-1="GuardandoDatos" data-entity-2=".end.editarPregunta" data-source-line="54" data-uid="lnk13" id="link_GuardandoDatos_.end.editarPregunta"><path d="M660.88,563.3269 C595.3,573.8369 424,601.2969 424,601.2969 C424,601.2969 424,636.2969 424,636.2969 C424,636.2969 619.524,657.1892 669.114,662.4892" fill="none" id="GuardandoDatos-to-*end*editarPregunta" style="stroke:#008000;stroke-width:1;"/><polygon fill="#008000" points="675.08,663.1269,666.556,658.1931,670.1083,662.5955,665.7059,666.1478,675.08,663.1269" style="stroke:#008000;stroke-width:1;"/><path d="M429,606.2969 L429,631.2969 L659,631.2969 L659,616.2969 L649,606.2969 L429,606.2969" fill="#FEFFDD" style="stroke:#181818;stroke-width:0.5;"/><path d="M649,606.2969 L649,616.2969 L659,616.2969 L649,606.2969" fill="#FEFFDD" style="stroke:#181818;stroke-width:0.5;"/><text fill="#000000" font-family="sans-serif" font-size="13" font-weight="bold" lengthAdjust="spacing" textLength="60.5313" x="435" y="623.3638">Docente</text><text fill="#000000" font-family="sans-serif" font-size="13" lengthAdjust="spacing" textLength="144.5361" x="499.6636" y="623.3638">solicita guardar y salir</text></g><!--link GuardandoDatos to *end*editarPregunta--><g class="link" data-entity-1="GuardandoDatos" data-entity-2=".end.editarPregunta" data-source-line="59" data-uid="lnk14" id="link_GuardandoDatos_.end.editarPregunta"><path d="M686,583.3869 C686,605.7869 686,632.0669 686,648.2469" fill="none" id="GuardandoDatos-to-*end*editarPregunta-1" style="stroke:#FF0000;stroke-width:1;"/><polygon fill="#FF0000" points="686,654.2469,690,645.2469,686,649.2469,682,645.2469,686,654.2469" style="stroke:#FF0000;stroke-width:1;"/><path d="M691,606.2969 L691,631.2969 L932,631.2969 L932,616.2969 L922,606.2969 L691,606.2969" fill="#FEFFDD" style="stroke:#181818;stroke-width:0.5;"/><path d="M922,606.2969 L922,616.2969 L932,616.2969 L922,606.2969" fill="#FEFFDD" style="stroke:#181818;stroke-width:0.5;"/><text fill="#000000" font-family="sans-serif" font-size="13" font-weight="bold" lengthAdjust="spacing" textLength="60.5313" x="697" y="623.3638">Docente</text><text fill="#000000" font-family="sans-serif" font-size="13" lengthAdjust="spacing" textLength="156.2729" x="761.6636" y="623.3638">solicita cancelar edici&#243;n</text></g><!--link GuardandoDatos to *end*editarPregunta--><g class="link" data-entity-1="GuardandoDatos" data-entity-2=".end.editarPregunta" data-source-line="64" data-uid="lnk15" id="link_GuardandoDatos_.end.editarPregunta"><path d="M711.08,563.4769 C774.82,574.0969 938,601.2969 938,601.2969 C938,601.2969 938,636.2969 938,636.2969 C938,636.2969 751.0233,657.0742 702.7933,662.4342" fill="none" id="GuardandoDatos-to-*end*editarPregunta-2" style="stroke:#0000FF;stroke-width:1;"/><polygon fill="#0000FF" points="696.83,663.0969,706.2167,666.0783,701.7994,662.5446,705.3331,658.1273,696.83,663.0969" style="stroke:#0000FF;stroke-width:1;"/><path d="M943,606.2969 L943,631.2969 L1131,631.2969 L1131,616.2969 L1121,606.2969 L943,606.2969" fill="#FEFFDD" style="stroke:#181818;stroke-width:0.5;"/><path d="M1121,606.2969 L1121,616.2969 L1131,616.2969 L1121,606.2969" fill="#FEFFDD" style="stroke:#181818;stroke-width:0.5;"/><text fill="#000000" font-family="sans-serif" font-size="13" font-weight="bold" lengthAdjust="spacing" textLength="60.5313" x="949" y="623.3638">Docente</text><text fill="#000000" font-family="sans-serif" font-size="13" lengthAdjust="spacing" textLength="102.9526" x="1013.6636" y="623.3638">solicita eliminar</text></g><!--link RESPUESTAS_ABIERTO to editarPregunta--><g class="link" data-entity-1="RESPUESTAS_ABIERTO" data-entity-2="editarPregunta" data-source-line="16" data-uid="lnk2" id="link_RESPUESTAS_ABIERTO_editarPregunta"><path d="M140.85,57 C198.28,88.08 298.7131,142.4343 407.6631,201.3943" fill="none" id="RESPUESTAS_ABIERTO-to-editarPregunta" style="stroke:#008000;stroke-width:1;"/><polygon fill="#008000" points="412.94,204.25,406.9285,196.4486,408.5426,201.8703,403.1209,203.4844,412.94,204.25" style="stroke:#008000;stroke-width:1;"/></g><!--link RESPUESTAS_CONTEXTUALES_ABIERTO to editarPregunta--><g class="link" data-entity-1="RESPUESTAS_CONTEXTUALES_ABIERTO" data-entity-2="editarPregunta" data-source-line="17" data-uid="lnk3" id="link_RESPUESTAS_CONTEXTUALES_ABIERTO_editarPregunta"><path d="M397.14,57.15 C413.72,72.18 432.5547,89.2502 459.5147,113.6902" fill="none" id="RESPUESTAS_CONTEXTUALES_ABIERTO-to-editarPregunta" style="stroke:#008000;stroke-width:1;"/><polygon fill="#008000" points="463.96,117.72,459.9786,108.7118,460.2556,114.3618,454.6055,114.6388,463.96,117.72" style="stroke:#008000;stroke-width:1;"/></g><!--link PREGUNTAS_ABIERTO to editarPregunta--><g class="link" data-entity-1="PREGUNTAS_ABIERTO" data-entity-2="editarPregunta" data-source-line="18" data-uid="lnk4" id="link_PREGUNTAS_ABIERTO_editarPregunta"><path d="M651.29,57.15 C656.77,72.18 662.3969,87.6422 671.2969,112.0822" fill="none" id="PREGUNTAS_ABIERTO-to-editarPregunta" style="stroke:#008000;stroke-width:1;"/><polygon fill="#008000" points="673.35,117.72,674.029,107.8946,671.6391,113.0218,666.5119,110.632,673.35,117.72" style="stroke:#008000;stroke-width:1;"/></g><!--link PREGUNTAS_CONTEXTUALES_ABIERTO to editarPregunta--><g class="link" data-entity-1="PREGUNTAS_CONTEXTUALES_ABIERTO" data-entity-2="editarPregunta" data-source-line="19" data-uid="lnk5" id="link_PREGUNTAS_CONTEXTUALES_ABIERTO_editarPregunta"><path d="M902.64,57.15 C897.13,72.18 891.4573,87.6474 882.4873,112.0874" fill="none" id="PREGUNTAS_CONTEXTUALES_ABIERTO-to-editarPregunta" style="stroke:#008000;stroke-width:1;"/><polygon fill="#008000" points="880.42,117.72,887.276,110.6493,882.1427,113.0262,879.7659,107.8929,880.42,117.72" style="stroke:#008000;stroke-width:1;"/></g><!--link PREGUNTA_ABIERTO to editarPregunta--><g class="link" data-entity-1="PREGUNTA_ABIERTO" data-entity-2="editarPregunta" data-source-line="20" data-uid="lnk6" id="link_PREGUNTA_ABIERTO_editarPregunta"><path d="M1149.32,57.15 C1133.02,72.18 1114.5498,89.2114 1088.0598,113.6514" fill="none" id="PREGUNTA_ABIERTO-to-editarPregunta" style="stroke:#008000;stroke-width:1;"/><polygon fill="#008000" points="1083.65,117.72,1092.9771,114.557,1087.3249,114.3295,1087.5524,108.6772,1083.65,117.72" style="stroke:#008000;stroke-width:1;"/></g><!--link PREGUNTA_CONTEXTUAL_ABIERTO to editarPregunta--><g class="link" data-entity-1="PREGUNTA_CONTEXTUAL_ABIERTO" data-entity-2="editarPregunta" data-source-line="21" data-uid="lnk7" id="link_PREGUNTA_CONTEXTUAL_ABIERTO_editarPregunta"><path d="M1383.85,57.15 C1331.74,86.65 1243.5413,136.584 1145.3513,192.174" fill="none" id="PREGUNTA_CONTEXTUAL_ABIERTO-to-editarPregunta" style="stroke:#008000;stroke-width:1;"/><polygon fill="#008000" points="1140.13,195.13,1149.9326,194.1768,1144.4811,192.6666,1145.9913,187.2151,1140.13,195.13" style="stroke:#008000;stroke-width:1;"/></g><!--link editarPregunta to PREGUNTA_ABIERTO2--><g class="link" data-entity-1="editarPregunta" data-entity-2="PREGUNTA_ABIERTO2" data-source-line="72" data-uid="lnk16" id="link_editarPregunta_PREGUNTA_ABIERTO2"><path d="M684.34,686.11 C674.17,717.36 667.2188,738.7152 661.2888,756.9152" fill="none" id="editarPregunta-to-PREGUNTA_ABIERTO2" style="stroke:#008000;stroke-width:1;"/><polygon fill="#008000" points="659.43,762.62,666.0214,755.3019,660.979,757.866,658.4149,752.8236,659.43,762.62" style="stroke:#008000;stroke-width:1;"/></g><!--link editarPregunta to PREGUNTA_CONTEXTUAL_ABIERTO2--><g class="link" data-entity-1="editarPregunta" data-entity-2="PREGUNTA_CONTEXTUAL_ABIERTO2" data-source-line="75" data-uid="lnk17" id="link_editarPregunta_PREGUNTA_CONTEXTUAL_ABIERTO2"><path d="M869.39,686.11 C879.65,717.36 886.6599,738.7189 892.6299,756.9189" fill="none" id="editarPregunta-to-PREGUNTA_CONTEXTUAL_ABIERTO2" style="stroke:#008000;stroke-width:1;"/><polygon fill="#008000" points="894.5,762.62,895.4956,752.8216,892.9416,757.8691,887.8941,755.3151,894.5,762.62" style="stroke:#008000;stroke-width:1;"/></g><!--link editarPregunta to PREGUNTAS_ABIERTO2--><g class="link" data-entity-1="editarPregunta" data-entity-2="PREGUNTAS_ABIERTO2" data-source-line="79" data-uid="lnk18" id="link_editarPregunta_PREGUNTAS_ABIERTO2"><path d="M412.86,615.22 C310.61,674.89 218.0624,728.8962 164.9324,759.8962" fill="none" id="editarPregunta-to-PREGUNTAS_ABIERTO2" style="stroke:#FF0000;stroke-width:1;"/><polygon fill="#FF0000" points="159.75,762.92,169.5394,761.8392,164.0686,760.4002,165.5077,754.9294,159.75,762.92" style="stroke:#FF0000;stroke-width:1;"/><text fill="#000000" font-family="sans-serif" font-size="13" lengthAdjust="spacing" textLength="57.3511" x="230.5" y="729.0669">Cancelar</text></g><!--link editarPregunta to PREGUNTAS_CONTEXTUALES_ABIERTO2--><g class="link" data-entity-1="editarPregunta" data-entity-2="PREGUNTAS_CONTEXTUALES_ABIERTO2" data-source-line="81" data-uid="lnk19" id="link_editarPregunta_PREGUNTAS_CONTEXTUALES_ABIERTO2"><path d="M489.71,686.11 C458.05,717.36 434.9115,740.2064 416.4615,758.4064" fill="none" id="editarPregunta-to-PREGUNTAS_CONTEXTUALES_ABIERTO2" style="stroke:#FF0000;stroke-width:1;"/><polygon fill="#FF0000" points="412.19,762.62,421.4063,759.1473,415.7496,759.1087,415.7882,753.4519,412.19,762.62" style="stroke:#FF0000;stroke-width:1;"/><text fill="#000000" font-family="sans-serif" font-size="13" lengthAdjust="spacing" textLength="57.3511" x="454.5" y="729.0669">Cancelar</text></g><!--link editarPregunta to PREGUNTAS_CONTEXTUALES_ABIERTO3--><g class="link" data-entity-1="editarPregunta" data-entity-2="PREGUNTAS_CONTEXTUALES_ABIERTO3" data-source-line="83" data-uid="lnk20" id="link_editarPregunta_PREGUNTAS_CONTEXTUALES_ABIERTO3"><path d="M1140.45,625.54 C1231.74,681.36 1312.131,730.5201 1359.921,759.7401" fill="none" id="editarPregunta-to-PREGUNTAS_CONTEXTUALES_ABIERTO3" style="stroke:#0000FF;stroke-width:1;"/><polygon fill="#0000FF" points="1365.04,762.87,1359.4481,754.7625,1360.7742,760.2618,1355.275,761.5878,1365.04,762.87" style="stroke:#0000FF;stroke-width:1;"/><text fill="#000000" font-family="sans-serif" font-size="13" lengthAdjust="spacing" textLength="49.6514" x="1313.5" y="729.0669">Elimnar</text></g><!--link editarPregunta to PREGUNTA_ABIERTO3--><g class="link" data-entity-1="editarPregunta" data-entity-2="PREGUNTA_ABIERTO3" data-source-line="84" data-uid="lnk21" id="link_editarPregunta_PREGUNTA_ABIERTO3"><path d="M1054.45,686.11 C1085.13,717.36 1107.4852,740.1399 1125.3652,758.3399" fill="none" id="editarPregunta-to-PREGUNTA_ABIERTO3" style="stroke:#0000FF;stroke-width:1;"/><polygon fill="#0000FF" points="1129.57,762.62,1126.1161,753.3966,1126.066,759.0532,1120.4093,759.0031,1129.57,762.62" style="stroke:#0000FF;stroke-width:1;"/><text fill="#000000" font-family="sans-serif" font-size="13" lengthAdjust="spacing" textLength="49.6514" x="1100.5" y="729.0669">Elimnar</text></g><!--SRC=[dLLTQjj047xVKmpkG-sIr52_cM1mOv46Gcni6GeXbBLswYwHTiMkz61AeMVf5Ng4tYGdwQnioz6VBLisGjgPRxwPRsQrzaMgc1iUGIWL9fiO8TRXnhqmPXEU8CoznMpfBVpnujluyxqtzwTLm-tqqVU- -ilnWrVsciszk-LZ5NrORm5kMZv0Jx5-0cwXKrdkjCgc3AxpwJIaNCGsUbShAG6h3asCWrQCzLKCJfEowa30zTExjK5KpzSZG24JRcO6rwbAE3in9SUWbMwrSxwKvYpVgZB7O3ljYwkPrCMbRgy3Fna3khQ83lt8pNDUIkW9JxIjckzIRaHkXss0fm_FXPGACI1pKPfYQENs_aksSBCQJNI0Ai6R_ce4LeSo8DGkySm5bTZYw6BvhHZyBMqnjqRQXRG9HZoZZGrQT0A9B9h8X0lalx_gGFZw-m-ChLmhdgI6Nu6dKXL8BdHkzIdS5KpaTncaOS85TCadwkNsETeuHTBHGZVGLBAIGiC6h0Iq46XZC4XuNwhzum7wXQzaI0KBtXTeV-HlhBOQD96aWlTYcc4U9zB2fSSD13oAT-eumpeJpJWbjWEqDmHS1HYIfQ28is0e8wbAJJheLHgHni4uRovg2pYBdARqFCgzDDGe7ifIkGri1iL5NFLgjwbl5QPu4MLz6tynzXu67y4tN5bor8f6TEB1OlnmFndJ3h42Az-SqjVchUgLGugrSwyvfPXBRK6j4Dpjr9racLhGdSOkLnuEWSBIhgPl7eJqf-r1dKI5XeUWmTsCfFTUJHQxvjMSw4EutJM8jS7Ld-p7W-pxUEhK7897ZNDzEnsZ1lKV]--></g></svg>