<svg xmlns="http://www.w3.org/2000/svg" xmlns:xlink="http://www.w3.org/1999/xlink" contentStyleType="text/css" data-diagram-type="SALT" height="381px" preserveAspectRatio="none" style="width:688px;height:381px;background:#FFFFFF;" version="1.1" viewBox="0 0 688 381" width="688px" zoomAndPan="magnify"><defs/><g><text fill="#000000" font-family="sans-serif" font-size="12" font-weight="bold" lengthAdjust="spacing" textLength="112.541" x="6" y="17.1387">CREAR DOCENTE</text><line style="stroke:#AAAAAA;stroke-width:1;" x1="6" x2="681" y1="24.4688" y2="24.4688"/><line style="stroke:#AAAAAA;stroke-width:1;" x1="6" x2="681" y1="26.4688" y2="26.4688"/><text fill="#000000" font-family="sans-serif" font-size="12" font-weight="bold" lengthAdjust="spacing" textLength="184.2246" x="7" y="42.1074">Datos m&#237;nimos del docente</text><line style="stroke:#AAAAAA;stroke-width:1;" x1="7" x2="680" y1="50.4375" y2="50.4375"/><text fill="#000000" font-family="sans-serif" font-size="12" lengthAdjust="spacing" textLength="139.4473" x="8" y="67.0762">C&#243;digo del docente (*):</text><text fill="#000000" font-family="sans-serif" font-size="12" lengthAdjust="spacing" textLength="3.8145" x="451" y="67.0762">&#160;</text><line style="stroke:#000000;stroke-width:1;" x1="449" x2="676" y1="69.9063" y2="69.9063"/><line style="stroke:#000000;stroke-width:1;" x1="449" x2="449" y1="66.9063" y2="68.9063"/><line style="stroke:#000000;stroke-width:1;" x1="676" x2="676" y1="66.9063" y2="68.9063"/><text fill="#000000" font-family="sans-serif" font-size="12" font-style="italic" lengthAdjust="spacing" textLength="241.0254" x="8" y="101.0137">El c&#243;digo se generar&#225; autom&#225;ticamente</text><line style="stroke:#AAAAAA;stroke-width:1;stroke-dasharray:1,2;" x1="8" x2="447" y1="109.3438" y2="109.3438"/><text fill="#000000" font-family="sans-serif" font-size="12" lengthAdjust="spacing" textLength="77.4141" x="8" y="124.9824">Nombres (*):</text><text fill="#000000" font-family="sans-serif" font-size="12" lengthAdjust="spacing" textLength="3.8145" x="451" y="124.9824">&#160;</text><line style="stroke:#000000;stroke-width:1;" x1="449" x2="676" y1="127.8125" y2="127.8125"/><line style="stroke:#000000;stroke-width:1;" x1="449" x2="449" y1="124.8125" y2="126.8125"/><line style="stroke:#000000;stroke-width:1;" x1="676" x2="676" y1="124.8125" y2="126.8125"/><text fill="#000000" font-family="sans-serif" font-size="12" lengthAdjust="spacing" textLength="77.6426" x="8" y="142.9512">Apellidos (*):</text><text fill="#000000" font-family="sans-serif" font-size="12" lengthAdjust="spacing" textLength="3.8145" x="451" y="142.9512">&#160;</text><line style="stroke:#000000;stroke-width:1;" x1="449" x2="676" y1="145.7813" y2="145.7813"/><line style="stroke:#000000;stroke-width:1;" x1="449" x2="449" y1="142.7813" y2="144.7813"/><line style="stroke:#000000;stroke-width:1;" x1="676" x2="676" y1="142.7813" y2="144.7813"/><text fill="#000000" font-family="sans-serif" font-size="12" lengthAdjust="spacing" textLength="44.9766" x="8" y="160.9199">DNI (*):</text><text fill="#000000" font-family="sans-serif" font-size="12" lengthAdjust="spacing" textLength="3.8145" x="451" y="160.9199">&#160;</text><line style="stroke:#000000;stroke-width:1;" x1="449" x2="676" y1="163.75" y2="163.75"/><line style="stroke:#000000;stroke-width:1;" x1="449" x2="449" y1="160.75" y2="162.75"/><line style="stroke:#000000;stroke-width:1;" x1="676" x2="676" y1="160.75" y2="162.75"/><line style="stroke:#AAAAAA;stroke-width:1;stroke-dasharray:1,2;" x1="8" x2="447" y1="171.25" y2="171.25"/><text fill="#000000" font-family="sans-serif" font-size="12" lengthAdjust="spacing" textLength="114.7266" x="8" y="186.8887">Correo electr&#243;nico:</text><text fill="#000000" font-family="sans-serif" font-size="12" lengthAdjust="spacing" textLength="3.8145" x="451" y="186.8887">&#160;</text><line style="stroke:#000000;stroke-width:1;" x1="449" x2="676" y1="189.7188" y2="189.7188"/><line style="stroke:#000000;stroke-width:1;" x1="449" x2="449" y1="186.7188" y2="188.7188"/><line style="stroke:#000000;stroke-width:1;" x1="676" x2="676" y1="186.7188" y2="188.7188"/><text fill="#000000" font-family="sans-serif" font-size="12" lengthAdjust="spacing" textLength="55.9863" x="8" y="204.8574">Tel&#233;fono:</text><text fill="#000000" font-family="sans-serif" font-size="12" lengthAdjust="spacing" textLength="3.8145" x="451" y="204.8574">&#160;</text><line style="stroke:#000000;stroke-width:1;" x1="449" x2="676" y1="207.6875" y2="207.6875"/><line style="stroke:#000000;stroke-width:1;" x1="449" x2="449" y1="204.6875" y2="206.6875"/><line style="stroke:#000000;stroke-width:1;" x1="676" x2="676" y1="204.6875" y2="206.6875"/><line style="stroke:#AAAAAA;stroke-width:1;stroke-dasharray:1,2;" x1="8" x2="447" y1="215.1875" y2="215.1875"/><text fill="#000000" font-family="sans-serif" font-size="12" font-weight="bold" lengthAdjust="spacing" textLength="104.0039" x="8" y="230.8262">Observaciones:</text><text fill="#000000" font-family="sans-serif" font-size="12" lengthAdjust="spacing" textLength="3.8145" x="12" y="247.7949">&#160;</text><line style="stroke:#000000;stroke-width:1;" x1="10" x2="413" y1="250.625" y2="250.625"/><line style="stroke:#000000;stroke-width:1;" x1="10" x2="10" y1="247.625" y2="249.625"/><line style="stroke:#000000;stroke-width:1;" x1="413" x2="413" y1="247.625" y2="249.625"/><text fill="#000000" font-family="sans-serif" font-size="12" lengthAdjust="spacing" textLength="3.8145" x="12" y="265.7637">&#160;</text><line style="stroke:#000000;stroke-width:1;" x1="10" x2="413" y1="268.5938" y2="268.5938"/><line style="stroke:#000000;stroke-width:1;" x1="10" x2="10" y1="265.5938" y2="267.5938"/><line style="stroke:#000000;stroke-width:1;" x1="413" x2="413" y1="265.5938" y2="267.5938"/><line style="stroke:#000000;stroke-width:1;" x1="8" x2="416" y1="235.6563" y2="235.6563"/><line style="stroke:#000000;stroke-width:1;" x1="8" x2="416" y1="271.5938" y2="271.5938"/><line style="stroke:#000000;stroke-width:1;" x1="8" x2="8" y1="235.6563" y2="253.625"/><line style="stroke:#000000;stroke-width:1;" x1="416" x2="416" y1="253.625" y2="271.5938"/><line style="stroke:#000000;stroke-width:1;" x1="416" x2="416" y1="235.6563" y2="253.625"/><line style="stroke:#000000;stroke-width:1;" x1="8" x2="8" y1="253.625" y2="271.5938"/><rect fill="none" height="35.9375" style="stroke:#000000;stroke-width:1;" width="15" x="420" y="235.6563"/><line style="stroke:#000000;stroke-width:1;" x1="420" x2="435" y1="247.6563" y2="247.6563"/><line style="stroke:#000000;stroke-width:1;" x1="420" x2="435" y1="259.5938" y2="259.5938"/><path d="M427,239.6563 L430,244.6563 L424,244.6563 L427,239.6563" fill="#000000"/><path d="M427,268.5938 L430,263.5938 L424,263.5938 L427,268.5938" fill="#000000"/><line style="stroke:#AAAAAA;stroke-width:1.5;" x1="7" x2="680" y1="278.0938" y2="278.0938"/><text fill="#000000" font-family="sans-serif" font-size="12" font-style="italic" lengthAdjust="spacing" textLength="142.1309" x="7" y="309.7012">(*) Campos obligatorios</text><text fill="#000000" font-family="sans-serif" font-size="12" font-style="italic" lengthAdjust="spacing" textLength="247.2715" x="7" y="325.6699">Otros datos se completar&#225;n en la edici&#243;n</text><line style="stroke:#AAAAAA;stroke-width:1.5;" x1="7" x2="680" y1="334" y2="334"/><rect fill="#EEEEEE" height="17.9688" rx="5" ry="5" style="stroke:#000000;stroke-width:2.5;" width="108" x="10.5" y="357.9688"/><text fill="#000000" font-family="sans-serif" font-size="12" lengthAdjust="spacing" textLength="85.4297" x="21.7852" y="371.1074">Crear docente</text><rect fill="#EEEEEE" height="17.9688" rx="5" ry="5" style="stroke:#000000;stroke-width:2.5;" width="68" x="125.5" y="357.9688"/><text fill="#000000" font-family="sans-serif" font-size="12" lengthAdjust="spacing" textLength="52.9395" x="133.0303" y="371.1074">Cancelar</text><rect fill="none" height="35.9375" style="stroke:#000000;stroke-width:1;" width="15" x="420" y="235.6563"/><line style="stroke:#000000;stroke-width:1;" x1="420" x2="435" y1="247.6563" y2="247.6563"/><line style="stroke:#000000;stroke-width:1;" x1="420" x2="435" y1="259.5938" y2="259.5938"/><path d="M427,239.6563 L430,244.6563 L424,244.6563 L427,239.6563" fill="#000000"/><path d="M427,268.5938 L430,263.5938 L424,263.5938 L427,268.5938" fill="#000000"/><!--SRC=[hLHTRzem57tthxZY2IR10B5fZG2L9Ua40rBnqPUgcXpdDhBasCXnaAgE_fS-xg5F_GdvOtEWq6P8dT1sNt9ZttDyhNkEprD3jKcfCC0qKkqfXjBWZujWDbcE1xDXGEu9sEY6VNVc3sRW1Qu_NVZTZs5_kz7hzRRVNTbBgKUDIY79doHFR1AXW6Z7VC0LKQyVqbTu4Mx-7F5OlGL2zKFDWPzGWNUY0YMQHkclo_k-0FP2dIB4A55JdJy2pOnAyaV36KrsNV9-cQbCDLL9g37TzMJZRssLm8CL2i4ZjOUV1FQcmyEf9v_ynorSfJKgG87CwFnPSgQSqmWNAF9VjqegvytYlxHajHE4AUerPLn9J9sINhP2cG_9yTXFZih_9zcGu-oGF3oGOrLQHTfPWakJbLM32WMFhN4qLsb9WBOiCBhmqTPMLhbC9Ik1fj2k19GWA6346RT3B27VF_x-sYqyltVOZPtSjKibGq7rpUuE6x8XvoYZueKWv59GQPQJCQnHftO-q6gqc-rFZLQpkiZGkc8DpGwqcawxwNJEO39VGB5V8zLlbsD8LQOPGiHJetcO6KjG8oEwfZ3BfE49EX2iK8wyx_i5yEMQQoKBJvBHrUIru7Ed_fKRc5kbe8Qh2V7mbcRs5VCbKn6NiGFBnKNz2nbJ6MSqjjmeYQiihxvpG6P2_0O0]--></g></svg>