<svg xmlns="http://www.w3.org/2000/svg" xmlns:xlink="http://www.w3.org/1999/xlink" contentStyleType="text/css" data-diagram-type="SALT" height="361px" preserveAspectRatio="none" style="width:577px;height:361px;background:#FFFFFF;" version="1.1" viewBox="0 0 577 361" width="577px" zoomAndPan="magnify"><defs/><g><text fill="#000000" font-family="sans-serif" font-size="12" font-weight="bold" lengthAdjust="spacing" textLength="226.5469" x="6" y="17.1387">ASIGNAR EX&#193;MENES GENERADOS</text><line style="stroke:#AAAAAA;stroke-width:1;" x1="6" x2="570.0234" y1="24.4688" y2="24.4688"/><line style="stroke:#AAAAAA;stroke-width:1;" x1="6" x2="570.0234" y1="26.4688" y2="26.4688"/><text fill="#000000" font-family="sans-serif" font-size="12" font-weight="bold" lengthAdjust="spacing" textLength="95.7832" x="7" y="42.1074">Destinatarios:</text><text fill="#000000" font-family="sans-serif" font-size="12" lengthAdjust="spacing" textLength="43.0488" x="28" y="59.0762">Grupos</text><ellipse cx="15" cy="54.9219" fill="none" rx="5" ry="5" style="stroke:#000000;stroke-width:1.5;"/><ellipse cx="15" cy="54.9219" fill="#000000" rx="2" ry="2" style="stroke:#000000;stroke-width:1.5;"/><text fill="#000000" font-family="sans-serif" font-size="12" lengthAdjust="spacing" textLength="127.7227" x="298.0234" y="59.0762">Alumnos individuales</text><ellipse cx="285.0234" cy="54.9219" fill="none" rx="5" ry="5" style="stroke:#000000;stroke-width:1.5;"/><line style="stroke:#AAAAAA;stroke-width:1;stroke-dasharray:1,2;" x1="8" x2="277.0234" y1="67.4063" y2="67.4063"/><text fill="#000000" font-family="sans-serif" font-size="12" lengthAdjust="spacing" textLength="101.5605" x="8" y="83.0449">Grados / Grupos:</text><text fill="#000000" font-family="sans-serif" font-size="12" lengthAdjust="spacing" textLength="216.0234" x="29" y="100.0137">Ingenier&#237;a Inform&#225;tica (35 alumnos)</text><rect fill="none" height="10" style="stroke:#000000;stroke-width:1.5;" width="10" x="11" y="90.8594"/><polygon fill="#000000" points="12,94.875,15,97.875,22,88.875,15,95.875" style="stroke:#000000;stroke-width:1.5;"/><text fill="#000000" font-family="sans-serif" font-size="12" lengthAdjust="spacing" textLength="203.625" x="29" y="115.9824">Ingenier&#237;a Industrial (50 alumnos)</text><rect fill="none" height="10" style="stroke:#000000;stroke-width:1.5;" width="10" x="11" y="106.8281"/><polygon fill="#000000" points="12,110.8438,15,113.8438,22,104.8438,15,111.8438" style="stroke:#000000;stroke-width:1.5;"/><text fill="#000000" font-family="sans-serif" font-size="12" lengthAdjust="spacing" textLength="137.0215" x="29" y="131.9512">Medicina (40 alumnos)</text><rect fill="none" height="10" style="stroke:#000000;stroke-width:1.5;" width="10" x="11" y="122.7969"/><line style="stroke:#AAAAAA;stroke-width:1;stroke-dasharray:1,2;" x1="9" x2="246.0234" y1="140.2813" y2="140.2813"/><line style="stroke:#000000;stroke-width:1;" x1="8" x2="246.0234" y1="87.875" y2="87.875"/><line style="stroke:#000000;stroke-width:1;" x1="8" x2="246.0234" y1="143.7813" y2="143.7813"/><line style="stroke:#000000;stroke-width:1;" x1="8" x2="8" y1="87.875" y2="103.8438"/><line style="stroke:#000000;stroke-width:1;" x1="246.0234" x2="246.0234" y1="103.8438" y2="119.8125"/><line style="stroke:#000000;stroke-width:1;" x1="246.0234" x2="246.0234" y1="87.875" y2="103.8438"/><line style="stroke:#000000;stroke-width:1;" x1="8" x2="8" y1="135.7813" y2="143.7813"/><line style="stroke:#000000;stroke-width:1;" x1="8" x2="8" y1="119.8125" y2="135.7813"/><line style="stroke:#000000;stroke-width:1;" x1="246.0234" x2="246.0234" y1="135.7813" y2="143.7813"/><line style="stroke:#000000;stroke-width:1;" x1="8" x2="8" y1="103.8438" y2="119.8125"/><line style="stroke:#000000;stroke-width:1;" x1="246.0234" x2="246.0234" y1="119.8125" y2="135.7813"/><rect fill="none" height="55.9063" style="stroke:#000000;stroke-width:1;" width="15" x="250.0234" y="87.875"/><line style="stroke:#000000;stroke-width:1;" x1="250.0234" x2="265.0234" y1="99.875" y2="99.875"/><line style="stroke:#000000;stroke-width:1;" x1="250.0234" x2="265.0234" y1="131.7813" y2="131.7813"/><path d="M257.0234,91.875 L260.0234,96.875 L254.0234,96.875 L257.0234,91.875" fill="#000000"/><path d="M257.0234,140.7813 L260.0234,135.7813 L254.0234,135.7813 L257.0234,140.7813" fill="#000000"/><line style="stroke:#AAAAAA;stroke-width:1;stroke-dasharray:1,2;" x1="8" x2="277.0234" y1="149.2813" y2="149.2813"/><text fill="#000000" font-family="sans-serif" font-size="12" lengthAdjust="spacing" textLength="137.5195" x="8" y="164.9199">B&#250;squeda de alumnos:</text><text fill="#000000" font-family="sans-serif" font-size="12" lengthAdjust="spacing" textLength="153.8203" x="281.0234" y="164.9199">Nombre, DNI o ID alumno</text><line style="stroke:#000000;stroke-width:1;" x1="279.0234" x2="506.0234" y1="167.75" y2="167.75"/><line style="stroke:#000000;stroke-width:1;" x1="279.0234" x2="279.0234" y1="164.75" y2="166.75"/><line style="stroke:#000000;stroke-width:1;" x1="506.0234" x2="506.0234" y1="164.75" y2="166.75"/><rect fill="#EEEEEE" height="17.9688" rx="5" ry="5" style="stroke:#000000;stroke-width:2.5;" width="52" x="512.5234" y="156.2813"/><text fill="#000000" font-family="sans-serif" font-size="12" lengthAdjust="spacing" textLength="40.9746" x="518.0361" y="169.4199">Buscar</text><line style="stroke:#AAAAAA;stroke-width:1;stroke-dasharray:1,2;" x1="8" x2="277.0234" y1="182.25" y2="182.25"/><text fill="#000000" font-family="sans-serif" font-size="12" lengthAdjust="spacing" textLength="231.8086" x="8" y="197.8887">Alumnos seleccionados manualmente:</text><text fill="#000000" font-family="sans-serif" font-size="12" lengthAdjust="spacing" textLength="60.2168" x="29" y="214.8574">Ana P&#233;rez</text><rect fill="none" height="10" style="stroke:#000000;stroke-width:1.5;" width="10" x="11" y="205.7031"/><polygon fill="#000000" points="12,209.7188,15,212.7188,22,203.7188,15,210.7188" style="stroke:#000000;stroke-width:1.5;"/><text fill="#000000" font-family="sans-serif" font-size="12" lengthAdjust="spacing" textLength="69.7031" x="29" y="230.8262">Luis G&#243;mez</text><rect fill="none" height="10" style="stroke:#000000;stroke-width:1.5;" width="10" x="11" y="221.6719"/><polygon fill="#000000" points="12,225.6875,15,228.6875,22,219.6875,15,226.6875" style="stroke:#000000;stroke-width:1.5;"/><line style="stroke:#AAAAAA;stroke-width:1;stroke-dasharray:1,2;" x1="9" x2="99.7031" y1="239.1563" y2="239.1563"/><line style="stroke:#000000;stroke-width:1;" x1="8" x2="99.7031" y1="202.7188" y2="202.7188"/><line style="stroke:#000000;stroke-width:1;" x1="8" x2="99.7031" y1="242.6563" y2="242.6563"/><line style="stroke:#000000;stroke-width:1;" x1="8" x2="8" y1="202.7188" y2="218.6875"/><line style="stroke:#000000;stroke-width:1;" x1="99.7031" x2="99.7031" y1="218.6875" y2="234.6563"/><line style="stroke:#000000;stroke-width:1;" x1="99.7031" x2="99.7031" y1="202.7188" y2="218.6875"/><line style="stroke:#000000;stroke-width:1;" x1="8" x2="8" y1="234.6563" y2="242.6563"/><line style="stroke:#000000;stroke-width:1;" x1="8" x2="8" y1="218.6875" y2="234.6563"/><line style="stroke:#000000;stroke-width:1;" x1="99.7031" x2="99.7031" y1="234.6563" y2="242.6563"/><rect fill="none" height="39.9375" style="stroke:#000000;stroke-width:1;" width="15" x="103.7031" y="202.7188"/><line style="stroke:#000000;stroke-width:1;" x1="103.7031" x2="118.7031" y1="214.7188" y2="214.7188"/><line style="stroke:#000000;stroke-width:1;" x1="103.7031" x2="118.7031" y1="230.6563" y2="230.6563"/><path d="M110.7031,206.7188 L113.7031,211.7188 L107.7031,211.7188 L110.7031,206.7188" fill="#000000"/><path d="M110.7031,239.6563 L113.7031,234.6563 L107.7031,234.6563 L110.7031,239.6563" fill="#000000"/><line style="stroke:#AAAAAA;stroke-width:1;stroke-dasharray:1,2;" x1="8" x2="277.0234" y1="248.1563" y2="248.1563"/><text fill="#000000" font-family="sans-serif" font-size="12" lengthAdjust="spacing" textLength="196.125" x="8" y="263.7949">Total de alumnos seleccionados:</text><text fill="#000000" font-family="sans-serif" font-size="12" font-weight="bold" lengthAdjust="spacing" textLength="16.6992" x="207.9395" y="263.7949">85</text><line style="stroke:#AAAAAA;stroke-width:1.5;" x1="7" x2="569.0234" y1="273.125" y2="273.125"/><text fill="#000000" font-family="sans-serif" font-size="12" font-style="italic" lengthAdjust="spacing" textLength="435.5625" x="7" y="304.7324">El sistema generar&#225; una clave alfanum&#233;rica al examen de cada alumno.</text><line style="stroke:#AAAAAA;stroke-width:1.5;" x1="7" x2="569.0234" y1="313.0625" y2="313.0625"/><rect fill="#EEEEEE" height="17.9688" rx="5" ry="5" style="stroke:#000000;stroke-width:2.5;" width="132" x="10.5" y="337.0313"/><text fill="#000000" font-family="sans-serif" font-size="12" lengthAdjust="spacing" textLength="111.2695" x="20.8652" y="350.1699">Asignar ex&#225;menes</text><rect fill="#EEEEEE" height="17.9688" rx="5" ry="5" style="stroke:#000000;stroke-width:2.5;" width="68" x="149.5" y="337.0313"/><text fill="#000000" font-family="sans-serif" font-size="12" lengthAdjust="spacing" textLength="52.9395" x="157.0303" y="350.1699">Cancelar</text><rect fill="none" height="55.9063" style="stroke:#000000;stroke-width:1;" width="15" x="250.0234" y="87.875"/><line style="stroke:#000000;stroke-width:1;" x1="250.0234" x2="265.0234" y1="99.875" y2="99.875"/><line style="stroke:#000000;stroke-width:1;" x1="250.0234" x2="265.0234" y1="131.7813" y2="131.7813"/><path d="M257.0234,91.875 L260.0234,96.875 L254.0234,96.875 L257.0234,91.875" fill="#000000"/><path d="M257.0234,140.7813 L260.0234,135.7813 L254.0234,135.7813 L257.0234,140.7813" fill="#000000"/><rect fill="none" height="39.9375" style="stroke:#000000;stroke-width:1;" width="15" x="103.7031" y="202.7188"/><line style="stroke:#000000;stroke-width:1;" x1="103.7031" x2="118.7031" y1="214.7188" y2="214.7188"/><line style="stroke:#000000;stroke-width:1;" x1="103.7031" x2="118.7031" y1="230.6563" y2="230.6563"/><path d="M110.7031,206.7188 L113.7031,211.7188 L107.7031,211.7188 L110.7031,206.7188" fill="#000000"/><path d="M110.7031,239.6563 L113.7031,234.6563 L107.7031,234.6563 L110.7031,239.6563" fill="#000000"/><!--SRC=[bLJDJjj04BxxAKQS7Ac4G9EAMWHXY8b2umGb0KL2KJMnXsWbUqtt9sgR1gcFmh67ddhhrI_MSG91Rb54vs3FUkRxTdvzeWqgep4nW5hC9AhWCwOaINyyxm_2gwu_wFITXGCiHzDZVzXfz_m11EFyUnZqWY6q-JdmM_tXqTxqUENMR3PNxpMea8t232tIHaZaMqMclGse32Z47LUWhUnTfk4Rk501Fx6fv9EGiPYBs692keIeLal7jiAOtVSUMRoISJ7ibCw5t8mdq94pae9K_XDPlyrKcZyO4I6uRnk0wmWghq36LXibC06tKTk2Wmc458k8Am9kVOjdzQ_abjioFyr_wq-MOeIOdYWzhk9EBqkdYjv0gzU133gjH-CAjCCEDwTMHwWcsyYVsg0feIWIcLnLEKN93U71CVIwGlkSyMN-Gz7N5yrTApIqyr_f2_R_giKeCzo5vpgKu_QAaJnibCPm-U_Stjzlr6Vs8t4S9A25DfGYSFD9eSeVm79cKOBpuifRBalAMHOJn67GQhUAQ2ACyJ6awYllMzpuwmrbclnXjQEJecTdA2DAk6lhm9VEqZaX6HSxxJYN2Kfp5NPXJafpqh1VFQWTDAhxDNTa2NhP76frsAzv1pMl_Xx2uGWAUyLnsvTTq9bL4K4iYc6UMiC45US2vmW3Aur8oOF-7ScBreUd3n38kL2PB2R1kRWEdntUrNTFXO4XAGu5haEdHRTe-RyJo2YBXPnvS3KwtprqkYXd5cVCJT8vovXNVV50sYJv0m00]--></g></svg>