<svg xmlns="http://www.w3.org/2000/svg" xmlns:xlink="http://www.w3.org/1999/xlink" contentStyleType="text/css" data-diagram-type="SALT" height="478px" preserveAspectRatio="none" style="width:610px;height:478px;background:#FFFFFF;" version="1.1" viewBox="0 0 610 478" width="610px" zoomAndPan="magnify"><defs/><g><text fill="#000000" font-family="sans-serif" font-size="12" font-weight="bold" lengthAdjust="spacing" textLength="226.5469" x="6" y="17.1387">ASIGNAR EX&#193;MENES GENERADOS</text><line style="stroke:#AAAAAA;stroke-width:1;" x1="6" x2="603.4805" y1="24.4688" y2="24.4688"/><line style="stroke:#AAAAAA;stroke-width:1;" x1="6" x2="603.4805" y1="26.4688" y2="26.4688"/><text fill="#000000" font-family="sans-serif" font-size="12" font-weight="bold" lengthAdjust="spacing" textLength="238.0664" x="7" y="42.1074">Selecci&#243;n de ex&#225;menes generados:</text><line style="stroke:#AAAAAA;stroke-width:1;" x1="7" x2="602.4805" y1="50.4375" y2="50.4375"/><text fill="#000000" font-family="sans-serif" font-size="12" lengthAdjust="spacing" textLength="69.0117" x="8" y="67.0762">Asignatura:</text><rect fill="#EEEEEE" height="16.9688" style="stroke:#000000;stroke-width:1;" width="127" x="117.6367" y="55.9375"/><text fill="#000000" font-family="sans-serif" font-size="12" lengthAdjust="spacing" textLength="87.9727" x="119.6367" y="69.0762">Matem&#225;ticas II</text><line style="stroke:#000000;stroke-width:1;" x1="233.6367" x2="233.6367" y1="55.9375" y2="72.9063"/><polygon fill="#000000" points="236.6367,61.9375,242.6367,61.9375,239.6367,67.9063" style="stroke:#000000;stroke-width:1;"/><text fill="#000000" font-family="sans-serif" font-size="12" lengthAdjust="spacing" textLength="107.6367" x="8" y="87.0449">Curso acad&#233;mico:</text><rect fill="#EEEEEE" height="16.9688" style="stroke:#000000;stroke-width:1;" width="87" x="117.6367" y="75.9063"/><text fill="#000000" font-family="sans-serif" font-size="12" lengthAdjust="spacing" textLength="65.1211" x="119.6367" y="89.0449">2024/2025</text><line style="stroke:#000000;stroke-width:1;" x1="193.6367" x2="193.6367" y1="75.9063" y2="92.875"/><polygon fill="#000000" points="196.6367,81.9063,202.6367,81.9063,199.6367,87.875" style="stroke:#000000;stroke-width:1;"/><text fill="#000000" font-family="sans-serif" font-size="12" lengthAdjust="spacing" textLength="69.252" x="8" y="107.0137">Evaluaci&#243;n:</text><rect fill="#EEEEEE" height="16.9688" style="stroke:#000000;stroke-width:1;" width="87" x="117.6367" y="95.875"/><text fill="#000000" font-family="sans-serif" font-size="12" lengthAdjust="spacing" textLength="51.5918" x="119.6367" y="109.0137">Parcial 1</text><line style="stroke:#000000;stroke-width:1;" x1="193.6367" x2="193.6367" y1="95.875" y2="112.8438"/><polygon fill="#000000" points="196.6367,101.875,202.6367,101.875,199.6367,107.8438" style="stroke:#000000;stroke-width:1;"/><line style="stroke:#AAAAAA;stroke-width:1;stroke-dasharray:1,2;" x1="8" x2="116.6367" y1="119.3438" y2="119.3438"/><line style="stroke:#AAAAAA;stroke-width:1;" x1="7" x2="602.4805" y1="128.3438" y2="128.3438"/><text fill="#000000" font-family="sans-serif" font-size="12" font-weight="bold" lengthAdjust="spacing" textLength="95.7832" x="7" y="143.9824">Destinatarios:</text><text fill="#000000" font-family="sans-serif" font-size="12" lengthAdjust="spacing" textLength="43.0488" x="28" y="160.9512">Grupos</text><ellipse cx="15" cy="156.7969" fill="none" rx="5" ry="5" style="stroke:#000000;stroke-width:1.5;"/><ellipse cx="15" cy="156.7969" fill="#000000" rx="2" ry="2" style="stroke:#000000;stroke-width:1.5;"/><text fill="#000000" font-family="sans-serif" font-size="12" lengthAdjust="spacing" textLength="127.7227" x="331.4805" y="160.9512">Alumnos individuales</text><ellipse cx="318.4805" cy="156.7969" fill="none" rx="5" ry="5" style="stroke:#000000;stroke-width:1.5;"/><line style="stroke:#AAAAAA;stroke-width:1;stroke-dasharray:1,2;" x1="8" x2="310.4805" y1="169.2813" y2="169.2813"/><text fill="#000000" font-family="sans-serif" font-size="12" lengthAdjust="spacing" textLength="101.5605" x="8" y="184.9199">Grados / Grupos:</text><text fill="#000000" font-family="sans-serif" font-size="12" lengthAdjust="spacing" textLength="249.4805" x="29" y="201.8887">Ingenier&#237;a Inform&#225;tica - 1&#186;A (35 alumnos)</text><rect fill="none" height="10" style="stroke:#000000;stroke-width:1.5;" width="10" x="11" y="192.7344"/><polygon fill="#000000" points="12,196.75,15,199.75,22,190.75,15,197.75" style="stroke:#000000;stroke-width:1.5;"/><text fill="#000000" font-family="sans-serif" font-size="12" lengthAdjust="spacing" textLength="249.4805" x="29" y="217.8574">Ingenier&#237;a Inform&#225;tica - 2&#186;A (50 alumnos)</text><rect fill="none" height="10" style="stroke:#000000;stroke-width:1.5;" width="10" x="11" y="208.7031"/><polygon fill="#000000" points="12,212.7188,15,215.7188,22,206.7188,15,213.7188" style="stroke:#000000;stroke-width:1.5;"/><text fill="#000000" font-family="sans-serif" font-size="12" lengthAdjust="spacing" textLength="249.4805" x="29" y="233.8262">Ingenier&#237;a Inform&#225;tica - 3&#186;A (40 alumnos)</text><rect fill="none" height="10" style="stroke:#000000;stroke-width:1.5;" width="10" x="11" y="224.6719"/><line style="stroke:#AAAAAA;stroke-width:1;stroke-dasharray:1,2;" x1="9" x2="279.4805" y1="242.1563" y2="242.1563"/><line style="stroke:#000000;stroke-width:1;" x1="8" x2="279.4805" y1="189.75" y2="189.75"/><line style="stroke:#000000;stroke-width:1;" x1="8" x2="279.4805" y1="245.6563" y2="245.6563"/><line style="stroke:#000000;stroke-width:1;" x1="8" x2="8" y1="189.75" y2="205.7188"/><line style="stroke:#000000;stroke-width:1;" x1="279.4805" x2="279.4805" y1="205.7188" y2="221.6875"/><line style="stroke:#000000;stroke-width:1;" x1="279.4805" x2="279.4805" y1="189.75" y2="205.7188"/><line style="stroke:#000000;stroke-width:1;" x1="8" x2="8" y1="237.6563" y2="245.6563"/><line style="stroke:#000000;stroke-width:1;" x1="8" x2="8" y1="221.6875" y2="237.6563"/><line style="stroke:#000000;stroke-width:1;" x1="279.4805" x2="279.4805" y1="237.6563" y2="245.6563"/><line style="stroke:#000000;stroke-width:1;" x1="8" x2="8" y1="205.7188" y2="221.6875"/><line style="stroke:#000000;stroke-width:1;" x1="279.4805" x2="279.4805" y1="221.6875" y2="237.6563"/><rect fill="none" height="55.9063" style="stroke:#000000;stroke-width:1;" width="15" x="283.4805" y="189.75"/><line style="stroke:#000000;stroke-width:1;" x1="283.4805" x2="298.4805" y1="201.75" y2="201.75"/><line style="stroke:#000000;stroke-width:1;" x1="283.4805" x2="298.4805" y1="233.6563" y2="233.6563"/><path d="M290.4805,193.75 L293.4805,198.75 L287.4805,198.75 L290.4805,193.75" fill="#000000"/><path d="M290.4805,242.6563 L293.4805,237.6563 L287.4805,237.6563 L290.4805,242.6563" fill="#000000"/><line style="stroke:#AAAAAA;stroke-width:1;stroke-dasharray:1,2;" x1="8" x2="310.4805" y1="251.1563" y2="251.1563"/><text fill="#000000" font-family="sans-serif" font-size="12" lengthAdjust="spacing" textLength="137.5195" x="8" y="266.7949">B&#250;squeda de alumnos:</text><text fill="#000000" font-family="sans-serif" font-size="12" lengthAdjust="spacing" textLength="153.8203" x="314.4805" y="266.7949">Nombre, DNI o ID alumno</text><line style="stroke:#000000;stroke-width:1;" x1="312.4805" x2="539.4805" y1="269.625" y2="269.625"/><line style="stroke:#000000;stroke-width:1;" x1="312.4805" x2="312.4805" y1="266.625" y2="268.625"/><line style="stroke:#000000;stroke-width:1;" x1="539.4805" x2="539.4805" y1="266.625" y2="268.625"/><rect fill="#EEEEEE" height="17.9688" rx="5" ry="5" style="stroke:#000000;stroke-width:2.5;" width="52" x="545.9805" y="258.1563"/><text fill="#000000" font-family="sans-serif" font-size="12" lengthAdjust="spacing" textLength="40.9746" x="551.4932" y="271.2949">Buscar</text><line style="stroke:#AAAAAA;stroke-width:1;stroke-dasharray:1,2;" x1="8" x2="310.4805" y1="284.125" y2="284.125"/><text fill="#000000" font-family="sans-serif" font-size="12" lengthAdjust="spacing" textLength="231.8086" x="8" y="299.7637">Alumnos seleccionados manualmente:</text><text fill="#000000" font-family="sans-serif" font-size="12" lengthAdjust="spacing" textLength="94.8926" x="29" y="316.7324">Ana P&#233;rez (1&#186;A)</text><rect fill="none" height="10" style="stroke:#000000;stroke-width:1.5;" width="10" x="11" y="307.5781"/><polygon fill="#000000" points="12,311.5938,15,314.5938,22,305.5938,15,312.5938" style="stroke:#000000;stroke-width:1.5;"/><text fill="#000000" font-family="sans-serif" font-size="12" lengthAdjust="spacing" textLength="104.3789" x="29" y="332.7012">Luis G&#243;mez (2&#186;A)</text><rect fill="none" height="10" style="stroke:#000000;stroke-width:1.5;" width="10" x="11" y="323.5469"/><polygon fill="#000000" points="12,327.5625,15,330.5625,22,321.5625,15,328.5625" style="stroke:#000000;stroke-width:1.5;"/><line style="stroke:#AAAAAA;stroke-width:1;stroke-dasharray:1,2;" x1="9" x2="134.3789" y1="341.0313" y2="341.0313"/><line style="stroke:#000000;stroke-width:1;" x1="8" x2="134.3789" y1="304.5938" y2="304.5938"/><line style="stroke:#000000;stroke-width:1;" x1="8" x2="134.3789" y1="344.5313" y2="344.5313"/><line style="stroke:#000000;stroke-width:1;" x1="8" x2="8" y1="304.5938" y2="320.5625"/><line style="stroke:#000000;stroke-width:1;" x1="134.3789" x2="134.3789" y1="320.5625" y2="336.5313"/><line style="stroke:#000000;stroke-width:1;" x1="134.3789" x2="134.3789" y1="304.5938" y2="320.5625"/><line style="stroke:#000000;stroke-width:1;" x1="8" x2="8" y1="336.5313" y2="344.5313"/><line style="stroke:#000000;stroke-width:1;" x1="8" x2="8" y1="320.5625" y2="336.5313"/><line style="stroke:#000000;stroke-width:1;" x1="134.3789" x2="134.3789" y1="336.5313" y2="344.5313"/><rect fill="none" height="39.9375" style="stroke:#000000;stroke-width:1;" width="15" x="138.3789" y="304.5938"/><line style="stroke:#000000;stroke-width:1;" x1="138.3789" x2="153.3789" y1="316.5938" y2="316.5938"/><line style="stroke:#000000;stroke-width:1;" x1="138.3789" x2="153.3789" y1="332.5313" y2="332.5313"/><path d="M145.3789,308.5938 L148.3789,313.5938 L142.3789,313.5938 L145.3789,308.5938" fill="#000000"/><path d="M145.3789,341.5313 L148.3789,336.5313 L142.3789,336.5313 L145.3789,341.5313" fill="#000000"/><line style="stroke:#AAAAAA;stroke-width:1;stroke-dasharray:1,2;" x1="8" x2="310.4805" y1="350.0313" y2="350.0313"/><text fill="#000000" font-family="sans-serif" font-size="12" lengthAdjust="spacing" textLength="196.125" x="8" y="365.6699">Total de alumnos seleccionados:</text><text fill="#000000" font-family="sans-serif" font-size="12" font-weight="bold" lengthAdjust="spacing" textLength="16.6992" x="207.9395" y="365.6699">85</text><line style="stroke:#AAAAAA;stroke-width:1.5;" x1="7" x2="602.4805" y1="375" y2="375"/><text fill="#000000" font-family="sans-serif" font-size="12" font-style="italic" lengthAdjust="spacing" textLength="421.3535" x="7" y="406.6074">El sistema registrar&#225; qu&#233; examen generado se asigna a cada alumno,</text><text fill="#000000" font-family="sans-serif" font-size="12" lengthAdjust="spacing" textLength="353.1621" x="7" y="422.5762">utilizando internamente su clave alfanum&#233;rica (hash).&lt;/i&gt;</text><line style="stroke:#AAAAAA;stroke-width:1.5;" x1="7" x2="602.4805" y1="430.9063" y2="430.9063"/><rect fill="#EEEEEE" height="17.9688" rx="5" ry="5" style="stroke:#000000;stroke-width:2.5;" width="132" x="10.5" y="454.875"/><text fill="#000000" font-family="sans-serif" font-size="12" lengthAdjust="spacing" textLength="111.2695" x="20.8652" y="468.0137">Asignar ex&#225;menes</text><rect fill="#EEEEEE" height="17.9688" rx="5" ry="5" style="stroke:#000000;stroke-width:2.5;" width="68" x="149.5" y="454.875"/><text fill="#000000" font-family="sans-serif" font-size="12" lengthAdjust="spacing" textLength="52.9395" x="157.0303" y="468.0137">Cancelar</text><rect fill="none" height="55.9063" style="stroke:#000000;stroke-width:1;" width="15" x="283.4805" y="189.75"/><line style="stroke:#000000;stroke-width:1;" x1="283.4805" x2="298.4805" y1="201.75" y2="201.75"/><line style="stroke:#000000;stroke-width:1;" x1="283.4805" x2="298.4805" y1="233.6563" y2="233.6563"/><path d="M290.4805,193.75 L293.4805,198.75 L287.4805,198.75 L290.4805,193.75" fill="#000000"/><path d="M290.4805,242.6563 L293.4805,237.6563 L287.4805,237.6563 L290.4805,242.6563" fill="#000000"/><rect fill="none" height="39.9375" style="stroke:#000000;stroke-width:1;" width="15" x="138.3789" y="304.5938"/><line style="stroke:#000000;stroke-width:1;" x1="138.3789" x2="153.3789" y1="316.5938" y2="316.5938"/><line style="stroke:#000000;stroke-width:1;" x1="138.3789" x2="153.3789" y1="332.5313" y2="332.5313"/><path d="M145.3789,308.5938 L148.3789,313.5938 L142.3789,313.5938 L145.3789,308.5938" fill="#000000"/><path d="M145.3789,341.5313 L148.3789,336.5313 L142.3789,336.5313 L145.3789,341.5313" fill="#000000"/><!--SRC=[bLHBJ-Cm4BxdLumujH9zqgxOg5G46ggmVQaj20d1QaXCiPJOh1rNB6oHzgTmvB0dRXmtVspjjBI4HHNuu8pjcIyptpnsPOmYbXZ6W99E60ht1YF2YFn-q1zsZphEqEjRTnRerRXeEYEltNE6u9ualxjkpnr1M-z3fzKVDKeNpLHjPsSd_SwD5eOZ4XBVfyaJWu00kKaUqf_0HEy20oxjfRrPXS9INC6OvQHEnagWFR_u1UTTZ4cKFCJKHmcUTvuns5T2Sa0VW-GneZwtZKMrNAsLz5RFwhfJ31McNgxG1oXyYY5Kihh5uklZKfvP_rszYkKr8oqYOwf3GK7VHfyDENUIXxPGrrngTtAG1oTK4TCdoW8wfO72aCWrlcbZGp2K5YXsvl5kv6NEPfsUd877T6ee4SaVrF8b5mk6eG2LlyyEvBRgW7D7yfy5gAO0zV8Q05WBi9K2rDO05DzmC5j7q5xoB7ye4g2fpGMagPED7eyk1Dc4Liy33bvhyPWQRMY5qpqbVHHdwy1ViYNd7S1Pcem8cSwRxe6OV2mV3aCO98-2t4BE9E1zqZkAIcWdJv5HgxwhzYbcnZpMfRzY9Hk5RUfukvwftNSQuFv-AQxG6xJfXY2frBsB8CX4Im95yW0_LFAe9uIPGilneF-xc4-0e7iP5mvjBl5KJ4DwYqphKasgO9YI2rA17-BKH72fEOyqXQQ6SbSeh_B5HeasF-ZmtUbyzeZLz3ep9R2Fp2UXBe9vv3DhPkqI5fYHQbc345byrEt0b0YfMODAqOoTOgMS6oi2FJw5SWqgPRjQjcjVeJiQWtdFMxdse0EIA-4J20mrz497o5dUEiGfmb2nc4R4XlurOOUjRoyNuB8f5PoPsAt3u-vAuKkji4TZ616XNO7ZhjKYbwZqs7UPpmFA9ZOSZGyAsrO7sKJXH6CJPkrpZIj-si1K6Fu3]--></g></svg>