<svg xmlns="http://www.w3.org/2000/svg" xmlns:xlink="http://www.w3.org/1999/xlink" contentStyleType="text/css" data-diagram-type="SALT" height="390px" preserveAspectRatio="none" style="width:540px;height:390px;background:#FFFFFF;" version="1.1" viewBox="0 0 540 390" width="540px" zoomAndPan="magnify"><defs/><g><text fill="#000000" font-family="sans-serif" font-size="12" font-weight="bold" lengthAdjust="spacing" textLength="226.5469" x="6" y="17.1387">ASIGNAR EX&#193;MENES GENERADOS</text><line style="stroke:#AAAAAA;stroke-width:1;" x1="6" x2="533.8086" y1="24.4688" y2="24.4688"/><line style="stroke:#AAAAAA;stroke-width:1;" x1="6" x2="533.8086" y1="26.4688" y2="26.4688"/><text fill="#000000" font-family="sans-serif" font-size="12" font-weight="bold" lengthAdjust="spacing" textLength="95.7832" x="7" y="42.1074">Destinatarios:</text><line style="stroke:#AAAAAA;stroke-width:1;stroke-dasharray:1,2;" x1="8" x2="240.8086" y1="51.4375" y2="51.4375"/><text fill="#000000" font-family="sans-serif" font-size="12" lengthAdjust="spacing" textLength="137.5195" x="8" y="67.0762">B&#250;squeda de alumnos:</text><text fill="#000000" font-family="sans-serif" font-size="12" lengthAdjust="spacing" textLength="153.8203" x="244.8086" y="67.0762">Nombre, DNI o ID alumno</text><line style="stroke:#000000;stroke-width:1;" x1="242.8086" x2="469.8086" y1="69.9063" y2="69.9063"/><line style="stroke:#000000;stroke-width:1;" x1="242.8086" x2="242.8086" y1="66.9063" y2="68.9063"/><line style="stroke:#000000;stroke-width:1;" x1="469.8086" x2="469.8086" y1="66.9063" y2="68.9063"/><rect fill="#EEEEEE" height="17.9688" rx="5" ry="5" style="stroke:#000000;stroke-width:2.5;" width="52" x="476.3086" y="58.4375"/><text fill="#000000" font-family="sans-serif" font-size="12" lengthAdjust="spacing" textLength="40.9746" x="481.8213" y="71.5762">Buscar</text><line style="stroke:#AAAAAA;stroke-width:1;stroke-dasharray:1,2;" x1="8" x2="240.8086" y1="84.4063" y2="84.4063"/><text fill="#000000" font-family="sans-serif" font-size="12" lengthAdjust="spacing" textLength="106.5527" x="28" y="100.0449">Seleccionar todos</text><rect fill="none" height="10" style="stroke:#000000;stroke-width:1.5;" width="10" x="10" y="90.8906"/><polygon fill="#000000" points="11,94.9063,14,97.9063,21,88.9063,14,95.9063" style="stroke:#000000;stroke-width:1.5;"/><line style="stroke:#AAAAAA;stroke-width:1;stroke-dasharray:1,2;" x1="8" x2="240.8086" y1="108.375" y2="108.375"/><text fill="#000000" font-family="sans-serif" font-size="12" lengthAdjust="spacing" textLength="231.8086" x="8" y="124.0137">Alumnos seleccionados manualmente:</text><text fill="#000000" font-family="sans-serif" font-size="12" lengthAdjust="spacing" textLength="60.2168" x="29" y="140.9824">Ana P&#233;rez</text><rect fill="none" height="10" style="stroke:#000000;stroke-width:1.5;" width="10" x="11" y="131.8281"/><polygon fill="#000000" points="12,135.8438,15,138.8438,22,129.8438,15,136.8438" style="stroke:#000000;stroke-width:1.5;"/><text fill="#000000" font-family="sans-serif" font-size="12" lengthAdjust="spacing" textLength="69.7031" x="29" y="156.9512">Luis G&#243;mez</text><rect fill="none" height="10" style="stroke:#000000;stroke-width:1.5;" width="10" x="11" y="147.7969"/><polygon fill="#000000" points="12,151.8125,15,154.8125,22,145.8125,15,152.8125" style="stroke:#000000;stroke-width:1.5;"/><text fill="#000000" font-family="sans-serif" font-size="12" lengthAdjust="spacing" textLength="100.2246" x="29" y="172.9199">Mar&#237;a Fern&#225;ndez</text><rect fill="none" height="10" style="stroke:#000000;stroke-width:1.5;" width="10" x="11" y="163.7656"/><polygon fill="#000000" points="12,167.7813,15,170.7813,22,161.7813,15,168.7813" style="stroke:#000000;stroke-width:1.5;"/><text fill="#000000" font-family="sans-serif" font-size="12" lengthAdjust="spacing" textLength="75.6328" x="29" y="188.8887">Javier Torres</text><rect fill="none" height="10" style="stroke:#000000;stroke-width:1.5;" width="10" x="11" y="179.7344"/><polygon fill="#000000" points="12,183.75,15,186.75,22,177.75,15,184.75" style="stroke:#000000;stroke-width:1.5;"/><text fill="#000000" font-family="sans-serif" font-size="12" lengthAdjust="spacing" textLength="71.3086" x="29" y="204.8574">Elena Rubio</text><rect fill="none" height="10" style="stroke:#000000;stroke-width:1.5;" width="10" x="11" y="195.7031"/><polygon fill="#000000" points="12,199.7188,15,202.7188,22,193.7188,15,200.7188" style="stroke:#000000;stroke-width:1.5;"/><text fill="#000000" font-family="sans-serif" font-size="12" lengthAdjust="spacing" textLength="70.2773" x="29" y="220.8262">Pablo Mar&#237;n</text><rect fill="none" height="10" style="stroke:#000000;stroke-width:1.5;" width="10" x="11" y="211.6719"/><polygon fill="#000000" points="12,215.6875,15,218.6875,22,209.6875,15,216.6875" style="stroke:#000000;stroke-width:1.5;"/><text fill="#000000" font-family="sans-serif" font-size="12" lengthAdjust="spacing" textLength="72.6504" x="29" y="236.7949">Sof&#237;a Castro</text><rect fill="none" height="10" style="stroke:#000000;stroke-width:1.5;" width="10" x="11" y="227.6406"/><polygon fill="#000000" points="12,231.6563,15,234.6563,22,225.6563,15,232.6563" style="stroke:#000000;stroke-width:1.5;"/><text fill="#000000" font-family="sans-serif" font-size="12" lengthAdjust="spacing" textLength="67.5469" x="29" y="252.7637">Daniel Vico</text><rect fill="none" height="10" style="stroke:#000000;stroke-width:1.5;" width="10" x="11" y="243.6094"/><polygon fill="#000000" points="12,247.625,15,250.625,22,241.625,15,248.625" style="stroke:#000000;stroke-width:1.5;"/><text fill="#000000" font-family="sans-serif" font-size="12" lengthAdjust="spacing" textLength="76.7344" x="29" y="268.7324">Carmen Ruiz</text><rect fill="none" height="10" style="stroke:#000000;stroke-width:1.5;" width="10" x="11" y="259.5781"/><polygon fill="#000000" points="12,263.5938,15,266.5938,22,257.5938,15,264.5938" style="stroke:#000000;stroke-width:1.5;"/><line style="stroke:#000000;stroke-width:1;" x1="8" x2="130.2246" y1="128.8438" y2="128.8438"/><line style="stroke:#000000;stroke-width:1;" x1="8" x2="130.2246" y1="272.5625" y2="272.5625"/><line style="stroke:#000000;stroke-width:1;" x1="8" x2="8" y1="128.8438" y2="144.8125"/><line style="stroke:#000000;stroke-width:1;" x1="130.2246" x2="130.2246" y1="128.8438" y2="144.8125"/><line style="stroke:#000000;stroke-width:1;" x1="8" x2="8" y1="240.625" y2="256.5938"/><line style="stroke:#000000;stroke-width:1;" x1="130.2246" x2="130.2246" y1="240.625" y2="256.5938"/><line style="stroke:#000000;stroke-width:1;" x1="8" x2="8" y1="208.6875" y2="224.6563"/><line style="stroke:#000000;stroke-width:1;" x1="130.2246" x2="130.2246" y1="208.6875" y2="224.6563"/><line style="stroke:#000000;stroke-width:1;" x1="8" x2="8" y1="176.75" y2="192.7188"/><line style="stroke:#000000;stroke-width:1;" x1="130.2246" x2="130.2246" y1="176.75" y2="192.7188"/><line style="stroke:#000000;stroke-width:1;" x1="8" x2="8" y1="144.8125" y2="160.7813"/><line style="stroke:#000000;stroke-width:1;" x1="130.2246" x2="130.2246" y1="144.8125" y2="160.7813"/><line style="stroke:#000000;stroke-width:1;" x1="8" x2="8" y1="256.5938" y2="272.5625"/><line style="stroke:#000000;stroke-width:1;" x1="130.2246" x2="130.2246" y1="256.5938" y2="272.5625"/><line style="stroke:#000000;stroke-width:1;" x1="8" x2="8" y1="224.6563" y2="240.625"/><line style="stroke:#000000;stroke-width:1;" x1="130.2246" x2="130.2246" y1="224.6563" y2="240.625"/><line style="stroke:#000000;stroke-width:1;" x1="8" x2="8" y1="192.7188" y2="208.6875"/><line style="stroke:#000000;stroke-width:1;" x1="130.2246" x2="130.2246" y1="192.7188" y2="208.6875"/><line style="stroke:#000000;stroke-width:1;" x1="8" x2="8" y1="160.7813" y2="176.75"/><line style="stroke:#000000;stroke-width:1;" x1="130.2246" x2="130.2246" y1="160.7813" y2="176.75"/><rect fill="none" height="143.7188" style="stroke:#000000;stroke-width:1;" width="15" x="134.2246" y="128.8438"/><line style="stroke:#000000;stroke-width:1;" x1="134.2246" x2="149.2246" y1="140.8438" y2="140.8438"/><line style="stroke:#000000;stroke-width:1;" x1="134.2246" x2="149.2246" y1="260.5625" y2="260.5625"/><path d="M141.2246,132.8438 L144.2246,137.8438 L138.2246,137.8438 L141.2246,132.8438" fill="#000000"/><path d="M141.2246,269.5625 L144.2246,264.5625 L138.2246,264.5625 L141.2246,269.5625" fill="#000000"/><line style="stroke:#AAAAAA;stroke-width:1;stroke-dasharray:1,2;" x1="8" x2="240.8086" y1="278.0625" y2="278.0625"/><text fill="#000000" font-family="sans-serif" font-size="12" lengthAdjust="spacing" textLength="196.125" x="8" y="293.7012">Total de alumnos seleccionados:</text><text fill="#000000" font-family="sans-serif" font-size="12" font-weight="bold" lengthAdjust="spacing" textLength="16.6992" x="207.9395" y="293.7012">85</text><line style="stroke:#AAAAAA;stroke-width:1.5;" x1="7" x2="532.8086" y1="303.0313" y2="303.0313"/><text fill="#000000" font-family="sans-serif" font-size="12" font-style="italic" lengthAdjust="spacing" textLength="435.5625" x="7" y="334.6387">El sistema generar&#225; una clave alfanum&#233;rica al examen de cada alumno.</text><line style="stroke:#AAAAAA;stroke-width:1.5;" x1="7" x2="532.8086" y1="342.9688" y2="342.9688"/><rect fill="#EEEEEE" height="17.9688" rx="5" ry="5" style="stroke:#000000;stroke-width:2.5;" width="132" x="10.5" y="366.9375"/><text fill="#000000" font-family="sans-serif" font-size="12" lengthAdjust="spacing" textLength="111.2695" x="20.8652" y="380.0762">Asignar ex&#225;menes</text><rect fill="#EEEEEE" height="17.9688" rx="5" ry="5" style="stroke:#000000;stroke-width:2.5;" width="44" x="149.5" y="366.9375"/><text fill="#000000" font-family="sans-serif" font-size="12" lengthAdjust="spacing" textLength="26.5723" x="158.2139" y="380.0762">Salir</text><rect fill="none" height="143.7188" style="stroke:#000000;stroke-width:1;" width="15" x="134.2246" y="128.8438"/><line style="stroke:#000000;stroke-width:1;" x1="134.2246" x2="149.2246" y1="140.8438" y2="140.8438"/><line style="stroke:#000000;stroke-width:1;" x1="134.2246" x2="149.2246" y1="260.5625" y2="260.5625"/><path d="M141.2246,132.8438 L144.2246,137.8438 L138.2246,137.8438 L141.2246,132.8438" fill="#000000"/><path d="M141.2246,269.5625 L144.2246,264.5625 L138.2246,264.5625 L141.2246,269.5625" fill="#000000"/><!--SRC=[ZLHDQzj04BthLmmv9T2uTd1AAX8J9PADKyisbXC2mPInj34BgzrsFqnRru7-b1nxwActNlN7Eh9Jfw8YT0_IhjwycRVpeNDZKLk3mW8Qlf2eeq-OCydC- -ve4byFWab_vAqye7KwxmH9lpSC9X3T5j_YQ1WbqAFd90X7oUdhUMTZTdPsjdblIUNQRSX3o8pb4YagLyRVaQg4SZKQbUD5ySjyT2n3o1YWSBaaEdo5lQ7AvvgzWd3O1mNzy0dSaFR8uEx2cHJrx2NdTxSpI9XWQSeLfG2iofHvYH1i1O3PaOW0EKg7Wh9dcLynNoNzodaRCP08u-AxPbzgm87Z1dh5pxmMZL4NFn2wJClYKMQrDbUuv4p3L6dDJ0qU2KO29cxELGqwnhbGspYo1axKVIdW4etLTVGG9MS2RdXQXrwYfYnHR5uLldufvrDbKVnL_Mho_RAvJeuh3RN-jmCV7dRRP- -dl1C9CDnObYCigFirtViH7EKd5RWiGzvJRNCg5a-HJi0sKrAgIJ739qcD_uotkWksiqPkYiVDjCtAJarGS3tRgbvxQ- -SoQmSJSyR2vJsEXx0acb3DuPMuwXvTDneDVUdZi5GBQ7PXbRJFshwxRSG9rCeyGDllpSUW55Efmmokg3cSsV9mO57xL5MNrgUCnz67vYy2j_z-G2HN7AjPDdBtjLD_6pmfdrumIrDYoOfS1Dx8Rj7Hx-FIAOgutBXm_MqUtZY3L0k72x8DvFUfIA_-hCFqWdn6m00]--></g></svg>