<svg xmlns="http://www.w3.org/2000/svg" xmlns:xlink="http://www.w3.org/1999/xlink" contentStyleType="text/css" data-diagram-type="SALT" height="478px" preserveAspectRatio="none" style="width:577px;height:478px;background:#FFFFFF;" version="1.1" viewBox="0 0 577 478" width="577px" zoomAndPan="magnify"><defs/><g><text fill="#000000" font-family="sans-serif" font-size="12" font-weight="bold" lengthAdjust="spacing" textLength="226.5469" x="6" y="17.1387">ASIGNAR EX&#193;MENES GENERADOS</text><line style="stroke:#AAAAAA;stroke-width:1;" x1="6" x2="570.0234" y1="24.4688" y2="24.4688"/><line style="stroke:#AAAAAA;stroke-width:1;" x1="6" x2="570.0234" y1="26.4688" y2="26.4688"/><text fill="#000000" font-family="sans-serif" font-size="12" font-weight="bold" lengthAdjust="spacing" textLength="238.0664" x="7" y="42.1074">Selecci&#243;n de ex&#225;menes generados:</text><line style="stroke:#AAAAAA;stroke-width:1;" x1="7" x2="569.0234" y1="50.4375" y2="50.4375"/><text fill="#000000" font-family="sans-serif" font-size="12" lengthAdjust="spacing" textLength="69.0117" x="8" y="67.0762">Asignatura:</text><rect fill="#EEEEEE" height="16.9688" style="stroke:#000000;stroke-width:1;" width="127" x="117.6367" y="55.9375"/><text fill="#000000" font-family="sans-serif" font-size="12" lengthAdjust="spacing" textLength="87.9727" x="119.6367" y="69.0762">Matem&#225;ticas II</text><line style="stroke:#000000;stroke-width:1;" x1="233.6367" x2="233.6367" y1="55.9375" y2="72.9063"/><polygon fill="#000000" points="236.6367,61.9375,242.6367,61.9375,239.6367,67.9063" style="stroke:#000000;stroke-width:1;"/><text fill="#000000" font-family="sans-serif" font-size="12" lengthAdjust="spacing" textLength="107.6367" x="8" y="87.0449">Curso acad&#233;mico:</text><rect fill="#EEEEEE" height="16.9688" style="stroke:#000000;stroke-width:1;" width="87" x="117.6367" y="75.9063"/><text fill="#000000" font-family="sans-serif" font-size="12" lengthAdjust="spacing" textLength="65.1211" x="119.6367" y="89.0449">2024/2025</text><line style="stroke:#000000;stroke-width:1;" x1="193.6367" x2="193.6367" y1="75.9063" y2="92.875"/><polygon fill="#000000" points="196.6367,81.9063,202.6367,81.9063,199.6367,87.875" style="stroke:#000000;stroke-width:1;"/><text fill="#000000" font-family="sans-serif" font-size="12" lengthAdjust="spacing" textLength="69.252" x="8" y="107.0137">Evaluaci&#243;n:</text><rect fill="#EEEEEE" height="16.9688" style="stroke:#000000;stroke-width:1;" width="87" x="117.6367" y="95.875"/><text fill="#000000" font-family="sans-serif" font-size="12" lengthAdjust="spacing" textLength="51.5918" x="119.6367" y="109.0137">Parcial 1</text><line style="stroke:#000000;stroke-width:1;" x1="193.6367" x2="193.6367" y1="95.875" y2="112.8438"/><polygon fill="#000000" points="196.6367,101.875,202.6367,101.875,199.6367,107.8438" style="stroke:#000000;stroke-width:1;"/><line style="stroke:#AAAAAA;stroke-width:1;stroke-dasharray:1,2;" x1="8" x2="116.6367" y1="119.3438" y2="119.3438"/><line style="stroke:#AAAAAA;stroke-width:1;" x1="7" x2="569.0234" y1="128.3438" y2="128.3438"/><text fill="#000000" font-family="sans-serif" font-size="12" font-weight="bold" lengthAdjust="spacing" textLength="95.7832" x="7" y="143.9824">Destinatarios:</text><text fill="#000000" font-family="sans-serif" font-size="12" lengthAdjust="spacing" textLength="43.0488" x="28" y="160.9512">Grupos</text><ellipse cx="15" cy="156.7969" fill="none" rx="5" ry="5" style="stroke:#000000;stroke-width:1.5;"/><ellipse cx="15" cy="156.7969" fill="#000000" rx="2" ry="2" style="stroke:#000000;stroke-width:1.5;"/><text fill="#000000" font-family="sans-serif" font-size="12" lengthAdjust="spacing" textLength="127.7227" x="298.0234" y="160.9512">Alumnos individuales</text><ellipse cx="285.0234" cy="156.7969" fill="none" rx="5" ry="5" style="stroke:#000000;stroke-width:1.5;"/><line style="stroke:#AAAAAA;stroke-width:1;stroke-dasharray:1,2;" x1="8" x2="277.0234" y1="169.2813" y2="169.2813"/><text fill="#000000" font-family="sans-serif" font-size="12" lengthAdjust="spacing" textLength="101.5605" x="8" y="184.9199">Grados / Grupos:</text><text fill="#000000" font-family="sans-serif" font-size="12" lengthAdjust="spacing" textLength="216.0234" x="29" y="201.8887">Ingenier&#237;a Inform&#225;tica (35 alumnos)</text><rect fill="none" height="10" style="stroke:#000000;stroke-width:1.5;" width="10" x="11" y="192.7344"/><polygon fill="#000000" points="12,196.75,15,199.75,22,190.75,15,197.75" style="stroke:#000000;stroke-width:1.5;"/><text fill="#000000" font-family="sans-serif" font-size="12" lengthAdjust="spacing" textLength="203.625" x="29" y="217.8574">Ingenier&#237;a Industrial (50 alumnos)</text><rect fill="none" height="10" style="stroke:#000000;stroke-width:1.5;" width="10" x="11" y="208.7031"/><polygon fill="#000000" points="12,212.7188,15,215.7188,22,206.7188,15,213.7188" style="stroke:#000000;stroke-width:1.5;"/><text fill="#000000" font-family="sans-serif" font-size="12" lengthAdjust="spacing" textLength="137.0215" x="29" y="233.8262">Medicina (40 alumnos)</text><rect fill="none" height="10" style="stroke:#000000;stroke-width:1.5;" width="10" x="11" y="224.6719"/><line style="stroke:#AAAAAA;stroke-width:1;stroke-dasharray:1,2;" x1="9" x2="246.0234" y1="242.1563" y2="242.1563"/><line style="stroke:#000000;stroke-width:1;" x1="8" x2="246.0234" y1="189.75" y2="189.75"/><line style="stroke:#000000;stroke-width:1;" x1="8" x2="246.0234" y1="245.6563" y2="245.6563"/><line style="stroke:#000000;stroke-width:1;" x1="8" x2="8" y1="189.75" y2="205.7188"/><line style="stroke:#000000;stroke-width:1;" x1="246.0234" x2="246.0234" y1="205.7188" y2="221.6875"/><line style="stroke:#000000;stroke-width:1;" x1="246.0234" x2="246.0234" y1="189.75" y2="205.7188"/><line style="stroke:#000000;stroke-width:1;" x1="8" x2="8" y1="237.6563" y2="245.6563"/><line style="stroke:#000000;stroke-width:1;" x1="8" x2="8" y1="221.6875" y2="237.6563"/><line style="stroke:#000000;stroke-width:1;" x1="246.0234" x2="246.0234" y1="237.6563" y2="245.6563"/><line style="stroke:#000000;stroke-width:1;" x1="8" x2="8" y1="205.7188" y2="221.6875"/><line style="stroke:#000000;stroke-width:1;" x1="246.0234" x2="246.0234" y1="221.6875" y2="237.6563"/><rect fill="none" height="55.9063" style="stroke:#000000;stroke-width:1;" width="15" x="250.0234" y="189.75"/><line style="stroke:#000000;stroke-width:1;" x1="250.0234" x2="265.0234" y1="201.75" y2="201.75"/><line style="stroke:#000000;stroke-width:1;" x1="250.0234" x2="265.0234" y1="233.6563" y2="233.6563"/><path d="M257.0234,193.75 L260.0234,198.75 L254.0234,198.75 L257.0234,193.75" fill="#000000"/><path d="M257.0234,242.6563 L260.0234,237.6563 L254.0234,237.6563 L257.0234,242.6563" fill="#000000"/><line style="stroke:#AAAAAA;stroke-width:1;stroke-dasharray:1,2;" x1="8" x2="277.0234" y1="251.1563" y2="251.1563"/><text fill="#000000" font-family="sans-serif" font-size="12" lengthAdjust="spacing" textLength="137.5195" x="8" y="266.7949">B&#250;squeda de alumnos:</text><text fill="#000000" font-family="sans-serif" font-size="12" lengthAdjust="spacing" textLength="153.8203" x="281.0234" y="266.7949">Nombre, DNI o ID alumno</text><line style="stroke:#000000;stroke-width:1;" x1="279.0234" x2="506.0234" y1="269.625" y2="269.625"/><line style="stroke:#000000;stroke-width:1;" x1="279.0234" x2="279.0234" y1="266.625" y2="268.625"/><line style="stroke:#000000;stroke-width:1;" x1="506.0234" x2="506.0234" y1="266.625" y2="268.625"/><rect fill="#EEEEEE" height="17.9688" rx="5" ry="5" style="stroke:#000000;stroke-width:2.5;" width="52" x="512.5234" y="258.1563"/><text fill="#000000" font-family="sans-serif" font-size="12" lengthAdjust="spacing" textLength="40.9746" x="518.0361" y="271.2949">Buscar</text><line style="stroke:#AAAAAA;stroke-width:1;stroke-dasharray:1,2;" x1="8" x2="277.0234" y1="284.125" y2="284.125"/><text fill="#000000" font-family="sans-serif" font-size="12" lengthAdjust="spacing" textLength="231.8086" x="8" y="299.7637">Alumnos seleccionados manualmente:</text><text fill="#000000" font-family="sans-serif" font-size="12" lengthAdjust="spacing" textLength="60.2168" x="29" y="316.7324">Ana P&#233;rez</text><rect fill="none" height="10" style="stroke:#000000;stroke-width:1.5;" width="10" x="11" y="307.5781"/><polygon fill="#000000" points="12,311.5938,15,314.5938,22,305.5938,15,312.5938" style="stroke:#000000;stroke-width:1.5;"/><text fill="#000000" font-family="sans-serif" font-size="12" lengthAdjust="spacing" textLength="69.7031" x="29" y="332.7012">Luis G&#243;mez</text><rect fill="none" height="10" style="stroke:#000000;stroke-width:1.5;" width="10" x="11" y="323.5469"/><polygon fill="#000000" points="12,327.5625,15,330.5625,22,321.5625,15,328.5625" style="stroke:#000000;stroke-width:1.5;"/><line style="stroke:#AAAAAA;stroke-width:1;stroke-dasharray:1,2;" x1="9" x2="99.7031" y1="341.0313" y2="341.0313"/><line style="stroke:#000000;stroke-width:1;" x1="8" x2="99.7031" y1="304.5938" y2="304.5938"/><line style="stroke:#000000;stroke-width:1;" x1="8" x2="99.7031" y1="344.5313" y2="344.5313"/><line style="stroke:#000000;stroke-width:1;" x1="8" x2="8" y1="304.5938" y2="320.5625"/><line style="stroke:#000000;stroke-width:1;" x1="99.7031" x2="99.7031" y1="320.5625" y2="336.5313"/><line style="stroke:#000000;stroke-width:1;" x1="99.7031" x2="99.7031" y1="304.5938" y2="320.5625"/><line style="stroke:#000000;stroke-width:1;" x1="8" x2="8" y1="336.5313" y2="344.5313"/><line style="stroke:#000000;stroke-width:1;" x1="8" x2="8" y1="320.5625" y2="336.5313"/><line style="stroke:#000000;stroke-width:1;" x1="99.7031" x2="99.7031" y1="336.5313" y2="344.5313"/><rect fill="none" height="39.9375" style="stroke:#000000;stroke-width:1;" width="15" x="103.7031" y="304.5938"/><line style="stroke:#000000;stroke-width:1;" x1="103.7031" x2="118.7031" y1="316.5938" y2="316.5938"/><line style="stroke:#000000;stroke-width:1;" x1="103.7031" x2="118.7031" y1="332.5313" y2="332.5313"/><path d="M110.7031,308.5938 L113.7031,313.5938 L107.7031,313.5938 L110.7031,308.5938" fill="#000000"/><path d="M110.7031,341.5313 L113.7031,336.5313 L107.7031,336.5313 L110.7031,341.5313" fill="#000000"/><line style="stroke:#AAAAAA;stroke-width:1;stroke-dasharray:1,2;" x1="8" x2="277.0234" y1="350.0313" y2="350.0313"/><text fill="#000000" font-family="sans-serif" font-size="12" lengthAdjust="spacing" textLength="196.125" x="8" y="365.6699">Total de alumnos seleccionados:</text><text fill="#000000" font-family="sans-serif" font-size="12" font-weight="bold" lengthAdjust="spacing" textLength="16.6992" x="207.9395" y="365.6699">85</text><line style="stroke:#AAAAAA;stroke-width:1.5;" x1="7" x2="569.0234" y1="375" y2="375"/><text fill="#000000" font-family="sans-serif" font-size="12" font-style="italic" lengthAdjust="spacing" textLength="421.3535" x="7" y="406.6074">El sistema registrar&#225; qu&#233; examen generado se asigna a cada alumno,</text><text fill="#000000" font-family="sans-serif" font-size="12" lengthAdjust="spacing" textLength="289.9922" x="7" y="422.5762">generando internamente su clave alfanum&#233;rica.</text><line style="stroke:#AAAAAA;stroke-width:1.5;" x1="7" x2="569.0234" y1="430.9063" y2="430.9063"/><rect fill="#EEEEEE" height="17.9688" rx="5" ry="5" style="stroke:#000000;stroke-width:2.5;" width="132" x="10.5" y="454.875"/><text fill="#000000" font-family="sans-serif" font-size="12" lengthAdjust="spacing" textLength="111.2695" x="20.8652" y="468.0137">Asignar ex&#225;menes</text><rect fill="#EEEEEE" height="17.9688" rx="5" ry="5" style="stroke:#000000;stroke-width:2.5;" width="68" x="149.5" y="454.875"/><text fill="#000000" font-family="sans-serif" font-size="12" lengthAdjust="spacing" textLength="52.9395" x="157.0303" y="468.0137">Cancelar</text><rect fill="none" height="55.9063" style="stroke:#000000;stroke-width:1;" width="15" x="250.0234" y="189.75"/><line style="stroke:#000000;stroke-width:1;" x1="250.0234" x2="265.0234" y1="201.75" y2="201.75"/><line style="stroke:#000000;stroke-width:1;" x1="250.0234" x2="265.0234" y1="233.6563" y2="233.6563"/><path d="M257.0234,193.75 L260.0234,198.75 L254.0234,198.75 L257.0234,193.75" fill="#000000"/><path d="M257.0234,242.6563 L260.0234,237.6563 L254.0234,237.6563 L257.0234,242.6563" fill="#000000"/><rect fill="none" height="39.9375" style="stroke:#000000;stroke-width:1;" width="15" x="103.7031" y="304.5938"/><line style="stroke:#000000;stroke-width:1;" x1="103.7031" x2="118.7031" y1="316.5938" y2="316.5938"/><line style="stroke:#000000;stroke-width:1;" x1="103.7031" x2="118.7031" y1="332.5313" y2="332.5313"/><path d="M110.7031,308.5938 L113.7031,313.5938 L107.7031,313.5938 L110.7031,308.5938" fill="#000000"/><path d="M110.7031,341.5313 L113.7031,336.5313 L107.7031,336.5313 L110.7031,341.5313" fill="#000000"/><!--SRC=[bLHHJ-9047xlhvZu18aWU73n6ZMYL5AbG02DYS7BqAvaatQhkrtYdOV9_HGVVRWdt-wrV-nc2yBLSCIRX-riTsRscszcvqWbA1E5OGAe-4IWT1umOeAfhwVTldVHRlJThlLe0Sd- -B0nS5kTHX-Sg_IdvtIS0RHexJUQtS7-plWmCpiuECY-SwU5uu25pFTv-YeWOC0UqkVi4fZGAZ68bRtqDr8gBTLL62ED36IY9Thp7p_WniE4HUbpmdrKuBetEOSJBLKCw6EGlaJSZstZiLlPhUtGKi_REbCCDMOeLz5xA7sE8LJpjkNoSZjRQklm_yr2awc44toK_7t6-JGBLqLeINqNAu9GW28qGXq9sd4Hy2aFD8PC_GkFaLP6AkmiejYvmyU1cziRkRuQWIke79p9z1UIVXlB1QjG-5G7d2CeVi0pq2gHXhD2lRB13qRWiO3xn0WKQXiio- -IcstA_3ZzhUur2z0qsYAaAVfM9ux6acr3i-D236vpSPWvRP71zR5MFihHfk1lPL3pTev5ndA4WWf23PsmZn7Te8nxwOjatzSUjpLNq4fVepNd_yN5C4we2YiUyhXjqv9xzLmRhkdbfwUbkeg-pm-T41HNzFGG99kG9b6cpt2lqnTwu6Q8B5yttRiOBu10Jn4NWBQNyUQMWamviIW5Pco2qk27E3K9t1B94N56_LZ-8CZ7w_cuaAk1CpA5Fa7Xiv1AFSzsPisi8oO2CmKjgnUYI2wyDaoPLCGKLCjcKfIhbS9GC-Z4KwZKe5gnTojsxGjuWo6Oyw9LQFNQe68jVGQ1eOEFTK81YjOPJX7wMYGyOZPqxvWuQvw__G17JBcCXKdOEhlqLWQVQwLZdi20IO82bvxLPBUeQL8xmey3BYOsN0nFItjM6yL4uuHYCs6Tn1HNVhD1w33y0m00]--></g></svg>