<svg xmlns="http://www.w3.org/2000/svg" xmlns:xlink="http://www.w3.org/1999/xlink" contentStyleType="text/css" data-diagram-type="STATE" height="726px" preserveAspectRatio="none" style="width:578px;height:726px;background:#FFFFFF;" version="1.1" viewBox="0 0 578 726" width="578px" zoomAndPan="magnify"><defs/><g><path d="M86,7 L504,7 A12.5,12.5 0 0 1 516.5,19.5 L516.5,33.2969 L73.5,33.2969 L73.5,19.5 A12.5,12.5 0 0 1 86,7" fill="#F1F1F1"/><rect fill="none" height="568.2969" rx="12.5" ry="12.5" style="stroke:#181818;stroke-width:0.5;" width="443" x="73.5" y="7"/><line style="stroke:#181818;stroke-width:0.5;" x1="73.5" x2="516.5" y1="33.2969" y2="33.2969"/><text fill="#000000" font-family="sans-serif" font-size="14" lengthAdjust="spacing" textLength="131.5645" x="229.2178" y="24.9951">eliminarPregunta()</text><g id="eliminarPregunta.ConfirmandoEliminacion"><rect fill="#F1F1F1" height="50" rx="12.5" ry="12.5" style="stroke:#181818;stroke-width:0.5;" width="50" x="85.5" y="135.2969"/><line style="stroke:#181818;stroke-width:0.5;" x1="85.5" x2="135.5" y1="161.5938" y2="161.5938"/><text fill="#000000" font-family="sans-serif" font-size="14" lengthAdjust="spacing" textLength="4.4502" x="108.2749" y="153.292">&#160;</text></g><g id="eliminarPregunta.EliminandoPregunta"><rect fill="#F1F1F1" height="50" rx="12.5" ry="12.5" style="stroke:#181818;stroke-width:0.5;" width="50" x="85.5" y="392.2969"/><line style="stroke:#181818;stroke-width:0.5;" x1="85.5" x2="135.5" y1="418.5938" y2="418.5938"/><text fill="#000000" font-family="sans-serif" font-size="14" lengthAdjust="spacing" textLength="4.4502" x="108.2749" y="410.292">&#160;</text></g><ellipse cx="110.5" cy="54.2969" fill="#222222" rx="10" ry="10" style="stroke:#222222;stroke-width:1;"/><ellipse cx="110.5" cy="554.2969" fill="none" rx="11" ry="11" style="stroke:#222222;stroke-width:1;"/><ellipse cx="110.5" cy="554.2969" fill="#222222" rx="6" ry="6" style="stroke:#222222;stroke-width:1;"/><!--link *start*eliminarPregunta to ConfirmandoEliminacion--><g class="link" data-entity-1=".start.eliminarPregunta" data-entity-2="ConfirmandoEliminacion" data-source-line="8" data-uid="lnk3" id="link_.start.eliminarPregunta_ConfirmandoEliminacion"><path d="M110.5,64.5269 C110.5,80.2369 110.5,106.6569 110.5,129.1669" fill="none" id="*start*eliminarPregunta-to-ConfirmandoEliminacion" style="stroke:#008000;stroke-width:1;"/><polygon fill="#008000" points="110.5,135.1669,114.5,126.1669,110.5,130.1669,106.5,126.1669,110.5,135.1669" style="stroke:#008000;stroke-width:1;"/><path d="M115.5,87.2969 L115.5,112.2969 L367.5,112.2969 L367.5,97.2969 L357.5,87.2969 L115.5,87.2969" fill="#FEFFDD" style="stroke:#181818;stroke-width:0.5;"/><path d="M357.5,87.2969 L357.5,97.2969 L367.5,97.2969 L357.5,87.2969" fill="#FEFFDD" style="stroke:#181818;stroke-width:0.5;"/><text fill="#000000" font-family="sans-serif" font-size="13" font-weight="bold" lengthAdjust="spacing" textLength="60.5313" x="121.5" y="104.3638">Docente</text><text fill="#000000" font-family="sans-serif" font-size="13" lengthAdjust="spacing" textLength="166.4736" x="186.1636" y="104.3638">solicita eliminar pregunta</text></g><!--link ConfirmandoEliminacion to EliminandoPregunta--><g class="link" data-entity-1="ConfirmandoEliminacion" data-entity-2="EliminandoPregunta" data-source-line="13" data-uid="lnk4" id="link_ConfirmandoEliminacion_EliminandoPregunta"><path d="M110.5,185.7469 C110.5,234.4869 110.5,337.2369 110.5,385.9169" fill="none" id="ConfirmandoEliminacion-to-EliminandoPregunta" style="stroke:#008000;stroke-width:1;"/><polygon fill="#008000" points="110.5,391.9169,114.5,382.9169,110.5,386.9169,106.5,382.9169,110.5,391.9169" style="stroke:#008000;stroke-width:1;"/><path d="M115.5,208.2969 L115.5,369.2969 L507.5,369.2969 L507.5,218.2969 L497.5,208.2969 L115.5,208.2969" fill="#FEFFDD" style="stroke:#181818;stroke-width:0.5;"/><path d="M497.5,208.2969 L497.5,218.2969 L507.5,218.2969 L497.5,208.2969" fill="#FEFFDD" style="stroke:#181818;stroke-width:0.5;"/><text fill="#000000" font-family="sans-serif" font-size="13" font-weight="bold" lengthAdjust="spacing" textLength="58.9063" x="121.5" y="225.3638">Sistema</text><text fill="#000000" font-family="sans-serif" font-size="13" lengthAdjust="spacing" textLength="308.001" x="184.5386" y="225.3638">presenta informaci&#243;n de la pregunta a eliminar</text><text fill="#000000" font-family="sans-serif" font-size="13" lengthAdjust="spacing" textLength="82.1831" x="121.5" y="240.4966">&#8226; Asignatura</text><text fill="#000000" font-family="sans-serif" font-size="13" lengthAdjust="spacing" textLength="79.6631" x="121.5" y="255.6294">&#8226; Enunciado</text><text fill="#000000" font-family="sans-serif" font-size="13" lengthAdjust="spacing" textLength="48.3691" x="121.5" y="270.7622">&#8226; Tema</text><text fill="#000000" font-family="sans-serif" font-size="13" lengthAdjust="spacing" textLength="73.9248" x="121.5" y="285.895">&#8226; Dificultad</text><text fill="#000000" font-family="sans-serif" font-size="13" lengthAdjust="spacing" textLength="86.7026" x="121.5" y="301.0278">&#8226; Respuestas</text><text fill="#000000" font-family="sans-serif" font-size="13" lengthAdjust="spacing" textLength="4.1323" x="121.5" y="316.1606">&#160;</text><text fill="#000000" font-family="sans-serif" font-size="13" lengthAdjust="spacing" textLength="249.6724" x="121.5" y="331.2935">&#8226; Presenta advertencia de eliminaci&#243;n</text><text fill="#000000" font-family="sans-serif" font-size="13" lengthAdjust="spacing" textLength="263.3706" x="121.5" y="346.4263">&#8226; Permite solicitar confirmar eliminaci&#243;n</text><text fill="#000000" font-family="sans-serif" font-size="13" lengthAdjust="spacing" textLength="255.9438" x="121.5" y="361.5591">&#8226; Permite solicitar cancelar eliminaci&#243;n</text></g><!--link EliminandoPregunta to *end*eliminarPregunta--><g class="link" data-entity-1="EliminandoPregunta" data-entity-2=".end.eliminarPregunta" data-source-line="27" data-uid="lnk6" id="link_EliminandoPregunta_.end.eliminarPregunta"><path d="M110.5,442.7469 C110.5,472.5269 110.5,515.5069 110.5,536.8369" fill="none" id="EliminandoPregunta-to-*end*eliminarPregunta" style="stroke:#008000;stroke-width:1;"/><polygon fill="#008000" points="110.5,542.8369,114.5,533.8369,110.5,537.8369,106.5,533.8369,110.5,542.8369" style="stroke:#008000;stroke-width:1;"/><path d="M115.5,465.2969 L115.5,520.2969 L451.5,520.2969 L451.5,475.2969 L441.5,465.2969 L115.5,465.2969" fill="#FEFFDD" style="stroke:#181818;stroke-width:0.5;"/><path d="M441.5,465.2969 L441.5,475.2969 L451.5,475.2969 L441.5,465.2969" fill="#FEFFDD" style="stroke:#181818;stroke-width:0.5;"/><text fill="#000000" font-family="sans-serif" font-size="13" font-weight="bold" lengthAdjust="spacing" textLength="60.5313" x="121.5" y="482.3638">Docente</text><text fill="#000000" font-family="sans-serif" font-size="13" lengthAdjust="spacing" textLength="233.5303" x="186.1636" y="482.3638">solicita confirmaci&#243;n de eliminaci&#243;n</text><text fill="#000000" font-family="sans-serif" font-size="13" font-weight="bold" lengthAdjust="spacing" textLength="58.9063" x="121.5" y="497.4966">Sistema</text><text fill="#000000" font-family="sans-serif" font-size="13" lengthAdjust="spacing" textLength="251.9829" x="184.5386" y="497.4966">permite solicitar confirmar eliminaci&#243;n</text><text fill="#000000" font-family="sans-serif" font-size="13" font-weight="bold" lengthAdjust="spacing" textLength="69.4624" x="121.5" y="512.6294">Doocente</text><text fill="#000000" font-family="sans-serif" font-size="13" lengthAdjust="spacing" textLength="191.5405" x="195.0947" y="512.6294">solicita confirmar eliminaci&#243;n</text></g><g id="PREGUNTAS_ABIERTO"><rect fill="#F1F1F1" height="50" rx="12.5" ry="12.5" style="stroke:#181818;stroke-width:0.5;" width="174.0547" x="207.97" y="670.3"/><line style="stroke:#181818;stroke-width:0.5;" x1="207.97" x2="382.0247" y1="696.5969" y2="696.5969"/><text fill="#000000" font-family="sans-serif" font-size="14" lengthAdjust="spacing" textLength="154.0547" x="217.97" y="688.2951">PREGUNTAS_ABIERTO</text></g><!--link PREGUNTAS_ABIERTO to eliminarPregunta--><g class="link" data-entity-1="PREGUNTAS_ABIERTO" data-entity-2="eliminarPregunta" data-source-line="35" data-uid="lnk8" id="link_PREGUNTAS_ABIERTO_eliminarPregunta"><path d="M382.33,677.21 C463.19,661.39 571,640.3 571,640.3 C571,640.3 571,605.3 571,605.3 C571,605.3 552.6775,584.5109 520.7675,548.3109" fill="none" id="PREGUNTAS_ABIERTO-to-eliminarPregunta" style="stroke:#008000;stroke-width:1;"/><polygon fill="#008000" points="516.8,543.81,519.7507,553.2065,520.1063,547.5608,525.752,547.9164,516.8,543.81" style="stroke:#008000;stroke-width:1;"/></g><!--link eliminarPregunta to PREGUNTAS_ABIERTO--><g class="link" data-entity-1="eliminarPregunta" data-entity-2="PREGUNTAS_ABIERTO" data-source-line="37" data-uid="lnk9" id="link_eliminarPregunta_PREGUNTAS_ABIERTO"><path d="M73.03,532.67 C34.22,574.72 6,605.3 6,605.3 C6,605.3 6,640.3 6,640.3 C6,640.3 116.552,660.9582 201.612,676.8482" fill="none" id="eliminarPregunta-to-PREGUNTAS_ABIERTO" style="stroke:#008000;stroke-width:1;"/><polygon fill="#008000" points="207.51,677.95,199.3976,672.3653,202.595,677.0318,197.9285,680.2293,207.51,677.95" style="stroke:#008000;stroke-width:1;"/><path d="M11,610.3 L11,635.3 L247,635.3 L247,620.3 L237,610.3 L11,610.3" fill="#FEFFDD" style="stroke:#181818;stroke-width:0.5;"/><path d="M237,610.3 L237,620.3 L247,620.3 L237,610.3" fill="#FEFFDD" style="stroke:#181818;stroke-width:0.5;"/><text fill="#000000" font-family="sans-serif" font-size="13" lengthAdjust="spacing" textLength="215.7251" x="17" y="627.3669">verPreguntas() - lista actualizada</text></g><!--link eliminarPregunta to PREGUNTAS_ABIERTO--><g class="link" data-entity-1="eliminarPregunta" data-entity-2="PREGUNTAS_ABIERTO" data-source-line="42" data-uid="lnk10" id="link_eliminarPregunta_PREGUNTAS_ABIERTO"><path d="M288.66,575.56 C288.25,593.94 288,605.3 288,605.3 C288,605.3 288,640.3 288,640.3 C288,640.3 289.2097,649.5897 291.0597,663.8797" fill="none" id="eliminarPregunta-to-PREGUNTAS_ABIERTO-1" style="stroke:#0000FF;stroke-width:1;"/><polygon fill="#0000FF" points="291.83,669.83,294.6414,660.3909,291.1881,664.8714,286.7076,661.418,291.83,669.83" style="stroke:#0000FF;stroke-width:1;"/><path d="M293,610.3 L293,635.3 L558,635.3 L558,620.3 L548,610.3 L293,610.3" fill="#FEFFDD" style="stroke:#181818;stroke-width:0.5;"/><path d="M548,610.3 L548,620.3 L558,620.3 L548,610.3" fill="#FEFFDD" style="stroke:#181818;stroke-width:0.5;"/><text fill="#000000" font-family="sans-serif" font-size="13" lengthAdjust="spacing" textLength="244.0928" x="299" y="627.3669">verPreguntas() - cancelar eliminaci&#243;n</text></g><!--SRC=[dLDHIWCn4FtFAORweqBn0gLGjOW_Mjhw9IBJxBGCPYTBaXLK1C_Y5Jo2D_4aPbTtj-skHTt0GYPlvhqta_WxbWmTfc1OA3na19ar3yL6AHym493Xb0NTnD4gbu207dhRmVs37Zmf1V7xokh55O4dLfRiKfJ4ZhzID5jfuxuF8wogM6BAt_NX3VIlzrQEI6xwmrqrnSQILWepTsLWi1YUMaqIQ72q68AtXZL73vL-oDRfI9AoHCFTpRKXvmVfNL9cx0EbM4g9n9wATh8iRMJG_Fuca10Oh4L18xGiyV7o2YFFAy6GEuGwDfPSD6DYcz0yyZIxKrwopat0f0vDoMSvnI5uQEmM1vDA62Rtv08LbGjTLFcFEXimkPIZqQgn3lHtnzol4r0qcIvyUnpjNc-C8jwKlrs3IcpT_9Q6xQdznM_9kejsb-TdfIRJyTdLnNmqknqTdu-dyyiDizjFKAdMIrs7jugfZIx5KLTfVly0-Z7gYpkWGuw67p51LKlh95gOdFx3qpt-YkiJ]--></g></svg>