<svg xmlns="http://www.w3.org/2000/svg" xmlns:xlink="http://www.w3.org/1999/xlink" contentStyleType="text/css" data-diagram-type="STATE" height="856px" preserveAspectRatio="none" style="width:497px;height:856px;background:#FFFFFF;" version="1.1" viewBox="0 0 497 856" width="497px" zoomAndPan="magnify"><defs/><g><g id="PREGUNTAS_ABIERTO"><rect fill="#F1F1F1" height="50" rx="12.5" ry="12.5" style="stroke:#181818;stroke-width:0.5;" width="174.0547" x="158.5" y="7"/><line style="stroke:#181818;stroke-width:0.5;" x1="158.5" x2="332.5547" y1="33.2969" y2="33.2969"/><text fill="#000000" font-family="sans-serif" font-size="14" lengthAdjust="spacing" textLength="154.0547" x="168.5" y="24.9951">PREGUNTAS_ABIERTO</text></g><g id="PREGUNTAS_CONTEXTUALES_ABIERTO"><rect fill="#F1F1F1" height="50" rx="12.5" ry="12.5" style="stroke:#181818;stroke-width:0.5;" width="293.2188" x="99" y="800"/><line style="stroke:#181818;stroke-width:0.5;" x1="99" x2="392.2188" y1="826.2969" y2="826.2969"/><text fill="#000000" font-family="sans-serif" font-size="14" lengthAdjust="spacing" textLength="273.2188" x="109" y="817.9951">PREGUNTAS_CONTEXTUALES_ABIERTO</text></g><path d="M19.5,152 L471.5,152 A12.5,12.5 0 0 1 484,164.5 L484,178.2969 L7,178.2969 L7,164.5 A12.5,12.5 0 0 1 19.5,152" fill="#F1F1F1"/><rect fill="none" height="553.2969" rx="12.5" ry="12.5" style="stroke:#181818;stroke-width:0.5;" width="477" x="7" y="152"/><line style="stroke:#181818;stroke-width:0.5;" x1="7" x2="484" y1="178.2969" y2="178.2969"/><text fill="#000000" font-family="sans-serif" font-size="14" lengthAdjust="spacing" textLength="131.5645" x="179.7178" y="169.9951">eliminarPregunta()</text><g id="eliminarPregunta.ConfirmandoEliminacion"><rect fill="#F1F1F1" height="50" rx="12.5" ry="12.5" style="stroke:#181818;stroke-width:0.5;" width="50" x="193" y="280.2969"/><line style="stroke:#181818;stroke-width:0.5;" x1="193" x2="243" y1="306.5938" y2="306.5938"/><text fill="#000000" font-family="sans-serif" font-size="14" lengthAdjust="spacing" textLength="4.4502" x="215.7749" y="298.292">&#160;</text></g><g id="eliminarPregunta.EliminandoPregunta"><rect fill="#F1F1F1" height="50" rx="12.5" ry="12.5" style="stroke:#181818;stroke-width:0.5;" width="50" x="19" y="537.2969"/><line style="stroke:#181818;stroke-width:0.5;" x1="19" x2="69" y1="563.5938" y2="563.5938"/><text fill="#000000" font-family="sans-serif" font-size="14" lengthAdjust="spacing" textLength="4.4502" x="41.7749" y="555.292">&#160;</text></g><ellipse cx="218" cy="199.2969" fill="#222222" rx="10" ry="10" style="stroke:#222222;stroke-width:1;"/><ellipse cx="220" cy="684.2969" fill="none" rx="11" ry="11" style="stroke:#222222;stroke-width:1;"/><ellipse cx="220" cy="684.2969" fill="#222222" rx="6" ry="6" style="stroke:#222222;stroke-width:1;"/><!--link *start*eliminarPregunta to ConfirmandoEliminacion--><g class="link" data-entity-1=".start.eliminarPregunta" data-entity-2="ConfirmandoEliminacion" data-source-line="16" data-uid="lnk5" id="link_.start.eliminarPregunta_ConfirmandoEliminacion"><path d="M218,209.5269 C218,225.2369 218,251.6569 218,274.1669" fill="none" id="*start*eliminarPregunta-to-ConfirmandoEliminacion" style="stroke:#008000;stroke-width:1;"/><polygon fill="#008000" points="218,280.1669,222,271.1669,218,275.1669,214,271.1669,218,280.1669" style="stroke:#008000;stroke-width:1;"/><path d="M223,232.2969 L223,257.2969 L475,257.2969 L475,242.2969 L465,232.2969 L223,232.2969" fill="#FEFFDD" style="stroke:#181818;stroke-width:0.5;"/><path d="M465,232.2969 L465,242.2969 L475,242.2969 L465,232.2969" fill="#FEFFDD" style="stroke:#181818;stroke-width:0.5;"/><text fill="#000000" font-family="sans-serif" font-size="13" font-weight="bold" lengthAdjust="spacing" textLength="60.5313" x="229" y="249.3638">Docente</text><text fill="#000000" font-family="sans-serif" font-size="13" lengthAdjust="spacing" textLength="166.4736" x="293.6636" y="249.3638">solicita eliminar pregunta</text></g><!--link ConfirmandoEliminacion to EliminandoPregunta--><g class="link" data-entity-1="ConfirmandoEliminacion" data-entity-2="EliminandoPregunta" data-source-line="21" data-uid="lnk6" id="link_ConfirmandoEliminacion_EliminandoPregunta"><path d="M192.93,312.3169 C144.54,323.9269 43,348.2969 43,348.2969 C43,348.2969 43,519.2969 43,519.2969 C43,519.2969 43.0572,521.6286 43.2772,530.8686" fill="none" id="ConfirmandoEliminacion-to-EliminandoPregunta" style="stroke:#008000;stroke-width:1;"/><polygon fill="#008000" points="43.42,536.8669,47.2046,527.7742,43.301,531.8683,39.2069,527.9646,43.42,536.8669" style="stroke:#008000;stroke-width:1;"/><path d="M48,353.2969 L48,514.2969 L375,514.2969 L375,363.2969 L365,353.2969 L48,353.2969" fill="#FEFFDD" style="stroke:#181818;stroke-width:0.5;"/><path d="M365,353.2969 L365,363.2969 L375,363.2969 L365,353.2969" fill="#FEFFDD" style="stroke:#181818;stroke-width:0.5;"/><text fill="#000000" font-family="sans-serif" font-size="13" font-weight="bold" lengthAdjust="spacing" textLength="58.9063" x="54" y="370.3638">Sistema</text><text fill="#000000" font-family="sans-serif" font-size="13" lengthAdjust="spacing" textLength="243.1025" x="117.0386" y="370.3638">presenta informaci&#243;n de la pregunta:</text><text fill="#000000" font-family="sans-serif" font-size="13" lengthAdjust="spacing" textLength="82.1831" x="54" y="385.4966">&#8226; Asignatura</text><text fill="#000000" font-family="sans-serif" font-size="13" lengthAdjust="spacing" textLength="79.6631" x="54" y="400.6294">&#8226; Enunciado</text><text fill="#000000" font-family="sans-serif" font-size="13" lengthAdjust="spacing" textLength="48.3691" x="54" y="415.7622">&#8226; Tema</text><text fill="#000000" font-family="sans-serif" font-size="13" lengthAdjust="spacing" textLength="73.9248" x="54" y="430.895">&#8226; Dificultad</text><text fill="#000000" font-family="sans-serif" font-size="13" lengthAdjust="spacing" textLength="86.7026" x="54" y="446.0278">&#8226; Respuestas</text><text fill="#000000" font-family="sans-serif" font-size="13" lengthAdjust="spacing" textLength="4.1323" x="54" y="461.1606">&#160;</text><text fill="#000000" font-family="sans-serif" font-size="13" lengthAdjust="spacing" textLength="249.6724" x="54" y="476.2935">&#8226; Presenta advertencia de eliminaci&#243;n</text><text fill="#000000" font-family="sans-serif" font-size="13" lengthAdjust="spacing" textLength="263.3706" x="54" y="491.4263">&#8226; Permite solicitar confirmar eliminaci&#243;n</text><text fill="#000000" font-family="sans-serif" font-size="13" lengthAdjust="spacing" textLength="255.9438" x="54" y="506.5591">&#8226; Permite solicitar cancelar eliminaci&#243;n</text></g><!--link EliminandoPregunta to *end*eliminarPregunta--><g class="link" data-entity-1="EliminandoPregunta" data-entity-2=".end.eliminarPregunta" data-source-line="35" data-uid="lnk8" id="link_EliminandoPregunta_.end.eliminarPregunta"><path d="M45.84,587.4669 C47.91,614.7269 51,655.2969 51,655.2969 C51,655.2969 165.9507,674.3461 203.2507,680.5261" fill="none" id="EliminandoPregunta-to-*end*eliminarPregunta" style="stroke:#008000;stroke-width:1;"/><polygon fill="#008000" points="209.17,681.5069,200.9449,676.0896,204.2372,680.6896,199.6372,683.982,209.17,681.5069" style="stroke:#008000;stroke-width:1;"/><path d="M56,610.2969 L56,650.2969 L375,650.2969 L375,620.2969 L365,610.2969 L56,610.2969" fill="#FEFFDD" style="stroke:#181818;stroke-width:0.5;"/><path d="M365,610.2969 L365,620.2969 L375,620.2969 L365,610.2969" fill="#FEFFDD" style="stroke:#181818;stroke-width:0.5;"/><text fill="#000000" font-family="sans-serif" font-size="13" font-weight="bold" lengthAdjust="spacing" textLength="60.5313" x="62" y="627.3638">Docente</text><text fill="#000000" font-family="sans-serif" font-size="13" lengthAdjust="spacing" textLength="233.5303" x="126.6636" y="627.3638">solicita confirmaci&#243;n de eliminaci&#243;n</text><text fill="#000000" font-family="sans-serif" font-size="13" font-weight="bold" lengthAdjust="spacing" textLength="58.9063" x="62" y="642.4966">Sistema</text><text fill="#000000" font-family="sans-serif" font-size="13" lengthAdjust="spacing" textLength="129.7524" x="125.0386" y="642.4966">permite eliminaci&#243;n</text></g><!--link ConfirmandoEliminacion to *end*eliminarPregunta--><g class="link" data-entity-1="ConfirmandoEliminacion" data-entity-2=".end.eliminarPregunta" data-source-line="42" data-uid="lnk9" id="link_ConfirmandoEliminacion_.end.eliminarPregunta"><path d="M243.31,312.8569 C288.88,324.6769 380,348.2969 380,348.2969 C380,348.2969 380,655.2969 380,655.2969 C380,655.2969 272.5301,674.1022 236.6601,680.3822" fill="none" id="ConfirmandoEliminacion-to-*end*eliminarPregunta" style="stroke:#FF0000;stroke-width:1;"/><polygon fill="#FF0000" points="230.75,681.4169,240.305,683.8049,235.6751,680.5546,238.9253,675.9247,230.75,681.4169" style="stroke:#FF0000;stroke-width:1;"/></g><!--link PREGUNTAS_ABIERTO to eliminarPregunta--><g class="link" data-entity-1="PREGUNTAS_ABIERTO" data-entity-2="eliminarPregunta" data-source-line="8" data-uid="lnk2" id="link_PREGUNTAS_ABIERTO_eliminarPregunta"><path d="M238.98,57.08 C236.45,78.58 234.8425,106.6219 233.8525,145.5519" fill="none" id="PREGUNTAS_ABIERTO-to-eliminarPregunta" style="stroke:#008000;stroke-width:1;"/><polygon fill="#008000" points="233.7,151.55,237.9275,142.6546,233.8271,146.5516,229.9301,142.4512,233.7,151.55" style="stroke:#008000;stroke-width:1;"/></g><!--link eliminarPregunta to PREGUNTAS_ABIERTO--><g class="link" data-entity-1="eliminarPregunta" data-entity-2="PREGUNTAS_ABIERTO" data-source-line="47" data-uid="lnk10" id="link_eliminarPregunta_PREGUNTAS_ABIERTO"><path d="M258,151.55 C256.95,112.62 255.8222,84.5339 253.1422,63.0339" fill="none" id="eliminarPregunta-to-PREGUNTAS_ABIERTO" style="stroke:#008000;stroke-width:1;"/><polygon fill="#008000" points="252.4,57.08,249.544,66.5057,253.0185,62.0416,257.4825,65.5161,252.4,57.08" style="stroke:#008000;stroke-width:1;"/></g><!--link eliminarPregunta to PREGUNTAS_ABIERTO--><g class="link" data-entity-1="eliminarPregunta" data-entity-2="PREGUNTAS_ABIERTO" data-source-line="49" data-uid="lnk11" id="link_eliminarPregunta_PREGUNTAS_ABIERTO"><path d="M277.98,151.85 C280.15,133.42 281.5,122 281.5,122 C281.5,122 281.5,87 281.5,87 C281.5,87 274.5206,76.5207 264.9306,62.1507" fill="none" id="eliminarPregunta-to-PREGUNTAS_ABIERTO-1" style="stroke:#0000FF;stroke-width:1;"/><polygon fill="#0000FF" points="261.6,57.16,263.2688,66.8665,264.3755,61.3189,269.923,62.4256,261.6,57.16" style="stroke:#0000FF;stroke-width:1;"/><path d="M286.5,92 L286.5,117 L432.5,117 L432.5,102 L422.5,92 L286.5,92" fill="#FEFFDD" style="stroke:#181818;stroke-width:0.5;"/><path d="M422.5,92 L422.5,102 L432.5,102 L422.5,92" fill="#FEFFDD" style="stroke:#181818;stroke-width:0.5;"/><text fill="#000000" font-family="sans-serif" font-size="13" lengthAdjust="spacing" textLength="125.9502" x="292.5" y="109.0669">Cancelar operaci&#243;n</text></g><!--link PREGUNTAS_CONTEXTUALES_ABIERTO to eliminarPregunta--><g class="link" data-entity-1="PREGUNTAS_CONTEXTUALES_ABIERTO" data-entity-2="eliminarPregunta" data-source-line="9" data-uid="lnk3" id="link_PREGUNTAS_CONTEXTUALES_ABIERTO_eliminarPregunta"><path d="M245.5,799.78 C245.5,778.22 245.5,750.1 245.5,711.1" fill="none" id="PREGUNTAS_CONTEXTUALES_ABIERTO-to-eliminarPregunta" style="stroke:#008000;stroke-width:1;"/><polygon fill="#008000" points="245.5,705.1,241.5,714.1,245.5,710.1,249.5,714.1,245.5,705.1" style="stroke:#008000;stroke-width:1;"/></g><!--link eliminarPregunta to PREGUNTAS_CONTEXTUALES_ABIERTO--><g class="link" data-entity-1="eliminarPregunta" data-entity-2="PREGUNTAS_CONTEXTUALES_ABIERTO" data-source-line="56" data-uid="lnk12" id="link_eliminarPregunta_PREGUNTAS_CONTEXTUALES_ABIERTO"><path d="M262.64,705.15 C263.79,723.58 264.5,735 264.5,735 C264.5,735 264.5,770 264.5,770 C264.5,770 261.0528,779.8106 255.9928,794.1806" fill="none" id="eliminarPregunta-to-PREGUNTAS_CONTEXTUALES_ABIERTO" style="stroke:#008000;stroke-width:1;"/><polygon fill="#008000" points="254,799.84,260.7621,792.6794,255.6607,795.1238,253.2163,790.0224,254,799.84" style="stroke:#008000;stroke-width:1;"/></g><!--link eliminarPregunta to PREGUNTAS_CONTEXTUALES_ABIERTO--><g class="link" data-entity-1="eliminarPregunta" data-entity-2="PREGUNTAS_CONTEXTUALES_ABIERTO" data-source-line="58" data-uid="lnk13" id="link_eliminarPregunta_PREGUNTAS_CONTEXTUALES_ABIERTO"><path d="M97.52,705.15 C87.63,723.58 81.5,735 81.5,735 C81.5,735 81.5,770 81.5,770 C81.5,770 122.7708,783.5942 166.4308,797.9642" fill="none" id="eliminarPregunta-to-PREGUNTAS_CONTEXTUALES_ABIERTO-1" style="stroke:#0000FF;stroke-width:1;"/><polygon fill="#0000FF" points="172.13,799.84,164.8317,793.2268,167.3806,798.2768,162.3306,800.8258,172.13,799.84" style="stroke:#0000FF;stroke-width:1;"/><path d="M86.5,740 L86.5,765 L232.5,765 L232.5,750 L222.5,740 L86.5,740" fill="#FEFFDD" style="stroke:#181818;stroke-width:0.5;"/><path d="M222.5,740 L222.5,750 L232.5,750 L222.5,740" fill="#FEFFDD" style="stroke:#181818;stroke-width:0.5;"/><text fill="#000000" font-family="sans-serif" font-size="13" lengthAdjust="spacing" textLength="125.9502" x="92.5" y="757.0669">Cancelar operaci&#243;n</text></g><!--SRC=[bLHhQjj04FwlKmpE3oU5fFJnAmI3QeaGC8wn5IY44DRIs2oHPiNkgYIKGi_IA_G8kKbFqbb53zkIZIE3O4SpyprcFUP9KYwqo22LXFObHyXL-k8EdZU4JnSGu4gIZENhNu848JHM9Cf0-6nHap8Udot2R1vUtqqZV_7eVxi9vz5j9pw-dKRXz-ZEduHj4aDyle182p8CeGXDYJ6DvdxWUvscS7v_ijQ8z70-0anb9adecSPrGLPuXx4ErrPqT-CW30nsWwTd0_ZfUS3FMzM0VvmuLhIIEXEKgF2jn4dgvbKVEQs1TpbGlky_F6mnFT2K5FTKv2RtL0QkbgD0nKWMhpukHs1KogQoY5e0v9juI4dPOWEy7soBpnxoVLmMqbZCHCc5aGqwGoMj52CqzoaL3QlBil3Vxp_W6xacOGije8c5L50i-UwreOYxjwT0hcHSf7mzcz0SJLuWcszWGwNxCglvYEG7QekkjQE3jMocroQZpYJhgmtL45T6wQCB1CMOzkNtZA7hyTO8-8gyR_ursyRq3edTQLNyzvCjJqDOY5GcRgXk6PG6LaBRalrtIcDIo_dbDi6NxYPO-9ERm8VJiJ3g4YPCKS0r4cgHddbUvz-wwL9t8_NcBzC2-zEtx1tNyrFiJQMkDMC8Nu_ZpcPOVBR5U-ZtByxZjFJM7YtiFm00]--></g></svg>