<svg xmlns="http://www.w3.org/2000/svg" xmlns:xlink="http://www.w3.org/1999/xlink" contentStyleType="text/css" data-diagram-type="STATE" height="886px" preserveAspectRatio="none" style="width:604px;height:886px;background:#FFFFFF;" version="1.1" viewBox="0 0 604 886" width="604px" zoomAndPan="magnify"><defs/><g><g id="PREGUNTAS_ABIERTO"><rect fill="#F1F1F1" height="50" rx="12.5" ry="12.5" style="stroke:#181818;stroke-width:0.5;" width="174.0547" x="184.97" y="7"/><line style="stroke:#181818;stroke-width:0.5;" x1="184.97" x2="359.0247" y1="33.2969" y2="33.2969"/><text fill="#000000" font-family="sans-serif" font-size="14" lengthAdjust="spacing" textLength="154.0547" x="194.97" y="24.9951">PREGUNTAS_ABIERTO</text></g><g id="PREGUNTAS_CONTEXTUALES_ABIERTO"><rect fill="#F1F1F1" height="50" rx="12.5" ry="12.5" style="stroke:#181818;stroke-width:0.5;" width="293.2188" x="125.39" y="830.3"/><line style="stroke:#181818;stroke-width:0.5;" x1="125.39" x2="418.6088" y1="856.5969" y2="856.5969"/><text fill="#000000" font-family="sans-serif" font-size="14" lengthAdjust="spacing" textLength="273.2188" x="135.39" y="848.2951">PREGUNTAS_CONTEXTUALES_ABIERTO</text></g><path d="M46,167 L498,167 A12.5,12.5 0 0 1 510.5,179.5 L510.5,193.2969 L33.5,193.2969 L33.5,179.5 A12.5,12.5 0 0 1 46,167" fill="#F1F1F1"/><rect fill="none" height="553.2969" rx="12.5" ry="12.5" style="stroke:#181818;stroke-width:0.5;" width="477" x="33.5" y="167"/><line style="stroke:#181818;stroke-width:0.5;" x1="33.5" x2="510.5" y1="193.2969" y2="193.2969"/><text fill="#000000" font-family="sans-serif" font-size="14" lengthAdjust="spacing" textLength="131.5645" x="206.2178" y="184.9951">eliminarPregunta()</text><g id="eliminarPregunta.ConfirmandoEliminacion"><rect fill="#F1F1F1" height="50" rx="12.5" ry="12.5" style="stroke:#181818;stroke-width:0.5;" width="50" x="219.5" y="295.2969"/><line style="stroke:#181818;stroke-width:0.5;" x1="219.5" x2="269.5" y1="321.5938" y2="321.5938"/><text fill="#000000" font-family="sans-serif" font-size="14" lengthAdjust="spacing" textLength="4.4502" x="242.2749" y="313.292">&#160;</text></g><g id="eliminarPregunta.EliminandoPregunta"><rect fill="#F1F1F1" height="50" rx="12.5" ry="12.5" style="stroke:#181818;stroke-width:0.5;" width="50" x="45.5" y="552.2969"/><line style="stroke:#181818;stroke-width:0.5;" x1="45.5" x2="95.5" y1="578.5938" y2="578.5938"/><text fill="#000000" font-family="sans-serif" font-size="14" lengthAdjust="spacing" textLength="4.4502" x="68.2749" y="570.292">&#160;</text></g><ellipse cx="244.5" cy="214.2969" fill="#222222" rx="10" ry="10" style="stroke:#222222;stroke-width:1;"/><ellipse cx="246.5" cy="699.2969" fill="none" rx="11" ry="11" style="stroke:#222222;stroke-width:1;"/><ellipse cx="246.5" cy="699.2969" fill="#222222" rx="6" ry="6" style="stroke:#222222;stroke-width:1;"/><!--link *start*eliminarPregunta to ConfirmandoEliminacion--><g class="link" data-entity-1=".start.eliminarPregunta" data-entity-2="ConfirmandoEliminacion" data-source-line="16" data-uid="lnk5" id="link_.start.eliminarPregunta_ConfirmandoEliminacion"><path d="M244.5,224.5269 C244.5,240.2369 244.5,266.6569 244.5,289.1669" fill="none" id="*start*eliminarPregunta-to-ConfirmandoEliminacion" style="stroke:#008000;stroke-width:1;"/><polygon fill="#008000" points="244.5,295.1669,248.5,286.1669,244.5,290.1669,240.5,286.1669,244.5,295.1669" style="stroke:#008000;stroke-width:1;"/><path d="M249.5,247.2969 L249.5,272.2969 L501.5,272.2969 L501.5,257.2969 L491.5,247.2969 L249.5,247.2969" fill="#FEFFDD" style="stroke:#181818;stroke-width:0.5;"/><path d="M491.5,247.2969 L491.5,257.2969 L501.5,257.2969 L491.5,247.2969" fill="#FEFFDD" style="stroke:#181818;stroke-width:0.5;"/><text fill="#000000" font-family="sans-serif" font-size="13" font-weight="bold" lengthAdjust="spacing" textLength="60.5313" x="255.5" y="264.3638">Docente</text><text fill="#000000" font-family="sans-serif" font-size="13" lengthAdjust="spacing" textLength="166.4736" x="320.1636" y="264.3638">solicita eliminar pregunta</text></g><!--link ConfirmandoEliminacion to EliminandoPregunta--><g class="link" data-entity-1="ConfirmandoEliminacion" data-entity-2="EliminandoPregunta" data-source-line="21" data-uid="lnk6" id="link_ConfirmandoEliminacion_EliminandoPregunta"><path d="M219.05,327.4069 C170.52,339.0569 69.5,363.2969 69.5,363.2969 C69.5,363.2969 69.5,534.2969 69.5,534.2969 C69.5,534.2969 69.5572,536.6286 69.7772,545.8686" fill="none" id="ConfirmandoEliminacion-to-EliminandoPregunta" style="stroke:#008000;stroke-width:1;"/><polygon fill="#008000" points="69.92,551.8669,73.7046,542.7742,69.801,546.8683,65.7069,542.9646,69.92,551.8669" style="stroke:#008000;stroke-width:1;"/><path d="M74.5,368.2969 L74.5,529.2969 L401.5,529.2969 L401.5,378.2969 L391.5,368.2969 L74.5,368.2969" fill="#FEFFDD" style="stroke:#181818;stroke-width:0.5;"/><path d="M391.5,368.2969 L391.5,378.2969 L401.5,378.2969 L391.5,368.2969" fill="#FEFFDD" style="stroke:#181818;stroke-width:0.5;"/><text fill="#000000" font-family="sans-serif" font-size="13" font-weight="bold" lengthAdjust="spacing" textLength="58.9063" x="80.5" y="385.3638">Sistema</text><text fill="#000000" font-family="sans-serif" font-size="13" lengthAdjust="spacing" textLength="243.1025" x="143.5386" y="385.3638">presenta informaci&#243;n de la pregunta:</text><text fill="#000000" font-family="sans-serif" font-size="13" lengthAdjust="spacing" textLength="82.1831" x="80.5" y="400.4966">&#8226; Asignatura</text><text fill="#000000" font-family="sans-serif" font-size="13" lengthAdjust="spacing" textLength="79.6631" x="80.5" y="415.6294">&#8226; Enunciado</text><text fill="#000000" font-family="sans-serif" font-size="13" lengthAdjust="spacing" textLength="48.3691" x="80.5" y="430.7622">&#8226; Tema</text><text fill="#000000" font-family="sans-serif" font-size="13" lengthAdjust="spacing" textLength="73.9248" x="80.5" y="445.895">&#8226; Dificultad</text><text fill="#000000" font-family="sans-serif" font-size="13" lengthAdjust="spacing" textLength="86.7026" x="80.5" y="461.0278">&#8226; Respuestas</text><text fill="#000000" font-family="sans-serif" font-size="13" lengthAdjust="spacing" textLength="4.1323" x="80.5" y="476.1606">&#160;</text><text fill="#000000" font-family="sans-serif" font-size="13" lengthAdjust="spacing" textLength="249.6724" x="80.5" y="491.2935">&#8226; Presenta advertencia de eliminaci&#243;n</text><text fill="#000000" font-family="sans-serif" font-size="13" lengthAdjust="spacing" textLength="263.3706" x="80.5" y="506.4263">&#8226; Permite solicitar confirmar eliminaci&#243;n</text><text fill="#000000" font-family="sans-serif" font-size="13" lengthAdjust="spacing" textLength="255.9438" x="80.5" y="521.5591">&#8226; Permite solicitar cancelar eliminaci&#243;n</text></g><!--link EliminandoPregunta to *end*eliminarPregunta--><g class="link" data-entity-1="EliminandoPregunta" data-entity-2=".end.eliminarPregunta" data-source-line="35" data-uid="lnk8" id="link_EliminandoPregunta_.end.eliminarPregunta"><path d="M72.34,602.4669 C74.41,629.7269 77.5,670.2969 77.5,670.2969 C77.5,670.2969 191.8907,689.2461 229.4907,695.4761" fill="none" id="EliminandoPregunta-to-*end*eliminarPregunta" style="stroke:#008000;stroke-width:1;"/><polygon fill="#008000" points="235.41,696.4569,227.1849,691.0395,230.4773,695.6396,225.8772,698.9319,235.41,696.4569" style="stroke:#008000;stroke-width:1;"/><path d="M82.5,625.2969 L82.5,665.2969 L401.5,665.2969 L401.5,635.2969 L391.5,625.2969 L82.5,625.2969" fill="#FEFFDD" style="stroke:#181818;stroke-width:0.5;"/><path d="M391.5,625.2969 L391.5,635.2969 L401.5,635.2969 L391.5,625.2969" fill="#FEFFDD" style="stroke:#181818;stroke-width:0.5;"/><text fill="#000000" font-family="sans-serif" font-size="13" font-weight="bold" lengthAdjust="spacing" textLength="60.5313" x="88.5" y="642.3638">Docente</text><text fill="#000000" font-family="sans-serif" font-size="13" lengthAdjust="spacing" textLength="233.5303" x="153.1636" y="642.3638">solicita confirmaci&#243;n de eliminaci&#243;n</text><text fill="#000000" font-family="sans-serif" font-size="13" font-weight="bold" lengthAdjust="spacing" textLength="58.9063" x="88.5" y="657.4966">Sistema</text><text fill="#000000" font-family="sans-serif" font-size="13" lengthAdjust="spacing" textLength="183.9741" x="151.5386" y="657.4966">ejecuta borrado l&#243;gico/f&#237;sico</text></g><!--link ConfirmandoEliminacion to *end*eliminarPregunta--><g class="link" data-entity-1="ConfirmandoEliminacion" data-entity-2=".end.eliminarPregunta" data-source-line="42" data-uid="lnk9" id="link_ConfirmandoEliminacion_.end.eliminarPregunta"><path d="M269.81,327.8569 C315.37,339.6769 406.5,363.2969 406.5,363.2969 C406.5,363.2969 406.5,670.2969 406.5,670.2969 C406.5,670.2969 299.5601,689.012 263.4101,695.342" fill="none" id="ConfirmandoEliminacion-to-*end*eliminarPregunta" style="stroke:#FF0000;stroke-width:1;"/><polygon fill="#FF0000" points="257.5,696.3769,267.055,698.7646,262.4251,695.5145,265.6752,690.8845,257.5,696.3769" style="stroke:#FF0000;stroke-width:1;"/></g><!--link PREGUNTAS_ABIERTO to eliminarPregunta--><g class="link" data-entity-1="PREGUNTAS_ABIERTO" data-entity-2="eliminarPregunta" data-source-line="8" data-uid="lnk2" id="link_PREGUNTAS_ABIERTO_eliminarPregunta"><path d="M255.69,57.48 C246.16,71.76 236,87 236,87 C236,87 236,137 236,137 C236,137 236.6288,142.3611 238.7788,160.6311" fill="none" id="PREGUNTAS_ABIERTO-to-eliminarPregunta" style="stroke:#008000;stroke-width:1;"/><polygon fill="#008000" points="239.48,166.59,242.4007,157.1842,238.8956,161.6243,234.4556,158.1192,239.48,166.59" style="stroke:#008000;stroke-width:1;"/></g><!--link eliminarPregunta to PREGUNTAS_ABIERTO--><g class="link" data-entity-1="eliminarPregunta" data-entity-2="PREGUNTAS_ABIERTO" data-source-line="47" data-uid="lnk10" id="link_eliminarPregunta_PREGUNTAS_ABIERTO"><path d="M269.29,166.59 C269.11,148.32 269,137 269,137 C269,137 269,87 269,87 C269,87 269.5186,77.7508 270.3086,63.4708" fill="none" id="eliminarPregunta-to-PREGUNTAS_ABIERTO" style="stroke:#008000;stroke-width:1;"/><polygon fill="#008000" points="270.64,57.48,266.149,66.2453,270.3638,62.4724,274.1368,66.6872,270.64,57.48" style="stroke:#008000;stroke-width:1;"/><path d="M274,92 L274,132 L414,132 L414,102 L404,92 L274,92" fill="#FEFFDD" style="stroke:#181818;stroke-width:0.5;"/><path d="M404,92 L404,102 L414,102 L404,92" fill="#FEFFDD" style="stroke:#181818;stroke-width:0.5;"/><text fill="#000000" font-family="sans-serif" font-size="13" lengthAdjust="spacing" textLength="96.9287" x="280" y="109.0669">verPreguntas()</text><text fill="#000000" font-family="sans-serif" font-size="13" lengthAdjust="spacing" textLength="119.6152" x="280" y="124.1997">(Lista actualizada)</text></g><!--link eliminarPregunta to PREGUNTAS_ABIERTO--><g class="link" data-entity-1="eliminarPregunta" data-entity-2="PREGUNTAS_ABIERTO" data-source-line="53" data-uid="lnk11" id="link_eliminarPregunta_PREGUNTAS_ABIERTO"><path d="M408.38,166.59 C417.41,148.32 423,137 423,137 C423,137 423,87 423,87 C423,87 386.0299,73.7795 346.0799,59.4995" fill="none" id="eliminarPregunta-to-PREGUNTAS_ABIERTO-1" style="stroke:#0000FF;stroke-width:1;"/><polygon fill="#0000FF" points="340.43,57.48,347.5585,64.2759,345.1383,59.163,350.2512,56.7427,340.43,57.48" style="stroke:#0000FF;stroke-width:1;"/><path d="M428,92 L428,132 L597,132 L597,102 L587,92 L428,92" fill="#FEFFDD" style="stroke:#181818;stroke-width:0.5;"/><path d="M587,92 L587,102 L597,102 L587,92" fill="#FEFFDD" style="stroke:#181818;stroke-width:0.5;"/><text fill="#000000" font-family="sans-serif" font-size="13" lengthAdjust="spacing" textLength="125.9502" x="434" y="109.0669">Cancelar operaci&#243;n</text><text fill="#000000" font-family="sans-serif" font-size="13" lengthAdjust="spacing" textLength="148.4717" x="434" y="124.1997">(Volver a lista general)</text></g><!--link PREGUNTAS_CONTEXTUALES_ABIERTO to eliminarPregunta--><g class="link" data-entity-1="PREGUNTAS_CONTEXTUALES_ABIERTO" data-entity-2="eliminarPregunta" data-source-line="9" data-uid="lnk3" id="link_PREGUNTAS_CONTEXTUALES_ABIERTO_eliminarPregunta"><path d="M371.7,829.83 C429.91,815.54 492,800.3 492,800.3 C492,800.3 492,750.3 492,750.3 C492,750.3 487.3651,743.8598 474.2151,725.5898" fill="none" id="PREGUNTAS_CONTEXTUALES_ABIERTO-to-eliminarPregunta" style="stroke:#008000;stroke-width:1;"/><polygon fill="#008000" points="470.71,720.72,472.7211,730.3613,473.6309,724.7781,479.2141,725.6879,470.71,720.72" style="stroke:#008000;stroke-width:1;"/></g><!--link eliminarPregunta to PREGUNTAS_CONTEXTUALES_ABIERTO--><g class="link" data-entity-1="eliminarPregunta" data-entity-2="PREGUNTAS_CONTEXTUALES_ABIERTO" data-source-line="61" data-uid="lnk12" id="link_eliminarPregunta_PREGUNTAS_CONTEXTUALES_ABIERTO"><path d="M33.22,719.03 C16.45,738.29 6,750.3 6,750.3 C6,750.3 6,800.3 6,800.3 C6,800.3 75.19,814.3461 145.57,828.6361" fill="none" id="eliminarPregunta-to-PREGUNTAS_CONTEXTUALES_ABIERTO" style="stroke:#008000;stroke-width:1;"/><polygon fill="#008000" points="151.45,829.83,143.4259,824.1192,146.55,828.8351,141.834,831.9592,151.45,829.83" style="stroke:#008000;stroke-width:1;"/><path d="M11,755.3 L11,795.3 L224,795.3 L224,765.3 L214,755.3 L11,755.3" fill="#FEFFDD" style="stroke:#181818;stroke-width:0.5;"/><path d="M214,755.3 L214,765.3 L224,765.3 L214,755.3" fill="#FEFFDD" style="stroke:#181818;stroke-width:0.5;"/><text fill="#000000" font-family="sans-serif" font-size="13" lengthAdjust="spacing" textLength="96.9287" x="17" y="772.3669">verPreguntas()</text><text fill="#000000" font-family="sans-serif" font-size="13" lengthAdjust="spacing" textLength="192.791" x="17" y="787.4997">(Lista contextual actualizada)</text></g><!--link eliminarPregunta to PREGUNTAS_CONTEXTUALES_ABIERTO--><g class="link" data-entity-1="eliminarPregunta" data-entity-2="PREGUNTAS_CONTEXTUALES_ABIERTO" data-source-line="67" data-uid="lnk13" id="link_eliminarPregunta_PREGUNTAS_CONTEXTUALES_ABIERTO"><path d="M265.68,720.72 C265.26,738.99 265,750.3 265,750.3 C265,750.3 265,800.3 265,800.3 C265,800.3 266.2097,809.5897 268.0597,823.8797" fill="none" id="eliminarPregunta-to-PREGUNTAS_CONTEXTUALES_ABIERTO-1" style="stroke:#0000FF;stroke-width:1;"/><polygon fill="#0000FF" points="268.83,829.83,271.6414,820.3909,268.1881,824.8714,263.7076,821.418,268.83,829.83" style="stroke:#0000FF;stroke-width:1;"/><path d="M270,755.3 L270,795.3 L479,795.3 L479,765.3 L469,755.3 L270,755.3" fill="#FEFFDD" style="stroke:#181818;stroke-width:0.5;"/><path d="M469,755.3 L469,765.3 L479,765.3 L469,755.3" fill="#FEFFDD" style="stroke:#181818;stroke-width:0.5;"/><text fill="#000000" font-family="sans-serif" font-size="13" lengthAdjust="spacing" textLength="125.9502" x="276" y="772.3669">Cancelar operaci&#243;n</text><text fill="#000000" font-family="sans-serif" font-size="13" lengthAdjust="spacing" textLength="188.8999" x="276" y="787.4997">(Volver a lista de asignatura)</text></g><!--SRC=[fLJDQjj04BxhAGRtOBkGXFwSGZ2ejWW1unXRAOKGobWQcstMksPNAabB8S_IUqzv1Bz9dwIpiYNPbkAgr0B3ZcRc-zdHs7kXLcXm2L8eIXvN12ij7zt1yzhmvXG6D1TAH6Bzh20c26o2iROGF2HabBOUdnE2yIIul1c5_lIp_-4gc8JNbNZ_UXG6dy8RVnYKIGpnzXH2WyeoX5PaCunHEF47lbTf2YUthnQ6IDsTz82aM0g5PcneaQe4lUDOnsktT0_ZW1PQXy5EjmNVFG_ujwbgySE9VQtcmYnHnJhOb3X9rRpjIquhu5qEPF-th-_sc1vfgZJtrChTt7qMk9Zr1ZeYbT35sQm7LaisbKNa0c2rYqSgpbhiWDU3xV5vWNmTbwcm2IqnuyB8bfoXGiqr8nJp9B5WTPuL_dxw2RuL2uL9QX2AMA1I5GcUlJ8KSlVoD11p4QMInxC8JSYkKcBpBUoeT6_6EH-Clv99oBLsT2YNpVJAP39BmVfoGmr4MwDCum9K4Scw_9fhg7gyTmKy8lzs_pdRmlGAYOFReYyKfLmuqyOun-NwUI4YVJPV_-BlLE_ppavjcA8KiRjVjnSoBxUQIvINnyjGd2lxuPR2k-fIcFh3gu4FdJvQVGv3PejmIOeCogxdLJxSNSEgosdFEXw0lCnskbvdqnkZ96L9tp36hbUAhGEQoPGQuFJp6T0hPhsnfVDHIyO7v1I7kiWLbOXjUD_C3ROteGV7khaXjLkvWJjHWVL_HlqTlubhR0WMAwCayGS0]--></g></svg>