<svg xmlns="http://www.w3.org/2000/svg" xmlns:xlink="http://www.w3.org/1999/xlink" contentStyleType="text/css" data-diagram-type="STATE" height="696px" preserveAspectRatio="none" style="width:716px;height:696px;background:#FFFFFF;" version="1.1" viewBox="0 0 716 696" width="716px" zoomAndPan="magnify"><defs/><g><g id="ALUMNOS_ABIERTO"><rect fill="#F1F1F1" height="50" rx="12.5" ry="12.5" style="stroke:#181818;stroke-width:0.5;" width="158.5371" x="197.23" y="7"/><line style="stroke:#181818;stroke-width:0.5;" x1="197.23" x2="355.7671" y1="33.2969" y2="33.2969"/><text fill="#000000" font-family="sans-serif" font-size="14" lengthAdjust="spacing" textLength="138.5371" x="207.23" y="24.9951">ALUMNOS_ABIERTO</text></g><path d="M19.5,167 L533.5,167 A12.5,12.5 0 0 1 546,179.5 L546,193.2969 L7,193.2969 L7,179.5 A12.5,12.5 0 0 1 19.5,167" fill="#F1F1F1"/><rect fill="none" height="523.2969" rx="12.5" ry="12.5" style="stroke:#181818;stroke-width:0.5;" width="539" x="7" y="167"/><line style="stroke:#181818;stroke-width:0.5;" x1="7" x2="546" y1="193.2969" y2="193.2969"/><text fill="#000000" font-family="sans-serif" font-size="14" lengthAdjust="spacing" textLength="157.9717" x="197.5142" y="184.9951">editarAlumno(alumno)</text><g id="editarAlumno.EditandoDatos"><rect fill="#F1F1F1" height="50" rx="12.5" ry="12.5" style="stroke:#181818;stroke-width:0.5;" width="50" x="135" y="295.2969"/><line style="stroke:#181818;stroke-width:0.5;" x1="135" x2="185" y1="321.5938" y2="321.5938"/><text fill="#000000" font-family="sans-serif" font-size="14" lengthAdjust="spacing" textLength="4.4502" x="157.7749" y="313.292">&#160;</text></g><g id="editarAlumno.GuardandoDatos"><rect fill="#F1F1F1" height="50" rx="12.5" ry="12.5" style="stroke:#181818;stroke-width:0.5;" width="50" x="135" y="537.2969"/><line style="stroke:#181818;stroke-width:0.5;" x1="135" x2="185" y1="563.5938" y2="563.5938"/><text fill="#000000" font-family="sans-serif" font-size="14" lengthAdjust="spacing" textLength="4.4502" x="157.7749" y="555.292">&#160;</text></g><ellipse cx="160" cy="214.2969" fill="#222222" rx="10" ry="10" style="stroke:#222222;stroke-width:1;"/><ellipse cx="160" cy="669.2969" fill="none" rx="11" ry="11" style="stroke:#222222;stroke-width:1;"/><ellipse cx="160" cy="669.2969" fill="#222222" rx="6" ry="6" style="stroke:#222222;stroke-width:1;"/><!--link *start*editarAlumno to EditandoDatos--><g class="link" data-entity-1=".start.editarAlumno" data-entity-2="EditandoDatos" data-source-line="18" data-uid="lnk4" id="link_.start.editarAlumno_EditandoDatos"><path d="M160,224.5269 C160,240.2369 160,266.6569 160,289.1669" fill="none" id="*start*editarAlumno-to-EditandoDatos" style="stroke:#008000;stroke-width:1;"/><polygon fill="#008000" points="160,295.1669,164,286.1669,160,290.1669,156,286.1669,160,295.1669" style="stroke:#008000;stroke-width:1;"/><path d="M165,247.2969 L165,272.2969 L391,272.2969 L391,257.2969 L381,247.2969 L165,247.2969" fill="#FEFFDD" style="stroke:#181818;stroke-width:0.5;"/><path d="M381,247.2969 L381,257.2969 L391,257.2969 L381,247.2969" fill="#FEFFDD" style="stroke:#181818;stroke-width:0.5;"/><text fill="#000000" font-family="sans-serif" font-size="13" font-weight="bold" lengthAdjust="spacing" textLength="60.5313" x="171" y="264.3638">Docente</text><text fill="#000000" font-family="sans-serif" font-size="13" lengthAdjust="spacing" textLength="140.9814" x="235.6636" y="264.3638">solicita editar alumno</text></g><!--link EditandoDatos to GuardandoDatos--><g class="link" data-entity-1="EditandoDatos" data-entity-2="GuardandoDatos" data-source-line="23" data-uid="lnk5" id="link_EditandoDatos_GuardandoDatos"><path d="M134.61,328.8069 C93.77,340.8869 18,363.2969 18,363.2969 C18,363.2969 18,519.2969 18,519.2969 C18,519.2969 88.0164,540.005 128.8564,552.085" fill="none" id="EditandoDatos-to-GuardandoDatos" style="stroke:#008000;stroke-width:1;"/><polygon fill="#008000" points="134.61,553.7869,127.1142,547.3984,129.8153,552.3687,124.8451,555.0698,134.61,553.7869" style="stroke:#008000;stroke-width:1;"/><path d="M23,368.2969 L23,514.2969 L276,514.2969 L276,378.2969 L266,368.2969 L23,368.2969" fill="#FEFFDD" style="stroke:#181818;stroke-width:0.5;"/><path d="M266,368.2969 L266,378.2969 L276,378.2969 L266,368.2969" fill="#FEFFDD" style="stroke:#181818;stroke-width:0.5;"/><text fill="#000000" font-family="sans-serif" font-size="13" font-weight="bold" lengthAdjust="spacing" textLength="58.9063" x="29" y="385.3638">Sistema</text><text fill="#000000" font-family="sans-serif" font-size="13" lengthAdjust="spacing" textLength="169.1714" x="92.0386" y="385.3638">presenta datos de edici&#243;n</text><text fill="#000000" font-family="sans-serif" font-size="13" lengthAdjust="spacing" textLength="131.5298" x="29" y="400.4966">&#8226; DNI (Identificador)</text><text fill="#000000" font-family="sans-serif" font-size="13" lengthAdjust="spacing" textLength="63.7368" x="29" y="415.6294">&#8226; Nombre</text><text fill="#000000" font-family="sans-serif" font-size="13" lengthAdjust="spacing" textLength="70.7573" x="29" y="430.7622">&#8226; Apellidos</text><text fill="#000000" font-family="sans-serif" font-size="13" lengthAdjust="spacing" textLength="4.1323" x="29" y="445.895">&#160;</text><text fill="#000000" font-family="sans-serif" font-size="13" font-weight="bold" lengthAdjust="spacing" textLength="58.9063" x="29" y="461.0278">Sistema</text><text fill="#000000" font-family="sans-serif" font-size="13" lengthAdjust="spacing" textLength="110.5952" x="92.0386" y="461.0278">permite solicitar:</text><text fill="#000000" font-family="sans-serif" font-size="13" lengthAdjust="spacing" textLength="127.8164" x="29" y="476.1606">&#8226; modificar campos</text><text fill="#000000" font-family="sans-serif" font-size="13" lengthAdjust="spacing" textLength="115.9717" x="29" y="491.2935">&#8226; guardar alumno</text><text fill="#000000" font-family="sans-serif" font-size="13" lengthAdjust="spacing" textLength="118.168" x="29" y="506.4263">&#8226; cancelar edici&#243;n</text></g><!--link GuardandoDatos to EditandoDatos--><g class="link" data-entity-1="GuardandoDatos" data-entity-2="EditandoDatos" data-source-line="37" data-uid="lnk6" id="link_GuardandoDatos_EditandoDatos"><path d="M185.37,552.4969 C220.85,540.1769 281,519.2969 281,519.2969 C281,519.2969 281,363.2969 281,363.2969 C281,363.2969 226.518,344.385 191.038,332.065" fill="none" id="GuardandoDatos-to-EditandoDatos" style="stroke:#008000;stroke-width:1;"/><polygon fill="#008000" points="185.37,330.0969,192.5599,336.8278,190.0933,331.737,195.1841,329.2704,185.37,330.0969" style="stroke:#008000;stroke-width:1;"/><path d="M286,428.7969 L286,453.7969 L537,453.7969 L537,438.7969 L527,428.7969 L286,428.7969" fill="#FEFFDD" style="stroke:#181818;stroke-width:0.5;"/><path d="M527,428.7969 L527,438.7969 L537,438.7969 L527,428.7969" fill="#FEFFDD" style="stroke:#181818;stroke-width:0.5;"/><text fill="#000000" font-family="sans-serif" font-size="13" font-weight="bold" lengthAdjust="spacing" textLength="60.5313" x="292" y="445.8638">Docente</text><text fill="#000000" font-family="sans-serif" font-size="13" lengthAdjust="spacing" textLength="165.9214" x="356.6636" y="445.8638">solicita modificar campos</text></g><!--link GuardandoDatos to *end*editarAlumno--><g class="link" data-entity-1="GuardandoDatos" data-entity-2=".end.editarAlumno" data-source-line="43" data-uid="lnk8" id="link_GuardandoDatos_.end.editarAlumno"><path d="M134.63,571.4969 C96.79,583.7169 30,605.2969 30,605.2969 C30,605.2969 30,640.2969 30,640.2969 C30,640.2969 112.4446,658.0531 143.4946,664.7431" fill="none" id="GuardandoDatos-to-*end*editarAlumno" style="stroke:#008000;stroke-width:1;"/><polygon fill="#008000" points="149.36,666.0069,141.4044,660.201,144.4722,664.9537,139.7194,668.0215,149.36,666.0069" style="stroke:#008000;stroke-width:1;"/><path d="M35,610.2969 L35,635.2969 L265,635.2969 L265,620.2969 L255,610.2969 L35,610.2969" fill="#FEFFDD" style="stroke:#181818;stroke-width:0.5;"/><path d="M255,610.2969 L255,620.2969 L265,620.2969 L255,610.2969" fill="#FEFFDD" style="stroke:#181818;stroke-width:0.5;"/><text fill="#000000" font-family="sans-serif" font-size="13" font-weight="bold" lengthAdjust="spacing" textLength="60.5313" x="41" y="627.3638">Docente</text><text fill="#000000" font-family="sans-serif" font-size="13" lengthAdjust="spacing" textLength="144.5361" x="105.6636" y="627.3638">solicita guardar y salir</text></g><!--link GuardandoDatos to *end*editarAlumno--><g class="link" data-entity-1="GuardandoDatos" data-entity-2=".end.editarAlumno" data-source-line="49" data-uid="lnk9" id="link_GuardandoDatos_.end.editarAlumno"><path d="M185.24,572.9369 C217.71,585.3369 270,605.2969 270,605.2969 C270,605.2969 270,640.2969 270,640.2969 C270,640.2969 203.8945,657.1263 176.3645,664.1363" fill="none" id="GuardandoDatos-to-*end*editarAlumno-1" style="stroke:#FF0000;stroke-width:1;"/><polygon fill="#FF0000" points="170.55,665.6169,180.2587,667.2724,175.3954,664.3831,178.2847,659.5197,170.55,665.6169" style="stroke:#FF0000;stroke-width:1;"/><path d="M275,610.2969 L275,635.2969 L516,635.2969 L516,620.2969 L506,610.2969 L275,610.2969" fill="#FEFFDD" style="stroke:#181818;stroke-width:0.5;"/><path d="M506,610.2969 L506,620.2969 L516,620.2969 L506,610.2969" fill="#FEFFDD" style="stroke:#181818;stroke-width:0.5;"/><text fill="#000000" font-family="sans-serif" font-size="13" font-weight="bold" lengthAdjust="spacing" textLength="60.5313" x="281" y="627.3638">Docente</text><text fill="#000000" font-family="sans-serif" font-size="13" lengthAdjust="spacing" textLength="156.2729" x="345.6636" y="627.3638">solicita cancelar edici&#243;n</text></g><!--link ALUMNOS_ABIERTO to editarAlumno--><g class="link" data-entity-1="ALUMNOS_ABIERTO" data-entity-2="editarAlumno" data-source-line="7" data-uid="lnk2" id="link_ALUMNOS_ABIERTO_editarAlumno"><path d="M196.76,52.57 C133.8,68.03 56.5,87 56.5,87 C56.5,87 56.5,137 56.5,137 C56.5,137 61.5287,143.646 75.3887,161.956" fill="none" id="ALUMNOS_ABIERTO-to-editarAlumno" style="stroke:#008000;stroke-width:1;"/><polygon fill="#008000" points="79.01,166.74,76.7674,157.1499,75.9923,162.7534,70.3888,161.9782,79.01,166.74" style="stroke:#008000;stroke-width:1;"/><path d="M61.5,99.5 L61.5,124.5 L228.5,124.5 L228.5,109.5 L218.5,99.5 L61.5,99.5" fill="#FEFFDD" style="stroke:#181818;stroke-width:0.5;"/><path d="M218.5,99.5 L218.5,109.5 L228.5,109.5 L218.5,99.5" fill="#FEFFDD" style="stroke:#181818;stroke-width:0.5;"/><text fill="#000000" font-family="sans-serif" font-size="13" lengthAdjust="spacing" textLength="146.688" x="67.5" y="116.5669">editarAlumno(alumno)</text></g><!--link editarAlumno to ALUMNOS_ABIERTO--><g class="link" data-entity-1="editarAlumno" data-entity-2="ALUMNOS_ABIERTO" data-source-line="58" data-uid="lnk10" id="link_editarAlumno_ALUMNOS_ABIERTO"><path d="M273.81,166.74 C273.62,148.43 273.5,137 273.5,137 C273.5,137 273.5,87 273.5,87 C273.5,87 274.0186,77.7508 274.8086,63.4708" fill="none" id="editarAlumno-to-ALUMNOS_ABIERTO" style="stroke:#008000;stroke-width:1;"/><polygon fill="#008000" points="275.14,57.48,270.649,66.2453,274.8638,62.4724,278.6368,66.6872,275.14,57.48" style="stroke:#008000;stroke-width:1;"/><path d="M278.5,92 L278.5,132 L568.5,132 L568.5,102 L558.5,92 L278.5,92" fill="#FEFFDD" style="stroke:#181818;stroke-width:0.5;"/><path d="M558.5,92 L558.5,102 L568.5,102 L558.5,92" fill="#FEFFDD" style="stroke:#181818;stroke-width:0.5;"/><text fill="#000000" font-family="sans-serif" font-size="13" font-weight="bold" lengthAdjust="spacing" textLength="58.9063" x="284.5" y="109.0669">Sistema</text><text fill="#000000" font-family="sans-serif" font-size="13" lengthAdjust="spacing" textLength="206.3433" x="347.5386" y="109.0669">confirma: "Alumno actualizado"</text><text fill="#000000" font-family="sans-serif" font-size="13" lengthAdjust="spacing" textLength="87.5532" x="284.5" y="124.1997">verAlumnos()</text></g><!--link editarAlumno to ALUMNOS_ABIERTO--><g class="link" data-entity-1="editarAlumno" data-entity-2="ALUMNOS_ABIERTO" data-source-line="65" data-uid="lnk11" id="link_editarAlumno_ALUMNOS_ABIERTO"><path d="M546.42,167.01 C565.55,148.54 577.5,137 577.5,137 C577.5,137 577.5,87 577.5,87 C577.5,87 451.0657,64.3196 361.8857,48.3196" fill="none" id="editarAlumno-to-ALUMNOS_ABIERTO-1" style="stroke:#FF0000;stroke-width:1;"/><polygon fill="#FF0000" points="355.98,47.26,364.1322,52.7865,360.9014,48.143,365.5449,44.9122,355.98,47.26" style="stroke:#FF0000;stroke-width:1;"/><path d="M582.5,99.5 L582.5,124.5 L709.5,124.5 L709.5,109.5 L699.5,99.5 L582.5,99.5" fill="#FEFFDD" style="stroke:#181818;stroke-width:0.5;"/><path d="M699.5,99.5 L699.5,109.5 L709.5,109.5 L699.5,99.5" fill="#FEFFDD" style="stroke:#181818;stroke-width:0.5;"/><text fill="#000000" font-family="sans-serif" font-size="13" lengthAdjust="spacing" textLength="106.3677" x="588.5" y="116.5669">cancelar edici&#243;n</text></g><!--SRC=[dPJVQjim5CRlzHI7xA99eHdxSrLAGBEzON3j4QTZKCfGB2M8sf8dEwFP6EmTzWPxXJr2twHFiYCdzY8dNUWSi6FfdFFzpYTPrQrK9JEiW5mgKQzB0QNEr_Q5a1DuCOOWdL4_WVVJu4EOmD3JgXPtjGOkG1kv56f4gfhL0cXqTHadwIVw9WociyIclyJqU3QbFiLPy6YQW1_0LPgGNZ2SNJzR6Y7KpTa419SrCpHV5KeJfR6qLXRlbkpE35dp616XEDWeA_XgZ08p6aK1FYE4Jhm0rJQ0kzd0AXWSAZU0RuG0NfkS0VumDB2HYckVrRhQdtwtOePtyx0fS7rwuxJbr80cn6dE3bpC9xxE15fyyNm-WKhdCiEiBJfi69l8jclxdtGtLsDNtKLyL3sLLIqArgYNHbI8me0trNZZO2RlVwic-k77B_3Z48OXnoYva1dZseowkLWNSoEwLrgAF9TygtrGJvX28bBRjJdlaWlD6m436IlARGqxiMpQSfonmnbJcSXnt27kTaf7S0AUpF9cCxSIVyDxg_heMZvjAG-sSeWiPMWNW-1EeWP3cx6KKMnqZ0tttTE8MW_NKA6aSO5S66_ZAp-EOmJ_BvWZA_VTVkMlnv3IAFHf2i77MJ2DQMg7UuPbAESbyTjmUaczyFvd3CD8m-ULW0NBQpP7TET4sFMmVvOv-BrjYpeBQGfs3eFsRCdg5R9ynUzXGBw8hK0rTC-glgLxD5iB_ycoRrShyGS0]--></g></svg>