<svg xmlns="http://www.w3.org/2000/svg" xmlns:xlink="http://www.w3.org/1999/xlink" contentStyleType="text/css" data-diagram-type="STATE" height="696px" preserveAspectRatio="none" style="width:666px;height:696px;background:#FFFFFF;" version="1.1" viewBox="0 0 666 696" width="666px" zoomAndPan="magnify"><defs/><g><path d="M19.5,7 L640.5,7 A12.5,12.5 0 0 1 653,19.5 L653,33.2969 L7,33.2969 L7,19.5 A12.5,12.5 0 0 1 19.5,7" fill="#F1F1F1"/><rect fill="none" height="538.2969" rx="12.5" ry="12.5" style="stroke:#181818;stroke-width:0.5;" width="646" x="7" y="7"/><line style="stroke:#181818;stroke-width:0.5;" x1="7" x2="653" y1="33.2969" y2="33.2969"/><text fill="#000000" font-family="sans-serif" font-size="14" lengthAdjust="spacing" textLength="157.9717" x="251.0142" y="24.9951">editarAlumno(alumno)</text><g id="editarAlumno.EditandoDatos"><rect fill="#F1F1F1" height="50" rx="12.5" ry="12.5" style="stroke:#181818;stroke-width:0.5;" width="50" x="188" y="135.2969"/><line style="stroke:#181818;stroke-width:0.5;" x1="188" x2="238" y1="161.5938" y2="161.5938"/><text fill="#000000" font-family="sans-serif" font-size="14" lengthAdjust="spacing" textLength="4.4502" x="210.7749" y="153.292">&#160;</text></g><g id="editarAlumno.GuardandoDatos"><rect fill="#F1F1F1" height="50" rx="12.5" ry="12.5" style="stroke:#181818;stroke-width:0.5;" width="50" x="188" y="392.2969"/><line style="stroke:#181818;stroke-width:0.5;" x1="188" x2="238" y1="418.5938" y2="418.5938"/><text fill="#000000" font-family="sans-serif" font-size="14" lengthAdjust="spacing" textLength="4.4502" x="210.7749" y="410.292">&#160;</text></g><ellipse cx="213" cy="54.2969" fill="#222222" rx="10" ry="10" style="stroke:#222222;stroke-width:1;"/><ellipse cx="213" cy="524.2969" fill="none" rx="11" ry="11" style="stroke:#222222;stroke-width:1;"/><ellipse cx="213" cy="524.2969" fill="#222222" rx="6" ry="6" style="stroke:#222222;stroke-width:1;"/><!--link *start*editarAlumno to EditandoDatos--><g class="link" data-entity-1=".start.editarAlumno" data-entity-2="EditandoDatos" data-source-line="8" data-uid="lnk3" id="link_.start.editarAlumno_EditandoDatos"><path d="M213,64.5269 C213,80.2369 213,106.6569 213,129.1669" fill="none" id="*start*editarAlumno-to-EditandoDatos" style="stroke:#008000;stroke-width:1;"/><polygon fill="#008000" points="213,135.1669,217,126.1669,213,130.1669,209,126.1669,213,135.1669" style="stroke:#008000;stroke-width:1;"/><path d="M218,87.2969 L218,112.2969 L444,112.2969 L444,97.2969 L434,87.2969 L218,87.2969" fill="#FEFFDD" style="stroke:#181818;stroke-width:0.5;"/><path d="M434,87.2969 L434,97.2969 L444,97.2969 L434,87.2969" fill="#FEFFDD" style="stroke:#181818;stroke-width:0.5;"/><text fill="#000000" font-family="sans-serif" font-size="13" font-weight="bold" lengthAdjust="spacing" textLength="60.5313" x="224" y="104.3638">Docente</text><text fill="#000000" font-family="sans-serif" font-size="13" lengthAdjust="spacing" textLength="140.9814" x="288.6636" y="104.3638">solicita editar alumno</text></g><!--link EditandoDatos to GuardandoDatos--><g class="link" data-entity-1="EditandoDatos" data-entity-2="GuardandoDatos" data-source-line="13" data-uid="lnk4" id="link_EditandoDatos_GuardandoDatos"><path d="M187.51,166.7869 C134.65,178.1769 18,203.2969 18,203.2969 C18,203.2969 18,374.2969 18,374.2969 C18,374.2969 128.7846,398.153 181.6446,409.543" fill="none" id="EditandoDatos-to-GuardandoDatos" style="stroke:#008000;stroke-width:1;"/><polygon fill="#008000" points="187.51,410.8069,179.5545,405.0009,182.6222,409.7537,177.8694,412.8214,187.51,410.8069" style="stroke:#008000;stroke-width:1;"/><path d="M23,208.2969 L23,369.2969 L383,369.2969 L383,218.2969 L373,208.2969 L23,208.2969" fill="#FEFFDD" style="stroke:#181818;stroke-width:0.5;"/><path d="M373,208.2969 L373,218.2969 L383,218.2969 L373,208.2969" fill="#FEFFDD" style="stroke:#181818;stroke-width:0.5;"/><text fill="#000000" font-family="sans-serif" font-size="13" font-weight="bold" lengthAdjust="spacing" textLength="58.9063" x="29" y="225.3638">Sistema</text><text fill="#000000" font-family="sans-serif" font-size="13" lengthAdjust="spacing" textLength="169.1714" x="92.0386" y="225.3638">presenta datos de edici&#243;n</text><text fill="#000000" font-family="sans-serif" font-size="13" lengthAdjust="spacing" textLength="152.9341" x="29" y="240.4966">(Recuperados de BDD):</text><text fill="#000000" font-family="sans-serif" font-size="13" lengthAdjust="spacing" textLength="339.2632" x="29" y="255.6294">&#8226; DNI (Identificador Inmutable/Mutable seg&#250;n regla)</text><text fill="#000000" font-family="sans-serif" font-size="13" lengthAdjust="spacing" textLength="63.7368" x="29" y="270.7622">&#8226; Nombre</text><text fill="#000000" font-family="sans-serif" font-size="13" lengthAdjust="spacing" textLength="70.7573" x="29" y="285.895">&#8226; Apellidos</text><text fill="#000000" font-family="sans-serif" font-size="13" lengthAdjust="spacing" textLength="4.1323" x="29" y="301.0278">&#160;</text><text fill="#000000" font-family="sans-serif" font-size="13" font-weight="bold" lengthAdjust="spacing" textLength="58.9063" x="29" y="316.1606">Sistema</text><text fill="#000000" font-family="sans-serif" font-size="13" lengthAdjust="spacing" textLength="110.5952" x="92.0386" y="316.1606">permite solicitar:</text><text fill="#000000" font-family="sans-serif" font-size="13" lengthAdjust="spacing" textLength="127.8164" x="29" y="331.2935">&#8226; modificar campos</text><text fill="#000000" font-family="sans-serif" font-size="13" lengthAdjust="spacing" textLength="115.9717" x="29" y="346.4263">&#8226; guardar alumno</text><text fill="#000000" font-family="sans-serif" font-size="13" lengthAdjust="spacing" textLength="118.168" x="29" y="361.5591">&#8226; cancelar edici&#243;n</text></g><!--link GuardandoDatos to EditandoDatos--><g class="link" data-entity-1="GuardandoDatos" data-entity-2="EditandoDatos" data-source-line="28" data-uid="lnk5" id="link_GuardandoDatos_EditandoDatos"><path d="M238.45,410.1869 C286.98,398.5369 388,374.2969 388,374.2969 C388,374.2969 388,203.2969 388,203.2969 C388,203.2969 292.8142,180.4574 244.2842,168.8074" fill="none" id="GuardandoDatos-to-EditandoDatos" style="stroke:#008000;stroke-width:1;"/><polygon fill="#008000" points="238.45,167.4069,246.2677,173.3972,243.3119,168.574,248.1351,165.6182,238.45,167.4069" style="stroke:#008000;stroke-width:1;"/><path d="M393,276.2969 L393,301.2969 L644,301.2969 L644,286.2969 L634,276.2969 L393,276.2969" fill="#FEFFDD" style="stroke:#181818;stroke-width:0.5;"/><path d="M634,276.2969 L634,286.2969 L644,286.2969 L634,276.2969" fill="#FEFFDD" style="stroke:#181818;stroke-width:0.5;"/><text fill="#000000" font-family="sans-serif" font-size="13" font-weight="bold" lengthAdjust="spacing" textLength="60.5313" x="399" y="293.3638">Docente</text><text fill="#000000" font-family="sans-serif" font-size="13" lengthAdjust="spacing" textLength="165.9214" x="463.6636" y="293.3638">solicita modificar campos</text></g><!--link GuardandoDatos to *end*editarAlumno--><g class="link" data-entity-1="GuardandoDatos" data-entity-2=".end.editarAlumno" data-source-line="34" data-uid="lnk7" id="link_GuardandoDatos_.end.editarAlumno"><path d="M187.63,426.4969 C149.79,438.7169 83,460.2969 83,460.2969 C83,460.2969 83,495.2969 83,495.2969 C83,495.2969 165.4446,513.0531 196.4946,519.7431" fill="none" id="GuardandoDatos-to-*end*editarAlumno" style="stroke:#008000;stroke-width:1;"/><polygon fill="#008000" points="202.36,521.0069,194.4044,515.201,197.4722,519.9537,192.7194,523.0215,202.36,521.0069" style="stroke:#008000;stroke-width:1;"/><path d="M88,465.2969 L88,490.2969 L318,490.2969 L318,475.2969 L308,465.2969 L88,465.2969" fill="#FEFFDD" style="stroke:#181818;stroke-width:0.5;"/><path d="M308,465.2969 L308,475.2969 L318,475.2969 L308,465.2969" fill="#FEFFDD" style="stroke:#181818;stroke-width:0.5;"/><text fill="#000000" font-family="sans-serif" font-size="13" font-weight="bold" lengthAdjust="spacing" textLength="60.5313" x="94" y="482.3638">Docente</text><text fill="#000000" font-family="sans-serif" font-size="13" lengthAdjust="spacing" textLength="144.5361" x="158.6636" y="482.3638">solicita guardar y salir</text></g><!--link GuardandoDatos to *end*editarAlumno--><g class="link" data-entity-1="GuardandoDatos" data-entity-2=".end.editarAlumno" data-source-line="40" data-uid="lnk8" id="link_GuardandoDatos_.end.editarAlumno"><path d="M238.24,427.9369 C270.71,440.3369 323,460.2969 323,460.2969 C323,460.2969 323,495.2969 323,495.2969 C323,495.2969 256.8945,512.1263 229.3645,519.1363" fill="none" id="GuardandoDatos-to-*end*editarAlumno-1" style="stroke:#FF0000;stroke-width:1;"/><polygon fill="#FF0000" points="223.55,520.6169,233.2587,522.2724,228.3954,519.3831,231.2847,514.5197,223.55,520.6169" style="stroke:#FF0000;stroke-width:1;"/><path d="M328,465.2969 L328,490.2969 L569,490.2969 L569,475.2969 L559,465.2969 L328,465.2969" fill="#FEFFDD" style="stroke:#181818;stroke-width:0.5;"/><path d="M559,465.2969 L559,475.2969 L569,475.2969 L559,465.2969" fill="#FEFFDD" style="stroke:#181818;stroke-width:0.5;"/><text fill="#000000" font-family="sans-serif" font-size="13" font-weight="bold" lengthAdjust="spacing" textLength="60.5313" x="334" y="482.3638">Docente</text><text fill="#000000" font-family="sans-serif" font-size="13" lengthAdjust="spacing" textLength="156.2729" x="398.6636" y="482.3638">solicita cancelar edici&#243;n</text></g><g id="ALUMNOS_ABIERTO"><rect fill="#F1F1F1" height="50" rx="12.5" ry="12.5" style="stroke:#181818;stroke-width:0.5;" width="158.5371" x="250.73" y="640.3"/><line style="stroke:#181818;stroke-width:0.5;" x1="250.73" x2="409.2671" y1="666.5969" y2="666.5969"/><text fill="#000000" font-family="sans-serif" font-size="14" lengthAdjust="spacing" textLength="138.5371" x="260.73" y="658.2951">ALUMNOS_ABIERTO</text></g><!--link editarAlumno to ALUMNOS_ABIERTO--><g class="link" data-entity-1="editarAlumno" data-entity-2="ALUMNOS_ABIERTO" data-source-line="48" data-uid="lnk10" id="link_editarAlumno_ALUMNOS_ABIERTO"><path d="M256.16,545.62 C251.13,563.93 248,575.3 248,575.3 C248,575.3 248,610.3 248,610.3 C248,610.3 266.1289,622.2401 287.8289,636.5301" fill="none" id="editarAlumno-to-ALUMNOS_ABIERTO" style="stroke:#008000;stroke-width:1;"/><polygon fill="#008000" points="292.84,639.83,287.5234,631.5394,288.6641,637.0801,283.1235,638.2208,292.84,639.83" style="stroke:#008000;stroke-width:1;"/><path d="M253,580.3 L253,605.3 L361,605.3 L361,590.3 L351,580.3 L253,580.3" fill="#FEFFDD" style="stroke:#181818;stroke-width:0.5;"/><path d="M351,580.3 L351,590.3 L361,590.3 L351,580.3" fill="#FEFFDD" style="stroke:#181818;stroke-width:0.5;"/><text fill="#000000" font-family="sans-serif" font-size="13" lengthAdjust="spacing" textLength="87.5532" x="259" y="597.3669">verAlumnos()</text></g><!--link editarAlumno to ALUMNOS_ABIERTO--><g class="link" data-entity-1="editarAlumno" data-entity-2="ALUMNOS_ABIERTO" data-source-line="53" data-uid="lnk11" id="link_editarAlumno_ALUMNOS_ABIERTO"><path d="M366.02,545.62 C368.47,563.93 370,575.3 370,575.3 C370,575.3 370,610.3 370,610.3 C370,610.3 362.2802,620.7178 351.7002,635.0078" fill="none" id="editarAlumno-to-ALUMNOS_ABIERTO-1" style="stroke:#FF0000;stroke-width:1;"/><polygon fill="#FF0000" points="348.13,639.83,356.7001,634.9769,351.1052,635.8115,350.2706,630.2166,348.13,639.83" style="stroke:#FF0000;stroke-width:1;"/><path d="M375,580.3 L375,605.3 L502,605.3 L502,590.3 L492,580.3 L375,580.3" fill="#FEFFDD" style="stroke:#181818;stroke-width:0.5;"/><path d="M492,580.3 L492,590.3 L502,590.3 L492,580.3" fill="#FEFFDD" style="stroke:#181818;stroke-width:0.5;"/><text fill="#000000" font-family="sans-serif" font-size="13" lengthAdjust="spacing" textLength="106.3677" x="381" y="597.3669">cancelar edici&#243;n</text></g><!--SRC=[dPJTQjim5CVlzHI7x6BEeFH-b40wXs5Oqz5iLwMC4-aiYCgIaPJIC0Pxbht2xdRRDzcJx5YsawXDLZeR_A7pyV-TlvM4MsqRz5Y3qPRYfY5edDcqBqA4Y960b8xefsPTMmSOOBI_K62wZKVmJGZWewiPyScfipRJAbTYTE5f-FqQlTh6eMjm_UO6JgvVhJoHlJcPv3qWfLZ7FPnjaM_JmjboKZf9DjBPwN82mHajkQf7XuunPP9LNJaVOdl9DVRLSyIZwWiT8jMOr1jFWL4GLEgcaeDIF_ooARku8hbkoAFgWkTbENwR8dz-_8HoNa5HAQxNNxNa70-LhTSHbuPEBxex15ez_BRWQMLml2sTkthfQViwRSWOhNheWw3aQysp37Rv7KRjLDBt8B5k-XvjO9Nyo2njboLQIORNir47itS4hs5cG6ffN3lwe98geFY8qRSF5Nz7ZpBgEzTDzsYV7DqTBziS1sSyXBn0zX5XTgzP0vyZultxCex1qWq45l8vHexmhhEPdufaaiLZ1dbI_mNpp8SKtuKOQFZdVPyOWiZ-8lRDc7xuV36_N7oPdbUpgq-N8kEuexua56EnatZSh1_bdwsUOW_z_W80]--></g></svg>