<svg xmlns="http://www.w3.org/2000/svg" xmlns:xlink="http://www.w3.org/1999/xlink" contentStyleType="text/css" data-diagram-type="STATE" height="792px" preserveAspectRatio="none" style="width:559px;height:792px;background:#FFFFFF;" version="1.1" viewBox="0 0 559 792" width="559px" zoomAndPan="magnify"><defs/><g><g id="ALUMNOS_ABIERTO"><rect fill="#F1F1F1" height="50" rx="12.5" ry="12.5" style="stroke:#181818;stroke-width:0.5;" width="158.5371" x="103" y="7"/><line style="stroke:#181818;stroke-width:0.5;" x1="103" x2="261.5371" y1="33.2969" y2="33.2969"/><text fill="#000000" font-family="sans-serif" font-size="14" lengthAdjust="spacing" textLength="138.5371" x="113" y="24.9951">ALUMNOS_ABIERTO</text></g><g id="ALUMNOS_ABIERTO2"><rect fill="#F1F1F1" height="50" rx="12.5" ry="12.5" style="stroke:#181818;stroke-width:0.5;" width="158.5371" x="100" y="736"/><line style="stroke:#181818;stroke-width:0.5;" x1="100" x2="258.5371" y1="762.2969" y2="762.2969"/><text fill="#000000" font-family="sans-serif" font-size="14" lengthAdjust="spacing" textLength="138.5371" x="110" y="753.9951">ALUMNOS_ABIERTO</text></g><g id="ALUMNOS_ABIERTO3"><rect fill="#F1F1F1" height="50" rx="12.5" ry="12.5" style="stroke:#181818;stroke-width:0.5;" width="158.5371" x="294" y="736"/><line style="stroke:#181818;stroke-width:0.5;" x1="294" x2="452.5371" y1="762.2969" y2="762.2969"/><text fill="#000000" font-family="sans-serif" font-size="14" lengthAdjust="spacing" textLength="138.5371" x="304" y="753.9951">ALUMNOS_ABIERTO</text></g><path d="M19.5,118 L533.5,118 A12.5,12.5 0 0 1 546,130.5 L546,144.2969 L7,144.2969 L7,130.5 A12.5,12.5 0 0 1 19.5,118" fill="#F1F1F1"/><rect fill="none" height="523.2969" rx="12.5" ry="12.5" style="stroke:#181818;stroke-width:0.5;" width="539" x="7" y="118"/><line style="stroke:#181818;stroke-width:0.5;" x1="7" x2="546" y1="144.2969" y2="144.2969"/><text fill="#000000" font-family="sans-serif" font-size="14" lengthAdjust="spacing" textLength="105.5537" x="223.7231" y="135.9951">editarAlumno()</text><g id="editarAlumno.EditandoDatos"><rect fill="#F1F1F1" height="50" rx="12.5" ry="12.5" style="stroke:#181818;stroke-width:0.5;" width="50" x="135" y="246.2969"/><line style="stroke:#181818;stroke-width:0.5;" x1="135" x2="185" y1="272.5938" y2="272.5938"/><text fill="#000000" font-family="sans-serif" font-size="14" lengthAdjust="spacing" textLength="4.4502" x="157.7749" y="264.292">&#160;</text></g><g id="editarAlumno.GuardandoDatos"><rect fill="#F1F1F1" height="50" rx="12.5" ry="12.5" style="stroke:#181818;stroke-width:0.5;" width="50" x="135" y="488.2969"/><line style="stroke:#181818;stroke-width:0.5;" x1="135" x2="185" y1="514.5938" y2="514.5938"/><text fill="#000000" font-family="sans-serif" font-size="14" lengthAdjust="spacing" textLength="4.4502" x="157.7749" y="506.292">&#160;</text></g><ellipse cx="160" cy="165.2969" fill="#222222" rx="10" ry="10" style="stroke:#222222;stroke-width:1;"/><ellipse cx="160" cy="620.2969" fill="none" rx="11" ry="11" style="stroke:#222222;stroke-width:1;"/><ellipse cx="160" cy="620.2969" fill="#222222" rx="6" ry="6" style="stroke:#222222;stroke-width:1;"/><!--link *start*editarAlumno to EditandoDatos--><g class="link" data-entity-1=".start.editarAlumno" data-entity-2="EditandoDatos" data-source-line="16" data-uid="lnk6" id="link_.start.editarAlumno_EditandoDatos"><path d="M160,175.5269 C160,191.2369 160,217.6569 160,240.1669" fill="none" id="*start*editarAlumno-to-EditandoDatos" style="stroke:#008000;stroke-width:1;"/><polygon fill="#008000" points="160,246.1669,164,237.1669,160,241.1669,156,237.1669,160,246.1669" style="stroke:#008000;stroke-width:1;"/><path d="M165,198.2969 L165,223.2969 L391,223.2969 L391,208.2969 L381,198.2969 L165,198.2969" fill="#FEFFDD" style="stroke:#181818;stroke-width:0.5;"/><path d="M381,198.2969 L381,208.2969 L391,208.2969 L381,198.2969" fill="#FEFFDD" style="stroke:#181818;stroke-width:0.5;"/><text fill="#000000" font-family="sans-serif" font-size="13" font-weight="bold" lengthAdjust="spacing" textLength="60.5313" x="171" y="215.3638">Docente</text><text fill="#000000" font-family="sans-serif" font-size="13" lengthAdjust="spacing" textLength="140.9814" x="235.6636" y="215.3638">solicita editar alumno</text></g><!--link EditandoDatos to GuardandoDatos--><g class="link" data-entity-1="EditandoDatos" data-entity-2="GuardandoDatos" data-source-line="21" data-uid="lnk7" id="link_EditandoDatos_GuardandoDatos"><path d="M134.94,279.7069 C94.17,291.7669 18,314.2969 18,314.2969 C18,314.2969 18,470.2969 18,470.2969 C18,470.2969 88.4164,491.1249 129.1864,503.1849" fill="none" id="EditandoDatos-to-GuardandoDatos" style="stroke:#008000;stroke-width:1;"/><polygon fill="#008000" points="134.94,504.8869,127.4443,498.4983,130.1454,503.4686,125.175,506.1697,134.94,504.8869" style="stroke:#008000;stroke-width:1;"/><path d="M23,319.2969 L23,465.2969 L276,465.2969 L276,329.2969 L266,319.2969 L23,319.2969" fill="#FEFFDD" style="stroke:#181818;stroke-width:0.5;"/><path d="M266,319.2969 L266,329.2969 L276,329.2969 L266,319.2969" fill="#FEFFDD" style="stroke:#181818;stroke-width:0.5;"/><text fill="#000000" font-family="sans-serif" font-size="13" font-weight="bold" lengthAdjust="spacing" textLength="58.9063" x="29" y="336.3638">Sistema</text><text fill="#000000" font-family="sans-serif" font-size="13" lengthAdjust="spacing" textLength="169.1714" x="92.0386" y="336.3638">presenta datos de edici&#243;n</text><text fill="#000000" font-family="sans-serif" font-size="13" lengthAdjust="spacing" textLength="35.3691" x="29" y="351.4966">&#8226; DNI</text><text fill="#000000" font-family="sans-serif" font-size="13" lengthAdjust="spacing" textLength="63.7368" x="29" y="366.6294">&#8226; Nombre</text><text fill="#000000" font-family="sans-serif" font-size="13" lengthAdjust="spacing" textLength="70.7573" x="29" y="381.7622">&#8226; Apellidos</text><text fill="#000000" font-family="sans-serif" font-size="13" lengthAdjust="spacing" textLength="4.1323" x="29" y="396.895">&#160;</text><text fill="#000000" font-family="sans-serif" font-size="13" font-weight="bold" lengthAdjust="spacing" textLength="58.9063" x="29" y="412.0278">Sistema</text><text fill="#000000" font-family="sans-serif" font-size="13" lengthAdjust="spacing" textLength="110.5952" x="92.0386" y="412.0278">permite solicitar:</text><text fill="#000000" font-family="sans-serif" font-size="13" lengthAdjust="spacing" textLength="127.8164" x="29" y="427.1606">&#8226; modificar campos</text><text fill="#000000" font-family="sans-serif" font-size="13" lengthAdjust="spacing" textLength="115.9717" x="29" y="442.2935">&#8226; guardar alumno</text><text fill="#000000" font-family="sans-serif" font-size="13" lengthAdjust="spacing" textLength="118.168" x="29" y="457.4263">&#8226; cancelar edici&#243;n</text></g><!--link GuardandoDatos to EditandoDatos--><g class="link" data-entity-1="GuardandoDatos" data-entity-2="EditandoDatos" data-source-line="34" data-uid="lnk8" id="link_GuardandoDatos_EditandoDatos"><path d="M185.07,503.5969 C220.51,491.2969 281,470.2969 281,470.2969 C281,470.2969 281,314.2969 281,314.2969 C281,314.2969 226.1783,295.2642 190.7383,282.9642" fill="none" id="GuardandoDatos-to-EditandoDatos" style="stroke:#008000;stroke-width:1;"/><polygon fill="#008000" points="185.07,280.9969,192.261,287.7267,189.7936,282.6363,194.884,280.1689,185.07,280.9969" style="stroke:#008000;stroke-width:1;"/><path d="M286,379.7969 L286,404.7969 L537,404.7969 L537,389.7969 L527,379.7969 L286,379.7969" fill="#FEFFDD" style="stroke:#181818;stroke-width:0.5;"/><path d="M527,379.7969 L527,389.7969 L537,389.7969 L527,379.7969" fill="#FEFFDD" style="stroke:#181818;stroke-width:0.5;"/><text fill="#000000" font-family="sans-serif" font-size="13" font-weight="bold" lengthAdjust="spacing" textLength="60.5313" x="292" y="396.8638">Docente</text><text fill="#000000" font-family="sans-serif" font-size="13" lengthAdjust="spacing" textLength="165.9214" x="356.6636" y="396.8638">solicita modificar campos</text></g><!--link GuardandoDatos to *end*editarAlumno--><g class="link" data-entity-1="GuardandoDatos" data-entity-2=".end.editarAlumno" data-source-line="39" data-uid="lnk10" id="link_GuardandoDatos_.end.editarAlumno"><path d="M134.93,522.3969 C97.16,534.5969 30,556.2969 30,556.2969 C30,556.2969 30,591.2969 30,591.2969 C30,591.2969 112.4446,609.0531 143.4946,615.7431" fill="none" id="GuardandoDatos-to-*end*editarAlumno" style="stroke:#008000;stroke-width:1;"/><polygon fill="#008000" points="149.36,617.0069,141.4044,611.201,144.4722,615.9537,139.7194,619.0215,149.36,617.0069" style="stroke:#008000;stroke-width:1;"/><path d="M35,561.2969 L35,586.2969 L265,586.2969 L265,571.2969 L255,561.2969 L35,561.2969" fill="#FEFFDD" style="stroke:#181818;stroke-width:0.5;"/><path d="M255,561.2969 L255,571.2969 L265,571.2969 L255,561.2969" fill="#FEFFDD" style="stroke:#181818;stroke-width:0.5;"/><text fill="#000000" font-family="sans-serif" font-size="13" font-weight="bold" lengthAdjust="spacing" textLength="60.5313" x="41" y="578.3638">Docente</text><text fill="#000000" font-family="sans-serif" font-size="13" lengthAdjust="spacing" textLength="144.5361" x="105.6636" y="578.3638">solicita guardar y salir</text></g><!--link GuardandoDatos to *end*editarAlumno--><g class="link" data-entity-1="GuardandoDatos" data-entity-2=".end.editarAlumno" data-source-line="44" data-uid="lnk11" id="link_GuardandoDatos_.end.editarAlumno"><path d="M185.24,523.9369 C217.71,536.3369 270,556.2969 270,556.2969 C270,556.2969 270,591.2969 270,591.2969 C270,591.2969 203.8945,608.1263 176.3645,615.1363" fill="none" id="GuardandoDatos-to-*end*editarAlumno-1" style="stroke:#FF0000;stroke-width:1;"/><polygon fill="#FF0000" points="170.55,616.6169,180.2587,618.2724,175.3954,615.3831,178.2847,610.5197,170.55,616.6169" style="stroke:#FF0000;stroke-width:1;"/><path d="M275,561.2969 L275,586.2969 L516,586.2969 L516,571.2969 L506,561.2969 L275,561.2969" fill="#FEFFDD" style="stroke:#181818;stroke-width:0.5;"/><path d="M506,561.2969 L506,571.2969 L516,571.2969 L506,561.2969" fill="#FEFFDD" style="stroke:#181818;stroke-width:0.5;"/><text fill="#000000" font-family="sans-serif" font-size="13" font-weight="bold" lengthAdjust="spacing" textLength="60.5313" x="281" y="578.3638">Docente</text><text fill="#000000" font-family="sans-serif" font-size="13" lengthAdjust="spacing" textLength="156.2729" x="345.6636" y="578.3638">solicita cancelar edici&#243;n</text></g><g id="ALUMNO_ABIERTO"><rect fill="#F1F1F1" height="50" rx="12.5" ry="12.5" style="stroke:#181818;stroke-width:0.5;" width="149.6504" x="296.5" y="7"/><line style="stroke:#181818;stroke-width:0.5;" x1="296.5" x2="446.1504" y1="33.2969" y2="33.2969"/><text fill="#000000" font-family="sans-serif" font-size="14" lengthAdjust="spacing" textLength="129.6504" x="306.5" y="24.9951">ALUMNO_ABIERTO</text></g><!--link ALUMNOS_ABIERTO to editarAlumno--><g class="link" data-entity-1="ALUMNOS_ABIERTO" data-entity-2="editarAlumno" data-source-line="7" data-uid="lnk2" id="link_ALUMNOS_ABIERTO_editarAlumno"><path d="M189.04,57.02 C193.14,72.09 197.3243,87.4806 203.9543,111.8406" fill="none" id="ALUMNOS_ABIERTO-to-editarAlumno" style="stroke:#008000;stroke-width:1;"/><polygon fill="#008000" points="205.53,117.63,207.0261,107.8954,204.2169,112.8055,199.3069,109.9964,205.53,117.63" style="stroke:#008000;stroke-width:1;"/></g><!--link ALUMNO_ABIERTO to editarAlumno--><g class="link" data-entity-1="ALUMNO_ABIERTO" data-entity-2="editarAlumno" data-source-line="9" data-uid="lnk4" id="link_ALUMNO_ABIERTO_editarAlumno"><path d="M364.9,57.02 C360.75,72.09 356.5212,87.4848 349.8212,111.8448" fill="none" id="ALUMNO_ABIERTO-to-editarAlumno" style="stroke:#008000;stroke-width:1;"/><polygon fill="#008000" points="348.23,117.63,354.4735,110.013,349.556,112.809,346.76,107.8915,348.23,117.63" style="stroke:#008000;stroke-width:1;"/></g><!--link editarAlumno to ALUMNOS_ABIERTO2--><g class="link" data-entity-1="editarAlumno" data-entity-2="ALUMNOS_ABIERTO2" data-source-line="50" data-uid="lnk12" id="link_editarAlumno_ALUMNOS_ABIERTO2"><path d="M209.86,641.23 C199.96,679.96 192.7275,708.2673 187.1975,729.8773" fill="none" id="editarAlumno-to-ALUMNOS_ABIERTO2" style="stroke:#008000;stroke-width:1;"/><polygon fill="#008000" points="185.71,735.69,191.8163,727.9626,186.9496,730.8461,184.0661,725.9793,185.71,735.69" style="stroke:#008000;stroke-width:1;"/></g><!--link editarAlumno to ALUMNOS_ABIERTO3--><g class="link" data-entity-1="editarAlumno" data-entity-2="ALUMNOS_ABIERTO3" data-source-line="52" data-uid="lnk13" id="link_editarAlumno_ALUMNOS_ABIERTO3"><path d="M343.14,641.23 C353.04,679.96 360.2725,708.2673 365.8025,729.8773" fill="none" id="editarAlumno-to-ALUMNOS_ABIERTO3" style="stroke:#FF0000;stroke-width:1;"/><polygon fill="#FF0000" points="367.29,735.69,368.9339,725.9793,366.0504,730.8461,361.1837,727.9626,367.29,735.69" style="stroke:#FF0000;stroke-width:1;"/><path d="M363.5,676 L363.5,701 L490.5,701 L490.5,686 L480.5,676 L363.5,676" fill="#FEFFDD" style="stroke:#181818;stroke-width:0.5;"/><path d="M480.5,676 L480.5,686 L490.5,686 L480.5,676" fill="#FEFFDD" style="stroke:#181818;stroke-width:0.5;"/><text fill="#000000" font-family="sans-serif" font-size="13" lengthAdjust="spacing" textLength="106.3677" x="369.5" y="693.0669">cancelar edici&#243;n</text></g><!--SRC=[dLJTIiCm5BxFKnpgZGf3q3iPWyg637G3frTZIDOSHrX-Ij9T315y5b_1H_1DV1BJz6TDrw4pXKA-yvtpVUUaZLrpbL939GYkCDkc2AaMstn3YCreXX3VFTrFfhFd-6OyUdYSTgENG2r4BJ3gvbvrSqaBWTxyP6KGrQ8t06GyeoOM6wbqnVm3iT1lObwx2PoUHV1A2BXLi2FtED8evoYcXpJJTZzykw66rN4e2ipF5u6Pe0PuYjAkXbRvkDSUw2y7GvsWoh1_iHo0rO8dBgiq3RJe96UYOaMwMwH-XHfDzT3YGVKPjnbAwjLJWzPPeS1yDUPdb_2lJ-NPt-yVC9oCeTvCj5mQhBTnYa9mLefr2g2Ht7cesZJNTRBKZB_mnFMSK9cMDVB0olSHZ2A74weI50uFB5P3sZbedTJ1ypdkU3hT7YNkFfRZ9AivRC5ImKseU43D8FkNrY_3VICa-AcQVRLlXdrgQQfzBP30tRw3Ilq7]--></g></svg>