<svg xmlns="http://www.w3.org/2000/svg" xmlns:xlink="http://www.w3.org/1999/xlink" contentStyleType="text/css" data-diagram-type="STATE" height="681px" preserveAspectRatio="none" style="width:559px;height:681px;background:#FFFFFF;" version="1.1" viewBox="0 0 559 681" width="559px" zoomAndPan="magnify"><defs/><g><g id="ALUMNOS_ABIERTO"><rect fill="#F1F1F1" height="50" rx="12.5" ry="12.5" style="stroke:#181818;stroke-width:0.5;" width="158.5371" x="160" y="7"/><line style="stroke:#181818;stroke-width:0.5;" x1="160" x2="318.5371" y1="33.2969" y2="33.2969"/><text fill="#000000" font-family="sans-serif" font-size="14" lengthAdjust="spacing" textLength="138.5371" x="170" y="24.9951">ALUMNOS_ABIERTO</text></g><path d="M19.5,152 L533.5,152 A12.5,12.5 0 0 1 546,164.5 L546,178.2969 L7,178.2969 L7,164.5 A12.5,12.5 0 0 1 19.5,152" fill="#F1F1F1"/><rect fill="none" height="523.2969" rx="12.5" ry="12.5" style="stroke:#181818;stroke-width:0.5;" width="539" x="7" y="152"/><line style="stroke:#181818;stroke-width:0.5;" x1="7" x2="546" y1="178.2969" y2="178.2969"/><text fill="#000000" font-family="sans-serif" font-size="14" lengthAdjust="spacing" textLength="105.5537" x="223.7231" y="169.9951">editarAlumno()</text><g id="editarAlumno.EditandoDatos"><rect fill="#F1F1F1" height="50" rx="12.5" ry="12.5" style="stroke:#181818;stroke-width:0.5;" width="50" x="135" y="280.2969"/><line style="stroke:#181818;stroke-width:0.5;" x1="135" x2="185" y1="306.5938" y2="306.5938"/><text fill="#000000" font-family="sans-serif" font-size="14" lengthAdjust="spacing" textLength="4.4502" x="157.7749" y="298.292">&#160;</text></g><g id="editarAlumno.GuardandoDatos"><rect fill="#F1F1F1" height="50" rx="12.5" ry="12.5" style="stroke:#181818;stroke-width:0.5;" width="50" x="135" y="522.2969"/><line style="stroke:#181818;stroke-width:0.5;" x1="135" x2="185" y1="548.5938" y2="548.5938"/><text fill="#000000" font-family="sans-serif" font-size="14" lengthAdjust="spacing" textLength="4.4502" x="157.7749" y="540.292">&#160;</text></g><ellipse cx="160" cy="199.2969" fill="#222222" rx="10" ry="10" style="stroke:#222222;stroke-width:1;"/><ellipse cx="160" cy="654.2969" fill="none" rx="11" ry="11" style="stroke:#222222;stroke-width:1;"/><ellipse cx="160" cy="654.2969" fill="#222222" rx="6" ry="6" style="stroke:#222222;stroke-width:1;"/><!--link *start*editarAlumno to EditandoDatos--><g class="link" data-entity-1=".start.editarAlumno" data-entity-2="EditandoDatos" data-source-line="14" data-uid="lnk6" id="link_.start.editarAlumno_EditandoDatos"><path d="M160,209.5269 C160,225.2369 160,251.6569 160,274.1669" fill="none" id="*start*editarAlumno-to-EditandoDatos" style="stroke:#008000;stroke-width:1;"/><polygon fill="#008000" points="160,280.1669,164,271.1669,160,275.1669,156,271.1669,160,280.1669" style="stroke:#008000;stroke-width:1;"/><path d="M165,232.2969 L165,257.2969 L391,257.2969 L391,242.2969 L381,232.2969 L165,232.2969" fill="#FEFFDD" style="stroke:#181818;stroke-width:0.5;"/><path d="M381,232.2969 L381,242.2969 L391,242.2969 L381,232.2969" fill="#FEFFDD" style="stroke:#181818;stroke-width:0.5;"/><text fill="#000000" font-family="sans-serif" font-size="13" font-weight="bold" lengthAdjust="spacing" textLength="60.5313" x="171" y="249.3638">Docente</text><text fill="#000000" font-family="sans-serif" font-size="13" lengthAdjust="spacing" textLength="140.9814" x="235.6636" y="249.3638">solicita editar alumno</text></g><!--link EditandoDatos to GuardandoDatos--><g class="link" data-entity-1="EditandoDatos" data-entity-2="GuardandoDatos" data-source-line="19" data-uid="lnk7" id="link_EditandoDatos_GuardandoDatos"><path d="M134.94,313.7069 C94.17,325.7669 18,348.2969 18,348.2969 C18,348.2969 18,504.2969 18,504.2969 C18,504.2969 88.4164,525.1249 129.1864,537.1849" fill="none" id="EditandoDatos-to-GuardandoDatos" style="stroke:#008000;stroke-width:1;"/><polygon fill="#008000" points="134.94,538.8869,127.4443,532.4983,130.1454,537.4686,125.175,540.1697,134.94,538.8869" style="stroke:#008000;stroke-width:1;"/><path d="M23,353.2969 L23,499.2969 L276,499.2969 L276,363.2969 L266,353.2969 L23,353.2969" fill="#FEFFDD" style="stroke:#181818;stroke-width:0.5;"/><path d="M266,353.2969 L266,363.2969 L276,363.2969 L266,353.2969" fill="#FEFFDD" style="stroke:#181818;stroke-width:0.5;"/><text fill="#000000" font-family="sans-serif" font-size="13" font-weight="bold" lengthAdjust="spacing" textLength="58.9063" x="29" y="370.3638">Sistema</text><text fill="#000000" font-family="sans-serif" font-size="13" lengthAdjust="spacing" textLength="169.1714" x="92.0386" y="370.3638">presenta datos de edici&#243;n</text><text fill="#000000" font-family="sans-serif" font-size="13" lengthAdjust="spacing" textLength="35.3691" x="29" y="385.4966">&#8226; DNI</text><text fill="#000000" font-family="sans-serif" font-size="13" lengthAdjust="spacing" textLength="63.7368" x="29" y="400.6294">&#8226; Nombre</text><text fill="#000000" font-family="sans-serif" font-size="13" lengthAdjust="spacing" textLength="70.7573" x="29" y="415.7622">&#8226; Apellidos</text><text fill="#000000" font-family="sans-serif" font-size="13" lengthAdjust="spacing" textLength="4.1323" x="29" y="430.895">&#160;</text><text fill="#000000" font-family="sans-serif" font-size="13" font-weight="bold" lengthAdjust="spacing" textLength="58.9063" x="29" y="446.0278">Sistema</text><text fill="#000000" font-family="sans-serif" font-size="13" lengthAdjust="spacing" textLength="110.5952" x="92.0386" y="446.0278">permite solicitar:</text><text fill="#000000" font-family="sans-serif" font-size="13" lengthAdjust="spacing" textLength="127.8164" x="29" y="461.1606">&#8226; modificar campos</text><text fill="#000000" font-family="sans-serif" font-size="13" lengthAdjust="spacing" textLength="115.9717" x="29" y="476.2935">&#8226; guardar alumno</text><text fill="#000000" font-family="sans-serif" font-size="13" lengthAdjust="spacing" textLength="118.168" x="29" y="491.4263">&#8226; cancelar edici&#243;n</text></g><!--link GuardandoDatos to EditandoDatos--><g class="link" data-entity-1="GuardandoDatos" data-entity-2="EditandoDatos" data-source-line="32" data-uid="lnk8" id="link_GuardandoDatos_EditandoDatos"><path d="M185.07,537.5969 C220.51,525.2969 281,504.2969 281,504.2969 C281,504.2969 281,348.2969 281,348.2969 C281,348.2969 226.1783,329.2642 190.7383,316.9642" fill="none" id="GuardandoDatos-to-EditandoDatos" style="stroke:#008000;stroke-width:1;"/><polygon fill="#008000" points="185.07,314.9969,192.261,321.7267,189.7936,316.6363,194.884,314.1689,185.07,314.9969" style="stroke:#008000;stroke-width:1;"/><path d="M286,413.7969 L286,438.7969 L537,438.7969 L537,423.7969 L527,413.7969 L286,413.7969" fill="#FEFFDD" style="stroke:#181818;stroke-width:0.5;"/><path d="M527,413.7969 L527,423.7969 L537,423.7969 L527,413.7969" fill="#FEFFDD" style="stroke:#181818;stroke-width:0.5;"/><text fill="#000000" font-family="sans-serif" font-size="13" font-weight="bold" lengthAdjust="spacing" textLength="60.5313" x="292" y="430.8638">Docente</text><text fill="#000000" font-family="sans-serif" font-size="13" lengthAdjust="spacing" textLength="165.9214" x="356.6636" y="430.8638">solicita modificar campos</text></g><!--link GuardandoDatos to *end*editarAlumno--><g class="link" data-entity-1="GuardandoDatos" data-entity-2=".end.editarAlumno" data-source-line="37" data-uid="lnk10" id="link_GuardandoDatos_.end.editarAlumno"><path d="M134.93,556.3969 C97.16,568.5969 30,590.2969 30,590.2969 C30,590.2969 30,625.2969 30,625.2969 C30,625.2969 112.4446,643.0531 143.4946,649.7431" fill="none" id="GuardandoDatos-to-*end*editarAlumno" style="stroke:#008000;stroke-width:1;"/><polygon fill="#008000" points="149.36,651.0069,141.4044,645.201,144.4722,649.9537,139.7194,653.0215,149.36,651.0069" style="stroke:#008000;stroke-width:1;"/><path d="M35,595.2969 L35,620.2969 L265,620.2969 L265,605.2969 L255,595.2969 L35,595.2969" fill="#FEFFDD" style="stroke:#181818;stroke-width:0.5;"/><path d="M255,595.2969 L255,605.2969 L265,605.2969 L255,595.2969" fill="#FEFFDD" style="stroke:#181818;stroke-width:0.5;"/><text fill="#000000" font-family="sans-serif" font-size="13" font-weight="bold" lengthAdjust="spacing" textLength="60.5313" x="41" y="612.3638">Docente</text><text fill="#000000" font-family="sans-serif" font-size="13" lengthAdjust="spacing" textLength="144.5361" x="105.6636" y="612.3638">solicita guardar y salir</text></g><!--link GuardandoDatos to *end*editarAlumno--><g class="link" data-entity-1="GuardandoDatos" data-entity-2=".end.editarAlumno" data-source-line="42" data-uid="lnk11" id="link_GuardandoDatos_.end.editarAlumno"><path d="M185.24,557.9369 C217.71,570.3369 270,590.2969 270,590.2969 C270,590.2969 270,625.2969 270,625.2969 C270,625.2969 203.8945,642.1263 176.3645,649.1363" fill="none" id="GuardandoDatos-to-*end*editarAlumno-1" style="stroke:#FF0000;stroke-width:1;"/><polygon fill="#FF0000" points="170.55,650.6169,180.2587,652.2724,175.3954,649.3831,178.2847,644.5197,170.55,650.6169" style="stroke:#FF0000;stroke-width:1;"/><path d="M275,595.2969 L275,620.2969 L516,620.2969 L516,605.2969 L506,595.2969 L275,595.2969" fill="#FEFFDD" style="stroke:#181818;stroke-width:0.5;"/><path d="M506,595.2969 L506,605.2969 L516,605.2969 L506,595.2969" fill="#FEFFDD" style="stroke:#181818;stroke-width:0.5;"/><text fill="#000000" font-family="sans-serif" font-size="13" font-weight="bold" lengthAdjust="spacing" textLength="60.5313" x="281" y="612.3638">Docente</text><text fill="#000000" font-family="sans-serif" font-size="13" lengthAdjust="spacing" textLength="156.2729" x="345.6636" y="612.3638">solicita cancelar edici&#243;n</text></g><g id="ALUMNO_ABIERTO"><rect fill="#F1F1F1" height="50" rx="12.5" ry="12.5" style="stroke:#181818;stroke-width:0.5;" width="149.6504" x="399.5" y="7"/><line style="stroke:#181818;stroke-width:0.5;" x1="399.5" x2="549.1504" y1="33.2969" y2="33.2969"/><text fill="#000000" font-family="sans-serif" font-size="14" lengthAdjust="spacing" textLength="129.6504" x="409.5" y="24.9951">ALUMNO_ABIERTO</text></g><!--link ALUMNOS_ABIERTO to editarAlumno--><g class="link" data-entity-1="ALUMNOS_ABIERTO" data-entity-2="editarAlumno" data-source-line="5" data-uid="lnk2" id="link_ALUMNOS_ABIERTO_editarAlumno"><path d="M235.22,57.03 C234.74,78.62 235.8728,106.856 238.7128,145.726" fill="none" id="ALUMNOS_ABIERTO-to-editarAlumno" style="stroke:#008000;stroke-width:1;"/><polygon fill="#008000" points="239.15,151.71,242.4835,142.4424,238.7857,146.7233,234.5048,143.0254,239.15,151.71" style="stroke:#008000;stroke-width:1;"/></g><!--link editarAlumno to ALUMNOS_ABIERTO--><g class="link" data-entity-1="editarAlumno" data-entity-2="ALUMNOS_ABIERTO" data-source-line="48" data-uid="lnk12" id="link_editarAlumno_ALUMNOS_ABIERTO"><path d="M263.69,151.71 C258.9,112.84 255.0025,84.4747 250.1625,62.8847" fill="none" id="editarAlumno-to-ALUMNOS_ABIERTO" style="stroke:#008000;stroke-width:1;"/><polygon fill="#008000" points="248.85,57.03,246.9156,66.687,249.9437,61.9089,254.7219,64.937,248.85,57.03" style="stroke:#008000;stroke-width:1;"/></g><!--link editarAlumno to ALUMNOS_ABIERTO--><g class="link" data-entity-1="editarAlumno" data-entity-2="ALUMNOS_ABIERTO" data-source-line="50" data-uid="lnk13" id="link_editarAlumno_ALUMNOS_ABIERTO"><path d="M275.7,151.7 C275.58,113.65 275.5,87 275.5,87 C275.5,87 268.5206,76.5207 258.9306,62.1507" fill="none" id="editarAlumno-to-ALUMNOS_ABIERTO-1" style="stroke:#FF0000;stroke-width:1;"/><polygon fill="#FF0000" points="255.6,57.16,257.2688,66.8665,258.3755,61.3189,263.923,62.4256,255.6,57.16" style="stroke:#FF0000;stroke-width:1;"/><path d="M281.5,92 L281.5,117 L408.5,117 L408.5,102 L398.5,92 L281.5,92" fill="#FEFFDD" style="stroke:#181818;stroke-width:0.5;"/><path d="M398.5,92 L398.5,102 L408.5,102 L398.5,92" fill="#FEFFDD" style="stroke:#181818;stroke-width:0.5;"/><text fill="#000000" font-family="sans-serif" font-size="13" lengthAdjust="spacing" textLength="106.3677" x="287.5" y="109.0669">cancelar edici&#243;n</text></g><!--link ALUMNO_ABIERTO to editarAlumno--><g class="link" data-entity-1="ALUMNO_ABIERTO" data-entity-2="editarAlumno" data-source-line="7" data-uid="lnk4" id="link_ALUMNO_ABIERTO_editarAlumno"><path d="M461.96,57.03 C450.7,78.62 435.6254,107.5205 415.3454,146.3905" fill="none" id="ALUMNO_ABIERTO-to-editarAlumno" style="stroke:#008000;stroke-width:1;"/><polygon fill="#008000" points="412.57,151.71,420.2794,145.581,414.8828,147.2771,413.1868,141.8805,412.57,151.71" style="stroke:#008000;stroke-width:1;"/></g><!--SRC=[dPDTIWCn4CVVSugXlgXGV9TIM6cHWhPWzQc8fCbOGlEn9Eb34S6pU0MFu4qyYTdiXvjjYzO45ZBvPtx_cMpSMkYSMgf02er-coFaHcwB1I7EKu-GtJpSJcVpf-ngChwxdn7I2K1_SRAoYFgnFmJambERoOtIfbR-GLYIsZ6W3dhjmEbP3ru8WJ1ATI_C81eN6itDY7hZThUlDzJoPX_A18lpnyHCaWEYH9kGm-YYBUiO62o78yDGUnnSB8VWZ1GidAfC0oqhAPIeUNay3D9yKaQRdbeyI9yBvr7HICyjkc250e_PUEmT4vyVEgg_tjvXD9r0ivWQjRJOBBCSfHIyWkq5e5KYUAZBj9VDOMMuU1OirCoeogiSnSOgrf6qeWWpgXdA44yiratwST2vgOFtSzprx7Lx53pyBCSXwpvimL4fR4eyGBF8_yNwfRclX2IFgbtNphlkAYjFNLtYRPTVixy1]--></g></svg>