<svg xmlns="http://www.w3.org/2000/svg" xmlns:xlink="http://www.w3.org/1999/xlink" contentStyleType="text/css" data-diagram-type="STATE" height="681px" preserveAspectRatio="none" style="width:559px;height:681px;background:#FFFFFF;" version="1.1" viewBox="0 0 559 681" width="559px" zoomAndPan="magnify"><defs/><g><g id="ALUMNOS_ABIERTO"><rect fill="#F1F1F1" height="50" rx="12.5" ry="12.5" style="stroke:#181818;stroke-width:0.5;" width="158.5371" x="197.23" y="7"/><line style="stroke:#181818;stroke-width:0.5;" x1="197.23" x2="355.7671" y1="33.2969" y2="33.2969"/><text fill="#000000" font-family="sans-serif" font-size="14" lengthAdjust="spacing" textLength="138.5371" x="207.23" y="24.9951">ALUMNOS_ABIERTO</text></g><path d="M19.5,152 L533.5,152 A12.5,12.5 0 0 1 546,164.5 L546,178.2969 L7,178.2969 L7,164.5 A12.5,12.5 0 0 1 19.5,152" fill="#F1F1F1"/><rect fill="none" height="523.2969" rx="12.5" ry="12.5" style="stroke:#181818;stroke-width:0.5;" width="539" x="7" y="152"/><line style="stroke:#181818;stroke-width:0.5;" x1="7" x2="546" y1="178.2969" y2="178.2969"/><text fill="#000000" font-family="sans-serif" font-size="14" lengthAdjust="spacing" textLength="105.5537" x="223.7231" y="169.9951">editarAlumno()</text><g id="editarAlumno.EditandoDatos"><rect fill="#F1F1F1" height="50" rx="12.5" ry="12.5" style="stroke:#181818;stroke-width:0.5;" width="50" x="135" y="280.2969"/><line style="stroke:#181818;stroke-width:0.5;" x1="135" x2="185" y1="306.5938" y2="306.5938"/><text fill="#000000" font-family="sans-serif" font-size="14" lengthAdjust="spacing" textLength="4.4502" x="157.7749" y="298.292">&#160;</text></g><g id="editarAlumno.GuardandoDatos"><rect fill="#F1F1F1" height="50" rx="12.5" ry="12.5" style="stroke:#181818;stroke-width:0.5;" width="50" x="135" y="522.2969"/><line style="stroke:#181818;stroke-width:0.5;" x1="135" x2="185" y1="548.5938" y2="548.5938"/><text fill="#000000" font-family="sans-serif" font-size="14" lengthAdjust="spacing" textLength="4.4502" x="157.7749" y="540.292">&#160;</text></g><ellipse cx="160" cy="199.2969" fill="#222222" rx="10" ry="10" style="stroke:#222222;stroke-width:1;"/><ellipse cx="160" cy="654.2969" fill="none" rx="11" ry="11" style="stroke:#222222;stroke-width:1;"/><ellipse cx="160" cy="654.2969" fill="#222222" rx="6" ry="6" style="stroke:#222222;stroke-width:1;"/><!--link *start*editarAlumno to EditandoDatos--><g class="link" data-entity-1=".start.editarAlumno" data-entity-2="EditandoDatos" data-source-line="12" data-uid="lnk4" id="link_.start.editarAlumno_EditandoDatos"><path d="M160,209.5269 C160,225.2369 160,251.6569 160,274.1669" fill="none" id="*start*editarAlumno-to-EditandoDatos" style="stroke:#008000;stroke-width:1;"/><polygon fill="#008000" points="160,280.1669,164,271.1669,160,275.1669,156,271.1669,160,280.1669" style="stroke:#008000;stroke-width:1;"/><path d="M165,232.2969 L165,257.2969 L391,257.2969 L391,242.2969 L381,232.2969 L165,232.2969" fill="#FEFFDD" style="stroke:#181818;stroke-width:0.5;"/><path d="M381,232.2969 L381,242.2969 L391,242.2969 L381,232.2969" fill="#FEFFDD" style="stroke:#181818;stroke-width:0.5;"/><text fill="#000000" font-family="sans-serif" font-size="13" font-weight="bold" lengthAdjust="spacing" textLength="60.5313" x="171" y="249.3638">Docente</text><text fill="#000000" font-family="sans-serif" font-size="13" lengthAdjust="spacing" textLength="140.9814" x="235.6636" y="249.3638">solicita editar alumno</text></g><!--link EditandoDatos to GuardandoDatos--><g class="link" data-entity-1="EditandoDatos" data-entity-2="GuardandoDatos" data-source-line="17" data-uid="lnk5" id="link_EditandoDatos_GuardandoDatos"><path d="M134.61,313.8069 C93.77,325.8869 18,348.2969 18,348.2969 C18,348.2969 18,504.2969 18,504.2969 C18,504.2969 88.0164,525.005 128.8564,537.085" fill="none" id="EditandoDatos-to-GuardandoDatos" style="stroke:#008000;stroke-width:1;"/><polygon fill="#008000" points="134.61,538.7869,127.1142,532.3984,129.8153,537.3687,124.8451,540.0698,134.61,538.7869" style="stroke:#008000;stroke-width:1;"/><path d="M23,353.2969 L23,499.2969 L276,499.2969 L276,363.2969 L266,353.2969 L23,353.2969" fill="#FEFFDD" style="stroke:#181818;stroke-width:0.5;"/><path d="M266,353.2969 L266,363.2969 L276,363.2969 L266,353.2969" fill="#FEFFDD" style="stroke:#181818;stroke-width:0.5;"/><text fill="#000000" font-family="sans-serif" font-size="13" font-weight="bold" lengthAdjust="spacing" textLength="58.9063" x="29" y="370.3638">Sistema</text><text fill="#000000" font-family="sans-serif" font-size="13" lengthAdjust="spacing" textLength="169.1714" x="92.0386" y="370.3638">presenta datos de edici&#243;n</text><text fill="#000000" font-family="sans-serif" font-size="13" lengthAdjust="spacing" textLength="35.3691" x="29" y="385.4966">&#8226; DNI</text><text fill="#000000" font-family="sans-serif" font-size="13" lengthAdjust="spacing" textLength="63.7368" x="29" y="400.6294">&#8226; Nombre</text><text fill="#000000" font-family="sans-serif" font-size="13" lengthAdjust="spacing" textLength="70.7573" x="29" y="415.7622">&#8226; Apellidos</text><text fill="#000000" font-family="sans-serif" font-size="13" lengthAdjust="spacing" textLength="4.1323" x="29" y="430.895">&#160;</text><text fill="#000000" font-family="sans-serif" font-size="13" font-weight="bold" lengthAdjust="spacing" textLength="58.9063" x="29" y="446.0278">Sistema</text><text fill="#000000" font-family="sans-serif" font-size="13" lengthAdjust="spacing" textLength="110.5952" x="92.0386" y="446.0278">permite solicitar:</text><text fill="#000000" font-family="sans-serif" font-size="13" lengthAdjust="spacing" textLength="127.8164" x="29" y="461.1606">&#8226; modificar campos</text><text fill="#000000" font-family="sans-serif" font-size="13" lengthAdjust="spacing" textLength="115.9717" x="29" y="476.2935">&#8226; guardar alumno</text><text fill="#000000" font-family="sans-serif" font-size="13" lengthAdjust="spacing" textLength="118.168" x="29" y="491.4263">&#8226; cancelar edici&#243;n</text></g><!--link GuardandoDatos to EditandoDatos--><g class="link" data-entity-1="GuardandoDatos" data-entity-2="EditandoDatos" data-source-line="30" data-uid="lnk6" id="link_GuardandoDatos_EditandoDatos"><path d="M185.37,537.4969 C220.85,525.1769 281,504.2969 281,504.2969 C281,504.2969 281,348.2969 281,348.2969 C281,348.2969 226.518,329.385 191.038,317.065" fill="none" id="GuardandoDatos-to-EditandoDatos" style="stroke:#008000;stroke-width:1;"/><polygon fill="#008000" points="185.37,315.0969,192.5599,321.8278,190.0933,316.737,195.1841,314.2704,185.37,315.0969" style="stroke:#008000;stroke-width:1;"/><path d="M286,413.7969 L286,438.7969 L537,438.7969 L537,423.7969 L527,413.7969 L286,413.7969" fill="#FEFFDD" style="stroke:#181818;stroke-width:0.5;"/><path d="M527,413.7969 L527,423.7969 L537,423.7969 L527,413.7969" fill="#FEFFDD" style="stroke:#181818;stroke-width:0.5;"/><text fill="#000000" font-family="sans-serif" font-size="13" font-weight="bold" lengthAdjust="spacing" textLength="60.5313" x="292" y="430.8638">Docente</text><text fill="#000000" font-family="sans-serif" font-size="13" lengthAdjust="spacing" textLength="165.9214" x="356.6636" y="430.8638">solicita modificar campos</text></g><!--link GuardandoDatos to *end*editarAlumno--><g class="link" data-entity-1="GuardandoDatos" data-entity-2=".end.editarAlumno" data-source-line="35" data-uid="lnk8" id="link_GuardandoDatos_.end.editarAlumno"><path d="M134.63,556.4969 C96.79,568.7169 30,590.2969 30,590.2969 C30,590.2969 30,625.2969 30,625.2969 C30,625.2969 112.4446,643.0531 143.4946,649.7431" fill="none" id="GuardandoDatos-to-*end*editarAlumno" style="stroke:#008000;stroke-width:1;"/><polygon fill="#008000" points="149.36,651.0069,141.4044,645.201,144.4722,649.9537,139.7194,653.0215,149.36,651.0069" style="stroke:#008000;stroke-width:1;"/><path d="M35,595.2969 L35,620.2969 L265,620.2969 L265,605.2969 L255,595.2969 L35,595.2969" fill="#FEFFDD" style="stroke:#181818;stroke-width:0.5;"/><path d="M255,595.2969 L255,605.2969 L265,605.2969 L255,595.2969" fill="#FEFFDD" style="stroke:#181818;stroke-width:0.5;"/><text fill="#000000" font-family="sans-serif" font-size="13" font-weight="bold" lengthAdjust="spacing" textLength="60.5313" x="41" y="612.3638">Docente</text><text fill="#000000" font-family="sans-serif" font-size="13" lengthAdjust="spacing" textLength="144.5361" x="105.6636" y="612.3638">solicita guardar y salir</text></g><!--link GuardandoDatos to *end*editarAlumno--><g class="link" data-entity-1="GuardandoDatos" data-entity-2=".end.editarAlumno" data-source-line="40" data-uid="lnk9" id="link_GuardandoDatos_.end.editarAlumno"><path d="M185.24,557.9369 C217.71,570.3369 270,590.2969 270,590.2969 C270,590.2969 270,625.2969 270,625.2969 C270,625.2969 203.8945,642.1263 176.3645,649.1363" fill="none" id="GuardandoDatos-to-*end*editarAlumno-1" style="stroke:#FF0000;stroke-width:1;"/><polygon fill="#FF0000" points="170.55,650.6169,180.2587,652.2724,175.3954,649.3831,178.2847,644.5197,170.55,650.6169" style="stroke:#FF0000;stroke-width:1;"/><path d="M275,595.2969 L275,620.2969 L516,620.2969 L516,605.2969 L506,595.2969 L275,595.2969" fill="#FEFFDD" style="stroke:#181818;stroke-width:0.5;"/><path d="M506,595.2969 L506,605.2969 L516,605.2969 L506,595.2969" fill="#FEFFDD" style="stroke:#181818;stroke-width:0.5;"/><text fill="#000000" font-family="sans-serif" font-size="13" font-weight="bold" lengthAdjust="spacing" textLength="60.5313" x="281" y="612.3638">Docente</text><text fill="#000000" font-family="sans-serif" font-size="13" lengthAdjust="spacing" textLength="156.2729" x="345.6636" y="612.3638">solicita cancelar edici&#243;n</text></g><!--link ALUMNOS_ABIERTO to editarAlumno--><g class="link" data-entity-1="ALUMNOS_ABIERTO" data-entity-2="editarAlumno" data-source-line="5" data-uid="lnk2" id="link_ALUMNOS_ABIERTO_editarAlumno"><path d="M260.19,57.48 C250.66,71.76 240.5,87 240.5,87 C240.5,87 240.5,122 240.5,122 C240.5,122 241.1718,127.4756 243.4418,145.7856" fill="none" id="ALUMNOS_ABIERTO-to-editarAlumno" style="stroke:#008000;stroke-width:1;"/><polygon fill="#008000" points="244.18,151.74,247.0423,142.3162,243.5648,146.778,239.1031,143.3005,244.18,151.74" style="stroke:#008000;stroke-width:1;"/></g><!--link editarAlumno to ALUMNOS_ABIERTO--><g class="link" data-entity-1="editarAlumno" data-entity-2="ALUMNOS_ABIERTO" data-source-line="46" data-uid="lnk10" id="link_editarAlumno_ALUMNOS_ABIERTO"><path d="M273.81,151.74 C273.62,133.43 273.5,122 273.5,122 C273.5,122 273.5,87 273.5,87 C273.5,87 274.0186,77.7508 274.8086,63.4708" fill="none" id="editarAlumno-to-ALUMNOS_ABIERTO" style="stroke:#008000;stroke-width:1;"/><polygon fill="#008000" points="275.14,57.48,270.649,66.2453,274.8638,62.4724,278.6368,66.6872,275.14,57.48" style="stroke:#008000;stroke-width:1;"/><path d="M278.5,92 L278.5,117 L386.5,117 L386.5,102 L376.5,92 L278.5,92" fill="#FEFFDD" style="stroke:#181818;stroke-width:0.5;"/><path d="M376.5,92 L376.5,102 L386.5,102 L376.5,92" fill="#FEFFDD" style="stroke:#181818;stroke-width:0.5;"/><text fill="#000000" font-family="sans-serif" font-size="13" lengthAdjust="spacing" textLength="87.5532" x="284.5" y="109.0669">verAlumnos()</text></g><!--link editarAlumno to ALUMNOS_ABIERTO--><g class="link" data-entity-1="editarAlumno" data-entity-2="ALUMNOS_ABIERTO" data-source-line="51" data-uid="lnk11" id="link_editarAlumno_ALUMNOS_ABIERTO"><path d="M383.32,151.74 C390.82,133.43 395.5,122 395.5,122 C395.5,122 395.5,87 395.5,87 C395.5,87 367.3844,74.238 335.8944,59.958" fill="none" id="editarAlumno-to-ALUMNOS_ABIERTO-1" style="stroke:#FF0000;stroke-width:1;"/><polygon fill="#FF0000" points="330.43,57.48,336.9746,64.8399,334.9837,59.545,340.2786,57.554,330.43,57.48" style="stroke:#FF0000;stroke-width:1;"/><path d="M400.5,92 L400.5,117 L527.5,117 L527.5,102 L517.5,92 L400.5,92" fill="#FEFFDD" style="stroke:#181818;stroke-width:0.5;"/><path d="M517.5,92 L517.5,102 L527.5,102 L517.5,92" fill="#FEFFDD" style="stroke:#181818;stroke-width:0.5;"/><text fill="#000000" font-family="sans-serif" font-size="13" lengthAdjust="spacing" textLength="106.3677" x="406.5" y="109.0669">cancelar edici&#243;n</text></g><!--SRC=[dLDRIWCn5FtFAYxrfnMA_r8A8orIq1QiVXMHDBcMq3o6P2eK4LoBMt09xiILcCayEfcsIarWuBxEEVVUYLiBdL9B5KYXCTkc2AcHszmWn6KqGqXk7cwdi_bJSZKPtztF26aveByuMrb4_TWV0dAHKPl8ZTAc0cZwW3heD1tTNWTU2G5_YkoElpvfdETeRaOqCsu_VBsXbjTnA00Mvu-Hc0W3Gees7iFelDjrS0oMmv5Xg3CSN2o7u8mKp5ULee4MdUIPg7bHxW-fFp57apsMU9HzBbo6YWRsrABpKYZmWCR3x9Zu-jGX-_lz0qRJ2TJ6rAYbnTfCKfHIy9Bi805Q9Ro6garxMHShmyMpOBvdHbLQOkI1LUWZ6aNkPbGpbDuVIQo6j5FGsjJH_PosdeDgJoBtFyjfbDKSjk2e53PcFC9caV-Bwu_XlX4IFQfcN-td6d6-O5dYkZso4zy6AsN_2hKliSBx0G00]--></g></svg>