<svg xmlns="http://www.w3.org/2000/svg" xmlns:xlink="http://www.w3.org/1999/xlink" contentStyleType="text/css" data-diagram-type="SALT" height="427px" preserveAspectRatio="none" style="width:511px;height:427px;background:#FFFFFF;" version="1.1" viewBox="0 0 511 427" width="511px" zoomAndPan="magnify"><defs/><g><text fill="#000000" font-family="sans-serif" font-size="12" font-weight="bold" lengthAdjust="spacing" textLength="132.7148" x="6" y="17.1387">IMPORTAR GRADOS</text><text fill="#000000" font-family="sans-serif" font-size="12" lengthAdjust="spacing" textLength="97.5527" x="406.2266" y="17.1387">ASISTENTE&lt;/b&gt;</text><line style="stroke:#AAAAAA;stroke-width:1;" x1="6" x2="405.2266" y1="24.4688" y2="24.4688"/><line style="stroke:#AAAAAA;stroke-width:1;" x1="6" x2="405.2266" y1="26.4688" y2="26.4688"/><text fill="#000000" font-family="sans-serif" font-size="12" font-weight="bold" lengthAdjust="spacing" textLength="269.502" x="6" y="57.0762">PASO 1: Carga de Fichero (Completado)</text><text fill="#000000" font-family="sans-serif" font-size="12" lengthAdjust="spacing" textLength="317.3379" x="6" y="89.0137">Archivo seleccionado: "oferta_academica_2025.xlsx"</text><text fill="#000000" font-family="sans-serif" font-size="12" lengthAdjust="spacing" textLength="44.8945" x="6" y="104.9824">Estado:</text><text fill="#008000" font-family="sans-serif" font-size="12" lengthAdjust="spacing" textLength="225.709" x="54.709" y="104.9824">Formato correcto. 3 registros v&#225;lidos.</text><rect fill="#EEEEEE" height="17.9688" rx="5" ry="5" style="stroke:#000000;stroke-width:2.5;" width="212" x="8.5" y="128.2813"/><text fill="#000000" font-family="sans-serif" font-size="12" lengthAdjust="spacing" textLength="148.7168" x="40.1416" y="141.4199">Cambiar archivo / Volver</text><line style="stroke:#AAAAAA;stroke-width:1;" x1="6" x2="405.2266" y1="170.2188" y2="170.2188"/><text fill="#000000" font-family="sans-serif" font-size="12" font-weight="bold" lengthAdjust="spacing" textLength="245.5078" x="6" y="201.8262">PASO 2: Confirmaci&#243;n y Vista Previa</text><text fill="#000000" font-family="sans-serif" font-size="12" font-style="italic" lengthAdjust="spacing" textLength="398.2266" x="6" y="233.7637">Verifique los grados detectados antes de incorporarlos al sistema.</text><text fill="#000000" font-family="sans-serif" font-size="12" font-weight="bold" lengthAdjust="spacing" textLength="46.5879" x="7" y="266.7012">C&#243;digo</text><text fill="#000000" font-family="sans-serif" font-size="12" font-weight="bold" lengthAdjust="spacing" textLength="121.5703" x="55.5879" y="266.7012">Nombre del T&#237;tulo</text><text fill="#000000" font-family="sans-serif" font-size="12" font-weight="bold" lengthAdjust="spacing" textLength="37.9395" x="218.2578" y="266.7012">Rama</text><text fill="#000000" font-family="sans-serif" font-size="12" font-weight="bold" lengthAdjust="spacing" textLength="60.5332" x="280.3457" y="266.7012">Duraci&#243;n</text><text fill="#000000" font-family="sans-serif" font-size="12" lengthAdjust="spacing" textLength="40.8164" x="7" y="282.6699">BIO-25</text><text fill="#000000" font-family="sans-serif" font-size="12" lengthAdjust="spacing" textLength="140.6836" x="55.5879" y="282.6699">Grado en Biotecnolog&#237;a</text><text fill="#000000" font-family="sans-serif" font-size="12" lengthAdjust="spacing" textLength="50.2383" x="218.2578" y="282.6699">Ciencias</text><text fill="#000000" font-family="sans-serif" font-size="12" lengthAdjust="spacing" textLength="40.8574" x="280.3457" y="282.6699">4 A&#241;os</text><text fill="#000000" font-family="sans-serif" font-size="12" lengthAdjust="spacing" textLength="39.75" x="7" y="298.6387">CIB-25</text><text fill="#000000" font-family="sans-serif" font-size="12" lengthAdjust="spacing" textLength="150.5215" x="55.5879" y="298.6387">Grado en Ciberseguridad</text><text fill="#000000" font-family="sans-serif" font-size="12" lengthAdjust="spacing" textLength="60.0879" x="218.2578" y="298.6387">Ingenier&#237;a</text><text fill="#000000" font-family="sans-serif" font-size="12" lengthAdjust="spacing" textLength="40.8574" x="280.3457" y="298.6387">4 A&#241;os</text><text fill="#000000" font-family="sans-serif" font-size="12" lengthAdjust="spacing" textLength="44.3789" x="7" y="314.6074">DAT-25</text><text fill="#000000" font-family="sans-serif" font-size="12" lengthAdjust="spacing" textLength="160.6699" x="55.5879" y="314.6074">Grado en Ciencia de Datos</text><text fill="#000000" font-family="sans-serif" font-size="12" lengthAdjust="spacing" textLength="60.0879" x="218.2578" y="314.6074">Ingenier&#237;a</text><text fill="#000000" font-family="sans-serif" font-size="12" lengthAdjust="spacing" textLength="40.8574" x="280.3457" y="314.6074">4 A&#241;os</text><line style="stroke:#000000;stroke-width:1;" x1="6" x2="54.5879" y1="254.5625" y2="254.5625"/><line style="stroke:#000000;stroke-width:1;" x1="217.2578" x2="279.3457" y1="286.5" y2="286.5"/><line style="stroke:#000000;stroke-width:1;" x1="54.5879" x2="217.2578" y1="254.5625" y2="254.5625"/><line style="stroke:#000000;stroke-width:1;" x1="279.3457" x2="341.8789" y1="286.5" y2="286.5"/><line style="stroke:#000000;stroke-width:1;" x1="217.2578" x2="279.3457" y1="254.5625" y2="254.5625"/><line style="stroke:#000000;stroke-width:1;" x1="279.3457" x2="341.8789" y1="254.5625" y2="254.5625"/><line style="stroke:#000000;stroke-width:1;" x1="6" x2="54.5879" y1="302.4688" y2="302.4688"/><line style="stroke:#000000;stroke-width:1;" x1="54.5879" x2="217.2578" y1="302.4688" y2="302.4688"/><line style="stroke:#000000;stroke-width:1;" x1="6" x2="54.5879" y1="270.5313" y2="270.5313"/><line style="stroke:#000000;stroke-width:1;" x1="217.2578" x2="279.3457" y1="302.4688" y2="302.4688"/><line style="stroke:#000000;stroke-width:1;" x1="54.5879" x2="217.2578" y1="270.5313" y2="270.5313"/><line style="stroke:#000000;stroke-width:1;" x1="279.3457" x2="341.8789" y1="302.4688" y2="302.4688"/><line style="stroke:#000000;stroke-width:1;" x1="217.2578" x2="279.3457" y1="270.5313" y2="270.5313"/><line style="stroke:#000000;stroke-width:1;" x1="279.3457" x2="341.8789" y1="270.5313" y2="270.5313"/><line style="stroke:#000000;stroke-width:1;" x1="6" x2="54.5879" y1="318.4375" y2="318.4375"/><line style="stroke:#000000;stroke-width:1;" x1="54.5879" x2="217.2578" y1="318.4375" y2="318.4375"/><line style="stroke:#000000;stroke-width:1;" x1="217.2578" x2="279.3457" y1="318.4375" y2="318.4375"/><line style="stroke:#000000;stroke-width:1;" x1="6" x2="54.5879" y1="286.5" y2="286.5"/><line style="stroke:#000000;stroke-width:1;" x1="279.3457" x2="341.8789" y1="318.4375" y2="318.4375"/><line style="stroke:#000000;stroke-width:1;" x1="54.5879" x2="217.2578" y1="286.5" y2="286.5"/><line style="stroke:#000000;stroke-width:1;" x1="6" x2="6" y1="254.5625" y2="270.5313"/><line style="stroke:#000000;stroke-width:1;" x1="217.2578" x2="217.2578" y1="286.5" y2="302.4688"/><line style="stroke:#000000;stroke-width:1;" x1="54.5879" x2="54.5879" y1="254.5625" y2="270.5313"/><line style="stroke:#000000;stroke-width:1;" x1="279.3457" x2="279.3457" y1="286.5" y2="302.4688"/><line style="stroke:#000000;stroke-width:1;" x1="341.8789" x2="341.8789" y1="286.5" y2="302.4688"/><line style="stroke:#000000;stroke-width:1;" x1="217.2578" x2="217.2578" y1="254.5625" y2="270.5313"/><line style="stroke:#000000;stroke-width:1;" x1="279.3457" x2="279.3457" y1="254.5625" y2="270.5313"/><line style="stroke:#000000;stroke-width:1;" x1="341.8789" x2="341.8789" y1="254.5625" y2="270.5313"/><line style="stroke:#000000;stroke-width:1;" x1="6" x2="6" y1="302.4688" y2="318.4375"/><line style="stroke:#000000;stroke-width:1;" x1="54.5879" x2="54.5879" y1="302.4688" y2="318.4375"/><line style="stroke:#000000;stroke-width:1;" x1="6" x2="6" y1="270.5313" y2="286.5"/><line style="stroke:#000000;stroke-width:1;" x1="217.2578" x2="217.2578" y1="302.4688" y2="318.4375"/><line style="stroke:#000000;stroke-width:1;" x1="54.5879" x2="54.5879" y1="270.5313" y2="286.5"/><line style="stroke:#000000;stroke-width:1;" x1="279.3457" x2="279.3457" y1="302.4688" y2="318.4375"/><line style="stroke:#000000;stroke-width:1;" x1="341.8789" x2="341.8789" y1="302.4688" y2="318.4375"/><line style="stroke:#000000;stroke-width:1;" x1="217.2578" x2="217.2578" y1="270.5313" y2="286.5"/><line style="stroke:#000000;stroke-width:1;" x1="279.3457" x2="279.3457" y1="270.5313" y2="286.5"/><line style="stroke:#000000;stroke-width:1;" x1="341.8789" x2="341.8789" y1="270.5313" y2="286.5"/><line style="stroke:#000000;stroke-width:1;" x1="6" x2="6" y1="286.5" y2="302.4688"/><line style="stroke:#000000;stroke-width:1;" x1="54.5879" x2="54.5879" y1="286.5" y2="302.4688"/><line style="stroke:#AAAAAA;stroke-width:1;" x1="6" x2="405.2266" y1="354.875" y2="354.875"/><line style="stroke:#AAAAAA;stroke-width:1;" x1="6" x2="405.2266" y1="356.875" y2="356.875"/><text fill="#000000" font-family="sans-serif" font-size="12" lengthAdjust="spacing" textLength="103.3418" x="9" y="387.4824">Acciones Finales:</text><line style="stroke:#000000;stroke-width:1;" x1="7" x2="146" y1="390.3125" y2="390.3125"/><line style="stroke:#000000;stroke-width:1;" x1="7" x2="7" y1="387.3125" y2="389.3125"/><line style="stroke:#000000;stroke-width:1;" x1="146" x2="146" y1="387.3125" y2="389.3125"/><rect fill="#EEEEEE" height="17.9688" rx="5" ry="5" style="stroke:#000000;stroke-width:2.5;" width="180" x="9.5" y="397.8125"/><text fill="#000000" font-family="sans-serif" font-size="12" lengthAdjust="spacing" textLength="130.4004" x="34.2998" y="410.9512">X Cancelar Operaci&#243;n</text><rect fill="#EEEEEE" height="17.9688" rx="5" ry="5" style="stroke:#000000;stroke-width:2.5;" width="196" x="196.5" y="397.8125"/><text fill="#000000" font-family="sans-serif" font-size="12" lengthAdjust="spacing" textLength="140.7891" x="224.1055" y="410.9512">&#10003; Confirmar e Importar</text><line style="stroke:#000000;stroke-width:1;" x1="5" x2="405.2266" y1="5" y2="5"/><line style="stroke:#000000;stroke-width:1;" x1="405.2266" x2="504.7793" y1="5" y2="5"/><line style="stroke:#000000;stroke-width:1;" x1="5" x2="405.2266" y1="420.2813" y2="420.2813"/><line style="stroke:#000000;stroke-width:1;" x1="405.2266" x2="504.7793" y1="420.2813" y2="420.2813"/><line style="stroke:#000000;stroke-width:1;" x1="5" x2="5" y1="5" y2="20.9688"/><line style="stroke:#000000;stroke-width:1;" x1="5" x2="5" y1="237.5938" y2="253.5625"/><line style="stroke:#000000;stroke-width:1;" x1="504.7793" x2="504.7793" y1="5" y2="20.9688"/><line style="stroke:#000000;stroke-width:1;" x1="504.7793" x2="504.7793" y1="237.5938" y2="253.5625"/><line style="stroke:#000000;stroke-width:1;" x1="5" x2="5" y1="173.7188" y2="189.6875"/><line style="stroke:#000000;stroke-width:1;" x1="504.7793" x2="504.7793" y1="173.7188" y2="189.6875"/><line style="stroke:#000000;stroke-width:1;" x1="5" x2="5" y1="108.8125" y2="124.7813"/><line style="stroke:#000000;stroke-width:1;" x1="5" x2="5" y1="393.3125" y2="420.2813"/><line style="stroke:#000000;stroke-width:1;" x1="504.7793" x2="504.7793" y1="108.8125" y2="124.7813"/><line style="stroke:#000000;stroke-width:1;" x1="504.7793" x2="504.7793" y1="393.3125" y2="420.2813"/><line style="stroke:#000000;stroke-width:1;" x1="5" x2="5" y1="44.9375" y2="60.9063"/><line style="stroke:#000000;stroke-width:1;" x1="5" x2="5" y1="335.4063" y2="351.375"/><line style="stroke:#000000;stroke-width:1;" x1="504.7793" x2="504.7793" y1="44.9375" y2="60.9063"/><line style="stroke:#000000;stroke-width:1;" x1="504.7793" x2="504.7793" y1="335.4063" y2="351.375"/><line style="stroke:#000000;stroke-width:1;" x1="5" x2="5" y1="221.625" y2="237.5938"/><line style="stroke:#000000;stroke-width:1;" x1="504.7793" x2="504.7793" y1="221.625" y2="237.5938"/><line style="stroke:#000000;stroke-width:1;" x1="5" x2="5" y1="165.7188" y2="173.7188"/><line style="stroke:#000000;stroke-width:1;" x1="504.7793" x2="504.7793" y1="165.7188" y2="173.7188"/><line style="stroke:#000000;stroke-width:1;" x1="5" x2="5" y1="92.8438" y2="108.8125"/><line style="stroke:#000000;stroke-width:1;" x1="5" x2="5" y1="375.3438" y2="393.3125"/><line style="stroke:#000000;stroke-width:1;" x1="504.7793" x2="504.7793" y1="92.8438" y2="108.8125"/><line style="stroke:#000000;stroke-width:1;" x1="504.7793" x2="504.7793" y1="375.3438" y2="393.3125"/><line style="stroke:#000000;stroke-width:1;" x1="5" x2="5" y1="28.9688" y2="44.9375"/><line style="stroke:#000000;stroke-width:1;" x1="5" x2="5" y1="319.4375" y2="335.4063"/><line style="stroke:#000000;stroke-width:1;" x1="504.7793" x2="504.7793" y1="28.9688" y2="44.9375"/><line style="stroke:#000000;stroke-width:1;" x1="504.7793" x2="504.7793" y1="319.4375" y2="335.4063"/><line style="stroke:#000000;stroke-width:1;" x1="5" x2="5" y1="205.6563" y2="221.625"/><line style="stroke:#000000;stroke-width:1;" x1="504.7793" x2="504.7793" y1="205.6563" y2="221.625"/><line style="stroke:#000000;stroke-width:1;" x1="5" x2="5" y1="149.75" y2="165.7188"/><line style="stroke:#000000;stroke-width:1;" x1="504.7793" x2="504.7793" y1="149.75" y2="165.7188"/><line style="stroke:#000000;stroke-width:1;" x1="5" x2="5" y1="76.875" y2="92.8438"/><line style="stroke:#000000;stroke-width:1;" x1="5" x2="5" y1="359.375" y2="375.3438"/><line style="stroke:#000000;stroke-width:1;" x1="504.7793" x2="504.7793" y1="76.875" y2="92.8438"/><line style="stroke:#000000;stroke-width:1;" x1="504.7793" x2="504.7793" y1="359.375" y2="375.3438"/><line style="stroke:#000000;stroke-width:1;" x1="5" x2="5" y1="20.9688" y2="28.9688"/><line style="stroke:#000000;stroke-width:1;" x1="5" x2="5" y1="253.5625" y2="319.4375"/><line style="stroke:#000000;stroke-width:1;" x1="504.7793" x2="504.7793" y1="20.9688" y2="28.9688"/><line style="stroke:#000000;stroke-width:1;" x1="504.7793" x2="504.7793" y1="253.5625" y2="319.4375"/><line style="stroke:#000000;stroke-width:1;" x1="5" x2="5" y1="189.6875" y2="205.6563"/><line style="stroke:#000000;stroke-width:1;" x1="504.7793" x2="504.7793" y1="189.6875" y2="205.6563"/><line style="stroke:#000000;stroke-width:1;" x1="5" x2="5" y1="124.7813" y2="149.75"/><line style="stroke:#000000;stroke-width:1;" x1="504.7793" x2="504.7793" y1="124.7813" y2="149.75"/><line style="stroke:#000000;stroke-width:1;" x1="5" x2="5" y1="60.9063" y2="76.875"/><line style="stroke:#000000;stroke-width:1;" x1="5" x2="5" y1="351.375" y2="359.375"/><line style="stroke:#000000;stroke-width:1;" x1="504.7793" x2="504.7793" y1="60.9063" y2="76.875"/><line style="stroke:#000000;stroke-width:1;" x1="504.7793" x2="504.7793" y1="351.375" y2="359.375"/><!--SRC=[VLJDJjj04BxxAKRq0geIaZHKhHKYd3yKIaYKcBGIGcXZJyn8wrswkuv0bAVejPS-08UAHyYRz4awTaA8QDMzh7TdvfjlPhxraNN2E2ka0qfljE7JiH6njbUV- -DkRnmCkjxzMmzuDMRD_c0q78V168x7GMSuWMyGJFgJi7iMTXlxisRXTdXuMEpbvw1HC1b2rOUsC8c06A57qJKQ3RjjdTv8T9nkRnE-2WjCT4qB3HObHX5fnJu-xEWvCiCh4OaOKuh4LQrIEoZVIdkxKuHrhIiS6v6MslY9GLJDdZQfS1eYRGn6JfVX7HXCo3gZBIoMFoLnlUN6VX6qpUA2EQSp4WR4ciy-JBLSe87BBRTIwHy5rxXWhUR4kIDQFYcuWocd530ok23ngju6DQTeQ4vVCmJ9j99Y2DmjnvIBJw4SvXT0YYlXKGcJEme9bd4n5Lm1RMFUlocsDQdsyYccHETvUMnySQRJcK46b10k7rqcjsnZaOgNKoSpgnesfFFLwWzBjGFsAFG2gA15cjagxcAoV1HiQHEgY8Jbppe4or_QRgBR_TQhw3RDq5XCCaEnYDdILmagGhF2UWtG2SA_08fiUOiwF6_xNuY7hKQLdtMxBToTeD0Tjxn7IaYq_afYzwoABwmB5Q5aOGnlSDqSkEGK5_3xn_VDu0qWzDUlYiqFteDtX2hENvldZIHFz7nm2YmdovcWMYxKNAtiXYo2Cxs0IXsg5RzMyUiVOJ098RVlURl7erEmEZCHJozNCSqonm1xtebO21Xdob6AVavDdNG-FLz0Lot8Q9MYSjx9TF3YyBvUQf632PfSsTE1ry6voFYFq6MbnQGI7yx3Nkc3TofKaec4iL5vRSsuviu7bKdv1m00]--></g></svg>