<svg xmlns="http://www.w3.org/2000/svg" xmlns:xlink="http://www.w3.org/1999/xlink" contentStyleType="text/css" data-diagram-type="SALT" height="270px" preserveAspectRatio="none" style="width:492px;height:270px;background:#FFFFFF;" version="1.1" viewBox="0 0 492 270" width="492px" zoomAndPan="magnify"><defs/><g><text fill="#000000" font-family="sans-serif" font-size="12" font-weight="bold" lengthAdjust="spacing" textLength="141.9902" x="6" y="17.1387">GENERAR EX&#193;MENES</text><line style="stroke:#AAAAAA;stroke-width:1;" x1="6" x2="181.0234" y1="25.4688" y2="25.4688"/><text fill="#000000" font-family="sans-serif" font-size="12" lengthAdjust="spacing" textLength="69.0117" x="6" y="41.1074">Asignatura:</text><rect fill="#EEEEEE" height="16.9688" style="stroke:#000000;stroke-width:1;" width="127" x="182.0234" y="29.9688"/><text fill="#000000" font-family="sans-serif" font-size="12" lengthAdjust="spacing" textLength="87.9727" x="184.0234" y="43.1074">Matem&#225;ticas II</text><line style="stroke:#000000;stroke-width:1;" x1="298.0234" x2="298.0234" y1="29.9688" y2="46.9375"/><polygon fill="#000000" points="301.0234,35.9688,307.0234,35.9688,304.0234,41.9375" style="stroke:#000000;stroke-width:1;"/><text fill="#000000" font-family="sans-serif" font-size="12" lengthAdjust="spacing" textLength="69.252" x="6" y="61.0762">Evaluaci&#243;n:</text><rect fill="#EEEEEE" height="16.9688" style="stroke:#000000;stroke-width:1;" width="95" x="182.0234" y="49.9375"/><text fill="#000000" font-family="sans-serif" font-size="12" lengthAdjust="spacing" textLength="57.2461" x="184.0234" y="63.0762">1&#186; Parcial</text><line style="stroke:#000000;stroke-width:1;" x1="266.0234" x2="266.0234" y1="49.9375" y2="66.9063"/><polygon fill="#000000" points="269.0234,55.9375,275.0234,55.9375,272.0234,61.9063" style="stroke:#000000;stroke-width:1;"/><line style="stroke:#AAAAAA;stroke-width:1;stroke-dasharray:1,2;" x1="6" x2="181.0234" y1="73.4063" y2="73.4063"/><text fill="#000000" font-family="sans-serif" font-size="12" lengthAdjust="spacing" textLength="81.8496" x="6" y="89.0449">Tema/Temas:</text><text fill="#000000" font-family="sans-serif" font-size="12" lengthAdjust="spacing" textLength="45.2051" x="27" y="106.0137">Tema 1</text><rect fill="none" height="10" style="stroke:#000000;stroke-width:1.5;" width="10" x="9" y="96.8594"/><polygon fill="#000000" points="10,100.875,13,103.875,20,94.875,13,101.875" style="stroke:#000000;stroke-width:1.5;"/><text fill="#000000" font-family="sans-serif" font-size="12" lengthAdjust="spacing" textLength="45.2051" x="27" y="121.9824">Tema 2</text><rect fill="none" height="10" style="stroke:#000000;stroke-width:1.5;" width="10" x="9" y="112.8281"/><polygon fill="#000000" points="10,116.8438,13,119.8438,20,110.8438,13,117.8438" style="stroke:#000000;stroke-width:1.5;"/><text fill="#000000" font-family="sans-serif" font-size="12" lengthAdjust="spacing" textLength="45.2051" x="27" y="137.9512">Tema 3</text><rect fill="none" height="10" style="stroke:#000000;stroke-width:1.5;" width="10" x="9" y="128.7969"/><text fill="#000000" font-family="sans-serif" font-size="12" lengthAdjust="spacing" textLength="45.2051" x="27" y="153.9199">Tema 4</text><rect fill="none" height="10" style="stroke:#000000;stroke-width:1.5;" width="10" x="9" y="144.7656"/><polygon fill="#000000" points="10,148.7813,13,151.7813,20,142.7813,13,149.7813" style="stroke:#000000;stroke-width:1.5;"/><line style="stroke:#AAAAAA;stroke-width:1;stroke-dasharray:1,2;" x1="7" x2="73.2051" y1="162.25" y2="162.25"/><line style="stroke:#000000;stroke-width:1;" x1="6" x2="73.2051" y1="93.875" y2="93.875"/><line style="stroke:#000000;stroke-width:1;" x1="6" x2="73.2051" y1="165.75" y2="165.75"/><line style="stroke:#000000;stroke-width:1;" x1="6" x2="6" y1="93.875" y2="109.8438"/><line style="stroke:#000000;stroke-width:1;" x1="73.2051" x2="73.2051" y1="109.8438" y2="125.8125"/><line style="stroke:#000000;stroke-width:1;" x1="73.2051" x2="73.2051" y1="93.875" y2="109.8438"/><line style="stroke:#000000;stroke-width:1;" x1="6" x2="6" y1="157.75" y2="165.75"/><line style="stroke:#000000;stroke-width:1;" x1="6" x2="6" y1="141.7813" y2="157.75"/><line style="stroke:#000000;stroke-width:1;" x1="73.2051" x2="73.2051" y1="157.75" y2="165.75"/><line style="stroke:#000000;stroke-width:1;" x1="6" x2="6" y1="125.8125" y2="141.7813"/><line style="stroke:#000000;stroke-width:1;" x1="73.2051" x2="73.2051" y1="141.7813" y2="157.75"/><line style="stroke:#000000;stroke-width:1;" x1="6" x2="6" y1="109.8438" y2="125.8125"/><line style="stroke:#000000;stroke-width:1;" x1="73.2051" x2="73.2051" y1="125.8125" y2="141.7813"/><rect fill="none" height="71.875" style="stroke:#000000;stroke-width:1;" width="15" x="77.2051" y="93.875"/><line style="stroke:#000000;stroke-width:1;" x1="77.2051" x2="92.2051" y1="105.875" y2="105.875"/><line style="stroke:#000000;stroke-width:1;" x1="77.2051" x2="92.2051" y1="153.75" y2="153.75"/><path d="M84.2051,97.875 L87.2051,102.875 L81.2051,102.875 L84.2051,97.875" fill="#000000"/><path d="M84.2051,162.75 L87.2051,157.75 L81.2051,157.75 L84.2051,162.75" fill="#000000"/><line style="stroke:#AAAAAA;stroke-width:1;stroke-dasharray:1,2;" x1="6" x2="181.0234" y1="171.25" y2="171.25"/><text fill="#000000" font-family="sans-serif" font-size="12" lengthAdjust="spacing" textLength="135.6738" x="6" y="186.8887">N&#250;mero de preguntas:</text><text fill="#000000" font-family="sans-serif" font-size="12" lengthAdjust="spacing" textLength="15.2695" x="185.0234" y="186.8887">10</text><line style="stroke:#000000;stroke-width:1;" x1="183.0234" x2="226.0234" y1="189.7188" y2="189.7188"/><line style="stroke:#000000;stroke-width:1;" x1="183.0234" x2="183.0234" y1="186.7188" y2="188.7188"/><line style="stroke:#000000;stroke-width:1;" x1="226.0234" x2="226.0234" y1="186.7188" y2="188.7188"/><text fill="#000000" font-family="sans-serif" font-size="12" lengthAdjust="spacing" textLength="174.0234" x="6" y="204.8574">Cantidad de tipos (modelos):</text><text fill="#000000" font-family="sans-serif" font-size="12" lengthAdjust="spacing" textLength="15.2695" x="185.0234" y="204.8574">34</text><line style="stroke:#000000;stroke-width:1;" x1="183.0234" x2="226.0234" y1="207.6875" y2="207.6875"/><line style="stroke:#000000;stroke-width:1;" x1="183.0234" x2="183.0234" y1="204.6875" y2="206.6875"/><line style="stroke:#000000;stroke-width:1;" x1="226.0234" x2="226.0234" y1="204.6875" y2="206.6875"/><text fill="#000000" font-family="sans-serif" font-size="12" lengthAdjust="spacing" textLength="146.6777" x="6" y="222.8262">Proporci&#243;n de dificultad:</text><rect fill="#EEEEEE" height="16.9688" style="stroke:#000000;stroke-width:1;" width="295" x="182.0234" y="211.6875"/><text fill="#000000" font-family="sans-serif" font-size="12" lengthAdjust="spacing" textLength="211.7637" x="184.0234" y="224.8262">30% F&#225;cil / 40% Media / 30% Dif&#237;cil</text><line style="stroke:#000000;stroke-width:1;" x1="466.0234" x2="466.0234" y1="211.6875" y2="228.6563"/><polygon fill="#000000" points="469.0234,217.6875,475.0234,217.6875,472.0234,223.6563" style="stroke:#000000;stroke-width:1;"/><line style="stroke:#AAAAAA;stroke-width:1;" x1="6" x2="181.0234" y1="235.1563" y2="235.1563"/><rect fill="#EEEEEE" height="17.9688" rx="5" ry="5" style="stroke:#000000;stroke-width:2.5;" width="60" x="8.5" y="242.1563"/><text fill="#000000" font-family="sans-serif" font-size="12" lengthAdjust="spacing" textLength="26.5723" x="25.2139" y="255.2949">Salir</text><rect fill="#EEEEEE" height="17.9688" rx="5" ry="5" style="stroke:#000000;stroke-width:2.5;" width="172" x="184.5234" y="242.1563"/><text fill="#000000" font-family="sans-serif" font-size="12" lengthAdjust="spacing" textLength="123.416" x="208.8154" y="255.2949">Confirmar y Generar</text><line style="stroke:#000000;stroke-width:1;" x1="5" x2="181.0234" y1="5" y2="5"/><line style="stroke:#000000;stroke-width:1;" x1="181.0234" x2="479.0234" y1="5" y2="5"/><line style="stroke:#000000;stroke-width:1;" x1="5" x2="181.0234" y1="263.625" y2="263.625"/><line style="stroke:#000000;stroke-width:1;" x1="181.0234" x2="479.0234" y1="263.625" y2="263.625"/><line style="stroke:#000000;stroke-width:1;" x1="5" x2="5" y1="5" y2="20.9688"/><line style="stroke:#000000;stroke-width:1;" x1="479.0234" x2="479.0234" y1="5" y2="20.9688"/><line style="stroke:#000000;stroke-width:1;" x1="5" x2="5" y1="230.6563" y2="238.6563"/><line style="stroke:#000000;stroke-width:1;" x1="479.0234" x2="479.0234" y1="230.6563" y2="238.6563"/><line style="stroke:#000000;stroke-width:1;" x1="5" x2="5" y1="166.75" y2="174.75"/><line style="stroke:#000000;stroke-width:1;" x1="479.0234" x2="479.0234" y1="166.75" y2="174.75"/><line style="stroke:#000000;stroke-width:1;" x1="5" x2="5" y1="48.9375" y2="68.9063"/><line style="stroke:#000000;stroke-width:1;" x1="479.0234" x2="479.0234" y1="48.9375" y2="68.9063"/><line style="stroke:#000000;stroke-width:1;" x1="5" x2="5" y1="210.6875" y2="230.6563"/><line style="stroke:#000000;stroke-width:1;" x1="479.0234" x2="479.0234" y1="210.6875" y2="230.6563"/><line style="stroke:#000000;stroke-width:1;" x1="5" x2="5" y1="92.875" y2="166.75"/><line style="stroke:#000000;stroke-width:1;" x1="479.0234" x2="479.0234" y1="92.875" y2="166.75"/><line style="stroke:#000000;stroke-width:1;" x1="5" x2="5" y1="28.9688" y2="48.9375"/><line style="stroke:#000000;stroke-width:1;" x1="479.0234" x2="479.0234" y1="28.9688" y2="48.9375"/><line style="stroke:#000000;stroke-width:1;" x1="5" x2="5" y1="192.7188" y2="210.6875"/><line style="stroke:#000000;stroke-width:1;" x1="479.0234" x2="479.0234" y1="192.7188" y2="210.6875"/><line style="stroke:#000000;stroke-width:1;" x1="5" x2="5" y1="76.9063" y2="92.875"/><line style="stroke:#000000;stroke-width:1;" x1="479.0234" x2="479.0234" y1="76.9063" y2="92.875"/><line style="stroke:#000000;stroke-width:1;" x1="5" x2="5" y1="20.9688" y2="28.9688"/><line style="stroke:#000000;stroke-width:1;" x1="479.0234" x2="479.0234" y1="20.9688" y2="28.9688"/><line style="stroke:#000000;stroke-width:1;" x1="5" x2="5" y1="238.6563" y2="263.625"/><line style="stroke:#000000;stroke-width:1;" x1="479.0234" x2="479.0234" y1="238.6563" y2="263.625"/><line style="stroke:#000000;stroke-width:1;" x1="5" x2="5" y1="174.75" y2="192.7188"/><line style="stroke:#000000;stroke-width:1;" x1="479.0234" x2="479.0234" y1="174.75" y2="192.7188"/><line style="stroke:#000000;stroke-width:1;" x1="5" x2="5" y1="68.9063" y2="76.9063"/><line style="stroke:#000000;stroke-width:1;" x1="479.0234" x2="479.0234" y1="68.9063" y2="76.9063"/><rect fill="none" height="71.875" style="stroke:#000000;stroke-width:1;" width="15" x="77.2051" y="93.875"/><line style="stroke:#000000;stroke-width:1;" x1="77.2051" x2="92.2051" y1="105.875" y2="105.875"/><line style="stroke:#000000;stroke-width:1;" x1="77.2051" x2="92.2051" y1="153.75" y2="153.75"/><path d="M84.2051,97.875 L87.2051,102.875 L81.2051,102.875 L84.2051,97.875" fill="#000000"/><path d="M84.2051,162.75 L87.2051,157.75 L81.2051,157.75 L84.2051,162.75" fill="#000000"/><!--SRC=[LL71Qjj04BtlLmo6WasnBTbgQKK8IMt5sB5SOpaXK68OIskniDergvKWn3dqK_81FUMMO_HZ7Kaf9KACtjDxUfgPlSWj6fkZjEpnCmCusv_FWbMmkTn0S5Vz3Wb7PyFzEKdzFfNBNAGARM7GXnFiGhGygvwjY367-Nn7Zg14MM0igXVLMDotLrYZYGNAMXuCgD2zvHaEwvBxn1wZELM0NtVtZGBkHpfgARpJyKVLQ-YWYNvgunkygbupRZGa78w6fuMoz3TehnDqN8UU7V9DK5cHO58RhJZg7BgPJhZKUQyUeJFsterheu_QDBFLtaGSH5n8YudVHkx6pYUugfvZ8M487f6G9m89ry9K7Ae_9EtQ5fjzidgg2AKmDDk9y4IhWp0P6dY06LVS4BfdJ-o2gwGv9hQMrEvDk8IIcrne1UvWv8o-35odkoquh7G9ZWUkuuySt_iEORI5Mk-nxcozX5mN9gvRpwqH-y9IG8yji4JOq7v4ndtuUUHgCRt-zm82LGgZLSQLPOlRyB_XgzV_8In4t50hS1koAJyWxOE-Y7KYLEh3pVQg_uqjKQK5ffJD5PjeoZKFFgX2ohy0]--></g></svg>