<svg xmlns="http://www.w3.org/2000/svg" xmlns:xlink="http://www.w3.org/1999/xlink" contentStyleType="text/css" data-diagram-type="SALT" height="286px" preserveAspectRatio="none" style="width:503px;height:286px;background:#FFFFFF;" version="1.1" viewBox="0 0 503 286" width="503px" zoomAndPan="magnify"><defs/><g><text fill="#000000" font-family="sans-serif" font-size="12" font-weight="bold" lengthAdjust="spacing" textLength="141.9902" x="6" y="17.1387">GENERAR EX&#193;MENES</text><line style="stroke:#AAAAAA;stroke-width:1;" x1="6" x2="192.7305" y1="25.4688" y2="25.4688"/><text fill="#000000" font-family="sans-serif" font-size="12" lengthAdjust="spacing" textLength="69.0117" x="6" y="41.1074">Asignatura:</text><rect fill="#EEEEEE" height="16.9688" style="stroke:#000000;stroke-width:1;" width="127" x="193.7305" y="29.9688"/><text fill="#000000" font-family="sans-serif" font-size="12" lengthAdjust="spacing" textLength="87.9727" x="195.7305" y="43.1074">Matem&#225;ticas II</text><line style="stroke:#000000;stroke-width:1;" x1="309.7305" x2="309.7305" y1="29.9688" y2="46.9375"/><polygon fill="#000000" points="312.7305,35.9688,318.7305,35.9688,315.7305,41.9375" style="stroke:#000000;stroke-width:1;"/><text fill="#000000" font-family="sans-serif" font-size="12" lengthAdjust="spacing" textLength="69.252" x="6" y="61.0762">Evaluaci&#243;n:</text><rect fill="#EEEEEE" height="16.9688" style="stroke:#000000;stroke-width:1;" width="95" x="193.7305" y="49.9375"/><text fill="#000000" font-family="sans-serif" font-size="12" lengthAdjust="spacing" textLength="57.2461" x="195.7305" y="63.0762">1&#186; Parcial</text><line style="stroke:#000000;stroke-width:1;" x1="277.7305" x2="277.7305" y1="49.9375" y2="66.9063"/><polygon fill="#000000" points="280.7305,55.9375,286.7305,55.9375,283.7305,61.9063" style="stroke:#000000;stroke-width:1;"/><line style="stroke:#AAAAAA;stroke-width:1;stroke-dasharray:1,2;" x1="6" x2="192.7305" y1="73.4063" y2="73.4063"/><text fill="#000000" font-family="sans-serif" font-size="12" lengthAdjust="spacing" textLength="81.8496" x="6" y="89.0449">Tema/Temas:</text><text fill="#000000" font-family="sans-serif" font-size="12" lengthAdjust="spacing" textLength="45.2051" x="27" y="106.0137">Tema 1</text><rect fill="none" height="10" style="stroke:#000000;stroke-width:1.5;" width="10" x="9" y="96.8594"/><polygon fill="#000000" points="10,100.875,13,103.875,20,94.875,13,101.875" style="stroke:#000000;stroke-width:1.5;"/><text fill="#000000" font-family="sans-serif" font-size="12" lengthAdjust="spacing" textLength="45.2051" x="27" y="121.9824">Tema 2</text><rect fill="none" height="10" style="stroke:#000000;stroke-width:1.5;" width="10" x="9" y="112.8281"/><polygon fill="#000000" points="10,116.8438,13,119.8438,20,110.8438,13,117.8438" style="stroke:#000000;stroke-width:1.5;"/><text fill="#000000" font-family="sans-serif" font-size="12" lengthAdjust="spacing" textLength="45.2051" x="27" y="137.9512">Tema 3</text><rect fill="none" height="10" style="stroke:#000000;stroke-width:1.5;" width="10" x="9" y="128.7969"/><text fill="#000000" font-family="sans-serif" font-size="12" lengthAdjust="spacing" textLength="45.2051" x="27" y="153.9199">Tema 4</text><rect fill="none" height="10" style="stroke:#000000;stroke-width:1.5;" width="10" x="9" y="144.7656"/><polygon fill="#000000" points="10,148.7813,13,151.7813,20,142.7813,13,149.7813" style="stroke:#000000;stroke-width:1.5;"/><line style="stroke:#AAAAAA;stroke-width:1;stroke-dasharray:1,2;" x1="7" x2="73.2051" y1="162.25" y2="162.25"/><line style="stroke:#000000;stroke-width:1;" x1="6" x2="73.2051" y1="93.875" y2="93.875"/><line style="stroke:#000000;stroke-width:1;" x1="6" x2="73.2051" y1="165.75" y2="165.75"/><line style="stroke:#000000;stroke-width:1;" x1="6" x2="6" y1="93.875" y2="109.8438"/><line style="stroke:#000000;stroke-width:1;" x1="73.2051" x2="73.2051" y1="109.8438" y2="125.8125"/><line style="stroke:#000000;stroke-width:1;" x1="73.2051" x2="73.2051" y1="93.875" y2="109.8438"/><line style="stroke:#000000;stroke-width:1;" x1="6" x2="6" y1="157.75" y2="165.75"/><line style="stroke:#000000;stroke-width:1;" x1="6" x2="6" y1="141.7813" y2="157.75"/><line style="stroke:#000000;stroke-width:1;" x1="73.2051" x2="73.2051" y1="157.75" y2="165.75"/><line style="stroke:#000000;stroke-width:1;" x1="6" x2="6" y1="125.8125" y2="141.7813"/><line style="stroke:#000000;stroke-width:1;" x1="73.2051" x2="73.2051" y1="141.7813" y2="157.75"/><line style="stroke:#000000;stroke-width:1;" x1="6" x2="6" y1="109.8438" y2="125.8125"/><line style="stroke:#000000;stroke-width:1;" x1="73.2051" x2="73.2051" y1="125.8125" y2="141.7813"/><rect fill="none" height="71.875" style="stroke:#000000;stroke-width:1;" width="15" x="77.2051" y="93.875"/><line style="stroke:#000000;stroke-width:1;" x1="77.2051" x2="92.2051" y1="105.875" y2="105.875"/><line style="stroke:#000000;stroke-width:1;" x1="77.2051" x2="92.2051" y1="153.75" y2="153.75"/><path d="M84.2051,97.875 L87.2051,102.875 L81.2051,102.875 L84.2051,97.875" fill="#000000"/><path d="M84.2051,162.75 L87.2051,157.75 L81.2051,157.75 L84.2051,162.75" fill="#000000"/><line style="stroke:#AAAAAA;stroke-width:1;stroke-dasharray:1,2;" x1="6" x2="192.7305" y1="171.25" y2="171.25"/><text fill="#000000" font-family="sans-serif" font-size="12" lengthAdjust="spacing" textLength="135.6738" x="6" y="186.8887">N&#250;mero de preguntas:</text><text fill="#000000" font-family="sans-serif" font-size="12" lengthAdjust="spacing" textLength="15.2695" x="196.7305" y="186.8887">10</text><line style="stroke:#000000;stroke-width:1;" x1="194.7305" x2="237.7305" y1="189.7188" y2="189.7188"/><line style="stroke:#000000;stroke-width:1;" x1="194.7305" x2="194.7305" y1="186.7188" y2="188.7188"/><line style="stroke:#000000;stroke-width:1;" x1="237.7305" x2="237.7305" y1="186.7188" y2="188.7188"/><text fill="#000000" font-family="sans-serif" font-size="12" lengthAdjust="spacing" textLength="136.752" x="6" y="204.8574">N&#250;mero de ex&#225;menes:</text><text fill="#000000" font-family="sans-serif" font-size="12" font-weight="bold" lengthAdjust="spacing" textLength="45.1641" x="146.5664" y="204.8574">&lt; 34 &gt;</text><text fill="#000000" font-family="sans-serif" font-size="12" lengthAdjust="spacing" textLength="174.0234" x="6" y="220.8262">Cantidad de tipos (modelos):</text><text fill="#000000" font-family="sans-serif" font-size="12" lengthAdjust="spacing" textLength="15.2695" x="196.7305" y="220.8262">34</text><line style="stroke:#000000;stroke-width:1;" x1="194.7305" x2="237.7305" y1="223.6563" y2="223.6563"/><line style="stroke:#000000;stroke-width:1;" x1="194.7305" x2="194.7305" y1="220.6563" y2="222.6563"/><line style="stroke:#000000;stroke-width:1;" x1="237.7305" x2="237.7305" y1="220.6563" y2="222.6563"/><text fill="#000000" font-family="sans-serif" font-size="12" lengthAdjust="spacing" textLength="146.6777" x="6" y="238.7949">Proporci&#243;n de dificultad:</text><rect fill="#EEEEEE" height="16.9688" style="stroke:#000000;stroke-width:1;" width="295" x="193.7305" y="227.6563"/><text fill="#000000" font-family="sans-serif" font-size="12" lengthAdjust="spacing" textLength="211.7637" x="195.7305" y="240.7949">30% F&#225;cil / 40% Media / 30% Dif&#237;cil</text><line style="stroke:#000000;stroke-width:1;" x1="477.7305" x2="477.7305" y1="227.6563" y2="244.625"/><polygon fill="#000000" points="480.7305,233.6563,486.7305,233.6563,483.7305,239.625" style="stroke:#000000;stroke-width:1;"/><line style="stroke:#AAAAAA;stroke-width:1;" x1="6" x2="192.7305" y1="251.125" y2="251.125"/><rect fill="#EEEEEE" height="17.9688" rx="5" ry="5" style="stroke:#000000;stroke-width:2.5;" width="60" x="8.5" y="258.125"/><text fill="#000000" font-family="sans-serif" font-size="12" lengthAdjust="spacing" textLength="26.5723" x="25.2139" y="271.2637">Salir</text><rect fill="#EEEEEE" height="17.9688" rx="5" ry="5" style="stroke:#000000;stroke-width:2.5;" width="172" x="196.2305" y="258.125"/><text fill="#000000" font-family="sans-serif" font-size="12" lengthAdjust="spacing" textLength="123.416" x="220.5225" y="271.2637">Confirmar y Generar</text><line style="stroke:#000000;stroke-width:1;" x1="5" x2="192.7305" y1="5" y2="5"/><line style="stroke:#000000;stroke-width:1;" x1="192.7305" x2="490.7305" y1="5" y2="5"/><line style="stroke:#000000;stroke-width:1;" x1="5" x2="192.7305" y1="279.5938" y2="279.5938"/><line style="stroke:#000000;stroke-width:1;" x1="192.7305" x2="490.7305" y1="279.5938" y2="279.5938"/><line style="stroke:#000000;stroke-width:1;" x1="5" x2="5" y1="5" y2="20.9688"/><line style="stroke:#000000;stroke-width:1;" x1="490.7305" x2="490.7305" y1="5" y2="20.9688"/><line style="stroke:#000000;stroke-width:1;" x1="5" x2="5" y1="226.6563" y2="246.625"/><line style="stroke:#000000;stroke-width:1;" x1="490.7305" x2="490.7305" y1="226.6563" y2="246.625"/><line style="stroke:#000000;stroke-width:1;" x1="5" x2="5" y1="166.75" y2="174.75"/><line style="stroke:#000000;stroke-width:1;" x1="490.7305" x2="490.7305" y1="166.75" y2="174.75"/><line style="stroke:#000000;stroke-width:1;" x1="5" x2="5" y1="48.9375" y2="68.9063"/><line style="stroke:#000000;stroke-width:1;" x1="490.7305" x2="490.7305" y1="48.9375" y2="68.9063"/><line style="stroke:#000000;stroke-width:1;" x1="5" x2="5" y1="208.6875" y2="226.6563"/><line style="stroke:#000000;stroke-width:1;" x1="490.7305" x2="490.7305" y1="208.6875" y2="226.6563"/><line style="stroke:#000000;stroke-width:1;" x1="5" x2="5" y1="92.875" y2="166.75"/><line style="stroke:#000000;stroke-width:1;" x1="490.7305" x2="490.7305" y1="92.875" y2="166.75"/><line style="stroke:#000000;stroke-width:1;" x1="5" x2="5" y1="28.9688" y2="48.9375"/><line style="stroke:#000000;stroke-width:1;" x1="490.7305" x2="490.7305" y1="28.9688" y2="48.9375"/><line style="stroke:#000000;stroke-width:1;" x1="5" x2="5" y1="254.625" y2="279.5938"/><line style="stroke:#000000;stroke-width:1;" x1="490.7305" x2="490.7305" y1="254.625" y2="279.5938"/><line style="stroke:#000000;stroke-width:1;" x1="5" x2="5" y1="192.7188" y2="208.6875"/><line style="stroke:#000000;stroke-width:1;" x1="490.7305" x2="490.7305" y1="192.7188" y2="208.6875"/><line style="stroke:#000000;stroke-width:1;" x1="5" x2="5" y1="76.9063" y2="92.875"/><line style="stroke:#000000;stroke-width:1;" x1="490.7305" x2="490.7305" y1="76.9063" y2="92.875"/><line style="stroke:#000000;stroke-width:1;" x1="5" x2="5" y1="20.9688" y2="28.9688"/><line style="stroke:#000000;stroke-width:1;" x1="490.7305" x2="490.7305" y1="20.9688" y2="28.9688"/><line style="stroke:#000000;stroke-width:1;" x1="5" x2="5" y1="246.625" y2="254.625"/><line style="stroke:#000000;stroke-width:1;" x1="490.7305" x2="490.7305" y1="246.625" y2="254.625"/><line style="stroke:#000000;stroke-width:1;" x1="5" x2="5" y1="174.75" y2="192.7188"/><line style="stroke:#000000;stroke-width:1;" x1="490.7305" x2="490.7305" y1="174.75" y2="192.7188"/><line style="stroke:#000000;stroke-width:1;" x1="5" x2="5" y1="68.9063" y2="76.9063"/><line style="stroke:#000000;stroke-width:1;" x1="490.7305" x2="490.7305" y1="68.9063" y2="76.9063"/><rect fill="none" height="71.875" style="stroke:#000000;stroke-width:1;" width="15" x="77.2051" y="93.875"/><line style="stroke:#000000;stroke-width:1;" x1="77.2051" x2="92.2051" y1="105.875" y2="105.875"/><line style="stroke:#000000;stroke-width:1;" x1="77.2051" x2="92.2051" y1="153.75" y2="153.75"/><path d="M84.2051,97.875 L87.2051,102.875 L81.2051,102.875 L84.2051,97.875" fill="#000000"/><path d="M84.2051,162.75 L87.2051,157.75 L81.2051,157.75 L84.2051,162.75" fill="#000000"/><!--SRC=[LL7HYjf057sVhxW81NKn9fgMDeZiLbtH6Yl6NHRA2jTab85aHYQJiCkw3_ifVa2V-hQFpO_r9cafXd1pJyx9cNjkhbE3sgGO6_PonG06k-5qifoiRzOmUIZUVEg3GNSt9AhJeNAJYeD4asdqu0HR7mrFYhCH8QOmcsr9CSanpZ0KnIzPIPpVxx127GgCIzgogD2zuGbsov9wX5w26LM07m-F5GFE9UpL4Fx2_YNhLj2gh5zh-wfV5ky9rmeY3aVD3vaqT1hKrmaQZatFngMEFnNdX4jEkdPx07qNXkqsIKOeZOWmAZL675KApKH5F5PfgqpP867jjTBgg7GLlzH6OY_2B3OOUVMfsxxz0MwBSoXYw89BmEUHGEfBOYpsnK-YjdMAQkMi31vWB3J5Fr4_Kd8lT88Qdc5Aishg7jahk-OogluaMyKqxfs_W9phL2W9ZjMpUnyjnsvkCWvBbOFjWcDxFTjplu0VRA3aMwmvNIqWLPaEoz5JeyKkCsJGOdFC4TQqGf5m3xuVkPoFl_rx0HEP2wqaRSwm-Rt_N_39xNmL1WAkQHIuzzcOxv7sGL-4AXBouC7TvhRpcIrG7Z8ya3UNRAJ8Lpzx8BCu_WC0]--></g></svg>