<svg xmlns="http://www.w3.org/2000/svg" xmlns:xlink="http://www.w3.org/1999/xlink" contentStyleType="text/css" data-diagram-type="STATE" height="896px" preserveAspectRatio="none" style="width:977px;height:896px;background:#FFFFFF;" version="1.1" viewBox="0 0 977 896" width="977px" zoomAndPan="magnify"><defs/><g><g id="ASIGNATURAS_ABIERTO2"><rect fill="#F1F1F1" height="50" rx="12.5" ry="12.5" style="stroke:#181818;stroke-width:0.5;" width="188.9365" x="391" y="840"/><line style="stroke:#181818;stroke-width:0.5;" x1="391" x2="579.9365" y1="866.2969" y2="866.2969"/><text fill="#000000" font-family="sans-serif" font-size="14" lengthAdjust="spacing" textLength="168.9365" x="401" y="857.9951">ASIGNATURAS_ABIERTO</text></g><path d="M19.5,117 L951.4361,117 A12.5,12.5 0 0 1 963.9361,129.5 L963.9361,143.2969 L7,143.2969 L7,129.5 A12.5,12.5 0 0 1 19.5,117" fill="#F1F1F1"/><rect fill="none" height="663.2969" rx="12.5" ry="12.5" style="stroke:#181818;stroke-width:0.5;" width="956.9361" x="7" y="117"/><line style="stroke:#181818;stroke-width:0.5;" x1="7" x2="963.9361" y1="143.2969" y2="143.2969"/><text fill="#000000" font-family="sans-serif" font-size="14" lengthAdjust="spacing" textLength="154.5742" x="408.1809" y="134.9951">importarAsignaturas()</text><g id="importarAsignaturas.RequiringImport"><rect fill="#F1F1F1" height="50" rx="12.5" ry="12.5" style="stroke:#181818;stroke-width:0.5;" width="50" x="322.9361" y="245.2969"/><line style="stroke:#181818;stroke-width:0.5;" x1="322.9361" x2="372.9361" y1="271.5938" y2="271.5938"/><text fill="#000000" font-family="sans-serif" font-size="14" lengthAdjust="spacing" textLength="4.4502" x="345.711" y="263.292">&#160;</text></g><g id="importarAsignaturas.ProvidingAsignaturas"><rect fill="#F1F1F1" height="50" rx="12.5" ry="12.5" style="stroke:#181818;stroke-width:0.5;" width="50" x="322.9361" y="381.2969"/><line style="stroke:#181818;stroke-width:0.5;" x1="322.9361" x2="372.9361" y1="407.5938" y2="407.5938"/><text fill="#000000" font-family="sans-serif" font-size="14" lengthAdjust="spacing" textLength="4.4502" x="345.711" y="399.292">&#160;</text></g><g id="importarAsignaturas.ProvidingConfirmation"><rect fill="#F1F1F1" height="50" rx="12.5" ry="12.5" style="stroke:#181818;stroke-width:0.5;" width="50" x="28.9361" y="502.2969"/><line style="stroke:#181818;stroke-width:0.5;" x1="28.9361" x2="78.9361" y1="528.5938" y2="528.5938"/><text fill="#000000" font-family="sans-serif" font-size="14" lengthAdjust="spacing" textLength="4.4502" x="51.711" y="520.292">&#160;</text></g><g class="entity" data-entity="c" data-uid="ent0007" id="entity_c"><polygon fill="#F1F1F1" points="347.9361,653.2969,359.9361,665.2969,347.9361,677.2969,335.9361,665.2969,347.9361,653.2969" style="stroke:#181818;stroke-width:0.5;"/></g><ellipse cx="347.9361" cy="164.2969" fill="#222222" rx="10" ry="10" style="stroke:#222222;stroke-width:1;"/><ellipse cx="347.9361" cy="759.2969" fill="none" rx="11" ry="11" style="stroke:#222222;stroke-width:1;"/><ellipse cx="347.9361" cy="759.2969" fill="#222222" rx="6" ry="6" style="stroke:#222222;stroke-width:1;"/><!--link *start*importarAsignaturas to RequiringImport--><g class="link" data-entity-1=".start.importarAsignaturas" data-entity-2="RequiringImport" data-source-line="12" data-uid="lnk3" id="link_.start.importarAsignaturas_RequiringImport"><path d="M347.9361,174.5269 C347.9361,190.2369 347.9361,216.6569 347.9361,239.1669" fill="none" id="*start*importarAsignaturas-to-RequiringImport" style="stroke:#008000;stroke-width:1;"/><polygon fill="#008000" points="347.9361,245.1669,351.9361,236.1669,347.9361,240.1669,343.9361,236.1669,347.9361,245.1669" style="stroke:#008000;stroke-width:1;"/><path d="M352.9361,197.2969 L352.9361,222.2969 L624.9361,222.2969 L624.9361,207.2969 L614.9361,197.2969 L352.9361,197.2969" fill="#FEFFDD" style="stroke:#181818;stroke-width:0.5;"/><path d="M614.9361,197.2969 L614.9361,207.2969 L624.9361,207.2969 L614.9361,197.2969" fill="#FEFFDD" style="stroke:#181818;stroke-width:0.5;"/><text fill="#000000" font-family="sans-serif" font-size="13" font-weight="bold" lengthAdjust="spacing" textLength="60.5313" x="358.9361" y="214.3638">Docente</text><text fill="#000000" font-family="sans-serif" font-size="13" lengthAdjust="spacing" textLength="186.5005" x="423.5997" y="214.3638">solicita importar asignaturas</text></g><!--link RequiringImport to ProvidingAsignaturas--><g class="link" data-entity-1="RequiringImport" data-entity-2="ProvidingAsignaturas" data-source-line="17" data-uid="lnk4" id="link_RequiringImport_ProvidingAsignaturas"><path d="M347.9361,295.5669 C347.9361,319.8469 347.9361,350.9869 347.9361,375.2069" fill="none" id="RequiringImport-to-ProvidingAsignaturas" style="stroke:#008000;stroke-width:1;"/><polygon fill="#008000" points="347.9361,381.2069,351.9361,372.2069,347.9361,376.2069,343.9361,372.2069,347.9361,381.2069" style="stroke:#008000;stroke-width:1;"/><path d="M352.9361,318.2969 L352.9361,358.2969 L553.9361,358.2969 L553.9361,328.2969 L543.9361,318.2969 L352.9361,318.2969" fill="#FEFFDD" style="stroke:#181818;stroke-width:0.5;"/><path d="M543.9361,318.2969 L543.9361,328.2969 L553.9361,328.2969 L543.9361,318.2969" fill="#FEFFDD" style="stroke:#181818;stroke-width:0.5;"/><text fill="#000000" font-family="sans-serif" font-size="13" font-weight="bold" lengthAdjust="spacing" textLength="58.9063" x="358.9361" y="335.3638">Sistema</text><text fill="#000000" font-family="sans-serif" font-size="13" lengthAdjust="spacing" textLength="117.9395" x="421.9747" y="335.3638">permite introducir</text><text fill="#000000" font-family="sans-serif" font-size="13" lengthAdjust="spacing" textLength="160.4941" x="358.9361" y="350.4966">&#8226; asignaturas a importar</text></g><!--link ProvidingAsignaturas to ProvidingConfirmation--><g class="link" data-entity-1="ProvidingAsignaturas" data-entity-2="ProvidingConfirmation" data-source-line="23" data-uid="lnk5" id="link_ProvidingAsignaturas_ProvidingConfirmation"><path d="M322.7861,410.5569 C246.6561,420.4269 23.9361,449.2969 23.9361,449.2969 C23.9361,449.2969 23.9361,484.2969 23.9361,484.2969 C23.9361,484.2969 26.3986,487.7445 32.9986,496.9845" fill="none" id="ProvidingAsignaturas-to-ProvidingConfirmation" style="stroke:#008000;stroke-width:1;"/><polygon fill="#008000" points="36.4861,501.8669,34.5099,492.2183,33.5799,497.7982,28,496.8682,36.4861,501.8669" style="stroke:#008000;stroke-width:1;"/><path d="M28.9361,454.2969 L28.9361,479.2969 L328.9361,479.2969 L328.9361,464.2969 L318.9361,454.2969 L28.9361,454.2969" fill="#FEFFDD" style="stroke:#181818;stroke-width:0.5;"/><path d="M318.9361,454.2969 L318.9361,464.2969 L328.9361,464.2969 L318.9361,454.2969" fill="#FEFFDD" style="stroke:#181818;stroke-width:0.5;"/><text fill="#000000" font-family="sans-serif" font-size="13" font-weight="bold" lengthAdjust="spacing" textLength="60.5313" x="34.9361" y="471.3638">Docente</text><text fill="#000000" font-family="sans-serif" font-size="13" lengthAdjust="spacing" textLength="214.7095" x="99.5997" y="471.3638">introduce asignaturas a importar</text></g><!--link ProvidingConfirmation to c--><g class="link" data-entity-1="ProvidingConfirmation" data-entity-2="c" data-source-line="28" data-uid="lnk6" id="link_ProvidingConfirmation_c"><path d="M74.8061,552.3069 C102.2261,583.8569 146.9361,635.2969 146.9361,635.2969 C146.9361,635.2969 292.1475,656.2507 332.3075,662.0407" fill="none" id="ProvidingConfirmation-to-c" style="stroke:#008000;stroke-width:1;"/><polygon fill="#008000" points="338.2461,662.8969,329.909,657.6535,333.2972,662.1834,328.7674,665.5717,338.2461,662.8969" style="stroke:#008000;stroke-width:1;"/><path d="M151.9361,575.2969 L151.9361,630.2969 L328.9361,630.2969 L328.9361,585.2969 L318.9361,575.2969 L151.9361,575.2969" fill="#FEFFDD" style="stroke:#181818;stroke-width:0.5;"/><path d="M318.9361,575.2969 L318.9361,585.2969 L328.9361,585.2969 L318.9361,575.2969" fill="#FEFFDD" style="stroke:#181818;stroke-width:0.5;"/><text fill="#000000" font-family="sans-serif" font-size="13" font-weight="bold" lengthAdjust="spacing" textLength="60.5313" x="157.9361" y="592.3638">Docente</text><text fill="#000000" font-family="sans-serif" font-size="13" lengthAdjust="spacing" textLength="45.7729" x="222.5997" y="592.3638">solicita</text><text fill="#000000" font-family="sans-serif" font-size="13" lengthAdjust="spacing" textLength="156.6221" x="157.9361" y="607.4966">&#8226; confirmar importaci&#243;n</text><text fill="#000000" font-family="sans-serif" font-size="13" lengthAdjust="spacing" textLength="149.1953" x="157.9361" y="622.6294">&#8226; cancelar importaci&#243;n</text></g><!--link c to ProvidingAsignaturas--><g class="link" data-entity-1="c" data-entity-2="ProvidingAsignaturas" data-source-line="35" data-uid="lnk7" id="link_c_ProvidingAsignaturas"><path d="M347.9361,653.2469 C347.9361,614.6869 347.9361,491.5769 347.9361,437.4769" fill="none" id="c-to-ProvidingAsignaturas" style="stroke:#FF0000;stroke-width:1;"/><polygon fill="#FF0000" points="347.9361,431.4769,343.9361,440.4769,347.9361,436.4769,351.9361,440.4769,347.9361,431.4769" style="stroke:#FF0000;stroke-width:1;"/><path d="M352.9361,514.7969 L352.9361,539.7969 L563.9361,539.7969 L563.9361,524.7969 L553.9361,514.7969 L352.9361,514.7969" fill="#FEFFDD" style="stroke:#181818;stroke-width:0.5;"/><path d="M553.9361,514.7969 L553.9361,524.7969 L563.9361,524.7969 L553.9361,514.7969" fill="#FEFFDD" style="stroke:#181818;stroke-width:0.5;"/><text fill="#000000" font-family="sans-serif" font-size="13" lengthAdjust="spacing" textLength="190.6265" x="358.9361" y="531.8638">Docente cancela importaci&#243;n</text></g><!--link c to ProvidingAsignaturas--><g class="link" data-entity-1="c" data-entity-2="ProvidingAsignaturas" data-source-line="40" data-uid="lnk8" id="link_c_ProvidingAsignaturas"><path d="M355.4261,660.5669 C394.4661,641.1369 572.9361,552.2969 572.9361,552.2969 C572.9361,552.2969 572.9361,502.2969 572.9361,502.2969 C572.9361,502.2969 437.6835,445.1909 378.8335,420.3409" fill="none" id="c-to-ProvidingAsignaturas-1" style="stroke:#FF0000;stroke-width:1;"/><polygon fill="#FF0000" points="373.3061,418.0069,380.0412,425.1928,377.9123,419.9519,383.1532,417.8229,373.3061,418.0069" style="stroke:#FF0000;stroke-width:1;"/><path d="M577.9361,514.7969 L577.9361,539.7969 L954.9361,539.7969 L954.9361,524.7969 L944.9361,514.7969 L577.9361,514.7969" fill="#FEFFDD" style="stroke:#181818;stroke-width:0.5;"/><path d="M944.9361,514.7969 L944.9361,524.7969 L954.9361,524.7969 L944.9361,514.7969" fill="#FEFFDD" style="stroke:#181818;stroke-width:0.5;"/><text fill="#000000" font-family="sans-serif" font-size="13" lengthAdjust="spacing" textLength="356.605" x="583.9361" y="531.8638">Docente confirma importaci&#243;n: error en la importaci&#243;n</text></g><!--link c to *end*importarAsignaturas--><g class="link" data-entity-1="c" data-entity-2=".end.importarAsignaturas" data-source-line="45" data-uid="lnk10" id="link_c_.end.importarAsignaturas"><path d="M347.9361,677.5769 C347.9361,695.6169 347.9361,724.6969 347.9361,742.0569" fill="none" id="c-to-*end*importarAsignaturas" style="stroke:#008000;stroke-width:1;"/><polygon fill="#008000" points="347.9361,748.0569,351.9361,739.0569,347.9361,743.0569,343.9361,739.0569,347.9361,748.0569" style="stroke:#008000;stroke-width:1;"/><path d="M352.9361,700.2969 L352.9361,725.2969 L708.9361,725.2969 L708.9361,710.2969 L698.9361,700.2969 L352.9361,700.2969" fill="#FEFFDD" style="stroke:#181818;stroke-width:0.5;"/><path d="M698.9361,700.2969 L698.9361,710.2969 L708.9361,710.2969 L698.9361,700.2969" fill="#FEFFDD" style="stroke:#181818;stroke-width:0.5;"/><text fill="#000000" font-family="sans-serif" font-size="13" lengthAdjust="spacing" textLength="335.6323" x="358.9361" y="717.3638">Docente confirma importaci&#243;n: importaci&#243;n exitosa</text></g><g id="ASIGNATURAS_ABIERTO"><rect fill="#F1F1F1" height="50" rx="12.5" ry="12.5" style="stroke:#181818;stroke-width:0.5;" width="188.9365" x="391" y="7"/><line style="stroke:#181818;stroke-width:0.5;" x1="391" x2="579.9365" y1="33.2969" y2="33.2969"/><text fill="#000000" font-family="sans-serif" font-size="14" lengthAdjust="spacing" textLength="168.9365" x="401" y="24.9951">ASIGNATURAS_ABIERTO</text></g><!--link ASIGNATURAS_ABIERTO to importarAsignaturas--><g class="link" data-entity-1="ASIGNATURAS_ABIERTO" data-entity-2="importarAsignaturas" data-source-line="51" data-uid="lnk12" id="link_ASIGNATURAS_ABIERTO_importarAsignaturas"><path d="M485.5,57.08 C485.5,71.85 485.5,86.58 485.5,110.86" fill="none" id="ASIGNATURAS_ABIERTO-to-importarAsignaturas" style="stroke:#008000;stroke-width:1;"/><polygon fill="#008000" points="485.5,116.86,489.5,107.86,485.5,111.86,481.5,107.86,485.5,116.86" style="stroke:#008000;stroke-width:1;"/></g><!--link importarAsignaturas to ASIGNATURAS_ABIERTO2--><g class="link" data-entity-1="importarAsignaturas" data-entity-2="ASIGNATURAS_ABIERTO2" data-source-line="52" data-uid="lnk13" id="link_importarAsignaturas_ASIGNATURAS_ABIERTO2"><path d="M485.5,780.12 C485.5,804.36 485.5,819.06 485.5,833.83" fill="none" id="importarAsignaturas-to-ASIGNATURAS_ABIERTO2" style="stroke:#008000;stroke-width:1;"/><polygon fill="#008000" points="485.5,839.83,489.5,830.83,485.5,834.83,481.5,830.83,485.5,839.83" style="stroke:#008000;stroke-width:1;"/></g><!--SRC=[jPHBJiCm48RtFeKLDe1K8R54KQJm4Ee6K5jMLOLSPoYZ9dQOk8WA8N4Mhi0Hk0admKcQDgRcqKeuAtlcd__pM9bYYYeN93AUeW8ppu7dEfsN6yOA8mpmkDyzluW7rxsuVnCVTyzwWyj3BWeUU0918y8irsG4nGLEb30pie9IupdVtGlu4sFShbeRsC_czk1-XeHgqgqqwmbNf1ymiGcjOZzadMXrYvG9WrgrqYGFGtcdKK8KrHJ3_H7l37Sc1A16dSWBehILQbLsRLeTXEFeL4jG1iA3SSGBdQ948vQDi2Wk9AYahc9NxVl5ns7uzgu-a3uM1Z9HWUH06POFeWpfP2QHggoFbzSs4L-1Ed0rcC_SJxVMuz_wr6315ZHjCmT7RlH4otx8HJrgt2M-lwbLM2W9gI_gyicIXI3PxDaMP8tBFviiRkgu774WqcID-1_zbmstVynMXkqTXqSqkX2ksJDZdZ7Zc7j62lEDdxR6DzC-0G00]--></g></svg>