<svg xmlns="http://www.w3.org/2000/svg" xmlns:xlink="http://www.w3.org/1999/xlink" contentStyleType="text/css" data-diagram-type="STATE" height="811px" preserveAspectRatio="none" style="width:825px;height:811px;background:#FFFFFF;" version="1.1" viewBox="0 0 825 811" width="825px" zoomAndPan="magnify"><defs/><g><g id="RESPUESTAS_ABIERTO"><rect fill="#F1F1F1" height="50" rx="12.5" ry="12.5" style="stroke:#181818;stroke-width:0.5;" width="179.3525" x="258.5" y="7"/><line style="stroke:#181818;stroke-width:0.5;" x1="258.5" x2="437.8525" y1="33.2969" y2="33.2969"/><text fill="#000000" font-family="sans-serif" font-size="14" lengthAdjust="spacing" textLength="159.3525" x="268.5" y="24.9951">RESPUESTAS_ABIERTO</text></g><g id="RESPUESTA_ABIERTO"><rect fill="#F1F1F1" height="50" rx="12.5" ry="12.5" style="stroke:#181818;stroke-width:0.5;" width="170.4658" x="7" y="755"/><line style="stroke:#181818;stroke-width:0.5;" x1="7" x2="177.4658" y1="781.2969" y2="781.2969"/><text fill="#000000" font-family="sans-serif" font-size="14" lengthAdjust="spacing" textLength="150.4658" x="17" y="772.9951">RESPUESTA_ABIERTO</text></g><g id="RESPUESTAS_CONTEXTUALES_ABIERTO"><rect fill="#F1F1F1" height="50" rx="12.5" ry="12.5" style="stroke:#181818;stroke-width:0.5;" width="298.5166" x="212.5" y="755"/><line style="stroke:#181818;stroke-width:0.5;" x1="212.5" x2="511.0166" y1="781.2969" y2="781.2969"/><text fill="#000000" font-family="sans-serif" font-size="14" lengthAdjust="spacing" textLength="278.5166" x="222.5" y="772.9951">RESPUESTAS_CONTEXTUALES_ABIERTO</text></g><g id="RESPUESTA_CONTEXTUAL_ABIERTO"><rect fill="#F1F1F1" height="50" rx="12.5" ry="12.5" style="stroke:#181818;stroke-width:0.5;" width="271.8975" x="547" y="755"/><line style="stroke:#181818;stroke-width:0.5;" x1="547" x2="818.8975" y1="781.2969" y2="781.2969"/><text fill="#000000" font-family="sans-serif" font-size="14" lengthAdjust="spacing" textLength="251.8975" x="557" y="772.9951">RESPUESTA_CONTEXTUAL_ABIERTO</text></g><path d="M91,152 L605,152 A12.5,12.5 0 0 1 617.5,164.5 L617.5,178.2969 L78.5,178.2969 L78.5,164.5 A12.5,12.5 0 0 1 91,152" fill="#F1F1F1"/><rect fill="none" height="508.2969" rx="12.5" ry="12.5" style="stroke:#181818;stroke-width:0.5;" width="539" x="78.5" y="152"/><line style="stroke:#181818;stroke-width:0.5;" x1="78.5" x2="617.5" y1="178.2969" y2="178.2969"/><text fill="#000000" font-family="sans-serif" font-size="14" lengthAdjust="spacing" textLength="125.5078" x="285.2461" y="169.9951">editarRespuesta()</text><g id="editarRespuesta.EditandoDatos"><rect fill="#F1F1F1" height="50" rx="12.5" ry="12.5" style="stroke:#181818;stroke-width:0.5;" width="50" x="206.5" y="280.2969"/><line style="stroke:#181818;stroke-width:0.5;" x1="206.5" x2="256.5" y1="306.5938" y2="306.5938"/><text fill="#000000" font-family="sans-serif" font-size="14" lengthAdjust="spacing" textLength="4.4502" x="229.2749" y="298.292">&#160;</text></g><g id="editarRespuesta.GuardandoDatos"><rect fill="#F1F1F1" height="50" rx="12.5" ry="12.5" style="stroke:#181818;stroke-width:0.5;" width="50" x="206.5" y="507.2969"/><line style="stroke:#181818;stroke-width:0.5;" x1="206.5" x2="256.5" y1="533.5938" y2="533.5938"/><text fill="#000000" font-family="sans-serif" font-size="14" lengthAdjust="spacing" textLength="4.4502" x="229.2749" y="525.292">&#160;</text></g><ellipse cx="231.5" cy="199.2969" fill="#222222" rx="10" ry="10" style="stroke:#222222;stroke-width:1;"/><ellipse cx="231.5" cy="639.2969" fill="none" rx="11" ry="11" style="stroke:#222222;stroke-width:1;"/><ellipse cx="231.5" cy="639.2969" fill="#222222" rx="6" ry="6" style="stroke:#222222;stroke-width:1;"/><!--link *start*editarRespuesta to EditandoDatos--><g class="link" data-entity-1=".start.editarRespuesta" data-entity-2="EditandoDatos" data-source-line="18" data-uid="lnk7" id="link_.start.editarRespuesta_EditandoDatos"><path d="M231.5,209.5269 C231.5,225.2369 231.5,251.6569 231.5,274.1669" fill="none" id="*start*editarRespuesta-to-EditandoDatos" style="stroke:#008000;stroke-width:1;"/><polygon fill="#008000" points="231.5,280.1669,235.5,271.1669,231.5,275.1669,227.5,271.1669,231.5,280.1669" style="stroke:#008000;stroke-width:1;"/><path d="M236.5,232.2969 L236.5,257.2969 L478.5,257.2969 L478.5,242.2969 L468.5,232.2969 L236.5,232.2969" fill="#FEFFDD" style="stroke:#181818;stroke-width:0.5;"/><path d="M468.5,232.2969 L468.5,242.2969 L478.5,242.2969 L468.5,232.2969" fill="#FEFFDD" style="stroke:#181818;stroke-width:0.5;"/><text fill="#000000" font-family="sans-serif" font-size="13" font-weight="bold" lengthAdjust="spacing" textLength="60.5313" x="242.5" y="249.3638">Docente</text><text fill="#000000" font-family="sans-serif" font-size="13" lengthAdjust="spacing" textLength="156.749" x="307.1636" y="249.3638">solicita editar respuesta</text></g><!--link EditandoDatos to GuardandoDatos--><g class="link" data-entity-1="EditandoDatos" data-entity-2="GuardandoDatos" data-source-line="23" data-uid="lnk8" id="link_EditandoDatos_GuardandoDatos"><path d="M206.44,313.7069 C165.67,325.7669 89.5,348.2969 89.5,348.2969 C89.5,348.2969 89.5,489.2969 89.5,489.2969 C89.5,489.2969 159.9164,510.1249 200.6864,522.1849" fill="none" id="EditandoDatos-to-GuardandoDatos" style="stroke:#008000;stroke-width:1;"/><polygon fill="#008000" points="206.44,523.8869,198.9443,517.4983,201.6454,522.4686,196.675,525.1697,206.44,523.8869" style="stroke:#008000;stroke-width:1;"/><path d="M94.5,353.2969 L94.5,484.2969 L347.5,484.2969 L347.5,363.2969 L337.5,353.2969 L94.5,353.2969" fill="#FEFFDD" style="stroke:#181818;stroke-width:0.5;"/><path d="M337.5,353.2969 L337.5,363.2969 L347.5,363.2969 L337.5,353.2969" fill="#FEFFDD" style="stroke:#181818;stroke-width:0.5;"/><text fill="#000000" font-family="sans-serif" font-size="13" font-weight="bold" lengthAdjust="spacing" textLength="58.9063" x="100.5" y="370.3638">Sistema</text><text fill="#000000" font-family="sans-serif" font-size="13" lengthAdjust="spacing" textLength="169.1714" x="163.5386" y="370.3638">presenta datos de edici&#243;n</text><text fill="#000000" font-family="sans-serif" font-size="13" lengthAdjust="spacing" textLength="78.2222" x="100.5" y="385.4966">&#8226; Contenido</text><text fill="#000000" font-family="sans-serif" font-size="13" lengthAdjust="spacing" textLength="137.96" x="100.5" y="400.6294">&#8226; Correcta/incorrecta</text><text fill="#000000" font-family="sans-serif" font-size="13" lengthAdjust="spacing" textLength="4.1323" x="100.5" y="415.7622">&#160;</text><text fill="#000000" font-family="sans-serif" font-size="13" font-weight="bold" lengthAdjust="spacing" textLength="58.9063" x="100.5" y="430.895">Sistema</text><text fill="#000000" font-family="sans-serif" font-size="13" lengthAdjust="spacing" textLength="110.5952" x="163.5386" y="430.895">permite solicitar:</text><text fill="#000000" font-family="sans-serif" font-size="13" lengthAdjust="spacing" textLength="127.8164" x="100.5" y="446.0278">&#8226; modificar campos</text><text fill="#000000" font-family="sans-serif" font-size="13" lengthAdjust="spacing" textLength="131.7393" x="100.5" y="461.1606">&#8226; guardar respuesta</text><text fill="#000000" font-family="sans-serif" font-size="13" lengthAdjust="spacing" textLength="118.168" x="100.5" y="476.2935">&#8226; cancelar edici&#243;n</text></g><!--link GuardandoDatos to EditandoDatos--><g class="link" data-entity-1="GuardandoDatos" data-entity-2="EditandoDatos" data-source-line="35" data-uid="lnk9" id="link_GuardandoDatos_EditandoDatos"><path d="M256.57,522.5969 C292.01,510.2969 352.5,489.2969 352.5,489.2969 C352.5,489.2969 352.5,348.2969 352.5,348.2969 C352.5,348.2969 297.6783,329.2642 262.2383,316.9642" fill="none" id="GuardandoDatos-to-EditandoDatos" style="stroke:#008000;stroke-width:1;"/><polygon fill="#008000" points="256.57,314.9969,263.761,321.7267,261.2936,316.6363,266.384,314.1689,256.57,314.9969" style="stroke:#008000;stroke-width:1;"/><path d="M357.5,406.2969 L357.5,431.2969 L608.5,431.2969 L608.5,416.2969 L598.5,406.2969 L357.5,406.2969" fill="#FEFFDD" style="stroke:#181818;stroke-width:0.5;"/><path d="M598.5,406.2969 L598.5,416.2969 L608.5,416.2969 L598.5,406.2969" fill="#FEFFDD" style="stroke:#181818;stroke-width:0.5;"/><text fill="#000000" font-family="sans-serif" font-size="13" font-weight="bold" lengthAdjust="spacing" textLength="60.5313" x="363.5" y="423.3638">Docente</text><text fill="#000000" font-family="sans-serif" font-size="13" lengthAdjust="spacing" textLength="165.9214" x="428.1636" y="423.3638">solicita modificar campos</text></g><!--link GuardandoDatos to *end*editarRespuesta--><g class="link" data-entity-1="GuardandoDatos" data-entity-2=".end.editarRespuesta" data-source-line="40" data-uid="lnk11" id="link_GuardandoDatos_.end.editarRespuesta"><path d="M206.43,541.3969 C168.66,553.5969 101.5,575.2969 101.5,575.2969 C101.5,575.2969 101.5,610.2969 101.5,610.2969 C101.5,610.2969 183.9446,628.0531 214.9946,634.7431" fill="none" id="GuardandoDatos-to-*end*editarRespuesta" style="stroke:#008000;stroke-width:1;"/><polygon fill="#008000" points="220.86,636.0069,212.9044,630.201,215.9722,634.9537,211.2194,638.0215,220.86,636.0069" style="stroke:#008000;stroke-width:1;"/><path d="M106.5,580.2969 L106.5,605.2969 L336.5,605.2969 L336.5,590.2969 L326.5,580.2969 L106.5,580.2969" fill="#FEFFDD" style="stroke:#181818;stroke-width:0.5;"/><path d="M326.5,580.2969 L326.5,590.2969 L336.5,590.2969 L326.5,580.2969" fill="#FEFFDD" style="stroke:#181818;stroke-width:0.5;"/><text fill="#000000" font-family="sans-serif" font-size="13" font-weight="bold" lengthAdjust="spacing" textLength="60.5313" x="112.5" y="597.3638">Docente</text><text fill="#000000" font-family="sans-serif" font-size="13" lengthAdjust="spacing" textLength="144.5361" x="177.1636" y="597.3638">solicita guardar y salir</text></g><!--link GuardandoDatos to *end*editarRespuesta--><g class="link" data-entity-1="GuardandoDatos" data-entity-2=".end.editarRespuesta" data-source-line="45" data-uid="lnk12" id="link_GuardandoDatos_.end.editarRespuesta"><path d="M256.74,542.9369 C289.21,555.3369 341.5,575.2969 341.5,575.2969 C341.5,575.2969 341.5,610.2969 341.5,610.2969 C341.5,610.2969 275.3945,627.1263 247.8645,634.1363" fill="none" id="GuardandoDatos-to-*end*editarRespuesta-1" style="stroke:#FF0000;stroke-width:1;"/><polygon fill="#FF0000" points="242.05,635.6169,251.7587,637.2724,246.8954,634.3831,249.7847,629.5197,242.05,635.6169" style="stroke:#FF0000;stroke-width:1;"/><path d="M346.5,580.2969 L346.5,605.2969 L587.5,605.2969 L587.5,590.2969 L577.5,580.2969 L346.5,580.2969" fill="#FEFFDD" style="stroke:#181818;stroke-width:0.5;"/><path d="M577.5,580.2969 L577.5,590.2969 L587.5,590.2969 L577.5,580.2969" fill="#FEFFDD" style="stroke:#181818;stroke-width:0.5;"/><text fill="#000000" font-family="sans-serif" font-size="13" font-weight="bold" lengthAdjust="spacing" textLength="60.5313" x="352.5" y="597.3638">Docente</text><text fill="#000000" font-family="sans-serif" font-size="13" lengthAdjust="spacing" textLength="156.2729" x="417.1636" y="597.3638">solicita cancelar edici&#243;n</text></g><!--link RESPUESTAS_ABIERTO to editarRespuesta--><g class="link" data-entity-1="RESPUESTAS_ABIERTO" data-entity-2="editarRespuesta" data-source-line="8" data-uid="lnk2" id="link_RESPUESTAS_ABIERTO_editarRespuesta"><path d="M344.87,57.16 C343,71.53 341,87 341,87 C341,87 341,122 341,122 C341,122 341.1292,127.4519 341.5892,145.7519" fill="none" id="RESPUESTAS_ABIERTO-to-editarRespuesta" style="stroke:#008000;stroke-width:1;"/><polygon fill="#008000" points="341.74,151.75,345.5126,142.6523,341.6144,146.7516,337.5151,142.8534,341.74,151.75" style="stroke:#008000;stroke-width:1;"/></g><!--link editarRespuesta to RESPUESTAS_ABIERTO--><g class="link" data-entity-1="editarRespuesta" data-entity-2="RESPUESTAS_ABIERTO" data-source-line="56" data-uid="lnk15" id="link_editarRespuesta_RESPUESTAS_ABIERTO"><path d="M348,151.84 C348,113.06 348,84.78 348,63.12" fill="none" id="editarRespuesta-to-RESPUESTAS_ABIERTO" style="stroke:#0000FF;stroke-width:1;"/><polygon fill="#0000FF" points="348,57.12,344,66.12,348,62.12,352,66.12,348,57.12" style="stroke:#0000FF;stroke-width:1;"/><path d="M353,92 L353,117 L480,117 L480,102 L470,92 L353,92" fill="#FEFFDD" style="stroke:#181818;stroke-width:0.5;"/><path d="M470,92 L470,102 L480,102 L470,92" fill="#FEFFDD" style="stroke:#181818;stroke-width:0.5;"/><text fill="#000000" font-family="sans-serif" font-size="13" lengthAdjust="spacing" textLength="106.3677" x="359" y="109.0669">cancelar edici&#243;n</text></g><!--link RESPUESTA_ABIERTO to editarRespuesta--><g class="link" data-entity-1="RESPUESTA_ABIERTO" data-entity-2="editarRespuesta" data-source-line="9" data-uid="lnk3" id="link_RESPUESTA_ABIERTO_editarRespuesta"><path d="M115.92,754.58 C133.59,732.89 155.5054,703.5644 183.0854,664.9044" fill="none" id="RESPUESTA_ABIERTO-to-editarRespuesta" style="stroke:#008000;stroke-width:1;"/><polygon fill="#008000" points="186.57,660.02,178.0869,665.0236,183.6662,664.0904,184.5995,669.6697,186.57,660.02" style="stroke:#008000;stroke-width:1;"/></g><!--link editarRespuesta to RESPUESTA_ABIERTO--><g class="link" data-entity-1="editarRespuesta" data-entity-2="RESPUESTA_ABIERTO" data-source-line="54" data-uid="lnk14" id="link_editarRespuesta_RESPUESTA_ABIERTO"><path d="M161.9,660.02 C136.21,698.68 117.3988,727.676 105.0488,749.366" fill="none" id="editarRespuesta-to-RESPUESTA_ABIERTO" style="stroke:#008000;stroke-width:1;"/><polygon fill="#008000" points="102.08,754.58,110.0092,748.7381,104.554,750.235,103.0572,744.7797,102.08,754.58" style="stroke:#008000;stroke-width:1;"/></g><!--link RESPUESTAS_CONTEXTUALES_ABIERTO to editarRespuesta--><g class="link" data-entity-1="RESPUESTAS_CONTEXTUALES_ABIERTO" data-entity-2="editarRespuesta" data-source-line="10" data-uid="lnk4" id="link_RESPUESTAS_CONTEXTUALES_ABIERTO_editarRespuesta"><path d="M381.68,754.84 C393.4,740.47 406,725 406,725 C406,725 406,690 406,690 C406,690 404.8545,684.4279 401.1045,666.1279" fill="none" id="RESPUESTAS_CONTEXTUALES_ABIERTO-to-editarRespuesta" style="stroke:#008000;stroke-width:1;"/><polygon fill="#008000" points="399.9,660.25,397.7881,669.8698,400.9037,665.1482,405.6253,668.2638,399.9,660.25" style="stroke:#008000;stroke-width:1;"/></g><!--link editarRespuesta to RESPUESTAS_CONTEXTUALES_ABIERTO--><g class="link" data-entity-1="editarRespuesta" data-entity-2="RESPUESTAS_CONTEXTUALES_ABIERTO" data-source-line="61" data-uid="lnk16" id="link_editarRespuesta_RESPUESTAS_CONTEXTUALES_ABIERTO"><path d="M270.15,660.25 C264.52,678.55 261,690 261,690 C261,690 261,725 261,725 C261,725 284.6382,737.6421 311.5282,752.0121" fill="none" id="editarRespuesta-to-RESPUESTAS_CONTEXTUALES_ABIERTO" style="stroke:#0000FF;stroke-width:1;"/><polygon fill="#0000FF" points="316.82,754.84,310.7676,747.0703,312.4102,752.4834,306.9971,754.126,316.82,754.84" style="stroke:#0000FF;stroke-width:1;"/><path d="M266,695 L266,720 L393,720 L393,705 L383,695 L266,695" fill="#FEFFDD" style="stroke:#181818;stroke-width:0.5;"/><path d="M383,695 L383,705 L393,705 L383,695" fill="#FEFFDD" style="stroke:#181818;stroke-width:0.5;"/><text fill="#000000" font-family="sans-serif" font-size="13" lengthAdjust="spacing" textLength="106.3677" x="272" y="712.0669">cancelar edici&#243;n</text></g><!--link RESPUESTA_CONTEXTUAL_ABIERTO to editarRespuesta--><g class="link" data-entity-1="RESPUESTA_CONTEXTUAL_ABIERTO" data-entity-2="editarRespuesta" data-source-line="11" data-uid="lnk5" id="link_RESPUESTA_CONTEXTUAL_ABIERTO_editarRespuesta"><path d="M668.13,754.58 C651.33,732.89 626.3319,703.1947 592.4919,664.5347" fill="none" id="RESPUESTA_CONTEXTUAL_ABIERTO-to-editarRespuesta" style="stroke:#008000;stroke-width:1;"/><polygon fill="#008000" points="588.54,660.02,591.458,669.4267,591.8332,663.7823,597.4776,664.1575,588.54,660.02" style="stroke:#008000;stroke-width:1;"/></g><!--link editarRespuesta to RESPUESTA_CONTEXTUAL_ABIERTO--><g class="link" data-entity-1="editarRespuesta" data-entity-2="RESPUESTA_CONTEXTUAL_ABIERTO" data-source-line="53" data-uid="lnk13" id="link_editarRespuesta_RESPUESTA_CONTEXTUAL_ABIERTO"><path d="M563.87,660.02 C599.61,698.68 627.875,728.6902 650.005,750.3802" fill="none" id="editarRespuesta-to-RESPUESTA_CONTEXTUAL_ABIERTO" style="stroke:#008000;stroke-width:1;"/><polygon fill="#008000" points="654.29,754.58,650.6623,745.4236,650.7191,751.0801,645.0626,751.1369,654.29,754.58" style="stroke:#008000;stroke-width:1;"/></g><!--SRC=[dLJRIiD047tVhnZgWnUeFlWcfH1D446qD1648hBT7SlIP3Vi9Wz51B_5N_0J_1E_n4tQfCrDKnC8oSoPEMVERjOiXOoffX64GcAoYX5Y5Qwo3q9CGXE4gUTF7Zm_SFndv_B6cmRtzKHNt7- -khyBlCVWmRdrkgkte192cgGmd1qiDA9y6eu1kKYedgA9KxJjI4DAFtIxm9vCJTc_5cx6heM16XZKOaV70tWb1EorhXdOs-Ay32QvSccYJ3DzdLBDopoi6ynEdYggAZqWXqXbUoYPRO1b7XZDnwvYA1CSdSt7O5GecAtQI0TTZfI1KV9r1tkHyb6bsHLGLTafm1ScmOZc0cBBQDLGu7atdfl8nDUdpD7VxnzmfQnQARZQYMYDBA5dGhBDAsbjZZeIbh-OKb-KBIB5nOjWTcH6etWZDaiiyXdgJcGPHYN3qAOg2WkFjlxKrgfpXVPRe5R1Uv7RxR8VPM752WmDXQuoTh1fvF_Y-iFSDq8EuVmK0asbiG0bqO3hWU_SthYEtJQ65x_VHECYbTcEgF-EksRyUaBrAopFinRuF4onWjwUa1LBccDl3UxNjlKKxidn0m00]--></g></svg>