<svg xmlns="http://www.w3.org/2000/svg" xmlns:xlink="http://www.w3.org/1999/xlink" contentStyleType="text/css" data-diagram-type="STATE" height="811px" preserveAspectRatio="none" style="width:824px;height:811px;background:#FFFFFF;" version="1.1" viewBox="0 0 824 811" width="824px" zoomAndPan="magnify"><defs/><g><g id="RESPUESTAS_ABIERTO"><rect fill="#F1F1F1" height="50" rx="12.5" ry="12.5" style="stroke:#181818;stroke-width:0.5;" width="179.3525" x="271.56" y="7"/><line style="stroke:#181818;stroke-width:0.5;" x1="271.56" x2="450.9125" y1="33.2969" y2="33.2969"/><text fill="#000000" font-family="sans-serif" font-size="14" lengthAdjust="spacing" textLength="159.3525" x="281.56" y="24.9951">RESPUESTAS_ABIERTO</text></g><g id="RESPUESTA_ABIERTO"><rect fill="#F1F1F1" height="50" rx="12.5" ry="12.5" style="stroke:#181818;stroke-width:0.5;" width="170.4658" x="7" y="755.3"/><line style="stroke:#181818;stroke-width:0.5;" x1="7" x2="177.4658" y1="781.5969" y2="781.5969"/><text fill="#000000" font-family="sans-serif" font-size="14" lengthAdjust="spacing" textLength="150.4658" x="17" y="773.2951">RESPUESTA_ABIERTO</text></g><g id="RESPUESTAS_CONTEXTUALES_ABIERTO"><rect fill="#F1F1F1" height="50" rx="12.5" ry="12.5" style="stroke:#181818;stroke-width:0.5;" width="298.5166" x="211.97" y="755.3"/><line style="stroke:#181818;stroke-width:0.5;" x1="211.97" x2="510.4866" y1="781.5969" y2="781.5969"/><text fill="#000000" font-family="sans-serif" font-size="14" lengthAdjust="spacing" textLength="278.5166" x="221.97" y="773.2951">RESPUESTAS_CONTEXTUALES_ABIERTO</text></g><g id="RESPUESTA_CONTEXTUAL_ABIERTO"><rect fill="#F1F1F1" height="50" rx="12.5" ry="12.5" style="stroke:#181818;stroke-width:0.5;" width="271.8975" x="545.28" y="755.3"/><line style="stroke:#181818;stroke-width:0.5;" x1="545.28" x2="817.1775" y1="781.5969" y2="781.5969"/><text fill="#000000" font-family="sans-serif" font-size="14" lengthAdjust="spacing" textLength="251.8975" x="555.28" y="773.2951">RESPUESTA_CONTEXTUAL_ABIERTO</text></g><path d="M92.23,152 L630.23,152 A12.5,12.5 0 0 1 642.73,164.5 L642.73,178.2969 L79.73,178.2969 L79.73,164.5 A12.5,12.5 0 0 1 92.23,152" fill="#F1F1F1"/><rect fill="none" height="508.2969" rx="12.5" ry="12.5" style="stroke:#181818;stroke-width:0.5;" width="563" x="79.73" y="152"/><line style="stroke:#181818;stroke-width:0.5;" x1="79.73" x2="642.73" y1="178.2969" y2="178.2969"/><text fill="#000000" font-family="sans-serif" font-size="14" lengthAdjust="spacing" textLength="125.5078" x="298.4761" y="169.9951">editarRespuesta()</text><g id="editarRespuesta.EditandoDatos"><rect fill="#F1F1F1" height="50" rx="12.5" ry="12.5" style="stroke:#181818;stroke-width:0.5;" width="50" x="219.73" y="280.2969"/><line style="stroke:#181818;stroke-width:0.5;" x1="219.73" x2="269.73" y1="306.5938" y2="306.5938"/><text fill="#000000" font-family="sans-serif" font-size="14" lengthAdjust="spacing" textLength="4.4502" x="242.5049" y="298.292">&#160;</text></g><g id="editarRespuesta.GuardandoDatos"><rect fill="#F1F1F1" height="50" rx="12.5" ry="12.5" style="stroke:#181818;stroke-width:0.5;" width="50" x="219.73" y="507.2969"/><line style="stroke:#181818;stroke-width:0.5;" x1="219.73" x2="269.73" y1="533.5938" y2="533.5938"/><text fill="#000000" font-family="sans-serif" font-size="14" lengthAdjust="spacing" textLength="4.4502" x="242.5049" y="525.292">&#160;</text></g><ellipse cx="244.73" cy="199.2969" fill="#222222" rx="10" ry="10" style="stroke:#222222;stroke-width:1;"/><ellipse cx="244.73" cy="639.2969" fill="none" rx="11" ry="11" style="stroke:#222222;stroke-width:1;"/><ellipse cx="244.73" cy="639.2969" fill="#222222" rx="6" ry="6" style="stroke:#222222;stroke-width:1;"/><!--link *start*editarRespuesta to EditandoDatos--><g class="link" data-entity-1=".start.editarRespuesta" data-entity-2="EditandoDatos" data-source-line="18" data-uid="lnk7" id="link_.start.editarRespuesta_EditandoDatos"><path d="M244.73,209.5269 C244.73,225.2369 244.73,251.6569 244.73,274.1669" fill="none" id="*start*editarRespuesta-to-EditandoDatos" style="stroke:#008000;stroke-width:1;"/><polygon fill="#008000" points="244.73,280.1669,248.73,271.1669,244.73,275.1669,240.73,271.1669,244.73,280.1669" style="stroke:#008000;stroke-width:1;"/><path d="M249.73,232.2969 L249.73,257.2969 L491.73,257.2969 L491.73,242.2969 L481.73,232.2969 L249.73,232.2969" fill="#FEFFDD" style="stroke:#181818;stroke-width:0.5;"/><path d="M481.73,232.2969 L481.73,242.2969 L491.73,242.2969 L481.73,232.2969" fill="#FEFFDD" style="stroke:#181818;stroke-width:0.5;"/><text fill="#000000" font-family="sans-serif" font-size="13" font-weight="bold" lengthAdjust="spacing" textLength="60.5313" x="255.73" y="249.3638">Docente</text><text fill="#000000" font-family="sans-serif" font-size="13" lengthAdjust="spacing" textLength="156.749" x="320.3936" y="249.3638">solicita editar respuesta</text></g><!--link EditandoDatos to GuardandoDatos--><g class="link" data-entity-1="EditandoDatos" data-entity-2="GuardandoDatos" data-source-line="23" data-uid="lnk8" id="link_EditandoDatos_GuardandoDatos"><path d="M219.3,313.2369 C175.56,325.1569 90.73,348.2969 90.73,348.2969 C90.73,348.2969 90.73,489.2969 90.73,489.2969 C90.73,489.2969 169.7711,510.8593 213.5111,522.7793" fill="none" id="EditandoDatos-to-GuardandoDatos" style="stroke:#008000;stroke-width:1;"/><polygon fill="#008000" points="219.3,524.3569,211.6684,518.1312,214.4759,523.0422,209.5649,525.8498,219.3,524.3569" style="stroke:#008000;stroke-width:1;"/><path d="M95.73,353.2969 L95.73,484.2969 L372.73,484.2969 L372.73,363.2969 L362.73,353.2969 L95.73,353.2969" fill="#FEFFDD" style="stroke:#181818;stroke-width:0.5;"/><path d="M362.73,353.2969 L362.73,363.2969 L372.73,363.2969 L362.73,353.2969" fill="#FEFFDD" style="stroke:#181818;stroke-width:0.5;"/><text fill="#000000" font-family="sans-serif" font-size="13" font-weight="bold" lengthAdjust="spacing" textLength="58.9063" x="101.73" y="370.3638">Sistema</text><text fill="#000000" font-family="sans-serif" font-size="13" lengthAdjust="spacing" textLength="169.1714" x="164.7686" y="370.3638">presenta datos de edici&#243;n</text><text fill="#000000" font-family="sans-serif" font-size="13" lengthAdjust="spacing" textLength="256.9023" x="101.73" y="385.4966">&#8226; Contenido y si es correcta/incorrecta)</text><text fill="#000000" font-family="sans-serif" font-size="13" lengthAdjust="spacing" textLength="137.96" x="101.73" y="400.6294">&#8226; Correcta/incorrecta</text><text fill="#000000" font-family="sans-serif" font-size="13" lengthAdjust="spacing" textLength="4.1323" x="101.73" y="415.7622">&#160;</text><text fill="#000000" font-family="sans-serif" font-size="13" font-weight="bold" lengthAdjust="spacing" textLength="58.9063" x="101.73" y="430.895">Sistema</text><text fill="#000000" font-family="sans-serif" font-size="13" lengthAdjust="spacing" textLength="110.5952" x="164.7686" y="430.895">permite solicitar:</text><text fill="#000000" font-family="sans-serif" font-size="13" lengthAdjust="spacing" textLength="127.8164" x="101.73" y="446.0278">&#8226; modificar campos</text><text fill="#000000" font-family="sans-serif" font-size="13" lengthAdjust="spacing" textLength="131.7393" x="101.73" y="461.1606">&#8226; guardar respuesta</text><text fill="#000000" font-family="sans-serif" font-size="13" lengthAdjust="spacing" textLength="118.168" x="101.73" y="476.2935">&#8226; cancelar edici&#243;n</text></g><!--link GuardandoDatos to EditandoDatos--><g class="link" data-entity-1="GuardandoDatos" data-entity-2="EditandoDatos" data-source-line="35" data-uid="lnk9" id="link_GuardandoDatos_EditandoDatos"><path d="M270.06,523.2969 C308.65,511.1169 377.73,489.2969 377.73,489.2969 C377.73,489.2969 377.73,348.2969 377.73,348.2969 C377.73,348.2969 314.3718,328.2828 275.7818,316.1028" fill="none" id="GuardandoDatos-to-EditandoDatos" style="stroke:#008000;stroke-width:1;"/><polygon fill="#008000" points="270.06,314.2969,277.4387,320.8203,274.8281,315.8018,279.8466,313.1913,270.06,314.2969" style="stroke:#008000;stroke-width:1;"/><path d="M382.73,406.2969 L382.73,431.2969 L633.73,431.2969 L633.73,416.2969 L623.73,406.2969 L382.73,406.2969" fill="#FEFFDD" style="stroke:#181818;stroke-width:0.5;"/><path d="M623.73,406.2969 L623.73,416.2969 L633.73,416.2969 L623.73,406.2969" fill="#FEFFDD" style="stroke:#181818;stroke-width:0.5;"/><text fill="#000000" font-family="sans-serif" font-size="13" font-weight="bold" lengthAdjust="spacing" textLength="60.5313" x="388.73" y="423.3638">Docente</text><text fill="#000000" font-family="sans-serif" font-size="13" lengthAdjust="spacing" textLength="165.9214" x="453.3936" y="423.3638">solicita modificar campos</text></g><!--link GuardandoDatos to *end*editarRespuesta--><g class="link" data-entity-1="GuardandoDatos" data-entity-2=".end.editarRespuesta" data-source-line="40" data-uid="lnk11" id="link_GuardandoDatos_.end.editarRespuesta"><path d="M219.36,541.4969 C181.52,553.7169 114.73,575.2969 114.73,575.2969 C114.73,575.2969 114.73,610.2969 114.73,610.2969 C114.73,610.2969 197.1746,628.0531 228.2246,634.7431" fill="none" id="GuardandoDatos-to-*end*editarRespuesta" style="stroke:#008000;stroke-width:1;"/><polygon fill="#008000" points="234.09,636.0069,226.1344,630.201,229.2022,634.9537,224.4494,638.0215,234.09,636.0069" style="stroke:#008000;stroke-width:1;"/><path d="M119.73,580.2969 L119.73,605.2969 L349.73,605.2969 L349.73,590.2969 L339.73,580.2969 L119.73,580.2969" fill="#FEFFDD" style="stroke:#181818;stroke-width:0.5;"/><path d="M339.73,580.2969 L339.73,590.2969 L349.73,590.2969 L339.73,580.2969" fill="#FEFFDD" style="stroke:#181818;stroke-width:0.5;"/><text fill="#000000" font-family="sans-serif" font-size="13" font-weight="bold" lengthAdjust="spacing" textLength="60.5313" x="125.73" y="597.3638">Docente</text><text fill="#000000" font-family="sans-serif" font-size="13" lengthAdjust="spacing" textLength="144.5361" x="190.3936" y="597.3638">solicita guardar y salir</text></g><!--link GuardandoDatos to *end*editarRespuesta--><g class="link" data-entity-1="GuardandoDatos" data-entity-2=".end.editarRespuesta" data-source-line="45" data-uid="lnk12" id="link_GuardandoDatos_.end.editarRespuesta"><path d="M269.97,542.9369 C302.44,555.3369 354.73,575.2969 354.73,575.2969 C354.73,575.2969 354.73,610.2969 354.73,610.2969 C354.73,610.2969 288.6245,627.1263 261.0945,634.1363" fill="none" id="GuardandoDatos-to-*end*editarRespuesta-1" style="stroke:#FF0000;stroke-width:1;"/><polygon fill="#FF0000" points="255.28,635.6169,264.9887,637.2724,260.1254,634.3831,263.0147,629.5197,255.28,635.6169" style="stroke:#FF0000;stroke-width:1;"/><path d="M359.73,580.2969 L359.73,605.2969 L600.73,605.2969 L600.73,590.2969 L590.73,580.2969 L359.73,580.2969" fill="#FEFFDD" style="stroke:#181818;stroke-width:0.5;"/><path d="M590.73,580.2969 L590.73,590.2969 L600.73,590.2969 L590.73,580.2969" fill="#FEFFDD" style="stroke:#181818;stroke-width:0.5;"/><text fill="#000000" font-family="sans-serif" font-size="13" font-weight="bold" lengthAdjust="spacing" textLength="60.5313" x="365.73" y="597.3638">Docente</text><text fill="#000000" font-family="sans-serif" font-size="13" lengthAdjust="spacing" textLength="156.2729" x="430.3936" y="597.3638">solicita cancelar edici&#243;n</text></g><!--link RESPUESTAS_ABIERTO to editarRespuesta--><g class="link" data-entity-1="RESPUESTAS_ABIERTO" data-entity-2="editarRespuesta" data-source-line="8" data-uid="lnk2" id="link_RESPUESTAS_ABIERTO_editarRespuesta"><path d="M358.06,57.48 C356.21,71.76 354.23,87 354.23,87 C354.23,87 354.23,122 354.23,122 C354.23,122 354.3613,127.3518 354.8113,145.5018" fill="none" id="RESPUESTAS_ABIERTO-to-editarRespuesta" style="stroke:#008000;stroke-width:1;"/><polygon fill="#008000" points="354.96,151.5,358.7357,142.4036,354.8361,146.5015,350.7382,142.6019,354.96,151.5" style="stroke:#008000;stroke-width:1;"/></g><!--link editarRespuesta to RESPUESTAS_ABIERTO--><g class="link" data-entity-1="editarRespuesta" data-entity-2="RESPUESTAS_ABIERTO" data-source-line="56" data-uid="lnk15" id="link_editarRespuesta_RESPUESTAS_ABIERTO"><path d="M361.23,151.84 C361.23,113.23 361.23,85.09 361.23,63.42" fill="none" id="editarRespuesta-to-RESPUESTAS_ABIERTO" style="stroke:#0000FF;stroke-width:1;"/><polygon fill="#0000FF" points="361.23,57.42,357.23,66.42,361.23,62.42,365.23,66.42,361.23,57.42" style="stroke:#0000FF;stroke-width:1;"/><path d="M366.23,92 L366.23,117 L493.23,117 L493.23,102 L483.23,92 L366.23,92" fill="#FEFFDD" style="stroke:#181818;stroke-width:0.5;"/><path d="M483.23,92 L483.23,102 L493.23,102 L483.23,92" fill="#FEFFDD" style="stroke:#181818;stroke-width:0.5;"/><text fill="#000000" font-family="sans-serif" font-size="13" lengthAdjust="spacing" textLength="106.3677" x="372.23" y="109.0669">cancelar edici&#243;n</text></g><!--link RESPUESTA_ABIERTO to editarRespuesta--><g class="link" data-entity-1="RESPUESTA_ABIERTO" data-entity-2="editarRespuesta" data-source-line="9" data-uid="lnk3" id="link_RESPUESTA_ABIERTO_editarRespuesta"><path d="M116.91,754.99 C135.26,733.39 158.1452,704.1239 186.9852,665.5839" fill="none" id="RESPUESTA_ABIERTO-to-editarRespuesta" style="stroke:#008000;stroke-width:1;"/><polygon fill="#008000" points="190.58,660.78,181.9852,665.5893,187.5843,664.7832,188.3904,670.3824,190.58,660.78" style="stroke:#008000;stroke-width:1;"/></g><!--link editarRespuesta to RESPUESTA_ABIERTO--><g class="link" data-entity-1="editarRespuesta" data-entity-2="RESPUESTA_ABIERTO" data-source-line="54" data-uid="lnk14" id="link_editarRespuesta_RESPUESTA_ABIERTO"><path d="M165.93,660.78 C139,699.32 119.231,728.2535 106.191,749.8535" fill="none" id="editarRespuesta-to-RESPUESTA_ABIERTO" style="stroke:#008000;stroke-width:1;"/><polygon fill="#008000" points="103.09,754.99,111.1658,749.3525,105.6741,750.7095,104.3171,745.2179,103.09,754.99" style="stroke:#008000;stroke-width:1;"/></g><!--link RESPUESTAS_CONTEXTUALES_ABIERTO to editarRespuesta--><g class="link" data-entity-1="RESPUESTAS_CONTEXTUALES_ABIERTO" data-entity-2="editarRespuesta" data-source-line="10" data-uid="lnk4" id="link_RESPUESTAS_CONTEXTUALES_ABIERTO_editarRespuesta"><path d="M387.52,754.83 C402.86,740.54 419.23,725.3 419.23,725.3 C419.23,725.3 419.23,690.3 419.23,690.3 C419.23,690.3 418.1147,684.8278 414.3947,666.6778" fill="none" id="RESPUESTAS_CONTEXTUALES_ABIERTO-to-editarRespuesta" style="stroke:#008000;stroke-width:1;"/><polygon fill="#008000" points="413.19,660.8,411.0785,670.4199,414.1939,665.6982,418.9156,668.8136,413.19,660.8" style="stroke:#008000;stroke-width:1;"/></g><!--link editarRespuesta to RESPUESTAS_CONTEXTUALES_ABIERTO--><g class="link" data-entity-1="editarRespuesta" data-entity-2="RESPUESTAS_CONTEXTUALES_ABIERTO" data-source-line="61" data-uid="lnk16" id="link_editarRespuesta_RESPUESTAS_CONTEXTUALES_ABIERTO"><path d="M283.3,660.8 C277.72,678.95 274.23,690.3 274.23,690.3 C274.23,690.3 274.23,725.3 274.23,725.3 C274.23,725.3 293.6923,737.3755 316.7123,751.6655" fill="none" id="editarRespuesta-to-RESPUESTAS_CONTEXTUALES_ABIERTO" style="stroke:#0000FF;stroke-width:1;"/><polygon fill="#0000FF" points="321.81,754.83,316.2731,746.6849,317.5619,752.193,312.0539,753.4818,321.81,754.83" style="stroke:#0000FF;stroke-width:1;"/><path d="M279.23,695.3 L279.23,720.3 L406.23,720.3 L406.23,705.3 L396.23,695.3 L279.23,695.3" fill="#FEFFDD" style="stroke:#181818;stroke-width:0.5;"/><path d="M396.23,695.3 L396.23,705.3 L406.23,705.3 L396.23,695.3" fill="#FEFFDD" style="stroke:#181818;stroke-width:0.5;"/><text fill="#000000" font-family="sans-serif" font-size="13" lengthAdjust="spacing" textLength="106.3677" x="285.23" y="712.3669">cancelar edici&#243;n</text></g><!--link RESPUESTA_CONTEXTUAL_ABIERTO to editarRespuesta--><g class="link" data-entity-1="RESPUESTA_CONTEXTUAL_ABIERTO" data-entity-2="editarRespuesta" data-source-line="11" data-uid="lnk5" id="link_RESPUESTA_CONTEXTUAL_ABIERTO_editarRespuesta"><path d="M667.44,754.99 C651.59,733.39 628.0042,703.9268 595.8442,665.3868" fill="none" id="RESPUESTA_CONTEXTUAL_ABIERTO-to-editarRespuesta" style="stroke:#008000;stroke-width:1;"/><polygon fill="#008000" points="592,660.78,594.6951,670.2529,595.2035,664.619,600.8374,665.1274,592,660.78" style="stroke:#008000;stroke-width:1;"/></g><!--link editarRespuesta to RESPUESTA_CONTEXTUAL_ABIERTO--><g class="link" data-entity-1="editarRespuesta" data-entity-2="RESPUESTA_CONTEXTUAL_ABIERTO" data-source-line="53" data-uid="lnk13" id="link_editarRespuesta_RESPUESTA_CONTEXTUAL_ABIERTO"><path d="M567.35,660.78 C601.42,699.32 628.2612,729.1039 649.4212,750.7039" fill="none" id="editarRespuesta-to-RESPUESTA_CONTEXTUAL_ABIERTO" style="stroke:#008000;stroke-width:1;"/><polygon fill="#008000" points="653.62,754.99,650.1792,745.7617,650.121,751.4183,644.4645,751.3601,653.62,754.99" style="stroke:#008000;stroke-width:1;"/></g><!--SRC=[dLJRIiD047tVhnZgWnTG7tmJAKGRH12L9e9GHBQxOrbCTiDk-b14y5ly1J_1F_5BdAHDsjmqDO6Gx9oPS-RiPDsBqWctF8P8QKmN2K9YeaNsmPXBUOemzeExUpy8lU39Ex_on-5jFT2r7ZnTtDw4_aDuxrtxtTbhK0bXJL8udEpCBA9-F1m2IfLoEqQNp97AiOQKVkXsWJsPch9_JLorNLi6xc1GMzlR7y0hOq3NCcT0D-7y3AQb6V7Kk6RuSiwjBEEmB30vUAoegjI07A8DrJ0w6u2NVE5iEXmPWJh5i-Ff49o9bA2ibNImPKiP6BLSLg2BbOygpQQ0gifE0O5oASOy5v0G8wdX8FDgCZTHgAzFdQE_tp_Wmf1QhQI11JW5w40OQr6a_5ZfudL_0zu8ibPcjB4YSOK5zhGi4HkfdfKWFmIFarKdMM2MDrYtAOi8hWL65Ah8BmnScrVRoCxjssxtMWLlHKwpj1rbOGNj2O-KhJ9si5cK_-BwmzmtndRXv0X2oxKZWD4q8oCV0k_wQkJHJ3bP_9jt5cTpdKr4_L_TDEFNuwjVOddOjS2dqHmhwFNnMR6asVRQu7vbMu_edXm_]--></g></svg>