<svg xmlns="http://www.w3.org/2000/svg" xmlns:xlink="http://www.w3.org/1999/xlink" contentStyleType="text/css" data-diagram-type="STATE" height="777px" preserveAspectRatio="none" style="width:1040px;height:777px;background:#FFFFFF;" version="1.1" viewBox="0 0 1040 777" width="1040px" zoomAndPan="magnify"><defs/><g><g id="RESPUESTAS_ABIERTO"><rect fill="#F1F1F1" height="50" rx="12.5" ry="12.5" style="stroke:#181818;stroke-width:0.5;" width="179.3525" x="7" y="7"/><line style="stroke:#181818;stroke-width:0.5;" x1="7" x2="186.3525" y1="33.2969" y2="33.2969"/><text fill="#000000" font-family="sans-serif" font-size="14" lengthAdjust="spacing" textLength="159.3525" x="17" y="24.9951">RESPUESTAS_ABIERTO</text></g><g id="RESPUESTA_ABIERTO"><rect fill="#F1F1F1" height="50" rx="12.5" ry="12.5" style="stroke:#181818;stroke-width:0.5;" width="170.4658" x="221.5" y="7"/><line style="stroke:#181818;stroke-width:0.5;" x1="221.5" x2="391.9658" y1="33.2969" y2="33.2969"/><text fill="#000000" font-family="sans-serif" font-size="14" lengthAdjust="spacing" textLength="150.4658" x="231.5" y="24.9951">RESPUESTA_ABIERTO</text></g><g id="RESPUESTAS_CONTEXTUALES_ABIERTO"><rect fill="#F1F1F1" height="50" rx="12.5" ry="12.5" style="stroke:#181818;stroke-width:0.5;" width="298.5166" x="427" y="7"/><line style="stroke:#181818;stroke-width:0.5;" x1="427" x2="725.5166" y1="33.2969" y2="33.2969"/><text fill="#000000" font-family="sans-serif" font-size="14" lengthAdjust="spacing" textLength="278.5166" x="437" y="24.9951">RESPUESTAS_CONTEXTUALES_ABIERTO</text></g><g id="RESPUESTA_CONTEXTUAL_ABIERTO"><rect fill="#F1F1F1" height="50" rx="12.5" ry="12.5" style="stroke:#181818;stroke-width:0.5;" width="271.8975" x="761.5" y="7"/><line style="stroke:#181818;stroke-width:0.5;" x1="761.5" x2="1033.3975" y1="33.2969" y2="33.2969"/><text fill="#000000" font-family="sans-serif" font-size="14" lengthAdjust="spacing" textLength="251.8975" x="771.5" y="24.9951">RESPUESTA_CONTEXTUAL_ABIERTO</text></g><g id="RESPUESTAS_ABIERTO2"><rect fill="#F1F1F1" height="50" rx="12.5" ry="12.5" style="stroke:#181818;stroke-width:0.5;" width="179.3525" x="7" y="721"/><line style="stroke:#181818;stroke-width:0.5;" x1="7" x2="186.3525" y1="747.2969" y2="747.2969"/><text fill="#000000" font-family="sans-serif" font-size="14" lengthAdjust="spacing" textLength="159.3525" x="17" y="738.9951">RESPUESTAS_ABIERTO</text></g><g id="RESPUESTA_ABIERTO2"><rect fill="#F1F1F1" height="50" rx="12.5" ry="12.5" style="stroke:#181818;stroke-width:0.5;" width="170.4658" x="221.5" y="721"/><line style="stroke:#181818;stroke-width:0.5;" x1="221.5" x2="391.9658" y1="747.2969" y2="747.2969"/><text fill="#000000" font-family="sans-serif" font-size="14" lengthAdjust="spacing" textLength="150.4658" x="231.5" y="738.9951">RESPUESTA_ABIERTO</text></g><g id="RESPUESTAS_CONTEXTUALES_ABIERTO2"><rect fill="#F1F1F1" height="50" rx="12.5" ry="12.5" style="stroke:#181818;stroke-width:0.5;" width="298.5166" x="427" y="721"/><line style="stroke:#181818;stroke-width:0.5;" x1="427" x2="725.5166" y1="747.2969" y2="747.2969"/><text fill="#000000" font-family="sans-serif" font-size="14" lengthAdjust="spacing" textLength="278.5166" x="437" y="738.9951">RESPUESTAS_CONTEXTUALES_ABIERTO</text></g><g id="RESPUESTA_CONTEXTUAL_ABIERTO2"><rect fill="#F1F1F1" height="50" rx="12.5" ry="12.5" style="stroke:#181818;stroke-width:0.5;" width="271.8975" x="761.5" y="721"/><line style="stroke:#181818;stroke-width:0.5;" x1="761.5" x2="1033.3975" y1="747.2969" y2="747.2969"/><text fill="#000000" font-family="sans-serif" font-size="14" lengthAdjust="spacing" textLength="251.8975" x="771.5" y="738.9951">RESPUESTA_CONTEXTUAL_ABIERTO</text></g><path d="M184.5,118 L698.5,118 A12.5,12.5 0 0 1 711,130.5 L711,144.2969 L172,144.2969 L172,130.5 A12.5,12.5 0 0 1 184.5,118" fill="#F1F1F1"/><rect fill="none" height="508.2969" rx="12.5" ry="12.5" style="stroke:#181818;stroke-width:0.5;" width="539" x="172" y="118"/><line style="stroke:#181818;stroke-width:0.5;" x1="172" x2="711" y1="144.2969" y2="144.2969"/><text fill="#000000" font-family="sans-serif" font-size="14" lengthAdjust="spacing" textLength="125.5078" x="378.7461" y="135.9951">editarRespuesta()</text><g id="editarRespuesta.EditandoDatos"><rect fill="#F1F1F1" height="50" rx="12.5" ry="12.5" style="stroke:#181818;stroke-width:0.5;" width="50" x="300" y="246.2969"/><line style="stroke:#181818;stroke-width:0.5;" x1="300" x2="350" y1="272.5938" y2="272.5938"/><text fill="#000000" font-family="sans-serif" font-size="14" lengthAdjust="spacing" textLength="4.4502" x="322.7749" y="264.292">&#160;</text></g><g id="editarRespuesta.GuardandoDatos"><rect fill="#F1F1F1" height="50" rx="12.5" ry="12.5" style="stroke:#181818;stroke-width:0.5;" width="50" x="300" y="473.2969"/><line style="stroke:#181818;stroke-width:0.5;" x1="300" x2="350" y1="499.5938" y2="499.5938"/><text fill="#000000" font-family="sans-serif" font-size="14" lengthAdjust="spacing" textLength="4.4502" x="322.7749" y="491.292">&#160;</text></g><ellipse cx="325" cy="165.2969" fill="#222222" rx="10" ry="10" style="stroke:#222222;stroke-width:1;"/><ellipse cx="325" cy="605.2969" fill="none" rx="11" ry="11" style="stroke:#222222;stroke-width:1;"/><ellipse cx="325" cy="605.2969" fill="#222222" rx="6" ry="6" style="stroke:#222222;stroke-width:1;"/><!--link *start*editarRespuesta to EditandoDatos--><g class="link" data-entity-1=".start.editarRespuesta" data-entity-2="EditandoDatos" data-source-line="22" data-uid="lnk7" id="link_.start.editarRespuesta_EditandoDatos"><path d="M325,175.5269 C325,191.2369 325,217.6569 325,240.1669" fill="none" id="*start*editarRespuesta-to-EditandoDatos" style="stroke:#008000;stroke-width:1;"/><polygon fill="#008000" points="325,246.1669,329,237.1669,325,241.1669,321,237.1669,325,246.1669" style="stroke:#008000;stroke-width:1;"/><path d="M330,198.2969 L330,223.2969 L572,223.2969 L572,208.2969 L562,198.2969 L330,198.2969" fill="#FEFFDD" style="stroke:#181818;stroke-width:0.5;"/><path d="M562,198.2969 L562,208.2969 L572,208.2969 L562,198.2969" fill="#FEFFDD" style="stroke:#181818;stroke-width:0.5;"/><text fill="#000000" font-family="sans-serif" font-size="13" font-weight="bold" lengthAdjust="spacing" textLength="60.5313" x="336" y="215.3638">Docente</text><text fill="#000000" font-family="sans-serif" font-size="13" lengthAdjust="spacing" textLength="156.749" x="400.6636" y="215.3638">solicita editar respuesta</text></g><!--link EditandoDatos to GuardandoDatos--><g class="link" data-entity-1="EditandoDatos" data-entity-2="GuardandoDatos" data-source-line="27" data-uid="lnk8" id="link_EditandoDatos_GuardandoDatos"><path d="M299.94,279.7069 C259.17,291.7669 183,314.2969 183,314.2969 C183,314.2969 183,455.2969 183,455.2969 C183,455.2969 253.4164,476.1249 294.1864,488.1849" fill="none" id="EditandoDatos-to-GuardandoDatos" style="stroke:#008000;stroke-width:1;"/><polygon fill="#008000" points="299.94,489.8869,292.4443,483.4983,295.1454,488.4686,290.175,491.1697,299.94,489.8869" style="stroke:#008000;stroke-width:1;"/><path d="M188,319.2969 L188,450.2969 L441,450.2969 L441,329.2969 L431,319.2969 L188,319.2969" fill="#FEFFDD" style="stroke:#181818;stroke-width:0.5;"/><path d="M431,319.2969 L431,329.2969 L441,329.2969 L431,319.2969" fill="#FEFFDD" style="stroke:#181818;stroke-width:0.5;"/><text fill="#000000" font-family="sans-serif" font-size="13" font-weight="bold" lengthAdjust="spacing" textLength="58.9063" x="194" y="336.3638">Sistema</text><text fill="#000000" font-family="sans-serif" font-size="13" lengthAdjust="spacing" textLength="169.1714" x="257.0386" y="336.3638">presenta datos de edici&#243;n</text><text fill="#000000" font-family="sans-serif" font-size="13" lengthAdjust="spacing" textLength="78.2222" x="194" y="351.4966">&#8226; Contenido</text><text fill="#000000" font-family="sans-serif" font-size="13" lengthAdjust="spacing" textLength="137.96" x="194" y="366.6294">&#8226; Correcta/incorrecta</text><text fill="#000000" font-family="sans-serif" font-size="13" lengthAdjust="spacing" textLength="4.1323" x="194" y="381.7622">&#160;</text><text fill="#000000" font-family="sans-serif" font-size="13" font-weight="bold" lengthAdjust="spacing" textLength="58.9063" x="194" y="396.895">Sistema</text><text fill="#000000" font-family="sans-serif" font-size="13" lengthAdjust="spacing" textLength="110.5952" x="257.0386" y="396.895">permite solicitar:</text><text fill="#000000" font-family="sans-serif" font-size="13" lengthAdjust="spacing" textLength="127.8164" x="194" y="412.0278">&#8226; modificar campos</text><text fill="#000000" font-family="sans-serif" font-size="13" lengthAdjust="spacing" textLength="131.7393" x="194" y="427.1606">&#8226; guardar respuesta</text><text fill="#000000" font-family="sans-serif" font-size="13" lengthAdjust="spacing" textLength="118.168" x="194" y="442.2935">&#8226; cancelar edici&#243;n</text></g><!--link GuardandoDatos to EditandoDatos--><g class="link" data-entity-1="GuardandoDatos" data-entity-2="EditandoDatos" data-source-line="39" data-uid="lnk9" id="link_GuardandoDatos_EditandoDatos"><path d="M350.07,488.5969 C385.51,476.2969 446,455.2969 446,455.2969 C446,455.2969 446,314.2969 446,314.2969 C446,314.2969 391.1783,295.2642 355.7383,282.9642" fill="none" id="GuardandoDatos-to-EditandoDatos" style="stroke:#008000;stroke-width:1;"/><polygon fill="#008000" points="350.07,280.9969,357.261,287.7267,354.7936,282.6363,359.884,280.1689,350.07,280.9969" style="stroke:#008000;stroke-width:1;"/><path d="M451,372.2969 L451,397.2969 L702,397.2969 L702,382.2969 L692,372.2969 L451,372.2969" fill="#FEFFDD" style="stroke:#181818;stroke-width:0.5;"/><path d="M692,372.2969 L692,382.2969 L702,382.2969 L692,372.2969" fill="#FEFFDD" style="stroke:#181818;stroke-width:0.5;"/><text fill="#000000" font-family="sans-serif" font-size="13" font-weight="bold" lengthAdjust="spacing" textLength="60.5313" x="457" y="389.3638">Docente</text><text fill="#000000" font-family="sans-serif" font-size="13" lengthAdjust="spacing" textLength="165.9214" x="521.6636" y="389.3638">solicita modificar campos</text></g><!--link GuardandoDatos to *end*editarRespuesta--><g class="link" data-entity-1="GuardandoDatos" data-entity-2=".end.editarRespuesta" data-source-line="44" data-uid="lnk11" id="link_GuardandoDatos_.end.editarRespuesta"><path d="M299.93,507.3969 C262.16,519.5969 195,541.2969 195,541.2969 C195,541.2969 195,576.2969 195,576.2969 C195,576.2969 277.4446,594.0531 308.4946,600.7431" fill="none" id="GuardandoDatos-to-*end*editarRespuesta" style="stroke:#008000;stroke-width:1;"/><polygon fill="#008000" points="314.36,602.0069,306.4044,596.201,309.4722,600.9537,304.7194,604.0215,314.36,602.0069" style="stroke:#008000;stroke-width:1;"/><path d="M200,546.2969 L200,571.2969 L430,571.2969 L430,556.2969 L420,546.2969 L200,546.2969" fill="#FEFFDD" style="stroke:#181818;stroke-width:0.5;"/><path d="M420,546.2969 L420,556.2969 L430,556.2969 L420,546.2969" fill="#FEFFDD" style="stroke:#181818;stroke-width:0.5;"/><text fill="#000000" font-family="sans-serif" font-size="13" font-weight="bold" lengthAdjust="spacing" textLength="60.5313" x="206" y="563.3638">Docente</text><text fill="#000000" font-family="sans-serif" font-size="13" lengthAdjust="spacing" textLength="144.5361" x="270.6636" y="563.3638">solicita guardar y salir</text></g><!--link GuardandoDatos to *end*editarRespuesta--><g class="link" data-entity-1="GuardandoDatos" data-entity-2=".end.editarRespuesta" data-source-line="49" data-uid="lnk12" id="link_GuardandoDatos_.end.editarRespuesta"><path d="M350.24,508.9369 C382.71,521.3369 435,541.2969 435,541.2969 C435,541.2969 435,576.2969 435,576.2969 C435,576.2969 368.8945,593.1263 341.3645,600.1363" fill="none" id="GuardandoDatos-to-*end*editarRespuesta-1" style="stroke:#FF0000;stroke-width:1;"/><polygon fill="#FF0000" points="335.55,601.6169,345.2587,603.2724,340.3954,600.3831,343.2847,595.5197,335.55,601.6169" style="stroke:#FF0000;stroke-width:1;"/><path d="M440,546.2969 L440,571.2969 L681,571.2969 L681,556.2969 L671,546.2969 L440,546.2969" fill="#FEFFDD" style="stroke:#181818;stroke-width:0.5;"/><path d="M671,546.2969 L671,556.2969 L681,556.2969 L671,546.2969" fill="#FEFFDD" style="stroke:#181818;stroke-width:0.5;"/><text fill="#000000" font-family="sans-serif" font-size="13" font-weight="bold" lengthAdjust="spacing" textLength="60.5313" x="446" y="563.3638">Docente</text><text fill="#000000" font-family="sans-serif" font-size="13" lengthAdjust="spacing" textLength="156.2729" x="510.6636" y="563.3638">solicita cancelar edici&#243;n</text></g><!--link RESPUESTAS_ABIERTO to editarRespuesta--><g class="link" data-entity-1="RESPUESTAS_ABIERTO" data-entity-2="editarRespuesta" data-source-line="12" data-uid="lnk2" id="link_RESPUESTAS_ABIERTO_editarRespuesta"><path d="M121.03,57.04 C136.51,72.19 153.9638,89.3014 178.9238,113.7514" fill="none" id="RESPUESTAS_ABIERTO-to-editarRespuesta" style="stroke:#008000;stroke-width:1;"/><polygon fill="#008000" points="183.21,117.95,179.5798,108.7946,179.6382,114.4511,173.9816,114.5095,183.21,117.95" style="stroke:#008000;stroke-width:1;"/></g><!--link RESPUESTA_ABIERTO to editarRespuesta--><g class="link" data-entity-1="RESPUESTA_ABIERTO" data-entity-2="editarRespuesta" data-source-line="13" data-uid="lnk3" id="link_RESPUESTA_ABIERTO_editarRespuesta"><path d="M316.1,57.04 C322.15,72.19 328.4336,87.9284 338.2036,112.3784" fill="none" id="RESPUESTA_ABIERTO-to-editarRespuesta" style="stroke:#008000;stroke-width:1;"/><polygon fill="#008000" points="340.43,117.95,340.8049,108.1083,338.5747,113.307,333.376,111.0768,340.43,117.95" style="stroke:#008000;stroke-width:1;"/></g><!--link RESPUESTAS_CONTEXTUALES_ABIERTO to editarRespuesta--><g class="link" data-entity-1="RESPUESTAS_CONTEXTUALES_ABIERTO" data-entity-2="editarRespuesta" data-source-line="14" data-uid="lnk4" id="link_RESPUESTAS_CONTEXTUALES_ABIERTO_editarRespuesta"><path d="M566.9,57.04 C560.85,72.19 554.5664,87.9284 544.7964,112.3784" fill="none" id="RESPUESTAS_CONTEXTUALES_ABIERTO-to-editarRespuesta" style="stroke:#008000;stroke-width:1;"/><polygon fill="#008000" points="542.57,117.95,549.624,111.0768,544.4253,113.307,542.1951,108.1083,542.57,117.95" style="stroke:#008000;stroke-width:1;"/></g><!--link RESPUESTA_CONTEXTUAL_ABIERTO to editarRespuesta--><g class="link" data-entity-1="RESPUESTA_CONTEXTUAL_ABIERTO" data-entity-2="editarRespuesta" data-source-line="15" data-uid="lnk5" id="link_RESPUESTA_CONTEXTUAL_ABIERTO_editarRespuesta"><path d="M865.07,57.04 C830.74,82.49 777.8402,121.6971 715.8902,167.6171" fill="none" id="RESPUESTA_CONTEXTUAL_ABIERTO-to-editarRespuesta" style="stroke:#008000;stroke-width:1;"/><polygon fill="#008000" points="711.07,171.19,720.6822,169.0441,715.0868,168.2126,715.9183,162.6172,711.07,171.19" style="stroke:#008000;stroke-width:1;"/></g><!--link editarRespuesta to RESPUESTA_CONTEXTUAL_ABIERTO2--><g class="link" data-entity-1="editarRespuesta" data-entity-2="RESPUESTA_CONTEXTUAL_ABIERTO2" data-source-line="57" data-uid="lnk13" id="link_editarRespuesta_RESPUESTA_CONTEXTUAL_ABIERTO2"><path d="M711.04,592.89 C774.78,644.89 829.3908,689.4372 863.3208,717.1172" fill="none" id="editarRespuesta-to-RESPUESTA_CONTEXTUAL_ABIERTO2" style="stroke:#008000;stroke-width:1;"/><polygon fill="#008000" points="867.97,720.91,863.5248,712.1214,864.0957,717.7493,858.4677,718.3203,867.97,720.91" style="stroke:#008000;stroke-width:1;"/></g><!--link editarRespuesta to RESPUESTA_ABIERTO2--><g class="link" data-entity-1="editarRespuesta" data-entity-2="RESPUESTA_ABIERTO2" data-source-line="58" data-uid="lnk14" id="link_editarRespuesta_RESPUESTA_ABIERTO2"><path d="M349.68,626.02 C335.65,664.68 325.2888,693.2506 317.4088,714.9406" fill="none" id="editarRespuesta-to-RESPUESTA_ABIERTO2" style="stroke:#008000;stroke-width:1;"/><polygon fill="#008000" points="315.36,720.58,322.1928,713.4868,317.0673,715.8805,314.6736,710.7551,315.36,720.58" style="stroke:#008000;stroke-width:1;"/></g><!--link editarRespuesta to RESPUESTAS_ABIERTO2--><g class="link" data-entity-1="editarRespuesta" data-entity-2="RESPUESTAS_ABIERTO2" data-source-line="60" data-uid="lnk15" id="link_editarRespuesta_RESPUESTAS_ABIERTO2"><path d="M206.85,626.02 C170.99,664.68 143.3505,694.4911 123.2305,716.1811" fill="none" id="editarRespuesta-to-RESPUESTAS_ABIERTO2" style="stroke:#0000FF;stroke-width:1;"/><polygon fill="#0000FF" points="119.15,720.58,128.2032,716.702,122.5504,716.9143,122.3381,711.2614,119.15,720.58" style="stroke:#0000FF;stroke-width:1;"/><path d="M176.5,661 L176.5,686 L303.5,686 L303.5,671 L293.5,661 L176.5,661" fill="#FEFFDD" style="stroke:#181818;stroke-width:0.5;"/><path d="M293.5,661 L293.5,671 L303.5,671 L293.5,661" fill="#FEFFDD" style="stroke:#181818;stroke-width:0.5;"/><text fill="#000000" font-family="sans-serif" font-size="13" lengthAdjust="spacing" textLength="106.3677" x="182.5" y="678.0669">cancelar edici&#243;n</text></g><!--link editarRespuesta to RESPUESTAS_CONTEXTUALES_ABIERTO2--><g class="link" data-entity-1="editarRespuesta" data-entity-2="RESPUESTAS_CONTEXTUALES_ABIERTO2" data-source-line="65" data-uid="lnk16" id="link_editarRespuesta_RESPUESTAS_CONTEXTUALES_ABIERTO2"><path d="M533.32,626.02 C547.35,664.68 557.7112,693.2506 565.5912,714.9406" fill="none" id="editarRespuesta-to-RESPUESTAS_CONTEXTUALES_ABIERTO2" style="stroke:#0000FF;stroke-width:1;"/><polygon fill="#0000FF" points="567.64,720.58,568.3264,710.7551,565.9327,715.8805,560.8072,713.4868,567.64,720.58" style="stroke:#0000FF;stroke-width:1;"/><path d="M559.5,661 L559.5,686 L686.5,686 L686.5,671 L676.5,661 L559.5,661" fill="#FEFFDD" style="stroke:#181818;stroke-width:0.5;"/><path d="M676.5,661 L676.5,671 L686.5,671 L676.5,661" fill="#FEFFDD" style="stroke:#181818;stroke-width:0.5;"/><text fill="#000000" font-family="sans-serif" font-size="13" lengthAdjust="spacing" textLength="106.3677" x="565.5" y="678.0669">cancelar edici&#243;n</text></g><!--SRC=[dLJRIiD047tVhnZYWnUe1NqJASGsY20gJGH1f6ntnx8qsGsxwKCHmM_n5_m4_yGlSPEcQNEhgGc4PERCd3DdDslcGiPKqmX28J5PnWYn2fVf1o4ceGd2sFCV7Zq_SFs9UtNZZOFxQg8jxa-6ztU1znGykhTUU_K6rDueJvm1DU3KuqwRf4f1AxvPQesk2UHq6AWgeuvm2AcF1RtdWvb6b2-z0I0N2TLZDF42BIEf3TKDtJn4HwQwxfs5kJELSEP59NPqxC0R8M2lLOrZRulpKfZaQaGJPUhfwmNLlCZ3gi7poKj9LQa7P12fR0ybqqq_pmANqy58CPG9NlQd0p0g5CnMvT915oEbO9HyrS5Uf7YKQRO5b5Ms2l25IJ2YcO3OCber57ZMZMScCl7z9JFqpySd39LLAmLNMn6jaIMqBoJBNqbZSzIHiFphAVL5qI9INBmAPaTcD8fpiMbYbirGTIBDC2ePXZPLKhZsQEDFPQrQLsY_1MeKl1UvtIxxKQwjM8AXeT1bnXOsZVnVN7-O-qx88PoVGg2fD1QW91eOUU2xjpSZrsuRmzU_tuF6sKAcEwBwEswRiVCGwrXPm9lmqt219VZci2KbL-gJRppkrhVnHEzAyWi0]--></g></svg>