<svg xmlns="http://www.w3.org/2000/svg" xmlns:xlink="http://www.w3.org/1999/xlink" contentStyleType="text/css" data-diagram-type="STATE" height="783px" preserveAspectRatio="none" style="width:1008px;height:783px;background:#FFFFFF;" version="1.1" viewBox="0 0 1008 783" width="1008px" zoomAndPan="magnify"><defs/><g><!--cluster cerrarSesion--><g class="cluster" data-entity="cerrarSesion" data-source-line="6" data-uid="ent0004" id="cluster_cerrarSesion"><path d="M288.5,112 L802.5,112 A12.5,12.5 0 0 1 815,124.5 L815,133.2969 L276,133.2969 L276,124.5 A12.5,12.5 0 0 1 288.5,112" fill="#F1F1F1"/><rect fill="none" height="511" rx="12.5" ry="12.5" style="stroke:#181818;stroke-width:0.5;" width="539" x="276" y="112"/><line style="stroke:#181818;stroke-width:0.5;" x1="276" x2="815" y1="133.2969" y2="133.2969"/><text fill="#000000" font-family="sans-serif" font-size="14" lengthAdjust="spacing" textLength="99.2031" x="495.8984" y="128.9951">cerrarSesion()</text></g><g id="cerrarSesion.SolicitandoCierre"><rect fill="#F1F1F1" height="50" rx="12.5" ry="12.5" style="stroke:#181818;stroke-width:0.5;" width="50" x="318" y="270"/><line style="stroke:#181818;stroke-width:0.5;" x1="318" x2="368" y1="296.2969" y2="296.2969"/><text fill="#000000" font-family="sans-serif" font-size="14" lengthAdjust="spacing" textLength="4.4502" x="340.7749" y="287.9951">&#160;</text></g><g id="cerrarSesion.ConfirmandoCierre"><rect fill="#F1F1F1" height="50" rx="12.5" ry="12.5" style="stroke:#181818;stroke-width:0.5;" width="50" x="318" y="430"/><line style="stroke:#181818;stroke-width:0.5;" x1="318" x2="368" y1="456.2969" y2="456.2969"/><text fill="#000000" font-family="sans-serif" font-size="14" lengthAdjust="spacing" textLength="4.4502" x="340.7749" y="447.9951">&#160;</text></g><g class="entity" data-entity="c" data-uid="ent0007" id="entity_c"><polygon fill="#F1F1F1" points="343,575,355,587,343,599,331,587,343,575" style="stroke:#181818;stroke-width:0.5;"/></g><ellipse cx="343" cy="165" fill="#222222" rx="10" ry="10" style="stroke:#222222;stroke-width:1;"/><g id="SISTEMA_DISPONIBLE"><rect fill="#F1F1F1" height="50" rx="12.5" ry="12.5" style="stroke:#181818;stroke-width:0.5;" width="172.0654" x="198" y="7"/><line style="stroke:#181818;stroke-width:0.5;" x1="198" x2="370.0654" y1="33.2969" y2="33.2969"/><text fill="#000000" font-family="sans-serif" font-size="14" lengthAdjust="spacing" textLength="152.0654" x="208" y="24.9951">SISTEMA_DISPONIBLE</text></g><g id="SISTEMA_DISPONIBLE2"><rect fill="#F1F1F1" height="50" rx="12.5" ry="12.5" style="stroke:#181818;stroke-width:0.5;" width="172.0654" x="7" y="727"/><line style="stroke:#181818;stroke-width:0.5;" x1="7" x2="179.0654" y1="753.2969" y2="753.2969"/><text fill="#000000" font-family="sans-serif" font-size="14" lengthAdjust="spacing" textLength="152.0654" x="17" y="744.9951">SISTEMA_DISPONIBLE</text></g><ellipse cx="594" cy="752" fill="none" rx="11" ry="11" style="stroke:#222222;stroke-width:1;"/><ellipse cx="594" cy="752" fill="#222222" rx="6" ry="6" style="stroke:#222222;stroke-width:1;"/><!--link *start*cerrarSesion to SolicitandoCierre--><g class="link" data-entity-1=".start.cerrarSesion" data-entity-2="SolicitandoCierre" data-source-line="12" data-uid="lnk3" id="link_.start.cerrarSesion_SolicitandoCierre"><path d="M343,175.21 C343,194.81 343,235.23 343,263.89" fill="none" id="*start*cerrarSesion-to-SolicitandoCierre" style="stroke:#008000;stroke-width:1;"/><polygon fill="#008000" points="343,269.89,347,260.89,343,264.89,339,260.89,343,269.89" style="stroke:#008000;stroke-width:1;"/><path d="M348,210 L348,235 L786,235 L786,220 L776,210 L348,210" fill="#FEFFDD" style="stroke:#181818;stroke-width:0.5;"/><path d="M776,210 L776,220 L786,220 L776,210" fill="#FEFFDD" style="stroke:#181818;stroke-width:0.5;"/><text fill="#000000" font-family="sans-serif" font-size="13" font-weight="bold" lengthAdjust="spacing" textLength="279.0684" x="354" y="227.0669">Administrador institucional o Docente</text><text fill="#000000" font-family="sans-serif" font-size="13" lengthAdjust="spacing" textLength="134.5322" x="637.2007" y="227.0669">solicita cerrar sesi&#243;n</text></g><!--link SolicitandoCierre to ConfirmandoCierre--><g class="link" data-entity-1="SolicitandoCierre" data-entity-2="ConfirmandoCierre" data-source-line="17" data-uid="lnk4" id="link_SolicitandoCierre_ConfirmandoCierre"><path d="M343,320.34 C343,350.12 343,394.22 343,423.89" fill="none" id="SolicitandoCierre-to-ConfirmandoCierre" style="stroke:#008000;stroke-width:1;"/><polygon fill="#008000" points="343,429.89,347,420.89,343,424.89,339,420.89,343,429.89" style="stroke:#008000;stroke-width:1;"/><path d="M348,355 L348,395 L578,395 L578,365 L568,355 L348,355" fill="#FEFFDD" style="stroke:#181818;stroke-width:0.5;"/><path d="M568,355 L568,365 L578,365 L568,355" fill="#FEFFDD" style="stroke:#181818;stroke-width:0.5;"/><text fill="#000000" font-family="sans-serif" font-size="13" font-weight="bold" lengthAdjust="spacing" textLength="58.9063" x="354" y="372.0669">Sistema</text><text fill="#000000" font-family="sans-serif" font-size="13" lengthAdjust="spacing" textLength="146.2563" x="417.0386" y="372.0669">presenta confirmaci&#243;n</text><text fill="#000000" font-family="sans-serif" font-size="13" lengthAdjust="spacing" textLength="202.6299" x="354" y="387.1997">&#191;Desea cerrar la sesi&#243;n activa?</text></g><!--link ConfirmandoCierre to c--><g class="link" data-entity-1="ConfirmandoCierre" data-entity-2="c" data-source-line="23" data-uid="lnk5" id="link_ConfirmandoCierre_c"><path d="M343,480.15 C343,508.34 343,547.79 343,568.75" fill="none" id="ConfirmandoCierre-to-c" style="stroke:#008000;stroke-width:1;"/><polygon fill="#008000" points="343,574.75,347,565.75,343,569.75,339,565.75,343,574.75" style="stroke:#008000;stroke-width:1;"/><path d="M348,515 L348,540 L621,540 L621,525 L611,515 L348,515" fill="#FEFFDD" style="stroke:#181818;stroke-width:0.5;"/><path d="M611,515 L611,525 L621,525 L611,515" fill="#FEFFDD" style="stroke:#181818;stroke-width:0.5;"/><text fill="#000000" font-family="sans-serif" font-size="13" font-weight="bold" lengthAdjust="spacing" textLength="58.9063" x="354" y="532.0669">Sistema</text><text fill="#000000" font-family="sans-serif" font-size="13" lengthAdjust="spacing" textLength="189.3252" x="417.0386" y="532.0669">permite confirmar y cancelar</text></g><!--link SISTEMA_DISPONIBLE to cerrarSesion--><g class="link" data-entity-1="SISTEMA_DISPONIBLE" data-entity-2="cerrarSesion" data-source-line="31" data-uid="lnk6" id="link_SISTEMA_DISPONIBLE_cerrarSesion"><path d="M284,57.03 C284,66.3375 284,77.5425 284,89.1473 C284,94.9498 284,100.8521 284,106.6673 C284,108.1211 284,109.5694 284,111.0094 C284,111.1893 284,105.3692 284,105.5489" fill="none" id="SISTEMA_DISPONIBLE-to-cerrarSesion" style="stroke:#008000;stroke-width:1;"/><polygon fill="#008000" points="284,111.5489,288,102.5489,284,106.5489,280,102.5489,284,111.5489" style="stroke:#008000;stroke-width:1;"/></g><!--link c to SISTEMA_DISPONIBLE2--><g class="link" data-entity-1="c" data-entity-2="SISTEMA_DISPONIBLE2" data-source-line="33" data-uid="lnk7" id="link_c_SISTEMA_DISPONIBLE2"><path d="M334,590.1 C288.93,600.61 90,647 90,647 C90,647 90,697 90,697 C90,697 90.5265,706.4793 91.3265,720.8493" fill="none" id="c-to-SISTEMA_DISPONIBLE2" style="stroke:#0000FF;stroke-width:1;"/><polygon fill="#0000FF" points="91.66,726.84,95.1535,717.6316,91.3821,721.8477,87.1659,718.0763,91.66,726.84" style="stroke:#0000FF;stroke-width:1;"/><path d="M95,659.5 L95,684.5 L546,684.5 L546,669.5 L536,659.5 L95,659.5" fill="#FEFFDD" style="stroke:#181818;stroke-width:0.5;"/><path d="M536,659.5 L536,669.5 L546,669.5 L536,659.5" fill="#FEFFDD" style="stroke:#181818;stroke-width:0.5;"/><text fill="#000000" font-family="sans-serif" font-size="13" font-weight="bold" lengthAdjust="spacing" textLength="279.0684" x="101" y="676.5669">Administrador institucional o Docente</text><text fill="#000000" font-family="sans-serif" font-size="13" lengthAdjust="spacing" textLength="146.9038" x="384.2007" y="676.5669">solicita cancelar cierre</text></g><!--link c to *end*--><g class="link" data-entity-1="c" data-entity-2=".end." data-source-line="38" data-uid="lnk9" id="link_c_.end."><path d="M351.84,590.46 C391.96,601.63 555,647 555,647 C555,647 578.6437,710.0418 588.2937,735.7818" fill="none" id="c-to-*end*" style="stroke:#008000;stroke-width:1;"/><polygon fill="#008000" points="590.4,741.4,590.986,731.5686,588.6448,736.7182,583.4952,734.3769,590.4,741.4" style="stroke:#008000;stroke-width:1;"/><path d="M578,652 L578,692 L1001,692 L1001,662 L991,652 L578,652" fill="#FEFFDD" style="stroke:#181818;stroke-width:0.5;"/><path d="M991,652 L991,662 L1001,662 L991,652" fill="#FEFFDD" style="stroke:#181818;stroke-width:0.5;"/><text fill="#000000" font-family="sans-serif" font-size="13" lengthAdjust="spacing" textLength="402.5176" x="584" y="669.0669">Administrador institucional o Docente &#8594; UsuarioNoRegistrado</text><text fill="#000000" font-family="sans-serif" font-size="13" lengthAdjust="spacing" textLength="92.5044" x="584" y="684.1997">iniciarSesion()</text></g><!--SRC=[hPF1IiD048RlUOgX7g924Jo7I6no26WhZPvAATlDM9Scks5tAnJnwWFuAZw0e6_YaxXDqYPnM-Z110BP_UUVRtTcr9BnWaYIGyOuwdM1K8XilVbn7AM9HaZYv3ww3MPXdDoDXl7rJNHmunA8WfwztjjwKPIIo0GL4xpKjXTEpthmuZXWdahTCwyH9I9Zb6d2Kp5WHe-sP23u8vDv8m5eYIXu7dqIZABlL_wJyodq9oSBYSYdVTzEKOLpOQ8DgRcEPRdWpVqWpHbdIakI2WcCAytqYXfyae60K53a6hsBkG-gDgrF3SgSylk3bqR8qyeTQjBoOsEq8Qr37cHC31_cfAGe92g3P2ZgSBg3-FeCpTwEBoDRH21KisTorK5jCEtRRcFIux1GvcnJczfBmXeeuHGp8lUaTLwhmjczrStTQgSgW6xsvzaAopBR7VklTQxvWJRbiM-FTeXD9-v7E2e__BozmuDQ4Sd4K8nnKGUK3YQSicQukZYEutQ6iJCDKHAFXhD1D1u7OU2u7JQt2tO8mFsRtTsc_WK0]--></g></svg>