<svg xmlns="http://www.w3.org/2000/svg" xmlns:xlink="http://www.w3.org/1999/xlink" contentStyleType="text/css" data-diagram-type="STATE" height="678px" preserveAspectRatio="none" style="width:986px;height:678px;background:#FFFFFF;" version="1.1" viewBox="0 0 986 678" width="986px" zoomAndPan="magnify"><defs/><g><!--cluster cerrarSesion--><g class="cluster" data-entity="cerrarSesion" data-source-line="3" data-uid="ent0002" id="cluster_cerrarSesion"><path d="M437.5,7 L951.5,7 A12.5,12.5 0 0 1 964,19.5 L964,28.2969 L425,28.2969 L425,19.5 A12.5,12.5 0 0 1 437.5,7" fill="#F1F1F1"/><rect fill="none" height="511" rx="12.5" ry="12.5" style="stroke:#181818;stroke-width:0.5;" width="539" x="425" y="7"/><line style="stroke:#181818;stroke-width:0.5;" x1="425" x2="964" y1="28.2969" y2="28.2969"/><text fill="#000000" font-family="sans-serif" font-size="14" lengthAdjust="spacing" textLength="99.2031" x="644.8984" y="23.9951">cerrarSesion()</text></g><g id="cerrarSesion.SolicitandoCierre"><rect fill="#F1F1F1" height="50" rx="12.5" ry="12.5" style="stroke:#181818;stroke-width:0.5;" width="50" x="459" y="165"/><line style="stroke:#181818;stroke-width:0.5;" x1="459" x2="509" y1="191.2969" y2="191.2969"/><text fill="#000000" font-family="sans-serif" font-size="14" lengthAdjust="spacing" textLength="4.4502" x="481.7749" y="182.9951">&#160;</text></g><g id="cerrarSesion.ConfirmandoCierre"><rect fill="#F1F1F1" height="50" rx="12.5" ry="12.5" style="stroke:#181818;stroke-width:0.5;" width="50" x="459" y="325"/><line style="stroke:#181818;stroke-width:0.5;" x1="459" x2="509" y1="351.2969" y2="351.2969"/><text fill="#000000" font-family="sans-serif" font-size="14" lengthAdjust="spacing" textLength="4.4502" x="481.7749" y="342.9951">&#160;</text></g><g class="entity" data-entity="c" data-uid="ent0005" id="entity_c"><polygon fill="#F1F1F1" points="484,470,496,482,484,494,472,482,484,470" style="stroke:#181818;stroke-width:0.5;"/></g><ellipse cx="484" cy="60" fill="#222222" rx="10" ry="10" style="stroke:#222222;stroke-width:1;"/><g id="SISTEMA_DISPONIBLE"><rect fill="#F1F1F1" height="50" rx="12.5" ry="12.5" style="stroke:#181818;stroke-width:0.5;" width="172.0654" x="645.97" y="622"/><line style="stroke:#181818;stroke-width:0.5;" x1="645.97" x2="818.0354" y1="648.2969" y2="648.2969"/><text fill="#000000" font-family="sans-serif" font-size="14" lengthAdjust="spacing" textLength="152.0654" x="655.97" y="639.9951">SISTEMA_DISPONIBLE</text></g><ellipse cx="17" cy="647" fill="none" rx="11" ry="11" style="stroke:#222222;stroke-width:1;"/><ellipse cx="17" cy="647" fill="#222222" rx="6" ry="6" style="stroke:#222222;stroke-width:1;"/><!--link *start*cerrarSesion to SolicitandoCierre--><g class="link" data-entity-1=".start.cerrarSesion" data-entity-2="SolicitandoCierre" data-source-line="9" data-uid="lnk3" id="link_.start.cerrarSesion_SolicitandoCierre"><path d="M484,70.21 C484,89.75 484,129.96 484,158.64" fill="none" id="*start*cerrarSesion-to-SolicitandoCierre" style="stroke:#008000;stroke-width:1;"/><polygon fill="#008000" points="484,164.64,488,155.64,484,159.64,480,155.64,484,164.64" style="stroke:#008000;stroke-width:1;"/><path d="M489,105 L489,130 L927,130 L927,115 L917,105 L489,105" fill="#FEFFDD" style="stroke:#181818;stroke-width:0.5;"/><path d="M917,105 L917,115 L927,115 L917,105" fill="#FEFFDD" style="stroke:#181818;stroke-width:0.5;"/><text fill="#000000" font-family="sans-serif" font-size="13" font-weight="bold" lengthAdjust="spacing" textLength="279.0684" x="495" y="122.0669">Administrador institucional o Docente</text><text fill="#000000" font-family="sans-serif" font-size="13" lengthAdjust="spacing" textLength="134.5322" x="778.2007" y="122.0669">solicita cerrar sesi&#243;n</text></g><!--link SolicitandoCierre to ConfirmandoCierre--><g class="link" data-entity-1="SolicitandoCierre" data-entity-2="ConfirmandoCierre" data-source-line="14" data-uid="lnk4" id="link_SolicitandoCierre_ConfirmandoCierre"><path d="M484,215.34 C484,245.03 484,288.93 484,318.63" fill="none" id="SolicitandoCierre-to-ConfirmandoCierre" style="stroke:#008000;stroke-width:1;"/><polygon fill="#008000" points="484,324.63,488,315.63,484,319.63,480,315.63,484,324.63" style="stroke:#008000;stroke-width:1;"/><path d="M489,250 L489,290 L719,290 L719,260 L709,250 L489,250" fill="#FEFFDD" style="stroke:#181818;stroke-width:0.5;"/><path d="M709,250 L709,260 L719,260 L709,250" fill="#FEFFDD" style="stroke:#181818;stroke-width:0.5;"/><text fill="#000000" font-family="sans-serif" font-size="13" font-weight="bold" lengthAdjust="spacing" textLength="58.9063" x="495" y="267.0669">Sistema</text><text fill="#000000" font-family="sans-serif" font-size="13" lengthAdjust="spacing" textLength="146.2563" x="558.0386" y="267.0669">presenta confirmaci&#243;n</text><text fill="#000000" font-family="sans-serif" font-size="13" lengthAdjust="spacing" textLength="202.6299" x="495" y="282.1997">&#191;Desea cerrar la sesi&#243;n activa?</text></g><!--link ConfirmandoCierre to c--><g class="link" data-entity-1="ConfirmandoCierre" data-entity-2="c" data-source-line="20" data-uid="lnk5" id="link_ConfirmandoCierre_c"><path d="M484,375.45 C484,403.55 484,442.47 484,463.48" fill="none" id="ConfirmandoCierre-to-c" style="stroke:#008000;stroke-width:1;"/><polygon fill="#008000" points="484,469.48,488,460.48,484,464.48,480,460.48,484,469.48" style="stroke:#008000;stroke-width:1;"/><path d="M489,410 L489,435 L762,435 L762,420 L752,410 L489,410" fill="#FEFFDD" style="stroke:#181818;stroke-width:0.5;"/><path d="M752,410 L752,420 L762,420 L752,410" fill="#FEFFDD" style="stroke:#181818;stroke-width:0.5;"/><text fill="#000000" font-family="sans-serif" font-size="13" font-weight="bold" lengthAdjust="spacing" textLength="58.9063" x="495" y="427.0669">Sistema</text><text fill="#000000" font-family="sans-serif" font-size="13" lengthAdjust="spacing" textLength="189.3252" x="558.0386" y="427.0669">permite confirmar y cancelar</text></g><!--link SISTEMA_DISPONIBLE to cerrarSesion--><g class="link" data-entity-1="SISTEMA_DISPONIBLE" data-entity-2="cerrarSesion" data-source-line="28" data-uid="lnk7" id="link_SISTEMA_DISPONIBLE_cerrarSesion"><path d="M818.32,624.81 C879.95,609.68 952,592 952,592 C952,592 974,483 974,483 C974,189 974,189 974,189 C974,189 969.64,157.9925 965.2113,126.5 C964.9345,124.5317 964.6574,122.5615 964.3811,120.5969 C964.312,120.1058 964.243,119.615 964.174,119.1246 C964.1396,118.8794 964.9407,124.5759 964.9062,124.331" fill="none" id="SISTEMA_DISPONIBLE-to-cerrarSesion" style="stroke:#008000;stroke-width:1;"/><polygon fill="#008000" points="964.0707,118.3895,961.363,127.8588,964.767,123.3407,969.285,126.7447,964.0707,118.3895" style="stroke:#008000;stroke-width:1;"/></g><!--link c to SISTEMA_DISPONIBLE--><g class="link" data-entity-1="c" data-entity-2="SISTEMA_DISPONIBLE" data-source-line="30" data-uid="lnk8" id="link_c_SISTEMA_DISPONIBLE"><path d="M484.31,494.25 C485.08,522.1 487,592 487,592 C487,592 569.2307,610.1182 639.7607,625.6682" fill="none" id="c-to-SISTEMA_DISPONIBLE" style="stroke:#0000FF;stroke-width:1;"/><polygon fill="#0000FF" points="645.62,626.96,637.6923,621.1161,640.7373,625.8835,635.9699,628.9285,645.62,626.96" style="stroke:#0000FF;stroke-width:1;"/><path d="M492,554.5 L492,579.5 L943,579.5 L943,564.5 L933,554.5 L492,554.5" fill="#FEFFDD" style="stroke:#181818;stroke-width:0.5;"/><path d="M933,554.5 L933,564.5 L943,564.5 L933,554.5" fill="#FEFFDD" style="stroke:#181818;stroke-width:0.5;"/><text fill="#000000" font-family="sans-serif" font-size="13" font-weight="bold" lengthAdjust="spacing" textLength="279.0684" x="498" y="571.5669">Administrador institucional o Docente</text><text fill="#000000" font-family="sans-serif" font-size="13" lengthAdjust="spacing" textLength="146.9038" x="781.2007" y="571.5669">solicita cancelar cierre</text></g><!--link c to *end*--><g class="link" data-entity-1="c" data-entity-2=".end." data-source-line="35" data-uid="lnk10" id="link_c_.end."><path d="M473.98,484.34 C408.49,493.13 44,542 44,542 C44,542 27.8582,604.1926 21.0982,630.2226" fill="none" id="c-to-*end*" style="stroke:#008000;stroke-width:1;"/><polygon fill="#008000" points="19.59,636.03,25.7238,628.3244,20.8468,631.1905,17.9807,626.3135,19.59,636.03" style="stroke:#008000;stroke-width:1;"/><path d="M49,547 L49,587 L472,587 L472,557 L462,547 L49,547" fill="#FEFFDD" style="stroke:#181818;stroke-width:0.5;"/><path d="M462,547 L462,557 L472,557 L462,547" fill="#FEFFDD" style="stroke:#181818;stroke-width:0.5;"/><text fill="#000000" font-family="sans-serif" font-size="13" lengthAdjust="spacing" textLength="402.5176" x="55" y="564.0669">Administrador institucional o Docente &#8594; UsuarioNoRegistrado</text><text fill="#000000" font-family="sans-serif" font-size="13" lengthAdjust="spacing" textLength="92.5044" x="55" y="579.1997">iniciarSesion()</text></g><!--SRC=[hPFHIiCm58RlynI7UL4LXYzGAdFjHK4tMVLg3CdIumnhav9amX1lVG1VnGSGz4ry4hEsMnkxmIvieT3a_EV_JawENd9HK4LpoBX0iouG2fcjDp-4Q4CD0aEbg4fGSoc0QkYr5qxFUl122DYdYkxPrmObCkEC6ofIEUGs7hiXGoaUkSgR481M40FVPq-ICmo2Al_qV0RzwSb28OfPF-XQL78XhTgIsXAMvO8_3mPfpWNNHj5KAk126svMpEBJ32I4ag4mw5_C0z1rqhfgqBRAxmzH9aAHLjcX9Yq_NOmsPAV8Wuo9vSESbXI5GcsHB4KjPpk8hy_GxktuChf51CeCVwQN3cg3sJtjDYOx3WjLpZUzgNCfM0EZWc56rHvRyberBecJk-Xcy136oUru55zTHwvtwpfL0hRPdsShBDlSKVzhcsjyO4rtkeV7761x4VSZ7EKFFs_lSAzNL74vaXDSr88oWvKptioMYqE8vyoYCmnH4ez73yDeCXc40-8vR9uBTWZ0- -lkRQr_0G00]--></g></svg>