<svg xmlns="http://www.w3.org/2000/svg" xmlns:xlink="http://www.w3.org/1999/xlink" contentStyleType="text/css" data-diagram-type="STATE" height="676px" preserveAspectRatio="none" style="width:338px;height:676px;background:#FFFFFF;" version="1.1" viewBox="0 0 338 676" width="338px" zoomAndPan="magnify"><title>Diagrama de Estados - Entidad Examen</title><defs/><g><g class="title" data-source-line="1"><text fill="#000000" font-family="sans-serif" font-size="14" font-weight="bold" lengthAdjust="spacing" textLength="310.584" x="10" y="22.9951">Diagrama de Estados - Entidad Examen</text></g><ellipse cx="167.7208" cy="53.2969" fill="#222222" rx="10" ry="10" style="stroke:#222222;stroke-width:1;"/><g id="NoCreado"><rect fill="#F1F1F1" height="50" rx="12.5" ry="12.5" style="stroke:#181818;stroke-width:0.5;" width="89.2139" x="123.1108" y="140.2969"/><line style="stroke:#181818;stroke-width:0.5;" x1="123.1108" x2="212.3246" y1="166.5938" y2="166.5938"/><text fill="#000000" font-family="sans-serif" font-size="14" lengthAdjust="spacing" textLength="69.2139" x="133.1108" y="158.292">NoCreado</text></g><g id="Creado"><rect fill="#F1F1F1" height="50" rx="12.5" ry="12.5" style="stroke:#181818;stroke-width:0.5;" width="70.1758" x="132.6308" y="267.2969"/><line style="stroke:#181818;stroke-width:0.5;" x1="132.6308" x2="202.8066" y1="293.5938" y2="293.5938"/><text fill="#000000" font-family="sans-serif" font-size="14" lengthAdjust="spacing" textLength="50.1758" x="142.6308" y="285.292">Creado</text></g><g id="Asignado"><rect fill="#F1F1F1" height="50" rx="12.5" ry="12.5" style="stroke:#181818;stroke-width:0.5;" width="84.5518" x="125.4408" y="394.2969"/><line style="stroke:#181818;stroke-width:0.5;" x1="125.4408" x2="209.9925" y1="420.5938" y2="420.5938"/><text fill="#000000" font-family="sans-serif" font-size="14" lengthAdjust="spacing" textLength="64.5518" x="135.4408" y="412.292">Asignado</text></g><g id="Corregido"><rect fill="#F1F1F1" height="50" rx="12.5" ry="12.5" style="stroke:#181818;stroke-width:0.5;" width="88.6943" x="123.3708" y="521.2969"/><line style="stroke:#181818;stroke-width:0.5;" x1="123.3708" x2="212.0651" y1="547.5938" y2="547.5938"/><text fill="#000000" font-family="sans-serif" font-size="14" lengthAdjust="spacing" textLength="68.6943" x="133.3708" y="539.292">Corregido</text></g><ellipse cx="167.7208" cy="659.2969" fill="none" rx="11" ry="11" style="stroke:#222222;stroke-width:1;"/><ellipse cx="167.7208" cy="659.2969" fill="#222222" rx="6" ry="6" style="stroke:#222222;stroke-width:1;"/><!--link *start* to NoCreado--><g class="link" data-entity-1=".start." data-entity-2="NoCreado" data-source-line="3" data-uid="lnk4" id="link_.start._NoCreado"><path d="M167.7208,63.6769 C167.7208,80.4069 167.7208,109.8869 167.7208,133.9269" fill="none" id="*start*-to-NoCreado" style="stroke:#181818;stroke-width:1;"/><polygon fill="#181818" points="167.7208,139.9269,171.7208,130.9269,167.7208,134.9269,163.7208,130.9269,167.7208,139.9269" style="stroke:#181818;stroke-width:1;"/><text fill="#000000" font-family="sans-serif" font-size="13" lengthAdjust="spacing" textLength="39.5332" x="168.7208" y="106.3638">iniciar</text></g><!--link NoCreado to Creado--><g class="link" data-entity-1="NoCreado" data-entity-2="Creado" data-source-line="4" data-uid="lnk6" id="link_NoCreado_Creado"><path d="M167.7208,190.6969 C167.7208,212.7169 167.7208,238.9569 167.7208,260.9569" fill="none" id="NoCreado-to-Creado" style="stroke:#181818;stroke-width:1;"/><polygon fill="#181818" points="167.7208,266.9569,171.7208,257.9569,167.7208,261.9569,163.7208,257.9569,167.7208,266.9569" style="stroke:#181818;stroke-width:1;"/><text fill="#000000" font-family="sans-serif" font-size="13" lengthAdjust="spacing" textLength="51.1431" x="168.7208" y="233.3638">generar</text></g><!--link Creado to Asignado--><g class="link" data-entity-1="Creado" data-entity-2="Asignado" data-source-line="5" data-uid="lnk8" id="link_Creado_Asignado"><path d="M167.7208,317.6969 C167.7208,339.7169 167.7208,365.9569 167.7208,387.9569" fill="none" id="Creado-to-Asignado" style="stroke:#181818;stroke-width:1;"/><polygon fill="#181818" points="167.7208,393.9569,171.7208,384.9569,167.7208,388.9569,163.7208,384.9569,167.7208,393.9569" style="stroke:#181818;stroke-width:1;"/><text fill="#000000" font-family="sans-serif" font-size="13" lengthAdjust="spacing" textLength="48.1533" x="168.7208" y="360.3638">asignar</text></g><!--link Asignado to Corregido--><g class="link" data-entity-1="Asignado" data-entity-2="Corregido" data-source-line="6" data-uid="lnk10" id="link_Asignado_Corregido"><path d="M167.7208,444.6969 C167.7208,466.7169 167.7208,492.9569 167.7208,514.9569" fill="none" id="Asignado-to-Corregido" style="stroke:#181818;stroke-width:1;"/><polygon fill="#181818" points="167.7208,520.9569,171.7208,511.9569,167.7208,515.9569,163.7208,511.9569,167.7208,520.9569" style="stroke:#181818;stroke-width:1;"/><text fill="#000000" font-family="sans-serif" font-size="13" lengthAdjust="spacing" textLength="50.9971" x="168.7208" y="487.3638">corregir</text></g><!--link Corregido to *end*--><g class="link" data-entity-1="Corregido" data-entity-2=".end." data-source-line="7" data-uid="lnk12" id="link_Corregido_.end."><path d="M167.7208,571.6569 C167.7208,595.5269 167.7208,624.7569 167.7208,642.0069" fill="none" id="Corregido-to-*end*" style="stroke:#181818;stroke-width:1;"/><polygon fill="#181818" points="167.7208,648.0069,171.7208,639.0069,167.7208,643.0069,163.7208,639.0069,167.7208,648.0069" style="stroke:#181818;stroke-width:1;"/><text fill="#000000" font-family="sans-serif" font-size="13" lengthAdjust="spacing" textLength="51.7524" x="168.7208" y="614.3638">finalizar</text></g><!--SRC=[JOun2iCm34Ltd-BF1LyWGw4qNdk1qa74YX4aCiWUIa_Vs06ts-U_zuMgr8qn2oMZdH0PeLIAkS0ZQ9L84U5DEwjpU5vUyFwAHxuR7n8cYCeYPExNDM7WnChMy1-y5KbwOkhnmAFhwsp6IRgndBbT66rpsYiJLb7Qv4Fs1G00]--></g></svg>