<svg xmlns="http://www.w3.org/2000/svg" xmlns:xlink="http://www.w3.org/1999/xlink" contentStyleType="text/css" data-diagram-type="STATE" height="577px" preserveAspectRatio="none" style="width:338px;height:577px;background:#FFFFFF;" version="1.1" viewBox="0 0 338 577" width="338px" zoomAndPan="magnify"><title>Diagrama de Estados - Entidad Examen</title><defs/><g><g class="title" data-source-line="1"><text fill="#000000" font-family="sans-serif" font-size="14" font-weight="bold" lengthAdjust="spacing" textLength="310.584" x="10" y="22.9951">Diagrama de Estados - Entidad Examen</text></g><ellipse cx="109.261" cy="53.2969" fill="#222222" rx="10" ry="10" style="stroke:#222222;stroke-width:1;"/><g id="Generado"><rect fill="#F1F1F1" height="50" rx="12.5" ry="12.5" style="stroke:#181818;stroke-width:0.5;" width="88.7354" x="64.761" y="140.2969"/><line style="stroke:#181818;stroke-width:0.5;" x1="64.761" x2="153.4963" y1="166.5938" y2="166.5938"/><text fill="#000000" font-family="sans-serif" font-size="14" lengthAdjust="spacing" textLength="68.7354" x="74.761" y="158.292">Generado</text></g><g id="Asignado"><rect fill="#F1F1F1" height="50" rx="12.5" ry="12.5" style="stroke:#181818;stroke-width:0.5;" width="84.5518" x="66.761" y="267.2969"/><line style="stroke:#181818;stroke-width:0.5;" x1="66.761" x2="151.3127" y1="293.5938" y2="293.5938"/><text fill="#000000" font-family="sans-serif" font-size="14" lengthAdjust="spacing" textLength="64.5518" x="76.761" y="285.292">Asignado</text></g><g id="Resuelto"><rect fill="#F1F1F1" height="50" rx="12.5" ry="12.5" style="stroke:#181818;stroke-width:0.5;" width="81.0654" x="68.761" y="394.2969"/><line style="stroke:#181818;stroke-width:0.5;" x1="68.761" x2="149.8264" y1="420.5938" y2="420.5938"/><text fill="#000000" font-family="sans-serif" font-size="14" lengthAdjust="spacing" textLength="61.0654" x="78.761" y="412.292">Resuelto</text></g><g id="Corregido"><rect fill="#F1F1F1" height="50" rx="12.5" ry="12.5" style="stroke:#181818;stroke-width:0.5;" width="88.6943" x="64.761" y="521.2969"/><line style="stroke:#181818;stroke-width:0.5;" x1="64.761" x2="153.4553" y1="547.5938" y2="547.5938"/><text fill="#000000" font-family="sans-serif" font-size="14" lengthAdjust="spacing" textLength="68.6943" x="74.761" y="539.292">Corregido</text></g><!--link *start* to Generado--><g class="link" data-entity-1=".start." data-entity-2="Generado" data-source-line="3" data-uid="lnk4" id="link_.start._Generado"><path d="M109.261,63.2969 C109.261,79.9269 109.261,109.9569 109.261,134.1669" fill="none" id="*start*-to-Generado" style="stroke:#181818;stroke-width:1;"/><polygon fill="#181818" points="109.261,140.1669,113.261,131.1669,109.261,135.1669,105.261,131.1669,109.261,140.1669" style="stroke:#181818;stroke-width:1;"/><text fill="#000000" font-family="sans-serif" font-size="13" lengthAdjust="spacing" textLength="51.1431" x="110.261" y="106.3638">generar</text></g><!--link Generado to Asignado--><g class="link" data-entity-1="Generado" data-entity-2="Asignado" data-source-line="4" data-uid="lnk6" id="link_Generado_Asignado"><path d="M109.261,190.3969 C109.261,212.5369 109.261,239.1569 109.261,261.2669" fill="none" id="Generado-to-Asignado" style="stroke:#181818;stroke-width:1;"/><polygon fill="#181818" points="109.261,267.2669,113.261,258.2669,109.261,262.2669,105.261,258.2669,109.261,267.2669" style="stroke:#181818;stroke-width:1;"/><text fill="#000000" font-family="sans-serif" font-size="13" lengthAdjust="spacing" textLength="48.1533" x="110.261" y="233.3638">asignar</text></g><!--link Asignado to Resuelto--><g class="link" data-entity-1="Asignado" data-entity-2="Resuelto" data-source-line="5" data-uid="lnk8" id="link_Asignado_Resuelto"><path d="M109.261,317.3969 C109.261,339.5369 109.261,366.1569 109.261,388.2669" fill="none" id="Asignado-to-Resuelto" style="stroke:#181818;stroke-width:1;"/><polygon fill="#181818" points="109.261,394.2669,113.261,385.2669,109.261,389.2669,105.261,385.2669,109.261,394.2669" style="stroke:#181818;stroke-width:1;"/><text fill="#000000" font-family="sans-serif" font-size="13" lengthAdjust="spacing" textLength="168.562" x="110.261" y="360.3638">alumno realiza el examen</text></g><!--link Resuelto to Corregido--><g class="link" data-entity-1="Resuelto" data-entity-2="Corregido" data-source-line="6" data-uid="lnk10" id="link_Resuelto_Corregido"><path d="M109.261,444.3969 C109.261,466.5369 109.261,493.1569 109.261,515.2669" fill="none" id="Resuelto-to-Corregido" style="stroke:#181818;stroke-width:1;"/><polygon fill="#181818" points="109.261,521.2669,113.261,512.2669,109.261,516.2669,105.261,512.2669,109.261,521.2669" style="stroke:#181818;stroke-width:1;"/><text fill="#000000" font-family="sans-serif" font-size="13" lengthAdjust="spacing" textLength="50.9971" x="110.261" y="487.3638">corregir</text></g><!--SRC=[HSsz2iCm30JWtKznSy4lqA5G6fEzQ-aWOc44_W7PWTAdRsn3int7TrAJ5XcBK51A1CzmjP4l5HOkD_7auJwKE1k3r-KDQszOERCU25U44TMSNGVtAY5FG2CUuDzryEIwSsm3n3tb0cMAyYLm1Cz_9-gBHr7b8EFcDhF-0000]--></g></svg>