<svg xmlns="http://www.w3.org/2000/svg" xmlns:xlink="http://www.w3.org/1999/xlink" contentStyleType="text/css" data-diagram-type="STATE" height="650px" preserveAspectRatio="none" style="width:792px;height:650px;background:#FFFFFF;" version="1.1" viewBox="0 0 792 650" width="792px" zoomAndPan="magnify"><defs/><g><path d="M19.5,7 L573.5,7 A12.5,12.5 0 0 1 586,19.5 L586,33.2969 L7,33.2969 L7,19.5 A12.5,12.5 0 0 1 19.5,7" fill="#F1F1F1"/><rect fill="none" height="492.2969" rx="12.5" ry="12.5" style="stroke:#181818;stroke-width:0.5;" width="579" x="7" y="7"/><line style="stroke:#181818;stroke-width:0.5;" x1="7" x2="586" y1="33.2969" y2="33.2969"/><text fill="#000000" font-family="sans-serif" font-size="14" lengthAdjust="spacing" textLength="116.6689" x="238.1655" y="24.9951">verAsignaturas()</text><g id="verAsignaturas.MostrandoAsignaturas"><rect fill="#F1F1F1" height="50" rx="12.5" ry="12.5" style="stroke:#181818;stroke-width:0.5;" width="50" x="19" y="135.2969"/><line style="stroke:#181818;stroke-width:0.5;" x1="19" x2="69" y1="161.5938" y2="161.5938"/><text fill="#000000" font-family="sans-serif" font-size="14" lengthAdjust="spacing" textLength="4.4502" x="41.7749" y="153.292">&#160;</text></g><g id="verAsignaturas.FiltrandoAsignaturas"><rect fill="#F1F1F1" height="50" rx="12.5" ry="12.5" style="stroke:#181818;stroke-width:0.5;" width="50" x="19" y="346.2969"/><line style="stroke:#181818;stroke-width:0.5;" x1="19" x2="69" y1="372.5938" y2="372.5938"/><text fill="#000000" font-family="sans-serif" font-size="14" lengthAdjust="spacing" textLength="4.4502" x="41.7749" y="364.292">&#160;</text></g><ellipse cx="44" cy="54.2969" fill="#222222" rx="10" ry="10" style="stroke:#222222;stroke-width:1;"/><ellipse cx="44" cy="478.2969" fill="none" rx="11" ry="11" style="stroke:#222222;stroke-width:1;"/><ellipse cx="44" cy="478.2969" fill="#222222" rx="6" ry="6" style="stroke:#222222;stroke-width:1;"/><!--link *start*verAsignaturas to MostrandoAsignaturas--><g class="link" data-entity-1=".start.verAsignaturas" data-entity-2="MostrandoAsignaturas" data-source-line="8" data-uid="lnk3" id="link_.start.verAsignaturas_MostrandoAsignaturas"><path d="M44,64.5269 C44,80.2369 44,106.6569 44,129.1669" fill="none" id="*start*verAsignaturas-to-MostrandoAsignaturas" style="stroke:#008000;stroke-width:1;"/><polygon fill="#008000" points="44,135.1669,48,126.1669,44,130.1669,40,126.1669,44,135.1669" style="stroke:#008000;stroke-width:1;"/><path d="M49,87.2969 L49,112.2969 L285,112.2969 L285,97.2969 L275,87.2969 L49,87.2969" fill="#FEFFDD" style="stroke:#181818;stroke-width:0.5;"/><path d="M275,87.2969 L275,97.2969 L285,97.2969 L275,87.2969" fill="#FEFFDD" style="stroke:#181818;stroke-width:0.5;"/><text fill="#000000" font-family="sans-serif" font-size="13" font-weight="bold" lengthAdjust="spacing" textLength="60.5313" x="55" y="104.3638">Docente</text><text fill="#000000" font-family="sans-serif" font-size="13" lengthAdjust="spacing" textLength="151.3027" x="119.6636" y="104.3638">solicita ver asignaturas</text></g><!--link MostrandoAsignaturas to FiltrandoAsignaturas--><g class="link" data-entity-1="MostrandoAsignaturas" data-entity-2="FiltrandoAsignaturas" data-source-line="13" data-uid="lnk4" id="link_MostrandoAsignaturas_FiltrandoAsignaturas"><path d="M44,185.6769 C44,225.9569 44,299.8969 44,340.0669" fill="none" id="MostrandoAsignaturas-to-FiltrandoAsignaturas" style="stroke:#008000;stroke-width:1;"/><polygon fill="#008000" points="44,346.0669,48,337.0669,44,341.0669,40,337.0669,44,346.0669" style="stroke:#008000;stroke-width:1;"/><path d="M49,208.2969 L49,323.2969 L577,323.2969 L577,218.2969 L567,208.2969 L49,208.2969" fill="#FEFFDD" style="stroke:#181818;stroke-width:0.5;"/><path d="M567,208.2969 L567,218.2969 L577,218.2969 L567,208.2969" fill="#FEFFDD" style="stroke:#181818;stroke-width:0.5;"/><text fill="#000000" font-family="sans-serif" font-size="13" font-weight="bold" lengthAdjust="spacing" textLength="58.9063" x="55" y="225.3638">Sistema</text><text fill="#000000" font-family="sans-serif" font-size="13" lengthAdjust="spacing" textLength="189.6045" x="118.0386" y="225.3638">presenta lista de asignaturas</text><text fill="#000000" font-family="sans-serif" font-size="13" lengthAdjust="spacing" textLength="507.5396" x="55" y="240.4966">&#8226; Nombre, c&#243;digo, curso acad&#233;mico, alumnos matriculados, grados asociados</text><text fill="#000000" font-family="sans-serif" font-size="13" lengthAdjust="spacing" textLength="4.1323" x="55" y="255.6294">&#160;</text><text fill="#000000" font-family="sans-serif" font-size="13" lengthAdjust="spacing" textLength="188.481" x="55" y="270.7622">&#8226; Permite solicitar filtrar lista</text><text fill="#000000" font-family="sans-serif" font-size="13" lengthAdjust="spacing" textLength="273.3936" x="55" y="285.895">&#8226; Permite solicitar crear asignatura nueva</text><text fill="#000000" font-family="sans-serif" font-size="13" lengthAdjust="spacing" textLength="248.3711" x="55" y="301.0278">&#8226; Permite solicitar eliminar asignatura</text><text fill="#000000" font-family="sans-serif" font-size="13" lengthAdjust="spacing" textLength="233.5938" x="55" y="316.1606">&#8226; Permite solicitar editar asignatura</text></g><!--link FiltrandoAsignaturas to FiltrandoAsignaturas--><g class="link" data-entity-1="FiltrandoAsignaturas" data-entity-2="FiltrandoAsignaturas" data-source-line="24" data-uid="lnk5" id="link_FiltrandoAsignaturas_FiltrandoAsignaturas"><path d="M69.18,360.0869 C78.91,359.5969 87,363.3269 87,371.2969 C87,379.2669 84.9024,383.2987 75.1724,382.8087" fill="none" id="FiltrandoAsignaturas-to-FiltrandoAsignaturas" style="stroke:#008000;stroke-width:1;"/><polygon fill="#008000" points="69.18,382.5069,77.9674,386.9545,74.1737,382.7584,78.3698,378.9646,69.18,382.5069" style="stroke:#008000;stroke-width:1;"/><path d="M92,351.2969 L92,391.2969 L315,391.2969 L315,361.2969 L305,351.2969 L92,351.2969" fill="#FEFFDD" style="stroke:#181818;stroke-width:0.5;"/><path d="M305,351.2969 L305,361.2969 L315,361.2969 L305,351.2969" fill="#FEFFDD" style="stroke:#181818;stroke-width:0.5;"/><text fill="#000000" font-family="sans-serif" font-size="13" font-weight="bold" lengthAdjust="spacing" textLength="60.5313" x="98" y="368.3638">Docente</text><text fill="#000000" font-family="sans-serif" font-size="13" lengthAdjust="spacing" textLength="116.6509" x="162.6636" y="368.3638">solicita filtrar lista</text><text fill="#000000" font-family="sans-serif" font-size="13" font-weight="bold" lengthAdjust="spacing" textLength="58.9063" x="98" y="383.4966">Sistema</text><text fill="#000000" font-family="sans-serif" font-size="13" lengthAdjust="spacing" textLength="139.4199" x="161.0386" y="383.4966">presenta lista filtrada</text></g><!--link FiltrandoAsignaturas to *end*verAsignaturas--><g class="link" data-entity-1="FiltrandoAsignaturas" data-entity-2=".end.verAsignaturas" data-source-line="30" data-uid="lnk7" id="link_FiltrandoAsignaturas_.end.verAsignaturas"><path d="M44,396.3869 C44,418.7869 44,445.0669 44,461.2469" fill="none" id="FiltrandoAsignaturas-to-*end*verAsignaturas" style="stroke:#008000;stroke-width:1;"/><polygon fill="#008000" points="44,467.2469,48,458.2469,44,462.2469,40,458.2469,44,467.2469" style="stroke:#008000;stroke-width:1;"/><path d="M49,419.2969 L49,444.2969 L313,444.2969 L313,429.2969 L303,419.2969 L49,419.2969" fill="#FEFFDD" style="stroke:#181818;stroke-width:0.5;"/><path d="M303,419.2969 L303,429.2969 L313,429.2969 L303,419.2969" fill="#FEFFDD" style="stroke:#181818;stroke-width:0.5;"/><text fill="#000000" font-family="sans-serif" font-size="13" font-weight="bold" lengthAdjust="spacing" textLength="60.5313" x="55" y="436.3638">Docente</text><text fill="#000000" font-family="sans-serif" font-size="13" lengthAdjust="spacing" textLength="179.2769" x="119.6636" y="436.3638">solicita una de las opciones</text></g><g id="SISTEMA_DISPONIBLE"><rect fill="#F1F1F1" height="50" rx="12.5" ry="12.5" style="stroke:#181818;stroke-width:0.5;" width="172.0654" x="63.5" y="594"/><line style="stroke:#181818;stroke-width:0.5;" x1="63.5" x2="235.5654" y1="620.2969" y2="620.2969"/><text fill="#000000" font-family="sans-serif" font-size="14" lengthAdjust="spacing" textLength="152.0654" x="73.5" y="611.9951">SISTEMA_DISPONIBLE</text></g><g id="ASIGNATURA_ABIERTA"><rect fill="#F1F1F1" height="50" rx="12.5" ry="12.5" style="stroke:#181818;stroke-width:0.5;" width="178.6074" x="284" y="594"/><line style="stroke:#181818;stroke-width:0.5;" x1="284" x2="462.6074" y1="620.2969" y2="620.2969"/><text fill="#000000" font-family="sans-serif" font-size="14" lengthAdjust="spacing" textLength="158.6074" x="294" y="611.9951">ASIGNATURA_ABIERTA</text></g><g id="ASIGNATURAS_ABIERTO"><rect fill="#F1F1F1" height="50" rx="12.5" ry="12.5" style="stroke:#181818;stroke-width:0.5;" width="188.9365" x="576" y="594"/><line style="stroke:#181818;stroke-width:0.5;" x1="576" x2="764.9365" y1="620.2969" y2="620.2969"/><text fill="#000000" font-family="sans-serif" font-size="14" lengthAdjust="spacing" textLength="168.9365" x="586" y="611.9951">ASIGNATURAS_ABIERTO</text></g><!--link SISTEMA_DISPONIBLE to verAsignaturas--><g class="link" data-entity-1="SISTEMA_DISPONIBLE" data-entity-2="verAsignaturas" data-source-line="36" data-uid="lnk9" id="link_SISTEMA_DISPONIBLE_verAsignaturas"><path d="M179.47,593.84 C197.31,579.47 216.5,564 216.5,564 C216.5,564 221.9613,542.8498 231.7713,504.8198" fill="none" id="SISTEMA_DISPONIBLE-to-verAsignaturas" style="stroke:#008000;stroke-width:1;"/><polygon fill="#008000" points="233.27,499.01,227.1488,506.7256,232.0211,503.8515,234.8952,508.7238,233.27,499.01" style="stroke:#008000;stroke-width:1;"/></g><!--link verAsignaturas to SISTEMA_DISPONIBLE--><g class="link" data-entity-1="verAsignaturas" data-entity-2="SISTEMA_DISPONIBLE" data-source-line="53" data-uid="lnk15" id="link_verAsignaturas_SISTEMA_DISPONIBLE"><path d="M79.08,499.05 C62.76,517.43 52.5,529 52.5,529 C52.5,529 52.5,564 52.5,564 C52.5,564 75.0368,576.553 100.8668,590.923" fill="none" id="verAsignaturas-to-SISTEMA_DISPONIBLE" style="stroke:#008000;stroke-width:1;"/><polygon fill="#008000" points="106.11,593.84,100.1898,585.9691,101.7407,591.4092,96.3005,592.96,106.11,593.84" style="stroke:#008000;stroke-width:1;"/><path d="M57.5,534 L57.5,559 L203.5,559 L203.5,544 L193.5,534 L57.5,534" fill="#FEFFDD" style="stroke:#181818;stroke-width:0.5;"/><path d="M193.5,534 L193.5,544 L203.5,544 L193.5,534" fill="#FEFFDD" style="stroke:#181818;stroke-width:0.5;"/><text fill="#000000" font-family="sans-serif" font-size="13" lengthAdjust="spacing" textLength="125.9248" x="63.5" y="551.0669">completarGestion()</text></g><!--link verAsignaturas to ASIGNATURA_ABIERTA--><g class="link" data-entity-1="verAsignaturas" data-entity-2="ASIGNATURA_ABIERTA" data-source-line="38" data-uid="lnk11" id="link_verAsignaturas_ASIGNATURA_ABIERTA"><path d="M293.83,499.05 C293.63,517.43 293.5,529 293.5,529 C293.5,529 293.5,564 293.5,564 C293.5,564 311.4361,576.1144 332.7361,590.4844" fill="none" id="verAsignaturas-to-ASIGNATURA_ABIERTA" style="stroke:#008000;stroke-width:1;"/><polygon fill="#008000" points="337.71,593.84,332.4862,585.4906,333.5651,591.0436,328.0121,592.1225,337.71,593.84" style="stroke:#008000;stroke-width:1;"/><path d="M298.5,534 L298.5,559 L437.5,559 L437.5,544 L427.5,534 L298.5,534" fill="#FEFFDD" style="stroke:#181818;stroke-width:0.5;"/><path d="M427.5,534 L427.5,544 L437.5,544 L427.5,534" fill="#FEFFDD" style="stroke:#181818;stroke-width:0.5;"/><text fill="#000000" font-family="sans-serif" font-size="13" lengthAdjust="spacing" textLength="118.7964" x="304.5" y="551.0669">editarAsignatura()</text></g><!--link verAsignaturas to ASIGNATURA_ABIERTA--><g class="link" data-entity-1="verAsignaturas" data-entity-2="ASIGNATURA_ABIERTA" data-source-line="43" data-uid="lnk12" id="link_verAsignaturas_ASIGNATURA_ABIERTA"><path d="M430.16,499.05 C440.19,517.43 446.5,529 446.5,529 C446.5,529 446.5,564 446.5,564 C446.5,564 430.414,575.9023 410.984,590.2723" fill="none" id="verAsignaturas-to-ASIGNATURA_ABIERTA-1" style="stroke:#008000;stroke-width:1;"/><polygon fill="#008000" points="406.16,593.84,415.7745,591.7044,410.18,590.8669,411.0175,585.2724,406.16,593.84" style="stroke:#008000;stroke-width:1;"/><path d="M451.5,534 L451.5,559 L586.5,559 L586.5,544 L576.5,534 L451.5,534" fill="#FEFFDD" style="stroke:#181818;stroke-width:0.5;"/><path d="M576.5,534 L576.5,544 L586.5,544 L576.5,534" fill="#FEFFDD" style="stroke:#181818;stroke-width:0.5;"/><text fill="#000000" font-family="sans-serif" font-size="13" lengthAdjust="spacing" textLength="114.3276" x="457.5" y="551.0669">crearAsignatura()</text></g><!--link verAsignaturas to ASIGNATURAS_ABIERTO--><g class="link" data-entity-1="verAsignaturas" data-entity-2="ASIGNATURAS_ABIERTO" data-source-line="48" data-uid="lnk14" id="link_verAsignaturas_ASIGNATURAS_ABIERTO"><path d="M566.5,499.05 C586.76,517.43 599.5,529 599.5,529 C599.5,529 626.3383,562.6396 647.3583,588.9896" fill="none" id="verAsignaturas-to-ASIGNATURAS_ABIERTO" style="stroke:#008000;stroke-width:1;"/><polygon fill="#008000" points="651.1,593.68,648.6145,584.1499,647.982,589.7713,642.3606,589.1388,651.1,593.68" style="stroke:#008000;stroke-width:1;"/><path d="M631.5,534 L631.5,559 L785.5,559 L785.5,544 L775.5,534 L631.5,534" fill="#FEFFDD" style="stroke:#181818;stroke-width:0.5;"/><path d="M775.5,534 L775.5,544 L785.5,544 L775.5,534" fill="#FEFFDD" style="stroke:#181818;stroke-width:0.5;"/><text fill="#000000" font-family="sans-serif" font-size="13" lengthAdjust="spacing" textLength="133.5737" x="637.5" y="551.0669">eliminarAsignatura()</text></g><!--SRC=[fLFTIiCm5BxFKnpcZOhY2yYWufI2JbddbOXawN44yrEIL10HV1RllFOHV1EVnDDsF-rQ1zlIqgJXEr- -yvqJ_onDnXtNeAJ1y9eXP5Qz5Z-C-S03mWkwoCkfuI5tt0EzlURM_a4FtXW36bL4Znw2NLiV73UfhM7Rg0kfsgWITd_u0CVtUrE7Q1wE-vryK2AD9JvhYXoUoutJIV_S2ZG1JqycVV1MII43BtAXCvjgqAGL0Gss-7GULbVJgVi_COdq0JKlnMGEFIdZ120Z8CMMej-FJnXQFN5u1EBdEvLJIulSUGjSyFJdIqj1ErpbsbWFcWSdHQvuQlqHJ5qn4wSLibWjKofeRz5fIVhcZZXuAlDmbPerEE6Gryq3a-FBkW1KKalJY5c7Jijf1JklpJA9BjkthqjdaxGTML_12fzkhPZwV3E1kIdRHX6FpOIq1fkTpDuPI-9aFBYE7i_ZvFPc69zT3HfdDcymOokNl0wDalXo68tlHj5ZT1OFHkE8DPHMbLj6xn-mXP1TUCk6suKscV7UhEYTzUNcr6rFLnHRdIaaCoxH1ofBZVSF]--></g></svg>