<svg xmlns="http://www.w3.org/2000/svg" xmlns:xlink="http://www.w3.org/1999/xlink" contentStyleType="text/css" data-diagram-type="STATE" height="650px" preserveAspectRatio="none" style="width:698px;height:650px;background:#FFFFFF;" version="1.1" viewBox="0 0 698 650" width="698px" zoomAndPan="magnify"><defs/><g><path d="M19.5,7 L481.5,7 A12.5,12.5 0 0 1 494,19.5 L494,33.2969 L7,33.2969 L7,19.5 A12.5,12.5 0 0 1 19.5,7" fill="#F1F1F1"/><rect fill="none" height="492.2969" rx="12.5" ry="12.5" style="stroke:#181818;stroke-width:0.5;" width="487" x="7" y="7"/><line style="stroke:#181818;stroke-width:0.5;" x1="7" x2="494" y1="33.2969" y2="33.2969"/><text fill="#000000" font-family="sans-serif" font-size="14" lengthAdjust="spacing" textLength="99.5039" x="200.748" y="24.9951">verDocentes()</text><g id="verDocentes.MostrandoDocentes"><rect fill="#F1F1F1" height="50" rx="12.5" ry="12.5" style="stroke:#181818;stroke-width:0.5;" width="50" x="19" y="135.2969"/><line style="stroke:#181818;stroke-width:0.5;" x1="19" x2="69" y1="161.5938" y2="161.5938"/><text fill="#000000" font-family="sans-serif" font-size="14" lengthAdjust="spacing" textLength="4.4502" x="41.7749" y="153.292">&#160;</text></g><g id="verDocentes.FiltrandoDocentes"><rect fill="#F1F1F1" height="50" rx="12.5" ry="12.5" style="stroke:#181818;stroke-width:0.5;" width="50" x="19" y="346.2969"/><line style="stroke:#181818;stroke-width:0.5;" x1="19" x2="69" y1="372.5938" y2="372.5938"/><text fill="#000000" font-family="sans-serif" font-size="14" lengthAdjust="spacing" textLength="4.4502" x="41.7749" y="364.292">&#160;</text></g><ellipse cx="44" cy="54.2969" fill="#222222" rx="10" ry="10" style="stroke:#222222;stroke-width:1;"/><ellipse cx="44" cy="478.2969" fill="none" rx="11" ry="11" style="stroke:#222222;stroke-width:1;"/><ellipse cx="44" cy="478.2969" fill="#222222" rx="6" ry="6" style="stroke:#222222;stroke-width:1;"/><!--link *start*verDocentes to MostrandoDocentes--><g class="link" data-entity-1=".start.verDocentes" data-entity-2="MostrandoDocentes" data-source-line="8" data-uid="lnk3" id="link_.start.verDocentes_MostrandoDocentes"><path d="M44,64.5269 C44,80.2369 44,106.6569 44,129.1669" fill="none" id="*start*verDocentes-to-MostrandoDocentes" style="stroke:#008000;stroke-width:1;"/><polygon fill="#008000" points="44,135.1669,48,126.1669,44,130.1669,40,126.1669,44,135.1669" style="stroke:#008000;stroke-width:1;"/><path d="M49,87.2969 L49,112.2969 L409,112.2969 L409,97.2969 L399,87.2969 L49,87.2969" fill="#FEFFDD" style="stroke:#181818;stroke-width:0.5;"/><path d="M399,87.2969 L399,97.2969 L409,97.2969 L399,87.2969" fill="#FEFFDD" style="stroke:#181818;stroke-width:0.5;"/><text fill="#000000" font-family="sans-serif" font-size="13" font-weight="bold" lengthAdjust="spacing" textLength="200.5542" x="55" y="104.3638">Administrador institucional</text><text fill="#000000" font-family="sans-serif" font-size="13" lengthAdjust="spacing" textLength="134.5322" x="259.6865" y="104.3638">solicita ver docentes</text></g><!--link MostrandoDocentes to FiltrandoDocentes--><g class="link" data-entity-1="MostrandoDocentes" data-entity-2="FiltrandoDocentes" data-source-line="13" data-uid="lnk4" id="link_MostrandoDocentes_FiltrandoDocentes"><path d="M44,185.6769 C44,225.9569 44,299.8969 44,340.0669" fill="none" id="MostrandoDocentes-to-FiltrandoDocentes" style="stroke:#008000;stroke-width:1;"/><polygon fill="#008000" points="44,346.0669,48,337.0669,44,341.0669,40,337.0669,44,346.0669" style="stroke:#008000;stroke-width:1;"/><path d="M49,208.2969 L49,323.2969 L485,323.2969 L485,218.2969 L475,208.2969 L49,208.2969" fill="#FEFFDD" style="stroke:#181818;stroke-width:0.5;"/><path d="M475,208.2969 L475,218.2969 L485,218.2969 L475,208.2969" fill="#FEFFDD" style="stroke:#181818;stroke-width:0.5;"/><text fill="#000000" font-family="sans-serif" font-size="13" font-weight="bold" lengthAdjust="spacing" textLength="58.9063" x="55" y="225.3638">Sistema</text><text fill="#000000" font-family="sans-serif" font-size="13" lengthAdjust="spacing" textLength="172.834" x="118.0386" y="225.3638">presenta lista de docentes</text><text fill="#000000" font-family="sans-serif" font-size="13" lengthAdjust="spacing" textLength="411.6836" x="55" y="240.4966">&#8226;  Nombre, apellidos, DNI, nombre de usuario, email, password</text><text fill="#000000" font-family="sans-serif" font-size="13" lengthAdjust="spacing" textLength="4.1323" x="55" y="255.6294">&#160;</text><text fill="#000000" font-family="sans-serif" font-size="13" lengthAdjust="spacing" textLength="188.481" x="55" y="270.7622">&#8226; Permite solicitar filtrar lista</text><text fill="#000000" font-family="sans-serif" font-size="13" lengthAdjust="spacing" textLength="256.6104" x="55" y="285.895">&#8226; Permite solicitar crear docente nuevo</text><text fill="#000000" font-family="sans-serif" font-size="13" lengthAdjust="spacing" textLength="231.6006" x="55" y="301.0278">&#8226; Permite solicitar eliminar docente</text><text fill="#000000" font-family="sans-serif" font-size="13" lengthAdjust="spacing" textLength="216.8232" x="55" y="316.1606">&#8226; Permite solicitar editar docente</text></g><!--link FiltrandoDocentes to FiltrandoDocentes--><g class="link" data-entity-1="FiltrandoDocentes" data-entity-2="FiltrandoDocentes" data-source-line="24" data-uid="lnk5" id="link_FiltrandoDocentes_FiltrandoDocentes"><path d="M69.18,360.0869 C78.91,359.5969 87,363.3269 87,371.2969 C87,379.2669 84.9024,383.2987 75.1724,382.8087" fill="none" id="FiltrandoDocentes-to-FiltrandoDocentes" style="stroke:#008000;stroke-width:1;"/><polygon fill="#008000" points="69.18,382.5069,77.9674,386.9545,74.1737,382.7584,78.3698,378.9646,69.18,382.5069" style="stroke:#008000;stroke-width:1;"/><path d="M92,351.2969 L92,391.2969 L434,391.2969 L434,361.2969 L424,351.2969 L92,351.2969" fill="#FEFFDD" style="stroke:#181818;stroke-width:0.5;"/><path d="M424,351.2969 L424,361.2969 L434,361.2969 L424,351.2969" fill="#FEFFDD" style="stroke:#181818;stroke-width:0.5;"/><text fill="#000000" font-family="sans-serif" font-size="13" font-weight="bold" lengthAdjust="spacing" textLength="200.5542" x="98" y="368.3638">Administrador institucional</text><text fill="#000000" font-family="sans-serif" font-size="13" lengthAdjust="spacing" textLength="116.6509" x="302.6865" y="368.3638">solicita filtrar lista</text><text fill="#000000" font-family="sans-serif" font-size="13" font-weight="bold" lengthAdjust="spacing" textLength="58.9063" x="98" y="383.4966">Sistema</text><text fill="#000000" font-family="sans-serif" font-size="13" lengthAdjust="spacing" textLength="139.4199" x="161.0386" y="383.4966">presenta lista filtrada</text></g><!--link FiltrandoDocentes to *end*verDocentes--><g class="link" data-entity-1="FiltrandoDocentes" data-entity-2=".end.verDocentes" data-source-line="30" data-uid="lnk7" id="link_FiltrandoDocentes_.end.verDocentes"><path d="M44,396.3869 C44,418.7869 44,445.0669 44,461.2469" fill="none" id="FiltrandoDocentes-to-*end*verDocentes" style="stroke:#008000;stroke-width:1;"/><polygon fill="#008000" points="44,467.2469,48,458.2469,44,462.2469,40,458.2469,44,467.2469" style="stroke:#008000;stroke-width:1;"/><path d="M49,419.2969 L49,444.2969 L453,444.2969 L453,429.2969 L443,419.2969 L49,419.2969" fill="#FEFFDD" style="stroke:#181818;stroke-width:0.5;"/><path d="M443,419.2969 L443,429.2969 L453,429.2969 L443,419.2969" fill="#FEFFDD" style="stroke:#181818;stroke-width:0.5;"/><text fill="#000000" font-family="sans-serif" font-size="13" font-weight="bold" lengthAdjust="spacing" textLength="200.5542" x="55" y="436.3638">Administrador institucional</text><text fill="#000000" font-family="sans-serif" font-size="13" lengthAdjust="spacing" textLength="179.2769" x="259.6865" y="436.3638">solicita una de las opciones</text></g><g id="SISTEMA_DISPONIBLE"><rect fill="#F1F1F1" height="50" rx="12.5" ry="12.5" style="stroke:#181818;stroke-width:0.5;" width="172.0654" x="18.5" y="594"/><line style="stroke:#181818;stroke-width:0.5;" x1="18.5" x2="190.5654" y1="620.2969" y2="620.2969"/><text fill="#000000" font-family="sans-serif" font-size="14" lengthAdjust="spacing" textLength="152.0654" x="28.5" y="611.9951">SISTEMA_DISPONIBLE</text></g><g id="DOCENTE_ABIERTO"><rect fill="#F1F1F1" height="50" rx="12.5" ry="12.5" style="stroke:#181818;stroke-width:0.5;" width="156.7461" x="244" y="594"/><line style="stroke:#181818;stroke-width:0.5;" x1="244" x2="400.7461" y1="620.2969" y2="620.2969"/><text fill="#000000" font-family="sans-serif" font-size="14" lengthAdjust="spacing" textLength="136.7461" x="254" y="611.9951">DOCENTE_ABIERTO</text></g><g id="DOCENTES_ABIERTO"><rect fill="#F1F1F1" height="50" rx="12.5" ry="12.5" style="stroke:#181818;stroke-width:0.5;" width="165.6328" x="509.5" y="594"/><line style="stroke:#181818;stroke-width:0.5;" x1="509.5" x2="675.1328" y1="620.2969" y2="620.2969"/><text fill="#000000" font-family="sans-serif" font-size="14" lengthAdjust="spacing" textLength="145.6328" x="519.5" y="611.9951">DOCENTES_ABIERTO</text></g><!--link SISTEMA_DISPONIBLE to verDocentes--><g class="link" data-entity-1="SISTEMA_DISPONIBLE" data-entity-2="verDocentes" data-source-line="36" data-uid="lnk9" id="link_SISTEMA_DISPONIBLE_verDocentes"><path d="M134.03,593.84 C151.6,579.47 170.5,564 170.5,564 C170.5,564 175.9613,542.8498 185.7713,504.8198" fill="none" id="SISTEMA_DISPONIBLE-to-verDocentes" style="stroke:#008000;stroke-width:1;"/><polygon fill="#008000" points="187.27,499.01,181.1488,506.7256,186.0211,503.8515,188.8952,508.7238,187.27,499.01" style="stroke:#008000;stroke-width:1;"/></g><!--link verDocentes to SISTEMA_DISPONIBLE--><g class="link" data-entity-1="verDocentes" data-entity-2="SISTEMA_DISPONIBLE" data-source-line="53" data-uid="lnk15" id="link_verDocentes_SISTEMA_DISPONIBLE"><path d="M33.08,499.05 C16.76,517.43 6.5,529 6.5,529 C6.5,529 6.5,564 6.5,564 C6.5,564 29.3144,576.5753 55.4044,590.9453" fill="none" id="verDocentes-to-SISTEMA_DISPONIBLE" style="stroke:#008000;stroke-width:1;"/><polygon fill="#008000" points="60.66,593.84,54.7065,585.9943,56.2804,591.4278,50.8469,593.0017,60.66,593.84" style="stroke:#008000;stroke-width:1;"/><path d="M11.5,534 L11.5,559 L157.5,559 L157.5,544 L147.5,534 L11.5,534" fill="#FEFFDD" style="stroke:#181818;stroke-width:0.5;"/><path d="M147.5,534 L147.5,544 L157.5,544 L147.5,534" fill="#FEFFDD" style="stroke:#181818;stroke-width:0.5;"/><text fill="#000000" font-family="sans-serif" font-size="13" lengthAdjust="spacing" textLength="125.9248" x="17.5" y="551.0669">completarGestion()</text></g><!--link verDocentes to DOCENTE_ABIERTO--><g class="link" data-entity-1="verDocentes" data-entity-2="DOCENTE_ABIERTO" data-source-line="38" data-uid="lnk11" id="link_verDocentes_DOCENTE_ABIERTO"><path d="M247.83,499.05 C247.63,517.43 247.5,529 247.5,529 C247.5,529 247.5,564 247.5,564 C247.5,564 264.1098,575.9655 284.0798,590.3355" fill="none" id="verDocentes-to-DOCENTE_ABIERTO" style="stroke:#008000;stroke-width:1;"/><polygon fill="#008000" points="288.95,593.84,283.9811,585.3365,284.8915,590.9196,279.3084,591.8301,288.95,593.84" style="stroke:#008000;stroke-width:1;"/><path d="M252.5,534 L252.5,559 L375.5,559 L375.5,544 L365.5,534 L252.5,534" fill="#FEFFDD" style="stroke:#181818;stroke-width:0.5;"/><path d="M365.5,534 L365.5,544 L375.5,544 L365.5,534" fill="#FEFFDD" style="stroke:#181818;stroke-width:0.5;"/><text fill="#000000" font-family="sans-serif" font-size="13" lengthAdjust="spacing" textLength="102.8574" x="258.5" y="551.0669">editarDocente()</text></g><!--link verDocentes to DOCENTE_ABIERTO--><g class="link" data-entity-1="verDocentes" data-entity-2="DOCENTE_ABIERTO" data-source-line="43" data-uid="lnk12" id="link_verDocentes_DOCENTE_ABIERTO"><path d="M369.9,499.05 C378.86,517.43 384.5,529 384.5,529 C384.5,529 384.5,564 384.5,564 C384.5,564 371.2646,575.5295 354.7646,589.8995" fill="none" id="verDocentes-to-DOCENTE_ABIERTO-1" style="stroke:#008000;stroke-width:1;"/><polygon fill="#008000" points="350.24,593.84,359.654,590.9456,354.0105,590.5562,354.3999,584.9128,350.24,593.84" style="stroke:#008000;stroke-width:1;"/><path d="M389.5,534 L389.5,559 L508.5,559 L508.5,544 L498.5,534 L389.5,534" fill="#FEFFDD" style="stroke:#181818;stroke-width:0.5;"/><path d="M498.5,534 L498.5,544 L508.5,544 L498.5,534" fill="#FEFFDD" style="stroke:#181818;stroke-width:0.5;"/><text fill="#000000" font-family="sans-serif" font-size="13" lengthAdjust="spacing" textLength="98.3887" x="395.5" y="551.0669">crearDocente()</text></g><!--link verDocentes to DOCENTES_ABIERTO--><g class="link" data-entity-1="verDocentes" data-entity-2="DOCENTES_ABIERTO" data-source-line="48" data-uid="lnk14" id="link_verDocentes_DOCENTES_ABIERTO"><path d="M491.98,499.05 C510.1,517.43 521.5,529 521.5,529 C521.5,529 548.3383,562.6396 569.3583,588.9896" fill="none" id="verDocentes-to-DOCENTES_ABIERTO" style="stroke:#008000;stroke-width:1;"/><polygon fill="#008000" points="573.1,593.68,570.6145,584.1499,569.982,589.7713,564.3606,589.1388,573.1,593.68" style="stroke:#008000;stroke-width:1;"/><path d="M553.5,534 L553.5,559 L691.5,559 L691.5,544 L681.5,534 L553.5,534" fill="#FEFFDD" style="stroke:#181818;stroke-width:0.5;"/><path d="M681.5,534 L681.5,544 L691.5,544 L681.5,534" fill="#FEFFDD" style="stroke:#181818;stroke-width:0.5;"/><text fill="#000000" font-family="sans-serif" font-size="13" lengthAdjust="spacing" textLength="117.6348" x="559.5" y="551.0669">eliminarDocente()</text></g><!--SRC=[fPFHIiCm58RlynI7UQFIuGkCmNHL2cuJkxiX8rkE4anpIj8g8eBFugFv99wssynM73fRQ6dvykVBoOb_r3QNJcPWjCNY9KV8oRnK7qBuGXO8J-Y6j4HRe0VfeHDy7vzqu5K8uAjXEtmpCo9VE6aLhS4sSgdD3b8pizCxwCwE7XoYlUlssqbGOvOuYMmb_LZ_w2tw0vLfgojSaGDjVQ6BSgd9IjCxM_J1az5BNSXgGQ12CRIgIUHBR1xjgKEnjlzFNYaxOIPhXzoXPreomDK0XTiYd-yV06FA5WuZa3aQenNv28RZ9EBiwdyrflIbT9eYu5Xj8iYbzy_aL21V9TsWopJxh1VkuBwMTitiUxYbGxcf4TWIdsWFZKPpvRy7x4DL_Gh1TV6_tLkbFR3mlsw8TbdsRrl3AtcGFtVu_urBMpUFuOD4UGNiTB9u4o9Dqcay6io7INep6IVdr_6MHt2CXGZFU0WD9nVnU1hF1-T9V3kTY2tfPZDNuuvFn6Rom-BgfZiWBVt1RjMLVqbibsn7aRBS82_w2dbho0QXNm00]--></g></svg>