<svg xmlns="http://www.w3.org/2000/svg" xmlns:xlink="http://www.w3.org/1999/xlink" contentStyleType="text/css" data-diagram-type="STATE" height="587px" preserveAspectRatio="none" style="width:337px;height:587px;background:#FFFFFF;" version="1.1" viewBox="0 0 337 587" width="337px" zoomAndPan="magnify"><defs/><g><path d="M19.5,117 L311.5,117 A12.5,12.5 0 0 1 324,129.5 L324,143.2969 L7,143.2969 L7,129.5 A12.5,12.5 0 0 1 19.5,117" fill="#F1F1F1"/><rect fill="none" height="354.2969" rx="12.5" ry="12.5" style="stroke:#181818;stroke-width:0.5;" width="317" x="7" y="117"/><line style="stroke:#181818;stroke-width:0.5;" x1="7" x2="324" y1="143.2969" y2="143.2969"/><text fill="#000000" font-family="sans-serif" font-size="14" lengthAdjust="spacing" textLength="94.2881" x="118.356" y="134.9951">verAlumnos()</text><g id="verAlumnos.MostrandoAlumnos"><rect fill="#F1F1F1" height="50" rx="12.5" ry="12.5" style="stroke:#181818;stroke-width:0.5;" width="50" x="19" y="245.2969"/><line style="stroke:#181818;stroke-width:0.5;" x1="19" x2="69" y1="271.5938" y2="271.5938"/><text fill="#000000" font-family="sans-serif" font-size="14" lengthAdjust="spacing" textLength="4.4502" x="41.7749" y="263.292">&#160;</text></g><g id="verAlumnos.FiltrandoAlumnos"><rect fill="#F1F1F1" height="50" rx="12.5" ry="12.5" style="stroke:#181818;stroke-width:0.5;" width="50" x="19" y="411.2969"/><line style="stroke:#181818;stroke-width:0.5;" x1="19" x2="69" y1="437.5938" y2="437.5938"/><text fill="#000000" font-family="sans-serif" font-size="14" lengthAdjust="spacing" textLength="4.4502" x="41.7749" y="429.292">&#160;</text></g><ellipse cx="44" cy="164.2969" fill="#222222" rx="10" ry="10" style="stroke:#222222;stroke-width:1;"/><!--link *start*verAlumnos to MostrandoAlumnos--><g class="link" data-entity-1=".start.verAlumnos" data-entity-2="MostrandoAlumnos" data-source-line="8" data-uid="lnk3" id="link_.start.verAlumnos_MostrandoAlumnos"><path d="M44,174.5269 C44,190.2369 44,216.6569 44,239.1669" fill="none" id="*start*verAlumnos-to-MostrandoAlumnos" style="stroke:#008000;stroke-width:1;"/><polygon fill="#008000" points="44,245.1669,48,236.1669,44,240.1669,40,236.1669,44,245.1669" style="stroke:#008000;stroke-width:1;"/><path d="M49,197.2969 L49,222.2969 L265,222.2969 L265,207.2969 L255,197.2969 L49,197.2969" fill="#FEFFDD" style="stroke:#181818;stroke-width:0.5;"/><path d="M255,197.2969 L255,207.2969 L265,207.2969 L255,197.2969" fill="#FEFFDD" style="stroke:#181818;stroke-width:0.5;"/><text fill="#000000" font-family="sans-serif" font-size="13" font-weight="bold" lengthAdjust="spacing" textLength="60.5313" x="55" y="214.3638">Docente</text><text fill="#000000" font-family="sans-serif" font-size="13" lengthAdjust="spacing" textLength="130.5205" x="119.6636" y="214.3638">solicita ver alumnos</text></g><!--link MostrandoAlumnos to FiltrandoAlumnos--><g class="link" data-entity-1="MostrandoAlumnos" data-entity-2="FiltrandoAlumnos" data-source-line="13" data-uid="lnk4" id="link_MostrandoAlumnos_FiltrandoAlumnos"><path d="M44,295.4969 C44,326.5869 44,374.2469 44,405.2669" fill="none" id="MostrandoAlumnos-to-FiltrandoAlumnos" style="stroke:#008000;stroke-width:1;"/><polygon fill="#008000" points="44,411.2669,48,402.2669,44,406.2669,40,402.2669,44,411.2669" style="stroke:#008000;stroke-width:1;"/><path d="M49,318.2969 L49,388.2969 L301,388.2969 L301,328.2969 L291,318.2969 L49,318.2969" fill="#FEFFDD" style="stroke:#181818;stroke-width:0.5;"/><path d="M291,318.2969 L291,328.2969 L301,328.2969 L291,318.2969" fill="#FEFFDD" style="stroke:#181818;stroke-width:0.5;"/><text fill="#000000" font-family="sans-serif" font-size="13" font-weight="bold" lengthAdjust="spacing" textLength="58.9063" x="55" y="335.3638">Sistema</text><text fill="#000000" font-family="sans-serif" font-size="13" lengthAdjust="spacing" textLength="168.8223" x="118.0386" y="335.3638">presenta lista de alumnos</text><text fill="#000000" font-family="sans-serif" font-size="13" lengthAdjust="spacing" textLength="160.3799" x="55" y="350.4966">&#8226; DNI, nombre, apellidos</text><text fill="#000000" font-family="sans-serif" font-size="13" lengthAdjust="spacing" textLength="4.1323" x="55" y="365.6294">&#160;</text><text fill="#000000" font-family="sans-serif" font-size="13" lengthAdjust="spacing" textLength="188.481" x="55" y="380.7622">&#8226; Permite solicitar filtrar lista</text></g><!--link FiltrandoAlumnos to FiltrandoAlumnos--><g class="link" data-entity-1="FiltrandoAlumnos" data-entity-2="FiltrandoAlumnos" data-source-line="21" data-uid="lnk5" id="link_FiltrandoAlumnos_FiltrandoAlumnos"><path d="M69.18,420.9869 C78.91,420.2969 87,425.4069 87,436.2969 C87,447.1869 84.895,452.7213 75.165,452.0313" fill="none" id="FiltrandoAlumnos-to-FiltrandoAlumnos" style="stroke:#008000;stroke-width:1;"/><polygon fill="#008000" points="69.18,451.6069,77.8745,456.2335,74.1675,451.9606,78.4404,448.2535,69.18,451.6069" style="stroke:#008000;stroke-width:1;"/><path d="M92,416.2969 L92,456.2969 L315,456.2969 L315,426.2969 L305,416.2969 L92,416.2969" fill="#FEFFDD" style="stroke:#181818;stroke-width:0.5;"/><path d="M305,416.2969 L305,426.2969 L315,426.2969 L305,416.2969" fill="#FEFFDD" style="stroke:#181818;stroke-width:0.5;"/><text fill="#000000" font-family="sans-serif" font-size="13" font-weight="bold" lengthAdjust="spacing" textLength="60.5313" x="98" y="433.3638">Docente</text><text fill="#000000" font-family="sans-serif" font-size="13" lengthAdjust="spacing" textLength="116.6509" x="162.6636" y="433.3638">solicita filtrar lista</text><text fill="#000000" font-family="sans-serif" font-size="13" font-weight="bold" lengthAdjust="spacing" textLength="58.9063" x="98" y="448.4966">Sistema</text><text fill="#000000" font-family="sans-serif" font-size="13" lengthAdjust="spacing" textLength="139.4199" x="161.0386" y="448.4966">presenta lista filtrada</text></g><g id="SISTEMA_DISPONIBLE"><rect fill="#F1F1F1" height="50" rx="12.5" ry="12.5" style="stroke:#181818;stroke-width:0.5;" width="172.0654" x="79.5" y="7"/><line style="stroke:#181818;stroke-width:0.5;" x1="79.5" x2="251.5654" y1="33.2969" y2="33.2969"/><text fill="#000000" font-family="sans-serif" font-size="14" lengthAdjust="spacing" textLength="152.0654" x="89.5" y="24.9951">SISTEMA_DISPONIBLE</text></g><g id="ALUMNOS_ABIERTO"><rect fill="#F1F1F1" height="50" rx="12.5" ry="12.5" style="stroke:#181818;stroke-width:0.5;" width="158.5371" x="86" y="531"/><line style="stroke:#181818;stroke-width:0.5;" x1="86" x2="244.5371" y1="557.2969" y2="557.2969"/><text fill="#000000" font-family="sans-serif" font-size="14" lengthAdjust="spacing" textLength="138.5371" x="96" y="548.9951">ALUMNOS_ABIERTO</text></g><!--link SISTEMA_DISPONIBLE to verAlumnos--><g class="link" data-entity-1="SISTEMA_DISPONIBLE" data-entity-2="verAlumnos" data-source-line="29" data-uid="lnk7" id="link_SISTEMA_DISPONIBLE_verAlumnos"><path d="M165.5,57.46 C165.5,72.63 165.5,87.63 165.5,110.89" fill="none" id="SISTEMA_DISPONIBLE-to-verAlumnos" style="stroke:#008000;stroke-width:1;"/><polygon fill="#008000" points="165.5,116.89,169.5,107.89,165.5,111.89,161.5,107.89,165.5,116.89" style="stroke:#008000;stroke-width:1;"/></g><!--link verAlumnos to ALUMNOS_ABIERTO--><g class="link" data-entity-1="verAlumnos" data-entity-2="ALUMNOS_ABIERTO" data-source-line="31" data-uid="lnk9" id="link_verAlumnos_ALUMNOS_ABIERTO"><path d="M165.5,471.3 C165.5,494.67 165.5,509.74 165.5,524.89" fill="none" id="verAlumnos-to-ALUMNOS_ABIERTO" style="stroke:#008000;stroke-width:1;"/><polygon fill="#008000" points="165.5,530.89,169.5,521.89,165.5,525.89,161.5,521.89,165.5,530.89" style="stroke:#008000;stroke-width:1;"/></g><!--SRC=[dPBHIiCm58QlpLCSwetAXYym2Xsj45ZROUVL62DTZnAM9YM9mX31P_7HV1BJLjTsdLwOG27fbtE-FyJikQoOPYK8Bj4UAeHAYKEz8CHOPX5UK0VYkPJA03FWTSkhQmzU2G4tMj9pqo6nCbOpMQXlRapSSJ4a6cHziu7f-l998yhDr1_LWOQIojLHilRTDnkpt0_L3gN5sMtkWr62xxXbjJUmdW7AeZti1Zb-Hatw1YFFtmGoRYoMh16eD1fdmnpWGaE10ulFzmy84pfnPSfSumHOXKBmmls-E09Br2LtNNwoQ7XiJ7HRSn2dYt9g-xyeP-zotFxlq2rVd3Dz8oIZsIgAWsr8isMQqFaY6gXsBuoGtkFh8y7Y8KxIR1lCQNI_Ihy0]--></g></svg>