<svg xmlns="http://www.w3.org/2000/svg" xmlns:xlink="http://www.w3.org/1999/xlink" contentStyleType="text/css" data-diagram-type="STATE" height="650px" preserveAspectRatio="none" style="width:744px;height:650px;background:#FFFFFF;" version="1.1" viewBox="0 0 744 650" width="744px" zoomAndPan="magnify"><defs/><g><path d="M160.5,7 L459.5,7 A12.5,12.5 0 0 1 472,19.5 L472,33.2969 L148,33.2969 L148,19.5 A12.5,12.5 0 0 1 160.5,7" fill="#F1F1F1"/><rect fill="none" height="492.2969" rx="12.5" ry="12.5" style="stroke:#181818;stroke-width:0.5;" width="324" x="148" y="7"/><line style="stroke:#181818;stroke-width:0.5;" x1="148" x2="472" y1="33.2969" y2="33.2969"/><text fill="#000000" font-family="sans-serif" font-size="14" lengthAdjust="spacing" textLength="94.2881" x="262.856" y="24.9951">verAlumnos()</text><g id="verAlumnos.MostrandoAlumnos"><rect fill="#F1F1F1" height="50" rx="12.5" ry="12.5" style="stroke:#181818;stroke-width:0.5;" width="50" x="160" y="135.2969"/><line style="stroke:#181818;stroke-width:0.5;" x1="160" x2="210" y1="161.5938" y2="161.5938"/><text fill="#000000" font-family="sans-serif" font-size="14" lengthAdjust="spacing" textLength="4.4502" x="182.7749" y="153.292">&#160;</text></g><g id="verAlumnos.FiltrandoAlumnos"><rect fill="#F1F1F1" height="50" rx="12.5" ry="12.5" style="stroke:#181818;stroke-width:0.5;" width="50" x="160" y="346.2969"/><line style="stroke:#181818;stroke-width:0.5;" x1="160" x2="210" y1="372.5938" y2="372.5938"/><text fill="#000000" font-family="sans-serif" font-size="14" lengthAdjust="spacing" textLength="4.4502" x="182.7749" y="364.292">&#160;</text></g><ellipse cx="185" cy="54.2969" fill="#222222" rx="10" ry="10" style="stroke:#222222;stroke-width:1;"/><ellipse cx="185" cy="478.2969" fill="none" rx="11" ry="11" style="stroke:#222222;stroke-width:1;"/><ellipse cx="185" cy="478.2969" fill="#222222" rx="6" ry="6" style="stroke:#222222;stroke-width:1;"/><!--link *start*verAlumnos to MostrandoAlumnos--><g class="link" data-entity-1=".start.verAlumnos" data-entity-2="MostrandoAlumnos" data-source-line="8" data-uid="lnk3" id="link_.start.verAlumnos_MostrandoAlumnos"><path d="M185,64.5269 C185,80.2369 185,106.6569 185,129.1669" fill="none" id="*start*verAlumnos-to-MostrandoAlumnos" style="stroke:#008000;stroke-width:1;"/><polygon fill="#008000" points="185,135.1669,189,126.1669,185,130.1669,181,126.1669,185,135.1669" style="stroke:#008000;stroke-width:1;"/><path d="M190,87.2969 L190,112.2969 L406,112.2969 L406,97.2969 L396,87.2969 L190,87.2969" fill="#FEFFDD" style="stroke:#181818;stroke-width:0.5;"/><path d="M396,87.2969 L396,97.2969 L406,97.2969 L396,87.2969" fill="#FEFFDD" style="stroke:#181818;stroke-width:0.5;"/><text fill="#000000" font-family="sans-serif" font-size="13" font-weight="bold" lengthAdjust="spacing" textLength="60.5313" x="196" y="104.3638">Docente</text><text fill="#000000" font-family="sans-serif" font-size="13" lengthAdjust="spacing" textLength="130.5205" x="260.6636" y="104.3638">solicita ver alumnos</text></g><!--link MostrandoAlumnos to FiltrandoAlumnos--><g class="link" data-entity-1="MostrandoAlumnos" data-entity-2="FiltrandoAlumnos" data-source-line="13" data-uid="lnk4" id="link_MostrandoAlumnos_FiltrandoAlumnos"><path d="M185,185.6769 C185,225.9569 185,299.8969 185,340.0669" fill="none" id="MostrandoAlumnos-to-FiltrandoAlumnos" style="stroke:#008000;stroke-width:1;"/><polygon fill="#008000" points="185,346.0669,189,337.0669,185,341.0669,181,337.0669,185,346.0669" style="stroke:#008000;stroke-width:1;"/><path d="M190,208.2969 L190,323.2969 L463,323.2969 L463,218.2969 L453,208.2969 L190,208.2969" fill="#FEFFDD" style="stroke:#181818;stroke-width:0.5;"/><path d="M453,208.2969 L453,218.2969 L463,218.2969 L453,208.2969" fill="#FEFFDD" style="stroke:#181818;stroke-width:0.5;"/><text fill="#000000" font-family="sans-serif" font-size="13" font-weight="bold" lengthAdjust="spacing" textLength="58.9063" x="196" y="225.3638">Sistema</text><text fill="#000000" font-family="sans-serif" font-size="13" lengthAdjust="spacing" textLength="168.8223" x="259.0386" y="225.3638">presenta lista de alumnos</text><text fill="#000000" font-family="sans-serif" font-size="13" lengthAdjust="spacing" textLength="160.3799" x="196" y="240.4966">&#8226; DNI, nombre, apellidos</text><text fill="#000000" font-family="sans-serif" font-size="13" lengthAdjust="spacing" textLength="4.1323" x="196" y="255.6294">&#160;</text><text fill="#000000" font-family="sans-serif" font-size="13" lengthAdjust="spacing" textLength="188.481" x="196" y="270.7622">&#8226; Permite solicitar filtrar lista</text><text fill="#000000" font-family="sans-serif" font-size="13" lengthAdjust="spacing" textLength="252.5986" x="196" y="285.895">&#8226; Permite solicitar crear alumno nuevo</text><text fill="#000000" font-family="sans-serif" font-size="13" lengthAdjust="spacing" textLength="227.5889" x="196" y="301.0278">&#8226; Permite solicitar eliminar alumno</text><text fill="#000000" font-family="sans-serif" font-size="13" lengthAdjust="spacing" textLength="212.8115" x="196" y="316.1606">&#8226; Permite solicitar editar alumno</text></g><!--link FiltrandoAlumnos to FiltrandoAlumnos--><g class="link" data-entity-1="FiltrandoAlumnos" data-entity-2="FiltrandoAlumnos" data-source-line="24" data-uid="lnk5" id="link_FiltrandoAlumnos_FiltrandoAlumnos"><path d="M210.18,360.0869 C219.91,359.5969 228,363.3269 228,371.2969 C228,379.2669 225.9024,383.2987 216.1724,382.8087" fill="none" id="FiltrandoAlumnos-to-FiltrandoAlumnos" style="stroke:#008000;stroke-width:1;"/><polygon fill="#008000" points="210.18,382.5069,218.9674,386.9545,215.1737,382.7584,219.3698,378.9646,210.18,382.5069" style="stroke:#008000;stroke-width:1;"/><path d="M233,351.2969 L233,391.2969 L456,391.2969 L456,361.2969 L446,351.2969 L233,351.2969" fill="#FEFFDD" style="stroke:#181818;stroke-width:0.5;"/><path d="M446,351.2969 L446,361.2969 L456,361.2969 L446,351.2969" fill="#FEFFDD" style="stroke:#181818;stroke-width:0.5;"/><text fill="#000000" font-family="sans-serif" font-size="13" font-weight="bold" lengthAdjust="spacing" textLength="60.5313" x="239" y="368.3638">Docente</text><text fill="#000000" font-family="sans-serif" font-size="13" lengthAdjust="spacing" textLength="116.6509" x="303.6636" y="368.3638">solicita filtrar lista</text><text fill="#000000" font-family="sans-serif" font-size="13" font-weight="bold" lengthAdjust="spacing" textLength="58.9063" x="239" y="383.4966">Sistema</text><text fill="#000000" font-family="sans-serif" font-size="13" lengthAdjust="spacing" textLength="139.4199" x="302.0386" y="383.4966">presenta lista filtrada</text></g><!--link FiltrandoAlumnos to *end*verAlumnos--><g class="link" data-entity-1="FiltrandoAlumnos" data-entity-2=".end.verAlumnos" data-source-line="30" data-uid="lnk7" id="link_FiltrandoAlumnos_.end.verAlumnos"><path d="M185,396.3869 C185,418.7869 185,445.0669 185,461.2469" fill="none" id="FiltrandoAlumnos-to-*end*verAlumnos" style="stroke:#008000;stroke-width:1;"/><polygon fill="#008000" points="185,467.2469,189,458.2469,185,462.2469,181,458.2469,185,467.2469" style="stroke:#008000;stroke-width:1;"/><path d="M190,419.2969 L190,444.2969 L454,444.2969 L454,429.2969 L444,419.2969 L190,419.2969" fill="#FEFFDD" style="stroke:#181818;stroke-width:0.5;"/><path d="M444,419.2969 L444,429.2969 L454,429.2969 L444,419.2969" fill="#FEFFDD" style="stroke:#181818;stroke-width:0.5;"/><text fill="#000000" font-family="sans-serif" font-size="13" font-weight="bold" lengthAdjust="spacing" textLength="60.5313" x="196" y="436.3638">Docente</text><text fill="#000000" font-family="sans-serif" font-size="13" lengthAdjust="spacing" textLength="179.2769" x="260.6636" y="436.3638">solicita una de las opciones</text></g><g id="SISTEMA_DISPONIBLE"><rect fill="#F1F1F1" height="50" rx="12.5" ry="12.5" style="stroke:#181818;stroke-width:0.5;" width="172.0654" x="7" y="594"/><line style="stroke:#181818;stroke-width:0.5;" x1="7" x2="179.0654" y1="620.2969" y2="620.2969"/><text fill="#000000" font-family="sans-serif" font-size="14" lengthAdjust="spacing" textLength="152.0654" x="17" y="611.9951">SISTEMA_DISPONIBLE</text></g><g id="ALUMNO_ABIERTO"><rect fill="#F1F1F1" height="50" rx="12.5" ry="12.5" style="stroke:#181818;stroke-width:0.5;" width="149.6504" x="307" y="594"/><line style="stroke:#181818;stroke-width:0.5;" x1="307" x2="456.6504" y1="620.2969" y2="620.2969"/><text fill="#000000" font-family="sans-serif" font-size="14" lengthAdjust="spacing" textLength="129.6504" x="317" y="611.9951">ALUMNO_ABIERTO</text></g><g id="ALUMNOS_ABIERTO"><rect fill="#F1F1F1" height="50" rx="12.5" ry="12.5" style="stroke:#181818;stroke-width:0.5;" width="158.5371" x="563.5" y="594"/><line style="stroke:#181818;stroke-width:0.5;" x1="563.5" x2="722.0371" y1="620.2969" y2="620.2969"/><text fill="#000000" font-family="sans-serif" font-size="14" lengthAdjust="spacing" textLength="138.5371" x="573.5" y="611.9951">ALUMNOS_ABIERTO</text></g><!--link SISTEMA_DISPONIBLE to verAlumnos--><g class="link" data-entity-1="SISTEMA_DISPONIBLE" data-entity-2="verAlumnos" data-source-line="36" data-uid="lnk9" id="link_SISTEMA_DISPONIBLE_verAlumnos"><path d="M154.29,593.84 C190.76,579.47 230,564 230,564 C230,564 235.4613,542.8498 245.2713,504.8198" fill="none" id="SISTEMA_DISPONIBLE-to-verAlumnos" style="stroke:#008000;stroke-width:1;"/><polygon fill="#008000" points="246.77,499.01,240.6488,506.7256,245.5211,503.8515,248.3952,508.7238,246.77,499.01" style="stroke:#008000;stroke-width:1;"/></g><!--link verAlumnos to SISTEMA_DISPONIBLE--><g class="link" data-entity-1="verAlumnos" data-entity-2="SISTEMA_DISPONIBLE" data-source-line="53" data-uid="lnk15" id="link_verAlumnos_SISTEMA_DISPONIBLE"><path d="M147.93,436.66 C102.86,487.46 66,529 66,529 C66,529 66,564 66,564 C66,564 71.0452,574.1042 78.2352,588.4742" fill="none" id="verAlumnos-to-SISTEMA_DISPONIBLE" style="stroke:#008000;stroke-width:1;"/><polygon fill="#008000" points="80.92,593.84,80.47,584.0014,78.6827,589.3685,73.3156,587.5811,80.92,593.84" style="stroke:#008000;stroke-width:1;"/><path d="M71,534 L71,559 L217,559 L217,544 L207,534 L71,534" fill="#FEFFDD" style="stroke:#181818;stroke-width:0.5;"/><path d="M207,534 L207,544 L217,544 L207,534" fill="#FEFFDD" style="stroke:#181818;stroke-width:0.5;"/><text fill="#000000" font-family="sans-serif" font-size="13" lengthAdjust="spacing" textLength="125.9248" x="77" y="551.0669">completarGestion()</text></g><!--link verAlumnos to ALUMNO_ABIERTO--><g class="link" data-entity-1="verAlumnos" data-entity-2="ALUMNO_ABIERTO" data-source-line="38" data-uid="lnk11" id="link_verAlumnos_ALUMNO_ABIERTO"><path d="M307.33,499.05 C307.13,517.43 307,529 307,529 C307,529 307,564 307,564 C307,564 323.6098,575.9655 343.5798,590.3355" fill="none" id="verAlumnos-to-ALUMNO_ABIERTO" style="stroke:#008000;stroke-width:1;"/><polygon fill="#008000" points="348.45,593.84,343.4811,585.3365,344.3915,590.9196,338.8084,591.8301,348.45,593.84" style="stroke:#008000;stroke-width:1;"/><path d="M312,534 L312,559 L431,559 L431,544 L421,534 L312,534" fill="#FEFFDD" style="stroke:#181818;stroke-width:0.5;"/><path d="M421,534 L421,544 L431,544 L421,534" fill="#FEFFDD" style="stroke:#181818;stroke-width:0.5;"/><text fill="#000000" font-family="sans-serif" font-size="13" lengthAdjust="spacing" textLength="98.0142" x="318" y="551.0669">editarAlumno()</text></g><!--link verAlumnos to ALUMNO_ABIERTO--><g class="link" data-entity-1="verAlumnos" data-entity-2="ALUMNO_ABIERTO" data-source-line="43" data-uid="lnk12" id="link_verAlumnos_ALUMNO_ABIERTO"><path d="M425.84,499.05 C434.53,517.43 440,529 440,529 C440,529 440,564 440,564 C440,564 427.7821,575.3823 412.3421,589.7523" fill="none" id="verAlumnos-to-ALUMNO_ABIERTO-1" style="stroke:#008000;stroke-width:1;"/><polygon fill="#008000" points="407.95,593.84,417.2633,590.6365,411.6101,590.4336,411.813,584.7804,407.95,593.84" style="stroke:#008000;stroke-width:1;"/><path d="M445,534 L445,559 L559,559 L559,544 L549,534 L445,534" fill="#FEFFDD" style="stroke:#181818;stroke-width:0.5;"/><path d="M549,534 L549,544 L559,544 L549,534" fill="#FEFFDD" style="stroke:#181818;stroke-width:0.5;"/><text fill="#000000" font-family="sans-serif" font-size="13" lengthAdjust="spacing" textLength="93.5454" x="451" y="551.0669">crearAlumno()</text></g><!--link verAlumnos to ALUMNOS_ABIERTO--><g class="link" data-entity-1="verAlumnos" data-entity-2="ALUMNOS_ABIERTO" data-source-line="48" data-uid="lnk14" id="link_verAlumnos_ALUMNOS_ABIERTO"><path d="M472.2,424.25 C525.8,480.51 572,529 572,529 C572,529 598.8383,562.6396 619.8583,588.9896" fill="none" id="verAlumnos-to-ALUMNOS_ABIERTO" style="stroke:#008000;stroke-width:1;"/><polygon fill="#008000" points="623.6,593.68,621.1145,584.1499,620.482,589.7713,614.8606,589.1388,623.6,593.68" style="stroke:#008000;stroke-width:1;"/><path d="M604,534 L604,559 L737,559 L737,544 L727,534 L604,534" fill="#FEFFDD" style="stroke:#181818;stroke-width:0.5;"/><path d="M727,534 L727,544 L737,544 L727,534" fill="#FEFFDD" style="stroke:#181818;stroke-width:0.5;"/><text fill="#000000" font-family="sans-serif" font-size="13" lengthAdjust="spacing" textLength="112.7915" x="610" y="551.0669">eliminarAlumno()</text></g><!--SRC=[dPFVQi8m5CQlbwSuk1iTobv0X4hTAFYFrLs9I6pFHZ1DIX856OCzonvjJxAOQctjBDCK6jB-yftld9peDHCfLJG1pWIQNOgGIhxRBmZHXXg4BIgFRn8XDL0DZTEosMh01o5WHqOsx6EHaTH6KH7B0rSbdXWl4mwPFooWCxz_LuXYqUbLTC1HGbeTAVP-r-v3TzNpPOJ2OFTnrGCjEOkOeNlVG0iEKCJPPZj8_ge4AJge-Bna86JQO4ATWLIXjcwe1MpI46F9nS_ND_ZZe6rbafN2Dj0KEMUn_NsN0rDK2RDHZhaeU7DELAPPmqKAwJ5j41lSoXeOEKkOoFawCdPJWJjMyrJ9ysBTLia_ZxAQVNtDCpwcjpYrNNYTkOrmXynjNyiqOb9WkT_89o5X4Cu68s_f1-5qCWxwmq4fvkbE4LAuRaN46xwEnfEbrmy6BxC9ARdBJYVRrMoHFF0jMgw1hfKAB_WwzDV_vQfrEdCdavIZJVOPjR6bBcZ-0W00]--></g></svg>