<svg xmlns="http://www.w3.org/2000/svg" xmlns:xlink="http://www.w3.org/1999/xlink" contentStyleType="text/css" data-diagram-type="SALT" height="201px" preserveAspectRatio="none" style="width:482px;height:201px;background:#FFFFFF;" version="1.1" viewBox="0 0 482 201" width="482px" zoomAndPan="magnify"><defs/><g><text fill="#000000" font-family="sans-serif" font-size="12" font-weight="bold" lengthAdjust="spacing" textLength="153.6035" x="6" y="17.1387">GESTI&#211;N DE ALUMNOS</text><line style="stroke:#AAAAAA;stroke-width:1;" x1="6" x2="475.8145" y1="24.4688" y2="24.4688"/><line style="stroke:#AAAAAA;stroke-width:1;" x1="6" x2="475.8145" y1="26.4688" y2="26.4688"/><text fill="#000000" font-family="sans-serif" font-size="12" lengthAdjust="spacing" textLength="21.7559" x="7" y="42.1074">DNI</text><text fill="#000000" font-family="sans-serif" font-size="12" lengthAdjust="spacing" textLength="52.9277" x="78.3105" y="42.1074">NOMBRE</text><text fill="#000000" font-family="sans-serif" font-size="12" lengthAdjust="spacing" textLength="66.2402" x="199.1445" y="42.1074">APELLIDOS</text><text fill="#000000" font-family="sans-serif" font-size="12" lengthAdjust="spacing" textLength="46.9277" x="330.7773" y="42.1074">ACCI&#211;N</text><line style="stroke:#AAAAAA;stroke-width:1;" x1="7" x2="77.3105" y1="50.4375" y2="50.4375"/><line style="stroke:#AAAAAA;stroke-width:1;" x1="78.3105" x2="198.1445" y1="50.4375" y2="50.4375"/><line style="stroke:#AAAAAA;stroke-width:1;" x1="199.1445" x2="329.7773" y1="50.4375" y2="50.4375"/><line style="stroke:#AAAAAA;stroke-width:1;" x1="330.7773" x2="388.7773" y1="50.4375" y2="50.4375"/><text fill="#000000" font-family="sans-serif" font-size="12" lengthAdjust="spacing" textLength="69.2871" x="7" y="66.0762">12345678A</text><text fill="#000000" font-family="sans-serif" font-size="12" lengthAdjust="spacing" textLength="47.6602" x="78.3105" y="66.0762">Roberto</text><text fill="#000000" font-family="sans-serif" font-size="12" lengthAdjust="spacing" textLength="62.3203" x="199.1445" y="66.0762">S&#225;nz Roca</text><rect fill="#EEEEEE" height="17.9688" rx="5" ry="5" style="stroke:#000000;stroke-width:2.5;" width="52" x="333.2773" y="57.4375"/><text fill="#000000" font-family="sans-serif" font-size="12" lengthAdjust="spacing" textLength="35.5254" x="341.5146" y="70.5762">Editar</text><text fill="#000000" font-family="sans-serif" font-size="12" lengthAdjust="spacing" textLength="69.3105" x="7" y="91.0449">87654321B</text><text fill="#000000" font-family="sans-serif" font-size="12" lengthAdjust="spacing" textLength="26.6309" x="78.3105" y="91.0449">Ra&#250;l</text><text fill="#000000" font-family="sans-serif" font-size="12" lengthAdjust="spacing" textLength="129.6328" x="199.1445" y="91.0449">Gonz&#225;lez Gurruchaga</text><rect fill="#EEEEEE" height="17.9688" rx="5" ry="5" style="stroke:#000000;stroke-width:2.5;" width="52" x="333.2773" y="82.4063"/><text fill="#000000" font-family="sans-serif" font-size="12" lengthAdjust="spacing" textLength="35.5254" x="341.5146" y="95.5449">Editar</text><text fill="#000000" font-family="sans-serif" font-size="12" lengthAdjust="spacing" textLength="31.0078" x="7" y="116.0137">PXYZ</text><text fill="#000000" font-family="sans-serif" font-size="12" lengthAdjust="spacing" textLength="118.834" x="78.3105" y="116.0137">Nombre del alumno</text><text fill="#000000" font-family="sans-serif" font-size="12" lengthAdjust="spacing" textLength="125.3145" x="199.1445" y="116.0137">Apellidos del alumno</text><rect fill="#EEEEEE" height="17.9688" rx="5" ry="5" style="stroke:#000000;stroke-width:2.5;" width="52" x="333.2773" y="107.375"/><text fill="#000000" font-family="sans-serif" font-size="12" lengthAdjust="spacing" textLength="35.5254" x="341.5146" y="120.5137">Editar</text><line style="stroke:#000000;stroke-width:1;" x1="6" x2="77.3105" y1="29.9688" y2="29.9688"/><line style="stroke:#000000;stroke-width:1;" x1="77.3105" x2="198.1445" y1="29.9688" y2="29.9688"/><line style="stroke:#000000;stroke-width:1;" x1="198.1445" x2="329.7773" y1="29.9688" y2="29.9688"/><line style="stroke:#000000;stroke-width:1;" x1="329.7773" x2="388.7773" y1="29.9688" y2="29.9688"/><line style="stroke:#000000;stroke-width:1;" x1="6" x2="77.3105" y1="128.8438" y2="128.8438"/><line style="stroke:#000000;stroke-width:1;" x1="77.3105" x2="198.1445" y1="128.8438" y2="128.8438"/><line style="stroke:#000000;stroke-width:1;" x1="198.1445" x2="329.7773" y1="128.8438" y2="128.8438"/><line style="stroke:#000000;stroke-width:1;" x1="329.7773" x2="388.7773" y1="128.8438" y2="128.8438"/><line style="stroke:#000000;stroke-width:1;" x1="6" x2="6" y1="29.9688" y2="45.9375"/><line style="stroke:#000000;stroke-width:1;" x1="388.7773" x2="388.7773" y1="103.875" y2="128.8438"/><line style="stroke:#000000;stroke-width:1;" x1="388.7773" x2="388.7773" y1="78.9063" y2="103.875"/><line style="stroke:#000000;stroke-width:1;" x1="388.7773" x2="388.7773" y1="53.9375" y2="78.9063"/><line style="stroke:#000000;stroke-width:1;" x1="388.7773" x2="388.7773" y1="45.9375" y2="53.9375"/><line style="stroke:#000000;stroke-width:1;" x1="388.7773" x2="388.7773" y1="29.9688" y2="45.9375"/><line style="stroke:#000000;stroke-width:1;" x1="6" x2="6" y1="103.875" y2="128.8438"/><line style="stroke:#000000;stroke-width:1;" x1="6" x2="6" y1="78.9063" y2="103.875"/><line style="stroke:#000000;stroke-width:1;" x1="6" x2="6" y1="53.9375" y2="78.9063"/><line style="stroke:#000000;stroke-width:1;" x1="6" x2="6" y1="45.9375" y2="53.9375"/><line style="stroke:#AAAAAA;stroke-width:1.5;" x1="6" x2="475.8145" y1="134.3438" y2="134.3438"/><text fill="#000000" font-family="sans-serif" font-size="12" font-weight="bold" lengthAdjust="spacing" textLength="59.666" x="7" y="150.9824">BUSCAR:</text><text fill="#000000" font-family="sans-serif" font-size="12" lengthAdjust="spacing" textLength="154.3125" x="70.4805" y="150.9824">[                                      ]</text><rect fill="#EEEEEE" height="17.9688" rx="5" ry="5" style="stroke:#000000;stroke-width:2.5;" width="60" x="229.293" y="142.3438"/><text fill="#000000" font-family="sans-serif" font-size="12" lengthAdjust="spacing" textLength="35.4961" x="241.5449" y="155.4824">Filtrar</text><line style="stroke:#AAAAAA;stroke-width:1.5;" x1="6" x2="475.8145" y1="169.3125" y2="169.3125"/><rect fill="#EEEEEE" height="17.9688" rx="5" ry="5" style="stroke:#000000;stroke-width:2.5;" width="92" x="9.5" y="177.3125"/><text fill="#000000" font-family="sans-serif" font-size="12" lengthAdjust="spacing" textLength="73.834" x="18.583" y="190.4512">Crear nuevo</text><rect fill="#EEEEEE" height="17.9688" rx="5" ry="5" style="stroke:#000000;stroke-width:2.5;" width="156" x="108.5" y="177.3125"/><text fill="#000000" font-family="sans-serif" font-size="12" lengthAdjust="spacing" textLength="119.6836" x="126.6582" y="190.4512">Borrar seleccionado</text><rect fill="#EEEEEE" height="17.9688" rx="5" ry="5" style="stroke:#000000;stroke-width:2.5;" width="68" x="271.5" y="177.3125"/><text fill="#000000" font-family="sans-serif" font-size="12" lengthAdjust="spacing" textLength="52.1133" x="279.4434" y="190.4512">Importar</text><rect fill="#EEEEEE" height="17.9688" rx="5" ry="5" style="stroke:#000000;stroke-width:2.5;" width="68" x="346.5" y="177.3125"/><text fill="#000000" font-family="sans-serif" font-size="12" lengthAdjust="spacing" textLength="51.5684" x="354.7158" y="190.4512">Exportar</text><rect fill="#EEEEEE" height="17.9688" rx="5" ry="5" style="stroke:#000000;stroke-width:2.5;" width="44" x="427.3145" y="177.3125"/><text fill="#000000" font-family="sans-serif" font-size="12" lengthAdjust="spacing" textLength="26.5723" x="436.0283" y="190.4512">Salir</text><!--SRC=[ZLBRRjf047tVhvZ7H1KK211gXIXS70In0M68sg8yhEs1hhJUHMERjX3o4_s2_4PV-R6EgIBIjrfxcJDxzkpPMT-bcQGibJe36PAYATaLffOmBNrNX2kI2OezY9lmTk06y-7nrnZwBdIyXJ-U13SVmri0qMwtnVu3G7yyX6SOJ_pkpEMWCtKzRzYV14NSwnLx1K2fzFpM65LhL_L6yxhLOSxCXaYPvIWulfeTuqWoMBgnOfDFp6vTDnlrgrgrMx3byRVcUM3DxlYgSGU3d2YFlidr-rri3wQVltmjZDaa98GODKYT9wOugRD1hLLiqt_JxyuyS7zvuM7FDUWkWbvdvfpklOJ_-fuAkNkbCsAzinWiUuIImEIujITErn9J84MDKQIiaV7V_33PM3fTfV3rumpAHIAGMZ4wY8EuGnCNBod4L4kJBNmFjaWfIq6rNAlK6kLgvMAU8nTY2vKwL2jEhUBKFu4VpA5OlnGNWwa7gSqfuZgfD2CLvXaBN8gHt4gOvIPJ2JemsQ0PzH_U4k2QhI9h4ZIP63twPqApNkgg308ajWAFlkZZIkRyjxacih4oQmSMy_jIItZIh7EvPcqqecTPbtuwN1sj_m00]--></g></svg>