<svg xmlns="http://www.w3.org/2000/svg" xmlns:xlink="http://www.w3.org/1999/xlink" contentStyleType="text/css" data-diagram-type="STATE" height="841px" preserveAspectRatio="none" style="width:706px;height:841px;background:#FFFFFF;" version="1.1" viewBox="0 0 706 841" width="706px" zoomAndPan="magnify"><defs/><g><path d="M19.5,118 L522.5,118 A12.5,12.5 0 0 1 535,130.5 L535,144.2969 L7,144.2969 L7,130.5 A12.5,12.5 0 0 1 19.5,118" fill="#F1F1F1"/><rect fill="none" height="557.2969" rx="12.5" ry="12.5" style="stroke:#181818;stroke-width:0.5;" width="528" x="7" y="118"/><line style="stroke:#181818;stroke-width:0.5;" x1="7" x2="535" y1="144.2969" y2="144.2969"/><text fill="#000000" font-family="sans-serif" font-size="14" lengthAdjust="spacing" textLength="99.6201" x="221.1899" y="135.9951">iniciarSesion()</text><g id="iniciarSesion.SolicitandoAcceso"><rect fill="#F1F1F1" height="50" rx="12.5" ry="12.5" style="stroke:#181818;stroke-width:0.5;" width="50" x="143" y="246.2969"/><line style="stroke:#181818;stroke-width:0.5;" x1="143" x2="193" y1="272.5938" y2="272.5938"/><text fill="#000000" font-family="sans-serif" font-size="14" lengthAdjust="spacing" textLength="4.4502" x="165.7749" y="264.292">&#160;</text></g><g id="iniciarSesion.ProporcionandoCredenciales"><rect fill="#F1F1F1" height="50" rx="12.5" ry="12.5" style="stroke:#181818;stroke-width:0.5;" width="50" x="19" y="397.2969"/><line style="stroke:#181818;stroke-width:0.5;" x1="19" x2="69" y1="423.5938" y2="423.5938"/><text fill="#000000" font-family="sans-serif" font-size="14" lengthAdjust="spacing" textLength="4.4502" x="41.7749" y="415.292">&#160;</text></g><g class="entity" data-entity="c" data-uid="ent0005" id="entity_c"><polygon fill="#F1F1F1" points="157,548.2969,169,560.2969,157,572.2969,145,560.2969,157,548.2969" style="stroke:#181818;stroke-width:0.5;"/></g><ellipse cx="168" cy="165.2969" fill="#222222" rx="10" ry="10" style="stroke:#222222;stroke-width:1;"/><ellipse cx="157" cy="654.2969" fill="none" rx="11" ry="11" style="stroke:#222222;stroke-width:1;"/><ellipse cx="157" cy="654.2969" fill="#222222" rx="6" ry="6" style="stroke:#222222;stroke-width:1;"/><!--link *start*iniciarSesion to SolicitandoAcceso--><g class="link" data-entity-1=".start.iniciarSesion" data-entity-2="SolicitandoAcceso" data-source-line="9" data-uid="lnk3" id="link_.start.iniciarSesion_SolicitandoAcceso"><path d="M168,175.5269 C168,191.2369 168,217.6569 168,240.1669" fill="none" id="*start*iniciarSesion-to-SolicitandoAcceso" style="stroke:#008000;stroke-width:1;"/><polygon fill="#008000" points="168,246.1669,172,237.1669,168,241.1669,164,237.1669,168,246.1669" style="stroke:#008000;stroke-width:1;"/><path d="M173,198.2969 L173,223.2969 L526,223.2969 L526,208.2969 L516,198.2969 L173,198.2969" fill="#FEFFDD" style="stroke:#181818;stroke-width:0.5;"/><path d="M516,198.2969 L516,208.2969 L526,208.2969 L516,198.2969" fill="#FEFFDD" style="stroke:#181818;stroke-width:0.5;"/><text fill="#000000" font-family="sans-serif" font-size="13" font-weight="bold" lengthAdjust="spacing" textLength="155.8921" x="179" y="215.3638">UsuarioNoRegistrado</text><text fill="#000000" font-family="sans-serif" font-size="13" lengthAdjust="spacing" textLength="172.4849" x="339.0244" y="215.3638">solicita acceder al sistema</text></g><!--link SolicitandoAcceso to ProporcionandoCredenciales--><g class="link" data-entity-1="SolicitandoAcceso" data-entity-2="ProporcionandoCredenciales" data-source-line="14" data-uid="lnk4" id="link_SolicitandoAcceso_ProporcionandoCredenciales"><path d="M142.79,282.6769 C112.58,295.1169 66,314.2969 66,314.2969 C66,314.2969 56.6271,359.8596 50.1471,391.4096" fill="none" id="SolicitandoAcceso-to-ProporcionandoCredenciales" style="stroke:#008000;stroke-width:1;"/><polygon fill="#008000" points="48.94,397.2869,54.6689,389.2757,49.9459,392.3891,46.8325,387.6661,48.94,397.2869" style="stroke:#008000;stroke-width:1;"/><path d="M71,319.2969 L71,374.2969 L272,374.2969 L272,329.2969 L262,319.2969 L71,319.2969" fill="#FEFFDD" style="stroke:#181818;stroke-width:0.5;"/><path d="M262,319.2969 L262,329.2969 L272,329.2969 L262,319.2969" fill="#FEFFDD" style="stroke:#181818;stroke-width:0.5;"/><text fill="#000000" font-family="sans-serif" font-size="13" font-weight="bold" lengthAdjust="spacing" textLength="58.9063" x="77" y="336.3638">Sistema</text><text fill="#000000" font-family="sans-serif" font-size="13" lengthAdjust="spacing" textLength="117.9395" x="140.0386" y="336.3638">permite introducir</text><text fill="#000000" font-family="sans-serif" font-size="13" lengthAdjust="spacing" textLength="59.9282" x="77" y="351.4966">&#8226; usuario</text><text fill="#000000" font-family="sans-serif" font-size="13" lengthAdjust="spacing" textLength="84.5254" x="77" y="366.6294">&#8226; contrase&#241;a</text></g><!--link ProporcionandoCredenciales to c--><g class="link" data-entity-1="ProporcionandoCredenciales" data-entity-2="c" data-source-line="21" data-uid="lnk5" id="link_ProporcionandoCredenciales_c"><path d="M32.95,447.7269 C28.77,456.9669 25,465.2969 25,465.2969 C25,465.2969 25,530.2969 25,530.2969 C25,530.2969 112.24,549.4582 142.07,556.0182" fill="none" id="ProporcionandoCredenciales-to-c" style="stroke:#008000;stroke-width:1;"/><polygon fill="#008000" points="147.93,557.3069,139.9992,551.4672,143.0467,556.233,138.2809,559.2805,147.93,557.3069" style="stroke:#008000;stroke-width:1;"/><path d="M30,470.2969 L30,525.2969 L272,525.2969 L272,480.2969 L262,470.2969 L30,470.2969" fill="#FEFFDD" style="stroke:#181818;stroke-width:0.5;"/><path d="M262,470.2969 L262,480.2969 L272,480.2969 L262,470.2969" fill="#FEFFDD" style="stroke:#181818;stroke-width:0.5;"/><text fill="#000000" font-family="sans-serif" font-size="13" font-weight="bold" lengthAdjust="spacing" textLength="155.8921" x="36" y="487.3638">UsuarioNoRegistrado</text><text fill="#000000" font-family="sans-serif" font-size="13" lengthAdjust="spacing" textLength="61.8833" x="196.0244" y="487.3638">introduce</text><text fill="#000000" font-family="sans-serif" font-size="13" lengthAdjust="spacing" textLength="59.9282" x="36" y="502.4966">&#8226; usuario</text><text fill="#000000" font-family="sans-serif" font-size="13" lengthAdjust="spacing" textLength="84.5254" x="36" y="517.6294">&#8226; contrase&#241;a</text></g><!--link c to SolicitandoAcceso--><g class="link" data-entity-1="c" data-entity-2="SolicitandoAcceso" data-source-line="28" data-uid="lnk6" id="link_c_SolicitandoAcceso"><path d="M166.02,557.1169 C193.93,550.3769 277,530.2969 277,530.2969 C277,530.2969 277,314.2969 277,314.2969 C277,314.2969 230.7887,296.4942 198.6087,284.0942" fill="none" id="c-to-SolicitandoAcceso" style="stroke:#FF0000;stroke-width:1;"/><polygon fill="#FF0000" points="193.01,281.9369,199.9698,288.9054,197.6756,283.7347,202.8463,281.4404,193.01,281.9369" style="stroke:#FF0000;stroke-width:1;"/><path d="M282,409.7969 L282,434.7969 L491,434.7969 L491,419.7969 L481,409.7969 L282,409.7969" fill="#FEFFDD" style="stroke:#181818;stroke-width:0.5;"/><path d="M481,409.7969 L481,419.7969 L491,419.7969 L481,409.7969" fill="#FEFFDD" style="stroke:#181818;stroke-width:0.5;"/><text fill="#000000" font-family="sans-serif" font-size="13" lengthAdjust="spacing" textLength="188.792" x="288" y="426.8638">usuario:contrase&#241;a no v&#225;lida</text></g><!--link c to *end*iniciarSesion--><g class="link" data-entity-1="c" data-entity-2=".end.iniciarSesion" data-source-line="33" data-uid="lnk8" id="link_c_.end.iniciarSesion"><path d="M157,572.5769 C157,590.6169 157,619.6969 157,637.0569" fill="none" id="c-to-*end*iniciarSesion" style="stroke:#008000;stroke-width:1;"/><polygon fill="#008000" points="157,643.0569,161,634.0569,157,638.0569,153,634.0569,157,643.0569" style="stroke:#008000;stroke-width:1;"/><path d="M162,595.2969 L162,620.2969 L351,620.2969 L351,605.2969 L341,595.2969 L162,595.2969" fill="#FEFFDD" style="stroke:#181818;stroke-width:0.5;"/><path d="M341,595.2969 L341,605.2969 L351,605.2969 L341,595.2969" fill="#FEFFDD" style="stroke:#181818;stroke-width:0.5;"/><text fill="#000000" font-family="sans-serif" font-size="13" lengthAdjust="spacing" textLength="168.4668" x="168" y="612.3638">usuario:contrase&#241;a v&#225;lida</text></g><g id="SESION_CERRADA"><rect fill="#F1F1F1" height="50" rx="12.5" ry="12.5" style="stroke:#181818;stroke-width:0.5;" width="147.251" x="197.5" y="7"/><line style="stroke:#181818;stroke-width:0.5;" x1="197.5" x2="344.751" y1="33.2969" y2="33.2969"/><text fill="#000000" font-family="sans-serif" font-size="14" lengthAdjust="spacing" textLength="127.251" x="207.5" y="24.9951">SESION_CERRADA</text></g><g id="SISTEMA_DISPONIBLE"><rect fill="#F1F1F1" height="50" rx="12.5" ry="12.5" style="stroke:#181818;stroke-width:0.5;" width="172.0654" x="185" y="785"/><line style="stroke:#181818;stroke-width:0.5;" x1="185" x2="357.0654" y1="811.2969" y2="811.2969"/><text fill="#000000" font-family="sans-serif" font-size="14" lengthAdjust="spacing" textLength="152.0654" x="195" y="802.9951">SISTEMA_DISPONIBLE</text></g><!--link SESION_CERRADA to iniciarSesion--><g class="link" data-entity-1="SESION_CERRADA" data-entity-2="iniciarSesion" data-source-line="39" data-uid="lnk10" id="link_SESION_CERRADA_iniciarSesion"><path d="M271,57.07 C271,72.17 271,87.41 271,111.98" fill="none" id="SESION_CERRADA-to-iniciarSesion" style="stroke:#008000;stroke-width:1;"/><polygon fill="#008000" points="271,117.98,275,108.98,271,112.98,267,108.98,271,117.98" style="stroke:#008000;stroke-width:1;"/></g><!--link iniciarSesion to SISTEMA_DISPONIBLE--><g class="link" data-entity-1="iniciarSesion" data-entity-2="SISTEMA_DISPONIBLE" data-source-line="41" data-uid="lnk12" id="link_iniciarSesion_SISTEMA_DISPONIBLE"><path d="M271,675.11 C271,720.52 271,754.59 271,778.79" fill="none" id="iniciarSesion-to-SISTEMA_DISPONIBLE" style="stroke:#008000;stroke-width:1;"/><polygon fill="#008000" points="271,784.79,275,775.79,271,779.79,267,775.79,271,784.79" style="stroke:#008000;stroke-width:1;"/><path d="M276,710 L276,750 L699,750 L699,720 L689,710 L276,710" fill="#FEFFDD" style="stroke:#181818;stroke-width:0.5;"/><path d="M689,710 L689,720 L699,720 L689,710" fill="#FEFFDD" style="stroke:#181818;stroke-width:0.5;"/><text fill="#000000" font-family="sans-serif" font-size="13" lengthAdjust="spacing" textLength="402.5176" x="282" y="727.0669">UsuarioNoRegistrado &#8594; Administrador institucional o Docente</text><text fill="#000000" font-family="sans-serif" font-size="13" lengthAdjust="spacing" textLength="125.9248" x="282" y="742.1997">completarGestion()</text></g><!--SRC=[fPFVIW915CRlvoaETbE1T1-oiAc4K2fkNOd8E7kmmTqvoymOI0HTzG2zGRr1p-2R-2GTT_stgL6q0mjp-ERxVcV-k8ascRGoXKGRzBCC8QDajfm8uRpq2DfefQMDq6ao81rKIfNJimey2G7y5VeA3rP5bB3AInDJg1GwsfTqBMLa5PiiLNMBCHesJj01xAWLr6hgWRJ282Y2-kS3gFPFnXRH3Ah1VbQnt12lPcRkPf8NQgFWtasbrTIc7ewryrR6LBiO1U1M5Y3P84OBCW770anblXHDNFZ1YYt_xGVlOXtlxoXUL4JcI1dQLES7u2t5KwLjhbgyVC2qw68pLyGQwN3-MQRTalwmrxl8wiyRjwR3Vy2f9GCZ7JpBmqIhaCiTSnR1u_mzqV6td6t6fa- -GR_tFMZwB4JKZ5gTzh3UxFN2HbZoBpqH8Sflg7HrMz5TypOSDbfHjzDkNTqqHOdfmBR3ulKDmZXbqw9WESvvxQVvyIP0q225XY4LfLc2NjfhPC7oiOfr0ry0]--></g></svg>