<svg xmlns="http://www.w3.org/2000/svg" xmlns:xlink="http://www.w3.org/1999/xlink" contentStyleType="text/css" data-diagram-type="STATE" height="810px" preserveAspectRatio="none" style="width:706px;height:810px;background:#FFFFFF;" version="1.1" viewBox="0 0 706 810" width="706px" zoomAndPan="magnify"><defs/><g><path d="M19.5,87 L522.5,87 A12.5,12.5 0 0 1 535,99.5 L535,113.2969 L7,113.2969 L7,99.5 A12.5,12.5 0 0 1 19.5,87" fill="#F1F1F1"/><rect fill="none" height="557.2969" rx="12.5" ry="12.5" style="stroke:#181818;stroke-width:0.5;" width="528" x="7" y="87"/><line style="stroke:#181818;stroke-width:0.5;" x1="7" x2="535" y1="113.2969" y2="113.2969"/><text fill="#000000" font-family="sans-serif" font-size="14" lengthAdjust="spacing" textLength="99.6201" x="221.1899" y="104.9951">iniciarSesion()</text><g id="iniciarSesion.SolicitandoAcceso"><rect fill="#F1F1F1" height="50" rx="12.5" ry="12.5" style="stroke:#181818;stroke-width:0.5;" width="50" x="143" y="215.2969"/><line style="stroke:#181818;stroke-width:0.5;" x1="143" x2="193" y1="241.5938" y2="241.5938"/><text fill="#000000" font-family="sans-serif" font-size="14" lengthAdjust="spacing" textLength="4.4502" x="165.7749" y="233.292">&#160;</text></g><g id="iniciarSesion.ProporcionandoCredenciales"><rect fill="#F1F1F1" height="50" rx="12.5" ry="12.5" style="stroke:#181818;stroke-width:0.5;" width="50" x="19" y="366.2969"/><line style="stroke:#181818;stroke-width:0.5;" x1="19" x2="69" y1="392.5938" y2="392.5938"/><text fill="#000000" font-family="sans-serif" font-size="14" lengthAdjust="spacing" textLength="4.4502" x="41.7749" y="384.292">&#160;</text></g><g class="entity" data-entity="c" data-uid="ent0005" id="entity_c"><polygon fill="#F1F1F1" points="157,517.2969,169,529.2969,157,541.2969,145,529.2969,157,517.2969" style="stroke:#181818;stroke-width:0.5;"/></g><ellipse cx="168" cy="134.2969" fill="#222222" rx="10" ry="10" style="stroke:#222222;stroke-width:1;"/><ellipse cx="157" cy="623.2969" fill="none" rx="11" ry="11" style="stroke:#222222;stroke-width:1;"/><ellipse cx="157" cy="623.2969" fill="#222222" rx="6" ry="6" style="stroke:#222222;stroke-width:1;"/><!--link *start*iniciarSesion to SolicitandoAcceso--><g class="link" data-entity-1=".start.iniciarSesion" data-entity-2="SolicitandoAcceso" data-source-line="9" data-uid="lnk3" id="link_.start.iniciarSesion_SolicitandoAcceso"><path d="M168,144.5269 C168,160.2369 168,186.6569 168,209.1669" fill="none" id="*start*iniciarSesion-to-SolicitandoAcceso" style="stroke:#008000;stroke-width:1;"/><polygon fill="#008000" points="168,215.1669,172,206.1669,168,210.1669,164,206.1669,168,215.1669" style="stroke:#008000;stroke-width:1;"/><path d="M173,167.2969 L173,192.2969 L526,192.2969 L526,177.2969 L516,167.2969 L173,167.2969" fill="#FEFFDD" style="stroke:#181818;stroke-width:0.5;"/><path d="M516,167.2969 L516,177.2969 L526,177.2969 L516,167.2969" fill="#FEFFDD" style="stroke:#181818;stroke-width:0.5;"/><text fill="#000000" font-family="sans-serif" font-size="13" font-weight="bold" lengthAdjust="spacing" textLength="155.8921" x="179" y="184.3638">UsuarioNoRegistrado</text><text fill="#000000" font-family="sans-serif" font-size="13" lengthAdjust="spacing" textLength="172.4849" x="339.0244" y="184.3638">solicita acceder al sistema</text></g><!--link SolicitandoAcceso to ProporcionandoCredenciales--><g class="link" data-entity-1="SolicitandoAcceso" data-entity-2="ProporcionandoCredenciales" data-source-line="14" data-uid="lnk4" id="link_SolicitandoAcceso_ProporcionandoCredenciales"><path d="M142.52,251.7869 C112.31,264.2269 66,283.2969 66,283.2969 C66,283.2969 56.6882,328.5698 50.1982,360.1398" fill="none" id="SolicitandoAcceso-to-ProporcionandoCredenciales" style="stroke:#008000;stroke-width:1;"/><polygon fill="#008000" points="48.99,366.0169,54.7203,358.0067,49.9968,361.1193,46.8842,356.3958,48.99,366.0169" style="stroke:#008000;stroke-width:1;"/><path d="M71,288.2969 L71,343.2969 L272,343.2969 L272,298.2969 L262,288.2969 L71,288.2969" fill="#FEFFDD" style="stroke:#181818;stroke-width:0.5;"/><path d="M262,288.2969 L262,298.2969 L272,298.2969 L262,288.2969" fill="#FEFFDD" style="stroke:#181818;stroke-width:0.5;"/><text fill="#000000" font-family="sans-serif" font-size="13" font-weight="bold" lengthAdjust="spacing" textLength="58.9063" x="77" y="305.3638">Sistema</text><text fill="#000000" font-family="sans-serif" font-size="13" lengthAdjust="spacing" textLength="117.9395" x="140.0386" y="305.3638">permite introducir</text><text fill="#000000" font-family="sans-serif" font-size="13" lengthAdjust="spacing" textLength="59.9282" x="77" y="320.4966">&#8226; usuario</text><text fill="#000000" font-family="sans-serif" font-size="13" lengthAdjust="spacing" textLength="84.5254" x="77" y="335.6294">&#8226; contrase&#241;a</text></g><!--link ProporcionandoCredenciales to c--><g class="link" data-entity-1="ProporcionandoCredenciales" data-entity-2="c" data-source-line="21" data-uid="lnk5" id="link_ProporcionandoCredenciales_c"><path d="M32.95,416.7269 C28.77,425.9669 25,434.2969 25,434.2969 C25,434.2969 25,499.2969 25,499.2969 C25,499.2969 111.3798,518.2694 141.6498,524.9194" fill="none" id="ProporcionandoCredenciales-to-c" style="stroke:#008000;stroke-width:1;"/><polygon fill="#008000" points="147.51,526.2069,139.5779,520.3689,142.6265,525.134,137.8613,528.1826,147.51,526.2069" style="stroke:#008000;stroke-width:1;"/><path d="M30,439.2969 L30,494.2969 L272,494.2969 L272,449.2969 L262,439.2969 L30,439.2969" fill="#FEFFDD" style="stroke:#181818;stroke-width:0.5;"/><path d="M262,439.2969 L262,449.2969 L272,449.2969 L262,439.2969" fill="#FEFFDD" style="stroke:#181818;stroke-width:0.5;"/><text fill="#000000" font-family="sans-serif" font-size="13" font-weight="bold" lengthAdjust="spacing" textLength="155.8921" x="36" y="456.3638">UsuarioNoRegistrado</text><text fill="#000000" font-family="sans-serif" font-size="13" lengthAdjust="spacing" textLength="61.8833" x="196.0244" y="456.3638">introduce</text><text fill="#000000" font-family="sans-serif" font-size="13" lengthAdjust="spacing" textLength="59.9282" x="36" y="471.4966">&#8226; usuario</text><text fill="#000000" font-family="sans-serif" font-size="13" lengthAdjust="spacing" textLength="84.5254" x="36" y="486.6294">&#8226; contrase&#241;a</text></g><!--link c to SolicitandoAcceso--><g class="link" data-entity-1="c" data-entity-2="SolicitandoAcceso" data-source-line="28" data-uid="lnk6" id="link_c_SolicitandoAcceso"><path d="M166.42,526.0169 C194.71,519.1869 277,499.2969 277,499.2969 C277,499.2969 277,283.2969 277,283.2969 C277,283.2969 231.0786,265.6046 198.8786,253.1946" fill="none" id="c-to-SolicitandoAcceso" style="stroke:#FF0000;stroke-width:1;"/><polygon fill="#FF0000" points="193.28,251.0369,200.2394,258.0058,197.9455,252.835,203.1164,250.5411,193.28,251.0369" style="stroke:#FF0000;stroke-width:1;"/><path d="M282,378.7969 L282,403.7969 L491,403.7969 L491,388.7969 L481,378.7969 L282,378.7969" fill="#FEFFDD" style="stroke:#181818;stroke-width:0.5;"/><path d="M481,378.7969 L481,388.7969 L491,388.7969 L481,378.7969" fill="#FEFFDD" style="stroke:#181818;stroke-width:0.5;"/><text fill="#000000" font-family="sans-serif" font-size="13" lengthAdjust="spacing" textLength="188.792" x="288" y="395.8638">usuario:contrase&#241;a no v&#225;lida</text></g><!--link c to *end*iniciarSesion--><g class="link" data-entity-1="c" data-entity-2=".end.iniciarSesion" data-source-line="33" data-uid="lnk8" id="link_c_.end.iniciarSesion"><path d="M157,541.9469 C157,560.0369 157,588.5669 157,605.8769" fill="none" id="c-to-*end*iniciarSesion" style="stroke:#008000;stroke-width:1;"/><polygon fill="#008000" points="157,611.8769,161,602.8769,157,606.8769,153,602.8769,157,611.8769" style="stroke:#008000;stroke-width:1;"/><path d="M162,564.2969 L162,589.2969 L351,589.2969 L351,574.2969 L341,564.2969 L162,564.2969" fill="#FEFFDD" style="stroke:#181818;stroke-width:0.5;"/><path d="M341,564.2969 L341,574.2969 L351,574.2969 L341,564.2969" fill="#FEFFDD" style="stroke:#181818;stroke-width:0.5;"/><text fill="#000000" font-family="sans-serif" font-size="13" lengthAdjust="spacing" textLength="168.4668" x="168" y="581.3638">usuario:contrase&#241;a v&#225;lida</text></g><ellipse cx="271" cy="16" fill="#222222" rx="10" ry="10" style="stroke:#222222;stroke-width:1;"/><g id="SISTEMA_DISPONIBLE"><rect fill="#F1F1F1" height="50" rx="12.5" ry="12.5" style="stroke:#181818;stroke-width:0.5;" width="172.0654" x="184.97" y="754.3"/><line style="stroke:#181818;stroke-width:0.5;" x1="184.97" x2="357.0354" y1="780.5969" y2="780.5969"/><text fill="#000000" font-family="sans-serif" font-size="14" lengthAdjust="spacing" textLength="152.0654" x="194.97" y="772.2951">SISTEMA_DISPONIBLE</text></g><!--link *start* to iniciarSesion--><g class="link" data-entity-1=".start." data-entity-2="iniciarSesion" data-source-line="39" data-uid="lnk10" id="link_.start._iniciarSesion"><path d="M271,26.3 C271,37.91 271,53.56 271,80.52" fill="none" id="*start*-to-iniciarSesion" style="stroke:#008000;stroke-width:1;"/><polygon fill="#008000" points="271,86.52,275,77.52,271,81.52,267,77.52,271,86.52" style="stroke:#008000;stroke-width:1;"/></g><!--link iniciarSesion to SISTEMA_DISPONIBLE--><g class="link" data-entity-1="iniciarSesion" data-entity-2="SISTEMA_DISPONIBLE" data-source-line="41" data-uid="lnk12" id="link_iniciarSesion_SISTEMA_DISPONIBLE"><path d="M271,644.65 C271,690 271,723.99 271,748.14" fill="none" id="iniciarSesion-to-SISTEMA_DISPONIBLE" style="stroke:#008000;stroke-width:1;"/><polygon fill="#008000" points="271,754.14,275,745.14,271,749.14,267,745.14,271,754.14" style="stroke:#008000;stroke-width:1;"/><path d="M276,679.3 L276,719.3 L699,719.3 L699,689.3 L689,679.3 L276,679.3" fill="#FEFFDD" style="stroke:#181818;stroke-width:0.5;"/><path d="M689,679.3 L689,689.3 L699,689.3 L689,679.3" fill="#FEFFDD" style="stroke:#181818;stroke-width:0.5;"/><text fill="#000000" font-family="sans-serif" font-size="13" lengthAdjust="spacing" textLength="402.5176" x="282" y="696.3669">UsuarioNoRegistrado &#8594; Administrador institucional o Docente</text><text fill="#000000" font-family="sans-serif" font-size="13" lengthAdjust="spacing" textLength="125.9248" x="282" y="711.4997">completarGestion()</text></g><!--SRC=[fPFVIiCm5CRlynI7UQF2y5vAOReX0vt3wjKOagM76TRcb2GJXWXU-G2-WRw1px0tsPDuskvFkqrHRA2GyENxVYSvSHDjCcbb2easw6SPGaR9B9y8uRpq2DfefQMDq6ao81qqQYk7Hmru4WBuA_KD7goAA66LboQcbbBeQ5VIjvIHLMoIgyujncZOE447K54h20BrG5fX69P1W-CXD0S7OujeXirmDwlSReXtCpDNCoaMWb5uvwRIQkhH3OwryrR659oCGd1B2v1i4AC5cO1Z0QQos8ecBlrWoLRyTeEhMD_NzorUL4OMI1dQL1SNu2t5KwLjeLgyVC2qh68zLyGQwN3-MQVTaFvmrbLazUU3Mz7XF-1Kpi18U-zoFz4ovBHYpY9udBydEjxAsMIiw-GE-htlNjDd8RRRiFOkXAW_d5g_TgFRpbNhljsD-jUzxjbbHzH0zfmrB5xVe1MdR5ekM8vpNljfSQS94BH9eM4oHMcMe9Vs0bcGlr2nelu2]--></g></svg>