<svg xmlns="http://www.w3.org/2000/svg" xmlns:xlink="http://www.w3.org/1999/xlink" contentStyleType="text/css" data-diagram-type="SALT" height="393px" preserveAspectRatio="none" style="width:867px;height:393px;background:#FFFFFF;" version="1.1" viewBox="0 0 867 393" width="867px" zoomAndPan="magnify"><defs/><g><text fill="#000000" font-family="sans-serif" font-size="12" font-weight="bold" lengthAdjust="spacing" textLength="117.1055" x="6" y="17.1387">EDITAR DOCENTE</text><line style="stroke:#AAAAAA;stroke-width:1;" x1="6" x2="860.2168" y1="24.4688" y2="24.4688"/><line style="stroke:#AAAAAA;stroke-width:1;" x1="6" x2="860.2168" y1="26.4688" y2="26.4688"/><text fill="#000000" font-family="sans-serif" font-size="12" font-weight="bold" lengthAdjust="spacing" textLength="122.8828" x="7" y="42.1074">Datos del docente</text><line style="stroke:#AAAAAA;stroke-width:1;" x1="7" x2="859.2168" y1="50.4375" y2="50.4375"/><text fill="#000000" font-family="sans-serif" font-size="12" lengthAdjust="spacing" textLength="45.6738" x="8" y="67.0762">C&#243;digo:</text><text fill="#000000" font-family="sans-serif" font-size="12" lengthAdjust="spacing" textLength="59.1563" x="451" y="67.0762">PROF-001</text><line style="stroke:#000000;stroke-width:1;" x1="449" x2="676" y1="69.9063" y2="69.9063"/><line style="stroke:#000000;stroke-width:1;" x1="449" x2="449" y1="66.9063" y2="68.9063"/><line style="stroke:#000000;stroke-width:1;" x1="676" x2="676" y1="66.9063" y2="68.9063"/><text fill="#000000" font-family="sans-serif" font-size="12" font-style="italic" lengthAdjust="spacing" textLength="177.2168" x="680" y="67.0762">(generado autom&#225;ticamente)</text><line style="stroke:#AAAAAA;stroke-width:1;stroke-dasharray:1,2;" x1="8" x2="447" y1="77.4063" y2="77.4063"/><text fill="#000000" font-family="sans-serif" font-size="12" lengthAdjust="spacing" textLength="77.4141" x="8" y="93.0449">Nombres (*):</text><text fill="#000000" font-family="sans-serif" font-size="12" lengthAdjust="spacing" textLength="67.5117" x="451" y="93.0449">Juan Carlos</text><line style="stroke:#000000;stroke-width:1;" x1="449" x2="676" y1="95.875" y2="95.875"/><line style="stroke:#000000;stroke-width:1;" x1="449" x2="449" y1="92.875" y2="94.875"/><line style="stroke:#000000;stroke-width:1;" x1="676" x2="676" y1="92.875" y2="94.875"/><text fill="#000000" font-family="sans-serif" font-size="12" lengthAdjust="spacing" textLength="77.6426" x="8" y="111.0137">Apellidos (*):</text><text fill="#000000" font-family="sans-serif" font-size="12" lengthAdjust="spacing" textLength="78.0117" x="451" y="111.0137">Garc&#237;a L&#243;pez</text><line style="stroke:#000000;stroke-width:1;" x1="449" x2="676" y1="113.8438" y2="113.8438"/><line style="stroke:#000000;stroke-width:1;" x1="449" x2="449" y1="110.8438" y2="112.8438"/><line style="stroke:#000000;stroke-width:1;" x1="676" x2="676" y1="110.8438" y2="112.8438"/><text fill="#000000" font-family="sans-serif" font-size="12" lengthAdjust="spacing" textLength="44.9766" x="8" y="128.9824">DNI (*):</text><text fill="#000000" font-family="sans-serif" font-size="12" lengthAdjust="spacing" textLength="69.2871" x="451" y="128.9824">12345678A</text><line style="stroke:#000000;stroke-width:1;" x1="449" x2="676" y1="131.8125" y2="131.8125"/><line style="stroke:#000000;stroke-width:1;" x1="449" x2="449" y1="128.8125" y2="130.8125"/><line style="stroke:#000000;stroke-width:1;" x1="676" x2="676" y1="128.8125" y2="130.8125"/><line style="stroke:#AAAAAA;stroke-width:1;stroke-dasharray:1,2;" x1="8" x2="447" y1="139.3125" y2="139.3125"/><text fill="#000000" font-family="sans-serif" font-size="12" lengthAdjust="spacing" textLength="114.7266" x="8" y="154.9512">Correo electr&#243;nico:</text><text fill="#000000" font-family="sans-serif" font-size="12" lengthAdjust="spacing" textLength="149.0801" x="451" y="154.9512">jgarcia@universidad.edu</text><line style="stroke:#000000;stroke-width:1;" x1="449" x2="676" y1="157.7813" y2="157.7813"/><line style="stroke:#000000;stroke-width:1;" x1="449" x2="449" y1="154.7813" y2="156.7813"/><line style="stroke:#000000;stroke-width:1;" x1="676" x2="676" y1="154.7813" y2="156.7813"/><text fill="#000000" font-family="sans-serif" font-size="12" lengthAdjust="spacing" textLength="55.9863" x="8" y="172.9199">Tel&#233;fono:</text><text fill="#000000" font-family="sans-serif" font-size="12" lengthAdjust="spacing" textLength="105.4805" x="451" y="172.9199">+34 600 123 456</text><line style="stroke:#000000;stroke-width:1;" x1="449" x2="676" y1="175.75" y2="175.75"/><line style="stroke:#000000;stroke-width:1;" x1="449" x2="449" y1="172.75" y2="174.75"/><line style="stroke:#000000;stroke-width:1;" x1="676" x2="676" y1="172.75" y2="174.75"/><line style="stroke:#AAAAAA;stroke-width:1;stroke-dasharray:1,2;" x1="8" x2="447" y1="183.25" y2="183.25"/><text fill="#000000" font-family="sans-serif" font-size="12" font-weight="bold" lengthAdjust="spacing" textLength="104.0039" x="8" y="198.8887">Observaciones:</text><text fill="#000000" font-family="sans-serif" font-size="12" lengthAdjust="spacing" textLength="221.1797" x="12" y="215.8574">Profesor especializado en algoritmos</text><line style="stroke:#000000;stroke-width:1;" x1="10" x2="413" y1="218.6875" y2="218.6875"/><line style="stroke:#000000;stroke-width:1;" x1="10" x2="10" y1="215.6875" y2="217.6875"/><line style="stroke:#000000;stroke-width:1;" x1="413" x2="413" y1="215.6875" y2="217.6875"/><text fill="#000000" font-family="sans-serif" font-size="12" lengthAdjust="spacing" textLength="231.7969" x="12" y="233.8262">y estructuras de datos. Experiencia en</text><line style="stroke:#000000;stroke-width:1;" x1="10" x2="413" y1="236.6563" y2="236.6563"/><line style="stroke:#000000;stroke-width:1;" x1="10" x2="10" y1="233.6563" y2="235.6563"/><line style="stroke:#000000;stroke-width:1;" x1="413" x2="413" y1="233.6563" y2="235.6563"/><text fill="#000000" font-family="sans-serif" font-size="12" lengthAdjust="spacing" textLength="201.1289" x="12" y="251.7949">desarrollo de software educativo.</text><line style="stroke:#000000;stroke-width:1;" x1="10" x2="413" y1="254.625" y2="254.625"/><line style="stroke:#000000;stroke-width:1;" x1="10" x2="10" y1="251.625" y2="253.625"/><line style="stroke:#000000;stroke-width:1;" x1="413" x2="413" y1="251.625" y2="253.625"/><line style="stroke:#000000;stroke-width:1;" x1="8" x2="416" y1="203.7188" y2="203.7188"/><line style="stroke:#000000;stroke-width:1;" x1="8" x2="416" y1="257.625" y2="257.625"/><line style="stroke:#000000;stroke-width:1;" x1="8" x2="8" y1="203.7188" y2="221.6875"/><line style="stroke:#000000;stroke-width:1;" x1="416" x2="416" y1="221.6875" y2="239.6563"/><line style="stroke:#000000;stroke-width:1;" x1="416" x2="416" y1="203.7188" y2="221.6875"/><line style="stroke:#000000;stroke-width:1;" x1="8" x2="8" y1="239.6563" y2="257.625"/><line style="stroke:#000000;stroke-width:1;" x1="8" x2="8" y1="221.6875" y2="239.6563"/><line style="stroke:#000000;stroke-width:1;" x1="416" x2="416" y1="239.6563" y2="257.625"/><rect fill="none" height="53.9063" style="stroke:#000000;stroke-width:1;" width="15" x="420" y="203.7188"/><line style="stroke:#000000;stroke-width:1;" x1="420" x2="435" y1="215.7188" y2="215.7188"/><line style="stroke:#000000;stroke-width:1;" x1="420" x2="435" y1="245.625" y2="245.625"/><path d="M427,207.7188 L430,212.7188 L424,212.7188 L427,207.7188" fill="#000000"/><path d="M427,254.625 L430,249.625 L424,249.625 L427,254.625" fill="#000000"/><line style="stroke:#AAAAAA;stroke-width:1;" x1="7" x2="859.2168" y1="264.125" y2="264.125"/><text fill="#000000" font-family="sans-serif" font-size="12" font-weight="bold" lengthAdjust="spacing" textLength="158.6016" x="7" y="279.7637">Asignaturas asignadas:</text><text fill="#000000" font-family="sans-serif" font-size="12" font-style="italic" lengthAdjust="spacing" textLength="128.3262" x="8" y="296.7324">3 asignaturas activas</text><line style="stroke:#AAAAAA;stroke-width:1.5;" x1="7" x2="859.2168" y1="306.0625" y2="306.0625"/><text fill="#000000" font-family="sans-serif" font-size="12" font-style="italic" lengthAdjust="spacing" textLength="142.1309" x="7" y="337.6699">(*) Campos obligatorios</text><line style="stroke:#AAAAAA;stroke-width:1.5;" x1="7" x2="859.2168" y1="346" y2="346"/><rect fill="#EEEEEE" height="17.9688" rx="5" ry="5" style="stroke:#000000;stroke-width:2.5;" width="124" x="10.5" y="369.9688"/><text fill="#000000" font-family="sans-serif" font-size="12" lengthAdjust="spacing" textLength="103.0957" x="20.9521" y="383.1074">Guardar cambios</text><rect fill="#EEEEEE" height="17.9688" rx="5" ry="5" style="stroke:#000000;stroke-width:2.5;" width="68" x="141.5" y="369.9688"/><text fill="#000000" font-family="sans-serif" font-size="12" lengthAdjust="spacing" textLength="52.9395" x="149.0303" y="383.1074">Cancelar</text><rect fill="none" height="53.9063" style="stroke:#000000;stroke-width:1;" width="15" x="420" y="203.7188"/><line style="stroke:#000000;stroke-width:1;" x1="420" x2="435" y1="215.7188" y2="215.7188"/><line style="stroke:#000000;stroke-width:1;" x1="420" x2="435" y1="245.625" y2="245.625"/><path d="M427,207.7188 L430,212.7188 L424,212.7188 L427,207.7188" fill="#000000"/><path d="M427,254.625 L430,249.625 L424,249.625 L427,254.625" fill="#000000"/><!--SRC=[ZLJ1KXf14BtlLtHv0bFWWcZC5b8IG0i2GY5wiQnKizjiJMgOeMPdIDJel-IOGqv-0Z-MNa0KeKpcihsxtQ_Vp7iz9ub5OnEK5YWI7DTrIChIrzDkltFPhlQRNU_U0rxbOQLHRmwgVQXtQutpGQEyDwpC_nmV7y-VYxnbRXsjJY0Y2T42SPMUhbnk5RvKfQisUuf4h0Fu2JkzVlSqv_i5sB9sEA4iAfcO51cCDA2pUZpxPKM8uxHTjhmdAclG-VpQwxaU3mqbaDdD1kaxDsmvL5138vdvHiErukg4f1IHVYxduZCquUmFGdlsDA6xzylhvyrLtsNlGd6_T73uyQYwRRFlxQEcZI4D92cqPlQaHBWulMyn4n9uufIOaab4X56U8hS5S41ozdkabGvUVMI43_ibEFHzO6h0tFwV4ilV7IPafXWAhIW9rhIVYtxHz3PssJDwH8asGCc4cBeKTwcof01bh8smuxUwx6o2t7ArDIwqpc3gFuXI8-QXyMD2Hf1Yt1JnVP284ZH6IwbJX4IFx7Sqn1FYGhHYglF_aEZ1suosUV_rm5GJ4IjSqCPv7E6RariV5RR__Z9pMHKoDqpMZB-b_-FZAdoHBPsbtIoRVppXGzP3AM8-DoFqEjpx8FVNPmvDX0Pu28TSUyCskgwX2acYkLbmUV0Ul1DIKNhdU5vFehANdJRCFQeL5F95ltYGB_YPWICUqYdu9IZuGT4FIf-WSp60z7_MovprsgoCCo5BB5XoCNIM0R9U2wS8VQUi65C0tGcfLltBymTegAamMgLtXDUwwhma79PoduM52xOj6RZgU7KQeUDxiQ527GaL1t0vECqTUMrKiSEOiKbvDSsuvZO0vQJy2m00]--></g></svg>