<svg xmlns="http://www.w3.org/2000/svg" xmlns:xlink="http://www.w3.org/1999/xlink" contentStyleType="text/css" data-diagram-type="STATE" height="941px" preserveAspectRatio="none" style="width:961px;height:941px;background:#FFFFFF;" version="1.1" viewBox="0 0 961 941" width="961px" zoomAndPan="magnify"><defs/><g><g id="SISTEMA_DISPONIBLE2"><rect fill="#F1F1F1" height="50" rx="12.5" ry="12.5" style="stroke:#181818;stroke-width:0.5;" width="172.0654" x="391.5" y="885"/><line style="stroke:#181818;stroke-width:0.5;" x1="391.5" x2="563.5654" y1="911.2969" y2="911.2969"/><text fill="#000000" font-family="sans-serif" font-size="14" lengthAdjust="spacing" textLength="152.0654" x="401.5" y="902.9951">SISTEMA_DISPONIBLE</text></g><path d="M19.5,117 L935.7583,117 A12.5,12.5 0 0 1 948.2583,129.5 L948.2583,143.2969 L7,143.2969 L7,129.5 A12.5,12.5 0 0 1 19.5,117" fill="#F1F1F1"/><rect fill="none" height="708.2969" rx="12.5" ry="12.5" style="stroke:#181818;stroke-width:0.5;" width="941.2583" x="7" y="117"/><line style="stroke:#181818;stroke-width:0.5;" x1="7" x2="948.2583" y1="143.2969" y2="143.2969"/><text fill="#000000" font-family="sans-serif" font-size="14" lengthAdjust="spacing" textLength="213.2949" x="370.9817" y="134.9951">importarConfiguracionGlobal()</text><g id="importarConfiguracionGlobal.RequiringGlobalConfigurationImport"><rect fill="#F1F1F1" height="50" rx="12.5" ry="12.5" style="stroke:#181818;stroke-width:0.5;" width="50" x="307.2583" y="245.2969"/><line style="stroke:#181818;stroke-width:0.5;" x1="307.2583" x2="357.2583" y1="271.5938" y2="271.5938"/><text fill="#000000" font-family="sans-serif" font-size="14" lengthAdjust="spacing" textLength="4.4502" x="330.0332" y="263.292">&#160;</text></g><g id="importarConfiguracionGlobal.ProvidingGlobalConfiguration"><rect fill="#F1F1F1" height="50" rx="12.5" ry="12.5" style="stroke:#181818;stroke-width:0.5;" width="50" x="307.2583" y="426.2969"/><line style="stroke:#181818;stroke-width:0.5;" x1="307.2583" x2="357.2583" y1="452.5938" y2="452.5938"/><text fill="#000000" font-family="sans-serif" font-size="14" lengthAdjust="spacing" textLength="4.4502" x="330.0332" y="444.292">&#160;</text></g><g id="importarConfiguracionGlobal.ProvidingConfirmation"><rect fill="#F1F1F1" height="50" rx="12.5" ry="12.5" style="stroke:#181818;stroke-width:0.5;" width="50" x="26.2583" y="547.2969"/><line style="stroke:#181818;stroke-width:0.5;" x1="26.2583" x2="76.2583" y1="573.5938" y2="573.5938"/><text fill="#000000" font-family="sans-serif" font-size="14" lengthAdjust="spacing" textLength="4.4502" x="49.0332" y="565.292">&#160;</text></g><g class="entity" data-entity="c" data-uid="ent0007" id="entity_c"><polygon fill="#F1F1F1" points="332.2583,698.2969,344.2583,710.2969,332.2583,722.2969,320.2583,710.2969,332.2583,698.2969" style="stroke:#181818;stroke-width:0.5;"/></g><ellipse cx="332.2583" cy="164.2969" fill="#222222" rx="10" ry="10" style="stroke:#222222;stroke-width:1;"/><ellipse cx="332.2583" cy="804.2969" fill="none" rx="11" ry="11" style="stroke:#222222;stroke-width:1;"/><ellipse cx="332.2583" cy="804.2969" fill="#222222" rx="6" ry="6" style="stroke:#222222;stroke-width:1;"/><!--link *start*importarConfiguracionGlobal to RequiringGlobalConfigurationImport--><g class="link" data-entity-1=".start.importarConfiguracionGlobal" data-entity-2="RequiringGlobalConfigurationImport" data-source-line="12" data-uid="lnk3" id="link_.start.importarConfiguracionGlobal_RequiringGlobalConfigurationImport"><path d="M332.2583,174.5269 C332.2583,190.2369 332.2583,216.6569 332.2583,239.1669" fill="none" id="*start*importarConfiguracionGlobal-to-RequiringGlobalConfigurationImport" style="stroke:#008000;stroke-width:1;"/><polygon fill="#008000" points="332.2583,245.1669,336.2583,236.1669,332.2583,240.1669,328.2583,236.1669,332.2583,245.1669" style="stroke:#008000;stroke-width:1;"/><path d="M337.2583,197.2969 L337.2583,222.2969 L664.2583,222.2969 L664.2583,207.2969 L654.2583,197.2969 L337.2583,197.2969" fill="#FEFFDD" style="stroke:#181818;stroke-width:0.5;"/><path d="M654.2583,197.2969 L654.2583,207.2969 L664.2583,207.2969 L654.2583,197.2969" fill="#FEFFDD" style="stroke:#181818;stroke-width:0.5;"/><text fill="#000000" font-family="sans-serif" font-size="13" font-weight="bold" lengthAdjust="spacing" textLength="60.5313" x="343.2583" y="214.3638">Docente</text><text fill="#000000" font-family="sans-serif" font-size="13" lengthAdjust="spacing" textLength="242.3345" x="407.9218" y="214.3638">solicita importar configuraci&#243;n global</text></g><!--link RequiringGlobalConfigurationImport to ProvidingGlobalConfiguration--><g class="link" data-entity-1="RequiringGlobalConfigurationImport" data-entity-2="ProvidingGlobalConfiguration" data-source-line="17" data-uid="lnk4" id="link_RequiringGlobalConfigurationImport_ProvidingGlobalConfiguration"><path d="M332.2583,295.4369 C332.2583,329.6969 332.2583,386.0469 332.2583,420.2569" fill="none" id="RequiringGlobalConfigurationImport-to-ProvidingGlobalConfiguration" style="stroke:#008000;stroke-width:1;"/><polygon fill="#008000" points="332.2583,426.2569,336.2583,417.2569,332.2583,421.2569,328.2583,417.2569,332.2583,426.2569" style="stroke:#008000;stroke-width:1;"/><path d="M337.2583,318.2969 L337.2583,403.2969 L538.2583,403.2969 L538.2583,328.2969 L528.2583,318.2969 L337.2583,318.2969" fill="#FEFFDD" style="stroke:#181818;stroke-width:0.5;"/><path d="M528.2583,318.2969 L528.2583,328.2969 L538.2583,328.2969 L528.2583,318.2969" fill="#FEFFDD" style="stroke:#181818;stroke-width:0.5;"/><text fill="#000000" font-family="sans-serif" font-size="13" font-weight="bold" lengthAdjust="spacing" textLength="58.9063" x="343.2583" y="335.3638">Sistema</text><text fill="#000000" font-family="sans-serif" font-size="13" lengthAdjust="spacing" textLength="117.9395" x="406.2968" y="335.3638">permite introducir</text><text fill="#000000" font-family="sans-serif" font-size="13" lengthAdjust="spacing" textLength="67.2471" x="343.2583" y="350.4966">&#8226; alumnos</text><text fill="#000000" font-family="sans-serif" font-size="13" lengthAdjust="spacing" textLength="56.3418" x="343.2583" y="365.6294">&#8226; grados</text><text fill="#000000" font-family="sans-serif" font-size="13" lengthAdjust="spacing" textLength="88.0293" x="343.2583" y="380.7622">&#8226; asignaturas</text><text fill="#000000" font-family="sans-serif" font-size="13" lengthAdjust="spacing" textLength="77.9619" x="343.2583" y="395.895">&#8226; preguntas</text></g><!--link ProvidingGlobalConfiguration to ProvidingConfirmation--><g class="link" data-entity-1="ProvidingGlobalConfiguration" data-entity-2="ProvidingConfirmation" data-source-line="26" data-uid="lnk5" id="link_ProvidingGlobalConfiguration_ProvidingConfirmation"><path d="M307.1383,455.7369 C233.8183,465.7669 25.2583,494.2969 25.2583,494.2969 C25.2583,494.2969 25.2583,529.2969 25.2583,529.2969 C25.2583,529.2969 27.2601,532.5253 32.9801,541.7653" fill="none" id="ProvidingGlobalConfiguration-to-ProvidingConfirmation" style="stroke:#008000;stroke-width:1;"/><polygon fill="#008000" points="36.1383,546.8669,34.8021,537.1091,33.5065,542.6155,28,541.3199,36.1383,546.8669" style="stroke:#008000;stroke-width:1;"/><path d="M30.2583,499.2969 L30.2583,524.2969 L313.2583,524.2969 L313.2583,509.2969 L303.2583,499.2969 L30.2583,499.2969" fill="#FEFFDD" style="stroke:#181818;stroke-width:0.5;"/><path d="M303.2583,499.2969 L303.2583,509.2969 L313.2583,509.2969 L303.2583,499.2969" fill="#FEFFDD" style="stroke:#181818;stroke-width:0.5;"/><text fill="#000000" font-family="sans-serif" font-size="13" font-weight="bold" lengthAdjust="spacing" textLength="60.5313" x="36.2583" y="516.3638">Docente</text><text fill="#000000" font-family="sans-serif" font-size="13" lengthAdjust="spacing" textLength="198.0786" x="100.9218" y="516.3638">introduce configuraci&#243;n global</text></g><!--link ProvidingConfirmation to c--><g class="link" data-entity-1="ProvidingConfirmation" data-entity-2="c" data-source-line="31" data-uid="lnk6" id="link_ProvidingConfirmation_c"><path d="M69.2083,597.3069 C92.7983,628.8569 131.2583,680.2969 131.2583,680.2969 C131.2583,680.2969 276.4697,701.2507 316.6297,707.0407" fill="none" id="ProvidingConfirmation-to-c" style="stroke:#008000;stroke-width:1;"/><polygon fill="#008000" points="322.5683,707.8969,314.2311,702.6535,317.6194,707.1834,313.0896,710.5717,322.5683,707.8969" style="stroke:#008000;stroke-width:1;"/><path d="M136.2583,620.2969 L136.2583,675.2969 L313.2583,675.2969 L313.2583,630.2969 L303.2583,620.2969 L136.2583,620.2969" fill="#FEFFDD" style="stroke:#181818;stroke-width:0.5;"/><path d="M303.2583,620.2969 L303.2583,630.2969 L313.2583,630.2969 L303.2583,620.2969" fill="#FEFFDD" style="stroke:#181818;stroke-width:0.5;"/><text fill="#000000" font-family="sans-serif" font-size="13" font-weight="bold" lengthAdjust="spacing" textLength="60.5313" x="142.2583" y="637.3638">Docente</text><text fill="#000000" font-family="sans-serif" font-size="13" lengthAdjust="spacing" textLength="45.7729" x="206.9218" y="637.3638">solicita</text><text fill="#000000" font-family="sans-serif" font-size="13" lengthAdjust="spacing" textLength="156.6221" x="142.2583" y="652.4966">&#8226; confirmar importaci&#243;n</text><text fill="#000000" font-family="sans-serif" font-size="13" lengthAdjust="spacing" textLength="149.1953" x="142.2583" y="667.6294">&#8226; cancelar importaci&#243;n</text></g><!--link c to ProvidingGlobalConfiguration--><g class="link" data-entity-1="c" data-entity-2="ProvidingGlobalConfiguration" data-source-line="38" data-uid="lnk7" id="link_c_ProvidingGlobalConfiguration"><path d="M332.2583,698.2469 C332.2583,659.6869 332.2583,536.5769 332.2583,482.4769" fill="none" id="c-to-ProvidingGlobalConfiguration" style="stroke:#FF0000;stroke-width:1;"/><polygon fill="#FF0000" points="332.2583,476.4769,328.2583,485.4769,332.2583,481.4769,336.2583,485.4769,332.2583,476.4769" style="stroke:#FF0000;stroke-width:1;"/><path d="M337.2583,559.7969 L337.2583,584.7969 L548.2583,584.7969 L548.2583,569.7969 L538.2583,559.7969 L337.2583,559.7969" fill="#FEFFDD" style="stroke:#181818;stroke-width:0.5;"/><path d="M538.2583,559.7969 L538.2583,569.7969 L548.2583,569.7969 L538.2583,559.7969" fill="#FEFFDD" style="stroke:#181818;stroke-width:0.5;"/><text fill="#000000" font-family="sans-serif" font-size="13" lengthAdjust="spacing" textLength="190.6265" x="343.2583" y="576.8638">Docente cancela importaci&#243;n</text></g><!--link c to ProvidingGlobalConfiguration--><g class="link" data-entity-1="c" data-entity-2="ProvidingGlobalConfiguration" data-source-line="43" data-uid="lnk8" id="link_c_ProvidingGlobalConfiguration"><path d="M339.7483,705.5669 C378.7883,686.1369 557.2583,597.2969 557.2583,597.2969 C557.2583,597.2969 557.2583,547.2969 557.2583,547.2969 C557.2583,547.2969 422.0057,490.1909 363.1557,465.3409" fill="none" id="c-to-ProvidingGlobalConfiguration-1" style="stroke:#FF0000;stroke-width:1;"/><polygon fill="#FF0000" points="357.6283,463.0069,364.3634,470.1928,362.2344,464.9519,367.4754,462.8229,357.6283,463.0069" style="stroke:#FF0000;stroke-width:1;"/><path d="M562.2583,559.7969 L562.2583,584.7969 L939.2583,584.7969 L939.2583,569.7969 L929.2583,559.7969 L562.2583,559.7969" fill="#FEFFDD" style="stroke:#181818;stroke-width:0.5;"/><path d="M929.2583,559.7969 L929.2583,569.7969 L939.2583,569.7969 L929.2583,559.7969" fill="#FEFFDD" style="stroke:#181818;stroke-width:0.5;"/><text fill="#000000" font-family="sans-serif" font-size="13" lengthAdjust="spacing" textLength="356.605" x="568.2583" y="576.8638">Docente confirma importaci&#243;n: error en la importaci&#243;n</text></g><!--link c to *end*importarConfiguracionGlobal--><g class="link" data-entity-1="c" data-entity-2=".end.importarConfiguracionGlobal" data-source-line="48" data-uid="lnk10" id="link_c_.end.importarConfiguracionGlobal"><path d="M332.2583,722.5769 C332.2583,740.6169 332.2583,769.6969 332.2583,787.0569" fill="none" id="c-to-*end*importarConfiguracionGlobal" style="stroke:#008000;stroke-width:1;"/><polygon fill="#008000" points="332.2583,793.0569,336.2583,784.0569,332.2583,788.0569,328.2583,784.0569,332.2583,793.0569" style="stroke:#008000;stroke-width:1;"/><path d="M337.2583,745.2969 L337.2583,770.2969 L693.2583,770.2969 L693.2583,755.2969 L683.2583,745.2969 L337.2583,745.2969" fill="#FEFFDD" style="stroke:#181818;stroke-width:0.5;"/><path d="M683.2583,745.2969 L683.2583,755.2969 L693.2583,755.2969 L683.2583,745.2969" fill="#FEFFDD" style="stroke:#181818;stroke-width:0.5;"/><text fill="#000000" font-family="sans-serif" font-size="13" lengthAdjust="spacing" textLength="335.6323" x="343.2583" y="762.3638">Docente confirma importaci&#243;n: importaci&#243;n exitosa</text></g><g id="SISTEMA_DISPONIBLE"><rect fill="#F1F1F1" height="50" rx="12.5" ry="12.5" style="stroke:#181818;stroke-width:0.5;" width="172.0654" x="391.5" y="7"/><line style="stroke:#181818;stroke-width:0.5;" x1="391.5" x2="563.5654" y1="33.2969" y2="33.2969"/><text fill="#000000" font-family="sans-serif" font-size="14" lengthAdjust="spacing" textLength="152.0654" x="401.5" y="24.9951">SISTEMA_DISPONIBLE</text></g><!--link SISTEMA_DISPONIBLE to importarConfiguracionGlobal--><g class="link" data-entity-1="SISTEMA_DISPONIBLE" data-entity-2="importarConfiguracionGlobal" data-source-line="54" data-uid="lnk12" id="link_SISTEMA_DISPONIBLE_importarConfiguracionGlobal"><path d="M477.5,57.12 C477.5,71.88 477.5,86.6 477.5,110.99" fill="none" id="SISTEMA_DISPONIBLE-to-importarConfiguracionGlobal" style="stroke:#008000;stroke-width:1;"/><polygon fill="#008000" points="477.5,116.99,481.5,107.99,477.5,111.99,473.5,107.99,477.5,116.99" style="stroke:#008000;stroke-width:1;"/></g><!--link importarConfiguracionGlobal to SISTEMA_DISPONIBLE2--><g class="link" data-entity-1="importarConfiguracionGlobal" data-entity-2="SISTEMA_DISPONIBLE2" data-source-line="56" data-uid="lnk13" id="link_importarConfiguracionGlobal_SISTEMA_DISPONIBLE2"><path d="M477.5,825 C477.5,849.39 477.5,864.12 477.5,878.88" fill="none" id="importarConfiguracionGlobal-to-SISTEMA_DISPONIBLE2" style="stroke:#008000;stroke-width:1;"/><polygon fill="#008000" points="477.5,884.88,481.5,875.88,477.5,879.88,473.5,875.88,477.5,884.88" style="stroke:#008000;stroke-width:1;"/></g><!--SRC=[hLHTIiD047xVKoprHOKY-2WXeBP8m9zYV2j5jfinBarsusGZ5X4yYrVm2Dx4axZT_3KcfBMOG61cvvllcvdDf0iX4uOiff6Ge9S9q4H5ovL1IAgP1kfx_jtuwlH-vFcJcsllx79yJ5bA1st_e8I8E56e6Puh-I3231aNIbv4QiuY2-qvtpyOq5T2g7doN0Fp6imjF6K2XGppi0gf3TApwTgO2Qfd4NHZUg9j7CQ_mpXr7Fwe10VNpGLE3sTqEDqB4K3EXkws6gKosPHSTNnX7SxS7IaEKeDpD7TfgYB1XMPL6ocl-_JrAMbeqrieo23FPnvIVJOBQUZUsASknRv8DSJCAau0Ox6QkzIeWemBj57Vxn-KHLaiLLhP8R9WpMIf22NJXgps9GXX9dNXAIkig-kJsrrNQwARHb0M0bkqlaFOEbz34V_J1QWwmejyM5u9AwO-Pf93r7NQriXNUX22tUPUg2mPUmZ_awoeli5sGW5HeI6aM-geXc1-svq8roqABqAhb3N9tWXfRyK6Ty_c8wHlRQudwTZ8Fm00]--></g></svg>