<svg xmlns="http://www.w3.org/2000/svg" xmlns:xlink="http://www.w3.org/1999/xlink" contentStyleType="text/css" data-diagram-type="STATE" height="786px" preserveAspectRatio="none" style="width:961px;height:786px;background:#FFFFFF;" version="1.1" viewBox="0 0 961 786" width="961px" zoomAndPan="magnify"><defs/><g><path d="M19.5,7 L935.7583,7 A12.5,12.5 0 0 1 948.2583,19.5 L948.2583,33.2969 L7,33.2969 L7,19.5 A12.5,12.5 0 0 1 19.5,7" fill="#F1F1F1"/><rect fill="none" height="663.2969" rx="12.5" ry="12.5" style="stroke:#181818;stroke-width:0.5;" width="941.2583" x="7" y="7"/><line style="stroke:#181818;stroke-width:0.5;" x1="7" x2="948.2583" y1="33.2969" y2="33.2969"/><text fill="#000000" font-family="sans-serif" font-size="14" lengthAdjust="spacing" textLength="213.2949" x="370.9817" y="24.9951">importarConfiguracionGlobal()</text><g id="importarConfiguracionGlobal.RequiringGlobalConfigurationImport"><rect fill="#F1F1F1" height="50" rx="12.5" ry="12.5" style="stroke:#181818;stroke-width:0.5;" width="50" x="307.2583" y="135.2969"/><line style="stroke:#181818;stroke-width:0.5;" x1="307.2583" x2="357.2583" y1="161.5938" y2="161.5938"/><text fill="#000000" font-family="sans-serif" font-size="14" lengthAdjust="spacing" textLength="4.4502" x="330.0332" y="153.292">&#160;</text></g><g id="importarConfiguracionGlobal.ProvidingGlobalConfiguration"><rect fill="#F1F1F1" height="50" rx="12.5" ry="12.5" style="stroke:#181818;stroke-width:0.5;" width="50" x="307.2583" y="271.2969"/><line style="stroke:#181818;stroke-width:0.5;" x1="307.2583" x2="357.2583" y1="297.5938" y2="297.5938"/><text fill="#000000" font-family="sans-serif" font-size="14" lengthAdjust="spacing" textLength="4.4502" x="330.0332" y="289.292">&#160;</text></g><g id="importarConfiguracionGlobal.ProvidingConfirmation"><rect fill="#F1F1F1" height="50" rx="12.5" ry="12.5" style="stroke:#181818;stroke-width:0.5;" width="50" x="26.2583" y="392.2969"/><line style="stroke:#181818;stroke-width:0.5;" x1="26.2583" x2="76.2583" y1="418.5938" y2="418.5938"/><text fill="#000000" font-family="sans-serif" font-size="14" lengthAdjust="spacing" textLength="4.4502" x="49.0332" y="410.292">&#160;</text></g><g class="entity" data-entity="c" data-uid="ent0006" id="entity_c"><polygon fill="#F1F1F1" points="332.2583,543.2969,344.2583,555.2969,332.2583,567.2969,320.2583,555.2969,332.2583,543.2969" style="stroke:#181818;stroke-width:0.5;"/></g><ellipse cx="332.2583" cy="54.2969" fill="#222222" rx="10" ry="10" style="stroke:#222222;stroke-width:1;"/><ellipse cx="332.2583" cy="649.2969" fill="none" rx="11" ry="11" style="stroke:#222222;stroke-width:1;"/><ellipse cx="332.2583" cy="649.2969" fill="#222222" rx="6" ry="6" style="stroke:#222222;stroke-width:1;"/><!--link *start*importarConfiguracionGlobal to RequiringGlobalConfigurationImport--><g class="link" data-entity-1=".start.importarConfiguracionGlobal" data-entity-2="RequiringGlobalConfigurationImport" data-source-line="10" data-uid="lnk3" id="link_.start.importarConfiguracionGlobal_RequiringGlobalConfigurationImport"><path d="M332.2583,64.5269 C332.2583,80.2369 332.2583,106.6569 332.2583,129.1669" fill="none" id="*start*importarConfiguracionGlobal-to-RequiringGlobalConfigurationImport" style="stroke:#008000;stroke-width:1;"/><polygon fill="#008000" points="332.2583,135.1669,336.2583,126.1669,332.2583,130.1669,328.2583,126.1669,332.2583,135.1669" style="stroke:#008000;stroke-width:1;"/><path d="M337.2583,87.2969 L337.2583,112.2969 L664.2583,112.2969 L664.2583,97.2969 L654.2583,87.2969 L337.2583,87.2969" fill="#FEFFDD" style="stroke:#181818;stroke-width:0.5;"/><path d="M654.2583,87.2969 L654.2583,97.2969 L664.2583,97.2969 L654.2583,87.2969" fill="#FEFFDD" style="stroke:#181818;stroke-width:0.5;"/><text fill="#000000" font-family="sans-serif" font-size="13" font-weight="bold" lengthAdjust="spacing" textLength="60.5313" x="343.2583" y="104.3638">Docente</text><text fill="#000000" font-family="sans-serif" font-size="13" lengthAdjust="spacing" textLength="242.3345" x="407.9218" y="104.3638">solicita importar configuraci&#243;n global</text></g><!--link RequiringGlobalConfigurationImport to ProvidingGlobalConfiguration--><g class="link" data-entity-1="RequiringGlobalConfigurationImport" data-entity-2="ProvidingGlobalConfiguration" data-source-line="15" data-uid="lnk4" id="link_RequiringGlobalConfigurationImport_ProvidingGlobalConfiguration"><path d="M332.2583,185.5669 C332.2583,209.8469 332.2583,240.9869 332.2583,265.2069" fill="none" id="RequiringGlobalConfigurationImport-to-ProvidingGlobalConfiguration" style="stroke:#008000;stroke-width:1;"/><polygon fill="#008000" points="332.2583,271.2069,336.2583,262.2069,332.2583,266.2069,328.2583,262.2069,332.2583,271.2069" style="stroke:#008000;stroke-width:1;"/><path d="M337.2583,208.2969 L337.2583,248.2969 L538.2583,248.2969 L538.2583,218.2969 L528.2583,208.2969 L337.2583,208.2969" fill="#FEFFDD" style="stroke:#181818;stroke-width:0.5;"/><path d="M528.2583,208.2969 L528.2583,218.2969 L538.2583,218.2969 L528.2583,208.2969" fill="#FEFFDD" style="stroke:#181818;stroke-width:0.5;"/><text fill="#000000" font-family="sans-serif" font-size="13" font-weight="bold" lengthAdjust="spacing" textLength="58.9063" x="343.2583" y="225.3638">Sistema</text><text fill="#000000" font-family="sans-serif" font-size="13" lengthAdjust="spacing" textLength="117.9395" x="406.2968" y="225.3638">permite introducir</text><text fill="#000000" font-family="sans-serif" font-size="13" lengthAdjust="spacing" textLength="143.8633" x="343.2583" y="240.4966">&#8226; configuraci&#243;n global</text></g><!--link ProvidingGlobalConfiguration to ProvidingConfirmation--><g class="link" data-entity-1="ProvidingGlobalConfiguration" data-entity-2="ProvidingConfirmation" data-source-line="21" data-uid="lnk5" id="link_ProvidingGlobalConfiguration_ProvidingConfirmation"><path d="M307.1383,300.7369 C233.8183,310.7669 25.2583,339.2969 25.2583,339.2969 C25.2583,339.2969 25.2583,374.2969 25.2583,374.2969 C25.2583,374.2969 27.2601,377.5253 32.9801,386.7653" fill="none" id="ProvidingGlobalConfiguration-to-ProvidingConfirmation" style="stroke:#008000;stroke-width:1;"/><polygon fill="#008000" points="36.1383,391.8669,34.8021,382.1091,33.5065,387.6155,28,386.3199,36.1383,391.8669" style="stroke:#008000;stroke-width:1;"/><path d="M30.2583,344.2969 L30.2583,369.2969 L313.2583,369.2969 L313.2583,354.2969 L303.2583,344.2969 L30.2583,344.2969" fill="#FEFFDD" style="stroke:#181818;stroke-width:0.5;"/><path d="M303.2583,344.2969 L303.2583,354.2969 L313.2583,354.2969 L303.2583,344.2969" fill="#FEFFDD" style="stroke:#181818;stroke-width:0.5;"/><text fill="#000000" font-family="sans-serif" font-size="13" font-weight="bold" lengthAdjust="spacing" textLength="60.5313" x="36.2583" y="361.3638">Docente</text><text fill="#000000" font-family="sans-serif" font-size="13" lengthAdjust="spacing" textLength="198.0786" x="100.9218" y="361.3638">introduce configuraci&#243;n global</text></g><!--link ProvidingConfirmation to c--><g class="link" data-entity-1="ProvidingConfirmation" data-entity-2="c" data-source-line="26" data-uid="lnk6" id="link_ProvidingConfirmation_c"><path d="M69.2083,442.3069 C92.7983,473.8569 131.2583,525.2969 131.2583,525.2969 C131.2583,525.2969 276.4697,546.2507 316.6297,552.0407" fill="none" id="ProvidingConfirmation-to-c" style="stroke:#008000;stroke-width:1;"/><polygon fill="#008000" points="322.5683,552.8969,314.2311,547.6535,317.6194,552.1834,313.0896,555.5717,322.5683,552.8969" style="stroke:#008000;stroke-width:1;"/><path d="M136.2583,465.2969 L136.2583,520.2969 L313.2583,520.2969 L313.2583,475.2969 L303.2583,465.2969 L136.2583,465.2969" fill="#FEFFDD" style="stroke:#181818;stroke-width:0.5;"/><path d="M303.2583,465.2969 L303.2583,475.2969 L313.2583,475.2969 L303.2583,465.2969" fill="#FEFFDD" style="stroke:#181818;stroke-width:0.5;"/><text fill="#000000" font-family="sans-serif" font-size="13" font-weight="bold" lengthAdjust="spacing" textLength="60.5313" x="142.2583" y="482.3638">Docente</text><text fill="#000000" font-family="sans-serif" font-size="13" lengthAdjust="spacing" textLength="45.7729" x="206.9218" y="482.3638">solicita</text><text fill="#000000" font-family="sans-serif" font-size="13" lengthAdjust="spacing" textLength="156.6221" x="142.2583" y="497.4966">&#8226; confirmar importaci&#243;n</text><text fill="#000000" font-family="sans-serif" font-size="13" lengthAdjust="spacing" textLength="149.1953" x="142.2583" y="512.6294">&#8226; cancelar importaci&#243;n</text></g><!--link c to ProvidingGlobalConfiguration--><g class="link" data-entity-1="c" data-entity-2="ProvidingGlobalConfiguration" data-source-line="33" data-uid="lnk7" id="link_c_ProvidingGlobalConfiguration"><path d="M332.2583,543.2469 C332.2583,504.6869 332.2583,381.5769 332.2583,327.4769" fill="none" id="c-to-ProvidingGlobalConfiguration" style="stroke:#FF0000;stroke-width:1;"/><polygon fill="#FF0000" points="332.2583,321.4769,328.2583,330.4769,332.2583,326.4769,336.2583,330.4769,332.2583,321.4769" style="stroke:#FF0000;stroke-width:1;"/><path d="M337.2583,404.7969 L337.2583,429.7969 L548.2583,429.7969 L548.2583,414.7969 L538.2583,404.7969 L337.2583,404.7969" fill="#FEFFDD" style="stroke:#181818;stroke-width:0.5;"/><path d="M538.2583,404.7969 L538.2583,414.7969 L548.2583,414.7969 L538.2583,404.7969" fill="#FEFFDD" style="stroke:#181818;stroke-width:0.5;"/><text fill="#000000" font-family="sans-serif" font-size="13" lengthAdjust="spacing" textLength="190.6265" x="343.2583" y="421.8638">Docente cancela importaci&#243;n</text></g><!--link c to ProvidingGlobalConfiguration--><g class="link" data-entity-1="c" data-entity-2="ProvidingGlobalConfiguration" data-source-line="38" data-uid="lnk8" id="link_c_ProvidingGlobalConfiguration"><path d="M339.7483,550.5669 C378.7883,531.1369 557.2583,442.2969 557.2583,442.2969 C557.2583,442.2969 557.2583,392.2969 557.2583,392.2969 C557.2583,392.2969 422.0057,335.1909 363.1557,310.3409" fill="none" id="c-to-ProvidingGlobalConfiguration-1" style="stroke:#FF0000;stroke-width:1;"/><polygon fill="#FF0000" points="357.6283,308.0069,364.3634,315.1928,362.2344,309.9519,367.4754,307.8229,357.6283,308.0069" style="stroke:#FF0000;stroke-width:1;"/><path d="M562.2583,404.7969 L562.2583,429.7969 L939.2583,429.7969 L939.2583,414.7969 L929.2583,404.7969 L562.2583,404.7969" fill="#FEFFDD" style="stroke:#181818;stroke-width:0.5;"/><path d="M929.2583,404.7969 L929.2583,414.7969 L939.2583,414.7969 L929.2583,404.7969" fill="#FEFFDD" style="stroke:#181818;stroke-width:0.5;"/><text fill="#000000" font-family="sans-serif" font-size="13" lengthAdjust="spacing" textLength="356.605" x="568.2583" y="421.8638">Docente confirma importaci&#243;n: error en la importaci&#243;n</text></g><!--link c to *end*importarConfiguracionGlobal--><g class="link" data-entity-1="c" data-entity-2=".end.importarConfiguracionGlobal" data-source-line="43" data-uid="lnk10" id="link_c_.end.importarConfiguracionGlobal"><path d="M332.2583,567.5769 C332.2583,585.6169 332.2583,614.6969 332.2583,632.0569" fill="none" id="c-to-*end*importarConfiguracionGlobal" style="stroke:#008000;stroke-width:1;"/><polygon fill="#008000" points="332.2583,638.0569,336.2583,629.0569,332.2583,633.0569,328.2583,629.0569,332.2583,638.0569" style="stroke:#008000;stroke-width:1;"/><path d="M337.2583,590.2969 L337.2583,615.2969 L693.2583,615.2969 L693.2583,600.2969 L683.2583,590.2969 L337.2583,590.2969" fill="#FEFFDD" style="stroke:#181818;stroke-width:0.5;"/><path d="M683.2583,590.2969 L683.2583,600.2969 L693.2583,600.2969 L683.2583,590.2969" fill="#FEFFDD" style="stroke:#181818;stroke-width:0.5;"/><text fill="#000000" font-family="sans-serif" font-size="13" lengthAdjust="spacing" textLength="335.6323" x="343.2583" y="607.3638">Docente confirma importaci&#243;n: importaci&#243;n exitosa</text></g><g id="SISTEMA_DISPONIBLE"><rect fill="#F1F1F1" height="50" rx="12.5" ry="12.5" style="stroke:#181818;stroke-width:0.5;" width="172.0654" x="391.5" y="730"/><line style="stroke:#181818;stroke-width:0.5;" x1="391.5" x2="563.5654" y1="756.2969" y2="756.2969"/><text fill="#000000" font-family="sans-serif" font-size="14" lengthAdjust="spacing" textLength="152.0654" x="401.5" y="747.9951">SISTEMA_DISPONIBLE</text></g><!--link SISTEMA_DISPONIBLE to importarConfiguracionGlobal--><g class="link" data-entity-1="SISTEMA_DISPONIBLE" data-entity-2="importarConfiguracionGlobal" data-source-line="49" data-uid="lnk12" id="link_SISTEMA_DISPONIBLE_importarConfiguracionGlobal"><path d="M484.26,729.83 C486.07,715.06 487.2529,700.3541 488.3329,676.1141" fill="none" id="SISTEMA_DISPONIBLE-to-importarConfiguracionGlobal" style="stroke:#008000;stroke-width:1;"/><polygon fill="#008000" points="488.6,670.12,484.2034,678.933,488.3774,675.115,492.1954,679.2891,488.6,670.12" style="stroke:#008000;stroke-width:1;"/></g><!--link importarConfiguracionGlobal to SISTEMA_DISPONIBLE--><g class="link" data-entity-1="importarConfiguracionGlobal" data-entity-2="SISTEMA_DISPONIBLE" data-source-line="51" data-uid="lnk13" id="link_importarConfiguracionGlobal_SISTEMA_DISPONIBLE"><path d="M467.02,670.12 C468.04,694.36 468.71,709.0998 470.42,723.8698" fill="none" id="importarConfiguracionGlobal-to-SISTEMA_DISPONIBLE" style="stroke:#008000;stroke-width:1;"/><polygon fill="#008000" points="471.11,729.83,474.0484,720.4297,470.535,724.8632,466.1015,721.3497,471.11,729.83" style="stroke:#008000;stroke-width:1;"/></g><!--SRC=[hPHVIiD04CRVznHBVL6X-2uXeBP8m3_5-5QAR3TZ74nsusGh5X4yYrVm2Dx4axZPj6bZGbgB6mZipipt_J93Ddz4bGaIAKzGWPbdm3ETp8iDOxaH1ZYccIOZw4ohUund92HgTPxegKYuo7cl8xv_qEElZ76xIgsUVMpD3JpDa535PLfLQMnbuEIQDIFIpnYrrtHakpnAVwT9xddoGQC4toy1nuSJtX_lnGIW9dr_MqQbhPfMHViUtO4tzGTQWZBW7Krzdki49HfHjP7BLP- -FXMFdRmh1HMLUdQnwhKPfCQziKzjn27c1bBXY3EW58kvAqCwcaaab_Nz_h45-WgxYwCTk36gJRrT4i9kOEj-DIBvfydMksFrQ3bh1xCA2oKXQOis6MN1Gn3jDj05vTAnm_0_pHPVNtCxva2aoHhoBJcg8TZ_SIV3zHs75pGw5tMpDyR28BmTNfxS3O9mT7qLd5uCQzuTLnfZNVVXkaZJumS0]--></g></svg>