<svg xmlns="http://www.w3.org/2000/svg" xmlns:xlink="http://www.w3.org/1999/xlink" contentStyleType="text/css" data-diagram-type="STATE" height="896px" preserveAspectRatio="none" style="width:966px;height:896px;background:#FFFFFF;" version="1.1" viewBox="0 0 966 896" width="966px" zoomAndPan="magnify"><defs/><g><g id="PREGUNTAS_ABIERTO"><rect fill="#F1F1F1" height="50" rx="12.5" ry="12.5" style="stroke:#181818;stroke-width:0.5;" width="174.0547" x="259" y="7"/><line style="stroke:#181818;stroke-width:0.5;" x1="259" x2="433.0547" y1="33.2969" y2="33.2969"/><text fill="#000000" font-family="sans-serif" font-size="14" lengthAdjust="spacing" textLength="154.0547" x="269" y="24.9951">PREGUNTAS_ABIERTO</text></g><g id="PREGUNTAS_CONTEXTUALES_ABIERTO"><rect fill="#F1F1F1" height="50" rx="12.5" ry="12.5" style="stroke:#181818;stroke-width:0.5;" width="293.2188" x="468.5" y="7"/><line style="stroke:#181818;stroke-width:0.5;" x1="468.5" x2="761.7188" y1="33.2969" y2="33.2969"/><text fill="#000000" font-family="sans-serif" font-size="14" lengthAdjust="spacing" textLength="273.2188" x="478.5" y="24.9951">PREGUNTAS_CONTEXTUALES_ABIERTO</text></g><g id="PREGUNTAS_CONTEXTUALES_ABIERTO2"><rect fill="#F1F1F1" height="50" rx="12.5" ry="12.5" style="stroke:#181818;stroke-width:0.5;" width="293.2188" x="199.5" y="840"/><line style="stroke:#181818;stroke-width:0.5;" x1="199.5" x2="492.7188" y1="866.2969" y2="866.2969"/><text fill="#000000" font-family="sans-serif" font-size="14" lengthAdjust="spacing" textLength="273.2188" x="209.5" y="857.9951">PREGUNTAS_CONTEXTUALES_ABIERTO</text></g><g id="PREGUNTAS_ABIERTO2"><rect fill="#F1F1F1" height="50" rx="12.5" ry="12.5" style="stroke:#181818;stroke-width:0.5;" width="174.0547" x="528" y="840"/><line style="stroke:#181818;stroke-width:0.5;" x1="528" x2="702.0547" y1="866.2969" y2="866.2969"/><text fill="#000000" font-family="sans-serif" font-size="14" lengthAdjust="spacing" textLength="154.0547" x="538" y="857.9951">PREGUNTAS_ABIERTO</text></g><path d="M19.5,117 L940.4415,117 A12.5,12.5 0 0 1 952.9415,129.5 L952.9415,143.2969 L7,143.2969 L7,129.5 A12.5,12.5 0 0 1 19.5,117" fill="#F1F1F1"/><rect fill="none" height="663.2969" rx="12.5" ry="12.5" style="stroke:#181818;stroke-width:0.5;" width="945.9415" x="7" y="117"/><line style="stroke:#181818;stroke-width:0.5;" x1="7" x2="952.9415" y1="143.2969" y2="143.2969"/><text fill="#000000" font-family="sans-serif" font-size="14" lengthAdjust="spacing" textLength="141.6611" x="409.1402" y="134.9951">exportarPreguntas()</text><g id="exportarPreguntas.RequiringExport"><rect fill="#F1F1F1" height="50" rx="12.5" ry="12.5" style="stroke:#181818;stroke-width:0.5;" width="50" x="312.9415" y="245.2969"/><line style="stroke:#181818;stroke-width:0.5;" x1="312.9415" x2="362.9415" y1="271.5938" y2="271.5938"/><text fill="#000000" font-family="sans-serif" font-size="14" lengthAdjust="spacing" textLength="4.4502" x="335.7164" y="263.292">&#160;</text></g><g id="exportarPreguntas.ProvidingPreguntas"><rect fill="#F1F1F1" height="50" rx="12.5" ry="12.5" style="stroke:#181818;stroke-width:0.5;" width="50" x="312.9415" y="381.2969"/><line style="stroke:#181818;stroke-width:0.5;" x1="312.9415" x2="362.9415" y1="407.5938" y2="407.5938"/><text fill="#000000" font-family="sans-serif" font-size="14" lengthAdjust="spacing" textLength="4.4502" x="335.7164" y="399.292">&#160;</text></g><g id="exportarPreguntas.ProvidingConfirmation"><rect fill="#F1F1F1" height="50" rx="12.5" ry="12.5" style="stroke:#181818;stroke-width:0.5;" width="50" x="26.9415" y="502.2969"/><line style="stroke:#181818;stroke-width:0.5;" x1="26.9415" x2="76.9415" y1="528.5938" y2="528.5938"/><text fill="#000000" font-family="sans-serif" font-size="14" lengthAdjust="spacing" textLength="4.4502" x="49.7164" y="520.292">&#160;</text></g><g class="entity" data-entity="c" data-uid="ent0010" id="entity_c"><polygon fill="#F1F1F1" points="337.9415,653.2969,349.9415,665.2969,337.9415,677.2969,325.9415,665.2969,337.9415,653.2969" style="stroke:#181818;stroke-width:0.5;"/></g><ellipse cx="337.9415" cy="164.2969" fill="#222222" rx="10" ry="10" style="stroke:#222222;stroke-width:1;"/><ellipse cx="337.9415" cy="759.2969" fill="none" rx="11" ry="11" style="stroke:#222222;stroke-width:1;"/><ellipse cx="337.9415" cy="759.2969" fill="#222222" rx="6" ry="6" style="stroke:#222222;stroke-width:1;"/><!--link *start*exportarPreguntas to RequiringExport--><g class="link" data-entity-1=".start.exportarPreguntas" data-entity-2="RequiringExport" data-source-line="15" data-uid="lnk3" id="link_.start.exportarPreguntas_RequiringExport"><path d="M337.9415,174.5269 C337.9415,190.2369 337.9415,216.6569 337.9415,239.1669" fill="none" id="*start*exportarPreguntas-to-RequiringExport" style="stroke:#008000;stroke-width:1;"/><polygon fill="#008000" points="337.9415,245.1669,341.9415,236.1669,337.9415,240.1669,333.9415,236.1669,337.9415,245.1669" style="stroke:#008000;stroke-width:1;"/><path d="M342.9415,197.2969 L342.9415,222.2969 L603.9415,222.2969 L603.9415,207.2969 L593.9415,197.2969 L342.9415,197.2969" fill="#FEFFDD" style="stroke:#181818;stroke-width:0.5;"/><path d="M593.9415,197.2969 L593.9415,207.2969 L603.9415,207.2969 L593.9415,197.2969" fill="#FEFFDD" style="stroke:#181818;stroke-width:0.5;"/><text fill="#000000" font-family="sans-serif" font-size="13" font-weight="bold" lengthAdjust="spacing" textLength="60.5313" x="348.9415" y="214.3638">Docente</text><text fill="#000000" font-family="sans-serif" font-size="13" lengthAdjust="spacing" textLength="175.8491" x="413.6051" y="214.3638">solicita exportar preguntas</text></g><!--link RequiringExport to ProvidingPreguntas--><g class="link" data-entity-1="RequiringExport" data-entity-2="ProvidingPreguntas" data-source-line="20" data-uid="lnk4" id="link_RequiringExport_ProvidingPreguntas"><path d="M337.9415,295.5669 C337.9415,319.8469 337.9415,350.9869 337.9415,375.2069" fill="none" id="RequiringExport-to-ProvidingPreguntas" style="stroke:#008000;stroke-width:1;"/><polygon fill="#008000" points="337.9415,381.2069,341.9415,372.2069,337.9415,376.2069,333.9415,372.2069,337.9415,381.2069" style="stroke:#008000;stroke-width:1;"/><path d="M342.9415,318.2969 L342.9415,358.2969 L543.9415,358.2969 L543.9415,328.2969 L533.9415,318.2969 L342.9415,318.2969" fill="#FEFFDD" style="stroke:#181818;stroke-width:0.5;"/><path d="M533.9415,318.2969 L533.9415,328.2969 L543.9415,328.2969 L533.9415,318.2969" fill="#FEFFDD" style="stroke:#181818;stroke-width:0.5;"/><text fill="#000000" font-family="sans-serif" font-size="13" font-weight="bold" lengthAdjust="spacing" textLength="58.9063" x="348.9415" y="335.3638">Sistema</text><text fill="#000000" font-family="sans-serif" font-size="13" lengthAdjust="spacing" textLength="117.9395" x="411.9801" y="335.3638">permite introducir</text><text fill="#000000" font-family="sans-serif" font-size="13" lengthAdjust="spacing" textLength="149.8428" x="348.9415" y="350.4966">&#8226; preguntas a exportar</text></g><!--link ProvidingPreguntas to ProvidingConfirmation--><g class="link" data-entity-1="ProvidingPreguntas" data-entity-2="ProvidingConfirmation" data-source-line="26" data-uid="lnk5" id="link_ProvidingPreguntas_ProvidingConfirmation"><path d="M312.8515,410.6669 C238.5815,420.6269 24.9415,449.2969 24.9415,449.2969 C24.9415,449.2969 24.9415,484.2969 24.9415,484.2969 C24.9415,484.2969 27.047,487.5798 32.987,496.8198" fill="none" id="ProvidingPreguntas-to-ProvidingConfirmation" style="stroke:#008000;stroke-width:1;"/><polygon fill="#008000" points="36.2315,501.8669,34.7294,492.1332,33.5277,497.661,28,496.4593,36.2315,501.8669" style="stroke:#008000;stroke-width:1;"/><path d="M29.9415,454.2969 L29.9415,479.2969 L318.9415,479.2969 L318.9415,464.2969 L308.9415,454.2969 L29.9415,454.2969" fill="#FEFFDD" style="stroke:#181818;stroke-width:0.5;"/><path d="M308.9415,454.2969 L308.9415,464.2969 L318.9415,464.2969 L308.9415,454.2969" fill="#FEFFDD" style="stroke:#181818;stroke-width:0.5;"/><text fill="#000000" font-family="sans-serif" font-size="13" font-weight="bold" lengthAdjust="spacing" textLength="60.5313" x="35.9415" y="471.3638">Docente</text><text fill="#000000" font-family="sans-serif" font-size="13" lengthAdjust="spacing" textLength="204.0581" x="100.6051" y="471.3638">introduce preguntas a exportar</text></g><!--link ProvidingConfirmation to c--><g class="link" data-entity-1="ProvidingConfirmation" data-entity-2="c" data-source-line="31" data-uid="lnk6" id="link_ProvidingConfirmation_c"><path d="M71.0215,552.3069 C96.0815,583.8569 136.9415,635.2969 136.9415,635.2969 C136.9415,635.2969 282.1529,656.2507 322.3129,662.0407" fill="none" id="ProvidingConfirmation-to-c" style="stroke:#008000;stroke-width:1;"/><polygon fill="#008000" points="328.2515,662.8969,319.9144,657.6535,323.3027,662.1834,318.7728,665.5717,328.2515,662.8969" style="stroke:#008000;stroke-width:1;"/><path d="M141.9415,575.2969 L141.9415,630.2969 L318.9415,630.2969 L318.9415,585.2969 L308.9415,575.2969 L141.9415,575.2969" fill="#FEFFDD" style="stroke:#181818;stroke-width:0.5;"/><path d="M308.9415,575.2969 L308.9415,585.2969 L318.9415,585.2969 L308.9415,575.2969" fill="#FEFFDD" style="stroke:#181818;stroke-width:0.5;"/><text fill="#000000" font-family="sans-serif" font-size="13" font-weight="bold" lengthAdjust="spacing" textLength="60.5313" x="147.9415" y="592.3638">Docente</text><text fill="#000000" font-family="sans-serif" font-size="13" lengthAdjust="spacing" textLength="45.7729" x="212.6051" y="592.3638">solicita</text><text fill="#000000" font-family="sans-serif" font-size="13" lengthAdjust="spacing" textLength="156.0381" x="147.9415" y="607.4966">&#8226; confirmar exportaci&#243;n</text><text fill="#000000" font-family="sans-serif" font-size="13" lengthAdjust="spacing" textLength="148.6113" x="147.9415" y="622.6294">&#8226; cancelar exportaci&#243;n</text></g><!--link c to ProvidingPreguntas--><g class="link" data-entity-1="c" data-entity-2="ProvidingPreguntas" data-source-line="38" data-uid="lnk7" id="link_c_ProvidingPreguntas"><path d="M337.9415,653.2469 C337.9415,614.6869 337.9415,491.5769 337.9415,437.4769" fill="none" id="c-to-ProvidingPreguntas" style="stroke:#FF0000;stroke-width:1;"/><polygon fill="#FF0000" points="337.9415,431.4769,333.9415,440.4769,337.9415,436.4769,341.9415,440.4769,337.9415,431.4769" style="stroke:#FF0000;stroke-width:1;"/><path d="M342.9415,514.7969 L342.9415,539.7969 L553.9415,539.7969 L553.9415,524.7969 L543.9415,514.7969 L342.9415,514.7969" fill="#FEFFDD" style="stroke:#181818;stroke-width:0.5;"/><path d="M543.9415,514.7969 L543.9415,524.7969 L553.9415,524.7969 L543.9415,514.7969" fill="#FEFFDD" style="stroke:#181818;stroke-width:0.5;"/><text fill="#000000" font-family="sans-serif" font-size="13" lengthAdjust="spacing" textLength="190.0425" x="348.9415" y="531.8638">Docente cancela exportaci&#243;n</text></g><!--link c to ProvidingPreguntas--><g class="link" data-entity-1="c" data-entity-2="ProvidingPreguntas" data-source-line="43" data-uid="lnk8" id="link_c_ProvidingPreguntas"><path d="M345.4315,660.5669 C384.4715,641.1369 562.9415,552.2969 562.9415,552.2969 C562.9415,552.2969 562.9415,502.2969 562.9415,502.2969 C562.9415,502.2969 427.689,445.1909 368.839,420.3409" fill="none" id="c-to-ProvidingPreguntas-1" style="stroke:#FF0000;stroke-width:1;"/><polygon fill="#FF0000" points="363.3115,418.0069,370.0467,425.1928,367.9177,419.9519,373.1587,417.8229,363.3115,418.0069" style="stroke:#FF0000;stroke-width:1;"/><path d="M567.9415,514.7969 L567.9415,539.7969 L943.9415,539.7969 L943.9415,524.7969 L933.9415,514.7969 L567.9415,514.7969" fill="#FEFFDD" style="stroke:#181818;stroke-width:0.5;"/><path d="M933.9415,514.7969 L933.9415,524.7969 L943.9415,524.7969 L933.9415,514.7969" fill="#FEFFDD" style="stroke:#181818;stroke-width:0.5;"/><text fill="#000000" font-family="sans-serif" font-size="13" lengthAdjust="spacing" textLength="355.437" x="573.9415" y="531.8638">Docente confirma exportaci&#243;n: error en la exportaci&#243;n</text></g><!--link c to *end*exportarPreguntas--><g class="link" data-entity-1="c" data-entity-2=".end.exportarPreguntas" data-source-line="48" data-uid="lnk10" id="link_c_.end.exportarPreguntas"><path d="M337.9415,677.5769 C337.9415,695.6169 337.9415,724.6969 337.9415,742.0569" fill="none" id="c-to-*end*exportarPreguntas" style="stroke:#008000;stroke-width:1;"/><polygon fill="#008000" points="337.9415,748.0569,341.9415,739.0569,337.9415,743.0569,333.9415,739.0569,337.9415,748.0569" style="stroke:#008000;stroke-width:1;"/><path d="M342.9415,700.2969 L342.9415,725.2969 L697.9415,725.2969 L697.9415,710.2969 L687.9415,700.2969 L342.9415,700.2969" fill="#FEFFDD" style="stroke:#181818;stroke-width:0.5;"/><path d="M687.9415,700.2969 L687.9415,710.2969 L697.9415,710.2969 L687.9415,700.2969" fill="#FEFFDD" style="stroke:#181818;stroke-width:0.5;"/><text fill="#000000" font-family="sans-serif" font-size="13" lengthAdjust="spacing" textLength="334.4644" x="348.9415" y="717.3638">Docente confirma exportaci&#243;n: exportaci&#243;n exitosa</text></g><!--link PREGUNTAS_ABIERTO to exportarPreguntas--><g class="link" data-entity-1="PREGUNTAS_ABIERTO" data-entity-2="exportarPreguntas" data-source-line="55" data-uid="lnk11" id="link_PREGUNTAS_ABIERTO_exportarPreguntas"><path d="M353.78,57.08 C358.56,71.85 363.4142,86.871 371.2642,111.151" fill="none" id="PREGUNTAS_ABIERTO-to-exportarPreguntas" style="stroke:#008000;stroke-width:1;"/><polygon fill="#008000" points="373.11,116.86,374.1473,107.0659,371.5718,112.1025,366.5353,109.527,373.11,116.86" style="stroke:#008000;stroke-width:1;"/></g><!--link exportarPreguntas to PREGUNTAS_ABIERTO2--><g class="link" data-entity-1="exportarPreguntas" data-entity-2="PREGUNTAS_ABIERTO2" data-source-line="56" data-uid="lnk12" id="link_exportarPreguntas_PREGUNTAS_ABIERTO2"><path d="M587.68,780.12 C595.57,804.36 600.4621,819.3549 605.2721,834.1249" fill="none" id="exportarPreguntas-to-PREGUNTAS_ABIERTO2" style="stroke:#008000;stroke-width:1;"/><polygon fill="#008000" points="607.13,839.83,608.1465,830.0337,605.5817,835.0758,600.5397,832.511,607.13,839.83" style="stroke:#008000;stroke-width:1;"/></g><!--link PREGUNTAS_CONTEXTUALES_ABIERTO to exportarPreguntas--><g class="link" data-entity-1="PREGUNTAS_CONTEXTUALES_ABIERTO" data-entity-2="exportarPreguntas" data-source-line="59" data-uid="lnk13" id="link_PREGUNTAS_CONTEXTUALES_ABIERTO_exportarPreguntas"><path d="M607.16,57.08 C602.35,71.85 597.4586,86.8751 589.5486,111.1551" fill="none" id="PREGUNTAS_CONTEXTUALES_ABIERTO-to-exportarPreguntas" style="stroke:#008000;stroke-width:1;"/><polygon fill="#008000" points="587.69,116.86,594.2811,109.5417,589.2388,112.1059,586.6746,107.0636,587.69,116.86" style="stroke:#008000;stroke-width:1;"/></g><!--link exportarPreguntas to PREGUNTAS_CONTEXTUALES_ABIERTO2--><g class="link" data-entity-1="exportarPreguntas" data-entity-2="PREGUNTAS_CONTEXTUALES_ABIERTO2" data-source-line="60" data-uid="lnk14" id="link_exportarPreguntas_PREGUNTAS_CONTEXTUALES_ABIERTO2"><path d="M373.12,780.12 C365.28,804.36 360.4374,819.3515 355.6574,834.1215" fill="none" id="exportarPreguntas-to-PREGUNTAS_CONTEXTUALES_ABIERTO2" style="stroke:#008000;stroke-width:1;"/><polygon fill="#008000" points="353.81,839.83,360.3868,832.4989,355.3495,835.0729,352.7755,830.0356,353.81,839.83" style="stroke:#008000;stroke-width:1;"/></g><!--SRC=[jPHVIWCn4CRVSufG7wn24NoKib3h8eAqfNz4A4NITAoXssHDKcaHmRDu1O_WJJo9izrsspJRQaLtOI79D_FzCicE6GaPCyt6D18Ix2m66gjebWm8CPPPe8rcUDcfjIkjkyhvLTXirxtvQhtM3c_RdSfrk9_eb3932xirXMqOcy6PVX40qrXfotH3mt0YBOeJlJTRF2hGPq8eFcbS0LzKDk5n8hIGmt0UuGiQMZs90GgoL3iqLINlXHupAvHSat5QBlC79JW4GShGFUxHKlTWg05ahnJaOaY5eKecHpQQJvJxmONY82sKJ_e1DIeIN5YMbO363YB8GPe3dzHrmyKXsBBFF8YMC1R6R0uHWnuBb0XfjHfCkD1prUVhsug6hX0Ti1JADyxdychxNNsMIB0toRgL0yFtEfYi4doHJo_TkVXubwjb9Zb4UQik7qzOD0psEQu5rzBZNoqMktGypYXehN1h6F0pzwpO-8_ypd1jX0DXbM6ksGiXXnGF6HVnOn8HtcXCQOZNQ1mahwqGl_qubzVhPXlEjKvuKsdH8avPcDe9Yy0SaTsjye-8SZlr5m00]--></g></svg>