<svg xmlns="http://www.w3.org/2000/svg" xmlns:xlink="http://www.w3.org/1999/xlink" contentStyleType="text/css" data-diagram-type="STATE" height="786px" preserveAspectRatio="none" style="width:966px;height:786px;background:#FFFFFF;" version="1.1" viewBox="0 0 966 786" width="966px" zoomAndPan="magnify"><defs/><g><path d="M19.5,7 L940.4415,7 A12.5,12.5 0 0 1 952.9415,19.5 L952.9415,33.2969 L7,33.2969 L7,19.5 A12.5,12.5 0 0 1 19.5,7" fill="#F1F1F1"/><rect fill="none" height="663.2969" rx="12.5" ry="12.5" style="stroke:#181818;stroke-width:0.5;" width="945.9415" x="7" y="7"/><line style="stroke:#181818;stroke-width:0.5;" x1="7" x2="952.9415" y1="33.2969" y2="33.2969"/><text fill="#000000" font-family="sans-serif" font-size="14" lengthAdjust="spacing" textLength="141.6611" x="409.1402" y="24.9951">exportarPreguntas()</text><g id="exportarPreguntas.RequiringExport"><rect fill="#F1F1F1" height="50" rx="12.5" ry="12.5" style="stroke:#181818;stroke-width:0.5;" width="50" x="312.9415" y="135.2969"/><line style="stroke:#181818;stroke-width:0.5;" x1="312.9415" x2="362.9415" y1="161.5938" y2="161.5938"/><text fill="#000000" font-family="sans-serif" font-size="14" lengthAdjust="spacing" textLength="4.4502" x="335.7164" y="153.292">&#160;</text></g><g id="exportarPreguntas.ProvidingPreguntas"><rect fill="#F1F1F1" height="50" rx="12.5" ry="12.5" style="stroke:#181818;stroke-width:0.5;" width="50" x="312.9415" y="271.2969"/><line style="stroke:#181818;stroke-width:0.5;" x1="312.9415" x2="362.9415" y1="297.5938" y2="297.5938"/><text fill="#000000" font-family="sans-serif" font-size="14" lengthAdjust="spacing" textLength="4.4502" x="335.7164" y="289.292">&#160;</text></g><g id="exportarPreguntas.ProvidingConfirmation"><rect fill="#F1F1F1" height="50" rx="12.5" ry="12.5" style="stroke:#181818;stroke-width:0.5;" width="50" x="26.9415" y="392.2969"/><line style="stroke:#181818;stroke-width:0.5;" x1="26.9415" x2="76.9415" y1="418.5938" y2="418.5938"/><text fill="#000000" font-family="sans-serif" font-size="14" lengthAdjust="spacing" textLength="4.4502" x="49.7164" y="410.292">&#160;</text></g><g class="entity" data-entity="c" data-uid="ent0006" id="entity_c"><polygon fill="#F1F1F1" points="337.9415,543.2969,349.9415,555.2969,337.9415,567.2969,325.9415,555.2969,337.9415,543.2969" style="stroke:#181818;stroke-width:0.5;"/></g><ellipse cx="337.9415" cy="54.2969" fill="#222222" rx="10" ry="10" style="stroke:#222222;stroke-width:1;"/><ellipse cx="337.9415" cy="649.2969" fill="none" rx="11" ry="11" style="stroke:#222222;stroke-width:1;"/><ellipse cx="337.9415" cy="649.2969" fill="#222222" rx="6" ry="6" style="stroke:#222222;stroke-width:1;"/><!--link *start*exportarPreguntas to RequiringExport--><g class="link" data-entity-1=".start.exportarPreguntas" data-entity-2="RequiringExport" data-source-line="10" data-uid="lnk3" id="link_.start.exportarPreguntas_RequiringExport"><path d="M337.9415,64.5269 C337.9415,80.2369 337.9415,106.6569 337.9415,129.1669" fill="none" id="*start*exportarPreguntas-to-RequiringExport" style="stroke:#008000;stroke-width:1;"/><polygon fill="#008000" points="337.9415,135.1669,341.9415,126.1669,337.9415,130.1669,333.9415,126.1669,337.9415,135.1669" style="stroke:#008000;stroke-width:1;"/><path d="M342.9415,87.2969 L342.9415,112.2969 L603.9415,112.2969 L603.9415,97.2969 L593.9415,87.2969 L342.9415,87.2969" fill="#FEFFDD" style="stroke:#181818;stroke-width:0.5;"/><path d="M593.9415,87.2969 L593.9415,97.2969 L603.9415,97.2969 L593.9415,87.2969" fill="#FEFFDD" style="stroke:#181818;stroke-width:0.5;"/><text fill="#000000" font-family="sans-serif" font-size="13" font-weight="bold" lengthAdjust="spacing" textLength="60.5313" x="348.9415" y="104.3638">Docente</text><text fill="#000000" font-family="sans-serif" font-size="13" lengthAdjust="spacing" textLength="175.8491" x="413.6051" y="104.3638">solicita exportar preguntas</text></g><!--link RequiringExport to ProvidingPreguntas--><g class="link" data-entity-1="RequiringExport" data-entity-2="ProvidingPreguntas" data-source-line="15" data-uid="lnk4" id="link_RequiringExport_ProvidingPreguntas"><path d="M337.9415,185.5669 C337.9415,209.8469 337.9415,240.9869 337.9415,265.2069" fill="none" id="RequiringExport-to-ProvidingPreguntas" style="stroke:#008000;stroke-width:1;"/><polygon fill="#008000" points="337.9415,271.2069,341.9415,262.2069,337.9415,266.2069,333.9415,262.2069,337.9415,271.2069" style="stroke:#008000;stroke-width:1;"/><path d="M342.9415,208.2969 L342.9415,248.2969 L543.9415,248.2969 L543.9415,218.2969 L533.9415,208.2969 L342.9415,208.2969" fill="#FEFFDD" style="stroke:#181818;stroke-width:0.5;"/><path d="M533.9415,208.2969 L533.9415,218.2969 L543.9415,218.2969 L533.9415,208.2969" fill="#FEFFDD" style="stroke:#181818;stroke-width:0.5;"/><text fill="#000000" font-family="sans-serif" font-size="13" font-weight="bold" lengthAdjust="spacing" textLength="58.9063" x="348.9415" y="225.3638">Sistema</text><text fill="#000000" font-family="sans-serif" font-size="13" lengthAdjust="spacing" textLength="117.9395" x="411.9801" y="225.3638">permite introducir</text><text fill="#000000" font-family="sans-serif" font-size="13" lengthAdjust="spacing" textLength="149.8428" x="348.9415" y="240.4966">&#8226; preguntas a exportar</text></g><!--link ProvidingPreguntas to ProvidingConfirmation--><g class="link" data-entity-1="ProvidingPreguntas" data-entity-2="ProvidingConfirmation" data-source-line="21" data-uid="lnk5" id="link_ProvidingPreguntas_ProvidingConfirmation"><path d="M312.5915,300.6969 C238.0815,310.6969 24.9415,339.2969 24.9415,339.2969 C24.9415,339.2969 24.9415,374.2969 24.9415,374.2969 C24.9415,374.2969 27.047,377.5798 32.987,386.8198" fill="none" id="ProvidingPreguntas-to-ProvidingConfirmation" style="stroke:#008000;stroke-width:1;"/><polygon fill="#008000" points="36.2315,391.8669,34.7294,382.1332,33.5277,387.661,28,386.4593,36.2315,391.8669" style="stroke:#008000;stroke-width:1;"/><path d="M29.9415,344.2969 L29.9415,369.2969 L318.9415,369.2969 L318.9415,354.2969 L308.9415,344.2969 L29.9415,344.2969" fill="#FEFFDD" style="stroke:#181818;stroke-width:0.5;"/><path d="M308.9415,344.2969 L308.9415,354.2969 L318.9415,354.2969 L308.9415,344.2969" fill="#FEFFDD" style="stroke:#181818;stroke-width:0.5;"/><text fill="#000000" font-family="sans-serif" font-size="13" font-weight="bold" lengthAdjust="spacing" textLength="60.5313" x="35.9415" y="361.3638">Docente</text><text fill="#000000" font-family="sans-serif" font-size="13" lengthAdjust="spacing" textLength="204.0581" x="100.6051" y="361.3638">introduce preguntas a exportar</text></g><!--link ProvidingConfirmation to c--><g class="link" data-entity-1="ProvidingConfirmation" data-entity-2="c" data-source-line="26" data-uid="lnk6" id="link_ProvidingConfirmation_c"><path d="M71.2315,442.5769 C96.3115,474.1469 136.9415,525.2969 136.9415,525.2969 C136.9415,525.2969 281.473,546.1504 322.033,552.0004" fill="none" id="ProvidingConfirmation-to-c" style="stroke:#008000;stroke-width:1;"/><polygon fill="#008000" points="327.9715,552.8569,319.6347,547.6131,323.0227,552.1431,318.4927,555.5311,327.9715,552.8569" style="stroke:#008000;stroke-width:1;"/><path d="M141.9415,465.2969 L141.9415,520.2969 L318.9415,520.2969 L318.9415,475.2969 L308.9415,465.2969 L141.9415,465.2969" fill="#FEFFDD" style="stroke:#181818;stroke-width:0.5;"/><path d="M308.9415,465.2969 L308.9415,475.2969 L318.9415,475.2969 L308.9415,465.2969" fill="#FEFFDD" style="stroke:#181818;stroke-width:0.5;"/><text fill="#000000" font-family="sans-serif" font-size="13" font-weight="bold" lengthAdjust="spacing" textLength="60.5313" x="147.9415" y="482.3638">Docente</text><text fill="#000000" font-family="sans-serif" font-size="13" lengthAdjust="spacing" textLength="45.7729" x="212.6051" y="482.3638">solicita</text><text fill="#000000" font-family="sans-serif" font-size="13" lengthAdjust="spacing" textLength="156.0381" x="147.9415" y="497.4966">&#8226; confirmar exportaci&#243;n</text><text fill="#000000" font-family="sans-serif" font-size="13" lengthAdjust="spacing" textLength="148.6113" x="147.9415" y="512.6294">&#8226; cancelar exportaci&#243;n</text></g><!--link c to ProvidingPreguntas--><g class="link" data-entity-1="c" data-entity-2="ProvidingPreguntas" data-source-line="33" data-uid="lnk7" id="link_c_ProvidingPreguntas"><path d="M337.9415,542.7069 C337.9415,503.4969 337.9415,381.3269 337.9415,327.4769" fill="none" id="c-to-ProvidingPreguntas" style="stroke:#FF0000;stroke-width:1;"/><polygon fill="#FF0000" points="337.9415,321.4769,333.9415,330.4769,337.9415,326.4769,341.9415,330.4769,337.9415,321.4769" style="stroke:#FF0000;stroke-width:1;"/><path d="M342.9415,404.7969 L342.9415,429.7969 L553.9415,429.7969 L553.9415,414.7969 L543.9415,404.7969 L342.9415,404.7969" fill="#FEFFDD" style="stroke:#181818;stroke-width:0.5;"/><path d="M543.9415,404.7969 L543.9415,414.7969 L553.9415,414.7969 L543.9415,404.7969" fill="#FEFFDD" style="stroke:#181818;stroke-width:0.5;"/><text fill="#000000" font-family="sans-serif" font-size="13" lengthAdjust="spacing" textLength="190.0425" x="348.9415" y="421.8638">Docente cancela exportaci&#243;n</text></g><!--link c to ProvidingPreguntas--><g class="link" data-entity-1="c" data-entity-2="ProvidingPreguntas" data-source-line="38" data-uid="lnk8" id="link_c_ProvidingPreguntas"><path d="M345.6915,550.4369 C385.2515,530.7469 562.9415,442.2969 562.9415,442.2969 C562.9415,442.2969 562.9415,392.2969 562.9415,392.2969 C562.9415,392.2969 427.689,335.1909 368.839,310.3409" fill="none" id="c-to-ProvidingPreguntas-1" style="stroke:#FF0000;stroke-width:1;"/><polygon fill="#FF0000" points="363.3115,308.0069,370.0467,315.1928,367.9177,309.9519,373.1587,307.8229,363.3115,308.0069" style="stroke:#FF0000;stroke-width:1;"/><path d="M567.9415,404.7969 L567.9415,429.7969 L943.9415,429.7969 L943.9415,414.7969 L933.9415,404.7969 L567.9415,404.7969" fill="#FEFFDD" style="stroke:#181818;stroke-width:0.5;"/><path d="M933.9415,404.7969 L933.9415,414.7969 L943.9415,414.7969 L933.9415,404.7969" fill="#FEFFDD" style="stroke:#181818;stroke-width:0.5;"/><text fill="#000000" font-family="sans-serif" font-size="13" lengthAdjust="spacing" textLength="355.437" x="573.9415" y="421.8638">Docente confirma exportaci&#243;n: error en la exportaci&#243;n</text></g><!--link c to *end*exportarPreguntas--><g class="link" data-entity-1="c" data-entity-2=".end.exportarPreguntas" data-source-line="43" data-uid="lnk10" id="link_c_.end.exportarPreguntas"><path d="M337.9415,567.9469 C337.9415,586.0369 337.9415,614.5669 337.9415,631.8769" fill="none" id="c-to-*end*exportarPreguntas" style="stroke:#008000;stroke-width:1;"/><polygon fill="#008000" points="337.9415,637.8769,341.9415,628.8769,337.9415,632.8769,333.9415,628.8769,337.9415,637.8769" style="stroke:#008000;stroke-width:1;"/><path d="M342.9415,590.2969 L342.9415,615.2969 L697.9415,615.2969 L697.9415,600.2969 L687.9415,590.2969 L342.9415,590.2969" fill="#FEFFDD" style="stroke:#181818;stroke-width:0.5;"/><path d="M687.9415,590.2969 L687.9415,600.2969 L697.9415,600.2969 L687.9415,590.2969" fill="#FEFFDD" style="stroke:#181818;stroke-width:0.5;"/><text fill="#000000" font-family="sans-serif" font-size="13" lengthAdjust="spacing" textLength="334.4644" x="348.9415" y="607.3638">Docente confirma exportaci&#243;n: exportaci&#243;n exitosa</text></g><g id="PREGUNTAS_ABIERTO"><rect fill="#F1F1F1" height="50" rx="12.5" ry="12.5" style="stroke:#181818;stroke-width:0.5;" width="174.0547" x="392.94" y="730.3"/><line style="stroke:#181818;stroke-width:0.5;" x1="392.94" x2="566.9947" y1="756.5969" y2="756.5969"/><text fill="#000000" font-family="sans-serif" font-size="14" lengthAdjust="spacing" textLength="154.0547" x="402.94" y="748.2951">PREGUNTAS_ABIERTO</text></g><!--link PREGUNTAS_ABIERTO to exportarPreguntas--><g class="link" data-entity-1="PREGUNTAS_ABIERTO" data-entity-2="exportarPreguntas" data-source-line="49" data-uid="lnk12" id="link_PREGUNTAS_ABIERTO_exportarPreguntas"><path d="M486.73,730.12 C488.54,715.34 489.723,700.6341 490.803,676.3841" fill="none" id="PREGUNTAS_ABIERTO-to-exportarPreguntas" style="stroke:#008000;stroke-width:1;"/><polygon fill="#008000" points="491.07,670.39,486.6735,679.2031,490.8475,675.385,494.6656,679.5591,491.07,670.39" style="stroke:#008000;stroke-width:1;"/></g><!--link exportarPreguntas to PREGUNTAS_ABIERTO--><g class="link" data-entity-1="exportarPreguntas" data-entity-2="PREGUNTAS_ABIERTO" data-source-line="50" data-uid="lnk13" id="link_exportarPreguntas_PREGUNTAS_ABIERTO"><path d="M469.49,670.39 C470.51,694.64 471.1804,709.3798 472.8904,724.1598" fill="none" id="exportarPreguntas-to-PREGUNTAS_ABIERTO" style="stroke:#008000;stroke-width:1;"/><polygon fill="#008000" points="473.58,730.12,476.5191,720.7199,473.0053,725.1531,468.5721,721.6394,473.58,730.12" style="stroke:#008000;stroke-width:1;"/></g><!--SRC=[jPHDJiCm48NtFeLLDe1KiKTHf08LOWDLMrPLXLndAACcup1n4HL2uYnSWIDm4qw2cwHftOIV8k5aO_lDl6_6YRCPKgfO9J960hj8GQOcNYmdGcHMMP3mc1gsYdiCqpbPbKdtjcgh-mSj-II4TAE8Qxd7AVjmFqT6cdRpYBgWn-O18oUeKdsZEJLqYvmeYuOsP5e6WRupg24C2uRHuLYsHtjJ1g1nEsp48ED23IrBd-KBmIGyCnh8Gd0q2MLcOjHeLTK2cNg8G56Hmut2TSl58_YYpYQ80MOM4fL3fC09EWcIPHFDDNAk-dXvNTF8DQ87La3LZPkvQhtzgJyh9DYPPDFAWz4x7KpL2LtcuvMxnlStMcyhqX0txVfyUid24EroN2NNokDVBSegFOzZ2Sp6bUO2VkTUDTlz8typt9Yv2LgJAT_iMOXUltj-VJdi36uw9nVT_l3AiwvT7w9-pNWVwNQsJm00]--></g></svg>