<svg xmlns="http://www.w3.org/2000/svg" xmlns:xlink="http://www.w3.org/1999/xlink" contentStyleType="text/css" data-diagram-type="STATE" height="696px" preserveAspectRatio="none" style="width:539px;height:696px;background:#FFFFFF;" version="1.1" viewBox="0 0 539 696" width="539px" zoomAndPan="magnify"><defs/><g><path d="M84,7 L468,7 A12.5,12.5 0 0 1 480.5,19.5 L480.5,33.2969 L71.5,33.2969 L71.5,19.5 A12.5,12.5 0 0 1 84,7" fill="#F1F1F1"/><rect fill="none" height="538.2969" rx="12.5" ry="12.5" style="stroke:#181818;stroke-width:0.5;" width="409" x="71.5" y="7"/><line style="stroke:#181818;stroke-width:0.5;" x1="71.5" x2="480.5" y1="33.2969" y2="33.2969"/><text fill="#000000" font-family="sans-serif" font-size="14" lengthAdjust="spacing" textLength="110.6875" x="220.6563" y="24.9951">eliminarGrado()</text><g id="eliminarGrado.ConfirmandoEliminacion"><rect fill="#F1F1F1" height="50" rx="12.5" ry="12.5" style="stroke:#181818;stroke-width:0.5;" width="50" x="83.5" y="135.2969"/><line style="stroke:#181818;stroke-width:0.5;" x1="83.5" x2="133.5" y1="161.5938" y2="161.5938"/><text fill="#000000" font-family="sans-serif" font-size="14" lengthAdjust="spacing" textLength="4.4502" x="106.2749" y="153.292">&#160;</text></g><g id="eliminarGrado.EliminandoGrado"><rect fill="#F1F1F1" height="50" rx="12.5" ry="12.5" style="stroke:#181818;stroke-width:0.5;" width="50" x="83.5" y="362.2969"/><line style="stroke:#181818;stroke-width:0.5;" x1="83.5" x2="133.5" y1="388.5938" y2="388.5938"/><text fill="#000000" font-family="sans-serif" font-size="14" lengthAdjust="spacing" textLength="4.4502" x="106.2749" y="380.292">&#160;</text></g><ellipse cx="108.5" cy="54.2969" fill="#222222" rx="10" ry="10" style="stroke:#222222;stroke-width:1;"/><ellipse cx="108.5" cy="524.2969" fill="none" rx="11" ry="11" style="stroke:#222222;stroke-width:1;"/><ellipse cx="108.5" cy="524.2969" fill="#222222" rx="6" ry="6" style="stroke:#222222;stroke-width:1;"/><!--link *start*eliminarGrado to ConfirmandoEliminacion--><g class="link" data-entity-1=".start.eliminarGrado" data-entity-2="ConfirmandoEliminacion" data-source-line="8" data-uid="lnk3" id="link_.start.eliminarGrado_ConfirmandoEliminacion"><path d="M108.5,64.5269 C108.5,80.2369 108.5,106.6569 108.5,129.1669" fill="none" id="*start*eliminarGrado-to-ConfirmandoEliminacion" style="stroke:#008000;stroke-width:1;"/><polygon fill="#008000" points="108.5,135.1669,112.5,126.1669,108.5,130.1669,104.5,126.1669,108.5,135.1669" style="stroke:#008000;stroke-width:1;"/><path d="M113.5,87.2969 L113.5,112.2969 L343.5,112.2969 L343.5,97.2969 L333.5,87.2969 L113.5,87.2969" fill="#FEFFDD" style="stroke:#181818;stroke-width:0.5;"/><path d="M333.5,87.2969 L333.5,97.2969 L343.5,97.2969 L333.5,87.2969" fill="#FEFFDD" style="stroke:#181818;stroke-width:0.5;"/><text fill="#000000" font-family="sans-serif" font-size="13" font-weight="bold" lengthAdjust="spacing" textLength="60.5313" x="119.5" y="104.3638">Docente</text><text fill="#000000" font-family="sans-serif" font-size="13" lengthAdjust="spacing" textLength="144.8535" x="184.1636" y="104.3638">solicita eliminar grado</text></g><!--link ConfirmandoEliminacion to EliminandoGrado--><g class="link" data-entity-1="ConfirmandoEliminacion" data-entity-2="EliminandoGrado" data-source-line="13" data-uid="lnk4" id="link_ConfirmandoEliminacion_EliminandoGrado"><path d="M108.5,185.3769 C108.5,228.5669 108.5,312.7369 108.5,356.0469" fill="none" id="ConfirmandoEliminacion-to-EliminandoGrado" style="stroke:#008000;stroke-width:1;"/><polygon fill="#008000" points="108.5,362.0469,112.5,353.0469,108.5,357.0469,104.5,353.0469,108.5,362.0469" style="stroke:#008000;stroke-width:1;"/><path d="M113.5,208.2969 L113.5,339.2969 L471.5,339.2969 L471.5,218.2969 L461.5,208.2969 L113.5,208.2969" fill="#FEFFDD" style="stroke:#181818;stroke-width:0.5;"/><path d="M461.5,208.2969 L461.5,218.2969 L471.5,218.2969 L461.5,208.2969" fill="#FEFFDD" style="stroke:#181818;stroke-width:0.5;"/><text fill="#000000" font-family="sans-serif" font-size="13" font-weight="bold" lengthAdjust="spacing" textLength="58.9063" x="119.5" y="225.3638">Sistema</text><text fill="#000000" font-family="sans-serif" font-size="13" lengthAdjust="spacing" textLength="274.2822" x="182.5386" y="225.3638">presenta informaci&#243;n del grado a eliminar</text><text fill="#000000" font-family="sans-serif" font-size="13" lengthAdjust="spacing" textLength="63.7368" x="119.5" y="240.4966">&#8226; Nombre</text><text fill="#000000" font-family="sans-serif" font-size="13" lengthAdjust="spacing" textLength="56.9004" x="119.5" y="255.6294">&#8226; C&#243;digo</text><text fill="#000000" font-family="sans-serif" font-size="13" lengthAdjust="spacing" textLength="138.582" x="119.5" y="270.7622">&#8226; Alumnos enlistados</text><text fill="#000000" font-family="sans-serif" font-size="13" lengthAdjust="spacing" textLength="4.1323" x="119.5" y="285.895">&#160;</text><text fill="#000000" font-family="sans-serif" font-size="13" lengthAdjust="spacing" textLength="249.6724" x="119.5" y="301.0278">&#8226; Presenta advertencia de eliminaci&#243;n</text><text fill="#000000" font-family="sans-serif" font-size="13" lengthAdjust="spacing" textLength="263.3706" x="119.5" y="316.1606">&#8226; Permite solicitar confirmar eliminaci&#243;n</text><text fill="#000000" font-family="sans-serif" font-size="13" lengthAdjust="spacing" textLength="255.9438" x="119.5" y="331.2935">&#8226; Permite solicitar cancelar eliminaci&#243;n</text></g><!--link EliminandoGrado to *end*eliminarGrado--><g class="link" data-entity-1="EliminandoGrado" data-entity-2=".end.eliminarGrado" data-source-line="25" data-uid="lnk6" id="link_EliminandoGrado_.end.eliminarGrado"><path d="M108.5,412.7469 C108.5,442.5269 108.5,485.5069 108.5,506.8369" fill="none" id="EliminandoGrado-to-*end*eliminarGrado" style="stroke:#008000;stroke-width:1;"/><polygon fill="#008000" points="108.5,512.8369,112.5,503.8369,108.5,507.8369,104.5,503.8369,108.5,512.8369" style="stroke:#008000;stroke-width:1;"/><path d="M113.5,435.2969 L113.5,490.2969 L449.5,490.2969 L449.5,445.2969 L439.5,435.2969 L113.5,435.2969" fill="#FEFFDD" style="stroke:#181818;stroke-width:0.5;"/><path d="M439.5,435.2969 L439.5,445.2969 L449.5,445.2969 L439.5,435.2969" fill="#FEFFDD" style="stroke:#181818;stroke-width:0.5;"/><text fill="#000000" font-family="sans-serif" font-size="13" font-weight="bold" lengthAdjust="spacing" textLength="60.5313" x="119.5" y="452.3638">Docente</text><text fill="#000000" font-family="sans-serif" font-size="13" lengthAdjust="spacing" textLength="233.5303" x="184.1636" y="452.3638">solicita confirmaci&#243;n de eliminaci&#243;n</text><text fill="#000000" font-family="sans-serif" font-size="13" font-weight="bold" lengthAdjust="spacing" textLength="58.9063" x="119.5" y="467.4966">Sistema</text><text fill="#000000" font-family="sans-serif" font-size="13" lengthAdjust="spacing" textLength="251.9829" x="182.5386" y="467.4966">permite solicitar confirmar eliminaci&#243;n</text><text fill="#000000" font-family="sans-serif" font-size="13" font-weight="bold" lengthAdjust="spacing" textLength="69.4624" x="119.5" y="482.6294">Doocente</text><text fill="#000000" font-family="sans-serif" font-size="13" lengthAdjust="spacing" textLength="191.5405" x="193.0947" y="482.6294">solicita confirmar eliminaci&#243;n</text></g><g id="GRADOS_ABIERTO"><rect fill="#F1F1F1" height="50" rx="12.5" ry="12.5" style="stroke:#181818;stroke-width:0.5;" width="149.2949" x="201.35" y="640.3"/><line style="stroke:#181818;stroke-width:0.5;" x1="201.35" x2="350.6449" y1="666.5969" y2="666.5969"/><text fill="#000000" font-family="sans-serif" font-size="14" lengthAdjust="spacing" textLength="129.2949" x="211.35" y="658.2951">GRADOS_ABIERTO</text></g><!--link GRADOS_ABIERTO to eliminarGrado--><g class="link" data-entity-1="GRADOS_ABIERTO" data-entity-2="eliminarGrado" data-source-line="33" data-uid="lnk8" id="link_GRADOS_ABIERTO_eliminarGrado"><path d="M351.08,648.46 C426.62,632.53 532,610.3 532,610.3 C532,610.3 532,575.3 532,575.3 C532,575.3 514.8089,555.272 484.7189,520.232" fill="none" id="GRADOS_ABIERTO-to-eliminarGrado" style="stroke:#008000;stroke-width:1;"/><polygon fill="#008000" points="480.81,515.68,483.6387,525.1139,484.0674,519.4733,489.708,519.902,480.81,515.68" style="stroke:#008000;stroke-width:1;"/></g><!--link eliminarGrado to GRADOS_ABIERTO--><g class="link" data-entity-1="eliminarGrado" data-entity-2="GRADOS_ABIERTO" data-source-line="35" data-uid="lnk9" id="link_eliminarGrado_GRADOS_ABIERTO"><path d="M71.02,503.51 C33.53,544.9 6,575.3 6,575.3 C6,575.3 6,610.3 6,610.3 C6,610.3 115.3565,632.1734 195.2665,648.1534" fill="none" id="eliminarGrado-to-GRADOS_ABIERTO" style="stroke:#008000;stroke-width:1;"/><polygon fill="#008000" points="201.15,649.33,193.1091,643.6428,196.2471,648.3495,191.5404,651.4875,201.15,649.33" style="stroke:#008000;stroke-width:1;"/><path d="M11,580.3 L11,605.3 L228,605.3 L228,590.3 L218,580.3 L11,580.3" fill="#FEFFDD" style="stroke:#181818;stroke-width:0.5;"/><path d="M218,580.3 L218,590.3 L228,590.3 L218,580.3" fill="#FEFFDD" style="stroke:#181818;stroke-width:0.5;"/><text fill="#000000" font-family="sans-serif" font-size="13" lengthAdjust="spacing" textLength="196.3394" x="17" y="597.3669">verGrados() - lista actualizada</text></g><!--link eliminarGrado to GRADOS_ABIERTO--><g class="link" data-entity-1="eliminarGrado" data-entity-2="GRADOS_ABIERTO" data-source-line="40" data-uid="lnk10" id="link_eliminarGrado_GRADOS_ABIERTO"><path d="M269.7,545.62 C269.27,563.93 269,575.3 269,575.3 C269,575.3 269,610.3 269,610.3 C269,610.3 270.2097,619.5897 272.0597,633.8797" fill="none" id="eliminarGrado-to-GRADOS_ABIERTO-1" style="stroke:#0000FF;stroke-width:1;"/><polygon fill="#0000FF" points="272.83,639.83,275.6414,630.3909,272.1881,634.8714,267.7076,631.418,272.83,639.83" style="stroke:#0000FF;stroke-width:1;"/><path d="M274,580.3 L274,605.3 L519,605.3 L519,590.3 L509,580.3 L274,580.3" fill="#FEFFDD" style="stroke:#181818;stroke-width:0.5;"/><path d="M509,580.3 L509,590.3 L519,590.3 L509,580.3" fill="#FEFFDD" style="stroke:#181818;stroke-width:0.5;"/><text fill="#000000" font-family="sans-serif" font-size="13" lengthAdjust="spacing" textLength="224.707" x="280" y="597.3669">verGrados() - cancelar eliminaci&#243;n</text></g><!--SRC=[bLDHQW8n4FtFAGRxemNf1KImAjAVMhH_8cKsEqemErcIjM1BeMVf5Jo2D-b96hEkDcgbRhwIl7dlpPkDMoZEqM86MZ4LgvmWDtgrtGZX2Ym8IAjCCTg1nTG0EgX59_L63Tw50F-L-9fV7jKrF5CsGqvDlyHBPVWKjxlqi41NCarkfz2StCmj4K-RxKjaR3oNuQt_HJXe9UsUaSG5jUwIDZYZbLG5xlk0UT3PGedJK5-AdXU9V1oR_Sl0MBc2CWm6SalEkq5GF3EUNghDcY4bNHg1WxDG_Vtv1OycIop1Vj_Th5CrD_jzHoypDixxrrx8apYnltkgv31z9LiGIuLUhH89wWSmsKnv-rL85kGk1Fll0cH9-Xm-JlSekYXMF-xhPbcvhB8y5JyUmZMD1jLBifUQ_H1YCEhqXkENplr3V_GyZ3gDdeuGyTlw3OmvH9ICdsieSFK6D27y0e2oMA9MRvYYE0H_mf_e9Lr7Vtw-bSGF]--></g></svg>