<svg xmlns="http://www.w3.org/2000/svg" xmlns:xlink="http://www.w3.org/1999/xlink" contentStyleType="text/css" data-diagram-type="STATE" height="681px" preserveAspectRatio="none" style="width:429px;height:681px;background:#FFFFFF;" version="1.1" viewBox="0 0 429 681" width="429px" zoomAndPan="magnify"><defs/><g><path d="M19.5,7 L403.5,7 A12.5,12.5 0 0 1 416,19.5 L416,33.2969 L7,33.2969 L7,19.5 A12.5,12.5 0 0 1 19.5,7" fill="#F1F1F1"/><rect fill="none" height="523.2969" rx="12.5" ry="12.5" style="stroke:#181818;stroke-width:0.5;" width="409" x="7" y="7"/><line style="stroke:#181818;stroke-width:0.5;" x1="7" x2="416" y1="33.2969" y2="33.2969"/><text fill="#000000" font-family="sans-serif" font-size="14" lengthAdjust="spacing" textLength="110.6875" x="156.1563" y="24.9951">eliminarGrado()</text><g id="eliminarGrado.ConfirmandoEliminacion"><rect fill="#F1F1F1" height="50" rx="12.5" ry="12.5" style="stroke:#181818;stroke-width:0.5;" width="50" x="19" y="135.2969"/><line style="stroke:#181818;stroke-width:0.5;" x1="19" x2="69" y1="161.5938" y2="161.5938"/><text fill="#000000" font-family="sans-serif" font-size="14" lengthAdjust="spacing" textLength="4.4502" x="41.7749" y="153.292">&#160;</text></g><g id="eliminarGrado.EliminandoGrado"><rect fill="#F1F1F1" height="50" rx="12.5" ry="12.5" style="stroke:#181818;stroke-width:0.5;" width="50" x="19" y="362.2969"/><line style="stroke:#181818;stroke-width:0.5;" x1="19" x2="69" y1="388.5938" y2="388.5938"/><text fill="#000000" font-family="sans-serif" font-size="14" lengthAdjust="spacing" textLength="4.4502" x="41.7749" y="380.292">&#160;</text></g><ellipse cx="44" cy="54.2969" fill="#222222" rx="10" ry="10" style="stroke:#222222;stroke-width:1;"/><ellipse cx="44" cy="509.2969" fill="none" rx="11" ry="11" style="stroke:#222222;stroke-width:1;"/><ellipse cx="44" cy="509.2969" fill="#222222" rx="6" ry="6" style="stroke:#222222;stroke-width:1;"/><!--link *start*eliminarGrado to ConfirmandoEliminacion--><g class="link" data-entity-1=".start.eliminarGrado" data-entity-2="ConfirmandoEliminacion" data-source-line="8" data-uid="lnk3" id="link_.start.eliminarGrado_ConfirmandoEliminacion"><path d="M44,64.5269 C44,80.2369 44,106.6569 44,129.1669" fill="none" id="*start*eliminarGrado-to-ConfirmandoEliminacion" style="stroke:#008000;stroke-width:1;"/><polygon fill="#008000" points="44,135.1669,48,126.1669,44,130.1669,40,126.1669,44,135.1669" style="stroke:#008000;stroke-width:1;"/><path d="M49,87.2969 L49,112.2969 L279,112.2969 L279,97.2969 L269,87.2969 L49,87.2969" fill="#FEFFDD" style="stroke:#181818;stroke-width:0.5;"/><path d="M269,87.2969 L269,97.2969 L279,97.2969 L269,87.2969" fill="#FEFFDD" style="stroke:#181818;stroke-width:0.5;"/><text fill="#000000" font-family="sans-serif" font-size="13" font-weight="bold" lengthAdjust="spacing" textLength="60.5313" x="55" y="104.3638">Docente</text><text fill="#000000" font-family="sans-serif" font-size="13" lengthAdjust="spacing" textLength="144.8535" x="119.6636" y="104.3638">solicita eliminar grado</text></g><!--link ConfirmandoEliminacion to EliminandoGrado--><g class="link" data-entity-1="ConfirmandoEliminacion" data-entity-2="EliminandoGrado" data-source-line="13" data-uid="lnk4" id="link_ConfirmandoEliminacion_EliminandoGrado"><path d="M44,185.3769 C44,228.5669 44,312.7369 44,356.0469" fill="none" id="ConfirmandoEliminacion-to-EliminandoGrado" style="stroke:#008000;stroke-width:1;"/><polygon fill="#008000" points="44,362.0469,48,353.0469,44,357.0469,40,353.0469,44,362.0469" style="stroke:#008000;stroke-width:1;"/><path d="M49,208.2969 L49,339.2969 L407,339.2969 L407,218.2969 L397,208.2969 L49,208.2969" fill="#FEFFDD" style="stroke:#181818;stroke-width:0.5;"/><path d="M397,208.2969 L397,218.2969 L407,218.2969 L397,208.2969" fill="#FEFFDD" style="stroke:#181818;stroke-width:0.5;"/><text fill="#000000" font-family="sans-serif" font-size="13" font-weight="bold" lengthAdjust="spacing" textLength="58.9063" x="55" y="225.3638">Sistema</text><text fill="#000000" font-family="sans-serif" font-size="13" lengthAdjust="spacing" textLength="274.2822" x="118.0386" y="225.3638">presenta informaci&#243;n del grado a eliminar</text><text fill="#000000" font-family="sans-serif" font-size="13" lengthAdjust="spacing" textLength="63.7368" x="55" y="240.4966">&#8226; Nombre</text><text fill="#000000" font-family="sans-serif" font-size="13" lengthAdjust="spacing" textLength="56.9004" x="55" y="255.6294">&#8226; C&#243;digo</text><text fill="#000000" font-family="sans-serif" font-size="13" lengthAdjust="spacing" textLength="138.582" x="55" y="270.7622">&#8226; Alumnos enlistados</text><text fill="#000000" font-family="sans-serif" font-size="13" lengthAdjust="spacing" textLength="4.1323" x="55" y="285.895">&#160;</text><text fill="#000000" font-family="sans-serif" font-size="13" lengthAdjust="spacing" textLength="249.6724" x="55" y="301.0278">&#8226; Presenta advertencia de eliminaci&#243;n</text><text fill="#000000" font-family="sans-serif" font-size="13" lengthAdjust="spacing" textLength="263.3706" x="55" y="316.1606">&#8226; Permite solicitar confirmar eliminaci&#243;n</text><text fill="#000000" font-family="sans-serif" font-size="13" lengthAdjust="spacing" textLength="255.9438" x="55" y="331.2935">&#8226; Permite solicitar cancelar eliminaci&#243;n</text></g><!--link EliminandoGrado to *end*eliminarGrado--><g class="link" data-entity-1="EliminandoGrado" data-entity-2=".end.eliminarGrado" data-source-line="25" data-uid="lnk6" id="link_EliminandoGrado_.end.eliminarGrado"><path d="M44,412.5769 C44,438.8769 44,473.5669 44,492.2769" fill="none" id="EliminandoGrado-to-*end*eliminarGrado" style="stroke:#008000;stroke-width:1;"/><polygon fill="#008000" points="44,498.2769,48,489.2769,44,493.2769,40,489.2769,44,498.2769" style="stroke:#008000;stroke-width:1;"/><path d="M49,435.2969 L49,475.2969 L368,475.2969 L368,445.2969 L358,435.2969 L49,435.2969" fill="#FEFFDD" style="stroke:#181818;stroke-width:0.5;"/><path d="M358,435.2969 L358,445.2969 L368,445.2969 L358,435.2969" fill="#FEFFDD" style="stroke:#181818;stroke-width:0.5;"/><text fill="#000000" font-family="sans-serif" font-size="13" font-weight="bold" lengthAdjust="spacing" textLength="60.5313" x="55" y="452.3638">Docente</text><text fill="#000000" font-family="sans-serif" font-size="13" lengthAdjust="spacing" textLength="233.5303" x="119.6636" y="452.3638">solicita confirmaci&#243;n de eliminaci&#243;n</text><text fill="#000000" font-family="sans-serif" font-size="13" font-weight="bold" lengthAdjust="spacing" textLength="58.9063" x="55" y="467.4966">Sistema</text><text fill="#000000" font-family="sans-serif" font-size="13" lengthAdjust="spacing" textLength="136.2905" x="118.0386" y="467.4966">confirma eliminaci&#243;n</text></g><g id="GRADOS_ABIERTO"><rect fill="#F1F1F1" height="50" rx="12.5" ry="12.5" style="stroke:#181818;stroke-width:0.5;" width="149.2949" x="137" y="625"/><line style="stroke:#181818;stroke-width:0.5;" x1="137" x2="286.2949" y1="651.2969" y2="651.2969"/><text fill="#000000" font-family="sans-serif" font-size="14" lengthAdjust="spacing" textLength="129.2949" x="147" y="642.9951">GRADOS_ABIERTO</text></g><!--link GRADOS_ABIERTO to eliminarGrado--><g class="link" data-entity-1="GRADOS_ABIERTO" data-entity-2="eliminarGrado" data-source-line="32" data-uid="lnk8" id="link_GRADOS_ABIERTO_eliminarGrado"><path d="M285.76,624.84 C329.96,610.47 377.5,595 377.5,595 C377.5,595 377.5,560 377.5,560 C377.5,560 373.8871,553.6793 363.3371,535.2193" fill="none" id="GRADOS_ABIERTO-to-eliminarGrado" style="stroke:#008000;stroke-width:1;"/><polygon fill="#008000" points="360.36,530.01,361.3528,539.8087,362.8409,534.3511,368.2986,535.8392,360.36,530.01" style="stroke:#008000;stroke-width:1;"/></g><!--link eliminarGrado to GRADOS_ABIERTO--><g class="link" data-entity-1="eliminarGrado" data-entity-2="GRADOS_ABIERTO" data-source-line="34" data-uid="lnk9" id="link_eliminarGrado_GRADOS_ABIERTO"><path d="M50.98,530.01 C39.6,548.47 32.5,560 32.5,560 C32.5,560 32.5,595 32.5,595 C32.5,595 82.0259,609.9366 131.1359,624.7566" fill="none" id="eliminarGrado-to-GRADOS_ABIERTO" style="stroke:#008000;stroke-width:1;"/><polygon fill="#008000" points="136.88,626.49,129.4194,620.0604,132.0932,625.0455,127.1082,627.7193,136.88,626.49" style="stroke:#008000;stroke-width:1;"/><path d="M37.5,565 L37.5,590 L163.5,590 L163.5,575 L153.5,565 L37.5,565" fill="#FEFFDD" style="stroke:#181818;stroke-width:0.5;"/><path d="M153.5,565 L153.5,575 L163.5,575 L153.5,565" fill="#FEFFDD" style="stroke:#181818;stroke-width:0.5;"/><text fill="#000000" font-family="sans-serif" font-size="13" lengthAdjust="spacing" textLength="105.8408" x="43.5" y="582.0669">lista actualizada</text></g><!--link eliminarGrado to GRADOS_ABIERTO--><g class="link" data-entity-1="eliminarGrado" data-entity-2="GRADOS_ABIERTO" data-source-line="39" data-uid="lnk10" id="link_eliminarGrado_GRADOS_ABIERTO"><path d="M205.22,530.01 C204.78,548.47 204.5,560 204.5,560 C204.5,560 204.5,595 204.5,595 C204.5,595 205.7257,604.5202 207.5957,618.8902" fill="none" id="eliminarGrado-to-GRADOS_ABIERTO-1" style="stroke:#0000FF;stroke-width:1;"/><polygon fill="#0000FF" points="208.37,624.84,211.1752,615.3991,207.7248,619.8818,203.242,616.4314,208.37,624.84" style="stroke:#0000FF;stroke-width:1;"/><path d="M209.5,565 L209.5,590 L364.5,590 L364.5,575 L354.5,565 L209.5,565" fill="#FEFFDD" style="stroke:#181818;stroke-width:0.5;"/><path d="M354.5,565 L354.5,575 L364.5,575 L354.5,565" fill="#FEFFDD" style="stroke:#181818;stroke-width:0.5;"/><text fill="#000000" font-family="sans-serif" font-size="13" lengthAdjust="spacing" textLength="134.2085" x="215.5" y="582.0669">cancelar eliminaci&#243;n</text></g><!--SRC=[bLDHJW8n4FtlAIRueoR42n0I14By4GF-4M9ckmDfw4utxMA2niIpU0MEm4qyYQNBBXOGTVirxPltNjzqtK9nZXOpq8gfMEK4kT6hRI64Ax0W8AqonMW75bC3wA0HxLnUDU1L2F1VYM_uvL5TmpDbC-JKz4kyL8QFSRj33mjq9TFaUWhDoSNS4l6qsJv7niPp6TxwNuIDLjBk6KbSKEicQOCpMabLO7qFc0UTBPGu3Vsbw6cHoCUXsPyCZ9KhACDW8BVal1i4nJFZwQNQh1bIqgKHs3iBtP_l7t1liiGIr7LtiqxLtDHrHoypDixxrrx8apXHdprKSfW-aos8fKAlLea4zJsORAQy_Iea2t8NWlrp0x8aVGeVftiGNHIh7_V_PbcvhB8y5ZyOGjLmnkMR48DHfpSSFtLkx_gZns5aCNhpGiG_nNTWp26YAuLf0SfYYLgzO8fYdz4HOwANz1lXwV0hqYy0]--></g></svg>