<svg xmlns="http://www.w3.org/2000/svg" xmlns:xlink="http://www.w3.org/1999/xlink" contentStyleType="text/css" data-diagram-type="STATE" height="896px" preserveAspectRatio="none" style="width:948px;height:896px;background:#FFFFFF;" version="1.1" viewBox="0 0 948 896" width="948px" zoomAndPan="magnify"><defs/><g><g id="GRADOS_ABIERTO2"><rect fill="#F1F1F1" height="50" rx="12.5" ry="12.5" style="stroke:#181818;stroke-width:0.5;" width="149.2949" x="396.5" y="840"/><line style="stroke:#181818;stroke-width:0.5;" x1="396.5" x2="545.7949" y1="866.2969" y2="866.2969"/><text fill="#000000" font-family="sans-serif" font-size="14" lengthAdjust="spacing" textLength="129.2949" x="406.5" y="857.9951">GRADOS_ABIERTO</text></g><path d="M19.5,117 L922.0194,117 A12.5,12.5 0 0 1 934.5194,129.5 L934.5194,143.2969 L7,143.2969 L7,129.5 A12.5,12.5 0 0 1 19.5,117" fill="#F1F1F1"/><rect fill="none" height="663.2969" rx="12.5" ry="12.5" style="stroke:#181818;stroke-width:0.5;" width="927.5194" x="7" y="117"/><line style="stroke:#181818;stroke-width:0.5;" x1="7" x2="934.5194" y1="143.2969" y2="143.2969"/><text fill="#000000" font-family="sans-serif" font-size="14" lengthAdjust="spacing" textLength="121.4131" x="410.0532" y="134.9951">importarGrados()</text><g id="importarGrados.RequiringImport"><rect fill="#F1F1F1" height="50" rx="12.5" ry="12.5" style="stroke:#181818;stroke-width:0.5;" width="50" x="293.5194" y="245.2969"/><line style="stroke:#181818;stroke-width:0.5;" x1="293.5194" x2="343.5194" y1="271.5938" y2="271.5938"/><text fill="#000000" font-family="sans-serif" font-size="14" lengthAdjust="spacing" textLength="4.4502" x="316.2943" y="263.292">&#160;</text></g><g id="importarGrados.ProvidingGrados"><rect fill="#F1F1F1" height="50" rx="12.5" ry="12.5" style="stroke:#181818;stroke-width:0.5;" width="50" x="293.5194" y="381.2969"/><line style="stroke:#181818;stroke-width:0.5;" x1="293.5194" x2="343.5194" y1="407.5938" y2="407.5938"/><text fill="#000000" font-family="sans-serif" font-size="14" lengthAdjust="spacing" textLength="4.4502" x="316.2943" y="399.292">&#160;</text></g><g id="importarGrados.ProvidingConfirmation"><rect fill="#F1F1F1" height="50" rx="12.5" ry="12.5" style="stroke:#181818;stroke-width:0.5;" width="50" x="23.5194" y="502.2969"/><line style="stroke:#181818;stroke-width:0.5;" x1="23.5194" x2="73.5194" y1="528.5938" y2="528.5938"/><text fill="#000000" font-family="sans-serif" font-size="14" lengthAdjust="spacing" textLength="4.4502" x="46.2943" y="520.292">&#160;</text></g><g class="entity" data-entity="c" data-uid="ent0007" id="entity_c"><polygon fill="#F1F1F1" points="318.5194,653.2969,330.5194,665.2969,318.5194,677.2969,306.5194,665.2969,318.5194,653.2969" style="stroke:#181818;stroke-width:0.5;"/></g><ellipse cx="318.5194" cy="164.2969" fill="#222222" rx="10" ry="10" style="stroke:#222222;stroke-width:1;"/><ellipse cx="318.5194" cy="759.2969" fill="none" rx="11" ry="11" style="stroke:#222222;stroke-width:1;"/><ellipse cx="318.5194" cy="759.2969" fill="#222222" rx="6" ry="6" style="stroke:#222222;stroke-width:1;"/><!--link *start*importarGrados to RequiringImport--><g class="link" data-entity-1=".start.importarGrados" data-entity-2="RequiringImport" data-source-line="12" data-uid="lnk3" id="link_.start.importarGrados_RequiringImport"><path d="M318.5194,174.5269 C318.5194,190.2369 318.5194,216.6569 318.5194,239.1669" fill="none" id="*start*importarGrados-to-RequiringImport" style="stroke:#008000;stroke-width:1;"/><polygon fill="#008000" points="318.5194,245.1669,322.5194,236.1669,318.5194,240.1669,314.5194,236.1669,318.5194,245.1669" style="stroke:#008000;stroke-width:1;"/><path d="M323.5194,197.2969 L323.5194,222.2969 L563.5194,222.2969 L563.5194,207.2969 L553.5194,197.2969 L323.5194,197.2969" fill="#FEFFDD" style="stroke:#181818;stroke-width:0.5;"/><path d="M553.5194,197.2969 L553.5194,207.2969 L563.5194,207.2969 L553.5194,197.2969" fill="#FEFFDD" style="stroke:#181818;stroke-width:0.5;"/><text fill="#000000" font-family="sans-serif" font-size="13" font-weight="bold" lengthAdjust="spacing" textLength="60.5313" x="329.5194" y="214.3638">Docente</text><text fill="#000000" font-family="sans-serif" font-size="13" lengthAdjust="spacing" textLength="154.813" x="394.183" y="214.3638">solicita importar grados</text></g><!--link RequiringImport to ProvidingGrados--><g class="link" data-entity-1="RequiringImport" data-entity-2="ProvidingGrados" data-source-line="17" data-uid="lnk4" id="link_RequiringImport_ProvidingGrados"><path d="M318.5194,295.5669 C318.5194,319.8469 318.5194,350.9869 318.5194,375.2069" fill="none" id="RequiringImport-to-ProvidingGrados" style="stroke:#008000;stroke-width:1;"/><polygon fill="#008000" points="318.5194,381.2069,322.5194,372.2069,318.5194,376.2069,314.5194,372.2069,318.5194,381.2069" style="stroke:#008000;stroke-width:1;"/><path d="M323.5194,318.2969 L323.5194,358.2969 L524.5194,358.2969 L524.5194,328.2969 L514.5194,318.2969 L323.5194,318.2969" fill="#FEFFDD" style="stroke:#181818;stroke-width:0.5;"/><path d="M514.5194,318.2969 L514.5194,328.2969 L524.5194,328.2969 L514.5194,318.2969" fill="#FEFFDD" style="stroke:#181818;stroke-width:0.5;"/><text fill="#000000" font-family="sans-serif" font-size="13" font-weight="bold" lengthAdjust="spacing" textLength="58.9063" x="329.5194" y="335.3638">Sistema</text><text fill="#000000" font-family="sans-serif" font-size="13" lengthAdjust="spacing" textLength="117.9395" x="392.558" y="335.3638">permite introducir</text><text fill="#000000" font-family="sans-serif" font-size="13" lengthAdjust="spacing" textLength="128.8066" x="329.5194" y="350.4966">&#8226; grados a importar</text></g><!--link ProvidingGrados to ProvidingConfirmation--><g class="link" data-entity-1="ProvidingGrados" data-entity-2="ProvidingConfirmation" data-source-line="23" data-uid="lnk5" id="link_ProvidingGrados_ProvidingConfirmation"><path d="M293.3694,410.9169 C222.5394,421.0969 26.5194,449.2969 26.5194,449.2969 C26.5194,449.2969 26.5194,484.2969 26.5194,484.2969 C26.5194,484.2969 28.0953,487.3119 32.9353,496.5519" fill="none" id="ProvidingGrados-to-ProvidingConfirmation" style="stroke:#008000;stroke-width:1;"/><polygon fill="#008000" points="35.7194,501.8669,35.0867,492.0384,33.3994,497.4377,28,495.7504,35.7194,501.8669" style="stroke:#008000;stroke-width:1;"/><path d="M31.5194,454.2969 L31.5194,479.2969 L299.5194,479.2969 L299.5194,464.2969 L289.5194,454.2969 L31.5194,454.2969" fill="#FEFFDD" style="stroke:#181818;stroke-width:0.5;"/><path d="M289.5194,454.2969 L289.5194,464.2969 L299.5194,464.2969 L289.5194,454.2969" fill="#FEFFDD" style="stroke:#181818;stroke-width:0.5;"/><text fill="#000000" font-family="sans-serif" font-size="13" font-weight="bold" lengthAdjust="spacing" textLength="60.5313" x="37.5194" y="471.3638">Docente</text><text fill="#000000" font-family="sans-serif" font-size="13" lengthAdjust="spacing" textLength="183.022" x="102.183" y="471.3638">introduce grados a importar</text></g><!--link ProvidingConfirmation to c--><g class="link" data-entity-1="ProvidingConfirmation" data-entity-2="c" data-source-line="28" data-uid="lnk6" id="link_ProvidingConfirmation_c"><path d="M63.9994,552.3069 C84.3494,583.8569 117.5194,635.2969 117.5194,635.2969 C117.5194,635.2969 262.7308,656.2507 302.8908,662.0407" fill="none" id="ProvidingConfirmation-to-c" style="stroke:#008000;stroke-width:1;"/><polygon fill="#008000" points="308.8294,662.8969,300.4923,657.6535,303.8806,662.1834,299.3507,665.5717,308.8294,662.8969" style="stroke:#008000;stroke-width:1;"/><path d="M122.5194,575.2969 L122.5194,630.2969 L299.5194,630.2969 L299.5194,585.2969 L289.5194,575.2969 L122.5194,575.2969" fill="#FEFFDD" style="stroke:#181818;stroke-width:0.5;"/><path d="M289.5194,575.2969 L289.5194,585.2969 L299.5194,585.2969 L289.5194,575.2969" fill="#FEFFDD" style="stroke:#181818;stroke-width:0.5;"/><text fill="#000000" font-family="sans-serif" font-size="13" font-weight="bold" lengthAdjust="spacing" textLength="60.5313" x="128.5194" y="592.3638">Docente</text><text fill="#000000" font-family="sans-serif" font-size="13" lengthAdjust="spacing" textLength="45.7729" x="193.183" y="592.3638">solicita</text><text fill="#000000" font-family="sans-serif" font-size="13" lengthAdjust="spacing" textLength="156.6221" x="128.5194" y="607.4966">&#8226; confirmar importaci&#243;n</text><text fill="#000000" font-family="sans-serif" font-size="13" lengthAdjust="spacing" textLength="149.1953" x="128.5194" y="622.6294">&#8226; cancelar importaci&#243;n</text></g><!--link c to ProvidingGrados--><g class="link" data-entity-1="c" data-entity-2="ProvidingGrados" data-source-line="35" data-uid="lnk7" id="link_c_ProvidingGrados"><path d="M318.5194,653.2469 C318.5194,614.6869 318.5194,491.5769 318.5194,437.4769" fill="none" id="c-to-ProvidingGrados" style="stroke:#FF0000;stroke-width:1;"/><polygon fill="#FF0000" points="318.5194,431.4769,314.5194,440.4769,318.5194,436.4769,322.5194,440.4769,318.5194,431.4769" style="stroke:#FF0000;stroke-width:1;"/><path d="M323.5194,514.7969 L323.5194,539.7969 L534.5194,539.7969 L534.5194,524.7969 L524.5194,514.7969 L323.5194,514.7969" fill="#FEFFDD" style="stroke:#181818;stroke-width:0.5;"/><path d="M524.5194,514.7969 L524.5194,524.7969 L534.5194,524.7969 L524.5194,514.7969" fill="#FEFFDD" style="stroke:#181818;stroke-width:0.5;"/><text fill="#000000" font-family="sans-serif" font-size="13" lengthAdjust="spacing" textLength="190.6265" x="329.5194" y="531.8638">Docente cancela importaci&#243;n</text></g><!--link c to ProvidingGrados--><g class="link" data-entity-1="c" data-entity-2="ProvidingGrados" data-source-line="40" data-uid="lnk8" id="link_c_ProvidingGrados"><path d="M326.0094,660.5669 C365.0494,641.1369 543.5194,552.2969 543.5194,552.2969 C543.5194,552.2969 543.5194,502.2969 543.5194,502.2969 C543.5194,502.2969 408.2668,445.1909 349.4168,420.3409" fill="none" id="c-to-ProvidingGrados-1" style="stroke:#FF0000;stroke-width:1;"/><polygon fill="#FF0000" points="343.8894,418.0069,350.6245,425.1928,348.4956,419.9519,353.7365,417.8229,343.8894,418.0069" style="stroke:#FF0000;stroke-width:1;"/><path d="M548.5194,514.7969 L548.5194,539.7969 L925.5194,539.7969 L925.5194,524.7969 L915.5194,514.7969 L548.5194,514.7969" fill="#FEFFDD" style="stroke:#181818;stroke-width:0.5;"/><path d="M915.5194,514.7969 L915.5194,524.7969 L925.5194,524.7969 L915.5194,514.7969" fill="#FEFFDD" style="stroke:#181818;stroke-width:0.5;"/><text fill="#000000" font-family="sans-serif" font-size="13" lengthAdjust="spacing" textLength="356.605" x="554.5194" y="531.8638">Docente confirma importaci&#243;n: error en la importaci&#243;n</text></g><!--link c to *end*importarGrados--><g class="link" data-entity-1="c" data-entity-2=".end.importarGrados" data-source-line="45" data-uid="lnk10" id="link_c_.end.importarGrados"><path d="M318.5194,677.5769 C318.5194,695.6169 318.5194,724.6969 318.5194,742.0569" fill="none" id="c-to-*end*importarGrados" style="stroke:#008000;stroke-width:1;"/><polygon fill="#008000" points="318.5194,748.0569,322.5194,739.0569,318.5194,743.0569,314.5194,739.0569,318.5194,748.0569" style="stroke:#008000;stroke-width:1;"/><path d="M323.5194,700.2969 L323.5194,725.2969 L679.5194,725.2969 L679.5194,710.2969 L669.5194,700.2969 L323.5194,700.2969" fill="#FEFFDD" style="stroke:#181818;stroke-width:0.5;"/><path d="M669.5194,700.2969 L669.5194,710.2969 L679.5194,710.2969 L669.5194,700.2969" fill="#FEFFDD" style="stroke:#181818;stroke-width:0.5;"/><text fill="#000000" font-family="sans-serif" font-size="13" lengthAdjust="spacing" textLength="335.6323" x="329.5194" y="717.3638">Docente confirma importaci&#243;n: importaci&#243;n exitosa</text></g><g id="GRADOS_ABIERTO"><rect fill="#F1F1F1" height="50" rx="12.5" ry="12.5" style="stroke:#181818;stroke-width:0.5;" width="149.2949" x="396.5" y="7"/><line style="stroke:#181818;stroke-width:0.5;" x1="396.5" x2="545.7949" y1="33.2969" y2="33.2969"/><text fill="#000000" font-family="sans-serif" font-size="14" lengthAdjust="spacing" textLength="129.2949" x="406.5" y="24.9951">GRADOS_ABIERTO</text></g><!--link GRADOS_ABIERTO to importarGrados--><g class="link" data-entity-1="GRADOS_ABIERTO" data-entity-2="importarGrados" data-source-line="51" data-uid="lnk12" id="link_GRADOS_ABIERTO_importarGrados"><path d="M471,57.08 C471,71.85 471,86.58 471,110.86" fill="none" id="GRADOS_ABIERTO-to-importarGrados" style="stroke:#008000;stroke-width:1;"/><polygon fill="#008000" points="471,116.86,475,107.86,471,111.86,467,107.86,471,116.86" style="stroke:#008000;stroke-width:1;"/></g><!--link importarGrados to GRADOS_ABIERTO2--><g class="link" data-entity-1="importarGrados" data-entity-2="GRADOS_ABIERTO2" data-source-line="52" data-uid="lnk13" id="link_importarGrados_GRADOS_ABIERTO2"><path d="M471,780.12 C471,804.36 471,819.06 471,833.83" fill="none" id="importarGrados-to-GRADOS_ABIERTO2" style="stroke:#008000;stroke-width:1;"/><polygon fill="#008000" points="471,839.83,475,830.83,471,834.83,467,830.83,471,839.83" style="stroke:#008000;stroke-width:1;"/></g><!--SRC=[jPJFIiD04CRlUOgXNbGeWaS9WMgbz5HflPKYsyrOXoQxSR8LYmW-Yw_W8_WcFecRVsqs3TeARaux- -tylfabaov99O95314fDEi48T7HEjjuNcg4GHYCU_tHvAvtERmUtuxEGQJGSMETIafneja87h08TPehtT3nIGTUF0_iAcvqx6TbOtnS4PDQ37Fvhk26zHE5Lb3a-K5mfTKzSImCQLMJIV1z-Q19OX0K1gQdC-XEZnQCg6RTeDM3qlQgLbbpbdd0dmTzBL4PzC_c0QGw8ab6R2g7nTOVgh18O5U1R20SV5k5RVW9fGPZaUCJv9YolYl3Ebn9ubprzVPU-e2jCyTIOQU1RBUpqy_VUbAPmSCyr3cE4tdGIsmQ8CjyND4bVNwexR5G4gEsKzUVpBmmXdi_KMcg0lnV_h8-1t01oApPCc1FzARDzdVu4x2-0tmcerFXmbuzpvqN3jST45vZXDILZK7q3G00]--></g></svg>