<svg xmlns="http://www.w3.org/2000/svg" xmlns:xlink="http://www.w3.org/1999/xlink" contentStyleType="text/css" data-diagram-type="SALT" height="358px" preserveAspectRatio="none" style="width:389px;height:358px;background:#FFFFFF;" version="1.1" viewBox="0 0 389 358" width="389px" zoomAndPan="magnify"><defs/><g><text fill="#000000" font-family="sans-serif" font-size="12" font-weight="bold" lengthAdjust="spacing" textLength="229.9219" x="6" y="17.1387">EDITAR GRADO (C&#243;digo: GII-2024)</text><line style="stroke:#AAAAAA;stroke-width:1;" x1="6" x2="382.6699" y1="24.4688" y2="24.4688"/><line style="stroke:#AAAAAA;stroke-width:1;" x1="6" x2="382.6699" y1="26.4688" y2="26.4688"/><text fill="#000000" font-family="sans-serif" font-size="12" font-weight="bold" lengthAdjust="spacing" textLength="157.6348" x="6" y="41.1074">1. Datos Identificativos</text><text fill="#000000" font-family="sans-serif" font-size="12" font-style="italic" lengthAdjust="spacing" textLength="271.0664" x="6" y="57.0762">Puede modificar el nombre o el c&#243;digo oficial</text><text fill="#000000" font-family="sans-serif" font-size="12" lengthAdjust="spacing" textLength="133.6699" x="7" y="90.0137">Nombre del Grado (*):</text><text fill="#000000" font-family="sans-serif" font-size="12" lengthAdjust="spacing" textLength="132.5801" x="145.6699" y="90.0137">Ingenier&#237;a Inform&#225;tica</text><line style="stroke:#000000;stroke-width:1;" x1="143.6699" x2="378.6699" y1="92.8438" y2="92.8438"/><line style="stroke:#000000;stroke-width:1;" x1="143.6699" x2="143.6699" y1="89.8438" y2="91.8438"/><line style="stroke:#000000;stroke-width:1;" x1="378.6699" x2="378.6699" y1="89.8438" y2="91.8438"/><text fill="#000000" font-family="sans-serif" font-size="12" lengthAdjust="spacing" textLength="106.2891" x="7" y="107.9824">C&#243;digo Oficial (*):</text><text fill="#000000" font-family="sans-serif" font-size="12" lengthAdjust="spacing" textLength="51.2461" x="145.6699" y="107.9824">GII-2024</text><line style="stroke:#000000;stroke-width:1;" x1="143.6699" x2="378.6699" y1="110.8125" y2="110.8125"/><line style="stroke:#000000;stroke-width:1;" x1="143.6699" x2="143.6699" y1="107.8125" y2="109.8125"/><line style="stroke:#000000;stroke-width:1;" x1="378.6699" x2="378.6699" y1="107.8125" y2="109.8125"/><line style="stroke:#AAAAAA;stroke-width:1;" x1="6" x2="382.6699" y1="135.2813" y2="135.2813"/><text fill="#000000" font-family="sans-serif" font-size="12" font-weight="bold" lengthAdjust="spacing" textLength="226.4121" x="6" y="166.8887">2. Gesti&#243;n de Alumnos Enlistados</text><text fill="#000000" font-family="sans-serif" font-size="12" font-style="italic" lengthAdjust="spacing" textLength="355.2012" x="6" y="182.8574">Desmarque para desvincular o marque para a&#241;adir nuevos</text><text fill="#000000" font-family="sans-serif" font-size="12" lengthAdjust="spacing" textLength="205.7109" x="27" y="215.7949">12345678Z - P&#233;rez, Juan (Inscrito)</text><rect fill="none" height="10" style="stroke:#000000;stroke-width:1.5;" width="10" x="9" y="206.6406"/><polygon fill="#000000" points="10,210.6563,13,213.6563,20,204.6563,13,211.6563" style="stroke:#000000;stroke-width:1.5;"/><text fill="#000000" font-family="sans-serif" font-size="12" lengthAdjust="spacing" textLength="218.5723" x="27" y="231.7637">87654321X - Garc&#237;a, Mar&#237;a (Inscrito)</text><rect fill="none" height="10" style="stroke:#000000;stroke-width:1.5;" width="10" x="9" y="222.6094"/><polygon fill="#000000" points="10,226.625,13,229.625,20,220.625,13,227.625" style="stroke:#000000;stroke-width:1.5;"/><text fill="#000000" font-family="sans-serif" font-size="12" lengthAdjust="spacing" textLength="161.9648" x="27" y="247.7324">11223344C - L&#243;pez, Carlos</text><rect fill="none" height="10" style="stroke:#000000;stroke-width:1.5;" width="10" x="9" y="238.5781"/><text fill="#000000" font-family="sans-serif" font-size="12" lengthAdjust="spacing" textLength="137.6191" x="27" y="263.7012">99887766V - Ruiz, Ana</text><rect fill="none" height="10" style="stroke:#000000;stroke-width:1.5;" width="10" x="9" y="254.5469"/><text fill="#000000" font-family="sans-serif" font-size="12" lengthAdjust="spacing" textLength="11.4434" x="27" y="279.6699">...</text><rect fill="none" height="10" style="stroke:#000000;stroke-width:1.5;" width="10" x="9" y="270.5156"/><line style="stroke:#000000;stroke-width:1;" x1="6" x2="246.5723" y1="203.6563" y2="203.6563"/><line style="stroke:#000000;stroke-width:1;" x1="6" x2="246.5723" y1="283.5" y2="283.5"/><line style="stroke:#000000;stroke-width:1;" x1="6" x2="6" y1="203.6563" y2="219.625"/><line style="stroke:#000000;stroke-width:1;" x1="246.5723" x2="246.5723" y1="219.625" y2="235.5938"/><line style="stroke:#000000;stroke-width:1;" x1="246.5723" x2="246.5723" y1="203.6563" y2="219.625"/><line style="stroke:#000000;stroke-width:1;" x1="6" x2="6" y1="267.5313" y2="283.5"/><line style="stroke:#000000;stroke-width:1;" x1="6" x2="6" y1="251.5625" y2="267.5313"/><line style="stroke:#000000;stroke-width:1;" x1="246.5723" x2="246.5723" y1="267.5313" y2="283.5"/><line style="stroke:#000000;stroke-width:1;" x1="6" x2="6" y1="235.5938" y2="251.5625"/><line style="stroke:#000000;stroke-width:1;" x1="246.5723" x2="246.5723" y1="251.5625" y2="267.5313"/><line style="stroke:#000000;stroke-width:1;" x1="6" x2="6" y1="219.625" y2="235.5938"/><line style="stroke:#000000;stroke-width:1;" x1="246.5723" x2="246.5723" y1="235.5938" y2="251.5625"/><rect fill="none" height="79.8438" style="stroke:#000000;stroke-width:1;" width="15" x="250.5723" y="203.6563"/><line style="stroke:#000000;stroke-width:1;" x1="250.5723" x2="265.5723" y1="215.6563" y2="215.6563"/><line style="stroke:#000000;stroke-width:1;" x1="250.5723" x2="265.5723" y1="271.5" y2="271.5"/><path d="M257.5723,207.6563 L260.5723,212.6563 L254.5723,212.6563 L257.5723,207.6563" fill="#000000"/><path d="M257.5723,280.5 L260.5723,275.5 L254.5723,275.5 L257.5723,280.5" fill="#000000"/><line style="stroke:#AAAAAA;stroke-width:1.5;" x1="6" x2="382.6699" y1="304.9688" y2="304.9688"/><rect fill="#EEEEEE" height="17.9688" rx="5" ry="5" style="stroke:#000000;stroke-width:2.5;" width="124" x="9.5" y="328.9375"/><text fill="#000000" font-family="sans-serif" font-size="12" lengthAdjust="spacing" textLength="103.0957" x="19.9521" y="342.0762">Guardar cambios</text><rect fill="#EEEEEE" height="17.9688" rx="5" ry="5" style="stroke:#000000;stroke-width:2.5;" width="68" x="140.5" y="328.9375"/><text fill="#000000" font-family="sans-serif" font-size="12" lengthAdjust="spacing" textLength="52.9395" x="148.0303" y="342.0762">Cancelar</text><line style="stroke:#000000;stroke-width:1;" x1="5" x2="382.6699" y1="5" y2="5"/><line style="stroke:#000000;stroke-width:1;" x1="5" x2="382.6699" y1="351.4063" y2="351.4063"/><line style="stroke:#000000;stroke-width:1;" x1="5" x2="5" y1="5" y2="20.9688"/><line style="stroke:#000000;stroke-width:1;" x1="382.6699" x2="382.6699" y1="5" y2="20.9688"/><line style="stroke:#000000;stroke-width:1;" x1="5" x2="5" y1="308.4688" y2="324.4375"/><line style="stroke:#000000;stroke-width:1;" x1="382.6699" x2="382.6699" y1="308.4688" y2="324.4375"/><line style="stroke:#000000;stroke-width:1;" x1="5" x2="5" y1="186.6875" y2="202.6563"/><line style="stroke:#000000;stroke-width:1;" x1="382.6699" x2="382.6699" y1="186.6875" y2="202.6563"/><line style="stroke:#000000;stroke-width:1;" x1="5" x2="5" y1="130.7813" y2="138.7813"/><line style="stroke:#000000;stroke-width:1;" x1="382.6699" x2="382.6699" y1="130.7813" y2="138.7813"/><line style="stroke:#000000;stroke-width:1;" x1="5" x2="5" y1="44.9375" y2="60.9063"/><line style="stroke:#000000;stroke-width:1;" x1="382.6699" x2="382.6699" y1="44.9375" y2="60.9063"/><line style="stroke:#000000;stroke-width:1;" x1="5" x2="5" y1="300.4688" y2="308.4688"/><line style="stroke:#000000;stroke-width:1;" x1="382.6699" x2="382.6699" y1="300.4688" y2="308.4688"/><line style="stroke:#000000;stroke-width:1;" x1="5" x2="5" y1="170.7188" y2="186.6875"/><line style="stroke:#000000;stroke-width:1;" x1="382.6699" x2="382.6699" y1="170.7188" y2="186.6875"/><line style="stroke:#000000;stroke-width:1;" x1="5" x2="5" y1="114.8125" y2="130.7813"/><line style="stroke:#000000;stroke-width:1;" x1="382.6699" x2="382.6699" y1="114.8125" y2="130.7813"/><line style="stroke:#000000;stroke-width:1;" x1="5" x2="5" y1="28.9688" y2="44.9375"/><line style="stroke:#000000;stroke-width:1;" x1="382.6699" x2="382.6699" y1="28.9688" y2="44.9375"/><line style="stroke:#000000;stroke-width:1;" x1="5" x2="5" y1="284.5" y2="300.4688"/><line style="stroke:#000000;stroke-width:1;" x1="382.6699" x2="382.6699" y1="284.5" y2="300.4688"/><line style="stroke:#000000;stroke-width:1;" x1="5" x2="5" y1="154.75" y2="170.7188"/><line style="stroke:#000000;stroke-width:1;" x1="382.6699" x2="382.6699" y1="154.75" y2="170.7188"/><line style="stroke:#000000;stroke-width:1;" x1="5" x2="5" y1="76.875" y2="114.8125"/><line style="stroke:#000000;stroke-width:1;" x1="382.6699" x2="382.6699" y1="76.875" y2="114.8125"/><line style="stroke:#000000;stroke-width:1;" x1="5" x2="5" y1="20.9688" y2="28.9688"/><line style="stroke:#000000;stroke-width:1;" x1="382.6699" x2="382.6699" y1="20.9688" y2="28.9688"/><line style="stroke:#000000;stroke-width:1;" x1="5" x2="5" y1="324.4375" y2="351.4063"/><line style="stroke:#000000;stroke-width:1;" x1="382.6699" x2="382.6699" y1="324.4375" y2="351.4063"/><line style="stroke:#000000;stroke-width:1;" x1="5" x2="5" y1="202.6563" y2="284.5"/><line style="stroke:#000000;stroke-width:1;" x1="382.6699" x2="382.6699" y1="202.6563" y2="284.5"/><line style="stroke:#000000;stroke-width:1;" x1="5" x2="5" y1="138.7813" y2="154.75"/><line style="stroke:#000000;stroke-width:1;" x1="382.6699" x2="382.6699" y1="138.7813" y2="154.75"/><line style="stroke:#000000;stroke-width:1;" x1="5" x2="5" y1="60.9063" y2="76.875"/><line style="stroke:#000000;stroke-width:1;" x1="382.6699" x2="382.6699" y1="60.9063" y2="76.875"/><rect fill="none" height="79.8438" style="stroke:#000000;stroke-width:1;" width="15" x="250.5723" y="203.6563"/><line style="stroke:#000000;stroke-width:1;" x1="250.5723" x2="265.5723" y1="215.6563" y2="215.6563"/><line style="stroke:#000000;stroke-width:1;" x1="250.5723" x2="265.5723" y1="271.5" y2="271.5"/><path d="M257.5723,207.6563 L260.5723,212.6563 L254.5723,212.6563 L257.5723,207.6563" fill="#000000"/><path d="M257.5723,280.5 L260.5723,275.5 L254.5723,275.5 L257.5723,280.5" fill="#000000"/><!--SRC=[RLDDRzf04BtxLunoWZPsi34ViG25GcAPGa04K5I4gi5Uq4hsBbdRI6sQ_9SUU-YXoa_m7-jWGWfgzh2oFU-zcNapleeJL4cCOG8iuFJiAWparvlXU33jjyVUK7lyg06Tnh9rtVKcxJ6uutPt28LEzXBmjNJ0zJpTAbbsiN6nRENOPhDvu9W6T36HCNW14mbVSHyJlfNn6xR1MwEK1GmY6UHX1Im48QEbOY1tp_u-4KYASWmR5tpFDFBxCRztvtRF2OYIDm653qK7Vi2P9zPCSAQotmYUM4aLPJyJolJAEtjJU6q9XljCUm7OIHnwXFVENk3fg2XTFteX5om3N1OdF7iHL1-qmpGIvCcr23dv7vpQqMLnXEeXPR11XOIFjrpuQKZEI3YEOFO70wv0f2ntzDINE- -jh_dz0aohR5UgjVeNq66K_LBi-pdqKXHGy4JiAvx8uWc-NgjMxB9btXFUHUMJUUSmmDp4zoX0AKpBAfTjkqEKVlQosQNee0fbV0AxlApNQxLgTKQmSSe9r1PuWZ0CupzBdv-FcuEvcw8Ao18VeoMNyOAcDE-Wy1dvj23catR5HB1RR4qRXIYIwQ0FMwPYBWMO1WspOfYbmeJCl9LRADbWbXohvDYNCBYRm2vUr0hkg0-nJ9LFUqMZKdoP9YHGr7guHQgULZfY3WmtJFIwdmyVQB1RhgI8QEMrtcpm3r2rzKyyWJkcg1IO3RGkMs5AFz-ry6d_nTg1wUH6hsjz5EiKrwJDXDQHfAk-EJJfCFmB]--></g></svg>