<svg xmlns="http://www.w3.org/2000/svg" xmlns:xlink="http://www.w3.org/1999/xlink" contentStyleType="text/css" data-diagram-type="SALT" height="344px" preserveAspectRatio="none" style="width:812px;height:344px;background:#FFFFFF;" version="1.1" viewBox="0 0 812 344" width="812px" zoomAndPan="magnify"><defs/><g><text fill="#000000" font-family="sans-serif" font-size="12" font-weight="bold" lengthAdjust="spacing" textLength="188.6016" x="6" y="17.1387">GENERACI&#211;N DE EX&#193;MENES</text><text fill="#000000" font-family="sans-serif" font-size="12" font-weight="bold" lengthAdjust="spacing" textLength="93.3164" x="685.7344" y="17.1387">VISTA PREVIA</text><text fill="#000000" font-family="sans-serif" font-size="12" lengthAdjust="spacing" textLength="69.0117" x="6" y="33.1074">Asignatura:</text><text fill="#000000" font-family="sans-serif" font-size="12" font-weight="bold" lengthAdjust="spacing" textLength="190.8164" x="78.8262" y="33.1074">Estructura de Datos (GII-24)</text><text fill="#000000" font-family="sans-serif" font-size="12" lengthAdjust="spacing" textLength="39.8848" x="685.7344" y="33.1074">Fecha:</text><text fill="#000000" font-family="sans-serif" font-size="12" font-weight="bold" lengthAdjust="spacing" textLength="75.5625" x="729.4336" y="33.1074">12/12/2024</text><line style="stroke:#AAAAAA;stroke-width:1;" x1="6" x2="684.7344" y1="40.4375" y2="40.4375"/><line style="stroke:#AAAAAA;stroke-width:1;" x1="6" x2="684.7344" y1="42.4375" y2="42.4375"/><text fill="#000000" font-family="sans-serif" font-size="12" lengthAdjust="spacing" textLength="147.457" x="6" y="73.0449">Generaci&#243;n completada.</text><text fill="#000000" font-family="sans-serif" font-size="12" font-weight="bold" lengthAdjust="spacing" textLength="14.4258" x="7" y="105.9824">ID</text><text fill="#000000" font-family="sans-serif" font-size="12" font-weight="bold" lengthAdjust="spacing" textLength="29.1328" x="44.4023" y="105.9824">Tipo</text><text fill="#000000" font-family="sans-serif" font-size="12" font-weight="bold" lengthAdjust="spacing" textLength="69.5039" x="97.9941" y="105.9824">Preguntas</text><text fill="#000000" font-family="sans-serif" font-size="12" lengthAdjust="spacing" textLength="35.4023" x="7" y="121.9512">EX-01</text><text fill="#000000" font-family="sans-serif" font-size="12" lengthAdjust="spacing" textLength="51.5918" x="44.4023" y="121.9512">Parcial 1</text><text fill="#000000" font-family="sans-serif" font-size="12" lengthAdjust="spacing" textLength="79.7754" x="97.9941" y="121.9512">10 Preguntas</text><text fill="#000000" font-family="sans-serif" font-size="12" lengthAdjust="spacing" textLength="35.4023" x="7" y="137.9199">EX-02</text><text fill="#000000" font-family="sans-serif" font-size="12" lengthAdjust="spacing" textLength="51.5918" x="44.4023" y="137.9199">Parcial 1</text><text fill="#000000" font-family="sans-serif" font-size="12" lengthAdjust="spacing" textLength="79.7754" x="97.9941" y="137.9199">10 Preguntas</text><text fill="#000000" font-family="sans-serif" font-size="12" lengthAdjust="spacing" textLength="35.4023" x="7" y="153.8887">EX-03</text><text fill="#000000" font-family="sans-serif" font-size="12" lengthAdjust="spacing" textLength="51.5918" x="44.4023" y="153.8887">Parcial 1</text><text fill="#000000" font-family="sans-serif" font-size="12" lengthAdjust="spacing" textLength="79.7754" x="97.9941" y="153.8887">10 Preguntas</text><line style="stroke:#000000;stroke-width:1;" x1="6" x2="43.4023" y1="93.8438" y2="93.8438"/><line style="stroke:#000000;stroke-width:1;" x1="96.9941" x2="178.7695" y1="125.7813" y2="125.7813"/><line style="stroke:#000000;stroke-width:1;" x1="43.4023" x2="96.9941" y1="93.8438" y2="93.8438"/><line style="stroke:#000000;stroke-width:1;" x1="96.9941" x2="178.7695" y1="93.8438" y2="93.8438"/><line style="stroke:#000000;stroke-width:1;" x1="6" x2="43.4023" y1="141.75" y2="141.75"/><line style="stroke:#000000;stroke-width:1;" x1="43.4023" x2="96.9941" y1="141.75" y2="141.75"/><line style="stroke:#000000;stroke-width:1;" x1="6" x2="43.4023" y1="109.8125" y2="109.8125"/><line style="stroke:#000000;stroke-width:1;" x1="96.9941" x2="178.7695" y1="141.75" y2="141.75"/><line style="stroke:#000000;stroke-width:1;" x1="43.4023" x2="96.9941" y1="109.8125" y2="109.8125"/><line style="stroke:#000000;stroke-width:1;" x1="96.9941" x2="178.7695" y1="109.8125" y2="109.8125"/><line style="stroke:#000000;stroke-width:1;" x1="6" x2="43.4023" y1="157.7188" y2="157.7188"/><line style="stroke:#000000;stroke-width:1;" x1="43.4023" x2="96.9941" y1="157.7188" y2="157.7188"/><line style="stroke:#000000;stroke-width:1;" x1="96.9941" x2="178.7695" y1="157.7188" y2="157.7188"/><line style="stroke:#000000;stroke-width:1;" x1="6" x2="43.4023" y1="125.7813" y2="125.7813"/><line style="stroke:#000000;stroke-width:1;" x1="43.4023" x2="96.9941" y1="125.7813" y2="125.7813"/><line style="stroke:#000000;stroke-width:1;" x1="6" x2="6" y1="93.8438" y2="109.8125"/><line style="stroke:#000000;stroke-width:1;" x1="96.9941" x2="96.9941" y1="125.7813" y2="141.75"/><line style="stroke:#000000;stroke-width:1;" x1="178.7695" x2="178.7695" y1="125.7813" y2="141.75"/><line style="stroke:#000000;stroke-width:1;" x1="43.4023" x2="43.4023" y1="93.8438" y2="109.8125"/><line style="stroke:#000000;stroke-width:1;" x1="96.9941" x2="96.9941" y1="93.8438" y2="109.8125"/><line style="stroke:#000000;stroke-width:1;" x1="178.7695" x2="178.7695" y1="93.8438" y2="109.8125"/><line style="stroke:#000000;stroke-width:1;" x1="6" x2="6" y1="141.75" y2="157.7188"/><line style="stroke:#000000;stroke-width:1;" x1="43.4023" x2="43.4023" y1="141.75" y2="157.7188"/><line style="stroke:#000000;stroke-width:1;" x1="6" x2="6" y1="109.8125" y2="125.7813"/><line style="stroke:#000000;stroke-width:1;" x1="96.9941" x2="96.9941" y1="141.75" y2="157.7188"/><line style="stroke:#000000;stroke-width:1;" x1="178.7695" x2="178.7695" y1="141.75" y2="157.7188"/><line style="stroke:#000000;stroke-width:1;" x1="43.4023" x2="43.4023" y1="109.8125" y2="125.7813"/><line style="stroke:#000000;stroke-width:1;" x1="96.9941" x2="96.9941" y1="109.8125" y2="125.7813"/><line style="stroke:#000000;stroke-width:1;" x1="178.7695" x2="178.7695" y1="109.8125" y2="125.7813"/><line style="stroke:#000000;stroke-width:1;" x1="6" x2="6" y1="125.7813" y2="141.75"/><line style="stroke:#000000;stroke-width:1;" x1="43.4023" x2="43.4023" y1="125.7813" y2="141.75"/><text fill="#000000" font-family="sans-serif" font-size="12" lengthAdjust="spacing" textLength="331.0078" x="7" y="187.8262">&#191;Est&#225; seguro que desea cancelar la generaci&#243;n actual?</text><text fill="#FF0000" font-family="sans-serif" font-size="12" font-weight="bold" lengthAdjust="spacing" textLength="114.6914" x="7" y="219.7637">&#9888; ADVERTENCIA:</text><text fill="#000000" font-family="sans-serif" font-size="12" lengthAdjust="spacing" textLength="496.7344" x="7" y="235.7324">Si confirma la cancelaci&#243;n, los 3 ex&#225;menes generados en esta sesi&#243;n se perder&#225;n.</text><line style="stroke:#AAAAAA;stroke-width:1;" x1="7" x2="504.7344" y1="260.0313" y2="260.0313"/><rect fill="#EEEEEE" height="17.9688" rx="5" ry="5" style="stroke:#000000;stroke-width:2.5;" width="108" x="9.5" y="283"/><text fill="#000000" font-family="sans-serif" font-size="12" font-weight="bold" lengthAdjust="spacing" textLength="79.5996" x="23.7002" y="296.1387">No cancelar</text><rect fill="#EEEEEE" height="17.9688" rx="5" ry="5" style="stroke:#000000;stroke-width:2.5;" width="172" x="508.2344" y="283"/><text fill="#000000" font-family="sans-serif" font-size="12" font-weight="bold" lengthAdjust="spacing" textLength="138.4453" x="525.0117" y="296.1387">Cancelar generaci&#243;n</text><line style="stroke:#000000;stroke-width:1;" x1="5" x2="684.7344" y1="5" y2="5"/><line style="stroke:#000000;stroke-width:1;" x1="684.7344" x2="805.9961" y1="5" y2="5"/><line style="stroke:#000000;stroke-width:1;" x1="5" x2="684.7344" y1="337.4063" y2="337.4063"/><line style="stroke:#000000;stroke-width:1;" x1="684.7344" x2="805.9961" y1="337.4063" y2="337.4063"/><line style="stroke:#000000;stroke-width:1;" x1="5" x2="5" y1="5" y2="20.9688"/><line style="stroke:#000000;stroke-width:1;" x1="805.9961" x2="805.9961" y1="36.9375" y2="44.9375"/><line style="stroke:#000000;stroke-width:1;" x1="805.9961" x2="805.9961" y1="5" y2="20.9688"/><line style="stroke:#000000;stroke-width:1;" x1="5" x2="5" y1="305.4688" y2="321.4375"/><line style="stroke:#000000;stroke-width:1;" x1="5" x2="5" y1="158.7188" y2="174.6875"/><line style="stroke:#000000;stroke-width:1;" x1="805.9961" x2="805.9961" y1="305.4688" y2="321.4375"/><line style="stroke:#000000;stroke-width:1;" x1="5" x2="5" y1="76.875" y2="92.8438"/><line style="stroke:#000000;stroke-width:1;" x1="805.9961" x2="805.9961" y1="158.7188" y2="174.6875"/><line style="stroke:#000000;stroke-width:1;" x1="5" x2="5" y1="44.9375" y2="60.9063"/><line style="stroke:#000000;stroke-width:1;" x1="805.9961" x2="805.9961" y1="76.875" y2="92.8438"/><line style="stroke:#000000;stroke-width:1;" x1="5" x2="5" y1="20.9688" y2="36.9375"/><line style="stroke:#000000;stroke-width:1;" x1="805.9961" x2="805.9961" y1="44.9375" y2="60.9063"/><line style="stroke:#000000;stroke-width:1;" x1="805.9961" x2="805.9961" y1="20.9688" y2="36.9375"/><line style="stroke:#000000;stroke-width:1;" x1="5" x2="5" y1="321.4375" y2="337.4063"/><line style="stroke:#000000;stroke-width:1;" x1="5" x2="5" y1="174.6875" y2="305.4688"/><line style="stroke:#000000;stroke-width:1;" x1="805.9961" x2="805.9961" y1="321.4375" y2="337.4063"/><line style="stroke:#000000;stroke-width:1;" x1="5" x2="5" y1="92.8438" y2="158.7188"/><line style="stroke:#000000;stroke-width:1;" x1="805.9961" x2="805.9961" y1="174.6875" y2="305.4688"/><line style="stroke:#000000;stroke-width:1;" x1="5" x2="5" y1="60.9063" y2="76.875"/><line style="stroke:#000000;stroke-width:1;" x1="805.9961" x2="805.9961" y1="92.8438" y2="158.7188"/><line style="stroke:#000000;stroke-width:1;" x1="5" x2="5" y1="36.9375" y2="44.9375"/><line style="stroke:#000000;stroke-width:1;" x1="805.9961" x2="805.9961" y1="60.9063" y2="76.875"/><!--SRC=[ZLFTZj905BxlKvp46uYsb2uQRG2tma2A54dfuYR6cA6ThKtA33lJ4isw5pw3Trx9C_W09lPDV19Fkr0mRgAJfZDpvflpytrdpbL6PQPeca58USXIAiUCCqd3HF1thrsVZ7p78zhDGmrmT5VzCPaHtncunPSP30cGo-ApXwO5V2fFb-uYS63kawNhT5khVdNBKKdCQPPBQfSOeZAPX-KM8WP3cWa5ZR7hwbQdMTv1JoCMlhy3jwqMVfPfTMftlLwlcetgVqYt-CuX5EjDoZ8QKGDE83SFgcbVW3lS1y5ra6p4SJUNBCvvHbKTgXpaKZVR29XJ6IOqXNBTDg46_m6q_XTuzY_WxMa1zTMVFv2zOWSAeLB0TSwGGyLehHwa5E8JIYWIJTFdjGFZI4KeKY5joQ8-rlxhwpTmXalY1sGsS1sxfA3RgY17AXO9Kiol4hccPPnzp2hG8qXHnZDW7uhT6kEhVHOHMXa7Xds6IQig9yLWmsJ4PB7ZnZsPwRf-Z_LDAT5Cr9LMkhr5wgg3mQ7-a-Bl47-nQMYtsZdZKTdrcZPFASykl2bicLJOzD0siDiU6ssp4I2xCx45iuFos9PfTvw1jmYWF6zgZV5y2ahaCaGD4kpfP9LdwA2fJUYMWezI9cjcmwiDuvFXouC12DycKd0aATCcI-y8UDBHNoGPB9Z4L63fQKDsHNDycOI78afuRCD5CDAVQbFAuvp6w9jnRI3Gh_ne0y_Jz3S0]--></g></svg>