<svg xmlns="http://www.w3.org/2000/svg" xmlns:xlink="http://www.w3.org/1999/xlink" contentStyleType="text/css" data-diagram-type="SALT" height="299px" preserveAspectRatio="none" style="width:695px;height:299px;background:#FFFFFF;" version="1.1" viewBox="0 0 695 299" width="695px" zoomAndPan="magnify"><defs/><g><text fill="#000000" font-family="sans-serif" font-size="12" font-weight="bold" lengthAdjust="spacing" textLength="188.6016" x="6" y="17.1387">GENERACI&#211;N DE EX&#193;MENES</text><text fill="#000000" font-family="sans-serif" font-size="12" font-weight="bold" lengthAdjust="spacing" textLength="93.3164" x="567.9922" y="17.1387">VISTA PREVIA</text><text fill="#000000" font-family="sans-serif" font-size="12" lengthAdjust="spacing" textLength="69.0117" x="6" y="33.1074">Asignatura:</text><text fill="#000000" font-family="sans-serif" font-size="12" font-weight="bold" lengthAdjust="spacing" textLength="190.8164" x="78.8262" y="33.1074">Estructura de Datos (GII-24)</text><text fill="#000000" font-family="sans-serif" font-size="12" lengthAdjust="spacing" textLength="39.8848" x="567.9922" y="33.1074">Fecha:</text><text fill="#000000" font-family="sans-serif" font-size="12" font-weight="bold" lengthAdjust="spacing" textLength="75.5625" x="611.6914" y="33.1074">12/12/2024</text><line style="stroke:#AAAAAA;stroke-width:1;" x1="6" x2="566.9922" y1="40.4375" y2="40.4375"/><line style="stroke:#AAAAAA;stroke-width:1;" x1="6" x2="566.9922" y1="42.4375" y2="42.4375"/><text fill="#000000" font-family="sans-serif" font-size="12" lengthAdjust="spacing" textLength="147.457" x="6" y="73.0449">Generaci&#243;n completada.</text><text fill="#000000" font-family="sans-serif" font-size="12" font-weight="bold" lengthAdjust="spacing" textLength="14.4258" x="7" y="105.9824">ID</text><text fill="#000000" font-family="sans-serif" font-size="12" font-weight="bold" lengthAdjust="spacing" textLength="40.6992" x="77.8594" y="105.9824">Grado</text><text fill="#000000" font-family="sans-serif" font-size="12" font-weight="bold" lengthAdjust="spacing" textLength="65.6016" x="120.5586" y="105.9824">Dificultad</text><text fill="#000000" font-family="sans-serif" font-size="12" font-weight="bold" lengthAdjust="spacing" textLength="44.4141" x="318.5957" y="105.9824">Acci&#243;n</text><text fill="#000000" font-family="sans-serif" font-size="12" lengthAdjust="spacing" textLength="68.8594" x="7" y="121.9512">EX-MATES2</text><text fill="#000000" font-family="sans-serif" font-size="12" lengthAdjust="spacing" textLength="7.0781" x="77.8594" y="121.9512">II</text><text fill="#000000" font-family="sans-serif" font-size="12" lengthAdjust="spacing" textLength="196.0371" x="120.5586" y="121.9512">15% Facil 35% Medio 50% Dif&#237;cil</text><rect fill="#EEEEEE" height="17.9688" rx="5" ry="5" style="stroke:#000000;stroke-width:2.5;" width="84" x="321.0957" y="113.3125"/><text fill="#000000" font-family="sans-serif" font-size="12" lengthAdjust="spacing" textLength="72.8555" x="326.668" y="126.4512">Ver examen</text><text fill="#000000" font-family="sans-serif" font-size="12" lengthAdjust="spacing" textLength="68.8594" x="7" y="146.9199">EX-MATES2</text><text fill="#000000" font-family="sans-serif" font-size="12" lengthAdjust="spacing" textLength="16.5234" x="77.8594" y="146.9199">IOI</text><text fill="#000000" font-family="sans-serif" font-size="12" lengthAdjust="spacing" textLength="196.0371" x="120.5586" y="146.9199">30% Facil 40% Medio 30% Dif&#237;cil</text><rect fill="#EEEEEE" height="17.9688" rx="5" ry="5" style="stroke:#000000;stroke-width:2.5;" width="84" x="321.0957" y="138.2813"/><text fill="#000000" font-family="sans-serif" font-size="12" lengthAdjust="spacing" textLength="72.8555" x="326.668" y="151.4199">Ver examen</text><line style="stroke:#000000;stroke-width:1;" x1="6" x2="76.8594" y1="93.8438" y2="93.8438"/><line style="stroke:#000000;stroke-width:1;" x1="119.5586" x2="317.5957" y1="134.7813" y2="134.7813"/><line style="stroke:#000000;stroke-width:1;" x1="76.8594" x2="119.5586" y1="93.8438" y2="93.8438"/><line style="stroke:#000000;stroke-width:1;" x1="317.5957" x2="408.5957" y1="134.7813" y2="134.7813"/><line style="stroke:#000000;stroke-width:1;" x1="119.5586" x2="317.5957" y1="93.8438" y2="93.8438"/><line style="stroke:#000000;stroke-width:1;" x1="317.5957" x2="408.5957" y1="93.8438" y2="93.8438"/><line style="stroke:#000000;stroke-width:1;" x1="6" x2="76.8594" y1="159.75" y2="159.75"/><line style="stroke:#000000;stroke-width:1;" x1="76.8594" x2="119.5586" y1="159.75" y2="159.75"/><line style="stroke:#000000;stroke-width:1;" x1="119.5586" x2="317.5957" y1="159.75" y2="159.75"/><line style="stroke:#000000;stroke-width:1;" x1="6" x2="76.8594" y1="109.8125" y2="109.8125"/><line style="stroke:#000000;stroke-width:1;" x1="317.5957" x2="408.5957" y1="159.75" y2="159.75"/><line style="stroke:#000000;stroke-width:1;" x1="76.8594" x2="119.5586" y1="109.8125" y2="109.8125"/><line style="stroke:#000000;stroke-width:1;" x1="119.5586" x2="317.5957" y1="109.8125" y2="109.8125"/><line style="stroke:#000000;stroke-width:1;" x1="317.5957" x2="408.5957" y1="109.8125" y2="109.8125"/><line style="stroke:#000000;stroke-width:1;" x1="6" x2="76.8594" y1="134.7813" y2="134.7813"/><line style="stroke:#000000;stroke-width:1;" x1="76.8594" x2="119.5586" y1="134.7813" y2="134.7813"/><line style="stroke:#000000;stroke-width:1;" x1="6" x2="6" y1="93.8438" y2="109.8125"/><line style="stroke:#000000;stroke-width:1;" x1="119.5586" x2="119.5586" y1="134.7813" y2="159.75"/><line style="stroke:#000000;stroke-width:1;" x1="76.8594" x2="76.8594" y1="93.8438" y2="109.8125"/><line style="stroke:#000000;stroke-width:1;" x1="317.5957" x2="317.5957" y1="134.7813" y2="159.75"/><line style="stroke:#000000;stroke-width:1;" x1="408.5957" x2="408.5957" y1="134.7813" y2="159.75"/><line style="stroke:#000000;stroke-width:1;" x1="119.5586" x2="119.5586" y1="93.8438" y2="109.8125"/><line style="stroke:#000000;stroke-width:1;" x1="317.5957" x2="317.5957" y1="93.8438" y2="109.8125"/><line style="stroke:#000000;stroke-width:1;" x1="408.5957" x2="408.5957" y1="93.8438" y2="109.8125"/><line style="stroke:#000000;stroke-width:1;" x1="6" x2="6" y1="109.8125" y2="134.7813"/><line style="stroke:#000000;stroke-width:1;" x1="76.8594" x2="76.8594" y1="109.8125" y2="134.7813"/><line style="stroke:#000000;stroke-width:1;" x1="119.5586" x2="119.5586" y1="109.8125" y2="134.7813"/><line style="stroke:#000000;stroke-width:1;" x1="317.5957" x2="317.5957" y1="109.8125" y2="134.7813"/><line style="stroke:#000000;stroke-width:1;" x1="408.5957" x2="408.5957" y1="109.8125" y2="134.7813"/><line style="stroke:#000000;stroke-width:1;" x1="6" x2="6" y1="134.7813" y2="159.75"/><line style="stroke:#000000;stroke-width:1;" x1="76.8594" x2="76.8594" y1="134.7813" y2="159.75"/><rect fill="#EEEEEE" height="17.9688" rx="5" ry="5" style="stroke:#000000;stroke-width:2.5;" width="172" x="9.5" y="181.2188"/><text fill="#000000" font-family="sans-serif" font-size="12" font-weight="bold" lengthAdjust="spacing" textLength="138.4453" x="26.2773" y="194.3574">Cancelar generaci&#243;n</text><rect fill="#EEEEEE" height="17.9688" rx="5" ry="5" style="stroke:#000000;stroke-width:2.5;" width="156" x="406.4922" y="181.2188"/><text fill="#000000" font-family="sans-serif" font-size="12" font-weight="bold" lengthAdjust="spacing" textLength="125.332" x="421.8262" y="194.3574">Asignar a alumnos</text><text fill="#000000" font-family="sans-serif" font-size="12" lengthAdjust="spacing" textLength="331.0078" x="7" y="214.8262">&#191;Est&#225; seguro que desea cancelar la generaci&#243;n actual?</text><text fill="#FF0000" font-family="sans-serif" font-size="12" font-weight="bold" lengthAdjust="spacing" textLength="114.6914" x="7" y="246.7637">&#9888; ADVERTENCIA:</text><text fill="#000000" font-family="sans-serif" font-size="12" lengthAdjust="spacing" textLength="394.9922" x="7" y="262.7324">Si confirma la cancelaci&#243;n, los ex&#225;menes generados se perder&#225;n.</text><rect fill="#EEEEEE" height="17.9688" rx="5" ry="5" style="stroke:#000000;stroke-width:2.5;" width="100" x="9.5" y="270.0625"/><text fill="#000000" font-family="sans-serif" font-size="12" lengthAdjust="spacing" textLength="69.7383" x="24.6309" y="283.2012">Si, cancelar</text><rect fill="#EEEEEE" height="17.9688" rx="5" ry="5" style="stroke:#000000;stroke-width:2.5;" width="20.3184" x="406.4922" y="270.0625"/><text fill="#000000" font-family="sans-serif" font-size="12" lengthAdjust="spacing" textLength="16.3184" x="408.4922" y="283.2012">No</text><line style="stroke:#000000;stroke-width:1;" x1="5" x2="566.9922" y1="5" y2="5"/><line style="stroke:#000000;stroke-width:1;" x1="566.9922" x2="688.2539" y1="5" y2="5"/><line style="stroke:#000000;stroke-width:1;" x1="5" x2="566.9922" y1="292.5313" y2="292.5313"/><line style="stroke:#000000;stroke-width:1;" x1="566.9922" x2="688.2539" y1="292.5313" y2="292.5313"/><line style="stroke:#000000;stroke-width:1;" x1="5" x2="5" y1="5" y2="20.9688"/><line style="stroke:#000000;stroke-width:1;" x1="688.2539" x2="688.2539" y1="36.9375" y2="44.9375"/><line style="stroke:#000000;stroke-width:1;" x1="688.2539" x2="688.2539" y1="5" y2="20.9688"/><line style="stroke:#000000;stroke-width:1;" x1="5" x2="5" y1="160.75" y2="176.7188"/><line style="stroke:#000000;stroke-width:1;" x1="5" x2="5" y1="76.875" y2="92.8438"/><line style="stroke:#000000;stroke-width:1;" x1="688.2539" x2="688.2539" y1="160.75" y2="176.7188"/><line style="stroke:#000000;stroke-width:1;" x1="5" x2="5" y1="44.9375" y2="60.9063"/><line style="stroke:#000000;stroke-width:1;" x1="688.2539" x2="688.2539" y1="76.875" y2="92.8438"/><line style="stroke:#000000;stroke-width:1;" x1="5" x2="5" y1="20.9688" y2="36.9375"/><line style="stroke:#000000;stroke-width:1;" x1="688.2539" x2="688.2539" y1="44.9375" y2="60.9063"/><line style="stroke:#000000;stroke-width:1;" x1="688.2539" x2="688.2539" y1="20.9688" y2="36.9375"/><line style="stroke:#000000;stroke-width:1;" x1="5" x2="5" y1="176.7188" y2="292.5313"/><line style="stroke:#000000;stroke-width:1;" x1="5" x2="5" y1="92.8438" y2="160.75"/><line style="stroke:#000000;stroke-width:1;" x1="688.2539" x2="688.2539" y1="176.7188" y2="292.5313"/><line style="stroke:#000000;stroke-width:1;" x1="5" x2="5" y1="60.9063" y2="76.875"/><line style="stroke:#000000;stroke-width:1;" x1="688.2539" x2="688.2539" y1="92.8438" y2="160.75"/><line style="stroke:#000000;stroke-width:1;" x1="5" x2="5" y1="36.9375" y2="44.9375"/><line style="stroke:#000000;stroke-width:1;" x1="688.2539" x2="688.2539" y1="60.9063" y2="76.875"/><!--SRC=[XPFXJjim4CU_vobEcf10eoKjPTeYO6IDMuMHWfhI8I4qcUJeBBbsSPAA2VYmPzYtVHeFi4zxW4dBc-n9TWvjYhP9Yo8xEPz_T_yx-o3BkSapBdD8k4fGSjD7XOOdGgltxy8XwmtzY3ctpnsWP_Tolyy6REXtm_Bp0086xApy594fXZkxEWxZaGydGpOE_Tsjo_rgbv-9YU9vORXdVLYMcoAnlv0Y13pN6Qptmx3HxcpOFKJgOVBXqRdLtgAtxROxDMvlRw-QczMuJBVyhY3Hqvd4dAUy2KzSRfzLqq9062o2M366fthr6uWhaHII02kRdrJiEhfzs5aZyaSiRfDB6DBGsbc37YKXOPk-8ao5XXrt3GXOVhFcEpWVem6yuLDK5_y67LlIjhiaTTmbQVi_fFkdMgkn3d1k9NGNdON9gbQLm0jBgqHM7JB0WSjYgdJsk5nZwe-VFwXxvGDaE2cCXki2gOSPylhqWEHFmm2dHdFvkWOqLwr8jDJ6CvZkKmQ_ldm5FnYpuOWDkg7lsGHsjogNLTrZGIrMLy9CkOspY5a5sWH9nmXloWSg2sQB75AoPGWpD2cQya4r_rPq7elDElkg80FzX_1xvzuvG9NQQ-8u9vAh_3GwWZcQZ6u9j9fqF7UQBNTzHEKOw3cu7MYvNjlrEgyWYaTWrpUSzVx94MIwC0aLJT0b49T5Je0Dvv3FEGmBbOifUd0yGtKOl5qQWAcvC5gHhjmv74ShXnUTnXkHGuo6Ke5nv0HunUduqev4fq9DF3WTzHeldIEk9WMV41kLqzN4DHyzK8MKlm40]--></g></svg>