<svg xmlns="http://www.w3.org/2000/svg" xmlns:xlink="http://www.w3.org/1999/xlink" contentStyleType="text/css" data-diagram-type="SALT" height="452px" preserveAspectRatio="none" style="width:731px;height:452px;background:#FFFFFF;" version="1.1" viewBox="0 0 731 452" width="731px" zoomAndPan="magnify"><defs/><g><text fill="#000000" font-family="sans-serif" font-size="12" font-weight="bold" lengthAdjust="spacing" textLength="188.6016" x="6" y="17.1387">GENERACI&#211;N DE EX&#193;MENES</text><text fill="#000000" font-family="sans-serif" font-size="12" font-weight="bold" lengthAdjust="spacing" textLength="93.3164" x="603.8477" y="17.1387">VISTA PREVIA</text><text fill="#000000" font-family="sans-serif" font-size="12" lengthAdjust="spacing" textLength="69.0117" x="6" y="33.1074">Asignatura:</text><text fill="#000000" font-family="sans-serif" font-size="12" font-weight="bold" lengthAdjust="spacing" textLength="190.8164" x="78.8262" y="33.1074">Estructura de Datos (GII-24)</text><text fill="#000000" font-family="sans-serif" font-size="12" lengthAdjust="spacing" textLength="39.8848" x="603.8477" y="33.1074">Fecha:</text><text fill="#000000" font-family="sans-serif" font-size="12" font-weight="bold" lengthAdjust="spacing" textLength="75.5625" x="647.5469" y="33.1074">12/12/2024</text><line style="stroke:#AAAAAA;stroke-width:1;" x1="6" x2="602.8477" y1="40.4375" y2="40.4375"/><line style="stroke:#AAAAAA;stroke-width:1;" x1="6" x2="602.8477" y1="42.4375" y2="42.4375"/><text fill="#000000" font-family="sans-serif" font-size="12" font-weight="bold" lengthAdjust="spacing" textLength="133.3945" x="6" y="73.0449">Estado del proceso:</text><text fill="#000000" font-family="sans-serif" font-size="12" lengthAdjust="spacing" textLength="355.9688" x="6" y="89.0137">Generaci&#243;n completada. Esperando validaci&#243;n o guardado.</text><text fill="#000000" font-family="sans-serif" font-size="12" font-weight="bold" lengthAdjust="spacing" textLength="14.4258" x="7" y="121.9512">ID</text><text fill="#000000" font-family="sans-serif" font-size="12" font-weight="bold" lengthAdjust="spacing" textLength="29.1328" x="44.4023" y="121.9512">Tipo</text><text fill="#000000" font-family="sans-serif" font-size="12" font-weight="bold" lengthAdjust="spacing" textLength="69.5039" x="97.9941" y="121.9512">Preguntas</text><text fill="#000000" font-family="sans-serif" font-size="12" lengthAdjust="spacing" textLength="35.4023" x="7" y="137.9199">EX-01</text><text fill="#000000" font-family="sans-serif" font-size="12" lengthAdjust="spacing" textLength="51.5918" x="44.4023" y="137.9199">Parcial 1</text><text fill="#000000" font-family="sans-serif" font-size="12" lengthAdjust="spacing" textLength="79.7754" x="97.9941" y="137.9199">10 Preguntas</text><text fill="#000000" font-family="sans-serif" font-size="12" lengthAdjust="spacing" textLength="35.4023" x="7" y="153.8887">EX-02</text><text fill="#000000" font-family="sans-serif" font-size="12" lengthAdjust="spacing" textLength="51.5918" x="44.4023" y="153.8887">Parcial 1</text><text fill="#000000" font-family="sans-serif" font-size="12" lengthAdjust="spacing" textLength="79.7754" x="97.9941" y="153.8887">10 Preguntas</text><text fill="#000000" font-family="sans-serif" font-size="12" lengthAdjust="spacing" textLength="35.4023" x="7" y="169.8574">EX-03</text><text fill="#000000" font-family="sans-serif" font-size="12" lengthAdjust="spacing" textLength="51.5918" x="44.4023" y="169.8574">Parcial 1</text><text fill="#000000" font-family="sans-serif" font-size="12" lengthAdjust="spacing" textLength="79.7754" x="97.9941" y="169.8574">10 Preguntas</text><line style="stroke:#000000;stroke-width:1;" x1="6" x2="43.4023" y1="109.8125" y2="109.8125"/><line style="stroke:#000000;stroke-width:1;" x1="96.9941" x2="178.7695" y1="141.75" y2="141.75"/><line style="stroke:#000000;stroke-width:1;" x1="43.4023" x2="96.9941" y1="109.8125" y2="109.8125"/><line style="stroke:#000000;stroke-width:1;" x1="96.9941" x2="178.7695" y1="109.8125" y2="109.8125"/><line style="stroke:#000000;stroke-width:1;" x1="6" x2="43.4023" y1="157.7188" y2="157.7188"/><line style="stroke:#000000;stroke-width:1;" x1="43.4023" x2="96.9941" y1="157.7188" y2="157.7188"/><line style="stroke:#000000;stroke-width:1;" x1="6" x2="43.4023" y1="125.7813" y2="125.7813"/><line style="stroke:#000000;stroke-width:1;" x1="96.9941" x2="178.7695" y1="157.7188" y2="157.7188"/><line style="stroke:#000000;stroke-width:1;" x1="43.4023" x2="96.9941" y1="125.7813" y2="125.7813"/><line style="stroke:#000000;stroke-width:1;" x1="96.9941" x2="178.7695" y1="125.7813" y2="125.7813"/><line style="stroke:#000000;stroke-width:1;" x1="6" x2="43.4023" y1="173.6875" y2="173.6875"/><line style="stroke:#000000;stroke-width:1;" x1="43.4023" x2="96.9941" y1="173.6875" y2="173.6875"/><line style="stroke:#000000;stroke-width:1;" x1="96.9941" x2="178.7695" y1="173.6875" y2="173.6875"/><line style="stroke:#000000;stroke-width:1;" x1="6" x2="43.4023" y1="141.75" y2="141.75"/><line style="stroke:#000000;stroke-width:1;" x1="43.4023" x2="96.9941" y1="141.75" y2="141.75"/><line style="stroke:#000000;stroke-width:1;" x1="6" x2="6" y1="109.8125" y2="125.7813"/><line style="stroke:#000000;stroke-width:1;" x1="96.9941" x2="96.9941" y1="141.75" y2="157.7188"/><line style="stroke:#000000;stroke-width:1;" x1="178.7695" x2="178.7695" y1="141.75" y2="157.7188"/><line style="stroke:#000000;stroke-width:1;" x1="43.4023" x2="43.4023" y1="109.8125" y2="125.7813"/><line style="stroke:#000000;stroke-width:1;" x1="96.9941" x2="96.9941" y1="109.8125" y2="125.7813"/><line style="stroke:#000000;stroke-width:1;" x1="178.7695" x2="178.7695" y1="109.8125" y2="125.7813"/><line style="stroke:#000000;stroke-width:1;" x1="6" x2="6" y1="157.7188" y2="173.6875"/><line style="stroke:#000000;stroke-width:1;" x1="43.4023" x2="43.4023" y1="157.7188" y2="173.6875"/><line style="stroke:#000000;stroke-width:1;" x1="6" x2="6" y1="125.7813" y2="141.75"/><line style="stroke:#000000;stroke-width:1;" x1="96.9941" x2="96.9941" y1="157.7188" y2="173.6875"/><line style="stroke:#000000;stroke-width:1;" x1="178.7695" x2="178.7695" y1="157.7188" y2="173.6875"/><line style="stroke:#000000;stroke-width:1;" x1="43.4023" x2="43.4023" y1="125.7813" y2="141.75"/><line style="stroke:#000000;stroke-width:1;" x1="96.9941" x2="96.9941" y1="125.7813" y2="141.75"/><line style="stroke:#000000;stroke-width:1;" x1="178.7695" x2="178.7695" y1="125.7813" y2="141.75"/><line style="stroke:#000000;stroke-width:1;" x1="6" x2="6" y1="141.75" y2="157.7188"/><line style="stroke:#000000;stroke-width:1;" x1="43.4023" x2="43.4023" y1="141.75" y2="157.7188"/><line style="stroke:#AAAAAA;stroke-width:1;" x1="6" x2="602.8477" y1="211.125" y2="211.125"/><rect fill="#EEEEEE" height="16.9688" style="stroke:#000000;stroke-width:1;" width="242.8008" x="6" y="231.5938"/><text fill="#000000" font-family="sans-serif" font-size="12" font-weight="bold" lengthAdjust="spacing" textLength="227.8008" x="8" y="244.7324">CONFIRMACI&#211;N DE CANCELACI&#211;N</text><line style="stroke:#000000;stroke-width:1;" x1="237.8008" x2="237.8008" y1="231.5938" y2="248.5625"/><polygon fill="#000000" points="240.8008,237.5938,246.8008,237.5938,243.8008,243.5625" style="stroke:#000000;stroke-width:1;"/><text fill="#000000" font-family="sans-serif" font-size="12" lengthAdjust="spacing" textLength="331.0078" x="7" y="279.6699">&#191;Est&#225; seguro que desea cancelar la generaci&#243;n actual?</text><text fill="#FF0000" font-family="sans-serif" font-size="12" font-weight="bold" lengthAdjust="spacing" textLength="114.6914" x="7" y="311.6074">&#9888; ADVERTENCIA:</text><text fill="#000000" font-family="sans-serif" font-size="12" lengthAdjust="spacing" textLength="374.8477" x="7" y="327.5762">Si confirma la cancelaci&#243;n, los 3 ex&#225;menes generados en esta</text><text fill="#000000" font-family="sans-serif" font-size="12" lengthAdjust="spacing" textLength="118.0723" x="7" y="343.5449">sesi&#243;n se perder&#225;n.</text><line style="stroke:#AAAAAA;stroke-width:1;" x1="7" x2="382.8477" y1="366.8438" y2="366.8438"/><line style="stroke:#AAAAAA;stroke-width:1;" x1="7" x2="382.8477" y1="368.8438" y2="368.8438"/><rect fill="#EEEEEE" height="17.9688" rx="5" ry="5" style="stroke:#000000;stroke-width:2.5;" width="132" x="9.5" y="390.8125"/><text fill="#000000" font-family="sans-serif" font-size="12" font-weight="bold" lengthAdjust="spacing" textLength="107.2383" x="21.8809" y="403.9512">(X) NO, VOLVER</text><rect fill="#EEEEEE" height="17.9688" rx="5" ry="5" style="stroke:#000000;stroke-width:2.5;" width="212" x="386.3477" y="390.8125"/><text fill="#000000" font-family="sans-serif" font-size="12" font-weight="bold" lengthAdjust="spacing" textLength="186.6211" x="399.0371" y="403.9512">(&#10003;) S&#205;, CANCELAR PROCESO</text><line style="stroke:#000000;stroke-width:1;" x1="5" x2="602.8477" y1="5" y2="5"/><line style="stroke:#000000;stroke-width:1;" x1="602.8477" x2="724.1094" y1="445.2188" y2="445.2188"/><line style="stroke:#000000;stroke-width:1;" x1="602.8477" x2="724.1094" y1="5" y2="5"/><line style="stroke:#000000;stroke-width:1;" x1="5" x2="602.8477" y1="445.2188" y2="445.2188"/><line style="stroke:#000000;stroke-width:1;" x1="5" x2="5" y1="5" y2="20.9688"/><line style="stroke:#000000;stroke-width:1;" x1="5" x2="5" y1="413.2813" y2="429.25"/><line style="stroke:#000000;stroke-width:1;" x1="724.1094" x2="724.1094" y1="5" y2="20.9688"/><line style="stroke:#000000;stroke-width:1;" x1="724.1094" x2="724.1094" y1="413.2813" y2="429.25"/><line style="stroke:#000000;stroke-width:1;" x1="5" x2="5" y1="214.625" y2="230.5938"/><line style="stroke:#000000;stroke-width:1;" x1="724.1094" x2="724.1094" y1="214.625" y2="230.5938"/><line style="stroke:#000000;stroke-width:1;" x1="5" x2="5" y1="108.8125" y2="174.6875"/><line style="stroke:#000000;stroke-width:1;" x1="724.1094" x2="724.1094" y1="108.8125" y2="174.6875"/><line style="stroke:#000000;stroke-width:1;" x1="5" x2="5" y1="44.9375" y2="60.9063"/><line style="stroke:#000000;stroke-width:1;" x1="724.1094" x2="724.1094" y1="44.9375" y2="60.9063"/><line style="stroke:#000000;stroke-width:1;" x1="5" x2="5" y1="266.5313" y2="413.2813"/><line style="stroke:#000000;stroke-width:1;" x1="724.1094" x2="724.1094" y1="266.5313" y2="413.2813"/><line style="stroke:#000000;stroke-width:1;" x1="5" x2="5" y1="206.625" y2="214.625"/><line style="stroke:#000000;stroke-width:1;" x1="724.1094" x2="724.1094" y1="206.625" y2="214.625"/><line style="stroke:#000000;stroke-width:1;" x1="5" x2="5" y1="92.8438" y2="108.8125"/><line style="stroke:#000000;stroke-width:1;" x1="724.1094" x2="724.1094" y1="92.8438" y2="108.8125"/><line style="stroke:#000000;stroke-width:1;" x1="5" x2="5" y1="36.9375" y2="44.9375"/><line style="stroke:#000000;stroke-width:1;" x1="724.1094" x2="724.1094" y1="36.9375" y2="44.9375"/><line style="stroke:#000000;stroke-width:1;" x1="5" x2="5" y1="250.5625" y2="266.5313"/><line style="stroke:#000000;stroke-width:1;" x1="724.1094" x2="724.1094" y1="250.5625" y2="266.5313"/><line style="stroke:#000000;stroke-width:1;" x1="5" x2="5" y1="190.6563" y2="206.625"/><line style="stroke:#000000;stroke-width:1;" x1="724.1094" x2="724.1094" y1="190.6563" y2="206.625"/><line style="stroke:#000000;stroke-width:1;" x1="5" x2="5" y1="76.875" y2="92.8438"/><line style="stroke:#000000;stroke-width:1;" x1="724.1094" x2="724.1094" y1="76.875" y2="92.8438"/><line style="stroke:#000000;stroke-width:1;" x1="5" x2="5" y1="20.9688" y2="36.9375"/><line style="stroke:#000000;stroke-width:1;" x1="5" x2="5" y1="429.25" y2="445.2188"/><line style="stroke:#000000;stroke-width:1;" x1="724.1094" x2="724.1094" y1="20.9688" y2="36.9375"/><line style="stroke:#000000;stroke-width:1;" x1="724.1094" x2="724.1094" y1="429.25" y2="445.2188"/><line style="stroke:#000000;stroke-width:1;" x1="5" x2="5" y1="230.5938" y2="250.5625"/><line style="stroke:#000000;stroke-width:1;" x1="724.1094" x2="724.1094" y1="230.5938" y2="250.5625"/><line style="stroke:#000000;stroke-width:1;" x1="5" x2="5" y1="174.6875" y2="190.6563"/><line style="stroke:#000000;stroke-width:1;" x1="724.1094" x2="724.1094" y1="174.6875" y2="190.6563"/><line style="stroke:#000000;stroke-width:1;" x1="5" x2="5" y1="60.9063" y2="76.875"/><line style="stroke:#000000;stroke-width:1;" x1="724.1094" x2="724.1094" y1="60.9063" y2="76.875"/><!--SRC=[ZLJ1RjD04BtxAqRYaeZ6JTA0m6fAZRE9N68dijDG2L6qjRTX9MSttRKZKEc13-3K6-90lu4FGC9_qYzXx2HEAbK2o_BkphvzC_jcniSwfIhLD4aXeY9Y2LK39fYY4PVYmrit8Ft0zeXn_TG0V0ulZWR49u7jkFcj3pq2v2p_wg4fX2_5xjGD9pQC0p9rxSFzYwFobAtvJD0qKzGgC4IdAekA9SGCUZIL6ce3rssqE_NY33BrMVHn1Mwrz_5jDzkTYgxRxPQZkGa92MaiaIo1XP8HqzAgm9lRvBy4H7A-I1XYgGb4Bz0kyDYI9ZnU8oJCCgfYP3DtN5m_AOUrDxUt3XBd4xwGszLOiLacKgehxyL3pXhD5WB6L4MS9b3CMqsem0-0xVy57lmBUBDpWTMtqTXPd6EypiZlku6tJQPZ-muPhjR57SvtHQZS__cDWkTteD6Tad2LCPHUCrfL42GKPZkwKqmsJLvL1EPMpaWcKbcAnKSOp_ttds3tfYIO4DznxJA9X_ibP2jdo36FufAhEItyh7sMZlOWmL8w0FOflvkZVxsE8aOh4y2mJ2eQpNGPcsQ0XH0pbTy9yv48kvjgUsX-L-IxTbO7VxG7qz4GWoxhu3scOhLt_-Es3c7-RM-ZQe1jCN98E5e17qdIZN7CH5mqes6C4ohIKsy8IwOqzYAqJ6o2PsQhMPkWuBvSGhE3MRVQJQlp4hnm0iL-tQWDnaFGCbCHfeLZg_6BB4M2kd52bnG2h10-PnQC5aoSzDvi3434aYifKBVKE9bwMy3pJkCrJo5a2aE1gMVqs2NDy8T1H2HZBcOMd4xwZHV6a0hidXboCs4u4ddLPmj4bYH_0G00]--></g></svg>