<svg xmlns="http://www.w3.org/2000/svg" xmlns:xlink="http://www.w3.org/1999/xlink" contentStyleType="text/css" data-diagram-type="SALT" height="500px" preserveAspectRatio="none" style="width:773px;height:500px;background:#FFFFFF;" version="1.1" viewBox="0 0 773 500" width="773px" zoomAndPan="magnify"><defs/><g><text fill="#000000" font-family="sans-serif" font-size="12" font-weight="bold" lengthAdjust="spacing" textLength="188.6016" x="6" y="17.1387">GENERACI&#211;N DE EX&#193;MENES</text><text fill="#000000" font-family="sans-serif" font-size="12" font-weight="bold" lengthAdjust="spacing" textLength="93.3164" x="645.7949" y="17.1387">VISTA PREVIA</text><text fill="#000000" font-family="sans-serif" font-size="12" lengthAdjust="spacing" textLength="69.0117" x="6" y="33.1074">Asignatura:</text><text fill="#000000" font-family="sans-serif" font-size="12" font-weight="bold" lengthAdjust="spacing" textLength="190.8164" x="78.8262" y="33.1074">Estructura de Datos (GII-24)</text><text fill="#000000" font-family="sans-serif" font-size="12" lengthAdjust="spacing" textLength="39.8848" x="645.7949" y="33.1074">Fecha:</text><text fill="#000000" font-family="sans-serif" font-size="12" font-weight="bold" lengthAdjust="spacing" textLength="75.5625" x="689.4941" y="33.1074">12/12/2024</text><line style="stroke:#AAAAAA;stroke-width:1;" x1="6" x2="644.7949" y1="40.4375" y2="40.4375"/><line style="stroke:#AAAAAA;stroke-width:1;" x1="6" x2="644.7949" y1="42.4375" y2="42.4375"/><text fill="#000000" font-family="sans-serif" font-size="12" font-weight="bold" lengthAdjust="spacing" textLength="133.3945" x="6" y="73.0449">Estado del proceso:</text><text fill="#000000" font-family="sans-serif" font-size="12" lengthAdjust="spacing" textLength="355.9688" x="6" y="89.0137">Generaci&#243;n completada. Esperando validaci&#243;n o guardado.</text><text fill="#000000" font-family="sans-serif" font-size="12" lengthAdjust="spacing" textLength="499.9453" x="6" y="104.9824">[=============================================] 100%</text><text fill="#000000" font-family="sans-serif" font-size="12" font-weight="bold" lengthAdjust="spacing" textLength="14.4258" x="7" y="137.9199">ID</text><text fill="#000000" font-family="sans-serif" font-size="12" font-weight="bold" lengthAdjust="spacing" textLength="57.9316" x="44.4023" y="137.9199">Variante</text><text fill="#000000" font-family="sans-serif" font-size="12" font-weight="bold" lengthAdjust="spacing" textLength="69.5039" x="128.4922" y="137.9199">Preguntas</text><text fill="#000000" font-family="sans-serif" font-size="12" font-weight="bold" lengthAdjust="spacing" textLength="46.0078" x="210.2676" y="137.9199">Estado</text><text fill="#000000" font-family="sans-serif" font-size="12" lengthAdjust="spacing" textLength="35.4023" x="7" y="153.8887">EX-01</text><text fill="#000000" font-family="sans-serif" font-size="12" lengthAdjust="spacing" textLength="48.8203" x="44.4023" y="153.8887">Grupo A</text><text fill="#000000" font-family="sans-serif" font-size="12" lengthAdjust="spacing" textLength="79.7754" x="128.4922" y="153.8887">10 Preguntas</text><text fill="#000000" font-family="sans-serif" font-size="12" lengthAdjust="spacing" textLength="28.3184" x="210.2676" y="153.8887">Listo</text><text fill="#000000" font-family="sans-serif" font-size="12" lengthAdjust="spacing" textLength="35.4023" x="7" y="169.8574">EX-02</text><text fill="#000000" font-family="sans-serif" font-size="12" lengthAdjust="spacing" textLength="48.8438" x="44.4023" y="169.8574">Grupo B</text><text fill="#000000" font-family="sans-serif" font-size="12" lengthAdjust="spacing" textLength="79.7754" x="128.4922" y="169.8574">10 Preguntas</text><text fill="#000000" font-family="sans-serif" font-size="12" lengthAdjust="spacing" textLength="28.3184" x="210.2676" y="169.8574">Listo</text><text fill="#000000" font-family="sans-serif" font-size="12" lengthAdjust="spacing" textLength="35.4023" x="7" y="185.8262">EX-03</text><text fill="#000000" font-family="sans-serif" font-size="12" lengthAdjust="spacing" textLength="82.0898" x="44.4023" y="185.8262">Recuperaci&#243;n</text><text fill="#000000" font-family="sans-serif" font-size="12" lengthAdjust="spacing" textLength="72.1406" x="128.4922" y="185.8262">8 Preguntas</text><text fill="#000000" font-family="sans-serif" font-size="12" lengthAdjust="spacing" textLength="28.3184" x="210.2676" y="185.8262">Listo</text><line style="stroke:#000000;stroke-width:1;" x1="6" x2="43.4023" y1="125.7813" y2="125.7813"/><line style="stroke:#000000;stroke-width:1;" x1="127.4922" x2="209.2676" y1="157.7188" y2="157.7188"/><line style="stroke:#000000;stroke-width:1;" x1="43.4023" x2="127.4922" y1="125.7813" y2="125.7813"/><line style="stroke:#000000;stroke-width:1;" x1="209.2676" x2="257.2754" y1="157.7188" y2="157.7188"/><line style="stroke:#000000;stroke-width:1;" x1="127.4922" x2="209.2676" y1="125.7813" y2="125.7813"/><line style="stroke:#000000;stroke-width:1;" x1="209.2676" x2="257.2754" y1="125.7813" y2="125.7813"/><line style="stroke:#000000;stroke-width:1;" x1="6" x2="43.4023" y1="173.6875" y2="173.6875"/><line style="stroke:#000000;stroke-width:1;" x1="43.4023" x2="127.4922" y1="173.6875" y2="173.6875"/><line style="stroke:#000000;stroke-width:1;" x1="6" x2="43.4023" y1="141.75" y2="141.75"/><line style="stroke:#000000;stroke-width:1;" x1="127.4922" x2="209.2676" y1="173.6875" y2="173.6875"/><line style="stroke:#000000;stroke-width:1;" x1="43.4023" x2="127.4922" y1="141.75" y2="141.75"/><line style="stroke:#000000;stroke-width:1;" x1="209.2676" x2="257.2754" y1="173.6875" y2="173.6875"/><line style="stroke:#000000;stroke-width:1;" x1="127.4922" x2="209.2676" y1="141.75" y2="141.75"/><line style="stroke:#000000;stroke-width:1;" x1="209.2676" x2="257.2754" y1="141.75" y2="141.75"/><line style="stroke:#000000;stroke-width:1;" x1="6" x2="43.4023" y1="189.6563" y2="189.6563"/><line style="stroke:#000000;stroke-width:1;" x1="43.4023" x2="127.4922" y1="189.6563" y2="189.6563"/><line style="stroke:#000000;stroke-width:1;" x1="127.4922" x2="209.2676" y1="189.6563" y2="189.6563"/><line style="stroke:#000000;stroke-width:1;" x1="6" x2="43.4023" y1="157.7188" y2="157.7188"/><line style="stroke:#000000;stroke-width:1;" x1="209.2676" x2="257.2754" y1="189.6563" y2="189.6563"/><line style="stroke:#000000;stroke-width:1;" x1="43.4023" x2="127.4922" y1="157.7188" y2="157.7188"/><line style="stroke:#000000;stroke-width:1;" x1="6" x2="6" y1="125.7813" y2="141.75"/><line style="stroke:#000000;stroke-width:1;" x1="127.4922" x2="127.4922" y1="157.7188" y2="173.6875"/><line style="stroke:#000000;stroke-width:1;" x1="43.4023" x2="43.4023" y1="125.7813" y2="141.75"/><line style="stroke:#000000;stroke-width:1;" x1="209.2676" x2="209.2676" y1="157.7188" y2="173.6875"/><line style="stroke:#000000;stroke-width:1;" x1="257.2754" x2="257.2754" y1="157.7188" y2="173.6875"/><line style="stroke:#000000;stroke-width:1;" x1="127.4922" x2="127.4922" y1="125.7813" y2="141.75"/><line style="stroke:#000000;stroke-width:1;" x1="209.2676" x2="209.2676" y1="125.7813" y2="141.75"/><line style="stroke:#000000;stroke-width:1;" x1="257.2754" x2="257.2754" y1="125.7813" y2="141.75"/><line style="stroke:#000000;stroke-width:1;" x1="6" x2="6" y1="173.6875" y2="189.6563"/><line style="stroke:#000000;stroke-width:1;" x1="43.4023" x2="43.4023" y1="173.6875" y2="189.6563"/><line style="stroke:#000000;stroke-width:1;" x1="6" x2="6" y1="141.75" y2="157.7188"/><line style="stroke:#000000;stroke-width:1;" x1="127.4922" x2="127.4922" y1="173.6875" y2="189.6563"/><line style="stroke:#000000;stroke-width:1;" x1="43.4023" x2="43.4023" y1="141.75" y2="157.7188"/><line style="stroke:#000000;stroke-width:1;" x1="209.2676" x2="209.2676" y1="173.6875" y2="189.6563"/><line style="stroke:#000000;stroke-width:1;" x1="257.2754" x2="257.2754" y1="173.6875" y2="189.6563"/><line style="stroke:#000000;stroke-width:1;" x1="127.4922" x2="127.4922" y1="141.75" y2="157.7188"/><line style="stroke:#000000;stroke-width:1;" x1="209.2676" x2="209.2676" y1="141.75" y2="157.7188"/><line style="stroke:#000000;stroke-width:1;" x1="257.2754" x2="257.2754" y1="141.75" y2="157.7188"/><line style="stroke:#000000;stroke-width:1;" x1="6" x2="6" y1="157.7188" y2="173.6875"/><line style="stroke:#000000;stroke-width:1;" x1="43.4023" x2="43.4023" y1="157.7188" y2="173.6875"/><line style="stroke:#AAAAAA;stroke-width:1;" x1="6" x2="644.7949" y1="227.0938" y2="227.0938"/><rect fill="#EEEEEE" height="16.9688" style="stroke:#000000;stroke-width:1;" width="242.8008" x="6" y="247.5625"/><text fill="#000000" font-family="sans-serif" font-size="12" font-weight="bold" lengthAdjust="spacing" textLength="227.8008" x="8" y="260.7012">CONFIRMACI&#211;N DE CANCELACI&#211;N</text><line style="stroke:#000000;stroke-width:1;" x1="237.8008" x2="237.8008" y1="247.5625" y2="264.5313"/><polygon fill="#000000" points="240.8008,253.5625,246.8008,253.5625,243.8008,259.5313" style="stroke:#000000;stroke-width:1;"/><text fill="#000000" font-family="sans-serif" font-size="12" lengthAdjust="spacing" textLength="331.0078" x="7" y="295.6387">&#191;Est&#225; seguro que desea cancelar la generaci&#243;n actual?</text><text fill="#FF0000" font-family="sans-serif" font-size="12" font-weight="bold" lengthAdjust="spacing" textLength="114.6914" x="7" y="327.5762">&#9888; ADVERTENCIA:</text><text fill="#000000" font-family="sans-serif" font-size="12" lengthAdjust="spacing" textLength="374.8477" x="7" y="343.5449">Si confirma la cancelaci&#243;n, los 3 ex&#225;menes generados en esta</text><text fill="#000000" font-family="sans-serif" font-size="12" lengthAdjust="spacing" textLength="366.4336" x="7" y="359.5137">sesi&#243;n se descartar&#225;n y los datos no guardados se perder&#225;n.</text><text fill="#000000" font-family="sans-serif" font-size="12" lengthAdjust="spacing" textLength="260.2266" x="7" y="391.4512">Esta acci&#243;n devolver&#225; el sistema al estado:</text><text fill="#000000" font-family="sans-serif" font-size="12" font-weight="bold" lengthAdjust="spacing" textLength="152.7539" x="271.041" y="391.4512">ASIGNATURA_ABIERTO</text><line style="stroke:#AAAAAA;stroke-width:1;" x1="7" x2="424.7949" y1="414.75" y2="414.75"/><line style="stroke:#AAAAAA;stroke-width:1;" x1="7" x2="424.7949" y1="416.75" y2="416.75"/><rect fill="#EEEEEE" height="17.9688" rx="5" ry="5" style="stroke:#000000;stroke-width:2.5;" width="132" x="9.5" y="438.7188"/><text fill="#000000" font-family="sans-serif" font-size="12" font-weight="bold" lengthAdjust="spacing" textLength="107.2383" x="21.8809" y="451.8574">(X) NO, VOLVER</text><rect fill="#EEEEEE" height="17.9688" rx="5" ry="5" style="stroke:#000000;stroke-width:2.5;" width="212" x="428.2949" y="438.7188"/><text fill="#000000" font-family="sans-serif" font-size="12" font-weight="bold" lengthAdjust="spacing" textLength="186.6211" x="440.9844" y="451.8574">(&#10003;) S&#205;, CANCELAR PROCESO</text><line style="stroke:#000000;stroke-width:1;" x1="5" x2="644.7949" y1="5" y2="5"/><line style="stroke:#000000;stroke-width:1;" x1="644.7949" x2="766.0566" y1="5" y2="5"/><line style="stroke:#000000;stroke-width:1;" x1="5" x2="644.7949" y1="493.125" y2="493.125"/><line style="stroke:#000000;stroke-width:1;" x1="644.7949" x2="766.0566" y1="493.125" y2="493.125"/><line style="stroke:#000000;stroke-width:1;" x1="5" x2="5" y1="5" y2="20.9688"/><line style="stroke:#000000;stroke-width:1;" x1="5" x2="5" y1="282.5" y2="461.1875"/><line style="stroke:#000000;stroke-width:1;" x1="766.0566" x2="766.0566" y1="5" y2="20.9688"/><line style="stroke:#000000;stroke-width:1;" x1="766.0566" x2="766.0566" y1="282.5" y2="461.1875"/><line style="stroke:#000000;stroke-width:1;" x1="5" x2="5" y1="222.5938" y2="230.5938"/><line style="stroke:#000000;stroke-width:1;" x1="766.0566" x2="766.0566" y1="222.5938" y2="230.5938"/><line style="stroke:#000000;stroke-width:1;" x1="5" x2="5" y1="108.8125" y2="124.7813"/><line style="stroke:#000000;stroke-width:1;" x1="766.0566" x2="766.0566" y1="108.8125" y2="124.7813"/><line style="stroke:#000000;stroke-width:1;" x1="5" x2="5" y1="44.9375" y2="60.9063"/><line style="stroke:#000000;stroke-width:1;" x1="766.0566" x2="766.0566" y1="44.9375" y2="60.9063"/><line style="stroke:#000000;stroke-width:1;" x1="5" x2="5" y1="266.5313" y2="282.5"/><line style="stroke:#000000;stroke-width:1;" x1="766.0566" x2="766.0566" y1="266.5313" y2="282.5"/><line style="stroke:#000000;stroke-width:1;" x1="5" x2="5" y1="206.625" y2="222.5938"/><line style="stroke:#000000;stroke-width:1;" x1="766.0566" x2="766.0566" y1="206.625" y2="222.5938"/><line style="stroke:#000000;stroke-width:1;" x1="5" x2="5" y1="92.8438" y2="108.8125"/><line style="stroke:#000000;stroke-width:1;" x1="766.0566" x2="766.0566" y1="92.8438" y2="108.8125"/><line style="stroke:#000000;stroke-width:1;" x1="5" x2="5" y1="36.9375" y2="44.9375"/><line style="stroke:#000000;stroke-width:1;" x1="5" x2="5" y1="477.1563" y2="493.125"/><line style="stroke:#000000;stroke-width:1;" x1="766.0566" x2="766.0566" y1="36.9375" y2="44.9375"/><line style="stroke:#000000;stroke-width:1;" x1="766.0566" x2="766.0566" y1="477.1563" y2="493.125"/><line style="stroke:#000000;stroke-width:1;" x1="5" x2="5" y1="246.5625" y2="266.5313"/><line style="stroke:#000000;stroke-width:1;" x1="766.0566" x2="766.0566" y1="246.5625" y2="266.5313"/><line style="stroke:#000000;stroke-width:1;" x1="5" x2="5" y1="190.6563" y2="206.625"/><line style="stroke:#000000;stroke-width:1;" x1="766.0566" x2="766.0566" y1="190.6563" y2="206.625"/><line style="stroke:#000000;stroke-width:1;" x1="5" x2="5" y1="76.875" y2="92.8438"/><line style="stroke:#000000;stroke-width:1;" x1="766.0566" x2="766.0566" y1="76.875" y2="92.8438"/><line style="stroke:#000000;stroke-width:1;" x1="5" x2="5" y1="20.9688" y2="36.9375"/><line style="stroke:#000000;stroke-width:1;" x1="5" x2="5" y1="461.1875" y2="477.1563"/><line style="stroke:#000000;stroke-width:1;" x1="766.0566" x2="766.0566" y1="20.9688" y2="36.9375"/><line style="stroke:#000000;stroke-width:1;" x1="766.0566" x2="766.0566" y1="461.1875" y2="477.1563"/><line style="stroke:#000000;stroke-width:1;" x1="5" x2="5" y1="230.5938" y2="246.5625"/><line style="stroke:#000000;stroke-width:1;" x1="766.0566" x2="766.0566" y1="230.5938" y2="246.5625"/><line style="stroke:#000000;stroke-width:1;" x1="5" x2="5" y1="124.7813" y2="190.6563"/><line style="stroke:#000000;stroke-width:1;" x1="766.0566" x2="766.0566" y1="124.7813" y2="190.6563"/><line style="stroke:#000000;stroke-width:1;" x1="5" x2="5" y1="60.9063" y2="76.875"/><line style="stroke:#000000;stroke-width:1;" x1="766.0566" x2="766.0566" y1="60.9063" y2="76.875"/><!--SRC=[bLJHRjem57tFLrnfcWHQeO6ogOjArnGCIWS9IYYhLBMLcxWiKh2PdQ1LRH_s0NlgsxI7zHls0PF6d_HBTfD0GgLEsY94uklZutlkFVQ1YgcC5OrYy2dtMKHbdt4cgHyAVl71SadFDOT4ktcb0Jvxb_jzOXFNx5ZBUnkw1CZ9yiiGGnxSfhCJonkRC7B9n3BtjY_tirMc2gUSnecaHeeXAfQ9dmuXOD2biL1GwLjMhTcgfckGgSVyZpcuqTp6NrDljWgwThkTlUlhb92G1WB98fXBuJCbZ0AyLhFyoS4Nitd444lhGDGSunoNBMWK1Yk4W6b2PO1iEVbf-t-UCsZe-ikDt6vUPAzLcbPtfIwj4vKXvJ4h8oF9fWcFgIf3kQv2IlgGavhUmDc-JEO2JFngw50inU4WLB5u0cyMyCD_WUzWr6L-CY_ATWkxVrbpjw4r_w_LDWRdgA7Zs3tB7PQ6wPXsXmpoSIhjVBDUHIQ_Vw7uvGCet5OA-9GmRAzYj70fH1Ic6xsbQ2WQlIi8wcNbVH49QKWMx6C-Zzz-WDcT47TCx8vbPaRPsyuWPPMz4Bt2hq8ve-a-gpspZROWGhlk0FkyV9ZX_cgLHO1Hne5XomeQnLIMcygIz_6WKRbyu72TSGIPyNbfEPK2iUm1Ir7rPwIaXa2bkUA0BKIqIB60nbVO58RfqYZB8H3PwJ4zgs-RusFNl30FBHJjF75JoTnU7wgduTEKf79I1TlPWeapmBfbzZn36-HpZz_lg-0jlswj6-lYwNSwn7Dou3C-kTCE60_IEqVJHX6UWkFX0528mYi76dKyww_h3RqonfxROW5w2qrhD7MZzHQ6tXZI-QfMwOy6e4GYVImkQfVXPH8ZGLKxeWiABferd343d3dZHzttwm0GlWYbuDYwM3kQ34l0crRjC8p1On9JWSbGwx8hck2zIBWlWf1F3JWUzsgxse1oxDWKkHdNEW9vvRK1F8cYFm00]--></g></svg>