<svg xmlns="http://www.w3.org/2000/svg" xmlns:xlink="http://www.w3.org/1999/xlink" contentStyleType="text/css" data-diagram-type="STATE" height="665px" preserveAspectRatio="none" style="width:474px;height:665px;background:#FFFFFF;" version="1.1" viewBox="0 0 474 665" width="474px" zoomAndPan="magnify"><defs/><g><path d="M20.5,7 L432.5,7 A12.5,12.5 0 0 1 445,19.5 L445,33.2969 L8,33.2969 L8,19.5 A12.5,12.5 0 0 1 20.5,7" fill="#F1F1F1"/><rect fill="none" height="507.2969" rx="12.5" ry="12.5" style="stroke:#181818;stroke-width:0.5;" width="437" x="8" y="7"/><line style="stroke:#181818;stroke-width:0.5;" x1="8" x2="445" y1="33.2969" y2="33.2969"/><text fill="#000000" font-family="sans-serif" font-size="14" lengthAdjust="spacing" textLength="89.9609" x="181.5195" y="24.9951">crearGrado()</text><g id="crearGrado.SolicitandoDatosGrado"><rect fill="#F1F1F1" height="50" rx="12.5" ry="12.5" style="stroke:#181818;stroke-width:0.5;" width="50" x="20" y="135.2969"/><line style="stroke:#181818;stroke-width:0.5;" x1="20" x2="70" y1="161.5938" y2="161.5938"/><text fill="#000000" font-family="sans-serif" font-size="14" lengthAdjust="spacing" textLength="4.4502" x="42.7749" y="153.292">&#160;</text></g><g id="crearGrado.CreandoGrado"><rect fill="#F1F1F1" height="50" rx="12.5" ry="12.5" style="stroke:#181818;stroke-width:0.5;" width="50" x="20" y="346.2969"/><line style="stroke:#181818;stroke-width:0.5;" x1="20" x2="70" y1="372.5938" y2="372.5938"/><text fill="#000000" font-family="sans-serif" font-size="14" lengthAdjust="spacing" textLength="4.4502" x="42.7749" y="364.292">&#160;</text></g><ellipse cx="45" cy="54.2969" fill="#222222" rx="10" ry="10" style="stroke:#222222;stroke-width:1;"/><ellipse cx="45" cy="493.2969" fill="none" rx="11" ry="11" style="stroke:#222222;stroke-width:1;"/><ellipse cx="45" cy="493.2969" fill="#222222" rx="6" ry="6" style="stroke:#222222;stroke-width:1;"/><!--link *start*crearGrado to SolicitandoDatosGrado--><g class="link" data-entity-1=".start.crearGrado" data-entity-2="SolicitandoDatosGrado" data-source-line="8" data-uid="lnk3" id="link_.start.crearGrado_SolicitandoDatosGrado"><path d="M45,64.5269 C45,80.2369 45,106.6569 45,129.1669" fill="none" id="*start*crearGrado-to-SolicitandoDatosGrado" style="stroke:#008000;stroke-width:1;"/><polygon fill="#008000" points="45,135.1669,49,126.1669,45,130.1669,41,126.1669,45,135.1669" style="stroke:#008000;stroke-width:1;"/><path d="M50,87.2969 L50,112.2969 L305,112.2969 L305,97.2969 L295,87.2969 L50,87.2969" fill="#FEFFDD" style="stroke:#181818;stroke-width:0.5;"/><path d="M295,87.2969 L295,97.2969 L305,97.2969 L295,87.2969" fill="#FEFFDD" style="stroke:#181818;stroke-width:0.5;"/><text fill="#000000" font-family="sans-serif" font-size="13" font-weight="bold" lengthAdjust="spacing" textLength="60.5313" x="56" y="104.3638">Docente</text><text fill="#000000" font-family="sans-serif" font-size="13" lengthAdjust="spacing" textLength="169.8633" x="120.6636" y="104.3638">solicita crear grado nuevo</text></g><!--link SolicitandoDatosGrado to CreandoGrado--><g class="link" data-entity-1="SolicitandoDatosGrado" data-entity-2="CreandoGrado" data-source-line="13" data-uid="lnk4" id="link_SolicitandoDatosGrado_CreandoGrado"><path d="M45,185.6769 C45,225.9569 45,299.8969 45,340.0669" fill="none" id="SolicitandoDatosGrado-to-CreandoGrado" style="stroke:#008000;stroke-width:1;"/><polygon fill="#008000" points="45,346.0669,49,337.0669,45,341.0669,41,337.0669,45,346.0669" style="stroke:#008000;stroke-width:1;"/><path d="M50,208.2969 L50,323.2969 L436,323.2969 L436,218.2969 L426,208.2969 L50,208.2969" fill="#FEFFDD" style="stroke:#181818;stroke-width:0.5;"/><path d="M426,208.2969 L426,218.2969 L436,218.2969 L426,208.2969" fill="#FEFFDD" style="stroke:#181818;stroke-width:0.5;"/><text fill="#000000" font-family="sans-serif" font-size="13" font-weight="bold" lengthAdjust="spacing" textLength="58.9063" x="56" y="225.3638">Sistema</text><text fill="#000000" font-family="sans-serif" font-size="13" lengthAdjust="spacing" textLength="302.1992" x="119.0386" y="225.3638">presenta solicitud de datos m&#237;nimos del grado</text><text fill="#000000" font-family="sans-serif" font-size="13" lengthAdjust="spacing" textLength="147.6211" x="56" y="240.4966">&#8226; Nombre (obligatorio)</text><text fill="#000000" font-family="sans-serif" font-size="13" lengthAdjust="spacing" textLength="140.7847" x="56" y="255.6294">&#8226; C&#243;digo (obligatorio)</text><text fill="#000000" font-family="sans-serif" font-size="13" lengthAdjust="spacing" textLength="138.582" x="56" y="270.7622">&#8226; Alumnos enlistados</text><text fill="#000000" font-family="sans-serif" font-size="13" lengthAdjust="spacing" textLength="4.1323" x="56" y="285.895">&#160;</text><text fill="#000000" font-family="sans-serif" font-size="13" lengthAdjust="spacing" textLength="197.4375" x="56" y="301.0278">&#8226; Permite solicitar crear grado</text><text fill="#000000" font-family="sans-serif" font-size="13" lengthAdjust="spacing" textLength="258.3179" x="56" y="316.1606">&#8226; Permite solicitar cancelar cancelaci&#243;n</text></g><!--link CreandoGrado to *end*crearGrado--><g class="link" data-entity-1="CreandoGrado" data-entity-2=".end.crearGrado" data-source-line="24" data-uid="lnk6" id="link_CreandoGrado_.end.crearGrado"><path d="M45,396.5769 C45,422.8769 45,457.5669 45,476.2769" fill="none" id="CreandoGrado-to-*end*crearGrado" style="stroke:#008000;stroke-width:1;"/><polygon fill="#008000" points="45,482.2769,49,473.2769,45,477.2769,41,473.2769,45,482.2769" style="stroke:#008000;stroke-width:1;"/><path d="M50,419.2969 L50,459.2969 L346,459.2969 L346,429.2969 L336,419.2969 L50,419.2969" fill="#FEFFDD" style="stroke:#181818;stroke-width:0.5;"/><path d="M336,419.2969 L336,429.2969 L346,429.2969 L336,419.2969" fill="#FEFFDD" style="stroke:#181818;stroke-width:0.5;"/><text fill="#000000" font-family="sans-serif" font-size="13" font-weight="bold" lengthAdjust="spacing" textLength="60.5313" x="56" y="436.3638">Docente</text><text fill="#000000" font-family="sans-serif" font-size="13" lengthAdjust="spacing" textLength="177.8423" x="120.6636" y="436.3638">proporciona datos m&#237;nimos</text><text fill="#000000" font-family="sans-serif" font-size="13" font-weight="bold" lengthAdjust="spacing" textLength="58.9063" x="56" y="451.4966">Sistema</text><text fill="#000000" font-family="sans-serif" font-size="13" lengthAdjust="spacing" textLength="212.3101" x="119.0386" y="451.4966">crea grado y transfiere a edici&#243;n</text></g><g id="GRADOS_ABIERTO"><rect fill="#F1F1F1" height="50" rx="12.5" ry="12.5" style="stroke:#181818;stroke-width:0.5;" width="149.2949" x="7" y="609"/><line style="stroke:#181818;stroke-width:0.5;" x1="7" x2="156.2949" y1="635.2969" y2="635.2969"/><text fill="#000000" font-family="sans-serif" font-size="14" lengthAdjust="spacing" textLength="129.2949" x="17" y="626.9951">GRADOS_ABIERTO</text></g><g id="GRADO_ABIERTO"><rect fill="#F1F1F1" height="50" rx="12.5" ry="12.5" style="stroke:#181818;stroke-width:0.5;" width="140.4082" x="214.5" y="609"/><line style="stroke:#181818;stroke-width:0.5;" x1="214.5" x2="354.9082" y1="635.2969" y2="635.2969"/><text fill="#000000" font-family="sans-serif" font-size="14" lengthAdjust="spacing" textLength="120.4082" x="224.5" y="626.9951">GRADO_ABIERTO</text></g><!--link GRADOS_ABIERTO to crearGrado--><g class="link" data-entity-1="GRADOS_ABIERTO" data-entity-2="crearGrado" data-source-line="31" data-uid="lnk8" id="link_GRADOS_ABIERTO_crearGrado"><path d="M136.52,608.84 C169.27,594.47 204.5,579 204.5,579 C204.5,579 205.9349,558.2756 208.5649,520.3556" fill="none" id="GRADOS_ABIERTO-to-crearGrado" style="stroke:#008000;stroke-width:1;"/><polygon fill="#008000" points="208.98,514.37,204.3669,523.0717,208.634,519.358,212.3477,523.6252,208.98,514.37" style="stroke:#008000;stroke-width:1;"/></g><!--link crearGrado to GRADOS_ABIERTO--><g class="link" data-entity-1="crearGrado" data-entity-2="GRADOS_ABIERTO" data-source-line="38" data-uid="lnk11" id="link_crearGrado_GRADOS_ABIERTO"><path d="M70.06,514.04 C58.65,532.46 51.5,544 51.5,544 C51.5,544 51.5,579 51.5,579 C51.5,579 57.1743,589.2261 65.1643,603.5961" fill="none" id="crearGrado-to-GRADOS_ABIERTO" style="stroke:#0000FF;stroke-width:1;"/><polygon fill="#0000FF" points="68.08,608.84,67.2024,599.0303,65.6502,604.4701,60.2105,602.9179,68.08,608.84" style="stroke:#0000FF;stroke-width:1;"/><path d="M56.5,549 L56.5,574 L191.5,574 L191.5,559 L181.5,549 L56.5,549" fill="#FEFFDD" style="stroke:#181818;stroke-width:0.5;"/><path d="M181.5,549 L181.5,559 L191.5,559 L181.5,549" fill="#FEFFDD" style="stroke:#181818;stroke-width:0.5;"/><text fill="#000000" font-family="sans-serif" font-size="13" lengthAdjust="spacing" textLength="114.9624" x="62.5" y="566.0669">cancelar creaci&#243;n</text></g><!--link crearGrado to GRADO_ABIERTO--><g class="link" data-entity-1="crearGrado" data-entity-2="GRADO_ABIERTO" data-source-line="33" data-uid="lnk10" id="link_crearGrado_GRADO_ABIERTO"><path d="M265.95,514.18 C271.98,552.79 276.3849,581.0217 279.7649,602.6817" fill="none" id="crearGrado-to-GRADO_ABIERTO" style="stroke:#008000;stroke-width:1;"/><polygon fill="#008000" points="280.69,608.61,283.2545,599.1009,279.9191,603.6698,275.3502,600.3343,280.69,608.61" style="stroke:#008000;stroke-width:1;"/><path d="M279.5,549 L279.5,574 L467.5,574 L467.5,559 L457.5,549 L279.5,549" fill="#FEFFDD" style="stroke:#181818;stroke-width:0.5;"/><path d="M457.5,549 L457.5,559 L467.5,559 L457.5,549" fill="#FEFFDD" style="stroke:#181818;stroke-width:0.5;"/><text fill="#000000" font-family="sans-serif" font-size="13" lengthAdjust="spacing" textLength="167.3813" x="285.5" y="566.0669">editarGrado(gradoNuevo)</text></g><!--SRC=[ZLDBQiCm4Dth54EwIGgX5mY1D2cXcwJ4tOLGP6iQH6J9I4eXb4BFqdrNEK9kqfDqBDU_r2cLmKYUDs_UF8tTJkgCMvw2aXhz8KF8Z3ha1yQSvnuXiSZjt79XW3lerSV-e0UlZ06j0jcZXo2HKJAHdcjXPjmR5y2_OLCY8aWH3U7rzGQ6wwkjHTIRuRYR209K6o8oEbUz2nz6yNXc4jGUHpVn6DnFQg4UjY5Jx_6b489Q51IqMFNghjTKrD9yIKSadSUK1nsPHKUYU2beBq0WY9mTqjEdbYbj1Af2OM3uUl-0XKbZYz0tiP9R0bjf1bLmUZeAkJKNeXErJpMHebQaWqXTtM0UVq2RIX9TEcIR5ls5uZf1LMyIUJhgbfbrdQPDBV_eXlzrVParcR69D9gVcTLbSjx0pnKVm5kktRD4iey32jcXyusn-MeoMqPFazlxkzNZigMn7d366hFVX8JiCfcrcg6Allm_WgH5FdG3LXK_uupL7YlAg9kpjfvIYtvAkcy0]--></g></svg>