<svg xmlns="http://www.w3.org/2000/svg" xmlns:xlink="http://www.w3.org/1999/xlink" contentStyleType="text/css" data-diagram-type="STATE" height="896px" preserveAspectRatio="none" style="width:936px;height:896px;background:#FFFFFF;" version="1.1" viewBox="0 0 936 896" width="936px" zoomAndPan="magnify"><defs/><g><path d="M19.5,117 L910.4361,117 A12.5,12.5 0 0 1 922.9361,129.5 L922.9361,143.2969 L7,143.2969 L7,129.5 A12.5,12.5 0 0 1 19.5,117" fill="#F1F1F1"/><rect fill="none" height="663.2969" rx="12.5" ry="12.5" style="stroke:#181818;stroke-width:0.5;" width="915.9361" x="7" y="117"/><line style="stroke:#181818;stroke-width:0.5;" x1="7" x2="922.9361" y1="143.2969" y2="143.2969"/><text fill="#000000" font-family="sans-serif" font-size="14" lengthAdjust="spacing" textLength="138.585" x="395.6756" y="134.9951">corregirExamenes()</text><g id="corregirExamenes.RequiringCorrection"><rect fill="#F1F1F1" height="50" rx="12.5" ry="12.5" style="stroke:#181818;stroke-width:0.5;" width="50" x="311.9361" y="245.2969"/><line style="stroke:#181818;stroke-width:0.5;" x1="311.9361" x2="361.9361" y1="271.5938" y2="271.5938"/><text fill="#000000" font-family="sans-serif" font-size="14" lengthAdjust="spacing" textLength="4.4502" x="334.711" y="263.292">&#160;</text></g><g id="corregirExamenes.ProvidingDoneExams"><rect fill="#F1F1F1" height="50" rx="12.5" ry="12.5" style="stroke:#181818;stroke-width:0.5;" width="50" x="311.9361" y="381.2969"/><line style="stroke:#181818;stroke-width:0.5;" x1="311.9361" x2="361.9361" y1="407.5938" y2="407.5938"/><text fill="#000000" font-family="sans-serif" font-size="14" lengthAdjust="spacing" textLength="4.4502" x="334.711" y="399.292">&#160;</text></g><g id="corregirExamenes.ProvidingConfirmation"><rect fill="#F1F1F1" height="50" rx="12.5" ry="12.5" style="stroke:#181818;stroke-width:0.5;" width="50" x="28.9361" y="502.2969"/><line style="stroke:#181818;stroke-width:0.5;" x1="28.9361" x2="78.9361" y1="528.5938" y2="528.5938"/><text fill="#000000" font-family="sans-serif" font-size="14" lengthAdjust="spacing" textLength="4.4502" x="51.711" y="520.292">&#160;</text></g><g class="entity" data-entity="c" data-uid="ent0006" id="entity_c"><polygon fill="#F1F1F1" points="336.9361,653.2969,348.9361,665.2969,336.9361,677.2969,324.9361,665.2969,336.9361,653.2969" style="stroke:#181818;stroke-width:0.5;"/></g><ellipse cx="336.9361" cy="164.2969" fill="#222222" rx="10" ry="10" style="stroke:#222222;stroke-width:1;"/><ellipse cx="336.9361" cy="759.2969" fill="none" rx="11" ry="11" style="stroke:#222222;stroke-width:1;"/><ellipse cx="336.9361" cy="759.2969" fill="#222222" rx="6" ry="6" style="stroke:#222222;stroke-width:1;"/><!--link *start*corregirExamenes to RequiringCorrection--><g class="link" data-entity-1=".start.corregirExamenes" data-entity-2="RequiringCorrection" data-source-line="10" data-uid="lnk3" id="link_.start.corregirExamenes_RequiringCorrection"><path d="M336.9361,174.5269 C336.9361,190.2369 336.9361,216.6569 336.9361,239.1669" fill="none" id="*start*corregirExamenes-to-RequiringCorrection" style="stroke:#008000;stroke-width:1;"/><polygon fill="#008000" points="336.9361,245.1669,340.9361,236.1669,336.9361,240.1669,332.9361,236.1669,336.9361,245.1669" style="stroke:#008000;stroke-width:1;"/><path d="M341.9361,197.2969 L341.9361,222.2969 L599.9361,222.2969 L599.9361,207.2969 L589.9361,197.2969 L341.9361,197.2969" fill="#FEFFDD" style="stroke:#181818;stroke-width:0.5;"/><path d="M589.9361,197.2969 L589.9361,207.2969 L599.9361,207.2969 L589.9361,197.2969" fill="#FEFFDD" style="stroke:#181818;stroke-width:0.5;"/><text fill="#000000" font-family="sans-serif" font-size="13" font-weight="bold" lengthAdjust="spacing" textLength="60.5313" x="347.9361" y="214.3638">Docente</text><text fill="#000000" font-family="sans-serif" font-size="13" lengthAdjust="spacing" textLength="172.3643" x="412.5997" y="214.3638">solicita corregir ex&#225;menes</text></g><!--link RequiringCorrection to ProvidingDoneExams--><g class="link" data-entity-1="RequiringCorrection" data-entity-2="ProvidingDoneExams" data-source-line="15" data-uid="lnk4" id="link_RequiringCorrection_ProvidingDoneExams"><path d="M336.9361,295.5669 C336.9361,319.8469 336.9361,350.9869 336.9361,375.2069" fill="none" id="RequiringCorrection-to-ProvidingDoneExams" style="stroke:#008000;stroke-width:1;"/><polygon fill="#008000" points="336.9361,381.2069,340.9361,372.2069,336.9361,376.2069,332.9361,372.2069,336.9361,381.2069" style="stroke:#008000;stroke-width:1;"/><path d="M341.9361,318.2969 L341.9361,358.2969 L596.9361,358.2969 L596.9361,328.2969 L586.9361,318.2969 L341.9361,318.2969" fill="#FEFFDD" style="stroke:#181818;stroke-width:0.5;"/><path d="M586.9361,318.2969 L586.9361,328.2969 L596.9361,328.2969 L586.9361,318.2969" fill="#FEFFDD" style="stroke:#181818;stroke-width:0.5;"/><text fill="#000000" font-family="sans-serif" font-size="13" font-weight="bold" lengthAdjust="spacing" textLength="58.9063" x="347.9361" y="335.3638">Sistema</text><text fill="#000000" font-family="sans-serif" font-size="13" lengthAdjust="spacing" textLength="117.9395" x="410.9747" y="335.3638">permite introducir</text><text fill="#000000" font-family="sans-serif" font-size="13" lengthAdjust="spacing" textLength="234.8252" x="347.9361" y="350.4966">&#8226; ex&#225;menes realizados por alumnos</text></g><!--link ProvidingDoneExams to ProvidingConfirmation--><g class="link" data-entity-1="ProvidingDoneExams" data-entity-2="ProvidingConfirmation" data-source-line="21" data-uid="lnk5" id="link_ProvidingDoneExams_ProvidingConfirmation"><path d="M311.8461,410.6669 C237.5761,420.6269 23.9361,449.2969 23.9361,449.2969 C23.9361,449.2969 23.9361,484.2969 23.9361,484.2969 C23.9361,484.2969 26.3986,487.7445 32.9986,496.9845" fill="none" id="ProvidingDoneExams-to-ProvidingConfirmation" style="stroke:#008000;stroke-width:1;"/><polygon fill="#008000" points="36.4861,501.8669,34.5099,492.2183,33.5799,497.7982,28,496.8682,36.4861,501.8669" style="stroke:#008000;stroke-width:1;"/><path d="M28.9361,454.2969 L28.9361,479.2969 L317.9361,479.2969 L317.9361,464.2969 L307.9361,454.2969 L28.9361,454.2969" fill="#FEFFDD" style="stroke:#181818;stroke-width:0.5;"/><path d="M307.9361,454.2969 L307.9361,464.2969 L317.9361,464.2969 L307.9361,454.2969" fill="#FEFFDD" style="stroke:#181818;stroke-width:0.5;"/><text fill="#000000" font-family="sans-serif" font-size="13" font-weight="bold" lengthAdjust="spacing" textLength="60.5313" x="34.9361" y="471.3638">Docente</text><text fill="#000000" font-family="sans-serif" font-size="13" lengthAdjust="spacing" textLength="203.7788" x="99.5997" y="471.3638">introduce ex&#225;menes realizados</text></g><!--link ProvidingConfirmation to c--><g class="link" data-entity-1="ProvidingConfirmation" data-entity-2="c" data-source-line="26" data-uid="lnk6" id="link_ProvidingConfirmation_c"><path d="M74.5861,552.3069 C101.7061,583.8569 145.9361,635.2969 145.9361,635.2969 C145.9361,635.2969 282.344,656.0063 321.274,661.9163" fill="none" id="ProvidingConfirmation-to-c" style="stroke:#008000;stroke-width:1;"/><polygon fill="#008000" points="327.2061,662.8169,318.9084,657.5114,322.2627,662.0664,317.7077,665.4207,327.2061,662.8169" style="stroke:#008000;stroke-width:1;"/><path d="M150.9361,575.2969 L150.9361,630.2969 L317.9361,630.2969 L317.9361,585.2969 L307.9361,575.2969 L150.9361,575.2969" fill="#FEFFDD" style="stroke:#181818;stroke-width:0.5;"/><path d="M307.9361,575.2969 L307.9361,585.2969 L317.9361,585.2969 L307.9361,575.2969" fill="#FEFFDD" style="stroke:#181818;stroke-width:0.5;"/><text fill="#000000" font-family="sans-serif" font-size="13" font-weight="bold" lengthAdjust="spacing" textLength="60.5313" x="156.9361" y="592.3638">Docente</text><text fill="#000000" font-family="sans-serif" font-size="13" lengthAdjust="spacing" textLength="45.7729" x="221.5997" y="592.3638">solicita</text><text fill="#000000" font-family="sans-serif" font-size="13" lengthAdjust="spacing" textLength="146.6689" x="156.9361" y="607.4966">&#8226; confirmar correcci&#243;n</text><text fill="#000000" font-family="sans-serif" font-size="13" lengthAdjust="spacing" textLength="139.2422" x="156.9361" y="622.6294">&#8226; cancelar correcci&#243;n</text></g><!--link c to ProvidingDoneExams--><g class="link" data-entity-1="c" data-entity-2="ProvidingDoneExams" data-source-line="33" data-uid="lnk7" id="link_c_ProvidingDoneExams"><path d="M336.9361,653.2469 C336.9361,614.6869 336.9361,491.5769 336.9361,437.4769" fill="none" id="c-to-ProvidingDoneExams" style="stroke:#FF0000;stroke-width:1;"/><polygon fill="#FF0000" points="336.9361,431.4769,332.9361,440.4769,336.9361,436.4769,340.9361,440.4769,336.9361,431.4769" style="stroke:#FF0000;stroke-width:1;"/><path d="M341.9361,514.7969 L341.9361,539.7969 L542.9361,539.7969 L542.9361,524.7969 L532.9361,514.7969 L341.9361,514.7969" fill="#FEFFDD" style="stroke:#181818;stroke-width:0.5;"/><path d="M532.9361,514.7969 L532.9361,524.7969 L542.9361,524.7969 L532.9361,514.7969" fill="#FEFFDD" style="stroke:#181818;stroke-width:0.5;"/><text fill="#000000" font-family="sans-serif" font-size="13" lengthAdjust="spacing" textLength="180.6733" x="347.9361" y="531.8638">Docente cancela correcci&#243;n</text></g><!--link c to ProvidingDoneExams--><g class="link" data-entity-1="c" data-entity-2="ProvidingDoneExams" data-source-line="38" data-uid="lnk8" id="link_c_ProvidingDoneExams"><path d="M344.3361,660.4369 C382.1461,640.7469 551.9361,552.2969 551.9361,552.2969 C551.9361,552.2969 551.9361,502.2969 551.9361,502.2969 C551.9361,502.2969 424.2243,445.8617 367.5043,420.8017" fill="none" id="c-to-ProvidingDoneExams-1" style="stroke:#FF0000;stroke-width:1;"/><polygon fill="#FF0000" points="362.0161,418.3769,368.6319,425.6729,366.5896,420.3975,371.8649,418.3553,362.0161,418.3769" style="stroke:#FF0000;stroke-width:1;"/><path d="M556.9361,514.7969 L556.9361,539.7969 L913.9361,539.7969 L913.9361,524.7969 L903.9361,514.7969 L556.9361,514.7969" fill="#FEFFDD" style="stroke:#181818;stroke-width:0.5;"/><path d="M903.9361,514.7969 L903.9361,524.7969 L913.9361,524.7969 L903.9361,514.7969" fill="#FEFFDD" style="stroke:#181818;stroke-width:0.5;"/><text fill="#000000" font-family="sans-serif" font-size="13" lengthAdjust="spacing" textLength="336.6987" x="562.9361" y="531.8638">Docente confirma correcci&#243;n: error en la correcci&#243;n</text></g><!--link c to *end*corregirExamenes--><g class="link" data-entity-1="c" data-entity-2=".end.corregirExamenes" data-source-line="43" data-uid="lnk10" id="link_c_.end.corregirExamenes"><path d="M336.9361,677.5769 C336.9361,695.6169 336.9361,724.6969 336.9361,742.0569" fill="none" id="c-to-*end*corregirExamenes" style="stroke:#008000;stroke-width:1;"/><polygon fill="#008000" points="336.9361,748.0569,340.9361,739.0569,336.9361,743.0569,332.9361,739.0569,336.9361,748.0569" style="stroke:#008000;stroke-width:1;"/><path d="M341.9361,700.2969 L341.9361,725.2969 L677.9361,725.2969 L677.9361,710.2969 L667.9361,700.2969 L341.9361,700.2969" fill="#FEFFDD" style="stroke:#181818;stroke-width:0.5;"/><path d="M667.9361,700.2969 L667.9361,710.2969 L677.9361,710.2969 L667.9361,700.2969" fill="#FEFFDD" style="stroke:#181818;stroke-width:0.5;"/><text fill="#000000" font-family="sans-serif" font-size="13" lengthAdjust="spacing" textLength="315.7261" x="347.9361" y="717.3638">Docente confirma correcci&#243;n: correcci&#243;n exitosa</text></g><g id="SISTEMA_DISPONIBLE"><rect fill="#F1F1F1" height="50" rx="12.5" ry="12.5" style="stroke:#181818;stroke-width:0.5;" width="172.0654" x="379" y="7"/><line style="stroke:#181818;stroke-width:0.5;" x1="379" x2="551.0654" y1="33.2969" y2="33.2969"/><text fill="#000000" font-family="sans-serif" font-size="14" lengthAdjust="spacing" textLength="152.0654" x="389" y="24.9951">SISTEMA_DISPONIBLE</text></g><g id="EXAMENES_CORREGIDOS"><rect fill="#F1F1F1" height="50" rx="12.5" ry="12.5" style="stroke:#181818;stroke-width:0.5;" width="198.9033" x="365.5" y="840"/><line style="stroke:#181818;stroke-width:0.5;" x1="365.5" x2="564.4033" y1="866.2969" y2="866.2969"/><text fill="#000000" font-family="sans-serif" font-size="14" lengthAdjust="spacing" textLength="178.9033" x="375.5" y="857.9951">EXAMENES_CORREGIDOS</text></g><!--link SISTEMA_DISPONIBLE to corregirExamenes--><g class="link" data-entity-1="SISTEMA_DISPONIBLE" data-entity-2="corregirExamenes" data-source-line="49" data-uid="lnk12" id="link_SISTEMA_DISPONIBLE_corregirExamenes"><path d="M465,57.08 C465,71.85 465,86.58 465,110.86" fill="none" id="SISTEMA_DISPONIBLE-to-corregirExamenes" style="stroke:#008000;stroke-width:1;"/><polygon fill="#008000" points="465,116.86,469,107.86,465,111.86,461,107.86,465,116.86" style="stroke:#008000;stroke-width:1;"/></g><!--link corregirExamenes to EXAMENES_CORREGIDOS--><g class="link" data-entity-1="corregirExamenes" data-entity-2="EXAMENES_CORREGIDOS" data-source-line="51" data-uid="lnk14" id="link_corregirExamenes_EXAMENES_CORREGIDOS"><path d="M465,780.12 C465,804.36 465,819.06 465,833.83" fill="none" id="corregirExamenes-to-EXAMENES_CORREGIDOS" style="stroke:#008000;stroke-width:1;"/><polygon fill="#008000" points="465,839.83,469,830.83,465,834.83,461,830.83,465,839.83" style="stroke:#008000;stroke-width:1;"/></g><!--SRC=[fPJTIiCm5CVlynHXtgWml9THc5kHWVjWzK8OOsJfSHxM9lCa4pyGV1Lz1HzXR-AJc7QVNJldD8L2alyv_r_EQMF6g2Q2HCmZL62V9i0dEdfA9emPAonmgObWXEG_YXWK62uCBsql7f-K-0jZt8rvLCazJjY5-oaIgb4j2P0MjSgBEgGVC7IYkbQGP3G_Q6fQtIB5OYkLv9MAlDCemVFc7BtJFY_tZaO4eFfbRoUAqYvSgwG0utIXClJgMeAoK3aRUjpe22LQiIe4XyVPUthgL0ugdETmWwrU1MuPcXrdBe89q5Y8HGep0OhHIL1Pqk5K8gMghxUFDHKd414-Yr0RrqpY8fh6IcTXrw1va6BENDttrMs928La-sWsxJ90yg2chQeZ5_betaOfSVQfrhj2IOWADlE4Cg4X20zfue9iQRFRvVyEYsDkMfnp87BV0JZzhxnNjNQ_q5_iDYQkzsYr4LchLyQ2Hd3jDwk3UYFej5kDYoi_s-Mj-uMnt3MqAVTlgas_vGU3MhlRzIyRzNRm3G00]--></g></svg>